<svg xmlns="http://www.w3.org/2000/svg" xmlns:xlink="http://www.w3.org/1999/xlink" xmlns:etg="http://www.eurotaxglass.com/etg/evd/" etg:dataTimestamp="1539068912893" contentScriptType="text/ecmascript" zoomAndPan="magnify" contentStyleType="text/css" id="Layer_1" enable-background="new 0 0 1841.891 1595.279" version="1.1" xml:space="preserve" width="1841.891px" preserveAspectRatio="xMidYMid meet" viewBox="0 0 1841.891 1595.279" height="1595.279px" x="0px" y="0px"><g xmlns="http://www.w3.org/2000/svg" objecttype="PS" tooltip="#UNDEFINED" id="163">
<g onmouseover="notifyOwner(AGV_OBJECT_MOUSEOVER, '163(PS)')" transform="translate(-1.0864257831144641E-5, 66.80804286193847) translate(-478.1112626953125, -9.244252822875978) translate(9.340669394386168, -0.7185130303374052) translate(435.56057501016494, -50.81540041785257) translate(20,20) " onclick="clickZoom(evt); notifyOwner(AGV_OBJECT_MOUSECLICK, '163(PS)')" onmouseout="notifyOwner(AGV_OBJECT_MOUSEOUT, '163(PS)')" tooltip="#UNDEFINED" id="163-Graphic" objecttype="GRAPHIC">
<g zvalue="27">
<g zvalue="11">
<g>
<path orgstroke="#000000" orgfill="#ffffff" transform="translate(-518.5915025634765, -83.33211865234375) translate(10.419795411836503, -9.551479127516757) translate(658.0, -6.0) translate(10.0, 10.00006103515625) " fill="#ffffff" g2gfill="#BCBEC0" d="M398.979,153.229   c-0.023,0.146-0.172,0.471-0.265,0.609c-0.656,0.975-2.521,2.973-3.249,3.396c-0.734,0.422-9.563,5.639-9.563,5.639   s-0.253,0.145-0.746-0.412c-0.493-0.563,0-1.193,0-1.193s1.277-1.76,1.855-2.307s0.104-0.449-0.112-1.107   c-0.22-0.646-0.221-0.771-0.779-1.102c-0.558-0.324-0.729-0.455-0.885-0.609c-0.464-0.479-0.838-0.916-1.08-1.207   c-0.242-0.293-0.308-0.836-0.308-0.836v-0.695c0.01-0.063,0.136-0.338,0.337-0.455c0.201-0.115,7.788-4.494,8.077-4.662   c0.289-0.166,0.877-0.162,1.61,0.26c1.304,0.748,3.346,1.809,4.32,2.611c0.454,0.373,0.708,1.021,0.786,1.588   C399.004,152.912,399.003,153.082,398.979,153.229z" stroke="#000000" outline-element="true" stroke-width="0.5" g2gstroke="#312783" stroke-miterlimit="10"/>
<path orgstroke="#000000" orgfill="none" transform="translate(-518.5915025634765, -83.33211865234375) translate(10.419795411836503, -9.551479127516757) translate(658.0, -6.0) translate(10.0, 10.00006103515625) " fill="none" d="M387.177,153.379   c0.521-0.197,1.252-0.117,1.633,0.182c0.381,0.309,0.27,0.697-0.252,0.896c-0.522,0.197-1.252,0.115-1.633-0.182   C386.542,153.973,386.655,153.574,387.177,153.379z" stroke="#000000" stroke-width="0.25" g2gstroke="#312783" stroke-miterlimit="10"/>
<path orgstroke="#000000" orgfill="none" transform="translate(-518.5915025634765, -83.33211865234375) translate(10.419795411836503, -9.551479127516757) translate(658.0, -6.0) translate(10.0, 10.00006103515625) " fill="none" d="M388.46600341796875 156.56399536132812L398.04901123046875 151.031005859375" stroke="#000000" stroke-width="0.25" g2gstroke="#312783" stroke-miterlimit="10"/>
<path orgstroke="#000000" orgfill="none" transform="translate(-518.5915025634765, -83.33211865234375) translate(10.419795411836503, -9.551479127516757) translate(658.0, -6.0) translate(10.0, 10.00006103515625) " fill="none" d="M387.747,156.045c0,0-1.715-0.975-2.513-1.436   c-0.473-0.273-1.139-0.609-1.388-1.396" stroke="#000000" stroke-width="0.25" g2gstroke="#312783" stroke-miterlimit="10"/>
<path orgstroke="#000000" orgfill="none" transform="translate(-518.5915025634765, -83.33211865234375) translate(10.419795411836503, -9.551479127516757) translate(658.0, -6.0) translate(10.0, 10.00006103515625) " fill="none" d="M387.944,158.348   c-0.381-0.252-0.679-0.771-0.664-1.164c0.021-0.391,0.333-0.506,0.714-0.254c0.381,0.25,0.688,0.771,0.664,1.164   C388.646,158.484,388.325,158.598,387.944,158.348z" stroke="#000000" stroke-width="0.25" g2gstroke="#312783" stroke-miterlimit="10"/>
<path orgstroke="#000000" orgfill="none" transform="translate(-518.5915025634765, -83.33211865234375) translate(10.419795411836503, -9.551479127516757) translate(658.0, -6.0) translate(10.0, 10.00006103515625) " fill="none" d="M389.135,159.014   c0.126-0.189,0.177-0.494,0.126-0.854c-0.122-0.881-0.8-1.828-1.521-2.115c-0.713-0.289-1.188,0.191-1.063,1.07   c0.122,0.881,0.8,1.828,1.514,2.115C388.612,159.402,388.952,159.305,389.135,159.014" stroke="#000000" stroke-width="0.25" g2gstroke="#312783" stroke-miterlimit="10"/>
<path orgstroke="#000000" orgfill="none" transform="translate(-518.5915025634765, -83.33211865234375) translate(10.419795411836503, -9.551479127516757) translate(658.0, -6.0) translate(10.0, 10.00006103515625) " fill="none" d="M389.135009765625 159.01400756835938L398.85198974609375 153.47500610351562" stroke="#000000" stroke-width="0.25" g2gstroke="#312783" stroke-miterlimit="10"/>
<path orgstroke="#000000" orgfill="none" transform="translate(-518.5915025634765, -83.33211865234375) translate(10.419795411836503, -9.551479127516757) translate(658.0, -6.0) translate(10.0, 10.00006103515625) " fill="none" d="M388.90301513671875 159.218994140625L385.7969970703125 162.86900329589844" stroke="#000000" stroke-width="0.25" g2gstroke="#312783" stroke-miterlimit="10"/>
<path orgstroke="#000000" orgfill="none" transform="translate(-518.5915025634765, -83.33211865234375) translate(10.419795411836503, -9.551479127516757) translate(658.0, -6.0) translate(10.0, 10.00006103515625) " fill="none" d="M386.922,154.117   c0.059-0.037,0.126-0.068,0.188-0.105c0.521-0.188,1.252-0.104,1.646,0.189" stroke="#000000" stroke-width="0.25" g2gstroke="#312783" stroke-miterlimit="10"/>
<path orgstroke="#000000" orgfill="none" transform="translate(-518.5915025634765, -83.33211865234375) translate(10.419795411836503, -9.551479127516757) translate(658.0, -6.0) translate(10.0, 10.00006103515625) " fill="none" d="M393.209,149.916   c0.521-0.197,1.265-0.115,1.646,0.182c0.381,0.311,0.27,0.697-0.252,0.896c-0.522,0.188-1.252,0.115-1.646-0.188   C392.574,150.512,392.688,150.113,393.209,149.916z" stroke="#000000" stroke-width="0.25" g2gstroke="#312783" stroke-miterlimit="10"/>
<path orgstroke="#000000" orgfill="none" transform="translate(-518.5915025634765, -83.33211865234375) translate(10.419795411836503, -9.551479127516757) translate(658.0, -6.0) translate(10.0, 10.00006103515625) " fill="none" d="M392.954,150.654   c0.063-0.035,0.126-0.068,0.201-0.104c0.521-0.188,1.252-0.105,1.633,0.188" stroke="#000000" stroke-width="0.25" g2gstroke="#312783" stroke-miterlimit="10"/>
</g>
</g>
</g>
</g>
</g></svg>