<svg xmlns="http://www.w3.org/2000/svg" xmlns:xlink="http://www.w3.org/1999/xlink" xmlns:etg="http://www.eurotaxglass.com/etg/evd/" etg:dataTimestamp="1539068912893" contentScriptType="text/ecmascript" zoomAndPan="magnify" contentStyleType="text/css" id="Layer_1" style="enable-background:new 0 0 841.891 595.279;" enable-background="new 0 0 1841.891 1595.279" version="1.1" xml:space="preserve" width="1841.891px" preserveAspectRatio="xMidYMid meet" viewBox="0 0 1841.891 1595.279" height="1595.279px" x="0px" y="0px"><g xmlns="http://www.w3.org/2000/svg" objecttype="PS" tooltip="#UNDEFINED" id="37">
<g onmouseover="notifyOwner(AGV_OBJECT_MOUSEOVER, '37(PS)')" transform="translate(32.51611243057249, -6.830272338867189) translate(33.7702661590576, 18.912113525390623) translate(1.0, 2.0)" onclick="clickZoom(evt); notifyOwner(AGV_OBJECT_MOUSECLICK, '37(PS)')" onmouseout="notifyOwner(AGV_OBJECT_MOUSEOUT, '37(PS)')" tooltip="#UNDEFINED" id="37-Graphic" objecttype="GRAPHIC">
<g>
	<polygon orgstroke="#000000" orgfill="#ffffff" points="667.607,367.484 668.834,367.351    669.88,367.385 671.773,367.552 674.255,367.86 676.979,368.319 681.568,369.698 686.74,371.616 690.21,373.136 695.959,375.695    700.227,377.562 703.273,379.261 705.348,380.392 706.309,381.361 707.043,382.635 707.13,384.657 706.818,386.57 706.065,387.345    705.418,388.015 704.194,388.053 702.773,388.177 701.568,387.802 699.686,387.094 698.796,386.523 698.523,386.481    698.166,386.536 697.807,386.644 697.198,386.927 695.948,387.479 693.893,388.479 691.822,389.48 688.19,391.475 686.479,392.469    685.13,393.434 683.625,394.364 682.293,395.201 681.15,396.188 679.834,397.365 678.875,398.699 678.24,399.719 677.606,400.863    676.973,401.885 676.488,402.561 675.948,403.071 675.294,403.272 674.546,403.344 673.584,403.072 672.25,402.726    671.115,402.261 668.334,400.642 655.988,393.847 649.21,390.347 646.482,388.973 645.477,388.238 644.543,387.345 643.69,386.219    643.044,385.021 642.863,384.028 642.809,382.738 643,381.636 643.443,380.404 644.225,379.263 645.073,378.431 647.053,377.119    650.198,375.268 655.022,372.763 658.439,370.993 661.084,369.654 663,368.76 664.863,368.108 666.198,367.742 667.198,367.494     " fill="#ffffff" g2gfill="#ECC35D" outline-element="true" stroke="#000000" stroke-width="0.5" g2gstroke="#312783" stroke-miterlimit="10"/>
	<polyline orgstroke="#000000" orgfill="none" points="685.443,390.945 682.022,392.851    680.044,394.16 678.065,395.678 677.031,397.105 675.837,399.07 674.143,402.844  " fill="none" stroke="#000000" stroke-width="0.25" g2gstroke="#312783" stroke-miterlimit="10"/>
	<polyline orgstroke="#000000" orgfill="none" points="690.281,388.345 688.94,388.978    687.848,389.595  " fill="none" stroke="#000000" stroke-width="0.25" g2gstroke="#312783" stroke-miterlimit="10"/>
	<polyline orgstroke="#000000" orgfill="none" points="705.625,381.391 704.668,381.552    701.897,382.735 697.857,384.606 692.906,387.103 690.281,388.345  " fill="none" stroke="#000000" stroke-width="0.25" g2gstroke="#312783" stroke-miterlimit="10"/>
	<polyline orgstroke="#000000" orgfill="none" points="655.563,383.178 658.191,384.26    661.709,385.536 665.544,387.108 668.648,388.639 672.003,390.26 675.085,392.053 678.296,393.928  " fill="none" stroke="#000000" stroke-width="0.25" g2gstroke="#312783" stroke-miterlimit="10"/>
	<polyline orgstroke="#000000" orgfill="none" points="644.197,380.219 647.148,380.72    650.354,381.642 652.773,382.272  " fill="none" stroke="#000000" stroke-width="0.25" g2gstroke="#312783" stroke-miterlimit="10"/>
	<polyline orgstroke="#000000" orgfill="none" points="658.334,387.427 660.794,388.47    664.234,389.947 668.194,391.729 671.74,393.69 675.607,396.075  " fill="none" stroke="#000000" stroke-width="0.25" g2gstroke="#312783" stroke-miterlimit="10"/>
	<polyline orgstroke="#000000" orgfill="none" points="644.52,383.01 647.921,383.807    652.041,385.261 654.903,386.15  " fill="none" stroke="#000000" stroke-width="0.25" g2gstroke="#312783" stroke-miterlimit="10"/>
	<polyline orgstroke="#000000" orgfill="none" points="699.198,385.97 700.75,384.974    702,384.436 703.107,384.024 703.781,383.994 704.186,384.152 704.49,384.645 704.584,385.469 704.459,386.403 704.227,387.01    703.837,387.802  " fill="none" stroke="#000000" stroke-width="0.25" g2gstroke="#312783" stroke-miterlimit="10"/>
</g>
</g>
</g></svg>