<svg xmlns="http://www.w3.org/2000/svg" xmlns:xlink="http://www.w3.org/1999/xlink" xmlns:etg="http://www.eurotaxglass.com/etg/evd/" etg:dataTimestamp="1539068912893" contentScriptType="text/ecmascript" zoomAndPan="magnify" contentStyleType="text/css" id="Layer_1" enable-background="new 0 0 1841.891 1595.279" version="1.1" xml:space="preserve" width="1841.891px" preserveAspectRatio="xMidYMid meet" viewBox="0 0 1841.891 1595.279" height="1595.279px" x="0px" y="0px"><g xmlns="http://www.w3.org/2000/svg" objecttype="PS" tooltip="#UNDEFINED" id="69">
<g onmouseover="notifyOwner(AGV_OBJECT_MOUSEOVER, '69(PS)')" transform="translate(-0.8564742589703656, 0.0) translate(-8.279251170046791, -0.5709828393136149) translate(-5.424336973478944, -1.9984399375974817) translate(-5.1388455538221365, -3.9968798751950203) translate(10.277691107644273, 9.706708268330715) translate(-13.132605304212177, -7.708268330733233) translate(-11.110916137695312, -3.734649658203125) translate(21.982839313572526, 11.705148205928253) translate(-61.04651162790702, -113.95348837209303) translate(-263.0, -99.0) translate(279.0, 187.0) translate(45,26) " onclick="clickZoom(evt); notifyOwner(AGV_OBJECT_MOUSECLICK, '69(PS)')" onmouseout="notifyOwner(AGV_OBJECT_MOUSEOUT, '69(PS)')" tooltip="#UNDEFINED" id="69-Graphic" objecttype="GRAPHIC">
<g zvalue="40">
<g>
<path orgstroke="#000000" orgfill="#ffffff" fill="#ffffff" g2gfill="#ECF5E4" d="M423.31,247.351   c-0.484-0.08-1.085,0.055-1.735,0.429c-1.604,0.93-2.907,2.987-2.907,4.598c0,0.443,0.101,0.813,0.271,1.085h0.063l0.887,1.518   l2.958,4.021l0.729,2.237l1.271,1.221l1.096,1.655l1.29,1.132l1.339,2.843l2.188,1.121l0.709,0.917l3.294,1.188l2.327-0.274   l1.851,0.396l2.313-0.225l1.84-0.438l1.461,0.216l1.242-0.302l1.621-0.103l1.796,0.999l2.129-0.05l6.262,3.521   c0.59,0.418,1.511,0.376,2.547-0.229c1.78-1.021,3.225-3.303,3.225-5.083c0-0.892-0.354-1.479-0.938-1.729l-2.286-1.438   l-3.896-2.469l-0.354-1.794l-2.462-1.62l-0.541-1.135l-1.213-1.313l-0.547-1.177l-1.078-1.229l-0.831-1.34l-0.905-1.906   l-1.521-0.947l-0.729-0.977l-2.504-1.394l-0.916-0.589l-2.719-0.504l-2.365,0.063l-1.915-0.479l-2.097,0.088l-1.188-0.354   l-8.938-0.272L423.31,247.351z" stroke="#000000" outline-element="true" stroke-width="0.5" g2gstroke="#312783" stroke-miterlimit="10"/>
<path orgstroke="#000000" orgfill="#F1E3BB" fill="#F1E3BB" d="M423.92498779296875 247.16799926757812L432.3529968261719 247.5030059814453L433.6679992675781 247.99000549316406L435.6300048828125 247.7689971923828L437.65399169921875 248.2449951171875L439.73699951171875 248.18699645996094L441.322998046875 248.43299865722656L442.552001953125 248.66900634765625L443.5450134277344 249.27499389648438L445.55499267578125 250.38999938964844L446.697998046875 251.531005859375L448.3059997558594 252.58299255371094L449.2099914550781 254.4929962158203L449.864990234375 255.54800415039062L451.114990234375 257.06500244140625L451.6579895019531 258.24200439453125L452.87799072265625 259.54901123046875L453.531005859375 260.760986328125L454.239990234375 261.2229919433594L453.80499267578125 261.572998046875L453.364990234375 261.40899658203125L452.64801025390625 261.35400390625L451.614990234375 261.593994140625L450.864990234375 261.9570007324219L450.3219909667969 262.2980041503906L449.90301513671875 262.63800048828125L449.4360046386719 262.9620056152344L449.00799560546875 263.50201416015625L448.5669860839844 264.031005859375L448.0740051269531 264.7229919433594L447.7539978027344 265.2879943847656L447.37701416015625 266.09100341796875L447.04998779296875 267.1260070800781L446.94000244140625 267.8320007324219L447 268.4989929199219L447.0710144042969 269.1610107421875L447.3210144042969 269.6780090332031L447.7179870605469 270.09600830078125L447.406005859375 270.56201171875L445.7929992675781 270.656005859375L444.552001953125 270.84100341796875L443.0889892578125 270.7409973144531L441.25 271.18701171875L438.93798828125 271.40301513671875L437.0889892578125 271.0069885253906L434.7619934082031 271.281005859375L431.4679870605469 270.09600830078125L430.7590026855469 269.17999267578125L428.572998046875 268.0559997558594L427.2330017089844 265.21600341796875L425.9429931640625 264.0830078125L424.84698486328125 262.4280090332031L423.572998046875 261.2070007324219L422.7650146484375 258.85400390625L419.8909912109375 254.94500732421875L419.22698974609375 253.83999633789062L418.94000244140625 253.43600463867188L418.6610107421875 252.3509979248047L418.8280029296875 251.2790069580078L419.093994140625 250.51499938964844L419.57598876953125 249.7010040283203L420.1050109863281 248.9980010986328L420.6719970703125 248.41700744628906L421.2149963378906 247.98199462890625L421.81201171875 247.625L423.072998046875 247.281005859375Z" stroke="#000000" stroke-width="0.25" g2gstroke="#312783" stroke-miterlimit="10"/>
<path orgstroke="#000000" orgfill="none" fill="none" d="M457.102,274.432   c-0.116-0.271-0.179-0.584-0.179-0.958c0-1.78,1.438-4.063,3.222-5.083c0.544-0.313,1.055-0.479,1.503-0.495" stroke="#000000" stroke-width="0.25" g2gstroke="#312783" stroke-miterlimit="10"/>
<path orgstroke="#000000" orgfill="none" fill="none" d="M451.24,271.42   c-0.376-0.273-0.354-1.185-0.354-1.854c0-1.65,1.337-3.762,2.979-4.712c0.97-0.563,1.826-0.604,2.373-0.199" stroke="#000000" stroke-width="0.25" g2gstroke="#312783" stroke-miterlimit="10"/>
<path orgstroke="#000000" orgfill="none" fill="none" d="M449.362,271.171   c-0.499-0.371-0.792-1.021-0.792-1.913c0-2.179,1.771-4.966,3.947-6.226c1.271-0.736,2.41-0.786,3.132-0.26" stroke="#000000" stroke-width="0.25" g2gstroke="#312783" stroke-miterlimit="10"/>
<path orgstroke="#000000" orgfill="none" fill="none" d="M447.718,270.124   c-0.499-0.374-0.792-1.021-0.792-1.913c0-2.182,1.769-4.967,3.938-6.229c1.273-0.736,2.412-0.784,3.141-0.26" stroke="#000000" stroke-width="0.25" g2gstroke="#312783" stroke-miterlimit="10"/>
<path orgstroke="#000000" orgfill="none" fill="none" d="M462.837,270.719c0,1.182-0.96,2.69-2.146,3.383   c-1.184,0.678-2.143,0.271-2.143-0.908c0-1.188,0.959-2.697,2.143-3.38C461.877,269.13,462.837,269.534,462.837,270.719z" stroke="#000000" stroke-width="0.25" g2gstroke="#312783" stroke-miterlimit="10"/>
<path orgstroke="#000000" orgfill="none" fill="none" d="M428.906,267.934   c-0.943-0.855-1.506-2.231-1.506-4.063c0-4.87,3.946-11.102,8.817-13.909c2.435-1.396,4.637-1.688,6.229-1.016" stroke="#000000" stroke-width="0.25" g2gstroke="#312783" stroke-miterlimit="10"/>
<path orgstroke="#000000" orgfill="none" fill="none" d="M430.854,268.859   c-0.952-0.858-1.507-2.234-1.507-4.063c0-4.861,3.949-11.102,8.813-13.9c2.438-1.404,4.646-1.689,6.234-1.021" stroke="#000000" stroke-width="0.25" g2gstroke="#312783" stroke-miterlimit="10"/>
<path orgstroke="#000000" orgfill="none" fill="none" d="M432.502,269.889   c-0.949-0.855-1.515-2.231-1.515-4.063c0-4.873,3.949-11.102,8.82-13.912c2.438-1.396,4.637-1.688,6.233-1.016" stroke="#000000" stroke-width="0.25" g2gstroke="#312783" stroke-miterlimit="10"/>
<path orgstroke="#000000" orgfill="none" fill="none" d="M434.762,271.309   c-0.951-0.855-1.508-2.229-1.508-4.063c0-4.873,3.939-11.102,8.813-13.912c2.438-1.396,4.521-1.476,6.113-0.8" stroke="#000000" stroke-width="0.25" g2gstroke="#312783" stroke-miterlimit="10"/>
<path orgstroke="#000000" orgfill="none" fill="none" d="M426.141,263.657   c-0.771-0.692-1.217-1.802-1.217-3.278c0-3.926,3.187-8.953,7.106-11.221c1.973-1.132,3.742-1.362,5.028-0.819" stroke="#000000" stroke-width="0.25" g2gstroke="#312783" stroke-miterlimit="10"/>
<path orgstroke="#000000" orgfill="none" fill="none" d="M437.851,271.171   c-0.771-0.688-0.783-2.547-0.783-4.02c0-3.931,3.188-8.956,7.113-11.22c1.966-1.141,3.743-1.362,5.031-0.82" stroke="#000000" stroke-width="0.25" g2gstroke="#312783" stroke-miterlimit="10"/>
<path orgstroke="#000000" orgfill="none" fill="none" d="M424.229,261.376   c-0.675-0.604-1.068-1.583-1.068-2.879c0-3.455,2.811-7.874,6.254-9.864c1.729-0.988,3.29-1.19,4.43-0.723" stroke="#000000" stroke-width="0.25" g2gstroke="#312783" stroke-miterlimit="10"/>
<path orgstroke="#000000" orgfill="none" fill="none" d="M441.153,271.01   c-0.676-0.609-0.949-2.082-0.949-3.386c0-3.446,2.811-7.874,6.254-9.855c1.729-0.997,3.291-1.199,4.43-0.729" stroke="#000000" stroke-width="0.25" g2gstroke="#312783" stroke-miterlimit="10"/>
<path orgstroke="#000000" orgfill="none" fill="none" d="M444.552,270.869   c-0.563-0.501-0.62-1.744-0.62-2.807c0-2.83,2.295-6.448,5.123-8.076c1.414-0.817,2.695-0.983,3.623-0.592" stroke="#000000" stroke-width="0.25" g2gstroke="#312783" stroke-miterlimit="10"/>
<path orgstroke="#000000" orgfill="none" fill="none" d="M459.8450012207031 268.3489990234375L454.0050048828125 265.0299987792969" stroke="#000000" stroke-width="0.25" g2gstroke="#312783" stroke-miterlimit="10"/>
<path orgstroke="#000000" orgfill="none" fill="none" d="M458.5190124511719 269.48199462890625L452.6789855957031 266.1619873046875" stroke="#000000" stroke-width="0.25" g2gstroke="#312783" stroke-miterlimit="10"/>
<path orgstroke="#000000" orgfill="none" fill="none" d="M457.6000061035156 271.010009765625L451.760009765625 267.6910095214844" stroke="#000000" stroke-width="0.25" g2gstroke="#312783" stroke-miterlimit="10"/>
<path orgstroke="#000000" orgfill="none" fill="none" d="M456.9259948730469 272.5270080566406L451.0849914550781 269.2080078125" stroke="#000000" stroke-width="0.25" g2gstroke="#312783" stroke-miterlimit="10"/>
</g>
</g>
</g>
</g></svg>