<svg xmlns="http://www.w3.org/2000/svg" xmlns:xlink="http://www.w3.org/1999/xlink" xmlns:etg="http://www.eurotaxglass.com/etg/evd/" etg:dataTimestamp="1539068912893" contentScriptType="text/ecmascript" zoomAndPan="magnify" contentStyleType="text/css" id="Layer_1" style="enable-background:new 0 0 841.891 595.279;" enable-background="new 0 0 1841.891 1595.279" version="1.1" xml:space="preserve" width="1841.891px" preserveAspectRatio="xMidYMid meet" viewBox="0 0 1841.891 1595.279" height="1595.279px" x="0px" y="0px"><g xmlns="http://www.w3.org/2000/svg" objecttype="PS" tooltip="#UNDEFINED" id="87">
<g onmouseover="notifyOwner(AGV_OBJECT_MOUSEOVER, '87(PS)')" transform="translate(32.51611243057249, -6.830272338867189) translate(33.7702661590576, 18.912113525390623) translate(-122.0, -15.0) translate(10.0, 10.00006103515625)" onclick="clickZoom(evt); notifyOwner(AGV_OBJECT_MOUSECLICK, '87(PS)')" onmouseout="notifyOwner(AGV_OBJECT_MOUSEOUT, '87(PS)')" tooltip="#UNDEFINED" id="87-Graphic" objecttype="GRAPHIC">
<g zvalue="61">
<g>
<path orgstroke="#000000" orgfill="#ffffff" fill="#ffffff" g2gfill="#ECF5E4" d="M320.932,357.982   c1.07,1.092,2.438,1.479,3.686,1.184l0.439-0.109l1.131-0.283l0.152-0.09c0.947,0.518,1.979,0.688,2.963,0.521l2.588-0.654   c1.004-0.285,1.938-0.934,2.645-1.93c1.84-2.574,1.506-6.521-0.75-8.814c-1.256-1.275-2.844-1.771-4.318-1.518l-2.533,0.645   c-1.01,0.283-1.943,0.938-2.658,1.934l-0.391,0.109l-0.965,0.24l-0.232,0.059c-0.881,0.188-1.705,0.721-2.328,1.566l-0.271,0.107   l-3.563,0.895c-0.566,0.145-1.078,0.379-1.078,0.379l-6.387,3.689c0,0-0.646,0.268-0.477,0.938l0.889,3.521   c0,0,0.309,0.453,0.76,0.348l10.506-2.629L320.932,357.982z" stroke="#000000" outline-element="true" stroke-width="0.5" g2gstroke="#312783" stroke-miterlimit="10"/>
<path orgstroke="#000000" orgfill="none" fill="none" d="M331.82,358.553   c-1.541,0.357-3.229-0.08-4.555-1.426c-2.252-2.295-2.588-6.24-0.75-8.818c0.813-1.143,1.916-1.818,3.088-2.025" stroke="#000000" stroke-width="0.25" g2gstroke="#312783" stroke-miterlimit="10"/>
<path orgstroke="#000000" orgfill="none" fill="none" d="M326.338,358.674   c-0.463-0.25-0.906-0.582-1.314-0.996c-2.252-2.295-2.586-6.242-0.75-8.82" stroke="#000000" stroke-width="0.25" g2gstroke="#312783" stroke-miterlimit="10"/>
<path orgstroke="#000000" orgfill="none" fill="none" d="M332.861,349.281   c1.535,1.563,1.764,4.248,0.512,6.01c-1.252,1.752-3.512,1.906-5.043,0.352c-1.535-1.563-1.764-4.25-0.512-6.006   C329.068,347.877,331.326,347.719,332.861,349.281z" stroke="#000000" stroke-width="0.25" g2gstroke="#312783" stroke-miterlimit="10"/>
<path orgstroke="#000000" orgfill="none" fill="none" d="M328.857,348.654c0,0,2.695,4.834,2.109,8.063" stroke="#000000" stroke-width="0.25" g2gstroke="#312783" stroke-miterlimit="10"/>
<path orgstroke="#000000" orgfill="none" fill="none" d="M330.238,348.205c0,0,2.693,4.836,2.109,8.057" stroke="#000000" stroke-width="0.25" g2gstroke="#312783" stroke-miterlimit="10"/>
<path orgstroke="#000000" orgfill="none" fill="none" d="M328.078,349.303c0,0,0.771,5.135,2.158,7.406" stroke="#000000" stroke-width="0.25" g2gstroke="#312783" stroke-miterlimit="10"/>
<path orgstroke="#000000" orgfill="none" fill="none" d="M319.1719970703125 353.6109924316406L308.72900390625 356.218994140625" stroke="#000000" stroke-width="0.25" g2gstroke="#312783" stroke-miterlimit="10"/>
<path orgstroke="#000000" orgfill="none" fill="none" d="M319.389,353.555   c0.072-0.963,0.383-1.895,0.939-2.68c0.01-0.021,0.02-0.027,0.027-0.041" stroke="#000000" stroke-width="0.25" g2gstroke="#312783" stroke-miterlimit="10"/>
<path orgstroke="#000000" orgfill="none" fill="none" d="M320.932,357.982   c-1.133-1.146-1.664-2.822-1.543-4.428" stroke="#000000" stroke-width="0.25" g2gstroke="#312783" stroke-miterlimit="10"/>
<path orgstroke="#000000" orgfill="none" fill="none" d="M329.1579895019531 347.2170104980469L329.3160095214844 347.9280090332031" stroke="#000000" stroke-width="0.25" g2gstroke="#312783" stroke-miterlimit="10"/>
<path orgstroke="#000000" orgfill="none" fill="none" d="M331.82000732421875 347.3280029296875L331.64599609375 348.03900146484375" stroke="#000000" stroke-width="0.25" g2gstroke="#312783" stroke-miterlimit="10"/>
<path orgstroke="#000000" orgfill="none" fill="none" d="M333.79901123046875 348.60198974609375L333.21099853515625 349.1090087890625" stroke="#000000" stroke-width="0.25" g2gstroke="#312783" stroke-miterlimit="10"/>
</g>
</g>
</g>
</g></svg>