<svg xmlns="http://www.w3.org/2000/svg" xmlns:xlink="http://www.w3.org/1999/xlink" xmlns:etg="http://www.eurotaxglass.com/etg/evd/" etg:dataTimestamp="1539068912893" contentScriptType="text/ecmascript" zoomAndPan="magnify" contentStyleType="text/css" id="Layer_1" style="enable-background:new 0 0 841.891 595.279;" enable-background="new 0 0 1841.891 1595.279" version="1.1" xml:space="preserve" width="1841.891px" preserveAspectRatio="xMidYMid meet" viewBox="0 0 1841.891 1595.279" height="1595.279px" x="0px" y="0px"><g xmlns="http://www.w3.org/2000/svg" objecttype="PS" tooltip="#UNDEFINED" id="95">
<g onmouseover="notifyOwner(AGV_OBJECT_MOUSEOVER, '95(PS)')" transform="translate(32.51611243057249, -6.830272338867189) translate(33.7702661590576, 18.912113525390623) translate(-181.81229773462763, -96.90938511326846) translate(-4.206349206349273, 2.5238095238095184) matrix(0.9183480168574032 0 0 0.9183480168574032 44.70259190499079 41.9111994532096) translate(-26.07936507936506, 29.4444444444444) translate(33,-15) " onclick="clickZoom(evt); notifyOwner(AGV_OBJECT_MOUSECLICK, '95(PS)')" onmouseout="notifyOwner(AGV_OBJECT_MOUSEOUT, '95(PS)')" tooltip="#UNDEFINED" id="95-Graphic" objecttype="GRAPHIC">
<g zvalue="83">
<g zvalue="52">
<g>
<path orgstroke="#000000" stroke="#000000" d="   M414.439,455.582c-0.586,0-3.088,0.16-3.779-3.195c-0.695-3.354-0.707-3.793-0.711-4.508c0-0.646-0.143-1.986,1.775-3.479   c1.916-1.486,3.619-2.184,5.537-6.602c1.916-4.418,3.314-6.531,6.557-7.791c3.238-1.26,5.607-1.1,6.938-0.938   c1.332,0.154,6.311,1.012,7.215,0.688c0.904-0.318,5.162-1.49,6.547-1.17c1.385,0.318,5.217,3.992,5.43,4.951   c0.213,0.957-0.053,2.555-0.639,3.301c-0.586,0.744-3.994,3.662-4.498,3.588c-0.506-0.074-2.857-3.516-4.236-5.199   c-1.68-2.07-3.457-3.709-3.457-3.709s-6.254-0.852-7.902-0.959c-1.65-0.104-7.123,1.689-8.104,3.455   c-0.979,1.762-2.145,4.316-2.73,5.275s-1.439,2.555-1.492,2.768c-0.025,0.105,0.055,2.623,0.811,5.215   c0.801,2.742,2.277,5.563,2.277,5.699C419.977,453.238,415.824,455.582,414.439,455.582z" stroke-linecap="round" outline-element="true" transform="matrix(1 0 0 1 130.7504655493483 70.57920485057866)" stroke-miterlimit="10" orgfill="#ffffff" fill="#ffffff" stroke-width="0.5" g2gfill="#ECC35D" stroke-linejoin="round" g2gstroke="#312783"/>
<path stroke-linecap="round" orgstroke="#000000" orgfill="none" transform="matrix(1 0 0 1 130.7504655493483 70.57920485057866)" fill="none" stroke-linejoin="round" d="   M419.125,452.971c-1.014-1.275-3.248-5.27-3.676-7.879c-0.426-2.607-0.393-3.52-0.393-3.52" stroke="#000000" stroke-width="0.25" g2gstroke="#312783" stroke-miterlimit="10"/>
<path stroke-linecap="round" orgstroke="#000000" orgfill="none" transform="matrix(1 0 0 1 130.7504655493483 70.57920485057866)" fill="none" stroke-linejoin="round" d="   M444.783,439.877c-0.426-1.865-1.918-5.064-3.354-6.605c-1.438-1.543-3.449-3.479-3.744-3.461" stroke="#000000" stroke-width="0.25" g2gstroke="#312783" stroke-miterlimit="10"/>
<path stroke-linecap="round" orgstroke="#000000" orgfill="none" transform="matrix(1 0 0 1 130.7504655493483 70.57920485057866)" fill="none" stroke-linejoin="round" d="   M416.658,442.289c0,0-0.834,0.641-1.438-0.479" stroke="#000000" stroke-width="0.25" g2gstroke="#312783" stroke-miterlimit="10"/>
<path stroke-linecap="round" orgstroke="#000000" orgfill="none" transform="matrix(1 0 0 1 130.7504655493483 70.57920485057866)" fill="none" stroke-linejoin="round" d="   M437.225,431.412c0.52-0.146,1.174-0.27,0.688-1.49" stroke="#000000" stroke-width="0.25" g2gstroke="#312783" stroke-miterlimit="10"/>
<path stroke-linecap="round" orgstroke="#000000" orgfill="none" transform="matrix(1 0 0 1 130.7504655493483 70.57920485057866)" fill="none" stroke-linejoin="round" d="   M411.191,447.719c-0.17,0.168-0.461,0.568-0.373,1.137c0.09,0.566,0.428,3.744,0.994,4.016c0.568,0.266,3.266-1.119,3.939-1.65   c0.674-0.533,1.047-0.729,0.814-1.207c-0.229-0.479-1.438-3.744-2.059-3.762C413.891,446.229,411.584,447.33,411.191,447.719z" stroke="#000000" stroke-width="0.25" g2gstroke="#312783" stroke-miterlimit="10"/>
<path stroke-linecap="round" orgstroke="#000000" orgfill="none" transform="matrix(1 0 0 1 130.7504655493483 70.57920485057866)" fill="none" stroke-linejoin="round" d="   M412.242,448.49c-0.098,0.1-0.27,0.338-0.219,0.664c0.053,0.338,0.25,2.186,0.582,2.342c0.332,0.16,1.908-0.654,2.299-0.965   c0.396-0.314,0.611-0.43,0.48-0.705c-0.135-0.279-0.84-2.188-1.203-2.195C413.818,447.619,412.471,448.262,412.242,448.49z" stroke="#000000" stroke-width="0.25" g2gstroke="#312783" stroke-miterlimit="10"/>
<path stroke-linecap="round" orgstroke="#000000" orgfill="none" transform="matrix(1 0 0 1 130.7504655493483 70.57920485057866)" fill="none" stroke-linejoin="round" d="   M444.684,429.842c0.234-0.049,0.73-0.078,1.156,0.307c0.428,0.387,2.914,2.395,2.828,3.018c-0.09,0.619-2.717,2.135-3.531,2.412   c-0.807,0.266-1.18,0.479-1.457,0.023c-0.271-0.453-2.359-3.248-2.041-3.775C441.967,431.299,444.146,429.959,444.684,429.842z" stroke="#000000" stroke-width="0.25" g2gstroke="#312783" stroke-miterlimit="10"/>
<path stroke-linecap="round" orgstroke="#000000" orgfill="none" transform="matrix(1 0 0 1 130.7504655493483 70.57920485057866)" fill="none" stroke-linejoin="round" d="   M444.762,431.145c0.137-0.023,0.426-0.053,0.674,0.184c0.25,0.223,1.701,1.395,1.65,1.756c-0.047,0.365-1.578,1.248-2.059,1.408   c-0.477,0.154-0.688,0.277-0.852,0.018c-0.158-0.266-1.379-1.893-1.188-2.201C443.176,431.996,444.445,431.213,444.762,431.145z" stroke="#000000" stroke-width="0.25" g2gstroke="#312783" stroke-miterlimit="10"/>
</g>
</g>
</g>
</g>
</g></svg>