<svg xmlns="http://www.w3.org/2000/svg" xmlns:xlink="http://www.w3.org/1999/xlink" xmlns:etg="http://www.eurotaxglass.com/etg/evd/" etg:dataTimestamp="1539068912893" contentScriptType="text/ecmascript" zoomAndPan="magnify" contentStyleType="text/css" id="Layer_1" style="enable-background:new 0 0 841.891 595.279;" enable-background="new 0 0 1841.891 1595.279" version="1.1" xml:space="preserve" width="1841.891px" preserveAspectRatio="xMidYMid meet" viewBox="0 0 1841.891 1595.279" height="1595.279px" x="0px" y="0px"><g xmlns="http://www.w3.org/2000/svg" objecttype="PS" tooltip="#UNDEFINED" id="97">
<g onmouseover="notifyOwner(AGV_OBJECT_MOUSEOVER, '97(PS)')" transform="translate(32.51611243057249, -6.830272338867189) translate(3.0, 23.0) translate(66,-25) " onclick="clickZoom(evt); notifyOwner(AGV_OBJECT_MOUSECLICK, '97(PS)')" onmouseout="notifyOwner(AGV_OBJECT_MOUSEOUT, '97(PS)')" tooltip="#UNDEFINED" id="97-Graphic" objecttype="GRAPHIC">
<g zvalue="54">
<g>
<path orgstroke="#000000" orgfill="#ffffff" transform="translate(109.10610064679844, -1.4078206535070876) translate(-143.93795986095284, -1.2967383771256777) " fill="#ffffff" g2gfill="#ECF5E4" stroke-linejoin="round" d="M216.653,464.557   c-0.711-0.293-0.49-0.758-0.281-1.021l-0.102-0.194c0.023-0.339,0.396-0.649,0.396-0.649s0.611-0.433,1.504-1.351   c0.895-0.919,2.082-0.705,2.082-0.705l0.021,0.021c0.211-0.213,0.371-0.369,0.438-0.438c0.438-0.472,3.031-0.248,3.104,0.879   c0.063,1.132,0.527,0.716,0.527,0.716v-0.723c-0.021-0.532,1.168-0.572,1.168-0.572l15.154,8.75c0,0-0.432,0.543-0.451,0.79   c-0.021,0.291,3.104,3.246,3.104,3.246l4.023,2.319c0,0,0.336,0.39,0.354,0.688v4c0,0-0.486,0.079-0.422,0.775   c0,0,0.729,0.373,0.638,1.011c-0.093,0.64-0.978,1.604-0.978,1.604v4.002c-0.063,0.229-0.104,0.729-2.137,1.56   c-2.021,0.823-2.883-1.235-3.152-2.269c-0.271-1.029-3.604-2.813-3.604-2.813c-2.988,0.034-5.527-2.021-7.998-3.362   c-3.277-1.781-5.666-3.188-5.666-3.188s-3.09,5.109-5.355,3.091c-3.623-3.237-3.309-3.146-4.395-5.082   c-0.791-1.405,1.609-3.604,1.922-3.534c-0.068-1.341,0.432-1.953,0.432-1.953v-2.576c-0.018-0.34-0.205-0.65-0.205-0.65   l-0.012-2.352h-0.106L216.653,464.557L216.653,464.557z" stroke="#000000" outline-element="true" stroke-width="0.5" g2gstroke="#312783" stroke-miterlimit="10"/>
<path orgstroke="#000000" orgfill="none" transform="translate(109.10610064679844, -1.4078206535070876) translate(-143.93795986095284, -1.2967383771256777) " fill="none" d="M239.4340057373047 469.57501220703125L224.67599487304688 461.05499267578125" stroke="#000000" stroke-width="0.25" g2gstroke="#312783" stroke-miterlimit="10"/>
<path orgstroke="#000000" orgfill="none" transform="translate(109.10610064679844, -1.4078206535070876) translate(-143.93795986095284, -1.2967383771256777) " fill="none" d="M246.61,486.591   c-0.074,0.564-0.514,1.175-0.973,1.357c-0.459,0.188-0.764-0.123-0.686-0.688c0.074-0.563,0.516-1.173,0.973-1.356   C246.383,485.717,246.69,486.024,246.61,486.591z" stroke="#000000" stroke-width="0.25" g2gstroke="#312783" stroke-miterlimit="10"/>
<path orgstroke="#000000" orgfill="none" transform="translate(109.10610064679844, -1.4078206535070876) translate(-143.93795986095284, -1.2967383771256777) " fill="none" d="M242.92,486.135   c-0.027-0.121-0.035-0.265-0.012-0.423c0.088-0.639,0.578-1.321,1.098-1.53s0.863,0.138,0.771,0.774   c-0.088,0.638-0.576,1.322-1.096,1.531C243.295,486.645,243.002,486.489,242.92,486.135" stroke="#000000" stroke-width="0.25" g2gstroke="#312783" stroke-miterlimit="10"/>
<path orgstroke="#000000" orgfill="none" transform="translate(109.10610064679844, -1.4078206535070876) translate(-143.93795986095284, -1.2967383771256777) " fill="none" stroke-linejoin="round" d="M220.129,460.616   c-0.852,0.836-2.568,2.604-2.568,2.604s-0.641,0.59-0.223,0.856l16.25,9.14" stroke="#000000" stroke-width="0.25" g2gstroke="#312783" stroke-miterlimit="10"/>
<path orgstroke="#000000" orgfill="none" transform="translate(109.10610064679844, -1.4078206535070876) translate(-143.93795986095284, -1.2967383771256777) " fill="none" d="M229.3730010986328 474.2860107421875L217.0590057373047 467.177001953125" stroke="#000000" stroke-width="0.25" g2gstroke="#312783" stroke-miterlimit="10"/>
<path orgstroke="#000000" orgfill="none" transform="translate(109.10610064679844, -1.4078206535070876) translate(-143.93795986095284, -1.2967383771256777) " fill="none" d="M220.289,469.153v1.479   c0,0,0.053,0.457,0.381,0.594l7.342,4.238c0,0,0.443,0.331,0.428-0.257v-1.481" stroke="#000000" stroke-width="0.25" g2gstroke="#312783" stroke-miterlimit="10"/>
<path orgstroke="#000000" orgfill="none" transform="translate(109.10610064679844, -1.4078206535070876) translate(-143.93795986095284, -1.2967383771256777) " fill="none" d="M221.2310028076172 475.7760009765625L224.4770050048828 477.64898681640625" stroke="#000000" stroke-width="0.25" g2gstroke="#312783" stroke-miterlimit="10"/>
<path orgstroke="#000000" orgfill="none" transform="translate(109.10610064679844, -1.4078206535070876) translate(-143.93795986095284, -1.2967383771256777) " fill="none" stroke-linejoin="round" d="M221.231,475.776   l-4.623-2.67l0.531-0.65l17.586,10.104l0.025-1.338c-0.016-0.435-2.059-1.394-2.059-1.394l-3.443-1.918   c-0.984-0.508-0.648-1.164-1.559-1.756c-0.9-0.593-8.701-5.056-8.701-5.056" stroke="#000000" stroke-width="0.25" g2gstroke="#312783" stroke-miterlimit="10"/>
<path orgstroke="#000000" orgfill="none" transform="translate(109.10610064679844, -1.4078206535070876) translate(-143.93795986095284, -1.2967383771256777) " fill="none" d="M239.93600463867188 470.7019958496094L224.51600646972656 461.70001220703125" stroke="#000000" stroke-width="0.25" g2gstroke="#312783" stroke-miterlimit="10"/>
<path orgstroke="#000000" orgfill="none" transform="translate(109.10610064679844, -1.4078206535070876) translate(-143.93795986095284, -1.2967383771256777) " fill="none" d="M227.9219970703125 466.2799987792969L222.86500549316406 463.3659973144531" stroke="#000000" stroke-width="0.25" g2gstroke="#312783" stroke-miterlimit="10"/>
<path orgstroke="#000000" orgfill="none" transform="translate(109.10610064679844, -1.4078206535070876) translate(-143.93795986095284, -1.2967383771256777) " fill="none" d="M234.2830047607422 471.218994140625L222.13699340820312 464.2409973144531" stroke="#000000" stroke-width="0.25" g2gstroke="#312783" stroke-miterlimit="10"/>
<path orgstroke="#000000" orgfill="none" transform="translate(109.10610064679844, -1.4078206535070876) translate(-143.93795986095284, -1.2967383771256777) " fill="none" d="M222.865,463.366c0,0-0.899-0.679-0.954,2.551" stroke="#000000" stroke-width="0.25" g2gstroke="#312783" stroke-miterlimit="10"/>
<path orgstroke="#000000" orgfill="none" transform="translate(109.10610064679844, -1.4078206535070876) translate(-143.93795986095284, -1.2967383771256777) " fill="none" d="M234.672,470.493   c0.23-0.312,0.465-0.215,0.465-0.215l2.119,0.315l2.195,1.258c0,0,0.387,0.171,0.404-0.185l0.023-0.848   c-0.045,0.516-0.021-0.479,0.322-0.854" stroke="#000000" stroke-width="0.25" g2gstroke="#312783" stroke-miterlimit="10"/>
<path orgstroke="#000000" orgfill="none" transform="translate(109.10610064679844, -1.4078206535070876) translate(-143.93795986095284, -1.2967383771256777) " fill="none" d="M222.77200317382812 460.7489929199219L222.7989959716797 463.343994140625" stroke="#000000" stroke-width="0.25" g2gstroke="#312783" stroke-miterlimit="10"/>
<path orgstroke="#000000" orgfill="none" transform="translate(109.10610064679844, -1.4078206535070876) translate(-143.93795986095284, -1.2967383771256777) " fill="none" d="M226.533,468.503l0.035-1.737   c0,0,0.117-1.209,0.732-0.851" stroke="#000000" stroke-width="0.25" g2gstroke="#312783" stroke-miterlimit="10"/>
<path orgstroke="#000000" orgfill="none" transform="translate(109.10610064679844, -1.4078206535070876) translate(-143.93795986095284, -1.2967383771256777) " fill="none" d="M235.00799560546875 470.30499267578125L228 466.260009765625" stroke="#000000" stroke-width="0.25" g2gstroke="#312783" stroke-miterlimit="10"/>
<path orgstroke="#000000" orgfill="none" transform="translate(109.10610064679844, -1.4078206535070876) translate(-143.93795986095284, -1.2967383771256777) " fill="none" d="M234.58999633789062 470.64300537109375L228.82400512695312 467.31298828125" stroke="#000000" stroke-width="0.25" g2gstroke="#312783" stroke-miterlimit="10"/>
<path orgstroke="#000000" orgfill="none" transform="translate(109.10610064679844, -1.4078206535070876) translate(-143.93795986095284, -1.2967383771256777) " fill="none" stroke-linejoin="round" d="M235.473,482.032   v-1.562c-0.004-0.438-1.26-1.104-1.26-1.104l-4.42-2.558c0,0-0.77-1.604,0.17-2.26c0.537-0.38,1.121,0.106,1.121,0.106l4.016,2.354   l0.053-1.69l-1.65-1.865c0,0-0.104-0.707,0.902,0c1.014,0.707,3.027,3.433,3.027,3.433l0.154,0.217l3.791,2.117   c0,0,0.461,0.188,0.896-0.104l5.313-3.065" stroke="#000000" stroke-width="0.25" g2gstroke="#312783" stroke-miterlimit="10"/>
<path orgstroke="#000000" orgfill="none" transform="translate(109.10610064679844, -1.4078206535070876) translate(-143.93795986095284, -1.2967383771256777) " fill="none" d="M217.20700073242188 471.6059875488281L217.20700073242188 472.52398681640625" stroke="#000000" stroke-width="0.25" g2gstroke="#312783" stroke-miterlimit="10"/>
<path orgstroke="#000000" orgfill="none" transform="translate(109.10610064679844, -1.4078206535070876) translate(-143.93795986095284, -1.2967383771256777) " fill="none" d="M217.207,471.606c0,0-0.061-0.841,1.025-0.063   c0.688,0.486,0.742-0.68,0.742-0.68v-2.386" stroke="#000000" stroke-width="0.25" g2gstroke="#312783" stroke-miterlimit="10"/>
<path orgstroke="#000000" orgfill="none" transform="translate(109.10610064679844, -1.4078206535070876) translate(-143.93795986095284, -1.2967383771256777) " fill="none" d="M218.99000549316406 471.1059875488281L217.14500427246094 470.0419921875" stroke="#000000" stroke-width="0.25" g2gstroke="#312783" stroke-miterlimit="10"/>
<path orgstroke="#000000" orgfill="none" transform="translate(109.10610064679844, -1.4078206535070876) translate(-143.93795986095284, -1.2967383771256777) " fill="none" stroke-linejoin="round" d="M243.602,489.266   c-0.725-1.67-2.637-3.769-2.045-4.681l-0.014-0.047v-5.233" stroke="#000000" stroke-width="0.25" g2gstroke="#312783" stroke-miterlimit="10"/>
<path orgstroke="#000000" orgfill="none" transform="translate(109.10610064679844, -1.4078206535070876) translate(-143.93795986095284, -1.2967383771256777) " fill="none" stroke-linejoin="round" d="M244.166,489.438   c-0.436-1.771-2.639-3.764-2.045-4.68l-0.021-0.031v-5.431" stroke="#000000" stroke-width="0.25" g2gstroke="#312783" stroke-miterlimit="10"/>
<path orgstroke="#000000" orgfill="none" transform="translate(109.10610064679844, -1.4078206535070876) translate(-143.93795986095284, -1.2967383771256777) " fill="none" d="M220.682,475.364c0,0-0.951,0.348-2.162-0.435   c-1.596-1.022-2.721,0.938-2.336,1.47c1.816,2.512,3.115,3.969,3.115,3.969s1.809,1.563,4.475-3.004" stroke="#000000" stroke-width="0.25" g2gstroke="#312783" stroke-miterlimit="10"/>
<path orgstroke="#000000" orgfill="none" transform="translate(109.10610064679844, -1.4078206535070876) translate(-143.93795986095284, -1.2967383771256777) " fill="none" d="M222.914,476.69   c0.061,0.189,0.068,0.432,0.035,0.7c-0.139,0.959-0.873,1.989-1.65,2.308c-0.775,0.313-1.297-0.213-1.16-1.166   c0.135-0.957,0.873-1.986,1.646-2.306c0.045-0.02,0.09-0.034,0.131-0.047" stroke="#000000" stroke-width="0.25" g2gstroke="#312783" stroke-miterlimit="10"/>
<path orgstroke="#000000" orgfill="none" transform="translate(109.10610064679844, -1.4078206535070876) translate(-143.93795986095284, -1.2967383771256777) " fill="none" d="M219.635,479.135   c-0.143-0.218-0.201-0.544-0.146-0.942c0.134-0.933,0.831-1.933,1.589-2.271" stroke="#000000" stroke-width="0.25" g2gstroke="#312783" stroke-miterlimit="10"/>
<path orgstroke="#000000" orgfill="none" transform="translate(109.10610064679844, -1.4078206535070876) translate(-143.93795986095284, -1.2967383771256777) " fill="none" d="M222.125,477.725   c-0.059,0.396-0.359,0.821-0.688,0.953c-0.316,0.129-0.537-0.086-0.479-0.479c0.061-0.396,0.365-0.82,0.686-0.953   C221.966,477.114,222.182,477.329,222.125,477.725z" stroke="#000000" stroke-width="0.25" g2gstroke="#312783" stroke-miterlimit="10"/>
<path orgstroke="#000000" orgfill="none" transform="translate(109.10610064679844, -1.4078206535070876) translate(-143.93795986095284, -1.2967383771256777) " fill="none" d="M241.299,475.114   c0.057,0.381,0.35,0.793,0.658,0.918c0.311,0.123,0.52-0.084,0.463-0.469c-0.055-0.382-0.352-0.794-0.656-0.919   C241.453,474.524,241.244,474.733,241.299,475.114z" stroke="#000000" stroke-width="0.25" g2gstroke="#312783" stroke-miterlimit="10"/>
<path orgstroke="#000000" orgfill="none" transform="translate(109.10610064679844, -1.4078206535070876) translate(-143.93795986095284, -1.2967383771256777) " fill="none" d="M235.323,478.518   c0.056,0.382,0.351,0.791,0.655,0.918c0.313,0.125,0.521-0.084,0.463-0.465c-0.051-0.384-0.348-0.793-0.652-0.92   C235.475,477.927,235.268,478.135,235.323,478.518z" stroke="#000000" stroke-width="0.25" g2gstroke="#312783" stroke-miterlimit="10"/>
<path orgstroke="#000000" orgfill="none" transform="translate(109.10610064679844, -1.4078206535070876) translate(-143.93795986095284, -1.2967383771256777) " fill="none" d="M235.239,472.104   c0.047,0.306,0.273,0.625,0.521,0.728c0.244,0.103,0.41-0.063,0.367-0.365s-0.271-0.627-0.521-0.729   C235.36,471.637,235.196,471.802,235.239,472.104z" stroke="#000000" stroke-width="0.25" g2gstroke="#312783" stroke-miterlimit="10"/>
<path orgstroke="#000000" orgfill="none" transform="translate(109.10610064679844, -1.4078206535070876) translate(-143.93795986095284, -1.2967383771256777) " fill="none" d="M229.899,475.458   c0.043,0.306,0.273,0.631,0.521,0.729c0.244,0.102,0.41-0.063,0.367-0.367s-0.277-0.627-0.521-0.728   C230.02,474.993,229.856,475.157,229.899,475.458z" stroke="#000000" stroke-width="0.25" g2gstroke="#312783" stroke-miterlimit="10"/>
<path orgstroke="#000000" orgfill="none" transform="translate(109.10610064679844, -1.4078206535070876) translate(-143.93795986095284, -1.2967383771256777) " fill="none" d="M220.561,462.466   c-0.057,0.396-0.359,0.82-0.684,0.951c-0.322,0.134-0.537-0.086-0.482-0.479c0.061-0.396,0.363-0.819,0.688-0.952   C220.399,461.852,220.615,462.067,220.561,462.466z" stroke="#000000" stroke-width="0.25" g2gstroke="#312783" stroke-miterlimit="10"/>
<path orgstroke="#000000" orgfill="none" transform="translate(109.10610064679844, -1.4078206535070876) translate(-143.93795986095284, -1.2967383771256777) " fill="none" d="M234.065,472.88   c0.123-0.036,0.482,0.037,0.889,0.318c0.984,0.688,2.967,3.358,2.967,3.358l0.146,0.213l3.623,1.981c0,0,0.115,0.104,0.336-0.104   l5.318-3.066" stroke="#000000" stroke-width="0.25" g2gstroke="#312783" stroke-miterlimit="10"/>
<path orgstroke="#000000" orgfill="none" transform="translate(109.10610064679844, -1.4078206535070876) translate(-143.93795986095284, -1.2967383771256777) " fill="none" stroke-linejoin="round" d="M234.08,472.932   l-15.844-9.063c-0.418-0.271,0.225-0.854,0.225-0.854s2.08-1.994,2.406-2.351c0,0,1.541-0.545,2.443,0.404   c0,0,0.141,1.047,0.545,1.182l0.408-0.271" stroke="#000000" stroke-width="0.25" g2gstroke="#312783" stroke-miterlimit="10"/>
<path orgstroke="#000000" orgfill="none" transform="translate(109.10610064679844, -1.4078206535070876) translate(-143.93795986095284, -1.2967383771256777) " fill="none" stroke-linejoin="round" d="M216.881,464.542   l-0.002-0.646c-0.395-0.156-0.502-0.373-0.486-0.572" stroke="#000000" stroke-width="0.25" g2gstroke="#312783" stroke-miterlimit="10"/>
<path orgstroke="#000000" orgfill="none" transform="translate(109.10610064679844, -1.4078206535070876) translate(-143.93795986095284, -1.2967383771256777) " fill="none" stroke-linejoin="round" d="M240.66,469.26   l0.061,0.646c0,0-0.203,0.389-0.229,0.636" stroke="#000000" outline-element="true" stroke-width="0.5" g2gstroke="#312783" stroke-miterlimit="10"/>
<path orgstroke="#000000" orgfill="none" transform="translate(109.10610064679844, -1.4078206535070876) translate(-143.93795986095284, -1.2967383771256777) " fill="none" stroke-linejoin="round" d="M246.619,475.975   l-3.592-2.056c0,0-3.201-2.753-3.096-3.221" stroke="#000000" stroke-width="0.25" g2gstroke="#312783" stroke-miterlimit="10"/>
<path orgstroke="#000000" orgfill="none" transform="translate(109.10610064679844, -1.4078206535070876) translate(-143.93795986095284, -1.2967383771256777) " fill="none" d="M227.93800354003906 463.6510009765625L227.93800354003906 466.28399658203125" stroke="#000000" stroke-width="0.25" g2gstroke="#312783" stroke-miterlimit="10"/>
<path orgstroke="#000000" orgfill="none" transform="translate(109.10610064679844, -1.4078206535070876) translate(-143.93795986095284, -1.2967383771256777) " fill="none" d="M239.877,471.317l-1.742-1.007l-2.49-0.403   l-0.973,0.59c-0.234,0.312-0.563,0.82-0.592,2.438" stroke="#000000" stroke-width="0.25" g2gstroke="#312783" stroke-miterlimit="10"/>
<path orgstroke="#000000" orgfill="none" transform="translate(109.10610064679844, -1.4078206535070876) translate(-143.93795986095284, -1.2967383771256777) " fill="none" d="M243.031005859375 473.9230041503906L243.76199340820312 473.46600341796875" stroke="#000000" stroke-width="0.25" g2gstroke="#312783" stroke-miterlimit="10"/>
<path orgstroke="#000000" orgfill="none" transform="translate(109.10610064679844, -1.4078206535070876) translate(-143.93795986095284, -1.2967383771256777) " fill="none" d="M233.6529998779297 473.114013671875L234.06500244140625 472.8800048828125" stroke="#000000" stroke-width="0.25" g2gstroke="#312783" stroke-miterlimit="10"/>
<path orgstroke="#000000" orgfill="none" transform="translate(109.10610064679844, -1.4078206535070876) translate(-143.93795986095284, -1.2967383771256777) " fill="none" d="M237.24200439453125 470.6820068359375L237.91200256347656 470.2980041503906" stroke="#000000" stroke-width="0.25" g2gstroke="#312783" stroke-miterlimit="10"/>
<path orgstroke="#000000" orgfill="none" transform="translate(109.10610064679844, -1.4078206535070876) translate(-143.93795986095284, -1.2967383771256777) " fill="none" d="M237.54100036621094 477.1709899902344L238.093994140625 476.8479919433594" stroke="#000000" stroke-width="0.25" g2gstroke="#312783" stroke-miterlimit="10"/>
<path orgstroke="#000000" orgfill="none" transform="translate(109.10610064679844, -1.4078206535070876) translate(-143.93795986095284, -1.2967383771256777) " fill="none" stroke-linejoin="round" d="M241.5570068359375 484.5889892578125L242.12100219726562 484.760009765625" stroke="#000000" stroke-width="0.25" g2gstroke="#312783" stroke-miterlimit="10"/>
<path orgstroke="#000000" orgfill="none" transform="translate(109.10610064679844, -1.4078206535070876) translate(-143.93795986095284, -1.2967383771256777) " fill="none" d="M244.512,484.524   c-0.09,0.641-0.58,1.323-1.096,1.532c-0.158,0.063-0.305,0.076-0.42,0.043" stroke="#000000" stroke-width="0.25" g2gstroke="#312783" stroke-miterlimit="10"/>
<path orgstroke="#000000" orgfill="none" transform="translate(109.10610064679844, -1.4078206535070876) translate(-143.93795986095284, -1.2967383771256777) " fill="none" d="M246.28,486.27   c-0.076,0.565-0.518,1.181-0.977,1.36c-0.141,0.061-0.266,0.066-0.371,0.041" stroke="#000000" stroke-width="0.25" g2gstroke="#312783" stroke-miterlimit="10"/>
</g>
</g>
</g>
</g></svg>