<svg xmlns="http://www.w3.org/2000/svg" xmlns:xlink="http://www.w3.org/1999/xlink" xmlns:etg="http://www.eurotaxglass.com/etg/evd/" etg:dataTimestamp="1539068912893" contentScriptType="text/ecmascript" zoomAndPan="magnify" contentStyleType="text/css" id="Capa_1" enable-background="new 0 0 1841.891 1595.279" version="1.1" xml:space="preserve" width="1841.891px" preserveAspectRatio="xMidYMid meet" viewBox="0 0 1841.891 1595.279" height="1595.279px" x="0px" y="0px"><g xmlns="http://www.w3.org/2000/svg" objecttype="PS" tooltip="#UNDEFINED" id="107">
<g onmouseover="notifyOwner(AGV_OBJECT_MOUSEOVER, '107(PS)')" transform="translate(30.298809631347638, 36.772926666259764) translate(114.99710157319319, -78.19802906977134) translate(-640.3948482772679, -146.58193525295815) translate(481.0, 219.0) translate(10.0, 10.00006103515625)" onclick="clickZoom(evt); notifyOwner(AGV_OBJECT_MOUSECLICK, '107(PS)')" onmouseout="notifyOwner(AGV_OBJECT_MOUSEOUT, '107(PS)')" tooltip="#UNDEFINED" id="107-Graphic" objecttype="GRAPHIC">
<g zvalue="19">
<g>
<path orgstroke="#000000" orgfill="#ffffff" fill="#ffffff" g2gfill="#ECC35D" d="M252.359,304.682l-1.951-5.348   c-0.285-0.782-0.715-1.17-1.543-1.475c-3.357-1.232-19.111-7.018-21.459-7.879c-2.631-0.967-3.692,0.371-4.146,1.678l-0.563,1.545   c-0.565,1.67,0.705,3.393,2.81,4.301l25.625,9.985c0.903,0.305,1.15,0.143,1.318-0.412c0.058-0.189,0.197-0.764,0.197-0.764   C252.819,305.615,252.593,305.32,252.359,304.682z" stroke="#000000" outline-element="true" stroke-width="0.5" g2gstroke="#312783" stroke-miterlimit="10"/>
<path orgstroke="#000000" orgfill="none" fill="none" d="M231.19,292.951c0,0,0.812,2.357,1.021,3.027   c0.159,0.51,0.638,0.811,1.044,0.992c0.651,0.295,4.573,1.887,5.007,2.063s0.648-0.027,0.484-0.606   c-0.113-0.398-1.107-3.037-1.221-3.502s-0.73-0.777-1.01-0.877c-0.279-0.102-4.503-1.65-4.693-1.723   C231.369,292.152,231.055,292.546,231.19,292.951z" stroke="#000000" stroke-width="0.25" g2gstroke="#312783" stroke-miterlimit="10"/>
<path orgstroke="#000000" orgfill="none" fill="none" d="M242.202,297.357c0,0,0.869,2.336,1.095,3.002   c0.172,0.506,0.658,0.793,1.068,0.967c0.658,0.277,4.724,1.83,5.161,1.996c0.438,0.164,0.647-0.045,0.469-0.619   c-0.123-0.395-1.182-3.008-1.307-3.471c-0.125-0.461-0.75-0.758-1.031-0.852s-4.646-1.596-4.839-1.664   C242.361,296.554,242.057,296.957,242.202,297.357z" stroke="#000000" stroke-width="0.25" g2gstroke="#312783" stroke-miterlimit="10"/>
<path orgstroke="#000000" orgfill="none" fill="none" d="M237.522,298.734   c-0.306-0.871-0.991-2.715-1.084-3.096c-0.113-0.465-0.73-0.777-1.01-0.877c-0.222-0.082-2.937-1.076-4.136-1.518" stroke="#000000" stroke-width="0.25" g2gstroke="#312783" stroke-miterlimit="10"/>
<path orgstroke="#000000" orgfill="none" fill="none" d="M248.77,303.031   c-0.324-0.855-1.064-2.705-1.168-3.086c-0.125-0.461-0.75-0.758-1.031-0.852c-0.225-0.074-3.041-1.043-4.273-1.471" stroke="#000000" stroke-width="0.25" g2gstroke="#312783" stroke-miterlimit="10"/>
<path orgstroke="#000000" orgfill="none" fill="none" d="M224.184,290.042   c-0.576,0.66-0.566,1.182-0.573,1.871c-0.012,1.104,0.929,2.363,2.445,2.963l26.56,10.504" stroke="#000000" stroke-width="0.25" g2gstroke="#312783" stroke-miterlimit="10"/>
<path orgstroke="#000000" orgfill="none" fill="none" d="M226.619,290.675   c-0.65-0.176-1.697-0.031-1.718,0.988c-0.021,1.021,1.13,1.971,2.042,2.354c0.912,0.385,2.343,1.076,2.78,1.244   c0.438,0.166,0.906,0.264,0.74-0.443s-0.691-2.014-0.864-2.502c-0.221-0.625-0.575-0.902-1.18-1.088   C227.815,291.044,227.474,290.904,226.619,290.675z" stroke="#000000" stroke-width="0.25" g2gstroke="#312783" stroke-miterlimit="10"/>
<path orgstroke="#000000" orgfill="none" fill="none" d="M229.348,295.121   c-0.156-0.65-0.503-1.645-0.603-1.979c-0.174-0.584-0.369-0.727-0.974-0.91c-0.604-0.186-1.277-0.453-2.132-0.682   c-0.216-0.059-0.475-0.08-0.726-0.049" stroke="#000000" stroke-width="0.25" g2gstroke="#312783" stroke-miterlimit="10"/>
<path orgstroke="#000000" orgfill="none" fill="none" d="M241.37,299.623   c0.058,0.238-0.114,0.418-0.384,0.404l0,0c-0.27-0.018-0.534-0.221-0.592-0.457l-1.006-4.19c-0.057-0.236,0.115-0.418,0.385-0.402   l0,0c0.27,0.014,0.534,0.219,0.591,0.457L241.37,299.623z" stroke="#000000" stroke-width="0.25" g2gstroke="#312783" stroke-miterlimit="10"/>
</g>
</g>
</g>
</g></svg>