<svg xmlns="http://www.w3.org/2000/svg" xmlns:xlink="http://www.w3.org/1999/xlink" xmlns:etg="http://www.eurotaxglass.com/etg/evd/" etg:dataTimestamp="1539068912893" contentScriptType="text/ecmascript" zoomAndPan="magnify" contentStyleType="text/css" id="Capa_1" enable-background="new 0 0 1841.891 1595.279" version="1.1" xml:space="preserve" width="1841.891px" preserveAspectRatio="xMidYMid meet" viewBox="0 0 1841.891 1595.279" height="1595.279px" x="0px" y="0px"><g xmlns="http://www.w3.org/2000/svg" objecttype="PS" tooltip="#UNDEFINED" id="74">
<g onmouseover="notifyOwner(AGV_OBJECT_MOUSEOVER, '74(PS)')" transform="translate(30.298809631347638, 36.772926666259764) translate(-637.0022509266453, -53.86035292387896) translate(-145.08306226765808, -12.468075663626848) translate(250.81832052110929, 120.28344526352919) translate(470.0, -126.0) translate(10.0, 10.00006103515625)" onclick="clickZoom(evt); notifyOwner(AGV_OBJECT_MOUSECLICK, '74(PS)')" onmouseout="notifyOwner(AGV_OBJECT_MOUSEOUT, '74(PS)')" tooltip="#UNDEFINED" id="74-Graphic" objecttype="GRAPHIC">
<g zvalue="20">
<g>
<path stroke-linecap="round" orgstroke="#000000" orgfill="#ffffff" fill="#ffffff" g2gfill="#ECC35D" stroke-linejoin="round" d="   M468.277,307.593c-1.172-5.727-3.961-25.498-5.113-33.832c-0.039-0.275-0.057-0.412-0.258,0.002   c-5.537,11.422-10.08,22.121-10.893,25.523c-1.195,5-1.404,7.473-1.404,8.061v13.291c0,0.283-0.059,0.465-0.441,0.686   c-0.357,0.209-0.721,0.402-1.078,0.594c-0.174,0.092-0.428,0.125-0.646-0.002l-0.537-0.311c-0.238-0.137-0.34-0.289-0.357-0.473   c-0.049-0.502-0.078-0.953-0.078-1.328c0-2.125,0-8.875,0-14.25c0-0.75,0.125-1.625,1.459-7.209   c1.332-5.583,11.998-29.416,21.416-45.75c9.416-16.334,17.584-30.668,28.666-44.668c11.084-14,17.834-19.666,34.918-32.75   c12.941-9.912,32.635-24.102,52.83-36.861c0.355-0.225,0.484-0.215,0.66-0.113l0.393,0.227c0.281,0.186,0.443,0.34,0.512,0.563   c0.09,0.291,0.264,0.717,0.389,1.287c0.066,0.297-0.002,0.42-0.244,0.572c-1.004,0.635-2.01,1.273-3.014,1.916   c-0.229,0.146-0.232,0.27-0.18,0.5c0.707,3.156,7.783,35.34,9.031,80.883c0.01,0.357-0.07,0.422-0.227,0.512l-1.213,0.699   c-0.16,0.094-0.418,0.111-0.609,0.01l-0.186-0.098c-0.146-0.084-0.271-0.238-0.277-0.461c-1.135-42.98-7.557-74.047-8.854-80.033   c-0.059-0.27-0.168-0.283-0.402-0.131c-17.125,11.105-34.014,23.215-46.25,32.586c-17.107,13.102-23.563,18.506-34.566,32.406   c-10.656,13.461-18.531,27.123-27.65,42.945l-0.854,1.482c-2.512,4.357-5.141,9.318-7.666,14.332   c-0.146,0.291-0.248,0.498-0.188,0.949c0.521,3.82,4.268,30.781,5.688,37.615c0.043,0.203,0.055,0.357-0.172,0.488   c-0.445,0.258-0.896,0.498-1.34,0.738c-0.141,0.076-0.387,0.141-0.557,0.043c-0.078-0.045-0.211-0.115-0.328-0.178   C468.412,307.916,468.328,307.837,468.277,307.593z" stroke="#000000" outline-element="true" stroke-width="0.5" g2gstroke="#312783" stroke-miterlimit="10"/>
<path orgstroke="#000000" orgfill="none" stroke-linecap="round" fill="none" stroke-linejoin="round" d="   M448.736,321.916c-0.07-0.623-0.111-1.18-0.111-1.631c0-2.125,0-8.875,0-14.25c0-0.75,0.125-1.625,1.459-7.209   c1.332-5.583,11.998-29.416,21.416-45.75c9.416-16.334,17.584-30.668,28.666-44.668c11.084-14,17.834-19.666,34.918-32.75   c13-9.955,32.752-24.191,53.066-36.959" stroke="#000000" stroke-width="0.25" g2gstroke="#312783" stroke-miterlimit="10"/>
<path orgstroke="#000000" orgfill="none" stroke-linecap="round" fill="none" stroke-linejoin="round" d="   M583.468,144.137c0,0,7.748,33.221,9.094,81.285" stroke="#000000" stroke-width="0.25" g2gstroke="#312783" stroke-miterlimit="10"/>
<path orgstroke="#000000" orgfill="none" stroke-linecap="round" fill="none" stroke-linejoin="round" d="   M462.839,273.898c0.719-1.479,1.719-3.516,2.465-5" stroke="#000000" stroke-width="0.25" g2gstroke="#312783" stroke-miterlimit="10"/>
<path orgstroke="#000000" orgfill="none" stroke-linecap="round" fill="none" stroke-linejoin="round" d="   M463.789,271.961c0.861,6.316,4.146,30.125,5.449,36.197" stroke="#000000" stroke-width="0.25" g2gstroke="#312783" stroke-miterlimit="10"/>
<path orgstroke="#000000" orgfill="none" stroke-linecap="round" fill="none" stroke-linejoin="round" d="   M585.455,142.768c-0.895,0.574-2.182,1.404-3.074,1.984" stroke="#000000" stroke-width="0.25" g2gstroke="#312783" stroke-miterlimit="10"/>
</g>
</g>
</g>
</g></svg>