<svg xmlns="http://www.w3.org/2000/svg" xmlns:xlink="http://www.w3.org/1999/xlink" xmlns:etg="http://www.eurotaxglass.com/etg/evd/" etg:dataTimestamp="1539068912893" contentScriptType="text/ecmascript" zoomAndPan="magnify" contentStyleType="text/css" id="Layer_1" enable-background="new 0 0 1841.891 1595.279" version="1.1" width="1841.891px" xml:space="preserve" preserveAspectRatio="xMidYMid meet" viewBox="0 0 1841.891 1595.279" height="1595.279px" x="0px" y="0px"><g xmlns="http://www.w3.org/2000/svg" objecttype="PS" tooltip="#UNDEFINED" id="11">
<g onmouseover="notifyOwner(AGV_OBJECT_MOUSEOVER, '11(PS)')" transform="translate(-2.0, -22.0) translate(0.0, 24.0)" onclick="clickZoom(evt); notifyOwner(AGV_OBJECT_MOUSECLICK, '11(PS)')" onmouseout="notifyOwner(AGV_OBJECT_MOUSEOUT, '11(PS)')" tooltip="#UNDEFINED" id="11-Graphic" objecttype="GRAPHIC">
<g>
	<path orgstroke="#000000" orgfill="#ffffff" fill="#ffffff" g2gfill="#82AA8E" d="M396.565,247.439l8.498,3.682l1.749,0.51   l2.813,0.83l2.785,0.23l2.396,0.021l2.152-0.335l1.396-0.521l0.646-0.563l0.34-0.688l1.497-2.921l0.438-0.173l1.896-1.071   l0.521-0.104l0.525,0.053l1.457,0.674l24.544,12.891l23.525,12.191l0.327,0.583l0.31,1.479l0.18,0.589l0.751,0.037l1.021-0.501   l0.733-0.265l0.688,0.188l0.987,0.398l27.287,13.87l0.192,0.813l0.274,1.109l-0.736,8.871l-0.197,0.535l0.688,0.188l2.451,0.106   l0.441-0.485l2.994-5.844l1.729-1.212l0.688,0.188l17.288,8.623l9.928,5.257l10.063,5.021l11.555,6.226l0.928,0.555l0.48,0.724   l0.188,0.738l-0.096,1.053l-0.436,1.819l-1.212,4.104l-0.727,1.982l-0.697,1.01l-0.408,0.771l-0.021,1.05l0.179,2.015l0.054,0.521   c2.434,20.038-11.038,25.414-31.557,26.973l-2.786,0.145c-16.727,0.855-23.041-0.771-30.562-4.223l-13.434-6.896l-48.15-24.188   l-39.932-20.479l-21.891-11.278l-2.896-1.947l-2.175-1.483l-1.816-2.398l-1.416-2.322l-0.505-2.069l-0.128-2.482l-0.02-2.194   l1.84-12.771c1.334-9.058,28.354-19.424,28.354-19.424L396.565,247.439z" outline-element="true" stroke="#000000" stroke-width="0.5" g2gstroke="#312783" stroke-miterlimit="10"/>
	
		<line orgstroke="#000000" orgfill="none" fill="none" x1="376.673" x2="376.227" y1="274.483" y2="274.251" stroke="#000000" stroke-width="0.25" g2gstroke="#312783" stroke-miterlimit="10"/>
	
		<line orgstroke="#000000" orgfill="none" fill="none" x1="379.009" x2="377.191" y1="275.686" y2="274.748" stroke="#000000" stroke-width="0.25" g2gstroke="#312783" stroke-miterlimit="10"/>
	<line orgstroke="#000000" orgfill="none" fill="none" x1="394.616" x2="379.617" y1="283.728" y2="276" stroke="#000000" stroke-width="0.25" g2gstroke="#312783" stroke-miterlimit="10"/>
	<polyline orgstroke="#000000" orgfill="none" points="397.012,284.961 396.714,284.808    395.337,284.1  " fill="none" stroke="#000000" stroke-width="0.25" g2gstroke="#312783" stroke-miterlimit="10"/>
	
		<line orgstroke="#000000" orgfill="none" fill="none" x1="412.039" x2="397.627" y1="292.671" y2="285.275" stroke="#000000" stroke-width="0.25" g2gstroke="#312783" stroke-miterlimit="10"/>
	
		<line orgstroke="#000000" orgfill="none" fill="none" x1="414.502" x2="412.647" y1="293.933" y2="292.983" stroke="#000000" stroke-width="0.25" g2gstroke="#312783" stroke-miterlimit="10"/>
	<polyline orgstroke="#000000" orgfill="none" points="454.604,314.313 436.642,305.299    415.644,294.519  " fill="none" stroke="#000000" stroke-width="0.25" g2gstroke="#312783" stroke-miterlimit="10"/>
	
		<line orgstroke="#000000" orgfill="none" fill="none" x1="459.823" x2="456.731" y1="316.938" y2="315.385" stroke="#000000" stroke-width="0.25" g2gstroke="#312783" stroke-miterlimit="10"/>
	
		<line orgstroke="#000000" orgfill="none" fill="none" x1="466.337" x2="460.674" y1="320.204" y2="317.36" stroke="#000000" stroke-width="0.25" g2gstroke="#312783" stroke-miterlimit="10"/>
	
		<line orgstroke="#000000" orgfill="none" fill="none" x1="469.531" x2="467.266" y1="321.812" y2="320.676" stroke="#000000" stroke-width="0.25" g2gstroke="#312783" stroke-miterlimit="10"/>
	
		<line orgstroke="#000000" orgfill="none" fill="none" x1="484.796" x2="470.426" y1="329.474" y2="322.26" stroke="#000000" stroke-width="0.25" g2gstroke="#312783" stroke-miterlimit="10"/>
	
		<line orgstroke="#000000" orgfill="none" fill="none" x1="487.177" x2="485.272" y1="330.694" y2="329.72" stroke="#000000" stroke-width="0.25" g2gstroke="#312783" stroke-miterlimit="10"/>
	<path orgstroke="#000000" orgfill="none" fill="none" d="M502.271,338.188   c-1.381-0.594-2.714-1.209-4.045-1.82l-10.409-5.344" stroke="#000000" stroke-width="0.25" g2gstroke="#312783" stroke-miterlimit="10"/>
	<path orgstroke="#000000" orgfill="none" fill="none" d="M504.729,339.196   c-0.598-0.229-1.188-0.469-1.762-0.711" stroke="#000000" stroke-width="0.25" g2gstroke="#312783" stroke-miterlimit="10"/>
	<path orgstroke="#000000" orgfill="none" fill="none" d="M527.809,342.636   c-10.144,0.396-16.813-1.104-22.363-3.168" stroke="#000000" stroke-width="0.25" g2gstroke="#312783" stroke-miterlimit="10"/>
	<path orgstroke="#000000" orgfill="none" fill="none" d="M531.573,342.448l-2.79,0.146   c-0.32,0.017-0.647,0.024-0.978,0.046" stroke="#000000" stroke-width="0.25" g2gstroke="#312783" stroke-miterlimit="10"/>
	<path orgstroke="#000000" orgfill="none" fill="none" d="M558.647,331.542   c-5.236,5.594-14.778,10.096-26.058,10.854" stroke="#000000" stroke-width="0.25" g2gstroke="#312783" stroke-miterlimit="10"/>
	<path orgstroke="#000000" orgfill="none" fill="none" d="M539.947,349.542   c9.575-1.152,17.202-3.506,21.777-8.393" stroke="#000000" stroke-width="0.25" g2gstroke="#312783" stroke-miterlimit="10"/>
	<path orgstroke="#000000" orgfill="none" fill="none" d="M366.123,269.888l0.372,2.819l0.938,2.198   l1.771,2.305l2.188,1.834l2.479,1.671l5.438,3.145l20.486,10.556l39.928,20.485l48.149,24.181l13.436,6.896   c7.519,3.45,13.833,5.08,30.56,4.221l2.787-0.143" stroke="#000000" stroke-width="0.25" g2gstroke="#312783" stroke-miterlimit="10"/>
	<polyline orgstroke="#000000" orgfill="none" points="560.639,333.12 558.591,331.135    557.406,330.067 556.902,328.896 556.99,327.692 557.229,326.483 557.403,325.507 557.148,324.915 556.069,324.302 510.4,300.89    509.471,300.263 508.943,300.219 508.34,300.097 506.695,300.181 505.558,299.864 500.487,297.354 500.225,296.62 500.104,295.728    499.181,295.25 472.926,282.523 472.238,282.261 471.337,282.156 468.313,281.639 467.627,281.373 466.771,280.743 466.49,279.71    465.478,278.863 419.602,254.344 418.971,253.701  " fill="none" stroke="#000000" stroke-width="0.25" g2gstroke="#312783" stroke-miterlimit="10"/>
	<polyline orgstroke="#000000" orgfill="none" points="536.908,306.489 546.572,311.385    558.273,317.677 560.975,319.26 561.98,319.883 562.464,320.524 562.502,321.272 562.323,322.181 561.073,325.612 560.087,326.718    559.527,327.489 559.262,328.177 559.686,329.133 560.651,330.427  " fill="none" stroke="#000000" stroke-width="0.25" g2gstroke="#312783" stroke-miterlimit="10"/>
	
		<line orgstroke="#000000" orgfill="none" fill="none" x1="512.587" x2="533.969" y1="293.889" y2="304.993" stroke="#000000" stroke-width="0.25" g2gstroke="#312783" stroke-miterlimit="10"/>
	
		<line orgstroke="#000000" orgfill="none" fill="none" x1="491.117" x2="503.145" y1="283.021" y2="289.358" stroke="#000000" stroke-width="0.25" g2gstroke="#312783" stroke-miterlimit="10"/>
	
		<line orgstroke="#000000" orgfill="none" fill="none" x1="475.459" x2="487.971" y1="274.767" y2="281.36" stroke="#000000" stroke-width="0.25" g2gstroke="#312783" stroke-miterlimit="10"/>
	<polyline orgstroke="#000000" orgfill="none" points="505.434,288.716 504.765,288.826    504.179,289.081 503.823,289.473 503.406,290.168 500.104,295.728  " fill="none" stroke="#000000" stroke-width="0.25" g2gstroke="#312783" stroke-miterlimit="10"/>
	<polyline orgstroke="#000000" orgfill="none" points="501.073,297.175 503.099,292.804    503.505,291.96 503.928,291.489 504.432,291.087 504.802,290.995 505.471,290.885 506.217,290.848  " fill="none" stroke="#000000" stroke-width="0.25" g2gstroke="#312783" stroke-miterlimit="10"/>
	<polyline orgstroke="#000000" orgfill="none" points="445.896,260.219 469.796,272.579    470.281,273.302 470.533,273.963 470.344,274.497 466.627,279.403  " fill="none" stroke="#000000" stroke-width="0.25" g2gstroke="#312783" stroke-miterlimit="10"/>
	
		<line orgstroke="#000000" orgfill="none" fill="none" x1="438.031" x2="440.055" y1="256.15" y2="257.195" stroke="#000000" stroke-width="0.25" g2gstroke="#312783" stroke-miterlimit="10"/>
	<polyline orgstroke="#000000" orgfill="none" points="421.005,248.132 421.893,247.937    422.654,248.196 435.813,255.003  " fill="none" stroke="#000000" stroke-width="0.25" g2gstroke="#312783" stroke-miterlimit="10"/>
	
		<line orgstroke="#000000" orgfill="none" fill="none" x1="475.238" x2="469.961" y1="275.069" y2="281.627" stroke="#000000" stroke-width="0.25" g2gstroke="#312783" stroke-miterlimit="10"/>
	<polyline orgstroke="#000000" orgfill="none" points="473.1,272.783 471.268,273.551    470.99,274.015 469.272,281.364  " fill="none" stroke="#000000" stroke-width="0.25" g2gstroke="#312783" stroke-miterlimit="10"/>
	<polyline orgstroke="#000000" orgfill="none" points="483.365,336.563 483.443,335.772    483.63,335.015 484.146,334.133 484.849,333.231 485.767,332.177 486.587,331.345 487.972,330.636 488.99,330.177 489.388,330.039    510.783,323.104 520.656,319.851 526.379,317.563 529.896,316.135 531.733,314.94 532.79,314.188 533.446,313.308  " fill="none" stroke="#000000" stroke-width="0.25" g2gstroke="#312783" stroke-miterlimit="10"/>
	<polyline orgstroke="#000000" orgfill="none" points="481.389,335.028 481.464,334.24    481.648,333.481 482.156,332.597 482.863,331.696 483.781,330.642 484.604,329.813 485.99,329.104 487.015,328.64 487.405,328.51    508.811,321.571 518.676,318.319 524.397,316.031 527.918,314.603 529.752,313.409 530.812,312.656 531.465,311.776  " fill="none" stroke="#000000" stroke-width="0.25" g2gstroke="#312783" stroke-miterlimit="10"/>
	<polyline orgstroke="#000000" orgfill="none" points="498.615,343.951 498.688,343.159    498.877,342.403 499.389,341.519 500.093,340.618 501.013,339.562 501.823,338.731 503.219,338.026 504.24,337.562    504.634,337.429 526.031,330.49 535.901,327.239 541.615,324.95 545.145,323.521 546.977,322.328 548.031,321.576 548.69,320.696     " fill="none" stroke="#000000" stroke-width="0.25" g2gstroke="#312783" stroke-miterlimit="10"/>
	<polyline orgstroke="#000000" orgfill="none" points="500.492,345.22 500.57,344.431    500.755,343.677 501.271,342.783 501.974,341.89 502.894,340.828 503.71,340.009 505.098,339.3 506.115,338.83 506.513,338.696    527.92,331.76 537.781,328.51 543.504,326.222 547.024,324.79 548.857,323.599 549.92,322.847 550.57,321.969  " fill="none" stroke="#000000" stroke-width="0.25" g2gstroke="#312783" stroke-miterlimit="10"/>
	<polyline orgstroke="#000000" orgfill="none" points="465.926,327.614 465.991,326.823    466.183,326.065 466.697,325.179 467.4,324.281 468.321,323.224 469.138,322.396 470.525,321.688 471.55,321.226 471.94,321.094    493.346,314.153 503.211,310.901 508.932,308.613 512.448,307.187 514.281,305.991 515.347,305.239 515.991,304.358  " fill="none" stroke="#000000" stroke-width="0.25" g2gstroke="#312783" stroke-miterlimit="10"/>
	<polyline orgstroke="#000000" orgfill="none" points="462.965,325.933 463.031,325.144    463.221,324.385 463.736,323.496 464.44,322.603 465.358,321.549 466.177,320.719 467.563,320.01 468.588,319.551 468.979,319.409    490.385,312.474 500.242,309.222 505.971,306.933 509.49,305.51 511.323,304.313 512.385,303.56 513.031,302.677  " fill="none" stroke="#000000" stroke-width="0.25" g2gstroke="#312783" stroke-miterlimit="10"/>
	<polyline orgstroke="#000000" orgfill="none" points="455.209,322.681 455.227,322.479    455.406,321.722 455.927,320.84 456.631,319.938 457.55,318.884 458.365,318.052 459.754,317.344 460.776,316.885 461.169,316.746    482.573,309.81 492.44,306.56 498.156,304.269 501.681,302.844 503.513,301.647 504.573,300.896 505.229,300.013  " fill="none" stroke="#000000" stroke-width="0.25" g2gstroke="#312783" stroke-miterlimit="10"/>
	<polyline orgstroke="#000000" orgfill="none" points="451.108,320.618 451.156,320.079    451.305,319.746 451.82,318.86 452.523,317.969 453.441,316.905 454.26,316.075 455.646,315.37 456.672,314.903 457.064,314.772    478.469,307.842 488.325,304.583 494.054,302.3 497.573,300.865 499.406,299.677 500.469,298.927 501.115,298.04  " fill="none" stroke="#000000" stroke-width="0.25" g2gstroke="#312783" stroke-miterlimit="10"/>
	<polyline orgstroke="#000000" orgfill="none" points="410.36,299.927 410.434,299.135    410.617,298.369 411.134,297.485 411.835,296.587 412.756,295.528 413.573,294.701 414.96,293.995 415.985,293.529    416.378,293.397 437.781,286.46 447.646,283.209 453.365,280.918 456.889,279.49 458.723,278.298 459.781,277.545 460.435,276.663     " fill="none" stroke="#000000" stroke-width="0.25" g2gstroke="#312783" stroke-miterlimit="10"/>
	<polyline orgstroke="#000000" orgfill="none" points="408.126,298.601 408.196,297.812    408.382,297.053 408.9,296.166 409.604,295.27 410.519,294.211 411.339,293.385 412.724,292.675 413.747,292.214 414.142,292.078    435.548,285.141 445.406,281.89 451.133,279.602 454.652,278.173 456.486,276.979 457.55,276.228 458.198,275.346  " fill="none" stroke="#000000" stroke-width="0.25" g2gstroke="#312783" stroke-miterlimit="10"/>
	<polyline orgstroke="#000000" orgfill="none" points="393.422,290.747 393.496,289.958    393.68,289.199 394.197,288.312 394.899,287.415 395.82,286.355 396.637,285.528 398.024,284.82 399.048,284.356 399.44,284.225    420.844,277.285 430.711,274.035 436.432,271.746 439.948,270.317 441.781,269.125 442.846,268.372 443.491,267.491  " fill="none" stroke="#000000" stroke-width="0.25" g2gstroke="#312783" stroke-miterlimit="10"/>
	<polyline orgstroke="#000000" orgfill="none" points="391.598,289.755 391.838,288.309    392.024,287.55 392.542,286.664 393.243,285.766 394.16,284.709 394.98,283.879 396.365,283.174 397.39,282.707 397.782,282.576    419.188,275.639 429.054,272.387 434.773,270.098 438.295,268.669 440.129,267.477 441.188,266.723 441.686,266.147  " fill="none" stroke="#000000" stroke-width="0.25" g2gstroke="#312783" stroke-miterlimit="10"/>
	<polyline orgstroke="#000000" orgfill="none" points="375.78,281.825 375.983,280.512    376.169,279.754 376.686,278.865 377.387,277.969 378.305,276.912 379.124,276.083 380.51,275.376 381.534,274.912 381.926,274.78    403.333,267.843 413.198,264.591 418.919,262.302 422.439,260.873 424.273,259.681 425.334,258.928 425.985,258.046  " fill="none" stroke="#000000" stroke-width="0.25" g2gstroke="#312783" stroke-miterlimit="10"/>
	<polyline orgstroke="#000000" orgfill="none" points="373.745,280.551 374.029,278.879    374.214,278.121 374.73,277.232 375.433,276.336 376.352,275.277 377.17,274.449 378.557,273.743 379.579,273.278 379.971,273.146    401.379,266.208 411.243,262.957 416.965,260.667 420.484,259.239 422.318,258.047 423.38,257.294 423.866,256.625  " fill="none" stroke="#000000" stroke-width="0.25" g2gstroke="#312783" stroke-miterlimit="10"/>
	<polyline orgstroke="#000000" orgfill="none" points="376.227,274.251 375.274,273.611    374.62,273.021 373.851,272.113 372.884,270.814 372.252,269.674 371.578,268.236 371.303,267.202 371.114,265.938    370.909,263.928  " fill="none" stroke="#000000" stroke-width="0.25" g2gstroke="#312783" stroke-miterlimit="10"/>
	<polyline orgstroke="#000000" orgfill="none" points="561.721,323.56 561.133,324.485    560.336,325.053 559.229,325.333 557.657,325.488  " fill="none" stroke="#000000" stroke-width="0.25" g2gstroke="#312783" stroke-miterlimit="10"/>
	
		<line orgstroke="#000000" orgfill="none" fill="none" x1="564.43" x2="562.74" y1="319.45" y2="320.219" stroke="#000000" stroke-width="0.25" g2gstroke="#312783" stroke-miterlimit="10"/>
	<polyline orgstroke="#000000" orgfill="none" points="560.639,333.12 560.891,333.606    561.169,334.192 561.478,335.323  " fill="none" stroke="#000000" stroke-width="0.25" g2gstroke="#312783" stroke-miterlimit="10"/>
</g>
</g>
</g></svg>