<svg xmlns="http://www.w3.org/2000/svg" xmlns:xlink="http://www.w3.org/1999/xlink" xmlns:etg="http://www.eurotaxglass.com/etg/evd/" etg:dataTimestamp="1539068912893" contentScriptType="text/ecmascript" zoomAndPan="magnify" contentStyleType="text/css" id="Layer_1" enable-background="new 0 0 1841.891 1595.279" version="1.1" width="1841.891px" xml:space="preserve" preserveAspectRatio="xMidYMid meet" viewBox="0 0 1841.891 1595.279" height="1595.279px" x="0px" y="0px"><g xmlns="http://www.w3.org/2000/svg" objecttype="PS" tooltip="#UNDEFINED" id="18">
<g onmouseover="notifyOwner(AGV_OBJECT_MOUSEOVER, '18(PS)')" onclick="clickZoom(evt); notifyOwner(AGV_OBJECT_MOUSECLICK, '18(PS)')" onmouseout="notifyOwner(AGV_OBJECT_MOUSEOUT, '18(PS)')" tooltip="#UNDEFINED" id="18-Graphic" objecttype="GRAPHIC">
<g>
	<polygon orgstroke="#000000" orgfill="#ffffff" points="258.937,325.677 261.423,323.858    263.548,321.608 265.923,319.358 268.298,317.108 270.298,314.733 272.174,312.483 273.174,311.64 274.018,310.95 275.018,310.675    276.235,310.575 277.235,310.825 277.528,310.953 279.676,312.203 280.394,312.985 280.801,313.927 281.051,315.427    281.051,317.642 281.051,320.36 280.926,322.828 280.676,324.735 280.176,326.052 279.394,327.392 278.614,328.328    277.957,328.892 277.114,329.267 276.301,329.453 275.551,329.328 274.801,329.017 273.894,328.453 273.082,327.953    271.989,327.677 271.082,327.61 270.176,327.735 269.364,327.985 267.457,328.828 266.426,329.427 265.676,329.642    264.614,329.485 263.686,329.144 263.269,329.144 262.936,329.31 262.644,329.644 262.561,330.144 262.436,336.144 262.269,336.56    261.936,336.894 261.311,337.144 260.644,337.144 260.311,336.976 259.24,336.269 258.365,335.31 257.907,334.601 257.698,334.101    257.74,327.185 257.865,326.685 258.073,326.435  " fill="#ffffff" g2gfill="#ECC35D" outline-element="true" stroke="#000000" stroke-width="0.5" g2gstroke="#312783" stroke-miterlimit="10"/>
	<polyline orgstroke="#000000" orgfill="none" points="273.72,312.906 274.144,312.552    274.989,311.86 275.989,311.578 277.207,311.485 278.207,311.735 278.5,311.863  " fill="none" stroke="#000000" stroke-width="0.25" g2gstroke="#312783" stroke-miterlimit="10"/>
	<polyline orgstroke="#000000" orgfill="none" points="259.144,327.142 262.394,324.767    264.519,322.517 266.894,320.267 269.269,318.017 271.269,315.642 272.237,314.479  " fill="none" stroke="#000000" stroke-width="0.25" g2gstroke="#312783" stroke-miterlimit="10"/>
	<polyline orgstroke="#000000" orgfill="none" points="272.457,321.892 272.394,321.427    271.989,321.017 271.551,320.802 267.857,319.354  " fill="none" stroke="#000000" stroke-width="0.25" g2gstroke="#312783" stroke-miterlimit="10"/>
	<polyline orgstroke="#000000" orgfill="none" points="268.785,323.601 269.176,323.578    270.426,323.392 271.364,323.177 271.894,322.828 272.332,322.392 272.375,322.219  " fill="none" stroke="#000000" stroke-width="0.25" g2gstroke="#312783" stroke-miterlimit="10"/>
	<polyline orgstroke="#000000" orgfill="none" points="263.926,323.392 266.019,323.642    267.457,323.677 267.553,323.667  " fill="none" stroke="#000000" stroke-width="0.25" g2gstroke="#312783" stroke-miterlimit="10"/>
	<polyline orgstroke="#000000" orgfill="none" points="263.926,324.565 266.019,324.815    267.457,324.847 269.176,324.758 270.426,324.565 271.364,324.347 271.894,324.008 272.332,323.565 272.457,323.065  " fill="none" stroke="#000000" stroke-width="0.25" g2gstroke="#312783" stroke-miterlimit="10"/>
	<polyline orgstroke="#000000" orgfill="none" points="258.789,331.642 258.769,334.81    258.977,335.31 259.436,336.019 259.98,336.614  " fill="none" stroke="#000000" stroke-width="0.25" g2gstroke="#312783" stroke-miterlimit="10"/>
	<polyline orgstroke="#000000" orgfill="none" points="259.144,327.142 258.936,327.394    258.811,327.894 258.795,330.453  " fill="none" stroke="#000000" stroke-width="0.25" g2gstroke="#312783" stroke-miterlimit="10"/>
	
		<line orgstroke="#000000" orgfill="none" fill="none" x1="263.926" x2="263.926" y1="323.392" y2="324.565" stroke="#000000" stroke-width="0.25" g2gstroke="#312783" stroke-miterlimit="10"/>
	
		<line orgstroke="#000000" orgfill="none" fill="none" x1="272.457" x2="272.457" y1="321.892" y2="323.065" stroke="#000000" stroke-width="0.25" g2gstroke="#312783" stroke-miterlimit="10"/>
	<path orgstroke="#000000" orgfill="none" fill="none" d="M261.527,334.719   c-0.271,0.472-0.871,0.853-1.341,0.853s-0.63-0.381-0.354-0.853c0.271-0.475,0.872-0.854,1.341-0.854   C261.638,333.867,261.798,334.248,261.527,334.719z" stroke="#000000" stroke-width="0.25" g2gstroke="#312783" stroke-miterlimit="10"/>
	
		<ellipse orgstroke="#000000" orgfill="none" fill="none" rx="1.521" cx="269.374" ry="0.891" cy="321.891" stroke="#000000" stroke-width="0.25" g2gstroke="#312783" stroke-miterlimit="10"/>
	<path orgstroke="#000000" orgfill="none" fill="none" d="M268.186,322.222   c0.28-0.201,0.708-0.33,1.188-0.33c0.458,0,0.869,0.118,1.146,0.306" stroke="#000000" stroke-width="0.25" g2gstroke="#312783" stroke-miterlimit="10"/>
	
		<line orgstroke="#000000" orgfill="none" fill="none" x1="258.207" x2="258.707" y1="326.892" y2="327.203" stroke="#000000" stroke-width="0.25" g2gstroke="#312783" stroke-miterlimit="10"/>
</g>
</g>
</g></svg>