<svg xmlns="http://www.w3.org/2000/svg" xmlns:xlink="http://www.w3.org/1999/xlink" xmlns:etg="http://www.eurotaxglass.com/etg/evd/" etg:dataTimestamp="1539068912893" contentScriptType="text/ecmascript" zoomAndPan="magnify" contentStyleType="text/css" id="Layer_1" enable-background="new 0 0 1841.891 1595.279" version="1.1" width="1841.891px" xml:space="preserve" preserveAspectRatio="xMidYMid meet" viewBox="0 0 1841.891 1595.279" height="1595.279px" x="0px" y="0px"><g xmlns="http://www.w3.org/2000/svg" objecttype="PS" tooltip="#UNDEFINED" id="19">
<g onmouseover="notifyOwner(AGV_OBJECT_MOUSEOVER, '19(PS)')" onclick="clickZoom(evt); notifyOwner(AGV_OBJECT_MOUSECLICK, '19(PS)')" onmouseout="notifyOwner(AGV_OBJECT_MOUSEOUT, '19(PS)')" tooltip="#UNDEFINED" id="19-Graphic" objecttype="GRAPHIC">
<g>
	<path orgstroke="#000000" orgfill="#ffffff" fill="#ffffff" g2gfill="#ECC35D" d="M202.481,400.651   c0,0,12.375,11.998,29.375,17.748c0,0,7.25,2.375,7.563,0.5l0.313-6.563c0,0-0.25-1.5,1.938-1.688   c2.188-0.188,9.612-4.476,9.612-4.476l0.263-0.899l0.104-1.688l-0.302-0.403l-0.428-0.162h-1l-1-0.621l-0.385-0.664l-0.628-1.084   v-1.5c0,0,0.261-0.688-0.434-1.5c-0.688-0.812-1.813-1.25-1.813-1.25L223.6,383.673c0,0-0.637-0.271-1.431,0.139   c-0.699,0.355-10.453,5.095-10.453,5.095l-1.458,0.521l-0.979,0.188H206.3l-0.724-0.416c0,0-0.485-0.604-0.58-0.636   c-0.096-0.03-0.552-0.295-0.552-0.295h-0.67l-0.429,0.244l-0.467,0.271l-1.045,1.125v0.313v8.97l0.219,0.75L202.481,400.651z" outline-element="true" stroke="#000000" stroke-width="0.5" g2gstroke="#312783" stroke-miterlimit="10"/>
	<path orgstroke="#000000" orgfill="none" fill="none" d="M206.731,396.26   c-2.502-1.866-4.168-3.446-4.333-4.354" stroke="#000000" stroke-width="0.25" g2gstroke="#312783" stroke-miterlimit="10"/>
	<path orgstroke="#000000" orgfill="none" fill="none" d="M238.648,408.276l-1.625,1.125l-0.792,0.5   c0,0-0.829,0.68-5.123-0.266c-5.881-1.92-16.643-7.869-23.188-12.521" stroke="#000000" stroke-width="0.25" g2gstroke="#312783" stroke-miterlimit="10"/>
	<path orgstroke="#000000" orgfill="none" fill="none" d="M211.227,395.222   c-4-2.695-6.905-5.115-7.125-6.326" stroke="#000000" stroke-width="0.25" g2gstroke="#312783" stroke-miterlimit="10"/>
	<path orgstroke="#000000" orgfill="none" fill="none" d="M237.935,406.896c0,0-0.829,0.68-5.123-0.267   c-5.041-1.646-13.667-6.251-20.146-10.468" stroke="#000000" stroke-width="0.25" g2gstroke="#312783" stroke-miterlimit="10"/>
	<path orgstroke="#000000" orgfill="none" fill="none" d="M234.141,405.028   c-0.486-0.075-1.038-0.178-1.663-0.313c-7.035-2.3-21.054-10.357-26.493-15.064" stroke="#000000" stroke-width="0.25" g2gstroke="#312783" stroke-miterlimit="10"/>
	<polyline orgstroke="#000000" orgfill="none" points="234.141,405.028 235.356,405.149    235.825,405.274 236.263,405.368 236.606,405.558 238.638,407.024 238.95,407.344 239.294,407.899 239.638,408.844    239.825,409.524 239.888,410.219 239.794,411.243  " fill="none" stroke="#000000" stroke-width="0.25" g2gstroke="#312783" stroke-miterlimit="10"/>
	
		<line orgstroke="#000000" orgfill="none" fill="none" x1="240.618" x2="233.148" y1="401.867" y2="404.651" stroke="#000000" stroke-width="0.25" g2gstroke="#312783" stroke-miterlimit="10"/>
	<polyline orgstroke="#000000" orgfill="none" points="247.837,398.228 247.689,398.735    247.564,399.067 247.273,399.36 246.898,399.526 242.372,401.219  " fill="none" stroke="#000000" stroke-width="0.25" g2gstroke="#312783" stroke-miterlimit="10"/>
	<path orgstroke="#000000" orgfill="none" fill="none" d="M229.884,388.362l-6.269-3.619   c0,0-0.644-0.268-1.438,0.146c-0.699,0.354-10.453,5.094-10.453,5.094l-1.458,0.521l-0.979,0.188h-1.604" stroke="#000000" stroke-width="0.25" g2gstroke="#312783" stroke-miterlimit="10"/>
	<path orgstroke="#000000" orgfill="none" fill="none" d="M232.031,404.231l13.75-5.125l0.375-0.166   l0.299-0.293l0.125-0.332l0.03-0.127l-0.063-0.256c-0.478-0.302-0.873-0.457-0.873-0.457l-13.438-7.759" stroke="#000000" stroke-width="0.25" g2gstroke="#312783" stroke-miterlimit="10"/>
	<polyline orgstroke="#000000" orgfill="none" points="214.856,395.594 221.606,392.901    222.169,392.651 222.856,392.526 223.419,392.526 224.419,392.776 225.106,393.344 228.106,395.219 231.169,396.969    234.044,398.469 237.981,400.219 240.419,400.901  " fill="none" stroke="#000000" stroke-width="0.25" g2gstroke="#312783" stroke-miterlimit="10"/>
	<polyline orgstroke="#000000" orgfill="none" points="220.106,386.401 221.294,388.026    222.606,389.219 223.544,389.776 241.481,399.901 242.356,400.094  " fill="none" stroke="#000000" stroke-width="0.25" g2gstroke="#312783" stroke-miterlimit="10"/>
	
		<line orgstroke="#000000" orgfill="none" fill="none" x1="222.919" x2="222.919" y1="389.969" y2="391.776" stroke="#000000" stroke-width="0.25" g2gstroke="#312783" stroke-miterlimit="10"/>
	
		<line orgstroke="#000000" orgfill="none" fill="none" x1="222.919" x2="222.919" y1="385.858" y2="387.677" stroke="#000000" stroke-width="0.25" g2gstroke="#312783" stroke-miterlimit="10"/>
	<polyline orgstroke="#000000" orgfill="none" points="210.82,405.427 212.731,406.719    215.169,408.344 217.106,409.274 217.856,409.399 218.356,409.344 218.731,409.094 218.981,408.594 219.294,406.594    219.388,406.024 219.638,405.493 219.919,405.118 220.21,404.748  " fill="none" stroke="#000000" stroke-width="0.25" g2gstroke="#312783" stroke-miterlimit="10"/>
	<polyline orgstroke="#000000" orgfill="none" points="210.64,398.97 209.882,399.606    209.544,400.469 209.419,401.094 209.294,403.469 209.606,404.149 209.831,404.469  " fill="none" stroke="#000000" stroke-width="0.25" g2gstroke="#312783" stroke-miterlimit="10"/>
	<polyline orgstroke="#000000" orgfill="none" points="210.55,399.219 210.352,399.722    210.227,400.347 210.102,402.722 210.414,403.408 211.039,404.283 213.539,405.972 215.977,407.597 217.914,408.533    218.664,408.658  " fill="none" stroke="#000000" stroke-width="0.25" g2gstroke="#312783" stroke-miterlimit="10"/>
</g>
</g>
</g></svg>