<svg xmlns="http://www.w3.org/2000/svg" xmlns:xlink="http://www.w3.org/1999/xlink" xmlns:etg="http://www.eurotaxglass.com/etg/evd/" etg:dataTimestamp="1539068912893" contentScriptType="text/ecmascript" zoomAndPan="magnify" contentStyleType="text/css" id="Layer_1" enable-background="new 0 0 1841.891 1595.279" version="1.1" width="1841.891px" xml:space="preserve" preserveAspectRatio="xMidYMid meet" viewBox="0 0 1841.891 1595.279" height="1595.279px" x="0px" y="0px"><g xmlns="http://www.w3.org/2000/svg" objecttype="PS" tooltip="#UNDEFINED" id="2">
<g onmouseover="notifyOwner(AGV_OBJECT_MOUSEOVER, '2(PS)')" onclick="clickZoom(evt); notifyOwner(AGV_OBJECT_MOUSECLICK, '2(PS)')" onmouseout="notifyOwner(AGV_OBJECT_MOUSEOUT, '2(PS)')" tooltip="#UNDEFINED" id="2-Graphic" objecttype="GRAPHIC">
<g>
	<polygon orgstroke="#000000" orgfill="#ffffff" points="517.147,292.712 517.401,291.835    517.445,291.183 517.445,290.399 517.271,288.832 517.043,288.613 517.073,288.634 516.813,288.46 516.77,288.242 516.9,287.72    516.9,287.023 516.9,285.674 516.856,284.281 516.683,283.585 516.34,282.926 514.922,281.403 512.426,278.85 510.627,277.05    509.987,276.528 509.406,276.354 509.115,276.121 504.881,272 504.01,270.607 503.656,270.084 503.776,269.503 503.893,268.924    504.117,268.228 504.299,267.24 504.408,266.369 504.183,265.79 498.96,258.94 498.379,258.244 497.855,257.896 497.334,257.78    496.281,257.721 495.65,257.721 494.948,258.185 494.604,258.142 494.258,257.91 493.504,257.793 492.689,257.851 492.169,258.011    491.472,258.475 491.064,258.823 488.918,261.378 487.758,262.771 487.06,263.816 486.823,264.395 486.823,264.802    486.886,265.499 487.293,266.021 493.444,272.405 494.084,272.928 494.948,273.276 495.65,273.334 496.812,273.219    497.219,272.986 497.508,272.928 498.263,272.986 498.844,273.16 499.532,273.857 502.905,277.746 503.486,278.558    504.183,279.777 504.59,280.532 505.691,281.634 511.147,287.265 511.554,287.671 511.781,288.135 511.961,289.18 512.019,289.703    512.309,289.876 512.599,290.167 512.556,290.272 512.192,290.573 511.554,290.573 511.09,290.689 510.567,290.806    509.696,291.211 509.059,291.734 508.942,292.199 508.999,293.649 509.406,294.114 510.103,294.52 511.438,294.694 512.54,294.694    513.587,294.694 515.442,294.289 515.948,294.023  " fill="#ffffff" g2gfill="#ECF5E4" outline-element="true" stroke="#000000" stroke-width="0.5" g2gstroke="#312783" stroke-miterlimit="10"/>
	<polyline orgstroke="#000000" orgfill="none" points="512.438,290.634 512.365,290.921    512.309,292.924  " fill="none" stroke="#000000" stroke-width="0.25" g2gstroke="#312783" stroke-miterlimit="10"/>
	<polyline orgstroke="#000000" orgfill="none" points="508.153,283.054 506.215,281.053    505.112,279.951 504.699,279.196 504.01,277.978 503.429,277.165 500.062,273.276  " fill="none" stroke="#000000" stroke-width="0.25" g2gstroke="#312783" stroke-miterlimit="10"/>
	<polyline orgstroke="#000000" orgfill="none" points="512.824,289.703 512.543,289.326    512.483,288.599 512.31,287.555 512.073,287.091 511.672,286.684 509.011,283.938  " fill="none" stroke="#000000" stroke-width="0.25" g2gstroke="#312783" stroke-miterlimit="10"/>
	<polyline orgstroke="#000000" orgfill="none" points="490.136,264.86 489.323,265.092    487.524,265.092 486.844,264.986  " fill="none" stroke="#000000" stroke-width="0.25" g2gstroke="#312783" stroke-miterlimit="10"/>
	<polyline orgstroke="#000000" orgfill="none" points="493.277,269.686 494.315,270.955    494.896,271.535 495.36,272 495.709,272.405 495.992,272.928  " fill="none" stroke="#000000" stroke-width="0.25" g2gstroke="#312783" stroke-miterlimit="10"/>
	<polyline orgstroke="#000000" orgfill="none" points="490.31,265.266 490.365,265.962    490.656,266.485 491.935,268.043  " fill="none" stroke="#000000" stroke-width="0.25" g2gstroke="#312783" stroke-miterlimit="10"/>
	
		<line orgstroke="#000000" orgfill="none" fill="none" x1="514.448" x2="516.483" y1="289.016" y2="287.797" stroke="#000000" stroke-width="0.25" g2gstroke="#312783" stroke-miterlimit="10"/>
	<polyline orgstroke="#000000" orgfill="none" points="509.406,291.851 509.574,292.489    509.987,293.069 510.684,293.301 511.554,293.475  " fill="none" stroke="#000000" stroke-width="0.25" g2gstroke="#312783" stroke-miterlimit="10"/>
	<polyline orgstroke="#000000" orgfill="none" points="511.554,293.475 511.902,293.476    512.073,293.418 512.192,293.272 512.309,292.924  " fill="none" stroke="#000000" stroke-width="0.25" g2gstroke="#312783" stroke-miterlimit="10"/>
	
		<ellipse orgstroke="#000000" orgfill="none" fill="none" rx="0.729" cx="511.199" ry="0.384" cy="292.164" stroke="#000000" stroke-width="0.25" g2gstroke="#312783" stroke-miterlimit="10"/>
	
		<line orgstroke="#000000" orgfill="none" fill="none" x1="514.394" x2="516.533" y1="285.609" y2="284.274" stroke="#000000" stroke-width="0.25" g2gstroke="#312783" stroke-miterlimit="10"/>
	<polyline orgstroke="#000000" orgfill="none" points="491.211,259.114 491.559,259.404    491.646,259.926 491.588,260.216 489.092,263.322 488.802,263.409 488.278,263.467 487.524,263.438  " fill="none" stroke="#000000" stroke-width="0.25" g2gstroke="#312783" stroke-miterlimit="10"/>
	<polyline orgstroke="#000000" orgfill="none" points="516.531,291.103 516.124,291.864    515.799,292.191 515.232,292.517 514.47,292.822 513.49,293.083 512.708,293.126  " fill="none" stroke="#000000" stroke-width="0.25" g2gstroke="#312783" stroke-miterlimit="10"/>
	<polyline orgstroke="#000000" orgfill="none" points="512.924,285.212 509.176,281.344    508.071,280.243 507.658,279.488 506.969,278.269 506.388,277.457 503.021,273.567 502.323,272.871 501.74,272.696    500.989,272.638 500.698,272.696 500.295,272.929 499.134,273.044 498.437,272.986 497.565,272.638 496.927,272.115    490.774,265.731 490.365,265.209 490.31,264.512 490.31,264.105 490.543,263.526 491.239,262.481 492.399,261.088 494.549,258.533    494.774,258.339  " fill="none" stroke="#000000" stroke-width="0.25" g2gstroke="#312783" stroke-miterlimit="10"/>
	<polyline orgstroke="#000000" orgfill="none" points="511.636,282.765 509.697,280.764    508.595,279.662 508.188,278.907 507.49,277.688 506.906,276.875 503.546,272.986 502.849,272.29 502.268,272.115 501.513,272.057     " fill="none" stroke="#000000" stroke-width="0.25" g2gstroke="#312783" stroke-miterlimit="10"/>
	
		<line orgstroke="#000000" orgfill="none" fill="none" x1="513.627" x2="512.49" y1="284.817" y2="283.649" stroke="#000000" stroke-width="0.25" g2gstroke="#312783" stroke-miterlimit="10"/>
	<polyline orgstroke="#000000" orgfill="none" points="496.013,262.208 494.838,263.526    494.142,264.338 493.615,264.571 492.806,264.802 491.008,264.802 490.323,264.697  " fill="none" stroke="#000000" stroke-width="0.25" g2gstroke="#312783" stroke-miterlimit="10"/>
	<polyline orgstroke="#000000" orgfill="none" points="497.855,257.896 497.855,258.94    497.739,259.869 497.219,260.855  " fill="none" stroke="#000000" stroke-width="0.25" g2gstroke="#312783" stroke-miterlimit="10"/>
	<polyline orgstroke="#000000" orgfill="none" points="496.76,269.396 497.799,270.666    498.379,271.245 498.844,271.71 499.19,272.115 499.481,272.638  " fill="none" stroke="#000000" stroke-width="0.25" g2gstroke="#312783" stroke-miterlimit="10"/>
	<polyline orgstroke="#000000" orgfill="none" points="493.794,264.976 493.851,265.673    494.142,266.195 495.418,267.753  " fill="none" stroke="#000000" stroke-width="0.25" g2gstroke="#312783" stroke-miterlimit="10"/>
	<polyline orgstroke="#000000" orgfill="none" points="503.893,266.253 503.486,267.762    502.558,269.33 501.049,270.723 500.062,271.478 499.073,271.983  " fill="none" stroke="#000000" stroke-width="0.25" g2gstroke="#312783" stroke-miterlimit="10"/>
	<polyline orgstroke="#000000" orgfill="none" points="503.365,269.91 502.674,270.723    501.687,271.593 500.759,272.348  " fill="none" stroke="#000000" stroke-width="0.25" g2gstroke="#312783" stroke-miterlimit="10"/>
	<polyline orgstroke="#000000" orgfill="none" points="494.692,258.825 495.034,259.114    495.129,259.637 495.069,259.926 492.573,263.032 492.281,263.119 491.761,263.178 491.008,263.148  " fill="none" stroke="#000000" stroke-width="0.25" g2gstroke="#312783" stroke-miterlimit="10"/>
	<polyline orgstroke="#000000" orgfill="none" points="512.924,285.212 513.267,285.872    513.44,286.568 513.483,287.961 513.483,289.311 513.483,290.007 513.353,290.53 513.397,290.748 513.656,290.921  " fill="none" stroke="#000000" stroke-width="0.25" g2gstroke="#312783" stroke-miterlimit="10"/>
	<polyline orgstroke="#000000" orgfill="none" points="513.656,284.942 514.003,285.601    514.177,286.297 514.22,287.69 514.22,289.04 514.22,289.737 514.09,290.259 514.133,290.477 514.394,290.651  " fill="none" stroke="#000000" stroke-width="0.25" g2gstroke="#312783" stroke-miterlimit="10"/>
	<polyline orgstroke="#000000" orgfill="none" points="515.948,294.023 516.793,293.185    517.147,292.712  " fill="none" stroke="#000000" stroke-width="0.25" g2gstroke="#312783" stroke-miterlimit="10"/>
	<polyline orgstroke="#000000" orgfill="none" points="516.531,291.103 517.01,289.79    517.097,289.18 517.097,288.789  " fill="none" stroke="#000000" stroke-width="0.25" g2gstroke="#312783" stroke-miterlimit="10"/>
	<polyline orgstroke="#000000" orgfill="none" points="513.656,290.921 513.963,291.008    514.137,290.965 514.922,290.791 515.269,290.704 515.79,290.443 516.615,290.007 516.968,289.398  " fill="none" stroke="#000000" stroke-width="0.25" g2gstroke="#312783" stroke-miterlimit="10"/>
	
		<line orgstroke="#000000" orgfill="none" fill="none" x1="514.528" x2="516.487" y1="290.182" y2="289.006" stroke="#000000" stroke-width="0.25" g2gstroke="#312783" stroke-miterlimit="10"/>
	<polyline orgstroke="#000000" orgfill="none" points="512.824,289.703 513.136,289.833    513.483,290.007  " fill="none" stroke="#000000" stroke-width="0.25" g2gstroke="#312783" stroke-miterlimit="10"/>
	<polyline orgstroke="#000000" orgfill="none" points="512.613,290.443 512.698,290.878    512.874,291.052 513.05,291.052 513.05,291.052 513.397,290.748  " fill="none" stroke="#000000" stroke-width="0.25" g2gstroke="#312783" stroke-miterlimit="10"/>
	<polyline orgstroke="#000000" orgfill="none" points="513.656,290.921 513.093,291.923    513.093,292.532 513.49,293.083  " fill="none" stroke="#000000" stroke-width="0.25" g2gstroke="#312783" stroke-miterlimit="10"/>
</g>
</g>
</g></svg>