<svg xmlns="http://www.w3.org/2000/svg" xmlns:xlink="http://www.w3.org/1999/xlink" xmlns:etg="http://www.eurotaxglass.com/etg/evd/" etg:dataTimestamp="1539068912893" contentScriptType="text/ecmascript" zoomAndPan="magnify" contentStyleType="text/css" id="Layer_1" enable-background="new 0 0 1841.891 1595.279" version="1.1" width="1841.891px" xml:space="preserve" preserveAspectRatio="xMidYMid meet" viewBox="0 0 1841.891 1595.279" height="1595.279px" x="0px" y="0px"><g xmlns="http://www.w3.org/2000/svg" objecttype="PS" tooltip="#UNDEFINED" id="23">
<g onmouseover="notifyOwner(AGV_OBJECT_MOUSEOVER, '23(PS)')" onclick="clickZoom(evt); notifyOwner(AGV_OBJECT_MOUSECLICK, '23(PS)')" onmouseout="notifyOwner(AGV_OBJECT_MOUSEOUT, '23(PS)')" tooltip="#UNDEFINED" id="23-Graphic" objecttype="GRAPHIC">
<g>
	<polygon orgstroke="#000000" orgfill="#ffffff" points="331.869,249.437 323.823,246.609    320.343,245.595 315.485,244.58 312.223,244.507 308.599,244.725 304.176,245.232 301.204,246.03 298.885,247.335 297.434,248.712    296.42,250.234 295.115,253.279 294.535,255.744 293.52,261.037 293.012,264.517 291.925,272.925 290.837,278.653 289.242,288.005    288.01,292.79 286.415,298.885 285.183,302.938 284.167,306.854 283.805,309.824 283.66,312.651 283.66,315.19 284.24,317.944    285.327,320.265 286.632,322.947 287.937,324.903 289.677,327.01 291.272,329.036 293.374,330.635 297.072,333.466    301.349,335.853 308.89,340.201 314.688,343.392 326.143,349.406 329.986,351.583 331.579,352.163 333.175,352.385    334.842,352.385 336.438,352.308 338.177,351.802 339.772,351.075 343.977,348.248 346.804,346.073 347.385,345.427    347.891,344.622 348.108,343.317 348.472,340.056 348.906,334.401 349.486,325.412 350.139,316.931 351.444,306.2 352.604,295.834    353.401,289.31 354.271,280.972 354.562,276.478 354.779,270.896 354.779,266.256 354.779,263.284 354.562,261.689    354.344,260.311 353.618,259.369 352.604,258.209 349.849,256.542 345.137,254.294 339.047,251.902  " fill="#ffffff" g2gfill="#82AA8E" outline-element="true" stroke="#000000" stroke-width="0.5" g2gstroke="#312783" stroke-miterlimit="10"/>
	<path orgstroke="#000000" orgfill="none" fill="none" d="M353.111,261.381l-5.486,2.562l-0.767,0.436   l-0.484,0.604l-0.387,1.631l-0.104,1.468l-0.271,2.828l-0.436,3.859l-0.438,4.458l-1.087,7.342l-1.794,7.063l-1.251,5.063   l-1.087,5.165l-0.979,4.133l-1.521,5.165l-1.85,5.385l-1.796,5.604c0,0-0.604,1.686-0.652,1.849   c-0.054,0.162-0.814,2.938-0.814,2.938l-0.38,1.733l-0.436,3.315v3.045l0.271,2.338l0.381,2.283l0.651,1.957l1.178,2.039   l2.084,2.963l1.414,1.797" stroke="#000000" stroke-width="0.25" g2gstroke="#312783" stroke-miterlimit="10"/>
	<path orgstroke="#000000" orgfill="none" fill="none" d="M337.231,300.952l-0.772,3.695l-0.979,4.134   l-1.521,5.166l-1.854,5.383l-1.794,5.604c0,0-0.6,1.686-0.649,1.849c-0.058,0.163-0.813,2.938-0.813,2.938l-0.381,1.732   l-0.438,3.317l-0.188,3.385l0.172,2.515l0.247,2.519l0.465,2.277l0.854,1.985l0.489,1.313l0.602,1.143" stroke="#000000" stroke-width="0.25" g2gstroke="#312783" stroke-miterlimit="10"/>
	
		<line orgstroke="#000000" orgfill="none" fill="none" x1="337.542" x2="337.231" y1="299.483" y2="300.952" stroke="#000000" stroke-width="0.25" g2gstroke="#312783" stroke-miterlimit="10"/>
	
		<line orgstroke="#000000" orgfill="none" fill="none" x1="338.42" x2="337.913" y1="295.931" y2="297.979" stroke="#000000" stroke-width="0.25" g2gstroke="#312783" stroke-miterlimit="10"/>
	<polyline orgstroke="#000000" orgfill="none" points="342.816,268.873 342.544,271.7    342.109,275.561 341.674,280.019 340.586,287.359 338.792,294.428  " fill="none" stroke="#000000" stroke-width="0.25" g2gstroke="#312783" stroke-miterlimit="10"/>
	<path orgstroke="#000000" orgfill="none" fill="none" d="M338.583,268.873l-0.271,2.827l-0.436,3.86   l-0.438,4.458l-1.087,7.34l-1.795,7.063l-1.25,5.063l-1.087,5.166l-0.979,4.131l-1.521,5.166l-1.851,5.384l-1.799,5.604   c0,0-0.6,1.686-0.647,1.849c-0.049,0.163-0.815,2.938-0.815,2.938l-0.381,1.732l-0.437,3.315l-0.194,3.385l0.173,2.512l0.246,2.521   l0.466,2.277l0.854,1.984l0.483,1.313l0.318,0.646" stroke="#000000" stroke-width="0.25" g2gstroke="#312783" stroke-miterlimit="10"/>
	<polyline orgstroke="#000000" orgfill="none" points="342.816,268.873 342.834,267.688    342.78,266.437 342.508,265.404 342.182,264.48 341.53,263.338 339.789,261.979 337.017,260.456 332.558,258.499 327.827,256.65    322.771,254.802 318.856,253.661 313.147,252.029 308.742,250.725 305.59,250.017 302.817,249.582 301.022,249.473    299.499,249.746 298.575,250.234 297.923,250.887 297.217,252.138 296.945,253.661 296.564,256.977 295.694,265.513    294.988,274.212 294.335,278.671 293.356,284.924 292.595,288.294 291.291,293.895 289.877,299.931 288.952,303.573    288.354,305.909 288.082,307.488 287.865,309.771 287.702,311.677 287.756,314.937 287.811,317.491 287.974,320.155    288.626,322.438 289.496,324.831 291.453,328.365  " fill="none" stroke="#000000" stroke-width="0.25" g2gstroke="#312783" stroke-miterlimit="10"/>
	<polyline orgstroke="#000000" orgfill="none" points="302.654,246.03 302.365,246.537    302.292,247.335 302.87,247.77 303.451,247.987 305.337,248.132 308.02,248.349 312.874,249.437 317.443,250.742 321.939,252.12    326.216,253.714 329.986,255.309 333.754,256.977 336.945,258.354 338.613,259.006 339.99,259.441 342.164,259.949    344.485,260.239 346.846,260.275 348.906,259.876 350.792,259.297  " fill="none" stroke="#000000" stroke-width="0.25" g2gstroke="#312783" stroke-miterlimit="10"/>
	<ellipse orgstroke="#000000" orgfill="none" fill="none" rx="1.993" cx="319.8" ry="0.833" cy="248.24" stroke="#000000" stroke-width="0.25" g2gstroke="#312783" stroke-miterlimit="10"/>
	<ellipse orgstroke="#000000" orgfill="none" fill="none" rx="2.862" cx="319.8" ry="1.197" cy="248.24" stroke="#000000" stroke-width="0.25" g2gstroke="#312783" stroke-miterlimit="10"/>
	
		<ellipse orgstroke="#000000" orgfill="none" fill="none" rx="2.864" cx="336.65" ry="1.198" cy="254.348" stroke="#000000" stroke-width="0.25" g2gstroke="#312783" stroke-miterlimit="10"/>
	
		<ellipse orgstroke="#000000" orgfill="none" fill="none" rx="1.994" cx="336.65" ry="0.833" cy="254.348" stroke="#000000" stroke-width="0.25" g2gstroke="#312783" stroke-miterlimit="10"/>
	
		<line orgstroke="#000000" orgfill="none" fill="none" x1="295.061" x2="335.575" y1="273.311" y2="290.423" stroke="#000000" stroke-width="0.25" g2gstroke="#312783" stroke-miterlimit="10"/>
	
		<line orgstroke="#000000" orgfill="none" fill="none" x1="307.225" x2="336.131" y1="276.106" y2="288.234" stroke="#000000" stroke-width="0.25" g2gstroke="#312783" stroke-miterlimit="10"/>
	
		<line orgstroke="#000000" orgfill="none" fill="none" x1="295.242" x2="304.143" y1="271.078" y2="274.813" stroke="#000000" stroke-width="0.25" g2gstroke="#312783" stroke-miterlimit="10"/>
</g>
</g>
</g></svg>