<svg xmlns="http://www.w3.org/2000/svg" xmlns:xlink="http://www.w3.org/1999/xlink" xmlns:etg="http://www.eurotaxglass.com/etg/evd/" etg:dataTimestamp="1539068912893" contentScriptType="text/ecmascript" zoomAndPan="magnify" contentStyleType="text/css" id="Layer_1" enable-background="new 0 0 1841.891 1595.279" version="1.1" width="1841.891px" xml:space="preserve" preserveAspectRatio="xMidYMid meet" viewBox="0 0 1841.891 1595.279" height="1595.279px" x="0px" y="0px"><g xmlns="http://www.w3.org/2000/svg" objecttype="PS" tooltip="#UNDEFINED" id="25">
<g onmouseover="notifyOwner(AGV_OBJECT_MOUSEOVER, '25(PS)')" onclick="clickZoom(evt); notifyOwner(AGV_OBJECT_MOUSECLICK, '25(PS)')" onmouseout="notifyOwner(AGV_OBJECT_MOUSEOUT, '25(PS)')" tooltip="#UNDEFINED" id="25-Graphic" objecttype="GRAPHIC">
<g>
	<polygon orgstroke="#000000" orgfill="#ffffff" points="486.46,231.53 485.069,231.078    484.23,231.068 483.085,231.28 451.225,242.578 450.095,243.081 449.027,243.766 447.437,244.95 446.016,246.44 444.15,248.426    444.107,249.136 444.128,249.529 444.534,249.901 464.865,260.984 465.908,261.325 466.781,261.438 467.885,261.381    468.983,261.325 506.281,248.623 506.729,248.049 507.003,247.248 506.906,243.945 506.794,243.165 506.273,242.246    505.361,241.348  " fill="#ffffff" g2gfill="#82AA8E" outline-element="true" stroke="#000000" stroke-width="0.5" g2gstroke="#312783" stroke-miterlimit="10"/>
	<polyline orgstroke="#000000" orgfill="none" points="482.902,231.791 500.634,241.275    501.442,241.707 502.021,242.228 502.128,242.774 501.937,243.649 501.521,244.773 500.615,245.528 471.364,255.533    469.715,255.618 468.219,255.616 466.628,255.304 448.895,245.741 448.323,245.376 447.988,245  " fill="none" stroke="#000000" stroke-width="0.25" g2gstroke="#312783" stroke-miterlimit="10"/>
	<polyline orgstroke="#000000" orgfill="none" points="500.405,241.445 500.058,242.329    499.214,242.766 471.378,252.697 470.281,252.911 469.105,252.972 468.073,252.867 450.941,244.219 450.752,243.599    450.807,243.124  " fill="none" stroke="#000000" stroke-width="0.25" g2gstroke="#312783" stroke-miterlimit="10"/>
	<polyline orgstroke="#000000" orgfill="none" points="502.851,243.052 503.459,242.626    503.822,242.057 504.019,241.259  " fill="none" stroke="#000000" stroke-width="0.25" g2gstroke="#312783" stroke-miterlimit="10"/>
	<polyline orgstroke="#000000" orgfill="none" points="506.406,244.916 505.066,244.827    503.728,244.817 502.781,244.866 502.26,245.365 501.739,245.943 499.365,250.395  " fill="none" stroke="#000000" stroke-width="0.25" g2gstroke="#312783" stroke-miterlimit="10"/>
	<polyline orgstroke="#000000" orgfill="none" points="467.222,256.14 467.737,256.979    468.115,258.22 468.267,259.629 468.315,260.571  " fill="none" stroke="#000000" stroke-width="0.25" g2gstroke="#312783" stroke-miterlimit="10"/>
</g>
</g>
</g></svg>