<svg xmlns="http://www.w3.org/2000/svg" xmlns:xlink="http://www.w3.org/1999/xlink" xmlns:etg="http://www.eurotaxglass.com/etg/evd/" etg:dataTimestamp="1539068912893" contentScriptType="text/ecmascript" zoomAndPan="magnify" contentStyleType="text/css" id="Layer_1" enable-background="new 0 0 1841.891 1595.279" version="1.1" width="1841.891px" xml:space="preserve" preserveAspectRatio="xMidYMid meet" viewBox="0 0 1841.891 1595.279" height="1595.279px" x="0px" y="0px"><g xmlns="http://www.w3.org/2000/svg" objecttype="PS" tooltip="#UNDEFINED" id="26">
<g onmouseover="notifyOwner(AGV_OBJECT_MOUSEOVER, '26(PS)')" onclick="clickZoom(evt); notifyOwner(AGV_OBJECT_MOUSECLICK, '26(PS)')" onmouseout="notifyOwner(AGV_OBJECT_MOUSEOUT, '26(PS)')" tooltip="#UNDEFINED" id="26-Graphic" objecttype="GRAPHIC">
<g>
	
		<polygon orgstroke="#000000" orgfill="#ffffff" stroke-linecap="round" points="   558.488,206.816 558.3,206.686 558.144,206.531 558.028,206.453 557.823,206.414 557.753,206.258 557.673,206.06 557.516,205.903    557.36,205.826 557.087,205.865 556.889,206.02 556.889,206.02 556.813,206.296 556.573,206.335 556.382,206.414 556.185,206.571    556.026,206.816 556.026,206.813 556.026,211.594 555.24,212.142 555.24,214.545 555.698,215.172 555.698,218.411 555.755,218.672    555.99,218.948 556.343,219.024 556.734,219.141 557.24,219.22 557.107,219.475 556.636,219.906 556.774,220.277 557.256,220.004    557.714,219.79 557.987,219.574 558.144,219.338 558.448,219.024 558.655,218.672 558.81,218.411 558.81,215.172 559.273,214.545    559.273,212.142 558.488,211.594 558.488,206.813  " fill="#ffffff" g2gfill="#ECF5E4" stroke-linejoin="round" outline-element="true" stroke="#000000" stroke-width="0.5" g2gstroke="#312783" stroke-miterlimit="10"/>
	<line orgstroke="#000000" orgfill="none" fill="none" x1="557.062" x2="557.062" y1="204.202" y2="207.361" stroke="#000000" g2gstroke="#312783" stroke-miterlimit="10"/>
	<path orgstroke="#000000" orgfill="none" fill="none" d="M557.564,213.107   c-0.104,0.009-0.213,0.014-0.321,0.014c-1.119,0-2.021-0.455-2.021-1.02" stroke="#000000" stroke-width="0.25" g2gstroke="#312783" stroke-miterlimit="10"/>
	<path orgstroke="#000000" orgfill="none" fill="none" d="M559.273,212.103   c0,0.38-0.418,0.711-1.032,0.889" stroke="#000000" stroke-width="0.25" g2gstroke="#312783" stroke-miterlimit="10"/>
	<path orgstroke="#000000" orgfill="none" fill="none" d="M559.273,214.316c0,0.563-0.909,1.02-2.029,1.02   c-1.104,0-2.021-0.454-2.021-1.02" stroke="#000000" stroke-width="0.25" g2gstroke="#312783" stroke-miterlimit="10"/>
	<path orgstroke="#000000" orgfill="none" fill="none" d="M558.323,206.825   c0,0.296-0.479,0.539-1.063,0.539c-0.604,0-1.073-0.241-1.073-0.539" stroke="#000000" stroke-width="0.25" g2gstroke="#312783" stroke-miterlimit="10"/>
	<path orgstroke="#000000" orgfill="none" fill="none" d="M558.323,211.461c0,0.298-0.479,0.54-1.063,0.54   c-0.604,0-1.073-0.229-1.073-0.54" stroke="#000000" stroke-width="0.25" g2gstroke="#312783" stroke-miterlimit="10"/>
	<path orgstroke="#000000" orgfill="none" fill="none" d="M558.726,215.622   c0,0.411-0.663,0.744-1.483,0.744c-0.813,0-1.479-0.333-1.479-0.744" stroke="#000000" stroke-width="0.25" g2gstroke="#312783" stroke-miterlimit="10"/>
	<path orgstroke="#000000" orgfill="none" fill="none" d="M558.726,216.367   c0,0.411-0.663,0.744-1.483,0.744c-0.813,0-1.479-0.333-1.479-0.744" stroke="#000000" stroke-width="0.25" g2gstroke="#312783" stroke-miterlimit="10"/>
	<path orgstroke="#000000" orgfill="none" fill="none" d="M558.726,217.11   c0,0.411-0.663,0.746-1.483,0.746c-0.813,0-1.479-0.334-1.479-0.746" stroke="#000000" stroke-width="0.25" g2gstroke="#312783" stroke-miterlimit="10"/>
	<path orgstroke="#000000" orgfill="none" fill="none" d="M558.726,217.856   c0,0.411-0.663,0.744-1.483,0.744c-0.813,0-1.479-0.333-1.479-0.744" stroke="#000000" stroke-width="0.25" g2gstroke="#312783" stroke-miterlimit="10"/>
	<polyline orgstroke="#000000" orgfill="none" stroke-linecap="round" points="   556.905,206.501 557.271,206.711 557.573,206.553  " fill="none" stroke="#000000" stroke-width="0.25" g2gstroke="#312783" stroke-miterlimit="10"/>
</g>
</g>
</g></svg>