<svg xmlns="http://www.w3.org/2000/svg" xmlns:xlink="http://www.w3.org/1999/xlink" xmlns:etg="http://www.eurotaxglass.com/etg/evd/" etg:dataTimestamp="1539068912893" contentScriptType="text/ecmascript" zoomAndPan="magnify" contentStyleType="text/css" id="Layer_1" enable-background="new 0 0 1841.891 1595.279" version="1.1" width="1841.891px" xml:space="preserve" preserveAspectRatio="xMidYMid meet" viewBox="0 0 1841.891 1595.279" height="1595.279px" x="0px" y="0px"><g xmlns="http://www.w3.org/2000/svg" objecttype="PS" tooltip="#UNDEFINED" id="31">
<g onmouseover="notifyOwner(AGV_OBJECT_MOUSEOVER, '31(PS)')" onclick="clickZoom(evt); notifyOwner(AGV_OBJECT_MOUSECLICK, '31(PS)')" onmouseout="notifyOwner(AGV_OBJECT_MOUSEOUT, '31(PS)')" tooltip="#UNDEFINED" id="31-Graphic" objecttype="GRAPHIC">
<g>
	<path orgstroke="#000000" orgfill="#ffffff" fill="#ffffff" g2gfill="#ECF5E4" stroke-linejoin="round" d="M593.343,209.895   l1.41,0.875l0.294,0.116l0.222,0.064l0.243-0.064l9.439-5.474v-0.298v-7.72l-0.097-0.264l-0.08-0.142l-0.146-0.14l-2.937-1.732   l-0.203-0.057l-0.22-0.095c-0.496-0.564-1.065-1.059-1.677-1.405c-1.085-0.625-2.058-0.682-2.688-0.255l-0.182,0.113l-8.32,4.833   l-2.053,1.188l-0.38,0.25c-0.487,0.312-0.782,0.898-0.782,1.728c0,1.178,0.592,2.556,1.493,3.688l0.15,0.262v0.319L586.74,206   l-1.12,2.602L566.533,250.7l-20.313,44.745l-0.284,0.033l-0.586,0.268l-0.533,0.372l-2.604,3.834l-0.106,0.695l0.053,0.957   l0.213,0.428l1.392,1.603l0.373,0.526l0.054,0.479l-0.16,0.801l-0.213,0.691l-2.504,3.889l-0.025,0.688l2.397,2.349l0.372-0.105   l0.313-0.215l3.77-3.719l0.572,0.152l0.373,0.104l1.116,0.693l0.746,0.104l0.532-0.269l3.09-3.408l0.319-0.588l0.054-0.426   l0.268-0.271l2.877-1.703l1.863-1.228l3.354-1.49l2.663-0.959l3.89-0.745l3.409-0.427l2.77,0.213l3.568,0.533l3.25,0.853   l4.102,1.651l2.29,1.117l1.689,0.836l1.385,0.853l1.347,1.67l1.649,2.024l1.758,2.715l1.705,3.091l1.917,3.25l1.604,3.567   l1.386,3.304l1.225,2.938l0.802,1.857l0.215,0.532l0.372,0.32l0.27,0.373l0.214,0.639l-0.159,0.69l-0.213,1.649l0.268,4.047   l0.216,1.177l0.428,0.642l1.063,0.426l1.063,0.16l1.172-0.319l0.745-0.528l0.642-1.117l0.214-1.229l-0.315-3.834l-0.479-1.226   l-0.587-0.746l-0.532-0.799l-0.213-0.434v-0.688l0.43-0.693l0.479-0.479l0.159-0.532l-0.104-0.373l-0.479-2.398l-0.799-2.021   l-1.276-2.771l-1.173-2.185l-2.346-2.823l-2.347-2.345l-2.396-2.557l-2.718-2.289l-3.409-2.139l-2.059-1.172l-0.817-0.797   l-2.078-1.865l-2.878-1.971l-3.89-1.917l-3.679-1.491l-3.354-1.226l-2.935-0.532l-3.519-0.32l-3.462,0.16l-2.664,0.105   l-2.979,0.688l-2.347,0.799l-3.036,1.278l-0.231-0.136l-0.114-0.067v-0.2l0.146-0.338l0.787-1.118l36.113-80.644l1.75-4.479   L593.343,209.895z" outline-element="true" stroke="#000000" stroke-width="0.5" g2gstroke="#312783" stroke-miterlimit="10"/>
	<path orgstroke="#000000" orgfill="none" fill="none" stroke-linejoin="round" d="M587.075,205.569   c0.472,0.502,0.989,0.938,1.552,1.259c1.51,0.871,2.785,0.633,3.239-0.461l0.185,0.022v2.09v0.438l0.117,0.248l0.476,0.294" stroke="#000000" stroke-width="0.25" g2gstroke="#312783" stroke-miterlimit="10"/>
	<polyline orgstroke="#000000" orgfill="none" points="546.155,295.893 545.302,297.704    545.09,298.825 545.031,299.677 545.196,300.474 545.463,301.01 550.47,305.536 550.843,305.749 551.428,305.642 551.531,305.161    551.428,304.415 551.642,301.759 552.013,300.474 552.653,298.931 553.719,296.852 554.752,295.389  " fill="none" stroke="#000000" stroke-width="0.25" g2gstroke="#312783" stroke-miterlimit="10"/>
	<polyline orgstroke="#000000" orgfill="none" points="552.281,300.474 553.24,301.913    553.931,302.872 554.406,304.05 554.571,304.844 554.518,306.013  " fill="none" stroke="#000000" stroke-width="0.25" g2gstroke="#312783" stroke-miterlimit="10"/>
	<polyline orgstroke="#000000" orgfill="none" points="553.24,302.497 553.448,303.726    553.448,304.948 553.293,305.802 552.6,306.813 550.783,308.677 550.15,308.89 549.405,308.844 548.492,308.784 548.072,308.356    544.344,304.415  " fill="none" stroke="#000000" stroke-width="0.25" g2gstroke="#312783" stroke-miterlimit="10"/>
	<polyline orgstroke="#000000" orgfill="none" points="547.552,308.341 544.184,311.767    543.698,311.872 543.385,311.659 541.781,310.224 541.49,309.719  " fill="none" stroke="#000000" stroke-width="0.25" g2gstroke="#312783" stroke-miterlimit="10"/>
	<polyline orgstroke="#000000" orgfill="none" points="610.357,327.604 609.435,328.528    608.576,329.097 607.656,329.238 606.948,329.167 605.813,328.675  " fill="none" stroke="#000000" stroke-width="0.25" g2gstroke="#312783" stroke-miterlimit="10"/>
	<polyline orgstroke="#000000" orgfill="none" points="607.02,330.942 607.866,332.01    608.44,332.86 609.506,333.144 610.357,333.073 610.781,332.647 611.068,331.8 610.82,330.677  " fill="none" stroke="#000000" stroke-width="0.25" g2gstroke="#312783" stroke-miterlimit="10"/>
	
		<line orgstroke="#000000" orgfill="none" fill="none" x1="592.049" x2="601.49" y1="200.595" y2="195.128" stroke="#000000" stroke-width="0.25" g2gstroke="#312783" stroke-miterlimit="10"/>
	
		<line orgstroke="#000000" orgfill="none" fill="none" x1="595.268" x2="604.715" y1="202.689" y2="197.22" stroke="#000000" stroke-width="0.25" g2gstroke="#312783" stroke-miterlimit="10"/>
	
		<line orgstroke="#000000" orgfill="none" fill="none" x1="592.049" x2="592.049" y1="200.595" y2="206.149" stroke="#000000" stroke-width="0.25" g2gstroke="#312783" stroke-miterlimit="10"/>
	<polyline orgstroke="#000000" orgfill="none" points="592.049,200.702 594.775,202.268    594.98,202.42 595.127,202.579 595.22,202.746 595.268,203.002 595.268,210.885  " fill="none" stroke="#000000" stroke-width="0.25" g2gstroke="#312783" stroke-miterlimit="10"/>
	<polyline orgstroke="#000000" orgfill="none" points="607.561,331.622 607.283,332.612    607.236,333.515 607.656,338.26 607.929,338.522 608.568,338.844 609.314,338.948 610.165,339.009 610.858,338.685    611.923,337.829  " fill="none" stroke="#000000" stroke-width="0.25" g2gstroke="#312783" stroke-miterlimit="10"/>
	<path orgstroke="#000000" orgfill="none" fill="none" d="M610.198,337.526   c-0.369,0.234-0.772,0.382-1.139,0.382c-0.716,0-0.962-0.582-0.548-1.296c0.413-0.721,1.33-1.299,2.046-1.299   c0.719,0,0.964,0.58,0.55,1.299" stroke="#000000" stroke-width="0.25" g2gstroke="#312783" stroke-miterlimit="10"/>
	<path orgstroke="#000000" orgfill="none" fill="none" d="M586.9,199.448   c0.507-0.003,1.1,0.167,1.729,0.531c1.529,0.887,2.836,2.646,3.27,4.292" stroke="#000000" stroke-width="0.25" g2gstroke="#312783" stroke-miterlimit="10"/>
	<path orgstroke="#000000" orgfill="none" fill="none" d="M588.091,198.55   c0.508-0.004,1.097,0.167,1.725,0.53c0.766,0.443,1.474,1.104,2.042,1.855" stroke="#000000" stroke-width="0.25" g2gstroke="#312783" stroke-miterlimit="10"/>
	<path orgstroke="#000000" orgfill="none" fill="none" d="M595.138,194.466   c0.508-0.004,1.097,0.167,1.727,0.53c0.321,0.188,0.631,0.409,0.928,0.662l0.03,0.261l-4.918,2.854l-0.507-0.068   c-0.279-0.234-0.574-0.446-0.879-0.621c-0.627-0.362-1.218-0.535-1.725-0.529" stroke="#000000" stroke-width="0.25" g2gstroke="#312783" stroke-miterlimit="10"/>
	<path orgstroke="#000000" orgfill="none" fill="none" d="M590.646,205.263   c0,1.317-1.074,1.771-2.396,1.013c-1.322-0.764-2.396-2.455-2.396-3.778c0-1.323,1.072-1.771,2.396-1.013   C589.572,202.251,590.646,203.941,590.646,205.263z" stroke="#000000" stroke-width="0.25" g2gstroke="#312783" stroke-miterlimit="10"/>
	
		<line orgstroke="#000000" orgfill="none" fill="none" x1="596.046" x2="589.406" y1="193.848" y2="197.69" stroke-linejoin="round" stroke="#000000" stroke-width="0.25" g2gstroke="#312783" stroke-miterlimit="10"/>
	<polyline orgstroke="#000000" orgfill="none" points="   555.816,302.429 557.759,301.276 559.617,300.052 562.978,298.558 564.985,297.895 566.807,297.613  " fill="none" stroke-linejoin="round" stroke="#000000" stroke-width="0.25" g2gstroke="#312783" stroke-miterlimit="10"/>
	<polyline orgstroke="#000000" orgfill="none" points="   555.17,301.138 557.115,299.985 558.981,298.76 562.406,297.287 565.156,296.482 566.339,296.399  " fill="none" stroke-linejoin="round" stroke="#000000" stroke-width="0.25" g2gstroke="#312783" stroke-miterlimit="10"/>
	<polyline orgstroke="#000000" orgfill="none" points="   554.176,299.903 556.115,298.749 557.986,297.524 561.215,296.087 564.113,295.383 565.343,295.326  " fill="none" stroke-linejoin="round" stroke="#000000" stroke-width="0.25" g2gstroke="#312783" stroke-miterlimit="10"/>
	<path orgstroke="#000000" orgfill="none" fill="none" d="M597.296,203.525   c0,0.195-0.159,0.448-0.356,0.561c-0.196,0.115-0.354,0.047-0.354-0.146c0-0.196,0.152-0.447,0.354-0.563   C597.135,203.259,597.296,203.326,597.296,203.525z" stroke="#000000" stroke-width="0.25" g2gstroke="#312783" stroke-miterlimit="10"/>
	<path orgstroke="#000000" orgfill="none" fill="none" d="M603.902,199.536   c0,0.196-0.159,0.448-0.354,0.563c-0.197,0.108-0.356,0.046-0.356-0.151c0-0.197,0.159-0.448,0.356-0.563   C603.74,199.271,603.902,199.34,603.902,199.536z" stroke="#000000" stroke-width="0.25" g2gstroke="#312783" stroke-miterlimit="10"/>
	<path orgstroke="#000000" orgfill="none" fill="none" d="M604.259,204.478c0,0.19-0.16,0.449-0.356,0.562   c-0.196,0.115-0.354,0.047-0.354-0.146c0-0.198,0.152-0.448,0.354-0.563C604.104,204.216,604.259,204.281,604.259,204.478z" stroke="#000000" stroke-width="0.25" g2gstroke="#312783" stroke-miterlimit="10"/>
	<path orgstroke="#000000" orgfill="none" fill="none" d="M597.296,208.462   c0,0.195-0.159,0.448-0.356,0.563c-0.196,0.115-0.354,0.047-0.354-0.15c0-0.19,0.152-0.441,0.354-0.563   C597.135,208.196,597.296,208.263,597.296,208.462z" stroke="#000000" stroke-width="0.25" g2gstroke="#312783" stroke-miterlimit="10"/>
	<polygon orgstroke="#000000" orgfill="none" points="544.576,307.599 545.698,308.45    545.728,308.608 545.615,308.771 544.104,310.474 543.97,310.448 543.032,309.781 542.958,309.567 544.263,307.704  " fill="none" stroke="#000000" stroke-width="0.25" g2gstroke="#312783" stroke-miterlimit="10"/>
	<path orgstroke="#000000" orgfill="none" fill="none" stroke-linejoin="round" d="M601.805,316.531   c0,0,4.04,6.528,5.215,11.896" stroke="#000000" stroke-width="0.25" g2gstroke="#312783" stroke-miterlimit="10"/>
	<path orgstroke="#000000" orgfill="none" fill="none" stroke-linejoin="round" d="M602.94,315.827   c0,0,4.038,6.533,5.215,11.896" stroke="#000000" stroke-width="0.25" g2gstroke="#312783" stroke-miterlimit="10"/>
	<path orgstroke="#000000" orgfill="none" fill="none" stroke-linejoin="round" d="M604.147,315.329   c0,0,4.04,6.529,5.215,11.896" stroke="#000000" stroke-width="0.25" g2gstroke="#312783" stroke-miterlimit="10"/>
</g>
</g>
</g></svg>