<svg xmlns="http://www.w3.org/2000/svg" xmlns:xlink="http://www.w3.org/1999/xlink" xmlns:etg="http://www.eurotaxglass.com/etg/evd/" etg:dataTimestamp="1539068912893" contentScriptType="text/ecmascript" zoomAndPan="magnify" contentStyleType="text/css" id="Layer_1" enable-background="new 0 0 1841.891 1595.279" version="1.1" width="1841.891px" xml:space="preserve" preserveAspectRatio="xMidYMid meet" viewBox="0 0 1841.891 1595.279" height="1595.279px" x="0px" y="0px"><g xmlns="http://www.w3.org/2000/svg" objecttype="PS" tooltip="#UNDEFINED" id="35">
<g onmouseover="notifyOwner(AGV_OBJECT_MOUSEOVER, '35(PS)')" transform="translate(229.0, -75.0) translate(20,20) " onclick="clickZoom(evt); notifyOwner(AGV_OBJECT_MOUSECLICK, '35(PS)')" onmouseout="notifyOwner(AGV_OBJECT_MOUSEOUT, '35(PS)')" tooltip="#UNDEFINED" id="35-Graphic" objecttype="GRAPHIC">
<g zvalue="26">
<g>
<path orgstroke="#000000" orgfill="#ffffff" transform="matrix(1 0 0 1 0 2)" fill="#ffffff" g2gfill="#ECC35D" d="M362.18499755859375 287.093994140625L358.7850036621094 284.9100036621094L357.8949890136719 284.4259948730469L356.8630065917969 284.2120056152344L355.6889953613281 284.1059875488281L354.8559875488281 284.4010009765625L354.20599365234375 285.0610046386719L353.59600830078125 286.09600830078125L352.9630126953125 287.7619934082031L351.9419860839844 291.07598876953125L350.9119873046875 296.7309875488281L349.281005859375 304.052001953125L347.89599609375 310.9909973144531L346.62799072265625 317.114013671875L345.6029968261719 321.60101318359375L344.4930114746094 324.9259948730469L343.593994140625 327.4150085449219L342.5159912109375 329.927001953125L341.97900390625 331.22198486328125L341.9289855957031 331.7669982910156L342.0710144042969 332.4779968261719L342.3909912109375 333.177001953125L342.9530029296875 333.489990234375L344.885986328125 334.0710144042969L345.8840026855469 334.1809997558594L347.47698974609375 333.8009948730469L347.8919982910156 333.31500244140625L349.1180114746094 331.6059875488281L351.0329895019531 328.2279968261719L352.41900634765625 326.2349853515625L352.92498779296875 325.74798583984375L353.7179870605469 325.5119934082031L354.6130065917969 325.4460144042969L356.29400634765625 325.0559997558594L357.2659912109375 324.8059997558594L358.00799560546875 323.85101318359375L358.43499755859375 322.28900146484375L360.1789855957031 314.06298828125L361.37298583984375 306.9540100097656L362.39599609375 298.69000244140625L362.9339904785156 293.70001220703125L363.01300048828125 289.8240051269531L363.0190124511719 288.65301513671875L362.7869873046875 287.95001220703125Z" stroke="#000000" outline-element="true" stroke-width="0.5" g2gstroke="#312783" stroke-miterlimit="10"/>
<path orgstroke="#000000" orgfill="none" transform="matrix(1 0 0 1 0 2)" fill="none" d="M349.4540100097656 307.9280090332031L348.7250061035156 311.5790100097656L347.4580078125 317.70098876953125L346.4330139160156 322.18798828125L345.322998046875 325.510009765625L344.42401123046875 328.010009765625L343.34600830078125 330.51300048828125L342.8089904785156 331.80999755859375L342.7590026855469 332.35400390625L342.8999938964844 333.06298828125" stroke="#000000" stroke-width="0.25" g2gstroke="#312783" stroke-miterlimit="10"/>
<path orgstroke="#000000" orgfill="none" transform="matrix(1 0 0 1 0 2)" fill="none" d="M357.7330017089844 284.5580139160156L356.85400390625 284.7120056152344L356.3070068359375 284.8370056152344L355.62799072265625 285.1470031738281L355.0360107421875 285.64898681640625L354.4649963378906 286.7449951171875L353.7929992675781 288.3500061035156L352.77301025390625 291.66400146484375L351.7409973144531 297.32000732421875L350.11199951171875 304.63800048828125" stroke="#000000" stroke-width="0.25" g2gstroke="#312783" stroke-miterlimit="10"/>
<path orgstroke="#000000" orgfill="none" transform="matrix(1 0 0 1 0 2)" fill="none" d="M352.1830139160156 300.572998046875L351.2969970703125 304.552001953125L349.90899658203125 311.4930114746094L348.64300537109375 317.614990234375L347.61700439453125 322.1029968261719L346.50799560546875 325.427001953125L345.6080017089844 327.92498779296875L344.531005859375 330.427001953125L343.9930114746094 331.7239990234375L343.9440002441406 332.2690124511719L343.9460144042969 332.7330017089844L343.9729919433594 333.10400390625L344.11700439453125 333.47900390625L344.3160095214844 333.6510009765625L344.6499938964844 333.8299865722656" stroke="#000000" stroke-width="0.25" g2gstroke="#312783" stroke-miterlimit="10"/>
<path orgstroke="#000000" orgfill="none" transform="matrix(1 0 0 1 0 2)" fill="none" d="M354.281005859375 290.5260009765625L353.95599365234375 291.5780029296875L353.218994140625 295.6300048828125" stroke="#000000" stroke-width="0.25" g2gstroke="#312783" stroke-miterlimit="10"/>
<path orgstroke="#000000" orgfill="none" transform="matrix(1 0 0 1 0 2)" fill="none" d="M358.4339904785156 284.8290100097656L357.9909973144531 284.82501220703125L357.6199951171875 284.8590087890625L357.1159973144531 285.0320129394531L356.14599609375 285.7300109863281L355.3919982910156 287.1300048828125L354.9779968261719 288.2640075683594L354.760986328125 288.9670104980469" stroke="#000000" stroke-width="0.25" g2gstroke="#312783" stroke-miterlimit="10"/>
</g>
</g>
</g>
</g></svg>