<svg xmlns="http://www.w3.org/2000/svg" xmlns:xlink="http://www.w3.org/1999/xlink" xmlns:etg="http://www.eurotaxglass.com/etg/evd/" etg:dataTimestamp="1539068912893" contentScriptType="text/ecmascript" zoomAndPan="magnify" contentStyleType="text/css" id="Layer_1" enable-background="new 0 0 1841.891 1595.279" version="1.1" width="1841.891px" xml:space="preserve" preserveAspectRatio="xMidYMid meet" viewBox="0 0 1841.891 1595.279" height="1595.279px" x="0px" y="0px"><g xmlns="http://www.w3.org/2000/svg" objecttype="PS" tooltip="#UNDEFINED" id="37">
<g onmouseover="notifyOwner(AGV_OBJECT_MOUSEOVER, '37(PS)')" transform="translate(-48.0, -9.0) translate(30.0, -11.0) translate(20,20) " onclick="clickZoom(evt); notifyOwner(AGV_OBJECT_MOUSECLICK, '37(PS)')" onmouseout="notifyOwner(AGV_OBJECT_MOUSEOUT, '37(PS)')" tooltip="#UNDEFINED" id="37-Graphic" objecttype="GRAPHIC">
<g zvalue="30">
<g>
<path orgstroke="#000000" orgfill="#ffffff" fill="#ffffff" g2gfill="#ECF5E4" stroke-linejoin="round" d="M593.343,209.895   l1.41,0.875l0.294,0.116l0.222,0.064l0.243-0.064l9.439-5.474v-0.298v-7.72l-0.097-0.264l-0.08-0.142l-0.146-0.14l-2.937-1.732   l-0.203-0.057l-0.22-0.095c-0.496-0.564-1.065-1.059-1.677-1.405c-1.085-0.625-2.058-0.682-2.688-0.255l-0.182,0.113l-8.32,4.833   l-2.053,1.188l-0.38,0.25c-0.487,0.312-0.782,0.898-0.782,1.728c0,1.178,0.592,2.556,1.493,3.688l0.15,0.262v0.319L586.74,206   l-1.12,2.602L566.533,250.7l-20.313,44.745l-0.284,0.033l-0.586,0.268l-0.533,0.372l-2.604,3.834l-0.106,0.695l0.053,0.957   l0.213,0.428l1.392,1.603l0.373,0.526l0.054,0.479l-0.16,0.801l-0.213,0.691l-2.504,3.889l-0.025,0.688l2.397,2.349l0.372-0.105   l0.313-0.215l3.77-3.719l0.572,0.152l0.373,0.104l1.116,0.693l0.746,0.104l0.532-0.269l3.09-3.408l0.319-0.588l0.054-0.426   l0.268-0.271l2.877-1.703l1.863-1.228l3.354-1.49l2.663-0.959l3.89-0.745l3.409-0.427l2.77,0.213l3.568,0.533l3.25,0.853   l4.102,1.651l2.29,1.117l1.689,0.836l1.385,0.853l1.347,1.67l1.649,2.024l1.758,2.715l1.705,3.091l1.917,3.25l1.604,3.567   l1.386,3.304l1.225,2.938l0.802,1.857l0.215,0.532l0.372,0.32l0.27,0.373l0.214,0.639l-0.159,0.69l-0.213,1.649l0.268,4.047   l0.216,1.177l0.428,0.642l1.063,0.426l1.063,0.16l1.172-0.319l0.745-0.528l0.642-1.117l0.214-1.229l-0.315-3.834l-0.479-1.226   l-0.587-0.746l-0.532-0.799l-0.213-0.434v-0.688l0.43-0.693l0.479-0.479l0.159-0.532l-0.104-0.373l-0.479-2.398l-0.799-2.021   l-1.276-2.771l-1.173-2.185l-2.346-2.823l-2.347-2.345l-2.396-2.557l-2.718-2.289l-3.409-2.139l-2.059-1.172l-0.817-0.797   l-2.078-1.865l-2.878-1.971l-3.89-1.917l-3.679-1.491l-3.354-1.226l-2.935-0.532l-3.519-0.32l-3.462,0.16l-2.664,0.105   l-2.979,0.688l-2.347,0.799l-3.036,1.278l-0.231-0.136l-0.114-0.067v-0.2l0.146-0.338l0.787-1.118l36.113-80.644l1.75-4.479   L593.343,209.895z" stroke="#000000" outline-element="true" stroke-width="0.5" g2gstroke="#312783" stroke-miterlimit="10"/>
<path orgstroke="#000000" orgfill="none" fill="none" stroke-linejoin="round" d="M587.075,205.569   c0.472,0.502,0.989,0.938,1.552,1.259c1.51,0.871,2.785,0.633,3.239-0.461l0.185,0.022v2.09v0.438l0.117,0.248l0.476,0.294" stroke="#000000" stroke-width="0.25" g2gstroke="#312783" stroke-miterlimit="10"/>
<path orgstroke="#000000" orgfill="none" fill="none" d="M546.155029296875 295.89300537109375L545.302001953125 297.7040100097656L545.0900268554688 298.82501220703125L545.031005859375 299.677001953125L545.1959838867188 300.4739990234375L545.4630126953125 301.010009765625L550.469970703125 305.5360107421875L550.843017578125 305.7489929199219L551.427978515625 305.6419982910156L551.531005859375 305.1610107421875L551.427978515625 304.4150085449219L551.6420288085938 301.7590026855469L552.0130004882812 300.4739990234375L552.6530151367188 298.9309997558594L553.718994140625 296.85198974609375L554.7520141601562 295.3890075683594" stroke="#000000" stroke-width="0.25" g2gstroke="#312783" stroke-miterlimit="10"/>
<path orgstroke="#000000" orgfill="none" fill="none" d="M552.281005859375 300.4739990234375L553.239990234375 301.9129943847656L553.9310302734375 302.87200927734375L554.406005859375 304.04998779296875L554.5709838867188 304.843994140625L554.5180053710938 306.01300048828125" stroke="#000000" stroke-width="0.25" g2gstroke="#312783" stroke-miterlimit="10"/>
<path orgstroke="#000000" orgfill="none" fill="none" d="M553.239990234375 302.49700927734375L553.447998046875 303.72601318359375L553.447998046875 304.947998046875L553.2930297851562 305.802001953125L552.5999755859375 306.81298828125L550.7830200195312 308.677001953125L550.1500244140625 308.8900146484375L549.405029296875 308.843994140625L548.4920043945312 308.78399658203125L548.072021484375 308.3559875488281L544.343994140625 304.4150085449219" stroke="#000000" stroke-width="0.25" g2gstroke="#312783" stroke-miterlimit="10"/>
<path orgstroke="#000000" orgfill="none" fill="none" d="M547.552001953125 308.34100341796875L544.1840209960938 311.7669982910156L543.697998046875 311.87200927734375L543.385009765625 311.65899658203125L541.781005859375 310.2239990234375L541.489990234375 309.718994140625" stroke="#000000" stroke-width="0.25" g2gstroke="#312783" stroke-miterlimit="10"/>
<path orgstroke="#000000" orgfill="none" fill="none" d="M610.3569946289062 327.60400390625L609.4349975585938 328.52801513671875L608.5759887695312 329.09698486328125L607.656005859375 329.2380065917969L606.947998046875 329.1669921875L605.81298828125 328.67498779296875" stroke="#000000" stroke-width="0.25" g2gstroke="#312783" stroke-miterlimit="10"/>
<path orgstroke="#000000" orgfill="none" fill="none" d="M607.02001953125 330.9419860839844L607.8660278320312 332.010009765625L608.4400024414062 332.8599853515625L609.5059814453125 333.1440124511719L610.3569946289062 333.072998046875L610.781005859375 332.6470031738281L611.0679931640625 331.79998779296875L610.8200073242188 330.677001953125" stroke="#000000" stroke-width="0.25" g2gstroke="#312783" stroke-miterlimit="10"/>
<path orgstroke="#000000" orgfill="none" fill="none" d="M592.0490112304688 200.59500122070312L601.489990234375 195.1280059814453" stroke="#000000" stroke-width="0.25" g2gstroke="#312783" stroke-miterlimit="10"/>
<path orgstroke="#000000" orgfill="none" fill="none" d="M595.2680053710938 202.68899536132812L604.7150268554688 197.22000122070312" stroke="#000000" stroke-width="0.25" g2gstroke="#312783" stroke-miterlimit="10"/>
<path orgstroke="#000000" orgfill="none" fill="none" d="M592.0490112304688 200.59500122070312L592.0490112304688 206.1490020751953" stroke="#000000" stroke-width="0.25" g2gstroke="#312783" stroke-miterlimit="10"/>
<path orgstroke="#000000" orgfill="none" fill="none" d="M592.0490112304688 200.70199584960938L594.7750244140625 202.26800537109375L594.97998046875 202.4199981689453L595.1270141601562 202.57899475097656L595.219970703125 202.74600219726562L595.2680053710938 203.0019989013672L595.2680053710938 210.88499450683594" stroke="#000000" stroke-width="0.25" g2gstroke="#312783" stroke-miterlimit="10"/>
<path orgstroke="#000000" orgfill="none" fill="none" d="M607.5609741210938 331.62200927734375L607.2830200195312 332.61199951171875L607.2360229492188 333.5150146484375L607.656005859375 338.260009765625L607.9290161132812 338.5220031738281L608.5679931640625 338.843994140625L609.3140258789062 338.947998046875L610.1649780273438 339.0090026855469L610.8579711914062 338.68499755859375L611.9229736328125 337.8290100097656" stroke="#000000" stroke-width="0.25" g2gstroke="#312783" stroke-miterlimit="10"/>
<path orgstroke="#000000" orgfill="none" fill="none" d="M610.198,337.526   c-0.369,0.234-0.772,0.382-1.139,0.382c-0.716,0-0.962-0.582-0.548-1.296c0.413-0.721,1.33-1.299,2.046-1.299   c0.719,0,0.964,0.58,0.55,1.299" stroke="#000000" stroke-width="0.25" g2gstroke="#312783" stroke-miterlimit="10"/>
<path orgstroke="#000000" orgfill="none" fill="none" d="M586.9,199.448   c0.507-0.003,1.1,0.167,1.729,0.531c1.529,0.887,2.836,2.646,3.27,4.292" stroke="#000000" stroke-width="0.25" g2gstroke="#312783" stroke-miterlimit="10"/>
<path orgstroke="#000000" orgfill="none" fill="none" d="M588.091,198.55   c0.508-0.004,1.097,0.167,1.725,0.53c0.766,0.443,1.474,1.104,2.042,1.855" stroke="#000000" stroke-width="0.25" g2gstroke="#312783" stroke-miterlimit="10"/>
<path orgstroke="#000000" orgfill="none" fill="none" d="M595.138,194.466   c0.508-0.004,1.097,0.167,1.727,0.53c0.321,0.188,0.631,0.409,0.928,0.662l0.03,0.261l-4.918,2.854l-0.507-0.068   c-0.279-0.234-0.574-0.446-0.879-0.621c-0.627-0.362-1.218-0.535-1.725-0.529" stroke="#000000" stroke-width="0.25" g2gstroke="#312783" stroke-miterlimit="10"/>
<path orgstroke="#000000" orgfill="none" fill="none" d="M590.646,205.263   c0,1.317-1.074,1.771-2.396,1.013c-1.322-0.764-2.396-2.455-2.396-3.778c0-1.323,1.072-1.771,2.396-1.013   C589.572,202.251,590.646,203.941,590.646,205.263z" stroke="#000000" stroke-width="0.25" g2gstroke="#312783" stroke-miterlimit="10"/>
<path orgstroke="#000000" orgfill="none" fill="none" stroke-linejoin="round" d="M596.0460205078125 193.84800720214844L589.406005859375 197.69000244140625" stroke="#000000" stroke-width="0.25" g2gstroke="#312783" stroke-miterlimit="10"/>
<path orgstroke="#000000" orgfill="none" fill="none" stroke-linejoin="round" d="M555.8159790039062 302.4289855957031L557.7589721679688 301.2760009765625L559.6170043945312 300.052001953125L562.97802734375 298.5580139160156L564.9849853515625 297.8949890136719L566.8070068359375 297.6130065917969" stroke="#000000" stroke-width="0.25" g2gstroke="#312783" stroke-miterlimit="10"/>
<path orgstroke="#000000" orgfill="none" fill="none" stroke-linejoin="round" d="M555.1699829101562 301.13800048828125L557.114990234375 299.9849853515625L558.9810180664062 298.760009765625L562.406005859375 297.2869873046875L565.156005859375 296.48199462890625L566.3389892578125 296.39898681640625" stroke="#000000" stroke-width="0.25" g2gstroke="#312783" stroke-miterlimit="10"/>
<path orgstroke="#000000" orgfill="none" fill="none" stroke-linejoin="round" d="M554.176025390625 299.90301513671875L556.114990234375 298.7489929199219L557.9860229492188 297.52398681640625L561.2150268554688 296.0870056152344L564.1129760742188 295.38299560546875L565.343017578125 295.32598876953125" stroke="#000000" stroke-width="0.25" g2gstroke="#312783" stroke-miterlimit="10"/>
<path orgstroke="#000000" orgfill="none" fill="none" d="M597.296,203.525   c0,0.195-0.159,0.448-0.356,0.561c-0.196,0.115-0.354,0.047-0.354-0.146c0-0.196,0.152-0.447,0.354-0.563   C597.135,203.259,597.296,203.326,597.296,203.525z" stroke="#000000" stroke-width="0.25" g2gstroke="#312783" stroke-miterlimit="10"/>
<path orgstroke="#000000" orgfill="none" fill="none" d="M603.902,199.536   c0,0.196-0.159,0.448-0.354,0.563c-0.197,0.108-0.356,0.046-0.356-0.151c0-0.197,0.159-0.448,0.356-0.563   C603.74,199.271,603.902,199.34,603.902,199.536z" stroke="#000000" stroke-width="0.25" g2gstroke="#312783" stroke-miterlimit="10"/>
<path orgstroke="#000000" orgfill="none" fill="none" d="M604.259,204.478c0,0.19-0.16,0.449-0.356,0.562   c-0.196,0.115-0.354,0.047-0.354-0.146c0-0.198,0.152-0.448,0.354-0.563C604.104,204.216,604.259,204.281,604.259,204.478z" stroke="#000000" stroke-width="0.25" g2gstroke="#312783" stroke-miterlimit="10"/>
<path orgstroke="#000000" orgfill="none" fill="none" d="M597.296,208.462   c0,0.195-0.159,0.448-0.356,0.563c-0.196,0.115-0.354,0.047-0.354-0.15c0-0.19,0.152-0.441,0.354-0.563   C597.135,208.196,597.296,208.263,597.296,208.462z" stroke="#000000" stroke-width="0.25" g2gstroke="#312783" stroke-miterlimit="10"/>
<path orgstroke="#000000" orgfill="none" fill="none" d="M544.5759887695312 307.5989990234375L545.697998046875 308.45001220703125L545.72802734375 308.6080017089844L545.614990234375 308.77099609375L544.10400390625 310.4739990234375L543.969970703125 310.447998046875L543.031982421875 309.781005859375L542.9580078125 309.5669860839844L544.2630004882812 307.7040100097656Z" stroke="#000000" stroke-width="0.25" g2gstroke="#312783" stroke-miterlimit="10"/>
<path orgstroke="#000000" orgfill="none" fill="none" stroke-linejoin="round" d="M601.805,316.531   c0,0,4.04,6.528,5.215,11.896" stroke="#000000" stroke-width="0.25" g2gstroke="#312783" stroke-miterlimit="10"/>
<path orgstroke="#000000" orgfill="none" fill="none" stroke-linejoin="round" d="M602.94,315.827   c0,0,4.038,6.533,5.215,11.896" stroke="#000000" stroke-width="0.25" g2gstroke="#312783" stroke-miterlimit="10"/>
<path orgstroke="#000000" orgfill="none" fill="none" stroke-linejoin="round" d="M604.147,315.329   c0,0,4.04,6.529,5.215,11.896" stroke="#000000" stroke-width="0.25" g2gstroke="#312783" stroke-miterlimit="10"/>
</g>
</g>
</g>
</g></svg>