<svg xmlns="http://www.w3.org/2000/svg" xmlns:xlink="http://www.w3.org/1999/xlink" xmlns:etg="http://www.eurotaxglass.com/etg/evd/" etg:dataTimestamp="1539068912893" contentScriptType="text/ecmascript" zoomAndPan="magnify" contentStyleType="text/css" id="Layer_1" enable-background="new 0 0 1841.891 1595.279" version="1.1" width="1841.891px" xml:space="preserve" preserveAspectRatio="xMidYMid meet" viewBox="0 0 1841.891 1595.279" height="1595.279px" x="0px" y="0px"><g xmlns="http://www.w3.org/2000/svg" objecttype="PS" tooltip="#UNDEFINED" id="60">
<g onmouseover="notifyOwner(AGV_OBJECT_MOUSEOVER, '60(PS)')" onclick="clickZoom(evt); notifyOwner(AGV_OBJECT_MOUSECLICK, '60(PS)')" onmouseout="notifyOwner(AGV_OBJECT_MOUSEOUT, '60(PS)')" tooltip="#UNDEFINED" id="60-Graphic" objecttype="GRAPHIC">
<g>
	<path orgstroke="#000000" orgfill="#ffffff" fill="#ffffff" g2gfill="#ECF5E4" d="M378.434,286.449l-0.574-0.227l-0.229-0.144   l-0.423-0.472l-0.245-0.406l-0.32-0.479l-0.259-0.417l-0.196-0.063l-0.103,0.01l-0.237,0.085l-0.348,0.092l-0.588,0.188   l-0.781,0.021l-0.593-0.13l-0.79-0.305l0.042,0.021c-1.056-0.507-1.768-1.624-1.921-3.285c-0.354-3.712,2.211-8.771,5.732-11.274   c2.03-1.438,3.929-1.729,5.247-0.986l0.514,0.354l0.521,0.626l0.318,0.484l0.034,0.185l0.144,0.054l0.188-0.019l0.847-0.217   l0.936-0.066l0.708-0.004l0.626,0.217l0.373,0.179l0.677,0.542c0.969,0.54,1.617,1.627,1.771,3.203   c0.352,3.729-2.223,8.77-5.741,11.274c-1.682,1.192-3.273,1.594-4.521,1.284L378.434,286.449z" outline-element="true" stroke="#000000" stroke-width="0.5" g2gstroke="#312783" stroke-miterlimit="10"/>
	<path orgstroke="#000000" orgfill="none" fill="none" d="M379.894,274.509   c0.77-0.965,1.646-1.819,2.589-2.491c1.786-1.265,3.47-1.638,4.729-1.221" stroke="#000000" stroke-width="0.25" g2gstroke="#312783" stroke-miterlimit="10"/>
	<path orgstroke="#000000" orgfill="none" fill="none" d="M377.702,278.186   c0.384-0.901,0.857-1.788,1.42-2.626" stroke="#000000" stroke-width="0.25" g2gstroke="#312783" stroke-miterlimit="10"/>
	<path orgstroke="#000000" orgfill="none" fill="none" d="M378.667,286.574   c-1.057-0.509-1.766-1.623-1.919-3.283c-0.104-1.06,0.03-2.215,0.354-3.391" stroke="#000000" stroke-width="0.25" g2gstroke="#312783" stroke-miterlimit="10"/>
	<path orgstroke="#000000" orgfill="none" fill="none" d="M377.99,286.03   c-1.051-0.509-1.762-1.625-1.919-3.283c-0.352-3.726,2.222-8.77,5.735-11.271c2.032-1.443,3.933-1.732,5.247-0.992" stroke="#000000" stroke-width="0.25" g2gstroke="#312783" stroke-miterlimit="10"/>
	<path orgstroke="#000000" orgfill="none" fill="none" d="M374.333,273.07   c0.875-1.213,1.916-2.294,3.058-3.104c1.372-0.975,2.692-1.421,3.797-1.378" stroke="#000000" stroke-width="0.25" g2gstroke="#312783" stroke-miterlimit="10"/>
	<path orgstroke="#000000" orgfill="none" fill="none" d="M372.646,276.045   c0.268-0.611,0.578-1.204,0.924-1.808" stroke="#000000" stroke-width="0.25" g2gstroke="#312783" stroke-miterlimit="10"/>
	<path orgstroke="#000000" orgfill="none" fill="none" d="M373.571,284.526   c-1.052-0.507-1.762-1.622-1.919-3.283c-0.107-1.182,0.072-2.496,0.492-3.832" stroke="#000000" stroke-width="0.25" g2gstroke="#312783" stroke-miterlimit="10"/>
	<path orgstroke="#000000" orgfill="none" fill="none" d="M375.233,282.692   c-0.763-0.365-1.274-1.176-1.392-2.378c-0.254-2.696,1.604-6.354,4.157-8.167c1.472-1.038,2.85-1.25,3.801-0.714" stroke="#000000" stroke-width="0.25" g2gstroke="#312783" stroke-miterlimit="10"/>
	<path orgstroke="#000000" orgfill="none" fill="none" d="M375.554,282.73   c-0.44-0.44-0.71-1.094-0.792-1.955c-0.255-2.697,1.607-6.357,4.158-8.156c1.024-0.729,1.884-1.078,2.708-1.03" stroke="#000000" stroke-width="0.25" g2gstroke="#312783" stroke-miterlimit="10"/>
	<path orgstroke="#000000" orgfill="none" fill="none" d="M376.156,283.164   c-0.222-0.106-0.426-0.256-0.601-0.424" stroke="#000000" stroke-width="0.25" g2gstroke="#312783" stroke-miterlimit="10"/>
	<path orgstroke="#000000" orgfill="none" fill="none" d="M376.135,283.181   c-0.417-0.443-0.689-1.086-0.768-1.918c-0.259-2.697,1.604-6.354,4.154-8.168c0.493-0.354,0.612-0.456,1.071-0.625" stroke="#000000" stroke-width="0.25" g2gstroke="#312783" stroke-miterlimit="10"/>
	<path orgstroke="#000000" orgfill="none" fill="none" d="M384.896,280.021   c-0.347,0.545-0.783,1.033-1.272,1.383c-1.246,0.893-2.355,0.536-2.48-0.786c-0.125-1.324,0.773-3.11,2.028-3.998   c1.25-0.893,2.358-0.539,2.484,0.787c0.053,0.52-0.059,1.087-0.28,1.657" stroke="#000000" stroke-width="0.25" g2gstroke="#312783" stroke-miterlimit="10"/>
	<path orgstroke="#000000" orgfill="none" fill="none" d="M388.557,274.923   c0.304,3.21-1.905,7.526-4.926,9.664c-3.021,2.148-5.71,1.293-6.012-1.896c-0.306-3.196,1.899-7.521,4.921-9.651   C385.561,270.88,388.256,271.725,388.557,274.923z" stroke="#000000" stroke-width="0.25" g2gstroke="#312783" stroke-miterlimit="10"/>
	<path orgstroke="#000000" orgfill="none" fill="none" d="M384.501,276.316   c0.06,0.139,0.094,0.334,0.109,0.536c0.124,1.307-0.771,3.104-2.024,3.998c-0.344,0.238-0.677,0.377-0.984,0.443" stroke="#000000" stroke-width="0.25" g2gstroke="#312783" stroke-miterlimit="10"/>
	
		<line orgstroke="#000000" orgfill="none" fill="none" x1="375.233" x2="376.156" y1="282.692" y2="283.164" stroke="#000000" stroke-width="0.25" g2gstroke="#312783" stroke-miterlimit="10"/>
</g>
</g>
</g></svg>