<svg xmlns="http://www.w3.org/2000/svg" xmlns:xlink="http://www.w3.org/1999/xlink" xmlns:etg="http://www.eurotaxglass.com/etg/evd/" etg:dataTimestamp="1539068912893" contentScriptType="text/ecmascript" zoomAndPan="magnify" contentStyleType="text/css" id="Layer_1" enable-background="new 0 0 1841.891 1595.279" version="1.1" width="1841.891px" xml:space="preserve" preserveAspectRatio="xMidYMid meet" viewBox="0 0 1841.891 1595.279" height="1595.279px" x="0px" y="0px"><g xmlns="http://www.w3.org/2000/svg" objecttype="PS" tooltip="#UNDEFINED" id="2">
<g onmouseover="notifyOwner(AGV_OBJECT_MOUSEOVER, '2(PS)')" onclick="clickZoom(evt); notifyOwner(AGV_OBJECT_MOUSECLICK, '2(PS)')" onmouseout="notifyOwner(AGV_OBJECT_MOUSEOUT, '2(PS)')" tooltip="#UNDEFINED" id="2-Graphic" objecttype="GRAPHIC">
<g>
	<g id="1::XMLID_5_">
		<g>
			<path orgstroke="#000000" orgfill="#ffffff" fill="#ffffff" g2gfill="#787878" d="M547.79,132.603     c27.146,0,49.17,22.02,49.17,49.17c0,27.146-22.021,49.169-49.17,49.169c-27.15,0-49.176-22.021-49.176-49.169     C498.614,154.622,520.639,132.603,547.79,132.603z M588.758,184.391l-0.17-0.14l-24.17,0.58c-3.896,0.619-1.07,3.271-1.07,3.271     l19.121,14.72h0.25c1.699-2.729,3.1-5.689,4.141-8.88C587.889,190.782,588.519,187.572,588.758,184.391z M587.96,174.261     l0.18-0.22c-0.648-3.721-1.811-7.271-3.391-10.57l-0.289-0.13l-19,7.09l-0.33,0.33c-0.41,4.069,0.119,5.75,3.09,8.604     l0.479,0.104L587.96,174.261z M579.081,154.862l0.063-0.24c-2.061-2.449-4.449-4.699-7.158-6.67c-2.694-1.97-5.551-3.55-8.5-4.76     l-0.188,0.12l-6.898,23.17c-0.604,3.89,2.779,2.023,2.779,2.023L579.081,154.862z M576.13,210.471l-12.631-15.79l-0.25-0.146     c-4.16,0.82-5.66,1.761-7.479,5.34l-0.031,0.391l11.07,16.896l0.354,0.131c3.27-1.761,6.27-3.949,8.93-6.489L576.13,210.471z      M557.54,220.913l-8.07-22.8c-1.789-3.5-3.43,0-3.43,0l-8.056,22.75l0.078,0.24c3.109,0.76,6.371,1.17,9.728,1.17     c3.324,0,6.563-0.398,9.67-1.16L557.54,220.913z M552.609,160.923l0.988-20.09l-0.299-0.261c-1.802-0.239-3.646-0.37-5.511-0.37     c-1.896,0-3.739,0.131-5.563,0.381l-0.131,0.25l0.93,20.279l0.16,0.3c3.791,1.7,5.563,1.729,9.221-0.22L552.609,160.923z      M539.969,200.103l-0.08-0.32c-2.051-3.521-3.479-4.563-7.541-5.12l-0.17,0.16l-12.459,15.813l-0.07,0.307     c2.604,2.46,5.521,4.591,8.699,6.301l0.471-0.141L539.969,200.103z M536.501,168.431c3.5,1.78,2.772-2.021,2.772-2.021     l-6.801-23.149l-0.209-0.141c-2.971,1.2-5.854,2.78-8.563,4.74c-2.699,1.95-5.095,4.181-7.158,6.604l0.061,0.211L536.501,168.431     z M532.258,188.154c2.75-2.813-1.09-3.26-1.09-3.26l-24.129-0.4l-0.201,0.15c0.271,3.193,0.91,6.403,1.979,9.59     c1.063,3.16,2.478,6.101,4.17,8.8l0.228,0.011L532.258,188.154z M527.338,179.654c3-3.25,3.631-4.896,2.896-9.09l-0.26-0.271     l-18.871-7.21l-0.18,0.189c-1.684,3.443-2.896,7.18-3.541,11.09l0.107,0.188l19.604,5.149L527.338,179.654z" outline-element="true" stroke="#000000" stroke-width="0.5" g2gstroke="#312783" stroke-miterlimit="10"/>
		</g>
		<g>
			<path orgstroke="#000000" orgfill="none" fill="none" d="M596.96,181.774c0,27.146-22.021,49.169-49.17,49.169     c-27.15,0-49.17-22.021-49.17-49.169c0-27.149,22.02-49.17,49.17-49.17C574.937,132.604,596.96,154.622,596.96,181.774z" outline-element="true" stroke="#000000" stroke-width="0.5" g2gstroke="#312783"/>
			<path orgstroke="#000000" orgfill="none" fill="none" stroke-linejoin="round" d="M537.985,220.862l8.056-22.75     c0,0,1.641-3.5,3.43,0l8.07,22.8l-0.08,0.199c-3.104,0.761-6.347,1.16-9.67,1.16c-3.354,0-6.609-0.41-9.728-1.177     L537.985,220.862z" outline-element="true" stroke="#000000" stroke-width="0.5" g2gstroke="#312783"/>
			<path orgstroke="#000000" orgfill="none" fill="none" stroke-linejoin="round" d="M582.469,202.822l-19.121-14.72     c0,0-2.818-2.65,1.07-3.271l24.17-0.579l0.17,0.146c-0.238,3.18-0.869,6.39-1.898,9.55c-1.041,3.188-2.438,6.146-4.141,8.88     L582.469,202.822L582.469,202.822z" outline-element="true" stroke="#000000" stroke-width="0.5" g2gstroke="#312783"/>
			<path orgstroke="#000000" orgfill="none" fill="none" stroke-linejoin="round" d="M579.081,154.862l-19.9,13.646     c0,0-3.391,1.859-2.779-2.023l6.898-23.17l0.188-0.12c2.949,1.21,5.806,2.79,8.5,4.76c2.709,1.971,5.104,4.221,7.158,6.67     L579.081,154.862z" outline-element="true" stroke="#000000" stroke-width="0.5" g2gstroke="#312783"/>
			<path orgstroke="#000000" orgfill="none" fill="none" stroke-linejoin="round" d="M532.478,143.261l6.801,23.149     c0,0,0.728,3.801-2.772,2.021l-19.896-13.75l-0.061-0.21c2.065-2.43,4.459-4.653,7.16-6.604c2.709-1.96,5.59-3.54,8.561-4.74     L532.478,143.261z" outline-element="true" stroke="#000000" stroke-width="0.5" g2gstroke="#312783"/>
			<path orgstroke="#000000" orgfill="none" fill="none" stroke-linejoin="round" d="M507.04,184.492l24.131,0.396     c0,0,3.84,0.45,1.09,3.267l-19.051,14.891l-0.226-0.011c-1.694-2.7-3.104-5.646-4.172-8.8c-1.063-3.187-1.709-6.396-1.979-9.595     L507.04,184.492z" outline-element="true" stroke="#000000" stroke-width="0.5" g2gstroke="#312783"/>
			<path orgstroke="#000000" orgfill="none" fill="none" stroke-linejoin="round" d="M530.235,170.563     c0.729,4.193,0.104,5.84-2.896,9.09l-0.24,0.05l-19.6-5.149l-0.111-0.188c0.65-3.91,1.861-7.646,3.541-11.09l0.18-0.189     l18.871,7.21L530.235,170.563z" outline-element="true" stroke="#000000" stroke-width="0.5" g2gstroke="#312783"/>
			<path orgstroke="#000000" orgfill="none" fill="none" stroke-linejoin="round" d="M528.348,217.243     c-3.18-1.71-6.1-3.841-8.699-6.301l0.07-0.307l12.459-15.813l0.17-0.16c4.063,0.561,5.49,1.601,7.541,5.12l0.08,0.32l-11.15,17     L528.348,217.243z" outline-element="true" stroke="#000000" stroke-width="0.5" g2gstroke="#312783"/>
			<path orgstroke="#000000" orgfill="none" fill="none" stroke-linejoin="round" d="M555.769,199.872     c1.818-3.579,3.318-4.52,7.479-5.34l0.25,0.146l12.631,15.79l-0.041,0.32c-2.66,2.54-5.66,4.729-8.937,6.489l-0.352-0.131     l-11.068-16.896L555.769,199.872z" outline-element="true" stroke="#000000" stroke-width="0.5" g2gstroke="#312783"/>
			<path orgstroke="#000000" orgfill="none" fill="none" stroke-linejoin="round" d="M568.694,179.471l19.267-5.21l0.18-0.22     c-0.648-3.721-1.81-7.271-3.389-10.57l-0.291-0.13l-19,7.09l-0.33,0.33c-0.41,4.069,0.121,5.75,3.09,8.604L568.694,179.471z" outline-element="true" stroke="#000000" stroke-width="0.5" g2gstroke="#312783"/>
			<path orgstroke="#000000" orgfill="none" fill="none" stroke-linejoin="round" d="M553.299,140.572     c-1.801-0.24-3.646-0.37-5.51-0.37c-1.896,0-3.74,0.131-5.563,0.381l-0.131,0.25l0.93,20.279l0.16,0.3     c3.791,1.7,5.563,1.729,9.221-0.22l0.199-0.271l0.99-20.091L553.299,140.572z" outline-element="true" stroke="#000000" stroke-width="0.5" g2gstroke="#312783"/>
		</g>
	</g>
	<g id="1::XMLID_17_">
		<g>
			
				<radialGradient gradientTransform="matrix(1 0 0 1 0.7798 595.1768)" gradientUnits="userSpaceOnUse" xmlns:xlink="http://www.w3.org/1999/xlink" xlink:type="simple" cx="546.9709" r="49.1707" xlink:actuate="onLoad" id="1::SVGID_29_" cy="-413.6804" xlink:show="other">
				<stop stop-opacity="0" stop-color="#FFFFFF" offset="0.0788"/>
				<stop stop-opacity="0.4" stop-color="#FFFFFF" offset="0.1818"/>
				<stop stop-opacity="0" stop-color="#FFFFFF" offset="0.5818"/>
				<stop stop-opacity="0.4" stop-color="#FFFFFF" offset="0.9697"/>
				<stop stop-opacity="0.8" stop-color="#FFFFFF" offset="1"/>
			</radialGradient>
			<path orgstroke="#000000" orgfill="url(#1::SVGID_29_)" fill="url(#1::SVGID_29_)" d="M547.752,132.327     c27.146,0,49.17,22.02,49.17,49.17c0,27.146-22.021,49.169-49.17,49.169c-27.15,0-49.174-22.021-49.174-49.169     C498.575,154.345,520.601,132.327,547.752,132.327z M588.72,184.115l-0.17-0.142l-24.17,0.58c-3.896,0.619-1.07,3.271-1.07,3.271     l19.121,14.72h0.25c1.699-2.729,3.1-5.688,4.141-8.88C587.851,190.506,588.481,187.296,588.72,184.115z M587.922,173.985     l0.18-0.222c-0.648-3.721-1.811-7.271-3.391-10.568l-0.289-0.13l-19,7.09l-0.33,0.33c-0.41,4.067,0.119,5.75,3.09,8.604     l0.479,0.105L587.922,173.985z M579.043,154.586l0.063-0.24c-2.061-2.447-4.449-4.697-7.158-6.67     c-2.694-1.97-5.551-3.55-8.5-4.76l-0.188,0.12l-6.898,23.17c-0.604,3.89,2.779,2.025,2.779,2.025L579.043,154.586z      M576.092,210.195l-12.631-15.79l-0.25-0.146c-4.16,0.82-5.66,1.763-7.479,5.34l-0.031,0.393l11.07,16.895l0.354,0.131     c3.27-1.761,6.27-3.947,8.93-6.487L576.092,210.195z M557.502,220.636l-8.07-22.8c-1.789-3.5-3.43,0-3.43,0l-8.056,22.75     l0.078,0.24c3.109,0.76,6.371,1.17,9.728,1.17c3.326,0,6.563-0.398,9.67-1.16L557.502,220.636z M552.569,160.646l0.988-20.092     l-0.299-0.261c-1.802-0.239-3.646-0.37-5.511-0.37c-1.896,0-3.739,0.131-5.563,0.381l-0.131,0.25l0.93,20.279l0.16,0.3     c3.791,1.7,5.563,1.729,9.221-0.22L552.569,160.646z M539.931,199.827l-0.08-0.32c-2.051-3.521-3.479-4.563-7.541-5.12     l-0.17,0.16l-12.459,15.815l-0.07,0.305c2.604,2.46,5.521,4.591,8.699,6.301l0.471-0.141L539.931,199.827z M536.463,168.155     c3.5,1.78,2.772-2.021,2.772-2.021l-6.801-23.147l-0.209-0.143c-2.971,1.2-5.852,2.78-8.561,4.74     c-2.701,1.95-5.097,4.181-7.16,6.605l0.061,0.211L536.463,168.155z M532.22,187.878c2.75-2.813-1.09-3.26-1.09-3.26l-24.129-0.4     l-0.201,0.15c0.271,3.195,0.91,6.405,1.979,9.59c1.063,3.16,2.478,6.103,4.17,8.8l0.228,0.013L532.22,187.878z M527.3,179.378     c3-3.25,3.631-4.895,2.896-9.09l-0.26-0.271l-18.871-7.21l-0.18,0.189c-1.684,3.445-2.896,7.18-3.541,11.09l0.109,0.188     l19.602,5.147L527.3,179.378z" outline-element="true" stroke="#000000" stroke-width="0.5" g2gstroke="#312783" stroke-miterlimit="10"/>
		</g>
	</g>
	<circle orgstroke="#000000" orgfill="none" fill="none" r="46" cx="547.79" cy="181.775" stroke="#000000" stroke-width="0.25" g2gstroke="#312783"/>
	<line orgstroke="#000000" orgfill="none" fill="none" x1="566.971" x2="570.026" y1="217.4" y2="222.063" stroke="#000000" stroke-width="0.25" g2gstroke="#312783"/>
	<path orgstroke="#000000" orgfill="none" fill="none" d="M539.967,200.1l4.072-6.215c0,0,3.625-5.63,7.52,0l3.975,6.063" stroke="#000000" stroke-width="0.25" g2gstroke="#312783"/>
	<line orgstroke="#000000" orgfill="none" fill="none" x1="525.568" x2="528.818" y1="222.063" y2="217.103" stroke="#000000" stroke-width="0.25" g2gstroke="#312783"/>
	<line orgstroke="#000000" orgfill="none" fill="none" x1="536.078" x2="537.849" y1="226.271" y2="221.259" stroke="#000000" stroke-width="0.25" g2gstroke="#312783"/>
	<line orgstroke="#000000" orgfill="none" fill="none" x1="559.435" x2="557.635" y1="226.271" y2="221.18" stroke="#000000" stroke-width="0.25" g2gstroke="#312783"/>
	<line orgstroke="#000000" orgfill="none" fill="none" x1="588.29" x2="592.935" y1="174.171" y2="172.913" stroke="#000000" stroke-width="0.25" g2gstroke="#312783"/>
	<path orgstroke="#000000" orgfill="none" fill="none" d="M563.359,194.507l-4.646-5.813c0,0-4.229-5.194,2.336-7.146l7.348-1.986   " stroke="#000000" stroke-width="0.25" g2gstroke="#312783"/>
	<line orgstroke="#000000" orgfill="none" fill="none" x1="579.751" x2="576.381" y1="214.998" y2="210.787" stroke="#000000" stroke-width="0.25" g2gstroke="#312783"/>
	<line orgstroke="#000000" orgfill="none" fill="none" x1="586.859" x2="582.803" y1="206.057" y2="203.078" stroke="#000000" stroke-width="0.25" g2gstroke="#312783"/>
	<line orgstroke="#000000" orgfill="none" fill="none" x1="593.79" x2="588.878" y1="184.118" y2="184.248" stroke="#000000" stroke-width="0.25" g2gstroke="#312783"/>
	<line orgstroke="#000000" orgfill="none" fill="none" x1="553.609" x2="553.833" y1="140.612" y2="136.168" stroke="#000000" stroke-width="0.25" g2gstroke="#312783"/>
	<path orgstroke="#000000" orgfill="none" fill="none" d="M565.139,170.552l-6.834,2.557c0,0-6.244,2.417-6.078-4.434l0.367-7.397   " stroke="#000000" stroke-width="0.25" g2gstroke="#312783"/>
	<line orgstroke="#000000" orgfill="none" fill="none" x1="589.139" x2="584.73" y1="161.595" y2="163.241" stroke="#000000" stroke-width="0.25" g2gstroke="#312783"/>
	<line orgstroke="#000000" orgfill="none" fill="none" x1="583.151" x2="579.426" y1="152.063" y2="154.621" stroke="#000000" stroke-width="0.25" g2gstroke="#312783"/>
	<line orgstroke="#000000" orgfill="none" fill="none" x1="564.603" x2="563.387" y1="138.945" y2="143.036" stroke="#000000" stroke-width="0.25" g2gstroke="#312783"/>
	<line orgstroke="#000000" orgfill="none" fill="none" x1="511.107" x2="506.622" y1="163.086" y2="161.373" stroke="#000000" stroke-width="0.25" g2gstroke="#312783"/>
	<path orgstroke="#000000" orgfill="none" fill="none" d="M543.042,161.363l0.381,8.231c0,0,0.313,5.764-6.136,3.479l-7.313-2.79" stroke="#000000" stroke-width="0.25" g2gstroke="#312783"/>
	<line orgstroke="#000000" orgfill="none" fill="none" x1="541.88" x2="542.087" y1="136.168" y2="140.645" stroke="#000000" stroke-width="0.25" g2gstroke="#312783"/>
	<line orgstroke="#000000" orgfill="none" fill="none" x1="531.182" x2="532.357" y1="138.863" y2="142.862" stroke="#000000" stroke-width="0.25" g2gstroke="#312783"/>
	<line orgstroke="#000000" orgfill="none" fill="none" x1="512.724" x2="516.372" y1="151.999" y2="154.516" stroke="#000000" stroke-width="0.25" g2gstroke="#312783"/>
	<line orgstroke="#000000" orgfill="none" fill="none" x1="519.715" x2="516.085" y1="210.641" y2="215.25" stroke="#000000" stroke-width="0.25" g2gstroke="#312783"/>
	<path orgstroke="#000000" orgfill="none" fill="none" d="M527.099,179.702l7.443,1.955c0,0,6.483,1.646,2.389,7.128l-4.754,6.036   " stroke="#000000" stroke-width="0.25" g2gstroke="#312783"/>
	<line orgstroke="#000000" orgfill="none" fill="none" x1="502.571" x2="507.501" y1="173.26" y2="174.553" stroke="#000000" stroke-width="0.25" g2gstroke="#312783"/>
	<line orgstroke="#000000" orgfill="none" fill="none" x1="501.79" x2="506.622" y1="184.398" y2="184.486" stroke="#000000" stroke-width="0.25" g2gstroke="#312783"/>
	<line orgstroke="#000000" orgfill="none" fill="none" x1="508.73" x2="512.982" y1="206.545" y2="203.219" stroke="#000000" stroke-width="0.25" g2gstroke="#312783"/>
	
		<radialGradient gradientTransform="matrix(1 0 0 1 0.7798 595.1768)" gradientUnits="userSpaceOnUse" xmlns:xlink="http://www.w3.org/1999/xlink" xlink:type="simple" cx="547.01" r="7.8127" xlink:actuate="onLoad" id="1::SVGID_30_" cy="-414.0037" xlink:show="other">
		<stop stop-color="#E5E2DF" offset="0"/>
		<stop stop-color="#F1EFEE" offset="0"/>
		<stop stop-color="#FFFFFF" offset="0"/>
		<stop stop-color="#F0F0F1" offset="0.1259"/>
		<stop stop-color="#C9CACB" offset="0.3664"/>
		<stop stop-color="#ADAEB0" offset="0.5225"/>
		<stop stop-color="#A3A5A7" offset="0.6029"/>
		<stop stop-color="#898D90" offset="0.7382"/>
		<stop stop-color="#5F6769" offset="0.9108"/>
		<stop stop-color="#465053" offset="1"/>
	</radialGradient>
	<circle orgstroke="#000000" orgfill="url(#1::SVGID_30_)" fill="url(#1::SVGID_30_)" r="7.813" cx="547.79" cy="181.173" stroke="#000000" stroke-width="0.25" g2gstroke="#312783"/>
	
		<radialGradient gradientTransform="matrix(1 0 0 1 0.7798 595.1768)" gradientUnits="userSpaceOnUse" xmlns:xlink="http://www.w3.org/1999/xlink" xlink:type="simple" cx="534.2776" r="3.209" xlink:actuate="onLoad" id="1::SVGID_31_" cy="-418.1067" xlink:show="other">
		<stop stop-color="#E5E2DF" offset="0"/>
		<stop stop-color="#F1EFEE" offset="0"/>
		<stop stop-color="#FFFFFF" offset="0"/>
		<stop stop-color="#F0F0F1" offset="0.1259"/>
		<stop stop-color="#C9CACB" offset="0.3664"/>
		<stop stop-color="#ADAEB0" offset="0.5225"/>
		<stop stop-color="#A3A5A7" offset="0.6029"/>
		<stop stop-color="#898D90" offset="0.7382"/>
		<stop stop-color="#5F6769" offset="0.9108"/>
		<stop stop-color="#465053" offset="1"/>
	</radialGradient>
	<circle orgstroke="#000000" orgfill="url(#1::SVGID_31_)" fill="url(#1::SVGID_31_)" r="3.209" cx="535.057" cy="177.07" stroke="#000000" stroke-width="0.25" g2gstroke="#312783"/>
	
		<radialGradient gradientTransform="matrix(1 0 0 1 0.7798 595.1768)" gradientUnits="userSpaceOnUse" xmlns:xlink="http://www.w3.org/1999/xlink" xlink:type="simple" cx="546.9846" r="3.209" xlink:actuate="onLoad" id="1::SVGID_32_" cy="-427.4446" xlink:show="other">
		<stop stop-color="#E5E2DF" offset="0"/>
		<stop stop-color="#F1EFEE" offset="0"/>
		<stop stop-color="#FFFFFF" offset="0"/>
		<stop stop-color="#F0F0F1" offset="0.1259"/>
		<stop stop-color="#C9CACB" offset="0.3664"/>
		<stop stop-color="#ADAEB0" offset="0.5225"/>
		<stop stop-color="#A3A5A7" offset="0.6029"/>
		<stop stop-color="#898D90" offset="0.7382"/>
		<stop stop-color="#5F6769" offset="0.9108"/>
		<stop stop-color="#465053" offset="1"/>
	</radialGradient>
	<circle orgstroke="#000000" orgfill="url(#1::SVGID_32_)" fill="url(#1::SVGID_32_)" r="3.209" cx="547.764" cy="167.732" stroke="#000000" stroke-width="0.25" g2gstroke="#312783"/>
	
		<radialGradient gradientTransform="matrix(1 0 0 1 0.7798 595.1768)" gradientUnits="userSpaceOnUse" xmlns:xlink="http://www.w3.org/1999/xlink" xlink:type="simple" cx="559.4905" r="3.209" xlink:actuate="onLoad" id="1::SVGID_33_" cy="-418.1067" xlink:show="other">
		<stop stop-color="#E5E2DF" offset="0"/>
		<stop stop-color="#F1EFEE" offset="0"/>
		<stop stop-color="#FFFFFF" offset="0"/>
		<stop stop-color="#F0F0F1" offset="0.1259"/>
		<stop stop-color="#C9CACB" offset="0.3664"/>
		<stop stop-color="#ADAEB0" offset="0.5225"/>
		<stop stop-color="#A3A5A7" offset="0.6029"/>
		<stop stop-color="#898D90" offset="0.7382"/>
		<stop stop-color="#5F6769" offset="0.9108"/>
		<stop stop-color="#465053" offset="1"/>
	</radialGradient>
	<circle orgstroke="#000000" orgfill="url(#1::SVGID_33_)" fill="url(#1::SVGID_33_)" r="3.209" cx="560.271" cy="177.07" stroke="#000000" stroke-width="0.25" g2gstroke="#312783"/>
	
		<radialGradient gradientTransform="matrix(1 0 0 1 0.7798 595.1768)" gradientUnits="userSpaceOnUse" xmlns:xlink="http://www.w3.org/1999/xlink" xlink:type="simple" cx="554.6526" r="3.209" xlink:actuate="onLoad" id="1::SVGID_34_" cy="-403.2454" xlink:show="other">
		<stop stop-color="#E5E2DF" offset="0"/>
		<stop stop-color="#F1EFEE" offset="0"/>
		<stop stop-color="#FFFFFF" offset="0"/>
		<stop stop-color="#F0F0F1" offset="0.1259"/>
		<stop stop-color="#C9CACB" offset="0.3664"/>
		<stop stop-color="#ADAEB0" offset="0.5225"/>
		<stop stop-color="#A3A5A7" offset="0.6029"/>
		<stop stop-color="#898D90" offset="0.7382"/>
		<stop stop-color="#5F6769" offset="0.9108"/>
		<stop stop-color="#465053" offset="1"/>
	</radialGradient>
	<circle orgstroke="#000000" orgfill="url(#1::SVGID_34_)" fill="url(#1::SVGID_34_)" r="3.209" cx="555.433" cy="191.931" stroke="#000000" stroke-width="0.25" g2gstroke="#312783"/>
	
		<radialGradient gradientTransform="matrix(1 0 0 1 0.7798 595.1768)" gradientUnits="userSpaceOnUse" xmlns:xlink="http://www.w3.org/1999/xlink" xlink:type="simple" cx="539.0139" r="3.209" xlink:actuate="onLoad" id="1::SVGID_35_" cy="-402.9827" xlink:show="other">
		<stop stop-color="#E5E2DF" offset="0"/>
		<stop stop-color="#F1EFEE" offset="0"/>
		<stop stop-color="#FFFFFF" offset="0"/>
		<stop stop-color="#F0F0F1" offset="0.1259"/>
		<stop stop-color="#C9CACB" offset="0.3664"/>
		<stop stop-color="#ADAEB0" offset="0.5225"/>
		<stop stop-color="#A3A5A7" offset="0.6029"/>
		<stop stop-color="#898D90" offset="0.7382"/>
		<stop stop-color="#5F6769" offset="0.9108"/>
		<stop stop-color="#465053" offset="1"/>
	</radialGradient>
	<circle orgstroke="#000000" orgfill="url(#1::SVGID_35_)" fill="url(#1::SVGID_35_)" r="3.209" cx="539.794" cy="192.194" stroke="#000000" stroke-width="0.25" g2gstroke="#312783"/>
</g>
</g>
</g></svg>