<svg xmlns="http://www.w3.org/2000/svg" xmlns:xlink="http://www.w3.org/1999/xlink" xmlns:etg="http://www.eurotaxglass.com/etg/evd/" etg:dataTimestamp="1539068912893" contentScriptType="text/ecmascript" zoomAndPan="magnify" contentStyleType="text/css" id="Layer_1" enable-background="new 0 0 1841.891 1595.279" version="1.1" width="1841.891px" xml:space="preserve" preserveAspectRatio="xMidYMid meet" viewBox="0 0 1841.891 1595.279" height="1595.279px" x="0px" y="0px"><g xmlns="http://www.w3.org/2000/svg" objecttype="PS" tooltip="#UNDEFINED" id="3">
<g onmouseover="notifyOwner(AGV_OBJECT_MOUSEOVER, '3(PS)')" onclick="clickZoom(evt); notifyOwner(AGV_OBJECT_MOUSECLICK, '3(PS)')" onmouseout="notifyOwner(AGV_OBJECT_MOUSEOUT, '3(PS)')" tooltip="#UNDEFINED" id="3-Graphic" objecttype="GRAPHIC">
<g>
	<g id="2::XMLID_7_">
		<g>
			<g id="2::XMLID_8_">
				<g>
					
						<radialGradient gradientTransform="matrix(1 0 0 1 0.7798 595.1768)" gradientUnits="userSpaceOnUse" xmlns:xlink="http://www.w3.org/1999/xlink" xlink:type="simple" cx="288.0642" r="32.5931" xlink:actuate="onLoad" id="2::SVGID_36_" cy="-283.468" xlink:show="other">
						<stop stop-color="#E5E2DF" offset="0"/>
						<stop stop-color="#DED9D6" offset="0"/>
						<stop stop-color="#CFCAC9" offset="0.0361"/>
						<stop stop-color="#A8A4A7" offset="0.1052"/>
						<stop stop-color="#8B878D" offset="0.1515"/>
						<stop stop-color="#908C91" offset="0.1872"/>
						<stop stop-color="#9D9A9F" offset="0.2282"/>
						<stop stop-color="#B3B1B4" offset="0.2718"/>
						<stop stop-color="#D1D1D2" offset="0.3169"/>
						<stop stop-color="#F3F4F4" offset="0.3576"/>
						<stop stop-color="#E5E5E6" offset="0.6622"/>
						<stop stop-color="#DAD9DB" offset="0.8606"/>
						<stop stop-color="#807B80" offset="0.9333"/>
						<stop stop-color="#D1D3D4" offset="1"/>
						<stop stop-color="#A7A9AC" offset="1"/>
					</radialGradient>
					<path orgstroke="#000000" orgfill="url(#2::SVGID_36_)" fill="url(#2::SVGID_36_)" d="M270.508,331.942       c-0.86,0.43-1.78,0.811-2.75,1.15C268.729,332.764,269.649,332.372,270.508,331.942z M261.729,334.352l0.512,0.108       c0.278-0.04,0.56-0.091,0.83-0.148c-0.28,0.05-0.562,0.1-0.842,0.14L261.729,334.352z M276.389,326.934       c0.33-0.512,0.59-1.04,0.812-1.59C276.979,325.893,276.709,326.423,276.389,326.934z M281.239,344.635       c0.04,0.857,0.108,1.75,0.229,2.647C281.359,346.385,281.279,345.503,281.239,344.635z M281.669,348.643l0.28,0.34h0.01       L281.669,348.643z M283.048,334.684c-0.07,0.14-0.14,0.278-0.2,0.42c0.062-0.142,0.13-0.28,0.21-0.42       c0.19-0.36,0.4-0.71,0.62-1.04C283.448,333.974,283.239,334.322,283.048,334.684z M283.059,297.482       c-4.818,4.05-9.83,3.68-14.17,0.49c4.34,3.198,9.352,3.567,14.17-0.48c1.59-1.069,2.79-2.27,3.63-3.569       C285.829,295.213,284.639,296.412,283.059,297.482z M285.189,331.844c0.28-0.271,0.592-0.521,0.9-0.74       C285.779,331.322,285.479,331.582,285.189,331.844z M298.829,290.282c0.09,0.48,0.22,0.95,0.39,1.41       C299.059,291.232,298.928,290.764,298.829,290.282z M299.729,283.202c-0.09,0.221-0.17,0.433-0.25,0.65       c0.08-0.222,0.17-0.432,0.262-0.65C299.739,283.202,299.739,283.202,299.729,283.202z M299.739,283.192v0.01       c0-0.01,0.01-0.01,0.01-0.01c0.09-0.21,0.18-0.43,0.27-0.65C299.919,282.764,299.829,282.982,299.739,283.192z        M300.008,293.352c-0.229-0.392-0.43-0.79-0.61-1.2c0.172,0.41,0.37,0.811,0.602,1.2c0.08,0.14,0.18,0.278,0.27,0.41       C300.178,293.635,300.088,293.492,300.008,293.352z M300.568,294.184c-0.038-0.05-0.078-0.103-0.108-0.15       c0.03,0.05,0.06,0.103,0.1,0.15c0.312,0.41,0.65,0.81,1.03,1.21h0.01C301.218,295.003,300.869,294.594,300.568,294.184z        M305.809,274.635h-0.01c-1.28,1.25-2.41,2.56-3.37,3.868c0.97-1.311,2.11-2.618,3.38-3.858h0.012l0.46-0.21L305.809,274.635z        M312.249,328.522c0.07,0.08,0.148,0.148,0.22,0.22c0.97,0.98,2.15,1.853,3.49,2.603c-1.34-0.763-2.521-1.62-3.49-2.61       C312.399,328.662,312.318,328.582,312.249,328.522z" outline-element="true" stroke="#000000" stroke-width="0.5" g2gstroke="#312783" stroke-miterlimit="10"/>
				</g>
				<g>
					<path orgstroke="#000000" orgfill="#ffffff" fill="#ffffff" g2gfill="#7800FF" d="M311.619,313.732c-0.25,0.43-0.46,0.88-0.66,1.36       C311.158,314.612,311.379,314.162,311.619,313.732z" outline-element="true" stroke="#000000" stroke-width="0.5" g2gstroke="#312783"/>
					<path orgstroke="#000000" orgfill="#787878" fill="#787878" d="M325.989,274.474c-0.602-0.512-1.21-1.021-1.83-1.512       c-0.392-0.311-0.78-0.608-1.182-0.898c-1.198-0.88-2.438-1.71-3.71-2.49c-1.02-0.62-2.068-1.2-3.13-1.75       c-0.31-0.16-0.62-0.319-0.938-0.47c-1.892-0.91-3.842-1.71-5.86-2.392c-0.33-0.118-0.67-0.221-1.01-0.328       c-0.58-0.183-1.17-0.353-1.76-0.513c-1.182-0.317-2.37-0.59-3.592-0.83c-3.028-0.579-6.158-0.88-9.37-0.88       c-8.118,0-15.77,1.95-22.528,5.41c-1.771,0.91-3.49,1.92-5.13,3.04c-0.66,0.44-1.312,0.9-1.94,1.38       c-1.91,1.42-3.7,2.98-5.38,4.66c-8.96,8.96-14.49,21.32-14.49,34.97c0,27.33,22.142,49.48,49.47,49.48       c13.66,0,26.03-5.53,34.98-14.48c0.84-0.85,1.65-1.72,2.43-2.619c0.38-0.448,0.762-0.898,1.142-1.358       c0.18-0.23,0.37-0.47,0.55-0.7c0.188-0.229,0.37-0.47,0.54-0.71c0.229-0.32,0.47-0.64,0.7-0.96       c0.229-0.32,0.448-0.65,0.68-0.98c0.33-0.487,0.66-0.987,0.98-1.5c0.318-0.5,0.618-1.01,0.92-1.527       c0.59-1.04,1.148-2.103,1.68-3.183c1.04-2.157,1.93-4.407,2.65-6.729c0.25-0.78,0.47-1.57,0.67-2.352       c1.02-3.961,1.56-8.101,1.56-12.368C343.088,296.942,336.468,283.542,325.989,274.474z M298.948,285.662       c0.08-0.38,0.188-0.77,0.31-1.159c0.07-0.221,0.14-0.438,0.22-0.648c0.08-0.22,0.16-0.432,0.25-0.65c0.012,0,0.012,0,0.012,0       v-0.01c0.09-0.21,0.18-0.43,0.278-0.65c0.29-0.64,0.642-1.3,1.021-1.947c0-0.013,0.01-0.013,0.01-0.013       c0.15-0.25,0.3-0.5,0.47-0.76c0.28-0.438,0.58-0.88,0.91-1.319c0.96-1.311,2.09-2.618,3.37-3.868h0.01l0.472-0.2       c3.648,1.25,7.188,3.06,10.47,5.47c1.64,1.19,3.16,2.5,4.55,3.88h0.01c0.521,0.521,1.03,1.05,1.512,1.59       c0.488,0.552,0.96,1.11,1.42,1.683c0.22,0.26,0.43,0.54,0.64,0.817c0.08,0.11,0.17,0.223,0.25,0.33l0.03,0.44       c-0.222,0.43-0.44,0.858-0.67,1.27c-0.24,0.41-0.472,0.83-0.71,1.223c-0.49,0.8-0.99,1.539-1.512,2.237       c-0.528,0.71-1.068,1.36-1.63,1.98c-0.279,0.3-0.56,0.58-0.85,0.88c-4.62,4.47-10.28,5.62-15.8,1.12       c-0.92-0.61-1.722-1.25-2.392-1.96h-0.01c-0.38-0.4-0.72-0.8-1.03-1.21c-0.04-0.05-0.068-0.103-0.1-0.15       c-0.07-0.09-0.12-0.17-0.18-0.26c-0.012,0-0.012,0-0.012-0.01c-0.09-0.13-0.188-0.271-0.27-0.41       c-0.23-0.392-0.43-0.79-0.602-1.2c-0.06-0.149-0.13-0.3-0.18-0.46c-0.17-0.46-0.3-0.93-0.39-1.41       C298.529,288.792,298.588,287.242,298.948,285.662z M270.029,280.232c0.398-0.312,0.81-0.602,1.22-0.89       c1.24-0.86,2.51-1.643,3.81-2.342c1.312-0.698,2.642-1.318,3.98-1.858c0.45-0.182,0.91-0.36,1.358-0.521l0.432,0.103       c0.29,0.278,0.58,0.56,0.85,0.84c5.142,5.21,7.74,11.1,6.12,16.06c-0.13,0.393-0.28,0.78-0.47,1.16       c-0.182,0.391-0.4,0.771-0.642,1.141c-0.84,1.302-2.04,2.5-3.63,3.569c-4.818,4.05-9.83,3.681-14.17,0.48       c-0.71-0.53-1.41-1.131-2.09-1.813c-1.86-1.85-3.54-4.22-4.979-6.96l-0.061-0.52       C264.019,285.542,266.769,282.684,270.029,280.232z M277.198,325.344c-0.222,0.55-0.48,1.078-0.812,1.59       c-0.1,0.17-0.21,0.34-0.33,0.51c-0.229,0.33-0.479,0.64-0.76,0.95c-0.13,0.147-0.27,0.3-0.42,0.46       c-0.29,0.3-0.601,0.59-0.93,0.87c-0.171,0.14-0.352,0.278-0.521,0.41c-0.35,0.27-0.71,0.527-1.09,0.77       c-0.39,0.25-0.78,0.49-1.2,0.71c-0.2,0.12-0.42,0.23-0.63,0.33c-0.86,0.43-1.78,0.82-2.75,1.148       c-0.38,0.142-0.77,0.271-1.16,0.382c-0.3,0.09-0.6,0.17-0.898,0.25c-0.33,0.1-0.66,0.18-1,0.25       c-0.53,0.13-1.07,0.25-1.631,0.34c-0.271,0.06-0.551,0.108-0.829,0.148l-0.512-0.108c-2.26-3.15-4.068-6.682-5.34-10.54       c-1.27-3.86-1.92-7.771-1.97-11.62l0.22-0.38v-0.01c5.79-3.04,11.51-4.11,15.8-2.48c0.5,0.181,0.99,0.41,1.46,0.681       c0.28,0.159,0.552,0.329,0.82,0.521c0.271,0.189,0.521,0.398,0.771,0.62c0.21,0.2,0.43,0.397,0.63,0.62       c0.21,0.21,0.41,0.448,0.6,0.688c0.18,0.25,0.37,0.511,0.54,0.78c0.13,0.2,0.26,0.41,0.38,0.62c0.24,0.43,0.46,0.88,0.66,1.37       c0.1,0.238,0.19,0.488,0.28,0.75c0.12,0.34,0.229,0.688,0.33,1.05C278.129,320.173,278.139,322.952,277.198,325.344z        M305.559,348.522l-0.25,0.45h-0.01c-3.69,1.147-7.62,1.77-11.68,1.77c-4.07,0-7.972-0.62-11.66-1.76h-0.01l-0.28-0.34       c-0.08-0.46-0.15-0.91-0.2-1.36c-0.12-0.897-0.188-1.79-0.229-2.647c-0.12-2.54,0.1-4.9,0.67-6.973       c0.1-0.43,0.238-0.85,0.39-1.25c0.07-0.188,0.14-0.38,0.22-0.567c0.102-0.25,0.2-0.5,0.33-0.74c0.062-0.142,0.13-0.28,0.2-0.42       c0.19-0.36,0.4-0.71,0.63-1.04c0.22-0.34,0.46-0.65,0.71-0.95s0.521-0.59,0.8-0.85c0.28-0.271,0.592-0.521,0.9-0.74       c0.47-0.36,0.99-0.66,1.53-0.91c0.18-0.09,0.358-0.18,0.56-0.26c0.09-0.03,0.18-0.07,0.28-0.103c0.1-0.04,0.2-0.079,0.3-0.107       c0.22-0.08,0.45-0.143,0.68-0.2c0.23-0.061,0.46-0.12,0.71-0.17c1.052-0.21,2.2-0.29,3.45-0.23h0.021       C303.769,328.602,307.359,337.572,305.559,348.522z M331.749,320.643c-0.23,0.97-0.51,1.938-0.82,2.897       c-0.29,0.91-0.608,1.803-0.96,2.671c-0.35,0.869-0.729,1.729-1.13,2.552c-0.27,0.56-0.55,1.1-0.84,1.64       c-0.24,0.43-0.48,0.851-0.73,1.26c-0.5,0.853-1.028,1.66-1.59,2.44l-0.42,0.18c-1.69-0.25-3.3-0.6-4.8-1.06       c-0.82-0.25-1.61-0.54-2.36-0.853c-0.76-0.31-1.47-0.659-2.14-1.027c-1.34-0.75-2.521-1.62-3.49-2.603       c-0.07-0.069-0.148-0.14-0.22-0.22s-0.142-0.16-0.21-0.24c-0.63-0.7-1.15-1.46-1.562-2.27c-0.14-0.262-0.26-0.53-0.38-0.813       c-0.75-1.89-0.91-4.05-0.318-6.438c0.1-0.4,0.22-0.813,0.35-1.21c0.07-0.2,0.14-0.41,0.22-0.61       c0.182-0.66,0.38-1.271,0.61-1.85c0.2-0.48,0.41-0.933,0.66-1.36c0.028-0.08,0.08-0.15,0.12-0.229       c0.01-0.021,0.028-0.051,0.04-0.068c0.06-0.11,0.14-0.222,0.22-0.34c0.34-0.53,0.72-1.021,1.14-1.473v-0.01       c0.13-0.14,0.26-0.27,0.4-0.39c0.8-0.771,1.72-1.38,2.72-1.83c0.33-0.15,0.68-0.28,1.03-0.392       c0.31-0.101,0.63-0.188,0.95-0.271c0.238-0.05,0.479-0.102,0.72-0.141c0.18-0.039,0.37-0.062,0.56-0.079       c0.15-0.021,0.302-0.04,0.45-0.052c0.25-0.028,0.51-0.051,0.771-0.051h0.08c3.52-0.13,7.568,0.99,11.658,3.091l0.352,0.38       C332.809,314.782,332.459,317.713,331.749,320.643z" outline-element="true" stroke="#000000" stroke-width="0.5" g2gstroke="#312783"/>
					<path orgstroke="#000000" orgfill="none" fill="none" d="M277.198,325.344c-0.222,0.55-0.48,1.078-0.812,1.59       c-0.1,0.17-0.21,0.34-0.33,0.51c-0.229,0.33-0.479,0.64-0.76,0.95c-0.13,0.147-0.27,0.3-0.42,0.46       c-0.29,0.3-0.601,0.59-0.93,0.87c-0.171,0.14-0.352,0.278-0.521,0.41c-0.35,0.27-0.71,0.527-1.09,0.77       c-0.39,0.25-0.78,0.48-1.2,0.71c-0.2,0.12-0.42,0.23-0.63,0.33c-0.86,0.43-1.78,0.82-2.75,1.148       c-0.38,0.132-0.76,0.262-1.16,0.382c-0.3,0.1-0.6,0.18-0.898,0.25c-0.33,0.1-0.66,0.18-1,0.25c-0.53,0.13-1.07,0.25-1.631,0.34       c-0.271,0.06-0.551,0.108-0.829,0.148l-0.512-0.108c-2.26-3.15-4.068-6.682-5.34-10.54c-1.27-3.86-1.92-7.771-1.97-11.62       l0.22-0.38v-0.01c5.79-3.04,11.51-4.11,15.8-2.48c0.5,0.181,0.99,0.41,1.46,0.681c0.28,0.159,0.552,0.329,0.82,0.521       c0.271,0.189,0.521,0.398,0.771,0.62c0.21,0.2,0.43,0.397,0.63,0.62c0.199,0.22,0.398,0.448,0.6,0.688       c0.18,0.25,0.37,0.511,0.54,0.78c0.13,0.2,0.26,0.41,0.38,0.62c0.24,0.43,0.46,0.88,0.66,1.37c0.1,0.238,0.19,0.488,0.28,0.75       c0.12,0.34,0.229,0.688,0.33,1.05C278.129,320.173,278.139,322.952,277.198,325.344z" outline-element="true" stroke="#000000" stroke-width="0.5" g2gstroke="#312783"/>
					<path orgstroke="#000000" orgfill="none" fill="none" d="M287.798,291.622c-0.13,0.393-0.28,0.78-0.47,1.16       c-0.182,0.391-0.4,0.771-0.642,1.141c-0.84,1.302-2.04,2.5-3.63,3.569c-4.818,4.05-9.83,3.681-14.17,0.48       c-0.71-0.53-1.41-1.13-2.09-1.813c-1.86-1.85-3.54-4.22-4.98-6.96l-0.06-0.52c2.26-3.143,5.01-6,8.271-8.45       c0.398-0.312,0.81-0.602,1.22-0.892c1.24-0.858,2.51-1.641,3.81-2.34c1.312-0.698,2.642-1.318,3.98-1.858       c0.45-0.182,0.91-0.36,1.358-0.521l0.432,0.103c0.29,0.278,0.58,0.56,0.85,0.84       C286.818,280.772,289.419,286.662,287.798,291.622z" outline-element="true" stroke="#000000" stroke-width="0.5" g2gstroke="#312783"/>
					<path orgstroke="#000000" orgfill="none" fill="none" d="M293.609,262.402c3.212,0,6.342,0.3,9.37,0.89       c-3.028-0.579-6.158-0.88-9.37-0.88c-8.118,0-15.77,1.95-22.528,5.41C277.838,264.352,285.489,262.402,293.609,262.402z" outline-element="true" stroke="#000000" stroke-width="0.5" g2gstroke="#312783"/>
					<path orgstroke="#000000" orgfill="none" fill="none" d="M306.568,264.122c-1.18-0.317-2.368-0.59-3.59-0.83       C304.198,263.522,305.389,263.804,306.568,264.122z" outline-element="true" stroke="#000000" stroke-width="0.5" g2gstroke="#312783"/>
					<path orgstroke="#000000" orgfill="none" fill="none" d="M305.559,348.522l-0.25,0.45h-0.01c-3.69,1.147-7.62,1.77-11.68,1.77       c-4.07,0-7.972-0.62-11.66-1.76h-0.01l-0.28-0.34c-0.08-0.46-0.15-0.91-0.2-1.36c-0.12-0.897-0.188-1.79-0.229-2.647       c-0.12-2.54,0.1-4.9,0.67-6.973c0.1-0.43,0.238-0.85,0.39-1.25c0.07-0.188,0.14-0.38,0.22-0.567c0.102-0.25,0.21-0.5,0.33-0.74       c0.062-0.142,0.13-0.28,0.2-0.42c0.19-0.36,0.4-0.71,0.63-1.04c0.22-0.34,0.46-0.65,0.71-0.95s0.521-0.59,0.8-0.85       c0.29-0.263,0.592-0.521,0.9-0.74c0.47-0.36,0.99-0.66,1.53-0.91c0.18-0.09,0.358-0.18,0.56-0.26       c0.09-0.03,0.18-0.07,0.28-0.103c0.1-0.04,0.2-0.079,0.3-0.107c0.22-0.08,0.45-0.143,0.68-0.2c0.23-0.061,0.46-0.12,0.71-0.17       c1.052-0.21,2.2-0.29,3.45-0.23h0.021C303.769,328.602,307.359,337.572,305.559,348.522z" outline-element="true" stroke="#000000" stroke-width="0.5" g2gstroke="#312783"/>
					<path orgstroke="#000000" orgfill="none" fill="none" d="M315.198,267.352c-1.892-0.91-3.842-1.71-5.86-2.392       C311.359,265.635,313.309,266.434,315.198,267.352z" outline-element="true" stroke="#000000" stroke-width="0.5" g2gstroke="#312783"/>
					<path orgstroke="#000000" orgfill="none" fill="none" d="M319.269,269.572c-1.02-0.62-2.068-1.2-3.13-1.75       C317.198,268.362,318.249,268.952,319.269,269.572z" outline-element="true" stroke="#000000" stroke-width="0.5" g2gstroke="#312783"/>
					<path orgstroke="#000000" orgfill="none" fill="none" d="M322.979,272.062c-1.198-0.88-2.438-1.71-3.71-2.49       C320.539,270.344,321.779,271.173,322.979,272.062z" outline-element="true" stroke="#000000" stroke-width="0.5" g2gstroke="#312783"/>
					<path orgstroke="#000000" orgfill="none" fill="none" d="M325.158,288.643c-0.222,0.43-0.44,0.858-0.67,1.27       c-0.24,0.41-0.472,0.83-0.71,1.223c-0.49,0.8-0.99,1.539-1.512,2.237c-0.528,0.71-1.068,1.36-1.63,1.98       c-0.28,0.3-0.56,0.58-0.85,0.88c-4.62,4.47-10.28,5.62-15.8,1.12c-0.922-0.61-1.722-1.25-2.392-1.96h-0.01       c-0.38-0.4-0.72-0.8-1.03-1.21c-0.04-0.05-0.068-0.103-0.1-0.15c-0.07-0.09-0.12-0.17-0.182-0.26c-0.01,0-0.01,0-0.01-0.01       c-0.09-0.13-0.188-0.271-0.27-0.41c-0.23-0.392-0.432-0.79-0.602-1.2c-0.06-0.149-0.13-0.3-0.18-0.46       c-0.17-0.46-0.3-0.93-0.39-1.41c-0.302-1.49-0.24-3.04,0.119-4.62c0.079-0.38,0.189-0.77,0.311-1.159       c0.07-0.221,0.14-0.438,0.22-0.648c0.08-0.22,0.16-0.43,0.25-0.65c0.011,0,0.011,0,0.011,0v-0.01       c0.091-0.21,0.181-0.43,0.279-0.65c0.29-0.64,0.642-1.3,1.021-1.947c0-0.013,0.01-0.013,0.01-0.013       c0.149-0.25,0.3-0.5,0.47-0.76c0.28-0.438,0.58-0.88,0.91-1.319c0.96-1.311,2.09-2.618,3.37-3.868h0.01l0.47-0.2       c3.65,1.25,7.19,3.06,10.472,5.47c1.64,1.19,3.16,2.5,4.55,3.88h0.01c0.521,0.521,1.03,1.05,1.51,1.59       c0.49,0.553,0.96,1.11,1.422,1.683c0.22,0.26,0.43,0.54,0.64,0.817c0.08,0.11,0.17,0.223,0.25,0.33L325.158,288.643z" outline-element="true" stroke="#000000" stroke-width="0.5" g2gstroke="#312783"/>
					<path orgstroke="#000000" orgfill="none" fill="none" d="M332.829,311.885c-0.021,2.897-0.37,5.828-1.08,8.76       c-0.23,0.97-0.51,1.938-0.82,2.897c-0.29,0.91-0.608,1.803-0.96,2.671c-0.35,0.869-0.729,1.729-1.13,2.552       c-0.27,0.56-0.55,1.1-0.84,1.64c-0.24,0.43-0.48,0.851-0.73,1.26c-0.5,0.853-1.028,1.66-1.59,2.44l-0.42,0.18       c-1.688-0.25-3.3-0.6-4.8-1.06c-0.82-0.25-1.61-0.54-2.36-0.853c-0.76-0.31-1.47-0.659-2.14-1.027       c-1.34-0.75-2.521-1.62-3.49-2.603c-0.07-0.069-0.148-0.14-0.22-0.22s-0.142-0.16-0.21-0.24c-0.63-0.7-1.15-1.46-1.562-2.27       c-0.14-0.262-0.26-0.53-0.38-0.813c-0.75-1.89-0.91-4.05-0.318-6.438c0.1-0.4,0.22-0.813,0.35-1.21       c0.07-0.2,0.14-0.41,0.22-0.61c0.182-0.66,0.38-1.271,0.61-1.85c0.2-0.48,0.41-0.933,0.66-1.36       c0.028-0.08,0.08-0.15,0.12-0.229c0.01-0.021,0.028-0.051,0.04-0.068c0.068-0.11,0.148-0.221,0.22-0.34       c0.34-0.53,0.72-1.021,1.14-1.473v-0.01c0.13-0.14,0.26-0.27,0.4-0.39c0.8-0.771,1.72-1.38,2.72-1.83       c0.33-0.15,0.68-0.28,1.03-0.392c0.31-0.101,0.63-0.188,0.95-0.271c0.238-0.05,0.479-0.101,0.72-0.141       c0.18-0.039,0.37-0.062,0.56-0.079c0.15-0.03,0.302-0.04,0.45-0.052c0.25-0.028,0.51-0.051,0.771-0.051h0.08       c3.52-0.13,7.568,0.99,11.658,3.091L332.829,311.885z" outline-element="true" stroke="#000000" stroke-width="0.5" g2gstroke="#312783"/>
					<path orgstroke="#000000" orgfill="none" fill="none" d="M333.948,340.522c-0.23,0.32-0.46,0.64-0.69,0.96       c-0.18,0.24-0.36,0.479-0.55,0.71c0.188-0.229,0.37-0.47,0.54-0.71C333.479,341.162,333.718,340.844,333.948,340.522z" outline-element="true" stroke="#000000" stroke-width="0.5" g2gstroke="#312783"/>
					<path orgstroke="#000000" orgfill="none" fill="none" d="M335.609,338.042c-0.31,0.513-0.64,1.013-0.97,1.5       c-0.22,0.33-0.46,0.66-0.688,0.98c0.229-0.32,0.448-0.65,0.68-0.98C334.959,339.054,335.289,338.554,335.609,338.042z" outline-element="true" stroke="#000000" stroke-width="0.5" g2gstroke="#312783"/>
					<path orgstroke="#000000" orgfill="none" fill="none" d="M338.209,333.332c-0.521,1.08-1.08,2.143-1.68,3.183       C337.119,335.474,337.678,334.412,338.209,333.332z" outline-element="true" stroke="#000000" stroke-width="0.5" g2gstroke="#312783"/>
					<path orgstroke="#000000" stroke-linecap="round" orgfill="none" fill="none" d="M305.559,348.522l-0.26,0.45       c-3.69,1.147-7.62,1.77-11.68,1.77c-4.07,0-7.972-0.62-11.66-1.76h-0.01l-0.28-0.34c-0.08-0.46-0.15-0.91-0.2-1.36       c-0.12-0.897-0.188-1.79-0.229-2.647c-0.12-2.54,0.1-4.9,0.67-6.973c0.1-0.43,0.238-0.85,0.39-1.25       c0.07-0.188,0.14-0.38,0.22-0.567c0.102-0.25,0.21-0.5,0.33-0.74c0.062-0.142,0.13-0.28,0.2-0.42c0.19-0.36,0.4-0.71,0.63-1.04       c0.22-0.34,0.46-0.65,0.71-0.95s0.521-0.59,0.8-0.85c0.29-0.263,0.592-0.521,0.9-0.74c0.47-0.36,0.99-0.66,1.53-0.91       c0.18-0.09,0.358-0.18,0.56-0.26c0.09-0.03,0.18-0.07,0.28-0.103c0.1-0.04,0.2-0.067,0.3-0.1c0.22-0.07,0.44-0.15,0.68-0.21       c0.23-0.062,0.46-0.12,0.71-0.17c1.052-0.21,2.2-0.29,3.45-0.23h0.021C303.769,328.602,307.359,337.572,305.559,348.522z" outline-element="true" stroke="#000000" stroke-width="0.5" g2gstroke="#312783"/>
					<path orgstroke="#000000" stroke-linecap="round" orgfill="none" fill="none" d="M332.829,311.885       c-0.021,2.897-0.37,5.828-1.08,8.76c-0.23,0.97-0.51,1.938-0.82,2.897c-0.29,0.91-0.608,1.803-0.96,2.671       c-0.35,0.869-0.729,1.729-1.13,2.552c-0.27,0.56-0.55,1.1-0.84,1.64c-0.24,0.43-0.48,0.851-0.73,1.26       c-0.5,0.853-1.028,1.66-1.59,2.44l-0.42,0.18c-1.688-0.25-3.3-0.6-4.8-1.06c-0.82-0.25-1.61-0.54-2.36-0.853       c-0.76-0.31-1.47-0.659-2.14-1.027c-1.34-0.75-2.521-1.62-3.49-2.603c-0.07-0.069-0.148-0.14-0.22-0.22s-0.142-0.16-0.21-0.24       c-0.63-0.7-1.15-1.46-1.562-2.27c-0.14-0.262-0.26-0.53-0.38-0.813c-0.75-1.89-0.91-4.05-0.318-6.438       c0.1-0.4,0.22-0.813,0.35-1.21c0.07-0.2,0.14-0.41,0.22-0.61c0.182-0.66,0.38-1.271,0.61-1.85c0.2-0.48,0.41-0.933,0.66-1.36       c0.028-0.08,0.08-0.15,0.12-0.229c0.01-0.021,0.028-0.051,0.04-0.068c0.068-0.11,0.148-0.221,0.22-0.34       c0.34-0.53,0.72-1.021,1.14-1.473c0.13-0.14,0.26-0.27,0.4-0.397c0.8-0.771,1.72-1.38,2.72-1.83       c0.33-0.15,0.68-0.28,1.03-0.392c0.31-0.101,0.63-0.188,0.95-0.271c0.238-0.05,0.479-0.101,0.72-0.14       c0.18-0.03,0.37-0.063,0.56-0.08c0.15-0.03,0.302-0.04,0.45-0.051c0.25-0.021,0.51-0.04,0.771-0.052h0.08       c3.52-0.12,7.568,1,11.648,3.11L332.829,311.885z" outline-element="true" stroke="#000000" stroke-width="0.5" g2gstroke="#312783"/>
					<path orgstroke="#000000" stroke-linecap="round" orgfill="none" fill="none" d="M325.149,288.643       c-0.22,0.43-0.438,0.858-0.67,1.27c-0.229,0.41-0.47,0.82-0.698,1.223c-0.49,0.8-0.99,1.539-1.512,2.237       c-0.528,0.71-1.068,1.36-1.63,1.98c-0.28,0.3-0.56,0.58-0.85,0.88c-4.62,4.47-10.28,5.62-15.8,1.12       c-0.921-0.61-1.722-1.25-2.392-1.96h-0.01c-0.38-0.4-0.72-0.8-1.03-1.21c-0.04-0.05-0.068-0.103-0.1-0.15       c-0.07-0.09-0.12-0.17-0.18-0.26c-0.012,0-0.012,0-0.012-0.01c-0.09-0.13-0.188-0.271-0.27-0.41       c-0.23-0.392-0.432-0.79-0.602-1.2c-0.06-0.149-0.13-0.3-0.18-0.46c-0.17-0.46-0.3-0.93-0.39-1.41       c-0.3-1.49-0.24-3.04,0.12-4.62c0.078-0.38,0.188-0.77,0.31-1.159c0.07-0.221,0.14-0.438,0.22-0.648       c0.08-0.22,0.16-0.43,0.25-0.65c0.012,0,0.012,0,0.012,0v-0.01c0.09-0.21,0.18-0.43,0.278-0.65       c0.29-0.64,0.642-1.3,1.021-1.947c0-0.013,0.01-0.013,0.01-0.013c0.15-0.25,0.3-0.5,0.47-0.76c0.28-0.438,0.58-0.88,0.91-1.319       c0.96-1.311,2.09-2.618,3.37-3.868h0.01l0.472-0.2c3.648,1.25,7.188,3.06,10.47,5.47c1.64,1.19,3.16,2.5,4.55,3.88       c0.52,0.521,1.03,1.05,1.52,1.59c0.49,0.553,0.961,1.11,1.422,1.683c0.22,0.26,0.43,0.54,0.64,0.817       c0.08,0.11,0.16,0.223,0.24,0.33L325.149,288.643z" outline-element="true" stroke="#000000" stroke-width="0.5" g2gstroke="#312783"/>
					<path orgstroke="#000000" stroke-linecap="round" orgfill="none" fill="none" d="M287.798,291.622       c-0.13,0.393-0.28,0.78-0.47,1.16c-0.182,0.391-0.4,0.771-0.642,1.141c-0.84,1.302-2.04,2.5-3.63,3.569       c-4.818,4.05-9.83,3.681-14.17,0.48c-0.71-0.53-1.41-1.13-2.09-1.813c-1.86-1.85-3.54-4.22-4.98-6.96l-0.06-0.52       c2.26-3.143,5.01-6,8.271-8.45c0.398-0.312,0.81-0.602,1.22-0.892c1.24-0.858,2.51-1.641,3.81-2.34       c1.312-0.698,2.642-1.318,3.98-1.858c0.45-0.182,0.91-0.353,1.358-0.512l0.432,0.102c0.29,0.271,0.568,0.55,0.85,0.83       C286.818,280.772,289.419,286.662,287.798,291.622z" outline-element="true" stroke="#000000" stroke-width="0.5" g2gstroke="#312783"/>
					<path orgstroke="#000000" stroke-linecap="round" orgfill="none" fill="none" d="M277.198,325.344       c-0.222,0.55-0.48,1.078-0.812,1.59c-0.1,0.17-0.21,0.34-0.33,0.51c-0.229,0.33-0.479,0.64-0.76,0.95       c-0.13,0.147-0.27,0.3-0.42,0.46c-0.29,0.3-0.601,0.59-0.93,0.87c-0.171,0.14-0.352,0.278-0.521,0.41       c-0.35,0.27-0.71,0.527-1.09,0.77c-0.39,0.25-0.78,0.48-1.2,0.71c-0.2,0.12-0.42,0.23-0.63,0.33       c-0.86,0.43-1.78,0.82-2.75,1.148c-0.38,0.132-0.76,0.262-1.16,0.382c-0.3,0.1-0.6,0.18-0.898,0.25c-0.33,0.1-0.66,0.18-1,0.25       c-0.53,0.13-1.07,0.25-1.631,0.34c-0.271,0.06-0.551,0.108-0.829,0.148l-0.512-0.108c-2.26-3.15-4.068-6.682-5.34-10.54       c-1.27-3.86-1.92-7.771-1.97-11.62l0.22-0.38c5.79-3.04,11.51-4.11,15.8-2.49c0.5,0.181,0.99,0.41,1.46,0.681       c0.28,0.159,0.552,0.329,0.82,0.521c0.271,0.189,0.521,0.398,0.771,0.62c0.21,0.2,0.43,0.397,0.63,0.62       c0.199,0.22,0.398,0.448,0.6,0.688c0.18,0.25,0.37,0.511,0.54,0.78c0.13,0.2,0.26,0.41,0.38,0.62       c0.24,0.43,0.46,0.88,0.66,1.37c0.1,0.238,0.19,0.488,0.28,0.75c0.12,0.34,0.229,0.688,0.33,1.05       C278.129,320.173,278.139,322.952,277.198,325.344z" outline-element="true" stroke="#000000" stroke-width="0.5" g2gstroke="#312783"/>
				</g>
			</g>
		</g>
	</g>
	<g id="2::XMLID_19_">
		<g>
			<g id="2::XMLID_20_">
				<g>
					
						<radialGradient gradientTransform="matrix(1 0 0 1 0.7798 595.1768)" gradientUnits="userSpaceOnUse" xmlns:xlink="http://www.w3.org/1999/xlink" xlink:type="simple" cx="284.5027" r="37.69" xlink:actuate="onLoad" id="2::SVGID_37_" cy="-277.2756" xlink:show="other">
						<stop stop-color="#FFFFFF" offset="0.1576"/>
						<stop stop-opacity="0.6" stop-color="#FFFFFF" offset="0.2788"/>
						<stop stop-opacity="0.4" stop-color="#FFFFFF" offset="0.3152"/>
						<stop stop-opacity="0.4" stop-color="#FFFFFF" offset="0.9515"/>
						<stop stop-color="#FFFFFF" offset="1"/>
					</radialGradient>
					<path orgstroke="#000000" orgfill="url(#2::SVGID_37_)" fill="url(#2::SVGID_37_)" d="M258.633,346.861       c8.94,8.96,21.31,14.5,34.98,14.5c8.108,0,15.77-1.949,22.528-5.41c-6.76,3.45-14.42,5.4-22.528,5.4       C279.953,361.352,267.583,355.811,258.633,346.861z M313.614,329.771c-0.41-0.33-0.79-0.67-1.142-1.03       c-0.148-0.147-0.28-0.29-0.43-0.449c0.14,0.159,0.28,0.319,0.43,0.46C312.823,329.111,313.203,329.451,313.614,329.771z        M305.823,274.651l0.47-0.21l-0.48,0.2h-0.01c-1.7,1.67-3.148,3.42-4.28,5.188c1.142-1.761,2.592-3.521,4.29-5.181       L305.823,274.651L305.823,274.651z M301.593,295.393c-0.38-0.4-0.71-0.79-1.02-1.2l-0.182-0.24c0.062,0.08,0.11,0.16,0.17,0.24       C300.873,294.602,301.213,295.002,301.593,295.393z M300.023,282.553c-0.1,0.22-0.188,0.438-0.278,0.647v0.011       c0-0.011,0.01-0.011,0.01-0.011C299.833,282.991,299.933,282.771,300.023,282.553z M299.733,283.212       c-0.18,0.432-0.328,0.859-0.47,1.29c0.142-0.431,0.3-0.858,0.48-1.29C299.743,283.212,299.733,283.201,299.733,283.212z        M298.833,290.281c0.12,0.641,0.31,1.271,0.57,1.881C299.154,291.553,298.953,290.922,298.833,290.281z M287.333,292.792       c0.188-0.38,0.34-0.771,0.47-1.16C287.673,292.031,287.513,292.412,287.333,292.792z M285.193,331.852       c0.28-0.271,0.592-0.521,0.9-0.74C285.783,331.332,285.483,331.594,285.193,331.852z M283.063,297.502       c1.592-1.068,2.79-2.271,3.63-3.568c-0.858,1.29-2.05,2.488-3.63,3.56c-5.62,4.721-11.488,3.44-16.26-1.319       C271.573,300.941,277.443,302.223,283.063,297.502z M282.853,335.111c0.062-0.14,0.142-0.279,0.21-0.42       c0.29-0.54,0.602-1.05,0.96-1.529c-0.358,0.47-0.68,0.979-0.97,1.529C282.983,334.832,282.913,334.973,282.853,335.111z        M281.243,344.643c0.04,0.858,0.108,1.75,0.229,2.648C281.364,346.393,281.283,345.513,281.243,344.643z M276.393,326.941       c0.33-0.51,0.59-1.04,0.812-1.59C276.983,325.901,276.713,326.433,276.393,326.941z M274.883,328.861       c-2.78,2.84-7.29,4.761-12.64,5.601l-0.5-0.101l0.5,0.11C267.603,333.632,272.114,331.712,274.883,328.861z M254.423,312.201       c0.01,0.48,0.021,0.961,0.05,1.44c-0.02-0.49-0.04-0.972-0.04-1.45L254.423,312.201z" outline-element="true" stroke="#000000" stroke-width="0.5" g2gstroke="#312783" stroke-miterlimit="10"/>
				</g>
				<g>
					
						<radialGradient gradientTransform="matrix(1 0 0 1 0.21 -0.0811)" gradientUnits="userSpaceOnUse" xmlns:xlink="http://www.w3.org/1999/xlink" xlink:type="simple" cx="293.4075" r="49.4697" xlink:actuate="onLoad" id="2::SVGID_38_" cy="311.9656" xlink:show="other">
						<stop stop-color="#FFFFFF" offset="0.1576"/>
						<stop stop-opacity="0.6" stop-color="#FFFFFF" offset="0.2788"/>
						<stop stop-opacity="0.4" stop-color="#FFFFFF" offset="0.3152"/>
						<stop stop-opacity="0.4" stop-color="#FFFFFF" offset="0.9515"/>
						<stop stop-color="#FFFFFF" offset="1"/>
					</radialGradient>
					<path orgstroke="#000000" orgfill="url(#2::SVGID_38_)" fill="url(#2::SVGID_38_)" d="M325.993,274.481       c-0.59-0.51-1.21-1.021-1.83-1.51c-1.562-1.222-3.19-2.352-4.892-3.392c-1.02-0.62-2.06-1.2-3.13-1.75       c-2.488-1.271-5.1-2.341-7.818-3.188c-4.65-1.44-9.592-2.222-14.71-2.222c-13.66,0-26.03,5.54-34.98,14.49       c-8.96,8.96-14.49,21.319-14.49,34.97c0,13.672,5.53,26.03,14.49,34.979c8.95,8.95,21.32,14.49,34.98,14.49       c8.108,0,15.77-1.95,22.528-5.4c4.62-2.369,8.812-5.438,12.45-9.069c0.84-0.851,1.65-1.72,2.43-2.618       c0.392-0.45,0.771-0.9,1.142-1.36c0.37-0.47,0.729-0.93,1.09-1.41c0.24-0.319,0.47-0.64,0.7-0.96       c0.24-0.319,0.46-0.649,0.688-0.979c1.33-1.972,2.53-4.04,3.57-6.21c0.52-1.08,1-2.182,1.44-3.302       c0.229-0.561,0.438-1.13,0.64-1.698c0.2-0.57,0.39-1.15,0.57-1.73c0.119-0.39,0.229-0.779,0.35-1.18       c0.12-0.392,0.22-0.78,0.32-1.17c1.02-3.96,1.56-8.102,1.56-12.37C343.093,296.951,336.473,283.553,325.993,274.481z        M298.923,285.792c0.09-0.42,0.2-0.851,0.34-1.278c0,0,0,0,0-0.012c0.142-0.431,0.29-0.858,0.47-1.29c0-0.011,0.012,0,0.012,0       v-0.011c0.09-0.21,0.18-0.43,0.278-0.647c0.29-0.642,0.642-1.302,1.021-1.95c0-0.01,0.01-0.01,0.01-0.01       c0.15-0.25,0.3-0.512,0.47-0.762c1.132-1.771,2.58-3.521,4.28-5.188h0.01l0.48-0.2c2.438,0.84,4.84,1.931,7.15,3.3       c0.698,0.4,1.39,0.83,2.068,1.29c0.42,0.29,0.84,0.58,1.25,0.881c1.63,1.189,3.15,2.5,4.54,3.88h0.01       c1.04,1.04,2.03,2.131,2.94,3.271c0.11,0.14,0.21,0.271,0.32,0.41c0.188,0.25,0.37,0.5,0.56,0.738l0.03,0.439       c-0.22,0.431-0.44,0.86-0.67,1.271c-0.24,0.409-0.472,0.829-0.7,1.221c-0.25,0.398-0.5,0.779-0.75,1.148       c-0.01,0,0,0.012,0,0.012c-0.25,0.368-0.51,0.729-0.771,1.079c-0.528,0.71-1.068,1.358-1.63,1.979       c-0.278,0.301-0.56,0.58-0.85,0.88c-0.65,0.631-1.32,1.19-2.01,1.682c-0.341,0.25-0.69,0.479-1.04,0.681       c-0.7,0.42-1.42,0.76-2.15,1.021c-3.38,1.199-7.02,0.659-10.6-2.261c-0.23-0.148-0.45-0.31-0.67-0.47       c-0.65-0.471-1.23-0.971-1.73-1.5c-0.38-0.392-0.72-0.79-1.03-1.2c-0.06-0.08-0.108-0.16-0.17-0.24       c-0.14-0.199-0.27-0.39-0.38-0.59c-0.24-0.39-0.438-0.79-0.609-1.199c-0.261-0.608-0.449-1.239-0.569-1.881       C298.543,288.844,298.593,287.332,298.923,285.792z M265.523,284.212c1.37-1.42,2.882-2.75,4.512-3.979       c3.229-2.439,6.738-4.3,10.37-5.602l0.43,0.102c0.29,0.28,0.58,0.561,0.85,0.84c5.142,5.21,7.74,11.102,6.12,16.063       c-0.13,0.39-0.28,0.778-0.47,1.158c-0.18,0.392-0.4,0.771-0.641,1.142c-0.841,1.3-2.039,2.5-3.631,3.568       c-5.619,4.722-11.488,3.439-16.26-1.329c-1.859-1.852-3.54-4.222-4.979-6.961l-0.062-0.521       C262.893,287.122,264.143,285.622,265.523,284.212z M277.203,325.352c-0.222,0.55-0.48,1.08-0.812,1.59       c-0.41,0.67-0.92,1.311-1.51,1.92c-2.77,2.851-7.28,4.771-12.64,5.61l-0.5-0.11c-2.271-3.149-4.08-6.68-5.352-10.54       c-1.108-3.38-1.75-6.8-1.92-10.18c-0.03-0.479-0.04-0.96-0.05-1.44l0.01-0.01l0.21-0.38c0.5-0.26,0.99-0.51,1.49-0.74       c0.99-0.46,1.97-0.859,2.94-1.199c0.238-0.08,0.479-0.16,0.72-0.239c0.17-0.062,0.34-0.109,0.51-0.159       c0.13-0.03,0.25-0.07,0.37-0.102c5.07-1.431,9.69-1.011,12.82,1.779c0.438,0.391,0.85,0.83,1.229,1.311       c0.181,0.25,0.36,0.512,0.54,0.779c0.53,0.801,0.97,1.71,1.32,2.74c0.12,0.34,0.229,0.688,0.33,1.05       C278.133,320.183,278.143,322.962,277.203,325.352z M305.563,348.531l-0.25,0.45c-3.698,1.148-7.63,1.76-11.688,1.76       c-4.07,0-7.98-0.609-11.66-1.75l-0.29-0.34c-0.08-0.46-0.14-0.91-0.2-1.359c-0.12-0.898-0.188-1.79-0.229-2.648       c-0.12-2.54,0.1-4.9,0.67-6.972c0.1-0.431,0.239-0.851,0.39-1.25c0.09-0.238,0.18-0.488,0.29-0.721       c0.07-0.199,0.15-0.397,0.26-0.59c0.062-0.14,0.131-0.279,0.2-0.42c0.29-0.55,0.61-1.062,0.97-1.529       c0.12-0.16,0.24-0.311,0.37-0.461c0.25-0.3,0.521-0.59,0.801-0.85c0.279-0.271,0.591-0.521,0.899-0.74       c0.24-0.18,0.48-0.34,0.74-0.5c0.26-0.149,0.52-0.29,0.79-0.42c0.188-0.09,0.37-0.17,0.56-0.25       c0.19-0.069,0.392-0.149,0.58-0.21c0.3-0.102,0.602-0.189,0.92-0.271c0.312-0.068,0.63-0.141,0.972-0.188c0.01,0,0.01,0,0.01,0       c0.319-0.05,0.66-0.09,1.01-0.12h0.03c0.34-0.029,0.688-0.04,1.05-0.04c0.28,0,0.56,0.011,0.85,0.021h0.021       C303.773,328.602,307.364,337.582,305.563,348.531z M332.833,311.893c-0.021,2.898-0.37,5.83-1.08,8.76       c-0.23,0.971-0.51,1.931-0.82,2.9c-0.29,0.908-0.608,1.8-0.96,2.67c-0.35,0.87-0.72,1.72-1.13,2.55       c-0.27,0.561-0.55,1.09-0.84,1.63v0.011c-0.24,0.432-0.48,0.852-0.73,1.261c-0.5,0.851-1.028,1.659-1.59,2.438l-0.42,0.181       c-4.729-0.698-8.82-2.229-11.648-4.521c-0.41-0.32-0.79-0.66-1.142-1.021c-0.148-0.141-0.29-0.301-0.43-0.46       c-0.63-0.698-1.15-1.46-1.562-2.271c-0.14-0.26-0.27-0.53-0.38-0.812c-0.75-1.891-0.91-4.05-0.318-6.438       c0.1-0.399,0.22-0.812,0.358-1.21v-0.01c0.07-0.21,0.13-0.4,0.21-0.603c0.182-0.659,0.38-1.27,0.61-1.85       c0.2-0.479,0.42-0.932,0.66-1.36c0.028-0.079,0.08-0.147,0.12-0.229c0.08-0.142,0.17-0.271,0.26-0.41       c0.34-0.54,0.72-1.03,1.14-1.472v-0.01c0.13-0.141,0.262-0.271,0.4-0.391c4.27-4.102,11.53-3.53,18.938,0.28l0.352,0.368       L332.833,311.893L332.833,311.893z" outline-element="true" stroke="#000000" stroke-width="0.5" g2gstroke="#312783" stroke-miterlimit="10"/>
					
						<radialGradient gradientTransform="matrix(1 0 0 1 0.21 -0.0811)" gradientUnits="userSpaceOnUse" xmlns:xlink="http://www.w3.org/1999/xlink" xlink:type="simple" cx="265.9363" r="12.3528" xlink:actuate="onLoad" id="2::SVGID_39_" cy="321.6023" xlink:show="other">
						<stop stop-color="#FFFFFF" offset="0.1576"/>
						<stop stop-opacity="0.6" stop-color="#FFFFFF" offset="0.2788"/>
						<stop stop-opacity="0.4" stop-color="#FFFFFF" offset="0.3152"/>
						<stop stop-opacity="0.4" stop-color="#FFFFFF" offset="0.9515"/>
						<stop stop-color="#FFFFFF" offset="1"/>
					</radialGradient>
					<path orgstroke="#000000" orgfill="url(#2::SVGID_39_)" fill="url(#2::SVGID_39_)" d="M276.913,317.031       c1.22,3.15,1.229,5.931,0.29,8.32c-0.222,0.55-0.48,1.08-0.812,1.59c-0.41,0.67-0.92,1.311-1.51,1.92       c-2.77,2.851-7.28,4.771-12.64,5.61l-0.5-0.11c-2.271-3.149-4.08-6.68-5.352-10.54c-1.108-3.38-1.75-6.8-1.92-10.18       c-0.03-0.479-0.04-0.96-0.05-1.44l0.01-0.01l0.21-0.38c0.5-0.26,0.99-0.51,1.49-0.74c0.98-0.46,1.97-0.859,2.94-1.199       c0.238-0.08,0.479-0.16,0.72-0.24c0.17-0.05,0.34-0.101,0.51-0.158c0.13-0.03,0.25-0.07,0.37-0.102       c5.07-1.431,9.69-1.011,12.82,1.779c0.438,0.391,0.85,0.83,1.229,1.311c0.181,0.25,0.36,0.512,0.54,0.779       c0.53,0.801,0.97,1.71,1.32,2.74C276.703,316.321,276.813,316.672,276.913,317.031z" outline-element="true" stroke="#000000" stroke-width="0.5" g2gstroke="#312783" stroke-miterlimit="10"/>
					
						<radialGradient gradientTransform="matrix(1 0 0 1 0.21 -0.0811)" gradientUnits="userSpaceOnUse" xmlns:xlink="http://www.w3.org/1999/xlink" xlink:type="simple" cx="274.8118" r="13.089" xlink:actuate="onLoad" id="2::SVGID_40_" cy="287.6282" xlink:show="other">
						<stop stop-color="#FFFFFF" offset="0.1576"/>
						<stop stop-opacity="0.6" stop-color="#FFFFFF" offset="0.2788"/>
						<stop stop-opacity="0.4" stop-color="#FFFFFF" offset="0.3152"/>
						<stop stop-opacity="0.4" stop-color="#FFFFFF" offset="0.9515"/>
						<stop stop-color="#FFFFFF" offset="1"/>
					</radialGradient>
					<path orgstroke="#000000" orgfill="url(#2::SVGID_40_)" fill="url(#2::SVGID_40_)" d="M280.833,274.731       c0.29,0.28,0.58,0.561,0.85,0.84c5.142,5.21,7.74,11.101,6.12,16.061c-0.13,0.392-0.28,0.78-0.47,1.16       c-0.18,0.392-0.4,0.771-0.642,1.142c-0.84,1.3-2.038,2.5-3.63,3.568c-5.62,4.722-11.488,3.439-16.26-1.33       c-1.86-1.851-3.54-4.221-4.979-6.96l-0.062-0.521c1.13-1.569,2.38-3.069,3.76-4.479c1.37-1.42,2.882-2.75,4.512-3.979       c3.229-2.439,6.738-4.3,10.37-5.602L280.833,274.731z" outline-element="true" stroke="#000000" stroke-width="0.5" g2gstroke="#312783" stroke-miterlimit="10"/>
					
						<radialGradient gradientTransform="matrix(1 0 0 1 0.21 -0.0811)" gradientUnits="userSpaceOnUse" xmlns:xlink="http://www.w3.org/1999/xlink" xlink:type="simple" cx="283.2683" r="18.3009" xlink:actuate="onLoad" id="2::SVGID_41_" cy="269.7429" xlink:show="other">
						<stop stop-color="#FFFFFF" offset="0.1576"/>
						<stop stop-opacity="0.6" stop-color="#FFFFFF" offset="0.2788"/>
						<stop stop-opacity="0.4" stop-color="#FFFFFF" offset="0.3152"/>
						<stop stop-opacity="0.4" stop-color="#FFFFFF" offset="0.9515"/>
						<stop stop-color="#FFFFFF" offset="1"/>
					</radialGradient>
					<path orgstroke="#000000" orgfill="url(#2::SVGID_41_)" fill="url(#2::SVGID_41_)" d="M293.614,262.422       c-13.66,0-26.03,5.54-34.98,14.49c8.94-8.961,21.312-14.5,34.98-14.5c5.118,0,10.06,0.779,14.71,2.229       C303.673,263.201,298.733,262.422,293.614,262.422z" outline-element="true" stroke="#000000" stroke-width="0.5" g2gstroke="#312783" stroke-miterlimit="10"/>
					
						<radialGradient gradientTransform="matrix(1 0 0 1 0.21 -0.0811)" gradientUnits="userSpaceOnUse" xmlns:xlink="http://www.w3.org/1999/xlink" xlink:type="simple" cx="293.4011" r="11.6334" xlink:actuate="onLoad" id="2::SVGID_42_" cy="340.0066" xlink:show="other">
						<stop stop-color="#FFFFFF" offset="0.1576"/>
						<stop stop-opacity="0.6" stop-color="#FFFFFF" offset="0.2788"/>
						<stop stop-opacity="0.4" stop-color="#FFFFFF" offset="0.3152"/>
						<stop stop-opacity="0.4" stop-color="#FFFFFF" offset="0.9515"/>
						<stop stop-color="#FFFFFF" offset="1"/>
					</radialGradient>
					<path orgstroke="#000000" orgfill="url(#2::SVGID_42_)" fill="url(#2::SVGID_42_)" d="M305.563,348.531l-0.25,0.45       c-3.698,1.148-7.63,1.76-11.688,1.76c-4.07,0-7.98-0.609-11.66-1.75l-0.29-0.34c-0.08-0.46-0.14-0.91-0.2-1.359       c-0.12-0.898-0.188-1.79-0.229-2.648c-0.12-2.54,0.1-4.9,0.67-6.972c0.1-0.431,0.239-0.851,0.39-1.25       c0.08-0.238,0.18-0.479,0.29-0.721c0.07-0.199,0.15-0.397,0.26-0.59c0.062-0.14,0.131-0.279,0.2-0.42       c0.29-0.55,0.61-1.062,0.97-1.529c0.12-0.16,0.24-0.311,0.37-0.461c0.25-0.3,0.521-0.59,0.801-0.85       c0.29-0.261,0.591-0.521,0.899-0.74c0.24-0.18,0.48-0.34,0.74-0.5c0.26-0.149,0.52-0.29,0.79-0.42       c0.188-0.09,0.37-0.17,0.56-0.25c0.19-0.069,0.392-0.149,0.58-0.21c0.3-0.102,0.61-0.189,0.92-0.271       c0.32-0.079,0.642-0.141,0.972-0.188c0.01,0,0.01,0,0.01,0c0.33-0.05,0.66-0.09,1.01-0.12h0.03       c0.34-0.029,0.688-0.04,1.05-0.04c0.28,0,0.56,0.011,0.85,0.021h0.021C303.773,328.602,307.364,337.582,305.563,348.531z" outline-element="true" stroke="#000000" stroke-width="0.5" g2gstroke="#312783" stroke-miterlimit="10"/>
					
						<radialGradient gradientTransform="matrix(1 0 0 1 0.21 -0.0811)" gradientUnits="userSpaceOnUse" xmlns:xlink="http://www.w3.org/1999/xlink" xlink:type="simple" cx="312.0237" r="2.9852" xlink:actuate="onLoad" id="2::SVGID_43_" cy="266.3186" xlink:show="other">
						<stop stop-color="#FFFFFF" offset="0.1576"/>
						<stop stop-opacity="0.6" stop-color="#FFFFFF" offset="0.2788"/>
						<stop stop-opacity="0.4" stop-color="#FFFFFF" offset="0.3152"/>
						<stop stop-opacity="0.4" stop-color="#FFFFFF" offset="0.9515"/>
						<stop stop-color="#FFFFFF" offset="1"/>
					</radialGradient>
					<path orgstroke="#000000" orgfill="url(#2::SVGID_43_)" fill="url(#2::SVGID_43_)" d="M316.143,267.832       c-2.488-1.271-5.1-2.341-7.818-3.188C311.043,265.481,313.654,266.553,316.143,267.832z" outline-element="true" stroke="#000000" stroke-width="0.5" g2gstroke="#312783" stroke-miterlimit="10"/>
					
						<radialGradient gradientTransform="matrix(1 0 0 1 0.21 -0.0811)" gradientUnits="userSpaceOnUse" xmlns:xlink="http://www.w3.org/1999/xlink" xlink:type="simple" cx="317.4978" r="1.2678" xlink:actuate="onLoad" id="2::SVGID_44_" cy="268.7878" xlink:show="other">
						<stop stop-color="#FFFFFF" offset="0.1576"/>
						<stop stop-opacity="0.6" stop-color="#FFFFFF" offset="0.2788"/>
						<stop stop-opacity="0.4" stop-color="#FFFFFF" offset="0.3152"/>
						<stop stop-opacity="0.4" stop-color="#FFFFFF" offset="0.9515"/>
						<stop stop-color="#FFFFFF" offset="1"/>
					</radialGradient>
					<path orgstroke="#000000" orgfill="url(#2::SVGID_44_)" fill="url(#2::SVGID_44_)" d="M319.273,269.582       c-1.02-0.62-2.06-1.2-3.13-1.75C317.213,268.372,318.253,268.962,319.273,269.582z" outline-element="true" stroke="#000000" stroke-width="0.5" g2gstroke="#312783" stroke-miterlimit="10"/>
					
						<radialGradient gradientTransform="matrix(1 0 0 1 0.21 -0.0811)" gradientUnits="userSpaceOnUse" xmlns:xlink="http://www.w3.org/1999/xlink" xlink:type="simple" cx="321.5076" r="2.1045" xlink:actuate="onLoad" id="2::SVGID_45_" cy="271.3586" xlink:show="other">
						<stop stop-color="#FFFFFF" offset="0.1576"/>
						<stop stop-opacity="0.6" stop-color="#FFFFFF" offset="0.2788"/>
						<stop stop-opacity="0.4" stop-color="#FFFFFF" offset="0.3152"/>
						<stop stop-opacity="0.4" stop-color="#FFFFFF" offset="0.9515"/>
						<stop stop-color="#FFFFFF" offset="1"/>
					</radialGradient>
					<path orgstroke="#000000" orgfill="url(#2::SVGID_45_)" fill="url(#2::SVGID_45_)" d="M324.163,272.973       c-1.562-1.222-3.19-2.352-4.892-3.392C320.973,270.611,322.603,271.741,324.163,272.973z" outline-element="true" stroke="#000000" stroke-width="0.5" g2gstroke="#312783" stroke-miterlimit="10"/>
					
						<radialGradient gradientTransform="matrix(1 0 0 1 0.21 -0.0811)" gradientUnits="userSpaceOnUse" xmlns:xlink="http://www.w3.org/1999/xlink" xlink:type="simple" cx="311.6931" r="13.0751" xlink:actuate="onLoad" id="2::SVGID_46_" cy="287.4133" xlink:show="other">
						<stop stop-color="#FFFFFF" offset="0.1576"/>
						<stop stop-opacity="0.6" stop-color="#FFFFFF" offset="0.2788"/>
						<stop stop-opacity="0.4" stop-color="#FFFFFF" offset="0.3152"/>
						<stop stop-opacity="0.4" stop-color="#FFFFFF" offset="0.9515"/>
						<stop stop-color="#FFFFFF" offset="1"/>
					</radialGradient>
					<path orgstroke="#000000" orgfill="url(#2::SVGID_46_)" fill="url(#2::SVGID_46_)" d="M324.573,287.473       c0.188,0.25,0.368,0.5,0.56,0.738l0.03,0.439c-0.222,0.431-0.44,0.86-0.67,1.271c-0.24,0.41-0.472,0.83-0.7,1.222       c-0.25,0.398-0.5,0.778-0.75,1.148c-0.01,0,0,0.012,0,0.012c-0.26,0.368-0.51,0.729-0.771,1.078       c-0.528,0.711-1.068,1.359-1.63,1.979c-0.278,0.301-0.56,0.58-0.85,0.88c-0.65,0.631-1.32,1.19-2.01,1.681       c-0.342,0.25-0.69,0.479-1.04,0.682c-0.7,0.42-1.42,0.76-2.15,1.021c-3.38,1.199-7.02,0.659-10.6-2.261       c-0.23-0.149-0.45-0.31-0.67-0.47c-0.65-0.472-1.23-0.972-1.73-1.5c-0.38-0.392-0.72-0.79-1.03-1.2       c-0.06-0.08-0.108-0.16-0.17-0.24c-0.14-0.199-0.27-0.39-0.38-0.59c-0.24-0.39-0.438-0.79-0.61-1.199       c-0.26-0.608-0.448-1.239-0.568-1.881c-0.29-1.438-0.24-2.949,0.09-4.489c0.09-0.42,0.21-0.851,0.34-1.278c0,0,0,0,0-0.012       c0.14-0.431,0.29-0.858,0.47-1.29c0-0.011,0.012,0,0.012,0v-0.011c0.09-0.21,0.18-0.43,0.278-0.647       c0.29-0.642,0.642-1.302,1.021-1.95c0-0.011,0.01-0.011,0.01-0.011c0.15-0.25,0.3-0.511,0.47-0.761       c1.13-1.771,2.58-3.521,4.28-5.188h0.01l0.48-0.2c2.438,0.84,4.84,1.931,7.148,3.3c0.7,0.4,1.392,0.83,2.07,1.29       c0.42,0.29,0.84,0.58,1.25,0.881c1.63,1.189,3.15,2.5,4.54,3.88h0.01c1.04,1.04,2.03,2.131,2.94,3.271       C324.364,287.201,324.463,287.332,324.573,287.473z" outline-element="true" stroke="#000000" stroke-width="0.5" g2gstroke="#312783" stroke-miterlimit="10"/>
					
						<radialGradient gradientTransform="matrix(1 0 0 1 0.21 -0.0811)" gradientUnits="userSpaceOnUse" xmlns:xlink="http://www.w3.org/1999/xlink" xlink:type="simple" cx="320.9182" r="12.3433" xlink:actuate="onLoad" id="2::SVGID_47_" cy="321.4246" xlink:show="other">
						<stop stop-color="#FFFFFF" offset="0.1576"/>
						<stop stop-opacity="0.6" stop-color="#FFFFFF" offset="0.2788"/>
						<stop stop-opacity="0.4" stop-color="#FFFFFF" offset="0.3152"/>
						<stop stop-opacity="0.4" stop-color="#FFFFFF" offset="0.9515"/>
						<stop stop-color="#FFFFFF" offset="1"/>
					</radialGradient>
					<path orgstroke="#000000" orgfill="url(#2::SVGID_47_)" fill="url(#2::SVGID_47_)" d="M332.833,311.893       c-0.021,2.898-0.37,5.83-1.08,8.76c-0.23,0.971-0.51,1.931-0.82,2.9c-0.29,0.908-0.608,1.8-0.96,2.67       c-0.35,0.87-0.72,1.72-1.13,2.55c-0.27,0.561-0.55,1.09-0.84,1.63v0.011c-0.24,0.432-0.48,0.852-0.73,1.261       c-0.5,0.851-1.028,1.659-1.59,2.438l-0.42,0.181c-4.729-0.698-8.82-2.229-11.648-4.521c-0.41-0.32-0.79-0.66-1.142-1.021       c-0.148-0.141-0.29-0.301-0.43-0.46c-0.63-0.698-1.15-1.46-1.562-2.271c-0.14-0.26-0.26-0.53-0.38-0.812       c-0.75-1.891-0.91-4.05-0.318-6.438c0.1-0.399,0.22-0.812,0.358-1.21v-0.01c0.062-0.2,0.13-0.4,0.21-0.603       c0.182-0.659,0.38-1.27,0.61-1.85c0.2-0.479,0.41-0.932,0.66-1.36c0.028-0.079,0.08-0.147,0.12-0.229       c0.08-0.142,0.17-0.271,0.26-0.41c0.34-0.54,0.72-1.03,1.14-1.472v-0.01c0.13-0.141,0.262-0.271,0.4-0.391       c4.27-4.102,11.53-3.53,18.938,0.28l0.352,0.368L332.833,311.893L332.833,311.893z" outline-element="true" stroke="#000000" stroke-width="0.5" g2gstroke="#312783" stroke-miterlimit="10"/>
					
						<radialGradient gradientTransform="matrix(1 0 0 1 0.21 -0.0811)" gradientUnits="userSpaceOnUse" xmlns:xlink="http://www.w3.org/1999/xlink" xlink:type="simple" cx="332.8484" r="1.0498" xlink:actuate="onLoad" id="2::SVGID_48_" cy="341.7976" xlink:show="other">
						<stop stop-color="#FFFFFF" offset="0.1576"/>
						<stop stop-opacity="0.6" stop-color="#FFFFFF" offset="0.2788"/>
						<stop stop-opacity="0.4" stop-color="#FFFFFF" offset="0.3152"/>
						<stop stop-opacity="0.4" stop-color="#FFFFFF" offset="0.9515"/>
						<stop stop-color="#FFFFFF" offset="1"/>
					</radialGradient>
					<path orgstroke="#000000" orgfill="url(#2::SVGID_48_)" fill="url(#2::SVGID_48_)" d="M333.253,341.491       c0.24-0.319,0.47-0.64,0.7-0.96c-0.23,0.32-0.46,0.641-0.69,0.96c-0.358,0.48-0.729,0.94-1.1,1.41       C332.533,342.433,332.893,341.973,333.253,341.491z" outline-element="true" stroke="#000000" stroke-width="0.5" g2gstroke="#312783" stroke-miterlimit="10"/>
					
						<radialGradient gradientTransform="matrix(1 0 0 1 0.21 -0.0811)" gradientUnits="userSpaceOnUse" xmlns:xlink="http://www.w3.org/1999/xlink" xlink:type="simple" cx="338.7234" r="1.2733" xlink:actuate="onLoad" id="2::SVGID_49_" cy="331.7742" xlink:show="other">
						<stop stop-color="#FFFFFF" offset="0.1576"/>
						<stop stop-opacity="0.6" stop-color="#FFFFFF" offset="0.2788"/>
						<stop stop-opacity="0.4" stop-color="#FFFFFF" offset="0.3152"/>
						<stop stop-opacity="0.4" stop-color="#FFFFFF" offset="0.9515"/>
						<stop stop-color="#FFFFFF" offset="1"/>
					</radialGradient>
					<path orgstroke="#000000" orgfill="url(#2::SVGID_49_)" fill="url(#2::SVGID_49_)" d="M338.213,333.344       c0.52-1.08,1-2.182,1.44-3.302C339.223,331.162,338.733,332.263,338.213,333.344z" outline-element="true" stroke="#000000" stroke-width="0.5" g2gstroke="#312783" stroke-miterlimit="10"/>
					
						<radialGradient gradientTransform="matrix(1 0 0 1 0.21 -0.0811)" gradientUnits="userSpaceOnUse" xmlns:xlink="http://www.w3.org/1999/xlink" xlink:type="simple" cx="340.5432" r="1.0791" xlink:actuate="onLoad" id="2::SVGID_50_" cy="326.9695" xlink:show="other">
						<stop stop-color="#FFFFFF" offset="0.1576"/>
						<stop stop-opacity="0.6" stop-color="#FFFFFF" offset="0.2788"/>
						<stop stop-opacity="0.4" stop-color="#FFFFFF" offset="0.3152"/>
						<stop stop-opacity="0.4" stop-color="#FFFFFF" offset="0.9515"/>
						<stop stop-color="#FFFFFF" offset="1"/>
					</radialGradient>
					<path orgstroke="#000000" orgfill="url(#2::SVGID_50_)" fill="url(#2::SVGID_50_)" d="M341.213,325.433       c-0.1,0.398-0.22,0.778-0.34,1.17c-0.18,0.58-0.37,1.16-0.58,1.74c0.2-0.57,0.39-1.15,0.57-1.73       C340.983,326.223,341.093,325.832,341.213,325.433z" outline-element="true" stroke="#000000" stroke-width="0.5" g2gstroke="#312783" stroke-miterlimit="10"/>
					
						<radialGradient gradientTransform="matrix(1 0 0 1 0.21 -0.0811)" gradientUnits="userSpaceOnUse" xmlns:xlink="http://www.w3.org/1999/xlink" xlink:type="simple" cx="293.4011" r="11.6334" xlink:actuate="onLoad" id="2::SVGID_51_" cy="340.0066" xlink:show="other">
						<stop stop-color="#FFFFFF" offset="0.1576"/>
						<stop stop-opacity="0.6" stop-color="#FFFFFF" offset="0.2788"/>
						<stop stop-opacity="0.4" stop-color="#FFFFFF" offset="0.3152"/>
						<stop stop-opacity="0.4" stop-color="#FFFFFF" offset="0.9515"/>
						<stop stop-color="#FFFFFF" offset="1"/>
					</radialGradient>
					<path orgstroke="#000000" orgfill="url(#2::SVGID_51_)" fill="url(#2::SVGID_51_)" d="M305.563,348.531l-0.25,0.45       c-3.698,1.148-7.63,1.76-11.688,1.76c-4.07,0-7.98-0.609-11.66-1.75l-0.29-0.34c-0.08-0.46-0.14-0.91-0.2-1.359       c-0.12-0.898-0.188-1.79-0.229-2.648c-0.12-2.54,0.1-4.9,0.67-6.972c0.1-0.431,0.239-0.851,0.39-1.25       c0.08-0.238,0.18-0.479,0.29-0.721c0.07-0.199,0.15-0.397,0.26-0.59c0.062-0.14,0.131-0.279,0.2-0.42       c0.29-0.55,0.61-1.062,0.97-1.529c0.12-0.16,0.24-0.311,0.37-0.461c0.25-0.3,0.521-0.59,0.801-0.85       c0.29-0.261,0.591-0.521,0.899-0.74c0.24-0.18,0.48-0.34,0.74-0.5c0.26-0.149,0.52-0.279,0.79-0.41       c0.18-0.09,0.37-0.18,0.56-0.26c0.19-0.069,0.392-0.149,0.58-0.21c0.3-0.102,0.61-0.189,0.92-0.271       c0.32-0.079,0.642-0.141,0.972-0.188c0.01,0,0.01,0,0.01,0c0.33-0.05,0.66-0.09,1.01-0.12h0.03       c0.34-0.029,0.688-0.04,1.05-0.04c0.28,0,0.56,0.011,0.85,0.021h0.021C303.773,328.602,307.364,337.582,305.563,348.531z" outline-element="true" stroke="#000000" stroke-width="0.5" g2gstroke="#312783" stroke-miterlimit="10"/>
					
						<radialGradient gradientTransform="matrix(1 0 0 1 0.21 -0.0811)" gradientUnits="userSpaceOnUse" xmlns:xlink="http://www.w3.org/1999/xlink" xlink:type="simple" cx="320.9182" r="12.3408" xlink:actuate="onLoad" id="2::SVGID_52_" cy="321.4294" xlink:show="other">
						<stop stop-color="#FFFFFF" offset="0.1576"/>
						<stop stop-opacity="0.6" stop-color="#FFFFFF" offset="0.2788"/>
						<stop stop-opacity="0.4" stop-color="#FFFFFF" offset="0.3152"/>
						<stop stop-opacity="0.4" stop-color="#FFFFFF" offset="0.9515"/>
						<stop stop-color="#FFFFFF" offset="1"/>
					</radialGradient>
					<path orgstroke="#000000" orgfill="url(#2::SVGID_52_)" fill="url(#2::SVGID_52_)" d="M332.833,311.882v0.012       c-0.021,2.898-0.37,5.83-1.08,8.76c-0.23,0.971-0.51,1.931-0.82,2.9c-0.29,0.908-0.608,1.8-0.96,2.67       c-0.35,0.87-0.729,1.729-1.13,2.55c-0.27,0.561-0.55,1.09-0.84,1.63v0.011c-0.24,0.432-0.48,0.852-0.73,1.26       c-0.5,0.852-1.028,1.66-1.59,2.439l-0.42,0.181c-4.729-0.698-8.82-2.229-11.648-4.521c-0.41-0.32-0.79-0.66-1.142-1.021       c-0.148-0.141-0.29-0.301-0.43-0.46c-0.63-0.698-1.15-1.46-1.562-2.271c-0.14-0.26-0.26-0.53-0.38-0.812       c-0.75-1.891-0.91-4.05-0.318-6.438c0.1-0.399,0.22-0.812,0.358-1.21v-0.01c0.062-0.2,0.13-0.4,0.21-0.603       c0.182-0.659,0.38-1.27,0.61-1.85c0.2-0.479,0.41-0.932,0.66-1.36c0.028-0.079,0.08-0.148,0.12-0.229       c0.08-0.142,0.17-0.271,0.26-0.41c0.34-0.54,0.72-1.03,1.14-1.472c0.13-0.141,0.262-0.271,0.4-0.398       c4.27-4.09,11.53-3.521,18.93,0.29L332.833,311.882z" outline-element="true" stroke="#000000" stroke-width="0.5" g2gstroke="#312783" stroke-miterlimit="10"/>
					
						<radialGradient gradientTransform="matrix(1 0 0 1 0.21 -0.0811)" gradientUnits="userSpaceOnUse" xmlns:xlink="http://www.w3.org/1999/xlink" xlink:type="simple" cx="311.6882" r="13.0721" xlink:actuate="onLoad" id="2::SVGID_53_" cy="287.4124" xlink:show="other">
						<stop stop-color="#FFFFFF" offset="0.1576"/>
						<stop stop-opacity="0.6" stop-color="#FFFFFF" offset="0.2788"/>
						<stop stop-opacity="0.4" stop-color="#FFFFFF" offset="0.3152"/>
						<stop stop-opacity="0.4" stop-color="#FFFFFF" offset="0.9515"/>
						<stop stop-color="#FFFFFF" offset="1"/>
					</radialGradient>
					<path orgstroke="#000000" orgfill="url(#2::SVGID_53_)" fill="url(#2::SVGID_53_)" d="M325.154,288.651       c-0.222,0.431-0.44,0.86-0.672,1.271c-0.229,0.411-0.47,0.819-0.698,1.222c-0.25,0.39-0.49,0.778-0.74,1.148       c-0.01,0,0,0.012,0,0.012c-0.26,0.368-0.51,0.729-0.771,1.078c-0.528,0.712-1.068,1.359-1.63,1.979       c-0.278,0.301-0.56,0.58-0.85,0.88c-0.65,0.631-1.32,1.19-2.01,1.681c-0.342,0.24-0.69,0.472-1.04,0.682       c-0.7,0.42-1.42,0.76-2.15,1.021c-3.38,1.199-7.02,0.649-10.6-2.271c-0.23-0.15-0.45-0.3-0.67-0.46       c-0.65-0.472-1.23-0.972-1.73-1.5c-0.38-0.392-0.72-0.79-1.03-1.2c-0.06-0.08-0.108-0.16-0.17-0.24       c-0.14-0.199-0.27-0.39-0.38-0.59c-0.24-0.39-0.438-0.79-0.61-1.199c-0.26-0.608-0.448-1.239-0.568-1.881       c-0.29-1.438-0.24-2.949,0.09-4.489c0.09-0.42,0.21-0.851,0.34-1.278c0,0,0,0,0-0.012c0.141-0.431,0.29-0.858,0.47-1.29       c0-0.011,0.012,0,0.012,0v-0.011c0.09-0.21,0.18-0.43,0.278-0.647c0.29-0.642,0.642-1.302,1.021-1.95       c0-0.011,0.01-0.011,0.01-0.011c0.15-0.25,0.3-0.511,0.47-0.761c1.131-1.771,2.58-3.521,4.28-5.188h0.01l0.48-0.2       c2.438,0.84,4.84,1.931,7.148,3.3c0.7,0.4,1.392,0.83,2.07,1.29c0.42,0.29,0.84,0.58,1.25,0.881c1.63,1.189,3.15,2.5,4.54,3.88       c1.05,1.04,2.03,2.142,2.94,3.271c0.108,0.13,0.22,0.271,0.33,0.41c0.188,0.25,0.368,0.5,0.56,0.738L325.154,288.651z" outline-element="true" stroke="#000000" stroke-width="0.5" g2gstroke="#312783" stroke-miterlimit="10"/>
					
						<radialGradient gradientTransform="matrix(1 0 0 1 0.21 -0.0811)" gradientUnits="userSpaceOnUse" xmlns:xlink="http://www.w3.org/1999/xlink" xlink:type="simple" cx="274.8118" r="13.0866" xlink:actuate="onLoad" id="2::SVGID_54_" cy="287.6331" xlink:show="other">
						<stop stop-color="#FFFFFF" offset="0.1576"/>
						<stop stop-opacity="0.6" stop-color="#FFFFFF" offset="0.2788"/>
						<stop stop-opacity="0.4" stop-color="#FFFFFF" offset="0.3152"/>
						<stop stop-opacity="0.4" stop-color="#FFFFFF" offset="0.9515"/>
						<stop stop-color="#FFFFFF" offset="1"/>
					</radialGradient>
					<path orgstroke="#000000" orgfill="url(#2::SVGID_54_)" fill="url(#2::SVGID_54_)" d="M287.803,291.632       c-0.13,0.392-0.28,0.78-0.47,1.16c-0.18,0.392-0.4,0.771-0.642,1.142c-0.84,1.3-2.038,2.5-3.63,3.568       c-5.62,4.722-11.488,3.439-16.26-1.33c-1.86-1.851-3.54-4.221-4.979-6.96l-0.062-0.521c1.13-1.569,2.38-3.069,3.76-4.479       c1.382-1.42,2.882-2.738,4.512-3.971c3.229-2.438,6.738-4.3,10.37-5.6l0.43,0.1c0.29,0.271,0.57,0.551,0.85,0.83       C286.823,280.781,289.423,286.672,287.803,291.632z" outline-element="true" stroke="#000000" stroke-width="0.5" g2gstroke="#312783" stroke-miterlimit="10"/>
					
						<radialGradient gradientTransform="matrix(1 0 0 1 0.21 -0.0811)" gradientUnits="userSpaceOnUse" xmlns:xlink="http://www.w3.org/1999/xlink" xlink:type="simple" cx="265.9368" r="12.3513" xlink:actuate="onLoad" id="2::SVGID_55_" cy="321.6062" xlink:show="other">
						<stop stop-color="#FFFFFF" offset="0.1576"/>
						<stop stop-opacity="0.6" stop-color="#FFFFFF" offset="0.2788"/>
						<stop stop-opacity="0.4" stop-color="#FFFFFF" offset="0.3152"/>
						<stop stop-opacity="0.4" stop-color="#FFFFFF" offset="0.9515"/>
						<stop stop-color="#FFFFFF" offset="1"/>
					</radialGradient>
					<path orgstroke="#000000" orgfill="url(#2::SVGID_55_)" fill="url(#2::SVGID_55_)" d="M277.203,325.352       c-0.222,0.55-0.48,1.08-0.812,1.59c-0.41,0.67-0.92,1.311-1.51,1.92c-2.77,2.851-7.28,4.771-12.64,5.61l-0.5-0.11       c-2.271-3.149-4.08-6.68-5.352-10.54c-1.108-3.38-1.75-6.8-1.92-10.18c-0.03-0.479-0.04-0.96-0.05-1.44l0.01-0.01l0.21-0.38       c0.5-0.26,0.99-0.51,1.49-0.74c0.98-0.46,1.97-0.859,2.94-1.199c0.238-0.08,0.479-0.16,0.72-0.239       c0.17-0.051,0.34-0.102,0.51-0.159c0.13-0.03,0.25-0.07,0.37-0.102c5.07-1.421,9.68-1,12.82,1.779       c0.43,0.391,0.84,0.83,1.229,1.311c0.181,0.25,0.36,0.512,0.54,0.779c0.521,0.801,0.96,1.71,1.32,2.74       c0.12,0.34,0.229,0.688,0.33,1.05C278.133,320.183,278.143,322.962,277.203,325.352z" outline-element="true" stroke="#000000" stroke-width="0.5" g2gstroke="#312783" stroke-miterlimit="10"/>
				</g>
			</g>
		</g>
	</g>
	<circle orgstroke="#000000" orgfill="none" stroke-linecap="round" fill="none" r="46.736" cx="293.417" cy="311.886" stroke="#000000" stroke-width="0.25" g2gstroke="#312783"/>
	<path orgstroke="#000000" stroke-linecap="round" orgfill="none" fill="none" d="M305.51,348.906l-0.188,7.854   c5.795-15.53,2.717-30.479-11.734-29.759h0.028c-14.452-0.723-17.527,14.229-11.732,29.759l-0.121-7.846" stroke="#000000" stroke-width="0.25" g2gstroke="#312783"/>
	<path orgstroke="#000000" stroke-linecap="round" orgfill="none" fill="none" d="M332.828,311.665l7.413,2.586   c-13.015-10.271-28.185-11.926-31.917,2.06l0.01-0.023c-5.118,13.537,8.167,21.043,24.728,20.281l-7.495-2.288" stroke="#000000" stroke-width="0.25" g2gstroke="#312783"/>
	<path orgstroke="#000000" stroke-linecap="round" orgfill="none" fill="none" d="M326.493,290.416   c1.313-2.544,2.422-5.392,3.277-8.443l-4.523,6.396" stroke="#000000" stroke-width="0.25" g2gstroke="#312783"/>
	<path orgstroke="#000000" stroke-linecap="round" orgfill="none" fill="none" d="M306.067,274.36l4.786-6.229   c-13.843,9.118-20.182,22.999-8.088,30.94l-0.021-0.019c9.088,7.363,18.214,2.076,23.749-8.646" stroke="#000000" stroke-width="0.25" g2gstroke="#312783"/>
	<path orgstroke="#000000" stroke-linecap="round" orgfill="none" fill="none" d="M260.373,290.714   c5.687,10.762,14.938,15.996,23.959,8.468l-0.021,0.019c11.979-8.12,5.438-21.909-8.538-30.821l4.813,6.188" stroke="#000000" stroke-width="0.25" g2gstroke="#312783"/>
	<path orgstroke="#000000" stroke-linecap="round" orgfill="none" fill="none" d="M261.63,288.862l-4.575-6.384   c0.882,2.979,2.006,5.755,3.318,8.229" stroke="#000000" stroke-width="0.25" g2gstroke="#312783"/>
	<path orgstroke="#000000" stroke-linecap="round" orgfill="none" fill="none" d="M261.854,334.533l-7.515,2.275   c16.563,0.643,29.797-6.957,24.585-20.452l0.009,0.021c-3.834-13.953-18.993-12.188-31.926-1.832l7.406-2.563" stroke="#000000" stroke-width="0.25" g2gstroke="#312783"/>
	
		<radialGradient gradientTransform="matrix(1 0 0 1 0.7798 595.1768)" gradientUnits="userSpaceOnUse" xmlns:xlink="http://www.w3.org/1999/xlink" xlink:type="simple" cx="292.8386" r="6.9922" xlink:actuate="onLoad" id="2::SVGID_56_" cy="-283.637" xlink:show="other">
		<stop stop-color="#E5E2DF" offset="0"/>
		<stop stop-color="#F1EFEE" offset="0"/>
		<stop stop-color="#FFFFFF" offset="0"/>
		<stop stop-color="#F0F0F1" offset="0.1259"/>
		<stop stop-color="#C9CACB" offset="0.3664"/>
		<stop stop-color="#ADAEB0" offset="0.5225"/>
		<stop stop-color="#A3A5A7" offset="0.6029"/>
		<stop stop-color="#898D90" offset="0.7382"/>
		<stop stop-color="#5F6769" offset="0.9108"/>
		<stop stop-color="#465053" offset="1"/>
	</radialGradient>
	<circle orgstroke="#000000" orgfill="url(#2::SVGID_56_)" stroke-linecap="round" fill="url(#2::SVGID_56_)" r="6.992" cx="293.618" cy="311.54" stroke="#000000" stroke-width="0.25" g2gstroke="#312783"/>
	<ellipse orgstroke="#000000" orgfill="#787878" fill="#787878" rx="2.837" cx="281.839" ry="2.717" cy="307.381" stroke="#000000" stroke-width="0.25" g2gstroke="#312783"/>
	
		<radialGradient gradientTransform="matrix(0.9813 -0.4243 -0.4431 -0.9396 117.6072 649.4516)" gradientUnits="userSpaceOnUse" xmlns:xlink="http://www.w3.org/1999/xlink" xlink:type="simple" cx="275.5623" r="2.6375" xlink:actuate="onLoad" id="2::SVGID_57_" cy="239.6111" xlink:show="other">
		<stop stop-color="#FFFFFF" offset="0.103"/>
		<stop stop-opacity="0" stop-color="#FFFFFF" offset="0.9152"/>
	</radialGradient>
	<path orgstroke="#000000" orgfill="url(#2::SVGID_57_)" fill="url(#2::SVGID_57_)" d="M280.671,304.905c1.428-0.616,3.109-0.009,3.755,1.359   c0.646,1.365,0.009,2.977-1.418,3.594c-1.428,0.618-3.109,0.009-3.754-1.359C278.609,307.135,279.244,305.524,280.671,304.905z" stroke="#000000" stroke-width="0.25" g2gstroke="#312783"/>
	<ellipse orgstroke="#000000" orgfill="#787878" fill="#787878" rx="2.837" cx="286.339" ry="2.717" cy="321.341" stroke="#000000" stroke-width="0.25" g2gstroke="#312783"/>
	
		<radialGradient gradientTransform="matrix(0.9813 -0.4243 -0.4431 -0.9396 117.6072 649.4516)" gradientUnits="userSpaceOnUse" xmlns:xlink="http://www.w3.org/1999/xlink" xlink:type="simple" cx="273.7986" r="2.6372" xlink:actuate="onLoad" id="2::SVGID_58_" cy="225.5496" xlink:show="other">
		<stop stop-color="#FFFFFF" offset="0.103"/>
		<stop stop-opacity="0" stop-color="#FFFFFF" offset="0.9152"/>
	</radialGradient>
	<path orgstroke="#000000" orgfill="url(#2::SVGID_58_)" fill="url(#2::SVGID_58_)" d="M285.171,318.865c1.428-0.616,3.109-0.009,3.755,1.359   c0.646,1.365,0.009,2.977-1.418,3.594c-1.428,0.618-3.109,0.009-3.754-1.359C283.109,321.094,283.744,319.484,285.171,318.865z" stroke="#000000" stroke-width="0.25" g2gstroke="#312783"/>
	<ellipse orgstroke="#000000" orgfill="#787878" fill="#787878" rx="2.839" cx="301.026" ry="2.717" cy="322.028" stroke="#000000" stroke-width="0.25" g2gstroke="#312783"/>
	
		<radialGradient gradientTransform="matrix(0.9813 -0.4243 -0.4431 -0.9396 117.6072 649.4516)" gradientUnits="userSpaceOnUse" xmlns:xlink="http://www.w3.org/1999/xlink" xlink:type="simple" cx="285.9563" r="2.6401" xlink:actuate="onLoad" id="2::SVGID_59_" cy="219.3284" xlink:show="other">
		<stop stop-color="#FFFFFF" offset="0.103"/>
		<stop stop-opacity="0" stop-color="#FFFFFF" offset="0.9152"/>
	</radialGradient>
	<path orgstroke="#000000" orgfill="url(#2::SVGID_59_)" fill="url(#2::SVGID_59_)" d="M299.858,319.554c1.43-0.616,3.109-0.011,3.757,1.357   c0.644,1.367,0.009,2.979-1.418,3.594c-1.43,0.618-3.109,0.011-3.756-1.357C297.796,321.78,298.432,320.172,299.858,319.554z" stroke="#000000" stroke-width="0.25" g2gstroke="#312783"/>
	<ellipse orgstroke="#000000" orgfill="#787878" fill="#787878" rx="2.839" cx="305.817" ry="2.717" cy="306.964" stroke="#000000" stroke-width="0.25" g2gstroke="#312783"/>
	
		<radialGradient gradientTransform="matrix(0.9813 -0.4243 -0.4431 -0.9396 117.6072 649.4516)" gradientUnits="userSpaceOnUse" xmlns:xlink="http://www.w3.org/1999/xlink" xlink:type="simple" cx="296.0247" r="2.6411" xlink:actuate="onLoad" id="2::SVGID_60_" cy="230.8142" xlink:show="other">
		<stop stop-color="#FFFFFF" offset="0.103"/>
		<stop stop-opacity="0" stop-color="#FFFFFF" offset="0.9152"/>
	</radialGradient>
	<path orgstroke="#000000" orgfill="url(#2::SVGID_60_)" fill="url(#2::SVGID_60_)" d="M304.648,304.488c1.43-0.616,3.109-0.009,3.757,1.359   c0.644,1.365,0.009,2.977-1.418,3.594c-1.43,0.618-3.109,0.009-3.756-1.359C302.586,306.716,303.222,305.107,304.648,304.488z" stroke="#000000" stroke-width="0.25" g2gstroke="#312783"/>
	<ellipse orgstroke="#000000" orgfill="#787878" fill="#787878" rx="2.837" cx="293.417" ry="2.717" cy="299.466" stroke="#000000" stroke-width="0.25" g2gstroke="#312783"/>
	
		<radialGradient gradientTransform="matrix(0.9813 -0.4243 -0.4431 -0.9396 117.6072 649.4516)" gradientUnits="userSpaceOnUse" xmlns:xlink="http://www.w3.org/1999/xlink" xlink:type="simple" cx="288.5217" r="2.6401" xlink:actuate="onLoad" id="2::SVGID_61_" cy="242.1833" xlink:show="other">
		<stop stop-color="#FFFFFF" offset="0.103"/>
		<stop stop-opacity="0" stop-color="#FFFFFF" offset="0.9152"/>
	</radialGradient>
	<path orgstroke="#000000" orgfill="url(#2::SVGID_61_)" fill="url(#2::SVGID_61_)" d="M292.249,296.99c1.428-0.616,3.107-0.009,3.755,1.359   c0.644,1.365,0.009,2.977-1.418,3.594c-1.428,0.618-3.109,0.009-3.754-1.359C290.187,299.219,290.823,297.609,292.249,296.99z" stroke="#000000" stroke-width="0.25" g2gstroke="#312783"/>
</g>
</g>
</g></svg>