<svg xmlns="http://www.w3.org/2000/svg" xmlns:xlink="http://www.w3.org/1999/xlink" xmlns:etg="http://www.eurotaxglass.com/etg/evd/" etg:dataTimestamp="1539068912893" contentScriptType="text/ecmascript" zoomAndPan="magnify" contentStyleType="text/css" id="Layer_1" style="enable-background:new 0 0 841.891 595.279;" enable-background="new 0 0 1841.891 1595.279" version="1.1" xml:space="preserve" width="1841.891px" preserveAspectRatio="xMidYMid meet" viewBox="0 0 1841.891 1595.279" height="1595.279px" x="0px" y="0px"><g xmlns="http://www.w3.org/2000/svg" objecttype="PS" tooltip="#UNDEFINED" id="54">
<g onmouseover="notifyOwner(AGV_OBJECT_MOUSEOVER, '54(PS)')" transform="translate(32.51611243057249, -6.830272338867189) translate(33.7702661590576, 18.912113525390623)" onclick="clickZoom(evt); notifyOwner(AGV_OBJECT_MOUSECLICK, '54(PS)')" onmouseout="notifyOwner(AGV_OBJECT_MOUSEOUT, '54(PS)')" tooltip="#UNDEFINED" id="54-Graphic" objecttype="GRAPHIC">
<g>
	<path orgstroke="#000000" orgfill="#ffffff" fill="#ffffff" g2gfill="#ECF5E4" stroke-linejoin="round" d="M126.094,171.553   c0.298-0.19,0.481-0.439,0.481-0.729v-1.063c0-0.271-0.188-0.521-0.479-0.704l-0.104-0.316v-3.664c0-0.367-0.563-0.665-1.268-0.665   c-0.688,0-1.264,0.298-1.264,0.665v3.664L123.281,169c-0.354,0.194-0.563,0.464-0.563,0.771v1.063c0,0.318,0.243,0.604,0.641,0.813   l0.104,0.258v0.688l0.111,0.172c0.188,0.229,0.636,0.396,1.146,0.396c0.479,0,0.879-0.136,1.104-0.336l0.163-0.229v-0.729   L126.094,171.553z" outline-element="true" stroke="#000000" stroke-width="0.5" g2gstroke="#312783" stroke-miterlimit="10"/>
	<path orgstroke="#000000" orgfill="none" fill="none" stroke-linejoin="round" d="M125.835,165.408   c-0.216,0.201-0.626,0.336-1.094,0.336c-0.521,0-0.95-0.16-1.147-0.391" stroke="#000000" stroke-width="0.25" g2gstroke="#312783" stroke-miterlimit="10"/>
	<path orgstroke="#000000" orgfill="none" fill="none" stroke-linejoin="round" d="M125.999,168.743v1.021   l-0.165,0.226c-0.216,0.201-0.626,0.336-1.094,0.336c-0.521,0-0.95-0.161-1.147-0.39l-0.111-0.171v-1.021" stroke="#000000" stroke-width="0.25" g2gstroke="#312783" stroke-miterlimit="10"/>
	<path orgstroke="#000000" orgfill="none" fill="none" stroke-linejoin="round" d="M126.535,169.981   c-0.188,0.489-0.952,0.854-1.877,0.854c-0.914,0-1.688-0.354-1.871-0.839" stroke="#000000" stroke-width="0.25" g2gstroke="#312783" stroke-miterlimit="10"/>
	<path orgstroke="#000000" orgfill="none" fill="none" stroke-linejoin="round" d="M125.906,171.657   c-0.335,0.162-0.771,0.259-1.232,0.259c-0.417,0-0.813-0.075-1.118-0.201" stroke="#000000" stroke-width="0.25" g2gstroke="#312783" stroke-miterlimit="10"/>
</g>
</g>
</g></svg>