<svg xmlns="http://www.w3.org/2000/svg" xmlns:xlink="http://www.w3.org/1999/xlink" xmlns:etg="http://www.eurotaxglass.com/etg/evd/" etg:dataTimestamp="1539068912893" contentScriptType="text/ecmascript" zoomAndPan="magnify" contentStyleType="text/css" id="Layer_1" enable-background="new 0 0 1841.891 1595.279" version="1.1" width="1841.891px" xml:space="preserve" preserveAspectRatio="xMidYMid meet" viewBox="0 0 1841.891 1595.279" height="1595.279px" x="0px" y="0px"><g xmlns="http://www.w3.org/2000/svg" objecttype="PS" tooltip="#UNDEFINED" id="7">
<g onmouseover="notifyOwner(AGV_OBJECT_MOUSEOVER, '7(PS)')" onclick="clickZoom(evt); notifyOwner(AGV_OBJECT_MOUSECLICK, '7(PS)')" onmouseout="notifyOwner(AGV_OBJECT_MOUSEOUT, '7(PS)')" tooltip="#UNDEFINED" id="7-Graphic" objecttype="GRAPHIC">
<g>
	<g id="6::XMLID_10_">
		<g>
			<path orgstroke="#000000" orgfill="#ffffff" fill="#ffffff" g2gfill="#787878" d="M589.562,308.233l-24.711,7.79     c-3.719,1.081-1.33,4.113-1.33,4.113l15.279,20.445l0.278,0.125c6.688-7.438,10.753-17.278,10.753-28.07     c0-1.412-0.063-2.815-0.207-4.206L589.562,308.233z M584.213,291.705l-0.051-0.156c-5.847-10.021-15.707-17.42-27.396-19.938     l-0.281,0.124l-0.188,25.771c-0.115,3.864,3.51,2.534,3.51,2.534L584.213,291.705z M547.848,263.035     c27.4,0,49.611,22.209,49.611,49.604s-22.211,49.604-49.611,49.604c-27.391,0-49.611-22.209-49.611-49.604     C498.234,285.244,520.458,263.035,547.848,263.035z M588.566,303.768l0.289-0.207c-0.592-2.649-1.422-5.215-2.479-7.655     l-0.433-0.042l-20.729,6.752l-0.375,0.125c-0.063,0.021-2.295,5.121,2.453,7.945l0.342-0.104L588.566,303.768z M576.026,343.352     l-13.146-17.575l-0.185-0.238c-0.051-0.054-5.588-0.509-6.733,4.881l0.188,0.267l13.145,17.556l0.386,0.279     c2.264-1.37,4.383-2.96,6.346-4.736V343.352z M564.749,350.852l-14.904-20.992c-2.162-3.199-4.322,0-4.322,0l-14.74,20.754     l0.031,0.414c5.203,2.316,10.969,3.604,17.035,3.604c5.973,0,11.646-1.239,16.787-3.483L564.749,350.852z M552.012,293.542     v-0.498v-21.877l-0.135-0.314c-1.33-0.143-2.67-0.198-4.031-0.198c-1.371,0-2.721,0.074-4.061,0.198l-0.101,0.26v21.871v0.436     C543.693,293.492,547.848,297.183,552.012,293.542z M540.15,330.74c0.041-0.063-1.225-5.475-6.721-4.912l-0.156,0.219     l-12.744,18.043l-0.063,0.391c1.994,1.714,4.145,3.251,6.438,4.563l0.459-0.208l12.65-17.896L540.15,330.74z M536.256,299.754     c3.615,1.36,3.531-2.503,3.531-2.503v-25.604l-0.248-0.177c-11.688,2.349-21.617,9.546-27.611,19.415l0.094,0.395     L536.256,299.754z M532.599,319.73c2.336-3.075-1.381-4.104-1.381-4.104l-24.941-7.428l-0.209,0.238     c-0.133,1.383-0.207,2.785-0.207,4.19c0,10.937,4.164,20.886,11.019,28.354l0.342-0.083L532.599,319.73z M528.267,310.754     c0.072,0.021,4.85-2.813,2.658-7.884l-0.396-0.135l-21.021-6.711l-0.261,0.072c-1.057,2.438-1.885,5.008-2.45,7.666l0.291,0.229     l20.797,6.637L528.267,310.754z" outline-element="true" stroke="#000000" stroke-width="0.5" g2gstroke="#312783" stroke-miterlimit="10"/>
		</g>
		<g>
			<path orgstroke="#000000" orgfill="none" fill="none" d="M597.458,312.64     c0,27.396-22.209,49.604-49.611,49.604c-27.391,0-49.609-22.209-49.609-49.604c0-27.396,22.226-49.604,49.609-49.604     C575.249,263.035,597.458,285.244,597.458,312.64z" outline-element="true" stroke="#000000" stroke-width="0.5" g2gstroke="#312783" stroke-miterlimit="10"/>
			<path orgstroke="#000000" orgfill="none" fill="none" d="M530.776,350.613l14.74-20.756     c0,0,2.16-3.199,4.322,0l14.9,20.994l-0.109,0.291c-5.146,2.243-10.814,3.482-16.787,3.482c-6.066,0-11.832-1.286-17.035-3.604" outline-element="true" stroke="#000000" stroke-width="0.5" g2gstroke="#312783" stroke-miterlimit="10"/>
			<path orgstroke="#000000" orgfill="none" fill="none" d="M594.622,306.638l-5.063,1.6l-24.711,7.79     c-3.719,1.081-1.33,4.113-1.33,4.113l15.279,20.445l0.273,0.125c6.688-7.438,10.755-17.278,10.755-28.07     c0-1.412-0.063-2.815-0.204-4.206" outline-element="true" stroke="#000000" stroke-width="0.5" g2gstroke="#312783" stroke-miterlimit="10"/>
			<path orgstroke="#000000" orgfill="none" fill="none" d="M589.253,289.991l-5.037,1.714l-24.41,8.331     c0,0-3.627,1.329-3.512-2.534l0.19-25.771l0.281-0.125c11.688,2.521,21.553,9.921,27.396,19.938" outline-element="true" stroke="#000000" stroke-width="0.5" g2gstroke="#312783" stroke-miterlimit="10"/>
			<path orgstroke="#000000" orgfill="none" fill="none" d="M512.021,291.279l24.232,8.476     c3.608,1.36,3.524-2.503,3.524-2.503v-25.604l-0.247-0.177c-11.687,2.349-21.611,9.546-27.604,19.415" outline-element="true" stroke="#000000" stroke-width="0.5" g2gstroke="#312783" stroke-miterlimit="10"/>
			<path orgstroke="#000000" orgfill="none" fill="none" d="M517.215,340.899l15.383-21.169     c2.338-3.075-1.381-4.104-1.381-4.104l-24.939-7.428l-0.209,0.238c-0.135,1.383-0.207,2.785-0.207,4.19     c0,10.937,4.164,20.886,11.017,28.354" outline-element="true" stroke="#000000" stroke-width="0.5" g2gstroke="#312783" stroke-miterlimit="10"/>
			<path orgstroke="#000000" orgfill="none" fill="none" d="M552.012,293.542     c-4.166,3.642-8.32-0.052-8.32-0.125v-0.434v-21.876l0.094-0.26c1.347-0.124,2.689-0.198,4.063-0.198     c1.361,0,2.701,0.063,4.031,0.198l0.135,0.314v21.877L552.012,293.542L552.012,293.542z" outline-element="true" stroke="#000000" stroke-width="0.5" g2gstroke="#312783" stroke-miterlimit="10"/>
			<path orgstroke="#000000" orgfill="none" fill="none" d="M586.376,295.902     c1.059,2.44,1.891,5.006,2.479,7.655l-0.291,0.207l-20.932,6.813l-0.342,0.104c-4.748-2.824-2.521-7.932-2.451-7.945l0.373-0.125     l20.729-6.752L586.376,295.902z" outline-element="true" stroke="#000000" stroke-width="0.5" g2gstroke="#312783" stroke-miterlimit="10"/>
			<path orgstroke="#000000" orgfill="none" fill="none" d="M569.28,348.235l-13.139-17.556l-0.188-0.267     c1.146-5.39,6.688-4.935,6.735-4.881l0.183,0.238l13.146,17.575l-0.01,0.426c-1.963,1.772-4.082,3.365-6.347,4.733     L569.28,348.235z" outline-element="true" stroke="#000000" stroke-width="0.5" g2gstroke="#312783" stroke-miterlimit="10"/>
			<path orgstroke="#000000" orgfill="none" fill="none" d="M527.359,348.834l12.652-17.896l0.133-0.196     c0.043-0.063-1.225-5.475-6.719-4.913l-0.156,0.218l-12.746,18.043l-0.063,0.392c1.996,1.713,4.145,3.251,6.438,4.563     L527.359,348.834z" outline-element="true" stroke="#000000" stroke-width="0.5" g2gstroke="#312783" stroke-miterlimit="10"/>
			<path orgstroke="#000000" orgfill="none" fill="none" d="M530.926,302.871     c2.188,5.068-2.586,7.904-2.658,7.884l-0.383-0.125l-20.797-6.637l-0.291-0.229c0.572-2.658,1.396-5.229,2.451-7.666l0.26-0.072     l21.021,6.711L530.926,302.871z" outline-element="true" stroke="#000000" stroke-width="0.5" g2gstroke="#312783" stroke-miterlimit="10"/>
		</g>
	</g>
	<g id="6::XMLID_22_">
		<g>
			
				<radialGradient gradientTransform="matrix(1 0 0 1 0.7798 595.1768)" gradientUnits="userSpaceOnUse" xmlns:xlink="http://www.w3.org/1999/xlink" xlink:type="simple" cx="547.0686" r="49.6079" xlink:actuate="onLoad" id="6::SVGID_103_" cy="-282.5364" xlink:show="other">
				<stop stop-opacity="0.9" stop-color="#FFFFFF" offset="0.0182"/>
				<stop stop-opacity="0.1" stop-color="#FFFFFF" offset="0.1455"/>
				<stop stop-opacity="0.2" stop-color="#FFFFFF" offset="0.3394"/>
				<stop stop-opacity="0.8" stop-color="#FFFFFF" offset="0.5939"/>
				<stop stop-opacity="0.2" stop-color="#FFFFFF" offset="0.8424"/>
			</radialGradient>
			<path orgstroke="#000000" orgfill="url(#6::SVGID_103_)" fill="url(#6::SVGID_103_)" d="M589.562,308.234l-24.711,7.79     c-3.719,1.081-1.33,4.113-1.33,4.113l15.279,20.445l0.278,0.125c6.688-7.438,10.753-17.278,10.753-28.07     c0-1.412-0.063-2.815-0.207-4.206L589.562,308.234z M584.213,291.706l-0.051-0.156c-5.847-10.021-15.707-17.42-27.396-19.938     l-0.281,0.124l-0.188,25.771c-0.115,3.864,3.51,2.534,3.51,2.534L584.213,291.706z M547.848,263.036     c27.4,0,49.611,22.209,49.611,49.604s-22.211,49.604-49.611,49.604c-27.391,0-49.611-22.209-49.611-49.604     C498.234,285.245,520.458,263.036,547.848,263.036z M588.566,303.769l0.289-0.207c-0.592-2.649-1.422-5.215-2.479-7.655     l-0.433-0.042l-20.729,6.752l-0.375,0.125c-0.063,0.021-2.295,5.121,2.453,7.945l0.342-0.104L588.566,303.769z M576.026,343.353     l-13.146-17.575l-0.185-0.238c-0.051-0.054-5.588-0.509-6.733,4.881l0.188,0.267l13.145,17.556l0.386,0.279     c2.264-1.37,4.383-2.96,6.346-4.736V343.353z M564.749,350.853l-14.904-20.992c-2.162-3.199-4.322,0-4.322,0l-14.74,20.754     l0.031,0.414c5.203,2.316,10.969,3.604,17.035,3.604c5.973,0,11.646-1.24,16.787-3.484L564.749,350.853z M552.012,293.543v-0.498     v-21.877l-0.135-0.314c-1.33-0.143-2.67-0.198-4.031-0.198c-1.371,0-2.721,0.074-4.061,0.198l-0.101,0.26v21.872v0.436     C543.693,293.493,547.848,297.184,552.012,293.543z M540.15,330.741c0.041-0.063-1.225-5.475-6.721-4.912l-0.156,0.219     l-12.744,18.043l-0.063,0.391c1.994,1.714,4.145,3.251,6.438,4.563l0.459-0.208l12.65-17.896L540.15,330.741z M536.256,299.755     c3.615,1.36,3.531-2.503,3.531-2.503v-25.604l-0.248-0.177c-11.688,2.349-21.617,9.546-27.611,19.415l0.094,0.395     L536.256,299.755z M532.599,319.731c2.336-3.075-1.381-4.104-1.381-4.104l-24.941-7.428l-0.209,0.238     c-0.133,1.383-0.207,2.785-0.207,4.19c0,10.937,4.164,20.886,11.019,28.354l0.342-0.083L532.599,319.731z M528.267,310.755     c0.072,0.021,4.85-2.813,2.658-7.884l-0.396-0.135l-21.021-6.711l-0.261,0.072c-1.057,2.438-1.885,5.008-2.45,7.666l0.291,0.229     l20.797,6.637L528.267,310.755z" outline-element="true" stroke="#000000" stroke-width="0.5" g2gstroke="#312783" stroke-miterlimit="10"/>
		</g>
		<g>
			
				<radialGradient gradientTransform="matrix(1 0 0 -1 0.105 595.0991)" gradientUnits="userSpaceOnUse" xmlns:xlink="http://www.w3.org/1999/xlink" xlink:type="simple" cx="547.7434" r="49.6074" xlink:actuate="onLoad" id="6::SVGID_104_" cy="282.4578" xlink:show="other">
				<stop stop-opacity="0.9" stop-color="#FFFFFF" offset="0.0182"/>
				<stop stop-opacity="0.1" stop-color="#FFFFFF" offset="0.1455"/>
				<stop stop-opacity="0.2" stop-color="#FFFFFF" offset="0.3394"/>
				<stop stop-opacity="0.8" stop-color="#FFFFFF" offset="0.5939"/>
				<stop stop-opacity="0.2" stop-color="#FFFFFF" offset="0.8424"/>
			</radialGradient>
			<path orgstroke="#000000" orgfill="url(#6::SVGID_104_)" fill="url(#6::SVGID_104_)" d="M597.458,312.641     c0,27.396-22.209,49.604-49.611,49.604c-27.391,0-49.609-22.209-49.609-49.604c0-27.396,22.226-49.604,49.609-49.604     C575.249,263.036,597.458,285.245,597.458,312.641z" outline-element="true" stroke="#000000" stroke-width="0.5" g2gstroke="#312783" stroke-miterlimit="10"/>
			
				<radialGradient gradientTransform="matrix(1 0 0 -1 0.105 595.0991)" gradientUnits="userSpaceOnUse" xmlns:xlink="http://www.w3.org/1999/xlink" xlink:type="simple" cx="547.6516" r="15.1631" xlink:actuate="onLoad" id="6::SVGID_105_" cy="253.5681" xlink:show="other">
				<stop stop-opacity="0.9" stop-color="#FFFFFF" offset="0.0182"/>
				<stop stop-opacity="0.1" stop-color="#FFFFFF" offset="0.1455"/>
				<stop stop-opacity="0.2" stop-color="#FFFFFF" offset="0.3394"/>
				<stop stop-opacity="0.8" stop-color="#FFFFFF" offset="0.5939"/>
				<stop stop-opacity="0.2" stop-color="#FFFFFF" offset="0.8424"/>
			</radialGradient>
			<path orgstroke="#000000" orgfill="url(#6::SVGID_105_)" fill="url(#6::SVGID_105_)" d="M530.776,350.614l14.74-20.756     c0,0,2.16-3.199,4.322,0l14.9,20.994l-0.109,0.291c-5.146,2.243-10.814,3.482-16.787,3.482c-6.066,0-11.832-1.286-17.035-3.604" outline-element="true" stroke="#000000" stroke-width="0.5" g2gstroke="#312783" stroke-miterlimit="10"/>
			
				<radialGradient gradientTransform="matrix(1 0 0 -1 0.105 595.0991)" gradientUnits="userSpaceOnUse" xmlns:xlink="http://www.w3.org/1999/xlink" xlink:type="simple" cx="578.5881" r="16.4924" xlink:actuate="onLoad" id="6::SVGID_106_" cy="271.4231" xlink:show="other">
				<stop stop-opacity="0.9" stop-color="#FFFFFF" offset="0.0182"/>
				<stop stop-opacity="0.1" stop-color="#FFFFFF" offset="0.1455"/>
				<stop stop-opacity="0.2" stop-color="#FFFFFF" offset="0.3394"/>
				<stop stop-opacity="0.8" stop-color="#FFFFFF" offset="0.5939"/>
				<stop stop-opacity="0.2" stop-color="#FFFFFF" offset="0.8424"/>
			</radialGradient>
			<path orgstroke="#000000" orgfill="url(#6::SVGID_106_)" fill="url(#6::SVGID_106_)" d="M594.622,306.639l-5.063,1.6     l-24.711,7.79c-3.719,1.081-1.33,4.113-1.33,4.113l15.279,20.445l0.273,0.125c6.688-7.438,10.755-17.278,10.755-28.07     c0-1.412-0.063-2.815-0.204-4.206" outline-element="true" stroke="#000000" stroke-width="0.5" g2gstroke="#312783" stroke-miterlimit="10"/>
			
				<radialGradient gradientTransform="matrix(1 0 0 -1 0.105 595.0991)" gradientUnits="userSpaceOnUse" xmlns:xlink="http://www.w3.org/1999/xlink" xlink:type="simple" cx="572.6682" r="15.4405" xlink:actuate="onLoad" id="6::SVGID_107_" cy="309.1667" xlink:show="other">
				<stop stop-opacity="0.9" stop-color="#FFFFFF" offset="0.0182"/>
				<stop stop-opacity="0.1" stop-color="#FFFFFF" offset="0.1455"/>
				<stop stop-opacity="0.2" stop-color="#FFFFFF" offset="0.3394"/>
				<stop stop-opacity="0.8" stop-color="#FFFFFF" offset="0.5939"/>
				<stop stop-opacity="0.2" stop-color="#FFFFFF" offset="0.8424"/>
			</radialGradient>
			<path orgstroke="#000000" orgfill="url(#6::SVGID_107_)" fill="url(#6::SVGID_107_)" d="M589.253,289.992l-5.037,1.714     l-24.41,8.331c0,0-3.627,1.329-3.512-2.534l0.19-25.771l0.281-0.125c11.688,2.521,21.553,9.921,27.396,19.938" outline-element="true" stroke="#000000" stroke-width="0.5" g2gstroke="#312783" stroke-miterlimit="10"/>
			
				<radialGradient gradientTransform="matrix(1 0 0 -1 0.105 595.0991)" gradientUnits="userSpaceOnUse" xmlns:xlink="http://www.w3.org/1999/xlink" xlink:type="simple" cx="525.7473" r="14.1066" xlink:actuate="onLoad" id="6::SVGID_108_" cy="309.3406" xlink:show="other">
				<stop stop-opacity="0.9" stop-color="#FFFFFF" offset="0.0182"/>
				<stop stop-opacity="0.1" stop-color="#FFFFFF" offset="0.1455"/>
				<stop stop-opacity="0.2" stop-color="#FFFFFF" offset="0.3394"/>
				<stop stop-opacity="0.8" stop-color="#FFFFFF" offset="0.5939"/>
				<stop stop-opacity="0.2" stop-color="#FFFFFF" offset="0.8424"/>
			</radialGradient>
			<path orgstroke="#000000" orgfill="url(#6::SVGID_108_)" fill="url(#6::SVGID_108_)" d="M512.021,291.28l24.232,8.476     c3.608,1.36,3.524-2.503,3.524-2.503v-25.604l-0.247-0.177c-11.687,2.349-21.611,9.546-27.604,19.415" outline-element="true" stroke="#000000" stroke-width="0.5" g2gstroke="#312783" stroke-miterlimit="10"/>
			
				<radialGradient gradientTransform="matrix(1 0 0 -1 0.105 595.0991)" gradientUnits="userSpaceOnUse" xmlns:xlink="http://www.w3.org/1999/xlink" xlink:type="simple" cx="519.51" r="15.1303" xlink:actuate="onLoad" id="6::SVGID_109_" cy="270.5085" xlink:show="other">
				<stop stop-opacity="0.9" stop-color="#FFFFFF" offset="0.0182"/>
				<stop stop-opacity="0.1" stop-color="#FFFFFF" offset="0.1455"/>
				<stop stop-opacity="0.2" stop-color="#FFFFFF" offset="0.3394"/>
				<stop stop-opacity="0.8" stop-color="#FFFFFF" offset="0.5939"/>
				<stop stop-opacity="0.2" stop-color="#FFFFFF" offset="0.8424"/>
			</radialGradient>
			<path orgstroke="#000000" orgfill="url(#6::SVGID_109_)" fill="url(#6::SVGID_109_)" d="M517.215,340.9l15.383-21.169     c2.338-3.075-1.381-4.104-1.381-4.104l-24.939-7.428l-0.209,0.238c-0.135,1.383-0.207,2.785-0.207,4.19     c0,10.937,4.164,20.886,11.017,28.354" outline-element="true" stroke="#000000" stroke-width="0.5" g2gstroke="#312783" stroke-miterlimit="10"/>
			
				<radialGradient gradientTransform="matrix(1 0 0 -1 0.105 595.0991)" gradientUnits="userSpaceOnUse" xmlns:xlink="http://www.w3.org/1999/xlink" xlink:type="simple" cx="547.7483" r="9.1464" xlink:actuate="onLoad" id="6::SVGID_110_" cy="312.2019" xlink:show="other">
				<stop stop-opacity="0.9" stop-color="#FFFFFF" offset="0.0182"/>
				<stop stop-opacity="0.1" stop-color="#FFFFFF" offset="0.1455"/>
				<stop stop-opacity="0.2" stop-color="#FFFFFF" offset="0.3394"/>
				<stop stop-opacity="0.8" stop-color="#FFFFFF" offset="0.5939"/>
				<stop stop-opacity="0.2" stop-color="#FFFFFF" offset="0.8424"/>
			</radialGradient>
			<path orgstroke="#000000" orgfill="url(#6::SVGID_110_)" fill="url(#6::SVGID_110_)" d="M552.012,293.543     c-4.166,3.642-8.32-0.052-8.32-0.125v-0.434v-21.876l0.094-0.26c1.347-0.124,2.689-0.198,4.063-0.198     c1.361,0,2.701,0.063,4.031,0.198l0.135,0.314v21.877L552.012,293.543L552.012,293.543z" outline-element="true" stroke="#000000" stroke-width="0.5" g2gstroke="#312783" stroke-miterlimit="10"/>
			
				<radialGradient gradientTransform="matrix(1 0 0 -1 0.105 595.0991)" gradientUnits="userSpaceOnUse" xmlns:xlink="http://www.w3.org/1999/xlink" xlink:type="simple" cx="576.4514" r="10.1535" xlink:actuate="onLoad" id="6::SVGID_111_" cy="291.8279" xlink:show="other">
				<stop stop-opacity="0.9" stop-color="#FFFFFF" offset="0.0182"/>
				<stop stop-opacity="0.1" stop-color="#FFFFFF" offset="0.1455"/>
				<stop stop-opacity="0.2" stop-color="#FFFFFF" offset="0.3394"/>
				<stop stop-opacity="0.8" stop-color="#FFFFFF" offset="0.5939"/>
				<stop stop-opacity="0.2" stop-color="#FFFFFF" offset="0.8424"/>
			</radialGradient>
			<path orgstroke="#000000" orgfill="url(#6::SVGID_111_)" fill="url(#6::SVGID_111_)" d="M586.376,295.903     c1.059,2.44,1.891,5.006,2.479,7.655l-0.291,0.207l-20.932,6.813l-0.342,0.104c-4.748-2.824-2.521-7.932-2.451-7.945l0.373-0.125     l20.729-6.752L586.376,295.903z" outline-element="true" stroke="#000000" stroke-width="0.5" g2gstroke="#312783" stroke-miterlimit="10"/>
			
				<radialGradient gradientTransform="matrix(1 0 0 -1 0.105 595.0991)" gradientUnits="userSpaceOnUse" xmlns:xlink="http://www.w3.org/1999/xlink" xlink:type="simple" cx="565.8801" r="10.7924" xlink:actuate="onLoad" id="6::SVGID_112_" cy="258.0955" xlink:show="other">
				<stop stop-opacity="0.9" stop-color="#FFFFFF" offset="0.0182"/>
				<stop stop-opacity="0.1" stop-color="#FFFFFF" offset="0.1455"/>
				<stop stop-opacity="0.2" stop-color="#FFFFFF" offset="0.3394"/>
				<stop stop-opacity="0.8" stop-color="#FFFFFF" offset="0.5939"/>
				<stop stop-opacity="0.2" stop-color="#FFFFFF" offset="0.8424"/>
			</radialGradient>
			<path orgstroke="#000000" orgfill="url(#6::SVGID_112_)" fill="url(#6::SVGID_112_)" d="M569.28,348.236l-13.139-17.556     l-0.188-0.267c1.146-5.39,6.688-4.935,6.735-4.881l0.183,0.238l13.146,17.575l-0.01,0.426c-1.963,1.772-4.082,3.365-6.347,4.733     L569.28,348.236z" outline-element="true" stroke="#000000" stroke-width="0.5" g2gstroke="#312783" stroke-miterlimit="10"/>
			
				<radialGradient gradientTransform="matrix(1 0 0 -1 0.105 595.0991)" gradientUnits="userSpaceOnUse" xmlns:xlink="http://www.w3.org/1999/xlink" xlink:type="simple" cx="530.1975" r="10.7727" xlink:actuate="onLoad" id="6::SVGID_113_" cy="257.6819" xlink:show="other">
				<stop stop-opacity="0.9" stop-color="#FFFFFF" offset="0.0182"/>
				<stop stop-opacity="0.1" stop-color="#FFFFFF" offset="0.1455"/>
				<stop stop-opacity="0.2" stop-color="#FFFFFF" offset="0.3394"/>
				<stop stop-opacity="0.8" stop-color="#FFFFFF" offset="0.5939"/>
				<stop stop-opacity="0.2" stop-color="#FFFFFF" offset="0.8424"/>
			</radialGradient>
			<path orgstroke="#000000" orgfill="url(#6::SVGID_113_)" fill="url(#6::SVGID_113_)" d="M527.359,348.835l12.652-17.896     l0.133-0.196c0.043-0.063-1.225-5.475-6.719-4.913l-0.156,0.218l-12.746,18.043l-0.063,0.392     c1.996,1.713,4.145,3.251,6.438,4.563L527.359,348.835z" outline-element="true" stroke="#000000" stroke-width="0.5" g2gstroke="#312783" stroke-miterlimit="10"/>
			
				<radialGradient gradientTransform="matrix(1 0 0 -1 0.105 595.0991)" gradientUnits="userSpaceOnUse" xmlns:xlink="http://www.w3.org/1999/xlink" xlink:type="simple" cx="519.0432" r="10.1678" xlink:actuate="onLoad" id="6::SVGID_114_" cy="291.7078" xlink:show="other">
				<stop stop-opacity="0.9" stop-color="#FFFFFF" offset="0.0182"/>
				<stop stop-opacity="0.1" stop-color="#FFFFFF" offset="0.1455"/>
				<stop stop-opacity="0.2" stop-color="#FFFFFF" offset="0.3394"/>
				<stop stop-opacity="0.8" stop-color="#FFFFFF" offset="0.5939"/>
				<stop stop-opacity="0.2" stop-color="#FFFFFF" offset="0.8424"/>
			</radialGradient>
			<path orgstroke="#000000" orgfill="url(#6::SVGID_114_)" fill="url(#6::SVGID_114_)" d="M530.926,302.872     c2.188,5.068-2.586,7.904-2.658,7.884l-0.383-0.125l-20.797-6.637l-0.291-0.229c0.572-2.658,1.396-5.229,2.451-7.666l0.26-0.072     l21.021,6.711L530.926,302.872z" outline-element="true" stroke="#000000" stroke-width="0.5" g2gstroke="#312783" stroke-miterlimit="10"/>
		</g>
	</g>
	<circle orgstroke="#000000" orgfill="none" fill="none" r="47.184" cx="547.848" cy="312.641" stroke="#000000" stroke-width="0.25" g2gstroke="#312783" stroke-miterlimit="10"/>
	<path orgstroke="#000000" orgfill="none" fill="none" d="M588.851,303.561   c0.019,0.063,0.031,0.137,0.045,0.205" stroke="#000000" stroke-width="0.25" g2gstroke="#312783" stroke-miterlimit="10"/>
	
		<line orgstroke="#000000" orgfill="none" fill="none" x1="564.737" x2="567.905" y1="350.854" y2="355.319" stroke="#000000" stroke-width="0.25" g2gstroke="#312783" stroke-miterlimit="10"/>
	
		<line orgstroke="#000000" orgfill="none" fill="none" x1="527.506" x2="530.776" y1="355.227" y2="350.617" stroke="#000000" stroke-width="0.25" g2gstroke="#312783" stroke-miterlimit="10"/>
	
		<line orgstroke="#000000" orgfill="none" fill="none" x1="582.142" x2="578.797" y1="345.063" y2="340.585" stroke="#000000" stroke-width="0.25" g2gstroke="#312783" stroke-miterlimit="10"/>
	
		<line orgstroke="#000000" orgfill="none" fill="none" x1="556.485" x2="556.526" y1="271.731" y2="266.289" stroke="#000000" stroke-width="0.25" g2gstroke="#312783" stroke-miterlimit="10"/>
	
		<line orgstroke="#000000" orgfill="none" fill="none" x1="512.019" x2="506.78" y1="291.283" y2="289.454" stroke="#000000" stroke-width="0.25" g2gstroke="#312783" stroke-miterlimit="10"/>
	
		<line orgstroke="#000000" orgfill="none" fill="none" x1="539.78" x2="539.78" y1="266.143" y2="271.645" stroke="#000000" stroke-width="0.25" g2gstroke="#312783" stroke-miterlimit="10"/>
	
		<line orgstroke="#000000" orgfill="none" fill="none" x1="517.219" x2="513.883" y1="340.903" y2="345.393" stroke="#000000" stroke-width="0.25" g2gstroke="#312783" stroke-miterlimit="10"/>
	
		<line orgstroke="#000000" orgfill="none" fill="none" x1="501.151" x2="506.276" y1="306.681" y2="308.201" stroke="#000000" stroke-width="0.25" g2gstroke="#312783" stroke-miterlimit="10"/>
	
		<line orgstroke="#000000" orgfill="none" fill="none" x1="552.01" x2="552.01" y1="271.167" y2="265.643" stroke="#000000" stroke-width="0.25" g2gstroke="#312783" stroke-miterlimit="10"/>
	<path orgstroke="#000000" orgfill="none" fill="none" d="M543.687,292.983v6.969   c0,2.297,1.861,4.16,4.16,4.16s4.162-1.863,4.162-4.16v-6.904" stroke="#000000" stroke-width="0.25" g2gstroke="#312783" stroke-miterlimit="10"/>
	
		<line orgstroke="#000000" orgfill="none" fill="none" x1="543.687" x2="543.687" y1="265.525" y2="271.106" stroke="#000000" stroke-width="0.25" g2gstroke="#312783" stroke-miterlimit="10"/>
	
		<line orgstroke="#000000" orgfill="none" fill="none" x1="588.562" x2="593.831" y1="303.768" y2="302.057" stroke="#000000" stroke-width="0.25" g2gstroke="#312783" stroke-miterlimit="10"/>
	<path orgstroke="#000000" orgfill="none" fill="none" d="M565.217,302.612l-6.59,2.145   c-2.188,0.72-3.381,3.063-2.668,5.246c0.711,2.188,3.057,3.379,5.235,2.668l6.438-2.094" stroke="#000000" stroke-width="0.25" g2gstroke="#312783" stroke-miterlimit="10"/>
	
		<line orgstroke="#000000" orgfill="none" fill="none" x1="591.359" x2="585.946" y1="294.103" y2="295.865" stroke="#000000" stroke-width="0.25" g2gstroke="#312783" stroke-miterlimit="10"/>
	
		<line orgstroke="#000000" orgfill="none" fill="none" x1="569.278" x2="572.678" y1="348.229" y2="352.768" stroke="#000000" stroke-width="0.25" g2gstroke="#312783" stroke-miterlimit="10"/>
	<path orgstroke="#000000" orgfill="none" fill="none" d="M562.878,325.778l-4.101-5.471   c-1.377-1.84-3.979-2.215-5.817-0.839c-1.848,1.376-2.223,3.979-0.846,5.817l4.032,5.394" stroke="#000000" stroke-width="0.25" g2gstroke="#312783" stroke-miterlimit="10"/>
	
		<line orgstroke="#000000" orgfill="none" fill="none" x1="579.403" x2="576.025" y1="347.871" y2="343.352" stroke="#000000" stroke-width="0.25" g2gstroke="#312783" stroke-miterlimit="10"/>
	
		<line orgstroke="#000000" orgfill="none" fill="none" x1="562.694" x2="562.694" y1="325.539" y2="325.539" stroke="#000000" stroke-width="0.25" g2gstroke="#312783" stroke-miterlimit="10"/>
	
		<line orgstroke="#000000" orgfill="none" fill="none" x1="520.526" x2="517.319" y1="344.083" y2="348.621" stroke="#000000" stroke-width="0.25" g2gstroke="#312783" stroke-miterlimit="10"/>
	<path orgstroke="#000000" orgfill="none" fill="none" d="M540.014,330.937l3.91-5.532   c1.326-1.877,0.879-4.473-0.998-5.801c-1.877-1.324-4.479-0.879-5.799,0.998l-3.854,5.449" stroke="#000000" stroke-width="0.25" g2gstroke="#312783" stroke-miterlimit="10"/>
	
		<line orgstroke="#000000" orgfill="none" fill="none" x1="524.053" x2="527.359" y1="353.52" y2="348.84" stroke="#000000" stroke-width="0.25" g2gstroke="#312783" stroke-miterlimit="10"/>
	
		<line orgstroke="#000000" orgfill="none" fill="none" x1="509.512" x2="504.342" y1="296.029" y2="294.376" stroke="#000000" stroke-width="0.25" g2gstroke="#312783" stroke-miterlimit="10"/>
	<path orgstroke="#000000" orgfill="none" fill="none" d="M527.88,310.629l6.614,2.114   c2.188,0.697,4.523-0.51,5.229-2.698c0.699-2.188-0.51-4.523-2.697-5.229l-6.498-2.074" stroke="#000000" stroke-width="0.25" g2gstroke="#312783" stroke-miterlimit="10"/>
	
		<line orgstroke="#000000" orgfill="none" fill="none" x1="501.696" x2="507.092" y1="302.27" y2="303.992" stroke="#000000" stroke-width="0.25" g2gstroke="#312783" stroke-miterlimit="10"/>
	<ellipse orgstroke="#000000" orgfill="#ffffff" fill="#ffffff" g2gfill="#787878" rx="4.329" cx="535.717" ry="4.144" cy="308.791" stroke="#000000" stroke-width="0.25" g2gstroke="#312783"/>
	
		<radialGradient gradientTransform="matrix(0.9813 -0.4243 -0.4431 -0.9396 117.6072 649.4516)" gradientUnits="userSpaceOnUse" xmlns:xlink="http://www.w3.org/1999/xlink" xlink:type="simple" cx="489.8967" r="4.0198" xlink:actuate="onLoad" id="6::SVGID_115_" cy="141.3308" xlink:show="other">
		<stop stop-color="#FFFFFF" offset="0.103"/>
		<stop stop-opacity="0" stop-color="#FFFFFF" offset="0.9152"/>
	</radialGradient>
	<path orgstroke="#000000" orgfill="url(#6::SVGID_115_)" fill="url(#6::SVGID_115_)" d="M533.935,305.016c2.179-0.942,4.743-0.017,5.729,2.07   c0.98,2.086,0.014,4.539-2.163,5.482c-2.178,0.942-4.741,0.014-5.728-2.072C530.79,308.411,531.758,305.958,533.935,305.016z" stroke="#000000" stroke-width="0.25" g2gstroke="#312783"/>
	<ellipse orgstroke="#000000" orgfill="#ffffff" fill="#ffffff" g2gfill="#787878" rx="4.184" cx="540.503" ry="4.004" cy="322.851" stroke="#000000" stroke-width="0.25" g2gstroke="#312783"/>
	
		<radialGradient gradientTransform="matrix(0.9813 -0.4243 -0.4431 -0.9396 117.6072 649.4516)" gradientUnits="userSpaceOnUse" xmlns:xlink="http://www.w3.org/1999/xlink" xlink:type="simple" cx="488.3342" r="3.8892" xlink:actuate="onLoad" id="6::SVGID_116_" cy="127.0662" xlink:show="other">
		<stop stop-color="#FFFFFF" offset="0.103"/>
		<stop stop-opacity="0" stop-color="#FFFFFF" offset="0.9152"/>
	</radialGradient>
	<path orgstroke="#000000" orgfill="url(#6::SVGID_116_)" fill="url(#6::SVGID_116_)" d="M538.78,319.202c2.105-0.911,4.584-0.016,5.536,2.001   c0.947,2.018,0.014,4.387-2.091,5.298c-2.104,0.911-4.582,0.015-5.535-2.002C535.741,322.483,536.678,320.112,538.78,319.202z" stroke="#000000" stroke-width="0.25" g2gstroke="#312783"/>
	<ellipse orgstroke="#000000" orgfill="#ffffff" fill="#ffffff" g2gfill="#787878" rx="4.184" cx="555.469" ry="4.003" cy="322.643" stroke="#000000" stroke-width="0.25" g2gstroke="#312783"/>
	
		<radialGradient gradientTransform="matrix(0.9813 -0.4243 -0.4431 -0.9396 117.6072 649.4516)" gradientUnits="userSpaceOnUse" xmlns:xlink="http://www.w3.org/1999/xlink" xlink:type="simple" cx="501.0862" r="3.8879" xlink:actuate="onLoad" id="6::SVGID_117_" cy="121.5276" xlink:show="other">
		<stop stop-color="#FFFFFF" offset="0.103"/>
		<stop stop-opacity="0" stop-color="#FFFFFF" offset="0.9152"/>
	</radialGradient>
	<path orgstroke="#000000" orgfill="url(#6::SVGID_117_)" fill="url(#6::SVGID_117_)" d="M553.747,318.996c2.104-0.911,4.583-0.016,5.534,2   c0.946,2.018,0.014,4.386-2.09,5.298c-2.104,0.911-4.582,0.014-5.534-2.002C550.71,322.277,551.646,319.906,553.747,318.996z" stroke="#000000" stroke-width="0.25" g2gstroke="#312783"/>
	<ellipse orgstroke="#000000" orgfill="#ffffff" fill="#ffffff" g2gfill="#787878" rx="4.188" cx="547.848" ry="4.009" cy="300.044" stroke="#000000" stroke-width="0.25" g2gstroke="#312783"/>
	
		<radialGradient gradientTransform="matrix(0.9813 -0.4243 -0.4431 -0.9396 117.6072 649.4516)" gradientUnits="userSpaceOnUse" xmlns:xlink="http://www.w3.org/1999/xlink" xlink:type="simple" cx="503.6545" r="3.8904" xlink:actuate="onLoad" id="6::SVGID_118_" cy="144.427" xlink:show="other">
		<stop stop-color="#FFFFFF" offset="0.103"/>
		<stop stop-opacity="0" stop-color="#FFFFFF" offset="0.9152"/>
	</radialGradient>
	<path orgstroke="#000000" orgfill="url(#6::SVGID_118_)" fill="url(#6::SVGID_118_)" d="M546.122,296.391c2.108-0.911,4.591-0.016,5.544,2.005   c0.947,2.019,0.012,4.393-2.095,5.305s-4.589,0.014-5.542-2.005C543.08,299.677,544.017,297.303,546.122,296.391z" stroke="#000000" stroke-width="0.25" g2gstroke="#312783"/>
	<ellipse orgstroke="#000000" orgfill="#ffffff" fill="#ffffff" g2gfill="#787878" rx="4.386" cx="560.07" ry="4.197" cy="308.677" stroke="#000000" stroke-width="0.25" g2gstroke="#312783"/>
	
		<radialGradient gradientTransform="matrix(0.9813 -0.4243 -0.4431 -0.9396 117.6072 649.4516)" gradientUnits="userSpaceOnUse" xmlns:xlink="http://www.w3.org/1999/xlink" xlink:type="simple" cx="510.5549" r="4.0723" xlink:actuate="onLoad" id="6::SVGID_119_" cy="132.1238" xlink:show="other">
		<stop stop-color="#FFFFFF" offset="0.103"/>
		<stop stop-opacity="0" stop-color="#FFFFFF" offset="0.9152"/>
	</radialGradient>
	<path orgstroke="#000000" orgfill="url(#6::SVGID_119_)" fill="url(#6::SVGID_119_)" d="M558.265,304.852c2.207-0.953,4.806-0.016,5.802,2.099   c0.995,2.112,0.015,4.598-2.19,5.553c-2.205,0.954-4.803,0.015-5.802-2.099C555.08,308.292,556.061,305.808,558.265,304.852z" stroke="#000000" stroke-width="0.25" g2gstroke="#312783"/>
	
		<radialGradient gradientTransform="matrix(1 0 0 -1 0.3149 595.0171)" gradientUnits="userSpaceOnUse" xmlns:xlink="http://www.w3.org/1999/xlink" xlink:type="simple" cx="547.5374" r="7.4861" xlink:actuate="onLoad" id="6::SVGID_120_" cy="282.3762" xlink:show="other">
		<stop stop-color="#FFFFFF" offset="0.103"/>
		<stop stop-opacity="0" stop-color="#FFFFFF" offset="0.9152"/>
	</radialGradient>
	<circle orgstroke="#000000" orgfill="url(#6::SVGID_120_)" fill="url(#6::SVGID_120_)" r="7.486" cx="547.853" cy="312.641" stroke="#000000" stroke-width="0.25" g2gstroke="#312783"/>
</g>
</g>
</g></svg>