<svg xmlns="http://www.w3.org/2000/svg" xmlns:xlink="http://www.w3.org/1999/xlink" xmlns:etg="http://www.eurotaxglass.com/etg/evd/" etg:dataTimestamp="1539068912893" contentScriptType="text/ecmascript" zoomAndPan="magnify" contentStyleType="text/css" id="Layer_1" style="enable-background:new 0 0 841.891 595.279;" enable-background="new 0 0 1841.891 1595.279" version="1.1" xml:space="preserve" width="1841.891px" preserveAspectRatio="xMidYMid meet" viewBox="0 0 1841.891 1595.279" height="1595.279px" x="0px" y="0px"><g xmlns="http://www.w3.org/2000/svg" objecttype="PS" tooltip="#UNDEFINED" id="9">
<g onmouseover="notifyOwner(AGV_OBJECT_MOUSEOVER, '9(PS)')" transform="translate(32.51611243057249, -6.830272338867189) translate(33.7702661590576, 18.912113525390623)" onclick="clickZoom(evt); notifyOwner(AGV_OBJECT_MOUSECLICK, '9(PS)')" onmouseout="notifyOwner(AGV_OBJECT_MOUSEOUT, '9(PS)')" tooltip="#UNDEFINED" id="9-Graphic" objecttype="GRAPHIC">
<g>
	<path orgstroke="#000000" orgfill="#ffffff" fill="#ffffff" g2gfill="#ECF5E4" d="M430.275,319.094   c0.455,0.521,0.137,1.55-0.713,2.271c-0.85,0.733-1.906,0.899-2.363,0.371l-2.58-2.771c-0.455-0.527-0.137-1.563,0.713-2.283   c0.854-0.732,1.908-0.898,2.363-0.371L430.275,319.094z" outline-element="true" stroke="#000000" stroke-width="0.5" g2gstroke="#312783" stroke-miterlimit="10"/>
	<path orgstroke="#000000" orgfill="none" fill="none" d="M427.064,321.528   c-0.232-0.559,0.104-1.424,0.848-2.063c0.691-0.604,1.521-0.816,2.063-0.604" stroke="#000000" stroke-width="0.25" g2gstroke="#312783" stroke-miterlimit="10"/>
	<path orgstroke="#000000" orgfill="none" fill="none" d="M426.468,321.01   c-0.232-0.563,0.104-1.438,0.848-2.064c0.689-0.596,1.521-0.813,2.049-0.596" stroke="#000000" stroke-width="0.25" g2gstroke="#312783" stroke-miterlimit="10"/>
	
		<line orgstroke="#000000" orgfill="none" fill="none" x1="428.779" x2="428.488" y1="319.761" y2="321.448" stroke="#000000" stroke-width="0.25" g2gstroke="#312783" stroke-miterlimit="10"/>
	
		<line orgstroke="#000000" orgfill="none" fill="none" x1="429.361" x2="429.07" y1="319.511" y2="321.197" stroke="#000000" stroke-width="0.25" g2gstroke="#312783" stroke-miterlimit="10"/>
</g>
</g>
</g></svg>