<svg xmlns="http://www.w3.org/2000/svg" xmlns:xlink="http://www.w3.org/1999/xlink" xmlns:etg="http://www.eurotaxglass.com/etg/evd/" etg:dataTimestamp="1539068912893" contentScriptType="text/ecmascript" zoomAndPan="magnify" contentStyleType="text/css" id="Capa_1" enable-background="new 0 0 1841.891 1595.279" version="1.1" xml:space="preserve" width="1841.891px" preserveAspectRatio="xMidYMid meet" viewBox="0 0 1841.891 1595.279" height="1595.279px" x="0px" y="0px"><g xmlns="http://www.w3.org/2000/svg" objecttype="PS" tooltip="#UNDEFINED" id="112">
<g onmouseover="notifyOwner(AGV_OBJECT_MOUSEOVER, '112(PS)')" transform="translate(30.298809631347638, 36.772926666259764) translate(-637.0022509266453, -53.86035292387896) translate(-85.68454822790818, -41.032037179561655) translate(-13.275070852211229, 25.946729392958105) translate(539.5276378078531, -260.69612751219796) translate(-316.2438647816483, 57.78542379731107) translate(481.0, 219.0) translate(10.0, 10.00006103515625)" onclick="clickZoom(evt); notifyOwner(AGV_OBJECT_MOUSECLICK, '112(PS)')" onmouseout="notifyOwner(AGV_OBJECT_MOUSEOUT, '112(PS)')" tooltip="#UNDEFINED" id="112-Graphic" objecttype="GRAPHIC">
<g zvalue="24">
<g>
<path stroke-linecap="round" orgstroke="#000000" orgfill="#ffffff" fill="#ffffff" g2gfill="#ECC35D" stroke-linejoin="round" d="   M585.532,256.439c-0.039,0.338-0.355,0.59-0.648,0.82c-0.83,0.652-4.178,3.09-5.183,3.613c-1.688,0.879-2.428,0.977-3.228,0.977   c-0.799,0-2.772-1.346-3.405-1.711s-1.388-0.803-2.01-0.418c-0.622,0.387-3.681,3.166-4.29,3.914   c-0.629,0.777-0.883,1.617-0.261,2.514c0.624,0.898,1.054,1.299,1.546,1.557c0.375,0.197,1.062,0.25,1.502,0.201   c1.627-0.176,4.364-0.305,8.251-2.266c6.001-3.029,11.022-7.281,12.584-8.838c0.355-0.354,0.37-0.609,0.37-0.816s0-0.77,0-1.109   c0-0.342-0.285-0.732-0.784-1.26c-0.413-0.434-3.214-2.307-4.162-2.938c-0.261-0.174-0.551-0.158-0.759-0.037   c-0.258,0.148-0.455,0.236-0.587,0.311c-0.548,0.311-0.696,0.814-0.696,1.154c0,0.342,0,1.096,0,1.496s0.148,0.607,0.395,0.865   c0.284,0.301,0.903,0.988,1.232,1.555C585.469,256.142,585.544,256.33,585.532,256.439z" stroke="#000000" outline-element="true" stroke-width="0.5" g2gstroke="#312783" stroke-miterlimit="10"/>
<path orgstroke="#000000" orgfill="none" stroke-linecap="round" fill="none" stroke-linejoin="round" d="   M583.847,251.681c0.563,0.326,1.688,2.025,1.865,2.943c0.115,0.594,0.082,1.25-0.18,1.814" stroke="#000000" stroke-width="0.25" g2gstroke="#312783" stroke-miterlimit="10"/>
<path orgstroke="#000000" orgfill="none" stroke-linecap="round" fill="none" stroke-linejoin="round" d="   M566.2,264.919c1.42,0.01,4.974,0,6.039,0c1.066,0,2.603-0.195,5.704-1.373c1.195-0.453,5.192-2.822,7.443-4.332   c2.068-1.389,4.11-3.15,5.073-5.035" stroke="#000000" stroke-width="0.25" g2gstroke="#312783" stroke-miterlimit="10"/>
</g>
</g>
</g>
</g></svg>