<svg xmlns="http://www.w3.org/2000/svg" xmlns:xlink="http://www.w3.org/1999/xlink" xmlns:etg="http://www.eurotaxglass.com/etg/evd/" etg:dataTimestamp="1539068912893" contentScriptType="text/ecmascript" zoomAndPan="magnify" contentStyleType="text/css" id="Layer_1" enable-background="new 0 0 1841.891 1595.279" version="1.1" xml:space="preserve" width="1841.891px" preserveAspectRatio="xMidYMid meet" viewBox="0 0 1841.891 1595.279" height="1595.279px" x="0px" y="0px"><g xmlns="http://www.w3.org/2000/svg" objecttype="PS" tooltip="#UNDEFINED" id="131">
<g onmouseover="notifyOwner(AGV_OBJECT_MOUSEOVER, '131(PS)')" transform="translate(-1.0864257831144641E-5, 66.80804286193847) translate(-478.1112626953125, -9.244252822875978) translate(59.0, -37.0) translate(572.0, -62.0) translate(10.0, 10.00006103515625)" onclick="clickZoom(evt); notifyOwner(AGV_OBJECT_MOUSECLICK, '131(PS)')" onmouseout="notifyOwner(AGV_OBJECT_MOUSEOUT, '131(PS)')" tooltip="#UNDEFINED" id="131-Graphic" objecttype="GRAPHIC">
<g zvalue="29">
<g>
<path orgstroke="#000000" orgfill="#ffffff" fill="#ffffff" g2gfill="#ECC35D" d="M175.047,391.006l0.009,0.607   c0,0.229-0.173,0.467-0.31,0.557c-0.298,0.193-0.926,0.506-1.24,0.678c-0.215,0.127-0.539,0.113-0.911-0.102l-6.072-3.479   c-0.625-0.361-1.138-1.141-1.138-1.738l-0.001-15.484c0-0.236,0.074-0.42,0.216-0.51c0.306-0.195,0.981-0.502,1.294-0.697   c0.389-0.252,0.55-0.158,0.945,0.07l0.458,0.264c0.245,0.143,0.345,0.156,0.534,0.049l2.465-1.406   c0.505-0.285,1.021-0.25,1.437-0.012l5.321,3.045c0.434,0.25,0.723,0.684,0.724,1.063l-0.01,13.73   c0.005,0.643-0.123,1.043-0.662,1.355l-2.756,1.564C175.138,390.682,175.051,390.768,175.047,391.006z" stroke="#000000" outline-element="true" stroke-width="0.5" g2gstroke="#312783" stroke-miterlimit="10"/>
<path orgstroke="#000000" orgfill="none" fill="none" d="M165.584,371.529   c0.223-0.152,0.555-0.131,0.934,0.088l6.072,3.479c0.634,0.365,1.149,1.146,1.146,1.744v15.484   c0.001,0.248-0.087,0.424-0.235,0.521" stroke="#000000" stroke-width="0.25" g2gstroke="#312783" stroke-miterlimit="10"/>
<path orgstroke="#000000" orgfill="none" fill="none" d="M166.778,374.262   c0-0.414,0.169-0.762,0.643-0.488c0.477,0.275,4.451,2.541,4.451,2.541c0.234,0.137,0.418,0.488,0.438,0.742   c0.024,0.262,0.004,13.105,0,13.344c0.006,0.24-0.145,0.461-0.397,0.314s-4.691-2.682-4.691-2.682   c-0.221-0.127-0.434-0.381-0.433-0.633C166.79,387.148,166.79,374.684,166.778,374.262z" stroke="#000000" stroke-width="0.25" g2gstroke="#312783" stroke-miterlimit="10"/>
<path orgstroke="#000000" orgfill="none" fill="none" d="M175.052,391.195l-0.002-15.068   c0.003-0.598-0.512-1.379-1.146-1.746l-5.899-3.377" stroke="#000000" stroke-width="0.25" g2gstroke="#312783" stroke-miterlimit="10"/>
<path orgstroke="#000000" orgfill="none" fill="none" d="M178.53500366210938 373.2749938964844L174.86199951171875 375.4200134277344" stroke="#000000" stroke-width="0.25" g2gstroke="#312783" stroke-miterlimit="10"/>
<path orgstroke="#000000" orgfill="none" fill="none" d="M168.03700256347656 386.9859924316406L166.88800048828125 387.6499938964844" stroke="#000000" stroke-width="0.25" g2gstroke="#312783" stroke-miterlimit="10"/>
<path orgstroke="#000000" orgfill="none" fill="none" d="M172.419,389.246c0,0-0.817,0.207-0.988,0.252   c-0.171,0.047-0.454,0.027-0.576-0.043c-0.131-0.076-0.279-0.162-0.415-0.24c-0.126-0.072-0.236-0.115-0.236-0.389   c0.002-1.746,0.015-13.436,0.015-13.436" stroke="#000000" stroke-width="0.25" g2gstroke="#312783" stroke-miterlimit="10"/>
<path orgstroke="#000000" orgfill="none" fill="none" d="M171.235,389.525   c-0.103,0-0.189-0.123-0.189-0.213c0.002-1.746,0.017-13.436,0.017-13.436" stroke="#000000" stroke-width="0.25" g2gstroke="#312783" stroke-miterlimit="10"/>
<path orgstroke="#000000" orgfill="none" fill="none" d="M170.254,387.996c0,0-0.817,0.207-0.988,0.252   c-0.171,0.047-0.454,0.027-0.576-0.043c-0.131-0.076-0.279-0.162-0.415-0.24c-0.126-0.072-0.236-0.115-0.236-0.389   c0.002-1.746,0.015-13.436,0.015-13.436" stroke="#000000" stroke-width="0.25" g2gstroke="#312783" stroke-miterlimit="10"/>
<path orgstroke="#000000" orgfill="none" fill="none" d="M169.07,388.275   c-0.103,0-0.189-0.123-0.189-0.213c0.002-1.746,0.017-13.436,0.017-13.436" stroke="#000000" stroke-width="0.25" g2gstroke="#312783" stroke-miterlimit="10"/>
</g>
</g>
</g>
</g></svg>