<svg xmlns="http://www.w3.org/2000/svg" xmlns:xlink="http://www.w3.org/1999/xlink" xmlns:etg="http://www.eurotaxglass.com/etg/evd/" etg:dataTimestamp="1539068912893" contentScriptType="text/ecmascript" zoomAndPan="magnify" contentStyleType="text/css" id="Layer_1" style="enable-background:new 0 0 841.891 595.279;" enable-background="new 0 0 1841.891 1595.279" version="1.1" xml:space="preserve" width="1841.891px" preserveAspectRatio="xMidYMid meet" viewBox="0 0 1841.891 1595.279" height="1595.279px" x="0px" y="0px"><g xmlns="http://www.w3.org/2000/svg" objecttype="PS" tooltip="#UNDEFINED" id="35">
<g onmouseover="notifyOwner(AGV_OBJECT_MOUSEOVER, '35(PS)')" transform="translate(32.51611243057249, -6.830272338867189) translate(33.7702661590576, 18.912113525390623)" onclick="clickZoom(evt); notifyOwner(AGV_OBJECT_MOUSECLICK, '35(PS)')" onmouseout="notifyOwner(AGV_OBJECT_MOUSEOUT, '35(PS)')" tooltip="#UNDEFINED" id="35-Graphic" objecttype="GRAPHIC">
<g>
	<polygon orgstroke="#000000" orgfill="#ffffff" points="323.145,208.585 355.952,189.787    357.832,189.104 359.541,188.933 360.738,189.104 362.105,189.617 365.009,191.496 366.547,192.522 368.256,194.059    369.793,195.597 370.477,197.136 370.648,213.367 370.136,214.052 359.37,220.717 346.041,228.063 343.65,228.576 335.603,233.56    332.201,233.873 329.125,235.753 327.416,235.753 320.41,231.481 320.24,230.969 320.24,222.937 320.752,221.228 321.607,220.546    321.948,220.032 321.948,220.032 318.873,217.469 319.215,216.102 320.41,214.906 321.437,213.882 321.437,210.464 321.778,209.78     " fill="#ffffff" g2gfill="#ECF5E4" outline-element="true" stroke="#000000" stroke-width="0.5" g2gstroke="#312783" stroke-miterlimit="10"/>
	<polyline orgstroke="#000000" orgfill="none" points="321.893,210.293 334.195,217.526    335.278,217.926 335.734,218.039 336.416,217.755 370.307,197.705  " fill="none" stroke="#000000" stroke-width="0.25" g2gstroke="#312783" stroke-miterlimit="10"/>
	
		<line orgstroke="#000000" orgfill="none" fill="none" x1="355.455" x2="369.793" y1="204.796" y2="196.312" stroke="#000000" stroke-width="0.25" g2gstroke="#312783" stroke-miterlimit="10"/>
	
		<line orgstroke="#000000" orgfill="none" fill="none" x1="341.097" x2="351.719" y1="213.289" y2="207.006" stroke="#000000" stroke-width="0.25" g2gstroke="#312783" stroke-miterlimit="10"/>
	
		<line orgstroke="#000000" orgfill="none" fill="none" x1="333.108" x2="335.734" y1="214.574" y2="217.469" stroke="#000000" stroke-width="0.25" g2gstroke="#312783" stroke-miterlimit="10"/>
	
		<line orgstroke="#000000" orgfill="none" fill="none" x1="330.207" x2="331.675" y1="211.376" y2="212.993" stroke="#000000" stroke-width="0.25" g2gstroke="#312783" stroke-miterlimit="10"/>
	<polyline orgstroke="#000000" orgfill="none" points="322.29,210.01 323.715,209.552    324.798,209.438 325.935,209.552 327.304,209.723 328.498,210.179 329.24,210.635  " fill="none" stroke="#000000" stroke-width="0.25" g2gstroke="#312783" stroke-miterlimit="10"/>
	<polyline orgstroke="#000000" orgfill="none" points="322.29,220.26 329.07,224.532    329.98,224.874 330.891,224.874 331.86,224.704 332.771,224.361 335.504,222.824  " fill="none" stroke="#000000" stroke-width="0.25" g2gstroke="#312783" stroke-miterlimit="10"/>
	
		<line orgstroke="#000000" orgfill="none" fill="none" x1="335.576" x2="335.603" y1="228.921" y2="233.56" stroke="#000000" stroke-width="0.25" g2gstroke="#312783" stroke-miterlimit="10"/>
	
		<line orgstroke="#000000" orgfill="none" fill="none" x1="335.618" x2="335.586" y1="218.211" y2="226.183" stroke="#000000" stroke-width="0.25" g2gstroke="#312783" stroke-miterlimit="10"/>
	<polyline orgstroke="#000000" orgfill="none" points="326.563,223.392 327.701,224.59    328.157,225.329 328.386,226.469 328.556,227.494 328.899,235.469  " fill="none" stroke="#000000" stroke-width="0.25" g2gstroke="#312783" stroke-miterlimit="10"/>
	<polyline orgstroke="#000000" orgfill="none" points="327.132,227.095 327.361,228.008    327.701,229.43 327.76,231.196 327.76,235.469  " fill="none" stroke="#000000" stroke-width="0.25" g2gstroke="#312783" stroke-miterlimit="10"/>
	<polyline orgstroke="#000000" orgfill="none" points="320.525,223.793 320.981,223.108    321.551,222.425 321.948,222.084 322.575,222.084 323.202,222.14 323.999,222.653 324.91,223.45 325.935,224.704  " fill="none" stroke="#000000" stroke-width="0.25" g2gstroke="#312783" stroke-miterlimit="10"/>
	<polyline orgstroke="#000000" orgfill="none" points="329.182,233.189 329.751,233.702    330.436,233.93 331.118,233.93 332.316,233.646  " fill="none" stroke="#000000" stroke-width="0.25" g2gstroke="#312783" stroke-miterlimit="10"/>
	
		<ellipse orgstroke="#000000" orgfill="none" transform="matrix(-0.8501 -0.5267 0.5267 -0.8501 511.1667 569.6777)" fill="none" rx="1.196" cx="336.674" ry="0.741" cy="212.077" stroke="#000000" stroke-width="0.25" g2gstroke="#312783" stroke-miterlimit="10"/>
	
		<ellipse orgstroke="#000000" orgfill="none" fill="none" rx="1.196" cx="322.29" ry="0.74" cy="216.646" stroke="#000000" stroke-width="0.25" g2gstroke="#312783" stroke-miterlimit="10"/>
	
		<ellipse orgstroke="#000000" orgfill="none" fill="none" rx="1.195" cx="330.749" ry="0.74" cy="222.083" stroke="#000000" stroke-width="0.25" g2gstroke="#312783" stroke-miterlimit="10"/>
	
		<line orgstroke="#000000" orgfill="none" fill="none" x1="343.65" x2="343.65" y1="228.576" y2="220.26" stroke="#000000" stroke-width="0.25" g2gstroke="#312783" stroke-miterlimit="10"/>
	<polyline orgstroke="#000000" orgfill="none" points="343.593,220.091 343.422,219.748    342.91,219.635 342.511,219.804 342.112,219.976 336.074,223.108  " fill="none" stroke="#000000" stroke-width="0.25" g2gstroke="#312783" stroke-miterlimit="10"/>
	<polyline orgstroke="#000000" orgfill="none" points="370.539,203.175 368.313,204.427    367.173,205.168 365.693,206.477 365.181,207.16 364.439,208.242 363.699,209.552 363.472,210.236 363.187,211.945 363.129,213.14    363.03,218.45  " fill="none" stroke="#000000" stroke-width="0.25" g2gstroke="#312783" stroke-miterlimit="10"/>
	<polyline orgstroke="#000000" orgfill="none" points="354.391,215.924 348.777,219.178    348.434,219.52 348.376,220.317 348.548,226.412  " fill="none" stroke="#000000" stroke-width="0.25" g2gstroke="#312783" stroke-miterlimit="10"/>
	
		<line orgstroke="#000000" orgfill="none" fill="none" x1="363.393" x2="356.959" y1="210.704" y2="214.433" stroke="#000000" stroke-width="0.25" g2gstroke="#312783" stroke-miterlimit="10"/>
	
		<line orgstroke="#000000" orgfill="none" fill="none" x1="330.941" x2="330.941" y1="227.095" y2="231.24" stroke="#000000" stroke-width="0.25" g2gstroke="#312783" stroke-miterlimit="10"/>
</g>
</g>
</g></svg>