<svg xmlns="http://www.w3.org/2000/svg" xmlns:xlink="http://www.w3.org/1999/xlink" xmlns:etg="http://www.eurotaxglass.com/etg/evd/" etg:dataTimestamp="1539068912893" contentScriptType="text/ecmascript" zoomAndPan="magnify" contentStyleType="text/css" id="Layer_1" style="enable-background:new 0 0 841.891 595.279;" enable-background="new 0 0 1841.891 1595.279" version="1.1" xml:space="preserve" width="1841.891px" preserveAspectRatio="xMidYMid meet" viewBox="0 0 1841.891 1595.279" height="1595.279px" x="0px" y="0px"><g xmlns="http://www.w3.org/2000/svg" objecttype="PS" tooltip="#UNDEFINED" id="88">
<g onmouseover="notifyOwner(AGV_OBJECT_MOUSEOVER, '88(PS)')" transform="translate(32.51611243057249, -6.830272338867189) translate(-22.19999999999999, 0.2999999999999545) translate(33.7702661590576, 18.912113525390623) translate(-269.28802588996734, -103.77022653721673) translate(260.4448938321534, 1.0717896865520515) translate(20.0, 22.0) translate(10.0, 10.00006103515625)" onclick="clickZoom(evt); notifyOwner(AGV_OBJECT_MOUSECLICK, '88(PS)')" onmouseout="notifyOwner(AGV_OBJECT_MOUSEOUT, '88(PS)')" tooltip="#UNDEFINED" id="88-Graphic" objecttype="GRAPHIC">
<g zvalue="52">
<g>
<path stroke-linecap="round" orgstroke="#000000" orgfill="#ffffff" fill="#ffffff" g2gfill="#ECC35D" stroke-linejoin="round" d="   M345.826,494.299c0.068,0.96,0.271,2.687,0.785,4.448c0.801,2.742,2.277,5.563,2.277,5.699c-0.001,0.266-4.154,2.609-5.539,2.609   c-0.586,0-3.088,0.16-3.779-3.195c-0.695-3.354-0.707-3.793-0.711-4.508c0-0.645-0.143-1.986,1.775-3.479   c0.994-0.771,1.931-1.33,2.869-2.305C343.502,493.57,345.498,493.333,345.826,494.299z" stroke="#000000" outline-element="true" stroke-width="0.5" g2gstroke="#312783" stroke-miterlimit="10"/>
<path orgstroke="#000000" orgfill="none" stroke-linecap="round" fill="none" stroke-linejoin="round" d="   M348.034,504.445c-1.014-1.273-3.248-5.27-3.676-7.879c-0.228-1.394-0.325-2.303-0.365-2.848" stroke="#000000" stroke-width="0.25" g2gstroke="#312783" stroke-miterlimit="10"/>
<path orgstroke="#000000" orgfill="none" stroke-linecap="round" fill="none" stroke-linejoin="round" d="   M340.1,499.193c-0.17,0.168-0.461,0.568-0.373,1.139c0.09,0.564,0.428,3.742,0.994,4.016c0.568,0.266,3.266-1.119,3.939-1.65   c0.674-0.533,1.047-0.729,0.814-1.207c-0.229-0.479-1.438-3.744-2.059-3.762C342.8,497.703,340.493,498.804,340.1,499.193z" stroke="#000000" stroke-width="0.25" g2gstroke="#312783" stroke-miterlimit="10"/>
<path orgstroke="#000000" orgfill="none" stroke-linecap="round" fill="none" stroke-linejoin="round" d="   M341.151,499.964c-0.098,0.1-0.27,0.338-0.219,0.664c0.053,0.338,0.25,2.186,0.582,2.342c0.332,0.16,1.908-0.654,2.299-0.965   c0.396-0.314,0.611-0.43,0.48-0.705c-0.135-0.279-0.84-2.188-1.203-2.195C342.727,499.093,341.38,499.736,341.151,499.964z" stroke="#000000" stroke-width="0.25" g2gstroke="#312783" stroke-miterlimit="10"/>
</g>
</g>
</g>
</g></svg>