<svg xmlns="http://www.w3.org/2000/svg" xmlns:xlink="http://www.w3.org/1999/xlink" xmlns:etg="http://www.eurotaxglass.com/etg/evd/" etg:dataTimestamp="1539068912893" contentScriptType="text/ecmascript" zoomAndPan="magnify" contentStyleType="text/css" id="Layer_1" enable-background="new 0 0 1841.891 1595.279" version="1.1" xml:space="preserve" width="1841.891px" preserveAspectRatio="xMidYMid meet" viewBox="0 0 1841.891 1595.279" height="1595.279px" x="0px" y="0px"><g xmlns="http://www.w3.org/2000/svg" objecttype="PS" tooltip="#UNDEFINED" id="10">
<g onmouseover="notifyOwner(AGV_OBJECT_MOUSEOVER, '10(PS)')" transform="translate(119.4590917663574, 53.34608493041992) translate(-120,-64) " onclick="clickZoom(evt); notifyOwner(AGV_OBJECT_MOUSECLICK, '10(PS)')" onmouseout="notifyOwner(AGV_OBJECT_MOUSEOUT, '10(PS)')" tooltip="#UNDEFINED" id="10-Graphic" objecttype="GRAPHIC">
<g zvalue="9">
<g>
<g id="8::XMLID_4_">
<g>
<path orgstroke="#000000" orgfill="#ffffff" fill="#ffffff" g2gfill="#787878" d="M672.415,131.606     c27.561,0,49.891,22.33,49.891,49.89c0,27.551-22.33,49.891-49.891,49.891c-27.556,0-49.886-22.34-49.886-49.891     C622.53,153.936,644.86,131.606,672.415,131.606z M713.775,176.477l0.199-0.25c-0.32-2.54-0.879-5.08-1.689-7.61     c-0.813-2.55-1.854-4.96-3.1-7.229l-0.281-0.09l-17.854,8.279l-0.33,0.15c0.01,0-5.65,7.479,3.313,10.26l0.5-0.09     L713.775,176.477z M713.706,188.616l-0.23-0.26c-12.639-2.556-19.359-5.08-20.938-0.53l-0.198,0.601     c-1.609,4.563,5.221,6.54,16.813,12.563l0.371-0.05c0.949-1.808,1.771-3.69,2.459-5.67     C712.744,193.066,713.314,190.836,713.706,188.616z M703.069,210.066v-0.306l-13.478-14.34l-0.25-0.271     c0,0.011-8.881-3-8.701,6.38l0.24,0.45l9.311,17.188l0.289,0.109c2.313-1.109,4.551-2.439,6.701-4.01     C699.346,213.706,701.305,211.956,703.069,210.066z M702.346,152.606l0.059-0.37c-1.42-1.45-2.969-2.819-4.629-4.09     c-1.854-1.41-3.801-2.646-5.791-3.7l-0.313,0.141c-6.349,11.221-10.83,16.83-6.99,19.739l0.5,0.381     C689.025,167.646,693.016,161.776,702.346,152.606z M680.385,140.594l-0.17-0.26c-2.521-0.471-5.109-0.729-7.76-0.729     c-2.687-0.017-5.308,0.233-7.847,0.71l-0.18,0.25l2.379,19.54l0.051,0.354c0-0.011,5.369,7.67,10.779,0l0.07-0.5L680.385,140.594     z M679.266,222.826l0.17-0.313c-1.74-12.771-1.561-19.944-6.381-19.938h-0.641c-4.83-0.01-4.459,7.08-6.33,20.021l0.172,0.348     c2.01,0.29,4.063,0.442,6.158,0.442C674.756,223.385,677.03,223.196,679.266,222.826z M664.596,202.175l0.17-0.313     c-0.012,0.01,0.059-9.37-8.791-6.25l-0.35,0.37l-13.396,14.229l-0.01,0.32c1.771,1.84,3.74,3.55,5.897,5.09     c2.183,1.561,4.459,2.88,6.804,3.96l0.289-0.104L664.596,202.175z M660.376,164.196c3.971-2.76-0.396-8.37-6.24-20.063     l-0.33-0.17c-1.83,0.899-3.6,1.949-5.32,3.149c-1.91,1.33-3.68,2.8-5.299,4.37l0.039,0.351     c8.721,9.479,12.68,15.479,16.631,12.721L660.376,164.196z M650.693,180.425c-0.01-0.01,8.939-2.8,3.271-10.273l-0.461-0.227     l-17.648-8.409l-0.301,0.096c-1.209,2.25-2.24,4.646-3.049,7.18c-0.82,2.551-1.371,5.12-1.691,7.681l0.183,0.239l19.344,3.65     L650.693,180.425z M635.443,200.594c11.646-5.522,18.539-7.522,17.07-12.113l-0.191-0.604c-1.442-4.608-8.1-2.108-21,0.021     l-0.27,0.271c0.33,2,0.811,4.01,1.438,6.01c0.714,2.228,1.58,4.348,2.604,6.354L635.443,200.594z" stroke="#000000" outline-element="true" stroke-width="0.5" g2gstroke="#312783" stroke-miterlimit="10"/>
</g>
<g>
<path orgstroke="#000000" orgfill="none" fill="none" d="M722.305,181.496     c0,27.551-22.33,49.891-49.891,49.891c-27.556,0-49.886-22.34-49.886-49.891c0-27.56,22.33-49.89,49.886-49.89     C699.974,131.606,722.305,153.936,722.305,181.496z" stroke="#000000" outline-element="true" stroke-width="0.5" g2gstroke="#312783" stroke-miterlimit="10"/>
<path orgstroke="#000000" orgfill="none" fill="none" d="M677.644,160.466     c-5.41,7.67-10.779-0.011-10.779,0l-0.051-0.354l-2.379-19.54l0.18-0.25c2.539-0.477,5.16-0.727,7.841-0.71     c2.649,0,5.239,0.26,7.766,0.729l0.17,0.26l-2.67,19.37L677.644,160.466z" stroke="#000000" outline-element="true" stroke-width="0.5" g2gstroke="#312783" stroke-miterlimit="10"/>
<path orgstroke="#000000" orgfill="none" fill="none" d="M694.03,179.986     c-8.971-2.78-3.311-10.26-3.313-10.26l0.33-0.15l17.854-8.279l0.281,0.09c1.24,2.271,2.279,4.687,3.1,7.229     c0.813,2.53,1.369,5.07,1.689,7.61l-0.199,0.25l-19.235,3.42L694.03,179.986z" stroke="#000000" outline-element="true" stroke-width="0.5" g2gstroke="#312783" stroke-miterlimit="10"/>
<path orgstroke="#000000" orgfill="none" fill="none" d="M680.644,201.536     c-0.18-9.38,8.701-6.369,8.701-6.38l0.25,0.271l13.479,14.347v0.3c-1.77,1.891-3.729,3.641-5.889,5.21     c-2.15,1.563-4.391,2.896-6.701,4.01l-0.289-0.109l-9.311-17.188L680.644,201.536z" stroke="#000000" outline-element="true" stroke-width="0.5" g2gstroke="#312783" stroke-miterlimit="10"/>
<path orgstroke="#000000" orgfill="none" fill="none" d="M655.974,195.606     c8.85-3.12,8.779,6.26,8.791,6.25l-0.17,0.313l-9.381,17.302l-0.289,0.104c-2.342-1.08-4.621-2.399-6.801-3.96     c-2.16-1.54-4.138-3.25-5.9-5.09l0.01-0.32l13.396-14.229L655.974,195.606z" stroke="#000000" outline-element="true" stroke-width="0.5" g2gstroke="#312783" stroke-miterlimit="10"/>
<path orgstroke="#000000" orgfill="none" fill="none" d="M653.965,170.146     c5.67,7.479-3.279,10.271-3.271,10.273l-0.354-0.063l-19.347-3.65l-0.18-0.239c0.32-2.561,0.871-5.13,1.691-7.681     c0.809-2.529,1.84-4.93,3.049-7.18l0.301-0.096l17.648,8.409L653.965,170.146z" stroke="#000000" outline-element="true" stroke-width="0.5" g2gstroke="#312783" stroke-miterlimit="10"/>
<path orgstroke="#000000" orgfill="none" fill="none" d="M666.085,222.594     c1.871-12.938,1.5-20.022,6.33-20.021h0.641c4.82-0.01,4.641,7.17,6.381,19.938l-0.17,0.313c-2.229,0.37-4.51,0.561-6.852,0.561     c-2.097,0-4.148-0.152-6.16-0.442L666.085,222.594z" stroke="#000000" outline-element="true" stroke-width="0.5" g2gstroke="#312783" stroke-miterlimit="10"/>
<path orgstroke="#000000" orgfill="none" fill="none" d="M709.151,200.986     c-11.6-6.021-18.43-8-16.813-12.563l0.192-0.601c1.58-4.55,8.308-2.021,20.939,0.53l0.229,0.26     c-0.393,2.221-0.962,4.45-1.723,6.646c-0.688,1.979-1.51,3.868-2.461,5.67L709.151,200.986z" stroke="#000000" outline-element="true" stroke-width="0.5" g2gstroke="#312783" stroke-miterlimit="10"/>
<path orgstroke="#000000" orgfill="none" fill="none" d="M702.346,152.606     c-9.33,9.17-13.32,15.04-17.17,12.1l-0.5-0.38c-3.84-2.909,0.646-8.521,6.99-19.739l0.313-0.141c1.99,1.061,3.938,2.29,5.789,3.7     c1.66,1.271,3.211,2.64,4.631,4.09L702.346,152.606z" stroke="#000000" outline-element="true" stroke-width="0.5" g2gstroke="#312783" stroke-miterlimit="10"/>
<path orgstroke="#000000" orgfill="none" fill="none" d="M654.135,144.135     c5.85,11.689,10.211,17.307,6.24,20.063l-0.521,0.354c-3.951,2.766-7.91-3.234-16.631-12.721l-0.039-0.351     c1.619-1.57,3.389-3.04,5.299-4.37c1.728-1.199,3.49-2.25,5.32-3.149L654.135,144.135z" stroke="#000000" outline-element="true" stroke-width="0.5" g2gstroke="#312783" stroke-miterlimit="10"/>
<path orgstroke="#000000" orgfill="none" fill="none" d="M631.319,187.896     c12.9-2.136,19.558-4.636,21-0.021l0.191,0.604c1.469,4.59-5.434,6.59-17.07,12.113l-0.35-0.063     c-1.021-2.011-1.896-4.13-2.604-6.354c-0.629-2-1.104-4.01-1.438-6.01L631.319,187.896z" stroke="#000000" outline-element="true" stroke-width="0.5" g2gstroke="#312783" stroke-miterlimit="10"/>
</g>
</g>
<g id="8::XMLID_18_">
<g>
<radialGradient gradientTransform="matrix(1 0 0 1 0.7798 595.1768)" gradientUnits="userSpaceOnUse" xmlns:xlink="http://www.w3.org/1999/xlink" xlink:type="simple" r="49.8894" cx="671.6399" xlink:actuate="onLoad" cy="-413.7556" id="8::SVGID_134_" xlink:show="other">
<stop stop-opacity="0" stop-color="#FFFFFF" offset="0.1576"/>
<stop stop-opacity="0.4" stop-color="#FFFFFF" offset="0.3697"/>
<stop stop-opacity="0.1" stop-color="#FFFFFF" offset="0.5333"/>
<stop stop-opacity="0" stop-color="#FFFFFF" offset="0.8364"/>
<stop stop-opacity="0.4" stop-color="#FFFFFF" offset="0.9697"/>
<stop stop-opacity="0.8" stop-color="#FFFFFF" offset="1"/>
</radialGradient>
<path orgstroke="#000000" orgfill="url(#8::SVGID_134_)" fill="url(#8::SVGID_134_)" d="M672.417,131.53     c27.561,0,49.891,22.33,49.891,49.89c0,27.551-22.33,49.893-49.891,49.893c-27.556,0-49.886-22.342-49.886-49.893     C622.531,153.86,644.862,131.53,672.417,131.53z M713.776,176.401l0.199-0.25c-0.32-2.54-0.879-5.08-1.689-7.61     c-0.813-2.55-1.854-4.96-3.1-7.229l-0.281-0.092l-17.854,8.279l-0.33,0.15c0.01,0-5.65,7.479,3.313,10.26l0.5-0.09     L713.776,176.401z M713.708,188.539l-0.23-0.26c-12.639-2.556-19.357-5.08-20.938-0.53l-0.198,0.601     c-1.609,4.563,5.221,6.54,16.813,12.563l0.371-0.05c0.949-1.808,1.771-3.69,2.459-5.67     C712.746,192.99,713.316,190.759,713.708,188.539z M703.071,209.99v-0.304l-13.478-14.342l-0.25-0.271     c0,0.011-8.881-3-8.701,6.38l0.24,0.45l9.311,17.188l0.289,0.109c2.313-1.109,4.551-2.439,6.701-4.01     C699.348,213.629,701.307,211.879,703.071,209.99z M702.348,152.53l0.059-0.37c-1.42-1.45-2.969-2.819-4.629-4.09     c-1.854-1.41-3.801-2.646-5.791-3.7l-0.313,0.141c-6.349,11.223-10.83,16.83-6.99,19.739l0.5,0.381     C689.026,167.57,693.018,161.7,702.348,152.53z M680.387,140.518l-0.17-0.262c-2.521-0.471-5.109-0.729-7.76-0.729     c-2.687-0.017-5.308,0.233-7.847,0.71l-0.18,0.25l2.379,19.54l0.051,0.354c0-0.011,5.369,7.67,10.779,0l0.07-0.5L680.387,140.518     z M679.268,222.749l0.17-0.313c-1.74-12.771-1.561-19.946-6.381-19.938h-0.641c-4.83-0.01-4.459,7.08-6.33,20.021l0.172,0.346     c2.01,0.29,4.063,0.444,6.158,0.444C674.758,223.307,677.031,223.12,679.268,222.749z M664.598,202.097l0.17-0.313     c-0.012,0.01,0.059-9.37-8.791-6.25l-0.35,0.37l-13.396,14.229l-0.01,0.32c1.771,1.84,3.74,3.55,5.898,5.09     c2.182,1.563,4.459,2.88,6.803,3.96l0.289-0.104L664.598,202.097z M660.378,164.12c3.971-2.76-0.396-8.37-6.24-20.063l-0.33-0.17     c-1.83,0.899-3.6,1.949-5.32,3.149c-1.909,1.33-3.68,2.8-5.299,4.37l0.039,0.351c8.721,9.479,12.68,15.479,16.631,12.723     L660.378,164.12z M650.693,180.347c-0.01-0.01,8.939-2.8,3.271-10.273l-0.461-0.227l-17.648-8.407l-0.301,0.094     c-1.209,2.25-2.24,4.646-3.049,7.18c-0.82,2.551-1.371,5.12-1.691,7.683l0.185,0.237l19.342,3.65L650.693,180.347z      M635.443,200.518c11.646-5.524,18.539-7.524,17.07-12.115l-0.191-0.604c-1.442-4.607-8.1-2.107-21,0.021l-0.27,0.271     c0.33,2,0.811,4.01,1.438,6.01c0.716,2.228,1.58,4.348,2.604,6.354L635.443,200.518z" stroke="#000000" outline-element="true" stroke-width="0.5" g2gstroke="#312783" stroke-miterlimit="10"/>
</g>
<g>
<radialGradient gradientTransform="matrix(1 0 0 1 0.21 -0.0811)" gradientUnits="userSpaceOnUse" xmlns:xlink="http://www.w3.org/1999/xlink" xlink:type="simple" r="49.8894" cx="672.2092" xlink:actuate="onLoad" cy="181.5012" id="8::SVGID_135_" xlink:show="other">
<stop stop-opacity="0" stop-color="#FFFFFF" offset="0.1576"/>
<stop stop-opacity="0.4" stop-color="#FFFFFF" offset="0.3697"/>
<stop stop-opacity="0.1" stop-color="#FFFFFF" offset="0.5333"/>
<stop stop-opacity="0" stop-color="#FFFFFF" offset="0.8364"/>
<stop stop-opacity="0.4" stop-color="#FFFFFF" offset="0.9697"/>
<stop stop-opacity="0.8" stop-color="#FFFFFF" offset="1"/>
</radialGradient>
<path orgstroke="#000000" orgfill="url(#8::SVGID_135_)" fill="url(#8::SVGID_135_)" d="M722.307,181.419     c0,27.551-22.33,49.893-49.891,49.893c-27.556,0-49.886-22.342-49.886-49.893c0-27.56,22.33-49.89,49.886-49.89     C699.976,131.53,722.307,153.86,722.307,181.419z" stroke="#000000" outline-element="true" stroke-width="0.5" g2gstroke="#312783" stroke-miterlimit="10"/>
<radialGradient gradientTransform="matrix(1 0 0 1 0.21 -0.0811)" gradientUnits="userSpaceOnUse" xmlns:xlink="http://www.w3.org/1999/xlink" xlink:type="simple" r="10.2658" cx="672.2053" xlink:actuate="onLoad" cy="151.7458" id="8::SVGID_136_" xlink:show="other">
<stop stop-opacity="0" stop-color="#FFFFFF" offset="0.1576"/>
<stop stop-opacity="0.4" stop-color="#FFFFFF" offset="0.3697"/>
<stop stop-opacity="0.1" stop-color="#FFFFFF" offset="0.5333"/>
<stop stop-opacity="0" stop-color="#FFFFFF" offset="0.8364"/>
<stop stop-opacity="0.4" stop-color="#FFFFFF" offset="0.9697"/>
<stop stop-opacity="0.8" stop-color="#FFFFFF" offset="1"/>
</radialGradient>
<path orgstroke="#000000" orgfill="url(#8::SVGID_136_)" fill="url(#8::SVGID_136_)" d="M677.646,160.388     c-5.41,7.67-10.779-0.011-10.779,0l-0.051-0.354l-2.379-19.54l0.18-0.25c2.539-0.475,5.16-0.725,7.843-0.71     c2.647,0,5.237,0.26,7.764,0.729l0.17,0.262l-2.67,19.369L677.646,160.388z" stroke="#000000" outline-element="true" stroke-width="0.5" g2gstroke="#312783" stroke-miterlimit="10"/>
<radialGradient gradientTransform="matrix(1 0 0 1 0.21 -0.0811)" gradientUnits="userSpaceOnUse" xmlns:xlink="http://www.w3.org/1999/xlink" xlink:type="simple" r="11.0396" cx="701.2561" xlink:actuate="onLoad" cy="170.6462" id="8::SVGID_137_" xlink:show="other">
<stop stop-opacity="0" stop-color="#FFFFFF" offset="0.1576"/>
<stop stop-opacity="0.4" stop-color="#FFFFFF" offset="0.3697"/>
<stop stop-opacity="0.1" stop-color="#FFFFFF" offset="0.5333"/>
<stop stop-opacity="0" stop-color="#FFFFFF" offset="0.8364"/>
<stop stop-opacity="0.4" stop-color="#FFFFFF" offset="0.9697"/>
<stop stop-opacity="0.8" stop-color="#FFFFFF" offset="1"/>
</radialGradient>
<path orgstroke="#000000" orgfill="url(#8::SVGID_137_)" fill="url(#8::SVGID_137_)" d="M694.031,179.91     c-8.971-2.78-3.311-10.26-3.313-10.26l0.33-0.15l17.854-8.279l0.281,0.092c1.24,2.271,2.279,4.685,3.102,7.229     c0.813,2.53,1.367,5.07,1.688,7.61l-0.199,0.25l-19.235,3.42L694.031,179.91z" stroke="#000000" outline-element="true" stroke-width="0.5" g2gstroke="#312783" stroke-miterlimit="10"/>
<radialGradient gradientTransform="matrix(1 0 0 1 0.21 -0.0811)" gradientUnits="userSpaceOnUse" xmlns:xlink="http://www.w3.org/1999/xlink" xlink:type="simple" r="11.768" cx="691.6487" xlink:actuate="onLoad" cy="207.0022" id="8::SVGID_138_" xlink:show="other">
<stop stop-opacity="0" stop-color="#FFFFFF" offset="0.1576"/>
<stop stop-opacity="0.4" stop-color="#FFFFFF" offset="0.3697"/>
<stop stop-opacity="0.1" stop-color="#FFFFFF" offset="0.5333"/>
<stop stop-opacity="0" stop-color="#FFFFFF" offset="0.8364"/>
<stop stop-opacity="0.4" stop-color="#FFFFFF" offset="0.9697"/>
<stop stop-opacity="0.8" stop-color="#FFFFFF" offset="1"/>
</radialGradient>
<path orgstroke="#000000" orgfill="url(#8::SVGID_138_)" fill="url(#8::SVGID_138_)" d="M680.646,201.459     c-0.18-9.38,8.701-6.369,8.701-6.38l0.25,0.271l13.479,14.347v0.3c-1.77,1.891-3.729,3.641-5.889,5.21     c-2.148,1.563-4.391,2.896-6.701,4.01l-0.289-0.107l-9.311-17.188L680.646,201.459z" stroke="#000000" outline-element="true" stroke-width="0.5" g2gstroke="#312783" stroke-miterlimit="10"/>
<radialGradient gradientTransform="matrix(1 0 0 1 0.21 -0.0811)" gradientUnits="userSpaceOnUse" xmlns:xlink="http://www.w3.org/1999/xlink" xlink:type="simple" r="11.7979" cx="653.2864" xlink:actuate="onLoad" cy="207.2781" id="8::SVGID_139_" xlink:show="other">
<stop stop-opacity="0" stop-color="#FFFFFF" offset="0.1576"/>
<stop stop-opacity="0.4" stop-color="#FFFFFF" offset="0.3697"/>
<stop stop-opacity="0.1" stop-color="#FFFFFF" offset="0.5333"/>
<stop stop-opacity="0" stop-color="#FFFFFF" offset="0.8364"/>
<stop stop-opacity="0.4" stop-color="#FFFFFF" offset="0.9697"/>
<stop stop-opacity="0.8" stop-color="#FFFFFF" offset="1"/>
</radialGradient>
<path orgstroke="#000000" orgfill="url(#8::SVGID_139_)" fill="url(#8::SVGID_139_)" d="M655.976,195.53     c8.85-3.12,8.779,6.26,8.791,6.25l-0.17,0.313l-9.381,17.304l-0.289,0.104c-2.342-1.08-4.621-2.397-6.801-3.96     c-2.16-1.54-4.138-3.25-5.9-5.09l0.01-0.32l13.396-14.229L655.976,195.53z" stroke="#000000" outline-element="true" stroke-width="0.5" g2gstroke="#312783" stroke-miterlimit="10"/>
<radialGradient gradientTransform="matrix(1 0 0 1 0.21 -0.0811)" gradientUnits="userSpaceOnUse" xmlns:xlink="http://www.w3.org/1999/xlink" xlink:type="simple" r="11.0919" cx="643.1213" xlink:actuate="onLoad" cy="170.9709" id="8::SVGID_140_" xlink:show="other">
<stop stop-opacity="0" stop-color="#FFFFFF" offset="0.1576"/>
<stop stop-opacity="0.4" stop-color="#FFFFFF" offset="0.3697"/>
<stop stop-opacity="0.1" stop-color="#FFFFFF" offset="0.5333"/>
<stop stop-opacity="0" stop-color="#FFFFFF" offset="0.8364"/>
<stop stop-opacity="0.4" stop-color="#FFFFFF" offset="0.9697"/>
<stop stop-opacity="0.8" stop-color="#FFFFFF" offset="1"/>
</radialGradient>
<path orgstroke="#000000" orgfill="url(#8::SVGID_140_)" fill="url(#8::SVGID_140_)" d="M653.967,170.07     c5.67,7.479-3.279,10.271-3.271,10.273l-0.354-0.063l-19.347-3.65l-0.18-0.239c0.32-2.561,0.871-5.13,1.691-7.681     c0.809-2.529,1.84-4.93,3.049-7.18l0.301-0.094l17.648,8.407L653.967,170.07z" stroke="#000000" outline-element="true" stroke-width="0.5" g2gstroke="#312783" stroke-miterlimit="10"/>
<radialGradient gradientTransform="matrix(1 0 0 1 0.21 -0.0811)" gradientUnits="userSpaceOnUse" xmlns:xlink="http://www.w3.org/1999/xlink" xlink:type="simple" r="8.742" cx="672.553" xlink:actuate="onLoad" cy="212.9836" id="8::SVGID_141_" xlink:show="other">
<stop stop-opacity="0" stop-color="#FFFFFF" offset="0.1576"/>
<stop stop-opacity="0.4" stop-color="#FFFFFF" offset="0.3697"/>
<stop stop-opacity="0.1" stop-color="#FFFFFF" offset="0.5333"/>
<stop stop-opacity="0" stop-color="#FFFFFF" offset="0.8364"/>
<stop stop-opacity="0.4" stop-color="#FFFFFF" offset="0.9697"/>
<stop stop-opacity="0.8" stop-color="#FFFFFF" offset="1"/>
</radialGradient>
<path orgstroke="#000000" orgfill="url(#8::SVGID_141_)" fill="url(#8::SVGID_141_)" d="M666.087,222.518     c1.871-12.938,1.5-20.024,6.33-20.021h0.641c4.82-0.01,4.641,7.17,6.381,19.938l-0.17,0.313c-2.229,0.37-4.51,0.561-6.852,0.561     c-2.097,0-4.148-0.152-6.16-0.442L666.087,222.518z" stroke="#000000" outline-element="true" stroke-width="0.5" g2gstroke="#312783" stroke-miterlimit="10"/>
<radialGradient gradientTransform="matrix(1 0 0 1 0.21 -0.0811)" gradientUnits="userSpaceOnUse" xmlns:xlink="http://www.w3.org/1999/xlink" xlink:type="simple" r="9.4351" cx="702.6907" xlink:actuate="onLoad" cy="193.1521" id="8::SVGID_142_" xlink:show="other">
<stop stop-opacity="0" stop-color="#FFFFFF" offset="0.1576"/>
<stop stop-opacity="0.4" stop-color="#FFFFFF" offset="0.3697"/>
<stop stop-opacity="0.1" stop-color="#FFFFFF" offset="0.5333"/>
<stop stop-opacity="0" stop-color="#FFFFFF" offset="0.8364"/>
<stop stop-opacity="0.4" stop-color="#FFFFFF" offset="0.9697"/>
<stop stop-opacity="0.8" stop-color="#FFFFFF" offset="1"/>
</radialGradient>
<path orgstroke="#000000" orgfill="url(#8::SVGID_142_)" fill="url(#8::SVGID_142_)" d="M709.151,200.91     c-11.6-6.021-18.43-8-16.813-12.563l0.192-0.601c1.58-4.55,8.308-2.021,20.939,0.53l0.229,0.26     c-0.393,2.221-0.962,4.45-1.723,6.646c-0.688,1.979-1.51,3.868-2.461,5.672L709.151,200.91z" stroke="#000000" outline-element="true" stroke-width="0.5" g2gstroke="#312783" stroke-miterlimit="10"/>
<radialGradient gradientTransform="matrix(1 0 0 1 0.21 -0.0811)" gradientUnits="userSpaceOnUse" xmlns:xlink="http://www.w3.org/1999/xlink" xlink:type="simple" r="10.0525" cx="692.6194" xlink:actuate="onLoad" cy="154.9626" id="8::SVGID_143_" xlink:show="other">
<stop stop-opacity="0" stop-color="#FFFFFF" offset="0.1576"/>
<stop stop-opacity="0.4" stop-color="#FFFFFF" offset="0.3697"/>
<stop stop-opacity="0.1" stop-color="#FFFFFF" offset="0.5333"/>
<stop stop-opacity="0" stop-color="#FFFFFF" offset="0.8364"/>
<stop stop-opacity="0.4" stop-color="#FFFFFF" offset="0.9697"/>
<stop stop-opacity="0.8" stop-color="#FFFFFF" offset="1"/>
</radialGradient>
<path orgstroke="#000000" orgfill="url(#8::SVGID_143_)" fill="url(#8::SVGID_143_)" d="M702.348,152.53     c-9.33,9.17-13.32,15.04-17.17,12.1l-0.5-0.38c-3.84-2.909,0.646-8.521,6.99-19.739l0.313-0.141c1.99,1.061,3.938,2.29,5.789,3.7     c1.66,1.271,3.211,2.64,4.631,4.09L702.348,152.53z" stroke="#000000" outline-element="true" stroke-width="0.5" g2gstroke="#312783" stroke-miterlimit="10"/>
<radialGradient gradientTransform="matrix(1 0 0 1 0.21 -0.0811)" gradientUnits="userSpaceOnUse" xmlns:xlink="http://www.w3.org/1999/xlink" xlink:type="simple" r="10.0176" cx="652.3362" xlink:actuate="onLoad" cy="154.5999" id="8::SVGID_144_" xlink:show="other">
<stop stop-opacity="0" stop-color="#FFFFFF" offset="0.1576"/>
<stop stop-opacity="0.4" stop-color="#FFFFFF" offset="0.3697"/>
<stop stop-opacity="0.1" stop-color="#FFFFFF" offset="0.5333"/>
<stop stop-opacity="0" stop-color="#FFFFFF" offset="0.8364"/>
<stop stop-opacity="0.4" stop-color="#FFFFFF" offset="0.9697"/>
<stop stop-opacity="0.8" stop-color="#FFFFFF" offset="1"/>
</radialGradient>
<path orgstroke="#000000" orgfill="url(#8::SVGID_144_)" fill="url(#8::SVGID_144_)" d="M654.137,144.057     c5.85,11.689,10.211,17.307,6.24,20.063l-0.521,0.356c-3.951,2.764-7.91-3.236-16.631-12.723l-0.039-0.351     c1.619-1.57,3.389-3.04,5.299-4.37c1.728-1.199,3.49-2.25,5.32-3.149L654.137,144.057z" stroke="#000000" outline-element="true" stroke-width="0.5" g2gstroke="#312783" stroke-miterlimit="10"/>
<radialGradient gradientTransform="matrix(1 0 0 1 0.21 -0.0811)" gradientUnits="userSpaceOnUse" xmlns:xlink="http://www.w3.org/1999/xlink" xlink:type="simple" r="9.3798" cx="641.6692" xlink:actuate="onLoad" cy="192.9382" id="8::SVGID_145_" xlink:show="other">
<stop stop-opacity="0" stop-color="#FFFFFF" offset="0.1576"/>
<stop stop-opacity="0.4" stop-color="#FFFFFF" offset="0.3697"/>
<stop stop-opacity="0.1" stop-color="#FFFFFF" offset="0.5333"/>
<stop stop-opacity="0" stop-color="#FFFFFF" offset="0.8364"/>
<stop stop-opacity="0.4" stop-color="#FFFFFF" offset="0.9697"/>
<stop stop-opacity="0.8" stop-color="#FFFFFF" offset="1"/>
</radialGradient>
<path orgstroke="#000000" orgfill="url(#8::SVGID_145_)" fill="url(#8::SVGID_145_)" d="M631.321,187.82     c12.9-2.134,19.558-4.634,21-0.021l0.191,0.604c1.469,4.59-5.432,6.59-17.07,12.115l-0.35-0.064     c-1.021-2.011-1.896-4.13-2.604-6.354c-0.629-2-1.104-4.01-1.438-6.01L631.321,187.82z" stroke="#000000" outline-element="true" stroke-width="0.5" g2gstroke="#312783" stroke-miterlimit="10"/>
</g>
</g>
<ellipse orgstroke="#000000" orgfill="none" fill="none" rx="47.389" cx="672.421" ry="47.389" cy="181.493" stroke="#000000" stroke-width="0.25" g2gstroke="#312783" stroke-miterlimit="10"/>
<path orgstroke="#000000" orgfill="none" fill="none" d="M664.4390258789062 140.56199645996094L663.7490234375 134.88400268554688" stroke="#000000" stroke-width="0.25" g2gstroke="#312783" stroke-miterlimit="10"/>
<path orgstroke="#000000" orgfill="none" fill="none" d="M667.8460083007812 168.5500030517578L666.8179931640625 160.10299682617188" stroke="#000000" stroke-width="0.25" g2gstroke="#312783" stroke-miterlimit="10"/>
<path orgstroke="#000000" orgfill="none" fill="none" d="M680.3889770507812 140.5989990234375L681.1740112304688 134.9219970703125" stroke="#000000" stroke-width="0.25" g2gstroke="#312783" stroke-miterlimit="10"/>
<path orgstroke="#000000" orgfill="none" fill="none" d="M676.5260009765625 168.56900024414062L677.7169799804688 159.96299743652344" stroke="#000000" stroke-width="0.25" g2gstroke="#312783" stroke-miterlimit="10"/>
<path orgstroke="#000000" orgfill="none" fill="none" d="M708.9010009765625 161.29100036621094L714.0900268554688 158.88400268554688" stroke="#000000" stroke-width="0.25" g2gstroke="#312783" stroke-miterlimit="10"/>
<path orgstroke="#000000" orgfill="none" fill="none" d="M683.3189697265625 173.15499877929688L691.0440063476562 169.5749969482422" stroke="#000000" stroke-width="0.25" g2gstroke="#312783" stroke-miterlimit="10"/>
<path orgstroke="#000000" orgfill="none" fill="none" d="M713.7760009765625 176.4770050048828L719.4219970703125 175.4720001220703" stroke="#000000" stroke-width="0.25" g2gstroke="#312783" stroke-miterlimit="10"/>
<path orgstroke="#000000" orgfill="none" fill="none" d="M685.97998046875 181.4199981689453L694.530029296875 179.8990020751953" stroke="#000000" stroke-width="0.25" g2gstroke="#312783" stroke-miterlimit="10"/>
<path orgstroke="#000000" orgfill="none" fill="none" d="M703.0679931640625 209.76800537109375L706.9840087890625 213.93600463867188" stroke="#000000" stroke-width="0.25" g2gstroke="#312783" stroke-miterlimit="10"/>
<path orgstroke="#000000" orgfill="none" fill="none" d="M683.7659912109375 189.218994140625L689.5919799804688 195.42300415039062" stroke="#000000" stroke-width="0.25" g2gstroke="#312783" stroke-miterlimit="10"/>
<path orgstroke="#000000" orgfill="none" fill="none" d="M690.1909790039062 219.1750030517578L692.9210205078125 224.21600341796875" stroke="#000000" stroke-width="0.25" g2gstroke="#312783" stroke-miterlimit="10"/>
<path orgstroke="#000000" orgfill="none" fill="none" d="M676.7559814453125 194.3419952392578L680.8889770507812 201.98399353027344" stroke="#000000" stroke-width="0.25" g2gstroke="#312783" stroke-miterlimit="10"/>
<path orgstroke="#000000" orgfill="none" fill="none" d="M655.2119750976562 219.47799682617188L652.4840087890625 224.5070037841797" stroke="#000000" stroke-width="0.25" g2gstroke="#312783" stroke-miterlimit="10"/>
<path orgstroke="#000000" orgfill="none" fill="none" d="M668.6500244140625 194.69200134277344L664.593994140625 202.1739959716797" stroke="#000000" stroke-width="0.25" g2gstroke="#312783" stroke-miterlimit="10"/>
<path orgstroke="#000000" orgfill="none" fill="none" d="M642.2340087890625 210.20799255371094L638.3049926757812 214.3820037841797" stroke="#000000" stroke-width="0.25" g2gstroke="#312783" stroke-miterlimit="10"/>
<path orgstroke="#000000" orgfill="none" fill="none" d="M661.5850219726562 189.64700317382812L655.6300048828125 195.9720001220703" stroke="#000000" stroke-width="0.25" g2gstroke="#312783" stroke-miterlimit="10"/>
<path orgstroke="#000000" orgfill="none" fill="none" d="M630.9940185546875 176.70599365234375L625.3740234375 175.64599609375" stroke="#000000" stroke-width="0.25" g2gstroke="#312783" stroke-miterlimit="10"/>
<path orgstroke="#000000" orgfill="none" fill="none" d="M658.6939697265625 181.93299865722656L650.3369750976562 180.3560028076172" stroke="#000000" stroke-width="0.25" g2gstroke="#312783" stroke-miterlimit="10"/>
<path orgstroke="#000000" orgfill="none" fill="none" d="M635.8569946289062 161.51800537109375L630.6829833984375 159.0500030517578" stroke="#000000" stroke-width="0.25" g2gstroke="#312783" stroke-miterlimit="10"/>
<path orgstroke="#000000" orgfill="none" fill="none" d="M661.3460083007812 173.66400146484375L653.5029907226562 169.9250030517578" stroke="#000000" stroke-width="0.25" g2gstroke="#312783" stroke-miterlimit="10"/>
<path orgstroke="#000000" orgfill="none" fill="none" d="M680.318,228.329   c-0.348-2.047-0.635-3.984-0.885-5.81" stroke="#000000" stroke-width="0.25" g2gstroke="#312783" stroke-miterlimit="10"/>
<path orgstroke="#000000" orgfill="none" fill="none" d="M666.083,222.599   c-0.267,1.804-0.563,3.708-0.937,5.729" stroke="#000000" stroke-width="0.25" g2gstroke="#312783" stroke-miterlimit="10"/>
<path orgstroke="#000000" orgfill="none" fill="none" d="M694.433,139.405   c-0.961,1.842-1.902,3.561-2.807,5.164" stroke="#000000" stroke-width="0.25" g2gstroke="#312783" stroke-miterlimit="10"/>
<path orgstroke="#000000" orgfill="none" fill="none" d="M702.31,152.573   c1.295-1.274,2.691-2.613,4.205-4.002" stroke="#000000" stroke-width="0.25" g2gstroke="#312783" stroke-miterlimit="10"/>
<path orgstroke="#000000" orgfill="none" fill="none" d="M713.5380249023438 188.427001953125L719.1409912109375 189.46400451660156" stroke="#000000" stroke-width="0.25" g2gstroke="#312783" stroke-miterlimit="10"/>
<path orgstroke="#000000" orgfill="none" fill="none" d="M709.155029296875 200.99000549316406L714.4840087890625 203.33299255371094" stroke="#000000" stroke-width="0.25" g2gstroke="#312783" stroke-miterlimit="10"/>
<path orgstroke="#000000" orgfill="none" fill="none" d="M654.0679931640625 144.10400390625L651.1929931640625 139.11099243164062" stroke="#000000" stroke-width="0.25" g2gstroke="#312783" stroke-miterlimit="10"/>
<path orgstroke="#000000" orgfill="none" fill="none" d="M643.2960205078125 151.91299438476562L639.4000244140625 147.5019989013672" stroke="#000000" stroke-width="0.25" g2gstroke="#312783" stroke-miterlimit="10"/>
<path orgstroke="#000000" orgfill="none" fill="none" d="M631.3179931640625 187.89700317382812L625.5960083007812 188.82699584960938" stroke="#000000" stroke-width="0.25" g2gstroke="#312783" stroke-miterlimit="10"/>
<path orgstroke="#000000" orgfill="none" fill="none" d="M635.4409790039062 200.5959930419922L630.093994140625 202.82899475097656" stroke="#000000" stroke-width="0.25" g2gstroke="#312783" stroke-miterlimit="10"/>
<ellipse orgstroke="#000000" orgfill="#ffffff" fill="#ffffff" g2gfill="#787878" rx="4.476" cx="684.863" ry="4.283" cy="177.212" stroke="#000000" stroke-width="0.25" g2gstroke="#312783"/>
<radialGradient gradientTransform="matrix(0.9813 -0.4243 -0.4431 -0.9396 117.6072 649.4516)" gradientUnits="userSpaceOnUse" xmlns:xlink="http://www.w3.org/1999/xlink" xlink:type="simple" r="4.1565" cx="668.6663" xlink:actuate="onLoad" cy="200.6257" id="8::SVGID_146_" xlink:show="other">
<stop stop-color="#FFFFFF" offset="0.103"/>
<stop stop-opacity="0" stop-color="#FFFFFF" offset="0.9152"/>
</radialGradient>
<path orgstroke="#000000" orgfill="url(#8::SVGID_146_)" fill="url(#8::SVGID_146_)" d="M683.023,173.31c2.252-0.976,4.902-0.017,5.92,2.142   c1.017,2.155,0.016,4.691-2.234,5.666c-2.25,0.974-4.901,0.014-5.92-2.142C679.772,176.819,680.773,174.284,683.023,173.31z" stroke="#000000" stroke-width="0.25" g2gstroke="#312783"/>
<ellipse orgstroke="#000000" orgfill="#ffffff" fill="#ffffff" g2gfill="#787878" rx="4.425" cx="664.97" ry="4.236" cy="192.38" stroke="#000000" stroke-width="0.25" g2gstroke="#312783"/>
<radialGradient gradientTransform="matrix(0.9813 -0.4243 -0.4431 -0.9396 117.6072 649.4516)" gradientUnits="userSpaceOnUse" xmlns:xlink="http://www.w3.org/1999/xlink" xlink:type="simple" r="4.1111" cx="645.7717" xlink:actuate="onLoad" cy="194.8196" id="8::SVGID_147_" xlink:show="other">
<stop stop-color="#FFFFFF" offset="0.103"/>
<stop stop-opacity="0" stop-color="#FFFFFF" offset="0.9152"/>
</radialGradient>
<path orgstroke="#000000" orgfill="url(#8::SVGID_147_)" fill="url(#8::SVGID_147_)" d="M663.149,188.52c2.229-0.965,4.851-0.017,5.854,2.116   c1.004,2.134,0.014,4.642-2.212,5.604c-2.227,0.963-4.85,0.013-5.854-2.118C659.933,191.992,660.923,189.485,663.149,188.52z" stroke="#000000" stroke-width="0.25" g2gstroke="#312783"/>
<ellipse orgstroke="#000000" orgfill="#ffffff" fill="#ffffff" g2gfill="#787878" rx="4.47" cx="680.516" ry="4.279" cy="192.091" stroke="#000000" stroke-width="0.25" g2gstroke="#312783"/>
<radialGradient gradientTransform="matrix(0.9813 -0.4243 -0.4431 -0.9396 117.6072 649.4516)" gradientUnits="userSpaceOnUse" xmlns:xlink="http://www.w3.org/1999/xlink" xlink:type="simple" r="4.1528" cx="659.0452" xlink:actuate="onLoad" cy="189.136" id="8::SVGID_148_" xlink:show="other">
<stop stop-color="#FFFFFF" offset="0.103"/>
<stop stop-opacity="0" stop-color="#FFFFFF" offset="0.9152"/>
</radialGradient>
<path orgstroke="#000000" orgfill="url(#8::SVGID_148_)" fill="url(#8::SVGID_148_)" d="M678.676,188.193c2.249-0.975,4.896-0.018,5.913,2.139   c1.015,2.153,0.014,4.688-2.233,5.661c-2.247,0.972-4.896,0.014-5.913-2.139C675.428,191.699,676.429,189.166,678.676,188.193z" stroke="#000000" stroke-width="0.25" g2gstroke="#312783"/>
<ellipse orgstroke="#000000" orgfill="#ffffff" fill="#ffffff" g2gfill="#787878" rx="4.476" cx="659.613" ry="4.283" cy="177.751" stroke="#000000" stroke-width="0.25" g2gstroke="#312783"/>
<radialGradient gradientTransform="matrix(0.9813 -0.4243 -0.4431 -0.9396 117.6072 649.4516)" gradientUnits="userSpaceOnUse" xmlns:xlink="http://www.w3.org/1999/xlink" xlink:type="simple" r="4.1569" cx="647.0784" xlink:actuate="onLoad" cy="209.801" id="8::SVGID_149_" xlink:show="other">
<stop stop-color="#FFFFFF" offset="0.103"/>
<stop stop-opacity="0" stop-color="#FFFFFF" offset="0.9152"/>
</radialGradient>
<path orgstroke="#000000" orgfill="url(#8::SVGID_149_)" fill="url(#8::SVGID_149_)" d="M657.773,173.848c2.252-0.974,4.902-0.015,5.92,2.144   c1.017,2.155,0.016,4.689-2.234,5.666c-2.25,0.974-4.901,0.014-5.92-2.144C654.522,177.358,655.523,174.824,657.773,173.848z" stroke="#000000" stroke-width="0.25" g2gstroke="#312783"/>
<ellipse orgstroke="#000000" orgfill="#ffffff" fill="#ffffff" g2gfill="#787878" rx="4.323" cx="672.261" ry="4.139" cy="168.155" stroke="#000000" stroke-width="0.25" g2gstroke="#312783"/>
<radialGradient gradientTransform="matrix(0.9813 -0.4243 -0.4431 -0.9396 117.6072 649.4516)" gradientUnits="userSpaceOnUse" xmlns:xlink="http://www.w3.org/1999/xlink" xlink:type="simple" r="4.0178" cx="661.6116" xlink:actuate="onLoad" cy="213.4495" id="8::SVGID_150_" xlink:show="other">
<stop stop-color="#FFFFFF" offset="0.103"/>
<stop stop-opacity="0" stop-color="#FFFFFF" offset="0.9152"/>
</radialGradient>
<path orgstroke="#000000" orgfill="url(#8::SVGID_150_)" fill="url(#8::SVGID_150_)" d="M670.481,164.384c2.177-0.939,4.737-0.015,5.721,2.07   c0.98,2.083,0.016,4.533-2.159,5.475c-2.175,0.942-4.736,0.015-5.722-2.068C667.339,167.775,668.307,165.326,670.481,164.384z" stroke="#000000" stroke-width="0.25" g2gstroke="#312783"/>
<ellipse orgstroke="#000000" orgfill="#ffffff" fill="#ffffff" g2gfill="#787878" rx="7.486" cx="672.731" ry="7.486" cy="181.391" stroke="#000000" stroke-width="0.25" g2gstroke="#312783"/>
<radialGradient gradientTransform="matrix(1 0 0 -1 0.3149 595.0171)" gradientUnits="userSpaceOnUse" xmlns:xlink="http://www.w3.org/1999/xlink" xlink:type="simple" r="7.4858" cx="672.3528" xlink:actuate="onLoad" cy="413.5671" id="8::SVGID_151_" xlink:show="other">
<stop stop-color="#FFFFFF" offset="0.103"/>
<stop stop-opacity="0" stop-color="#FFFFFF" offset="0.9152"/>
</radialGradient>
<ellipse orgstroke="#000000" orgfill="url(#8::SVGID_151_)" fill="url(#8::SVGID_151_)" rx="7.486" cx="672.668" ry="7.486" cy="181.45" stroke="#000000" stroke-width="0.25" g2gstroke="#312783"/>
</g>
</g>
</g>
</g></svg>