<svg xmlns="http://www.w3.org/2000/svg" xmlns:xlink="http://www.w3.org/1999/xlink" xmlns:etg="http://www.eurotaxglass.com/etg/evd/" etg:dataTimestamp="1539068912893" contentScriptType="text/ecmascript" zoomAndPan="magnify" contentStyleType="text/css" id="Capa_1" enable-background="new 0 0 1841.891 1595.279" version="1.1" xml:space="preserve" width="1841.891px" preserveAspectRatio="xMidYMid meet" viewBox="0 0 1841.891 1595.279" height="1595.279px" x="0px" y="0px"><g xmlns="http://www.w3.org/2000/svg" objecttype="PS" tooltip="#UNDEFINED" id="108">
<g onmouseover="notifyOwner(AGV_OBJECT_MOUSEOVER, '108(PS)')" transform="translate(30.298809631347638, 36.772926666259764) translate(-637.0022509266453, -53.86035292387896) translate(-145.08306226765808, -12.468075663626848) translate(259.70289318261985, -212.54631520998623) translate(2.101288138084101, 1.0506440690419936) translate(481.0, 219.0) translate(10.0, 10.00006103515625)" onclick="clickZoom(evt); notifyOwner(AGV_OBJECT_MOUSECLICK, '108(PS)')" onmouseout="notifyOwner(AGV_OBJECT_MOUSEOUT, '108(PS)')" tooltip="#UNDEFINED" id="108-Graphic" objecttype="GRAPHIC">
<g zvalue="20">
<g>
<path stroke-linecap="round" orgstroke="#000000" orgfill="#ffffff" fill="#ffffff" g2gfill="#ECC35D" stroke-linejoin="round" d="   M445.975,294.972c-1.173-5.727-3.962-25.5-5.114-33.834c-0.038-0.275-0.057-0.41-0.258,0.002   c-5.536,11.422-10.079,22.121-10.892,25.525c-1.195,5-1.404,7.473-1.404,8.061v13.292c0,0.281-0.059,0.463-0.441,0.686   c-0.358,0.207-0.721,0.4-1.079,0.592c-0.174,0.094-0.427,0.125-0.646-0.002l-0.537-0.311c-0.237-0.137-0.34-0.289-0.357-0.473   c-0.048-0.502-0.078-0.951-0.078-1.328c0-2.125,0-8.875,0-14.25c0-0.75,0.125-1.625,1.459-7.209   c1.332-5.584,11.998-29.416,21.416-45.75c9.416-16.334,17.584-30.668,28.666-44.668c11.084-14,17.834-19.666,34.918-32.75   c12.941-9.91,27.2-20.539,47.396-33.299c0.355-0.225,0.485-0.215,0.661-0.113l0.393,0.227c0.28,0.186,0.442,0.34,0.511,0.563   c0.09,0.291,0.264,0.717,0.39,1.287c0.065,0.297-0.003,0.42-0.244,0.572c-1.005,0.635-2.01,1.273-3.015,1.916   c-0.228,0.146-0.231,0.27-0.18,0.5c0.708,3.156,7.783,35.34,9.031,80.883c0.01,0.357-0.07,0.422-0.227,0.512l-1.213,0.699   c-0.16,0.094-0.417,0.111-0.609,0.01l-0.185-0.098c-0.146-0.084-0.271-0.238-0.277-0.461c-1.136-42.98-7.558-74.047-8.854-80.033   c-0.059-0.27-0.168-0.283-0.401-0.131c-17.125,11.105-28.579,19.654-40.815,29.025c-17.107,13.102-23.563,18.506-34.566,32.406   c-10.656,13.461-18.531,27.123-27.65,42.945l-0.854,1.482c-2.512,4.355-5.142,9.316-7.666,14.332   c-0.146,0.291-0.249,0.496-0.188,0.947c0.521,3.82,4.268,30.783,5.688,37.617c0.042,0.201,0.054,0.355-0.172,0.486   c-0.446,0.26-0.897,0.498-1.341,0.738c-0.141,0.076-0.387,0.143-0.556,0.045c-0.079-0.047-0.211-0.117-0.329-0.18   C446.109,295.292,446.024,295.214,445.975,294.972z" stroke="#000000" outline-element="true" stroke-width="0.5" g2gstroke="#312783" stroke-miterlimit="10"/>
<path orgstroke="#000000" orgfill="none" stroke-linecap="round" fill="none" stroke-linejoin="round" d="   M426.433,309.293c-0.07-0.623-0.11-1.18-0.11-1.629c0-2.125,0-8.875,0-14.25c0-0.75,0.125-1.625,1.459-7.209   c1.332-5.584,11.998-29.416,21.416-45.75c9.416-16.334,17.584-30.668,28.666-44.668c11.084-14,17.834-19.666,34.918-32.75   c12.999-9.955,27.316-20.631,47.631-33.398" stroke="#000000" stroke-width="0.25" g2gstroke="#312783" stroke-miterlimit="10"/>
<path orgstroke="#000000" orgfill="none" stroke-linecap="round" fill="none" stroke-linejoin="round" d="   M555.73,135.076c0,0,7.748,33.221,9.095,81.285" stroke="#000000" stroke-width="0.25" g2gstroke="#312783" stroke-miterlimit="10"/>
<path orgstroke="#000000" orgfill="none" stroke-linecap="round" fill="none" stroke-linejoin="round" d="   M440.537,261.275c0.718-1.477,1.719-3.514,2.464-5" stroke="#000000" stroke-width="0.25" g2gstroke="#312783" stroke-miterlimit="10"/>
<path orgstroke="#000000" orgfill="none" stroke-linecap="round" fill="none" stroke-linejoin="round" d="   M441.485,259.339c0.862,6.316,4.147,30.125,5.449,36.197" stroke="#000000" stroke-width="0.25" g2gstroke="#312783" stroke-miterlimit="10"/>
<path orgstroke="#000000" orgfill="none" stroke-linecap="round" fill="none" stroke-linejoin="round" d="   M557.717,133.707c-0.895,0.574-2.181,1.404-3.074,1.984" stroke="#000000" stroke-width="0.25" g2gstroke="#312783" stroke-miterlimit="10"/>
</g>
</g>
</g>
</g></svg>