<svg xmlns="http://www.w3.org/2000/svg" xmlns:xlink="http://www.w3.org/1999/xlink" xmlns:etg="http://www.eurotaxglass.com/etg/evd/" etg:dataTimestamp="1539068912893" contentScriptType="text/ecmascript" zoomAndPan="magnify" contentStyleType="text/css" id="Layer_1" enable-background="new 0 0 1841.891 1595.279" version="1.1" xml:space="preserve" width="1841.891px" preserveAspectRatio="xMidYMid meet" viewBox="0 0 1841.891 1595.279" height="1595.279px" x="0px" y="0px"><g xmlns="http://www.w3.org/2000/svg" objecttype="PS" tooltip="#UNDEFINED" id="148">
<g onmouseover="notifyOwner(AGV_OBJECT_MOUSEOVER, '148(PS)')" transform="translate(-1.0864257831144641E-5, 66.80804286193847) translate(-478.1112626953125, -9.244252822875978) translate(-0.7948471478521242, -36.165545227268865) translate(0.04761505126953125, 36.96742248535156) translate(59.0, -37.0) translate(572.0, -62.0) translate(10.0, 10.00006103515625)" onclick="clickZoom(evt); notifyOwner(AGV_OBJECT_MOUSECLICK, '148(PS)')" onmouseout="notifyOwner(AGV_OBJECT_MOUSEOUT, '148(PS)')" tooltip="#UNDEFINED" id="148-Graphic" objecttype="GRAPHIC">
<g zvalue="46">
<g>
<path orgstroke="#000000" orgfill="#ffffff" fill="#ffffff" g2gfill="#ECC35D" d="M218.79,345.633   c0.041,1.141,0.615,4.002,7.797,7.305c7.18,3.303,12.623,6.098,28.609,6.559c11.24,0.324,18.809-2.443,25.135-4.182   c1.588-0.436,3.912-1.17,6.553-2.051c0.135-0.043,0.27-0.098,0.408-0.135c0.283-0.074,0.172-0.186,0.146-0.309   c-0.053-0.248-0.094-0.506-0.094-0.787c0-0.973,0-5.006-0.627-12.1c-0.604-6.842-4.975-12.182-6.836-13.881   c-0.102-0.092-0.191-0.168-0.445-0.314l-0.77-0.443c-0.189-0.109-0.613-0.256-0.93-0.236c-1.057,0.064-2.092,0.125-3.1,0.182   c-0.314,0.018-0.326,0.01-0.598-0.146c-2-1.156-13.936-8.039-14.555-8.395c-0.674-0.389-1.197-0.174-1.572,0   s-4.26,2.467-4.738,2.744c-0.479,0.275-0.441,0.947-0.816,1.189c-0.332,0.213-3.559,2.014-4.299,2.439   c-0.273,0.158-0.361,0.135-0.697,0.033c-1.74-0.529-2.994-0.986-3.965-1.225c-2.014-0.496-4.512-0.229-6.707,0.553   c-1.404,0.498-4.248,2.197-5.475,3.355l-0.137,0.119c-0.111,0.102-0.215,0.201-0.313,0.303   c-1.449,1.518-9.734,12.982-11.033,15.949c-0.43,0.984-0.809,2.061-0.92,3.172L218.79,345.633z" stroke="#000000" outline-element="true" stroke-width="0.5" g2gstroke="#312783" stroke-miterlimit="10"/>
<g>
<path fill="#E1321E" d="M287.198,346.74h-0.06c-2.75,0.92-5.17,1.691-6.81,2.141c-0.11,0.029-0.23,0.061-0.34,0.09    c-0.66,0.189-1.341,0.381-2.031,0.58c-5.85,1.699-12.889,3.789-22.76,3.51c-10.83-0.311-16.819-1.699-21.8-3.59    c-0.62-0.23-1.22-0.471-1.81-0.721c-1.68-0.709-3.29-1.459-5-2.25c-0.45-0.199-0.87-0.41-1.27-0.609    c-0.271-0.141-0.471-0.209-0.681-0.109c-0.11,0.039-0.22,0.129-0.34,0.279c-0.92,1.109-1.81,2.311-2.95,3.73    c-2.27-1.891-2.529-3.4-2.561-4.16l0.021-0.301c0.12-1.109,0.49-2.189,0.931-3.17c1.289-2.969,9.58-14.43,11.029-15.949    c0.1-0.1,0.2-0.199,0.311-0.301c0.05-0.039,0.09-0.08,0.14-0.119c2.53-2.18,8.2-3.939,12.18-2.961    c2.511,0.621,6.931,2.73,16.851,3.57c3.729,0.311,11.14,0.01,19.05-0.49c0.13-0.01,0.25-0.02,0.38-0.029    c0.09,0.07,0.141,0.119,0.2,0.17c1.86,1.699,6.239,7.039,6.84,13.881c0.239,2.68,0.39,4.92,0.47,6.719    C287.198,346.682,287.198,346.711,287.198,346.74z" orgfill="#E1321E"/>
<path fill="#464646" d="M287.198,346.74h-0.06c-2.75,0.92-5.17,1.691-6.81,2.141    c-0.11,0.029-0.23,0.061-0.34,0.09c0.26-0.439,0.539-0.971,0.81-1.58h0.01c1.229-0.35,2.8-0.92,4.62-1.439    c0.15-0.041,0.24-0.09,0.29-0.16c0.11-0.141,0.05-0.33,0.04-0.51c-0.1-1.77-0.21-3.73-0.439-6.291    c-0.531-5.99-3.921-10.83-6.021-13.08c0.13-0.01,0.25-0.02,0.38-0.029c0.09,0.07,0.141,0.119,0.2,0.17    c1.86,1.699,6.239,7.039,6.84,13.881c0.239,2.68,0.39,4.92,0.47,6.719C287.198,346.682,287.198,346.711,287.198,346.74z" enable-background="new    " opacity="0.5" orgfill="#464646"/>
<path fill="#464646" d="M285.718,345.791c-0.05,0.07-0.14,0.119-0.29,0.16    c-1.82,0.52-3.391,1.09-4.62,1.439h-0.01c0.87-1.939,1.59-4.68,0.92-7.75c-1.08-4.879-7.42-10.41-21.601-11.619    c-1.84-0.16-3.81-0.24-5.92-0.24h-0.85c-10.01,0.109-16.85,5.439-19.91,10.389c-1.869,3.031-2.619,6.201-2.199,9.051    c-1.4-0.59-2.771-1.23-4.19-1.881c-0.511-0.238-0.99-0.379-1.431-0.129c-0.199,0.109-0.979,0.561-0.979,0.561v0.01    c-0.11,0.039-0.22,0.129-0.34,0.279c-0.92,1.109-1.81,2.311-2.95,3.73c-2.27-1.891-2.529-3.4-2.561-4.16l0.021-0.301    c0.12-1.109,0.49-2.189,0.931-3.17c1.289-2.969,9.58-14.43,11.029-15.949c0.1-0.1,0.2-0.199,0.311-0.301    c0.05-0.039,0.09-0.08,0.14-0.119c2.53-2.18,8.2-3.939,12.18-2.961c2.511,0.621,6.931,2.73,16.851,3.57    c3.729,0.311,11.14,0.01,19.05-0.49c2.1,2.25,5.489,7.09,6.021,13.08c0.229,2.561,0.34,4.521,0.439,6.291    C285.768,345.461,285.829,345.65,285.718,345.791z" enable-background="new    " opacity="0.3" orgfill="#464646"/>
<linearGradient gradientTransform="matrix(1 0 0 -1 0 595.28)" x1="259.1134" x2="260.541" y1="239.2351" gradientUnits="userSpaceOnUse" y2="267.4822" xmlns:xlink="http://www.w3.org/1999/xlink" xlink:type="simple" xlink:actuate="onLoad" id="79::SVGID_34_" xlink:show="other">
<stop stop-opacity="0.1" stop-color="#FFFFFF" offset="0"/>
<stop stop-opacity="0.2" stop-color="#FFFFFF" offset="1"/>
</linearGradient>
<path fill="url(#79::SVGID_34_)" d="M276.688,348.381c-0.07,0.1-0.119,0.16-0.189,0.199c-0.07,0.051-0.17,0.08-0.36,0.141    c-2.72,0.77-5.7,1.57-9.101,2.15c1.871-3.01,3.201-6.41,3.67-9.689c0.83-5.932-1.42-9.801-5.319-10.211    c-1.24-0.119-2.63,0.1-4.149,0.711c-6.311,2.549-12.33,10.959-13.42,18.738c-0.041,0.281-0.08,0.551-0.101,0.82    c-2.89-0.289-5.33-0.68-7.49-1.15v-0.01c-0.229-3.299,0.71-10.359,6.13-14.068c5.631-3.852,13.41-6.191,19.09-5.682    c0.53,0.041,1.041,0.111,1.53,0.211c0.21,0.039,0.42,0.09,0.62,0.15c3.13,0.789,5.67,1.859,7.63,3.09l-0.01,0.02    c2.09,1.619,3.3,3.43,3.69,5.189C279.909,343.531,277.378,347.4,276.688,348.381z" orgfill="url(#79::SVGID_34_)"/>
<linearGradient gradientTransform="matrix(1 0 0 -1 0 595.28)" x1="254.4042" x2="258.699" y1="255.1674" gradientUnits="userSpaceOnUse" y2="255.1674" xmlns:xlink="http://www.w3.org/1999/xlink" xlink:type="simple" xlink:actuate="onLoad" id="79::SVGID_35_" xlink:show="other">
<stop stop-opacity="0.4" stop-color="#FFFFFF" offset="0"/>
<stop stop-opacity="0.4" stop-color="#FFFFFF" offset="1"/>
</linearGradient>
<path fill="url(#79::SVGID_35_)" d="M256.918,337.5c1.17-0.469,1.949,0.311,1.75,1.762c-0.2,1.439-1.311,2.988-2.48,3.459    c-1.17,0.48-1.96-0.311-1.75-1.75C254.638,339.531,255.749,337.971,256.918,337.5z" orgfill="url(#79::SVGID_35_)"/>
<radialGradient gradientTransform="matrix(0.9634 0.268 0.3318 -1.1928 -74.7123 575.3206)" gradientUnits="userSpaceOnUse" xmlns:xlink="http://www.w3.org/1999/xlink" xlink:type="simple" r="11.0008" cx="256.7988" xlink:actuate="onLoad" cy="253.5349" id="79::SVGID_36_" xlink:show="other">
<stop stop-opacity="0.3" stop-color="#FFFFFF" offset="0"/>
<stop stop-opacity="0.1" stop-color="#FFFFFF" offset="1"/>
</radialGradient>
<path fill="url(#79::SVGID_36_)" d="M247.819,350.42c1.09-7.779,7.109-16.189,13.42-18.738c1.52-0.611,2.909-0.83,4.149-0.711    c3.899,0.41,6.149,4.279,5.319,10.211c-0.469,3.279-1.799,6.68-3.67,9.689c-3.459,0.59-7.35,0.949-11.819,0.82    c-2.81-0.08-5.28-0.23-7.5-0.451C247.739,350.971,247.778,350.701,247.819,350.42z M258.668,339.262    c0.199-1.451-0.58-2.23-1.75-1.762c-1.17,0.471-2.28,2.031-2.48,3.471c-0.21,1.439,0.58,2.23,1.75,1.75    C257.358,342.25,258.468,340.701,258.668,339.262z" orgfill="url(#79::SVGID_36_)"/>
<linearGradient gradientTransform="matrix(1 0 0 -1 0 595.28)" x1="233.987" x2="266.978" y1="255.6375" gradientUnits="userSpaceOnUse" y2="255.6375" xmlns:xlink="http://www.w3.org/1999/xlink" xlink:type="simple" xlink:actuate="onLoad" id="79::SVGID_37_" xlink:show="other">
<stop stop-opacity="0.1" stop-color="#FFFFFF" offset="0"/>
<stop stop-opacity="0.1" stop-color="#FFFFFF" offset="1"/>
</linearGradient>
<path fill="url(#79::SVGID_37_)" d="M240.228,350.08v0.01c-1.819-0.398-3.44-0.85-4.94-1.35c-0.069-0.02-0.219-0.059-0.359-0.18    c-0.09-0.08-0.18-0.189-0.25-0.35c-2-4.74,0.42-11.09,6.16-15.41l-0.01-0.02c3.35-2.131,7.6-3.531,12.529-3.58    c5.381-0.061,9.9,0.449,13.62,1.34c-0.489-0.1-1-0.17-1.53-0.211c-5.68-0.51-13.459,1.83-19.09,5.682    C240.938,339.721,239.999,346.781,240.228,350.08z" orgfill="url(#79::SVGID_37_)"/>
<g>
<path fill="#FAFAFA" d="M226.588,346.5c1.71,0.791,3.32,1.541,5,2.25c0.59,0.25,1.189,0.49,1.81,0.721     c4.98,1.891,10.97,3.279,21.8,3.59c9.871,0.279,16.91-1.811,22.76-3.51c0.69-0.199,1.371-0.391,2.031-0.58     c0.109-0.029,0.229-0.061,0.34-0.09c1.64-0.449,4.06-1.221,6.81-2.141h0.06c0.15,2.93,0.15,4.691,0.15,5.291     c0,0.279,0.04,0.539,0.09,0.789c0.03,0.121,0.141,0.23-0.15,0.311c-0.14,0.039-0.27,0.09-0.399,0.129     c-2.649,0.881-4.97,1.621-6.56,2.051c-6.32,1.74-13.891,4.51-25.131,4.189c-15.99-0.469-21.43-3.26-28.609-6.559     c-2.42-1.121-4.09-2.18-5.24-3.15c1.141-1.42,2.03-2.621,2.95-3.73c0.12-0.15,0.229-0.24,0.34-0.279     c0.21-0.1,0.41-0.031,0.681,0.109C225.718,346.09,226.138,346.301,226.588,346.5z" orgfill="#FAFAFA"/>
<path fill="#BCBEC0" d="M285.739,351.791c0.029,0.119,0.14,0.23-0.15,0.311     c-0.141,0.039-0.27,0.09-0.4,0.129c-1.9,0.631-3.619,1.189-5.029,1.609c0.72-1.238,1.239-2.6,1.43-3.93     c0.07-0.51,0.09-0.979,0.06-1.41c1.12-0.33,2.45-0.76,3.921-1.238c0.079,2.01,0.079,3.26,0.079,3.738     C285.648,351.281,285.688,351.541,285.739,351.791z" enable-background="new    " opacity="0.1" orgfill="#BCBEC0"/>
<path fill="#BCBEC0" d="M278.208,351.271c-0.139,1.01-0.92,2.109-1.739,2.439     c-0.83,0.33-1.38-0.221-1.229-1.24c0.14-1.01,0.92-2.1,1.739-2.43C277.798,349.711,278.348,350.262,278.208,351.271z" enable-background="new    " opacity="0.1" orgfill="#BCBEC0"/>
<path fill="#F39200" d="M276.468,353.711c0.819-0.33,1.601-1.43,1.739-2.439     c0.141-1.01-0.409-1.561-1.229-1.23c-0.819,0.33-1.6,1.42-1.739,2.43C275.088,353.49,275.638,354.041,276.468,353.711z      M281.648,348.5c0.03,0.432,0.011,0.9-0.06,1.41c-0.19,1.33-0.71,2.691-1.43,3.93c-0.57,0.17-1.08,0.32-1.53,0.441     c-2.07,0.568-4.28,1.209-6.7,1.818c-0.16-0.639-0.2-1.389-0.07-2.26c0.131-0.939,0.43-1.908,0.86-2.828     c1.86-0.48,3.601-0.98,5.239-1.461c0.69-0.199,1.371-0.391,2.031-0.58c0.109-0.029,0.229-0.061,0.34-0.09     C280.728,348.771,281.168,348.641,281.648,348.5z" enable-background="new    " opacity="0.3" orgfill="#F39200"/>
<path fill="#BCBEC0" d="M266.368,357.311v-4.959c2.291-0.361,4.391-0.83,6.351-1.34     c-0.431,0.92-0.729,1.889-0.86,2.828c-0.13,0.871-0.09,1.621,0.07,2.26c-1.73,0.441-3.58,0.852-5.561,1.221L266.368,357.311     L266.368,357.311z" enable-background="new    " opacity="0.1" orgfill="#BCBEC0"/>
<path fill="#BCBEC0" d="M266.368,357.311v0.01c-3.72,0.66-7.939,1.141-12.869,1.15     c-9.23,0.029-15.08-0.971-15.08-0.971v-6.43c4.13,1.051,9.3,1.781,16.779,1.99c4.19,0.119,7.871-0.189,11.17-0.709V357.311z" enable-background="new    " opacity="0.4" orgfill="#BCBEC0"/>
<path fill="#BCBEC0" d="M287.348,352.031c0,0.279,0.04,0.539,0.09,0.789     c0.03,0.121,0.141,0.23-0.15,0.311c-0.14,0.039-0.27,0.09-0.399,0.129c-2.649,0.881-4.97,1.621-6.56,2.051     c-6.32,1.74-13.891,4.51-25.131,4.189c-7.479-0.219-12.66-0.949-16.779-2c0,0,5.85,1,15.08,0.971     c4.93-0.01,9.149-0.49,12.869-1.15c1.98-0.369,3.83-0.779,5.561-1.221c2.42-0.609,4.63-1.25,6.7-1.818     c0.45-0.121,0.96-0.271,1.53-0.441c1.41-0.42,3.129-0.979,5.029-1.609c0.131-0.039,0.26-0.09,0.4-0.129     c0.29-0.08,0.18-0.191,0.15-0.311c-0.051-0.25-0.091-0.51-0.091-0.791c0-0.479,0-1.729-0.079-3.738     c0.51-0.172,1.029-0.342,1.569-0.521h0.06C287.348,349.67,287.348,351.432,287.348,352.031z" enable-background="new    " opacity="0.7" orgfill="#BCBEC0"/>
</g>
<path fill="#464646" d="M277.958,349.451c-0.01,0.01-0.02,0.02-0.02,0.02l0.02,0.08    c-5.85,1.699-12.889,3.789-22.76,3.51c-10.83-0.311-16.819-1.699-21.8-3.59c-2.479-5.07,0.62-12.381,7.431-16.689l0.01,0.02    c-5.74,4.32-8.16,10.67-6.16,15.41c0.07,0.16,0.16,0.27,0.25,0.35c0.141,0.121,0.29,0.16,0.359,0.18    c1.5,0.5,3.121,0.951,4.94,1.35c2.16,0.471,4.601,0.861,7.49,1.15c2.22,0.221,4.69,0.371,7.5,0.451    c4.47,0.129,8.36-0.23,11.819-0.82c3.4-0.58,6.381-1.381,9.101-2.15c0.19-0.061,0.29-0.09,0.36-0.141    c0.07-0.039,0.119-0.1,0.189-0.199c0.69-0.98,3.221-4.85,2.221-9.391c-0.391-1.76-1.601-3.57-3.69-5.189l0.01-0.02    c2.97,1.84,4.63,4.039,5.101,6.17C281.438,344.98,278.239,349.102,277.958,349.451z" enable-background="new    " opacity="0.5" orgfill="#464646"/>
<path fill="#464646" d="M281.718,339.641c0.67,3.07-0.05,5.811-0.92,7.75    c-0.271,0.609-0.55,1.141-0.81,1.58c-0.66,0.189-1.341,0.381-2.031,0.58l-0.02-0.08c0,0,0.01-0.01,0.02-0.02    c0.281-0.35,3.48-4.471,2.371-9.5c-0.471-2.131-2.131-4.33-5.101-6.17c-1.96-1.23-4.5-2.301-7.63-3.09    c-0.2-0.061-0.41-0.111-0.62-0.15c-3.72-0.891-8.239-1.4-13.62-1.34c-4.93,0.049-9.18,1.449-12.529,3.58    c-6.811,4.309-9.91,11.619-7.431,16.689c-0.62-0.23-1.22-0.471-1.81-0.721c-0.16-0.5-0.27-1.01-0.35-1.529    c-0.42-2.85,0.33-6.02,2.199-9.051c3.061-4.949,9.9-10.279,19.91-10.389c0.28,0,0.57,0,0.85,0c2.11,0,4.08,0.08,5.92,0.24    C274.298,329.23,280.638,334.762,281.718,339.641z" enable-background="new    " opacity="0.6" orgfill="#464646"/>
<path fill="#464646" d="M227.048,345.34c1.42,0.65,2.79,1.291,4.19,1.881    c0.08,0.52,0.189,1.029,0.35,1.529c-1.68-0.709-3.29-1.459-5-2.25c-0.45-0.199-0.87-0.41-1.27-0.609    c-0.271-0.141-0.471-0.209-0.681-0.109v-0.01c0,0,0.78-0.451,0.979-0.561C226.058,344.961,226.538,345.102,227.048,345.34z" enable-background="new    " opacity="0.5" orgfill="#464646"/>
</g>
<path orgstroke="#000000" orgfill="none" stroke-linecap="round" fill="none" stroke-linejoin="round" d="   M274.323,325.258c-6.023,0.324-11.064,0.445-14.074,0.193c-5.869-0.494-9.811-1.438-12.572-2.252" stroke="#000000" stroke-width="0.25" g2gstroke="#312783" stroke-miterlimit="10"/>
<path orgstroke="#000000" orgfill="none" stroke-linecap="round" fill="none" stroke-linejoin="round" d="   M263.727,325.584c-4.215-2.432-9.973-5.752-10.396-5.996c-0.047-0.027-0.094-0.053-0.139-0.074" stroke="#000000" stroke-width="0.25" g2gstroke="#312783" stroke-miterlimit="10"/>
<path orgstroke="#000000" orgfill="none" stroke-linecap="round" fill="none" stroke-linejoin="round" d="   M261.018,325.506c-3.559-2.053-7.559-4.359-8.576-4.947" stroke="#000000" stroke-width="0.25" g2gstroke="#312783" stroke-miterlimit="10"/>
<path orgstroke="#000000" orgfill="none" fill="none" d="M258.579,319.102   c0.408-0.18,0.99-0.141,1.301,0.088s0.232,0.559-0.176,0.738s-0.99,0.139-1.303-0.09   C258.09,319.611,258.17,319.279,258.579,319.102z" stroke="#000000" stroke-width="0.25" g2gstroke="#312783" stroke-miterlimit="10"/>
<path orgstroke="#000000" orgfill="none" fill="none" d="M261.668,320.766   c0.408-0.18,0.99-0.141,1.301,0.088c0.313,0.229,0.234,0.559-0.174,0.738s-0.99,0.139-1.303-0.09   C261.182,321.275,261.262,320.943,261.668,320.766z" stroke="#000000" stroke-width="0.25" g2gstroke="#312783" stroke-miterlimit="10"/>
<path orgstroke="#000000" orgfill="none" fill="none" d="M264.76,322.43   c0.408-0.18,0.99-0.141,1.301,0.088s0.232,0.559-0.176,0.738s-0.99,0.139-1.303-0.09   C264.272,322.939,264.352,322.607,264.76,322.43z" stroke="#000000" stroke-width="0.25" g2gstroke="#312783" stroke-miterlimit="10"/>
<g>
<radialGradient gradientTransform="matrix(0.0072 1 2.5521 -0.0184 -435.5957 74.2825)" gradientUnits="userSpaceOnUse" xmlns:xlink="http://www.w3.org/1999/xlink" xlink:type="simple" r="39.416" cx="255.7871" xlink:actuate="onLoad" cy="270.1892" id="79::SVGID_38_" xlink:show="other">
<stop stop-opacity="0.6" stop-color="#FFFFFF" offset="0"/>
<stop stop-opacity="0.2" stop-color="#FFFFFF" offset="1"/>
</radialGradient>
<path fill="url(#79::SVGID_38_)" d="M287.438,352.822c0.02,0.131,0.131,0.24-0.15,0.311c-0.14,0.039-0.27,0.09-0.409,0.141    c-2.64,0.879-4.96,1.609-6.55,2.049c-6.33,1.74-13.9,4.5-25.141,4.18c-15.98-0.459-21.42-3.26-28.6-6.559    c-7.19-3.301-7.76-6.16-7.801-7.301l0.021-0.301c0.11-1.119,0.49-2.189,0.92-3.18c1.11-2.52,7.271-11.189,9.97-14.66    c17.631,6.391,19.94,6.67,53.181,2.16h0.01c1.72,2.561,3.46,6.141,3.83,10.281c0.62,7.09,0.62,11.119,0.62,12.1    C287.338,352.322,287.378,352.582,287.438,352.822z" orgfill="url(#79::SVGID_38_)"/>
<radialGradient gradientTransform="matrix(0.0072 1 2.8437 -0.0205 -541.3015 64.0975)" gradientUnits="userSpaceOnUse" xmlns:xlink="http://www.w3.org/1999/xlink" xlink:type="simple" r="19.1425" cx="256.8921" xlink:actuate="onLoad" cy="280.0378" id="79::SVGID_39_" xlink:show="other">
<stop stop-opacity="0.3" stop-color="#FFFFFF" offset="0"/>
<stop stop-opacity="0.6" stop-color="#FFFFFF" offset="1"/>
</radialGradient>
<path fill="url(#79::SVGID_39_)" d="M231.079,325.912c2.459-2.219,8.26-4.08,12.319-3.08c2.511,0.621,6.931,2.74,16.851,3.57    c3.789,0.32,11.369,0,19.43-0.51c0.09,0.061,0.141,0.109,0.2,0.17c0.739,0.67,1.87,1.91,3,3.6c-33.24,4.51-35.55,4.23-53.181-2.16    c0.48-0.609,0.84-1.059,1.061-1.289C230.858,326.113,230.968,326.014,231.079,325.912z" orgfill="url(#79::SVGID_39_)"/>
</g>
<path orgstroke="#000000" orgfill="none" stroke-linecap="round" fill="none" stroke-linejoin="round" d="   M279.69,325.885c-8.061,0.516-15.65,0.834-19.441,0.514c-9.922-0.836-14.338-2.951-16.852-3.57   c-4.059-0.998-9.855,0.857-12.318,3.08" stroke="#000000" stroke-width="0.25" g2gstroke="#312783" stroke-miterlimit="10"/>
<path orgstroke="#000000" orgfill="none" fill="none" d="M218.79,345.633   c0.041,1.141,0.615,4.002,7.797,7.305c7.18,3.303,12.623,6.098,28.609,6.559c11.24,0.324,18.809-2.443,25.135-4.182   c1.588-0.436,3.912-1.17,6.553-2.051c0.135-0.043,0.27-0.098,0.408-0.135c0.283-0.074,0.172-0.186,0.146-0.309   c-0.053-0.248-0.094-0.506-0.094-0.787c0-0.973,0-5.006-0.627-12.1c-0.604-6.842-4.975-12.182-6.836-13.881   c-0.102-0.092-0.191-0.168-0.445-0.314l-0.77-0.443c-0.189-0.109-0.613-0.256-0.93-0.236c-1.057,0.064-2.092,0.125-3.1,0.182   c-0.314,0.018-0.326,0.01-0.598-0.146c-2-1.156-13.936-8.039-14.555-8.395c-0.674-0.389-1.197-0.174-1.572,0   s-4.26,2.467-4.738,2.744c-0.479,0.275-0.441,0.947-0.816,1.189c-0.332,0.213-3.559,2.014-4.299,2.439   c-0.273,0.158-0.361,0.135-0.697,0.033c-1.74-0.529-2.994-0.986-3.965-1.225c-2.014-0.496-4.512-0.229-6.707,0.553   c-1.404,0.498-4.248,2.197-5.475,3.355l-0.137,0.119c-0.111,0.102-0.215,0.201-0.313,0.303   c-1.449,1.518-9.734,12.982-11.033,15.949c-0.43,0.984-0.809,2.061-0.92,3.172L218.79,345.633z" stroke="#000000" stroke-width="0.25" g2gstroke="#312783" stroke-miterlimit="10"/>
</g>
</g>
</g>
</g></svg>