<svg xmlns="http://www.w3.org/2000/svg" xmlns:xlink="http://www.w3.org/1999/xlink" xmlns:etg="http://www.eurotaxglass.com/etg/evd/" etg:dataTimestamp="1539068912893" contentScriptType="text/ecmascript" zoomAndPan="magnify" contentStyleType="text/css" id="Layer_1" enable-background="new 0 0 1841.891 1595.279" version="1.1" xml:space="preserve" width="1841.891px" preserveAspectRatio="xMidYMid meet" viewBox="0 0 1841.891 1595.279" height="1595.279px" x="0px" y="0px"><g xmlns="http://www.w3.org/2000/svg" objecttype="PS" tooltip="#UNDEFINED" id="15">
<g onmouseover="notifyOwner(AGV_OBJECT_MOUSEOVER, '15(PS)')" transform="translate(119.4590917663574, 53.34608493041992) translate(-120,-64) " onclick="clickZoom(evt); notifyOwner(AGV_OBJECT_MOUSECLICK, '15(PS)')" onmouseout="notifyOwner(AGV_OBJECT_MOUSEOUT, '15(PS)')" tooltip="#UNDEFINED" id="15-Graphic" objecttype="GRAPHIC">
<g zvalue="14">
<g zvalue="14">
<g>
<path orgstroke="#000000" orgfill="#ffffff" transform="matrix(1 0 0 1 363 360.00006103515625)" fill="#ffffff" g2gfill="#BCBEC0" d="M238.373,28.73   c-27.34,0-49.469,22.125-49.469,49.457c0,27.342,22.129,49.456,49.469,49.456c27.33,0,49.468-22.116,49.468-49.456   C287.838,50.855,265.703,28.73,238.373,28.73z M201.862,66.532c0.578-1.799,1.967-2.959,3.097-2.603   c1.126,0.371,1.587,2.119,1.009,3.916c-0.582,1.801-1.979,2.957-3.106,2.602C201.724,70.077,201.284,68.329,201.862,66.532z    M199.992,78.407c0.004-1.889,0.962-3.416,2.15-3.416c1.189-0.01,2.156,1.521,2.166,3.406c0,1.889-0.967,3.428-2.148,3.428   C200.961,81.823,199.992,80.294,199.992,78.407z M204.977,92.811c-1.139,0.368-2.527-0.789-3.104-2.576   c-0.588-1.799-0.14-3.557,0.989-3.916c1.127-0.371,2.525,0.778,3.105,2.576C206.558,90.693,206.106,92.454,204.977,92.811z    M207.328,55.771c1.108-1.54,2.776-2.209,3.744-1.51c0.971,0.701,0.853,2.497-0.259,4.036c-1.098,1.527-2.786,2.197-3.746,1.498   C206.1,59.098,206.219,57.299,207.328,55.771z M211.122,102.51c-0.971,0.697-2.647,0.029-3.758-1.5   c-1.115-1.516-1.236-3.325-0.271-4.023c0.961-0.696,2.637-0.037,3.746,1.487C211.959,100.002,212.08,101.811,211.122,102.51z    M215.849,47.23c1.528-1.121,3.326-1.24,4.035-0.271c0.698,0.959,0.028,2.637-1.5,3.756c-1.525,1.106-3.336,1.228-4.023,0.271   C213.649,50.019,214.316,48.342,215.849,47.23z M219.935,109.793c-0.703,0.971-2.51,0.854-4.039-0.259   c-1.526-1.098-2.205-2.778-1.496-3.746c0.688-0.959,2.496-0.851,4.023,0.261C219.954,107.157,220.629,108.835,219.935,109.793z    M230.533,113.988c-0.373,1.14-2.119,1.578-3.916,0.998c-1.799-0.58-2.959-1.965-2.588-3.096c0.367-1.141,2.117-1.592,3.916-1   C229.74,111.473,230.899,112.859,230.533,113.988z M227.944,45.841c-1.791,0.58-3.549,0.129-3.916-0.989   c-0.371-1.14,0.787-2.527,2.586-3.117c1.796-0.58,3.546-0.139,3.916,0.998C230.899,43.861,229.74,45.252,227.944,45.841z    M238.492,116.866c-1.887,0.013-3.426-0.959-3.426-2.147s1.529-2.153,3.416-2.153c1.89,0,3.428,0.967,3.428,2.146   C241.911,115.907,240.371,116.866,238.492,116.866z M238.522,44.172c-1.889,0-3.416-0.971-3.416-2.156   c0-1.197,1.527-2.156,3.416-2.156s3.416,0.957,3.416,2.156C241.938,43.204,240.412,44.172,238.522,44.172z M250.393,114.986   c-1.801,0.59-3.557,0.14-3.93-0.99c-0.355-1.127,0.793-2.523,2.59-3.104c1.799-0.591,3.555-0.143,3.916,0.988   C253.335,113.02,252.18,114.407,250.393,114.986z M252.987,44.852c-0.359,1.129-2.115,1.577-3.914,0.989   c-1.799-0.579-2.949-1.97-2.588-3.099c0.369-1.139,2.127-1.577,3.916-0.998C252.201,42.325,253.356,43.714,252.987,44.852z    M261.117,109.523c-1.518,1.107-3.324,1.229-4.023,0.269c-0.699-0.968-0.031-2.646,1.5-3.757c1.526-1.107,3.334-1.229,4.023-0.27   C263.326,106.736,262.647,108.411,261.117,109.523z M262.625,50.966c-0.688,0.959-2.498,0.851-4.024-0.271   c-1.527-1.106-2.197-2.787-1.508-3.746c0.709-0.969,2.506-0.851,4.037,0.262C262.656,48.316,263.335,50,262.625,50.966z    M269.649,101.001c-1.108,1.541-2.797,2.209-3.756,1.511c-0.961-0.699-0.854-2.507,0.258-4.036   c1.107-1.525,2.795-2.197,3.756-1.499C270.877,97.676,270.757,99.484,269.649,101.001z M269.917,59.777   c-0.956,0.688-2.636,0.028-3.744-1.5c-1.107-1.526-1.229-3.338-0.271-4.035c0.969-0.697,2.646-0.03,3.754,1.5   C270.769,57.269,270.892,59.079,269.917,59.777z M272.026,63.913c1.138-0.37,2.529,0.8,3.107,2.587c0.58,1.799,0.137,3.547-1,3.916   c-1.129,0.37-2.519-0.789-3.107-2.589C270.449,66.042,270.899,64.282,272.026,63.913z M275.137,90.221   c-0.58,1.801-1.973,2.958-3.109,2.6c-1.127-0.369-1.578-2.117-0.998-3.916c0.578-1.799,1.979-2.957,3.107-2.599   C275.272,86.676,275.713,88.435,275.137,90.221z M274.854,81.802c-1.188,0-2.158-1.528-2.158-3.427c0-1.891,0.97-3.416,2.158-3.416   s2.156,1.537,2.146,3.416C277.012,80.265,276.042,81.802,274.854,81.802z" stroke="#000000" outline-element="true" stroke-width="0.5" g2gstroke="#312783" stroke-miterlimit="10"/>
<path orgstroke="#000000" orgfill="none" transform="matrix(1 0 0 1 363 360.00006103515625)" fill="none" d="M254.936,78.398   c0,9.063-7.354,16.413-16.414,16.413c-9.066,0-16.42-7.351-16.42-16.413s7.351-16.42,16.42-16.42   C247.582,61.98,254.936,69.336,254.936,78.398z" stroke="#000000" stroke-width="0.25" g2gstroke="#312783" stroke-miterlimit="10"/>
<path orgstroke="#000000" orgfill="none" transform="matrix(1 0 0 1 363 360.00006103515625)" fill="none" d="M238.519,85.814c-4.1,0-7.418-3.322-7.418-7.419   c0-4.097,3.318-7.417,7.418-7.417c4.092,0,7.416,3.322,7.416,7.417C245.935,82.493,242.612,85.814,238.519,85.814z" stroke="#000000" stroke-width="0.25" g2gstroke="#312783" stroke-miterlimit="10"/>
<path orgstroke="#000000" orgfill="none" transform="matrix(1 0 0 1 363 360.00006103515625)" fill="none" d="M249.101,68.807   c0,1.748-1.422,3.166-3.166,3.166c-1.75,0-3.166-1.416-3.166-3.166c0-1.748,1.416-3.168,3.166-3.168   C247.681,65.639,249.101,67.059,249.101,68.807z" stroke="#000000" stroke-width="0.25" g2gstroke="#312783" stroke-miterlimit="10"/>
<path orgstroke="#000000" orgfill="none" transform="matrix(1 0 0 1 363 360.00006103515625)" fill="none" d="M234.854,68.807   c0,1.748-1.422,3.166-3.166,3.166c-1.75,0-3.166-1.416-3.166-3.166c0-1.748,1.416-3.168,3.166-3.168   C233.434,65.639,234.854,67.059,234.854,68.807z" stroke="#000000" stroke-width="0.25" g2gstroke="#312783" stroke-miterlimit="10"/>
<path orgstroke="#000000" orgfill="none" transform="matrix(1 0 0 1 363 360.00006103515625)" fill="none" d="M243.33,42.443c0,1.674-2.156,3.035-4.813,3.035   c-2.657,0-4.813-1.359-4.813-3.035c0-1.677,2.152-3.037,4.813-3.037C241.173,39.411,243.33,40.767,243.33,42.443z" stroke="#000000" stroke-width="0.25" g2gstroke="#312783" stroke-miterlimit="10"/>
<path orgstroke="#000000" orgfill="none" transform="matrix(1 0 0 1 363 360.00006103515625)" fill="none" d="M231.983,42.709   c0.518,1.594-1.112,3.555-3.639,4.376c-2.527,0.819-4.996,0.194-5.518-1.397c-0.518-1.591,1.109-3.553,3.641-4.377   C228.995,40.488,231.466,41.113,231.983,42.709z" stroke="#000000" stroke-width="0.25" g2gstroke="#312783" stroke-miterlimit="10"/>
<path orgstroke="#000000" orgfill="none" transform="matrix(1 0 0 1 363 360.00006103515625)" fill="none" d="M221.25,46.482   c0.984,1.354,0.045,3.726-2.1,5.289c-2.148,1.563-4.692,1.735-5.681,0.381c-0.985-1.354-0.045-3.725,2.103-5.289   C217.725,45.3,220.267,45.128,221.25,46.482z" stroke="#000000" stroke-width="0.25" g2gstroke="#312783" stroke-miterlimit="10"/>
<path orgstroke="#000000" orgfill="none" transform="matrix(1 0 0 1 363 360.00006103515625)" fill="none" d="M212.233,53.383   c1.354,0.979,1.191,3.527-0.362,5.679c-1.56,2.153-3.925,3.101-5.28,2.119c-1.356-0.979-1.195-3.524,0.359-5.681   C208.51,53.351,210.873,52.398,212.233,53.383z" stroke="#000000" stroke-width="0.25" g2gstroke="#312783" stroke-miterlimit="10"/>
<path orgstroke="#000000" orgfill="none" transform="matrix(1 0 0 1 363 360.00006103515625)" fill="none" d="M205.79,62.741   c1.594,0.515,2.229,2.983,1.413,5.515c-0.813,2.528-2.771,4.162-4.364,3.649c-1.597-0.518-2.229-2.983-1.416-5.516   C202.24,63.861,204.191,62.227,205.79,62.741z" stroke="#000000" stroke-width="0.25" g2gstroke="#312783" stroke-miterlimit="10"/>
<path orgstroke="#000000" orgfill="none" transform="matrix(1 0 0 1 363 360.00006103515625)" fill="none" d="M202.565,73.588c1.674,0,3.041,2.15,3.045,4.808   c0.002,2.657-1.354,4.813-3.027,4.819c-1.678,0.002-3.04-2.15-3.045-4.809C199.534,75.752,200.887,73.594,202.565,73.588z" stroke="#000000" stroke-width="0.25" g2gstroke="#312783" stroke-miterlimit="10"/>
<path orgstroke="#000000" orgfill="none" transform="matrix(1 0 0 1 363 360.00006103515625)" fill="none" d="M202.835,84.853   c1.594-0.517,3.557,1.114,4.373,3.642c0.819,2.529,0.192,4.998-1.398,5.518c-1.596,0.518-3.555-1.113-4.375-3.645   C200.615,87.842,201.242,85.375,202.835,84.853z" stroke="#000000" stroke-width="0.25" g2gstroke="#312783" stroke-miterlimit="10"/>
<path orgstroke="#000000" orgfill="none" transform="matrix(1 0 0 1 363 360.00006103515625)" fill="none" d="M206.612,95.601   c1.352-0.987,3.724-0.043,5.283,2.103c1.565,2.147,1.734,4.69,0.383,5.681c-1.354,0.985-3.723,0.043-5.289-2.103   C205.428,99.131,205.253,96.59,206.612,95.601z" stroke="#000000" stroke-width="0.25" g2gstroke="#312783" stroke-miterlimit="10"/>
<path orgstroke="#000000" orgfill="none" transform="matrix(1 0 0 1 363 360.00006103515625)" fill="none" d="M213.51,104.62   c0.981-1.354,3.524-1.191,5.68,0.363c2.152,1.562,3.1,3.926,2.119,5.283c-0.982,1.355-3.527,1.189-5.681-0.363   C213.477,108.342,212.524,105.982,213.51,104.62z" stroke="#000000" stroke-width="0.25" g2gstroke="#312783" stroke-miterlimit="10"/>
<path orgstroke="#000000" orgfill="none" transform="matrix(1 0 0 1 363 360.00006103515625)" fill="none" d="M222.828,111.045   c0.517-1.594,2.987-2.223,5.515-1.401c2.527,0.815,4.16,2.774,3.646,4.37c-0.52,1.596-2.988,2.223-5.516,1.404   C223.944,114.599,222.311,112.647,222.828,111.045z" stroke="#000000" stroke-width="0.25" g2gstroke="#312783" stroke-miterlimit="10"/>
<path orgstroke="#000000" orgfill="none" transform="matrix(1 0 0 1 363 360.00006103515625)" fill="none" d="M233.666,114.286   c0-1.676,2.156-3.036,4.813-3.036c2.656,0,4.812,1.356,4.813,3.032c0,1.681-2.156,3.037-4.813,3.041   C235.828,117.32,233.669,115.967,233.666,114.286z" stroke="#000000" stroke-width="0.25" g2gstroke="#312783" stroke-miterlimit="10"/>
<path orgstroke="#000000" orgfill="none" transform="matrix(1 0 0 1 363 360.00006103515625)" fill="none" d="M244.999,114.022   c-0.518-1.596,1.116-3.557,3.641-4.375c2.526-0.822,4.998-0.195,5.518,1.396c0.52,1.595-1.112,3.557-3.639,4.377   C247.993,116.236,245.522,115.618,244.999,114.022z" stroke="#000000" stroke-width="0.25" g2gstroke="#312783" stroke-miterlimit="10"/>
<path orgstroke="#000000" orgfill="none" transform="matrix(1 0 0 1 363 360.00006103515625)" fill="none" d="M255.701,110.264   c-0.984-1.355-0.038-3.727,2.111-5.287c2.146-1.561,4.691-1.729,5.678-0.376c0.986,1.354,0.043,3.726-2.105,5.288   C259.233,111.448,256.69,111.62,255.701,110.264z" stroke="#000000" stroke-width="0.25" g2gstroke="#312783" stroke-miterlimit="10"/>
<path orgstroke="#000000" orgfill="none" transform="matrix(1 0 0 1 363 360.00006103515625)" fill="none" d="M264.713,103.383   c-1.354-0.984-1.187-3.529,0.377-5.678c1.561-2.149,3.926-3.1,5.282-2.115c1.356,0.986,1.188,3.531-0.372,5.684   C268.442,103.419,266.078,104.368,264.713,103.383z" stroke="#000000" stroke-width="0.25" g2gstroke="#312783" stroke-miterlimit="10"/>
<path orgstroke="#000000" orgfill="none" transform="matrix(1 0 0 1 363 360.00006103515625)" fill="none" d="M271.186,94.014   c-1.598-0.518-2.226-2.988-1.406-5.516c0.813-2.526,2.771-4.162,4.367-3.648c1.597,0.516,2.225,2.986,1.41,5.516   C274.737,92.891,272.783,94.527,271.186,94.014z" stroke="#000000" stroke-width="0.25" g2gstroke="#312783" stroke-miterlimit="10"/>
<path orgstroke="#000000" orgfill="none" transform="matrix(1 0 0 1 363 360.00006103515625)" fill="none" d="M274.415,83.195   c-1.676-0.002-3.036-2.16-3.034-4.815c-0.002-2.654,1.354-4.812,3.03-4.813c1.679-0.002,3.04,2.154,3.04,4.812   C277.451,81.034,276.094,83.191,274.415,83.195z" stroke="#000000" stroke-width="0.25" g2gstroke="#312783" stroke-miterlimit="10"/>
<path orgstroke="#000000" orgfill="none" transform="matrix(1 0 0 1 363 360.00006103515625)" fill="none" d="M274.151,71.877   c-1.594,0.517-3.553-1.116-4.373-3.643c-0.817-2.527-0.189-4.998,1.4-5.516c1.596-0.521,3.555,1.112,4.373,3.641   C276.373,68.885,275.751,71.355,274.151,71.877z" stroke="#000000" stroke-width="0.25" g2gstroke="#312783" stroke-miterlimit="10"/>
<path orgstroke="#000000" orgfill="none" transform="matrix(1 0 0 1 363 360.00006103515625)" fill="none" d="M270.393,61.154   c-1.355,0.982-3.729,0.035-5.285-2.11c-1.563-2.146-1.73-4.688-0.379-5.679c1.354-0.987,3.725-0.041,5.287,2.106   C271.578,57.625,271.748,60.167,270.393,61.154z" stroke="#000000" stroke-width="0.25" g2gstroke="#312783" stroke-miterlimit="10"/>
<path orgstroke="#000000" orgfill="none" transform="matrix(1 0 0 1 363 360.00006103515625)" fill="none" d="M263.501,52.131   c-0.984,1.352-3.529,1.188-5.681-0.374c-2.149-1.562-3.099-3.926-2.114-5.282c0.98-1.359,3.53-1.189,5.68,0.367   C263.536,48.404,264.485,50.769,263.501,52.131z" stroke="#000000" stroke-width="0.25" g2gstroke="#312783" stroke-miterlimit="10"/>
<path orgstroke="#000000" orgfill="none" transform="matrix(1 0 0 1 363 360.00006103515625)" fill="none" d="M254.178,45.688   c-0.519,1.596-2.99,2.221-5.518,1.4c-2.525-0.819-4.158-2.776-3.645-4.369c0.519-1.6,2.988-2.225,5.517-1.404   C253.06,42.138,254.696,44.09,254.178,45.688z" stroke="#000000" stroke-width="0.25" g2gstroke="#312783" stroke-miterlimit="10"/>
<path orgstroke="#000000" orgfill="none" transform="matrix(1 0 0 1 363 360.00006103515625)" fill="none" d="M253.077,82.028c0,1.746-1.42,3.166-3.166,3.166   c-1.75,0-3.168-1.42-3.168-3.166c0-1.752,1.42-3.168,3.168-3.168S253.077,80.278,253.077,82.028z" stroke="#000000" stroke-width="0.25" g2gstroke="#312783" stroke-miterlimit="10"/>
<path orgstroke="#000000" orgfill="none" transform="matrix(1 0 0 1 363 360.00006103515625)" fill="none" d="M230.857,82.648   c0,1.746-1.418,3.166-3.166,3.166s-3.166-1.42-3.166-3.166c0-1.752,1.418-3.168,3.166-3.168S230.857,80.898,230.857,82.648z" stroke="#000000" stroke-width="0.25" g2gstroke="#312783" stroke-miterlimit="10"/>
<path orgstroke="#000000" orgfill="none" transform="matrix(1 0 0 1 363 360.00006103515625)" fill="none" d="M241.688,90.217c0,1.75-1.422,3.17-3.166,3.17   c-1.75,0-3.166-1.42-3.166-3.17c0-1.746,1.416-3.168,3.166-3.168C240.268,87.049,241.688,88.471,241.688,90.217z" stroke="#000000" stroke-width="0.25" g2gstroke="#312783" stroke-miterlimit="10"/>
<path orgstroke="#000000" orgfill="none" transform="matrix(1 0 0 1 363 360.00006103515625)" fill="none" d="M260.186,78.398   c0,11.959-9.707,21.662-21.664,21.662c-11.967,0-21.668-9.703-21.668-21.662s9.701-21.666,21.668-21.666   C250.479,56.732,260.186,66.441,260.186,78.398z" stroke="#000000" stroke-width="0.25" g2gstroke="#312783" stroke-miterlimit="10"/>
<path orgstroke="#000000" orgfill="none" transform="matrix(1 0 0 1 363 360.00006103515625)" fill="none" d="M262.339,78.398   c0,13.334-10.824,24.161-24.164,24.161c-13.348,0-24.168-10.829-24.168-24.161c0-13.34,10.823-24.166,24.168-24.166   C251.518,54.232,262.339,65.062,262.339,78.398z" stroke="#000000" stroke-width="0.25" g2gstroke="#312783" stroke-miterlimit="10"/>
<path orgstroke="#000000" orgfill="none" transform="matrix(1 0 0 1 363 360.00006103515625)" fill="none" d="M286.252,78.234   c0,26.443-21.46,47.912-47.911,47.912c-26.464,0-47.918-21.467-47.918-47.912c0-26.449,21.457-47.918,47.918-47.918   C264.792,30.318,286.252,51.788,286.252,78.234z" stroke="#000000" stroke-width="0.25" g2gstroke="#312783" stroke-miterlimit="10"/>
<path orgstroke="#000000" orgfill="none" transform="matrix(1 0 0 1 363 360.00006103515625)" fill="none" d="M280.768,78.234   c0,23.316-18.928,42.246-42.246,42.246c-23.334,0-42.252-18.93-42.252-42.246c0-23.32,18.918-42.25,42.252-42.25   C261.841,35.984,280.768,54.918,280.768,78.234z" stroke="#000000" stroke-width="0.25" g2gstroke="#312783" stroke-miterlimit="10"/>
</g>
</g>
</g>
</g>
</g></svg>