<svg xmlns="http://www.w3.org/2000/svg" xmlns:xlink="http://www.w3.org/1999/xlink" xmlns:etg="http://www.eurotaxglass.com/etg/evd/" etg:dataTimestamp="1539068912893" contentScriptType="text/ecmascript" zoomAndPan="magnify" contentStyleType="text/css" id="Layer_1" style="enable-background:new 0 0 841.891 595.279;" enable-background="new 0 0 1841.891 1595.279" version="1.1" xml:space="preserve" width="1841.891px" preserveAspectRatio="xMidYMid meet" viewBox="0 0 1841.891 1595.279" height="1595.279px" x="0px" y="0px"><g xmlns="http://www.w3.org/2000/svg" objecttype="PS" tooltip="#UNDEFINED" id="22">
<g onmouseover="notifyOwner(AGV_OBJECT_MOUSEOVER, '22(PS)')" transform="translate(32.51611243057249, -6.830272338867189) translate(33.7702661590576, 18.912113525390623)" onclick="clickZoom(evt); notifyOwner(AGV_OBJECT_MOUSECLICK, '22(PS)')" onmouseout="notifyOwner(AGV_OBJECT_MOUSEOUT, '22(PS)')" tooltip="#UNDEFINED" id="22-Graphic" objecttype="GRAPHIC">
<g>
	<polygon orgstroke="#000000" orgfill="#ffffff" points="591.772,319.269 591.94,318.928    591.982,318.802 592,318.56 592.085,317.552 592.028,316.987 591.613,316.315 591,315.907 590.281,315.491 583.9,312.317    580.569,310.659 579.35,310.053 577.516,309.147 572.943,307.032 572.606,306.955 572.378,306.937 572.125,306.937    571.875,307.032 548.365,322.14 548.153,322.351 548.255,323.177 548.314,323.347 548.46,323.448 548.645,323.428 548.898,323.347    549.232,323.194 549.584,323.177 549.897,323.177 550.291,323.308 552.031,324.177 555.352,325.594 559.193,327.309    564.314,329.392 569.106,330.814 570.277,331.071 571.375,331.236 572.311,331.114 573.275,330.737 574.107,330.312  " fill="#ffffff" g2gfill="#ECC35D" outline-element="true" stroke="#000000" stroke-width="0.5" g2gstroke="#312783" stroke-miterlimit="10"/>
	<polyline orgstroke="#000000" orgfill="none" points="563.128,327.776 559.193,326.178    555.352,324.451 552.031,323.035 550.291,322.178  " fill="none" stroke="#000000" stroke-width="0.25" g2gstroke="#312783" stroke-miterlimit="10"/>
	<polyline orgstroke="#000000" orgfill="none" points="588.02,320.481 574.107,329.178    573.293,329.574 572.311,329.979 571.375,330.101 570.277,329.937 569.106,329.679 565.24,328.533  " fill="none" stroke="#000000" stroke-width="0.25" g2gstroke="#312783" stroke-miterlimit="10"/>
	<polyline orgstroke="#000000" orgfill="none" points="587.698,318.724 573.793,327.427    572.981,327.817 571.99,328.221 571.065,328.345 569.962,328.179 568.791,327.927  " fill="none" stroke="#000000" stroke-width="0.25" g2gstroke="#312783" stroke-miterlimit="10"/>
	
		<line orgstroke="#000000" orgfill="none" fill="none" x1="589.225" x2="588.02" y1="319.728" y2="320.481" stroke="#000000" stroke-width="0.25" g2gstroke="#312783" stroke-miterlimit="10"/>
	<polyline orgstroke="#000000" orgfill="none" points="550.291,322.178 549.941,322.07    549.584,322.019 549.125,322.07 548.74,322.178 548.153,322.351  " fill="none" stroke="#000000" stroke-width="0.25" g2gstroke="#312783" stroke-miterlimit="10"/>
	<polyline orgstroke="#000000" orgfill="none" points="591.857,317.892 591.684,318.161    590.816,318.724  " fill="none" stroke="#000000" stroke-width="0.25" g2gstroke="#312783" stroke-miterlimit="10"/>
	<polyline orgstroke="#000000" orgfill="none" points="587.698,318.724 589.209,317.719    589.359,317.397 589.314,317.144 589.209,316.939 589,316.684 588.337,316.178  " fill="none" stroke="#000000" stroke-width="0.25" g2gstroke="#312783" stroke-miterlimit="10"/>
</g>
</g>
</g></svg>