<svg xmlns="http://www.w3.org/2000/svg" xmlns:xlink="http://www.w3.org/1999/xlink" xmlns:etg="http://www.eurotaxglass.com/etg/evd/" etg:dataTimestamp="1539068912893" contentScriptType="text/ecmascript" zoomAndPan="magnify" contentStyleType="text/css" id="Layer_1" style="enable-background:new 0 0 841.891 595.279;" enable-background="new 0 0 1841.891 1595.279" version="1.1" xml:space="preserve" width="1841.891px" preserveAspectRatio="xMidYMid meet" viewBox="0 0 1841.891 1595.279" height="1595.279px" x="0px" y="0px"><g xmlns="http://www.w3.org/2000/svg" objecttype="PS" tooltip="#UNDEFINED" id="29">
<g onmouseover="notifyOwner(AGV_OBJECT_MOUSEOVER, '29(PS)')" transform="translate(32.51611243057249, -6.830272338867189) translate(33.7702661590576, 18.912113525390623)" onclick="clickZoom(evt); notifyOwner(AGV_OBJECT_MOUSECLICK, '29(PS)')" onmouseout="notifyOwner(AGV_OBJECT_MOUSEOUT, '29(PS)')" tooltip="#UNDEFINED" id="29-Graphic" objecttype="GRAPHIC">
<g>
	<polygon orgstroke="#000000" orgfill="#ffffff" points="272.882,283.319 271.365,283.247    270.208,283.319 269.27,283.463 268.041,283.826 266.164,284.476 265.079,284.908 264.862,285.125 264.643,286.282    264.284,286.642 263.055,285.92 262.333,286.065 257.709,288.521 257.349,288.738 257.131,289.1 256.697,289.532 255.615,290.255    254.963,290.4 254.241,290.617 253.519,290.979 251.712,292.278 250.268,293.435 249.833,293.723 249.618,294.012 249.545,294.447    249.473,295.819 249.4,296.253 248.967,296.398 248.389,296.253 247.667,295.964 247.306,295.964 246.8,296.253 245.498,297.408    242.97,299.51 241.525,301.165 240.296,302.684 239.429,303.984 238.562,305.499 237.912,307.596 237.55,309.113 237.335,310.702    237.478,312.075 237.912,313.594 238.417,314.82 239.285,315.688 240.079,316.482 240.585,316.635 240.803,316.844    240.946,318.361 240.874,318.802 241.598,319.445 244.414,321.323 255.542,328.052 255.975,328.188 257.781,328.331    257.998,328.115 258.793,326.677 259.155,326.309 260.599,324.863 261.394,323.563 262.695,321.18 263.49,319.094 263.995,317.566    264.284,317.135 265.874,316.195 265.946,315.76 265.874,314.469 266.091,314.025 267.535,313.303 267.897,313.159    269.052,313.952 269.559,313.952 271.293,312.87 271.726,312.654 271.798,312.365 271.726,311.497 272.014,311.064 272.52,310.635    273.46,310.635 274.544,310.486 274.906,310.344 275.917,309.98 276.35,309.98 277.722,310.413 278.734,310.702 280.323,310.848    281.842,310.775 283.503,310.486 285.742,309.618 287.261,308.896 288.561,308.029 288.923,307.956 290.944,307.813    291.524,307.596 292.751,305.79 293.04,305.139 292.751,303.189 293.04,302.393 293.403,300.885 293.618,299.575 293.69,298.347    293.545,297.191 293.186,295.747 292.318,294.374 291.67,293.58 290.222,292.568 288.923,291.917 287.911,291.628 286.682,291.339    282.347,288.811 273.822,283.681  " fill="#ffffff" g2gfill="#ECC35D" outline-element="true" stroke="#000000" stroke-width="0.5" g2gstroke="#312783" stroke-miterlimit="10"/>
	<polyline orgstroke="#000000" orgfill="none" points="265.079,284.908 266.451,285.92    266.307,286.209 264.643,286.859  " fill="none" stroke="#000000" stroke-width="0.25" g2gstroke="#312783" stroke-miterlimit="10"/>
	<polyline orgstroke="#000000" orgfill="none" points="249.583,294.22 250.7,295.097    250.7,295.097 249.4,296.253  " fill="none" stroke="#000000" stroke-width="0.25" g2gstroke="#312783" stroke-miterlimit="10"/>
	<polyline orgstroke="#000000" orgfill="none" points="257.349,288.738 261.104,290.979    261.394,291.266 261.466,291.701 260.237,292.496 259.587,292.641 259.155,292.423 255.107,290.689  " fill="none" stroke="#000000" stroke-width="0.25" g2gstroke="#312783" stroke-miterlimit="10"/>
	<polyline orgstroke="#000000" orgfill="none" points="275.917,285.197 273.677,285.415    271.581,285.993 268.62,287.004 265.946,288.088 263.49,289.388 261.104,290.979  " fill="none" stroke="#000000" stroke-width="0.25" g2gstroke="#312783" stroke-miterlimit="10"/>
	<polyline orgstroke="#000000" orgfill="none" points="258.503,292.423 253.808,295.674    250.7,298.058 248.534,299.865 246.655,301.311 245.21,303.052 243.692,304.995 242.537,307.161 241.741,308.969 241.308,310.991    241.018,313.303 240.946,315.036 241.453,315.977 242.103,316.555 247.375,319.445  " fill="none" stroke="#000000" stroke-width="0.25" g2gstroke="#312783" stroke-miterlimit="10"/>
	<polyline orgstroke="#000000" orgfill="none" points="281.514,288.308 277.867,288.593    273.966,289.388 271.22,290.255 267.68,291.773 265.007,293.218 262.768,294.88 260.527,296.467 257.636,298.853 255.975,301.094    254.963,302.469 253.736,304.488 253.229,305.499 253.374,306.077 253.663,306.514 254.82,307.161 255.325,307.525    255.687,307.956 255.687,308.607 255.107,310.053 254.458,312.29 253.953,313.952 253.736,315.4 253.519,316.577 253.466,318.366    253.466,319.788 253.466,321.219 253.782,322.999 254.045,324.053 254.677,325.219 255.255,325.896 256.045,326.368    256.888,326.579 257.888,326.635 258.73,326.427  " fill="none" stroke="#000000" stroke-width="0.25" g2gstroke="#312783" stroke-miterlimit="10"/>
	<polyline orgstroke="#000000" orgfill="none" points="252.887,305.995 249.464,304.311    249.202,304.26 248.728,304.26 248.254,304.784 247.78,305.523 246.885,307.523 246.358,309.26 245.938,310.945 245.727,313.219    245.832,314.997 246.306,316.788 246.727,318.219 247.675,319.427 248.57,320.635 249.938,321.79 252.044,322.999 253.044,323.527    253.677,324.157 254.463,324.82 254.729,325.738 254.854,327.635  " fill="none" stroke="#000000" stroke-width="0.25" g2gstroke="#312783" stroke-miterlimit="10"/>
	
		<line orgstroke="#000000" orgfill="none" fill="none" x1="255.625" x2="255.729" y1="326.368" y2="327.896" stroke="#000000" stroke-width="0.25" g2gstroke="#312783" stroke-miterlimit="10"/>
	
		<line orgstroke="#000000" orgfill="none" fill="none" x1="242.848" x2="242.832" y1="316.969" y2="319.999" stroke="#000000" stroke-width="0.25" g2gstroke="#312783" stroke-miterlimit="10"/>
	
		<line orgstroke="#000000" orgfill="none" fill="none" x1="243.042" x2="250.359" y1="318.219" y2="322.427" stroke="#000000" stroke-width="0.25" g2gstroke="#312783" stroke-miterlimit="10"/>
	<polyline orgstroke="#000000" orgfill="none" points="255.309,302.26 256.467,301.891    257.414,301.68 258.204,301.635 258.678,301.783 259.204,302.1 262.468,304.052 263.1,304.732 263.679,305.415 264.206,306.365    264.626,307.943 264.837,309.893 264.732,311.786 264.626,313.682 264.258,316.736  " fill="none" stroke="#000000" stroke-width="0.25" g2gstroke="#312783" stroke-miterlimit="10"/>
	<polyline orgstroke="#000000" orgfill="none" points="277.63,288.886 276.472,289.465    275.208,290.255 274.155,291.203 272.944,292.256 272.05,293.361 271.365,294.519 270.576,295.993 270.049,297.205    269.733,298.573 269.365,300.204 269.207,301.363 269.259,302.784 269.576,304.311 269.944,305.68 270.628,306.891    271.313,307.682 272.418,308.26 275.917,309.98  " fill="none" stroke="#000000" stroke-width="0.25" g2gstroke="#312783" stroke-miterlimit="10"/>
	<polyline orgstroke="#000000" orgfill="none" points="264.995,312.219 265.311,312.313    265.521,312.575 265.89,314.104  " fill="none" stroke="#000000" stroke-width="0.25" g2gstroke="#312783" stroke-miterlimit="10"/>
	<polyline orgstroke="#000000" orgfill="none" points="267.996,312.945 267.943,310.844    268.102,310.471 270.154,309.206 270.576,309.154 271.102,309.365 271.313,309.635 271.787,311.404  " fill="none" stroke="#000000" stroke-width="0.25" g2gstroke="#312783" stroke-miterlimit="10"/>
	<polyline orgstroke="#000000" orgfill="none" points="271.178,309.469 269.154,310.635    269.102,311.104 269.207,313.635  " fill="none" stroke="#000000" stroke-width="0.25" g2gstroke="#312783" stroke-miterlimit="10"/>
	
		<line orgstroke="#000000" orgfill="none" fill="none" x1="268.102" x2="268.943" y1="310.471" y2="310.786" stroke="#000000" stroke-width="0.25" g2gstroke="#312783" stroke-miterlimit="10"/>
	<polyline orgstroke="#000000" orgfill="none" points="261.521,303.204 261.31,298.31    261.416,297.52 261.731,297.257 263.152,296.204 264.521,295.309 265.943,294.519 266.838,294.046 267.575,293.782    268.048,293.625 268.364,293.834 268.681,294.098 268.733,294.73 268.628,296.098 268.681,298.26 268.838,300.942 269.049,303.26    269.522,305.943 269.786,307.427 269.892,308.154 269.733,308.471 269.365,308.732 265.101,311.575  " fill="none" stroke="#000000" stroke-width="0.25" g2gstroke="#312783" stroke-miterlimit="10"/>
	<polyline orgstroke="#000000" orgfill="none" points="265.575,295.151 265.575,305.154    265.837,305.784 266.312,306.154 269.733,308.102  " fill="none" stroke="#000000" stroke-width="0.25" g2gstroke="#312783" stroke-miterlimit="10"/>
	
		<line orgstroke="#000000" orgfill="none" fill="none" x1="265.521" x2="264.521" y1="305.784" y2="306.365" stroke="#000000" stroke-width="0.25" g2gstroke="#312783" stroke-miterlimit="10"/>
	<polyline orgstroke="#000000" orgfill="none" points="261.958,303.743 261.152,303.844    260.046,304.102 259.625,304.415 259.099,304.891 258.52,305.523 257.94,306.206 257.045,307.523  " fill="none" stroke="#000000" stroke-width="0.25" g2gstroke="#312783" stroke-miterlimit="10"/>
	<polyline orgstroke="#000000" orgfill="none" points="264.206,307.943 263.785,306.635    263.311,305.844 262.626,305.206 261.995,304.844 261.31,304.784 260.573,304.844 259.941,305.26 259.415,305.732 258.625,306.573    258.204,307.26 257.467,308.313 256.993,309.365 256.414,310.523 255.993,311.575 255.677,312.366 255.309,313.365    255.098,314.427 254.834,315.635 254.729,316.893 254.624,317.895 254.572,319.156 254.572,320.525 254.572,321.427    254.729,322.475 254.887,323.427 255.255,324.264 255.729,325.01 256.256,325.527 257.414,325.79 257.94,325.79 258.678,325.579    259.784,324.79 260.679,323.895 261.679,322.427  " fill="none" stroke="#000000" stroke-width="0.25" g2gstroke="#312783" stroke-miterlimit="10"/>
	<polyline orgstroke="#000000" orgfill="none" points="276.051,295.572 275.366,296.414    274.734,297.205 274.261,297.8 273.909,298.302 273.664,298.748 273.384,299.415 273.139,300.052 272.855,300.969 272.645,301.979    272.645,302.784 272.61,303.734 272.645,304.68 272.787,305.452 273.173,306.434 273.56,307.137 274.016,308.052 274.682,308.646    275.383,309.102 276.121,309.559 276.646,309.874  " fill="none" stroke="#000000" stroke-width="0.25" g2gstroke="#312783" stroke-miterlimit="10"/>
	<polyline orgstroke="#000000" orgfill="none" points="280.579,292.519 279.631,293.045    278.683,293.571 277.841,294.151  " fill="none" stroke="#000000" stroke-width="0.25" g2gstroke="#312783" stroke-miterlimit="10"/>
	<polyline orgstroke="#000000" orgfill="none" points="286.211,291.255 285.158,291.413    283.947,291.519 282.842,291.676 282.315,291.819  " fill="none" stroke="#000000" stroke-width="0.25" g2gstroke="#312783" stroke-miterlimit="10"/>
	<path orgstroke="#000000" orgfill="none" fill="none" d="M291.479,295.08   c2.468,3.454,0.676,8.979-4.007,12.313c-4.685,3.342-10.479,3.246-12.951-0.213c-2.463-3.459-0.667-8.979,4.021-12.313   C283.22,291.525,289.013,291.624,291.479,295.08z" stroke="#000000" stroke-width="0.25" g2gstroke="#312783" stroke-miterlimit="10"/>
	<polyline orgstroke="#000000" orgfill="none" points="292.751,303.189 292.055,304.225    291.423,305.135 290.792,305.943 290.231,306.609 289.668,307.206 288.477,308.094  " fill="none" stroke="#000000" stroke-width="0.25" g2gstroke="#312783" stroke-miterlimit="10"/>
	
		<line orgstroke="#000000" orgfill="none" fill="none" x1="291.772" x2="292.723" y1="304.635" y2="305.241" stroke="#000000" stroke-width="0.25" g2gstroke="#312783" stroke-miterlimit="10"/>
	
		<line orgstroke="#000000" orgfill="none" fill="none" x1="290.054" x2="291.448" y1="306.969" y2="307.624" stroke="#000000" stroke-width="0.25" g2gstroke="#312783" stroke-miterlimit="10"/>
	
		<line orgstroke="#000000" orgfill="none" fill="none" x1="244.09" x2="247.412" y1="298.575" y2="300.434" stroke="#000000" stroke-width="0.25" g2gstroke="#312783" stroke-miterlimit="10"/>
	
		<line orgstroke="#000000" orgfill="none" fill="none" x1="268.478" x2="271.8" y1="283.979" y2="285.836" stroke="#000000" stroke-width="0.25" g2gstroke="#312783" stroke-miterlimit="10"/>
	
		<line orgstroke="#000000" orgfill="none" fill="none" x1="237.335" x2="240.656" y1="310.615" y2="312.471" stroke="#000000" stroke-width="0.25" g2gstroke="#312783" stroke-miterlimit="10"/>
	
		<line orgstroke="#000000" orgfill="none" fill="none" x1="237.98" x2="241.301" y1="313.387" y2="315.241" stroke="#000000" stroke-width="0.25" g2gstroke="#312783" stroke-miterlimit="10"/>
	
		<line orgstroke="#000000" orgfill="none" fill="none" x1="240.803" x2="242.841" y1="316.844" y2="317.999" stroke="#000000" stroke-width="0.25" g2gstroke="#312783" stroke-miterlimit="10"/>
	<polyline orgstroke="#000000" orgfill="none" points="254.671,322.094 254.614,321.7    254.572,320.525 254.603,318.385 254.706,317.105 254.826,315.736 255.336,313.288 256.55,310.247 257.515,308.241    258.625,306.573 258.839,306.35 259.135,306.223 259.31,306.427 259.784,308.102 260.152,309.997 260.362,311.786 260.362,313.844    260.099,315.844 259.784,317.635 259.257,319.219 258.52,320.262 257.572,321.219 256.625,321.844 255.782,322.219    254.834,322.157  " fill="none" stroke="#000000" stroke-width="0.25" g2gstroke="#312783" stroke-miterlimit="10"/>
	<polygon orgstroke="#000000" orgfill="none" points="274.998,307.26 274.472,306.927    274.182,306.635 273.955,306.188 273.728,305.596 273.505,304.68 273.427,303.891 273.392,303.204 273.502,302.443 273.629,301.76    273.813,300.969 274.073,300.361 274.287,299.862 274.59,299.264 274.893,298.732 275.27,298.152 275.773,297.479 276.292,296.865    276.727,296.406 277.267,295.893 277.746,295.477 278.439,294.943 279.272,294.379 280.059,293.922 281.052,293.414    281.853,293.121 282.579,292.914 282.947,292.94 283.105,292.993 283.263,293.15 283.632,294.572 283.842,296.098 283.895,297.73    284,299.31 283.895,300.782 283.685,302.469 283.158,304.205 282.473,305.573 281.579,306.784 280.631,307.573 279.315,308.154    278.051,308.206 276.893,308.052 275.893,307.682  " fill="none" stroke="#000000" stroke-width="0.25" g2gstroke="#312783" stroke-miterlimit="10"/>
</g>
</g>
</g></svg>