<svg xmlns="http://www.w3.org/2000/svg" xmlns:xlink="http://www.w3.org/1999/xlink" xmlns:etg="http://www.eurotaxglass.com/etg/evd/" etg:dataTimestamp="1539068912893" contentScriptType="text/ecmascript" zoomAndPan="magnify" contentStyleType="text/css" id="Layer_1" style="enable-background:new 0 0 841.891 595.279;" enable-background="new 0 0 1841.891 1595.279" version="1.1" xml:space="preserve" width="1841.891px" preserveAspectRatio="xMidYMid meet" viewBox="0 0 1841.891 1595.279" height="1595.279px" x="0px" y="0px"><g xmlns="http://www.w3.org/2000/svg" objecttype="PS" tooltip="#UNDEFINED" id="98">
<g onmouseover="notifyOwner(AGV_OBJECT_MOUSEOVER, '98(PS)')" transform="translate(32.51611243057249, -6.830272338867189) translate(3.0, 23.0) translate(66,-25) " onclick="clickZoom(evt); notifyOwner(AGV_OBJECT_MOUSECLICK, '98(PS)')" onmouseout="notifyOwner(AGV_OBJECT_MOUSEOUT, '98(PS)')" tooltip="#UNDEFINED" id="98-Graphic" objecttype="GRAPHIC">
<g zvalue="55">
<g>
<path orgstroke="#000000" orgfill="#ffffff" transform="translate(109.10610064679844, -1.4078206535070876) translate(-143.93795986095284, -1.2967383771256777) " fill="#ffffff" g2gfill="#ECF5E4" stroke-linejoin="round" d="M276.109,466.829v2.402   c0,0,0.063,0.904-0.351,1.068l-3.303,1.916c0,0-0.515-0.407-0.894-0.289c-2.537,0.793-2.824-1.096-2.824-1.096v-2.396   c-0.364-3.646-4.472-4.358-4.864-3.888c-0.396,0.476-1.271,1.029-1.271,1.029s-5.709-0.396-7.059-1.029   c-6.392-3.007-7.967-0.479-7.967-0.479l-2.602,1.496c-1.857,1.079-2.146-1.229-2.146-1.229v-12.416   c0.055-1.122,1.053-2.173,1.053-2.173l8.769-5.063l0.075-0.108v-2.135c0,0,0.041-0.896,0.597-1.063   c0.562-0.157,1.11-2.614,1.11-2.614l1.429-0.793l1.509,0.871l1.028-0.078l17.131,13.644c0,0,0.519,0.606,0.571,1.26v0.81   l0.23,0.162l3.557,2.054l-0.061,0.219v5.979l-0.105,0.118l-3.563,2.059L276.109,466.829z" stroke="#000000" outline-element="true" stroke-width="0.5" g2gstroke="#312783"/>
<path orgstroke="#000000" orgfill="none" transform="translate(109.10610064679844, -1.4078206535070876) translate(-143.93795986095284, -1.2967383771256777) " fill="none" d="M252.749,445.997l-7.517,4.34c0,0-1.356,0.232-1.552,2.392v12.416" stroke="#000000" stroke-width="0.25" g2gstroke="#312783"/>
<path orgstroke="#000000" orgfill="none" transform="translate(109.10610064679844, -1.4078206535070876) translate(-143.93795986095284, -1.2967383771256777) " fill="none" d="M276.1470031738281 458.9010009765625L279.7720031738281 456.8089904785156" stroke="#000000" stroke-width="0.25" g2gstroke="#312783"/>
<path orgstroke="#000000" orgfill="none" transform="translate(109.10610064679844, -1.4078206535070876) translate(-143.93795986095284, -1.2967383771256777) " fill="none" d="M246.906,451.231c0,0,4.521,2.219,5.396-0.794" stroke="#000000" stroke-width="0.25" g2gstroke="#312783"/>
<path orgstroke="#000000" orgfill="none" transform="translate(109.10610064679844, -1.4078206535070876) translate(-143.93795986095284, -1.2967383771256777) " fill="none" d="M276.1090087890625 454.4849853515625L276.1090087890625 464.9230041503906" stroke="#000000" stroke-width="0.25" g2gstroke="#312783"/>
<path orgstroke="#000000" orgfill="none" transform="translate(109.10610064679844, -1.4078206535070876) translate(-143.93795986095284, -1.2967383771256777) " fill="none" d="M252.734,444.591v4.34c-0.114,4.125-4.64,1.589-4.64,1.589l-1.485,0.675   v2.021c0,0-1.845,2.459-1.289,4.045" stroke="#000000" stroke-width="0.25" g2gstroke="#312783"/>
<path orgstroke="#000000" orgfill="none" transform="translate(109.10610064679844, -1.4078206535070876) translate(-143.93795986095284, -1.2967383771256777) " fill="none" d="M252.853,441.951c0,0,0.561,0.952,0.953,0.952   c0.396,0,1.031-0.479,1.031-0.479l14.195,11.578c0,0,0.155,1.105,0.948,1.508c0.793,0.396,2.304,0.242,2.304,0.242l2.379-1.373   c0.873-0.42,0.873-1.964,0.873-1.964" stroke="#000000" stroke-width="0.25" g2gstroke="#312783"/>
<path orgstroke="#000000" orgfill="none" transform="translate(109.10610064679844, -1.4078206535070876) translate(-143.93795986095284, -1.2967383771256777) " fill="none" d="M270.2959899902344 466.85400390625L270.2959899902344 471.2980041503906" stroke="#000000" stroke-width="0.25" g2gstroke="#312783"/>
<path orgstroke="#000000" orgfill="none" transform="translate(109.10610064679844, -1.4078206535070876) translate(-143.93795986095284, -1.2967383771256777) " fill="none" d="M270.89599609375 467.0320129394531L270.89599609375 471.4700012207031" stroke="#000000" stroke-width="0.25" g2gstroke="#312783"/>
<path orgstroke="#000000" orgfill="none" transform="translate(109.10610064679844, -1.4078206535070876) translate(-143.93795986095284, -1.2967383771256777) " fill="none" d="M270.2239990234375 456.0870056152344L270.2239990234375 460.14300537109375" stroke="#000000" stroke-width="0.25" g2gstroke="#312783"/>
<path orgstroke="#000000" orgfill="none" transform="translate(109.10610064679844, -1.4078206535070876) translate(-143.93795986095284, -1.2967383771256777) " fill="none" d="M270.822998046875 456.2449951171875L270.822998046875 460.3030090332031" stroke="#000000" stroke-width="0.25" g2gstroke="#312783"/>
<path orgstroke="#000000" orgfill="none" transform="translate(109.10610064679844, -1.4078206535070876) translate(-143.93795986095284, -1.2967383771256777) " fill="none" d="M246.986,453.69c0,0-2.496,1.866-0.354,6.068   c0,0,0.24,0.777,3.479,2.259c0,0,6.535,3.063,7.063,1.847c1.726-4.025-2.221-6.563-2.221-6.563s-6.188-3.32-6.896-3.609   c-0.896-0.369-0.877-0.773-0.877-0.773v-1.346" stroke="#000000" stroke-width="0.25" g2gstroke="#312783"/>
<path orgstroke="#000000" orgfill="none" transform="translate(109.10610064679844, -1.4078206535070876) translate(-143.93795986095284, -1.2967383771256777) " fill="none" d="M270.267,464.532v-2.383c0,0-0.125-0.502-0.496-0.791   c0,0-0.271-1.248,1.438-0.652c0.396,0.139,0.164,0.652,0.164,0.652s-0.519,0.336-0.504,0.889v2.385" stroke="#000000" stroke-width="0.25" g2gstroke="#312783"/>
<path orgstroke="#000000" orgfill="none" transform="translate(109.10610064679844, -1.4078206535070876) translate(-143.93795986095284, -1.2967383771256777) " fill="none" d="M258.43499755859375 439.5050048828125L258.4779968261719 444.4809875488281" stroke="#000000" stroke-width="0.25" g2gstroke="#312783"/>
<path orgstroke="#000000" orgfill="none" transform="translate(109.10610064679844, -1.4078206535070876) translate(-143.93795986095284, -1.2967383771256777) " fill="none" d="M245.896,452.052c-0.057,0.404-0.37,0.843-0.698,0.977   c-0.325,0.137-0.549-0.088-0.489-0.494c0.063-0.398,0.369-0.842,0.696-0.974C245.731,451.427,245.952,451.645,245.896,452.052z" stroke="#000000" stroke-width="0.25" g2gstroke="#312783"/>
<path orgstroke="#000000" orgfill="none" transform="translate(109.10610064679844, -1.4078206535070876) translate(-143.93795986095284, -1.2967383771256777) " fill="none" d="M245.538,451.51c0.092,0.089,0.063,0.119,0.037,0.318   c-0.061,0.402-0.369,0.844-0.699,0.978c-0.068,0.028-0.142,0.04-0.197,0.038" stroke="#000000" stroke-width="0.25" g2gstroke="#312783"/>
<path orgstroke="#000000" orgfill="none" transform="translate(109.10610064679844, -1.4078206535070876) translate(-143.93795986095284, -1.2967383771256777) " fill="none" d="M246.072,460.628c-0.058,0.4-0.366,0.842-0.694,0.976   s-0.551-0.088-0.492-0.493c0.058-0.404,0.367-0.845,0.697-0.977C245.907,459.999,246.128,460.219,246.072,460.628z" stroke="#000000" stroke-width="0.25" g2gstroke="#312783"/>
<path orgstroke="#000000" orgfill="none" transform="translate(109.10610064679844, -1.4078206535070876) translate(-143.93795986095284, -1.2967383771256777) " fill="none" d="M245.714,460.081c0.09,0.092,0.063,0.117,0.037,0.318   c-0.06,0.404-0.369,0.846-0.697,0.979c-0.071,0.023-0.139,0.041-0.199,0.037" stroke="#000000" stroke-width="0.25" g2gstroke="#312783"/>
<path orgstroke="#000000" orgfill="none" transform="translate(109.10610064679844, -1.4078206535070876) translate(-143.93795986095284, -1.2967383771256777) " fill="none" d="M263.474,453.942   c0.095,0.666,0.605,1.381,1.146,1.604c0.539,0.217,0.896-0.146,0.813-0.813c-0.098-0.664-0.604-1.38-1.146-1.6   C263.741,452.917,263.378,453.278,263.474,453.942z" stroke="#000000" stroke-width="0.25" g2gstroke="#312783" stroke-miterlimit="10"/>
<path orgstroke="#000000" orgfill="none" transform="translate(109.10610064679844, -1.4078206535070876) translate(-143.93795986095284, -1.2967383771256777) " fill="none" d="M263.981,453.024   c-0.107,0.15-0.157,0.389-0.116,0.684c0.097,0.662,0.604,1.381,1.146,1.598c0.119,0.05,0.229,0.066,0.328,0.063" stroke="#000000" stroke-width="0.25" g2gstroke="#312783" stroke-miterlimit="10"/>
<path orgstroke="#000000" orgfill="none" transform="translate(109.10610064679844, -1.4078206535070876) translate(-143.93795986095284, -1.2967383771256777) " fill="none" d="M257.79,458.948   c0.076,0.539,0.492,1.123,0.932,1.305c0.438,0.176,0.732-0.119,0.658-0.658c-0.076-0.541-0.494-1.122-0.937-1.299   C258.007,458.114,257.714,458.407,257.79,458.948z" stroke="#000000" stroke-width="0.25" g2gstroke="#312783" stroke-miterlimit="10"/>
<path orgstroke="#000000" orgfill="none" transform="translate(109.10610064679844, -1.4078206535070876) translate(-143.93795986095284, -1.2967383771256777) " fill="none" d="M258.327,458.159   c-0.095,0.121-0.132,0.313-0.1,0.555c0.076,0.541,0.492,1.123,0.934,1.302c0.1,0.038,0.188,0.056,0.27,0.05" stroke="#000000" stroke-width="0.25" g2gstroke="#312783" stroke-miterlimit="10"/>
<path orgstroke="#000000" orgfill="none" transform="translate(109.10610064679844, -1.4078206535070876) translate(-143.93795986095284, -1.2967383771256777) " fill="none" d="M265.55,459.907   c0.07,0.485,0.445,1.02,0.842,1.176c0.396,0.159,0.662-0.104,0.595-0.596c-0.065-0.485-0.442-1.02-0.843-1.177   C265.747,459.151,265.481,459.417,265.55,459.907z" stroke="#000000" stroke-width="0.25" g2gstroke="#312783" stroke-miterlimit="10"/>
<path orgstroke="#000000" orgfill="none" transform="translate(109.10610064679844, -1.4078206535070876) translate(-143.93795986095284, -1.2967383771256777) " fill="none" d="M266.036,459.192   c-0.082,0.111-0.115,0.284-0.091,0.5c0.067,0.486,0.446,1.02,0.845,1.178c0.09,0.033,0.172,0.053,0.237,0.047" stroke="#000000" stroke-width="0.25" g2gstroke="#312783" stroke-miterlimit="10"/>
<path orgstroke="#000000" orgfill="none" transform="translate(109.10610064679844, -1.4078206535070876) translate(-143.93795986095284, -1.2967383771256777) " fill="none" d="M268.786,450.78   c0.096,0.664,0.604,1.383,1.146,1.602c0.537,0.22,0.896-0.146,0.811-0.813c-0.098-0.666-0.607-1.382-1.146-1.602   C269.054,449.755,268.693,450.116,268.786,450.78z" stroke="#000000" stroke-width="0.25" g2gstroke="#312783" stroke-miterlimit="10"/>
<path orgstroke="#000000" orgfill="none" transform="translate(109.10610064679844, -1.4078206535070876) translate(-143.93795986095284, -1.2967383771256777) " fill="none" d="M269.296,449.86   c-0.113,0.15-0.16,0.391-0.119,0.686c0.094,0.665,0.605,1.381,1.146,1.599c0.119,0.048,0.229,0.066,0.328,0.063" stroke="#000000" stroke-width="0.25" g2gstroke="#312783" stroke-miterlimit="10"/>
<path orgstroke="#000000" orgfill="none" transform="translate(109.10610064679844, -1.4078206535070876) translate(-143.93795986095284, -1.2967383771256777) " fill="none" d="M254.01499938964844 443.35198974609375L268.78399658203125 455.33099365234375" stroke="#000000" stroke-width="0.25" g2gstroke="#312783" stroke-miterlimit="10"/>
<path orgstroke="#000000" orgfill="none" transform="translate(109.10610064679844, -1.4078206535070876) translate(-143.93795986095284, -1.2967383771256777) " fill="none" d="M256.238,439.757c-0.058,0.402-0.366,0.843-0.696,0.977   c-0.33,0.133-0.554-0.089-0.49-0.494c0.058-0.4,0.367-0.842,0.695-0.974C256.073,439.13,256.294,439.35,256.238,439.757z" stroke="#000000" stroke-width="0.25" g2gstroke="#312783"/>
<path orgstroke="#000000" orgfill="none" transform="translate(109.10610064679844, -1.4078206535070876) translate(-143.93795986095284, -1.2967383771256777) " fill="none" d="M255.88,439.214c0.088,0.088,0.063,0.115,0.037,0.316   c-0.06,0.403-0.369,0.844-0.699,0.979c-0.069,0.027-0.139,0.041-0.197,0.039" stroke="#000000" stroke-width="0.25" g2gstroke="#312783"/>
<path orgstroke="#000000" orgfill="none" transform="translate(109.10610064679844, -1.4078206535070876) translate(-143.93795986095284, -1.2967383771256777) " fill="none" d="M276.154,461.106c0.313-0.441,0.707-0.809,1.118-0.975   c0.789-0.316,1.32,0.213,1.186,1.188c-0.138,0.979-0.89,2.021-1.681,2.346c-0.239,0.101-0.459,0.113-0.64,0.063" stroke="#000000" stroke-width="0.25" g2gstroke="#312783"/>
<path orgstroke="#000000" orgfill="none" transform="translate(109.10610064679844, -1.4078206535070876) translate(-143.93795986095284, -1.2967383771256777) " fill="none" d="M277.884,460.138c0.215,0.215,0.158,0.284,0.09,0.771   c-0.137,0.979-0.889,2.022-1.68,2.348" stroke="#000000" stroke-width="0.25" g2gstroke="#312783"/>
<path orgstroke="#000000" orgfill="none" transform="translate(109.10610064679844, -1.4078206535070876) translate(-143.93795986095284, -1.2967383771256777) " fill="none" d="M249.388,458.079c-0.682-0.043-1.252,0.967-0.309,1.74   c0.512,0.424,0.778,0.521,0.778,0.521s2.702,1.679,3.354,1.623c0.965-0.08,0.416-1.592-0.217-2.002   c-0.634-0.41-2.802-1.521-3.313-1.799C249.583,458.114,249.486,458.087,249.388,458.079" stroke="#000000" stroke-width="0.25" g2gstroke="#312783"/>
<path orgstroke="#000000" orgfill="none" transform="translate(109.10610064679844, -1.4078206535070876) translate(-143.93795986095284, -1.2967383771256777) " fill="none" d="M249.349,458.303c-0.105,0.348-0.018,0.794,0.455,1.186   c0.513,0.42,0.781,0.521,0.781,0.521s2.41,1.496,3.225,1.613" stroke="#000000" stroke-width="0.25" g2gstroke="#312783"/>
<path orgstroke="#000000" orgfill="none" transform="translate(109.10610064679844, -1.4078206535070876) translate(-143.93795986095284, -1.2967383771256777) " fill="none" d="M262.005,453.257c0,0-6.721-8.646-7.082-8.734   c-1.082-0.271-0.662,1.174-0.662,1.174l3.494,4.34c0,0,0.211,0.216,0.121,0.305c-0.185,0.184-3.043,0.516-3.043,0.516   s-0.813-1.059-1.084-1.326c-0.271-0.271-0.847-0.025-0.693,0.689c0.15,0.727,3.916,5.186,3.916,5.186s0.904,0.847,2.14,0.754   C260.347,456.057,264.234,455.968,262.005,453.257z" stroke="#000000" stroke-width="0.25" g2gstroke="#312783"/>
<path orgstroke="#000000" orgfill="none" transform="translate(109.10610064679844, -1.4078206535070876) translate(-143.93795986095284, -1.2967383771256777) " fill="none" d="M256.279,451.929l2.354-0.361c0,0,0.328-0.025,0.541,0.184   c0.211,0.215,1.478,1.896,1.478,1.896s0.332,0.453-0.026,0.541c-0.357,0.093-2.316,0.271-2.316,0.271s-0.571-0.027-0.662-0.146   c-0.092-0.12-1.508-1.776-1.508-1.776S255.738,452.018,256.279,451.929z" stroke="#000000" stroke-width="0.25" g2gstroke="#312783"/>
<path orgstroke="#000000" orgfill="none" transform="translate(109.10610064679844, -1.4078206535070876) translate(-143.93795986095284, -1.2967383771256777) " fill="none" d="M256.981,452.292l1.568-0.24c0,0,0.221-0.021,0.354,0.121   c0.146,0.143,0.983,1.268,0.983,1.268s0.222,0.301-0.021,0.359c-0.236,0.063-1.552,0.182-1.552,0.182s-0.382-0.021-0.438-0.102   c-0.063-0.08-1.004-1.188-1.004-1.188S256.62,452.352,256.981,452.292z" stroke="#000000" stroke-width="0.25" g2gstroke="#312783"/>
<path orgstroke="#000000" orgfill="none" transform="translate(109.10610064679844, -1.4078206535070876) translate(-143.93795986095284, -1.2967383771256777) " fill="none" d="M256.368,442.641c0,0,1.141-0.7,1.268-0.384   c0.183,0.453,0.086,1.627,0.086,1.627" stroke="#000000" stroke-width="0.25" g2gstroke="#312783"/>
<path orgstroke="#000000" orgfill="none" transform="translate(109.10610064679844, -1.4078206535070876) translate(-143.93795986095284, -1.2967383771256777) " fill="none" d="M267.546,451.911c0.572-0.404,0.717-1.084-0.221-2.228   c0,0-6.723-8.646-7.08-8.731c-1.082-0.271-0.662,1.176-0.662,1.176l3.494,4.338c0,0,0.211,0.211,0.118,0.302   c-0.183,0.183-1.364,0.259-1.364,0.259" stroke="#000000" stroke-width="0.25" g2gstroke="#312783"/>
<path orgstroke="#000000" orgfill="none" transform="translate(109.10610064679844, -1.4078206535070876) translate(-143.93795986095284, -1.2967383771256777) " fill="none" d="M263.183,448.214l0.771-0.215c0,0,0.332-0.027,0.543,0.185   c0.211,0.214,1.479,1.896,1.479,1.896s0.33,0.449-0.03,0.543" stroke="#000000" stroke-width="0.25" g2gstroke="#312783"/>
<path orgstroke="#000000" orgfill="none" transform="translate(109.10610064679844, -1.4078206535070876) translate(-143.93795986095284, -1.2967383771256777) " fill="none" d="M244.29,451.741l0.104,10.328c0,0-0.161,1.028,0.6,0.979   c0.756-0.059,1.678-0.864,1.678-0.864" stroke="#000000" stroke-width="0.25" g2gstroke="#312783"/>
<path orgstroke="#000000" orgfill="none" transform="translate(109.10610064679844, -1.4078206535070876) translate(-143.93795986095284, -1.2967383771256777) " fill="none" d="M277.435,459.682c-0.271,0.109-0.461-0.073-0.411-0.414   c0.047-0.343,0.312-0.709,0.586-0.819c0.274-0.107,0.461,0.074,0.411,0.416" stroke="#000000" stroke-width="0.25" g2gstroke="#312783"/>
<path orgstroke="#000000" orgfill="none" transform="translate(109.10610064679844, -1.4078206535070876) translate(-143.93795986095284, -1.2967383771256777) " fill="none" d="M271.573,471.784c-0.054-1.711-0.161-3.119,0.782-3.652   c0.718-0.405,2.048-1.146,2.048-1.146s1.308-1.179,1.196,3.098" stroke="#000000" stroke-width="0.25" g2gstroke="#312783"/>
<path orgstroke="#000000" orgfill="none" transform="translate(109.10610064679844, -1.4078206535070876) translate(-143.93795986095284, -1.2967383771256777) " fill="none" d="M272.435,472.028c-0.053-1.707-0.164-3.115,0.783-3.648   c0.717-0.405,2.049-1.146,2.049-1.146" stroke="#000000" stroke-width="0.25" g2gstroke="#312783"/>
<path orgstroke="#000000" orgfill="none" transform="translate(109.10610064679844, -1.4078206535070876) translate(-143.93795986095284, -1.2967383771256777) " fill="none" d="M275.511,464.77l-1.543-0.959c-0.067-0.041-0.16-0.043-0.266,0   c-0.265,0.104-0.513,0.45-0.559,0.771c-0.021,0.185,0.021,0.313,0.109,0.383l1.565,0.979" stroke="#000000" stroke-width="0.25" g2gstroke="#312783"/>
<path orgstroke="#000000" orgfill="none" transform="translate(109.10610064679844, -1.4078206535070876) translate(-143.93795986095284, -1.2967383771256777) " fill="none" d="M275.644,465.167c-0.045,0.318-0.293,0.67-0.555,0.771   c-0.262,0.102-0.438-0.067-0.391-0.394c0.047-0.321,0.295-0.67,0.555-0.772C275.515,464.671,275.69,464.844,275.644,465.167z" stroke="#000000" stroke-width="0.25" g2gstroke="#312783"/>
<path orgstroke="#000000" orgfill="none" transform="translate(109.10610064679844, -1.4078206535070876) translate(-143.93795986095284, -1.2967383771256777) " fill="none" d="M274.208,465.616c-0.068-0.066-0.104-0.189-0.078-0.354   c0.047-0.32,0.293-0.668,0.555-0.771c0.093-0.036,0.173-0.039,0.238-0.015" stroke="#000000" stroke-width="0.25" g2gstroke="#312783"/>
<path orgstroke="#000000" orgfill="none" transform="translate(109.10610064679844, -1.4078206535070876) translate(-143.93795986095284, -1.2967383771256777) " fill="none" d="M273.675,465.229c-0.07-0.065-0.104-0.192-0.08-0.354   c0.047-0.322,0.295-0.67,0.556-0.774c0.095-0.036,0.177-0.038,0.237-0.013" stroke="#000000" stroke-width="0.25" g2gstroke="#312783"/>
<path orgstroke="#000000" orgfill="none" transform="translate(109.10610064679844, -1.4078206535070876) translate(-143.93795986095284, -1.2967383771256777) " fill="none" d="M270.272,466.634c0,0-0.127-0.504-0.495-0.791   c0,0-0.271-1.248,1.438-0.652c0.391,0.135,0.156,0.652,0.156,0.652s-0.517,0.334-0.502,0.886" stroke="#000000" stroke-width="0.25" g2gstroke="#312783"/>
<path orgstroke="#000000" orgfill="none" transform="translate(109.10610064679844, -1.4078206535070876) translate(-143.93795986095284, -1.2967383771256777) " fill="none" d="M279.226,459.76l-1.355-0.924c-0.037-0.021-0.086-0.026-0.146-0.008   c-0.146,0.057-0.287,0.236-0.313,0.416c-0.021,0.1,0.004,0.176,0.051,0.211l1.379,0.937" stroke="#000000" stroke-width="0.25" g2gstroke="#312783"/>
<path orgstroke="#000000" orgfill="none" transform="translate(109.10610064679844, -1.4078206535070876) translate(-143.93795986095284, -1.2967383771256777) " fill="none" d="M279.298,459.958c-0.024,0.176-0.162,0.363-0.305,0.426   c-0.146,0.061-0.24-0.039-0.218-0.215c0.024-0.184,0.162-0.369,0.308-0.432C279.226,459.684,279.323,459.78,279.298,459.958z" stroke="#000000" stroke-width="0.25" g2gstroke="#312783"/>
<path orgstroke="#000000" orgfill="none" transform="translate(109.10610064679844, -1.4078206535070876) translate(-143.93795986095284, -1.2967383771256777) " fill="none" d="M278.495,460.201c-0.037-0.04-0.056-0.104-0.037-0.192   c0.028-0.18,0.176-0.361,0.315-0.416c0.054-0.021,0.099-0.021,0.132-0.004" stroke="#000000" stroke-width="0.25" g2gstroke="#312783"/>
<path orgstroke="#000000" orgfill="none" transform="translate(109.10610064679844, -1.4078206535070876) translate(-143.93795986095284, -1.2967383771256777) " fill="none" d="M278.216,459.991c-0.039-0.035-0.057-0.104-0.043-0.191   c0.022-0.178,0.162-0.364,0.305-0.426c0.05-0.021,0.1-0.021,0.132-0.012" stroke="#000000" stroke-width="0.25" g2gstroke="#312783"/>
<path orgstroke="#000000" orgfill="none" transform="translate(109.10610064679844, -1.4078206535070876) translate(-143.93795986095284, -1.2967383771256777) " fill="none" d="M276.005,454.407c0,0-0.51,0.729-0.81,0.893   c-0.295,0.158-1.106,0.115-1.638,0.938c-0.243,0.377-1.666,0.137-1.666,0.137s-0.932,0.916-0.855,2.879   c0.053,1.477,1.102,2.334,1.102,2.334l1.263,0.137l0.778-0.779l1.396,0.244l0.375-0.674" stroke="#000000" stroke-width="0.25" g2gstroke="#312783"/>
<path orgstroke="#000000" orgfill="none" transform="translate(109.10610064679844, -1.4078206535070876) translate(-143.93795986095284, -1.2967383771256777) " fill="none" d="M273.066,458.782   c0.043,0.313,0.278,0.645,0.528,0.737c0.25,0.104,0.418-0.063,0.373-0.372c-0.043-0.309-0.281-0.641-0.529-0.736   C273.19,458.304,273.021,458.475,273.066,458.782z" stroke="#000000" stroke-width="0.25" g2gstroke="#312783" stroke-miterlimit="10"/>
<path orgstroke="#000000" orgfill="none" transform="translate(109.10610064679844, -1.4078206535070876) translate(-143.93795986095284, -1.2967383771256777) " fill="none" d="M274.667,459.311   c-0.125-0.886-0.81-1.841-1.521-2.129c-0.357-0.146-0.661-0.101-0.854,0.099" stroke="#000000" stroke-width="0.25" g2gstroke="#312783" stroke-miterlimit="10"/>
<path orgstroke="#000000" orgfill="none" transform="translate(109.10610064679844, -1.4078206535070876) translate(-143.93795986095284, -1.2967383771256777) " fill="none" d="M275.106,458.934   c-0.125-0.886-0.809-1.841-1.521-2.13" stroke="#000000" stroke-width="0.25" g2gstroke="#312783" stroke-miterlimit="10"/>
<path orgstroke="#000000" orgfill="none" transform="translate(109.10610064679844, -1.4078206535070876) translate(-143.93795986095284, -1.2967383771256777) " fill="none" d="M274.687,469.134c-0.082,0.593-0.538,1.229-1.021,1.429   c-0.479,0.192-0.81-0.132-0.726-0.727c0.084-0.599,0.541-1.232,1.022-1.433C274.448,468.214,274.772,468.536,274.687,469.134z" stroke="#000000" stroke-width="0.25" g2gstroke="#312783"/>
<path orgstroke="#000000" orgfill="none" transform="translate(109.10610064679844, -1.4078206535070876) translate(-143.93795986095284, -1.2967383771256777) " fill="none" d="M274.22601318359375 468.26800537109375L274.489990234375 467.8890075683594L274.9840087890625 468.2019958496094L274.7040100097656 468.5299987792969" stroke="#000000" stroke-width="0.25" g2gstroke="#312783"/>
<path orgstroke="#000000" orgfill="none" transform="translate(109.10610064679844, -1.4078206535070876) translate(-143.93795986095284, -1.2967383771256777) " fill="none" d="M273.072998046875 470.5220031738281L272.760986328125 470.968994140625L273.20599365234375 471.2309875488281L273.43701171875 470.65301513671875" stroke="#000000" stroke-width="0.25" g2gstroke="#312783"/>
<path orgstroke="#000000" orgfill="none" transform="translate(109.10610064679844, -1.4078206535070876) translate(-143.93795986095284, -1.2967383771256777) " fill="none" d="M275.404,453.135l-16.97-13.631l-0.512-0.172l-1.512-0.869l-1.431,0.793   c0,0-0.556,2.457-1.106,2.615" stroke="#000000" stroke-width="0.25" g2gstroke="#312783"/>
<path orgstroke="#000000" orgfill="none" transform="translate(109.10610064679844, -1.4078206535070876) translate(-143.93795986095284, -1.2967383771256777) " fill="none" d="M269.761,453.594c0,0,0.16,1.107,0.953,1.509   c0.791,0.396,2.299,0.239,2.299,0.239" stroke="#000000" stroke-width="0.25" g2gstroke="#312783"/>
<path orgstroke="#000000" orgfill="none" transform="translate(109.10610064679844, -1.4078206535070876) translate(-143.93795986095284, -1.2967383771256777) " fill="none" d="M269.1239929199219 453.9150085449219L269.82501220703125 453.510009765625" stroke="#000000" stroke-width="0.25" g2gstroke="#312783" stroke-miterlimit="10"/>
<path orgstroke="#000000" orgfill="none" transform="translate(109.10610064679844, -1.4078206535070876) translate(-143.93795986095284, -1.2967383771256777) " fill="none" d="M253.878,441.872c0,0,0.297,0.688,0.69,0.688   c0.396,0,1.03-0.479,1.03-0.479l11.906,9.713l2.291,1.865" stroke="#000000" stroke-width="0.25" g2gstroke="#312783"/>
<path orgstroke="#000000" orgfill="none" transform="translate(109.10610064679844, -1.4078206535070876) translate(-143.93795986095284, -1.2967383771256777) " fill="none" d="M253.20399475097656 442.2179870605469L253.906005859375 441.8089904785156" stroke="#000000" stroke-width="0.25" g2gstroke="#312783" stroke-miterlimit="10"/>
<path orgstroke="#000000" orgfill="none" transform="translate(109.10610064679844, -1.4078206535070876) translate(-143.93795986095284, -1.2967383771256777) " fill="none" d="M254.98800659179688 439.2569885253906L254.4409942626953 438.7799987792969" stroke="#000000" stroke-width="0.25" g2gstroke="#312783" stroke-miterlimit="10"/>
<path orgstroke="#000000" orgfill="none" transform="translate(109.10610064679844, -1.4078206535070876) translate(-143.93795986095284, -1.2967383771256777) " fill="none" d="M244.03799438476562 449.72698974609375L245.1199951171875 450.26800537109375" stroke="#000000" stroke-width="0.25" g2gstroke="#312783"/>
<path orgstroke="#000000" orgfill="none" transform="translate(109.10610064679844, -1.4078206535070876) translate(-143.93795986095284, -1.2967383771256777) " fill="none" d="M242.83700561523438 451.9320068359375L243.7689971923828 452.322998046875" stroke="#000000" stroke-width="0.25" g2gstroke="#312783"/>
</g>
</g>
</g>
</g></svg>