<svg xmlns="http://www.w3.org/2000/svg" xmlns:xlink="http://www.w3.org/1999/xlink" xmlns:x="http://ns.adobe.com/Extensibility/1.0/" xmlns:graph="http://ns.adobe.com/Graphs/1.0/" xmlns:i="http://ns.adobe.com/AdobeIllustrator/10.0/" xmlns:etg="http://www.eurotaxglass.com/etg/evd/" etg:dataTimestamp="1539068912893" contentScriptType="text/ecmascript" zoomAndPan="magnify" contentStyleType="text/css" id="Layer_1" enable-background="new 0 0 1841.891 1595.279" version="1.1" xml:space="preserve" width="1841.891px" preserveAspectRatio="xMidYMid meet" viewBox="0 0 1841.891 1595.279" height="1595.279px" x="0px" y="0px"><g xmlns="http://www.w3.org/2000/svg" objecttype="PS" tooltip="#UNDEFINED" id="11">
<g onmouseover="notifyOwner(AGV_OBJECT_MOUSEOVER, '11(PS)')" transform="translate(-9.433746356535266E-6, 3.356933575560106E-7) translate(-35.71980609130861, -13.200809143066408) translate(44.708733184814434, 94.79042849731445) matrix(0.6117410612267968 0 0 0.6117410612267968 0.2921243287958965 0.477310974878083) translate(-92,-34) " onclick="clickZoom(evt); notifyOwner(AGV_OBJECT_MOUSECLICK, '11(PS)')" onmouseout="notifyOwner(AGV_OBJECT_MOUSEOUT, '11(PS)')" tooltip="#UNDEFINED" id="11-Graphic" objecttype="GRAPHIC">
<g zvalue="10">
<g zvalue="26">
<g zvalue="10">
<g>
<path orgstroke="#000000" orgfill="#ffffff" transform="translate(-295.5923495625341, 69.5511410735374) translate(13.523832986521029, -13.523832986521171) translate(185.48729538878888, 48.62288325725535) translate(724,-30) translate(-518.5915025634765, -83.33211865234375) translate(658.0, -6.0) translate(10.0, 10.00006103515625)" fill="#ffffff" g2gfill="#464646" d="M501.072,279.037   c-0.131-0.391-0.205-0.439-0.443-0.576l-1.65-0.969c-0.656-0.379-0.916-0.76-0.942-1.317c-0.011-0.227-0.026-0.558-0.007-1.085   c0.027-0.744,1.453-11.221,0.705-18.045c-0.179-1.636-0.807-4.32-1.466-6.688c-0.06-0.214-0.089-0.328,0.029-0.598   c1.751-3.994,3.171-7.709,3.848-10.505c1.01-4.17,0.972-6.698,0.705-9.044c-0.027-0.24-0.101-0.342-0.289-0.553   c-0.233-0.26-4.325-4.565-5.822-6.083c-0.14-0.142-0.249-0.25-0.509-0.355l-0.809-0.466c-0.216-0.125-0.165-0.066-0.319-0.228   c-1.847-1.929-28.138-34.353-34.578-42.416c-0.24-0.301-0.219-0.435-0.197-0.65c0.031-0.314,0.055-0.634,0.095-0.98   c0.17-1.469-0.798-2.854-2.188-4.74s-11.339-10.656-15.382-13.686c-2.813-2.107-6.713-1.891-7.549-1.859   c-0.834,0.031-1.119,0.307-1.305,0.631c-0.186,0.322-0.122,0.41-0.622,0.586c-0.945,0.33-17.271,5.557-64.092,32.443   c-45.567,26.167-56.858,37.253-58.759,39.483c-0.135,0.158-0.207,0.13-0.353,0.053c-0.147-0.078-0.295-0.159-0.443-0.239   c-0.175-0.095-0.332,0.026-0.409,0.097c-0.574,0.524-2.053,2.225-3.359,4.88c-2.111,4.288-1.472,14.47-0.554,22.837   c0.026,0.24,0.146,0.291,0.349,0.291c0.21,0,0.418,0.002,0.625,0c0.234-0.003,0.37,0.047,0.394,0.25   c0.012,0.102,0.023,0.203,0.035,0.304c1.02,8.621,9.041,51.039,9.227,55.721c0.06,1.513-0.025,2.799-0.187,3.95   c-0.035,0.252-0.054,0.346-0.349,0.555l-0.632,0.365c-0.295,0.169-0.321,0.352-0.362,0.562c-0.401,2.057-1.054,3.708-1.687,5.537   c-1.043,3.012-3.639,5.585-4.45,6.421c0.817,0.008,1.608,0.096,2.342,0.276c2.514,0.619,6.93,2.734,16.851,3.57   c3.45,0.29,10.042,0.013,17.275-0.38c0.216-0.012,0.418,0.041,0.585,0.267c1.927,2.603,4.159,6.609,4.577,11.343   c0.626,7.094,0.649,12.161,0.649,13.134c0,0.182,0.021,0.354,0.04,0.521c0.04,0.34,0.223,0.582,0.592,0.795l1.87,1.099   c0.299,0.173,0.506,0.483,0.622,0.726c0.15,0.313,0.316,0.617,0.492,0.921c0.419,0.725,0.771,1.695,0.771,3.086   s-0.371,4.806,2.132,9.534c0.242,0.457,0.527,0.956,0.861,1.479l0.112,0.174c0.238,0.341,0.588,0.712,1.054,1.062   c0.404,0.303,2.297,1.299,2.882,1.531l0.102,0.038c1.121,0.396,2.553,0.595,4.322,0.379c3.987-0.486,6.108-1.139,7.738-1.699   c20.028-6.764,44.738-19.975,64.41-31.334c18.762-10.83,38.326-23.604,53.228-37.934c4.054-3.898,6.864-8.924,7.885-13.605   c1.02-4.682,1.688-9.117,1.98-12.377c0.228-1.804,0.53-3.483,0.573-3.957c0.079-0.869,0.086-1.49-0.053-1.941   C501.203,279.428,501.135,279.224,501.072,279.037z M371.165,350.764c-1.625,1.209-7.613,3.694-8.654,4.152   c-0.104,0.045-0.204,0.08-0.3,0.118c-0.3,0.118-0.475,0.22-0.586-0.159c-0.244-0.83-0.566-2.182-0.911-3.013   c-0.567-1.366-2.208-1.054-2.916-0.929s-1.584,0.208-1.834-1.061s-1.453-7.248-2.016-8.747c-0.491-1.311,0.346-1.745,0.766-1.9   c0.928-0.343,3.459-1,4.674-1.25c0.345-0.07,0.65-0.098,0.919-0.043c0.227,0.046,0.346,0.091,0.495,0.26   c0.362,0.409,0.68,0.783,1.072,1.009c0.269,0.154,1.264,0.842,1.264,0.842l0.134,0.07c0.262,0.122,0.554,0.191,0.901,0.189   c0.619-0.004,1.619-0.122,2.58,0.206c0.237,0.081,0.458,0.245,0.578,0.393c1.307,1.604,4.024,5.682,4.608,6.796   C372.362,348.503,372.79,349.555,371.165,350.764z M436.158,322.997c-1.446,0.733-2.782,0.833-3.893,0.403l-0.124-0.078   c-1.34-1.123-2.144-3.25-2.08-6.085c0.113-5.52,3.455-11.643,7.471-13.67c1.416-0.716,2.727-0.825,3.823-0.423l0.118,0.045   c1.381,1.106,2.215,3.256,2.155,6.14C443.513,314.847,440.172,320.97,436.158,322.997z M480.001,236.753   c-3.047,3.775-8.893,8.898-11.146,10.74c-10.976,8.971-23.418,17.367-35.906,24.98c-4.802,2.928-14.446,8.714-19.318,11.523   c-22.025,12.701-45.753,22.073-62.741,27.318c-6.8,2.101-11.738,1.845-15.312,0.394c-0.101-0.041-0.318-0.153-0.413-0.225   c-1.556-1.164-2.886-3.325-3.688-5.128c-1.825-4.105-9.179-33.563-10.569-40.238c-1.391-6.674,2.064-9.152,7.535-10.766   l0.597-0.194c2.408-0.784,4.949-1.676,7.723-2.669c12.423-4.451,39.743-18.037,57.12-28.17   c17.378-10.133,51.54-30.797,58.68-36.637c0.514-0.421,0.987-0.817,1.425-1.191c0,0,0.365-0.18,0.486-0.197   c1.71-0.25,4.433,1.262,5.424,2.327c2.079,2.232,18.668,22.915,21.125,26.577C483.478,218.86,487.866,227.009,480.001,236.753z    M494.999,269.115c0.001,0.698-0.437,1.63-0.991,2.213c-0.97,1.021-1.051,1.456-1.045,2.881c0.002,0.485,0.021,2.504-0.005,3.014   c-0.03,0.593-0.128,1.322-0.637,1.798c-1.909,1.783-4.936,4.13-7.179,5.804c-0.381,0.284-0.45,0.217-0.436-0.427   c0.045-1.953,0.381-7.5,0.547-9.469c0.099-1.172,0.353-2.102,0.748-2.787c0.395-0.686,2.184-2.246,2.186-3.175   c0.001-0.561,0.017-1.048,0.017-1.563c0-0.249,0.077-0.476,0.251-0.758c0.759-1.232,1.54-2.557,2.32-3.942   c0.174-0.309,0.303-0.475,0.567-0.655c1.349-0.921,2.902-1.985,3.572-2.372c0.522-0.302,0.745-0.186,0.745,0.333   C495.66,262.146,494.998,267.857,494.999,269.115z" stroke="#000000" outline-element="true" stroke-width="0.5" g2gstroke="#312783" stroke-miterlimit="10"/>
<radialGradient transform="translate(-295.5923495625341, 69.5511410735374) translate(13.523832986521029, -13.523832986521171) translate(185.48729538878888, 48.62288325725535) translate(724,-30) translate(-518.5915025634765, -83.33211865234375) translate(658.0, -6.0) translate(10.0, 10.00006103515625)" gradientTransform="matrix(0.8546 -0.5192 -0.1247 -0.2052 96.9878 557.621)" gradientUnits="userSpaceOnUse" xmlns:xlink="http://www.w3.org/1999/xlink" xlink:type="simple" r="215.345" cx="401.4912" xlink:actuate="onLoad" cy="309.6687" id="10::SVGID_14_" xlink:show="other">
<stop stop-opacity="0.2" stop-color="#FFFFFF" offset="0.011"/>
<stop stop-opacity="0.5" stop-color="#FFFFFF" offset="0.8756"/>
<stop stop-opacity="0.5" stop-color="#FFFFFF" offset="0.9957"/>
</radialGradient>
<path fill="url(#10::SVGID_14_)" d="M344.892,336.326c-0.28,0.02-0.56,0.03-0.84,0.05l-0.01,0.021c-0.061-0.011-0.13-0.011-0.2-0.011   c-7.23,0.391-13.83,0.67-17.28,0.38c-9.92-0.84-14.33-2.949-16.85-3.569c-0.73-0.181-1.521-0.271-2.34-0.28   c0.81-0.83,3.41-3.41,4.45-6.42c0.64-1.83,1.289-3.48,1.689-5.54c0.021-0.13,0.05-0.25,0.13-0.36l0.09,0.04   c2.94,1.17,20.561,6.61,39.37,1.08c19.2-5.63,53.07-20.67,77.53-34.8c20.54-11.85,41.88-25.98,57.25-41.94   c8.41-8.72,8.85-15.609,7.64-21.54l0.03-0.039c0.07,0.05,0.13,0.109,0.19,0.18c1.5,1.51,5.59,5.82,5.819,6.08   c0.19,0.21,0.261,0.31,0.29,0.55c0.271,2.35,0.311,4.88-0.7,9.05c-0.68,2.79-2.1,6.51-3.85,10.5c-0.05,0.12-0.07,0.2-0.07,0.28   l-0.05-0.01c-1.83,4.1-4.04,8.46-6.229,12.37l0.02,0.01c-0.07,0.08-0.12,0.18-0.189,0.29c-0.78,1.39-1.57,2.71-2.32,3.95   c-0.07,0.1-0.12,0.199-0.15,0.289l-0.029-0.01c-1.24,2.021-2.431,3.79-3.471,5.15c-1.06,1.38-1.81,2.92-2.02,4.24   c-0.21,1.319-1.07,10.54-1.141,11.33c-0.13,1.55-0.119,2.619,0.181,3.449c0.16,0.49,0.43,0.891,0.84,1.261   c0.1,0.09,0.21,0.18,0.33,0.27c1.149,0.86,1.77,1.05,2.02,1.13c0.24,0.09,1.29,0.17,2.551-0.859   c1.55-1.261,7.689-5.45,13.789-12.051c0,0.221-0.01,0.46-0.039,0.721c-0.04,0.47-0.351,2.149-0.58,3.96   c-0.29,3.26-0.96,7.689-1.98,12.37c-0.11,0.52-0.25,1.039-0.41,1.569c-14.75,15.561-41.95,34.72-60.7,45.55   c-18.109,10.46-54.699,29.561-78.239,36.131c-0.45-0.33-0.79-0.7-1.021-1.03l-0.109-0.181c-0.341-0.52-0.62-1.02-0.87-1.479   c-2.5-4.72-2.15-9.17-2.15-10.56c0-0.961-0.17-1.721-0.41-2.341c10.36-3.33,18.59-6.55,20.78-7.47c2.99-1.25,5.36-3.82,6.4-5.35   s2.149-3.24,2.54-4.13c0.989-2.25,1.149-2.57,0.55-4.28c-0.101-0.3-0.23-0.641-0.38-1.05c-0.891-2.38-2.78-5.391-3.86-6.851   c-0.56-0.76-1.58-1.37-2.76-1.77c-1.08-0.38-2.28-0.58-3.4-0.58c-0.92,0-7.13,0.55-14.899,1.17   C355.142,335.616,349.901,336.016,344.892,336.326z M444.582,309.886c0.029-1.27-0.12-2.399-0.42-3.359h0.01   c-0.78-4.49-3.94-6.511-7.79-4.57c-4.54,2.3-8.32,9.22-8.45,15.46c-0.14,6.24,3.44,9.45,7.97,7.15c0.96-0.48,1.891-1.17,2.74-2.011   C441.952,319.936,444.481,314.686,444.582,309.886z" transform="translate(-295.5923495625341, 69.5511410735374) translate(13.523832986521029, -13.523832986521171) translate(185.48729538878888, 48.62288325725535) translate(724,-30) translate(-518.5915025634765, -83.33211865234375) translate(658.0, -6.0) translate(10.0, 10.00006103515625)" orgfill="url(#10::SVGID_14_)"/>
<linearGradient transform="translate(-295.5923495625341, 69.5511410735374) translate(13.523832986521029, -13.523832986521171) translate(185.48729538878888, 48.62288325725535) translate(724,-30) translate(-518.5915025634765, -83.33211865234375) translate(658.0, -6.0) translate(10.0, 10.00006103515625)" gradientTransform="matrix(1 0 0 -1 0 595.28)" x1="482.671" x2="501.3723" y1="309.0194" gradientUnits="userSpaceOnUse" y2="309.0194" xmlns:xlink="http://www.w3.org/1999/xlink" xlink:type="simple" xlink:actuate="onLoad" id="10::SVGID_15_" xlink:show="other">
<stop stop-opacity="0.35" stop-color="#FFFFFF" offset="0"/>
<stop stop-opacity="0.35" stop-color="#FFFFFF" offset="0.9677"/>
<stop stop-opacity="0.25" stop-color="#FFFFFF" offset="1"/>
</linearGradient>
<path fill="url(#10::SVGID_15_)" d="M501.271,279.626c0.09,0.31,0.12,0.71,0.09,1.22c-6.1,6.601-12.239,10.79-13.789,12.051   c-1.261,1.029-2.311,0.949-2.551,0.859c-0.25-0.08-0.87-0.27-2.02-1.13c-0.12-0.09-0.23-0.18-0.33-0.27   c0.55,0.27,0.979,0.449,1.09,0.5c0.25,0.079,0.96,0.1,1.62-0.4c3.35-2.55,9.63-7.04,15.45-13.69l0.109-0.05   c0.04,0.08,0.08,0.17,0.131,0.32C501.142,279.216,501.212,279.426,501.271,279.626z" transform="translate(-295.5923495625341, 69.5511410735374) translate(13.523832986521029, -13.523832986521171) translate(185.48729538878888, 48.62288325725535) translate(724,-30) translate(-518.5915025634765, -83.33211865234375) translate(658.0, -6.0) translate(10.0, 10.00006103515625)" orgfill="url(#10::SVGID_15_)"/>
<path fill="#ffffff" g2gfill="#464646" d="M500.941,278.716l-0.109,0.05c-5.82,6.65-12.101,11.141-15.45,13.69c-0.66,0.5-1.37,0.479-1.62,0.4   c-0.11-0.051-0.54-0.23-1.09-0.5c-0.41-0.37-0.68-0.771-0.84-1.261c0.26-0.06,0.54-0.18,0.819-0.39   c3.37-2.56,9.71-7.1,15.561-13.81l0.04-0.03c0.149,0.22,0.38,0.42,0.729,0.62l1.65,0.97   C500.782,278.546,500.861,278.596,500.941,278.716z" transform="translate(-295.5923495625341, 69.5511410735374) translate(13.523832986521029, -13.523832986521171) translate(185.48729538878888, 48.62288325725535) translate(724,-30) translate(-518.5915025634765, -83.33211865234375) translate(658.0, -6.0) translate(10.0, 10.00006103515625)" orgfill="#ffffff"/>
<linearGradient transform="translate(-295.5923495625341, 69.5511410735374) translate(13.523832986521029, -13.523832986521171) translate(185.48729538878888, 48.62288325725535) translate(724,-30) translate(-518.5915025634765, -83.33211865234375) translate(658.0, -6.0) translate(10.0, 10.00006103515625)" gradientTransform="matrix(1 0 0 -1 0 595.28)" x1="481.571" x2="498.9539" y1="324.7206" gradientUnits="userSpaceOnUse" y2="324.7206" xmlns:xlink="http://www.w3.org/1999/xlink" xlink:type="simple" xlink:actuate="onLoad" id="10::SVGID_16_" xlink:show="other">
<stop stop-opacity="0.1" stop-color="#FFFFFF" offset="0"/>
<stop stop-opacity="0.1" stop-color="#FFFFFF" offset="1"/>
</linearGradient>
<path fill="url(#10::SVGID_16_)" d="M493.932,279.156c0.16-0.38,0.21-0.82,0.23-1.2c0.029-0.51,0.01-2.521,0.01-3.01   c-0.01-1.42,0.07-1.86,1.04-2.88c0.56-0.58,0.99-1.521,0.99-2.21c0-1.29,0.819-7.25,0.649-9.261c-0.09-1.18-0.72-1.6-1.8-0.989   h-0.01c-0.04,0.02-0.08,0.05-0.12,0.069c-0.67,0.38-2.23,1.45-3.58,2.37c-0.16,0.11-0.27,0.22-0.37,0.36l-0.02-0.01   c2.189-3.91,4.399-8.271,6.229-12.37l0.05,0.01c-0.02,0.1,0.011,0.189,0.04,0.32c0.66,2.369,1.29,5.05,1.471,6.689   c0.739,6.82-0.681,17.3-0.71,18.04c-0.021,0.53,0,0.86,0.01,1.09c0.01,0.26,0.069,0.49,0.21,0.69l-0.04,0.03   c-5.851,6.71-12.19,11.25-15.561,13.81c-0.279,0.21-0.56,0.33-0.819,0.39c-0.3-0.83-0.311-1.899-0.181-3.449   c0.07-0.79,0.931-10.011,1.141-11.33c0.21-1.32,0.96-2.86,2.02-4.24c1.04-1.36,2.23-3.13,3.471-5.15l0.029,0.01   c-0.069,0.16-0.1,0.311-0.1,0.461c0,0.52-0.021,1.01-0.021,1.569c0,0.931-1.79,2.49-2.189,3.17c-0.391,0.69-0.65,1.62-0.74,2.79   c-0.17,1.971-0.51,7.521-0.55,9.471c-0.01,0.239,0,0.399,0.03,0.489h-0.051c0.021,1.38,1.061,1.12,1.66,0.681   c2.24-1.67,5.271-4.03,7.181-5.811C493.712,279.586,493.842,279.376,493.932,279.156z M496.191,273.956   c0.011-0.49-0.27-0.73-0.619-0.56c-0.351,0.18-0.641,0.72-0.65,1.199c-0.01,0.48,0.26,0.73,0.62,0.551   C495.892,274.976,496.182,274.436,496.191,273.956z" transform="translate(-295.5923495625341, 69.5511410735374) translate(13.523832986521029, -13.523832986521171) translate(185.48729538878888, 48.62288325725535) translate(724,-30) translate(-518.5915025634765, -83.33211865234375) translate(658.0, -6.0) translate(10.0, 10.00006103515625)" orgfill="url(#10::SVGID_16_)"/>
<linearGradient transform="translate(-295.5923495625341, 69.5511410735374) translate(13.523832986521029, -13.523832986521171) translate(185.48729538878888, 48.62288325725535) translate(724,-30) translate(-518.5915025634765, -83.33211865234375) translate(658.0, -6.0) translate(10.0, 10.00006103515625)" gradientTransform="matrix(1 0 0 -1 0 595.28)" x1="264.6538" x2="522.2372" y1="-30.1676" gradientUnits="userSpaceOnUse" y2="415.9801" xmlns:xlink="http://www.w3.org/1999/xlink" xlink:type="simple" xlink:actuate="onLoad" id="10::SVGID_17_" xlink:show="other">
<stop stop-opacity="0.6" stop-color="#FFFFFF" offset="0.5758"/>
<stop stop-opacity="0.6" stop-color="#FFFFFF" offset="0.7088"/>
</linearGradient>
<path fill="url(#10::SVGID_17_)" d="M498.352,299.466c-1.25,4.21-3.87,8.57-7.47,12.04c-14.9,14.33-34.47,27.101-53.23,37.93   c-19.67,11.36-44.38,24.57-64.409,31.341c-1.631,0.56-3.75,1.21-7.74,1.689c-1.771,0.22-3.2,0.021-4.32-0.37   c-0.07-0.029-0.149-0.05-0.22-0.09c-0.25-0.109-0.62-0.29-1.01-0.5c-0.2-0.1-0.38-0.229-0.54-0.359   c23.54-6.57,60.13-25.671,78.239-36.131C456.401,334.186,483.602,315.026,498.352,299.466z" transform="translate(-295.5923495625341, 69.5511410735374) translate(13.523832986521029, -13.523832986521171) translate(185.48729538878888, 48.62288325725535) translate(724,-30) translate(-518.5915025634765, -83.33211865234375) translate(658.0, -6.0) translate(10.0, 10.00006103515625)" orgfill="url(#10::SVGID_17_)"/>
<linearGradient transform="translate(-295.5923495625341, 69.5511410735374) translate(13.523832986521029, -13.523832986521171) translate(185.48729538878888, 48.62288325725535) translate(724,-30) translate(-518.5915025634765, -83.33211865234375) translate(658.0, -6.0) translate(10.0, 10.00006103515625)" gradientTransform="matrix(1 0 0 -1 0 595.28)" x1="305.612" x2="494.8931" y1="343.8831" gradientUnits="userSpaceOnUse" y2="343.8831" xmlns:xlink="http://www.w3.org/1999/xlink" xlink:type="simple" xlink:actuate="onLoad" id="10::SVGID_18_" xlink:show="other">
<stop stop-opacity="0.2" stop-color="#FFFFFF" offset="0"/>
<stop stop-opacity="0.2" stop-color="#FFFFFF" offset="1"/>
</linearGradient>
<path fill="url(#10::SVGID_18_)" d="M335.611,311.856c0.41,0.329,0.851,0.64,1.32,0.93c3.65,2.24,9.12,3.1,17.25,0.59   c16.99-5.25,40.72-14.62,62.75-27.32c4.87-2.81,14.51-8.6,19.311-11.52c12.489-7.62,24.93-16.01,35.909-24.99   c2.25-1.84,8.101-6.96,11.15-10.74c7.86-9.739,3.47-17.89,1.021-21.55c-2.461-3.66-21.98-27.91-24.04-30.16   c-1.971-2.14-4.7-1.819-5.36-1.399c-0.03,0.02-0.061,0.04-0.08,0.06c3.6-3.2,4.25-4.59,4.45-5.95l0.06-0.02   c0.021,0.09,0.08,0.189,0.181,0.32c6.439,8.06,32.729,40.489,34.569,42.42c0.05,0.05,0.08,0.08,0.11,0.1   c0.24,1.15,0.6,3.28,0.66,4.56c0.22,4.631-1.21,10.16-7.8,17c-12.921,13.41-31.561,27.061-57,41.75   c-23.74,13.7-57.681,28.94-77.29,34.7c-5.95,1.74-11.86,2.37-17.23,2.37c-9.68,0-17.59-2.04-20.75-3.18l-0.04-0.03   c0.061-0.09,0.07-0.18,0.09-0.32c0.16-1.149,0.25-2.439,0.19-3.949c-0.19-4.681-8.21-47.101-9.23-55.721   c-0.01-0.1-0.02-0.199-0.029-0.3c-0.021-0.12-0.07-0.189-0.171-0.229l0.011-0.03c8.22-0.04,14.45-1.271,21.739-3.55   c-4.829,1.62-7.75,4.2-6.449,10.42c1.39,6.68,8.739,36.13,10.569,40.24c0.801,1.8,2.13,3.96,3.69,5.13   C335.312,311.616,335.462,311.736,335.611,311.856z" transform="translate(-295.5923495625341, 69.5511410735374) translate(13.523832986521029, -13.523832986521171) translate(185.48729538878888, 48.62288325725535) translate(724,-30) translate(-518.5915025634765, -83.33211865234375) translate(658.0, -6.0) translate(10.0, 10.00006103515625)" orgfill="url(#10::SVGID_18_)"/>
<radialGradient transform="translate(-295.5923495625341, 69.5511410735374) translate(13.523832986521029, -13.523832986521171) translate(185.48729538878888, 48.62288325725535) translate(724,-30) translate(-518.5915025634765, -83.33211865234375) translate(658.0, -6.0) translate(10.0, 10.00006103515625)" gradientTransform="matrix(1 0 0 -1 0 595.28)" gradientUnits="userSpaceOnUse" xmlns:xlink="http://www.w3.org/1999/xlink" xlink:type="simple" r="106.8181" cx="376.3545" xlink:actuate="onLoad" cy="384.2995" id="10::SVGID_19_" xlink:show="other">
<stop stop-opacity="0.3" stop-color="#FFFFFF" offset="0.0178"/>
<stop stop-opacity="0.55" stop-color="#FFFFFF" offset="0.4854"/>
<stop stop-opacity="0.65" stop-color="#FFFFFF" offset="1"/>
</radialGradient>
<path fill="url(#10::SVGID_19_)" d="M457.231,173.736c1.4,1.89,2.36,3.27,2.19,4.739c-0.04,0.351-0.061,0.671-0.09,0.98   c-0.01,0.12-0.021,0.22,0.02,0.33l-0.06,0.02c-0.2,1.36-0.851,2.75-4.45,5.95c-0.08,0.061-0.16,0.13-0.24,0.21   c-0.189,0.16-0.39,0.33-0.59,0.51c-0.01,0-0.01,0-0.02,0.011c-0.44,0.38-0.91,0.77-1.431,1.189c-7.14,5.84-41.3,26.51-58.68,36.641   c-17.37,10.13-44.69,23.72-57.12,28.17c-2.77,0.989-5.31,1.89-7.72,2.67c-0.2,0.069-0.4,0.13-0.601,0.189   c-0.3,0.09-0.6,0.181-0.89,0.29c-0.06,0.021-0.13,0.04-0.19,0.061c-7.289,2.279-13.52,3.51-21.739,3.55l-0.011,0.03   c-0.06-0.021-0.13-0.021-0.229-0.021c-0.2,0-0.41,0-0.62,0s-0.32-0.05-0.35-0.29c-0.92-8.37-1.561-18.55,0.55-22.84   c1.31-2.66,2.79-4.36,3.36-4.88c0.079-0.07,0.239-0.19,0.409-0.1c0.15,0.079,0.301,0.159,0.44,0.239   c0.06,0.03,0.11,0.061,0.15,0.061v0.02c2.8,1.49,5.27,2.62,7.279,3.13c4.45,1.11,8.41,1.94,18.221-2.229   c9.8-4.17,45.68-23.99,59.17-31.78c13.27-7.66,36.029-22.05,41.13-26.15c0.01-0.01,0.01-0.01,0.01-0.01   c0.43-0.31,0.8-0.64,1.11-0.979c0-0.011,0.01-0.011,0.02-0.021c3.93-3.819,5.28-9.35-1.52-14.279c-0.29-0.211-0.67-0.49-1.15-0.83   c0.18-0.07,0.41-0.11,0.71-0.12c0.84-0.04,4.74-0.25,7.55,1.85C445.901,163.076,455.842,171.846,457.231,173.736z" transform="translate(-295.5923495625341, 69.5511410735374) translate(13.523832986521029, -13.523832986521171) translate(185.48729538878888, 48.62288325725535) translate(724,-30) translate(-518.5915025634765, -83.33211865234375) translate(658.0, -6.0) translate(10.0, 10.00006103515625)" orgfill="url(#10::SVGID_19_)"/>
<linearGradient transform="translate(-295.5923495625341, 69.5511410735374) translate(13.523832986521029, -13.523832986521171) translate(185.48729538878888, 48.62288325725535) translate(724,-30) translate(-518.5915025634765, -83.33211865234375) translate(658.0, -6.0) translate(10.0, 10.00006103515625)" gradientTransform="matrix(1 0 0 -1 0 595.28)" x1="406.4378" x2="452.5314" y1="231.1749" gradientUnits="userSpaceOnUse" y2="311.0114" xmlns:xlink="http://www.w3.org/1999/xlink" xlink:type="simple" xlink:actuate="onLoad" id="10::SVGID_20_" xlink:show="other">
<stop stop-opacity="0.6" stop-color="#FFFFFF" offset="0.5758"/>
<stop stop-opacity="0.6" stop-color="#FFFFFF" offset="0.7088"/>
</linearGradient>
<path fill="url(#10::SVGID_20_)" d="M444.172,306.526h-0.01c-0.5-1.681-1.45-2.83-2.681-3.33c-0.04-0.021-0.08-0.04-0.12-0.05   c-1.1-0.41-2.409-0.301-3.829,0.42c-4.011,2.029-7.351,8.149-7.471,13.67c-0.06,2.83,0.74,4.96,2.08,6.08   c1.271,1.069,3.021,1.229,4.97,0.239c0.521-0.27,1.04-0.6,1.53-1c-0.85,0.841-1.78,1.53-2.74,2.011   c-4.529,2.3-8.109-0.91-7.97-7.15c0.13-6.24,3.91-13.16,8.45-15.46C440.231,300.016,443.392,302.036,444.172,306.526z" transform="translate(-295.5923495625341, 69.5511410735374) translate(13.523832986521029, -13.523832986521171) translate(185.48729538878888, 48.62288325725535) translate(724,-30) translate(-518.5915025634765, -83.33211865234375) translate(658.0, -6.0) translate(10.0, 10.00006103515625)" orgfill="url(#10::SVGID_20_)"/>
<linearGradient transform="translate(-295.5923495625341, 69.5511410735374) translate(13.523832986521029, -13.523832986521171) translate(185.48729538878888, 48.62288325725535) translate(724,-30) translate(-518.5915025634765, -83.33211865234375) translate(658.0, -6.0) translate(10.0, 10.00006103515625)" gradientTransform="matrix(1 0 0 -1 0 595.28)" x1="432.682" x2="439.5256" y1="429.409" gradientUnits="userSpaceOnUse" y2="429.409" xmlns:xlink="http://www.w3.org/1999/xlink" xlink:type="simple" xlink:actuate="onLoad" id="10::SVGID_21_" xlink:show="other">
<stop stop-opacity="0.2" stop-color="#FFFFFF" offset="0"/>
<stop stop-opacity="0.2" stop-color="#FFFFFF" offset="1"/>
</linearGradient>
<path fill="url(#10::SVGID_21_)" d="M436.262,173.426c2.061-2.22,1.83-4.87,1.33-7.22c-0.75-3.51-2.73-5.28-4.87-6.87l-0.04-0.06   c0.18-0.11,0.18-0.221,0.32-0.45c0.12-0.21,0.28-0.4,0.59-0.51c0.48,0.34,0.86,0.619,1.15,0.83   C441.542,164.076,440.191,169.606,436.262,173.426z" transform="translate(-295.5923495625341, 69.5511410735374) translate(13.523832986521029, -13.523832986521171) translate(185.48729538878888, 48.62288325725535) translate(724,-30) translate(-518.5915025634765, -83.33211865234375) translate(658.0, -6.0) translate(10.0, 10.00006103515625)" orgfill="url(#10::SVGID_21_)"/>
<linearGradient transform="translate(-295.5923495625341, 69.5511410735374) translate(13.523832986521029, -13.523832986521171) translate(185.48729538878888, 48.62288325725535) translate(724,-30) translate(-518.5915025634765, -83.33211865234375) translate(658.0, -6.0) translate(10.0, 10.00006103515625)" gradientTransform="matrix(1 0 0 -1 0 595.28)" x1="309.322" x2="437.9342" y1="397.8935" gradientUnits="userSpaceOnUse" y2="397.8935" xmlns:xlink="http://www.w3.org/1999/xlink" xlink:type="simple" xlink:actuate="onLoad" id="10::SVGID_22_" xlink:show="other">
<stop stop-opacity="0.4" stop-color="#FFFFFF" offset="0"/>
<stop stop-opacity="0.4" stop-color="#FFFFFF" offset="1"/>
</linearGradient>
<path fill="url(#10::SVGID_22_)" d="M437.592,166.206c0.5,2.35,0.73,5-1.33,7.22c-0.01,0.01-0.02,0.01-0.02,0.021   c-0.28,0.27-0.58,0.54-0.881,0.79c-0.069,0.06-0.149,0.12-0.229,0.189c0,0,0,0-0.01,0.01c-5.101,4.101-27.86,18.49-41.13,26.15   c-13.49,7.79-49.37,27.61-59.17,31.78c-9.811,4.17-13.771,3.34-18.221,2.229c-2.01-0.51-4.479-1.64-7.279-3.13v-0.02   c0.069,0.01,0.119-0.011,0.21-0.11c1.899-2.229,13.189-13.32,58.76-39.479c46.819-26.891,63.14-32.12,64.09-32.45   c0.14-0.05,0.229-0.09,0.3-0.13l0.04,0.06C434.861,160.926,436.842,162.696,437.592,166.206z" transform="translate(-295.5923495625341, 69.5511410735374) translate(13.523832986521029, -13.523832986521171) translate(185.48729538878888, 48.62288325725535) translate(724,-30) translate(-518.5915025634765, -83.33211865234375) translate(658.0, -6.0) translate(10.0, 10.00006103515625)" orgfill="url(#10::SVGID_22_)"/>
<linearGradient transform="translate(-295.5923495625341, 69.5511410735374) translate(13.523832986521029, -13.523832986521171) translate(185.48729538878888, 48.62288325725535) translate(724,-30) translate(-518.5915025634765, -83.33211865234375) translate(658.0, -6.0) translate(10.0, 10.00006103515625)" gradientTransform="matrix(1 0 0 -1 0 595.28)" x1="353.753" x2="385.4728" y1="240.339" gradientUnits="userSpaceOnUse" y2="240.339" xmlns:xlink="http://www.w3.org/1999/xlink" xlink:type="simple" xlink:actuate="onLoad" id="10::SVGID_23_" xlink:show="other">
<stop stop-opacity="0.35" stop-color="#FFFFFF" offset="0"/>
<stop stop-opacity="0.35" stop-color="#FFFFFF" offset="0.9677"/>
<stop stop-opacity="0.25" stop-color="#FFFFFF" offset="1"/>
</linearGradient>
<path fill="url(#10::SVGID_23_)" d="M385.122,344.326c0.6,1.71,0.439,2.03-0.55,4.28c-0.391,0.89-1.5,2.6-2.54,4.13   c-1.04,1.529-3.41,4.1-6.4,5.35c-2.19,0.92-10.42,4.14-20.78,7.47c-0.109-0.279-0.229-0.52-0.359-0.75   c-0.181-0.3-0.341-0.609-0.49-0.92c-0.061-0.12-0.141-0.26-0.25-0.39l0.07-0.07c7.81-2.62,18.01-6.359,20.149-7.43   C376.872,354.536,385.392,347.976,385.122,344.326z" transform="translate(-295.5923495625341, 69.5511410735374) translate(13.523832986521029, -13.523832986521171) translate(185.48729538878888, 48.62288325725535) translate(724,-30) translate(-518.5915025634765, -83.33211865234375) translate(658.0, -6.0) translate(10.0, 10.00006103515625)" orgfill="url(#10::SVGID_23_)"/>
<linearGradient transform="translate(-295.5923495625341, 69.5511410735374) translate(13.523832986521029, -13.523832986521171) translate(185.48729538878888, 48.62288325725535) translate(724,-30) translate(-518.5915025634765, -83.33211865234375) translate(658.0, -6.0) translate(10.0, 10.00006103515625)" gradientTransform="matrix(1 0 0 -1 0 595.28)" x1="344.892" x2="382.319" y1="247.36" gradientUnits="userSpaceOnUse" y2="247.36" xmlns:xlink="http://www.w3.org/1999/xlink" xlink:type="simple" xlink:actuate="onLoad" id="10::SVGID_24_" xlink:show="other">
<stop stop-opacity="0.1" stop-color="#FFFFFF" offset="0"/>
<stop stop-opacity="0.1" stop-color="#FFFFFF" offset="1"/>
</linearGradient>
<path fill="url(#10::SVGID_24_)" d="M382.271,342.486c-0.05-0.24-0.22-0.61-0.319-0.891c-0.9-2.38-2.79-5.39-3.86-6.85l0.03-0.09   c-1.08-0.38-2.28-0.58-3.4-0.58c-0.92,0-7.13,0.55-14.899,1.17c-4.681,0.37-9.921,0.77-14.931,1.08   c2.09,2.479,4.88,6.939,5.36,12.32c0.62,7.09,0.62,11.13,0.62,12.1c0,0.18,0.02,0.35,0.04,0.52c0.02,0.2,0.09,0.36,0.22,0.5   l0.07-0.08c4.1-1.38,8.819-3.05,12.689-4.489c3.49-1.28,6.271-2.38,7.28-2.88C374.092,352.866,383.052,346.066,382.271,342.486z    M364.252,337.966c0.35-0.18,0.63,0.07,0.62,0.55c-0.011,0.49-0.3,1.021-0.66,1.2c-0.351,0.181-0.62-0.069-0.61-0.55   C363.611,338.676,363.901,338.146,364.252,337.966z M359.002,353.296c-0.351,0.18-0.62-0.07-0.61-0.56   c0.01-0.48,0.3-1.021,0.65-1.19c0.35-0.18,0.63,0.07,0.62,0.55C359.651,352.576,359.361,353.116,359.002,353.296z M373.292,350.506   h-0.01c-0.16,0.33-0.471,0.68-0.95,1.04c-1.63,1.21-7.62,3.69-8.66,4.15c-0.1,0.04-0.2,0.08-0.29,0.12   c-0.84,0.31-1.4,0.159-1.64-0.57l-0.11-0.37l-0.11-0.37c-0.229-0.83-0.51-1.93-0.81-2.649c-0.561-1.36-2.2-1.051-2.91-0.931   c-0.71,0.13-1.59,0.21-1.83-1.06c-0.26-1.26-1.46-7.24-2.02-8.74c-0.49-1.31,0.35-1.75,0.76-1.9c0.93-0.35,3.46-1,4.68-1.25   c0.22-0.05,0.431-0.069,0.63-0.069c0.101,0,0.2,0,0.29,0.02c0.23,0.05,0.34,0.09,0.49,0.26c0.37,0.41,0.68,0.79,1.08,1.011   c0.16,0.1,0.61,0.399,0.93,0.62c0,0.01,0.011,0.01,0.021,0.01c0.09,0.06,0.16,0.109,0.22,0.149c0.07,0.051,0.14,0.091,0.22,0.131   c0.271,0.13,0.561,0.199,0.9,0.189c0.62,0,1.62-0.12,2.58,0.21c0.08,0.03,0.16,0.061,0.229,0.101l0.011-0.021   c0.52,0.2,1.02,0.51,1.439,1.021c1.29,1.54,4.08,5.739,4.67,6.869C373.401,349.046,373.702,349.726,373.292,350.506z" transform="translate(-295.5923495625341, 69.5511410735374) translate(13.523832986521029, -13.523832986521171) translate(185.48729538878888, 48.62288325725535) translate(724,-30) translate(-518.5915025634765, -83.33211865234375) translate(658.0, -6.0) translate(10.0, 10.00006103515625)" orgfill="url(#10::SVGID_24_)"/>
<path stroke-linecap="round" orgstroke="#000000" orgfill="none" transform="translate(-295.5923495625341, 69.5511410735374) translate(13.523832986521029, -13.523832986521171) translate(185.48729538878888, 48.62288325725535) translate(724,-30) translate(-518.5915025634765, -83.33211865234375) translate(658.0, -6.0) translate(10.0, 10.00006103515625)" fill="none" stroke-linejoin="round" d="   M313.732,320.635c2.939,1.171,20.553,6.611,39.369,1.089c19.192-5.633,53.063-20.676,77.532-34.803   c20.535-11.855,41.873-25.984,57.25-41.941c8.401-8.718,8.843-15.611,7.63-21.54" stroke="#000000" stroke-width="0.25" g2gstroke="#312783" stroke-miterlimit="10"/>
<path stroke-linecap="round" orgstroke="#000000" orgfill="none" transform="translate(-295.5923495625341, 69.5511410735374) translate(13.523832986521029, -13.523832986521171) translate(185.48729538878888, 48.62288325725535) translate(724,-30) translate(-518.5915025634765, -83.33211865234375) translate(658.0, -6.0) translate(10.0, 10.00006103515625)" fill="none" stroke-linejoin="round" d="   M314.796,319.826c3.166,1.145,11.072,3.182,20.758,3.182c5.365,0,11.275-0.625,17.229-2.372   c19.604-5.754,53.551-20.994,77.284-34.697c25.438-14.686,44.083-28.341,57.001-41.746c6.595-6.842,8.023-12.376,7.801-17.003   c-0.062-1.277-0.423-3.413-0.662-4.561" stroke="#000000" stroke-width="0.25" g2gstroke="#312783" stroke-miterlimit="10"/>
<path stroke-linecap="round" orgstroke="#000000" orgfill="none" transform="translate(-295.5923495625341, 69.5511410735374) translate(13.523832986521029, -13.523832986521171) translate(185.48729538878888, 48.62288325725535) translate(724,-30) translate(-518.5915025634765, -83.33211865234375) translate(658.0, -6.0) translate(10.0, 10.00006103515625)" fill="none" stroke-linejoin="round" d="   M353.818,363.426c7.815-2.619,18.013-6.361,20.145-7.425c2.857-1.426,11.093-7.762,11.162-11.457v-0.217   c-0.105-0.301-0.233-0.645-0.385-1.049c-0.89-2.379-2.781-5.389-3.859-6.848c-1.077-1.461-3.828-2.355-6.158-2.355   c-1.511,0-17.156,1.484-30.669,2.3" stroke="#000000" stroke-width="0.25" g2gstroke="#312783" stroke-miterlimit="10"/>
<path stroke-linecap="round" orgstroke="#000000" orgfill="none" transform="translate(-295.5923495625341, 69.5511410735374) translate(13.523832986521029, -13.523832986521171) translate(185.48729538878888, 48.62288325725535) translate(724,-30) translate(-518.5915025634765, -83.33211865234375) translate(658.0, -6.0) translate(10.0, 10.00006103515625)" fill="none" stroke-linejoin="round" d="   M351.195,361.688c7.793-2.616,17.854-6.311,19.971-7.366c2.92-1.457,11.884-8.253,11.104-11.836   c-0.051-0.233-0.224-0.611-0.326-0.887c-0.89-2.379-2.781-5.389-3.859-6.848" stroke="#000000" stroke-width="0.25" g2gstroke="#312783" stroke-miterlimit="10"/>
<path stroke-linecap="round" orgstroke="#000000" orgfill="none" transform="translate(-295.5923495625341, 69.5511410735374) translate(13.523832986521029, -13.523832986521171) translate(185.48729538878888, 48.62288325725535) translate(724,-30) translate(-518.5915025634765, -83.33211865234375) translate(658.0, -6.0) translate(10.0, 10.00006103515625)" fill="none" stroke-linejoin="round" d="   M495.04,259.61c1.093-0.611,1.715-0.188,1.813,0.991c0.165,2.006-0.652,7.966-0.651,9.254c0.001,0.698-0.437,1.63-0.991,2.213   c-0.97,1.021-1.051,1.456-1.045,2.881c0.002,0.485,0.021,2.504-0.005,3.014c-0.03,0.593-0.128,1.322-0.637,1.798   c-1.909,1.783-4.932,4.135-7.179,5.804c-0.601,0.446-1.647,0.705-1.66-0.689" stroke="#000000" stroke-width="0.25" g2gstroke="#312783" stroke-miterlimit="10"/>
<path stroke-linecap="round" orgstroke="#000000" orgfill="none" transform="translate(-295.5923495625341, 69.5511410735374) translate(13.523832986521029, -13.523832986521171) translate(185.48729538878888, 48.62288325725535) translate(724,-30) translate(-518.5915025634765, -83.33211865234375) translate(658.0, -6.0) translate(10.0, 10.00006103515625)" fill="none" stroke-linejoin="round" d="   M497.18,250.029c-1.832,4.097-4.036,8.459-6.23,12.365" stroke="#000000" stroke-width="0.25" g2gstroke="#312783" stroke-miterlimit="10"/>
<path stroke-linecap="round" orgstroke="#000000" orgfill="none" transform="translate(-295.5923495625341, 69.5511410735374) translate(13.523832986521029, -13.523832986521171) translate(185.48729538878888, 48.62288325725535) translate(724,-30) translate(-518.5915025634765, -83.33211865234375) translate(658.0, -6.0) translate(10.0, 10.00006103515625)" fill="none" stroke-linejoin="round" d="   M488.281,266.928c-1.247,2.025-2.433,3.789-3.475,5.147c-1.061,1.381-1.812,2.922-2.021,4.242   c-0.208,1.322-1.071,10.545-1.136,11.334c-0.186,2.252-0.239,3.662,0.77,4.47c0.299,0.239,1.221,0.69,1.342,0.733   c0.244,0.086,0.956,0.107,1.617-0.395c3.349-2.55,9.625-7.04,15.449-13.688" stroke="#000000" stroke-width="0.25" g2gstroke="#312783" stroke-miterlimit="10"/>
<path stroke-linecap="round" orgstroke="#000000" orgfill="none" transform="translate(-295.5923495625341, 69.5511410735374) translate(13.523832986521029, -13.523832986521171) translate(185.48729538878888, 48.62288325725535) translate(724,-30) translate(-518.5915025634765, -83.33211865234375) translate(658.0, -6.0) translate(10.0, 10.00006103515625)" fill="none" stroke-linejoin="round" d="   M481.816,291.103c0.261-0.06,0.553-0.179,0.835-0.393c3.37-2.565,9.703-7.097,15.559-13.813" stroke="#000000" stroke-width="0.25" g2gstroke="#312783" stroke-miterlimit="10"/>
<path stroke-linecap="round" orgstroke="#000000" orgfill="none" transform="translate(-295.5923495625341, 69.5511410735374) translate(13.523832986521029, -13.523832986521171) translate(185.48729538878888, 48.62288325725535) translate(724,-30) translate(-518.5915025634765, -83.33211865234375) translate(658.0, -6.0) translate(10.0, 10.00006103515625)" fill="none" stroke-linejoin="round" d="   M454.916,185.697c1.902-0.576,4.295,0.795,5.031,1.626c2.075,2.342,20.848,25.649,23.305,29.312   c2.456,3.662,6.845,11.811-1.021,21.555c-3.047,3.775-8.893,8.898-11.146,10.74c-10.976,8.971-23.418,17.367-35.906,24.98   c-4.802,2.928-14.446,8.714-19.318,11.523c-22.025,12.701-45.753,22.073-62.741,27.318c-7.271,2.246-12.576,1.755-16.195,0.031" stroke="#000000" stroke-width="0.25" g2gstroke="#312783" stroke-miterlimit="10"/>
<path stroke-linecap="round" orgstroke="#000000" orgfill="none" transform="translate(-295.5923495625341, 69.5511410735374) translate(13.523832986521029, -13.523832986521171) translate(185.48729538878888, 48.62288325725535) translate(724,-30) translate(-518.5915025634765, -83.33211865234375) translate(658.0, -6.0) translate(10.0, 10.00006103515625)" fill="none" stroke-linejoin="round" d="   M454.594,185.968c1.019-0.296,3.803,0.593,5.662,2.442c2.163,2.152,19.372,23.75,21.829,27.412   c2.456,3.662,6.845,11.811-1.021,21.555c-3.047,3.775-8.893,8.898-11.146,10.74c-10.976,8.971-23.418,17.367-35.906,24.98   c-4.802,2.928-14.446,8.714-19.318,11.523c-22.025,12.701-45.753,22.073-62.741,27.318c-7.506,2.318-12.745,1.766-16.38-0.098" stroke="#000000" stroke-width="0.25" g2gstroke="#312783" stroke-miterlimit="10"/>
<path stroke-linecap="round" orgstroke="#000000" orgfill="none" transform="translate(-295.5923495625341, 69.5511410735374) translate(13.523832986521029, -13.523832986521171) translate(185.48729538878888, 48.62288325725535) translate(724,-30) translate(-518.5915025634765, -83.33211865234375) translate(658.0, -6.0) translate(10.0, 10.00006103515625)" fill="none" stroke-linejoin="round" d="   M459.284,179.81c-0.216,1.455-0.942,2.963-5.298,6.682" stroke="#000000" stroke-width="0.25" g2gstroke="#312783" stroke-miterlimit="10"/>
<path stroke-linecap="round" orgstroke="#000000" orgfill="none" transform="translate(-295.5923495625341, 69.5511410735374) translate(13.523832986521029, -13.523832986521171) translate(185.48729538878888, 48.62288325725535) translate(724,-30) translate(-518.5915025634765, -83.33211865234375) translate(658.0, -6.0) translate(10.0, 10.00006103515625)" fill="none" stroke-linejoin="round" d="   M329.039,255.158c-8.027,2.618-14.584,4.047-23.424,4.095" stroke="#000000" stroke-width="0.25" g2gstroke="#312783" stroke-miterlimit="10"/>
<path stroke-linecap="round" orgstroke="#000000" orgfill="none" transform="translate(-295.5923495625341, 69.5511410735374) translate(13.523832986521029, -13.523832986521171) translate(185.48729538878888, 48.62288325725535) translate(724,-30) translate(-518.5915025634765, -83.33211865234375) translate(658.0, -6.0) translate(10.0, 10.00006103515625)" fill="none" stroke-linejoin="round" d="   M335.164,311.484c3.573,3.14,9.457,4.845,19.019,1.892c16.988-5.245,40.716-14.617,62.741-27.318   c4.872-2.81,14.517-8.596,19.318-11.523c12.488-7.613,24.931-16.01,35.906-24.98c2.254-1.842,8.1-6.965,11.146-10.74   c7.865-9.744,3.477-17.893,1.021-21.555c-2.457-3.662-21.974-27.908-24.037-30.156s-4.955-1.785-5.443-1.348" stroke="#000000" stroke-width="0.25" g2gstroke="#312783" stroke-miterlimit="10"/>
<path stroke-linecap="round" orgstroke="#000000" orgfill="none" transform="translate(-295.5923495625341, 69.5511410735374) translate(13.523832986521029, -13.523832986521171) translate(185.48729538878888, 48.62288325725535) translate(724,-30) translate(-518.5915025634765, -83.33211865234375) translate(658.0, -6.0) translate(10.0, 10.00006103515625)" fill="none" stroke-linejoin="round" d="   M441.355,303.145c2.007,0.734,3.301,3.179,3.227,6.747c-0.116,5.518-3.457,11.641-7.471,13.668   c-1.952,0.989-3.701,0.826-4.97-0.237" stroke="#000000" stroke-width="0.25" g2gstroke="#312783" stroke-miterlimit="10"/>
<path stroke-linecap="round" orgstroke="#000000" orgfill="none" transform="translate(-295.5923495625341, 69.5511410735374) translate(13.523832986521029, -13.523832986521171) translate(185.48729538878888, 48.62288325725535) translate(724,-30) translate(-518.5915025634765, -83.33211865234375) translate(658.0, -6.0) translate(10.0, 10.00006103515625)" fill="none" stroke-linejoin="round" d="   M359.655,352.1c-0.01,0.483-0.302,1.019-0.653,1.196c-0.352,0.179-0.628-0.07-0.617-0.553c0.01-0.483,0.302-1.02,0.653-1.197   S359.666,351.616,359.655,352.1z" stroke="#000000" stroke-width="0.25" g2gstroke="#312783" stroke-miterlimit="10"/>
<path stroke-linecap="round" orgstroke="#000000" orgfill="none" transform="translate(-295.5923495625341, 69.5511410735374) translate(13.523832986521029, -13.523832986521171) translate(185.48729538878888, 48.62288325725535) translate(724,-30) translate(-518.5915025634765, -83.33211865234375) translate(658.0, -6.0) translate(10.0, 10.00006103515625)" fill="none" stroke-linejoin="round" d="   M364.867,338.521c-0.01,0.483-0.302,1.019-0.653,1.196c-0.352,0.179-0.628-0.07-0.617-0.553c0.01-0.483,0.302-1.02,0.653-1.197   S364.878,338.038,364.867,338.521z" stroke="#000000" stroke-width="0.25" g2gstroke="#312783" stroke-miterlimit="10"/>
<path stroke-linecap="round" orgstroke="#000000" orgfill="none" transform="translate(-295.5923495625341, 69.5511410735374) translate(13.523832986521029, -13.523832986521171) translate(185.48729538878888, 48.62288325725535) translate(724,-30) translate(-518.5915025634765, -83.33211865234375) translate(658.0, -6.0) translate(10.0, 10.00006103515625)" fill="none" stroke-linejoin="round" d="   M361.18,382.095c-1.404-0.495-2.318-1.3-2.793-1.979l-0.112-0.174c-0.334-0.522-0.619-1.021-0.861-1.479   c-2.503-4.729-2.155-9.178-2.155-10.568s-0.353-2.361-0.771-3.086c-0.176-0.304-0.342-0.607-0.492-0.921   c-0.116-0.242-0.323-0.553-0.622-0.726l-1.87-1.099c-0.369-0.213-0.552-0.455-0.592-0.795c-0.02-0.167-0.04-0.34-0.04-0.521   c0-0.973,0-5.006-0.626-12.1c-0.476-5.385-3.275-9.849-5.36-12.328" stroke="#000000" stroke-width="0.25" g2gstroke="#312783" stroke-miterlimit="10"/>
<path stroke-linecap="round" orgstroke="#000000" orgfill="none" transform="translate(-295.5923495625341, 69.5511410735374) translate(13.523832986521029, -13.523832986521171) translate(185.48729538878888, 48.62288325725535) translate(724,-30) translate(-518.5915025634765, -83.33211865234375) translate(658.0, -6.0) translate(10.0, 10.00006103515625)" fill="none" stroke-linejoin="round" d="   M366.99,340.59c0.514,0.195,1.015,0.512,1.441,1.021c1.291,1.542,4.076,5.738,4.67,6.87c0.423,0.806,0.851,1.857-0.774,3.066   s-7.613,3.694-8.654,4.152c-1.013,0.445-1.66,0.36-1.937-0.445l-0.215-0.742" stroke="#000000" stroke-width="0.25" g2gstroke="#312783" stroke-miterlimit="10"/>
<path stroke-linecap="round" orgstroke="#000000" orgfill="none" transform="translate(-295.5923495625341, 69.5511410735374) translate(13.523832986521029, -13.523832986521171) translate(185.48729538878888, 48.62288325725535) translate(724,-30) translate(-518.5915025634765, -83.33211865234375) translate(658.0, -6.0) translate(10.0, 10.00006103515625)" fill="none" stroke-linejoin="round" d="   M363.271,340.113c-0.491-0.23-0.873-0.648-1.308-1.138c-0.424-0.478-0.858-0.853-1.431-0.997" stroke="#000000" stroke-width="0.25" g2gstroke="#312783" stroke-miterlimit="10"/>
<path stroke-linecap="round" orgstroke="#000000" orgfill="none" transform="translate(-295.5923495625341, 69.5511410735374) translate(13.523832986521029, -13.523832986521171) translate(185.48729538878888, 48.62288325725535) translate(724,-30) translate(-518.5915025634765, -83.33211865234375) translate(658.0, -6.0) translate(10.0, 10.00006103515625)" fill="none" stroke-linejoin="round" d="M372.07598876953125 349.81298828125L373.2860107421875 350.5119934082031" stroke="#000000" stroke-width="0.25" g2gstroke="#312783" stroke-miterlimit="10"/>
<path stroke-linecap="round" orgstroke="#000000" orgfill="none" transform="translate(-295.5923495625341, 69.5511410735374) translate(13.523832986521029, -13.523832986521171) translate(185.48729538878888, 48.62288325725535) translate(724,-30) translate(-518.5915025634765, -83.33211865234375) translate(658.0, -6.0) translate(10.0, 10.00006103515625)" fill="none" stroke-linejoin="round" d="   M496.188,273.956c-0.01,0.483-0.302,1.019-0.653,1.196c-0.352,0.179-0.628-0.07-0.617-0.553c0.01-0.483,0.302-1.02,0.653-1.197   S496.198,273.473,496.188,273.956z" stroke="#000000" stroke-width="0.25" g2gstroke="#312783" stroke-miterlimit="10"/>
<path stroke-linecap="round" orgstroke="#000000" orgfill="none" transform="translate(-295.5923495625341, 69.5511410735374) translate(13.523832986521029, -13.523832986521171) translate(185.48729538878888, 48.62288325725535) translate(724,-30) translate(-518.5915025634765, -83.33211865234375) translate(658.0, -6.0) translate(10.0, 10.00006103515625)" fill="none" stroke-linejoin="round" d="M492.73199462890625 278.4590148925781L493.9419860839844 279.1579895019531" stroke="#000000" stroke-width="0.25" g2gstroke="#312783" stroke-miterlimit="10"/>
<path stroke-linecap="round" orgstroke="#000000" orgfill="none" transform="translate(-295.5923495625341, 69.5511410735374) translate(13.523832986521029, -13.523832986521171) translate(185.48729538878888, 48.62288325725535) translate(724,-30) translate(-518.5915025634765, -83.33211865234375) translate(658.0, -6.0) translate(10.0, 10.00006103515625)" fill="none" stroke-linejoin="round" d="   M501.072,279.037c-0.131-0.391-0.205-0.439-0.443-0.576l-1.65-0.969c-0.656-0.379-0.916-0.76-0.942-1.317   c-0.011-0.227-0.026-0.558-0.007-1.085c0.027-0.744,1.453-11.221,0.705-18.045c-0.179-1.636-0.807-4.32-1.466-6.688   c-0.06-0.214-0.089-0.328,0.029-0.598c1.751-3.994,3.171-7.709,3.848-10.505c1.01-4.17,0.972-6.698,0.705-9.044   c-0.027-0.24-0.101-0.342-0.289-0.553c-0.233-0.26-4.325-4.565-5.822-6.083c-0.14-0.142-0.249-0.25-0.509-0.355l-0.809-0.466   c-0.216-0.125-0.165-0.066-0.319-0.228c-1.847-1.929-28.138-34.353-34.578-42.416c-0.24-0.301-0.219-0.435-0.197-0.65   c0.031-0.314,0.055-0.634,0.095-0.98c0.17-1.469-0.798-2.854-2.188-4.74s-11.339-10.656-15.382-13.686   c-2.813-2.107-6.713-1.891-7.549-1.859c-0.834,0.031-1.119,0.307-1.305,0.631c-0.186,0.322-0.122,0.41-0.622,0.586   c-0.945,0.33-17.271,5.557-64.092,32.443c-45.567,26.167-56.858,37.253-58.759,39.483c-0.135,0.158-0.207,0.13-0.353,0.053   c-0.147-0.078-0.295-0.159-0.443-0.239c-0.175-0.095-0.332,0.026-0.409,0.097c-0.574,0.524-2.053,2.225-3.359,4.88   c-2.111,4.288-1.472,14.47-0.554,22.837c0.026,0.24,0.146,0.291,0.349,0.291c0.21,0,0.418,0.002,0.625,0   c0.234-0.003,0.37,0.047,0.394,0.25c0.012,0.102,0.023,0.203,0.035,0.304c1.02,8.621,9.041,51.039,9.227,55.721   c0.06,1.513-0.025,2.799-0.187,3.95c-0.035,0.252-0.054,0.346-0.349,0.555l-0.632,0.365c-0.295,0.169-0.321,0.352-0.362,0.562   c-0.401,2.057-1.054,3.708-1.687,5.537c-1.043,3.012-3.639,5.585-4.45,6.421c0.817,0.008,1.608,0.096,2.342,0.276   c2.514,0.619,6.93,2.734,16.851,3.57c3.45,0.29,10.042,0.013,17.275-0.38c0.216-0.012,0.418,0.041,0.585,0.267   c1.927,2.603,4.159,6.609,4.577,11.343c0.626,7.094,0.649,12.161,0.649,13.134c0,0.182,0.021,0.354,0.04,0.521   c0.04,0.34,0.223,0.582,0.592,0.795l1.87,1.099c0.299,0.173,0.506,0.483,0.622,0.726c0.15,0.313,0.316,0.617,0.492,0.921   c0.419,0.725,0.771,1.695,0.771,3.086s-0.371,4.806,2.132,9.534c0.242,0.457,0.527,0.956,0.861,1.479l0.112,0.174   c0.238,0.341,0.588,0.712,1.054,1.062c0.404,0.303,2.297,1.299,2.882,1.531l0.102,0.038c1.121,0.396,2.553,0.595,4.322,0.379   c3.987-0.486,6.108-1.139,7.738-1.699c20.028-6.764,44.738-19.975,64.41-31.334c18.762-10.83,38.326-23.604,53.228-37.934   c4.054-3.898,6.864-8.924,7.885-13.605c1.02-4.682,1.688-9.117,1.98-12.377c0.228-1.804,0.53-3.483,0.573-3.957   c0.079-0.869,0.086-1.49-0.053-1.941C501.203,279.428,501.135,279.224,501.072,279.037z M371.165,350.764   c-1.625,1.209-7.613,3.694-8.654,4.152c-0.104,0.045-0.204,0.08-0.3,0.118c-0.3,0.118-0.475,0.22-0.586-0.159   c-0.244-0.83-0.566-2.182-0.911-3.013c-0.567-1.366-2.208-1.054-2.916-0.929s-1.584,0.208-1.834-1.061s-1.453-7.248-2.016-8.747   c-0.491-1.311,0.346-1.745,0.766-1.9c0.928-0.343,3.459-1,4.674-1.25c0.345-0.07,0.65-0.098,0.919-0.043   c0.227,0.046,0.346,0.091,0.495,0.26c0.362,0.409,0.68,0.783,1.072,1.009c0.269,0.154,1.264,0.842,1.264,0.842l0.134,0.07   c0.262,0.122,0.554,0.191,0.901,0.189c0.619-0.004,1.619-0.122,2.58,0.206c0.237,0.081,0.458,0.245,0.578,0.393   c1.307,1.604,4.024,5.682,4.608,6.796C372.362,348.503,372.79,349.555,371.165,350.764z M436.158,322.997   c-1.446,0.733-2.782,0.833-3.893,0.403l-0.124-0.078c-1.34-1.123-2.144-3.25-2.08-6.085c0.113-5.52,3.455-11.643,7.471-13.67   c1.416-0.716,2.727-0.825,3.823-0.423l0.118,0.045c1.381,1.106,2.215,3.256,2.155,6.14   C443.513,314.847,440.172,320.97,436.158,322.997z M480.001,236.753c-3.047,3.775-8.893,8.898-11.146,10.74   c-10.976,8.971-23.418,17.367-35.906,24.98c-4.802,2.928-14.446,8.714-19.318,11.523c-22.025,12.701-45.753,22.073-62.741,27.318   c-6.8,2.101-11.738,1.845-15.312,0.394c-0.101-0.041-0.318-0.153-0.413-0.225c-1.556-1.164-2.886-3.325-3.688-5.128   c-1.825-4.105-9.179-33.563-10.569-40.238c-1.391-6.674,2.064-9.152,7.535-10.766l0.597-0.194c2.408-0.784,4.949-1.676,7.723-2.669   c12.423-4.451,39.743-18.037,57.12-28.17c17.378-10.133,51.54-30.797,58.68-36.637c0.514-0.421,0.987-0.817,1.425-1.191   c0,0,0.365-0.18,0.486-0.197c1.71-0.25,4.433,1.262,5.424,2.327c2.079,2.232,18.668,22.915,21.125,26.577   C483.478,218.86,487.866,227.009,480.001,236.753z M494.999,269.115c0.001,0.698-0.437,1.63-0.991,2.213   c-0.97,1.021-1.051,1.456-1.045,2.881c0.002,0.485,0.021,2.504-0.005,3.014c-0.03,0.593-0.128,1.322-0.637,1.798   c-1.909,1.783-4.936,4.13-7.179,5.804c-0.381,0.284-0.45,0.217-0.436-0.427c0.045-1.953,0.381-7.5,0.547-9.469   c0.099-1.172,0.353-2.102,0.748-2.787c0.395-0.686,2.184-2.246,2.186-3.175c0.001-0.561,0.017-1.048,0.017-1.563   c0-0.249,0.077-0.476,0.251-0.758c0.759-1.232,1.54-2.557,2.32-3.942c0.174-0.309,0.303-0.475,0.567-0.655   c1.349-0.921,2.902-1.985,3.572-2.372c0.522-0.302,0.745-0.186,0.745,0.333C495.66,262.146,494.998,267.857,494.999,269.115z" stroke="#000000" stroke-width="0.25" g2gstroke="#312783" stroke-miterlimit="10"/>
</g>
</g>
</g>
</g>
</g>
</g></svg>