<svg xmlns="http://www.w3.org/2000/svg" xmlns:xlink="http://www.w3.org/1999/xlink" xmlns:x="http://ns.adobe.com/Extensibility/1.0/" xmlns:graph="http://ns.adobe.com/Graphs/1.0/" xmlns:i="http://ns.adobe.com/AdobeIllustrator/10.0/" xmlns:etg="http://www.eurotaxglass.com/etg/evd/" etg:dataTimestamp="1539068912893" contentScriptType="text/ecmascript" zoomAndPan="magnify" contentStyleType="text/css" id="Layer_1" enable-background="new 0 0 1841.891 1595.279" version="1.1" xml:space="preserve" width="1841.891px" preserveAspectRatio="xMidYMid meet" viewBox="0 0 1841.891 1595.279" height="1595.279px" x="0px" y="0px"><g xmlns="http://www.w3.org/2000/svg" objecttype="PS" tooltip="#UNDEFINED" id="110">
<g onmouseover="notifyOwner(AGV_OBJECT_MOUSEOVER, '110(PS)')" transform="translate(-9.433746356535266E-6, 3.356933575560106E-7) translate(-35.71980609130861, -13.200809143066408) translate(44.708733184814434, 94.79042849731445) matrix(0.6117410612267968 0 0 0.6117410612267968 0.2921243287958965 0.477310974878083) translate(-92,-34) " onclick="clickZoom(evt); notifyOwner(AGV_OBJECT_MOUSECLICK, '110(PS)')" onmouseout="notifyOwner(AGV_OBJECT_MOUSEOUT, '110(PS)')" tooltip="#UNDEFINED" id="110-Graphic" objecttype="GRAPHIC">
<g zvalue="111">
<g zvalue="112">
<g zvalue="57">
<g>
<path orgstroke="#000000" orgfill="#ffffff" transform="translate(1.6666666666666288, 45.0) translate(5.0, 141.66666666666663) translate(-1.1659935022249215, -6.995961013349529) translate(2.331987004449843, 3.4979805066747645) translate(-6.995961013349529, 0.0) translate(-318.31622610740294, -206.38084989381065) translate(279.8384405339806, 277.50645352953075) translate(-65,-56) translate(-135.7864793701172, -15.95862927246094) translate(284.61321814083357, -34.52408859104787) translate(-23.810883895874042, -7.293701173693989E-6) translate(-637.1092790527343, 18.13041815948486) translate(-1.3754174336287406, -0.8252504601772443) translate(4.951502761063466, -2.2006678938060986) translate(5.7767532212407104, -10.72825598230429) translate(-8.82777467181677, 73.14441870934016) translate(21.25, 0.0) translate(670.0, -93.75) translate(12.5, 12.50006103515625)" fill="#ffffff" g2gfill="#ECC35D" d="M222.225,556.673   c-0.023-0.08-0.077-0.223-0.113-0.293c-1.705-3.27-4.993-9.271-7.084-12.938c-0.866-1.521-2.348-3.479-3.246-4.545   c-7.01-8.328-16.712-7-20.7-6.803c-0.728,0.035-1.434,0.072-2.132,0.107c-3.109,0.152-5.34,0.25-8.702,0.352   c-8.868,0.266-19.223,0.029-27.632-0.588c-0.506-0.037-0.844,0.037-1.219,0.254l-1.433,0.936l-0.097,0.084   c-0.17,0.18-0.287,0.467-0.465,0.896l-7.56,21.688c-0.418,1.268-0.677,2.236,1.059,2.607c0.133,0.025,0.263,0.049,0.396,0.074   c32.843,6.281,66.697,3.23,74.882,2.271c0.562-0.066,1.015-0.242,1.372-0.484l0.219-0.168c0,0,1.53-1.061,1.976-1.49   C222.33,558.068,222.383,557.208,222.225,556.673z M204.116,537.505c-4.129,0.313-6.093,0.479-9.768,0.674   c-6.998,0.377-13.4,0.52-20.064,0.348c-0.376-0.012-0.468-0.041-0.337-0.449l0.668-2.34c0.073-0.328,0.259-0.393,0.479-0.393   c6.07,0.033,16.985-0.891,23.047-0.973c0.794-0.01,1.848,0.213,2.206,0.324c1.325,0.414,2.9,1.336,4.358,2.195   C205.126,537.14,205.342,537.414,204.116,537.505z" stroke="#000000" outline-element="true" stroke-width="0.5" g2gstroke="#312783" stroke-miterlimit="10"/>
<path stroke-linecap="round" orgstroke="#000000" orgfill="none" transform="translate(1.6666666666666288, 45.0) translate(5.0, 141.66666666666663) translate(-1.1659935022249215, -6.995961013349529) translate(2.331987004449843, 3.4979805066747645) translate(-6.995961013349529, 0.0) translate(-318.31622610740294, -206.38084989381065) translate(279.8384405339806, 277.50645352953075) translate(-65,-56) translate(-135.7864793701172, -15.95862927246094) translate(284.61321814083357, -34.52408859104787) translate(-23.810883895874042, -7.293701173693989E-6) translate(-637.1092790527343, 18.13041815948486) translate(-1.3754174336287406, -0.8252504601772443) translate(4.951502761063466, -2.2006678938060986) translate(5.7767532212407104, -10.72825598230429) translate(-8.82777467181677, 73.14441870934016) translate(21.25, 0.0) translate(670.0, -93.75) translate(12.5, 12.50006103515625)" fill="none" stroke-linejoin="round" d="   M157.301,537.246l0.466-1.367c0.339-0.805,0.734-0.801,1.192-0.766c5.036,0.381,8.663,0.258,14.557,0.236" stroke="#000000" stroke-width="0.25" g2gstroke="#312783" stroke-miterlimit="10"/>
<path stroke-linecap="round" orgstroke="#000000" orgfill="none" transform="translate(1.6666666666666288, 45.0) translate(5.0, 141.66666666666663) translate(-1.1659935022249215, -6.995961013349529) translate(2.331987004449843, 3.4979805066747645) translate(-6.995961013349529, 0.0) translate(-318.31622610740294, -206.38084989381065) translate(279.8384405339806, 277.50645352953075) translate(-65,-56) translate(-135.7864793701172, -15.95862927246094) translate(284.61321814083357, -34.52408859104787) translate(-23.810883895874042, -7.293701173693989E-6) translate(-637.1092790527343, 18.13041815948486) translate(-1.3754174336287406, -0.8252504601772443) translate(4.951502761063466, -2.2006678938060986) translate(5.7767532212407104, -10.72825598230429) translate(-8.82777467181677, 73.14441870934016) translate(21.25, 0.0) translate(670.0, -93.75) translate(12.5, 12.50006103515625)" fill="none" stroke-linejoin="round" d="M155.6009979248047 542.2379760742188L156.38699340820312 539.9290161132812" stroke="#000000" stroke-width="0.25" g2gstroke="#312783" stroke-miterlimit="10"/>
<path stroke-linecap="round" orgstroke="#000000" orgfill="none" transform="translate(1.6666666666666288, 45.0) translate(5.0, 141.66666666666663) translate(-1.1659935022249215, -6.995961013349529) translate(2.331987004449843, 3.4979805066747645) translate(-6.995961013349529, 0.0) translate(-318.31622610740294, -206.38084989381065) translate(279.8384405339806, 277.50645352953075) translate(-65,-56) translate(-135.7864793701172, -15.95862927246094) translate(284.61321814083357, -34.52408859104787) translate(-23.810883895874042, -7.293701173693989E-6) translate(-637.1092790527343, 18.13041815948486) translate(-1.3754174336287406, -0.8252504601772443) translate(4.951502761063466, -2.2006678938060986) translate(5.7767532212407104, -10.72825598230429) translate(-8.82777467181677, 73.14441870934016) translate(21.25, 0.0) translate(670.0, -93.75) translate(12.5, 12.50006103515625)" fill="none" stroke-linejoin="round" d="M153.7429962158203 547.6909790039062L154.65499877929688 545.0130004882812" stroke="#000000" stroke-width="0.25" g2gstroke="#312783" stroke-miterlimit="10"/>
<path stroke-linecap="round" orgstroke="#000000" orgfill="none" transform="translate(1.6666666666666288, 45.0) translate(5.0, 141.66666666666663) translate(-1.1659935022249215, -6.995961013349529) translate(2.331987004449843, 3.4979805066747645) translate(-6.995961013349529, 0.0) translate(-318.31622610740294, -206.38084989381065) translate(279.8384405339806, 277.50645352953075) translate(-65,-56) translate(-135.7864793701172, -15.95862927246094) translate(284.61321814083357, -34.52408859104787) translate(-23.810883895874042, -7.293701173693989E-6) translate(-637.1092790527343, 18.13041815948486) translate(-1.3754174336287406, -0.8252504601772443) translate(4.951502761063466, -2.2006678938060986) translate(5.7767532212407104, -10.72825598230429) translate(-8.82777467181677, 73.14441870934016) translate(21.25, 0.0) translate(670.0, -93.75) translate(12.5, 12.50006103515625)" fill="none" stroke-linejoin="round" d="M151.875 553.1790161132812L152.75999450683594 550.5800170898438" stroke="#000000" stroke-width="0.25" g2gstroke="#312783" stroke-miterlimit="10"/>
<path stroke-linecap="round" orgstroke="#000000" orgfill="none" transform="translate(1.6666666666666288, 45.0) translate(5.0, 141.66666666666663) translate(-1.1659935022249215, -6.995961013349529) translate(2.331987004449843, 3.4979805066747645) translate(-6.995961013349529, 0.0) translate(-318.31622610740294, -206.38084989381065) translate(279.8384405339806, 277.50645352953075) translate(-65,-56) translate(-135.7864793701172, -15.95862927246094) translate(284.61321814083357, -34.52408859104787) translate(-23.810883895874042, -7.293701173693989E-6) translate(-637.1092790527343, 18.13041815948486) translate(-1.3754174336287406, -0.8252504601772443) translate(4.951502761063466, -2.2006678938060986) translate(5.7767532212407104, -10.72825598230429) translate(-8.82777467181677, 73.14441870934016) translate(21.25, 0.0) translate(670.0, -93.75) translate(12.5, 12.50006103515625)" fill="none" stroke-linejoin="round" d="   M218.987,557.009c-0.273,1.143-0.868,1.645-2.29,1.813c-0.448,0.053-31.426,4.936-65.152-0.939   c-1.015-0.178-1.181-0.324-0.788-1.422l0.16-0.471" stroke="#000000" stroke-width="0.25" g2gstroke="#312783" stroke-miterlimit="10"/>
<path stroke-linecap="round" orgstroke="#000000" orgfill="none" transform="translate(1.6666666666666288, 45.0) translate(5.0, 141.66666666666663) translate(-1.1659935022249215, -6.995961013349529) translate(2.331987004449843, 3.4979805066747645) translate(-6.995961013349529, 0.0) translate(-318.31622610740294, -206.38084989381065) translate(279.8384405339806, 277.50645352953075) translate(-65,-56) translate(-135.7864793701172, -15.95862927246094) translate(284.61321814083357, -34.52408859104787) translate(-23.810883895874042, -7.293701173693989E-6) translate(-637.1092790527343, 18.13041815948486) translate(-1.3754174336287406, -0.8252504601772443) translate(4.951502761063466, -2.2006678938060986) translate(5.7767532212407104, -10.72825598230429) translate(-8.82777467181677, 73.14441870934016) translate(21.25, 0.0) translate(670.0, -93.75) translate(12.5, 12.50006103515625)" fill="none" stroke-linejoin="round" d="   M219.049,556.855c-25.566,3.441-56.423,1.385-72.191-1.537c-0.271-0.051-0.464-0.291-0.425-0.564   c0.04-0.273,0.298-0.463,0.565-0.426c21.853,3.119,43.916,4.27,71.487,1.467" stroke="#000000" stroke-width="0.25" g2gstroke="#312783" stroke-miterlimit="10"/>
<path stroke-linecap="round" orgstroke="#000000" orgfill="none" transform="translate(1.6666666666666288, 45.0) translate(5.0, 141.66666666666663) translate(-1.1659935022249215, -6.995961013349529) translate(2.331987004449843, 3.4979805066747645) translate(-6.995961013349529, 0.0) translate(-318.31622610740294, -206.38084989381065) translate(279.8384405339806, 277.50645352953075) translate(-65,-56) translate(-135.7864793701172, -15.95862927246094) translate(284.61321814083357, -34.52408859104787) translate(-23.810883895874042, -7.293701173693989E-6) translate(-637.1092790527343, 18.13041815948486) translate(-1.3754174336287406, -0.8252504601772443) translate(4.951502761063466, -2.2006678938060986) translate(5.7767532212407104, -10.72825598230429) translate(-8.82777467181677, 73.14441870934016) translate(21.25, 0.0) translate(670.0, -93.75) translate(12.5, 12.50006103515625)" fill="none" stroke-linejoin="round" d="   M216.324,551.755c-19.886,2.604-46.502,1.863-67.652-1.836c-0.272-0.047-0.464-0.291-0.425-0.564   c0.04-0.271,0.298-0.463,0.565-0.426c21.81,3.111,40.184,4.729,66.95,1.783" stroke="#000000" stroke-width="0.25" g2gstroke="#312783" stroke-miterlimit="10"/>
<path stroke-linecap="round" orgstroke="#000000" orgfill="none" transform="translate(1.6666666666666288, 45.0) translate(5.0, 141.66666666666663) translate(-1.1659935022249215, -6.995961013349529) translate(2.331987004449843, 3.4979805066747645) translate(-6.995961013349529, 0.0) translate(-318.31622610740294, -206.38084989381065) translate(279.8384405339806, 277.50645352953075) translate(-65,-56) translate(-135.7864793701172, -15.95862927246094) translate(284.61321814083357, -34.52408859104787) translate(-23.810883895874042, -7.293701173693989E-6) translate(-637.1092790527343, 18.13041815948486) translate(-1.3754174336287406, -0.8252504601772443) translate(4.951502761063466, -2.2006678938060986) translate(5.7767532212407104, -10.72825598230429) translate(-8.82777467181677, 73.14441870934016) translate(21.25, 0.0) translate(670.0, -93.75) translate(12.5, 12.50006103515625)" fill="none" stroke-linejoin="round" d="   M212.922,545.529c-21.95,2.422-46.951,1.518-62.265-1.154c-0.271-0.047-0.464-0.291-0.425-0.564   c0.04-0.271,0.298-0.463,0.565-0.426c21.75,3.105,40.509,3.143,61.452,0.982" stroke="#000000" stroke-width="0.25" g2gstroke="#312783" stroke-miterlimit="10"/>
<path stroke-linecap="round" orgstroke="#000000" orgfill="none" transform="translate(1.6666666666666288, 45.0) translate(5.0, 141.66666666666663) translate(-1.1659935022249215, -6.995961013349529) translate(2.331987004449843, 3.4979805066747645) translate(-6.995961013349529, 0.0) translate(-318.31622610740294, -206.38084989381065) translate(279.8384405339806, 277.50645352953075) translate(-65,-56) translate(-135.7864793701172, -15.95862927246094) translate(284.61321814083357, -34.52408859104787) translate(-23.810883895874042, -7.293701173693989E-6) translate(-637.1092790527343, 18.13041815948486) translate(-1.3754174336287406, -0.8252504601772443) translate(4.951502761063466, -2.2006678938060986) translate(5.7767532212407104, -10.72825598230429) translate(-8.82777467181677, 73.14441870934016) translate(21.25, 0.0) translate(670.0, -93.75) translate(12.5, 12.50006103515625)" fill="none" stroke-linejoin="round" d="   M208.807,540.076c-21.908,2.469-42.901,1.195-56.023-0.678c-0.273-0.039-0.464-0.291-0.425-0.564   c0.04-0.273,0.298-0.463,0.565-0.426c19.361,2.764,37.097,1.998,54.842,0.309" stroke="#000000" stroke-width="0.25" g2gstroke="#312783" stroke-miterlimit="10"/>
<path stroke-linecap="round" orgstroke="#000000" orgfill="none" transform="translate(1.6666666666666288, 45.0) translate(5.0, 141.66666666666663) translate(-1.1659935022249215, -6.995961013349529) translate(2.331987004449843, 3.4979805066747645) translate(-6.995961013349529, 0.0) translate(-318.31622610740294, -206.38084989381065) translate(279.8384405339806, 277.50645352953075) translate(-65,-56) translate(-135.7864793701172, -15.95862927246094) translate(284.61321814083357, -34.52408859104787) translate(-23.810883895874042, -7.293701173693989E-6) translate(-637.1092790527343, 18.13041815948486) translate(-1.3754174336287406, -0.8252504601772443) translate(4.951502761063466, -2.2006678938060986) translate(5.7767532212407104, -10.72825598230429) translate(-8.82777467181677, 73.14441870934016) translate(21.25, 0.0) translate(670.0, -93.75) translate(12.5, 12.50006103515625)" fill="none" stroke-linejoin="round" d="   M142.383,557.287c0,0,5.313,0.865,8.221,0.174" stroke="#000000" stroke-width="0.25" g2gstroke="#312783" stroke-miterlimit="10"/>
<path stroke-linecap="round" orgstroke="#000000" orgfill="none" transform="translate(1.6666666666666288, 45.0) translate(5.0, 141.66666666666663) translate(-1.1659935022249215, -6.995961013349529) translate(2.331987004449843, 3.4979805066747645) translate(-6.995961013349529, 0.0) translate(-318.31622610740294, -206.38084989381065) translate(279.8384405339806, 277.50645352953075) translate(-65,-56) translate(-135.7864793701172, -15.95862927246094) translate(284.61321814083357, -34.52408859104787) translate(-23.810883895874042, -7.293701173693989E-6) translate(-637.1092790527343, 18.13041815948486) translate(-1.3754174336287406, -0.8252504601772443) translate(4.951502761063466, -2.2006678938060986) translate(5.7767532212407104, -10.72825598230429) translate(-8.82777467181677, 73.14441870934016) translate(21.25, 0.0) translate(670.0, -93.75) translate(12.5, 12.50006103515625)" fill="none" stroke-linejoin="round" d="   M146.746,554.365l4.325-1.088c0.447-0.119,0.788-0.111,1.063-0.074c20.398,2.75,39.792,2.766,65.138,0.318" stroke="#000000" stroke-width="0.25" g2gstroke="#312783" stroke-miterlimit="10"/>
<path stroke-linecap="round" orgstroke="#000000" orgfill="none" transform="translate(1.6666666666666288, 45.0) translate(5.0, 141.66666666666663) translate(-1.1659935022249215, -6.995961013349529) translate(2.331987004449843, 3.4979805066747645) translate(-6.995961013349529, 0.0) translate(-318.31622610740294, -206.38084989381065) translate(279.8384405339806, 277.50645352953075) translate(-65,-56) translate(-135.7864793701172, -15.95862927246094) translate(284.61321814083357, -34.52408859104787) translate(-23.810883895874042, -7.293701173693989E-6) translate(-637.1092790527343, 18.13041815948486) translate(-1.3754174336287406, -0.8252504601772443) translate(4.951502761063466, -2.2006678938060986) translate(5.7767532212407104, -10.72825598230429) translate(-8.82777467181677, 73.14441870934016) translate(21.25, 0.0) translate(670.0, -93.75) translate(12.5, 12.50006103515625)" fill="none" stroke-linejoin="round" d="   M148.604,548.947l4.578-1.197c0.453-0.09,0.57-0.063,0.976-0.008c19.439,2.67,37.256,2.869,60.31,0.584" stroke="#000000" stroke-width="0.25" g2gstroke="#312783" stroke-miterlimit="10"/>
<path stroke-linecap="round" orgstroke="#000000" orgfill="none" transform="translate(1.6666666666666288, 45.0) translate(5.0, 141.66666666666663) translate(-1.1659935022249215, -6.995961013349529) translate(2.331987004449843, 3.4979805066747645) translate(-6.995961013349529, 0.0) translate(-318.31622610740294, -206.38084989381065) translate(279.8384405339806, 277.50645352953075) translate(-65,-56) translate(-135.7864793701172, -15.95862927246094) translate(284.61321814083357, -34.52408859104787) translate(-23.810883895874042, -7.293701173693989E-6) translate(-637.1092790527343, 18.13041815948486) translate(-1.3754174336287406, -0.8252504601772443) translate(4.951502761063466, -2.2006678938060986) translate(5.7767532212407104, -10.72825598230429) translate(-8.82777467181677, 73.14441870934016) translate(21.25, 0.0) translate(670.0, -93.75) translate(12.5, 12.50006103515625)" fill="none" stroke-linejoin="round" d="   M150.561,543.414l4.419-1.145c0.396-0.086,0.619-0.031,0.836-0.002c18.308,2.473,33.519,1.74,54.837-0.072" stroke="#000000" stroke-width="0.25" g2gstroke="#312783" stroke-miterlimit="10"/>
<path stroke-linecap="round" orgstroke="#000000" orgfill="none" transform="translate(1.6666666666666288, 45.0) translate(5.0, 141.66666666666663) translate(-1.1659935022249215, -6.995961013349529) translate(2.331987004449843, 3.4979805066747645) translate(-6.995961013349529, 0.0) translate(-318.31622610740294, -206.38084989381065) translate(279.8384405339806, 277.50645352953075) translate(-65,-56) translate(-135.7864793701172, -15.95862927246094) translate(284.61321814083357, -34.52408859104787) translate(-23.810883895874042, -7.293701173693989E-6) translate(-637.1092790527343, 18.13041815948486) translate(-1.3754174336287406, -0.8252504601772443) translate(4.951502761063466, -2.2006678938060986) translate(5.7767532212407104, -10.72825598230429) translate(-8.82777467181677, 73.14441870934016) translate(21.25, 0.0) translate(670.0, -93.75) translate(12.5, 12.50006103515625)" fill="none" stroke-linejoin="round" d="   M201.818,534.632c3.563,1.594,5.133,3.168,6.626,4.813c1.946,2.143,3.473,4.318,4.192,5.582c2.067,3.627,6.538,12.078,6.819,12.602   c0.407,0.756-0.17,2.131-1.376,2.305c-2.194,0.316-14.157,1.566-30.271,1.566c-13.05,0-28.828-0.857-44.352-3.826l-0.199-0.039   l-0.179-0.033c-0.457-0.098-0.637-0.225-0.671-0.285c-0.104-0.18,0.13-0.887,0.237-1.213c0,0,7.099-20.605,7.409-21.414   c0.207-0.539,0.576-0.9,1.526-0.826c6.354,0.49,13.79,0.773,20.95,0.773c2.641,0,5.243-0.059,7.741-0.111   C190.703,534.304,197.968,532.89,201.818,534.632z" stroke="#000000" stroke-width="0.25" g2gstroke="#312783" stroke-miterlimit="10"/>
<path stroke-linecap="round" orgstroke="#000000" orgfill="none" transform="translate(1.6666666666666288, 45.0) translate(5.0, 141.66666666666663) translate(-1.1659935022249215, -6.995961013349529) translate(2.331987004449843, 3.4979805066747645) translate(-6.995961013349529, 0.0) translate(-318.31622610740294, -206.38084989381065) translate(279.8384405339806, 277.50645352953075) translate(-65,-56) translate(-135.7864793701172, -15.95862927246094) translate(284.61321814083357, -34.52408859104787) translate(-23.810883895874042, -7.293701173693989E-6) translate(-637.1092790527343, 18.13041815948486) translate(-1.3754174336287406, -0.8252504601772443) translate(4.951502761063466, -2.2006678938060986) translate(5.7767532212407104, -10.72825598230429) translate(-8.82777467181677, 73.14441870934016) translate(21.25, 0.0) translate(670.0, -93.75) translate(12.5, 12.50006103515625)" fill="none" stroke-linejoin="round" d="   M173.735,534.632l-1.373,4.447c-0.118,0.396,0.005,0.443,0.272,0.451c10.658,0.311,20.547-0.172,33.138-1.133   c0.288-0.023,1.036-0.098,1.55-0.133" stroke="#000000" stroke-width="0.25" g2gstroke="#312783" stroke-miterlimit="10"/>
<path stroke-linecap="round" orgstroke="#000000" orgfill="none" transform="translate(1.6666666666666288, 45.0) translate(5.0, 141.66666666666663) translate(-1.1659935022249215, -6.995961013349529) translate(2.331987004449843, 3.4979805066747645) translate(-6.995961013349529, 0.0) translate(-318.31622610740294, -206.38084989381065) translate(279.8384405339806, 277.50645352953075) translate(-65,-56) translate(-135.7864793701172, -15.95862927246094) translate(284.61321814083357, -34.52408859104787) translate(-23.810883895874042, -7.293701173693989E-6) translate(-637.1092790527343, 18.13041815948486) translate(-1.3754174336287406, -0.8252504601772443) translate(4.951502761063466, -2.2006678938060986) translate(5.7767532212407104, -10.72825598230429) translate(-8.82777467181677, 73.14441870934016) translate(21.25, 0.0) translate(670.0, -93.75) translate(12.5, 12.50006103515625)" fill="none" stroke-linejoin="round" d="   M204.991,537.062c0.272,0.16,0.54,0.316,0.8,0.469c0.439,0.254,0.209,0.322-0.105,0.348c-4.129,0.309-8.494,0.656-12.169,0.854   c-6.998,0.377-13.4,0.518-20.064,0.346c-0.376-0.01-0.468-0.041-0.337-0.449l0.863-2.963c0.073-0.33,0.243-0.297,0.463-0.313   c0.217-0.002,0.435-0.004,0.652-0.006" stroke="#000000" stroke-width="0.25" g2gstroke="#312783" stroke-miterlimit="10"/>
<path stroke-linecap="round" orgstroke="#000000" orgfill="none" transform="translate(1.6666666666666288, 45.0) translate(5.0, 141.66666666666663) translate(-1.1659935022249215, -6.995961013349529) translate(2.331987004449843, 3.4979805066747645) translate(-6.995961013349529, 0.0) translate(-318.31622610740294, -206.38084989381065) translate(279.8384405339806, 277.50645352953075) translate(-65,-56) translate(-135.7864793701172, -15.95862927246094) translate(284.61321814083357, -34.52408859104787) translate(-23.810883895874042, -7.293701173693989E-6) translate(-637.1092790527343, 18.13041815948486) translate(-1.3754174336287406, -0.8252504601772443) translate(4.951502761063466, -2.2006678938060986) translate(5.7767532212407104, -10.72825598230429) translate(-8.82777467181677, 73.14441870934016) translate(21.25, 0.0) translate(670.0, -93.75) translate(12.5, 12.50006103515625)" fill="none" stroke-linejoin="round" d="   M219.551,560.292c0.302-0.203,0.534-0.453,0.706-0.723c0.374-0.586,0.455-1.262,0.315-1.734c-0.023-0.08-0.077-0.223-0.113-0.293   c-1.705-3.27-4.993-9.273-7.084-12.939c-0.929-1.629-2.332-3.486-3.246-4.543c-7.03-8.123-10.395-7.094-20.7-6.803   c-3.112,0.088-5.819,0.316-9.182,0.416c-9.211,0.275-20.026,0.021-28.599-0.66c-1.079-0.086-1.502-0.072-1.781,0.227" stroke="#000000" stroke-width="0.25" g2gstroke="#312783" stroke-miterlimit="10"/>
<path stroke-linecap="round" orgstroke="#000000" orgfill="none" transform="translate(1.6666666666666288, 45.0) translate(5.0, 141.66666666666663) translate(-1.1659935022249215, -6.995961013349529) translate(2.331987004449843, 3.4979805066747645) translate(-6.995961013349529, 0.0) translate(-318.31622610740294, -206.38084989381065) translate(279.8384405339806, 277.50645352953075) translate(-65,-56) translate(-135.7864793701172, -15.95862927246094) translate(284.61321814083357, -34.52408859104787) translate(-23.810883895874042, -7.293701173693989E-6) translate(-637.1092790527343, 18.13041815948486) translate(-1.3754174336287406, -0.8252504601772443) translate(4.951502761063466, -2.2006678938060986) translate(5.7767532212407104, -10.72825598230429) translate(-8.82777467181677, 73.14441870934016) translate(21.25, 0.0) translate(670.0, -93.75) translate(12.5, 12.50006103515625)" fill="none" stroke-linejoin="round" d="   M172.59,538.345c-4.648-0.188-9.485-0.527-14.789-1.049c-0.542-0.053-0.771-0.113-1.202,0.012l-3.901,1.125" stroke="#000000" stroke-width="0.25" g2gstroke="#312783" stroke-miterlimit="10"/>
<path stroke-linecap="round" orgstroke="#000000" orgfill="none" transform="translate(1.6666666666666288, 45.0) translate(5.0, 141.66666666666663) translate(-1.1659935022249215, -6.995961013349529) translate(2.331987004449843, 3.4979805066747645) translate(-6.995961013349529, 0.0) translate(-318.31622610740294, -206.38084989381065) translate(279.8384405339806, 277.50645352953075) translate(-65,-56) translate(-135.7864793701172, -15.95862927246094) translate(284.61321814083357, -34.52408859104787) translate(-23.810883895874042, -7.293701173693989E-6) translate(-637.1092790527343, 18.13041815948486) translate(-1.3754174336287406, -0.8252504601772443) translate(4.951502761063466, -2.2006678938060986) translate(5.7767532212407104, -10.72825598230429) translate(-8.82777467181677, 73.14441870934016) translate(21.25, 0.0) translate(670.0, -93.75) translate(12.5, 12.50006103515625)" fill="none" stroke-linejoin="round" d="M150.71400451660156 533.9569702148438L158.39100646972656 535.156005859375" stroke="#000000" stroke-width="0.25" g2gstroke="#312783" stroke-miterlimit="10"/>
<path stroke-linecap="round" orgstroke="#000000" orgfill="none" transform="translate(1.6666666666666288, 45.0) translate(5.0, 141.66666666666663) translate(-1.1659935022249215, -6.995961013349529) translate(2.331987004449843, 3.4979805066747645) translate(-6.995961013349529, 0.0) translate(-318.31622610740294, -206.38084989381065) translate(279.8384405339806, 277.50645352953075) translate(-65,-56) translate(-135.7864793701172, -15.95862927246094) translate(284.61321814083357, -34.52408859104787) translate(-23.810883895874042, -7.293701173693989E-6) translate(-637.1092790527343, 18.13041815948486) translate(-1.3754174336287406, -0.8252504601772443) translate(4.951502761063466, -2.2006678938060986) translate(5.7767532212407104, -10.72825598230429) translate(-8.82777467181677, 73.14441870934016) translate(21.25, 0.0) translate(670.0, -93.75) translate(12.5, 12.50006103515625)" fill="none" stroke-linejoin="round" d="M173.09100341796875 538.9959716796875L173.89100646972656 538.5349731445312" stroke="#000000" stroke-width="0.25" g2gstroke="#312783" stroke-miterlimit="10"/>
</g>
</g>
</g>
</g>
</g>
</g></svg>