<svg xmlns="http://www.w3.org/2000/svg" xmlns:xlink="http://www.w3.org/1999/xlink" xmlns:x="http://ns.adobe.com/Extensibility/1.0/" xmlns:graph="http://ns.adobe.com/Graphs/1.0/" xmlns:i="http://ns.adobe.com/AdobeIllustrator/10.0/" xmlns:etg="http://www.eurotaxglass.com/etg/evd/" etg:dataTimestamp="1539068912893" contentScriptType="text/ecmascript" zoomAndPan="magnify" contentStyleType="text/css" id="Layer_1" enable-background="new 0 0 1841.891 1595.279" version="1.1" xml:space="preserve" width="1841.891px" preserveAspectRatio="xMidYMid meet" viewBox="0 0 1841.891 1595.279" height="1595.279px" x="0px" y="0px"><g xmlns="http://www.w3.org/2000/svg" objecttype="PS" tooltip="#UNDEFINED" id="111">
<g onmouseover="notifyOwner(AGV_OBJECT_MOUSEOVER, '111(PS)')" transform="translate(-9.433746356535266E-6, 3.356933575560106E-7) translate(-35.71980609130861, -13.200809143066408) translate(44.708733184814434, 94.79042849731445) matrix(0.6117410612267968 0 0 0.6117410612267968 0.2921243287958965 0.477310974878083) translate(-92,-34) " onclick="clickZoom(evt); notifyOwner(AGV_OBJECT_MOUSECLICK, '111(PS)')" onmouseout="notifyOwner(AGV_OBJECT_MOUSEOUT, '111(PS)')" tooltip="#UNDEFINED" id="111-Graphic" objecttype="GRAPHIC">
<g zvalue="112">
<g zvalue="113">
<g zvalue="5">
<g>
<path orgstroke="#000000" orgfill="#ffffff" transform="translate(1.6666666666666288, 45.0) translate(5.0, 141.66666666666663) translate(-1.1659935022249215, -6.995961013349529) translate(2.331987004449843, 3.4979805066747645) translate(-6.995961013349529, 0.0) translate(-318.31622610740294, -206.38084989381065) translate(279.8384405339806, 277.50645352953075) translate(-65,-56) translate(-135.7864793701172, -15.95862927246094) translate(283.77116719958855, 267.7721993159322) translate(-23.810883895874042, -7.293701173693989E-6) translate(-637.1092790527343, 18.13041815948486) translate(-8.82777467181677, 73.14441870934016) translate(21.25, 0.0) translate(670.0, -93.75) translate(12.5, 12.50006103515625)" fill="#ffffff" g2gfill="#ECC35D" d="M282.646,179.293l-0.755-0.441   c-0.222-0.127-0.316-0.156-0.589-0.027c-1.247,0.59-6.707,3.182-7.183,3.455c-0.537,0.311-2.166,0.994-3.725,1.359   c-1.559,0.365-14.916,3.875-17.25,4.291c-1.725,0.309-3.334,0.16-4.51-0.256l-0.165-0.117c-1.429-1.029-4.446-3.258-5.118-3.781   c-0.75-0.582-1.73-1.379-2.445-1.793c-0.529-0.307-1.448-0.834-1.892-1.092c0,0-1.095-0.582-1.332-0.719   c-0.184-0.107-0.255-0.148-0.413,0.031c-0.292,0.332-0.522,0.57-0.674,0.695c-1.516,1.27-3.055,4.594-23.367,6.844   c-6.329,0.701-11.815,1.025-16.516,1.133l-1.087,0.021c-7.848-0.039-13.96-0.586-16.81-0.744c-0.837-0.047-1.579-0.104-2.239-0.158   c-0.613-0.049-1.01-0.084-0.467-0.398c0.193-0.113,0.276-0.342,0.276-0.611v-1.283c0-0.213-0.021-0.473-0.375-0.596   c-0.572-0.199-1.903-0.598-2.489-0.803c-0.35-0.121-0.494-0.484-0.494-0.734v-1.09c0.002-0.555-0.082-0.584-0.486-0.727   c-14.789-5.229-33.474-12.334-53.029-22.807c-0.233-0.125-0.28-0.139-0.551,0.018l-0.296,0.186c-0.159,0.1-0.245,0.158-0.362,0.238   c-0.702,0.479-1.943,1.299-2.953,1.889c0,0-0.379,0.152-0.511,0.191c-2.73,0.814-5.591,0.842-7.585,0.676   c-2.635-0.219-5.189-1.824-6.846-4.623c-1.002-1.693-1.617-3.822-1.759-5.797c-0.053-0.73-0.093-3.313-0.093-4.998   c0-0.219-0.082-0.377-0.219-0.469c-15.866-10.502-27.607-20.695-35.322-28.461c-0.229-0.23-0.354-0.336-0.614-0.186   c-0.109,0.064-0.608,0.352-0.608,0.352s-0.127,0.102-0.149,0.127c-0.06,0.07-0.141,0.164-0.23,0.262   c-0.151,0.166-0.319,0.311-0.512,0.115c-0.314-0.318-0.616-0.639-0.912-0.951c-0.142-0.15-0.233-0.135-0.4-0.039l-0.256,0.141   c-0.207,0.18-0.211,0.18-0.211,0.512v0.986c0,0.283-0.027,0.395-0.325,0.566l-0.531,0.307c-0.226,0.129-0.523,0.1-0.646-0.102   c-0.062-0.1-0.123-0.199-0.181-0.299c-1.998-3.477-3.365-7.922-4.313-12.365l-0.037-0.174c-0.084-3.559-0.035-6.877,0.313-8.643   c0.325-1.646,0.834-2.969,1.134-3.928c3.15-10.104,9.77-29.252,15.813-38.383c0.242-0.365,0.236-0.67,0.015-0.826l-0.412-0.24   c-0.19-0.111-0.347-0.145-0.537-0.023C68.22,55.756,63.049,59,62.524,59.33c-0.594,0.375-1.313,0.875-1.719,1.592   c-0.341,0.602-5.259,9.135-6.832,11.852c-0.097,0.166-0.234,0.195-0.315,0.053L53.529,72.6c-0.104-0.184-0.135-0.289-0.391-0.438   l-0.341-0.211c-0.254-0.146-0.383,0.037-0.509,0.387c-1.283,3.551-4.516,7.953-6.755,14.273l-0.123,0.352   c-1.426,3.469-9.142,11.354-8.142,26.188c0.395,5.863,0.886,10.951,1.557,15.133c0.043,0.266,0.036,0.719,0.036,0.953   c0,4.201-0.092,8.199,0.146,11.721l0.016,0.234c0,3.266,3.173,22.393,3.662,24.27c0.237,0.906,0.363,1.963,1.105,3.992l0.131,0.346   c0.42,1.82,0.6,2.684,0.996,3.754c1.465,3.951,4.332,9.789,9.541,14.457c1.518,1.361,3.186,2.846,5.102,4.377   c10.756,8.6,23.395,17.658,39.896,27.225c16.883,9.781,33.355,17.502,47.908,23.201c2.006,0.787,4.785,1.824,8.301,2.756   c3.629,0.961,11.717,2.77,31.314,3.475l0.227,0.053c2.902,0.709,4.844,1.186,4.844,1.186c3.668,0.916,8.041,1.711,13.051,1.785   c11.168,0.166,23.334-0.5,39.084-4s16.834-6.168,18.334-12.334s2.537-15.602,6.109-27.059c3.155-10.123,8.102-20.063,14.184-28.979   C282.913,179.547,282.813,179.389,282.646,179.293z M160.394,213.859c-0.434,1.264-1.988,5.729-4.089,10.488l-4.592,9.992   c-0.085,0.186-0.137,0.299-0.505,0.186c-0.429-0.131-0.851-0.266-1.267-0.402c-14.832-4.93-31.408-13.271-48.291-23.053   c-15.369-8.908-27.541-16.939-37.57-25.256c-2.904-2.408-6.469-6.191-9.803-10.824c-0.205-0.285-0.405-0.574-0.602-0.865   c-0.197-0.291-0.296-0.457-0.449-1.033c-1.206-4.529-4.505-18.645-5.833-24.428c-0.065-0.287-0.063-0.281,0.151-0.051   c1.487,1.604,3.142,3.264,4.959,4.973c0.178,0.166,0.238,0.221,0.481,0.08l0.493-0.283c0.15-0.088,0.201-0.193,0.201-0.33   c0-0.889,0-4.652,0-5.387c0-0.109,0.011-0.217,0.021-0.322c0.021-0.213,0.145-0.221,0.338-0.125   c0.088,0.043,0.176,0.109,0.271,0.182c1.166,0.875,2.416,2.084,3.041,2.791c0.625,0.709,0.793,1.25,0.793,2.541   c0.001,1.096,0.001,4.529,0.001,5.551c0,0.094,0.014,0.303,0.196,0.455c9.874,8.238,22.966,17.25,38.178,26.066   c23.477,13.602,46.129,23.121,63.685,28.604C160.514,213.506,160.493,213.57,160.394,213.859z M202.506,233.389   c-8.86,0.107-14.554-0.232-17.014-0.301c-1.846-0.051-3.428-0.027-4.945,2.342c-1.465,2.377-8.586,0.594-9.373,0.318   c-0.803-0.273-0.639-0.645-0.447-1.014c0.193-0.355,7.801-14.816,8.516-15.92c0.371-0.629,0.766-0.781,1.338-0.828   c3.266-0.271,13.565,0.643,19.597,1.848c1.128,0.277,1.5,0.436,1.966,1.236c1.613,2.566,3.313,6.488,3.537,10.307   C205.755,232.664,205.434,233.354,202.506,233.389z M207.52,199.857c-2.78,0.256-7.461,0.777-11.123,1.004   c-0.389,0.023-0.63-0.049-0.777-0.154l-0.033-0.162c0-0.25,0.047-0.801,0.666-1.541c0,0,2.459-3.084,2.916-3.668   c0.459-0.584,1.709-1.168,2.584-1.209c0.832-0.039,9.354-0.785,10.866-0.785c0.382,0,0.317,0.115,0.176,0.324   c-0.733,1.084-1.846,2.523-2.024,2.775c-0.209,0.291-0.748,1.225-1.166,1.949S208.56,199.762,207.52,199.857z M228.235,220.77   c-1.463,9.719-3.891,13.436-5.67,14.842c-1.825,1.443-6.825,2.764-12.487,3.631c-0.229,0.035-0.359-0.006-0.282-0.438l5.154-20.848   c0.088-0.496,0.295-0.652,0.838-0.682c3.219-0.168,8.236-0.672,11.799-0.791c0.527-0.018,0.717,0.125,0.762,0.416   C228.474,217.711,228.569,218.945,228.235,220.77z" stroke="#000000" outline-element="true" stroke-width="0.5" g2gstroke="#312783" stroke-miterlimit="10"/>
<path stroke-linecap="round" orgstroke="#000000" orgfill="none" transform="translate(1.6666666666666288, 45.0) translate(5.0, 141.66666666666663) translate(-1.1659935022249215, -6.995961013349529) translate(2.331987004449843, 3.4979805066747645) translate(-6.995961013349529, 0.0) translate(-318.31622610740294, -206.38084989381065) translate(279.8384405339806, 277.50645352953075) translate(-65,-56) translate(-135.7864793701172, -15.95862927246094) translate(283.77116719958855, 267.7721993159322) translate(-23.810883895874042, -7.293701173693989E-6) translate(-637.1092790527343, 18.13041815948486) translate(-8.82777467181677, 73.14441870934016) translate(21.25, 0.0) translate(670.0, -93.75) translate(12.5, 12.50006103515625)" fill="none" stroke-linejoin="round" d="   M176.402,187.98c-0.427-0.033-0.821-0.045-1.172-0.131c-0.401-0.098-0.388-0.15-0.099-0.316l0.288-0.168   c0.167-0.096,0.242-0.4,0.242-0.629v-0.744c0-0.213-0.021-0.311-0.375-0.434c-0.572-0.199-1.903-0.598-2.489-0.803   c-0.349-0.121-0.494-0.484-0.494-0.734v-1.09c0.002-0.555-0.082-0.584-0.486-0.727c-14.858-5.252-33.659-12.389-53.311-22.957" stroke="#000000" stroke-width="0.25" g2gstroke="#312783" stroke-miterlimit="10"/>
<path stroke-linecap="round" orgstroke="#000000" orgfill="none" transform="translate(1.6666666666666288, 45.0) translate(5.0, 141.66666666666663) translate(-1.1659935022249215, -6.995961013349529) translate(2.331987004449843, 3.4979805066747645) translate(-6.995961013349529, 0.0) translate(-318.31622610740294, -206.38084989381065) translate(279.8384405339806, 277.50645352953075) translate(-65,-56) translate(-135.7864793701172, -15.95862927246094) translate(283.77116719958855, 267.7721993159322) translate(-23.810883895874042, -7.293701173693989E-6) translate(-637.1092790527343, 18.13041815948486) translate(-8.82777467181677, 73.14441870934016) translate(21.25, 0.0) translate(670.0, -93.75) translate(12.5, 12.50006103515625)" fill="none" stroke-linejoin="round" d="   M168.686,208.4c19.373,3.777,55.449,2.607,93.254-8.738c3.371-1.012,5.123-3.213,5.898-4.973c1.619-3.678,3.447-7.285,5.457-10.787   " stroke="#000000" stroke-width="0.25" g2gstroke="#312783" stroke-miterlimit="10"/>
<path stroke-linecap="round" orgstroke="#000000" orgfill="none" transform="translate(1.6666666666666288, 45.0) translate(5.0, 141.66666666666663) translate(-1.1659935022249215, -6.995961013349529) translate(2.331987004449843, 3.4979805066747645) translate(-6.995961013349529, 0.0) translate(-318.31622610740294, -206.38084989381065) translate(279.8384405339806, 277.50645352953075) translate(-65,-56) translate(-135.7864793701172, -15.95862927246094) translate(283.77116719958855, 267.7721993159322) translate(-23.810883895874042, -7.293701173693989E-6) translate(-637.1092790527343, 18.13041815948486) translate(-8.82777467181677, 73.14441870934016) translate(21.25, 0.0) translate(670.0, -93.75) translate(12.5, 12.50006103515625)" fill="none" stroke-linejoin="round" d="   M210.385,197.053c0.689-0.102,1.373-0.209,2.051-0.32c15.82-2.623,22.531-6.076,29.203-14.268" stroke="#000000" stroke-width="0.25" g2gstroke="#312783" stroke-miterlimit="10"/>
<path stroke-linecap="round" orgstroke="#000000" orgfill="none" transform="translate(1.6666666666666288, 45.0) translate(5.0, 141.66666666666663) translate(-1.1659935022249215, -6.995961013349529) translate(2.331987004449843, 3.4979805066747645) translate(-6.995961013349529, 0.0) translate(-318.31622610740294, -206.38084989381065) translate(279.8384405339806, 277.50645352953075) translate(-65,-56) translate(-135.7864793701172, -15.95862927246094) translate(283.77116719958855, 267.7721993159322) translate(-23.810883895874042, -7.293701173693989E-6) translate(-637.1092790527343, 18.13041815948486) translate(-8.82777467181677, 73.14441870934016) translate(21.25, 0.0) translate(670.0, -93.75) translate(12.5, 12.50006103515625)" fill="none" stroke-linejoin="round" d="   M160.52,213.4c0.582-2.834,2.881-8.623,4.031-11.105c0.998-2.15,2.439-3.416,6.002-3.416c2.644,0,13.183,0.318,25.033-0.373" stroke="#000000" stroke-width="0.25" g2gstroke="#312783" stroke-miterlimit="10"/>
<path stroke-linecap="round" orgstroke="#000000" orgfill="none" transform="translate(1.6666666666666288, 45.0) translate(5.0, 141.66666666666663) translate(-1.1659935022249215, -6.995961013349529) translate(2.331987004449843, 3.4979805066747645) translate(-6.995961013349529, 0.0) translate(-318.31622610740294, -206.38084989381065) translate(279.8384405339806, 277.50645352953075) translate(-65,-56) translate(-135.7864793701172, -15.95862927246094) translate(283.77116719958855, 267.7721993159322) translate(-23.810883895874042, -7.293701173693989E-6) translate(-637.1092790527343, 18.13041815948486) translate(-8.82777467181677, 73.14441870934016) translate(21.25, 0.0) translate(670.0, -93.75) translate(12.5, 12.50006103515625)" fill="none" stroke-linejoin="round" d="   M52.377,72.129c-1.403,5.918-2.551,13.963-2.441,17.604c0.122,4.063,0.936,20.947,6.436,30.516   c0.116,0.201,0.241,0.418,0.389,0.574c7.743,8.125,20.876,19.695,38.533,31.264c0,0,0.222,0.145,0.234,0.508   c0.053,2.291,0.637,4.564,1.795,6.521c1.657,2.799,4.211,4.404,6.846,4.623c2.188,0.182,5.416,0.131,8.373-0.934   c0,0,0.355-0.121,0.683,0.059c22.165,12.107,43.365,19.813,59.182,25.324c1.145,0.301,2.81,0.484,5.343,0.627   c4.875,0.273,16.5,1.898,36.813-0.352s21.852-5.574,23.367-6.844c0.151-0.127,0.382-0.365,0.674-0.695   c0.158-0.18,0.229-0.139,0.413-0.033" stroke="#000000" stroke-width="0.25" g2gstroke="#312783" stroke-miterlimit="10"/>
<path stroke-linecap="round" orgstroke="#000000" orgfill="none" transform="translate(1.6666666666666288, 45.0) translate(5.0, 141.66666666666663) translate(-1.1659935022249215, -6.995961013349529) translate(2.331987004449843, 3.4979805066747645) translate(-6.995961013349529, 0.0) translate(-318.31622610740294, -206.38084989381065) translate(279.8384405339806, 277.50645352953075) translate(-65,-56) translate(-135.7864793701172, -15.95862927246094) translate(283.77116719958855, 267.7721993159322) translate(-23.810883895874042, -7.293701173693989E-6) translate(-637.1092790527343, 18.13041815948486) translate(-8.82777467181677, 73.14441870934016) translate(21.25, 0.0) translate(670.0, -93.75) translate(12.5, 12.50006103515625)" fill="none" stroke-linejoin="round" d="   M212.941,193.443c0.058-0.09,0.111-0.174,0.16-0.252c0.666-1.082,0.293-1.084-0.5-1.084c-0.791,0-10.166,0.75-11.041,0.791   s-2.125,0.625-2.584,1.209c-0.457,0.584-2.916,3.668-2.916,3.668c-0.619,0.74-0.666,1.291-0.666,1.541s0,0.75,0,0.959   c0,0.113,0.04,0.299,0.225,0.432" stroke="#000000" stroke-width="0.25" g2gstroke="#312783" stroke-miterlimit="10"/>
<path stroke-linecap="round" orgstroke="#000000" orgfill="none" transform="translate(1.6666666666666288, 45.0) translate(5.0, 141.66666666666663) translate(-1.1659935022249215, -6.995961013349529) translate(2.331987004449843, 3.4979805066747645) translate(-6.995961013349529, 0.0) translate(-318.31622610740294, -206.38084989381065) translate(279.8384405339806, 277.50645352953075) translate(-65,-56) translate(-135.7864793701172, -15.95862927246094) translate(283.77116719958855, 267.7721993159322) translate(-23.810883895874042, -7.293701173693989E-6) translate(-637.1092790527343, 18.13041815948486) translate(-8.82777467181677, 73.14441870934016) translate(21.25, 0.0) translate(670.0, -93.75) translate(12.5, 12.50006103515625)" fill="none" stroke-linejoin="round" d="   M43.521,108.672c0.445,6.709,1.311,12.621,1.79,15.104c0.75,3.875,0.813,6.625,0.813,10.313s-0.295,12.656-0.295,12.656" stroke="#000000" stroke-width="0.25" g2gstroke="#312783" stroke-miterlimit="10"/>
<path stroke-linecap="round" orgstroke="#000000" orgfill="none" transform="translate(1.6666666666666288, 45.0) translate(5.0, 141.66666666666663) translate(-1.1659935022249215, -6.995961013349529) translate(2.331987004449843, 3.4979805066747645) translate(-6.995961013349529, 0.0) translate(-318.31622610740294, -206.38084989381065) translate(279.8384405339806, 277.50645352953075) translate(-65,-56) translate(-135.7864793701172, -15.95862927246094) translate(283.77116719958855, 267.7721993159322) translate(-23.810883895874042, -7.293701173693989E-6) translate(-637.1092790527343, 18.13041815948486) translate(-8.82777467181677, 73.14441870934016) translate(21.25, 0.0) translate(670.0, -93.75) translate(12.5, 12.50006103515625)" fill="none" stroke-linejoin="round" d="   M45.534,86.611c-1.184,3.338-2.076,6.924-2.224,10.477c-0.028,0.701-0.048,1.41-0.06,2.123" stroke="#000000" stroke-width="0.25" g2gstroke="#312783" stroke-miterlimit="10"/>
<path stroke-linecap="round" orgstroke="#000000" orgfill="none" transform="translate(1.6666666666666288, 45.0) translate(5.0, 141.66666666666663) translate(-1.1659935022249215, -6.995961013349529) translate(2.331987004449843, 3.4979805066747645) translate(-6.995961013349529, 0.0) translate(-318.31622610740294, -206.38084989381065) translate(279.8384405339806, 277.50645352953075) translate(-65,-56) translate(-135.7864793701172, -15.95862927246094) translate(283.77116719958855, 267.7721993159322) translate(-23.810883895874042, -7.293701173693989E-6) translate(-637.1092790527343, 18.13041815948486) translate(-8.82777467181677, 73.14441870934016) translate(21.25, 0.0) translate(670.0, -93.75) translate(12.5, 12.50006103515625)" fill="none" stroke-linejoin="round" d="   M42.213,110.031c0.02,0.289,0.293,0.447,0.457,0.213s0.301-0.514,0.568-1.047c0.156-0.313,0.479-0.906,0.697-1.094   s3.234-2.578,3.563-2.859s0.49-0.645,0.479-1.002c-0.094-2.545-0.107-5.129-0.006-7.619c0.006-0.109,0.012-0.221,0.016-0.33   c0.045-1.125-0.535-0.814-0.832-0.564s-2.813,2.234-3.203,2.625s-0.875,1.078-1.016,1.328s-0.688,1.188-0.813,1.547   s-0.225,0.906-0.221,1.297c0.023,2.527,0.139,5.068,0.309,7.494L42.213,110.031z" stroke="#000000" stroke-width="0.25" g2gstroke="#312783" stroke-miterlimit="10"/>
<path stroke-linecap="round" orgstroke="#000000" orgfill="none" transform="translate(1.6666666666666288, 45.0) translate(5.0, 141.66666666666663) translate(-1.1659935022249215, -6.995961013349529) translate(2.331987004449843, 3.4979805066747645) translate(-6.995961013349529, 0.0) translate(-318.31622610740294, -206.38084989381065) translate(279.8384405339806, 277.50645352953075) translate(-65,-56) translate(-135.7864793701172, -15.95862927246094) translate(283.77116719958855, 267.7721993159322) translate(-23.810883895874042, -7.293701173693989E-6) translate(-637.1092790527343, 18.13041815948486) translate(-8.82777467181677, 73.14441870934016) translate(21.25, 0.0) translate(670.0, -93.75) translate(12.5, 12.50006103515625)" fill="none" stroke-linejoin="round" d="   M47.955,96.604c-0.785,0.629-2.527,2.016-2.848,2.336c-0.391,0.391-0.875,1.078-1.016,1.328s-0.688,1.188-0.813,1.547   s-0.225,0.906-0.221,1.297c0.019,1.982,0.093,3.973,0.207,5.908" stroke="#000000" stroke-width="0.25" g2gstroke="#312783" stroke-miterlimit="10"/>
<path stroke-linecap="round" orgstroke="#000000" orgfill="none" transform="translate(1.6666666666666288, 45.0) translate(5.0, 141.66666666666663) translate(-1.1659935022249215, -6.995961013349529) translate(2.331987004449843, 3.4979805066747645) translate(-6.995961013349529, 0.0) translate(-318.31622610740294, -206.38084989381065) translate(279.8384405339806, 277.50645352953075) translate(-65,-56) translate(-135.7864793701172, -15.95862927246094) translate(283.77116719958855, 267.7721993159322) translate(-23.810883895874042, -7.293701173693989E-6) translate(-637.1092790527343, 18.13041815948486) translate(-8.82777467181677, 73.14441870934016) translate(21.25, 0.0) translate(670.0, -93.75) translate(12.5, 12.50006103515625)" fill="none" stroke-linejoin="round" d="   M47.842,130.762c9.6,11.121,28.031,25.037,51.326,38.539c23.98,13.893,47.115,23.582,64.982,29.143" stroke="#000000" stroke-width="0.25" g2gstroke="#312783" stroke-miterlimit="10"/>
<path stroke-linecap="round" orgstroke="#000000" orgfill="none" transform="translate(1.6666666666666288, 45.0) translate(5.0, 141.66666666666663) translate(-1.1659935022249215, -6.995961013349529) translate(2.331987004449843, 3.4979805066747645) translate(-6.995961013349529, 0.0) translate(-318.31622610740294, -206.38084989381065) translate(279.8384405339806, 277.50645352953075) translate(-65,-56) translate(-135.7864793701172, -15.95862927246094) translate(283.77116719958855, 267.7721993159322) translate(-23.810883895874042, -7.293701173693989E-6) translate(-637.1092790527343, 18.13041815948486) translate(-8.82777467181677, 73.14441870934016) translate(21.25, 0.0) translate(670.0, -93.75) translate(12.5, 12.50006103515625)" fill="none" stroke-linejoin="round" d="   M160.446,213.484c0.022,0.006,0.045,0.014,0.067,0.021c3.1,0.965,6.158,1.277,10.002,1.736c9.67,1.158,25.838,2.172,58.426-0.01   c1.635-0.109,4.004,0.209,4,3.125c-0.01,8.418-1.896,16.291-6.313,20.209c-4.416,3.916-11.791,5-36.771,4.834   c-20.666-0.137-35.756-4.668-42.34-7.246c-14.551-5.701-31.023-13.422-47.906-23.203c-16.504-9.564-29.459-18.24-39.896-27.223" stroke="#000000" stroke-width="0.25" g2gstroke="#312783" stroke-miterlimit="10"/>
<path stroke-linecap="round" orgstroke="#000000" orgfill="none" transform="translate(1.6666666666666288, 45.0) translate(5.0, 141.66666666666663) translate(-1.1659935022249215, -6.995961013349529) translate(2.331987004449843, 3.4979805066747645) translate(-6.995961013349529, 0.0) translate(-318.31622610740294, -206.38084989381065) translate(279.8384405339806, 277.50645352953075) translate(-65,-56) translate(-135.7864793701172, -15.95862927246094) translate(283.77116719958855, 267.7721993159322) translate(-23.810883895874042, -7.293701173693989E-6) translate(-637.1092790527343, 18.13041815948486) translate(-8.82777467181677, 73.14441870934016) translate(21.25, 0.0) translate(670.0, -93.75) translate(12.5, 12.50006103515625)" fill="none" stroke-linejoin="round" d="   M151.617,234.549l-0.21,0.457c-0.104,0.18-0.022,0.381,0.231,0.451c13.029,3.607,30.615,4.088,30.615,4.088   s18.215,1.721,24.305,1.967c1.281,0.053,2.146,0.035,3.076-0.055c6.779-0.664,12.139-1.863,15.006-4.131   c2.623-2.072,4.803-7.021,6.088-15.561c0.854-4.654-0.266-6.502-1.313-6.551" stroke="#000000" stroke-width="0.25" g2gstroke="#312783" stroke-miterlimit="10"/>
<path stroke-linecap="round" orgstroke="#000000" orgfill="none" transform="translate(1.6666666666666288, 45.0) translate(5.0, 141.66666666666663) translate(-1.1659935022249215, -6.995961013349529) translate(2.331987004449843, 3.4979805066747645) translate(-6.995961013349529, 0.0) translate(-318.31622610740294, -206.38084989381065) translate(279.8384405339806, 277.50645352953075) translate(-65,-56) translate(-135.7864793701172, -15.95862927246094) translate(283.77116719958855, 267.7721993159322) translate(-23.810883895874042, -7.293701173693989E-6) translate(-637.1092790527343, 18.13041815948486) translate(-8.82777467181677, 73.14441870934016) translate(21.25, 0.0) translate(670.0, -93.75) translate(12.5, 12.50006103515625)" fill="none" stroke-linejoin="round" d="   M52.742,153.627c0,0,0-4.561,0-5.395c0-0.711,0.294-1.453,1.104-1.109" stroke="#000000" stroke-width="0.25" g2gstroke="#312783" stroke-miterlimit="10"/>
<path stroke-linecap="round" orgstroke="#000000" orgfill="none" transform="translate(1.6666666666666288, 45.0) translate(5.0, 141.66666666666663) translate(-1.1659935022249215, -6.995961013349529) translate(2.331987004449843, 3.4979805066747645) translate(-6.995961013349529, 0.0) translate(-318.31622610740294, -206.38084989381065) translate(279.8384405339806, 277.50645352953075) translate(-65,-56) translate(-135.7864793701172, -15.95862927246094) translate(283.77116719958855, 267.7721993159322) translate(-23.810883895874042, -7.293701173693989E-6) translate(-637.1092790527343, 18.13041815948486) translate(-8.82777467181677, 73.14441870934016) translate(21.25, 0.0) translate(670.0, -93.75) translate(12.5, 12.50006103515625)" fill="none" stroke-linejoin="round" d="   M47.798,148.885c-0.471-0.516-1.393-1.531-1.827-2.033c-1.85-2.145-3.404-5.527-5.084-9.953c-0.805-2.123-1.467-4.932-2.02-8.357" stroke="#000000" stroke-width="0.25" g2gstroke="#312783" stroke-miterlimit="10"/>
<path stroke-linecap="round" orgstroke="#000000" orgfill="none" transform="translate(1.6666666666666288, 45.0) translate(5.0, 141.66666666666663) translate(-1.1659935022249215, -6.995961013349529) translate(2.331987004449843, 3.4979805066747645) translate(-6.995961013349529, 0.0) translate(-318.31622610740294, -206.38084989381065) translate(279.8384405339806, 277.50645352953075) translate(-65,-56) translate(-135.7864793701172, -15.95862927246094) translate(283.77116719958855, 267.7721993159322) translate(-23.810883895874042, -7.293701173693989E-6) translate(-637.1092790527343, 18.13041815948486) translate(-8.82777467181677, 73.14441870934016) translate(21.25, 0.0) translate(670.0, -93.75) translate(12.5, 12.50006103515625)" fill="none" stroke-linejoin="round" d="   M45.83,146.68c0,0,5.16,22.572,6.552,27.434" stroke="#000000" stroke-width="0.25" g2gstroke="#312783" stroke-miterlimit="10"/>
<path stroke-linecap="round" orgstroke="#000000" orgfill="none" transform="translate(1.6666666666666288, 45.0) translate(5.0, 141.66666666666663) translate(-1.1659935022249215, -6.995961013349529) translate(2.331987004449843, 3.4979805066747645) translate(-6.995961013349529, 0.0) translate(-318.31622610740294, -206.38084989381065) translate(279.8384405339806, 277.50645352953075) translate(-65,-56) translate(-135.7864793701172, -15.95862927246094) translate(283.77116719958855, 267.7721993159322) translate(-23.810883895874042, -7.293701173693989E-6) translate(-637.1092790527343, 18.13041815948486) translate(-8.82777467181677, 73.14441870934016) translate(21.25, 0.0) translate(670.0, -93.75) translate(12.5, 12.50006103515625)" fill="none" stroke-linejoin="round" d="   M39.008,140.957c0.494,7.342,1.839,13.781,4.23,21.51c3.563,11.51,9.217,17.344,16.477,23.262" stroke="#000000" stroke-width="0.25" g2gstroke="#312783" stroke-miterlimit="10"/>
<path stroke-linecap="round" orgstroke="#000000" orgfill="none" transform="translate(1.6666666666666288, 45.0) translate(5.0, 141.66666666666663) translate(-1.1659935022249215, -6.995961013349529) translate(2.331987004449843, 3.4979805066747645) translate(-6.995961013349529, 0.0) translate(-318.31622610740294, -206.38084989381065) translate(279.8384405339806, 277.50645352953075) translate(-65,-56) translate(-135.7864793701172, -15.95862927246094) translate(283.77116719958855, 267.7721993159322) translate(-23.810883895874042, -7.293701173693989E-6) translate(-637.1092790527343, 18.13041815948486) translate(-8.82777467181677, 73.14441870934016) translate(21.25, 0.0) translate(670.0, -93.75) translate(12.5, 12.50006103515625)" fill="none" stroke-linejoin="round" d="   M44.918,172.014c1.393,3.977,4.332,9.789,9.541,14.457c1.518,1.361,3.186,2.846,5.102,4.377   c10.756,8.6,23.395,17.658,39.896,27.225c16.883,9.781,33.355,17.502,47.908,23.201c2.006,0.787,4.785,1.824,8.301,2.756   c3.053,0.809,11.717,2.434,24.369,3.357" stroke="#000000" stroke-width="0.25" g2gstroke="#312783" stroke-miterlimit="10"/>
<ellipse orgstroke="#000000" stroke="#000000" stroke-linecap="round" transform="translate(1.6666666666666288, 45.0) translate(5.0, 141.66666666666663) translate(-1.1659935022249215, -6.995961013349529) translate(2.331987004449843, 3.4979805066747645) translate(-6.995961013349529, 0.0) translate(-318.31622610740294, -206.38084989381065) translate(279.8384405339806, 277.50645352953075) translate(-65,-56) translate(-135.7864793701172, -15.95862927246094) translate(283.77116719958855, 267.7721993159322) translate(-23.810883895874042, -7.293701173693989E-6) translate(-637.1092790527343, 18.13041815948486) translate(-8.82777467181677, 73.14441870934016) translate(21.25, 0.0) translate(670.0, -93.75) translate(12.5, 12.50006103515625) matrix(-0.9359 -0.3523 0.3523 -0.9359 406.6152 493.6569)" stroke-miterlimit="10" orgfill="none" fill="none" stroke-width="0.25" stroke-linejoin="round" cx="248.226" rx="2.281" g2gstroke="#312783" ry="2.751" cy="209.83"/>
<ellipse orgstroke="#000000" stroke="#000000" stroke-linecap="round" transform="translate(1.6666666666666288, 45.0) translate(5.0, 141.66666666666663) translate(-1.1659935022249215, -6.995961013349529) translate(2.331987004449843, 3.4979805066747645) translate(-6.995961013349529, 0.0) translate(-318.31622610740294, -206.38084989381065) translate(279.8384405339806, 277.50645352953075) translate(-65,-56) translate(-135.7864793701172, -15.95862927246094) translate(283.77116719958855, 267.7721993159322) translate(-23.810883895874042, -7.293701173693989E-6) translate(-637.1092790527343, 18.13041815948486) translate(-8.82777467181677, 73.14441870934016) translate(21.25, 0.0) translate(670.0, -93.75) translate(12.5, 12.50006103515625) matrix(-0.936 -0.352 0.352 -0.936 405.7261 492.9349)" stroke-miterlimit="10" orgfill="none" fill="none" stroke-width="0.25" stroke-linejoin="round" cx="247.675" rx="1.234" g2gstroke="#312783" ry="1.489" cy="209.583"/>
<ellipse orgstroke="#000000" stroke="#000000" stroke-linecap="round" transform="translate(1.6666666666666288, 45.0) translate(5.0, 141.66666666666663) translate(-1.1659935022249215, -6.995961013349529) translate(2.331987004449843, 3.4979805066747645) translate(-6.995961013349529, 0.0) translate(-318.31622610740294, -206.38084989381065) translate(279.8384405339806, 277.50645352953075) translate(-65,-56) translate(-135.7864793701172, -15.95862927246094) translate(283.77116719958855, 267.7721993159322) translate(-23.810883895874042, -7.293701173693989E-6) translate(-637.1092790527343, 18.13041815948486) translate(-8.82777467181677, 73.14441870934016) translate(21.25, 0.0) translate(670.0, -93.75) translate(12.5, 12.50006103515625)" stroke-miterlimit="10" orgfill="none" fill="none" stroke-width="0.25" stroke-linejoin="round" cx="213.446" rx="1.835" g2gstroke="#312783" cy="213.066" ry="1.666"/>
<path stroke-linecap="round" orgstroke="#000000" orgfill="none" transform="translate(1.6666666666666288, 45.0) translate(5.0, 141.66666666666663) translate(-1.1659935022249215, -6.995961013349529) translate(2.331987004449843, 3.4979805066747645) translate(-6.995961013349529, 0.0) translate(-318.31622610740294, -206.38084989381065) translate(279.8384405339806, 277.50645352953075) translate(-65,-56) translate(-135.7864793701172, -15.95862927246094) translate(283.77116719958855, 267.7721993159322) translate(-23.810883895874042, -7.293701173693989E-6) translate(-637.1092790527343, 18.13041815948486) translate(-8.82777467181677, 73.14441870934016) translate(21.25, 0.0) translate(670.0, -93.75) translate(12.5, 12.50006103515625)" fill="none" stroke-linejoin="round" d="   M135.133,194.553c0.123,0.871,0.795,1.809,1.502,2.096c0.707,0.285,1.18-0.189,1.057-1.063c-0.121-0.871-0.793-1.809-1.5-2.094   S135.012,193.682,135.133,194.553z" stroke="#000000" stroke-width="0.25" g2gstroke="#312783" stroke-miterlimit="10"/>
<path stroke-linecap="round" orgstroke="#000000" orgfill="none" transform="translate(1.6666666666666288, 45.0) translate(5.0, 141.66666666666663) translate(-1.1659935022249215, -6.995961013349529) translate(2.331987004449843, 3.4979805066747645) translate(-6.995961013349529, 0.0) translate(-318.31622610740294, -206.38084989381065) translate(279.8384405339806, 277.50645352953075) translate(-65,-56) translate(-135.7864793701172, -15.95862927246094) translate(283.77116719958855, 267.7721993159322) translate(-23.810883895874042, -7.293701173693989E-6) translate(-637.1092790527343, 18.13041815948486) translate(-8.82777467181677, 73.14441870934016) translate(21.25, 0.0) translate(670.0, -93.75) translate(12.5, 12.50006103515625)" fill="none" stroke-linejoin="round" d="   M61.525,152.363c0.123,0.871,0.795,1.809,1.502,2.096c0.707,0.285,1.18-0.189,1.057-1.063c-0.121-0.871-0.793-1.809-1.5-2.094   C61.877,151.017,61.404,151.492,61.525,152.363z" stroke="#000000" stroke-width="0.25" g2gstroke="#312783" stroke-miterlimit="10"/>
<path stroke-linecap="round" orgstroke="#000000" orgfill="none" transform="translate(1.6666666666666288, 45.0) translate(5.0, 141.66666666666663) translate(-1.1659935022249215, -6.995961013349529) translate(2.331987004449843, 3.4979805066747645) translate(-6.995961013349529, 0.0) translate(-318.31622610740294, -206.38084989381065) translate(279.8384405339806, 277.50645352953075) translate(-65,-56) translate(-135.7864793701172, -15.95862927246094) translate(283.77116719958855, 267.7721993159322) translate(-23.810883895874042, -7.293701173693989E-6) translate(-637.1092790527343, 18.13041815948486) translate(-8.82777467181677, 73.14441870934016) translate(21.25, 0.0) translate(670.0, -93.75) translate(12.5, 12.50006103515625)" fill="none" stroke-linejoin="round" d="   M63.755,65.811c-0.08,0.563-0.513,1.166-0.969,1.352c-0.456,0.184-0.761-0.121-0.682-0.686c0.078-0.563,0.512-1.166,0.968-1.35   C63.528,64.943,63.833,65.248,63.755,65.811z" stroke="#000000" stroke-width="0.25" g2gstroke="#312783" stroke-miterlimit="10"/>
<path stroke-linecap="round" orgstroke="#000000" orgfill="none" transform="translate(1.6666666666666288, 45.0) translate(5.0, 141.66666666666663) translate(-1.1659935022249215, -6.995961013349529) translate(2.331987004449843, 3.4979805066747645) translate(-6.995961013349529, 0.0) translate(-318.31622610740294, -206.38084989381065) translate(279.8384405339806, 277.50645352953075) translate(-65,-56) translate(-135.7864793701172, -15.95862927246094) translate(283.77116719958855, 267.7721993159322) translate(-23.810883895874042, -7.293701173693989E-6) translate(-637.1092790527343, 18.13041815948486) translate(-8.82777467181677, 73.14441870934016) translate(21.25, 0.0) translate(670.0, -93.75) translate(12.5, 12.50006103515625)" fill="none" stroke-linejoin="round" d="   M58.687,76.727c-0.08,0.563-0.513,1.166-0.969,1.352c-0.456,0.184-0.761-0.121-0.682-0.686c0.078-0.563,0.512-1.166,0.968-1.35   S58.765,76.164,58.687,76.727z" stroke="#000000" stroke-width="0.25" g2gstroke="#312783" stroke-miterlimit="10"/>
<path stroke-linecap="round" orgstroke="#000000" orgfill="none" transform="translate(1.6666666666666288, 45.0) translate(5.0, 141.66666666666663) translate(-1.1659935022249215, -6.995961013349529) translate(2.331987004449843, 3.4979805066747645) translate(-6.995961013349529, 0.0) translate(-318.31622610740294, -206.38084989381065) translate(279.8384405339806, 277.50645352953075) translate(-65,-56) translate(-135.7864793701172, -15.95862927246094) translate(283.77116719958855, 267.7721993159322) translate(-23.810883895874042, -7.293701173693989E-6) translate(-637.1092790527343, 18.13041815948486) translate(-8.82777467181677, 73.14441870934016) translate(21.25, 0.0) translate(670.0, -93.75) translate(12.5, 12.50006103515625)" fill="none" stroke-linejoin="round" d="   M55.022,87.348c-0.079,0.563-0.513,1.166-0.969,1.352c-0.456,0.184-0.761-0.121-0.681-0.686c0.078-0.561,0.511-1.166,0.967-1.35   S55.101,86.787,55.022,87.348z" stroke="#000000" stroke-width="0.25" g2gstroke="#312783" stroke-miterlimit="10"/>
<path stroke-linecap="round" orgstroke="#000000" orgfill="none" transform="translate(1.6666666666666288, 45.0) translate(5.0, 141.66666666666663) translate(-1.1659935022249215, -6.995961013349529) translate(2.331987004449843, 3.4979805066747645) translate(-6.995961013349529, 0.0) translate(-318.31622610740294, -206.38084989381065) translate(279.8384405339806, 277.50645352953075) translate(-65,-56) translate(-135.7864793701172, -15.95862927246094) translate(283.77116719958855, 267.7721993159322) translate(-23.810883895874042, -7.293701173693989E-6) translate(-637.1092790527343, 18.13041815948486) translate(-8.82777467181677, 73.14441870934016) translate(21.25, 0.0) translate(670.0, -93.75) translate(12.5, 12.50006103515625)" fill="none" stroke-linejoin="round" d="   M51.595,97.467c0.144-0.154,0.306-0.277,0.471-0.344c0.456-0.184,0.761,0.123,0.683,0.684c-0.079,0.563-0.513,1.166-0.969,1.352" stroke="#000000" stroke-width="0.25" g2gstroke="#312783" stroke-miterlimit="10"/>
<path stroke-linecap="round" orgstroke="#000000" orgfill="none" transform="translate(1.6666666666666288, 45.0) translate(5.0, 141.66666666666663) translate(-1.1659935022249215, -6.995961013349529) translate(2.331987004449843, 3.4979805066747645) translate(-6.995961013349529, 0.0) translate(-318.31622610740294, -206.38084989381065) translate(279.8384405339806, 277.50645352953075) translate(-65,-56) translate(-135.7864793701172, -15.95862927246094) translate(283.77116719958855, 267.7721993159322) translate(-23.810883895874042, -7.293701173693989E-6) translate(-637.1092790527343, 18.13041815948486) translate(-8.82777467181677, 73.14441870934016) translate(21.25, 0.0) translate(670.0, -93.75) translate(12.5, 12.50006103515625)" fill="none" stroke-linejoin="round" d="   M227.728,216.484c1.046,0,1.807,0.234,1.975,1.145c0.15,0.807,0.252,2.068-0.096,3.967c-1.463,9.719-3.891,13.436-5.67,14.842   c-1.943,1.537-7.486,2.922-13.59,3.795c-0.928,0.133-0.906-0.188-0.695-0.842l0.286-1.16" stroke="#000000" stroke-width="0.25" g2gstroke="#312783" stroke-miterlimit="10"/>
<path stroke-linecap="round" orgstroke="#000000" orgfill="none" transform="translate(1.6666666666666288, 45.0) translate(5.0, 141.66666666666663) translate(-1.1659935022249215, -6.995961013349529) translate(2.331987004449843, 3.4979805066747645) translate(-6.995961013349529, 0.0) translate(-318.31622610740294, -206.38084989381065) translate(279.8384405339806, 277.50645352953075) translate(-65,-56) translate(-135.7864793701172, -15.95862927246094) translate(283.77116719958855, 267.7721993159322) translate(-23.810883895874042, -7.293701173693989E-6) translate(-637.1092790527343, 18.13041815948486) translate(-8.82777467181677, 73.14441870934016) translate(21.25, 0.0) translate(670.0, -93.75) translate(12.5, 12.50006103515625)" fill="none" stroke-linejoin="round" d="   M248.47,187.557c0.165,0.117,0.309,0.221,0.425,0.303c1.125,0.791,3.248,1.209,5.582,0.791c2.334-0.416,15.691-3.926,17.25-4.291   s3.188-1.049,3.725-1.359c0.506-0.293,6.646-3.201,7.367-3.543" stroke="#000000" stroke-width="0.25" g2gstroke="#312783" stroke-miterlimit="10"/>
<path stroke-linecap="round" orgstroke="#000000" orgfill="none" transform="translate(1.6666666666666288, 45.0) translate(5.0, 141.66666666666663) translate(-1.1659935022249215, -6.995961013349529) translate(2.331987004449843, 3.4979805066747645) translate(-6.995961013349529, 0.0) translate(-318.31622610740294, -206.38084989381065) translate(279.8384405339806, 277.50645352953075) translate(-65,-56) translate(-135.7864793701172, -15.95862927246094) translate(283.77116719958855, 267.7721993159322) translate(-23.810883895874042, -7.293701173693989E-6) translate(-637.1092790527343, 18.13041815948486) translate(-8.82777467181677, 73.14441870934016) translate(21.25, 0.0) translate(670.0, -93.75) translate(12.5, 12.50006103515625)" fill="none" stroke-linejoin="round" d="   M187.207,249.096c-8.046-1.961-23.479-5.719-25.439-6.125c-6.383-1.324-11.213-3.002-14.25-4.191   c-14.551-5.699-31.023-13.42-47.906-23.201c-16.504-9.566-29.141-18.625-39.896-27.225c-10.872-8.691-14.513-15.043-15.924-18.9" stroke="#000000" stroke-width="0.25" g2gstroke="#312783" stroke-miterlimit="10"/>
<path orgstroke="#000000" orgfill="none" transform="translate(1.6666666666666288, 45.0) translate(5.0, 141.66666666666663) translate(-1.1659935022249215, -6.995961013349529) translate(2.331987004449843, 3.4979805066747645) translate(-6.995961013349529, 0.0) translate(-318.31622610740294, -206.38084989381065) translate(279.8384405339806, 277.50645352953075) translate(-65,-56) translate(-135.7864793701172, -15.95862927246094) translate(283.77116719958855, 267.7721993159322) translate(-23.810883895874042, -7.293701173693989E-6) translate(-637.1092790527343, 18.13041815948486) translate(-8.82777467181677, 73.14441870934016) translate(21.25, 0.0) translate(670.0, -93.75) translate(12.5, 12.50006103515625)" fill="none" d="M200.177,219.834   c1.299,0.211,2.554,0.574,3.403,0.906c0.562,0.221,1.169,0.814,1.269,0.957c0.801,1.148,1.84,4.916,2.851,8.889   c0.607,2.387-0.238,4.275-4.52,4.266c-8.78-0.24-15.631-0.234-17.469-0.316c-1.843-0.08-2.979-0.012-4.491,2.357   c-1.66,2.102-7.49,1.178-10.481,0.109c-0.607-0.217-0.656-0.672-0.163-1.869" stroke="#000000" stroke-width="0.25" g2gstroke="#312783" stroke-miterlimit="10"/>
<path stroke-linecap="round" orgstroke="#000000" orgfill="none" transform="translate(1.6666666666666288, 45.0) translate(5.0, 141.66666666666663) translate(-1.1659935022249215, -6.995961013349529) translate(2.331987004449843, 3.4979805066747645) translate(-6.995961013349529, 0.0) translate(-318.31622610740294, -206.38084989381065) translate(279.8384405339806, 277.50645352953075) translate(-65,-56) translate(-135.7864793701172, -15.95862927246094) translate(283.77116719958855, 267.7721993159322) translate(-23.810883895874042, -7.293701173693989E-6) translate(-637.1092790527343, 18.13041815948486) translate(-8.82777467181677, 73.14441870934016) translate(21.25, 0.0) translate(670.0, -93.75) translate(12.5, 12.50006103515625)" fill="none" stroke-linejoin="round" d="   M59.082,119.297c7.743,8.125,21.007,19.857,38.664,31.426c0,0,0.222,0.145,0.234,0.508c0.053,2.291,0.637,4.564,1.795,6.521   c1.657,2.799,4.211,4.404,6.846,4.623c2.188,0.182,5.416,0.131,8.373-0.934c0,0,0.355-0.121,0.683,0.059   c22.165,12.107,43.365,19.814,59.182,25.324c0.216,0.057,0.452,0.111,0.709,0.16" stroke="#000000" stroke-width="0.25" g2gstroke="#312783" stroke-miterlimit="10"/>
<path stroke-linecap="round" orgstroke="#000000" orgfill="none" transform="translate(1.6666666666666288, 45.0) translate(5.0, 141.66666666666663) translate(-1.1659935022249215, -6.995961013349529) translate(2.331987004449843, 3.4979805066747645) translate(-6.995961013349529, 0.0) translate(-318.31622610740294, -206.38084989381065) translate(279.8384405339806, 277.50645352953075) translate(-65,-56) translate(-135.7864793701172, -15.95862927246094) translate(283.77116719958855, 267.7721993159322) translate(-23.810883895874042, -7.293701173693989E-6) translate(-637.1092790527343, 18.13041815948486) translate(-8.82777467181677, 73.14441870934016) translate(21.25, 0.0) translate(670.0, -93.75) translate(12.5, 12.50006103515625)" fill="none" stroke-linejoin="round" d="   M53.38,173.668l-0.594,0.342c-0.372,0.215-0.391,0.197-0.625-0.176c-2.227-3.555-3.92-7.506-5.601-11.684   c-2.869-7.135-4.162-17.014-4.766-22.686" stroke="#000000" stroke-width="0.25" g2gstroke="#312783" stroke-miterlimit="10"/>
<path orgstroke="#000000" orgfill="none" transform="translate(1.6666666666666288, 45.0) translate(5.0, 141.66666666666663) translate(-1.1659935022249215, -6.995961013349529) translate(2.331987004449843, 3.4979805066747645) translate(-6.995961013349529, 0.0) translate(-318.31622610740294, -206.38084989381065) translate(279.8384405339806, 277.50645352953075) translate(-65,-56) translate(-135.7864793701172, -15.95862927246094) translate(283.77116719958855, 267.7721993159322) translate(-23.810883895874042, -7.293701173693989E-6) translate(-637.1092790527343, 18.13041815948486) translate(-8.82777467181677, 73.14441870934016) translate(21.25, 0.0) translate(670.0, -93.75) translate(12.5, 12.50006103515625)" fill="none" d="M44.918,145.453c0,0,2.675,15.898,2.88,16.564   c0.204,0.666-0.087,1.166-0.754-0.209s-1.583-5.436-1.833-6.395c-0.25-0.957-0.125-1.547-0.037-1.926   c0.068-0.295,0.033-0.6-0.057-1.035c-0.337-1.631-1.336-5.771-1.566-9.355" stroke="#000000" stroke-width="0.25" g2gstroke="#312783" stroke-miterlimit="10"/>
<path orgstroke="#000000" orgfill="none" transform="translate(1.6666666666666288, 45.0) translate(5.0, 141.66666666666663) translate(-1.1659935022249215, -6.995961013349529) translate(2.331987004449843, 3.4979805066747645) translate(-6.995961013349529, 0.0) translate(-318.31622610740294, -206.38084989381065) translate(279.8384405339806, 277.50645352953075) translate(-65,-56) translate(-135.7864793701172, -15.95862927246094) translate(283.77116719958855, 267.7721993159322) translate(-23.810883895874042, -7.293701173693989E-6) translate(-637.1092790527343, 18.13041815948486) translate(-8.82777467181677, 73.14441870934016) translate(21.25, 0.0) translate(670.0, -93.75) translate(12.5, 12.50006103515625)" fill="none" d="M47.675,161.424   c-0.658-1.516-1.515-5.303-1.755-6.223c-0.25-0.957-0.124-1.547-0.037-1.926c0.068-0.295,0.033-0.6-0.057-1.035   c-0.281-1.361-1.024-4.477-1.396-7.555" stroke="#000000" stroke-width="0.25" g2gstroke="#312783" stroke-miterlimit="10"/>
<path stroke-linecap="round" orgstroke="#000000" orgfill="none" transform="translate(1.6666666666666288, 45.0) translate(5.0, 141.66666666666663) translate(-1.1659935022249215, -6.995961013349529) translate(2.331987004449843, 3.4979805066747645) translate(-6.995961013349529, 0.0) translate(-318.31622610740294, -206.38084989381065) translate(279.8384405339806, 277.50645352953075) translate(-65,-56) translate(-135.7864793701172, -15.95862927246094) translate(283.77116719958855, 267.7721993159322) translate(-23.810883895874042, -7.293701173693989E-6) translate(-637.1092790527343, 18.13041815948486) translate(-8.82777467181677, 73.14441870934016) translate(21.25, 0.0) translate(670.0, -93.75) translate(12.5, 12.50006103515625)" fill="none" stroke-linejoin="round" d="M112.73699951171875 162.7169952392578L114.99400329589844 161.4409942626953" stroke="#000000" stroke-width="0.25" g2gstroke="#312783" stroke-miterlimit="10"/>
<path stroke-linecap="round" orgstroke="#000000" orgfill="none" transform="translate(1.6666666666666288, 45.0) translate(5.0, 141.66666666666663) translate(-1.1659935022249215, -6.995961013349529) translate(2.331987004449843, 3.4979805066747645) translate(-6.995961013349529, 0.0) translate(-318.31622610740294, -206.38084989381065) translate(279.8384405339806, 277.50645352953075) translate(-65,-56) translate(-135.7864793701172, -15.95862927246094) translate(283.77116719958855, 267.7721993159322) translate(-23.810883895874042, -7.293701173693989E-6) translate(-637.1092790527343, 18.13041815948486) translate(-8.82777467181677, 73.14441870934016) translate(21.25, 0.0) translate(670.0, -93.75) translate(12.5, 12.50006103515625)" fill="none" stroke-linejoin="round" d="M95.51000213623047 152.3159942626953L97.85399627685547 150.93899536132812" stroke="#000000" stroke-width="0.25" g2gstroke="#312783" stroke-miterlimit="10"/>
<path stroke-linecap="round" orgstroke="#000000" orgfill="none" transform="translate(1.6666666666666288, 45.0) translate(5.0, 141.66666666666663) translate(-1.1659935022249215, -6.995961013349529) translate(2.331987004449843, 3.4979805066747645) translate(-6.995961013349529, 0.0) translate(-318.31622610740294, -206.38084989381065) translate(279.8384405339806, 277.50645352953075) translate(-65,-56) translate(-135.7864793701172, -15.95862927246094) translate(283.77116719958855, 267.7721993159322) translate(-23.810883895874042, -7.293701173693989E-6) translate(-637.1092790527343, 18.13041815948486) translate(-8.82777467181677, 73.14441870934016) translate(21.25, 0.0) translate(670.0, -93.75) translate(12.5, 12.50006103515625)" fill="none" stroke-linejoin="round" d="   M53.127,107.221c-0.881-4.133-1.398-8.266-1.723-11.619c-0.148-1.541-0.318-3.916-0.318-5.295c0-3.691,0.845-11.908,2.274-17.848" stroke="#000000" stroke-width="0.25" g2gstroke="#312783" stroke-miterlimit="10"/>
<path stroke-linecap="round" orgstroke="#000000" orgfill="none" transform="translate(1.6666666666666288, 45.0) translate(5.0, 141.66666666666663) translate(-1.1659935022249215, -6.995961013349529) translate(2.331987004449843, 3.4979805066747645) translate(-6.995961013349529, 0.0) translate(-318.31622610740294, -206.38084989381065) translate(279.8384405339806, 277.50645352953075) translate(-65,-56) translate(-135.7864793701172, -15.95862927246094) translate(283.77116719958855, 267.7721993159322) translate(-23.810883895874042, -7.293701173693989E-6) translate(-637.1092790527343, 18.13041815948486) translate(-8.82777467181677, 73.14441870934016) translate(21.25, 0.0) translate(670.0, -93.75) translate(12.5, 12.50006103515625)" fill="none" stroke-linejoin="round" d="   M98.006,151.814c-0.042-0.732-0.172-2.951-0.172-4.637c0-0.219-0.082-0.377-0.22-0.469c-15.865-10.502-27.813-20.861-35.506-28.646   c-0.147-0.148-0.257-0.176-0.399-0.043" stroke="#000000" stroke-width="0.25" g2gstroke="#312783" stroke-miterlimit="10"/>
<path stroke-linecap="round" orgstroke="#000000" orgfill="none" transform="translate(1.6666666666666288, 45.0) translate(5.0, 141.66666666666663) translate(-1.1659935022249215, -6.995961013349529) translate(2.331987004449843, 3.4979805066747645) translate(-6.995961013349529, 0.0) translate(-318.31622610740294, -206.38084989381065) translate(279.8384405339806, 277.50645352953075) translate(-65,-56) translate(-135.7864793701172, -15.95862927246094) translate(283.77116719958855, 267.7721993159322) translate(-23.810883895874042, -7.293701173693989E-6) translate(-637.1092790527343, 18.13041815948486) translate(-8.82777467181677, 73.14441870934016) translate(21.25, 0.0) translate(670.0, -93.75) translate(12.5, 12.50006103515625)" fill="none" stroke-linejoin="round" d="   M61.263,118.516c-0.229,0.252-0.457,0.492-0.457,0.492c-0.155,0.172-0.301,0.232-0.547-0.01c-0.348-0.342-0.781-0.854-1.104-1.191" stroke="#000000" stroke-width="0.25" g2gstroke="#312783" stroke-miterlimit="10"/>
<path orgstroke="#000000" orgfill="none" transform="translate(1.6666666666666288, 45.0) translate(5.0, 141.66666666666663) translate(-1.1659935022249215, -6.995961013349529) translate(2.331987004449843, 3.4979805066747645) translate(-6.995961013349529, 0.0) translate(-318.31622610740294, -206.38084989381065) translate(279.8384405339806, 277.50645352953075) translate(-65,-56) translate(-135.7864793701172, -15.95862927246094) translate(283.77116719958855, 267.7721993159322) translate(-23.810883895874042, -7.293701173693989E-6) translate(-637.1092790527343, 18.13041815948486) translate(-8.82777467181677, 73.14441870934016) translate(21.25, 0.0) translate(670.0, -93.75) translate(12.5, 12.50006103515625)" fill="none" d="M53.599,72.723l0.577,1.018   c0.165,0.287,0.321,0.305,0.502-0.01c1.256-2.172,6.692-11.602,7.052-12.234c0.406-0.715,1.125-1.215,1.719-1.59   s7.138-4.482,7.138-4.482" stroke="#000000" stroke-width="0.25" g2gstroke="#312783" stroke-miterlimit="10"/>
</g>
</g>
</g>
</g>
</g>
</g></svg>