<svg xmlns="http://www.w3.org/2000/svg" xmlns:xlink="http://www.w3.org/1999/xlink" xmlns:x="http://ns.adobe.com/Extensibility/1.0/" xmlns:graph="http://ns.adobe.com/Graphs/1.0/" xmlns:i="http://ns.adobe.com/AdobeIllustrator/10.0/" xmlns:etg="http://www.eurotaxglass.com/etg/evd/" etg:dataTimestamp="1539068912893" contentScriptType="text/ecmascript" zoomAndPan="magnify" contentStyleType="text/css" id="Layer_1" enable-background="new 0 0 1841.891 1595.279" version="1.1" xml:space="preserve" width="1841.891px" preserveAspectRatio="xMidYMid meet" viewBox="0 0 1841.891 1595.279" height="1595.279px" x="0px" y="0px"><g xmlns="http://www.w3.org/2000/svg" objecttype="PS" tooltip="#UNDEFINED" id="121">
<g onmouseover="notifyOwner(AGV_OBJECT_MOUSEOVER, '121(PS)')" transform="translate(-9.433746356535266E-6, 3.356933575560106E-7) translate(-35.71980609130861, -13.200809143066408) translate(44.708733184814434, 94.79042849731445) matrix(0.6117410612267968 0 0 0.6117410612267968 0.2921243287958965 0.477310974878083) translate(-92,-34) " onclick="clickZoom(evt); notifyOwner(AGV_OBJECT_MOUSECLICK, '121(PS)')" onmouseout="notifyOwner(AGV_OBJECT_MOUSEOUT, '121(PS)')" tooltip="#UNDEFINED" id="121-Graphic" objecttype="GRAPHIC">
<g zvalue="122">
<g zvalue="123">
<g zvalue="52">
<g>
<path orgstroke="#000000" orgfill="#ffffff" transform="translate(1.6666666666666288, 45.0) translate(5.0, 141.66666666666663) translate(-1.1659935022249215, -6.995961013349529) translate(2.331987004449843, 3.4979805066747645) translate(-6.995961013349529, 0.0) translate(-318.31622610740294, -206.38084989381065) translate(279.8384405339806, 277.50645352953075) translate(-65,-56) translate(-135.7864793701172, -15.95862927246094) translate(62.91673828953458, 35.28438701372545) translate(-62.79613551661424, -32.621369099539834) translate(-23.810883895874042, -7.293701173693989E-6) translate(-637.1092790527343, 18.13041815948486) translate(-8.82777467181677, 73.14441870934016) translate(21.25, 0.0) translate(670.0, -93.75) translate(12.5, 12.50006103515625)" fill="#ffffff" g2gfill="#ECF5E4" d="M304.811,361.98c0,0-0.23-0.822,0.386-1.598   c0.159-0.201,0.444-0.346,0.741-0.344c0.285,0.004,0.656,0,1.017,0.449c0.145,0.18,1.251,1.617,1.251,1.617   c0.389,0.488,0.578,0.699,0.586,1.045l0.006,0.346c0,0.26,0.016,0.381,0.424,0.479l3.313,0.742c0.198,0.08,0.39,0.266,0.504,0.563   c0.271,0.709,0.042,1.723-0.504,2.246c-0.237,0.234-0.503,0.318-0.735,0.285l-0.086-0.02l-4.52-1.008   c-0.667-0.148-1.208,0.076-1.605,0.227c-0.396,0.15-0.898,0.215-1.275,0.072c-0.475-0.18-0.846-0.6-1.109-1.057   c-0.25-0.436-0.46-0.863-0.668-1.436c-0.157-0.434-0.111-0.902,0.143-1.342c0.107-0.186,0.336-0.402,0.553-0.453   c0.26-0.061,0.546,0.006,0.816-0.018C304.453,362.746,304.772,362.652,304.811,361.98z" stroke="#000000" outline-element="true" stroke-width="0.5" g2gstroke="#312783" stroke-miterlimit="10"/>
<path orgstroke="#000000" orgfill="none" transform="translate(1.6666666666666288, 45.0) translate(5.0, 141.66666666666663) translate(-1.1659935022249215, -6.995961013349529) translate(2.331987004449843, 3.4979805066747645) translate(-6.995961013349529, 0.0) translate(-318.31622610740294, -206.38084989381065) translate(279.8384405339806, 277.50645352953075) translate(-65,-56) translate(-135.7864793701172, -15.95862927246094) translate(62.91673828953458, 35.28438701372545) translate(-62.79613551661424, -32.621369099539834) translate(-23.810883895874042, -7.293701173693989E-6) translate(-637.1092790527343, 18.13041815948486) translate(-8.82777467181677, 73.14441870934016) translate(21.25, 0.0) translate(670.0, -93.75) translate(12.5, 12.50006103515625)" fill="none" d="M304.5799865722656 362.7460021972656L305.7120056152344 364.34698486328125" stroke="#000000" stroke-width="0.25" g2gstroke="#312783" stroke-miterlimit="10"/>
<path orgstroke="#000000" orgfill="none" transform="translate(1.6666666666666288, 45.0) translate(5.0, 141.66666666666663) translate(-1.1659935022249215, -6.995961013349529) translate(2.331987004449843, 3.4979805066747645) translate(-6.995961013349529, 0.0) translate(-318.31622610740294, -206.38084989381065) translate(279.8384405339806, 277.50645352953075) translate(-65,-56) translate(-135.7864793701172, -15.95862927246094) translate(62.91673828953458, 35.28438701372545) translate(-62.79613551661424, -32.621369099539834) translate(-23.810883895874042, -7.293701173693989E-6) translate(-637.1092790527343, 18.13041815948486) translate(-8.82777467181677, 73.14441870934016) translate(21.25, 0.0) translate(670.0, -93.75) translate(12.5, 12.50006103515625)" fill="none" d="M306.008,366.931   c0.58-0.428,1.445-0.805,1.992-1.563s0.801-1.492,0.795-1.977" stroke="#000000" stroke-width="0.25" g2gstroke="#312783" stroke-miterlimit="10"/>
<path orgstroke="#000000" orgfill="none" transform="translate(1.6666666666666288, 45.0) translate(5.0, 141.66666666666663) translate(-1.1659935022249215, -6.995961013349529) translate(2.331987004449843, 3.4979805066747645) translate(-6.995961013349529, 0.0) translate(-318.31622610740294, -206.38084989381065) translate(279.8384405339806, 277.50645352953075) translate(-65,-56) translate(-135.7864793701172, -15.95862927246094) translate(62.91673828953458, 35.28438701372545) translate(-62.79613551661424, -32.621369099539834) translate(-23.810883895874042, -7.293701173693989E-6) translate(-637.1092790527343, 18.13041815948486) translate(-8.82777467181677, 73.14441870934016) translate(21.25, 0.0) translate(670.0, -93.75) translate(12.5, 12.50006103515625)" fill="none" d="M303.838,366.902   c-0.277-0.141-0.369-1.225,0.256-1.922s1.277-0.346,1.715-0.689c0.438-0.342,0.551-0.961,1.145-1.43s1.404-0.588,1.641-0.115" stroke="#000000" stroke-width="0.25" g2gstroke="#312783" stroke-miterlimit="10"/>
</g>
</g>
</g>
</g>
</g>
</g></svg>