<svg xmlns="http://www.w3.org/2000/svg" xmlns:xlink="http://www.w3.org/1999/xlink" xmlns:x="http://ns.adobe.com/Extensibility/1.0/" xmlns:graph="http://ns.adobe.com/Graphs/1.0/" xmlns:i="http://ns.adobe.com/AdobeIllustrator/10.0/" xmlns:etg="http://www.eurotaxglass.com/etg/evd/" etg:dataTimestamp="1539068912893" contentScriptType="text/ecmascript" zoomAndPan="magnify" contentStyleType="text/css" id="Layer_1" enable-background="new 0 0 1841.891 1595.279" version="1.1" xml:space="preserve" width="1841.891px" preserveAspectRatio="xMidYMid meet" viewBox="0 0 1841.891 1595.279" height="1595.279px" x="0px" y="0px"><g xmlns="http://www.w3.org/2000/svg" objecttype="PS" tooltip="#UNDEFINED" id="130">
<g onmouseover="notifyOwner(AGV_OBJECT_MOUSEOVER, '130(PS)')" transform="translate(-9.433746356535266E-6, 3.356933575560106E-7) translate(-35.71980609130861, -13.200809143066408) translate(44.708733184814434, 94.79042849731445) matrix(0.6117410612267968 0 0 0.6117410612267968 0.2921243287958965 0.477310974878083) translate(-92,-34) " onclick="clickZoom(evt); notifyOwner(AGV_OBJECT_MOUSECLICK, '130(PS)')" onmouseout="notifyOwner(AGV_OBJECT_MOUSEOUT, '130(PS)')" tooltip="#UNDEFINED" id="130-Graphic" objecttype="GRAPHIC">
<g zvalue="131">
<g zvalue="133">
<g zvalue="32">
<g>
<path orgstroke="#000000" orgfill="#ffffff" transform="translate(1.6666666666666288, 45.0) translate(5.0, 141.66666666666663) translate(-1.1659935022249215, -6.995961013349529) translate(2.331987004449843, 3.4979805066747645) translate(-6.995961013349529, 0.0) translate(-318.31622610740294, -206.38084989381065) translate(279.8384405339806, 277.50645352953075) translate(-65,-56) translate(-17.265372168284784, -15.2249190938511) translate(22.13106796116506, 14.91100323624596) translate(-135.7864793701172, -15.95862927246094) translate(283.77116719958855, 267.7721993159322) translate(-23.810883895874042, -7.293701173693989E-6) translate(-637.1092790527343, 18.13041815948486) translate(-8.82777467181677, 73.14441870934016) translate(21.25, 0.0) translate(670.0, -93.75) translate(12.5, 12.50006103515625)" fill="#ffffff" g2gfill="#ECC35D" d="M211.421,224.289   c-0.078,0.102-0.128,0.24-0.161,0.426l-0.234,0.949c-0.035,0.143-0.093,0.375-0.35,0.375c-0.25,0-0.646,0.014-1.016,0.039   c-0.604,0.043-0.832,0.186-1.123,0.354c-0.292,0.168-1.06,0.611-1.06,0.611l-0.127,0.09c-0.104,0.105-0.167,0.258-0.206,0.479   l-0.603,2.438c-0.118,0.479,0.118,0.514,0.399,0.514c0.775,0,1.655-0.088,2.595-0.154c0.236-0.016,0.323-0.029,0.245,0.289   l-1.58,6.391c-0.055,0.219-0.054,0.219-0.399,0.248c-0.249,0.021-0.648,0.014-1.022,0.039c-0.604,0.043-0.832,0.186-1.123,0.354   c-0.292,0.168-1.06,0.611-1.06,0.611l-0.085,0.053c-0.131,0.104-0.204,0.268-0.248,0.516l-0.603,2.438   c-0.118,0.479,0.118,0.514,0.399,0.514c0.721,0,1.351-0.086,2.394-0.139c0.439-0.023,0.586,0.063,0.514,0.352l-1.007,4.076   c-0.211,0.654-0.232,0.975,0.695,0.842c5.295-0.758,10.168-1.9,12.634-3.193l0.188-0.102c0.5-0.242,1.679-0.996,1.998-1.248   c0.959-0.758,2.112-2.186,3.189-4.867c0.098-0.244,0.295-0.385,0.528-0.604c1.332-1.252,2.702-3.336,3.821-10.773   c0.348-1.898,0.246-3.16,0.096-3.967c-0.168-0.91-0.922-1.162-1.588-1.162c-0.182,0-0.359,0.006-0.527,0.018   c-3.557,0.236-5.778,0.469-8.997,0.637c-0.287,0.016-0.459,0.096-0.611,0.184c-0.273,0.158-1.471,0.863-1.949,1.145   c-0.132,0.078-0.261,0.121-0.479,0.133c-0.579,0.033-1.127,0.068-1.631,0.096c-0.287,0.016-0.46,0.096-0.612,0.184   c-0.344,0.197-1.153,0.695-1.153,0.695L211.421,224.289z" stroke="#000000" outline-element="true" stroke-width="0.5" g2gstroke="#312783" stroke-miterlimit="10"/>
<path fill="#0096C8" d="M227.244,223.637c-0.171-0.91-0.921-1.16-1.591-1.16c-0.18,0-0.359,0.01-0.529,0.02   c-2.931,0.189-6.851,0.49-9.94,0.68c0,0-0.13,0.01-0.22,0.021c-0.58,0.029-1.13,0.059-1.63,0.09c-0.29,0.02-0.46,0.1-0.62,0.18   c-0.3,0.17-0.95,0.58-1.11,0.68c-0.07,0.039-0.13,0.09-0.18,0.15c-0.08,0.1-0.13,0.24-0.16,0.42l-5.3,21.43   c-0.21,0.66-0.23,0.98,0.689,0.85c5.301-0.76,10.17-1.9,12.641-3.199c0.069-0.031,0.13-0.07,0.189-0.1   c0.5-0.24,1.681-0.99,1.99-1.25c0.96-0.75,2.12-2.182,3.19-4.861c0.029-0.08,0.08-0.15,0.13-0.219l-0.03-0.031   c0.89-2.27,1.73-5.41,2.38-9.73C227.494,225.707,227.394,224.447,227.244,223.637z" transform="translate(1.6666666666666288, 45.0) translate(5.0, 141.66666666666663) translate(-1.1659935022249215, -6.995961013349529) translate(2.331987004449843, 3.4979805066747645) translate(-6.995961013349529, 0.0) translate(-318.31622610740294, -206.38084989381065) translate(279.8384405339806, 277.50645352953075) translate(-65,-56) translate(-17.265372168284784, -15.2249190938511) translate(22.13106796116506, 14.91100323624596) translate(-135.7864793701172, -15.95862927246094) translate(283.77116719958855, 267.7721993159322) translate(-23.810883895874042, -7.293701173693989E-6) translate(-637.1092790527343, 18.13041815948486) translate(-8.82777467181677, 73.14441870934016) translate(21.25, 0.0) translate(670.0, -93.75) translate(12.5, 12.50006103515625)" orgfill="#0096C8"/>
<linearGradient transform="translate(1.6666666666666288, 45.0) translate(5.0, 141.66666666666663) translate(-1.1659935022249215, -6.995961013349529) translate(2.331987004449843, 3.4979805066747645) translate(-6.995961013349529, 0.0) translate(-318.31622610740294, -206.38084989381065) translate(279.8384405339806, 277.50645352953075) translate(-65,-56) translate(-17.265372168284784, -15.2249190938511) translate(22.13106796116506, 14.91100323624596) translate(-135.7864793701172, -15.95862927246094) translate(283.77116719958855, 267.7721993159322) translate(-23.810883895874042, -7.293701173693989E-6) translate(-637.1092790527343, 18.13041815948486) translate(-8.82777467181677, 73.14441870934016) translate(21.25, 0.0) translate(670.0, -93.75) translate(12.5, 12.50006103515625)" gradientTransform="matrix(1 0 0 1 174.375 122.4554)" x1="32.308" x2="51.2166" y1="112.7347" gradientUnits="userSpaceOnUse" y2="112.7347" xmlns:xlink="http://www.w3.org/1999/xlink" xlink:type="simple" xlink:actuate="onLoad" id="123::SVGID_12_" xlink:show="other">
<stop stop-opacity="0.3" stop-color="#FFFFFF" offset="0"/>
<stop stop-opacity="0.3" stop-color="#FFFFFF" offset="0.9879"/>
</linearGradient>
<path orgfill="url(#123::SVGID_12_)" enable-background="new    " transform="translate(1.6666666666666288, 45.0) translate(5.0, 141.66666666666663) translate(-1.1659935022249215, -6.995961013349529) translate(2.331987004449843, 3.4979805066747645) translate(-6.995961013349529, 0.0) translate(-318.31622610740294, -206.38084989381065) translate(279.8384405339806, 277.50645352953075) translate(-65,-56) translate(-17.265372168284784, -15.2249190938511) translate(22.13106796116506, 14.91100323624596) translate(-135.7864793701172, -15.95862927246094) translate(283.77116719958855, 267.7721993159322) translate(-23.810883895874042, -7.293701173693989E-6) translate(-637.1092790527343, 18.13041815948486) translate(-8.82777467181677, 73.14441870934016) translate(21.25, 0.0) translate(670.0, -93.75) translate(12.5, 12.50006103515625)" fill="url(#123::SVGID_12_)" opacity="0.5" d="M214.261,242.596c1.12-0.25,2.141-0.52,3.021-0.809   c1.29-0.41,2.29-0.861,2.87-1.32c1.42-1.121,3.35-4.07,4.51-11.801c0.28-1.51,0.19-2.51,0.08-3.15c-0.06-0.32-0.21-0.529-0.41-0.67   l0.851-0.84c0.22,0.15,0.26,0.381,0.279,0.48c0.2,1.08,0.17,2.311-0.1,3.779c-1.44,9.541-3.76,13.141-5.46,14.48   c-0.23,0.18-0.521,0.369-0.87,0.551l-0.33,0.16c-2.27,1.09-6.47,2.139-11.66,2.908c-0.17,0.021-0.29,0.012-0.359-0.049l2.09-2.9   c0.069,0.09,0.25,0.121,0.58,0.07c0.77-0.109,1.529-0.23,2.26-0.359C212.541,242.957,213.432,242.787,214.261,242.596z"/>
<g>
<path orgfill="#FAFAFA" enable-background="new    " transform="translate(1.6666666666666288, 45.0) translate(5.0, 141.66666666666663) translate(-1.1659935022249215, -6.995961013349529) translate(2.331987004449843, 3.4979805066747645) translate(-6.995961013349529, 0.0) translate(-318.31622610740294, -206.38084989381065) translate(279.8384405339806, 277.50645352953075) translate(-65,-56) translate(-17.265372168284784, -15.2249190938511) translate(22.13106796116506, 14.91100323624596) translate(-135.7864793701172, -15.95862927246094) translate(283.77116719958855, 267.7721993159322) translate(-23.810883895874042, -7.293701173693989E-6) translate(-637.1092790527343, 18.13041815948486) translate(-8.82777467181677, 73.14441870934016) translate(21.25, 0.0) translate(670.0, -93.75) translate(12.5, 12.50006103515625)" fill="#FAFAFA" opacity="0.5" d="M219.894,242.744c1.7-1.34,4.021-4.939,5.46-14.48    c0.271-1.471,0.3-2.699,0.101-3.779c-0.03-0.17-0.131-0.691-1.03-0.691c-0.17,0-0.34,0-0.49,0.012c-1.2,0.08-2.57,0.18-3.99,0.279    c-2.569,0.18-5.22,0.369-7.29,0.49c-0.439,0.02-0.779,0.35-0.87,0.74l-5.18,20.58c-0.09,0.389,0.07,0.52,0.43,0.469    c5.19-0.771,9.391-1.82,11.66-2.91l0.33-0.16C219.374,243.113,219.664,242.924,219.894,242.744z M225.914,228.354    c-1.46,9.721-3.891,13.43-5.671,14.84c-0.26,0.201-0.569,0.4-0.949,0.6h-0.011c-2.47,1.301-7.34,2.441-12.63,3.201    c-0.92,0.129-0.899-0.189-0.689-0.85l5.3-21.43c0.03-0.182,0.08-0.32,0.16-0.422c0.05-0.059,0.109-0.109,0.18-0.148    c0.021-0.021,0.05-0.031,0.07-0.041c0.109-0.039,0.25-0.061,0.42-0.07c3.22-0.17,8.24-0.559,11.8-0.789    c0.17-0.01,0.35-0.02,0.53-0.02c0.66,0,1.42,0.25,1.58,1.16C226.164,225.193,226.264,226.453,225.914,228.354z"/>
<path orgfill="#FAFAFA" enable-background="new    " transform="translate(1.6666666666666288, 45.0) translate(5.0, 141.66666666666663) translate(-1.1659935022249215, -6.995961013349529) translate(2.331987004449843, 3.4979805066747645) translate(-6.995961013349529, 0.0) translate(-318.31622610740294, -206.38084989381065) translate(279.8384405339806, 277.50645352953075) translate(-65,-56) translate(-17.265372168284784, -15.2249190938511) translate(22.13106796116506, 14.91100323624596) translate(-135.7864793701172, -15.95862927246094) translate(283.77116719958855, 267.7721993159322) translate(-23.810883895874042, -7.293701173693989E-6) translate(-637.1092790527343, 18.13041815948486) translate(-8.82777467181677, 73.14441870934016) translate(21.25, 0.0) translate(670.0, -93.75) translate(12.5, 12.50006103515625)" fill="#FAFAFA" opacity="0.5" d="M224.733,225.514c0.11,0.641,0.2,1.641-0.08,3.15    c-1.16,7.73-3.09,10.68-4.51,11.801c-0.58,0.459-1.58,0.908-2.87,1.318c1.74-1.35,5.08-4.439,6.19-8.85    c1.069-4.32-0.601-6.949-1.78-8.23c0.48-0.039,0.93-0.068,1.36-0.1c0.14-0.01,0.279-0.01,0.42-0.01    C223.993,224.594,224.594,224.793,224.733,225.514z"/>
<path orgfill="#FAFAFA" enable-background="new    " transform="translate(1.6666666666666288, 45.0) translate(5.0, 141.66666666666663) translate(-1.1659935022249215, -6.995961013349529) translate(2.331987004449843, 3.4979805066747645) translate(-6.995961013349529, 0.0) translate(-318.31622610740294, -206.38084989381065) translate(279.8384405339806, 277.50645352953075) translate(-65,-56) translate(-17.265372168284784, -15.2249190938511) translate(22.13106796116506, 14.91100323624596) translate(-135.7864793701172, -15.95862927246094) translate(283.77116719958855, 267.7721993159322) translate(-23.810883895874042, -7.293701173693989E-6) translate(-637.1092790527343, 18.13041815948486) translate(-8.82777467181677, 73.14441870934016) translate(21.25, 0.0) translate(670.0, -93.75) translate(12.5, 12.50006103515625)" fill="#FAFAFA" opacity="0.3" d="M214.254,242.574c1.51-1.09,5.47-4.34,6.68-9.221    c1.14-4.59-0.82-7.27-1.99-8.449c0.931-0.08,1.87-0.141,2.74-0.201c1.18,1.281,2.85,3.91,1.78,8.23c-1.11,4.41-4.45,7.5-6.19,8.85    c-0.88,0.291-1.899,0.561-3.02,0.811L214.254,242.574L214.254,242.574z"/>
<linearGradient transform="translate(1.6666666666666288, 45.0) translate(5.0, 141.66666666666663) translate(-1.1659935022249215, -6.995961013349529) translate(2.331987004449843, 3.4979805066747645) translate(-6.995961013349529, 0.0) translate(-318.31622610740294, -206.38084989381065) translate(279.8384405339806, 277.50645352953075) translate(-65,-56) translate(-17.265372168284784, -15.2249190938511) translate(22.13106796116506, 14.91100323624596) translate(-135.7864793701172, -15.95862927246094) translate(283.77116719958855, 267.7721993159322) translate(-23.810883895874042, -7.293701173693989E-6) translate(-637.1092790527343, 18.13041815948486) translate(-8.82777467181677, 73.14441870934016) translate(21.25, 0.0) translate(670.0, -93.75) translate(12.5, 12.50006103515625)" gradientTransform="matrix(1 0 0 1 174.375 122.4554)" x1="32.9624" x2="42.7308" y1="111.9041" gradientUnits="userSpaceOnUse" y2="111.9041" xmlns:xlink="http://www.w3.org/1999/xlink" xlink:type="simple" xlink:actuate="onLoad" id="123::SVGID_13_" xlink:show="other">
<stop stop-opacity="0.1" stop-color="#FFFFFF" offset="0"/>
<stop stop-opacity="0.1" stop-color="#FFFFFF" offset="0.9879"/>
</linearGradient>
<path orgfill="url(#123::SVGID_13_)" enable-background="new    " transform="translate(1.6666666666666288, 45.0) translate(5.0, 141.66666666666663) translate(-1.1659935022249215, -6.995961013349529) translate(2.331987004449843, 3.4979805066747645) translate(-6.995961013349529, 0.0) translate(-318.31622610740294, -206.38084989381065) translate(279.8384405339806, 277.50645352953075) translate(-65,-56) translate(-17.265372168284784, -15.2249190938511) translate(22.13106796116506, 14.91100323624596) translate(-135.7864793701172, -15.95862927246094) translate(283.77116719958855, 267.7721993159322) translate(-23.810883895874042, -7.293701173693989E-6) translate(-637.1092790527343, 18.13041815948486) translate(-8.82777467181677, 73.14441870934016) translate(21.25, 0.0) translate(670.0, -93.75) translate(12.5, 12.50006103515625)" fill="url(#123::SVGID_13_)" opacity="0.6" d="M208.794,242.814l4.21-17.041    c0.04-0.25,0.13-0.389,0.29-0.459c1.069,0.979,3.56,3.719,2.31,8.76c-1.25,5.039-5.42,8.34-6.82,9.311l-0.029,0.02    C208.653,243.293,208.704,243.094,208.794,242.814z"/>
<path orgfill="#FAFAFA" enable-background="new    " transform="translate(1.6666666666666288, 45.0) translate(5.0, 141.66666666666663) translate(-1.1659935022249215, -6.995961013349529) translate(2.331987004449843, 3.4979805066747645) translate(-6.995961013349529, 0.0) translate(-318.31622610740294, -206.38084989381065) translate(279.8384405339806, 277.50645352953075) translate(-65,-56) translate(-17.265372168284784, -15.2249190938511) translate(22.13106796116506, 14.91100323624596) translate(-135.7864793701172, -15.95862927246094) translate(283.77116719958855, 267.7721993159322) translate(-23.810883895874042, -7.293701173693989E-6) translate(-637.1092790527343, 18.13041815948486) translate(-8.82777467181677, 73.14441870934016) translate(21.25, 0.0) translate(670.0, -93.75) translate(12.5, 12.50006103515625)" fill="#FAFAFA" opacity="0.3" d="M218.403,233.773c-1.25,5.031-5.41,8.33-6.81,9.311l0.01,0.039    c-0.729,0.131-1.49,0.25-2.26,0.361c-0.34,0.049-0.521,0.02-0.59-0.08l0.029-0.02c1.4-0.971,5.57-4.271,6.82-9.311    c1.25-5.041-1.24-7.781-2.31-8.76c0.1-0.051,0.22-0.07,0.38-0.08c0.76-0.041,1.64-0.09,2.58-0.15v0.061    C217.384,226.234,219.604,228.953,218.403,233.773z"/>
<path orgfill="#FAFAFA" enable-background="new    " transform="translate(1.6666666666666288, 45.0) translate(5.0, 141.66666666666663) translate(-1.1659935022249215, -6.995961013349529) translate(2.331987004449843, 3.4979805066747645) translate(-6.995961013349529, 0.0) translate(-318.31622610740294, -206.38084989381065) translate(279.8384405339806, 277.50645352953075) translate(-65,-56) translate(-17.265372168284784, -15.2249190938511) translate(22.13106796116506, 14.91100323624596) translate(-135.7864793701172, -15.95862927246094) translate(283.77116719958855, 267.7721993159322) translate(-23.810883895874042, -7.293701173693989E-6) translate(-637.1092790527343, 18.13041815948486) translate(-8.82777467181677, 73.14441870934016) translate(21.25, 0.0) translate(670.0, -93.75) translate(12.5, 12.50006103515625)" fill="#FAFAFA" opacity="0.5" d="M218.403,233.773c1.2-4.82-1.02-7.539-2.149-8.629v-0.061    c0.859-0.061,1.779-0.131,2.689-0.18c1.17,1.18,3.13,3.859,1.99,8.449c-1.21,4.881-5.17,8.131-6.68,9.221v0.02    c-0.83,0.189-1.721,0.359-2.65,0.529l-0.01-0.039C212.993,242.104,217.153,238.805,218.403,233.773z"/>
</g>
<linearGradient transform="translate(1.6666666666666288, 45.0) translate(5.0, 141.66666666666663) translate(-1.1659935022249215, -6.995961013349529) translate(2.331987004449843, 3.4979805066747645) translate(-6.995961013349529, 0.0) translate(-318.31622610740294, -206.38084989381065) translate(279.8384405339806, 277.50645352953075) translate(-65,-56) translate(-17.265372168284784, -15.2249190938511) translate(22.13106796116506, 14.91100323624596) translate(-135.7864793701172, -15.95862927246094) translate(283.77116719958855, 267.7721993159322) translate(-23.810883895874042, -7.293701173693989E-6) translate(-637.1092790527343, 18.13041815948486) translate(-8.82777467181677, 73.14441870934016) translate(21.25, 0.0) translate(670.0, -93.75) translate(12.5, 12.50006103515625)" gradientTransform="matrix(1 0 0 1 174.375 122.4554)" x1="27.6558" x2="55.0248" y1="112.6691" gradientUnits="userSpaceOnUse" y2="112.6691" xmlns:xlink="http://www.w3.org/1999/xlink" xlink:type="simple" xlink:actuate="onLoad" id="123::SVGID_14_" xlink:show="other">
<stop stop-opacity="0.18" stop-color="#FFFFFF" offset="0.0848"/>
<stop stop-opacity="0.39" stop-color="#FFFFFF" offset="0.2846"/>
<stop stop-opacity="0.64" stop-color="#FFFFFF" offset="0.4055"/>
<stop stop-opacity="0.21" stop-color="#FFFFFF" offset="0.6061"/>
<stop stop-opacity="0.5101" stop-color="#FFFFFF" offset="0.7147"/>
<stop stop-opacity="0.65" stop-color="#FFFFFF" offset="0.779"/>
<stop stop-opacity="0.16" stop-color="#FFFFFF" offset="0.9302"/>
<stop stop-opacity="0.19" stop-color="#FFFFFF" offset="0.9879"/>
</linearGradient>
<path orgfill="url(#123::SVGID_14_)" enable-background="new    " transform="translate(1.6666666666666288, 45.0) translate(5.0, 141.66666666666663) translate(-1.1659935022249215, -6.995961013349529) translate(2.331987004449843, 3.4979805066747645) translate(-6.995961013349529, 0.0) translate(-318.31622610740294, -206.38084989381065) translate(279.8384405339806, 277.50645352953075) translate(-65,-56) translate(-17.265372168284784, -15.2249190938511) translate(22.13106796116506, 14.91100323624596) translate(-135.7864793701172, -15.95862927246094) translate(283.77116719958855, 267.7721993159322) translate(-23.810883895874042, -7.293701173693989E-6) translate(-637.1092790527343, 18.13041815948486) translate(-8.82777467181677, 73.14441870934016) translate(21.25, 0.0) translate(670.0, -93.75) translate(12.5, 12.50006103515625)" fill="url(#123::SVGID_14_)" opacity="0.6" d="M211.023,225.664l0.239-0.949   c0.03-0.18,0.08-0.32,0.16-0.42c0.051-0.061,0.11-0.111,0.181-0.15c0.12-0.061,0.279-0.1,0.5-0.109   c3.21-0.17,8.239-0.561,11.79-0.791c0.17-0.01,0.35-0.02,0.529-0.02c0.67,0,1.42,0.25,1.59,1.16c0.15,0.811,0.25,2.07-0.1,3.969   c-1.46,9.721-3.89,13.441-5.67,14.842c-0.21,0.158-0.46,0.34-0.76,0.5c-0.061,0.029-0.12,0.068-0.19,0.1   c-2.47,1.299-7.34,2.439-12.64,3.199c-0.92,0.131-0.9-0.189-0.69-0.85l1.011-4.07c0.02-0.08,0.05-0.209,0.05-0.209   S211.013,225.725,211.023,225.664z"/>
<path stroke-linecap="round" orgstroke="#000000" orgfill="none" transform="translate(1.6666666666666288, 45.0) translate(5.0, 141.66666666666663) translate(-1.1659935022249215, -6.995961013349529) translate(2.331987004449843, 3.4979805066747645) translate(-6.995961013349529, 0.0) translate(-318.31622610740294, -206.38084989381065) translate(279.8384405339806, 277.50645352953075) translate(-65,-56) translate(-17.265372168284784, -15.2249190938511) translate(22.13106796116506, 14.91100323624596) translate(-135.7864793701172, -15.95862927246094) translate(283.77116719958855, 267.7721993159322) translate(-23.810883895874042, -7.293701173693989E-6) translate(-637.1092790527343, 18.13041815948486) translate(-8.82777467181677, 73.14441870934016) translate(21.25, 0.0) translate(670.0, -93.75) translate(12.5, 12.50006103515625)" fill="none" stroke-linejoin="round" d="M227.05099487304688 223.02699279785156L229.0019989013672 221.88299560546875" stroke="#000000" stroke-width="0.25" g2gstroke="#312783" stroke-miterlimit="10"/>
<path stroke-linecap="round" orgstroke="#000000" orgfill="none" transform="translate(1.6666666666666288, 45.0) translate(5.0, 141.66666666666663) translate(-1.1659935022249215, -6.995961013349529) translate(2.331987004449843, 3.4979805066747645) translate(-6.995961013349529, 0.0) translate(-318.31622610740294, -206.38084989381065) translate(279.8384405339806, 277.50645352953075) translate(-65,-56) translate(-17.265372168284784, -15.2249190938511) translate(22.13106796116506, 14.91100323624596) translate(-135.7864793701172, -15.95862927246094) translate(283.77116719958855, 267.7721993159322) translate(-23.810883895874042, -7.293701173693989E-6) translate(-637.1092790527343, 18.13041815948486) translate(-8.82777467181677, 73.14441870934016) translate(21.25, 0.0) translate(670.0, -93.75) translate(12.5, 12.50006103515625)" fill="none" stroke-linejoin="round" d="   M207.862,238.061c-1.002,0.064-1.94,0.123-2.761,0.166c-0.271,0.014-0.459,0.061-0.59,0.166" stroke="#000000" stroke-width="0.25" g2gstroke="#312783" stroke-miterlimit="10"/>
<path stroke-linecap="round" orgstroke="#000000" orgfill="none" transform="translate(1.6666666666666288, 45.0) translate(5.0, 141.66666666666663) translate(-1.1659935022249215, -6.995961013349529) translate(2.331987004449843, 3.4979805066747645) translate(-6.995961013349529, 0.0) translate(-318.31622610740294, -206.38084989381065) translate(279.8384405339806, 277.50645352953075) translate(-65,-56) translate(-17.265372168284784, -15.2249190938511) translate(22.13106796116506, 14.91100323624596) translate(-135.7864793701172, -15.95862927246094) translate(283.77116719958855, 267.7721993159322) translate(-23.810883895874042, -7.293701173693989E-6) translate(-637.1092790527343, 18.13041815948486) translate(-8.82777467181677, 73.14441870934016) translate(21.25, 0.0) translate(670.0, -93.75) translate(12.5, 12.50006103515625)" fill="none" stroke-linejoin="round" d="M208.14700317382812 237.3070068359375L207.02000427246094 241.86500549316406" stroke="#000000" stroke-width="0.25" g2gstroke="#312783" stroke-miterlimit="10"/>
<path stroke-linecap="round" orgstroke="#000000" orgfill="none" transform="translate(1.6666666666666288, 45.0) translate(5.0, 141.66666666666663) translate(-1.1659935022249215, -6.995961013349529) translate(2.331987004449843, 3.4979805066747645) translate(-6.995961013349529, 0.0) translate(-318.31622610740294, -206.38084989381065) translate(279.8384405339806, 277.50645352953075) translate(-65,-56) translate(-17.265372168284784, -15.2249190938511) translate(22.13106796116506, 14.91100323624596) translate(-135.7864793701172, -15.95862927246094) translate(283.77116719958855, 267.7721993159322) translate(-23.810883895874042, -7.293701173693989E-6) translate(-637.1092790527343, 18.13041815948486) translate(-8.82777467181677, 73.14441870934016) translate(21.25, 0.0) translate(670.0, -93.75) translate(12.5, 12.50006103515625)" fill="none" stroke-linejoin="round" d="   M207.351,227.133c0.131-0.131,0.329-0.188,0.632-0.203c0.82-0.043,1.759-0.102,2.761-0.166" stroke="#000000" stroke-width="0.25" g2gstroke="#312783" stroke-miterlimit="10"/>
<path stroke-linecap="round" orgstroke="#000000" orgfill="none" transform="translate(1.6666666666666288, 45.0) translate(5.0, 141.66666666666663) translate(-1.1659935022249215, -6.995961013349529) translate(2.331987004449843, 3.4979805066747645) translate(-6.995961013349529, 0.0) translate(-318.31622610740294, -206.38084989381065) translate(279.8384405339806, 277.50645352953075) translate(-65,-56) translate(-17.265372168284784, -15.2249190938511) translate(22.13106796116506, 14.91100323624596) translate(-135.7864793701172, -15.95862927246094) translate(283.77116719958855, 267.7721993159322) translate(-23.810883895874042, -7.293701173693989E-6) translate(-637.1092790527343, 18.13041815948486) translate(-8.82777467181677, 73.14441870934016) translate(21.25, 0.0) translate(670.0, -93.75) translate(12.5, 12.50006103515625)" fill="none" stroke-linejoin="round" d="   M224.764,237.336c0.891-2.275,1.732-5.408,2.383-9.73c0.348-1.898,0.246-3.16,0.096-3.967c-0.168-0.91-0.922-1.162-1.588-1.162   c-0.182,0-0.359,0.006-0.527,0.018c-2.931,0.193-6.857,0.492-9.949,0.684" stroke="#000000" stroke-width="0.25" g2gstroke="#312783" stroke-miterlimit="10"/>
<path stroke-linecap="round" orgstroke="#000000" orgfill="none" transform="translate(1.6666666666666288, 45.0) translate(5.0, 141.66666666666663) translate(-1.1659935022249215, -6.995961013349529) translate(2.331987004449843, 3.4979805066747645) translate(-6.995961013349529, 0.0) translate(-318.31622610740294, -206.38084989381065) translate(279.8384405339806, 277.50645352953075) translate(-65,-56) translate(-17.265372168284784, -15.2249190938511) translate(22.13106796116506, 14.91100323624596) translate(-135.7864793701172, -15.95862927246094) translate(283.77116719958855, 267.7721993159322) translate(-23.810883895874042, -7.293701173693989E-6) translate(-637.1092790527343, 18.13041815948486) translate(-8.82777467181677, 73.14441870934016) translate(21.25, 0.0) translate(670.0, -93.75) translate(12.5, 12.50006103515625)" fill="none" stroke-linejoin="round" d="M209.84300231933594 230.44700622558594L210.968994140625 225.89500427246094" stroke="#000000" stroke-width="0.25" g2gstroke="#312783" stroke-miterlimit="10"/>
<path orgstroke="#000000" orgfill="none" transform="translate(1.6666666666666288, 45.0) translate(5.0, 141.66666666666663) translate(-1.1659935022249215, -6.995961013349529) translate(2.331987004449843, 3.4979805066747645) translate(-6.995961013349529, 0.0) translate(-318.31622610740294, -206.38084989381065) translate(279.8384405339806, 277.50645352953075) translate(-65,-56) translate(-17.265372168284784, -15.2249190938511) translate(22.13106796116506, 14.91100323624596) translate(-135.7864793701172, -15.95862927246094) translate(283.77116719958855, 267.7721993159322) translate(-23.810883895874042, -7.293701173693989E-6) translate(-637.1092790527343, 18.13041815948486) translate(-8.82777467181677, 73.14441870934016) translate(21.25, 0.0) translate(670.0, -93.75) translate(12.5, 12.50006103515625)" fill="none" d="M205.229,240.57   c0.434,0.125,0.988-0.082,1.239-0.463c0.25-0.381,0.101-0.791-0.336-0.918c-0.434-0.123-0.988,0.084-1.239,0.465   C204.645,240.035,204.793,240.445,205.229,240.57z" stroke="#000000" stroke-width="0.25" g2gstroke="#312783" stroke-miterlimit="10"/>
<path orgstroke="#000000" orgfill="none" transform="translate(1.6666666666666288, 45.0) translate(5.0, 141.66666666666663) translate(-1.1659935022249215, -6.995961013349529) translate(2.331987004449843, 3.4979805066747645) translate(-6.995961013349529, 0.0) translate(-318.31622610740294, -206.38084989381065) translate(279.8384405339806, 277.50645352953075) translate(-65,-56) translate(-17.265372168284784, -15.2249190938511) translate(22.13106796116506, 14.91100323624596) translate(-135.7864793701172, -15.95862927246094) translate(283.77116719958855, 267.7721993159322) translate(-23.810883895874042, -7.293701173693989E-6) translate(-637.1092790527343, 18.13041815948486) translate(-8.82777467181677, 73.14441870934016) translate(21.25, 0.0) translate(670.0, -93.75) translate(12.5, 12.50006103515625)" fill="none" d="M207.948,229.082   c0.434,0.123,0.988-0.084,1.239-0.465c0.25-0.381,0.101-0.791-0.336-0.918c-0.434-0.123-0.988,0.084-1.239,0.465   C207.364,228.547,207.513,228.957,207.948,229.082z" stroke="#000000" stroke-width="0.25" g2gstroke="#312783" stroke-miterlimit="10"/>
<path orgstroke="#000000" orgfill="none" transform="translate(1.6666666666666288, 45.0) translate(5.0, 141.66666666666663) translate(-1.1659935022249215, -6.995961013349529) translate(2.331987004449843, 3.4979805066747645) translate(-6.995961013349529, 0.0) translate(-318.31622610740294, -206.38084989381065) translate(279.8384405339806, 277.50645352953075) translate(-65,-56) translate(-17.265372168284784, -15.2249190938511) translate(22.13106796116506, 14.91100323624596) translate(-135.7864793701172, -15.95862927246094) translate(283.77116719958855, 267.7721993159322) translate(-23.810883895874042, -7.293701173693989E-6) translate(-637.1092790527343, 18.13041815948486) translate(-8.82777467181677, 73.14441870934016) translate(21.25, 0.0) translate(670.0, -93.75) translate(12.5, 12.50006103515625)" fill="none" d="M211.421,224.289   c-0.078,0.102-0.128,0.24-0.161,0.426l-0.234,0.949c-0.035,0.143-0.093,0.375-0.35,0.375c-0.25,0-0.646,0.014-1.016,0.039   c-0.604,0.043-0.832,0.186-1.123,0.354c-0.292,0.168-1.06,0.611-1.06,0.611l-0.127,0.09c-0.104,0.105-0.167,0.258-0.206,0.479   l-0.603,2.438c-0.118,0.479,0.118,0.514,0.399,0.514c0.775,0,1.655-0.088,2.595-0.154c0.236-0.016,0.323-0.029,0.245,0.289   l-1.58,6.391c-0.055,0.219-0.054,0.219-0.399,0.248c-0.249,0.021-0.648,0.014-1.022,0.039c-0.604,0.043-0.832,0.186-1.123,0.354   c-0.292,0.168-1.06,0.611-1.06,0.611l-0.085,0.053c-0.131,0.104-0.204,0.268-0.248,0.516l-0.603,2.438   c-0.118,0.479,0.118,0.514,0.399,0.514c0.721,0,1.351-0.086,2.394-0.139c0.439-0.023,0.586,0.063,0.514,0.352l-1.007,4.076   c-0.211,0.654-0.232,0.975,0.695,0.842c5.295-0.758,10.168-1.9,12.634-3.193l0.188-0.102c0.5-0.242,1.679-0.996,1.998-1.248   c0.959-0.758,2.112-2.186,3.189-4.867c0.098-0.244,0.295-0.385,0.528-0.604c1.332-1.252,2.702-3.336,3.821-10.773   c0.348-1.898,0.246-3.16,0.096-3.967c-0.168-0.91-0.922-1.162-1.588-1.162c-0.182,0-0.359,0.006-0.527,0.018   c-3.557,0.236-5.778,0.469-8.997,0.637c-0.287,0.016-0.459,0.096-0.611,0.184c-0.273,0.158-1.471,0.863-1.949,1.145   c-0.132,0.078-0.261,0.121-0.479,0.133c-0.579,0.033-1.127,0.068-1.631,0.096c-0.287,0.016-0.46,0.096-0.612,0.184   c-0.344,0.197-1.153,0.695-1.153,0.695L211.421,224.289z" stroke="#000000" stroke-width="0.25" g2gstroke="#312783" stroke-miterlimit="10"/>
</g>
</g>
</g>
</g>
</g>
</g></svg>