<svg xmlns="http://www.w3.org/2000/svg" xmlns:xlink="http://www.w3.org/1999/xlink" xmlns:x="http://ns.adobe.com/Extensibility/1.0/" xmlns:graph="http://ns.adobe.com/Graphs/1.0/" xmlns:i="http://ns.adobe.com/AdobeIllustrator/10.0/" xmlns:etg="http://www.eurotaxglass.com/etg/evd/" etg:dataTimestamp="1539068912893" contentScriptType="text/ecmascript" zoomAndPan="magnify" contentStyleType="text/css" id="Layer_1" enable-background="new 0 0 1841.891 1595.279" version="1.1" xml:space="preserve" width="1841.891px" preserveAspectRatio="xMidYMid meet" viewBox="0 0 1841.891 1595.279" height="1595.279px" x="0px" y="0px"><g xmlns="http://www.w3.org/2000/svg" objecttype="PS" tooltip="#UNDEFINED" id="133">
<g onmouseover="notifyOwner(AGV_OBJECT_MOUSEOVER, '133(PS)')" transform="translate(-9.433746356535266E-6, 3.356933575560106E-7) translate(-35.71980609130861, -13.200809143066408) translate(44.708733184814434, 94.79042849731445) matrix(0.6117410612267968 0 0 0.6117410612267968 0.2921243287958965 0.477310974878083) translate(-92,-34) " onclick="clickZoom(evt); notifyOwner(AGV_OBJECT_MOUSECLICK, '133(PS)')" onmouseout="notifyOwner(AGV_OBJECT_MOUSEOUT, '133(PS)')" tooltip="#UNDEFINED" id="133-Graphic" objecttype="GRAPHIC">
<g zvalue="134">
<g zvalue="14">
<g zvalue="12">
<g>
<path orgstroke="#000000" orgfill="#ffffff" transform="translate(-45.05488397989893, -32.43951646552722) translate(-35.13613470669452, -556.9077351011078) translate(-429.7546232399717, 509.99926243415723) translate(126.66666666666663, 110.0) translate(549,-31) translate(-495.7378648681641, -29.94185223388672) translate(-46.28066676256822, -23.63268090003487) translate(81.0, -7.0) translate(417.0, -5.0) translate(10.0, 10.00006103515625)" fill="#ffffff" g2gfill="#ECC35D" d="M540.236,573.15   c-0.148,0.887-0.529,3.07-0.711,4.105c-0.057,0.328-0.125,0.377-0.377,0.523l-2.457,1.416c-0.188,0.109-0.264,0.154-0.264,0.402   v0.379c0,0.252,0.119,0.359,0.494,0.387c0.695,0.049,1.557,0.002,2.316-0.443C595.27,547.128,763.059,448.22,763.059,448.22   c3.207-1.852,5.793-5.824,7.65-11.539c0.16-0.492,0.307-0.994,0.445-1.504c0.068-0.256,0.096-0.373-0.111-0.492l-0.342-0.199   c-0.219-0.127-0.369-0.092-0.469-0.031c-12.592,7.855-206.939,124.582-229.752,138.26   C540.287,572.834,540.273,572.932,540.236,573.15z" stroke="#000000" outline-element="true" stroke-width="0.5" g2gstroke="#312783" stroke-miterlimit="10"/>
<path stroke-linecap="round" orgstroke="#000000" orgfill="none" transform="translate(-45.05488397989893, -32.43951646552722) translate(-35.13613470669452, -556.9077351011078) translate(-429.7546232399717, 509.99926243415723) translate(126.66666666666663, 110.0) translate(549,-31) translate(-495.7378648681641, -29.94185223388672) translate(-46.28066676256822, -23.63268090003487) translate(81.0, -7.0) translate(417.0, -5.0) translate(10.0, 10.00006103515625)" fill="none" stroke-linejoin="round" d="   M551.391,572.074c5.186-4.07,17.299-12.881,40.447-26.412c33.076-19.332,137.213-82.305,152.242-91.332   c7.139-4.289,14.152-6.607,17.604-6.406" stroke="#000000" stroke-width="0.25" g2gstroke="#312783" stroke-miterlimit="10"/>
<path orgstroke="#000000" orgfill="none" transform="translate(-45.05488397989893, -32.43951646552722) translate(-35.13613470669452, -556.9077351011078) translate(-429.7546232399717, 509.99926243415723) translate(126.66666666666663, 110.0) translate(549,-31) translate(-495.7378648681641, -29.94185223388672) translate(-46.28066676256822, -23.63268090003487) translate(81.0, -7.0) translate(417.0, -5.0) translate(10.0, 10.00006103515625)" fill="none" d="M539.238,579.92   c0.479-0.277,0.848-0.707,0.959-1.35c0,0,0.822-4.648,0.91-5.264" stroke="#000000" stroke-width="0.25" g2gstroke="#312783" stroke-miterlimit="10"/>
<path orgstroke="#000000" orgfill="none" transform="translate(-45.05488397989893, -32.43951646552722) translate(-35.13613470669452, -556.9077351011078) translate(-429.7546232399717, 509.99926243415723) translate(126.66666666666663, 110.0) translate(549,-31) translate(-495.7378648681641, -29.94185223388672) translate(-46.28066676256822, -23.63268090003487) translate(81.0, -7.0) translate(417.0, -5.0) translate(10.0, 10.00006103515625)" fill="none" d="M536.428,579.35c1.057,0.309,2.68,0.307,3-1.535   c0,0,0.119-0.682,0.156-0.887" stroke="#000000" stroke-width="0.25" g2gstroke="#312783" stroke-miterlimit="10"/>
<path stroke-linecap="round" orgstroke="#000000" orgfill="none" transform="translate(-45.05488397989893, -32.43951646552722) translate(-35.13613470669452, -556.9077351011078) translate(-429.7546232399717, 509.99926243415723) translate(126.66666666666663, 110.0) translate(549,-31) translate(-495.7378648681641, -29.94185223388672) translate(-46.28066676256822, -23.63268090003487) translate(81.0, -7.0) translate(417.0, -5.0) translate(10.0, 10.00006103515625)" fill="none" stroke-linejoin="round" d="   M540.385,572.891l0.463,0.268c0.26,0.148,0.361,0.088,0.553-0.027c23.299-13.973,217.676-130.74,229.711-138.238" stroke="#000000" stroke-width="0.25" g2gstroke="#312783" stroke-miterlimit="10"/>
</g>
</g>
</g>
</g>
</g>
</g></svg>