<svg xmlns="http://www.w3.org/2000/svg" xmlns:xlink="http://www.w3.org/1999/xlink" xmlns:x="http://ns.adobe.com/Extensibility/1.0/" xmlns:graph="http://ns.adobe.com/Graphs/1.0/" xmlns:i="http://ns.adobe.com/AdobeIllustrator/10.0/" xmlns:etg="http://www.eurotaxglass.com/etg/evd/" etg:dataTimestamp="1539068912893" contentScriptType="text/ecmascript" zoomAndPan="magnify" contentStyleType="text/css" id="Layer_1" enable-background="new 0 0 1841.891 1595.279" version="1.1" xml:space="preserve" width="1841.891px" preserveAspectRatio="xMidYMid meet" viewBox="0 0 1841.891 1595.279" height="1595.279px" x="0px" y="0px"><g xmlns="http://www.w3.org/2000/svg" objecttype="PS" tooltip="#UNDEFINED" id="143">
<g onmouseover="notifyOwner(AGV_OBJECT_MOUSEOVER, '143(PS)')" transform="translate(-9.433746356535266E-6, 3.356933575560106E-7) translate(-35.71980609130861, -13.200809143066408) translate(44.708733184814434, 94.79042849731445) matrix(0.6117410612267968 0 0 0.6117410612267968 0.2921243287958965 0.477310974878083) translate(-92,-34) " onclick="clickZoom(evt); notifyOwner(AGV_OBJECT_MOUSECLICK, '143(PS)')" onmouseout="notifyOwner(AGV_OBJECT_MOUSEOUT, '143(PS)')" tooltip="#UNDEFINED" id="143-Graphic" objecttype="GRAPHIC">
<g zvalue="144">
<g zvalue="30">
<g zvalue="22">
<g>
<path orgstroke="#000000" orgfill="#ffffff" transform="translate(-691.5254507698542, 52.22457831334839) translate(219.70339842167255, -23.41101786460439) translate(664,81) translate(30.298809631347638, 36.772926666259764) translate(-637.0022509266453, -53.86035292387896) translate(-2.4136492458565044, -1.8102369343923783) translate(-85.68454822790818, -41.032037179561655) translate(-13.275070852211229, 25.946729392958105) translate(539.5276378078531, -260.69612751219796) translate(-316.2438647816483, 57.78542379731107) translate(481.0, 219.0) translate(10.0, 10.00006103515625)" fill="#ffffff" g2gfill="#ECF5E4" d="M599.981,247.195   c-0.126-0.08-0.221-0.117-0.435-0.244c-0.2-0.121-0.545-0.365-0.544-0.777c0.014-0.418-0.16-0.514-0.16-0.514   c-0.095-0.066-0.164-0.189-0.169-0.34c0,0,0.049-0.129-0.177-0.268c-0.227-0.139-0.554-0.215-0.554-0.215l-0.318-0.012   c-0.239,0.012-0.417-0.189-0.392-0.49c0.014-0.34,0.283-0.693,0.586-0.773c0.241-0.068,0.443,0.061,0.494,0.291   c0,0-0.053,0.117,0.197,0.252c0.245,0.139,0.444,0.33,0.621,0.34c0.177,0.006,0.381-0.295,0.908,0.02   c0.182,0.088,0.455-0.064,0.71,0.012c0.399,0.127,2.374,1.313,2.374,1.313c0.195,0.168,0.336,0.139,0.592,0.043   c0.128-0.049,0.255-0.098,0.381-0.145c0.455-0.168,1.167-0.48,1.359,0.273c0.193,0.756,0.279,1.168,0.312,1.615   c0.203,2.883-0.335,4.693-1.488,6.188c-0.173,0.225-0.393,0.164-0.674,0c-0.281-0.162-3.923-2.605-4.233-2.824   c-0.31-0.217-0.371-0.357-0.371-0.699c0-0.34,0-1.775,0-2.027s0.094-0.475,0.371-0.605c0,0,0.148-0.051,0.389-0.168   C600.03,247.308,600.126,247.279,599.981,247.195z" stroke="#000000" outline-element="true" stroke-width="0.5" g2gstroke="#312783" stroke-miterlimit="10"/>
<path orgstroke="#000000" orgfill="none" transform="translate(-691.5254507698542, 52.22457831334839) translate(219.70339842167255, -23.41101786460439) translate(664,81) translate(30.298809631347638, 36.772926666259764) translate(-637.0022509266453, -53.86035292387896) translate(-2.4136492458565044, -1.8102369343923783) translate(-85.68454822790818, -41.032037179561655) translate(-13.275070852211229, 25.946729392958105) translate(539.5276378078531, -260.69612751219796) translate(-316.2438647816483, 57.78542379731107) translate(481.0, 219.0) translate(10.0, 10.00006103515625)" fill="none" d="M603.46,245.927   c-1.37,0.525-2.777,1.117-3.529,1.439" stroke="#000000" stroke-width="0.25" g2gstroke="#312783" stroke-miterlimit="10"/>
<path stroke-linecap="round" orgstroke="#000000" orgfill="none" transform="translate(-691.5254507698542, 52.22457831334839) translate(219.70339842167255, -23.41101786460439) translate(664,81) translate(30.298809631347638, 36.772926666259764) translate(-637.0022509266453, -53.86035292387896) translate(-2.4136492458565044, -1.8102369343923783) translate(-85.68454822790818, -41.032037179561655) translate(-13.275070852211229, 25.946729392958105) translate(539.5276378078531, -260.69612751219796) translate(-316.2438647816483, 57.78542379731107) translate(481.0, 219.0) translate(10.0, 10.00006103515625)" fill="none" stroke-linejoin="round" d="   M604.074,251.482c0.085-0.166,0.161-0.334,0.228-0.502c0.813-2.031,1.113-3.992,0.873-5.436" stroke="#000000" stroke-width="0.25" g2gstroke="#312783" stroke-miterlimit="10"/>
<path stroke-linecap="round" orgstroke="#000000" orgfill="none" transform="translate(-691.5254507698542, 52.22457831334839) translate(219.70339842167255, -23.41101786460439) translate(664,81) translate(30.298809631347638, 36.772926666259764) translate(-637.0022509266453, -53.86035292387896) translate(-2.4136492458565044, -1.8102369343923783) translate(-85.68454822790818, -41.032037179561655) translate(-13.275070852211229, 25.946729392958105) translate(539.5276378078531, -260.69612751219796) translate(-316.2438647816483, 57.78542379731107) translate(481.0, 219.0) translate(10.0, 10.00006103515625)" fill="none" stroke-linejoin="round" d="   M599.26,247.871c0.724,0.479,3.891,2.586,4.331,3.051c0.5,0.525,0.668,0.852,0.785,1.258c0.093,0.328,0,0.904,0,1.111   c0,0.148,0,0.326-0.134,0.541" stroke="#000000" stroke-width="0.25" g2gstroke="#312783" stroke-miterlimit="10"/>
<ellipse orgstroke="#000000" stroke="#000000" stroke-linecap="round" transform="translate(-691.5254507698542, 52.22457831334839) translate(219.70339842167255, -23.41101786460439) translate(664,81) translate(30.298809631347638, 36.772926666259764) translate(-637.0022509266453, -53.86035292387896) translate(-2.4136492458565044, -1.8102369343923783) translate(-85.68454822790818, -41.032037179561655) translate(-13.275070852211229, 25.946729392958105) translate(539.5276378078531, -260.69612751219796) translate(-316.2438647816483, 57.78542379731107) translate(481.0, 219.0) translate(10.0, 10.00006103515625) matrix(-0.1447 0.9895 -0.9895 -0.1447 940.5007 -312.2399)" stroke-miterlimit="10" orgfill="none" fill="none" stroke-width="0.25" stroke-linejoin="round" cx="605.201" rx="0.88" g2gstroke="#312783" ry="0.189" cy="250.365"/>
<path orgstroke="#000000" orgfill="none" transform="translate(-691.5254507698542, 52.22457831334839) translate(219.70339842167255, -23.41101786460439) translate(664,81) translate(30.298809631347638, 36.772926666259764) translate(-637.0022509266453, -53.86035292387896) translate(-2.4136492458565044, -1.8102369343923783) translate(-85.68454822790818, -41.032037179561655) translate(-13.275070852211229, 25.946729392958105) translate(539.5276378078531, -260.69612751219796) translate(-316.2438647816483, 57.78542379731107) translate(481.0, 219.0) translate(10.0, 10.00006103515625)" fill="none" d="M600.211,247.248   c-0.07-0.213-0.157-0.533-0.133-0.686c0.096-0.654,0.636-1.338,1.2-1.527c0.038-0.014,0.383-0.086,0.615,0.051" stroke="#000000" stroke-width="0.25" g2gstroke="#312783" stroke-miterlimit="10"/>
<path orgstroke="#000000" orgfill="none" transform="translate(-691.5254507698542, 52.22457831334839) translate(219.70339842167255, -23.41101786460439) translate(664,81) translate(30.298809631347638, 36.772926666259764) translate(-637.0022509266453, -53.86035292387896) translate(-2.4136492458565044, -1.8102369343923783) translate(-85.68454822790818, -41.032037179561655) translate(-13.275070852211229, 25.946729392958105) translate(539.5276378078531, -260.69612751219796) translate(-316.2438647816483, 57.78542379731107) translate(481.0, 219.0) translate(10.0, 10.00006103515625)" fill="none" d="M599.002,246.07   c0.114-0.941,0.602-1.449,1.176-1.566" stroke="#000000" stroke-width="0.25" g2gstroke="#312783" stroke-miterlimit="10"/>
<path orgstroke="#000000" orgfill="none" transform="translate(-691.5254507698542, 52.22457831334839) translate(219.70339842167255, -23.41101786460439) translate(664,81) translate(30.298809631347638, 36.772926666259764) translate(-637.0022509266453, -53.86035292387896) translate(-2.4136492458565044, -1.8102369343923783) translate(-85.68454822790818, -41.032037179561655) translate(-13.275070852211229, 25.946729392958105) translate(539.5276378078531, -260.69612751219796) translate(-316.2438647816483, 57.78542379731107) translate(481.0, 219.0) translate(10.0, 10.00006103515625)" fill="none" d="M598.675,245.328   c-0.003-0.035-0.003-0.063-0.001-0.088c0.02-0.34,0.152-0.693,0.456-0.783" stroke="#000000" stroke-width="0.25" g2gstroke="#312783" stroke-miterlimit="10"/>
<path orgstroke="#000000" orgfill="none" transform="translate(-691.5254507698542, 52.22457831334839) translate(219.70339842167255, -23.41101786460439) translate(664,81) translate(30.298809631347638, 36.772926666259764) translate(-637.0022509266453, -53.86035292387896) translate(-2.4136492458565044, -1.8102369343923783) translate(-85.68454822790818, -41.032037179561655) translate(-13.275070852211229, 25.946729392958105) translate(539.5276378078531, -260.69612751219796) translate(-316.2438647816483, 57.78542379731107) translate(481.0, 219.0) translate(10.0, 10.00006103515625)" fill="none" d="M597.948,244.847   c-0.392-0.67,0.315-0.848,0.315-0.848" stroke="#000000" stroke-width="0.25" g2gstroke="#312783" stroke-miterlimit="10"/>
</g>
</g>
</g>
</g>
</g>
</g></svg>