<svg xmlns="http://www.w3.org/2000/svg" xmlns:xlink="http://www.w3.org/1999/xlink" xmlns:x="http://ns.adobe.com/Extensibility/1.0/" xmlns:graph="http://ns.adobe.com/Graphs/1.0/" xmlns:i="http://ns.adobe.com/AdobeIllustrator/10.0/" xmlns:etg="http://www.eurotaxglass.com/etg/evd/" etg:dataTimestamp="1539068912893" contentScriptType="text/ecmascript" zoomAndPan="magnify" contentStyleType="text/css" id="Layer_1" enable-background="new 0 0 1841.891 1595.279" version="1.1" xml:space="preserve" width="1841.891px" preserveAspectRatio="xMidYMid meet" viewBox="0 0 1841.891 1595.279" height="1595.279px" x="0px" y="0px"><g xmlns="http://www.w3.org/2000/svg" objecttype="PS" tooltip="#UNDEFINED" id="156">
<g onmouseover="notifyOwner(AGV_OBJECT_MOUSEOVER, '156(PS)')" transform="translate(-9.433746356535266E-6, 3.356933575560106E-7) translate(-35.71980609130861, -13.200809143066408) translate(44.708733184814434, 94.79042849731445) matrix(0.6117410612267968 0 0 0.6117410612267968 0.2921243287958965 0.477310974878083) translate(-92,-34) " onclick="clickZoom(evt); notifyOwner(AGV_OBJECT_MOUSECLICK, '156(PS)')" onmouseout="notifyOwner(AGV_OBJECT_MOUSEOUT, '156(PS)')" tooltip="#UNDEFINED" id="156-Graphic" objecttype="GRAPHIC">
<g zvalue="157">
<g zvalue="22">
<g zvalue="18">
<g>
<path orgstroke="#000000" orgfill="#ffffff" transform="translate(-691.5254507698542, 52.22457831334839) translate(-16.467393441228978, -61.43604476150841) translate(-1.8008475280464609, -381.7796759458569) translate(199.89407561316102, 180.0847528046495) translate(708,319) translate(14.169231994628888, 42.77478060913086) translate(-262.62181823049787, -408.9745342722613) translate(-150.41806926514585, 275.6309485453212) translate(401.0, 94.0) translate(10.0, 10.00006103515625)" fill="#ffffff" g2gfill="#464646" d="M567.233,294.035   c2.822-20.118,3.709-41.359,3.506-61.87c-0.077-7.716-0.455-13.585-3.818-23.917c-0.172-0.529-0.664-1.717-0.72-1.876   c-0.432-1.246-0.536-2.247-0.843-4.153c-5.575-34.681-12.672-71.03-15.104-78.26c-0.182-0.543-0.097-0.448-0.633-0.782   c-0.168-0.104-0.705-0.363-0.705-0.363c-0.326-0.137-0.473-0.068-0.735,0.085c-1.481,0.965-2.968,1.939-4.464,2.923   c-19.056,12.528-34.054,25.138-43.306,32.44c-12.617,9.962-23.683,21.723-32.704,35.032c-10.631,15.685-25.168,38.396-35.96,60.13   l-1.188,2.414c-1.652,3.385-3.205,6.74-4.639,10.035c-0.393,0.906-0.76,1.816-1.11,2.737c-1.347,3.552-2.099,4.159-2.599,10.501   l-0.105,1.556c0,5.369,0,12.119,0,14.25c0,0.943,0.596,4.352,0.76,5.508c0.018,0.229,0.327,1.344,0.395,1.615   c0.106,0.431,0.222,0.796,0.333,1.127l0.063,0.279c0.597,3.344-4.303,8.03-4.303,19.971c0,12.094,2.593,27.86,3.888,40.82   c1.08,10.789,4.059,15.99,6.013,18.367c0.18,0.311,0.235,0.552,0.205,0.967c-0.075,1.043-0.171,2.643-0.242,3.442   c-0.024,0.281,0.158,0.534,0.405,0.677l0.641,0.375c0.172,0.1,0.426,0.179,0.734,0c0.667-0.396,84.234-49.83,136.104-80.883   c0.464-0.277,0.533-0.34,0.65-0.99c0.158-0.867,0.168-2.902,0.168-3.716C567.919,299.638,566.819,296.989,567.233,294.035z    M428.843,282.192c-0.735,0.427-1.434,0.626-2.051,0.62c-0.131-0.003-0.396-0.1-0.495-0.19c-0.106-0.097-0.146-0.246-0.209-0.383   c-0.046-0.101-0.077-0.562-0.077-0.562c0.386-2.078,0.85-4.207,1.592-6.432c0.053-0.162,0.252-0.467,0.351-0.592   c0.681-0.86,1.472-1.59,2.323-2.078c0.844-0.49,1.633-0.68,2.311-0.608l0.219,0.146c0.365,0.546,0.571,1.297,0.571,2.222   C433.377,277.229,431.345,280.743,428.843,282.192z M449.481,338.063c0,0-0.195,0.405-0.947,0.906   c-0.752,0.505-3.031,2.032-4.459,2.985c-3.715,2.25-4.289-2.704-4.289-2.704c-0.394-3.814-1.348-11.063-1.333-12.041   c0.007-0.486,0-1.041,0.476-1.643c1.746-2.213,3.363-3.692,5.535-4.948c1.891-1.091,3.665-1.562,5.214-1.472   c0.452,0.041,0.858,0.297,0.858,0.297c1.75,1.215,2.816,3.556,2.816,6.793C453.353,330.088,451.847,334.4,449.481,338.063z    M545.562,257.958l-10.381,7.644c-0.819,0.604-1.252,1.605-1.133,2.617l1.231,10.353c0.22,1.839-0.642,3.64-2.219,4.618   c-11.919,7.4-55.097,32.851-58.267,34.702c-0.559,0.327-0.91,0.451-1.489,0.639c-0.577,0.184-1.156-0.434-1.156-0.434   c-0.349-0.57-0.555-1.312-0.667-2.069c-0.33-2.188-2.471-19.807-2.63-20.975c-0.161-1.172,0.532-1.714,0.997-2.038   c20.103-13.926,65.34-44.306,75.727-51.349c0.094-0.063,0.906-0.436,0.906,0.631l0.879,11.734   C547.479,255.562,546.798,257.045,545.562,257.958z M551.747,214.948c-39.657,26.374-78.342,52.015-106.978,71.027   c-0.573,0.383-0.484-0.06-0.587-0.764c-0.27-1.854-0.591-4.085-0.672-4.699c-1.586-12.147-2.943-32.813-2.943-32.813   s0.021-1.031,0.343-1.593l0.294-0.579c9.979-18.568,21.836-36.973,30.869-50.3c9.021-13.308,20.088-25.068,32.705-35.03   c7.813-6.172,33.141-25.002,36.059-27.09c0.51-0.364,0.594-0.363,0.861,0.516c3.326,12.121,8.856,48.876,10.62,80.036   C552.418,214.483,552.389,214.521,551.747,214.948z" stroke="#000000" outline-element="true" stroke-width="0.5" g2gstroke="#312783" stroke-miterlimit="10"/>
<linearGradient transform="translate(-691.5254507698542, 52.22457831334839) translate(-16.467393441228978, -61.43604476150841) translate(-1.8008475280464609, -381.7796759458569) translate(199.89407561316102, 180.0847528046495) translate(708,319) translate(14.169231994628888, 42.77478060913086) translate(-262.62181823049787, -408.9745342722613) translate(-150.41806926514585, 275.6309485453212) translate(401.0, 94.0) translate(10.0, 10.00006103515625)" gradientTransform="matrix(1 0 0 -1 174.375 719.4551)" x1="249.8369" x2="396.395" y1="422.1543" gradientUnits="userSpaceOnUse" y2="422.1543" xmlns:xlink="http://www.w3.org/1999/xlink" xlink:type="simple" xlink:actuate="onLoad" id="149::SVGID_2_" xlink:show="other">
<stop stop-opacity="0.35" stop-color="#FFFFFF" offset="0"/>
<stop stop-opacity="0.35" stop-color="#FFFFFF" offset="1"/>
</linearGradient>
<path fill="url(#149::SVGID_2_)" d="M570.741,232.158c0.207,20.521-0.676,41.752-3.498,61.873c-0.414,2.951,0.686,5.601,0.686,8.439   c0,0.813-0.016,2.346-0.175,3.206c-0.112,0.654-0.177,0.72-0.639,0.991c-51.869,31.047-132.968,79.039-133.638,79.438   c-0.67,0.399-2.867,1.609-2.946,1.609c0-0.465,0.474-4.314,0.409-5.813c0.049-1.483-0.744-3.521-0.744-5.102   c-0.016-1.277,0.008-4.575-0.023-5.899c-0.42-18.641-1.826-40.46-2.912-58.795c-0.19-3.214-1.333-5.208-2.383-8.309l-0.58-2.137   l-0.086-0.416c5.936-3.923,12.779-8.438,20.343-13.449c0,0,0,0,0-0.016c28.958-19.18,68.606-45.473,109.228-72.501h0.015v-0.016   c4.196-2.776,8.394-5.584,12.604-8.376c0.177,0.43,0.415,1.021,0.525,1.355C570.294,218.582,570.662,224.452,570.741,232.158z    M562.478,261.996c0.813-8.81,1.068-20.216,1.068-30.221c0-4.132-1.531-5.456-3.35-5.6c-2.602-0.207-5.744,2.01-5.744,2.01   c-27.889,19.723-110.552,75.596-113.712,77.702c-3.143,2.091-4.45,5.313-4.051,8.059c0.238,1.596,0.94,6.858,1.657,12.795   l0.129,0.016c-0.016,0.162-0.016,0.302-0.016,0.448c-0.016,0.988,0.94,8.23,1.34,12.045c0,0,0.574,4.948,4.275,2.695   c1.436-0.941,3.717-2.472,4.469-2.982c0.078-0.065,0.174-0.112,0.255-0.175c1.419-0.94,2.854-1.916,4.307-2.889   c10.897-7.292,22.099-14.839,23.327-15.668c1.739-1.181,2.84-0.798,3.445,2.49c0.447,2.439,0.861,6.429,1.182,10.019   c0.318,3.559,0.542,6.703,0.605,7.578c0.031,0.48,0.08,1.007,0.191,1.486c0.305,1.306,0.975,2.328,2.632,1.355   c2.282-1.324,54.758-32.262,60.837-36.328c6.078-4.086,11.535-11.393,14.168-23.789c0.829-4.581,1.516-8.441,2.139-13.355   C561.647,269.605,562.478,261.996,562.478,261.996z" transform="translate(-691.5254507698542, 52.22457831334839) translate(-16.467393441228978, -61.43604476150841) translate(-1.8008475280464609, -381.7796759458569) translate(199.89407561316102, 180.0847528046495) translate(708,319) translate(14.169231994628888, 42.77478060913086) translate(-262.62181823049787, -408.9745342722613) translate(-150.41806926514585, 275.6309485453212) translate(401.0, 94.0) translate(10.0, 10.00006103515625)" orgfill="url(#149::SVGID_2_)"/>
<linearGradient transform="translate(-691.5254507698542, 52.22457831334839) translate(-16.467393441228978, -61.43604476150841) translate(-1.8008475280464609, -381.7796759458569) translate(199.89407561316102, 180.0847528046495) translate(708,319) translate(14.169231994628888, 42.77478060913086) translate(-262.62181823049787, -408.9745342722613) translate(-150.41806926514585, 275.6309485453212) translate(401.0, 94.0) translate(10.0, 10.00006103515625)" gradientTransform="matrix(1 0 0 -1 174.375 719.4551)" x1="249.1025" x2="392.0264" y1="507.1035" gradientUnits="userSpaceOnUse" y2="507.1035" xmlns:xlink="http://www.w3.org/1999/xlink" xlink:type="simple" xlink:actuate="onLoad" id="149::SVGID_3_" xlink:show="other">
<stop stop-opacity="0.15" stop-color="#FFFFFF" offset="0"/>
<stop stop-opacity="0.15" stop-color="#FFFFFF" offset="1"/>
</linearGradient>
<path fill="url(#149::SVGID_3_)" d="M425.823,294.542c0.016,0.065,0.016,0.128,0.031,0.192c0.256,1.422,0.542,1.34,1.39,0.779   c4.084-2.695,8.806-5.82,14.071-9.302c0.256-0.144,0.398-0.302,0.463-0.492c0.08-0.209,0.08-0.448,0.016-0.782   c-1.387-8.938-2.727-26.565-3.223-33.361c-0.096-0.895-0.287-0.701-0.542-0.209c-0.239,0.479-0.495,0.972-0.735,1.486   c-3.158,6.22-6.73,13.48-8.424,18.473c-0.462,1.343-0.877,2.633-1.26,3.91c-0.734,2.231-1.213,4.354-1.596,6.43   c-0.637,3.493-0.861,6.827-0.51,10.195C425.599,292.613,425.664,293.601,425.823,294.542z M566.21,206.375   c0.016,0.066,0.096,0.256,0.191,0.512c-4.211,2.792-8.408,5.6-12.604,8.376c-1.771-32.61-7.771-71.669-11.056-82.247   c-0.368-0.718-0.959-0.637-1.899,0.08c-2.92,2.091-28.239,20.915-36.058,27.089c-12.621,9.972-23.677,21.731-32.707,35.038   c-9.031,13.323-20.885,31.735-30.873,50.292l-0.287,0.589c-0.32,0.558-0.336,1.596-0.336,1.596s1.355,20.66,2.936,32.804   c0.081,0.624,0.398,2.854,0.67,4.706c0.016,0.111,0.033,0.24,0.049,0.367c0.018,0.144,0.033,0.271,0.063,0.365   c0,0.034,0,0.064,0.016,0.096c0.097,0.752,0.209,1.533,0.24,1.742c0,0.016,0,0.016,0,0.016   c-7.563,5.011-14.407,9.523-20.343,13.449l-0.111,0.016l-0.08-0.623c-0.288-1.785-0.25-2.288-0.49-3.774   c0-8.399-0.314-16.457,0.596-21.045c0.809-4.072,1.377-4.451,2.352-7.009c0.351-0.926,0.719-1.833,1.1-2.727   c10.852-24.987,28.895-53.402,41.482-71.975c9.031-13.307,20.088-25.065,32.708-35.037c9.255-7.291,24.253-19.911,43.303-32.435   c1.626-1.071,3.237-2.122,4.851-3.16l0.016-0.031c0.143,0.109,0.223,0.225,0.318,0.508c2.44,7.229,9.543,43.589,15.109,78.26   C565.668,204.125,565.78,205.131,566.21,206.375z" transform="translate(-691.5254507698542, 52.22457831334839) translate(-16.467393441228978, -61.43604476150841) translate(-1.8008475280464609, -381.7796759458569) translate(199.89407561316102, 180.0847528046495) translate(708,319) translate(14.169231994628888, 42.77478060913086) translate(-262.62181823049787, -408.9745342722613) translate(-150.41806926514585, 275.6309485453212) translate(401.0, 94.0) translate(10.0, 10.00006103515625)" orgfill="url(#149::SVGID_3_)"/>
<linearGradient transform="translate(-691.5254507698542, 52.22457831334839) translate(-16.467393441228978, -61.43604476150841) translate(-1.8008475280464609, -381.7796759458569) translate(199.89407561316102, 180.0847528046495) translate(708,319) translate(14.169231994628888, 42.77478060913086) translate(-262.62181823049787, -408.9745342722613) translate(-150.41806926514585, 275.6309485453212) translate(401.0, 94.0) translate(10.0, 10.00006103515625)" gradientTransform="matrix(1 0 0 -1 174.375 719.4551)" x1="262.2446" x2="386.6606" y1="438.4258" gradientUnits="userSpaceOnUse" y2="438.4258" xmlns:xlink="http://www.w3.org/1999/xlink" xlink:type="simple" xlink:actuate="onLoad" id="149::SVGID_4_" xlink:show="other">
<stop stop-opacity="0.25" stop-color="#FFFFFF" offset="0"/>
<stop stop-opacity="0.25" stop-color="#FFFFFF" offset="1"/>
</linearGradient>
<path fill="url(#149::SVGID_4_)" d="M561.009,230.42c0.367,31.158-3.159,46.684-4.053,51.249c-0.525,2.68-1.197,5.104-2.011,7.323   l-0.062-0.016c-6.08,4.066-71.398,42.439-73.697,43.748l-0.127,0.016c-0.32-3.59-0.734-7.579-1.182-10.019   c-0.605-3.288-1.706-3.671-3.445-2.49c-1.229,0.829-12.43,8.376-23.327,15.665l-0.047-0.063c1.419-2.936,2.266-6.079,2.266-8.949   c0-4.531-2.075-7.292-5.186-7.691l-0.016,0.047c-0.128-0.031-0.271-0.078-0.432-0.096c-1.547-0.098-3.334,0.383-5.218,1.467   c-2.169,1.263-3.795,2.746-5.535,4.949c-0.336,0.43-0.431,0.828-0.463,1.196l-0.129-0.016c-0.717-5.937-1.419-11.202-1.657-12.798   c-0.399-2.746,0.908-5.968,4.051-8.059c3.16-2.104,85.823-57.98,113.712-77.699c0,0,3.143-2.219,5.744-2.01l-0.018,0.189   C560.69,227.244,560.994,228.536,561.009,230.42z M546.825,258.484c1.229-0.907,1.914-2.394,1.804-3.924l-0.879-11.744   c0-1.004-1.005-1.643-1.882-1.306v0.062c-0.128,0.018-0.256,0.064-0.287,0.098c-10.387,7.036-55.619,37.416-75.723,51.345   c-0.461,0.317-1.164,0.86-1.004,2.041c0.175,1.163,2.313,18.778,2.632,20.966c0.11,0.764,0.319,1.499,0.67,2.075   c0,0,0,0.016,0.017,0.016c0.653,1.054,1.834,1.515,3.893,0.303c3.16-1.852,46.349-27.298,58.267-34.702   c1.563-0.973,2.426-2.776,2.219-4.611l-1.245-10.355c-0.111-1.022,0.319-2.01,1.133-2.618L546.825,258.484z" transform="translate(-691.5254507698542, 52.22457831334839) translate(-16.467393441228978, -61.43604476150841) translate(-1.8008475280464609, -381.7796759458569) translate(199.89407561316102, 180.0847528046495) translate(708,319) translate(14.169231994628888, 42.77478060913086) translate(-262.62181823049787, -408.9745342722613) translate(-150.41806926514585, 275.6309485453212) translate(401.0, 94.0) translate(10.0, 10.00006103515625)" orgfill="url(#149::SVGID_4_)"/>
<linearGradient transform="translate(-691.5254507698542, 52.22457831334839) translate(-16.467393441228978, -61.43604476150841) translate(-1.8008475280464609, -381.7796759458569) translate(199.89407561316102, 180.0847528046495) translate(708,319) translate(14.169231994628888, 42.77478060913086) translate(-262.62181823049787, -408.9745342722613) translate(-150.41806926514585, 275.6309485453212) translate(401.0, 94.0) translate(10.0, 10.00006103515625)" gradientTransform="matrix(1 0 0 -1 174.375 719.4551)" x1="347.8364" x2="338.2282" y1="398.4033" gradientUnits="userSpaceOnUse" y2="412.6591" xmlns:xlink="http://www.w3.org/1999/xlink" xlink:type="simple" xlink:actuate="onLoad" id="149::SVGID_5_" xlink:show="other">
<stop stop-opacity="0.65" stop-color="#FFFFFF" offset="0.1333"/>
<stop stop-opacity="0.6" stop-color="#FFFFFF" offset="0.2756"/>
<stop stop-opacity="0.31" stop-color="#FFFFFF" offset="0.8756"/>
</linearGradient>
<path fill="url(#149::SVGID_5_)" d="M554.884,288.977l0.062,0.016c-2.888,8.104-7.387,13.271-12.156,16.463   c-6.079,4.069-58.556,35.004-60.837,36.331l-0.096,0.016c-0.11-0.479-0.16-1.007-0.191-1.483c-0.063-0.879-0.287-4.023-0.605-7.578   l0.127-0.016C483.485,331.416,548.804,293.043,554.884,288.977z M536.853,304.42c0-0.973-0.701-1.371-1.547-0.879   c-0.846,0.48-1.531,1.677-1.531,2.648c0,0.988,0.686,1.387,1.531,0.895C536.151,306.589,536.853,305.408,536.853,304.42z    M520.116,314.137c0-0.973-0.686-1.371-1.547-0.879c-0.847,0.479-1.532,1.676-1.532,2.648c0,0.991,0.686,1.39,1.532,0.895   C519.431,316.305,520.116,315.124,520.116,314.137z M503.379,323.853c0-0.972-0.686-1.371-1.53-0.879   c-0.863,0.479-1.549,1.677-1.549,2.665c0,0.972,0.686,1.371,1.549,0.878C502.693,326.021,503.379,324.84,503.379,323.853z    M486.644,333.568c0-0.972-0.688-1.371-1.531-0.879c-0.847,0.48-1.549,1.677-1.532,2.665c-0.017,0.972,0.686,1.371,1.532,0.879   C485.956,335.737,486.644,334.557,486.644,333.568z" transform="translate(-691.5254507698542, 52.22457831334839) translate(-16.467393441228978, -61.43604476150841) translate(-1.8008475280464609, -381.7796759458569) translate(199.89407561316102, 180.0847528046495) translate(708,319) translate(14.169231994628888, 42.77478060913086) translate(-262.62181823049787, -408.9745342722613) translate(-150.41806926514585, 275.6309485453212) translate(401.0, 94.0) translate(10.0, 10.00006103515625)" orgfill="url(#149::SVGID_5_)"/>
<linearGradient transform="translate(-691.5254507698542, 52.22457831334839) translate(-16.467393441228978, -61.43604476150841) translate(-1.8008475280464609, -381.7796759458569) translate(199.89407561316102, 180.0847528046495) translate(708,319) translate(14.169231994628888, 42.77478060913086) translate(-262.62181823049787, -408.9745342722613) translate(-150.41806926514585, 275.6309485453212) translate(401.0, 94.0) translate(10.0, 10.00006103515625)" gradientTransform="matrix(1 0 0 -1 174.375 719.4551)" x1="250.9639" x2="266.0259" y1="445.7559" gradientUnits="userSpaceOnUse" y2="445.7559" xmlns:xlink="http://www.w3.org/1999/xlink" xlink:type="simple" xlink:actuate="onLoad" id="149::SVGID_6_" xlink:show="other">
<stop stop-opacity="0.2" stop-color="#FFFFFF" offset="0"/>
<stop stop-opacity="0.2" stop-color="#FFFFFF" offset="1"/>
</linearGradient>
<path fill="url(#149::SVGID_6_)" d="M440.295,284.875c-0.081,0.144-0.225,0.287-0.431,0.399c-5.25,3.478-9.955,6.587-14.041,9.271   c-0.159-0.941-0.225-1.932-0.318-2.684c-0.352-3.365-0.127-6.699,0.51-10.192c0,0,0.033,0.461,0.08,0.573   c0.063,0.128,0.111,0.287,0.209,0.38c0.764,1.181,2.265,1.405,3.988,0.418c2.486-1.437,4.531-4.961,4.531-7.85   c0-1.917-0.895-3.082-2.234-3.226c-0.67-0.081-1.469,0.112-2.297,0.607c-0.863,0.496-1.646,1.213-2.331,2.072   c-0.095,0.128-0.302,0.434-0.351,0.592c0.382-1.277,0.798-2.567,1.26-3.91c1.693-4.992,5.266-12.253,8.424-18.473   c0.576,7.85,1.805,23.068,3.064,31.143C440.423,284.38,440.423,284.65,440.295,284.875z M437.759,280.565   c0-0.701-0.496-0.987-1.102-0.636c-0.607,0.353-1.102,1.213-1.102,1.914s0.494,0.99,1.102,0.639   C437.263,282.13,437.759,281.27,437.759,280.565z M435.795,265.617c0-0.701-0.495-1.007-1.101-0.639   c-0.607,0.352-1.102,1.212-1.102,1.913s0.494,0.991,1.102,0.639C435.3,267.179,435.795,266.318,435.795,265.617z M430.339,286.564   c0-0.701-0.496-1.004-1.117-0.636c-0.606,0.349-1.102,1.196-1.102,1.913c0,0.701,0.495,0.988,1.102,0.636   C429.843,288.129,430.339,287.269,430.339,286.564z" transform="translate(-691.5254507698542, 52.22457831334839) translate(-16.467393441228978, -61.43604476150841) translate(-1.8008475280464609, -381.7796759458569) translate(199.89407561316102, 180.0847528046495) translate(708,319) translate(14.169231994628888, 42.77478060913086) translate(-262.62181823049787, -408.9745342722613) translate(-150.41806926514585, 275.6309485453212) translate(401.0, 94.0) translate(10.0, 10.00006103515625)" orgfill="url(#149::SVGID_6_)"/>
<path orgstroke="#000000" orgfill="none" transform="translate(-691.5254507698542, 52.22457831334839) translate(-16.467393441228978, -61.43604476150841) translate(-1.8008475280464609, -381.7796759458569) translate(199.89407561316102, 180.0847528046495) translate(708,319) translate(14.169231994628888, 42.77478060913086) translate(-262.62181823049787, -408.9745342722613) translate(-150.41806926514585, 275.6309485453212) translate(401.0, 94.0) translate(10.0, 10.00006103515625)" fill="none" d="M566.394,206.89c-55.589,36.977-111.184,73.882-142.182,94.367" stroke="#000000" stroke-width="0.25" g2gstroke="#312783"/>
<path orgstroke="#000000" orgfill="none" transform="translate(-691.5254507698542, 52.22457831334839) translate(-16.467393441228978, -61.43604476150841) translate(-1.8008475280464609, -381.7796759458569) translate(199.89407561316102, 180.0847528046495) translate(708,319) translate(14.169231994628888, 42.77478060913086) translate(-262.62181823049787, -408.9745342722613) translate(-150.41806926514585, 275.6309485453212) translate(401.0, 94.0) translate(10.0, 10.00006103515625)" fill="none" d="M553.79,215.275c-1.777-32.606-7.766-71.684-11.063-82.265   c-0.362-0.712-0.955-0.639-1.894,0.094" stroke="#000000" stroke-width="0.25" g2gstroke="#312783"/>
<path orgstroke="#000000" orgfill="none" transform="translate(-691.5254507698542, 52.22457831334839) translate(-16.467393441228978, -61.43604476150841) translate(-1.8008475280464609, -381.7796759458569) translate(199.89407561316102, 180.0847528046495) translate(708,319) translate(14.169231994628888, 42.77478060913086) translate(-262.62181823049787, -408.9745342722613) translate(-150.41806926514585, 275.6309485453212) translate(401.0, 94.0) translate(10.0, 10.00006103515625)" fill="none" d="M444.555,287.795c-0.038-0.277-0.245-1.698-0.372-2.586" stroke="#000000" stroke-width="0.25" g2gstroke="#312783"/>
<path orgstroke="#000000" orgfill="none" transform="translate(-691.5254507698542, 52.22457831334839) translate(-16.467393441228978, -61.43604476150841) translate(-1.8008475280464609, -381.7796759458569) translate(199.89407561316102, 180.0847528046495) translate(708,319) translate(14.169231994628888, 42.77478060913086) translate(-262.62181823049787, -408.9745342722613) translate(-150.41806926514585, 275.6309485453212) translate(401.0, 94.0) translate(10.0, 10.00006103515625)" fill="none" d="M426.011,281.678c-0.648,3.487-0.863,6.828-0.508,10.188   c0.084,0.807,0.169,1.873,0.346,2.876c0.247,1.418,0.541,1.337,1.387,0.779c4.082-2.696,8.803-5.815,14.07-9.306   c0.522-0.302,0.588-0.633,0.488-1.28c-1.396-8.922-2.739-26.563-3.227-33.362c-0.104-0.885-0.285-0.691-0.538-0.193   c-3.308,6.514-7.323,14.568-9.161,19.944c-0.46,1.343-0.883,2.648-1.264,3.923" stroke="#000000" stroke-width="0.25" g2gstroke="#312783"/>
<path orgstroke="#000000" orgfill="none" transform="translate(-691.5254507698542, 52.22457831334839) translate(-16.467393441228978, -61.43604476150841) translate(-1.8008475280464609, -381.7796759458569) translate(199.89407561316102, 180.0847528046495) translate(708,319) translate(14.169231994628888, 42.77478060913086) translate(-262.62181823049787, -408.9745342722613) translate(-150.41806926514585, 275.6309485453212) translate(401.0, 94.0) translate(10.0, 10.00006103515625)" fill="none" d="M425.789,294.582c4.083-2.695,8.804-5.818,14.071-9.308   c0.521-0.3,0.587-0.63,0.487-1.281c-1.263-8.071-2.483-23.28-3.066-31.14" stroke="#000000" stroke-width="0.25" g2gstroke="#312783"/>
<path orgstroke="#000000" orgfill="none" transform="translate(-691.5254507698542, 52.22457831334839) translate(-16.467393441228978, -61.43604476150841) translate(-1.8008475280464609, -381.7796759458569) translate(199.89407561316102, 180.0847528046495) translate(708,319) translate(14.169231994628888, 42.77478060913086) translate(-262.62181823049787, -408.9745342722613) translate(-150.41806926514585, 275.6309485453212) translate(401.0, 94.0) translate(10.0, 10.00006103515625)" fill="none" d="M427.491,368.805c-0.426-0.246-0.77-0.844-0.77-1.336   s0.344-0.692,0.77-0.446c0.426,0.247,0.771,0.845,0.771,1.337S427.917,369.052,427.491,368.805z" stroke="#000000" stroke-width="0.25" g2gstroke="#312783"/>
<path orgstroke="#000000" orgfill="none" transform="translate(-691.5254507698542, 52.22457831334839) translate(-16.467393441228978, -61.43604476150841) translate(-1.8008475280464609, -381.7796759458569) translate(199.89407561316102, 180.0847528046495) translate(708,319) translate(14.169231994628888, 42.77478060913086) translate(-262.62181823049787, -408.9745342722613) translate(-150.41806926514585, 275.6309485453212) translate(401.0, 94.0) translate(10.0, 10.00006103515625)" fill="none" d="M427.023,363.938c-0.427-0.246-0.771-0.841-0.771-1.337   c0-0.489,0.345-0.691,0.771-0.442c0.425,0.243,0.77,0.842,0.77,1.337C427.792,363.984,427.447,364.184,427.023,363.938z" stroke="#000000" stroke-width="0.25" g2gstroke="#312783"/>
<path orgstroke="#000000" orgfill="none" transform="translate(-691.5254507698542, 52.22457831334839) translate(-16.467393441228978, -61.43604476150841) translate(-1.8008475280464609, -381.7796759458569) translate(199.89407561316102, 180.0847528046495) translate(708,319) translate(14.169231994628888, 42.77478060913086) translate(-262.62181823049787, -408.9745342722613) translate(-150.41806926514585, 275.6309485453212) translate(401.0, 94.0) translate(10.0, 10.00006103515625)" fill="none" d="M423.869,325.273c-0.424-0.246-0.77-0.845-0.77-1.337   s0.346-0.691,0.77-0.445c0.427,0.246,0.772,0.845,0.772,1.337S424.295,325.52,423.869,325.273z" stroke="#000000" stroke-width="0.25" g2gstroke="#312783"/>
<path orgstroke="#000000" orgfill="none" transform="translate(-691.5254507698542, 52.22457831334839) translate(-16.467393441228978, -61.43604476150841) translate(-1.8008475280464609, -381.7796759458569) translate(199.89407561316102, 180.0847528046495) translate(708,319) translate(14.169231994628888, 42.77478060913086) translate(-262.62181823049787, -408.9745342722613) translate(-150.41806926514585, 275.6309485453212) translate(401.0, 94.0) translate(10.0, 10.00006103515625)" fill="none" d="M425.741,343.774c-0.985-0.567-1.779-1.948-1.779-3.085   c0-1.135,0.795-1.599,1.779-1.031c0.982,0.563,1.78,1.95,1.78,3.091C427.521,343.88,426.724,344.342,425.741,343.774z" stroke="#000000" stroke-width="0.25" g2gstroke="#312783"/>
<path orgstroke="#000000" orgfill="none" transform="translate(-691.5254507698542, 52.22457831334839) translate(-16.467393441228978, -61.43604476150841) translate(-1.8008475280464609, -381.7796759458569) translate(199.89407561316102, 180.0847528046495) translate(708,319) translate(14.169231994628888, 42.77478060913086) translate(-262.62181823049787, -408.9745342722613) translate(-150.41806926514585, 275.6309485453212) translate(401.0, 94.0) translate(10.0, 10.00006103515625)" fill="none" d="M423.399,320.406c-0.426-0.246-0.771-0.845-0.771-1.337   s0.345-0.692,0.771-0.446s0.771,0.845,0.771,1.338C424.17,320.453,423.825,320.652,423.399,320.406z" stroke="#000000" stroke-width="0.25" g2gstroke="#312783"/>
<path orgstroke="#000000" orgfill="none" transform="translate(-691.5254507698542, 52.22457831334839) translate(-16.467393441228978, -61.43604476150841) translate(-1.8008475280464609, -381.7796759458569) translate(199.89407561316102, 180.0847528046495) translate(708,319) translate(14.169231994628888, 42.77478060913086) translate(-262.62181823049787, -408.9745342722613) translate(-150.41806926514585, 275.6309485453212) translate(401.0, 94.0) translate(10.0, 10.00006103515625)" fill="none" d="M426.353,342.325c-0.502-0.286-0.906-0.991-0.906-1.567   s0.404-0.813,0.906-0.523c0.499,0.287,0.904,0.991,0.904,1.573C427.26,342.381,426.852,342.615,426.353,342.325z" stroke="#000000" stroke-width="0.25" g2gstroke="#312783"/>
<path orgstroke="#000000" orgfill="none" transform="translate(-691.5254507698542, 52.22457831334839) translate(-16.467393441228978, -61.43604476150841) translate(-1.8008475280464609, -381.7796759458569) translate(199.89407561316102, 180.0847528046495) translate(708,319) translate(14.169231994628888, 42.77478060913086) translate(-262.62181823049787, -408.9745342722613) translate(-150.41806926514585, 275.6309485453212) translate(401.0, 94.0) translate(10.0, 10.00006103515625)" fill="none" d="M441.7279968261719 285.7139892578125L440.2449951171875 284.8559875488281" stroke="#000000" stroke-width="0.25" g2gstroke="#312783" stroke-miterlimit="10"/>
<path orgstroke="#000000" orgfill="none" transform="translate(-691.5254507698542, 52.22457831334839) translate(-16.467393441228978, -61.43604476150841) translate(-1.8008475280464609, -381.7796759458569) translate(199.89407561316102, 180.0847528046495) translate(708,319) translate(14.169231994628888, 42.77478060913086) translate(-262.62181823049787, -408.9745342722613) translate(-150.41806926514585, 275.6309485453212) translate(401.0, 94.0) translate(10.0, 10.00006103515625)" fill="none" d="M553.7899780273438 215.27499389648438L552.4180297851562 214.48300170898438" stroke="#000000" stroke-width="0.25" g2gstroke="#312783"/>
<path orgstroke="#000000" orgfill="none" transform="translate(-691.5254507698542, 52.22457831334839) translate(-16.467393441228978, -61.43604476150841) translate(-1.8008475280464609, -381.7796759458569) translate(199.89407561316102, 180.0847528046495) translate(708,319) translate(14.169231994628888, 42.77478060913086) translate(-262.62181823049787, -408.9745342722613) translate(-150.41806926514585, 275.6309485453212) translate(401.0, 94.0) translate(10.0, 10.00006103515625)" fill="none" d="M432.587,271.968c1.332,0.144,2.223,1.306,2.223,3.226   c0,2.892-2.031,6.406-4.533,7.855c-1.717,0.991-3.21,0.752-3.979-0.43" stroke="#000000" stroke-width="0.25" g2gstroke="#312783"/>
<path orgstroke="#000000" orgfill="none" transform="translate(-691.5254507698542, 52.22457831334839) translate(-16.467393441228978, -61.43604476150841) translate(-1.8008475280464609, -381.7796759458569) translate(199.89407561316102, 180.0847528046495) translate(708,319) translate(14.169231994628888, 42.77478060913086) translate(-262.62181823049787, -408.9745342722613) translate(-150.41806926514585, 275.6309485453212) translate(401.0, 94.0) translate(10.0, 10.00006103515625)" fill="none" d="M430.327,286.564c0,0.704-0.496,1.561-1.105,1.913   c-0.611,0.355-1.105,0.068-1.105-0.636c0-0.707,0.494-1.567,1.105-1.916C429.833,285.57,430.327,285.859,430.327,286.564z" stroke="#000000" stroke-width="0.25" g2gstroke="#312783"/>
<path orgstroke="#000000" orgfill="none" transform="translate(-691.5254507698542, 52.22457831334839) translate(-16.467393441228978, -61.43604476150841) translate(-1.8008475280464609, -381.7796759458569) translate(199.89407561316102, 180.0847528046495) translate(708,319) translate(14.169231994628888, 42.77478060913086) translate(-262.62181823049787, -408.9745342722613) translate(-150.41806926514585, 275.6309485453212) translate(401.0, 94.0) translate(10.0, 10.00006103515625)" fill="none" d="M437.752,280.568c0,0.705-0.495,1.562-1.104,1.917   c-0.613,0.354-1.105,0.065-1.105-0.639c0-0.708,0.492-1.564,1.105-1.913C437.26,279.574,437.752,279.864,437.752,280.568z" stroke="#000000" stroke-width="0.25" g2gstroke="#312783"/>
<path orgstroke="#000000" orgfill="none" transform="translate(-691.5254507698542, 52.22457831334839) translate(-16.467393441228978, -61.43604476150841) translate(-1.8008475280464609, -381.7796759458569) translate(199.89407561316102, 180.0847528046495) translate(708,319) translate(14.169231994628888, 42.77478060913086) translate(-262.62181823049787, -408.9745342722613) translate(-150.41806926514585, 275.6309485453212) translate(401.0, 94.0) translate(10.0, 10.00006103515625)" fill="none" d="M435.795,265.617c0,0.704-0.495,1.562-1.106,1.913   c-0.61,0.355-1.104,0.069-1.104-0.636c0-0.707,0.494-1.567,1.104-1.916C435.3,264.623,435.795,264.913,435.795,265.617z" stroke="#000000" stroke-width="0.25" g2gstroke="#312783"/>
<path orgstroke="#000000" orgfill="none" transform="translate(-691.5254507698542, 52.22457831334839) translate(-16.467393441228978, -61.43604476150841) translate(-1.8008475280464609, -381.7796759458569) translate(199.89407561316102, 180.0847528046495) translate(708,319) translate(14.169231994628888, 42.77478060913086) translate(-262.62181823049787, -408.9745342722613) translate(-150.41806926514585, 275.6309485453212) translate(401.0, 94.0) translate(10.0, 10.00006103515625)" fill="none" d="M450.13,319.19c3.106,0.411,5.179,3.169,5.179,7.688   c0,2.882-0.843,6.023-2.259,8.959" stroke="#000000" stroke-width="0.25" g2gstroke="#312783"/>
<path orgstroke="#000000" orgfill="none" transform="translate(-691.5254507698542, 52.22457831334839) translate(-16.467393441228978, -61.43604476150841) translate(-1.8008475280464609, -381.7796759458569) translate(199.89407561316102, 180.0847528046495) translate(708,319) translate(14.169231994628888, 42.77478060913086) translate(-262.62181823049787, -408.9745342722613) translate(-150.41806926514585, 275.6309485453212) translate(401.0, 94.0) translate(10.0, 10.00006103515625)" fill="none" d="M486.639,333.578c0,0.979-0.688,2.169-1.536,2.661   c-0.85,0.489-1.539,0.094-1.537-0.888c-0.002-0.982,0.688-2.172,1.537-2.662C485.95,332.197,486.639,332.597,486.639,333.578z" stroke="#000000" stroke-width="0.25" g2gstroke="#312783"/>
<path orgstroke="#000000" orgfill="none" transform="translate(-691.5254507698542, 52.22457831334839) translate(-16.467393441228978, -61.43604476150841) translate(-1.8008475280464609, -381.7796759458569) translate(199.89407561316102, 180.0847528046495) translate(708,319) translate(14.169231994628888, 42.77478060913086) translate(-262.62181823049787, -408.9745342722613) translate(-150.41806926514585, 275.6309485453212) translate(401.0, 94.0) translate(10.0, 10.00006103515625)" fill="none" d="M503.372,323.858c-0.002,0.979-0.689,2.173-1.539,2.661   c-0.848,0.492-1.536,0.094-1.536-0.888c0-0.979,0.688-2.169,1.536-2.661C502.685,322.481,503.372,322.877,503.372,323.858z" stroke="#000000" stroke-width="0.25" g2gstroke="#312783"/>
<path orgstroke="#000000" orgfill="none" transform="translate(-691.5254507698542, 52.22457831334839) translate(-16.467393441228978, -61.43604476150841) translate(-1.8008475280464609, -381.7796759458569) translate(199.89407561316102, 180.0847528046495) translate(708,319) translate(14.169231994628888, 42.77478060913086) translate(-262.62181823049787, -408.9745342722613) translate(-150.41806926514585, 275.6309485453212) translate(401.0, 94.0) translate(10.0, 10.00006103515625)" fill="none" d="M520.106,314.14c0,0.981-0.69,2.172-1.537,2.664   c-0.85,0.489-1.537,0.094-1.537-0.888c0-0.982,0.688-2.172,1.537-2.662C519.418,312.762,520.106,313.161,520.106,314.14z" stroke="#000000" stroke-width="0.25" g2gstroke="#312783"/>
<path orgstroke="#000000" orgfill="none" transform="translate(-691.5254507698542, 52.22457831334839) translate(-16.467393441228978, -61.43604476150841) translate(-1.8008475280464609, -381.7796759458569) translate(199.89407561316102, 180.0847528046495) translate(708,319) translate(14.169231994628888, 42.77478060913086) translate(-262.62181823049787, -408.9745342722613) translate(-150.41806926514585, 275.6309485453212) translate(401.0, 94.0) translate(10.0, 10.00006103515625)" fill="none" d="M536.839,304.423c0,0.981-0.69,2.172-1.536,2.661   c-0.849,0.492-1.538,0.097-1.536-0.885c-0.002-0.981,0.688-2.172,1.536-2.661C536.148,303.046,536.839,303.441,536.839,304.423z" stroke="#000000" stroke-width="0.25" g2gstroke="#312783"/>
<path orgstroke="#000000" orgfill="none" transform="translate(-691.5254507698542, 52.22457831334839) translate(-16.467393441228978, -61.43604476150841) translate(-1.8008475280464609, -381.7796759458569) translate(199.89407561316102, 180.0847528046495) translate(708,319) translate(14.169231994628888, 42.77478060913086) translate(-262.62181823049787, -408.9745342722613) translate(-150.41806926514585, 275.6309485453212) translate(401.0, 94.0) translate(10.0, 10.00006103515625)" fill="none" d="M438.351,326.734c-0.732-5.933-1.431-11.189-1.661-12.795   c-0.399-2.735,0.908-5.955,4.054-8.055c3.145-2.098,85.82-57.971,113.707-77.699c0,0,9.098-6.405,9.098,3.6   c0,10.003-0.262,21.404-1.08,30.211c0,0-0.834,7.613-0.843,7.688c-0.625,4.924-1.298,8.785-2.135,13.356   c-2.64,12.399-8.091,19.713-14.167,23.786c-6.08,4.069-58.551,35.013-60.838,36.334c-2.289,1.321-2.692-1.081-2.832-2.836   c-0.141-1.751-0.883-12.758-1.775-17.6c-0.607-3.294-1.706-3.668-3.441-2.496c-1.414,0.953-15.813,10.645-27.899,18.74" stroke="#000000" stroke-width="0.25" g2gstroke="#312783"/>
<path orgstroke="#000000" orgfill="none" transform="translate(-691.5254507698542, 52.22457831334839) translate(-16.467393441228978, -61.43604476150841) translate(-1.8008475280464609, -381.7796759458569) translate(199.89407561316102, 180.0847528046495) translate(708,319) translate(14.169231994628888, 42.77478060913086) translate(-262.62181823049787, -408.9745342722613) translate(-150.41806926514585, 275.6309485453212) translate(401.0, 94.0) translate(10.0, 10.00006103515625)" fill="none" d="M560.165,226.369c0.521,0.872,0.818,2.172,0.838,4.048   c0.36,31.168-3.154,46.699-4.057,51.255c-2.459,12.437-8.09,19.713-14.166,23.786c-6.08,4.069-58.551,35.013-60.84,36.335" stroke="#000000" stroke-width="0.25" g2gstroke="#312783"/>
<path orgstroke="#000000" orgfill="none" transform="translate(-691.5254507698542, 52.22457831334839) translate(-16.467393441228978, -61.43604476150841) translate(-1.8008475280464609, -381.7796759458569) translate(199.89407561316102, 180.0847528046495) translate(708,319) translate(14.169231994628888, 42.77478060913086) translate(-262.62181823049787, -408.9745342722613) translate(-150.41806926514585, 275.6309485453212) translate(401.0, 94.0) translate(10.0, 10.00006103515625)" fill="none" d="M554.88,288.973c-6.08,4.073-71.404,42.437-73.693,43.758" stroke="#000000" stroke-width="0.25" g2gstroke="#312783"/>
<path orgstroke="#000000" orgfill="none" transform="translate(-691.5254507698542, 52.22457831334839) translate(-16.467393441228978, -61.43604476150841) translate(-1.8008475280464609, -381.7796759458569) translate(199.89407561316102, 180.0847528046495) translate(708,319) translate(14.169231994628888, 42.77478060913086) translate(-262.62181823049787, -408.9745342722613) translate(-150.41806926514585, 275.6309485453212) translate(401.0, 94.0) translate(10.0, 10.00006103515625)" fill="none" d="M472.151,318.094c0.659,1.075,1.832,1.533,3.901,0.324   c3.167-1.852,46.347-27.301,58.267-34.705c1.574-0.976,2.436-2.776,2.219-4.618l-1.23-10.353c-0.122-1.012,0.311-2.01,1.133-2.614   l10.378-7.644c1.237-0.913,1.918-2.396,1.804-3.927l-0.878-11.735c0-1.006-1.009-1.648-1.884-1.307" stroke="#000000" stroke-width="0.25" g2gstroke="#312783"/>
<path orgstroke="#000000" orgfill="none" stroke-linecap="round" transform="translate(-691.5254507698542, 52.22457831334839) translate(-16.467393441228978, -61.43604476150841) translate(-1.8008475280464609, -381.7796759458569) translate(199.89407561316102, 180.0847528046495) translate(708,319) translate(14.169231994628888, 42.77478060913086) translate(-262.62181823049787, -408.9745342722613) translate(-150.41806926514585, 275.6309485453212) translate(401.0, 94.0) translate(10.0, 10.00006103515625)" fill="none" stroke-linejoin="round" d="M428.843,282.192   c-0.735,0.427-1.434,0.626-2.051,0.62c-0.131-0.003-0.396-0.1-0.495-0.19c-0.106-0.097-0.146-0.246-0.209-0.383   c-0.046-0.101-0.077-0.562-0.077-0.562c0.386-2.078,0.85-4.207,1.592-6.432c0.053-0.162,0.252-0.467,0.351-0.592   c0.681-0.86,1.472-1.59,2.323-2.078c0.844-0.49,1.633-0.68,2.311-0.608l0.219,0.146c0.365,0.546,0.571,1.297,0.571,2.222   C433.377,277.229,431.345,280.743,428.843,282.192z M449.481,338.063c0,0-0.195,0.405-0.947,0.906   c-0.752,0.505-3.031,2.032-4.459,2.985c-3.715,2.25-4.289-2.704-4.289-2.704c-0.394-3.814-1.348-11.063-1.333-12.041   c0.007-0.486,0-1.041,0.476-1.643c1.746-2.213,3.363-3.692,5.535-4.948c1.891-1.091,3.665-1.562,5.214-1.472   c0.452,0.041,0.858,0.297,0.858,0.297c1.75,1.215,2.816,3.556,2.816,6.793C453.353,330.088,451.847,334.4,449.481,338.063z    M545.562,257.958l-10.381,7.644c-0.819,0.604-1.252,1.605-1.133,2.617l1.231,10.353c0.22,1.839-0.642,3.64-2.219,4.618   c-11.919,7.4-55.097,32.851-58.267,34.702c-0.559,0.327-0.91,0.451-1.489,0.639c-0.577,0.184-1.156-0.434-1.156-0.434   c-0.349-0.57-0.555-1.312-0.667-2.069c-0.33-2.188-2.471-19.807-2.63-20.975c-0.161-1.172,0.532-1.714,0.997-2.038   c20.103-13.926,65.34-44.306,75.727-51.349c0.094-0.063,0.906-0.436,0.906,0.631l0.879,11.734   C547.479,255.562,546.798,257.045,545.562,257.958z M551.747,214.948c-39.657,26.374-78.342,52.015-106.978,71.027   c-0.573,0.383-0.484-0.06-0.587-0.764c-0.27-1.854-0.591-4.085-0.672-4.699c-1.586-12.147-2.943-32.813-2.943-32.813   s0.021-1.031,0.343-1.593l0.294-0.579c9.979-18.568,21.836-36.973,30.869-50.3c9.021-13.308,20.088-25.068,32.705-35.03   c7.813-6.172,33.141-25.002,36.059-27.09c0.51-0.364,0.594-0.363,0.861,0.516c3.326,12.121,8.856,48.876,10.62,80.036   C552.418,214.483,552.389,214.521,551.747,214.948z" stroke="#000000" stroke-width="0.25" g2gstroke="#312783"/>
<path orgstroke="#000000" orgfill="none" transform="translate(-691.5254507698542, 52.22457831334839) translate(-16.467393441228978, -61.43604476150841) translate(-1.8008475280464609, -381.7796759458569) translate(199.89407561316102, 180.0847528046495) translate(708,319) translate(14.169231994628888, 42.77478060913086) translate(-262.62181823049787, -408.9745342722613) translate(-150.41806926514585, 275.6309485453212) translate(401.0, 94.0) translate(10.0, 10.00006103515625)" fill="none" d="M430.528,388.224c0.135-1.513,0.414-5.211,0.414-6.523   c0-1.75-1.111-2.814-0.777-10.064c0.176-3.83-2.5-54.918-2.75-58.168s-1.334-6.082-2.209-8.707c-0.178-0.535-0.402-1.108-0.6-1.901   c-0.066-0.271-0.376-1.387-0.395-1.615c-0.164-1.156-0.76-4.564-0.76-5.508c0-2.131,0-8.881,0-14.25l0.105-1.556   c0.5-6.342,1.252-6.949,2.6-10.501c0.351-0.921,0.717-1.831,1.11-2.737c1.433-3.295,2.986-6.65,4.639-10.035l1.188-2.414   c10.791-21.734,25.328-44.445,35.959-60.13c9.021-13.31,20.088-25.07,32.705-35.032c9.252-7.303,24.25-19.912,43.305-32.44   c1.623-1.066,3.235-2.123,4.84-3.168" stroke="#000000" stroke-width="0.25" g2gstroke="#312783"/>
<path orgstroke="#000000" orgfill="none" transform="translate(-691.5254507698542, 52.22457831334839) translate(-16.467393441228978, -61.43604476150841) translate(-1.8008475280464609, -381.7796759458569) translate(199.89407561316102, 180.0847528046495) translate(708,319) translate(14.169231994628888, 42.77478060913086) translate(-262.62181823049787, -408.9745342722613) translate(-150.41806926514585, 275.6309485453212) translate(401.0, 94.0) translate(10.0, 10.00006103515625)" fill="none" d="M429.489,383.156c0.063-0.908,0.107-1.745,0.107-2.275   c0-1.75-1.111-2.814-0.777-10.064c0.176-3.83-2.5-54.918-2.75-58.168s-1.334-6.082-2.209-8.707   c-0.082-0.245-0.173-0.497-0.267-0.774" stroke="#000000" stroke-width="0.25" g2gstroke="#312783"/>
<path stroke-linecap="round" orgstroke="#000000" orgfill="none" transform="translate(-691.5254507698542, 52.22457831334839) translate(-16.467393441228978, -61.43604476150841) translate(-1.8008475280464609, -381.7796759458569) translate(199.89407561316102, 180.0847528046495) translate(708,319) translate(14.169231994628888, 42.77478060913086) translate(-262.62181823049787, -408.9745342722613) translate(-150.41806926514585, 275.6309485453212) translate(401.0, 94.0) translate(10.0, 10.00006103515625)" fill="none" stroke-linejoin="round" d="   M567.233,294.035c2.822-20.118,3.709-41.359,3.506-61.87c-0.077-7.716-0.455-13.585-3.818-23.917   c-0.172-0.529-0.664-1.717-0.72-1.876c-0.432-1.246-0.536-2.247-0.843-4.153c-5.575-34.681-12.672-71.03-15.104-78.26   c-0.182-0.543-0.097-0.448-0.633-0.782c-0.168-0.104-0.705-0.363-0.705-0.363c-0.326-0.137-0.473-0.068-0.735,0.085   c-1.481,0.965-2.968,1.939-4.464,2.923c-19.056,12.528-34.054,25.138-43.306,32.44c-12.617,9.962-23.683,21.723-32.704,35.032   c-10.631,15.685-25.168,38.396-35.96,60.13l-1.188,2.414c-1.652,3.385-3.205,6.74-4.639,10.035c-0.393,0.906-0.76,1.816-1.11,2.737   c-1.347,3.552-2.099,4.159-2.599,10.501l-0.105,1.556c0,5.369,0,12.119,0,14.25c0,0.943,0.596,4.352,0.76,5.508   c0.018,0.229,0.327,1.344,0.395,1.615c0.106,0.431,0.222,0.796,0.333,1.127l0.063,0.279c0.597,3.344-4.303,8.03-4.303,19.971   c0,12.094,2.593,27.86,3.888,40.82c1.08,10.789,4.059,15.99,6.013,18.367c0.18,0.311,0.235,0.552,0.205,0.967   c-0.075,1.043-0.171,2.643-0.242,3.442c-0.024,0.281,0.158,0.534,0.405,0.677l0.641,0.375c0.172,0.1,0.426,0.179,0.734,0   c0.667-0.396,84.234-49.83,136.104-80.883c0.464-0.277,0.533-0.34,0.65-0.99c0.158-0.867,0.168-2.902,0.168-3.716   C567.919,299.638,566.819,296.989,567.233,294.035z M428.843,282.192c-0.735,0.427-1.434,0.626-2.051,0.62   c-0.131-0.003-0.396-0.1-0.495-0.19c-0.106-0.097-0.146-0.246-0.209-0.383c-0.046-0.101-0.077-0.562-0.077-0.562   c0.386-2.078,0.85-4.207,1.592-6.432c0.053-0.162,0.252-0.467,0.351-0.592c0.681-0.86,1.472-1.59,2.323-2.078   c0.844-0.49,1.633-0.68,2.311-0.608l0.219,0.146c0.365,0.546,0.571,1.297,0.571,2.222   C433.377,277.229,431.345,280.743,428.843,282.192z M449.481,338.063c0,0-0.195,0.405-0.947,0.906   c-0.752,0.505-3.031,2.032-4.459,2.985c-3.715,2.25-4.289-2.704-4.289-2.704c-0.394-3.814-1.348-11.063-1.333-12.041   c0.007-0.486,0-1.041,0.476-1.643c1.746-2.213,3.363-3.692,5.535-4.948c1.891-1.091,3.665-1.562,5.214-1.472   c0.452,0.041,0.858,0.297,0.858,0.297c1.75,1.215,2.816,3.556,2.816,6.793C453.353,330.088,451.847,334.4,449.481,338.063z    M545.562,257.958l-10.381,7.644c-0.819,0.604-1.252,1.605-1.133,2.617l1.231,10.353c0.22,1.839-0.642,3.64-2.219,4.618   c-11.919,7.4-55.097,32.851-58.267,34.702c-0.559,0.327-0.91,0.451-1.489,0.639c-0.577,0.184-1.156-0.434-1.156-0.434   c-0.349-0.57-0.555-1.312-0.667-2.069c-0.33-2.188-2.471-19.807-2.63-20.975c-0.161-1.172,0.532-1.714,0.997-2.038   c20.103-13.926,65.34-44.306,75.727-51.349c0.094-0.063,0.906-0.436,0.906,0.631l0.879,11.734   C547.479,255.562,546.798,257.045,545.562,257.958z M551.747,214.948c-39.657,26.374-78.342,52.015-106.978,71.027   c-0.573,0.383-0.484-0.06-0.587-0.764c-0.27-1.854-0.591-4.085-0.672-4.699c-1.586-12.147-2.943-32.813-2.943-32.813   s0.021-1.031,0.343-1.593l0.294-0.579c9.979-18.568,21.836-36.973,30.869-50.3c9.021-13.308,20.088-25.068,32.705-35.03   c7.813-6.172,33.141-25.002,36.059-27.09c0.51-0.364,0.594-0.363,0.861,0.516c3.326,12.121,8.856,48.876,10.62,80.036   C552.418,214.483,552.389,214.521,551.747,214.948z" stroke="#000000" stroke-width="0.25" g2gstroke="#312783" stroke-miterlimit="10"/>
</g>
</g>
</g>
</g>
</g>
</g></svg>