<svg xmlns="http://www.w3.org/2000/svg" xmlns:xlink="http://www.w3.org/1999/xlink" xmlns:x="http://ns.adobe.com/Extensibility/1.0/" xmlns:graph="http://ns.adobe.com/Graphs/1.0/" xmlns:i="http://ns.adobe.com/AdobeIllustrator/10.0/" xmlns:etg="http://www.eurotaxglass.com/etg/evd/" etg:dataTimestamp="1539068912893" contentScriptType="text/ecmascript" zoomAndPan="magnify" contentStyleType="text/css" id="Layer_1" enable-background="new 0 0 1841.891 1595.279" version="1.1" xml:space="preserve" width="1841.891px" preserveAspectRatio="xMidYMid meet" viewBox="0 0 1841.891 1595.279" height="1595.279px" x="0px" y="0px"><g xmlns="http://www.w3.org/2000/svg" objecttype="PS" tooltip="#UNDEFINED" id="16">
<g onmouseover="notifyOwner(AGV_OBJECT_MOUSEOVER, '16(PS)')" transform="translate(-9.433746356535266E-6, 3.356933575560106E-7) translate(-35.71980609130861, -13.200809143066408) translate(44.708733184814434, 94.79042849731445) matrix(0.6117410612267968 0 0 0.6117410612267968 0.2921243287958965 0.477310974878083) translate(-92,-34) " onclick="clickZoom(evt); notifyOwner(AGV_OBJECT_MOUSECLICK, '16(PS)')" onmouseout="notifyOwner(AGV_OBJECT_MOUSEOUT, '16(PS)')" tooltip="#UNDEFINED" id="16-Graphic" objecttype="GRAPHIC">
<g zvalue="15">
<g zvalue="37">
<g zvalue="25">
<g>
<path orgstroke="#000000" orgfill="#ffffff" transform="translate(-295.5923495625341, 69.5511410735374) translate(13.523832986521029, -13.523832986521171) translate(0.0, -2.3904280801783955) translate(185.48729538878888, 48.62288325725535) translate(724,-30) translate(-518.5915025634765, -83.33211865234375) translate(658.0, -6.0) translate(10.0, 10.00006103515625)" fill="#ffffff" g2gfill="#ECC35D" d="M383.727,226.369   c-0.315-0.133-0.615-0.014-0.786,0.086c-0.437,0.258-2.701,1.557-3.423,1.979c-0.469,0.275-0.67,0.447-0.67,0.977   c0,0.455,0.109,0.682,0.453,0.883c0.344,0.199,2.613,1.549,3.097,1.828s0.669,0.355,0.175,0.633c-0.518,0.303-0.5,0.9-0.475,1.688   c0.03,0.814,0.037,0.725,0.563,0.967c0.396,0.229,0.396,0.229,1.563-0.438c1.17-0.686,36.485-21.064,36.485-21.064   s0.271-0.033,0.271-0.938c0-0.896,0.049-1.289-0.364-1.523c-0.416-0.238-0.601-0.309-0.771-0.199   c-0.021,0.012-0.563,0.313-1.488,0.854c0,0-0.447,0.338-0.973,0.037c-0.521-0.307-4.021-2.346-4.41-2.563   c-0.391-0.242-0.785-0.02-0.785-0.02c-1.213,0.699-5.003,2.881-5.534,3.199s-0.677,0.109-0.763,0.061c-0.127-0.064,0,0-0.375-0.219   c-0.375-0.215-0.84-0.063-1.17,0.123c-0.33,0.188-8.735,5.043-9.473,5.471c-0.729,0.42,0.209,1.24-1.021,1.951   c-0.063,0.035-0.219,0.133-0.455,0.268c-1.021,0.594-1.081-0.742-2.729,0.211c-1.646,0.953-4.04,2.332-5.782,3.352   c0,0-0.388,0.219-0.388,0.654c0,0.441,0,0.688,0,0.779c0,0.105-0.021,0.23,0.25,0.383s0.444,0.193,0.089,0.389   c-0.134,0.074-0.389,0.223-0.487,0.273C384.07,226.578,384.104,226.529,383.727,226.369z" stroke="#000000" outline-element="true" stroke-width="0.5" g2gstroke="#312783" stroke-miterlimit="10"/>
<path fill="#E1321E" d="M418.121,212.18c-7.146,4.125-28.938,16.707-35.4,20.438l-0.293,0.201   c-0.343,0.328-0.328,0.873-0.303,1.564c0.032,0.814,0.038,0.729,0.561,0.965c0.399,0.232,0.399,0.232,1.568-0.438   c1.17-0.686,35.718-20.621,36.148-20.869c0.431-0.25,0.609-0.223,0.609-1.129s0.043-1.289-0.371-1.529   c-0.416-0.234-0.596-0.303-0.771-0.201c-0.021,0.016-0.443,0.26-1.188,0.688L418.121,212.18z" transform="translate(-295.5923495625341, 69.5511410735374) translate(13.523832986521029, -13.523832986521171) translate(0.0, -2.3904280801783955) translate(185.48729538878888, 48.62288325725535) translate(724,-30) translate(-518.5915025634765, -83.33211865234375) translate(658.0, -6.0) translate(10.0, 10.00006103515625)" orgfill="#E1321E"/>
<linearGradient transform="translate(-295.5923495625341, 69.5511410735374) translate(13.523832986521029, -13.523832986521171) translate(0.0, -2.3904280801783955) translate(185.48729538878888, 48.62288325725535) translate(724,-30) translate(-518.5915025634765, -83.33211865234375) translate(658.0, -6.0) translate(10.0, 10.00006103515625)" gradientTransform="matrix(1 0 0 -1 0 595.28)" x1="400.3047" x2="403.7022" y1="378.0117" gradientUnits="userSpaceOnUse" y2="365.3318" xmlns:xlink="http://www.w3.org/1999/xlink" xlink:type="simple" xlink:actuate="onLoad" id="15::SVGID_26_" xlink:show="other">
<stop stop-opacity="0.2" stop-color="#FFFFFF" offset="0.0337"/>
<stop stop-opacity="0.7" stop-color="#FFFFFF" offset="0.5212"/>
<stop stop-opacity="0.2" stop-color="#FFFFFF" offset="1"/>
</linearGradient>
<path fill="url(#15::SVGID_26_)" d="M420.937,211.74c0.08,0.25,0.07,0.6,0.07,1.15c0,0.91-0.181,0.879-0.61,1.129   s-34.98,20.182-36.15,20.871c-0.71,0.4-0.979,0.561-1.18,0.58l-0.01-0.051c0-1.73-0.061-1.77,0.75-2.25   c0.8-0.529,37.1-21.42,37.1-21.42L420.937,211.74z" transform="translate(-295.5923495625341, 69.5511410735374) translate(13.523832986521029, -13.523832986521171) translate(0.0, -2.3904280801783955) translate(185.48729538878888, 48.62288325725535) translate(724,-30) translate(-518.5915025634765, -83.33211865234375) translate(658.0, -6.0) translate(10.0, 10.00006103515625)" orgfill="url(#15::SVGID_26_)"/>
<path orgstroke="#000000" orgfill="none" transform="translate(-295.5923495625341, 69.5511410735374) translate(13.523832986521029, -13.523832986521171) translate(0.0, -2.3904280801783955) translate(185.48729538878888, 48.62288325725535) translate(724,-30) translate(-518.5915025634765, -83.33211865234375) translate(658.0, -6.0) translate(10.0, 10.00006103515625)" fill="none" d="M418.092,212.23   c-7.146,4.125-29.206,16.857-35.664,20.588" stroke="#000000" stroke-width="0.25" g2gstroke="#312783" stroke-miterlimit="10"/>
<path orgstroke="#000000" orgfill="none" transform="translate(-295.5923495625341, 69.5511410735374) translate(13.523832986521029, -13.523832986521171) translate(0.0, -2.3904280801783955) translate(185.48729538878888, 48.62288325725535) translate(724,-30) translate(-518.5915025634765, -83.33211865234375) translate(658.0, -6.0) translate(10.0, 10.00006103515625)" fill="none" d="M384.2560119628906 231.76600646972656L379.1780090332031 228.82000732421875" stroke="#000000" stroke-width="0.25" g2gstroke="#312783" stroke-miterlimit="10"/>
<path orgstroke="#000000" orgfill="none" transform="translate(-295.5923495625341, 69.5511410735374) translate(13.523832986521029, -13.523832986521171) translate(0.0, -2.3904280801783955) translate(185.48729538878888, 48.62288325725535) translate(724,-30) translate(-518.5915025634765, -83.33211865234375) translate(658.0, -6.0) translate(10.0, 10.00006103515625)" fill="none" d="M404.246,215.162l1.225-0.754   c0.271-0.156,0.271-0.291,0.271-0.541s0-0.207,0-0.352c0-0.143,0.057-0.344,0.588-0.613" stroke="#000000" stroke-width="0.25" g2gstroke="#312783" stroke-miterlimit="10"/>
<path orgstroke="#000000" orgfill="none" transform="translate(-295.5923495625341, 69.5511410735374) translate(13.523832986521029, -13.523832986521171) translate(0.0, -2.3904280801783955) translate(185.48729538878888, 48.62288325725535) translate(724,-30) translate(-518.5915025634765, -83.33211865234375) translate(658.0, -6.0) translate(10.0, 10.00006103515625)" fill="none" d="M399.594,217.576l1.492-0.809   c0.2-0.115,0.2-0.213,0.2-0.369s0.018-0.484,0.429-0.789c0.411-0.236,0.815-0.473,1.225-0.701c0,0,0.109-0.063,0.232-0.133   c0.215-0.123,0.38-0.076,0.516,0.016c0,0,1.187,0.822,1.66,1.094c0.266,0.152,0.483,0.184,0.667,0.135   c0.55-0.148,1.398-0.662,1.78-1.033c0.178-0.174,0.308-0.287-0.086-0.51s-1.918-1.104-1.918-1.104" stroke="#000000" stroke-width="0.25" g2gstroke="#312783" stroke-miterlimit="10"/>
<path orgstroke="#000000" orgfill="none" transform="translate(-295.5923495625341, 69.5511410735374) translate(13.523832986521029, -13.523832986521171) translate(0.0, -2.3904280801783955) translate(185.48729538878888, 48.62288325725535) translate(724,-30) translate(-518.5915025634765, -83.33211865234375) translate(658.0, -6.0) translate(10.0, 10.00006103515625)" fill="none" d="M394.176,219.951   c1.248-0.721,3.051-1.762,4.303-2.479c0,0,0.523-0.373,1.115,0.104" stroke="#000000" stroke-width="0.25" g2gstroke="#312783" stroke-miterlimit="10"/>
<path orgstroke="#000000" orgfill="none" transform="translate(-295.5923495625341, 69.5511410735374) translate(13.523832986521029, -13.523832986521171) translate(0.0, -2.3904280801783955) translate(185.48729538878888, 48.62288325725535) translate(724,-30) translate(-518.5915025634765, -83.33211865234375) translate(658.0, -6.0) translate(10.0, 10.00006103515625)" fill="none" d="M407.506,215.234   c-0.559-0.322-1.715-0.99-1.715-0.99" stroke="#000000" stroke-width="0.25" g2gstroke="#312783" stroke-miterlimit="10"/>
<path orgstroke="#000000" orgfill="none" transform="translate(-295.5923495625341, 69.5511410735374) translate(13.523832986521029, -13.523832986521171) translate(0.0, -2.3904280801783955) translate(185.48729538878888, 48.62288325725535) translate(724,-30) translate(-518.5915025634765, -83.33211865234375) translate(658.0, -6.0) translate(10.0, 10.00006103515625)" fill="none" d="M401.365,215.873c0,0,1.49,0.85,1.885,1.088   c0.097,0.057,0.309,0.236,0.108,0.475c-0.342,0.408-1.291,0.941-1.854,1.076c-0.164,0.039-0.424-0.02-0.573-0.117   c-0.64-0.42-1.344-0.824-1.344-0.824" stroke="#000000" stroke-width="0.25" g2gstroke="#312783" stroke-miterlimit="10"/>
<path orgstroke="#000000" orgfill="none" transform="translate(-295.5923495625341, 69.5511410735374) translate(13.523832986521029, -13.523832986521171) translate(0.0, -2.3904280801783955) translate(185.48729538878888, 48.62288325725535) translate(724,-30) translate(-518.5915025634765, -83.33211865234375) translate(658.0, -6.0) translate(10.0, 10.00006103515625)" fill="none" d="M401.287,216.666c0,0,1.331,0.758,1.844,1.061" stroke="#000000" stroke-width="0.25" g2gstroke="#312783" stroke-miterlimit="10"/>
<path orgstroke="#000000" orgfill="none" transform="translate(-295.5923495625341, 69.5511410735374) translate(13.523832986521029, -13.523832986521171) translate(0.0, -2.3904280801783955) translate(185.48729538878888, 48.62288325725535) translate(724,-30) translate(-518.5915025634765, -83.33211865234375) translate(658.0, -6.0) translate(10.0, 10.00006103515625)" fill="none" d="M384.63,224.15c0,0,2.572,1.488,2.974,1.713   c0.256,0.146,0.303,0.453,0.033,0.68c-0.385,0.322-1.025,0.703-1.509,0.867c-0.244,0.084-0.683-0.023-0.792-0.086   c-0.479-0.271-1.266-0.746-1.266-0.746" stroke="#000000" stroke-width="0.25" g2gstroke="#312783" stroke-miterlimit="10"/>
<path orgstroke="#000000" orgfill="none" transform="translate(-295.5923495625341, 69.5511410735374) translate(13.523832986521029, -13.523832986521171) translate(0.0, -2.3904280801783955) translate(185.48729538878888, 48.62288325725535) translate(724,-30) translate(-518.5915025634765, -83.33211865234375) translate(658.0, -6.0) translate(10.0, 10.00006103515625)" fill="none" d="M384.63,225.723c0,0,1.387,0.803,2.283,1.318" stroke="#000000" stroke-width="0.25" g2gstroke="#312783" stroke-miterlimit="10"/>
<path orgstroke="#000000" orgfill="none" transform="translate(-295.5923495625341, 69.5511410735374) translate(13.523832986521029, -13.523832986521171) translate(0.0, -2.3904280801783955) translate(185.48729538878888, 48.62288325725535) translate(724,-30) translate(-518.5915025634765, -83.33211865234375) translate(658.0, -6.0) translate(10.0, 10.00006103515625)" fill="none" d="M396.647,223.684   c0.267,0.197,0.188,0.48-0.169,0.627c-0.354,0.143-0.852,0.092-1.104-0.109c-0.26-0.195-0.188-0.479,0.17-0.627   C395.891,223.434,396.387,223.48,396.647,223.684z" stroke="#000000" stroke-width="0.25" g2gstroke="#312783" stroke-miterlimit="10"/>
<path orgstroke="#000000" orgfill="none" transform="translate(-295.5923495625341, 69.5511410735374) translate(13.523832986521029, -13.523832986521171) translate(0.0, -2.3904280801783955) translate(185.48729538878888, 48.62288325725535) translate(724,-30) translate(-518.5915025634765, -83.33211865234375) translate(658.0, -6.0) translate(10.0, 10.00006103515625)" fill="none" d="M396.305,224.029   c0.121,0.104,0.086,0.23-0.078,0.295c-0.166,0.063-0.396,0.043-0.52-0.053c-0.121-0.102-0.093-0.229,0.072-0.291   C395.953,223.916,396.186,223.936,396.305,224.029z" stroke="#000000" stroke-width="0.25" g2gstroke="#312783" stroke-miterlimit="10"/>
<path orgstroke="#000000" orgfill="none" transform="translate(-295.5923495625341, 69.5511410735374) translate(13.523832986521029, -13.523832986521171) translate(0.0, -2.3904280801783955) translate(185.48729538878888, 48.62288325725535) translate(724,-30) translate(-518.5915025634765, -83.33211865234375) translate(658.0, -6.0) translate(10.0, 10.00006103515625)" fill="none" d="M385.018,230.428   c0.269,0.205,0.188,0.479-0.168,0.627c-0.354,0.145-0.852,0.1-1.104-0.105c-0.268-0.201-0.188-0.479,0.169-0.627   C384.262,230.176,384.76,230.225,385.018,230.428z" stroke="#000000" stroke-width="0.25" g2gstroke="#312783" stroke-miterlimit="10"/>
<path orgstroke="#000000" orgfill="none" transform="translate(-295.5923495625341, 69.5511410735374) translate(13.523832986521029, -13.523832986521171) translate(0.0, -2.3904280801783955) translate(185.48729538878888, 48.62288325725535) translate(724,-30) translate(-518.5915025634765, -83.33211865234375) translate(658.0, -6.0) translate(10.0, 10.00006103515625)" fill="none" d="M384.678,230.773   c0.121,0.096,0.086,0.229-0.08,0.291c-0.164,0.064-0.396,0.043-0.521-0.057c-0.114-0.094-0.086-0.227,0.079-0.293   C384.324,230.656,384.557,230.68,384.678,230.773z" stroke="#000000" stroke-width="0.25" g2gstroke="#312783" stroke-miterlimit="10"/>
<path orgstroke="#000000" orgfill="none" transform="translate(-295.5923495625341, 69.5511410735374) translate(13.523832986521029, -13.523832986521171) translate(0.0, -2.3904280801783955) translate(185.48729538878888, 48.62288325725535) translate(724,-30) translate(-518.5915025634765, -83.33211865234375) translate(658.0, -6.0) translate(10.0, 10.00006103515625)" fill="none" d="M408.432,216.854   c0.266,0.197,0.188,0.48-0.168,0.627c-0.354,0.146-0.854,0.094-1.104-0.104c-0.269-0.203-0.188-0.479,0.168-0.625   C407.674,216.604,408.172,216.65,408.432,216.854z" stroke="#000000" stroke-width="0.25" g2gstroke="#312783" stroke-miterlimit="10"/>
<path orgstroke="#000000" orgfill="none" transform="translate(-295.5923495625341, 69.5511410735374) translate(13.523832986521029, -13.523832986521171) translate(0.0, -2.3904280801783955) translate(185.48729538878888, 48.62288325725535) translate(724,-30) translate(-518.5915025634765, -83.33211865234375) translate(658.0, -6.0) translate(10.0, 10.00006103515625)" fill="none" d="M408.088,217.207   c0.121,0.094,0.088,0.225-0.078,0.291c-0.164,0.063-0.396,0.043-0.521-0.059c-0.123-0.102-0.086-0.229,0.078-0.293   C407.736,217.088,407.969,217.107,408.088,217.207z" stroke="#000000" stroke-width="0.25" g2gstroke="#312783" stroke-miterlimit="10"/>
<path orgstroke="#000000" orgfill="none" transform="translate(-295.5923495625341, 69.5511410735374) translate(13.523832986521029, -13.523832986521171) translate(0.0, -2.3904280801783955) translate(185.48729538878888, 48.62288325725535) translate(724,-30) translate(-518.5915025634765, -83.33211865234375) translate(658.0, -6.0) translate(10.0, 10.00006103515625)" fill="none" d="M406.229,215.063   c0.176,0.137,0.128,0.328-0.114,0.426c-0.239,0.092-0.577,0.063-0.759-0.084c-0.18-0.15-0.126-0.336,0.113-0.428   C405.715,214.889,406.055,214.92,406.229,215.063z" stroke="#000000" stroke-width="0.25" g2gstroke="#312783" stroke-miterlimit="10"/>
<path orgstroke="#000000" orgfill="none" transform="translate(-295.5923495625341, 69.5511410735374) translate(13.523832986521029, -13.523832986521171) translate(0.0, -2.3904280801783955) translate(185.48729538878888, 48.62288325725535) translate(724,-30) translate(-518.5915025634765, -83.33211865234375) translate(658.0, -6.0) translate(10.0, 10.00006103515625)" fill="none" d="M401.879,217.555   c0.176,0.137,0.128,0.328-0.114,0.426c-0.239,0.092-0.577,0.063-0.759-0.084c-0.18-0.15-0.126-0.336,0.113-0.428   C401.365,217.381,401.705,217.412,401.879,217.555z" stroke="#000000" stroke-width="0.25" g2gstroke="#312783" stroke-miterlimit="10"/>
<path orgstroke="#000000" orgfill="none" transform="translate(-295.5923495625341, 69.5511410735374) translate(13.523832986521029, -13.523832986521171) translate(0.0, -2.3904280801783955) translate(185.48729538878888, 48.62288325725535) translate(724,-30) translate(-518.5915025634765, -83.33211865234375) translate(658.0, -6.0) translate(10.0, 10.00006103515625)" fill="none" d="M384.765,227   c-0.05-0.121,0.025-0.242,0.205-0.311c0.246-0.088,0.586-0.057,0.76,0.086c0.176,0.137,0.128,0.328-0.114,0.426   c-0.119,0.045-0.264,0.061-0.4,0.047" stroke="#000000" stroke-width="0.25" g2gstroke="#312783" stroke-miterlimit="10"/>
<path orgstroke="#000000" orgfill="none" transform="translate(-295.5923495625341, 69.5511410735374) translate(13.523832986521029, -13.523832986521171) translate(0.0, -2.3904280801783955) translate(185.48729538878888, 48.62288325725535) translate(724,-30) translate(-518.5915025634765, -83.33211865234375) translate(658.0, -6.0) translate(10.0, 10.00006103515625)" fill="none" d="M416.71,212.076   c0.261,0.203,0.187,0.484-0.169,0.635c-0.354,0.146-0.854,0.094-1.109-0.104c-0.262-0.203-0.188-0.482,0.168-0.627   C415.953,211.826,416.45,211.875,416.71,212.076z" stroke="#000000" stroke-width="0.25" g2gstroke="#312783" stroke-miterlimit="10"/>
<path orgstroke="#000000" orgfill="none" transform="translate(-295.5923495625341, 69.5511410735374) translate(13.523832986521029, -13.523832986521171) translate(0.0, -2.3904280801783955) translate(185.48729538878888, 48.62288325725535) translate(724,-30) translate(-518.5915025634765, -83.33211865234375) translate(658.0, -6.0) translate(10.0, 10.00006103515625)" fill="none" d="M416.368,212.428   c0.122,0.1,0.087,0.229-0.079,0.291c-0.158,0.063-0.396,0.043-0.521-0.049c-0.113-0.104-0.086-0.23,0.078-0.293   C416.016,212.309,416.247,212.332,416.368,212.428z" stroke="#000000" stroke-width="0.25" g2gstroke="#312783" stroke-miterlimit="10"/>
<path orgstroke="#000000" orgfill="none" transform="translate(-295.5923495625341, 69.5511410735374) translate(13.523832986521029, -13.523832986521171) translate(0.0, -2.3904280801783955) translate(185.48729538878888, 48.62288325725535) translate(724,-30) translate(-518.5915025634765, -83.33211865234375) translate(658.0, -6.0) translate(10.0, 10.00006103515625)" fill="none" d="M420.912,211.771   c0,0-36.301,20.889-37.104,21.422c-0.805,0.48-0.752,0.523-0.752,2.244" stroke="#000000" stroke-width="0.25" g2gstroke="#312783" stroke-miterlimit="10"/>
<path orgstroke="#000000" orgfill="none" transform="translate(-295.5923495625341, 69.5511410735374) translate(13.523832986521029, -13.523832986521171) translate(0.0, -2.3904280801783955) translate(185.48729538878888, 48.62288325725535) translate(724,-30) translate(-518.5915025634765, -83.33211865234375) translate(658.0, -6.0) translate(10.0, 10.00006103515625)" fill="none" d="M384.51,226.445   c0.157-0.107,0.875-0.416,0.953-0.479s0.185-0.172,0.185-0.344s0.067-0.783,0.315-0.928c0.248-0.143,5.738-3.313,7.199-4.156" stroke="#000000" stroke-width="0.25" g2gstroke="#312783" stroke-miterlimit="10"/>
<path orgstroke="#000000" orgfill="none" transform="translate(-295.5923495625341, 69.5511410735374) translate(13.523832986521029, -13.523832986521171) translate(0.0, -2.3904280801783955) translate(185.48729538878888, 48.62288325725535) translate(724,-30) translate(-518.5915025634765, -83.33211865234375) translate(658.0, -6.0) translate(10.0, 10.00006103515625)" fill="none" d="M383.727,226.369   c-0.315-0.133-0.615-0.014-0.786,0.086c-0.437,0.258-2.701,1.557-3.423,1.979c-0.469,0.275-0.67,0.447-0.67,0.977   c0,0.455,0.109,0.682,0.453,0.883c0.344,0.199,2.613,1.549,3.097,1.828s0.669,0.355,0.175,0.633c-0.518,0.303-0.5,0.9-0.475,1.688   c0.03,0.814,0.037,0.725,0.563,0.967c0.396,0.229,0.396,0.229,1.563-0.438c1.17-0.686,36.485-21.064,36.485-21.064   s0.271-0.033,0.271-0.938c0-0.896,0.049-1.289-0.364-1.523c-0.416-0.238-0.601-0.309-0.771-0.199   c-0.021,0.012-0.563,0.313-1.488,0.854c0,0-0.447,0.338-0.973,0.037c-0.521-0.307-4.021-2.346-4.41-2.563   c-0.391-0.242-0.785-0.02-0.785-0.02c-1.213,0.699-5.003,2.881-5.534,3.199s-0.677,0.109-0.763,0.061c-0.127-0.064,0,0-0.375-0.219   c-0.375-0.215-0.84-0.063-1.17,0.123c-0.33,0.188-8.735,5.043-9.473,5.471c-0.729,0.42,0.209,1.24-1.021,1.951   c-0.063,0.035-0.219,0.133-0.455,0.268c-1.021,0.594-1.081-0.742-2.729,0.211c-1.646,0.953-4.04,2.332-5.782,3.352   c0,0-0.388,0.219-0.388,0.654c0,0.441,0,0.688,0,0.779c0,0.105-0.021,0.23,0.25,0.383s0.444,0.193,0.089,0.389   c-0.134,0.074-0.389,0.223-0.487,0.273C384.07,226.578,384.104,226.529,383.727,226.369z" stroke="#000000" stroke-width="0.25" g2gstroke="#312783" stroke-miterlimit="10"/>
</g>
</g>
</g>
</g>
</g>
</g></svg>