<svg xmlns="http://www.w3.org/2000/svg" xmlns:xlink="http://www.w3.org/1999/xlink" xmlns:x="http://ns.adobe.com/Extensibility/1.0/" xmlns:graph="http://ns.adobe.com/Graphs/1.0/" xmlns:i="http://ns.adobe.com/AdobeIllustrator/10.0/" xmlns:etg="http://www.eurotaxglass.com/etg/evd/" etg:dataTimestamp="1539068912893" contentScriptType="text/ecmascript" zoomAndPan="magnify" contentStyleType="text/css" id="Layer_1" enable-background="new 0 0 1841.891 1595.279" version="1.1" xml:space="preserve" width="1841.891px" preserveAspectRatio="xMidYMid meet" viewBox="0 0 1841.891 1595.279" height="1595.279px" x="0px" y="0px"><g xmlns="http://www.w3.org/2000/svg" objecttype="PS" tooltip="#UNDEFINED" id="164">
<g onmouseover="notifyOwner(AGV_OBJECT_MOUSEOVER, '164(PS)')" transform="translate(-9.433746356535266E-6, 3.356933575560106E-7) translate(-35.71980609130861, -13.200809143066408) translate(44.708733184814434, 94.79042849731445) matrix(0.6117410612267968 0 0 0.6117410612267968 0.2921243287958965 0.477310974878083) translate(-92,-34) " onclick="clickZoom(evt); notifyOwner(AGV_OBJECT_MOUSECLICK, '164(PS)')" onmouseout="notifyOwner(AGV_OBJECT_MOUSEOUT, '164(PS)')" tooltip="#UNDEFINED" id="164-Graphic" objecttype="GRAPHIC">
<g zvalue="165">
<g zvalue="39">
<g zvalue="40">
<g>
<path orgstroke="#000000" orgfill="#ffffff" transform="translate(-691.5254507698542, 52.22457831334839) translate(-16.467393441228978, -61.43604476150841) translate(-1.8008475280464609, -381.7796759458569) translate(199.89407561316102, 180.0847528046495) translate(708,319) translate(14.169231994628888, 42.77478060913086) translate(-1.1931327699726921, -12.826177277206796) translate(1.8363189697265625, 13.646636962890625) translate(1.193132769972749, -3.877681502411349) matrix(0.9106529173459281 0 0 0.9106529173459281 40.28235089244563 28.800604724205122) translate(2.0879823474522823, 1.4914159624659078) translate(-0.5965663849863745, 2.0879823474522254) translate(0.5965663849863745, -6.8605134273431645) matrix(0.942128672558039 0 0 0.942128672558039 25.97059708363929 18.844430582843383) translate(-23.266089014468093, -18.791841127070427) translate(-107.53109089379177, -48.75633313817883) matrix(1.605044182096499 0 0 1.605044182096499 -350.66040178077543 -237.88796194275128) translate(-74.13634216901164, 30.055273852302037) translate(-158.04426750551806, -10.899604655552992) translate(366.69486074908514, -25.20518998497039) translate(14.899502380371075, 11.014091827392576) translate(-179.99999999999994, 119.99999999999991) translate(162.3529411764705, -142.94117647058818) translate(20,20)" fill="#ffffff" g2gfill="#ECC35D" d="M459.767,364.966   c-0.245,0.803-0.695,1.588-1.841,2.241c-0.29,0.169-1.416,0.442-3.015,0.442c-1.597,0-5.092-0.303-12.146-0.836   c-3.363-0.246-5.277-0.595-6.359-0.881c0,0-0.527-0.052-0.895-0.672c-0.377-0.609-1.044-2.102-1.265-2.228   c-0.118-0.068-1.067,0.05-1.406-0.038c-0.342-0.084-0.349-1.046-0.349-1.046c0-0.41,0-0.722,0-0.722s-0.017-0.41-0.407-0.639   c-0.395-0.22-0.913,0-0.913,0s-2.392,1.104-2.885,1.957c-0.491,0.855,0.111,2.614,0.263,3.128c0.146,0.507,1.25,2.111,2.09,3.021   c1.297,1.586,19.14,2.638,21.724,2.31c2.342-0.3,7.793-2.274,8.062-6.405C460.452,363.883,460.013,364.158,459.767,364.966z" stroke="#000000" outline-element="true" stroke-width="0.5" g2gstroke="#312783" stroke-miterlimit="10"/>
<path orgstroke="#000000" orgfill="none" transform="translate(-691.5254507698542, 52.22457831334839) translate(-16.467393441228978, -61.43604476150841) translate(-1.8008475280464609, -381.7796759458569) translate(199.89407561316102, 180.0847528046495) translate(708,319) translate(14.169231994628888, 42.77478060913086) translate(-1.1931327699726921, -12.826177277206796) translate(1.8363189697265625, 13.646636962890625) translate(1.193132769972749, -3.877681502411349) matrix(0.9106529173459281 0 0 0.9106529173459281 40.28235089244563 28.800604724205122) translate(2.0879823474522823, 1.4914159624659078) translate(-0.5965663849863745, 2.0879823474522254) translate(0.5965663849863745, -6.8605134273431645) matrix(0.942128672558039 0 0 0.942128672558039 25.97059708363929 18.844430582843383) translate(-23.266089014468093, -18.791841127070427) translate(-107.53109089379177, -48.75633313817883) matrix(1.605044182096499 0 0 1.605044182096499 -350.66040178077543 -237.88796194275128) translate(-74.13634216901164, 30.055273852302037) translate(-158.04426750551806, -10.899604655552992) translate(366.69486074908514, -25.20518998497039) translate(14.899502380371075, 11.014091827392576) translate(-179.99999999999994, 119.99999999999991) translate(162.3529411764705, -142.94117647058818) translate(20,20)" fill="none" d="M438.414,367.487   c0.03-0.276,0.356-0.475,0.729-0.436c0.377,0.039,0.65,0.301,0.62,0.571" stroke="#000000" stroke-width="0.25" g2gstroke="#312783" stroke-miterlimit="10"/>
<path orgstroke="#000000" orgfill="none" transform="translate(-691.5254507698542, 52.22457831334839) translate(-16.467393441228978, -61.43604476150841) translate(-1.8008475280464609, -381.7796759458569) translate(199.89407561316102, 180.0847528046495) translate(708,319) translate(14.169231994628888, 42.77478060913086) translate(-1.1931327699726921, -12.826177277206796) translate(1.8363189697265625, 13.646636962890625) translate(1.193132769972749, -3.877681502411349) matrix(0.9106529173459281 0 0 0.9106529173459281 40.28235089244563 28.800604724205122) translate(2.0879823474522823, 1.4914159624659078) translate(-0.5965663849863745, 2.0879823474522254) translate(0.5965663849863745, -6.8605134273431645) matrix(0.942128672558039 0 0 0.942128672558039 25.97059708363929 18.844430582843383) translate(-23.266089014468093, -18.791841127070427) translate(-107.53109089379177, -48.75633313817883) matrix(1.605044182096499 0 0 1.605044182096499 -350.66040178077543 -237.88796194275128) translate(-74.13634216901164, 30.055273852302037) translate(-158.04426750551806, -10.899604655552992) translate(366.69486074908514, -25.20518998497039) translate(14.899502380371075, 11.014091827392576) translate(-179.99999999999994, 119.99999999999991) translate(162.3529411764705, -142.94117647058818) translate(20,20)" fill="none" d="M448.093,368.272   c0.028-0.277,0.355-0.475,0.728-0.437c0.34,0.035,0.602,0.245,0.621,0.503" stroke="#000000" stroke-width="0.25" g2gstroke="#312783" stroke-miterlimit="10"/>
<path orgstroke="#000000" orgfill="none" transform="translate(-691.5254507698542, 52.22457831334839) translate(-16.467393441228978, -61.43604476150841) translate(-1.8008475280464609, -381.7796759458569) translate(199.89407561316102, 180.0847528046495) translate(708,319) translate(14.169231994628888, 42.77478060913086) translate(-1.1931327699726921, -12.826177277206796) translate(1.8363189697265625, 13.646636962890625) translate(1.193132769972749, -3.877681502411349) matrix(0.9106529173459281 0 0 0.9106529173459281 40.28235089244563 28.800604724205122) translate(2.0879823474522823, 1.4914159624659078) translate(-0.5965663849863745, 2.0879823474522254) translate(0.5965663849863745, -6.8605134273431645) matrix(0.942128672558039 0 0 0.942128672558039 25.97059708363929 18.844430582843383) translate(-23.266089014468093, -18.791841127070427) translate(-107.53109089379177, -48.75633313817883) matrix(1.605044182096499 0 0 1.605044182096499 -350.66040178077543 -237.88796194275128) translate(-74.13634216901164, 30.055273852302037) translate(-158.04426750551806, -10.899604655552992) translate(366.69486074908514, -25.20518998497039) translate(14.899502380371075, 11.014091827392576) translate(-179.99999999999994, 119.99999999999991) translate(162.3529411764705, -142.94117647058818) translate(20,20)" fill="none" d="M435.879,365.88   c0.463,0.727,0.984,1.334,1.521,1.484l0.278,0.099c5.868,0.798,14.749,1.222,16.511,0.999c1.241-0.152,1.964-0.181,3.961-1.361" stroke="#000000" stroke-width="0.25" g2gstroke="#312783" stroke-miterlimit="10"/>
<path orgstroke="#000000" orgfill="none" transform="translate(-691.5254507698542, 52.22457831334839) translate(-16.467393441228978, -61.43604476150841) translate(-1.8008475280464609, -381.7796759458569) translate(199.89407561316102, 180.0847528046495) translate(708,319) translate(14.169231994628888, 42.77478060913086) translate(-1.1931327699726921, -12.826177277206796) translate(1.8363189697265625, 13.646636962890625) translate(1.193132769972749, -3.877681502411349) matrix(0.9106529173459281 0 0 0.9106529173459281 40.28235089244563 28.800604724205122) translate(2.0879823474522823, 1.4914159624659078) translate(-0.5965663849863745, 2.0879823474522254) translate(0.5965663849863745, -6.8605134273431645) matrix(0.942128672558039 0 0 0.942128672558039 25.97059708363929 18.844430582843383) translate(-23.266089014468093, -18.791841127070427) translate(-107.53109089379177, -48.75633313817883) matrix(1.605044182096499 0 0 1.605044182096499 -350.66040178077543 -237.88796194275128) translate(-74.13634216901164, 30.055273852302037) translate(-158.04426750551806, -10.899604655552992) translate(366.69486074908514, -25.20518998497039) translate(14.899502380371075, 11.014091827392576) translate(-179.99999999999994, 119.99999999999991) translate(162.3529411764705, -142.94117647058818) translate(20,20)" fill="none" d="M428.155,362.89   c1.495,1.301,4.686,1.074,4.686,1.074s0.98-0.213,1.241,0.32c0.265,0.533,1.57,3.418,2.6,3.688l0.279,0.098   c5.865,0.796,14.746,1.219,16.512,0.996c1.241-0.157,2.69-0.801,4.688-1.985" stroke="#000000" stroke-width="0.25" g2gstroke="#312783" stroke-miterlimit="10"/>
<path orgstroke="#000000" orgfill="none" transform="translate(-691.5254507698542, 52.22457831334839) translate(-16.467393441228978, -61.43604476150841) translate(-1.8008475280464609, -381.7796759458569) translate(199.89407561316102, 180.0847528046495) translate(708,319) translate(14.169231994628888, 42.77478060913086) translate(-1.1931327699726921, -12.826177277206796) translate(1.8363189697265625, 13.646636962890625) translate(1.193132769972749, -3.877681502411349) matrix(0.9106529173459281 0 0 0.9106529173459281 40.28235089244563 28.800604724205122) translate(2.0879823474522823, 1.4914159624659078) translate(-0.5965663849863745, 2.0879823474522254) translate(0.5965663849863745, -6.8605134273431645) matrix(0.942128672558039 0 0 0.942128672558039 25.97059708363929 18.844430582843383) translate(-23.266089014468093, -18.791841127070427) translate(-107.53109089379177, -48.75633313817883) matrix(1.605044182096499 0 0 1.605044182096499 -350.66040178077543 -237.88796194275128) translate(-74.13634216901164, 30.055273852302037) translate(-158.04426750551806, -10.899604655552992) translate(366.69486074908514, -25.20518998497039) translate(14.899502380371075, 11.014091827392576) translate(-179.99999999999994, 119.99999999999991) translate(162.3529411764705, -142.94117647058818) translate(20,20)" fill="none" d="M432.227,360.969l-2.111,1.224   c0,0-0.868,0.473,0.376,0.705c1.263,0.242,2.439,0.108,2.439,0.108" stroke="#000000" stroke-width="0.25" g2gstroke="#312783" stroke-miterlimit="10"/>
</g>
</g>
</g>
</g>
</g>
</g></svg>