<svg xmlns="http://www.w3.org/2000/svg" xmlns:xlink="http://www.w3.org/1999/xlink" xmlns:x="http://ns.adobe.com/Extensibility/1.0/" xmlns:graph="http://ns.adobe.com/Graphs/1.0/" xmlns:i="http://ns.adobe.com/AdobeIllustrator/10.0/" xmlns:etg="http://www.eurotaxglass.com/etg/evd/" etg:dataTimestamp="1539068912893" contentScriptType="text/ecmascript" zoomAndPan="magnify" contentStyleType="text/css" id="Layer_1" enable-background="new 0 0 1841.891 1595.279" version="1.1" xml:space="preserve" width="1841.891px" preserveAspectRatio="xMidYMid meet" viewBox="0 0 1841.891 1595.279" height="1595.279px" x="0px" y="0px"><g xmlns="http://www.w3.org/2000/svg" objecttype="PS" tooltip="#UNDEFINED" id="174">
<g onmouseover="notifyOwner(AGV_OBJECT_MOUSEOVER, '174(PS)')" transform="translate(-9.433746356535266E-6, 3.356933575560106E-7) translate(-35.71980609130861, -13.200809143066408) translate(44.708733184814434, 94.79042849731445) matrix(0.6117410612267968 0 0 0.6117410612267968 0.2921243287958965 0.477310974878083) translate(-92,-34) " onclick="clickZoom(evt); notifyOwner(AGV_OBJECT_MOUSECLICK, '174(PS)')" onmouseout="notifyOwner(AGV_OBJECT_MOUSEOUT, '174(PS)')" tooltip="#UNDEFINED" id="174-Graphic" objecttype="GRAPHIC">
<g zvalue="175">
<g zvalue="21">
<g zvalue="17">
<g>
<path orgstroke="#000000" orgfill="#ffffff" transform="translate(-16.467393441228978, -19.000838586033524) translate(-162.07627752418455, -28.813560448743942) translate(-316.949164936183, -12.605932696325453) translate(841,89) translate(33.34486065673826, 21.74257693481445) translate(-444.7702593608417, -91.23492499709573) translate(425.0, 51.0) translate(10.0, 10.00006103515625)" fill="#ffffff" g2gfill="#464646" d="M555.137,227.934   c-0.283-0.76-0.576-1.215-0.75-1.584c-0.418-0.875-3.438-6.75-4.063-8.188c-0.479-1.1-0.637-2.57-0.801-3.488   c-0.043-0.248-0.104-0.459-0.432-0.646l-0.363-0.205c-0.145-0.082-0.248-0.248-0.248-0.496c0-2.266-0.029-10.826-0.5-14.777   c-0.5-4.205-2.676-7.188-4.107-9.281c-6.959-10.188-17.449-24.744-19.51-27.092c-0.787-0.895-1.639-1.576-2.504-2.066   c-2.234-1.27-4.553-1.857-6.148-1.217c-18.666,7.5-45.385,21.385-67.26,33.676c-7.996,4.496-16.24,9.539-24.326,14.732   c-0.24,0.154-0.246,0.262-0.152,0.701c0.033,0.15,0.104,0.336,0.172,0.563c1.43,4.713,7.76,25.879,9.643,37.166   c2.031,12.189,6.676,40.361,7.174,43.469c0.045,0.281,0.168,0.285,0.344,0.387s0.273,0.16,0.338,0.465   c0.121,0.58,0.293,1.223,0.582,1.891c0.383,0.881,1.666,3.428,2.697,5.471l0.117,0.23c0.686,1.359,0.023,2.543-0.365,3.436   c-2.971,6.811-5.648,7.709-5.648,18.887c0,16.807-2.889,37.832-3.084,46.33c-0.215,9.494,1.811,14.643,3.33,17.682   c0.824,1.652,0.637,2.615,0.176,3.805l-0.086,0.186c-0.125,0.258-0.26,0.504-0.406,0.74c-1.457,2.35-5.963,8.852-9.76,11.043   c-0.371,0.215-0.162,0.41,0.076,0.549l0.525,0.305c0.264,0.152,0.432,0.154,0.738-0.021c26.301-15.822,50.557-30.426,66.936-40.313   l0.426-0.291c7.885-4.779,8.701-15.027,10.953-19.432c7.666-15,12.834-29.5,28.5-57.332c10.07-17.895,16.691-29.098,18.371-50.557   C555.859,230.887,555.844,229.834,555.137,227.934z M517.404,234.316c-23.139,16.391-52.691,37.156-65.064,45.898   c-0.303,0.213-0.27-0.01-0.293-0.275c-0.291-3.156-0.811-7.613-1.262-10.475c-3.818-24.219-14.824-56.291-18.408-63.088   c-0.16-0.303-0.232-0.537,0.178-0.773c6.074-3.801,12.086-7.4,17.938-10.689c19.309-10.85,38.822-20.867,53.889-27.85   c0.32-0.148,0.342-0.07,0.41,0.189c2.002,7.633,9.227,35.754,12.064,58.242c0.262,2.072,0.662,6.025,0.867,8.199   C517.752,234.004,517.756,234.066,517.404,234.316z M545.281,214.611c-4.787,3.393-13.885,9.814-24.689,17.451   c-0.221,0.154-0.262,0.053-0.281-0.166c-0.027-0.328-0.057-0.666-0.094-1.025c-0.324-3.191-0.783-7.158-1.184-9.938   c-3.205-22.262-9.963-48.332-11.654-54.715c-0.082-0.311-0.127-0.471,0.283-0.654c3.566-1.602,6.869-3.014,9.857-4.215   c0.295-0.117,0.643-0.182,1.029-0.182c0.566,0,1.246,0.074,1.889,0.445c0.076,0.045,0.215,0.15,0.285,0.203   c0.385,0.285,0.752,0.646,1.117,1.063c2.027,2.307,12.521,16.887,19.361,26.9l0.229,0.334c1.395,2.031,3.131,4.559,3.547,8.063   c0.4,3.354,0.486,12.252,0.486,16.021C545.463,214.402,545.465,214.48,545.281,214.611z" stroke="#000000" outline-element="true" stroke-width="0.5" g2gstroke="#312783" stroke-miterlimit="10"/>
<linearGradient transform="translate(-16.467393441228978, -19.000838586033524) translate(-162.07627752418455, -28.813560448743942) translate(-316.949164936183, -12.605932696325453) translate(841,89) translate(33.34486065673826, 21.74257693481445) translate(-444.7702593608417, -91.23492499709573) translate(425.0, 51.0) translate(10.0, 10.00006103515625)" gradientTransform="matrix(1 0 0 -1 0 595.28)" x1="518.2914" x2="479.2867" y1="262.9317" gradientUnits="userSpaceOnUse" y2="325.1855" xmlns:xlink="http://www.w3.org/1999/xlink" xlink:type="simple" xlink:actuate="onLoad" id="167::SVGID_3_" xlink:show="other">
<stop stop-opacity="0.25" stop-color="#FFFFFF" offset="0.014"/>
<stop stop-opacity="0.58" stop-color="#FFFFFF" offset="0.7745"/>
<stop stop-opacity="0.58" stop-color="#FFFFFF" offset="0.9975"/>
</linearGradient>
<path fill="url(#167::SVGID_3_)" d="M555.768,230.219c-27.709,19.459-62.709,43.609-73.1,50.471c-3.699,2.43-16.391,10.719-33.92,22.148   c0.32,0.971,0.66,2.262,1,4.041c0.84,4.459-2.75,59.141-3.85,63.129c-0.641,2.281-1.33,4.131-1.93,5.66   c27.299-16.459,47.949-28.889,49.199-29.609c2.42-1.4,5.84-2.959,10.391-3.91c1.51-0.311,3.148-0.561,4.92-0.709   c0.139-0.311,0.27-0.611,0.41-0.891c7.67-15,12.84-29.5,28.5-57.33c5.449-9.689,9.898-17.42,13.08-25.881   c2.719-7.16,4.52-14.84,5.289-24.68C555.828,231.719,555.867,230.979,555.768,230.219z M522.277,260.639   c3.41-3.721,13.291-10.811,20.84-13.42c1.281-0.449,1.541-0.16,1.641,0.68c0.109,0.85,0.5,3.029-0.99,4.9   c-0.219,0.279-0.67,0.66-1.369,1.23c-0.381,0.309-0.301,0.609-0.271,1.33c0.021,0.709-0.129,4.6-4.129,7.029   c-4.279,2.609-7.311,0.85-7.949,0.529c-0.41-0.199-0.842-0.068-1.092,0.031c-0.76,0.299-2.619,1.16-4.01,1.549   c-1.51,0.43-2.16-0.439-2.91-1.369C521.498,262.459,521.508,261.479,522.277,260.639z" transform="translate(-16.467393441228978, -19.000838586033524) translate(-162.07627752418455, -28.813560448743942) translate(-316.949164936183, -12.605932696325453) translate(841,89) translate(33.34486065673826, 21.74257693481445) translate(-444.7702593608417, -91.23492499709573) translate(425.0, 51.0) translate(10.0, 10.00006103515625)" orgfill="url(#167::SVGID_3_)"/>
<linearGradient transform="translate(-16.467393441228978, -19.000838586033524) translate(-162.07627752418455, -28.813560448743942) translate(-316.949164936183, -12.605932696325453) translate(841,89) translate(33.34486065673826, 21.74257693481445) translate(-444.7702593608417, -91.23492499709573) translate(425.0, 51.0) translate(10.0, 10.00006103515625)" gradientTransform="matrix(1 0 0 -1 0 595.28)" x1="492.0229" x2="504.4336" y1="347.3445" gradientUnits="userSpaceOnUse" y2="328.5941" xmlns:xlink="http://www.w3.org/1999/xlink" xlink:type="simple" xlink:actuate="onLoad" id="167::SVGID_4_" xlink:show="other">
<stop stop-opacity="0.45" stop-color="#FFFFFF" offset="0.3926"/>
<stop stop-opacity="0.7" stop-color="#FFFFFF" offset="1"/>
</linearGradient>
<path fill="url(#167::SVGID_4_)" d="M555.141,227.932c0.34,0.889,0.51,1.6,0.59,2.279c-27.709,19.459-62.709,43.609-73.1,50.471   c-3.699,2.43-16.391,10.719-33.92,22.148c-0.48-1.459-0.91-2.18-1.16-2.709c-0.42-0.871-3.439-6.75-4.061-8.18   c-0.4-0.91-0.57-1.771-0.709-2.48l-0.01-0.061c0.09,0,0.17-0.059,0.299-0.15c2.17-1.52,4.07-2.85,5.641-3.949   c3.68-2.59,42.32-29.84,71-50.09c14.01-9.891,25.641-18.109,29.66-20.961c0.1,0.131,0.129,0.271,0.16,0.42   c0.16,0.922,0.32,2.391,0.799,3.49c0.621,1.441,3.641,7.311,4.061,8.191C554.561,226.711,554.861,227.17,555.141,227.932z" transform="translate(-16.467393441228978, -19.000838586033524) translate(-162.07627752418455, -28.813560448743942) translate(-316.949164936183, -12.605932696325453) translate(841,89) translate(33.34486065673826, 21.74257693481445) translate(-444.7702593608417, -91.23492499709573) translate(425.0, 51.0) translate(10.0, 10.00006103515625)" orgfill="url(#167::SVGID_4_)"/>
<radialGradient transform="translate(-16.467393441228978, -19.000838586033524) translate(-162.07627752418455, -28.813560448743942) translate(-316.949164936183, -12.605932696325453) translate(841,89) translate(33.34486065673826, 21.74257693481445) translate(-444.7702593608417, -91.23492499709573) translate(425.0, 51.0) translate(10.0, 10.00006103515625)" gradientTransform="matrix(0.444 -0.896 -0.5369 -0.2661 453.8867 887.5686)" gradientUnits="userSpaceOnUse" xmlns:xlink="http://www.w3.org/1999/xlink" xlink:type="simple" r="74.8873" cx="551.1787" xlink:actuate="onLoad" cy="274.6609" id="167::SVGID_5_" xlink:show="other">
<stop stop-opacity="0.1" stop-color="#FFFFFF" offset="0.6601"/>
<stop stop-opacity="0.25" stop-color="#FFFFFF" offset="0.7916"/>
<stop stop-opacity="0" stop-color="#FFFFFF" offset="0.9908"/>
</radialGradient>
<path orgfill="url(#167::SVGID_5_)" enable-background="new    " transform="translate(-16.467393441228978, -19.000838586033524) translate(-162.07627752418455, -28.813560448743942) translate(-316.949164936183, -12.605932696325453) translate(841,89) translate(33.34486065673826, 21.74257693481445) translate(-444.7702593608417, -91.23492499709573) translate(425.0, 51.0) translate(10.0, 10.00006103515625)" fill="url(#167::SVGID_5_)" opacity="0.7" d="M550.432,257.33c-3.182,8.461-7.631,16.191-13.08,25.881   c-15.66,27.83-20.83,42.33-28.5,57.33c-0.141,0.279-0.271,0.58-0.41,0.891c-1.771,0.148-3.41,0.398-4.92,0.709l-0.15-1.949   C509.102,305.291,527.271,275.182,550.432,257.33z"/>
<radialGradient transform="translate(-16.467393441228978, -19.000838586033524) translate(-162.07627752418455, -28.813560448743942) translate(-316.949164936183, -12.605932696325453) translate(841,89) translate(33.34486065673826, 21.74257693481445) translate(-444.7702593608417, -91.23492499709573) translate(425.0, 51.0) translate(10.0, 10.00006103515625)" gradientTransform="matrix(0.7942 -0.6076 -0.2938 -0.3841 208.967 707.1605)" gradientUnits="userSpaceOnUse" xmlns:xlink="http://www.w3.org/1999/xlink" xlink:type="simple" r="14.8876" cx="529.3174" xlink:actuate="onLoad" cy="340.5612" id="167::SVGID_6_" xlink:show="other">
<stop stop-opacity="0.1" stop-color="#FFFFFF" offset="0"/>
<stop stop-opacity="0.35" stop-color="#FFFFFF" offset="0.9924"/>
</radialGradient>
<path fill="url(#167::SVGID_6_)" d="M544.721,247.891c0.109,0.85,0.5,3.029-0.99,4.9c-0.219,0.279-0.67,0.66-1.369,1.23   c-0.381,0.309-0.301,0.609-0.271,1.33c0.021,0.709-0.129,4.6-4.129,7.029c-4.279,2.609-7.311,0.85-7.949,0.529   c-0.41-0.199-0.842-0.068-1.092,0.031c-0.76,0.299-2.619,1.16-4.01,1.549c-1.51,0.43-2.16-0.439-2.91-1.369   c-0.539-0.67-0.529-1.65,0.24-2.49c3.41-3.721,13.291-10.811,20.84-13.42C544.361,246.762,544.621,247.051,544.721,247.891z" transform="translate(-16.467393441228978, -19.000838586033524) translate(-162.07627752418455, -28.813560448743942) translate(-316.949164936183, -12.605932696325453) translate(841,89) translate(33.34486065673826, 21.74257693481445) translate(-444.7702593608417, -91.23492499709573) translate(425.0, 51.0) translate(10.0, 10.00006103515625)" orgfill="url(#167::SVGID_6_)"/>
<linearGradient transform="translate(-16.467393441228978, -19.000838586033524) translate(-162.07627752418455, -28.813560448743942) translate(-316.949164936183, -12.605932696325453) translate(841,89) translate(33.34486065673826, 21.74257693481445) translate(-444.7702593608417, -91.23492499709573) translate(425.0, 51.0) translate(10.0, 10.00006103515625)" gradientTransform="matrix(1 0 0 -1 0 595.28)" x1="424.859" x2="548.5461" y1="371.2486" gradientUnits="userSpaceOnUse" y2="371.2486" xmlns:xlink="http://www.w3.org/1999/xlink" xlink:type="simple" xlink:actuate="onLoad" id="167::SVGID_7_" xlink:show="other">
<stop stop-opacity="0.15" stop-color="#FFFFFF" offset="0"/>
<stop stop-opacity="0.15" stop-color="#FFFFFF" offset="1"/>
</linearGradient>
<path fill="url(#167::SVGID_7_)" d="M548.48,213.32c0-2.26-0.029-10.83-0.5-14.779c-0.5-4.199-2.67-7.18-4.1-9.279   c-6.961-10.191-17.449-24.74-19.51-27.092c-0.791-0.889-1.641-1.578-2.51-2.068c-0.141-0.08-0.281-0.15-0.42-0.221   c-1.65-0.811-3.33-0.91-4.66-0.381c-18.66,7.5-45.381,21.391-67.26,33.682c-8.021,4.51-16.291,9.549-24.391,14.77   c-0.09,0.061-0.17,0.119-0.27,0.119l0.07,0.16c0,0,7.799,25.361,9.93,38.111c2.01,12.068,6.379,38.789,6.93,42.229   c0.02,0.15,0.029,0.24,0.08,0.32l0.08-0.039c2.25-1.58,4.199-2.951,5.82-4.09c0.58-0.4,3.719-2.621,4.129-2.9   c0.211-0.15,0.301-0.191,0.26-0.641c-0.029-0.32-0.059-0.66-0.09-1.02h0.01c-0.029-0.061-0.02-0.16-0.029-0.27   c-0.289-3.15-0.811-7.611-1.26-10.471c-3.82-24.221-14.83-56.291-18.41-63.09c-0.16-0.301-0.23-0.529,0.18-0.77   c6.07-3.801,12.08-7.4,17.93-10.691c19.09-10.729,38.391-20.639,53.381-27.609c0.189-0.09,0.41-0.189,0.65-0.301   c0.299-0.139,0.619-0.289,0.959-0.439c1.33,4.951,9.371,35.471,12.41,59.541c0.27,2.16,0.699,6.369,0.891,8.469v0.021   c0.15,0,0.25-0.08,0.369-0.172c0.371-0.26,0.73-0.52,1.09-0.779c0.221-0.15,0.23-0.32,0.201-0.529c-0.051-0.34-0.08-0.67-0.111-1   l0.031-0.02c-0.031-0.041-0.041-0.111-0.051-0.201c-0.02-0.33-0.049-0.66-0.09-1.02c-0.32-3.189-0.779-7.16-1.18-9.939   c-3.211-22.262-9.971-48.33-11.66-54.721c-0.08-0.301-0.131-0.461,0.23-0.631c0.16-0.068,0.309-0.139,0.449-0.199   c3.42-1.529,6.58-2.881,9.461-4.029c0.299-0.121,0.639-0.191,1.029-0.191c0.57,0,1.25,0.08,1.891,0.451   c0.02,0.01,0.049,0.02,0.07,0.039c0.779,0.361,1.59,0.961,2.369,1.83c2.02,2.311,12.52,16.891,19.359,26.9l0.23,0.34   c1.391,2.029,3.131,4.561,3.541,8.061c0.408,3.389,0.479,12.439,0.488,16.129l0.021,0.102c0.109-0.012,0.219-0.102,0.369-0.201   c0.621-0.439,1.15-0.82,1.59-1.129l0.07-0.051C548.512,213.551,548.48,213.451,548.48,213.32z" transform="translate(-16.467393441228978, -19.000838586033524) translate(-162.07627752418455, -28.813560448743942) translate(-316.949164936183, -12.605932696325453) translate(841,89) translate(33.34486065673826, 21.74257693481445) translate(-444.7702593608417, -91.23492499709573) translate(425.0, 51.0) translate(10.0, 10.00006103515625)" orgfill="url(#167::SVGID_7_)"/>
<linearGradient transform="translate(-16.467393441228978, -19.000838586033524) translate(-162.07627752418455, -28.813560448743942) translate(-316.949164936183, -12.605932696325453) translate(841,89) translate(33.34486065673826, 21.74257693481445) translate(-444.7702593608417, -91.23492499709573) translate(425.0, 51.0) translate(10.0, 10.00006103515625)" gradientTransform="matrix(1 0 0 -1 0 595.28)" x1="462.8058" x2="480.3679" y1="252.1037" gradientUnits="userSpaceOnUse" y2="221.6851" xmlns:xlink="http://www.w3.org/1999/xlink" xlink:type="simple" xlink:actuate="onLoad" id="167::SVGID_8_" xlink:show="other">
<stop stop-opacity="0.15" stop-color="#FFFFFF" offset="0.5758"/>
<stop stop-opacity="0.5" stop-color="#FFFFFF" offset="0.7088"/>
</linearGradient>
<path fill="url(#167::SVGID_8_)" d="M508.441,341.432c-0.631,1.539-1.18,3.539-1.881,5.699l-0.061-0.02   c-7.51,5.35-21.51,13.76-65.068,39.83c0.59-2.07,0.799-4.48,1.049-6.881c0.121-1.1,0.711-2.5,1.451-4.4   c27.299-16.459,47.949-28.889,49.199-29.609c2.42-1.4,5.84-2.959,10.391-3.91C505.031,341.83,506.67,341.58,508.441,341.432z" transform="translate(-16.467393441228978, -19.000838586033524) translate(-162.07627752418455, -28.813560448743942) translate(-316.949164936183, -12.605932696325453) translate(841,89) translate(33.34486065673826, 21.74257693481445) translate(-444.7702593608417, -91.23492499709573) translate(425.0, 51.0) translate(10.0, 10.00006103515625)" orgfill="url(#167::SVGID_8_)"/>
<linearGradient transform="translate(-16.467393441228978, -19.000838586033524) translate(-162.07627752418455, -28.813560448743942) translate(-316.949164936183, -12.605932696325453) translate(841,89) translate(33.34486065673826, 21.74257693481445) translate(-444.7702593608417, -91.23492499709573) translate(425.0, 51.0) translate(10.0, 10.00006103515625)" gradientTransform="matrix(1 0 0 -1 0 595.28)" x1="478.811" x2="459.5067" y1="203.9269" gradientUnits="userSpaceOnUse" y2="236.5188" xmlns:xlink="http://www.w3.org/1999/xlink" xlink:type="simple" xlink:actuate="onLoad" id="167::SVGID_9_" xlink:show="other">
<stop stop-opacity="0.25" stop-color="#FFFFFF" offset="0.5758"/>
<stop stop-opacity="0.62" stop-color="#FFFFFF" offset="0.7022"/>
</linearGradient>
<path fill="url(#167::SVGID_9_)" d="M506.5,347.111l0.061,0.02c-1.49,4.551-3.65,9.801-8.66,12.84l-0.43,0.301   c-16.381,9.879-40.631,24.49-66.93,40.309c-0.061,0.031-0.109,0.061-0.16,0.08c3.699-2.309,8.49-8.789,9.959-11.16   c0.471-0.76,0.82-1.619,1.092-2.559C484.99,360.871,498.99,352.461,506.5,347.111z" transform="translate(-16.467393441228978, -19.000838586033524) translate(-162.07627752418455, -28.813560448743942) translate(-316.949164936183, -12.605932696325453) translate(841,89) translate(33.34486065673826, 21.74257693481445) translate(-444.7702593608417, -91.23492499709573) translate(425.0, 51.0) translate(10.0, 10.00006103515625)" orgfill="url(#167::SVGID_9_)"/>
<linearGradient transform="translate(-16.467393441228978, -19.000838586033524) translate(-162.07627752418455, -28.813560448743942) translate(-316.949164936183, -12.605932696325453) translate(841,89) translate(33.34486065673826, 21.74257693481445) translate(-444.7702593608417, -91.23492499709573) translate(425.0, 51.0) translate(10.0, 10.00006103515625)" gradientTransform="matrix(1 0 0 -1 0 595.28)" x1="435.9278" x2="448.5833" y1="252.6695" gradientUnits="userSpaceOnUse" y2="252.6695" xmlns:xlink="http://www.w3.org/1999/xlink" xlink:type="simple" xlink:actuate="onLoad" id="167::SVGID_10_" xlink:show="other">
<stop stop-opacity="0.15" stop-color="#FFFFFF" offset="0"/>
<stop stop-opacity="0.15" stop-color="#FFFFFF" offset="1"/>
</linearGradient>
<path fill="url(#167::SVGID_10_)" d="M443.771,319.631c0.449,0.26,0.809,0.891,0.809,1.41s-0.359,0.73-0.809,0.471   c-0.451-0.262-0.811-0.891-0.811-1.41C442.961,319.58,443.32,319.371,443.771,319.631z M443.42,325.342   c0.451,0.26,0.811,0.889,0.811,1.408c0,0.521-0.359,0.73-0.811,0.471c-0.449-0.26-0.809-0.891-0.809-1.41   S442.971,325.08,443.42,325.342z M442.361,370.391c-0.451-0.26-0.811-0.879-0.811-1.4c0-0.52,0.359-0.729,0.811-0.469   c0.449,0.26,0.809,0.889,0.809,1.41C443.17,370.441,442.811,370.65,442.361,370.391z M442.361,347.57   c-1.041-0.6-1.871-2.049-1.871-3.25c0-0.109,0.01-0.209,0.021-0.299c0.129-0.98,0.898-1.33,1.85-0.791   c0.34,0.201,0.66,0.49,0.93,0.84c0.27,0.24,0.49,0.59,0.59,0.951c0.01,0,0.01,0.01,0.01,0.02c0.211,0.48,0.34,0.98,0.34,1.449   C444.23,347.682,443.391,348.16,442.361,347.57z M442.406,375.068c-0.109,0-0.23-0.035-0.361-0.109   c-0.449-0.26-0.811-0.889-0.811-1.408c0-0.516,0.361-0.727,0.811-0.469c0.357,0.205,0.66,0.648,0.77,1.082l0.084-0.219   c0.512-1.336,1.068-2.898,1.582-4.744c0.439-1.6,1.301-11.26,2.131-22.531c1.219-16.779,2.35-37.129,1.85-39.799   c-0.84-4.451-1.75-5.871-2.17-6.75c-0.15-0.32-0.641-1.27-1.23-2.451c0.66,1.352,0.01,2.521-0.379,3.4   c-2.971,6.811-5.65,7.711-5.65,18.891c0,7.6-0.59,16.051-1.25,23.82c-0.811,9.43-1.73,17.85-1.84,22.51   c-0.211,9.49,1.809,14.641,3.33,17.68c0.779,1.541,0.66,2.49,0.26,3.58c1.01-2.311,1.26-5.311,1.57-8.289   c0.107-1.02,0.619-2.301,1.287-3.994L442.406,375.068z" transform="translate(-16.467393441228978, -19.000838586033524) translate(-162.07627752418455, -28.813560448743942) translate(-316.949164936183, -12.605932696325453) translate(841,89) translate(33.34486065673826, 21.74257693481445) translate(-444.7702593608417, -91.23492499709573) translate(425.0, 51.0) translate(10.0, 10.00006103515625)" orgfill="url(#167::SVGID_10_)"/>
<path stroke-linecap="round" orgstroke="#000000" orgfill="none" transform="translate(-16.467393441228978, -19.000838586033524) translate(-162.07627752418455, -28.813560448743942) translate(-316.949164936183, -12.605932696325453) translate(841,89) translate(33.34486065673826, 21.74257693481445) translate(-444.7702593608417, -91.23492499709573) translate(425.0, 51.0) translate(10.0, 10.00006103515625)" fill="none" stroke-linejoin="round" d="   M441.943,288.857c2.252-1.58,4.207-2.953,5.828-4.09c0.576-0.404,3.711-2.625,4.123-2.904c0.215-0.145,0.299-0.191,0.262-0.639   c-0.025-0.318-0.055-0.66-0.086-1.02" stroke="#000000" stroke-width="0.25" g2gstroke="#312783" stroke-miterlimit="10"/>
<path stroke-linecap="round" orgstroke="#000000" orgfill="none" transform="translate(-16.467393441228978, -19.000838586033524) translate(-162.07627752418455, -28.813560448743942) translate(-316.949164936183, -12.605932696325453) translate(841,89) translate(33.34486065673826, 21.74257693481445) translate(-444.7702593608417, -91.23492499709573) translate(425.0, 51.0) translate(10.0, 10.00006103515625)" fill="none" stroke-linejoin="round" d="   M442.777,289.467c0.143,0.709,0.311,1.57,0.705,2.475c0.625,1.438,3.645,7.313,4.061,8.188s1.336,2.293,2.168,6.75   c0.832,4.459-2.752,59.133-3.854,63.125c-1.406,5.09-3.174,8.07-3.381,10.061c-0.359,3.502-0.641,7.023-2.141,9.441   c-1.5,2.416-6.455,9.115-10.188,11.301" stroke="#000000" stroke-width="0.25" g2gstroke="#312783" stroke-miterlimit="10"/>
<path stroke-linecap="round" orgstroke="#000000" orgfill="none" transform="translate(-16.467393441228978, -19.000838586033524) translate(-162.07627752418455, -28.813560448743942) translate(-316.949164936183, -12.605932696325453) translate(841,89) translate(33.34486065673826, 21.74257693481445) translate(-444.7702593608417, -91.23492499709573) translate(425.0, 51.0) translate(10.0, 10.00006103515625)" fill="none" stroke-linejoin="round" d="   M439.361,387.967c1.148-2.365,1.41-5.541,1.734-8.699c0.207-1.992,1.975-4.973,3.381-10.061c1.102-3.994,4.811-57.869,3.977-62.328   c-0.832-4.457-1.75-5.875-2.166-6.75c-0.162-0.34-0.713-1.428-1.365-2.717" stroke="#000000" stroke-width="0.25" g2gstroke="#312783" stroke-miterlimit="10"/>
<path stroke-linecap="round" orgstroke="#000000" orgfill="none" transform="translate(-16.467393441228978, -19.000838586033524) translate(-162.07627752418455, -28.813560448743942) translate(-316.949164936183, -12.605932696325453) translate(841,89) translate(33.34486065673826, 21.74257693481445) translate(-444.7702593608417, -91.23492499709573) translate(425.0, 51.0) translate(10.0, 10.00006103515625)" fill="none" stroke-linejoin="round" d="   M546.494,214.92c-0.01-3.699-0.08-12.748-0.484-16.137c-0.416-3.504-2.152-6.031-3.547-8.063l-0.229-0.334   c-6.84-10.012-17.334-24.594-19.361-26.9c-0.793-0.9-1.633-1.508-2.436-1.873" stroke="#000000" stroke-width="0.25" g2gstroke="#312783" stroke-miterlimit="10"/>
<path stroke-linecap="round" orgstroke="#000000" orgfill="none" transform="translate(-16.467393441228978, -19.000838586033524) translate(-162.07627752418455, -28.813560448743942) translate(-316.949164936183, -12.605932696325453) translate(841,89) translate(33.34486065673826, 21.74257693481445) translate(-444.7702593608417, -91.23492499709573) translate(425.0, 51.0) translate(10.0, 10.00006103515625)" fill="none" stroke-linejoin="round" d="   M505.475,166.547c1.309,4.883,9.373,35.457,12.414,59.559c0.273,2.16,0.703,6.373,0.893,8.471" stroke="#000000" stroke-width="0.25" g2gstroke="#312783" stroke-miterlimit="10"/>
<path stroke-linecap="round" orgstroke="#000000" orgfill="none" transform="translate(-16.467393441228978, -19.000838586033524) translate(-162.07627752418455, -28.813560448743942) translate(-316.949164936183, -12.605932696325453) translate(841,89) translate(33.34486065673826, 21.74257693481445) translate(-444.7702593608417, -91.23492499709573) translate(425.0, 51.0) translate(10.0, 10.00006103515625)" fill="none" stroke-linejoin="round" d="   M520.33,232.115c0.029,0.334,0.061,0.66,0.107,0.996c0.029,0.211,0.02,0.385-0.195,0.537c-0.361,0.256-0.727,0.514-1.094,0.773   c-0.195,0.139-0.359,0.254-0.652,0.08l-0.74-0.436" stroke="#000000" stroke-width="0.25" g2gstroke="#312783" stroke-miterlimit="10"/>
<path stroke-linecap="round" orgstroke="#000000" orgfill="none" transform="translate(-16.467393441228978, -19.000838586033524) translate(-162.07627752418455, -28.813560448743942) translate(-316.949164936183, -12.605932696325453) translate(841,89) translate(33.34486065673826, 21.74257693481445) translate(-444.7702593608417, -91.23492499709573) translate(425.0, 51.0) translate(10.0, 10.00006103515625)" fill="none" stroke-linejoin="round" d="   M508.061,165.385c-1.092,0.492-3.049,1.393-4.195,1.92" stroke="#000000" stroke-width="0.25" g2gstroke="#312783" stroke-miterlimit="10"/>
<path stroke-linecap="round" orgstroke="#000000" orgfill="none" transform="translate(-16.467393441228978, -19.000838586033524) translate(-162.07627752418455, -28.813560448743942) translate(-316.949164936183, -12.605932696325453) translate(841,89) translate(33.34486065673826, 21.74257693481445) translate(-444.7702593608417, -91.23492499709573) translate(425.0, 51.0) translate(10.0, 10.00006103515625)" fill="none" stroke-linejoin="round" d="   M549.42,214.215c-12.1,8.609-95.223,67.234-100.709,71.086c-1.576,1.105-3.471,2.434-5.643,3.959   c-0.227,0.158-0.291,0.207-0.588,0.035l-0.285-0.16c-0.357-0.203-0.363-0.258-0.41-0.557c-0.551-3.447-4.918-30.16-6.93-42.232   c-2.125-12.75-9.932-38.111-9.932-38.111" stroke="#000000" stroke-width="0.25" g2gstroke="#312783" stroke-miterlimit="10"/>
<path stroke-linecap="round" orgstroke="#000000" orgfill="none" transform="translate(-16.467393441228978, -19.000838586033524) translate(-162.07627752418455, -28.813560448743942) translate(-316.949164936183, -12.605932696325453) translate(841,89) translate(33.34486065673826, 21.74257693481445) translate(-444.7702593608417, -91.23492499709573) translate(425.0, 51.0) translate(10.0, 10.00006103515625)" fill="none" stroke-linejoin="round" d="   M424.012,207.641l0.607,0.355c0.26,0.15,0.355,0.061,0.51-0.039c8.098-5.227,16.373-10.266,24.391-14.771   c21.875-12.291,48.594-26.176,67.26-33.676c1.436-0.578,3.285-0.414,5.08,0.6" stroke="#000000" stroke-width="0.25" g2gstroke="#312783" stroke-miterlimit="10"/>
<path stroke-linecap="round" orgstroke="#000000" orgfill="none" transform="translate(-16.467393441228978, -19.000838586033524) translate(-162.07627752418455, -28.813560448743942) translate(-316.949164936183, -12.605932696325453) translate(841,89) translate(33.34486065673826, 21.74257693481445) translate(-444.7702593608417, -91.23492499709573) translate(425.0, 51.0) translate(10.0, 10.00006103515625)" fill="none" stroke-linejoin="round" d="   M545.463,214.484l0.805,0.473c0.229,0.135,0.367,0.035,0.619-0.143c0.621-0.441,1.154-0.82,1.594-1.133" stroke="#000000" stroke-width="0.25" g2gstroke="#312783" stroke-miterlimit="10"/>
<path orgstroke="#000000" orgfill="none" transform="translate(-16.467393441228978, -19.000838586033524) translate(-162.07627752418455, -28.813560448743942) translate(-316.949164936183, -12.605932696325453) translate(841,89) translate(33.34486065673826, 21.74257693481445) translate(-444.7702593608417, -91.23492499709573) translate(425.0, 51.0) translate(10.0, 10.00006103515625)" fill="none" d="M442.406,375.068c-0.109,0-0.23-0.035-0.361-0.109   c-0.449-0.26-0.811-0.889-0.811-1.408c0-0.516,0.361-0.727,0.811-0.469c0.357,0.205,0.66,0.648,0.77,1.082" stroke="#000000" stroke-width="0.25" g2gstroke="#312783"/>
<path orgstroke="#000000" orgfill="none" transform="translate(-16.467393441228978, -19.000838586033524) translate(-162.07627752418455, -28.813560448743942) translate(-316.949164936183, -12.605932696325453) translate(841,89) translate(33.34486065673826, 21.74257693481445) translate(-444.7702593608417, -91.23492499709573) translate(425.0, 51.0) translate(10.0, 10.00006103515625)" fill="none" d="M442.357,370.396c-0.449-0.258-0.813-0.887-0.813-1.404   s0.363-0.73,0.813-0.471c0.447,0.258,0.811,0.891,0.811,1.408S442.805,370.656,442.357,370.396z" stroke="#000000" stroke-width="0.25" g2gstroke="#312783"/>
<path orgstroke="#000000" orgfill="none" transform="translate(-16.467393441228978, -19.000838586033524) translate(-162.07627752418455, -28.813560448743942) translate(-316.949164936183, -12.605932696325453) translate(841,89) translate(33.34486065673826, 21.74257693481445) translate(-444.7702593608417, -91.23492499709573) translate(425.0, 51.0) translate(10.0, 10.00006103515625)" fill="none" d="M443.416,327.221c-0.449-0.26-0.813-0.887-0.813-1.406   c0-0.518,0.363-0.73,0.813-0.469c0.447,0.256,0.813,0.889,0.813,1.406S443.863,327.48,443.416,327.221z" stroke="#000000" stroke-width="0.25" g2gstroke="#312783"/>
<path orgstroke="#000000" orgfill="none" transform="translate(-16.467393441228978, -19.000838586033524) translate(-162.07627752418455, -28.813560448743942) translate(-316.949164936183, -12.605932696325453) translate(841,89) translate(33.34486065673826, 21.74257693481445) translate(-444.7702593608417, -91.23492499709573) translate(425.0, 51.0) translate(10.0, 10.00006103515625)" fill="none" d="M442.355,347.57c-1.035-0.598-1.873-2.051-1.873-3.248   c0-1.195,0.838-1.682,1.873-1.084c1.035,0.596,1.875,2.053,1.875,3.252C444.23,347.684,443.391,348.168,442.355,347.57z" stroke="#000000" stroke-width="0.25" g2gstroke="#312783"/>
<path orgstroke="#000000" orgfill="none" transform="translate(-16.467393441228978, -19.000838586033524) translate(-162.07627752418455, -28.813560448743942) translate(-316.949164936183, -12.605932696325453) translate(841,89) translate(33.34486065673826, 21.74257693481445) translate(-444.7702593608417, -91.23492499709573) translate(425.0, 51.0) translate(10.0, 10.00006103515625)" fill="none" d="M443.768,321.512c-0.449-0.26-0.811-0.889-0.811-1.406   s0.361-0.73,0.811-0.471c0.449,0.258,0.811,0.891,0.811,1.408S444.217,321.771,443.768,321.512z" stroke="#000000" stroke-width="0.25" g2gstroke="#312783"/>
<path orgstroke="#000000" orgfill="none" transform="translate(-16.467393441228978, -19.000838586033524) translate(-162.07627752418455, -28.813560448743942) translate(-316.949164936183, -12.605932696325453) translate(841,89) translate(33.34486065673826, 21.74257693481445) translate(-444.7702593608417, -91.23492499709573) translate(425.0, 51.0) translate(10.0, 10.00006103515625)" fill="none" d="M443,346.047c-0.527-0.303-0.955-1.045-0.955-1.65   c0-0.609,0.428-0.859,0.955-0.555s0.955,1.045,0.955,1.658C443.955,346.105,443.527,346.35,443,346.047z" stroke="#000000" stroke-width="0.25" g2gstroke="#312783"/>
<path stroke-linecap="round" orgstroke="#000000" orgfill="none" transform="translate(-16.467393441228978, -19.000838586033524) translate(-162.07627752418455, -28.813560448743942) translate(-316.949164936183, -12.605932696325453) translate(841,89) translate(33.34486065673826, 21.74257693481445) translate(-444.7702593608417, -91.23492499709573) translate(425.0, 51.0) translate(10.0, 10.00006103515625)" fill="none" stroke-linejoin="round" d="   M555.137,227.934c-0.283-0.76-0.576-1.215-0.75-1.584c-0.418-0.875-3.438-6.75-4.063-8.188c-0.479-1.1-0.637-2.57-0.801-3.488   c-0.043-0.248-0.104-0.459-0.432-0.646l-0.363-0.205c-0.145-0.082-0.248-0.248-0.248-0.496c0-2.266-0.029-10.826-0.5-14.777   c-0.5-4.205-2.676-7.188-4.107-9.281c-6.959-10.188-17.449-24.744-19.51-27.092c-0.787-0.895-1.639-1.576-2.504-2.066   c-2.234-1.27-4.553-1.857-6.148-1.217c-18.666,7.5-45.385,21.385-67.26,33.676c-7.996,4.496-16.24,9.539-24.326,14.732   c-0.24,0.154-0.246,0.262-0.152,0.701c0.033,0.15,0.104,0.336,0.172,0.563c1.43,4.713,7.76,25.879,9.643,37.166   c2.031,12.189,6.676,40.361,7.174,43.469c0.045,0.281,0.168,0.285,0.344,0.387s0.273,0.16,0.338,0.465   c0.121,0.58,0.293,1.223,0.582,1.891c0.383,0.881,1.666,3.428,2.697,5.471l0.117,0.23c0.686,1.359,0.023,2.543-0.365,3.436   c-2.971,6.811-5.648,7.709-5.648,18.887c0,16.807-2.889,37.832-3.084,46.33c-0.215,9.494,1.811,14.643,3.33,17.682   c0.824,1.652,0.637,2.615,0.176,3.805l-0.086,0.186c-0.125,0.258-0.26,0.504-0.406,0.74c-1.457,2.35-5.963,8.852-9.76,11.043   c-0.371,0.215-0.162,0.41,0.076,0.549l0.525,0.305c0.264,0.152,0.432,0.154,0.738-0.021c26.301-15.822,50.557-30.426,66.936-40.313   l0.426-0.291c7.885-4.779,8.701-15.027,10.953-19.432c7.666-15,12.834-29.5,28.5-57.332c10.07-17.895,16.691-29.098,18.371-50.557   C555.859,230.887,555.844,229.834,555.137,227.934z M517.404,234.316c-23.139,16.391-52.691,37.156-65.064,45.898   c-0.303,0.213-0.27-0.01-0.293-0.275c-0.291-3.156-0.811-7.613-1.262-10.475c-3.818-24.219-14.824-56.291-18.408-63.088   c-0.16-0.303-0.232-0.537,0.178-0.773c6.074-3.801,12.086-7.4,17.938-10.689c19.309-10.85,38.822-20.867,53.889-27.85   c0.32-0.148,0.342-0.07,0.41,0.189c2.002,7.633,9.227,35.754,12.064,58.242c0.262,2.072,0.662,6.025,0.867,8.199   C517.752,234.004,517.756,234.066,517.404,234.316z M545.281,214.611c-4.787,3.393-13.885,9.814-24.689,17.451   c-0.221,0.154-0.262,0.053-0.281-0.166c-0.027-0.328-0.057-0.666-0.094-1.025c-0.324-3.191-0.783-7.158-1.184-9.938   c-3.205-22.262-9.963-48.332-11.654-54.715c-0.082-0.311-0.127-0.471,0.283-0.654c3.566-1.602,6.869-3.014,9.857-4.215   c0.295-0.117,0.643-0.182,1.029-0.182c0.566,0,1.246,0.074,1.889,0.445c0.076,0.045,0.215,0.15,0.285,0.203   c0.385,0.285,0.752,0.646,1.117,1.063c2.027,2.307,12.521,16.887,19.361,26.9l0.229,0.334c1.395,2.031,3.131,4.559,3.547,8.063   c0.4,3.354,0.486,12.252,0.486,16.021C545.463,214.402,545.465,214.48,545.281,214.611z" stroke="#000000" stroke-width="0.25" g2gstroke="#312783" stroke-miterlimit="10"/>
</g>
</g>
</g>
</g>
</g>
</g></svg>