<svg xmlns="http://www.w3.org/2000/svg" xmlns:xlink="http://www.w3.org/1999/xlink" xmlns:x="http://ns.adobe.com/Extensibility/1.0/" xmlns:graph="http://ns.adobe.com/Graphs/1.0/" xmlns:i="http://ns.adobe.com/AdobeIllustrator/10.0/" xmlns:etg="http://www.eurotaxglass.com/etg/evd/" etg:dataTimestamp="1539068912893" contentScriptType="text/ecmascript" zoomAndPan="magnify" contentStyleType="text/css" id="Layer_1" enable-background="new 0 0 1841.891 1595.279" version="1.1" xml:space="preserve" width="1841.891px" preserveAspectRatio="xMidYMid meet" viewBox="0 0 1841.891 1595.279" height="1595.279px" x="0px" y="0px"><g xmlns="http://www.w3.org/2000/svg" objecttype="PS" tooltip="#UNDEFINED" id="176">
<g onmouseover="notifyOwner(AGV_OBJECT_MOUSEOVER, '176(PS)')" transform="translate(-9.433746356535266E-6, 3.356933575560106E-7) translate(-35.71980609130861, -13.200809143066408) translate(44.708733184814434, 94.79042849731445) matrix(0.6117410612267968 0 0 0.6117410612267968 0.2921243287958965 0.477310974878083) translate(-92,-34) " onclick="clickZoom(evt); notifyOwner(AGV_OBJECT_MOUSECLICK, '176(PS)')" onmouseout="notifyOwner(AGV_OBJECT_MOUSEOUT, '176(PS)')" tooltip="#UNDEFINED" id="176-Graphic" objecttype="GRAPHIC">
<g zvalue="177">
<g zvalue="25">
<g zvalue="22">
<g>
<path orgstroke="#000000" stroke="#000000" d="   M554.523,258.068c-0.266,0.125-0.355,0.34-0.355,0.582c0,0.24,0,1.619,0,1.945c0,0.328,0.059,0.463,0.355,0.672   s3.793,2.555,4.063,2.711s0.48,0.215,0.646,0c1.107-1.436,1.623-3.172,1.428-5.939c-0.029-0.428-0.113-0.824-0.297-1.549   c-0.186-0.725-0.869-0.426-1.307-0.264C556.973,257,554.523,258.068,554.523,258.068z" stroke-linecap="round" outline-element="true" transform="translate(-16.467393441228978, -19.000838586033524) translate(-162.07627752418455, -28.813560448743942) translate(-316.949164936183, -12.605932696325453) translate(841,89) translate(33.34486065673826, 21.74257693481445) translate(0.0, 0.10615803400497725) translate(-9.129590924428271, -8.06801058437847) translate(-444.7702593608417, -91.23492499709573) translate(425.0, 51.0) translate(10.0, 10.00006103515625)" stroke-miterlimit="10" orgfill="#ffffff" fill="#ffffff" stroke-width="0.5" g2gfill="#ECC35D" stroke-linejoin="round" g2gstroke="#312783"/>
<path stroke-linecap="round" orgstroke="#000000" orgfill="none" transform="translate(-16.467393441228978, -19.000838586033524) translate(-162.07627752418455, -28.813560448743942) translate(-316.949164936183, -12.605932696325453) translate(841,89) translate(33.34486065673826, 21.74257693481445) translate(0.0, 0.10615803400497725) translate(-9.129590924428271, -8.06801058437847) translate(-444.7702593608417, -91.23492499709573) translate(425.0, 51.0) translate(10.0, 10.00006103515625)" fill="none" stroke-linejoin="round" d="   M559.035,261.789c0.082-0.16,0.154-0.32,0.219-0.482c0.781-1.949,1.068-3.83,0.838-5.217" stroke="#000000" stroke-width="0.25" g2gstroke="#312783" stroke-miterlimit="10"/>
<path stroke-linecap="round" orgstroke="#000000" orgfill="none" transform="translate(-16.467393441228978, -19.000838586033524) translate(-162.07627752418455, -28.813560448743942) translate(-316.949164936183, -12.605932696325453) translate(841,89) translate(33.34486065673826, 21.74257693481445) translate(0.0, 0.10615803400497725) translate(-9.129590924428271, -8.06801058437847) translate(-444.7702593608417, -91.23492499709573) translate(425.0, 51.0) translate(10.0, 10.00006103515625)" fill="none" stroke-linejoin="round" d="   M554.416,258.322c0.695,0.459,3.734,2.48,4.156,2.928c0.479,0.504,0.641,0.816,0.754,1.207c0.088,0.314,0,0.867,0,1.066   c0,0.143,0,0.314-0.129,0.52" stroke="#000000" stroke-width="0.25" g2gstroke="#312783" stroke-miterlimit="10"/>
<ellipse orgstroke="#000000" stroke="#000000" stroke-linecap="round" transform="translate(-16.467393441228978, -19.000838586033524) translate(-162.07627752418455, -28.813560448743942) translate(-316.949164936183, -12.605932696325453) translate(841,89) translate(33.34486065673826, 21.74257693481445) translate(0.0, 0.10615803400497725) translate(-9.129590924428271, -8.06801058437847) translate(-444.7702593608417, -91.23492499709573) translate(425.0, 51.0) translate(10.0, 10.00006103515625) matrix(-0.1399 0.9902 -0.9902 -0.1399 896.6233 -257.3822)" stroke-miterlimit="10" orgfill="none" fill="none" stroke-width="0.25" stroke-linejoin="round" cx="560.099" rx="0.846" g2gstroke="#312783" ry="0.181" cy="260.733"/>
</g>
</g>
</g>
</g>
</g>
</g></svg>