<svg xmlns="http://www.w3.org/2000/svg" xmlns:xlink="http://www.w3.org/1999/xlink" xmlns:x="http://ns.adobe.com/Extensibility/1.0/" xmlns:graph="http://ns.adobe.com/Graphs/1.0/" xmlns:i="http://ns.adobe.com/AdobeIllustrator/10.0/" xmlns:etg="http://www.eurotaxglass.com/etg/evd/" etg:dataTimestamp="1539068912893" contentScriptType="text/ecmascript" zoomAndPan="magnify" contentStyleType="text/css" id="Layer_1" enable-background="new 0 0 1841.891 1595.279" version="1.1" xml:space="preserve" width="1841.891px" preserveAspectRatio="xMidYMid meet" viewBox="0 0 1841.891 1595.279" height="1595.279px" x="0px" y="0px"><g xmlns="http://www.w3.org/2000/svg" objecttype="PS" tooltip="#UNDEFINED" id="179">
<g onmouseover="notifyOwner(AGV_OBJECT_MOUSEOVER, '179(PS)')" transform="translate(-9.433746356535266E-6, 3.356933575560106E-7) translate(-35.71980609130861, -13.200809143066408) translate(44.708733184814434, 94.79042849731445) matrix(0.6117410612267968 0 0 0.6117410612267968 0.2921243287958965 0.477310974878083) translate(-92,-34) " onclick="clickZoom(evt); notifyOwner(AGV_OBJECT_MOUSECLICK, '179(PS)')" onmouseout="notifyOwner(AGV_OBJECT_MOUSEOUT, '179(PS)')" tooltip="#UNDEFINED" id="179-Graphic" objecttype="GRAPHIC">
<g zvalue="180">
<g zvalue="20">
<g zvalue="6">
<g>
<path orgstroke="#000000" orgfill="none" transform="translate(-16.467393441228978, -19.000838586033524) translate(-162.07627752418455, -28.813560448743942) translate(-316.949164936183, -12.605932696325453) translate(-58.14081484389976, -48.93518582694895) translate(16.207627752418375, -385.38137100195) translate(97.24576651451093, 140.46610718762656) translate(781,377) translate(-2.3992265625000186, 12.519657470703123) translate(44.45404802814528, 18.185746920604885) translate(-5.827521568780526, 0.8325030812544014) translate(-445.3891484710807, -115.71792829435554) translate(0.8325030812543446, 0.0) translate(4.285714285714334, -150.0) translate(445.71428571428567, 237.14285714285705) translate(14.285714285714285, 14.285775320870535)" fill="none" d="M488.582,217c0.18,0.149,0.609-0.019,0.779-0.131   c6.119-4.054,11.898-7.918,17.787-11.837c3.984-2.659,8.936-5.986,14.389-9.663c0.607-0.409,0.744-0.603,0.25-1.081   c-0.223-0.217-0.5-0.476-0.848-0.82c-1.371-1.355-45.805-44.689-48.609-47.286c-0.209-0.194-0.408-0.369-0.6-0.531" stroke="#000000" stroke-width="0.25" g2gstroke="#312783"/>
<path orgstroke="#000000" orgfill="#ffffff" transform="translate(-16.467393441228978, -19.000838586033524) translate(-162.07627752418455, -28.813560448743942) translate(-316.949164936183, -12.605932696325453) translate(-58.14081484389976, -48.93518582694895) translate(16.207627752418375, -385.38137100195) translate(97.24576651451093, 140.46610718762656) translate(781,377) translate(-2.3992265625000186, 12.519657470703123) translate(44.45404802814528, 18.185746920604885) translate(-5.827521568780526, 0.8325030812544014) translate(-445.3891484710807, -115.71792829435554) translate(0.8325030812543446, 0.0) translate(4.285714285714334, -150.0) translate(445.71428571428567, 237.14285714285705) translate(14.285714285714285, 14.285775320870535)" fill="#ffffff" g2gfill="#0096C8" opacity="0.6" d="M473.869,146.938   c0.121,0.107,0.25,0.221,0.381,0.343c2.805,2.598,47.24,45.931,48.611,47.286c0.35,0.345,0.627,0.604,0.848,0.819   c0.496,0.479,0.359,0.672-0.25,1.082c-5.453,3.677-10.406,7.004-14.391,9.663c-5.887,3.919-11.898,7.936-18.018,11.989   c-0.145,0.097-0.471,0.035-0.75-0.145c-0.281-0.18-0.902-0.516-1.33-0.751c-0.43-0.235-0.574-0.425-0.654-0.603   c-0.217-0.488-22.504-58.676-25.162-65.604c-0.158-0.414-0.215-0.667,0.277-0.95c2.582-1.494,5.139-2.906,7.627-4.302   c0.279-0.157,0.486-0.27,1.104,0.084l0.961,0.549C473.463,146.593,473.74,146.823,473.869,146.938z" stroke="#000000" outline-element="true" stroke-width="0.5" g2gstroke="#312783" stroke-miterlimit="10"/>
<linearGradient transform="translate(-16.467393441228978, -19.000838586033524) translate(-162.07627752418455, -28.813560448743942) translate(-316.949164936183, -12.605932696325453) translate(-58.14081484389976, -48.93518582694895) translate(16.207627752418375, -385.38137100195) translate(97.24576651451093, 140.46610718762656) translate(781,377) translate(-2.3992265625000186, 12.519657470703123) translate(44.45404802814528, 18.185746920604885) translate(-5.827521568780526, 0.8325030812544014) translate(-445.3891484710807, -115.71792829435554) translate(0.8325030812543446, 0.0) translate(4.285714285714334, -150.0) translate(445.71428571428567, 237.14285714285705) translate(14.285714285714285, 14.285775320870535)" gradientTransform="matrix(1 0 0 -1 174.375 719.4551)" x1="340.6299" x2="297.3652" y1="499.082" gradientUnits="userSpaceOnUse" y2="574.0186" xmlns:xlink="http://www.w3.org/1999/xlink" xlink:type="simple" xlink:actuate="onLoad" id="172::SVGID_2_" xlink:show="other">
<stop stop-opacity="0.83" stop-color="#FFFFFF" offset="0.0439"/>
<stop stop-opacity="0.56" stop-color="#FFFFFF" offset="0.2647"/>
<stop stop-opacity="0.6" stop-color="#FFFFFF" offset="0.3561"/>
<stop stop-opacity="0.35" stop-color="#FFFFFF" offset="0.5676"/>
<stop stop-opacity="0.44" stop-color="#FFFFFF" offset="0.6933"/>
<stop stop-opacity="0.6" stop-color="#FFFFFF" offset="0.8428"/>
<stop stop-opacity="0.22" stop-color="#FFFFFF" offset="0.9853"/>
</linearGradient>
<path orgfill="url(#172::SVGID_2_)" enable-background="new    " transform="translate(-16.467393441228978, -19.000838586033524) translate(-162.07627752418455, -28.813560448743942) translate(-316.949164936183, -12.605932696325453) translate(-58.14081484389976, -48.93518582694895) translate(16.207627752418375, -385.38137100195) translate(97.24576651451093, 140.46610718762656) translate(781,377) translate(-2.3992265625000186, 12.519657470703123) translate(44.45404802814528, 18.185746920604885) translate(-5.827521568780526, 0.8325030812544014) translate(-445.3891484710807, -115.71792829435554) translate(0.8325030812543446, 0.0) translate(4.285714285714334, -150.0) translate(445.71428571428567, 237.14285714285705) translate(14.285714285714285, 14.285775320870535)" fill="url(#172::SVGID_2_)" opacity="0.6" d="M522.908,194.598   c-1.371-1.356-45.807-44.69-48.613-47.274c-0.129-0.127-0.256-0.239-0.385-0.352c-0.078-0.08-0.223-0.191-0.414-0.319   c-2.648,1.452-5.344,2.968-8.105,4.548c-0.479,0.287-0.43,0.542-0.271,0.957c2.666,6.924,24.938,65.112,25.16,65.606   c0.064,0.161,0.193,0.319,0.416,0.399c0.08,0.016,0.16,0.032,0.256,0.032c0.016,0,0.031,0,0.047,0c0.033,0,0.064-0.017,0.098-0.032   c6.125-4.053,12.125-8.073,18.012-11.998c3.99-2.648,8.936-5.982,14.393-9.654c0.605-0.414,0.748-0.605,0.256-1.084   C523.531,195.204,523.26,194.948,522.908,194.598z"/>
<path orgstroke="#000000" orgfill="none" transform="translate(-16.467393441228978, -19.000838586033524) translate(-162.07627752418455, -28.813560448743942) translate(-316.949164936183, -12.605932696325453) translate(-58.14081484389976, -48.93518582694895) translate(16.207627752418375, -385.38137100195) translate(97.24576651451093, 140.46610718762656) translate(781,377) translate(-2.3992265625000186, 12.519657470703123) translate(44.45404802814528, 18.185746920604885) translate(-5.827521568780526, 0.8325030812544014) translate(-445.3891484710807, -115.71792829435554) translate(0.8325030812543446, 0.0) translate(4.285714285714334, -150.0) translate(445.71428571428567, 237.14285714285705) translate(14.285714285714285, 14.285775320870535)" fill="none" d="M473.463,146.593c-2.643,1.482-5.359,2.982-8.111,4.573   c-0.49,0.283-0.434,0.536-0.275,0.95c2.656,6.929,24.945,65.116,25.162,65.604c0.102,0.227,0.311,0.446,0.717,0.436" stroke="#000000" stroke-width="0.25" g2gstroke="#312783"/>
<path orgstroke="#000000" orgfill="none" transform="translate(-16.467393441228978, -19.000838586033524) translate(-162.07627752418455, -28.813560448743942) translate(-316.949164936183, -12.605932696325453) translate(-58.14081484389976, -48.93518582694895) translate(16.207627752418375, -385.38137100195) translate(97.24576651451093, 140.46610718762656) translate(781,377) translate(-2.3992265625000186, 12.519657470703123) translate(44.45404802814528, 18.185746920604885) translate(-5.827521568780526, 0.8325030812544014) translate(-445.3891484710807, -115.71792829435554) translate(0.8325030812543446, 0.0) translate(4.285714285714334, -150.0) translate(445.71428571428567, 237.14285714285705) translate(14.285714285714285, 14.285775320870535)" fill="none" d="M464.9649963378906 151.56199645996094L463.0429992675781 150.46299743652344" stroke="#000000" stroke-width="0.25" g2gstroke="#312783"/>
<path orgstroke="#000000" orgfill="none" transform="translate(-16.467393441228978, -19.000838586033524) translate(-162.07627752418455, -28.813560448743942) translate(-316.949164936183, -12.605932696325453) translate(-58.14081484389976, -48.93518582694895) translate(16.207627752418375, -385.38137100195) translate(97.24576651451093, 140.46610718762656) translate(781,377) translate(-2.3992265625000186, 12.519657470703123) translate(44.45404802814528, 18.185746920604885) translate(-5.827521568780526, 0.8325030812544014) translate(-445.3891484710807, -115.71792829435554) translate(0.8325030812543446, 0.0) translate(4.285714285714334, -150.0) translate(445.71428571428567, 237.14285714285705) translate(14.285714285714285, 14.285775320870535)" fill="none" d="M473.869,146.938c0.121,0.107,0.25,0.221,0.381,0.343   c2.805,2.598,47.24,45.931,48.611,47.286c0.35,0.345,0.627,0.604,0.848,0.819c0.496,0.479,0.359,0.672-0.25,1.082   c-5.453,3.677-10.406,7.004-14.391,9.663c-5.887,3.919-11.898,7.936-18.018,11.989c-0.145,0.097-0.471,0.035-0.75-0.145   c-0.281-0.18-0.902-0.516-1.33-0.751c-0.43-0.235-0.574-0.425-0.654-0.603c-0.217-0.488-22.504-58.676-25.162-65.604   c-0.158-0.414-0.215-0.667,0.277-0.95c2.582-1.494,5.139-2.906,7.627-4.302c0.279-0.157,0.486-0.27,1.104,0.084l0.961,0.549   C473.463,146.593,473.74,146.823,473.869,146.938z" stroke="#000000" stroke-width="0.25" g2gstroke="#312783"/>
</g>
</g>
</g>
</g>
</g>
</g></svg>