<svg xmlns="http://www.w3.org/2000/svg" xmlns:xlink="http://www.w3.org/1999/xlink" xmlns:x="http://ns.adobe.com/Extensibility/1.0/" xmlns:graph="http://ns.adobe.com/Graphs/1.0/" xmlns:i="http://ns.adobe.com/AdobeIllustrator/10.0/" xmlns:etg="http://www.eurotaxglass.com/etg/evd/" etg:dataTimestamp="1539068912893" contentScriptType="text/ecmascript" zoomAndPan="magnify" contentStyleType="text/css" id="Layer_1" enable-background="new 0 0 1841.891 1595.279" version="1.1" xml:space="preserve" width="1841.891px" preserveAspectRatio="xMidYMid meet" viewBox="0 0 1841.891 1595.279" height="1595.279px" x="0px" y="0px"><g xmlns="http://www.w3.org/2000/svg" objecttype="PS" tooltip="#UNDEFINED" id="18">
<g onmouseover="notifyOwner(AGV_OBJECT_MOUSEOVER, '18(PS)')" transform="translate(-9.433746356535266E-6, 3.356933575560106E-7) translate(-35.71980609130861, -13.200809143066408) translate(44.708733184814434, 94.79042849731445) matrix(0.6117410612267968 0 0 0.6117410612267968 0.2921243287958965 0.477310974878083) translate(-92,-34) " onclick="clickZoom(evt); notifyOwner(AGV_OBJECT_MOUSECLICK, '18(PS)')" onmouseout="notifyOwner(AGV_OBJECT_MOUSEOUT, '18(PS)')" tooltip="#UNDEFINED" id="18-Graphic" objecttype="GRAPHIC">
<g zvalue="17">
<g zvalue="45">
<g zvalue="37">
<g>
<path orgstroke="#000000" orgfill="#ffffff" transform="translate(-295.5923495625341, 69.5511410735374) translate(13.523832986521029, -13.523832986521171) translate(0.6567110110379417, -1.9701330331140525) translate(-14.792050684180822, -24.829513648446607) translate(185.48729538878888, 48.62288325725535) translate(724,-30) translate(-518.5915025634765, -83.33211865234375) translate(658.0, -6.0) translate(10.0, 10.00006103515625)" fill="#ffffff" g2gfill="#ECC35D" d="M571.172,348.641   c0.175,1.26,1.283,4.65,1.283,6.109c0,1.461,1.037,10.113,2.428,13.484c1.391,3.373,4.451,9.076,5.703,12.344   c1.25,3.268,1.217,9.666,1.217,12.516c0,2.355,0.2,11.6,0.263,18.16c0.012,1.203-0.243,1.885-0.243,2.85   c0,1.188,0.339,1.348,0.449,1.861c0.232,1.07,0.614,2.283,0.76,3.488c0.252,2.078,0.145,4.668-0.082,6.201   c-0.384,2.588-1.179,5.443-2.027,7.854c-0.079,0.225-0.121,0.334-0.553,0.334h-0.641c-0.359,0-0.357,0-0.691-0.098   c-0.759-0.223-2.63-0.762-3.607-0.975c-0.341-0.074-0.462-0.139-0.789-0.053c-0.511,0.135-1.012,0.521-1.551,1.178   c-18.373,22.389-46.318,38.727-66.572,50.42c-24.469,14.129-58.342,29.17-77.533,34.803c-2.604,0.766-5.293,1.5-8.049,2.189   c-7.908,1.941-13.939,10.566-16.564,13.691s-4.346,3.617-6.053,3.961l-1.209,0.23c-12.515,2.344-19.641,1.98-28.525,1.377   c-8.787-0.596-13.016-2.133-17.188-5.377c-4.172-3.246-5.766-13.945-6.381-16.955c-2.971-14.531-10.562-29.314-20.281-41.775   c0,0-0.071-0.131,0.092-0.301s3.025-3.076,3.588-3.689c0.625-0.68,2.018-2.086,3.547-3.615c1.3-1.301,8.632-9.441,12.98-14.93   c0.77-0.973,1.768-2.332,1.979-2.613s0.666-0.615,0.839-0.715c0.104-0.061,0.422-0.242,0.657-0.377   c0.153-0.088,0.341-0.1,0.52,0.02c1.029,0.691,2.325,1.43,3.972,2.188c7.18,3.303,12.623,6.098,28.609,6.559   c11.24,0.324,18.809-2.443,25.135-4.182c0.371-0.102,0.781-0.221,1.227-0.354c0.291-0.086,0.377-0.125,0.32-0.381   c-0.204-0.922-0.409-1.758-0.526-2.217c-0.088-0.346-0.163-0.449,0.247-0.648l4.813-2.779c0.176-0.102,0.33-0.115,0.54,0.008   l0.331,0.189c0.315,0.182,0.347,0.367,0.393,0.613c0.388,2.102,2.152,11.26,4.029,14.682c0.812,1.48,1.859,2.707,3.014,3.639   l0.125,0.109c1.58,0.975,3.27,1.424,4.774,1.25c1.662-0.191,2.795-0.717,3.776-1.055c20.027-6.764,44.738-19.975,64.41-31.334   c18.762-10.83,38.326-23.604,53.227-37.934c4.055-3.898,4.338-4.65,4.719-11.469c0.237-4.236-0.466-15.695-0.629-18.258   c-0.031-0.49-0.057-0.463,0.406-0.762l2.465-1.424c0.18-0.104,0.247-0.26,0.156-0.588c-1.868-6.73-4.177-13.324-8.245-18.727   c-0.122-0.162-0.235-0.314,0.094-0.627c0.84-0.797,2.791-2.961,3.295-3.512c0.625-0.68,7.397-10.273,11.746-15.762   c0.77-0.973,1.768-2.332,1.979-2.613c0.162-0.215,0.366-0.404,0.609-0.545c0.264-0.152,0.43-0.188,0.608,0.037   c3.501,4.406,5.913,17.486,6.586,23.947C571.148,348.354,571.172,348.641,571.172,348.641z" stroke="#000000" outline-element="true" stroke-width="0.5" g2gstroke="#312783" stroke-miterlimit="10"/>
<path stroke-linecap="round" orgstroke="#000000" orgfill="none" transform="translate(-295.5923495625341, 69.5511410735374) translate(13.523832986521029, -13.523832986521171) translate(0.6567110110379417, -1.9701330331140525) translate(-14.792050684180822, -24.829513648446607) translate(185.48729538878888, 48.62288325725535) translate(724,-30) translate(-518.5915025634765, -83.33211865234375) translate(658.0, -6.0) translate(10.0, 10.00006103515625)" fill="none" stroke-linejoin="round" d="   M347.123,451.086c0.594,0.566,1.341,1.121,2.27,1.658c3.6,2.078,17.648,9.711,31.592,9.92c12.168,0.184,16.113-1.658,21.939-3.244   c4.134-1.127,8.172-2.344,11.93-3.547" stroke="#000000" stroke-width="0.25" g2gstroke="#312783" stroke-miterlimit="10"/>
<path stroke-linecap="round" orgstroke="#000000" orgfill="none" transform="translate(-295.5923495625341, 69.5511410735374) translate(13.523832986521029, -13.523832986521171) translate(0.6567110110379417, -1.9701330331140525) translate(-14.792050684180822, -24.829513648446607) translate(185.48729538878888, 48.62288325725535) translate(724,-30) translate(-518.5915025634765, -83.33211865234375) translate(658.0, -6.0) translate(10.0, 10.00006103515625)" fill="none" stroke-linejoin="round" d="   M347.862,450.645c1.144,0.922,2.76,1.928,5.046,2.98c7.18,3.303,12.623,6.098,28.609,6.559c11.24,0.324,18.809-2.443,25.135-4.182   c1.711-0.471,4.148-1.244,7.044-2.213" stroke="#000000" stroke-width="0.25" g2gstroke="#312783" stroke-miterlimit="10"/>
<path stroke-linecap="round" orgstroke="#000000" orgfill="none" transform="translate(-295.5923495625341, 69.5511410735374) translate(13.523832986521029, -13.523832986521171) translate(0.6567110110379417, -1.9701330331140525) translate(-14.792050684180822, -24.829513648446607) translate(185.48729538878888, 48.62288325725535) translate(724,-30) translate(-518.5915025634765, -83.33211865234375) translate(658.0, -6.0) translate(10.0, 10.00006103515625)" fill="none" stroke-linejoin="round" d="   M418.395,470.436c0.854,1.219,3.127,2.846,7.115,2.357c3.986-0.486,6.107-1.139,7.738-1.699   c20.027-6.764,44.738-19.975,64.41-31.334c18.762-10.83,38.326-23.604,53.227-37.934c4.055-3.898,5.537-7.273,6.065-12.035   c0.721-6.5-0.229-23.068-0.229-23.068" stroke="#000000" stroke-width="0.25" g2gstroke="#312783" stroke-miterlimit="10"/>
<path stroke-linecap="round" orgstroke="#000000" orgfill="none" transform="translate(-295.5923495625341, 69.5511410735374) translate(13.523832986521029, -13.523832986521171) translate(0.6567110110379417, -1.9701330331140525) translate(-14.792050684180822, -24.829513648446607) translate(185.48729538878888, 48.62288325725535) translate(724,-30) translate(-518.5915025634765, -83.33211865234375) translate(658.0, -6.0) translate(10.0, 10.00006103515625)" fill="none" stroke-linejoin="round" d="   M356.492,475.588c2.131,0.863,4.992,1.42,9.082,2.027c7.277,1.08,26.996,2.664,48.385-6.078" stroke="#000000" stroke-width="0.25" g2gstroke="#312783" stroke-miterlimit="10"/>
<path stroke-linecap="round" orgstroke="#000000" orgfill="none" transform="translate(-295.5923495625341, 69.5511410735374) translate(13.523832986521029, -13.523832986521171) translate(0.6567110110379417, -1.9701330331140525) translate(-14.792050684180822, -24.829513648446607) translate(185.48729538878888, 48.62288325725535) translate(724,-30) translate(-518.5915025634765, -83.33211865234375) translate(658.0, -6.0) translate(10.0, 10.00006103515625)" fill="none" stroke-linejoin="round" d="   M362.248,523.307c12.527,1.828,23.123,1.648,32.162,1.066c1.76-0.113,6.48-0.58,7.055-0.645c0.6-0.066,0.826,0.168,0.285,0.906   c-0.721,0.98-1.898,2.467-2.68,3.342s-1.25,1.594-2.955,1.734c-7.484,0.617-17.426,0.645-27.41-0.986   c-3.455-0.564-5.885-4.016-6.729-5.111C361.574,523.092,362.014,523.273,362.248,523.307z" stroke="#000000" stroke-width="0.25" g2gstroke="#312783" stroke-miterlimit="10"/>
<path stroke-linecap="round" orgstroke="#000000" orgfill="none" transform="translate(-295.5923495625341, 69.5511410735374) translate(13.523832986521029, -13.523832986521171) translate(0.6567110110379417, -1.9701330331140525) translate(-14.792050684180822, -24.829513648446607) translate(185.48729538878888, 48.62288325725535) translate(724,-30) translate(-518.5915025634765, -83.33211865234375) translate(658.0, -6.0) translate(10.0, 10.00006103515625)" fill="none" stroke-linejoin="round" d="   M329.045,471.795c7.885,9.998,14.375,21.365,18.584,32.924c1.551,4.26,2.744,8.555,3.678,12.797   c1.389,6.314,2.533,19.012,6.072,20.963" stroke="#000000" stroke-width="0.25" g2gstroke="#312783" stroke-miterlimit="10"/>
<path stroke-linecap="round" orgstroke="#000000" orgfill="none" transform="translate(-295.5923495625341, 69.5511410735374) translate(13.523832986521029, -13.523832986521171) translate(0.6567110110379417, -1.9701330331140525) translate(-14.792050684180822, -24.829513648446607) translate(185.48729538878888, 48.62288325725535) translate(724,-30) translate(-518.5915025634765, -83.33211865234375) translate(658.0, -6.0) translate(10.0, 10.00006103515625)" fill="none" stroke-linejoin="round" d="   M461.938,478.678c-0.139,0.969-0.885,2.012-1.67,2.33c-0.787,0.318-1.314-0.211-1.178-1.182c0.137-0.969,0.885-2.012,1.672-2.33   C461.546,477.18,462.075,477.707,461.938,478.678z" stroke="#000000" stroke-width="0.25" g2gstroke="#312783" stroke-miterlimit="10"/>
<ellipse orgstroke="#000000" stroke="#000000" stroke-linecap="round" transform="translate(-295.5923495625341, 69.5511410735374) translate(13.523832986521029, -13.523832986521171) translate(0.6567110110379417, -1.9701330331140525) translate(-14.792050684180822, -24.829513648446607) translate(185.48729538878888, 48.62288325725535) translate(724,-30) translate(-518.5915025634765, -83.33211865234375) translate(658.0, -6.0) translate(10.0, 10.00006103515625)" stroke-miterlimit="10" orgfill="none" fill="none" stroke-width="0.25" stroke-linejoin="round" cx="408.242" rx="1.738" g2gstroke="#312783" cy="499.588" ry="1.738"/>
<ellipse orgstroke="#000000" stroke="#000000" stroke-linecap="round" transform="translate(-295.5923495625341, 69.5511410735374) translate(13.523832986521029, -13.523832986521171) translate(0.6567110110379417, -1.9701330331140525) translate(-14.792050684180822, -24.829513648446607) translate(185.48729538878888, 48.62288325725535) translate(724,-30) translate(-518.5915025634765, -83.33211865234375) translate(658.0, -6.0) translate(10.0, 10.00006103515625) matrix(-0.1684 0.9857 -0.9857 -0.1684 1071.5441 -102.0066)" stroke-miterlimit="10" orgfill="none" fill="none" stroke-width="0.25" stroke-linejoin="round" cx="578.801" rx="1.999" g2gstroke="#312783" ry="0.626" cy="400.998"/>
<path stroke-linecap="round" orgstroke="#000000" orgfill="none" transform="translate(-295.5923495625341, 69.5511410735374) translate(13.523832986521029, -13.523832986521171) translate(0.6567110110379417, -1.9701330331140525) translate(-14.792050684180822, -24.829513648446607) translate(185.48729538878888, 48.62288325725535) translate(724,-30) translate(-518.5915025634765, -83.33211865234375) translate(658.0, -6.0) translate(10.0, 10.00006103515625)" fill="none" stroke-linejoin="round" d="   M574.641,432.717c0.697-0.232,1.581-0.076,2.221,0.053c1.092,0.219,3.279,0.873,3.817,1.035" stroke="#000000" stroke-width="0.25" g2gstroke="#312783" stroke-miterlimit="10"/>
<path stroke-linecap="round" orgstroke="#000000" orgfill="none" transform="translate(-295.5923495625341, 69.5511410735374) translate(13.523832986521029, -13.523832986521171) translate(0.6567110110379417, -1.9701330331140525) translate(-14.792050684180822, -24.829513648446607) translate(185.48729538878888, 48.62288325725535) translate(724,-30) translate(-518.5915025634765, -83.33211865234375) translate(658.0, -6.0) translate(10.0, 10.00006103515625)" fill="none" stroke-linejoin="round" d="   M582.084,409.789c-1.348,10.666-7.242,17.674-11.639,22.482c-22.854,24.99-53.578,41.848-63.936,47.922   c-23.514,13.785-58.357,29.014-79.098,35.646c-18.607,5.951-37.07,10.471-72.955,4.699" stroke="#000000" stroke-width="0.25" g2gstroke="#312783" stroke-miterlimit="10"/>
<path stroke-linecap="round" orgstroke="#000000" orgfill="none" transform="translate(-295.5923495625341, 69.5511410735374) translate(13.523832986521029, -13.523832986521171) translate(0.6567110110379417, -1.9701330331140525) translate(-14.792050684180822, -24.829513648446607) translate(185.48729538878888, 48.62288325725535) translate(724,-30) translate(-518.5915025634765, -83.33211865234375) translate(658.0, -6.0) translate(10.0, 10.00006103515625)" fill="none" stroke-linejoin="round" d="   M582.084,411.328c-0.674,5.334-2.531,9.723-4.676,13.438c-0.75,1.301-1.289,1.65-0.271,2.129c1.016,0.479,1.234,0.619,1.484,0.729   s0.543,0.232,0.887-0.5c1.387-2.955,2.451-6.639,2.934-10.443" stroke="#000000" stroke-width="0.25" g2gstroke="#312783" stroke-miterlimit="10"/>
<path stroke-linecap="round" orgstroke="#000000" orgfill="none" transform="translate(-295.5923495625341, 69.5511410735374) translate(13.523832986521029, -13.523832986521171) translate(0.6567110110379417, -1.9701330331140525) translate(-14.792050684180822, -24.829513648446607) translate(185.48729538878888, 48.62288325725535) translate(724,-30) translate(-518.5915025634765, -83.33211865234375) translate(658.0, -6.0) translate(10.0, 10.00006103515625)" fill="none" stroke-linejoin="round" d="   M563.484,385.059c4.543-2.523,11.879-13.799,10.889-18.336" stroke="#000000" stroke-width="0.25" g2gstroke="#312783" stroke-miterlimit="10"/>
<path stroke-linecap="round" orgstroke="#000000" orgfill="none" transform="translate(-295.5923495625341, 69.5511410735374) translate(13.523832986521029, -13.523832986521171) translate(0.6567110110379417, -1.9701330331140525) translate(-14.792050684180822, -24.829513648446607) translate(185.48729538878888, 48.62288325725535) translate(724,-30) translate(-518.5915025634765, -83.33211865234375) translate(658.0, -6.0) translate(10.0, 10.00006103515625)" fill="none" stroke-linejoin="round" d="   M368.697,513.236c-1.377-7.529-9.195-31.223-19.08-44.654c-2.687-3.65-5.386-7.145-8.127-10.465" stroke="#000000" stroke-width="0.25" g2gstroke="#312783" stroke-miterlimit="10"/>
<path stroke-linecap="round" orgstroke="#000000" orgfill="none" transform="translate(-295.5923495625341, 69.5511410735374) translate(13.523832986521029, -13.523832986521171) translate(0.6567110110379417, -1.9701330331140525) translate(-14.792050684180822, -24.829513648446607) translate(185.48729538878888, 48.62288325725535) translate(724,-30) translate(-518.5915025634765, -83.33211865234375) translate(658.0, -6.0) translate(10.0, 10.00006103515625)" fill="none" stroke-linejoin="round" d="   M554.369,423.889c-0.137,0.969-0.885,2.012-1.668,2.33c-0.787,0.318-1.316-0.211-1.178-1.182c0.137-0.969,0.883-2.012,1.67-2.33   C553.979,422.391,554.506,422.918,554.369,423.889z" stroke="#000000" stroke-width="0.25" g2gstroke="#312783" stroke-miterlimit="10"/>
<path stroke-linecap="round" orgstroke="#000000" orgfill="none" transform="translate(-295.5923495625341, 69.5511410735374) translate(13.523832986521029, -13.523832986521171) translate(0.6567110110379417, -1.9701330331140525) translate(-14.792050684180822, -24.829513648446607) translate(185.48729538878888, 48.62288325725535) translate(724,-30) translate(-518.5915025634765, -83.33211865234375) translate(658.0, -6.0) translate(10.0, 10.00006103515625)" fill="none" stroke-linejoin="round" d="   M548.6,449.758c-17.469,14.061-34.826,23.521-42.09,27.781c-8.246,4.834-17.885,9.85-27.824,14.6   c-3.502,1.674-5.523,0.762-6.732-1.334c-1.211-2.096-5.59-7.85-6.982-9.875s-0.928-6.527,2.768-8.172   c14.045-6.258,28.514-13.83,40.842-20.947c13.139-7.586,26.686-16.105,38.721-25.48c0.926-0.723,3.164-1.127,3.102,2.061   s0,15.545,0,17.107S549.816,448.777,548.6,449.758z" stroke="#000000" stroke-width="0.25" g2gstroke="#312783" stroke-miterlimit="10"/>
<path stroke-linecap="round" orgstroke="#000000" orgfill="none" transform="translate(-295.5923495625341, 69.5511410735374) translate(13.523832986521029, -13.523832986521171) translate(0.6567110110379417, -1.9701330331140525) translate(-14.792050684180822, -24.829513648446607) translate(185.48729538878888, 48.62288325725535) translate(724,-30) translate(-518.5915025634765, -83.33211865234375) translate(658.0, -6.0) translate(10.0, 10.00006103515625)" fill="none" stroke-linejoin="round" d="   M543.049,429.521c1.498-1.113,2.645-0.412,3.479,3.32c0.832,3.734,1.826,10.35,1.846,12.256c0.02,1.982-0.588,3.279-1.805,4.26   c-17.469,14.061-34.826,23.521-42.09,27.781c-8.246,4.834-17.883,9.85-27.822,14.6c-1.131,0.539-2.107,0.811-2.951,0.859" stroke="#000000" stroke-width="0.25" g2gstroke="#312783" stroke-miterlimit="10"/>
<path orgstroke="#000000" orgfill="none" transform="translate(-295.5923495625341, 69.5511410735374) translate(13.523832986521029, -13.523832986521171) translate(0.6567110110379417, -1.9701330331140525) translate(-14.792050684180822, -24.829513648446607) translate(185.48729538878888, 48.62288325725535) translate(724,-30) translate(-518.5915025634765, -83.33211865234375) translate(658.0, -6.0) translate(10.0, 10.00006103515625)" fill="none" d="M366.032,492.551   c20.588,3.65,44.691-0.779,63.883-6.412s53.064-20.674,77.533-34.803c20.533-11.855,41.873-25.982,57.25-41.939   c8.529-8.852,17.103-16.832,15.888-28.818" stroke="#000000" stroke-width="0.25" g2gstroke="#312783" stroke-miterlimit="10"/>
<path stroke-linecap="round" orgstroke="#000000" orgfill="none" transform="translate(-295.5923495625341, 69.5511410735374) translate(13.523832986521029, -13.523832986521171) translate(0.6567110110379417, -1.9701330331140525) translate(-14.792050684180822, -24.829513648446607) translate(185.48729538878888, 48.62288325725535) translate(724,-30) translate(-518.5915025634765, -83.33211865234375) translate(658.0, -6.0) translate(10.0, 10.00006103515625)" fill="none" stroke-linejoin="round" d="   M563.48,324.813c3.857,4.666,6.48,20.92,6.48,25.412c0,0.535-0.174,1.33-0.336,1.75c-2.225,5.762-5.388,10.705-8.792,14.896   c-0.334,0.41-0.513,0.371-0.899,0.148l-2.592-1.494c-0.377-0.217-0.729-0.174-1.031,0l-1.998,1.154" stroke="#000000" stroke-width="0.25" g2gstroke="#312783" stroke-miterlimit="10"/>
<path stroke-linecap="round" orgstroke="#000000" orgfill="none" transform="translate(-295.5923495625341, 69.5511410735374) translate(13.523832986521029, -13.523832986521171) translate(0.6567110110379417, -1.9701330331140525) translate(-14.792050684180822, -24.829513648446607) translate(185.48729538878888, 48.62288325725535) translate(724,-30) translate(-518.5915025634765, -83.33211865234375) translate(658.0, -6.0) translate(10.0, 10.00006103515625)" fill="none" stroke-linejoin="round" d="   M397.65,524.1c0.832-0.078,0.953,0.299,0.511,0.902c-0.591,0.805-1.555,2.021-2.194,2.738c-0.64,0.715-1.023,1.305-2.42,1.42   c-6.129,0.504-14.27,0.527-22.445-0.809c-2.829-0.463-4.819-3.287-5.51-4.186c-0.33-0.426,0.03-0.414,0.222-0.387" stroke="#000000" stroke-width="0.25" g2gstroke="#312783" stroke-miterlimit="10"/>
<path stroke-linecap="round" orgstroke="#000000" orgfill="none" transform="translate(-295.5923495625341, 69.5511410735374) translate(13.523832986521029, -13.523832986521171) translate(0.6567110110379417, -1.9701330331140525) translate(-14.792050684180822, -24.829513648446607) translate(185.48729538878888, 48.62288325725535) translate(724,-30) translate(-518.5915025634765, -83.33211865234375) translate(658.0, -6.0) translate(10.0, 10.00006103515625)" fill="none" stroke-linejoin="round" d="   M577.615,424.461c-0.583,1.01-1.001,1.281-0.211,1.654c0.788,0.371,0.849,0.48,1.043,0.564c0.193,0.086,0.421,0.18,0.688-0.389   c1.076-2.293,2.531-7.766,2.905-10.719" stroke="#000000" stroke-width="0.25" g2gstroke="#312783" stroke-miterlimit="10"/>
<path stroke-linecap="round" orgstroke="#000000" orgfill="none" transform="translate(-295.5923495625341, 69.5511410735374) translate(13.523832986521029, -13.523832986521171) translate(0.6567110110379417, -1.9701330331140525) translate(-14.792050684180822, -24.829513648446607) translate(185.48729538878888, 48.62288325725535) translate(724,-30) translate(-518.5915025634765, -83.33211865234375) translate(658.0, -6.0) translate(10.0, 10.00006103515625)" fill="none" stroke-linejoin="round" d="   M413.799,448.871l-3.801,2.195c-0.346,0.199-0.233,0.338,0.045,0.498l3.429,1.975c0.261,0.152,0.364,0.279,0.468,0.516   c0.162,0.369,0.352,0.723,0.555,1.074c0.418,0.725,0.771,1.695,0.771,3.086s-0.348,5.84,2.154,10.568   c2.504,4.729,9.67,13.879,26.289,9.15c20.029-6.762,45.199-19.176,64.871-30.535c18.762-10.83,38.324-23.604,53.227-37.934   c2.912-2.799,4.727-7.729,2.688-13.197c-2.039-5.471-4.039-5.42-4.039-16.029c0-3.727,0.791-7.51,0.869-8.352   c0.078-0.869,0.086-1.49-0.053-1.941c-0.089-0.285-0.244-0.742-0.323-0.98" stroke="#000000" stroke-width="0.25" g2gstroke="#312783" stroke-miterlimit="10"/>
<path stroke-linecap="round" orgstroke="#000000" orgfill="none" transform="translate(-295.5923495625341, 69.5511410735374) translate(13.523832986521029, -13.523832986521171) translate(0.6567110110379417, -1.9701330331140525) translate(-14.792050684180822, -24.829513648446607) translate(185.48729538878888, 48.62288325725535) translate(724,-30) translate(-518.5915025634765, -83.33211865234375) translate(658.0, -6.0) translate(10.0, 10.00006103515625)" fill="none" stroke-linejoin="round" d="   M407.839,451.246c0,0-0.21,0.18,0.04,0.324c0.138,0.08,1.531,0.883,2.752,1.584c0.284,0.164,0.527,0.266,0.051,0.416   c-1.211,0.385-2.355,0.742-3.194,0.994" stroke="#000000" stroke-width="0.25" g2gstroke="#312783" stroke-miterlimit="10"/>
<path stroke-linecap="round" orgstroke="#000000" orgfill="none" transform="translate(-295.5923495625341, 69.5511410735374) translate(13.523832986521029, -13.523832986521171) translate(0.6567110110379417, -1.9701330331140525) translate(-14.792050684180822, -24.829513648446607) translate(185.48729538878888, 48.62288325725535) translate(724,-30) translate(-518.5915025634765, -83.33211865234375) translate(658.0, -6.0) translate(10.0, 10.00006103515625)" fill="none" stroke-linejoin="round" d="   M421.039,467.555c1.867,1.508,4.012,2.246,5.871,2.031c1.662-0.191,2.795-0.717,3.776-1.055   c20.027-6.764,44.738-19.975,64.41-31.334c18.762-10.83,38.326-23.604,53.227-37.934c4.055-3.898,4.338-4.652,4.719-11.469   c0.268-4.785-0.662-18.771-0.662-18.771" stroke="#000000" stroke-width="0.25" g2gstroke="#312783" stroke-miterlimit="10"/>
<path stroke-linecap="round" orgstroke="#000000" orgfill="none" transform="translate(-295.5923495625341, 69.5511410735374) translate(13.523832986521029, -13.523832986521171) translate(0.6567110110379417, -1.9701330331140525) translate(-14.792050684180822, -24.829513648446607) translate(185.48729538878888, 48.62288325725535) translate(724,-30) translate(-518.5915025634765, -83.33211865234375) translate(658.0, -6.0) translate(10.0, 10.00006103515625)" fill="none" stroke-linejoin="round" d="   M561.374,371.154c4.604-4.168,8.396-10.283,11.017-16.988" stroke="#000000" stroke-width="0.25" g2gstroke="#312783" stroke-miterlimit="10"/>
<path stroke-linecap="round" orgstroke="#000000" orgfill="none" transform="translate(-295.5923495625341, 69.5511410735374) translate(13.523832986521029, -13.523832986521171) translate(0.6567110110379417, -1.9701330331140525) translate(-14.792050684180822, -24.829513648446607) translate(185.48729538878888, 48.62288325725535) translate(724,-30) translate(-518.5915025634765, -83.33211865234375) translate(658.0, -6.0) translate(10.0, 10.00006103515625)" fill="none" stroke-linejoin="round" d="   M571.16,348.479c0.148,1.729-0.085,3.875-0.179,4.145c-1.178,3.355-2.635,5.939-4.259,8.563c-1.773,2.861-3.745,5.451-5.774,7.779   l-3.832-2.209c-0.406-0.234-0.613-0.113-0.849,0.021l-3.512,2.029c-0.237,0.137-0.376,0.217-0.641,0.016l-0.584-0.336" stroke="#000000" stroke-width="0.25" g2gstroke="#312783" stroke-miterlimit="10"/>
<path orgstroke="#000000" orgfill="none" transform="translate(-295.5923495625341, 69.5511410735374) translate(13.523832986521029, -13.523832986521171) translate(0.6567110110379417, -1.9701330331140525) translate(-14.792050684180822, -24.829513648446607) translate(185.48729538878888, 48.62288325725535) translate(724,-30) translate(-518.5915025634765, -83.33211865234375) translate(658.0, -6.0) translate(10.0, 10.00006103515625)" fill="none" d="M550.27,346.977   c0.06,0.426,0.389,0.885,0.734,1.023c0.346,0.141,0.578-0.092,0.518-0.518c-0.061-0.428-0.389-0.887-0.734-1.025   C550.441,346.316,550.209,346.549,550.27,346.977z" stroke="#000000" stroke-width="0.25" g2gstroke="#312783" stroke-miterlimit="10"/>
<path orgstroke="#000000" orgfill="none" transform="translate(-295.5923495625341, 69.5511410735374) translate(13.523832986521029, -13.523832986521171) translate(0.6567110110379417, -1.9701330331140525) translate(-14.792050684180822, -24.829513648446607) translate(185.48729538878888, 48.62288325725535) translate(724,-30) translate(-518.5915025634765, -83.33211865234375) translate(658.0, -6.0) translate(10.0, 10.00006103515625)" fill="none" d="M552.712,353.914   c0.06,0.426,0.389,0.885,0.734,1.023c0.346,0.141,0.578-0.092,0.518-0.518c-0.061-0.428-0.389-0.887-0.734-1.025   C552.884,353.254,552.651,353.486,552.712,353.914z" stroke="#000000" stroke-width="0.25" g2gstroke="#312783" stroke-miterlimit="10"/>
<path orgstroke="#000000" orgfill="none" transform="translate(-295.5923495625341, 69.5511410735374) translate(13.523832986521029, -13.523832986521171) translate(0.6567110110379417, -1.9701330331140525) translate(-14.792050684180822, -24.829513648446607) translate(185.48729538878888, 48.62288325725535) translate(724,-30) translate(-518.5915025634765, -83.33211865234375) translate(658.0, -6.0) translate(10.0, 10.00006103515625)" fill="none" d="M555.154,360.852   c0.06,0.426,0.389,0.885,0.734,1.023c0.346,0.141,0.578-0.092,0.518-0.518c-0.061-0.428-0.389-0.887-0.734-1.025   C555.326,360.191,555.094,360.424,555.154,360.852z" stroke="#000000" stroke-width="0.25" g2gstroke="#312783" stroke-miterlimit="10"/>
</g>
</g>
</g>
</g>
</g>
</g></svg>