<svg xmlns="http://www.w3.org/2000/svg" xmlns:xlink="http://www.w3.org/1999/xlink" xmlns:x="http://ns.adobe.com/Extensibility/1.0/" xmlns:graph="http://ns.adobe.com/Graphs/1.0/" xmlns:i="http://ns.adobe.com/AdobeIllustrator/10.0/" xmlns:etg="http://www.eurotaxglass.com/etg/evd/" etg:dataTimestamp="1539068912893" contentScriptType="text/ecmascript" zoomAndPan="magnify" contentStyleType="text/css" id="Layer_1" enable-background="new 0 0 1841.891 1595.279" version="1.1" xml:space="preserve" width="1841.891px" preserveAspectRatio="xMidYMid meet" viewBox="0 0 1841.891 1595.279" height="1595.279px" x="0px" y="0px"><g xmlns="http://www.w3.org/2000/svg" objecttype="PS" tooltip="#UNDEFINED" id="185">
<g onmouseover="notifyOwner(AGV_OBJECT_MOUSEOVER, '185(PS)')" transform="translate(-9.433746356535266E-6, 3.356933575560106E-7) translate(-35.71980609130861, -13.200809143066408) translate(44.708733184814434, 94.79042849731445) matrix(0.6117410612267968 0 0 0.6117410612267968 0.2921243287958965 0.477310974878083) translate(-92,-34) " onclick="clickZoom(evt); notifyOwner(AGV_OBJECT_MOUSECLICK, '185(PS)')" onmouseout="notifyOwner(AGV_OBJECT_MOUSEOUT, '185(PS)')" tooltip="#UNDEFINED" id="185-Graphic" objecttype="GRAPHIC">
<g zvalue="186">
<g zvalue="8">
<g>
<path stroke-linecap="round" orgstroke="#000000" orgfill="#ffffff" transform="translate(-452.08241697799326, -394.12313275004544) translate(160.35401969732243, 38.63952281863192) translate(-6.911898947656482, -24.642422335122887) translate(-12.605932696325453, 183.68644786074248) translate(972,283) translate(-478.1112626953125, -9.244252822875978) translate(482.7463039695995, -255.28689257540225) translate(0.0, 199.6319302129923) translate(36.308689697265606, -1.4010578613281268) translate(34.250095947265606, -8.631938598632814) translate(-84.39897698209705, -13.503836317135551) translate(1.6879795396419013, -1.6879795396419581)" fill="#ffffff" g2gfill="#ECC35D" d="M428.7569885253906 442.7619934082031L424.7229919433594 444.760009765625L424.4700012207031 444.927001953125L424.385009765625 445.3940124511719L424.427001953125 446.6659851074219L424.7659912109375 447.010009765625L429.1809997558594 449.510009765625L429.7749938964844 449.67999267578125L430.260986328125 449.6400146484375L430.31298828125 449.6080017089844L431.864990234375 448.718994140625L431.9620056152344 448.45001220703125L431.9410095214844 447.885009765625L432.1319885253906 447.68499755859375L433.1919860839844 447.156005859375L433.3420104980469 447.197998046875L433.8500061035156 447.3890075683594L434.06298828125 447.3450012207031L435.6340026855469 446.55999755859375L435.5950012207031 446.3080139160156L435.5950012207031 445.927001953125L435.677001953125 445.8179931640625L436.927001953125 445.1180114746094L437.5220031738281 445.2460021972656L437.82000732421875 445.2460021972656L438.781005859375 444.760009765625L438.9639892578125 444.6090087890625L438.9639892578125 436.343994140625L438.7950134277344 435.8659973144531L434.9320068359375 430.010009765625L434.8190002441406 429.41400146484375L434.9280090332031 421.5589904785156L434.697998046875 421.2829895019531L433.67999267578125 420.90301513671875L433.2359924316406 420.885009765625L432.781005859375 420.927001953125L425.2760009765625 425.0610046386719L425.1059875488281 425.48699951171875L425.0639953613281 426.593994140625L424.947998046875 434.739990234375L425.0639953613281 435.343994140625L428.927001953125 441.1919860839844L429.09600830078125 441.65899658203125L429.09600830078125 442.260009765625Z" stroke="#000000" outline-element="true" stroke-width="0.5" g2gstroke="#312783"/>
<path orgstroke="#000000" orgfill="none" stroke-linecap="round" transform="translate(-452.08241697799326, -394.12313275004544) translate(160.35401969732243, 38.63952281863192) translate(-6.911898947656482, -24.642422335122887) translate(-12.605932696325453, 183.68644786074248) translate(972,283) translate(-478.1112626953125, -9.244252822875978) translate(482.7463039695995, -255.28689257540225) translate(0.0, 199.6319302129923) translate(36.308689697265606, -1.4010578613281268) translate(34.250095947265606, -8.631938598632814) translate(-84.39897698209705, -13.503836317135551) translate(1.6879795396419013, -1.6879795396419581)" fill="none" d="M429.09600830078125 442.8059997558594L429.09600830078125 447.9830017089844" stroke="#000000" stroke-width="0.25" g2gstroke="#312783"/>
<path orgstroke="#000000" orgfill="none" stroke-linecap="round" transform="translate(-452.08241697799326, -394.12313275004544) translate(160.35401969732243, 38.63952281863192) translate(-6.911898947656482, -24.642422335122887) translate(-12.605932696325453, 183.68644786074248) translate(972,283) translate(-478.1112626953125, -9.244252822875978) translate(482.7463039695995, -255.28689257540225) translate(0.0, 199.6319302129923) translate(36.308689697265606, -1.4010578613281268) translate(34.250095947265606, -8.631938598632814) translate(-84.39897698209705, -13.503836317135551) translate(1.6879795396419013, -1.6879795396419581)" fill="none" d="M430.260986328125 446.968994140625L430.260986328125 449.6400146484375" stroke="#000000" stroke-width="0.25" g2gstroke="#312783"/>
<path orgstroke="#000000" orgfill="none" stroke-linecap="round" transform="translate(-452.08241697799326, -394.12313275004544) translate(160.35401969732243, 38.63952281863192) translate(-6.911898947656482, -24.642422335122887) translate(-12.605932696325453, 183.68644786074248) translate(972,283) translate(-478.1112626953125, -9.244252822875978) translate(482.7463039695995, -255.28689257540225) translate(0.0, 199.6319302129923) translate(36.308689697265606, -1.4010578613281268) translate(34.250095947265606, -8.631938598632814) translate(-84.39897698209705, -13.503836317135551) translate(1.6879795396419013, -1.6879795396419581)" fill="none" d="M429.656005859375 440.24700927734375L430.09100341796875 440.89599609375L430.260986328125 441.3630065917969L430.260986328125 445.718994140625" stroke="#000000" stroke-width="0.25" g2gstroke="#312783"/>
<path orgstroke="#000000" orgfill="none" stroke-linecap="round" transform="translate(-452.08241697799326, -394.12313275004544) translate(160.35401969732243, 38.63952281863192) translate(-6.911898947656482, -24.642422335122887) translate(-12.605932696325453, 183.68644786074248) translate(972,283) translate(-478.1112626953125, -9.244252822875978) translate(482.7463039695995, -255.28689257540225) translate(0.0, 199.6319302129923) translate(36.308689697265606, -1.4010578613281268) translate(34.250095947265606, -8.631938598632814) translate(-84.39897698209705, -13.503836317135551) translate(1.6879795396419013, -1.6879795396419581)" fill="none" d="M427.88800048828125 437.55499267578125L429.0889892578125 439.3739929199219" stroke="#000000" stroke-width="0.25" g2gstroke="#312783"/>
<path orgstroke="#000000" orgfill="none" stroke-linecap="round" transform="translate(-452.08241697799326, -394.12313275004544) translate(160.35401969732243, 38.63952281863192) translate(-6.911898947656482, -24.642422335122887) translate(-12.605932696325453, 183.68644786074248) translate(972,283) translate(-478.1112626953125, -9.244252822875978) translate(482.7463039695995, -255.28689257540225) translate(0.0, 199.6319302129923) translate(36.308689697265606, -1.4010578613281268) translate(34.250095947265606, -8.631938598632814) translate(-84.39897698209705, -13.503836317135551) translate(1.6879795396419013, -1.6879795396419581)" fill="none" d="M426.14300537109375 432.427001953125L426.114990234375 434.4440002441406L426.2279968261719 435.0379943847656L427.5669860839844 437.0710144042969" stroke="#000000" stroke-width="0.25" g2gstroke="#312783"/>
<path orgstroke="#000000" orgfill="none" stroke-linecap="round" transform="translate(-452.08241697799326, -394.12313275004544) translate(160.35401969732243, 38.63952281863192) translate(-6.911898947656482, -24.642422335122887) translate(-12.605932696325453, 183.68644786074248) translate(972,283) translate(-478.1112626953125, -9.244252822875978) translate(482.7463039695995, -255.28689257540225) translate(0.0, 199.6319302129923) translate(36.308689697265606, -1.4010578613281268) translate(34.250095947265606, -8.631938598632814) translate(-84.39897698209705, -13.503836317135551) translate(1.6879795396419013, -1.6879795396419581)" fill="none" d="M426.2239990234375 426.593994140625L426.1549987792969 431.635009765625" stroke="#000000" stroke-width="0.25" g2gstroke="#312783"/>
<path orgstroke="#000000" orgfill="none" stroke-linecap="round" transform="translate(-452.08241697799326, -394.12313275004544) translate(160.35401969732243, 38.63952281863192) translate(-6.911898947656482, -24.642422335122887) translate(-12.605932696325453, 183.68644786074248) translate(972,283) translate(-478.1112626953125, -9.244252822875978) translate(482.7463039695995, -255.28689257540225) translate(0.0, 199.6319302129923) translate(36.308689697265606, -1.4010578613281268) translate(34.250095947265606, -8.631938598632814) translate(-84.39897698209705, -13.503836317135551) translate(1.6879795396419013, -1.6879795396419581)" fill="none" d="M427.8500061035156 425.656005859375L427.739990234375 433.510986328125L427.8559875488281 434.1050109863281L431.7179870605469 439.968994140625L431.8869934082031 440.4309997558594L431.8869934082031 448.7040100097656" stroke="#000000" stroke-width="0.25" g2gstroke="#312783"/>
<path orgstroke="#000000" orgfill="none" stroke-linecap="round" transform="translate(-452.08241697799326, -394.12313275004544) translate(160.35401969732243, 38.63952281863192) translate(-6.911898947656482, -24.642422335122887) translate(-12.605932696325453, 183.68644786074248) translate(972,283) translate(-478.1112626953125, -9.244252822875978) translate(482.7463039695995, -255.28689257540225) translate(0.0, 199.6319302129923) translate(36.308689697265606, -1.4010578613281268) translate(34.250095947265606, -8.631938598632814) translate(-84.39897698209705, -13.503836317135551) translate(1.6879795396419013, -1.6879795396419581)" fill="none" d="M433.96099853515625 443.802001953125L433.96099853515625 447.4540100097656" stroke="#000000" stroke-width="0.25" g2gstroke="#312783"/>
<path orgstroke="#000000" orgfill="none" stroke-linecap="round" transform="translate(-452.08241697799326, -394.12313275004544) translate(160.35401969732243, 38.63952281863192) translate(-6.911898947656482, -24.642422335122887) translate(-12.605932696325453, 183.68644786074248) translate(972,283) translate(-478.1112626953125, -9.244252822875978) translate(482.7463039695995, -255.28689257540225) translate(0.0, 199.6319302129923) translate(36.308689697265606, -1.4010578613281268) translate(34.250095947265606, -8.631938598632814) translate(-84.39897698209705, -13.503836317135551) translate(1.6879795396419013, -1.6879795396419581)" fill="none" d="M431.656005859375 435.48199462890625L433.781005859375 438.718994140625L433.96099853515625 439.1789855957031L433.96099853515625 442.218994140625" stroke="#000000" stroke-width="0.25" g2gstroke="#312783"/>
<path orgstroke="#000000" orgfill="none" stroke-linecap="round" transform="translate(-452.08241697799326, -394.12313275004544) translate(160.35401969732243, 38.63952281863192) translate(-6.911898947656482, -24.642422335122887) translate(-12.605932696325453, 183.68644786074248) translate(972,283) translate(-478.1112626953125, -9.244252822875978) translate(482.7463039695995, -255.28689257540225) translate(0.0, 199.6319302129923) translate(36.308689697265606, -1.4010578613281268) translate(34.250095947265606, -8.631938598632814) translate(-84.39897698209705, -13.503836317135551) translate(1.6879795396419013, -1.6879795396419581)" fill="none" d="M429.864990234375 428.635009765625L429.81500244140625 432.260009765625L429.927001953125 432.85400390625L431.114990234375 434.6650085449219" stroke="#000000" stroke-width="0.25" g2gstroke="#312783"/>
<path orgstroke="#000000" orgfill="none" stroke-linecap="round" transform="translate(-452.08241697799326, -394.12313275004544) translate(160.35401969732243, 38.63952281863192) translate(-6.911898947656482, -24.642422335122887) translate(-12.605932696325453, 183.68644786074248) translate(972,283) translate(-478.1112626953125, -9.244252822875978) translate(482.7463039695995, -255.28689257540225) translate(0.0, 199.6319302129923) translate(36.308689697265606, -1.4010578613281268) translate(34.250095947265606, -8.631938598632814) translate(-84.39897698209705, -13.503836317135551) translate(1.6879795396419013, -1.6879795396419581)" fill="none" d="M429.92401123046875 424.406005859375L429.885986328125 427.0379943847656" stroke="#000000" stroke-width="0.25" g2gstroke="#312783"/>
<path orgstroke="#000000" orgfill="none" stroke-linecap="round" transform="translate(-452.08241697799326, -394.12313275004544) translate(160.35401969732243, 38.63952281863192) translate(-6.911898947656482, -24.642422335122887) translate(-12.605932696325453, 183.68644786074248) translate(972,283) translate(-478.1112626953125, -9.244252822875978) translate(482.7463039695995, -255.28689257540225) translate(0.0, 199.6319302129923) translate(36.308689697265606, -1.4010578613281268) translate(34.250095947265606, -8.631938598632814) translate(-84.39897698209705, -13.503836317135551) translate(1.6879795396419013, -1.6879795396419581)" fill="none" d="M429.1099853515625 424.1369934082031L428.8999938964844 432.6000061035156L429.0119934082031 433.1940002441406L432.8760070800781 439.052001953125L433.0450134277344 439.5199890136719L433.0450134277344 447.07598876953125" stroke="#000000" stroke-width="0.25" g2gstroke="#312783"/>
<path orgstroke="#000000" orgfill="none" stroke-linecap="round" transform="translate(-452.08241697799326, -394.12313275004544) translate(160.35401969732243, 38.63952281863192) translate(-6.911898947656482, -24.642422335122887) translate(-12.605932696325453, 183.68644786074248) translate(972,283) translate(-478.1112626953125, -9.244252822875978) translate(482.7463039695995, -255.28689257540225) translate(0.0, 199.6319302129923) translate(36.308689697265606, -1.4010578613281268) translate(34.250095947265606, -8.631938598632814) translate(-84.39897698209705, -13.503836317135551) translate(1.6879795396419013, -1.6879795396419581)" fill="none" d="M431.5589904785156 423.5140075683594L431.447998046875 431.3680114746094L431.56298828125 431.968994140625L435.427001953125 437.8210144042969L435.5950012207031 438.2850036621094L435.5950012207031 446.55999755859375" stroke="#000000" stroke-width="0.25" g2gstroke="#312783"/>
<path orgstroke="#000000" orgfill="none" stroke-linecap="round" transform="translate(-452.08241697799326, -394.12313275004544) translate(160.35401969732243, 38.63952281863192) translate(-6.911898947656482, -24.642422335122887) translate(-12.605932696325453, 183.68644786074248) translate(972,283) translate(-478.1112626953125, -9.244252822875978) translate(482.7463039695995, -255.28689257540225) translate(0.0, 199.6319302129923) translate(36.308689697265606, -1.4010578613281268) translate(34.250095947265606, -8.631938598632814) translate(-84.39897698209705, -13.503836317135551) translate(1.6879795396419013, -1.6879795396419581)" fill="none" d="M437.66900634765625 441.135009765625L437.66900634765625 445.4159851074219" stroke="#000000" stroke-width="0.25" g2gstroke="#312783"/>
<path orgstroke="#000000" orgfill="none" stroke-linecap="round" transform="translate(-452.08241697799326, -394.12313275004544) translate(160.35401969732243, 38.63952281863192) translate(-6.911898947656482, -24.642422335122887) translate(-12.605932696325453, 183.68644786074248) translate(972,283) translate(-478.1112626953125, -9.244252822875978) translate(482.7463039695995, -255.28689257540225) translate(0.0, 199.6319302129923) translate(36.308689697265606, -1.4010578613281268) translate(34.250095947265606, -8.631938598632814) translate(-84.39897698209705, -13.503836317135551) translate(1.6879795396419013, -1.6879795396419581)" fill="none" d="M435.427001953125 433.531005859375L437.489990234375 436.677001953125L437.66900634765625 437.1400146484375L437.66900634765625 439.552001953125" stroke="#000000" stroke-width="0.25" g2gstroke="#312783"/>
<path orgstroke="#000000" orgfill="none" stroke-linecap="round" transform="translate(-452.08241697799326, -394.12313275004544) translate(160.35401969732243, 38.63952281863192) translate(-6.911898947656482, -24.642422335122887) translate(-12.605932696325453, 183.68644786074248) translate(972,283) translate(-478.1112626953125, -9.244252822875978) translate(482.7463039695995, -255.28689257540225) translate(0.0, 199.6319302129923) translate(36.308689697265606, -1.4010578613281268) translate(34.250095947265606, -8.631938598632814) translate(-84.39897698209705, -13.503836317135551) translate(1.6879795396419013, -1.6879795396419581)" fill="none" d="M433.60699462890625 424.156005859375L433.52398681640625 430.218994140625L433.63800048828125 430.81500244140625L434.62701416015625 432.3160095214844" stroke="#000000" stroke-width="0.25" g2gstroke="#312783"/>
<path orgstroke="#000000" orgfill="none" stroke-linecap="round" transform="translate(-452.08241697799326, -394.12313275004544) translate(160.35401969732243, 38.63952281863192) translate(-6.911898947656482, -24.642422335122887) translate(-12.605932696325453, 183.68644786074248) translate(972,283) translate(-478.1112626953125, -9.244252822875978) translate(482.7463039695995, -255.28689257540225) translate(0.0, 199.6319302129923) translate(36.308689697265606, -1.4010578613281268) translate(34.250095947265606, -8.631938598632814) translate(-84.39897698209705, -13.503836317135551) translate(1.6879795396419013, -1.6879795396419581)" fill="none" d="M433.635009765625 422.3659973144531L433.614990234375 423.3630065917969" stroke="#000000" stroke-width="0.25" g2gstroke="#312783"/>
<path orgstroke="#000000" orgfill="none" stroke-linecap="round" transform="translate(-452.08241697799326, -394.12313275004544) translate(160.35401969732243, 38.63952281863192) translate(-6.911898947656482, -24.642422335122887) translate(-12.605932696325453, 183.68644786074248) translate(972,283) translate(-478.1112626953125, -9.244252822875978) translate(482.7463039695995, -255.28689257540225) translate(0.0, 199.6319302129923) translate(36.308689697265606, -1.4010578613281268) translate(34.250095947265606, -8.631938598632814) translate(-84.39897698209705, -13.503836317135551) translate(1.6879795396419013, -1.6879795396419581)" fill="none" d="M432.7130126953125 422.177001953125L432.614990234375 430.510009765625L432.7359924316406 431.09600830078125L436.5989990234375 436.9530029296875L436.76800537109375 437.427001953125L436.76800537109375 445.20599365234375" stroke="#000000" stroke-width="0.25" g2gstroke="#312783"/>
<path orgstroke="#000000" orgfill="none" stroke-linecap="round" transform="translate(-452.08241697799326, -394.12313275004544) translate(160.35401969732243, 38.63952281863192) translate(-6.911898947656482, -24.642422335122887) translate(-12.605932696325453, 183.68644786074248) translate(972,283) translate(-478.1112626953125, -9.244252822875978) translate(482.7463039695995, -255.28689257540225) translate(0.0, 199.6319302129923) translate(36.308689697265606, -1.4010578613281268) translate(34.250095947265606, -8.631938598632814) translate(-84.39897698209705, -13.503836317135551) translate(1.6879795396419013, -1.6879795396419581)" fill="none" d="M426.2300109863281 426.593994140625L427.781005859375 425.697998046875L427.87701416015625 425.4330139160156L427.85699462890625 424.8590087890625L428.0469970703125 424.677001953125L429.1099853515625 424.1369934082031L429.2569885253906 424.17999267578125L429.7659912109375 424.3689880371094L429.9779968261719 424.3269958496094L431.54901123046875 423.5409851074219L431.510986328125 423.2879943847656L431.510986328125 422.906005859375L431.5929870605469 422.802001953125L432.843994140625 422.10101318359375L433.43798828125 422.22601318359375L433.7349853515625 422.22601318359375L434.697998046875 421.7340087890625" stroke="#000000" stroke-width="0.25" g2gstroke="#312783"/>
<path orgstroke="#000000" orgfill="none" stroke-linecap="round" transform="translate(-452.08241697799326, -394.12313275004544) translate(160.35401969732243, 38.63952281863192) translate(-6.911898947656482, -24.642422335122887) translate(-12.605932696325453, 183.68644786074248) translate(972,283) translate(-478.1112626953125, -9.244252822875978) translate(482.7463039695995, -255.28689257540225) translate(0.0, 199.6319302129923) translate(36.308689697265606, -1.4010578613281268) translate(34.250095947265606, -8.631938598632814) translate(-84.39897698209705, -13.503836317135551) translate(1.6879795396419013, -1.6879795396419581)" fill="none" d="M426.27301025390625 426.5660095214844L425.1910095214844 425.677001953125" stroke="#000000" stroke-width="0.25" g2gstroke="#312783"/>
<path orgstroke="#000000" orgfill="none" stroke-linecap="round" transform="translate(-452.08241697799326, -394.12313275004544) translate(160.35401969732243, 38.63952281863192) translate(-6.911898947656482, -24.642422335122887) translate(-12.605932696325453, 183.68644786074248) translate(972,283) translate(-478.1112626953125, -9.244252822875978) translate(482.7463039695995, -255.28689257540225) translate(0.0, 199.6319302129923) translate(36.308689697265606, -1.4010578613281268) translate(34.250095947265606, -8.631938598632814) translate(-84.39897698209705, -13.503836317135551) translate(1.6879795396419013, -1.6879795396419581)" fill="none" d="M426.781005859375 446.67999267578125L424.510986328125 445.3940124511719" stroke="#000000" stroke-width="0.25" g2gstroke="#312783"/>
<path orgstroke="#000000" orgfill="none" stroke-linecap="round" transform="translate(-452.08241697799326, -394.12313275004544) translate(160.35401969732243, 38.63952281863192) translate(-6.911898947656482, -24.642422335122887) translate(-12.605932696325453, 183.68644786074248) translate(972,283) translate(-478.1112626953125, -9.244252822875978) translate(482.7463039695995, -255.28689257540225) translate(0.0, 199.6319302129923) translate(36.308689697265606, -1.4010578613281268) translate(34.250095947265606, -8.631938598632814) translate(-84.39897698209705, -13.503836317135551) translate(1.6879795396419013, -1.6879795396419581)" fill="none" d="M429.09600830078125 447.9830017089844L427.4320068359375 447.052001953125" stroke="#000000" stroke-width="0.25" g2gstroke="#312783"/>
<path orgstroke="#000000" orgfill="none" stroke-linecap="round" transform="translate(-452.08241697799326, -394.12313275004544) translate(160.35401969732243, 38.63952281863192) translate(-6.911898947656482, -24.642422335122887) translate(-12.605932696325453, 183.68644786074248) translate(972,283) translate(-478.1112626953125, -9.244252822875978) translate(482.7463039695995, -255.28689257540225) translate(0.0, 199.6319302129923) translate(36.308689697265606, -1.4010578613281268) translate(34.250095947265606, -8.631938598632814) translate(-84.39897698209705, -13.503836317135551) translate(1.6879795396419013, -1.6879795396419581)" fill="none" d="M427.948,427.317   c0.149-0.084,0.313-0.14,0.453-0.14c0.315,0,0.429,0.256,0.241,0.574c-0.138,0.229-0.396,0.438-0.651,0.521" stroke="#000000" stroke-width="0.25" g2gstroke="#312783"/>
<path orgstroke="#000000" orgfill="none" stroke-linecap="round" transform="translate(-452.08241697799326, -394.12313275004544) translate(160.35401969732243, 38.63952281863192) translate(-6.911898947656482, -24.642422335122887) translate(-12.605932696325453, 183.68644786074248) translate(972,283) translate(-478.1112626953125, -9.244252822875978) translate(482.7463039695995, -255.28689257540225) translate(0.0, 199.6319302129923) translate(36.308689697265606, -1.4010578613281268) translate(34.250095947265606, -8.631938598632814) translate(-84.39897698209705, -13.503836317135551) translate(1.6879795396419013, -1.6879795396419581)" fill="none" d="M431.684,425.844   c0.172-0.113,0.367-0.188,0.536-0.188c0.313,0,0.424,0.257,0.241,0.573c-0.158,0.273-0.48,0.504-0.771,0.561" stroke="#000000" stroke-width="0.25" g2gstroke="#312783"/>
</g>
</g>
</g>
</g>
</g></svg>