<svg xmlns="http://www.w3.org/2000/svg" xmlns:xlink="http://www.w3.org/1999/xlink" xmlns:x="http://ns.adobe.com/Extensibility/1.0/" xmlns:graph="http://ns.adobe.com/Graphs/1.0/" xmlns:i="http://ns.adobe.com/AdobeIllustrator/10.0/" xmlns:etg="http://www.eurotaxglass.com/etg/evd/" etg:dataTimestamp="1539068912893" contentScriptType="text/ecmascript" zoomAndPan="magnify" contentStyleType="text/css" id="Layer_1" enable-background="new 0 0 1841.891 1595.279" version="1.1" xml:space="preserve" width="1841.891px" preserveAspectRatio="xMidYMid meet" viewBox="0 0 1841.891 1595.279" height="1595.279px" x="0px" y="0px"><g xmlns="http://www.w3.org/2000/svg" objecttype="PS" tooltip="#UNDEFINED" id="19">
<g onmouseover="notifyOwner(AGV_OBJECT_MOUSEOVER, '19(PS)')" transform="translate(-9.433746356535266E-6, 3.356933575560106E-7) translate(-35.71980609130861, -13.200809143066408) translate(44.708733184814434, 94.79042849731445) matrix(0.6117410612267968 0 0 0.6117410612267968 0.2921243287958965 0.477310974878083) translate(-92,-34) " onclick="clickZoom(evt); notifyOwner(AGV_OBJECT_MOUSECLICK, '19(PS)')" onmouseout="notifyOwner(AGV_OBJECT_MOUSEOUT, '19(PS)')" tooltip="#UNDEFINED" id="19-Graphic" objecttype="GRAPHIC">
<g zvalue="18">
<g zvalue="46">
<g zvalue="38">
<g>
<path orgstroke="#000000" orgfill="#ffffff" transform="translate(-295.5923495625341, 69.5511410735374) translate(13.523832986521029, -13.523832986521171) translate(0.6567110110379417, -1.9701330331140525) translate(-14.792050684180822, -24.829513648446607) translate(185.48729538878888, 48.62288325725535) translate(724,-30) translate(-518.5915025634765, -83.33211865234375) translate(658.0, -6.0) translate(10.0, 10.00006103515625)" fill="#ffffff" g2gfill="#ECC35D" d="M398.895,527.84   c-0.058,0.113-0.132,0.258-0.253,0.422c-0.721,0.98-1.898,2.467-2.68,3.342s-1.25,1.594-2.955,1.734   c-7.484,0.617-17.426,0.645-27.41-0.986c-3.455-0.564-5.885-4.016-6.729-5.111c-0.038-0.051-0.066-0.096-0.093-0.131   c-0.189-0.26-0.03-0.258,0.199-0.391l2.208-1.289c0.218-0.127,0.494-0.234,0.849-0.191c11.277,1.398,20.936,1.213,29.271,0.676   c0.833-0.053,2.328-0.186,3.733-0.316c0.387-0.037,0.709,0,1.122,0.238l2.335,1.371C398.799,527.383,398.99,527.652,398.895,527.84   z" stroke="#000000" outline-element="true" stroke-width="0.5" g2gstroke="#312783" stroke-miterlimit="10"/>
<path fill="#E1321E" d="M398.494,527.207c0.311,0.18,0.5,0.451,0.4,0.631c-0.05,0.119-0.13,0.26-0.25,0.42   c-0.72,0.99-1.9,2.469-2.68,3.35c-0.78,0.869-1.25,1.59-2.95,1.73c-7.49,0.619-17.43,0.648-27.41-0.99   c-3.46-0.561-5.89-4.01-6.729-5.111c-0.04-0.049-0.07-0.09-0.101-0.129c-0.189-0.26-0.03-0.26,0.2-0.391l1.03-0.6   c0.14-0.08,0.38-0.051,0.77,0c11.83,1.551,21.891,1.4,30.53,0.84c1.189-0.08,3.71-0.32,5.41-0.48c0.35-0.029,0.63,0.061,0.93,0.23   L398.494,527.207z" transform="translate(-295.5923495625341, 69.5511410735374) translate(13.523832986521029, -13.523832986521171) translate(0.6567110110379417, -1.9701330331140525) translate(-14.792050684180822, -24.829513648446607) translate(185.48729538878888, 48.62288325725535) translate(724,-30) translate(-518.5915025634765, -83.33211865234375) translate(658.0, -6.0) translate(10.0, 10.00006103515625)" orgfill="#E1321E"/>
<radialGradient transform="translate(-295.5923495625341, 69.5511410735374) translate(13.523832986521029, -13.523832986521171) translate(0.6567110110379417, -1.9701330331140525) translate(-14.792050684180822, -24.829513648446607) translate(185.48729538878888, 48.62288325725535) translate(724,-30) translate(-518.5915025634765, -83.33211865234375) translate(658.0, -6.0) translate(10.0, 10.00006103515625)" gradientTransform="matrix(0.0072 1 2.5521 -0.0184 201.7676 147.2575)" gradientUnits="userSpaceOnUse" xmlns:xlink="http://www.w3.org/1999/xlink" xlink:type="simple" r="16.8234" cx="380.3818" xlink:actuate="onLoad" cy="68.9196" id="18::SVGID_31_" xlink:show="other">
<stop stop-opacity="0.6" stop-color="#FFFFFF" offset="0"/>
<stop stop-opacity="0.2" stop-color="#FFFFFF" offset="1"/>
</radialGradient>
<path fill="url(#18::SVGID_31_)" d="M359.14,526.934c12.527,1.828,23.123,1.648,32.162,1.066c1.76-0.113,6.48-0.58,7.055-0.645   c0.6-0.066,0.826,0.168,0.285,0.906c-0.721,0.98-1.898,2.467-2.68,3.342s-1.25,1.594-2.955,1.734   c-7.484,0.617-17.426,0.645-27.41-0.986c-3.455-0.564-5.885-4.016-6.729-5.111C358.466,526.719,358.905,526.9,359.14,526.934z" transform="translate(-295.5923495625341, 69.5511410735374) translate(13.523832986521029, -13.523832986521171) translate(0.6567110110379417, -1.9701330331140525) translate(-14.792050684180822, -24.829513648446607) translate(185.48729538878888, 48.62288325725535) translate(724,-30) translate(-518.5915025634765, -83.33211865234375) translate(658.0, -6.0) translate(10.0, 10.00006103515625)" orgfill="url(#18::SVGID_31_)"/>
<path stroke-linecap="round" orgstroke="#000000" orgfill="none" transform="translate(-295.5923495625341, 69.5511410735374) translate(13.523832986521029, -13.523832986521171) translate(0.6567110110379417, -1.9701330331140525) translate(-14.792050684180822, -24.829513648446607) translate(185.48729538878888, 48.62288325725535) translate(724,-30) translate(-518.5915025634765, -83.33211865234375) translate(658.0, -6.0) translate(10.0, 10.00006103515625)" fill="none" stroke-linejoin="round" d="   M398.915,527.713c-0.054-0.156-0.245-0.393-0.559-0.357c-0.574,0.064-5.295,0.531-7.055,0.645   c-9.039,0.582-19.635,0.762-32.162-1.066c-0.167-0.023-0.439-0.123-0.435,0.012" stroke="#000000" stroke-width="0.25" g2gstroke="#312783" stroke-miterlimit="10"/>
<path stroke-linecap="round" orgstroke="#000000" orgfill="none" transform="translate(-295.5923495625341, 69.5511410735374) translate(13.523832986521029, -13.523832986521171) translate(0.6567110110379417, -1.9701330331140525) translate(-14.792050684180822, -24.829513648446607) translate(185.48729538878888, 48.62288325725535) translate(724,-30) translate(-518.5915025634765, -83.33211865234375) translate(658.0, -6.0) translate(10.0, 10.00006103515625)" fill="none" stroke-linejoin="round" d="   M397.644,526.709c-0.298-0.176-0.581-0.264-0.928-0.23c-1.7,0.164-4.229,0.402-5.414,0.479c-8.644,0.557-18.704,0.709-30.527-0.838   c-0.396-0.053-0.633-0.082-0.772,0" stroke="#000000" stroke-width="0.25" g2gstroke="#312783" stroke-miterlimit="10"/>
<path stroke-linecap="round" orgstroke="#000000" orgfill="none" transform="translate(-295.5923495625341, 69.5511410735374) translate(13.523832986521029, -13.523832986521171) translate(0.6567110110379417, -1.9701330331140525) translate(-14.792050684180822, -24.829513648446607) translate(185.48729538878888, 48.62288325725535) translate(724,-30) translate(-518.5915025634765, -83.33211865234375) translate(658.0, -6.0) translate(10.0, 10.00006103515625)" fill="none" stroke-linejoin="round" d="   M398.895,527.84c-0.058,0.113-0.132,0.258-0.253,0.422c-0.721,0.98-1.898,2.467-2.68,3.342s-1.25,1.594-2.955,1.734   c-7.484,0.617-17.426,0.645-27.41-0.986c-3.455-0.564-5.885-4.016-6.729-5.111c-0.038-0.051-0.066-0.096-0.093-0.131   c-0.189-0.26-0.03-0.258,0.199-0.391l2.208-1.289c0.218-0.127,0.494-0.234,0.849-0.191c11.277,1.398,20.936,1.213,29.271,0.676   c0.833-0.053,2.328-0.186,3.733-0.316c0.387-0.037,0.709,0,1.122,0.238l2.335,1.371C398.799,527.383,398.99,527.652,398.895,527.84   z" stroke="#000000" stroke-width="0.25" g2gstroke="#312783" stroke-miterlimit="10"/>
</g>
</g>
</g>
</g>
</g>
</g></svg>