<svg xmlns="http://www.w3.org/2000/svg" xmlns:xlink="http://www.w3.org/1999/xlink" xmlns:x="http://ns.adobe.com/Extensibility/1.0/" xmlns:graph="http://ns.adobe.com/Graphs/1.0/" xmlns:i="http://ns.adobe.com/AdobeIllustrator/10.0/" xmlns:etg="http://www.eurotaxglass.com/etg/evd/" etg:dataTimestamp="1539068912893" contentScriptType="text/ecmascript" zoomAndPan="magnify" contentStyleType="text/css" id="Layer_1" enable-background="new 0 0 1841.891 1595.279" version="1.1" xml:space="preserve" width="1841.891px" preserveAspectRatio="xMidYMid meet" viewBox="0 0 1841.891 1595.279" height="1595.279px" x="0px" y="0px"><g xmlns="http://www.w3.org/2000/svg" objecttype="PS" tooltip="#UNDEFINED" id="191">
<g onmouseover="notifyOwner(AGV_OBJECT_MOUSEOVER, '191(PS)')" transform="translate(-9.433746356535266E-6, 3.356933575560106E-7) translate(-35.71980609130861, -13.200809143066408) translate(44.708733184814434, 94.79042849731445) matrix(0.6117410612267968 0 0 0.6117410612267968 0.2921243287958965 0.477310974878083) translate(-92,-34) " onclick="clickZoom(evt); notifyOwner(AGV_OBJECT_MOUSECLICK, '191(PS)')" onmouseout="notifyOwner(AGV_OBJECT_MOUSEOUT, '191(PS)')" tooltip="#UNDEFINED" id="191-Graphic" objecttype="GRAPHIC">
<g zvalue="192">
<g zvalue="28">
<g zvalue="11">
<g>
<path orgstroke="#000000" stroke="#000000" d="   M340.234,341.645l-0.056-4.586c-0.013-1.086-0.896-1.445-1.973-0.807l-22.251,13.127c-1.077,0.641-1.941,2.037-1.928,3.123   l0.055,4.586c0.014,1.084,0.898,1.445,1.975,0.805l22.252-13.127C339.384,344.125,340.247,342.729,340.234,341.645L340.234,341.645   z" stroke-linecap="round" outline-element="true" enable-background="new    " transform="translate(-452.08241697799326, -394.12313275004544) translate(160.35401969732243, 38.63952281863192) translate(-12.605932696325453, 183.68644786074248) translate(972,283) translate(-478.1112626953125, -9.244252822875978) translate(59.0, -37.0) translate(572.0, -62.0) translate(10.0, 10.00006103515625)" stroke-miterlimit="10" orgfill="#ffffff" fill="#ffffff" stroke-width="0.5" g2gfill="#ECF5E4" opacity="0.6" stroke-linejoin="round" g2gstroke="#312783"/>
<path stroke-linecap="round" orgstroke="#000000" orgfill="none" transform="translate(-452.08241697799326, -394.12313275004544) translate(160.35401969732243, 38.63952281863192) translate(-12.605932696325453, 183.68644786074248) translate(972,283) translate(-478.1112626953125, -9.244252822875978) translate(59.0, -37.0) translate(572.0, -62.0) translate(10.0, 10.00006103515625)" fill="none" stroke-linejoin="round" d="   M340.234,341.645l-0.056-4.586c-0.013-1.086-0.896-1.445-1.973-0.807l-22.251,13.127c-1.077,0.641-1.941,2.037-1.928,3.123   l0.055,4.586c0.014,1.084,0.898,1.445,1.975,0.805l22.252-13.127C339.384,344.125,340.247,342.729,340.234,341.645L340.234,341.645   z" stroke="#000000" outline-element="true" stroke-width="0.5" g2gstroke="#312783" stroke-miterlimit="10"/>
<g>
<path fill="#312783" d="M322.25,349.777c0,0.615-0.069,1.156-0.208,1.623c-0.21,0.711-0.558,1.367-1.042,1.965    c-0.468,0.574-1.022,1.047-1.661,1.416c-1.041,0.602-1.84,0.707-2.396,0.32c-0.421-0.295-0.631-0.814-0.631-1.559    c0-0.826,0.246-1.66,0.738-2.508c0.56-0.963,1.34-1.732,2.344-2.313c0.669-0.387,1.236-0.541,1.701-0.467    c0.333,0.051,0.616,0.248,0.852,0.588l-1.395,1.383c-0.12-0.195-0.259-0.314-0.417-0.355c-0.228-0.055-0.499,0.008-0.812,0.189    c-0.643,0.369-1.09,0.959-1.343,1.764c-0.094,0.299-0.142,0.576-0.142,0.836c0,0.539,0.172,0.889,0.514,1.051    c0.252,0.121,0.59,0.061,1.012-0.184c0.375-0.215,0.672-0.496,0.891-0.84c0.146-0.227,0.239-0.494,0.284-0.801l-1.213,0.701    v-1.123L322.25,349.777z" transform="translate(-452.08241697799326, -394.12313275004544) translate(160.35401969732243, 38.63952281863192) translate(-12.605932696325453, 183.68644786074248) translate(972,283) translate(-478.1112626953125, -9.244252822875978) translate(59.0, -37.0) translate(572.0, -62.0) translate(10.0, 10.00006103515625)" orgfill="#312783"/>
<path fill="#312783" d="M329.207,346.094c0,0.77-0.256,1.594-0.768,2.471c-0.584,0.998-1.375,1.785-2.372,2.361    c-0.993,0.572-1.782,0.699-2.367,0.373c-0.513-0.285-0.768-0.813-0.768-1.582c0-0.352,0.068-0.752,0.207-1.201    c0.139-0.451,0.323-0.875,0.557-1.271c0.584-1,1.375-1.785,2.371-2.361c0.997-0.576,1.788-0.701,2.372-0.377    C328.951,344.791,329.207,345.32,329.207,346.094z M327.679,346.977c0-0.4-0.128-0.674-0.383-0.816    c-0.328-0.184-0.738-0.133-1.229,0.152c-0.339,0.195-0.646,0.467-0.92,0.816c-0.274,0.348-0.47,0.715-0.587,1.098    c-0.066,0.219-0.1,0.422-0.1,0.607c0,0.383,0.127,0.652,0.383,0.807c0.316,0.193,0.725,0.145,1.224-0.145    c0.5-0.289,0.909-0.711,1.229-1.268C327.551,347.785,327.679,347.367,327.679,346.977z" transform="translate(-452.08241697799326, -394.12313275004544) translate(160.35401969732243, 38.63952281863192) translate(-12.605932696325453, 183.68644786074248) translate(972,283) translate(-478.1112626953125, -9.244252822875978) translate(59.0, -37.0) translate(572.0, -62.0) translate(10.0, 10.00006103515625)" orgfill="#312783"/>
<path fill="#312783" d="M333.385,346.496l-3.244,1.873v-5.668l1.475-0.852v4.439l1.77-1.021v1.229H333.385z" transform="translate(-452.08241697799326, -394.12313275004544) translate(160.35401969732243, 38.63952281863192) translate(-12.605932696325453, 183.68644786074248) translate(972,283) translate(-478.1112626953125, -9.244252822875978) translate(59.0, -37.0) translate(572.0, -62.0) translate(10.0, 10.00006103515625)" orgfill="#312783"/>
<path fill="#312783" d="M337.388,339.746l-1.773,1.023v0.969l1.615-0.934v1.229l-1.615,0.934v2.242l-1.475,0.852v-5.668    l3.248-1.875L337.388,339.746L337.388,339.746z" transform="translate(-452.08241697799326, -394.12313275004544) translate(160.35401969732243, 38.63952281863192) translate(-12.605932696325453, 183.68644786074248) translate(972,283) translate(-478.1112626953125, -9.244252822875978) translate(59.0, -37.0) translate(572.0, -62.0) translate(10.0, 10.00006103515625)" orgfill="#312783"/>
</g>
</g>
</g>
</g>
</g>
</g>
</g></svg>