<svg xmlns="http://www.w3.org/2000/svg" xmlns:xlink="http://www.w3.org/1999/xlink" xmlns:x="http://ns.adobe.com/Extensibility/1.0/" xmlns:graph="http://ns.adobe.com/Graphs/1.0/" xmlns:i="http://ns.adobe.com/AdobeIllustrator/10.0/" xmlns:etg="http://www.eurotaxglass.com/etg/evd/" etg:dataTimestamp="1539068912893" contentScriptType="text/ecmascript" zoomAndPan="magnify" contentStyleType="text/css" id="Layer_1" enable-background="new 0 0 1841.891 1595.279" version="1.1" xml:space="preserve" width="1841.891px" preserveAspectRatio="xMidYMid meet" viewBox="0 0 1841.891 1595.279" height="1595.279px" x="0px" y="0px"><g xmlns="http://www.w3.org/2000/svg" objecttype="PS" tooltip="#UNDEFINED" id="192">
<g onmouseover="notifyOwner(AGV_OBJECT_MOUSEOVER, '192(PS)')" transform="translate(-9.433746356535266E-6, 3.356933575560106E-7) translate(-35.71980609130861, -13.200809143066408) translate(44.708733184814434, 94.79042849731445) matrix(0.6117410612267968 0 0 0.6117410612267968 0.2921243287958965 0.477310974878083) translate(-92,-34) " onclick="clickZoom(evt); notifyOwner(AGV_OBJECT_MOUSECLICK, '192(PS)')" onmouseout="notifyOwner(AGV_OBJECT_MOUSEOUT, '192(PS)')" tooltip="#UNDEFINED" id="192-Graphic" objecttype="GRAPHIC">
<g zvalue="193">
<g zvalue="29">
<g zvalue="12">
<g>
<path orgstroke="#000000" stroke="#000000" d="   M477.598,235.328l-0.055-4.586c-0.014-1.086-0.896-1.445-1.973-0.805l-11.906,7.018c-1.076,0.641-1.941,2.037-1.928,3.123   l0.055,4.586c0.014,1.084,0.898,1.445,1.975,0.805l11.906-7.018C476.748,237.81,477.611,236.414,477.598,235.328L477.598,235.328z" stroke-linecap="round" outline-element="true" enable-background="new    " transform="translate(-452.08241697799326, -394.12313275004544) translate(160.35401969732243, 38.63952281863192) translate(-12.605932696325453, 183.68644786074248) translate(972,283) translate(-478.1112626953125, -9.244252822875978) translate(-31.010785275804665, 36.69609590970214) translate(59.0, -37.0) translate(572.0, -62.0) translate(10.0, 10.00006103515625)" stroke-miterlimit="10" orgfill="#ffffff" fill="#ffffff" stroke-width="0.5" g2gfill="#ECF5E4" opacity="0.6" stroke-linejoin="round" g2gstroke="#312783"/>
<path stroke-linecap="round" orgstroke="#000000" orgfill="none" transform="translate(-452.08241697799326, -394.12313275004544) translate(160.35401969732243, 38.63952281863192) translate(-12.605932696325453, 183.68644786074248) translate(972,283) translate(-478.1112626953125, -9.244252822875978) translate(-31.010785275804665, 36.69609590970214) translate(59.0, -37.0) translate(572.0, -62.0) translate(10.0, 10.00006103515625)" fill="none" stroke-linejoin="round" d="   M477.598,235.328l-0.055-4.586c-0.014-1.086-0.896-1.445-1.973-0.805l-11.906,7.018c-1.076,0.641-1.941,2.037-1.928,3.123   l0.055,4.586c0.014,1.084,0.898,1.445,1.975,0.805l11.906-7.018C476.748,237.81,477.611,236.414,477.598,235.328L477.598,235.328z" stroke="#000000" outline-element="true" stroke-width="0.5" g2gstroke="#312783" stroke-miterlimit="10"/>
<g>
<path fill="#312783" d="M466.131,242.552l-1.271,0.734v-3.557l-0.477,0.559c-0.191,0.217-0.359,0.383-0.506,0.496v-1.326    c0.578-0.67,0.986-1.363,1.223-2.08l1.031-0.596V242.552z" transform="translate(-452.08241697799326, -394.12313275004544) translate(160.35401969732243, 38.63952281863192) translate(-12.605932696325453, 183.68644786074248) translate(972,283) translate(-478.1112626953125, -9.244252822875978) translate(-31.010785275804665, 36.69609590970214) translate(59.0, -37.0) translate(572.0, -62.0) translate(10.0, 10.00006103515625)" orgfill="#312783"/>
<path fill="#312783" d="M469.881,239.742c0,0.207-0.072,0.424-0.217,0.652s-0.32,0.402-0.527,0.521    c-0.215,0.125-0.396,0.156-0.543,0.098c-0.146-0.061-0.219-0.193-0.219-0.4s0.072-0.426,0.219-0.652s0.328-0.402,0.543-0.527    c0.207-0.119,0.383-0.148,0.527-0.09S469.881,239.535,469.881,239.742z" transform="translate(-452.08241697799326, -394.12313275004544) translate(160.35401969732243, 38.63952281863192) translate(-12.605932696325453, 183.68644786074248) translate(972,283) translate(-478.1112626953125, -9.244252822875978) translate(-31.010785275804665, 36.69609590970214) translate(59.0, -37.0) translate(572.0, -62.0) translate(10.0, 10.00006103515625)" orgfill="#312783"/>
<path fill="#312783" d="M475.199,235.238c0,0.68-0.207,1.346-0.621,1.992c-0.395,0.607-0.895,1.086-1.5,1.436    c-0.594,0.342-1.086,0.434-1.477,0.271c-0.406-0.17-0.609-0.588-0.609-1.254c0-0.375,0.084-0.785,0.254-1.227    c0.148-0.389,0.41-0.92,0.783-1.598l1.203-2.176l1.605-0.926l-1.48,2.67c0.514-0.23,0.934-0.301,1.258-0.207    C475.004,234.333,475.199,234.673,475.199,235.238z M473.854,236.126c0-0.207-0.074-0.34-0.225-0.4    c-0.148-0.061-0.324-0.033-0.525,0.082c-0.205,0.119-0.379,0.293-0.529,0.525c-0.148,0.234-0.223,0.453-0.223,0.66    c0,0.203,0.074,0.336,0.223,0.395c0.15,0.063,0.324,0.033,0.529-0.084c0.201-0.117,0.377-0.291,0.525-0.523    C473.779,236.548,473.854,236.33,473.854,236.126z" transform="translate(-452.08241697799326, -394.12313275004544) translate(160.35401969732243, 38.63952281863192) translate(-12.605932696325453, 183.68644786074248) translate(972,283) translate(-478.1112626953125, -9.244252822875978) translate(-31.010785275804665, 36.69609590970214) translate(59.0, -37.0) translate(572.0, -62.0) translate(10.0, 10.00006103515625)" orgfill="#312783"/>
</g>
</g>
</g>
</g>
</g>
</g>
</g></svg>