<svg xmlns="http://www.w3.org/2000/svg" xmlns:xlink="http://www.w3.org/1999/xlink" xmlns:x="http://ns.adobe.com/Extensibility/1.0/" xmlns:graph="http://ns.adobe.com/Graphs/1.0/" xmlns:i="http://ns.adobe.com/AdobeIllustrator/10.0/" xmlns:etg="http://www.eurotaxglass.com/etg/evd/" etg:dataTimestamp="1539068912893" contentScriptType="text/ecmascript" zoomAndPan="magnify" contentStyleType="text/css" id="Layer_1" enable-background="new 0 0 1841.891 1595.279" version="1.1" xml:space="preserve" width="1841.891px" preserveAspectRatio="xMidYMid meet" viewBox="0 0 1841.891 1595.279" height="1595.279px" x="0px" y="0px"><g xmlns="http://www.w3.org/2000/svg" objecttype="PS" tooltip="#UNDEFINED" id="195">
<g onmouseover="notifyOwner(AGV_OBJECT_MOUSEOVER, '195(PS)')" transform="translate(-9.433746356535266E-6, 3.356933575560106E-7) translate(-35.71980609130861, -13.200809143066408) translate(44.708733184814434, 94.79042849731445) matrix(0.6117410612267968 0 0 0.6117410612267968 0.2921243287958965 0.477310974878083) translate(-92,-34) " onclick="clickZoom(evt); notifyOwner(AGV_OBJECT_MOUSECLICK, '195(PS)')" onmouseout="notifyOwner(AGV_OBJECT_MOUSEOUT, '195(PS)')" tooltip="#UNDEFINED" id="195-Graphic" objecttype="GRAPHIC">
<g zvalue="196">
<g zvalue="43">
<g zvalue="30">
<g>
<path orgstroke="#000000" orgfill="#ffffff" transform="translate(-452.08241697799326, -394.12313275004544) translate(160.35401969732243, 38.63952281863192) translate(-14.668914026652828, 0.0) translate(-12.605932696325453, 183.68644786074248) translate(972,283) translate(-478.1112626953125, -9.244252822875978) translate(-8.469233402975306, -4.839561944557374) translate(59.0, -37.0) translate(572.0, -62.0) translate(10.0, 10.00006103515625)" fill="#ffffff" g2gfill="#BCBEC0" d="M487.857,345.15   c-16.545,19.332-30.111,29.473-43.621,37.352c-16.9,9.859-36.025,20.826-77.75,33.4c-0.43,0.129-1.037,0.025-1.338-0.145   l-2.57-1.49c-0.326-0.188-0.463-0.564-0.463-0.893v-3.924c0-0.244-0.119-0.482-0.43-0.67l-2.385-1.379   c-0.171-0.094-0.266-0.041-0.433,0.055l-5.53,3.197c-0.259,0.152-0.725,0.18-1.141-0.057l-1.213-0.711   c-0.273-0.158-0.372-0.445-0.372-0.688v-21.012c0-0.521,0.059-1.031,0.687-1.398l6.196-3.576c0.652-0.371,0.729-0.785,0.729-1.391   v-1.268c0-0.564,0.197-0.963,0.525-1.156l1.352-0.785c0.369-0.217,0.696-0.115,1.049,0.092l1.195,0.686   c0.302,0.176,0.461,0.6,0.461,0.844v8.986c0,0.221,0.025,0.346,0.314,0.512l8.803,5.088c0.149,0.082,0.346,0.184,0.667,0.08   c35.053-11.363,52.473-21.309,67.995-30.361c8.564-4.99,17.162-10.891,26.521-19.455c0.301-0.275,0.115-0.184-0.158-0.027   l-1.486,0.859c-0.203,0.125-0.713,0.164-1.096-0.059l-1.189-0.686c-0.363-0.211-0.432-0.568-0.432-0.908v-23.969   c0-0.545,0.211-1.002,0.736-1.301l1.023-0.594c0.328-0.188,0.793-0.172,1.08-0.008c0,0,1.434,0.67,1.799,1.043   c0.064,0.064,0.174,0.303,0.174,0.303l3.684-2.129c0.41-0.242,0.615-0.225,0.906-0.064l1.295,0.748   c0.297,0.172,0.455,0.813,0.455,1.107v7.055c0,0.264,0.064,0.432,0.365,0.609l6.391,3.695c0.297,0.172,0.357,0.098,0.619-0.201   c1.002-1.125,1.996-2.287,3.008-3.467c0.146-0.172,0.463-0.266,0.729-0.115l2.756,1.598c0.395,0.225,0.473,0.553,0.473,0.832   v14.723C488.24,344.412,488.139,344.813,487.857,345.15z" stroke="#000000" outline-element="true" stroke-width="0.5" g2gstroke="#312783" stroke-miterlimit="10"/>
<path stroke-linecap="round" orgstroke="#000000" orgfill="none" transform="translate(-452.08241697799326, -394.12313275004544) translate(160.35401969732243, 38.63952281863192) translate(-14.668914026652828, 0.0) translate(-12.605932696325453, 183.68644786074248) translate(972,283) translate(-478.1112626953125, -9.244252822875978) translate(-8.469233402975306, -4.839561944557374) translate(59.0, -37.0) translate(572.0, -62.0) translate(10.0, 10.00006103515625)" fill="none" d="M365.782,415.945   v-14.961c0-0.506,0.057-0.73,0.59-0.889c41.808-12.582,60.949-23.57,77.865-33.436c13.592-7.93,27.273-18.113,43.908-37.699" stroke="#000000" stroke-width="0.25" g2gstroke="#312783" stroke-miterlimit="10"/>
<path stroke-linecap="round" orgstroke="#000000" orgfill="none" transform="translate(-452.08241697799326, -394.12313275004544) translate(160.35401969732243, 38.63952281863192) translate(-14.668914026652828, 0.0) translate(-12.605932696325453, 183.68644786074248) translate(972,283) translate(-478.1112626953125, -9.244252822875978) translate(-8.469233402975306, -4.839561944557374) translate(59.0, -37.0) translate(572.0, -62.0) translate(10.0, 10.00006103515625)" fill="none" d="M359.135,407.305   l-1.459-0.846c-0.342-0.197-0.52-0.578-0.52-0.859v-14.088c0-0.281,0.255-0.918,0.566-1.102l2.838-1.641   c0.282-0.164,0.537-0.207,0.836-0.031l1.418,0.816" stroke="#000000" stroke-width="0.25" g2gstroke="#312783" stroke-miterlimit="10"/>
<path stroke-linecap="round" orgstroke="#000000" orgfill="none" transform="translate(-452.08241697799326, -394.12313275004544) translate(160.35401969732243, 38.63952281863192) translate(-14.668914026652828, 0.0) translate(-12.605932696325453, 183.68644786074248) translate(972,283) translate(-478.1112626953125, -9.244252822875978) translate(-8.469233402975306, -4.839561944557374) translate(59.0, -37.0) translate(572.0, -62.0) translate(10.0, 10.00006103515625)" fill="none" d="M467.096,345.088   c4.332-3.992,9.035-8.764,13.848-14.166" stroke="#000000" stroke-width="0.25" g2gstroke="#312783" stroke-miterlimit="10"/>
<path stroke-linecap="round" orgstroke="#000000" orgfill="none" transform="translate(-452.08241697799326, -394.12313275004544) translate(160.35401969732243, 38.63952281863192) translate(-14.668914026652828, 0.0) translate(-12.605932696325453, 183.68644786074248) translate(972,283) translate(-478.1112626953125, -9.244252822875978) translate(-8.469233402975306, -4.839561944557374) translate(59.0, -37.0) translate(572.0, -62.0) translate(10.0, 10.00006103515625)" fill="none" d="M372.733,394.861   c-3.043,0.975-6.704,2.121-10.014,3.123c-0.528,0.158-0.593,0.377-0.593,0.889v10.719" stroke="#000000" stroke-width="0.25" g2gstroke="#312783" stroke-miterlimit="10"/>
<path stroke-linecap="round" orgstroke="#000000" orgfill="none" transform="translate(-452.08241697799326, -394.12313275004544) translate(160.35401969732243, 38.63952281863192) translate(-14.668914026652828, 0.0) translate(-12.605932696325453, 183.68644786074248) translate(972,283) translate(-478.1112626953125, -9.244252822875978) translate(-8.469233402975306, -4.839561944557374) translate(59.0, -37.0) translate(572.0, -62.0) translate(10.0, 10.00006103515625)" fill="none" d="M365.8269958496094 400.510009765625L362.1820068359375 398.406005859375" stroke="#000000" stroke-width="0.25" g2gstroke="#312783" stroke-miterlimit="10"/>
<path stroke-linecap="round" orgstroke="#000000" orgfill="none" transform="translate(-452.08241697799326, -394.12313275004544) translate(160.35401969732243, 38.63952281863192) translate(-14.668914026652828, 0.0) translate(-12.605932696325453, 183.68644786074248) translate(972,283) translate(-478.1112626953125, -9.244252822875978) translate(-8.469233402975306, -4.839561944557374) translate(59.0, -37.0) translate(572.0, -62.0) translate(10.0, 10.00006103515625)" fill="none" d="M367.2770080566406 396.5880126953125L357.3580017089844 390.8590087890625" stroke="#000000" stroke-width="0.25" g2gstroke="#312783" stroke-miterlimit="10"/>
<path stroke-linecap="round" orgstroke="#000000" orgfill="none" transform="translate(-452.08241697799326, -394.12313275004544) translate(160.35401969732243, 38.63952281863192) translate(-14.668914026652828, 0.0) translate(-12.605932696325453, 183.68644786074248) translate(972,283) translate(-478.1112626953125, -9.244252822875978) translate(-8.469233402975306, -4.839561944557374) translate(59.0, -37.0) translate(572.0, -62.0) translate(10.0, 10.00006103515625)" fill="none" d="M352.9049987792969 388.65399169921875L350.7380065917969 387.3999938964844" stroke="#000000" stroke-width="0.25" g2gstroke="#312783" stroke-miterlimit="10"/>
<path stroke-linecap="round" orgstroke="#000000" orgfill="none" transform="translate(-452.08241697799326, -394.12313275004544) translate(160.35401969732243, 38.63952281863192) translate(-14.668914026652828, 0.0) translate(-12.605932696325453, 183.68644786074248) translate(972,283) translate(-478.1112626953125, -9.244252822875978) translate(-8.469233402975306, -4.839561944557374) translate(59.0, -37.0) translate(572.0, -62.0) translate(10.0, 10.00006103515625)" fill="none" d="M465.0409851074219 320.9389953613281L462.87298583984375 319.68798828125" stroke="#000000" stroke-width="0.25" g2gstroke="#312783" stroke-miterlimit="10"/>
<path stroke-linecap="round" orgstroke="#000000" orgfill="none" transform="translate(-452.08241697799326, -394.12313275004544) translate(160.35401969732243, 38.63952281863192) translate(-14.668914026652828, 0.0) translate(-12.605932696325453, 183.68644786074248) translate(972,283) translate(-478.1112626953125, -9.244252822875978) translate(-8.469233402975306, -4.839561944557374) translate(59.0, -37.0) translate(572.0, -62.0) translate(10.0, 10.00006103515625)" fill="none" d="M473.91,326.863   l-2.637-1.523c-0.285-0.172-0.641-0.127-0.984,0.072l-2.713,1.566c-0.314,0.178-0.568,0.813-0.568,1.1v14.088   c0,0.279,0.174,0.664,0.518,0.861l1.107,0.635" stroke="#000000" stroke-width="0.25" g2gstroke="#312783" stroke-miterlimit="10"/>
<path stroke-linecap="round" orgstroke="#000000" orgfill="none" transform="translate(-452.08241697799326, -394.12313275004544) translate(160.35401969732243, 38.63952281863192) translate(-14.668914026652828, 0.0) translate(-12.605932696325453, 183.68644786074248) translate(972,283) translate(-478.1112626953125, -9.244252822875978) translate(-8.469233402975306, -4.839561944557374) translate(59.0, -37.0) translate(572.0, -62.0) translate(10.0, 10.00006103515625)" fill="none" d="M478.4159851074219 333.61700439453125L467.37701416015625 327.2380065917969" stroke="#000000" stroke-width="0.25" g2gstroke="#312783" stroke-miterlimit="10"/>
<path stroke-linecap="round" orgstroke="#000000" orgfill="none" transform="translate(-452.08241697799326, -394.12313275004544) translate(160.35401969732243, 38.63952281863192) translate(-14.668914026652828, 0.0) translate(-12.605932696325453, 183.68644786074248) translate(972,283) translate(-478.1112626953125, -9.244252822875978) translate(-8.469233402975306, -4.839561944557374) translate(59.0, -37.0) translate(572.0, -62.0) translate(10.0, 10.00006103515625)" fill="none" d="M358.763,407.086V392.49   c0-0.279,0.253-0.916,0.562-1.1l3.281-1.896" stroke="#000000" stroke-width="0.25" g2gstroke="#312783" stroke-miterlimit="10"/>
<path stroke-linecap="round" orgstroke="#000000" orgfill="none" transform="translate(-452.08241697799326, -394.12313275004544) translate(160.35401969732243, 38.63952281863192) translate(-14.668914026652828, 0.0) translate(-12.605932696325453, 183.68644786074248) translate(972,283) translate(-478.1112626953125, -9.244252822875978) translate(-8.469233402975306, -4.839561944557374) translate(59.0, -37.0) translate(572.0, -62.0) translate(10.0, 10.00006103515625)" fill="none" d="M360.371,408.014   v-14.557c0-0.283,0.253-0.916,0.563-1.1l3.282-1.896" stroke="#000000" stroke-width="0.25" g2gstroke="#312783" stroke-miterlimit="10"/>
<path stroke-linecap="round" orgstroke="#000000" orgfill="none" transform="translate(-452.08241697799326, -394.12313275004544) translate(160.35401969732243, 38.63952281863192) translate(-14.668914026652828, 0.0) translate(-12.605932696325453, 183.68644786074248) translate(972,283) translate(-478.1112626953125, -9.244252822875978) translate(-8.469233402975306, -4.839561944557374) translate(59.0, -37.0) translate(572.0, -62.0) translate(10.0, 10.00006103515625)" fill="none" d="M361.978,408.938   v-14.512c0-0.277,0.251-0.914,0.563-1.1l3.285-1.895" stroke="#000000" stroke-width="0.25" g2gstroke="#312783" stroke-miterlimit="10"/>
<path stroke-linecap="round" orgstroke="#000000" orgfill="none" transform="translate(-452.08241697799326, -394.12313275004544) translate(160.35401969732243, 38.63952281863192) translate(-14.668914026652828, 0.0) translate(-12.605932696325453, 183.68644786074248) translate(972,283) translate(-478.1112626953125, -9.244252822875978) translate(-8.469233402975306, -4.839561944557374) translate(59.0, -37.0) translate(572.0, -62.0) translate(10.0, 10.00006103515625)" fill="none" d="M363.581,397.721v-2.324   c0-0.281,0.254-0.916,0.563-1.102l3.28-1.895" stroke="#000000" stroke-width="0.25" g2gstroke="#312783" stroke-miterlimit="10"/>
<path stroke-linecap="round" orgstroke="#000000" orgfill="none" transform="translate(-452.08241697799326, -394.12313275004544) translate(160.35401969732243, 38.63952281863192) translate(-14.668914026652828, 0.0) translate(-12.605932696325453, 183.68644786074248) translate(972,283) translate(-478.1112626953125, -9.244252822875978) translate(-8.469233402975306, -4.839561944557374) translate(59.0, -37.0) translate(572.0, -62.0) translate(10.0, 10.00006103515625)" fill="none" d="M365.334,397.188v-0.92   c0-0.279,0.253-0.916,0.564-1.102l3.284-1.895" stroke="#000000" stroke-width="0.25" g2gstroke="#312783" stroke-miterlimit="10"/>
<path stroke-linecap="round" orgstroke="#000000" orgfill="none" transform="translate(-452.08241697799326, -394.12313275004544) translate(160.35401969732243, 38.63952281863192) translate(-14.668914026652828, 0.0) translate(-12.605932696325453, 183.68644786074248) translate(972,283) translate(-478.1112626953125, -9.244252822875978) translate(-8.469233402975306, -4.839561944557374) translate(59.0, -37.0) translate(572.0, -62.0) translate(10.0, 10.00006103515625)" fill="none" d="M367.097,396.639   c0.105-0.223,0.245-0.438,0.409-0.533l3.28-1.893" stroke="#000000" stroke-width="0.25" g2gstroke="#312783" stroke-miterlimit="10"/>
<path stroke-linecap="round" orgstroke="#000000" orgfill="none" transform="translate(-452.08241697799326, -394.12313275004544) translate(160.35401969732243, 38.63952281863192) translate(-14.668914026652828, 0.0) translate(-12.605932696325453, 183.68644786074248) translate(972,283) translate(-478.1112626953125, -9.244252822875978) translate(-8.469233402975306, -4.839561944557374) translate(59.0, -37.0) translate(572.0, -62.0) translate(10.0, 10.00006103515625)" fill="none" d="M352.817,410.771   v-21.254c0-0.516,0.057-1.025,0.688-1.395l6.197-3.576c0.648-0.373,0.729-0.789,0.729-1.393v-1.268   c0-0.564,0.198-0.961,0.523-1.152l1.703-0.984" stroke="#000000" stroke-width="0.25" g2gstroke="#312783" stroke-miterlimit="10"/>
<path stroke-linecap="round" orgstroke="#000000" orgfill="none" transform="translate(-452.08241697799326, -394.12313275004544) translate(160.35401969732243, 38.63952281863192) translate(-14.668914026652828, 0.0) translate(-12.605932696325453, 183.68644786074248) translate(972,283) translate(-478.1112626953125, -9.244252822875978) translate(-8.469233402975306, -4.839561944557374) translate(59.0, -37.0) translate(572.0, -62.0) translate(10.0, 10.00006103515625)" fill="none" d="M464.902,346.016v-24.41   c0-0.547,0.209-1.006,0.736-1.311l1.33-0.762c0.412-0.236,0.619,0.076,0.619,0.375v1.348c0,0.467,0.398,0.787,0.893,0.502   l5.268-3.035" stroke="#000000" stroke-width="0.25" g2gstroke="#312783" stroke-miterlimit="10"/>
<path stroke-linecap="round" orgstroke="#000000" orgfill="none" transform="translate(-452.08241697799326, -394.12313275004544) translate(160.35401969732243, 38.63952281863192) translate(-14.668914026652828, 0.0) translate(-12.605932696325453, 183.68644786074248) translate(972,283) translate(-478.1112626953125, -9.244252822875978) translate(-8.469233402975306, -4.839561944557374) translate(59.0, -37.0) translate(572.0, -62.0) translate(10.0, 10.00006103515625)" fill="none" d="M468.701,343.492   c-0.059-0.123-0.08-0.252-0.08-0.369v-14.078c0-0.283,0.25-0.918,0.564-1.1l3.285-1.896" stroke="#000000" stroke-width="0.25" g2gstroke="#312783" stroke-miterlimit="10"/>
<path stroke-linecap="round" orgstroke="#000000" orgfill="none" transform="translate(-452.08241697799326, -394.12313275004544) translate(160.35401969732243, 38.63952281863192) translate(-14.668914026652828, 0.0) translate(-12.605932696325453, 183.68644786074248) translate(972,283) translate(-478.1112626953125, -9.244252822875978) translate(-8.469233402975306, -4.839561944557374) translate(59.0, -37.0) translate(572.0, -62.0) translate(10.0, 10.00006103515625)" fill="none" d="M470.223,342.148   v-12.125c0-0.285,0.254-0.916,0.563-1.102l3.283-1.893" stroke="#000000" stroke-width="0.25" g2gstroke="#312783" stroke-miterlimit="10"/>
<path stroke-linecap="round" orgstroke="#000000" orgfill="none" transform="translate(-452.08241697799326, -394.12313275004544) translate(160.35401969732243, 38.63952281863192) translate(-14.668914026652828, 0.0) translate(-12.605932696325453, 183.68644786074248) translate(972,283) translate(-478.1112626953125, -9.244252822875978) translate(-8.469233402975306, -4.839561944557374) translate(59.0, -37.0) translate(572.0, -62.0) translate(10.0, 10.00006103515625)" fill="none" d="M471.832,340.582v-9.59   c0-0.283,0.25-0.916,0.564-1.107l3.283-1.893" stroke="#000000" stroke-width="0.25" g2gstroke="#312783" stroke-miterlimit="10"/>
<path stroke-linecap="round" orgstroke="#000000" orgfill="none" transform="translate(-452.08241697799326, -394.12313275004544) translate(160.35401969732243, 38.63952281863192) translate(-14.668914026652828, 0.0) translate(-12.605932696325453, 183.68644786074248) translate(972,283) translate(-478.1112626953125, -9.244252822875978) translate(-8.469233402975306, -4.839561944557374) translate(59.0, -37.0) translate(572.0, -62.0) translate(10.0, 10.00006103515625)" fill="none" d="M473.436,338.973v-7.006   c0-0.281,0.254-0.918,0.566-1.104l3.285-1.893" stroke="#000000" stroke-width="0.25" g2gstroke="#312783" stroke-miterlimit="10"/>
<path stroke-linecap="round" orgstroke="#000000" orgfill="none" transform="translate(-452.08241697799326, -394.12313275004544) translate(160.35401969732243, 38.63952281863192) translate(-14.668914026652828, 0.0) translate(-12.605932696325453, 183.68644786074248) translate(972,283) translate(-478.1112626953125, -9.244252822875978) translate(-8.469233402975306, -4.839561944557374) translate(59.0, -37.0) translate(572.0, -62.0) translate(10.0, 10.00006103515625)" fill="none" d="M475.189,337.172v-4.344   c0-0.289,0.25-0.92,0.564-1.105l3.281-1.893" stroke="#000000" stroke-width="0.25" g2gstroke="#312783" stroke-miterlimit="10"/>
<path stroke-linecap="round" orgstroke="#000000" orgfill="none" transform="translate(-452.08241697799326, -394.12313275004544) translate(160.35401969732243, 38.63952281863192) translate(-14.668914026652828, 0.0) translate(-12.605932696325453, 183.68644786074248) translate(972,283) translate(-478.1112626953125, -9.244252822875978) translate(-8.469233402975306, -4.839561944557374) translate(59.0, -37.0) translate(572.0, -62.0) translate(10.0, 10.00006103515625)" fill="none" d="M476.795,335.479v-1.707   c0-0.285,0.254-0.92,0.563-1.102l3.285-1.896" stroke="#000000" stroke-width="0.25" g2gstroke="#312783" stroke-miterlimit="10"/>
<path stroke-linecap="round" orgstroke="#000000" orgfill="none" transform="translate(-452.08241697799326, -394.12313275004544) translate(160.35401969732243, 38.63952281863192) translate(-14.668914026652828, 0.0) translate(-12.605932696325453, 183.68644786074248) translate(972,283) translate(-478.1112626953125, -9.244252822875978) translate(-8.469233402975306, -4.839561944557374) translate(59.0, -37.0) translate(572.0, -62.0) translate(10.0, 10.00006103515625)" fill="none" d="M380.836,401.088   c-0.599,1.611-2.275,3.121-3.746,3.373c-1.468,0.246-2.179-0.861-1.577-2.471c0.6-1.613,2.276-3.123,3.745-3.375   C380.729,398.363,381.433,399.471,380.836,401.088z" stroke="#000000" stroke-width="0.25" g2gstroke="#312783" stroke-miterlimit="10"/>
<path stroke-linecap="round" orgstroke="#000000" orgfill="none" transform="translate(-452.08241697799326, -394.12313275004544) translate(160.35401969732243, 38.63952281863192) translate(-14.668914026652828, 0.0) translate(-12.605932696325453, 183.68644786074248) translate(972,283) translate(-478.1112626953125, -9.244252822875978) translate(-8.469233402975306, -4.839561944557374) translate(59.0, -37.0) translate(572.0, -62.0) translate(10.0, 10.00006103515625)" fill="none" d="M385.011,408.02   c-0.316,0.84-1.185,1.629-1.948,1.756c-0.761,0.127-1.134-0.447-0.816-1.289c0.313-0.838,1.184-1.625,1.943-1.752   C384.956,406.605,385.322,407.18,385.011,408.02z" stroke="#000000" stroke-width="0.25" g2gstroke="#312783" stroke-miterlimit="10"/>
<path stroke-linecap="round" orgstroke="#000000" orgfill="none" transform="translate(-452.08241697799326, -394.12313275004544) translate(160.35401969732243, 38.63952281863192) translate(-14.668914026652828, 0.0) translate(-12.605932696325453, 183.68644786074248) translate(972,283) translate(-478.1112626953125, -9.244252822875978) translate(-8.469233402975306, -4.839561944557374) translate(59.0, -37.0) translate(572.0, -62.0) translate(10.0, 10.00006103515625)" fill="none" d="M480.646,350.912   c0.023,0.895-0.486,1.955-1.146,2.365c-0.66,0.412-1.217,0.018-1.242-0.883c-0.025-0.902,0.482-1.953,1.145-2.359   C480.064,349.627,480.617,350.02,480.646,350.912z" stroke="#000000" stroke-width="0.25" g2gstroke="#312783" stroke-miterlimit="10"/>
<path stroke-linecap="round" orgstroke="#000000" orgfill="none" transform="translate(-452.08241697799326, -394.12313275004544) translate(160.35401969732243, 38.63952281863192) translate(-14.668914026652828, 0.0) translate(-12.605932696325453, 183.68644786074248) translate(972,283) translate(-478.1112626953125, -9.244252822875978) translate(-8.469233402975306, -4.839561944557374) translate(59.0, -37.0) translate(572.0, -62.0) translate(10.0, 10.00006103515625)" fill="none" d="M380.059,398.625   c0.167,0.43,0.135,1.01-0.112,1.686c-0.599,1.613-2.276,3.121-3.745,3.369c-0.298,0.057-0.566,0.045-0.797-0.008" stroke="#000000" stroke-width="0.25" g2gstroke="#312783" stroke-miterlimit="10"/>
<path stroke-linecap="round" orgstroke="#000000" orgfill="none" transform="translate(-452.08241697799326, -394.12313275004544) translate(160.35401969732243, 38.63952281863192) translate(-14.668914026652828, 0.0) translate(-12.605932696325453, 183.68644786074248) translate(972,283) translate(-478.1112626953125, -9.244252822875978) translate(-8.469233402975306, -4.839561944557374) translate(59.0, -37.0) translate(572.0, -62.0) translate(10.0, 10.00006103515625)" fill="none" d="M396.067,393.033   c-0.163,1.164-1.063,2.426-2.01,2.803c-0.949,0.383-1.581-0.254-1.415-1.416c0.17-1.17,1.063-2.426,2.009-2.809   C395.598,391.229,396.232,391.861,396.067,393.033z" stroke="#000000" stroke-width="0.25" g2gstroke="#312783" stroke-miterlimit="10"/>
<path stroke-linecap="round" orgstroke="#000000" orgfill="none" transform="translate(-452.08241697799326, -394.12313275004544) translate(160.35401969732243, 38.63952281863192) translate(-14.668914026652828, 0.0) translate(-12.605932696325453, 183.68644786074248) translate(972,283) translate(-478.1112626953125, -9.244252822875978) translate(-8.469233402975306, -4.839561944557374) translate(59.0, -37.0) translate(572.0, -62.0) translate(10.0, 10.00006103515625)" fill="none" d="M451.684,374.971   c-0.16,1.166-1.059,2.43-2.01,2.809c-0.945,0.377-1.582-0.252-1.414-1.422c0.166-1.164,1.063-2.428,2.01-2.805   C451.217,373.174,451.85,373.807,451.684,374.971z" stroke="#000000" stroke-width="0.25" g2gstroke="#312783" stroke-miterlimit="10"/>
<path stroke-linecap="round" orgstroke="#000000" orgfill="none" transform="translate(-452.08241697799326, -394.12313275004544) translate(160.35401969732243, 38.63952281863192) translate(-14.668914026652828, 0.0) translate(-12.605932696325453, 183.68644786074248) translate(972,283) translate(-478.1112626953125, -9.244252822875978) translate(-8.469233402975306, -4.839561944557374) translate(59.0, -37.0) translate(572.0, -62.0) translate(10.0, 10.00006103515625)" fill="none" d="M427.918,388.578   c-0.166,1.168-1.061,2.43-2.008,2.807c-0.947,0.387-1.582-0.25-1.418-1.418c0.166-1.168,1.063-2.424,2.014-2.809   C427.447,386.777,428.08,387.414,427.918,388.578z" stroke="#000000" stroke-width="0.25" g2gstroke="#312783" stroke-miterlimit="10"/>
<path stroke-linecap="round" orgstroke="#000000" orgfill="none" transform="translate(-452.08241697799326, -394.12313275004544) translate(160.35401969732243, 38.63952281863192) translate(-14.668914026652828, 0.0) translate(-12.605932696325453, 183.68644786074248) translate(972,283) translate(-478.1112626953125, -9.244252822875978) translate(-8.469233402975306, -4.839561944557374) translate(59.0, -37.0) translate(572.0, -62.0) translate(10.0, 10.00006103515625)" fill="none" d="M472.148,345.906v6.797   v0.58c-0.012,0.748,0.459,1.119,1.121,0.857c0.734-0.297,1.438-1.271,1.561-2.186c0.02-0.115,0.023-0.221,0.023-0.32v-0.047v-8.279   " stroke="#000000" stroke-width="0.25" g2gstroke="#312783" stroke-miterlimit="10"/>
<path stroke-linecap="round" orgstroke="#000000" orgfill="none" transform="translate(-452.08241697799326, -394.12313275004544) translate(160.35401969732243, 38.63952281863192) translate(-14.668914026652828, 0.0) translate(-12.605932696325453, 183.68644786074248) translate(972,283) translate(-478.1112626953125, -9.244252822875978) translate(-8.469233402975306, -4.839561944557374) translate(59.0, -37.0) translate(572.0, -62.0) translate(10.0, 10.00006103515625)" fill="none" d="M480.643,337.389v6.582   v0.588c-0.01,0.746,0.461,1.115,1.121,0.852c0.736-0.299,1.438-1.273,1.561-2.188c0.021-0.113,0.027-0.223,0.025-0.32v-0.047   v-8.414" stroke="#000000" stroke-width="0.25" g2gstroke="#312783" stroke-miterlimit="10"/>
<path stroke-linecap="round" orgstroke="#000000" orgfill="none" transform="translate(-452.08241697799326, -394.12313275004544) translate(160.35401969732243, 38.63952281863192) translate(-14.668914026652828, 0.0) translate(-12.605932696325453, 183.68644786074248) translate(972,283) translate(-478.1112626953125, -9.244252822875978) translate(-8.469233402975306, -4.839561944557374) translate(59.0, -37.0) translate(572.0, -62.0) translate(10.0, 10.00006103515625)" fill="none" d="M472.14801025390625 353.468994140625L472.14801025390625 353.0840148925781" stroke="#000000" stroke-width="0.25" g2gstroke="#312783" stroke-miterlimit="10"/>
</g>
</g>
</g>
</g>
</g>
</g></svg>