<svg xmlns="http://www.w3.org/2000/svg" xmlns:xlink="http://www.w3.org/1999/xlink" xmlns:x="http://ns.adobe.com/Extensibility/1.0/" xmlns:graph="http://ns.adobe.com/Graphs/1.0/" xmlns:i="http://ns.adobe.com/AdobeIllustrator/10.0/" xmlns:etg="http://www.eurotaxglass.com/etg/evd/" etg:dataTimestamp="1539068912893" contentScriptType="text/ecmascript" zoomAndPan="magnify" contentStyleType="text/css" id="Layer_1" enable-background="new 0 0 1841.891 1595.279" version="1.1" xml:space="preserve" width="1841.891px" preserveAspectRatio="xMidYMid meet" viewBox="0 0 1841.891 1595.279" height="1595.279px" x="0px" y="0px"><g xmlns="http://www.w3.org/2000/svg" objecttype="PS" tooltip="#UNDEFINED" id="199">
<g onmouseover="notifyOwner(AGV_OBJECT_MOUSEOVER, '199(PS)')" transform="translate(-9.433746356535266E-6, 3.356933575560106E-7) translate(-35.71980609130861, -13.200809143066408) translate(44.708733184814434, 94.79042849731445) matrix(0.6117410612267968 0 0 0.6117410612267968 0.2921243287958965 0.477310974878083) translate(-92,-34) " onclick="clickZoom(evt); notifyOwner(AGV_OBJECT_MOUSECLICK, '199(PS)')" onmouseout="notifyOwner(AGV_OBJECT_MOUSEOUT, '199(PS)')" tooltip="#UNDEFINED" id="199-Graphic" objecttype="GRAPHIC">
<g zvalue="200">
<g zvalue="50">
<g zvalue="38">
<g>
<path orgstroke="#000000" orgfill="#ffffff" transform="translate(-452.08241697799326, -394.12313275004544) translate(160.35401969732243, 38.63952281863192) translate(-0.5526333407535731, 0.0) translate(-16.579000222607647, -19.894800267129085) translate(-12.605932696325453, 183.68644786074248) translate(972,283) translate(-478.1112626953125, -9.244252822875978) translate(59.0, -37.0) translate(572.0, -62.0) translate(10.0, 10.00006103515625)" fill="#ffffff" g2gfill="#ECC35D" d="M525.314,426.467   c-18.115,18.797-42.494,33.236-60.535,43.65c-0.811,0.469-1.633,0.938-2.465,1.408c-0.287,0.162-0.393,0.189-0.951-0.227   c-1.061-0.793-1.291-0.891-1.807-1.184c-0.938-0.531-1.5-0.469-1.975-0.191c-0.268,0.156-0.395,0.422-0.426,0.719   c0,0,0.006,0.957,0.006,1.164c0,0.246,0.002,0.512,0.082,0.756c0.074,0.227,0.164,0.584,0.359,0.922   c0.338,0.584,0.404,0.439-0.234,0.785c-22.824,12.391-51.013,24.768-68.489,30.158c-0.367,0.113-0.329,0.191-0.672-0.199   c-0.304-0.346-0.643-0.852-0.967-1.232c-0.61-0.717-1.273-0.93-2.043-0.664c-0.635,0.219-1.022,0.783-1.022,1.254   s-0.018,0.906-0.018,1.287c0,0.152,0.031,0.477,0.031,0.615c0,0.281,0.056,0.291-0.416,0.42c-1.503,0.41-3.028,0.814-4.576,1.201   c-7.908,1.941-13.939,10.566-16.564,13.691c-0.218,0.26-0.429,0.5-0.634,0.723l-0.122,0.133c-1.546,1.256-4.358,2.58-5.24,2.984   c-0.211,0.096-0.273,0.225-0.273,0.381v0.25c0,0.203,0.019,0.283,0.287,0.23c5.445-1.049,11.914-2.574,19.975-4.826   c1.15-0.35,1.633-1.176,2.125-2.219c0.287-0.609,1.082-2.863,1.5-3.781c0.625-1.369,1.484-1.643,2.209-1.877   c4.73-1.531,9.539-3.246,14.426-5.039c0.196-0.07,0.427-0.119,0.667-0.107c0.253,0.012,0.385,0.057,0.513,0.236   c0.47,0.664,1.196,1.795,1.49,2.303c0.18,0.313,0.422,0.594,0.709,0.734c0.41,0.236,0.978,0.506,1.324,0.621   c0.163,0.053,0.347,0.033,0.537-0.039c52.404-20.477,111.437-52.02,134.486-84.484c1.158-1.629,2.328-3.932,3.342-6.545   c0.076-0.195,0.102-0.271-0.148-0.414l-0.508-0.285c-0.254-0.146-0.254-0.141-0.49-0.211c-0.701-0.211-2.668-0.793-3.684-0.996   c-0.166-0.033-0.328-0.078-0.494-0.096c-0.271-0.029-0.332-0.051-0.363,0.242c-0.039,0.369-0.123,1.119-0.186,1.551   c-0.098,0.693-0.215,1.104-0.479,1.438c-0.49,0.623-1.047,1.215-1.855,2.064c-0.234,0.248-0.264,0.086-0.264-0.168   c0-0.746,0.055-1.611,0.055-2.066c0-0.318-0.049-0.348-0.234-0.455l-0.527-0.301c-0.221-0.125-0.303-0.023-0.414,0.109   c-0.336,0.396-0.674,0.791-1.016,1.186c-0.203,0.234-0.332,0.242-0.645,0.063c0,0-1.127-0.563-2.068-0.928   c-1.313-0.508-2.15,0.223-2.256,1.02l-0.01,0.166c0,0,0,0.775,0,1.018c0,0.219,0.018,0.441,0.119,0.65   c0.146,0.297,0.533,1.041,0.904,1.684C525.586,426.086,525.521,426.252,525.314,426.467z" stroke="#000000" outline-element="true" stroke-width="0.5" g2gstroke="#312783" stroke-miterlimit="10"/>
<path stroke-linecap="round" orgstroke="#000000" orgfill="none" transform="translate(-452.08241697799326, -394.12313275004544) translate(160.35401969732243, 38.63952281863192) translate(-0.5526333407535731, 0.0) translate(-16.579000222607647, -19.894800267129085) translate(-12.605932696325453, 183.68644786074248) translate(972,283) translate(-478.1112626953125, -9.244252822875978) translate(59.0, -37.0) translate(572.0, -62.0) translate(10.0, 10.00006103515625)" fill="none" stroke-linejoin="round" d="   M462.314,471.525c-1.354,0.764-3.178,1.779-4.576,2.543" stroke="#000000" stroke-width="0.25" g2gstroke="#312783" stroke-miterlimit="10"/>
<path stroke-linecap="round" orgstroke="#000000" orgfill="none" transform="translate(-452.08241697799326, -394.12313275004544) translate(160.35401969732243, 38.63952281863192) translate(-0.5526333407535731, 0.0) translate(-16.579000222607647, -19.894800267129085) translate(-12.605932696325453, 183.68644786074248) translate(972,283) translate(-478.1112626953125, -9.244252822875978) translate(59.0, -37.0) translate(572.0, -62.0) translate(10.0, 10.00006103515625)" fill="none" stroke-linejoin="round" d="   M388.583,504.52c-0.453,0.139-0.898,0.271-1.336,0.4c-1.074,0.316-2.161,0.627-3.264,0.93" stroke="#000000" stroke-width="0.25" g2gstroke="#312783" stroke-miterlimit="10"/>
<path stroke-linecap="round" orgstroke="#000000" orgfill="none" transform="translate(-452.08241697799326, -394.12313275004544) translate(160.35401969732243, 38.63952281863192) translate(-0.5526333407535731, 0.0) translate(-16.579000222607647, -19.894800267129085) translate(-12.605932696325453, 183.68644786074248) translate(972,283) translate(-478.1112626953125, -9.244252822875978) translate(59.0, -37.0) translate(572.0, -62.0) translate(10.0, 10.00006103515625)" fill="none" stroke-linejoin="round" d="   M357.573,525.324c1.707-0.344,3.428-0.836,6.053-3.961s8.656-11.75,16.564-13.691c2.756-0.689,5.445-1.424,8.049-2.189   c19.191-5.633,53.064-20.674,77.533-34.803c19.928-11.504,47.303-27.506,65.678-49.344" stroke="#000000" stroke-width="0.25" g2gstroke="#312783" stroke-miterlimit="10"/>
<path stroke-linecap="round" orgstroke="#000000" orgfill="none" transform="translate(-452.08241697799326, -394.12313275004544) translate(160.35401969732243, 38.63952281863192) translate(-0.5526333407535731, 0.0) translate(-16.579000222607647, -19.894800267129085) translate(-12.605932696325453, 183.68644786074248) translate(972,283) translate(-478.1112626953125, -9.244252822875978) translate(59.0, -37.0) translate(572.0, -62.0) translate(10.0, 10.00006103515625)" fill="none" stroke-linejoin="round" d="   M399.792,506.709c19.484-7.088,46.212-19.422,66.486-31.127c20.039-11.572,53.225-32.195,70.381-54.926" stroke="#000000" stroke-width="0.25" g2gstroke="#312783" stroke-miterlimit="10"/>
<path stroke-linecap="round" orgstroke="#000000" orgfill="none" transform="translate(-452.08241697799326, -394.12313275004544) translate(160.35401969732243, 38.63952281863192) translate(-0.5526333407535731, 0.0) translate(-16.579000222607647, -19.894800267129085) translate(-12.605932696325453, 183.68644786074248) translate(972,283) translate(-478.1112626953125, -9.244252822875978) translate(59.0, -37.0) translate(572.0, -62.0) translate(10.0, 10.00006103515625)" fill="none" stroke-linejoin="round" d="   M535.281,419.064c0,0-0.125,1.18-0.209,1.768c-0.098,0.693-0.215,1.104-0.479,1.438c-0.49,0.623-1.049,1.213-1.855,2.064   c-0.691,0.73-1.271,0.828-1.266-0.174c0-0.096,0.002-0.197,0.002-0.303" stroke="#000000" stroke-width="0.25" g2gstroke="#312783" stroke-miterlimit="10"/>
<path stroke-linecap="round" orgstroke="#000000" orgfill="none" transform="translate(-452.08241697799326, -394.12313275004544) translate(160.35401969732243, 38.63952281863192) translate(-0.5526333407535731, 0.0) translate(-16.579000222607647, -19.894800267129085) translate(-12.605932696325453, 183.68644786074248) translate(972,283) translate(-478.1112626953125, -9.244252822875978) translate(59.0, -37.0) translate(572.0, -62.0) translate(10.0, 10.00006103515625)" fill="none" stroke-linejoin="round" d="   M356.581,524.762c1.565-0.314,3.143-0.756,5.419-3.238" stroke="#000000" stroke-width="0.25" g2gstroke="#312783" stroke-miterlimit="10"/>
<path stroke-linecap="round" orgstroke="#000000" orgfill="none" transform="translate(-452.08241697799326, -394.12313275004544) translate(160.35401969732243, 38.63952281863192) translate(-0.5526333407535731, 0.0) translate(-16.579000222607647, -19.894800267129085) translate(-12.605932696325453, 183.68644786074248) translate(972,283) translate(-478.1112626953125, -9.244252822875978) translate(59.0, -37.0) translate(572.0, -62.0) translate(10.0, 10.00006103515625)" fill="none" stroke-linejoin="round" d="   M534.428,418.5l0.67,0.379c0.137,0.078,0.277,0.117,0.461,0.15c0.184,0.031,0.369,0.068,0.557,0.105   c1.078,0.215,3.223,0.857,3.795,1.029" stroke="#000000" stroke-width="0.25" g2gstroke="#312783" stroke-miterlimit="10"/>
<path stroke-linecap="round" orgstroke="#000000" orgfill="none" transform="translate(-452.08241697799326, -394.12313275004544) translate(160.35401969732243, 38.63952281863192) translate(-0.5526333407535731, 0.0) translate(-16.579000222607647, -19.894800267129085) translate(-12.605932696325453, 183.68644786074248) translate(972,283) translate(-478.1112626953125, -9.244252822875978) translate(59.0, -37.0) translate(572.0, -62.0) translate(10.0, 10.00006103515625)" fill="none" stroke-linejoin="round" d="   M397.805,507.664c0.502,0.051,1.005,0.258,1.289,0.637c0.469,0.625,1.277,1.895,1.594,2.443c0.219,0.379,0.527,0.711,0.9,0.803" stroke="#000000" stroke-width="0.25" g2gstroke="#312783" stroke-miterlimit="10"/>
<path stroke-linecap="round" orgstroke="#000000" orgfill="none" transform="translate(-452.08241697799326, -394.12313275004544) translate(160.35401969732243, 38.63952281863192) translate(-0.5526333407535731, 0.0) translate(-16.579000222607647, -19.894800267129085) translate(-12.605932696325453, 183.68644786074248) translate(972,283) translate(-478.1112626953125, -9.244252822875978) translate(59.0, -37.0) translate(572.0, -62.0) translate(10.0, 10.00006103515625)" fill="none" stroke-linejoin="round" d="   M384.686,505.66c0,0-0.304-1.396-0.409-2.033c-0.019-0.113-0.023-0.227-0.015-0.34" stroke="#000000" stroke-width="0.25" g2gstroke="#312783" stroke-miterlimit="10"/>
<path orgstroke="#000000" orgfill="none" transform="translate(-452.08241697799326, -394.12313275004544) translate(160.35401969732243, 38.63952281863192) translate(-0.5526333407535731, 0.0) translate(-16.579000222607647, -19.894800267129085) translate(-12.605932696325453, 183.68644786074248) translate(972,283) translate(-478.1112626953125, -9.244252822875978) translate(59.0, -37.0) translate(572.0, -62.0) translate(10.0, 10.00006103515625)" fill="none" d="M385.386,503.096   c0.328-0.145,0.796-0.111,1.046,0.072s0.188,0.449-0.141,0.592c-0.328,0.145-0.796,0.113-1.047-0.072   C384.996,503.506,385.058,503.24,385.386,503.096z" stroke="#000000" stroke-width="0.25" g2gstroke="#312783" stroke-miterlimit="10"/>
<path orgstroke="#000000" orgfill="none" transform="translate(-452.08241697799326, -394.12313275004544) translate(160.35401969732243, 38.63952281863192) translate(-0.5526333407535731, 0.0) translate(-16.579000222607647, -19.894800267129085) translate(-12.605932696325453, 183.68644786074248) translate(972,283) translate(-478.1112626953125, -9.244252822875978) translate(59.0, -37.0) translate(572.0, -62.0) translate(10.0, 10.00006103515625)" fill="none" d="M458.229,470.596   c0.328-0.145,0.795-0.111,1.045,0.07c0.25,0.184,0.188,0.451-0.141,0.594c-0.328,0.145-0.795,0.113-1.047-0.072   C457.838,471.004,457.9,470.738,458.229,470.596z" stroke="#000000" stroke-width="0.25" g2gstroke="#312783" stroke-miterlimit="10"/>
<path orgstroke="#000000" orgfill="none" transform="translate(-452.08241697799326, -394.12313275004544) translate(160.35401969732243, 38.63952281863192) translate(-0.5526333407535731, 0.0) translate(-16.579000222607647, -19.894800267129085) translate(-12.605932696325453, 183.68644786074248) translate(972,283) translate(-478.1112626953125, -9.244252822875978) translate(59.0, -37.0) translate(572.0, -62.0) translate(10.0, 10.00006103515625)" fill="none" d="M458.371,473.721c0,0-0.887-1.637-1.127-2.371   c-0.076-0.229-0.111-0.477-0.088-0.707" stroke="#000000" stroke-width="0.25" g2gstroke="#312783" stroke-miterlimit="10"/>
<path orgstroke="#000000" orgfill="none" transform="translate(-452.08241697799326, -394.12313275004544) translate(160.35401969732243, 38.63952281863192) translate(-0.5526333407535731, 0.0) translate(-16.579000222607647, -19.894800267129085) translate(-12.605932696325453, 183.68644786074248) translate(972,283) translate(-478.1112626953125, -9.244252822875978) translate(59.0, -37.0) translate(572.0, -62.0) translate(10.0, 10.00006103515625)" fill="none" d="M525.467,426.307   c1.357-1.416,2.68-2.857,3.961-4.324" stroke="#000000" stroke-width="0.25" g2gstroke="#312783" stroke-miterlimit="10"/>
<path orgstroke="#000000" orgfill="none" transform="translate(-452.08241697799326, -394.12313275004544) translate(160.35401969732243, 38.63952281863192) translate(-0.5526333407535731, 0.0) translate(-16.579000222607647, -19.894800267129085) translate(-12.605932696325453, 183.68644786074248) translate(972,283) translate(-478.1112626953125, -9.244252822875978) translate(59.0, -37.0) translate(572.0, -62.0) translate(10.0, 10.00006103515625)" fill="none" d="M526.041,425.787c0,0-1.268-2.271-1.555-2.855   c-0.107-0.219-0.141-0.463-0.109-0.701" stroke="#000000" stroke-width="0.25" g2gstroke="#312783" stroke-miterlimit="10"/>
<path orgstroke="#000000" orgfill="none" transform="translate(-452.08241697799326, -394.12313275004544) translate(160.35401969732243, 38.63952281863192) translate(-0.5526333407535731, 0.0) translate(-16.579000222607647, -19.894800267129085) translate(-12.605932696325453, 183.68644786074248) translate(972,283) translate(-478.1112626953125, -9.244252822875978) translate(59.0, -37.0) translate(572.0, -62.0) translate(10.0, 10.00006103515625)" fill="none" d="M525.498,421.873   c0.328-0.145,0.795-0.111,1.045,0.07c0.25,0.184,0.188,0.451-0.141,0.594c-0.328,0.145-0.795,0.113-1.047-0.072   C525.107,422.281,525.17,422.016,525.498,421.873z" stroke="#000000" stroke-width="0.25" g2gstroke="#312783" stroke-miterlimit="10"/>
</g>
</g>
</g>
</g>
</g>
</g></svg>