<svg xmlns="http://www.w3.org/2000/svg" xmlns:xlink="http://www.w3.org/1999/xlink" xmlns:x="http://ns.adobe.com/Extensibility/1.0/" xmlns:graph="http://ns.adobe.com/Graphs/1.0/" xmlns:i="http://ns.adobe.com/AdobeIllustrator/10.0/" xmlns:etg="http://www.eurotaxglass.com/etg/evd/" etg:dataTimestamp="1539068912893" contentScriptType="text/ecmascript" zoomAndPan="magnify" contentStyleType="text/css" id="Layer_1" enable-background="new 0 0 1841.891 1595.279" version="1.1" xml:space="preserve" width="1841.891px" preserveAspectRatio="xMidYMid meet" viewBox="0 0 1841.891 1595.279" height="1595.279px" x="0px" y="0px"><g xmlns="http://www.w3.org/2000/svg" objecttype="PS" tooltip="#UNDEFINED" id="203">
<g onmouseover="notifyOwner(AGV_OBJECT_MOUSEOVER, '203(PS)')" transform="translate(-9.433746356535266E-6, 3.356933575560106E-7) translate(-35.71980609130861, -13.200809143066408) translate(44.708733184814434, 94.79042849731445) matrix(0.6117410612267968 0 0 0.6117410612267968 0.2921243287958965 0.477310974878083) translate(-92,-34) " onclick="clickZoom(evt); notifyOwner(AGV_OBJECT_MOUSECLICK, '203(PS)')" onmouseout="notifyOwner(AGV_OBJECT_MOUSEOUT, '203(PS)')" tooltip="#UNDEFINED" id="203-Graphic" objecttype="GRAPHIC">
<g zvalue="204">
<g zvalue="56">
<g zvalue="52">
<g>
<path stroke-linecap="round" orgstroke="#000000" orgfill="#ffffff" transform="translate(-452.08241697799326, -394.12313275004544) translate(160.35401969732243, 38.63952281863192) translate(-0.5526333407535731, 0.0) translate(-16.579000222607647, -19.894800267129085) translate(-12.605932696325453, 183.68644786074248) translate(972,283) translate(-478.1112626953125, -9.244252822875978) translate(-287.9539357011647, 68.9637577099428) translate(15.72857631981151, 37.50660507031978) translate(59.0, -37.0) translate(572.0, -62.0) translate(10.0, 10.00006103515625)" fill="#ffffff" g2gfill="#ECC35D" d="M648.244,406.453   c3.205-3.5,5.918-4.561,11.51-5.781c3.518-0.787,6.979-1.68,10.287-2.65c4.967-1.457,10.344-3.34,15.986-5.561   c0.27-0.105,0.402-0.096,0.594,0.016l1.123,0.646c0.283,0.164,0.287,0.219,0.186,0.463c-0.244,0.586-0.816,1.945-1.344,2.855   c-0.688,1.188-1.5,1.666-3.25,2.32c-4.121,1.547-8.145,2.895-11.828,3.975c-7.152,2.1-14.988,4.012-23.066,5.439   c-0.277,0.049-0.387,0.064-0.387-0.27v-0.98C648.055,406.693,648.076,406.639,648.244,406.453z" stroke="#000000" outline-element="true" stroke-width="0.5" g2gstroke="#312783" stroke-miterlimit="10"/>
<path fill="#E1321E" d="M687.949,393.273c-0.031-0.051-0.09-0.09-0.201-0.15l-0.57-0.33c-6.059,2.42-11.828,4.461-17.129,6.02   c-3.311,0.971-6.77,1.861-10.291,2.65c-5.699,1.24-8.43,2.301-11.699,5.99v0.449c0,0.15,0.02,0.23,0.07,0.26   c0.061,0.061,0.16,0.041,0.32,0.012c8.08-1.432,15.91-3.34,23.07-5.441c3.68-1.08,7.699-2.42,11.818-3.969   c1.75-0.66,2.57-1.131,3.25-2.32c0.531-0.91,1.102-2.27,1.352-2.859C687.998,393.434,688.029,393.354,687.949,393.273z" transform="translate(-452.08241697799326, -394.12313275004544) translate(160.35401969732243, 38.63952281863192) translate(-0.5526333407535731, 0.0) translate(-16.579000222607647, -19.894800267129085) translate(-12.605932696325453, 183.68644786074248) translate(972,283) translate(-478.1112626953125, -9.244252822875978) translate(-287.9539357011647, 68.9637577099428) translate(15.72857631981151, 37.50660507031978) translate(59.0, -37.0) translate(572.0, -62.0) translate(10.0, 10.00006103515625)" orgfill="#E1321E"/>
<radialGradient transform="translate(-452.08241697799326, -394.12313275004544) translate(160.35401969732243, 38.63952281863192) translate(-0.5526333407535731, 0.0) translate(-16.579000222607647, -19.894800267129085) translate(-12.605932696325453, 183.68644786074248) translate(972,283) translate(-478.1112626953125, -9.244252822875978) translate(-287.9539357011647, 68.9637577099428) translate(15.72857631981151, 37.50660507031978) translate(59.0, -37.0) translate(572.0, -62.0) translate(10.0, 10.00006103515625)" gradientTransform="matrix(0.0072 1 2.5521 -0.0184 146.3334 -273.7068)" gradientUnits="userSpaceOnUse" xmlns:xlink="http://www.w3.org/1999/xlink" xlink:type="simple" r="20.5629" cx="669.5967" xlink:actuate="onLoad" cy="203.1462" id="196::SVGID_44_" xlink:show="other">
<stop stop-opacity="0.6" stop-color="#FFFFFF" offset="0"/>
<stop stop-opacity="0.2" stop-color="#FFFFFF" offset="1"/>
</radialGradient>
<path fill="url(#196::SVGID_44_)" d="M670.041,399.588c5.521-1.629,11.551-3.77,17.891-6.32l0.01-0.01c0.08,0.08,0.051,0.16-0.01,0.311   c-0.25,0.59-0.82,1.949-1.35,2.859c-0.68,1.191-1.5,1.66-3.25,2.32c-4.121,1.551-8.141,2.891-11.82,3.971   c-7.16,2.1-14.99,4.01-23.07,5.439c-0.16,0.029-0.26,0.051-0.32-0.01c3.24-3.631,5.971-4.68,11.631-5.92   C663.271,401.449,666.732,400.559,670.041,399.588z" transform="translate(-452.08241697799326, -394.12313275004544) translate(160.35401969732243, 38.63952281863192) translate(-0.5526333407535731, 0.0) translate(-16.579000222607647, -19.894800267129085) translate(-12.605932696325453, 183.68644786074248) translate(972,283) translate(-478.1112626953125, -9.244252822875978) translate(-287.9539357011647, 68.9637577099428) translate(15.72857631981151, 37.50660507031978) translate(59.0, -37.0) translate(572.0, -62.0) translate(10.0, 10.00006103515625)" orgfill="url(#196::SVGID_44_)"/>
<path stroke-linecap="round" orgstroke="#000000" orgfill="none" transform="translate(-452.08241697799326, -394.12313275004544) translate(160.35401969732243, 38.63952281863192) translate(-0.5526333407535731, 0.0) translate(-16.579000222607647, -19.894800267129085) translate(-12.605932696325453, 183.68644786074248) translate(972,283) translate(-478.1112626953125, -9.244252822875978) translate(-287.9539357011647, 68.9637577099428) translate(15.72857631981151, 37.50660507031978) translate(59.0, -37.0) translate(572.0, -62.0) translate(10.0, 10.00006103515625)" fill="none" stroke-linejoin="round" d="   M648.121,408.166c3.236-3.629,5.971-4.684,11.633-5.918c3.518-0.787,6.979-1.68,10.287-2.65c5.523-1.621,11.553-3.768,17.895-6.318   " stroke="#000000" stroke-width="0.25" g2gstroke="#312783" stroke-miterlimit="10"/>
<path stroke-linecap="round" orgstroke="#000000" orgfill="none" transform="translate(-452.08241697799326, -394.12313275004544) translate(160.35401969732243, 38.63952281863192) translate(-0.5526333407535731, 0.0) translate(-16.579000222607647, -19.894800267129085) translate(-12.605932696325453, 183.68644786074248) translate(972,283) translate(-478.1112626953125, -9.244252822875978) translate(-287.9539357011647, 68.9637577099428) translate(15.72857631981151, 37.50660507031978) translate(59.0, -37.0) translate(572.0, -62.0) translate(10.0, 10.00006103515625)" fill="none" stroke-linejoin="round" d="   M648.055,407.453c3.268-3.691,5.998-4.75,11.699-5.994c3.518-0.787,6.979-1.678,10.287-2.648c5.303-1.557,11.07-3.598,17.135-6.018   " stroke="#000000" stroke-width="0.25" g2gstroke="#312783" stroke-miterlimit="10"/>
<path stroke-linecap="round" orgstroke="#000000" orgfill="none" transform="translate(-452.08241697799326, -394.12313275004544) translate(160.35401969732243, 38.63952281863192) translate(-0.5526333407535731, 0.0) translate(-16.579000222607647, -19.894800267129085) translate(-12.605932696325453, 183.68644786074248) translate(972,283) translate(-478.1112626953125, -9.244252822875978) translate(-287.9539357011647, 68.9637577099428) translate(15.72857631981151, 37.50660507031978) translate(59.0, -37.0) translate(572.0, -62.0) translate(10.0, 10.00006103515625)" fill="none" stroke-linejoin="round" d="   M648.244,406.453c3.205-3.5,5.918-4.561,11.51-5.781c3.518-0.787,6.979-1.68,10.287-2.65c4.967-1.457,10.344-3.34,15.986-5.561   c0.27-0.105,0.402-0.096,0.594,0.016l1.123,0.646c0.283,0.164,0.287,0.219,0.186,0.463c-0.244,0.586-0.816,1.945-1.344,2.855   c-0.688,1.188-1.5,1.666-3.25,2.32c-4.121,1.547-8.145,2.895-11.828,3.975c-7.152,2.1-14.988,4.012-23.066,5.439   c-0.277,0.049-0.387,0.064-0.387-0.27v-0.98C648.055,406.693,648.076,406.639,648.244,406.453z" stroke="#000000" stroke-width="0.25" g2gstroke="#312783" stroke-miterlimit="10"/>
</g>
</g>
</g>
</g>
</g>
</g></svg>