<svg xmlns="http://www.w3.org/2000/svg" xmlns:xlink="http://www.w3.org/1999/xlink" xmlns:x="http://ns.adobe.com/Extensibility/1.0/" xmlns:graph="http://ns.adobe.com/Graphs/1.0/" xmlns:i="http://ns.adobe.com/AdobeIllustrator/10.0/" xmlns:etg="http://www.eurotaxglass.com/etg/evd/" etg:dataTimestamp="1539068912893" contentScriptType="text/ecmascript" zoomAndPan="magnify" contentStyleType="text/css" id="Layer_1" enable-background="new 0 0 1841.891 1595.279" version="1.1" xml:space="preserve" width="1841.891px" preserveAspectRatio="xMidYMid meet" viewBox="0 0 1841.891 1595.279" height="1595.279px" x="0px" y="0px"><g xmlns="http://www.w3.org/2000/svg" objecttype="PS" tooltip="#UNDEFINED" id="205">
<g onmouseover="notifyOwner(AGV_OBJECT_MOUSEOVER, '205(PS)')" transform="translate(-9.433746356535266E-6, 3.356933575560106E-7) translate(-35.71980609130861, -13.200809143066408) translate(44.708733184814434, 94.79042849731445) matrix(0.6117410612267968 0 0 0.6117410612267968 0.2921243287958965 0.477310974878083) translate(-92,-34) " onclick="clickZoom(evt); notifyOwner(AGV_OBJECT_MOUSECLICK, '205(PS)')" onmouseout="notifyOwner(AGV_OBJECT_MOUSEOUT, '205(PS)')" tooltip="#UNDEFINED" id="205-Graphic" objecttype="GRAPHIC">
<g zvalue="206">
<g zvalue="58">
<g zvalue="55">
<g>
<path stroke-linecap="round" orgstroke="#000000" orgfill="#ffffff" transform="translate(-452.08241697799326, -394.12313275004544) translate(160.35401969732243, 38.63952281863192) translate(-0.5526333407535731, 0.0) translate(-16.579000222607647, -19.894800267129085) translate(-12.605932696325453, 183.68644786074248) translate(972,283) translate(-478.1112626953125, -9.244252822875978) translate(-223.82973993577912, 248.0275496585662) translate(59.0, -37.0) translate(572.0, -62.0) translate(10.0, 10.00006103515625)" fill="#ffffff" g2gfill="#ECC35D" d="M757.908,142.474   c-0.074-6.449-0.252-14.816-0.252-17.041c0-2.85,0.033-9.248-1.217-12.516c-1.252-3.268-4.313-8.971-5.703-12.344   c-1.391-3.371-2.428-12.023-2.428-13.484c0-1.459-1.109-4.85-1.283-6.109c0,0-0.023-0.287-0.031-0.35   c-0.672-6.461-3.084-19.541-6.586-23.947c-0.178-0.225-0.344-0.189-0.607-0.037c-0.244,0.141-0.447,0.33-0.609,0.545   c-0.213,0.281-1.211,1.641-1.98,2.613c-4.348,5.488-11.121,15.082-11.746,15.762c-0.504,0.551-2.455,2.715-3.295,3.512   c-0.328,0.313-0.215,0.465-0.094,0.627c4.068,5.402,6.377,11.996,8.246,18.727c0.09,0.328,0.023,0.484-0.156,0.588l-2.465,1.424   c-0.463,0.299-0.438,0.271-0.406,0.762c0.162,2.563,0.865,14.021,0.629,18.258c-0.381,6.818-0.664,7.57-4.719,11.469   c-14.9,14.33-34.465,27.104-53.227,37.934c-19.672,11.359-44.383,24.57-64.41,31.334c-0.982,0.338-2.115,0.863-3.777,1.055   c-1.504,0.174-3.193-0.275-4.773-1.25l-0.125-0.109c-1.154-0.932-2.203-2.158-3.014-3.639c-1.877-3.422-3.643-12.58-4.029-14.682   c-0.047-0.246-0.078-0.432-0.393-0.613l-0.332-0.189c-0.209-0.123-0.363-0.109-0.539-0.008l-4.813,2.779   c-0.41,0.199-0.336,0.303-0.248,0.648c0.117,0.459,0.322,1.295,0.527,2.217c0.057,0.256-0.029,0.295-0.32,0.381   c-0.445,0.133-0.855,0.252-1.227,0.354c-6.326,1.738-13.895,4.506-25.135,4.182c-15.986-0.461-21.43-3.256-28.609-6.559   c-1.646-0.758-2.943-1.496-3.973-2.188c-0.178-0.119-0.365-0.107-0.52-0.02c-0.234,0.135-0.553,0.316-0.656,0.377   c-0.174,0.1-0.627,0.434-0.84,0.715c-0.211,0.281-1.209,1.641-1.979,2.613c-4.35,5.488-11.682,13.629-12.98,14.93   c-1.529,1.529-2.922,2.936-3.547,3.615c-0.563,0.613-3.426,3.52-3.588,3.689c-0.164,0.17-0.092,0.301-0.092,0.301   c9.719,12.461,17.311,27.244,20.281,41.775c0.615,3.01,2.209,13.709,6.381,16.955c4.039,3.141,8.531,4.816,16.775,5.328   c6.316,0.428,11.959,0.742,19.18,0.045c2.578-0.248,5.35-0.67,8.439-1.172c0.875-0.143,1.373-0.4,1.732-0.639   c3.701-2.447,11.662-8.588,15.406-11.375c4.654-3.465,15.059-7.627,22.211-9.992c19.779-6.539,49.355-20.426,70.766-32.787   c20.535-11.855,46.07-27.174,61.303-44.91c2.328-2.711,4.684-2.998,6.354-2.418c1.688,0.588,3.328,1.193,4.199,1.49   c0.467,0.16,0.791-0.047,0.922-0.291c0.059-0.109,0.107-0.201,0.131-0.246c1.799-3.359,3.445-8.014,4.127-12.609   c0.227-1.533,0.334-4.123,0.082-6.201c-0.188-1.557-1.09-2.479-1.393-3.557c-0.08-0.287-0.055-0.49-0.213-0.582l-0.215-0.123   c-0.225-0.131-0.225-0.115-0.127-0.418C757.373,145.703,757.908,143.638,757.908,142.474z" stroke="#000000" outline-element="true" stroke-width="0.5" g2gstroke="#312783" stroke-miterlimit="10"/>
<path stroke-linecap="round" orgstroke="#000000" orgfill="none" transform="translate(-452.08241697799326, -394.12313275004544) translate(160.35401969732243, 38.63952281863192) translate(-0.5526333407535731, 0.0) translate(-16.579000222607647, -19.894800267129085) translate(-12.605932696325453, 183.68644786074248) translate(972,283) translate(-478.1112626953125, -9.244252822875978) translate(-223.82973993577912, 248.0275496585662) translate(59.0, -37.0) translate(572.0, -62.0) translate(10.0, 10.00006103515625)" fill="none" stroke-linejoin="round" d="   M522.977,183.425c0.594,0.566,1.34,1.121,2.27,1.658c3.6,2.078,17.648,9.711,31.592,9.92c12.168,0.184,16.113-1.658,21.939-3.244   c4.133-1.127,8.172-2.344,11.93-3.547" stroke="#000000" stroke-width="0.25" g2gstroke="#312783" stroke-miterlimit="10"/>
<path stroke-linecap="round" orgstroke="#000000" orgfill="none" transform="translate(-452.08241697799326, -394.12313275004544) translate(160.35401969732243, 38.63952281863192) translate(-0.5526333407535731, 0.0) translate(-16.579000222607647, -19.894800267129085) translate(-12.605932696325453, 183.68644786074248) translate(972,283) translate(-478.1112626953125, -9.244252822875978) translate(-223.82973993577912, 248.0275496585662) translate(59.0, -37.0) translate(572.0, -62.0) translate(10.0, 10.00006103515625)" fill="none" stroke-linejoin="round" d="   M523.715,182.984c1.145,0.922,2.76,1.928,5.047,2.98c7.18,3.303,12.623,6.098,28.609,6.559c11.24,0.324,18.809-2.443,25.135-4.182   c1.711-0.471,4.148-1.244,7.043-2.213" stroke="#000000" stroke-width="0.25" g2gstroke="#312783" stroke-miterlimit="10"/>
<path stroke-linecap="round" orgstroke="#000000" orgfill="none" transform="translate(-452.08241697799326, -394.12313275004544) translate(160.35401969732243, 38.63952281863192) translate(-0.5526333407535731, 0.0) translate(-16.579000222607647, -19.894800267129085) translate(-12.605932696325453, 183.68644786074248) translate(972,283) translate(-478.1112626953125, -9.244252822875978) translate(-223.82973993577912, 248.0275496585662) translate(59.0, -37.0) translate(572.0, -62.0) translate(10.0, 10.00006103515625)" fill="none" stroke-linejoin="round" d="   M594.248,202.775c0.854,1.219,3.127,2.846,7.115,2.357c3.986-0.486,6.107-1.139,7.738-1.699   c20.027-6.764,44.738-19.975,64.41-31.334c18.762-10.83,38.326-23.604,53.227-37.934c4.055-3.898,5.537-7.273,6.064-12.035   c0.721-6.5-0.229-23.068-0.229-23.068" stroke="#000000" stroke-width="0.25" g2gstroke="#312783" stroke-miterlimit="10"/>
<path stroke-linecap="round" orgstroke="#000000" orgfill="none" transform="translate(-452.08241697799326, -394.12313275004544) translate(160.35401969732243, 38.63952281863192) translate(-0.5526333407535731, 0.0) translate(-16.579000222607647, -19.894800267129085) translate(-12.605932696325453, 183.68644786074248) translate(972,283) translate(-478.1112626953125, -9.244252822875978) translate(-223.82973993577912, 248.0275496585662) translate(59.0, -37.0) translate(572.0, -62.0) translate(10.0, 10.00006103515625)" fill="none" stroke-linejoin="round" d="   M532.346,207.927c2.131,0.863,4.992,1.42,9.082,2.027c7.277,1.08,26.996,2.664,48.385-6.078" stroke="#000000" stroke-width="0.25" g2gstroke="#312783" stroke-miterlimit="10"/>
<ellipse orgstroke="#000000" stroke="#000000" stroke-linecap="round" transform="translate(-452.08241697799326, -394.12313275004544) translate(160.35401969732243, 38.63952281863192) translate(-0.5526333407535731, 0.0) translate(-16.579000222607647, -19.894800267129085) translate(-12.605932696325453, 183.68644786074248) translate(972,283) translate(-478.1112626953125, -9.244252822875978) translate(-223.82973993577912, 248.0275496585662) translate(59.0, -37.0) translate(572.0, -62.0) translate(10.0, 10.00006103515625)" stroke-miterlimit="10" orgfill="none" fill="none" stroke-width="0.25" stroke-linejoin="round" cx="584.096" rx="1.738" g2gstroke="#312783" cy="231.927" ry="1.738"/>
<ellipse orgstroke="#000000" stroke="#000000" stroke-linecap="round" transform="translate(-452.08241697799326, -394.12313275004544) translate(160.35401969732243, 38.63952281863192) translate(-0.5526333407535731, 0.0) translate(-16.579000222607647, -19.894800267129085) translate(-12.605932696325453, 183.68644786074248) translate(972,283) translate(-478.1112626953125, -9.244252822875978) translate(-223.82973993577912, 248.0275496585662) translate(59.0, -37.0) translate(572.0, -62.0) translate(10.0, 10.00006103515625) matrix(-0.1684 0.9857 -0.9857 -0.1684 1013.1957 -588.0921)" stroke-miterlimit="10" orgfill="none" fill="none" stroke-width="0.25" stroke-linejoin="round" cx="754.669" rx="1.999" g2gstroke="#312783" ry="0.626" cy="133.343"/>
<path stroke-linecap="round" orgstroke="#000000" orgfill="none" transform="translate(-452.08241697799326, -394.12313275004544) translate(160.35401969732243, 38.63952281863192) translate(-0.5526333407535731, 0.0) translate(-16.579000222607647, -19.894800267129085) translate(-12.605932696325453, 183.68644786074248) translate(972,283) translate(-478.1112626953125, -9.244252822875978) translate(-223.82973993577912, 248.0275496585662) translate(59.0, -37.0) translate(572.0, -62.0) translate(10.0, 10.00006103515625)" fill="none" stroke-linejoin="round" d="   M739.338,117.398c4.543-2.523,11.879-13.799,10.889-18.336" stroke="#000000" stroke-width="0.25" g2gstroke="#312783" stroke-miterlimit="10"/>
<path stroke-linecap="round" orgstroke="#000000" orgfill="none" transform="translate(-452.08241697799326, -394.12313275004544) translate(160.35401969732243, 38.63952281863192) translate(-0.5526333407535731, 0.0) translate(-16.579000222607647, -19.894800267129085) translate(-12.605932696325453, 183.68644786074248) translate(972,283) translate(-478.1112626953125, -9.244252822875978) translate(-223.82973993577912, 248.0275496585662) translate(59.0, -37.0) translate(572.0, -62.0) translate(10.0, 10.00006103515625)" fill="none" stroke-linejoin="round" d="   M544.551,245.576c-1.377-7.529-9.195-31.223-19.08-44.654c-2.688-3.65-5.387-7.145-8.127-10.465" stroke="#000000" stroke-width="0.25" g2gstroke="#312783" stroke-miterlimit="10"/>
<path stroke-linecap="round" orgstroke="#000000" orgfill="none" transform="translate(-452.08241697799326, -394.12313275004544) translate(160.35401969732243, 38.63952281863192) translate(-0.5526333407535731, 0.0) translate(-16.579000222607647, -19.894800267129085) translate(-12.605932696325453, 183.68644786074248) translate(972,283) translate(-478.1112626953125, -9.244252822875978) translate(-223.82973993577912, 248.0275496585662) translate(59.0, -37.0) translate(572.0, -62.0) translate(10.0, 10.00006103515625)" fill="none" stroke-linejoin="round" d="   M739.334,57.152c3.857,4.666,6.48,20.92,6.48,25.412c0,0.535-0.174,1.33-0.336,1.75c-2.225,5.762-5.389,10.705-8.793,14.896   c-0.334,0.41-0.512,0.371-0.898,0.148l-2.592-1.494c-0.377-0.217-0.73-0.174-1.031,0l-1.998,1.154" stroke="#000000" stroke-width="0.25" g2gstroke="#312783" stroke-miterlimit="10"/>
<path stroke-linecap="round" orgstroke="#000000" orgfill="none" transform="translate(-452.08241697799326, -394.12313275004544) translate(160.35401969732243, 38.63952281863192) translate(-0.5526333407535731, 0.0) translate(-16.579000222607647, -19.894800267129085) translate(-12.605932696325453, 183.68644786074248) translate(972,283) translate(-478.1112626953125, -9.244252822875978) translate(-223.82973993577912, 248.0275496585662) translate(59.0, -37.0) translate(572.0, -62.0) translate(10.0, 10.00006103515625)" fill="none" stroke-linejoin="round" d="   M589.652,181.21l-3.801,2.195c-0.346,0.199-0.234,0.338,0.045,0.498l3.428,1.975c0.262,0.152,0.365,0.279,0.469,0.516   c0.162,0.369,0.352,0.723,0.555,1.074c0.418,0.725,0.771,1.695,0.771,3.086s-0.348,5.84,2.154,10.568   c2.504,4.729,9.67,13.879,26.289,9.15c20.029-6.762,45.199-19.176,64.871-30.535c18.762-10.83,38.324-23.604,53.227-37.934   c2.912-2.799,4.727-7.729,2.688-13.197c-2.039-5.471-4.039-5.42-4.039-16.029c0-3.727,0.791-7.51,0.869-8.352   c0.078-0.869,0.086-1.49-0.053-1.941c-0.09-0.285-0.244-0.742-0.324-0.98" stroke="#000000" stroke-width="0.25" g2gstroke="#312783" stroke-miterlimit="10"/>
<path stroke-linecap="round" orgstroke="#000000" orgfill="none" transform="translate(-452.08241697799326, -394.12313275004544) translate(160.35401969732243, 38.63952281863192) translate(-0.5526333407535731, 0.0) translate(-16.579000222607647, -19.894800267129085) translate(-12.605932696325453, 183.68644786074248) translate(972,283) translate(-478.1112626953125, -9.244252822875978) translate(-223.82973993577912, 248.0275496585662) translate(59.0, -37.0) translate(572.0, -62.0) translate(10.0, 10.00006103515625)" fill="none" stroke-linejoin="round" d="   M583.691,183.585c0,0-0.209,0.18,0.041,0.324c0.137,0.08,1.531,0.883,2.752,1.584c0.283,0.164,0.527,0.266,0.051,0.416   c-1.211,0.385-2.355,0.742-3.195,0.994" stroke="#000000" stroke-width="0.25" g2gstroke="#312783" stroke-miterlimit="10"/>
<path stroke-linecap="round" orgstroke="#000000" orgfill="none" transform="translate(-452.08241697799326, -394.12313275004544) translate(160.35401969732243, 38.63952281863192) translate(-0.5526333407535731, 0.0) translate(-16.579000222607647, -19.894800267129085) translate(-12.605932696325453, 183.68644786074248) translate(972,283) translate(-478.1112626953125, -9.244252822875978) translate(-223.82973993577912, 248.0275496585662) translate(59.0, -37.0) translate(572.0, -62.0) translate(10.0, 10.00006103515625)" fill="none" stroke-linejoin="round" d="   M596.893,199.894c1.867,1.508,4.012,2.246,5.871,2.031c1.662-0.191,2.795-0.717,3.775-1.055   c20.027-6.764,44.738-19.975,64.41-31.334c18.762-10.83,38.326-23.604,53.227-37.934c4.055-3.898,4.338-4.652,4.719-11.469   c0.268-4.785-0.662-18.771-0.662-18.771" stroke="#000000" stroke-width="0.25" g2gstroke="#312783" stroke-miterlimit="10"/>
<path stroke-linecap="round" orgstroke="#000000" orgfill="none" transform="translate(-452.08241697799326, -394.12313275004544) translate(160.35401969732243, 38.63952281863192) translate(-0.5526333407535731, 0.0) translate(-16.579000222607647, -19.894800267129085) translate(-12.605932696325453, 183.68644786074248) translate(972,283) translate(-478.1112626953125, -9.244252822875978) translate(-223.82973993577912, 248.0275496585662) translate(59.0, -37.0) translate(572.0, -62.0) translate(10.0, 10.00006103515625)" fill="none" stroke-linejoin="round" d="   M737.227,103.494c4.605-4.168,8.396-10.283,11.018-16.988" stroke="#000000" stroke-width="0.25" g2gstroke="#312783" stroke-miterlimit="10"/>
<path stroke-linecap="round" orgstroke="#000000" orgfill="none" transform="translate(-452.08241697799326, -394.12313275004544) translate(160.35401969732243, 38.63952281863192) translate(-0.5526333407535731, 0.0) translate(-16.579000222607647, -19.894800267129085) translate(-12.605932696325453, 183.68644786074248) translate(972,283) translate(-478.1112626953125, -9.244252822875978) translate(-223.82973993577912, 248.0275496585662) translate(59.0, -37.0) translate(572.0, -62.0) translate(10.0, 10.00006103515625)" fill="none" stroke-linejoin="round" d="   M747.014,80.818c0.148,1.729-0.086,3.875-0.18,4.145c-1.178,3.355-2.635,5.939-4.258,8.563c-1.773,2.861-3.746,5.451-5.775,7.779   l-3.832-2.209c-0.406-0.234-0.613-0.113-0.848,0.021l-3.512,2.029c-0.238,0.137-0.377,0.217-0.641,0.016l-0.584-0.336" stroke="#000000" stroke-width="0.25" g2gstroke="#312783" stroke-miterlimit="10"/>
<path orgstroke="#000000" orgfill="none" transform="translate(-452.08241697799326, -394.12313275004544) translate(160.35401969732243, 38.63952281863192) translate(-0.5526333407535731, 0.0) translate(-16.579000222607647, -19.894800267129085) translate(-12.605932696325453, 183.68644786074248) translate(972,283) translate(-478.1112626953125, -9.244252822875978) translate(-223.82973993577912, 248.0275496585662) translate(59.0, -37.0) translate(572.0, -62.0) translate(10.0, 10.00006103515625)" fill="none" d="M726.123,79.316   c0.059,0.426,0.389,0.885,0.734,1.023c0.346,0.141,0.578-0.092,0.518-0.518c-0.061-0.428-0.389-0.887-0.734-1.025   C726.295,78.656,726.063,78.888,726.123,79.316z" stroke="#000000" stroke-width="0.25" g2gstroke="#312783" stroke-miterlimit="10"/>
<path orgstroke="#000000" orgfill="none" transform="translate(-452.08241697799326, -394.12313275004544) translate(160.35401969732243, 38.63952281863192) translate(-0.5526333407535731, 0.0) translate(-16.579000222607647, -19.894800267129085) translate(-12.605932696325453, 183.68644786074248) translate(972,283) translate(-478.1112626953125, -9.244252822875978) translate(-223.82973993577912, 248.0275496585662) translate(59.0, -37.0) translate(572.0, -62.0) translate(10.0, 10.00006103515625)" fill="none" d="M728.564,86.253   c0.061,0.426,0.389,0.885,0.734,1.023c0.346,0.141,0.578-0.092,0.518-0.518c-0.061-0.428-0.389-0.887-0.734-1.025   C728.736,85.593,728.504,85.826,728.564,86.253z" stroke="#000000" stroke-width="0.25" g2gstroke="#312783" stroke-miterlimit="10"/>
<path orgstroke="#000000" orgfill="none" transform="translate(-452.08241697799326, -394.12313275004544) translate(160.35401969732243, 38.63952281863192) translate(-0.5526333407535731, 0.0) translate(-16.579000222607647, -19.894800267129085) translate(-12.605932696325453, 183.68644786074248) translate(972,283) translate(-478.1112626953125, -9.244252822875978) translate(-223.82973993577912, 248.0275496585662) translate(59.0, -37.0) translate(572.0, -62.0) translate(10.0, 10.00006103515625)" fill="none" d="M731.008,93.191   c0.059,0.426,0.389,0.885,0.734,1.023c0.346,0.141,0.578-0.092,0.518-0.518c-0.061-0.428-0.389-0.887-0.734-1.025   C731.18,92.531,730.947,92.763,731.008,93.191z" stroke="#000000" stroke-width="0.25" g2gstroke="#312783" stroke-miterlimit="10"/>
<path stroke-linecap="round" orgstroke="#000000" orgfill="none" transform="translate(-452.08241697799326, -394.12313275004544) translate(160.35401969732243, 38.63952281863192) translate(-0.5526333407535731, 0.0) translate(-16.579000222607647, -19.894800267129085) translate(-12.605932696325453, 183.68644786074248) translate(972,283) translate(-478.1112626953125, -9.244252822875978) translate(-223.82973993577912, 248.0275496585662) translate(59.0, -37.0) translate(572.0, -62.0) translate(10.0, 10.00006103515625)" fill="none" stroke-linejoin="round" d="   M640.73,211.81c-0.137,0.969-0.885,2.012-1.668,2.33c-0.787,0.318-1.316-0.211-1.178-1.182c0.137-0.969,0.883-2.012,1.67-2.33   C640.34,210.312,640.867,210.839,640.73,211.81z" stroke="#000000" stroke-width="0.25" g2gstroke="#312783" stroke-miterlimit="10"/>
<path stroke-linecap="round" orgstroke="#000000" orgfill="none" transform="translate(-452.08241697799326, -394.12313275004544) translate(160.35401969732243, 38.63952281863192) translate(-0.5526333407535731, 0.0) translate(-16.579000222607647, -19.894800267129085) translate(-12.605932696325453, 183.68644786074248) translate(972,283) translate(-478.1112626953125, -9.244252822875978) translate(-223.82973993577912, 248.0275496585662) translate(59.0, -37.0) translate(572.0, -62.0) translate(10.0, 10.00006103515625)" fill="none" stroke-linejoin="round" d="   M724.734,163.333c-0.139,0.969-0.885,2.012-1.67,2.33c-0.787,0.318-1.314-0.211-1.178-1.182c0.137-0.969,0.885-2.012,1.672-2.33   C724.342,161.835,724.871,162.363,724.734,163.333z" stroke="#000000" stroke-width="0.25" g2gstroke="#312783" stroke-miterlimit="10"/>
<path stroke-linecap="round" orgstroke="#000000" orgfill="none" transform="translate(-452.08241697799326, -394.12313275004544) translate(160.35401969732243, 38.63952281863192) translate(-0.5526333407535731, 0.0) translate(-16.579000222607647, -19.894800267129085) translate(-12.605932696325453, 183.68644786074248) translate(972,283) translate(-478.1112626953125, -9.244252822875978) translate(-223.82973993577912, 248.0275496585662) translate(59.0, -37.0) translate(572.0, -62.0) translate(10.0, 10.00006103515625)" fill="none" stroke-linejoin="round" d="   M541.984,226.642c20.588,3.65,44.691-0.779,63.883-6.41c19.191-5.633,53.064-20.676,77.533-34.803   c20.533-11.855,41.873-25.984,57.25-41.941c8.529-8.852,17.557-17.119,16.342-29.107" stroke="#000000" stroke-width="0.25" g2gstroke="#312783" stroke-miterlimit="10"/>
<path stroke-linecap="round" orgstroke="#000000" orgfill="none" transform="translate(-452.08241697799326, -394.12313275004544) translate(160.35401969732243, 38.63952281863192) translate(-0.5526333407535731, 0.0) translate(-16.579000222607647, -19.894800267129085) translate(-12.605932696325453, 183.68644786074248) translate(972,283) translate(-478.1112626953125, -9.244252822875978) translate(-223.82973993577912, 248.0275496585662) translate(59.0, -37.0) translate(572.0, -62.0) translate(10.0, 10.00006103515625)" fill="none" stroke-linejoin="round" d="   M748.043,162.035c-4.963,6.221-14.906,15.656-21.789,21.24" stroke="#000000" stroke-width="0.25" g2gstroke="#312783" stroke-miterlimit="10"/>
<path orgstroke="#000000" orgfill="none" transform="translate(-452.08241697799326, -394.12313275004544) translate(160.35401969732243, 38.63952281863192) translate(-0.5526333407535731, 0.0) translate(-16.579000222607647, -19.894800267129085) translate(-12.605932696325453, 183.68644786074248) translate(972,283) translate(-478.1112626953125, -9.244252822875978) translate(-223.82973993577912, 248.0275496585662) translate(59.0, -37.0) translate(572.0, -62.0) translate(10.0, 10.00006103515625)" fill="none" d="M635.246,236.611   c-0.592,0.271-0.746-0.482-0.449-1.184c1.07-2.541,7.953-19.816,9.367-22.584c1.531-2.99,1.879-5.293,9.76-9.066   c9.408-4.506,19.65-9.555,27.838-14.281c10.121-5.844,20.42-12.266,30.141-19.135c3.363-2.377,8.885-4.871,10.914,0.861   c0.527,1.49,2.563,9.408,3.283,11.471c0.17,0.48,0.434,1.434-0.287,2.012c-12.762,10.25-26.504,18.104-40.439,26.15   C671.262,219.001,652.33,228.769,635.246,236.611z" stroke="#000000" stroke-width="0.25" g2gstroke="#312783" stroke-miterlimit="10"/>
<path orgstroke="#000000" orgfill="none" transform="translate(-452.08241697799326, -394.12313275004544) translate(160.35401969732243, 38.63952281863192) translate(-0.5526333407535731, 0.0) translate(-16.579000222607647, -19.894800267129085) translate(-12.605932696325453, 183.68644786074248) translate(972,283) translate(-478.1112626953125, -9.244252822875978) translate(-223.82973993577912, 248.0275496585662) translate(59.0, -37.0) translate(572.0, -62.0) translate(10.0, 10.00006103515625)" fill="none" d="M713.346,169.427   c1.205-0.648,2.947-0.725,4.314,1.24c1.422,2.041,9.004,12.793,8.578,13.416" stroke="#000000" stroke-width="0.25" g2gstroke="#312783" stroke-miterlimit="10"/>
<path stroke-linecap="round" orgstroke="#000000" orgfill="none" transform="translate(-452.08241697799326, -394.12313275004544) translate(160.35401969732243, 38.63952281863192) translate(-0.5526333407535731, 0.0) translate(-16.579000222607647, -19.894800267129085) translate(-12.605932696325453, 183.68644786074248) translate(972,283) translate(-478.1112626953125, -9.244252822875978) translate(-223.82973993577912, 248.0275496585662) translate(59.0, -37.0) translate(572.0, -62.0) translate(10.0, 10.00006103515625)" fill="none" stroke-linejoin="round" d="   M504.854,204.189c7.869,9.988,14.348,21.342,18.551,32.885c1.635,4.488,4.391,13.961,5.482,18.395   c0.834,3.383,2.613,5.301,7.529,6.057c0.182,0.029,0.549,0.07,0.732,0.09c21.086,2.389,35.541,0.656,48.301-2.35l0.27-0.064   c1.193-0.289,2.123-1.346,3.098-2.783c0.973-1.438,2.25-3.65,2.547-4.162c0.295-0.512,0.152-0.811-1.107-0.512" stroke="#000000" stroke-width="0.25" g2gstroke="#312783" stroke-miterlimit="10"/>
<path orgstroke="#000000" orgfill="none" transform="translate(-452.08241697799326, -394.12313275004544) translate(160.35401969732243, 38.63952281863192) translate(-0.5526333407535731, 0.0) translate(-16.579000222607647, -19.894800267129085) translate(-12.605932696325453, 183.68644786074248) translate(972,283) translate(-478.1112626953125, -9.244252822875978) translate(-223.82973993577912, 248.0275496585662) translate(59.0, -37.0) translate(572.0, -62.0) translate(10.0, 10.00006103515625)" fill="none" d="M534.406,253.529   c-0.736-0.107-1.113-0.102-0.697,0.699c0.418,0.799,1.564,3.023,2.33,3.859c0.764,0.834,1.684,1.295,2.428,1.379   c17.568,2,31.127,1.871,42.73-0.939c1.66-0.402,3.41-0.648,4.629-2.408c0.41-0.594,1.576-2.344,1.947-2.945   c0.369-0.604,0.41-0.908-0.408-0.756" stroke="#000000" stroke-width="0.25" g2gstroke="#312783" stroke-miterlimit="10"/>
<path orgstroke="#000000" orgfill="none" transform="translate(-452.08241697799326, -394.12313275004544) translate(160.35401969732243, 38.63952281863192) translate(-0.5526333407535731, 0.0) translate(-16.579000222607647, -19.894800267129085) translate(-12.605932696325453, 183.68644786074248) translate(972,283) translate(-478.1112626953125, -9.244252822875978) translate(-223.82973993577912, 248.0275496585662) translate(59.0, -37.0) translate(572.0, -62.0) translate(10.0, 10.00006103515625)" fill="none" d="M536.584,253.828   c-0.734-0.105-1.045-0.119-0.627,0.682c0.416,0.799,0.779,1.369,1.197,1.855c0.736,0.861,1.684,1.295,2.428,1.381   c6.078,0.691,10.561,1,15.764,1.16c9.836,0.301,18.262-0.391,25.852-2.229c1.66-0.402,3.561-0.555,4.629-2.408   c0.195-0.34,0.445-0.734,0.564-0.941c0.121-0.207,0.336-0.734-0.482-0.582" stroke="#000000" stroke-width="0.25" g2gstroke="#312783" stroke-miterlimit="10"/>
<path stroke-linecap="round" orgstroke="#000000" orgfill="none" transform="translate(-452.08241697799326, -394.12313275004544) translate(160.35401969732243, 38.63952281863192) translate(-0.5526333407535731, 0.0) translate(-16.579000222607647, -19.894800267129085) translate(-12.605932696325453, 183.68644786074248) translate(972,283) translate(-478.1112626953125, -9.244252822875978) translate(-223.82973993577912, 248.0275496585662) translate(59.0, -37.0) translate(572.0, -62.0) translate(10.0, 10.00006103515625)" fill="none" stroke-linejoin="round" d="   M756.863,147.269c-1.729,5.023-5.971,11.002-9.182,15.246c-0.754,0.998-0.766,1.416-0.082,1.885c0.5,0.342,1.02,0.807,1.639,1.162   c0.254,0.146,0.576,0.191,0.957-0.451c0.383-0.643,7.66-10.926,8.051-15.223" stroke="#000000" stroke-width="0.25" g2gstroke="#312783" stroke-miterlimit="10"/>
<path orgstroke="#000000" orgfill="none" transform="translate(-452.08241697799326, -394.12313275004544) translate(160.35401969732243, 38.63952281863192) translate(-0.5526333407535731, 0.0) translate(-16.579000222607647, -19.894800267129085) translate(-12.605932696325453, 183.68644786074248) translate(972,283) translate(-478.1112626953125, -9.244252822875978) translate(-223.82973993577912, 248.0275496585662) translate(59.0, -37.0) translate(572.0, -62.0) translate(10.0, 10.00006103515625)" fill="none" d="M757.416,147.841   c-0.027,0.313-0.061,0.59-0.1,0.793c-0.811,4.355-5.971,11.717-9.273,16.082" stroke="#000000" stroke-width="0.25" g2gstroke="#312783" stroke-miterlimit="10"/>
<path stroke-linecap="round" orgstroke="#000000" orgfill="none" transform="translate(-452.08241697799326, -394.12313275004544) translate(160.35401969732243, 38.63952281863192) translate(-0.5526333407535731, 0.0) translate(-16.579000222607647, -19.894800267129085) translate(-12.605932696325453, 183.68644786074248) translate(972,283) translate(-478.1112626953125, -9.244252822875978) translate(-223.82973993577912, 248.0275496585662) translate(59.0, -37.0) translate(572.0, -62.0) translate(10.0, 10.00006103515625)" fill="none" stroke-linejoin="round" d="   M528.518,254.015c-0.332-1.248-0.463-1.789,0.828-1.455s4.428,0.883,5.555,1.037c0.398,0.055,1.193,0.164,1.592,0.219   c31.814,4.309,49.074-0.449,66.695-5.621c7.932-2.328,19.18-6.91,31.375-12.482" stroke="#000000" stroke-width="0.25" g2gstroke="#312783" stroke-miterlimit="10"/>
<ellipse orgstroke="#000000" orgfill="none" transform="translate(-452.08241697799326, -394.12313275004544) translate(160.35401969732243, 38.63952281863192) translate(-0.5526333407535731, 0.0) translate(-16.579000222607647, -19.894800267129085) translate(-12.605932696325453, 183.68644786074248) translate(972,283) translate(-478.1112626953125, -9.244252822875978) translate(-223.82973993577912, 248.0275496585662) translate(59.0, -37.0) translate(572.0, -62.0) translate(10.0, 10.00006103515625)" fill="none" rx="0.75" cx="544.816" ry="0.75" cy="256.009" stroke="#000000" stroke-width="0.25" g2gstroke="#312783" stroke-miterlimit="10"/>
<ellipse orgstroke="#000000" orgfill="none" transform="translate(-452.08241697799326, -394.12313275004544) translate(160.35401969732243, 38.63952281863192) translate(-0.5526333407535731, 0.0) translate(-16.579000222607647, -19.894800267129085) translate(-12.605932696325453, 183.68644786074248) translate(972,283) translate(-478.1112626953125, -9.244252822875978) translate(-223.82973993577912, 248.0275496585662) translate(59.0, -37.0) translate(572.0, -62.0) translate(10.0, 10.00006103515625)" fill="none" rx="0.75" cx="561.139" ry="0.75" cy="256.759" stroke="#000000" stroke-width="0.25" g2gstroke="#312783" stroke-miterlimit="10"/>
<ellipse orgstroke="#000000" orgfill="none" transform="translate(-452.08241697799326, -394.12313275004544) translate(160.35401969732243, 38.63952281863192) translate(-0.5526333407535731, 0.0) translate(-16.579000222607647, -19.894800267129085) translate(-12.605932696325453, 183.68644786074248) translate(972,283) translate(-478.1112626953125, -9.244252822875978) translate(-223.82973993577912, 248.0275496585662) translate(59.0, -37.0) translate(572.0, -62.0) translate(10.0, 10.00006103515625) matrix(-0.396 -0.9183 0.9183 -0.396 576.6709 888.9587)" fill="none" rx="0.664" cx="580.708" cy="254.816" ry="0.75" stroke="#000000" stroke-width="0.25" g2gstroke="#312783" stroke-miterlimit="10"/>
</g>
</g>
</g>
</g>
</g>
</g></svg>