<svg xmlns="http://www.w3.org/2000/svg" xmlns:xlink="http://www.w3.org/1999/xlink" xmlns:x="http://ns.adobe.com/Extensibility/1.0/" xmlns:graph="http://ns.adobe.com/Graphs/1.0/" xmlns:i="http://ns.adobe.com/AdobeIllustrator/10.0/" xmlns:etg="http://www.eurotaxglass.com/etg/evd/" etg:dataTimestamp="1539068912893" contentScriptType="text/ecmascript" zoomAndPan="magnify" contentStyleType="text/css" id="Layer_1" enable-background="new 0 0 1841.891 1595.279" version="1.1" xml:space="preserve" width="1841.891px" preserveAspectRatio="xMidYMid meet" viewBox="0 0 1841.891 1595.279" height="1595.279px" x="0px" y="0px"><g xmlns="http://www.w3.org/2000/svg" objecttype="PS" tooltip="#UNDEFINED" id="219">
<g onmouseover="notifyOwner(AGV_OBJECT_MOUSEOVER, '219(PS)')" transform="translate(-9.433746356535266E-6, 3.356933575560106E-7) translate(-35.71980609130861, -13.200809143066408) translate(44.708733184814434, 94.79042849731445) matrix(0.6117410612267968 0 0 0.6117410612267968 0.2921243287958965 0.477310974878083) translate(-92,-34) " onclick="clickZoom(evt); notifyOwner(AGV_OBJECT_MOUSECLICK, '219(PS)')" onmouseout="notifyOwner(AGV_OBJECT_MOUSEOUT, '219(PS)')" tooltip="#UNDEFINED" id="219-Graphic" objecttype="GRAPHIC">
<g zvalue="220">
<g zvalue="4">
<g>
<path orgstroke="#000000" orgfill="#ffffff" transform="translate(-235.70108919365452, -504.2457727831464) translate(-42.50347510049505, -293.66037342160246) translate(-42.163361648033515, 12.297647147343014) translate(1051,951) translate(2.456825836181622, 1.177978515443101E-5) translate(-566.6236223144531, -50.701335571289064) translate(631.4938315919784, -45.56079657458906) translate(-2.804301256811584, -2.8043012568115557) translate(47.742954833984356, -12.24202313232422)" fill="#ffffff" g2gfill="#BCBEC0" d="M492.74,326.26v-1.917l-0.229-0.398   l-2.455-2.188l-0.357,0.131c-10.594,10.209-45.526,34.561-78.245,44.615l-0.211,0.173v1.042l0.354,0.416l1.438,1.271v0.313   l-0.313,0.396l-1.5,1.287l-0.125,0.691l0.19,0.938l0.102,0.175l0.339,0.313c22.371-6.877,47.062-21.084,63.014-32.233   c7.923-5.472,14.368-10.843,17.892-14.231L492.74,326.26z" stroke="#000000" outline-element="true" stroke-width="0.5" g2gstroke="#312783" stroke-miterlimit="10"/>
<path orgstroke="#000000" orgfill="none" stroke-linecap="round" transform="translate(-235.70108919365452, -504.2457727831464) translate(-42.50347510049505, -293.66037342160246) translate(-42.163361648033515, 12.297647147343014) translate(1051,951) translate(2.456825836181622, 1.177978515443101E-5) translate(-566.6236223144531, -50.701335571289064) translate(631.4938315919784, -45.56079657458906) translate(-2.804301256811584, -2.8043012568115557) translate(47.742954833984356, -12.24202313232422)" fill="none" d="M413.0320129394531 370.04998779296875L413.0320129394531 371.0780029296875L412.7969970703125 371.39898681640625L411.59698486328125 372.093994140625" stroke="#000000" stroke-width="0.25" g2gstroke="#312783"/>
<path orgstroke="#000000" orgfill="none" stroke-linecap="round" transform="translate(-235.70108919365452, -504.2457727831464) translate(-42.50347510049505, -293.66037342160246) translate(-42.163361648033515, 12.297647147343014) translate(1051,951) translate(2.456825836181622, 1.177978515443101E-5) translate(-566.6236223144531, -50.701335571289064) translate(631.4938315919784, -45.56079657458906) translate(-2.804301256811584, -2.8043012568115557) translate(47.742954833984356, -12.24202313232422)" fill="none" d="M414.14,369.127   c32.717-10.06,67.653-34.407,78.247-44.614" stroke="#000000" stroke-width="0.25" g2gstroke="#312783"/>
<path orgstroke="#000000" orgfill="none" stroke-linecap="round" transform="translate(-235.70108919365452, -504.2457727831464) translate(-42.50347510049505, -293.66037342160246) translate(-42.163361648033515, 12.297647147343014) translate(1051,951) translate(2.456825836181622, 1.177978515443101E-5) translate(-566.6236223144531, -50.701335571289064) translate(631.4938315919784, -45.56079657458906) translate(-2.804301256811584, -2.8043012568115557) translate(47.742954833984356, -12.24202313232422)" fill="none" d="M414.14,372.088   c7.864-2.417,15.854-5.659,23.604-9.335" stroke="#000000" stroke-width="0.25" g2gstroke="#312783"/>
<path orgstroke="#000000" orgfill="none" stroke-linecap="round" transform="translate(-235.70108919365452, -504.2457727831464) translate(-42.50347510049505, -293.66037342160246) translate(-42.163361648033515, 12.297647147343014) translate(1051,951) translate(2.456825836181622, 1.177978515443101E-5) translate(-566.6236223144531, -50.701335571289064) translate(631.4938315919784, -45.56079657458906) translate(-2.804301256811584, -2.8043012568115557) translate(47.742954833984356, -12.24202313232422)" fill="none" d="M411.4519958496094 366.8190002441406L413.9070129394531 369.0090026855469L414.1400146484375 369.4049987792969L414.1400146484375 371.6340026855469L413.906005859375 372.0320129394531L411.6830139160156 373.1990051269531" stroke="#000000" stroke-width="0.25" g2gstroke="#312783"/>
<path orgstroke="#000000" orgfill="none" stroke-linecap="round" transform="translate(-235.70108919365452, -504.2457727831464) translate(-42.50347510049505, -293.66037342160246) translate(-42.163361648033515, 12.297647147343014) translate(1051,951) translate(2.456825836181622, 1.177978515443101E-5) translate(-566.6236223144531, -50.701335571289064) translate(631.4938315919784, -45.56079657458906) translate(-2.804301256811584, -2.8043012568115557) translate(47.742954833984356, -12.24202313232422)" fill="none" d="M429.135986328125 366.35400390625L429.135986328125 365.135986328125L429.3030090332031 364.8489990234375L430.7300109863281 364.22900390625L430.99798583984375 364.385986328125L430.99798583984375 365.47900390625" stroke="#000000" stroke-width="0.25" g2gstroke="#312783"/>
<path orgstroke="#000000" orgfill="none" stroke-linecap="round" transform="translate(-235.70108919365452, -504.2457727831464) translate(-42.50347510049505, -293.66037342160246) translate(-42.163361648033515, 12.297647147343014) translate(1051,951) translate(2.456825836181622, 1.177978515443101E-5) translate(-566.6236223144531, -50.701335571289064) translate(631.4938315919784, -45.56079657458906) translate(-2.804301256811584, -2.8043012568115557) translate(47.742954833984356, -12.24202313232422)" fill="none" d="M449.1470031738281 356.72900390625L449.1470031738281 355.510986328125L449.3139953613281 355.2239990234375L450.739990234375 354.3789978027344L451.010986328125 354.5329895019531L451.010986328125 355.85400390625" stroke="#000000" stroke-width="0.25" g2gstroke="#312783"/>
<path orgstroke="#000000" orgfill="none" stroke-linecap="round" transform="translate(-235.70108919365452, -504.2457727831464) translate(-42.50347510049505, -293.66037342160246) translate(-42.163361648033515, 12.297647147343014) translate(1051,951) translate(2.456825836181622, 1.177978515443101E-5) translate(-566.6236223144531, -50.701335571289064) translate(631.4938315919784, -45.56079657458906) translate(-2.804301256811584, -2.8043012568115557) translate(47.742954833984356, -12.24202313232422)" fill="none" d="M468.72698974609375 345.00299072265625L468.64300537109375 343.71600341796875L468.80999755859375 343.427001953125L470.3210144042969 342.427001953125L470.59100341796875 342.58599853515625L470.59100341796875 343.93499755859375" stroke="#000000" stroke-width="0.25" g2gstroke="#312783"/>
<path orgstroke="#000000" orgfill="none" stroke-linecap="round" transform="translate(-235.70108919365452, -504.2457727831464) translate(-42.50347510049505, -293.66037342160246) translate(-42.163361648033515, 12.297647147343014) translate(1051,951) translate(2.456825836181622, 1.177978515443101E-5) translate(-566.6236223144531, -50.701335571289064) translate(631.4938315919784, -45.56079657458906) translate(-2.804301256811584, -2.8043012568115557) translate(47.742954833984356, -12.24202313232422)" fill="none" d="M484.1860046386719 333.843994140625L484.1860046386719 332.62799072265625L484.3529968261719 332.3399963378906L485.7799987792969 331.2409973144531L486.04998779296875 331.3970031738281L486.04998779296875 332.8810119628906" stroke="#000000" stroke-width="0.25" g2gstroke="#312783"/>
<path orgstroke="#000000" orgfill="none" stroke-linecap="round" transform="translate(-235.70108919365452, -504.2457727831464) translate(-42.50347510049505, -293.66037342160246) translate(-42.163361648033515, 12.297647147343014) translate(1051,951) translate(2.456825836181622, 1.177978515443101E-5) translate(-566.6236223144531, -50.701335571289064) translate(631.4938315919784, -45.56079657458906) translate(-2.804301256811584, -2.8043012568115557) translate(47.742954833984356, -12.24202313232422)" fill="none" d="M485.567,332.442   c0,0.188-0.146,0.422-0.334,0.526c-0.184,0.104-0.333,0.044-0.333-0.144c0-0.186,0.149-0.422,0.333-0.523   C485.413,332.196,485.567,332.26,485.567,332.442z" stroke="#000000" stroke-width="0.25" g2gstroke="#312783"/>
<path orgstroke="#000000" orgfill="none" stroke-linecap="round" transform="translate(-235.70108919365452, -504.2457727831464) translate(-42.50347510049505, -293.66037342160246) translate(-42.163361648033515, 12.297647147343014) translate(1051,951) translate(2.456825836181622, 1.177978515443101E-5) translate(-566.6236223144531, -50.701335571289064) translate(631.4938315919784, -45.56079657458906) translate(-2.804301256811584, -2.8043012568115557) translate(47.742954833984356, -12.24202313232422)" fill="none" d="M469.948,343.521   c0,0.186-0.146,0.42-0.334,0.526c-0.184,0.104-0.333,0.043-0.333-0.144c0-0.186,0.149-0.42,0.333-0.523   C469.801,343.274,469.948,343.339,469.948,343.521z" stroke="#000000" stroke-width="0.25" g2gstroke="#312783"/>
<path orgstroke="#000000" orgfill="none" stroke-linecap="round" transform="translate(-235.70108919365452, -504.2457727831464) translate(-42.50347510049505, -293.66037342160246) translate(-42.163361648033515, 12.297647147343014) translate(1051,951) translate(2.456825836181622, 1.177978515443101E-5) translate(-566.6236223144531, -50.701335571289064) translate(631.4938315919784, -45.56079657458906) translate(-2.804301256811584, -2.8043012568115557) translate(47.742954833984356, -12.24202313232422)" fill="none" d="M450.408,355.36c0,0.187-0.146,0.42-0.334,0.527   c-0.184,0.104-0.333,0.043-0.333-0.146c0-0.185,0.149-0.421,0.333-0.523C450.263,355.114,450.408,355.177,450.408,355.36z" stroke="#000000" stroke-width="0.25" g2gstroke="#312783"/>
<path orgstroke="#000000" orgfill="none" stroke-linecap="round" transform="translate(-235.70108919365452, -504.2457727831464) translate(-42.50347510049505, -293.66037342160246) translate(-42.163361648033515, 12.297647147343014) translate(1051,951) translate(2.456825836181622, 1.177978515443101E-5) translate(-566.6236223144531, -50.701335571289064) translate(631.4938315919784, -45.56079657458906) translate(-2.804301256811584, -2.8043012568115557) translate(47.742954833984356, -12.24202313232422)" fill="none" d="M430.402,365.263   c0,0.187-0.146,0.422-0.334,0.525c-0.184,0.105-0.333,0.043-0.333-0.143c0-0.185,0.149-0.42,0.333-0.524   C430.252,365.017,430.402,365.08,430.402,365.263z" stroke="#000000" stroke-width="0.25" g2gstroke="#312783"/>
</g>
</g>
</g>
</g>
</g></svg>