<svg xmlns="http://www.w3.org/2000/svg" xmlns:xlink="http://www.w3.org/1999/xlink" xmlns:x="http://ns.adobe.com/Extensibility/1.0/" xmlns:graph="http://ns.adobe.com/Graphs/1.0/" xmlns:i="http://ns.adobe.com/AdobeIllustrator/10.0/" xmlns:etg="http://www.eurotaxglass.com/etg/evd/" etg:dataTimestamp="1539068912893" contentScriptType="text/ecmascript" zoomAndPan="magnify" contentStyleType="text/css" id="Layer_1" enable-background="new 0 0 1841.891 1595.279" version="1.1" xml:space="preserve" width="1841.891px" preserveAspectRatio="xMidYMid meet" viewBox="0 0 1841.891 1595.279" height="1595.279px" x="0px" y="0px"><g xmlns="http://www.w3.org/2000/svg" objecttype="PS" tooltip="#UNDEFINED" id="22">
<g onmouseover="notifyOwner(AGV_OBJECT_MOUSEOVER, '22(PS)')" transform="translate(-9.433746356535266E-6, 3.356933575560106E-7) translate(-35.71980609130861, -13.200809143066408) translate(44.708733184814434, 94.79042849731445) matrix(0.6117410612267968 0 0 0.6117410612267968 0.2921243287958965 0.477310974878083) translate(-92,-34) " onclick="clickZoom(evt); notifyOwner(AGV_OBJECT_MOUSECLICK, '22(PS)')" onmouseout="notifyOwner(AGV_OBJECT_MOUSEOUT, '22(PS)')" tooltip="#UNDEFINED" id="22-Graphic" objecttype="GRAPHIC">
<g zvalue="21">
<g zvalue="50">
<g zvalue="43">
<g>
<path orgstroke="#000000" orgfill="#ffffff" transform="translate(-295.5923495625341, 69.5511410735374) translate(13.523832986521029, -13.523832986521171) translate(0.6567110110379417, -1.9701330331140525) translate(-14.792050684180822, -24.829513648446607) translate(185.48729538878888, 48.62288325725535) translate(724,-30) translate(-518.5915025634765, -83.33211865234375) translate(-244.56766961847688, 147.44270991353153) translate(658.0, -6.0) translate(10.0, 10.00006103515625)" fill="#ffffff" g2gfill="#ECC35D" d="M825.57,298.014   c-0.176-0.643-0.551-2.025-1.045-3.611c-0.059-0.188-0.117-0.355-0.297-0.459c0,0-0.906-0.512-1.189-0.688   c-0.283-0.174-0.42-0.297-0.5-0.529c-0.331-0.977-0.671-1.902-0.8-2.285c-0.027-0.08-0.233-0.375-0.513-0.537   s-0.594-0.342-0.803-0.463s-0.486-0.1-0.593,0.029c-0.088,0.096-0.177,0.205-0.269,0.326c-3.727,4.873-8.839,10.096-9.519,10.834   c-2.839,3.076-5.786,5.996-8.825,8.779c-0.16,0.148-0.197,0.266,0.14,0.518c0.305,0.229,1.192,0.947,1.192,0.947   c0.141,0.082,0.103,0.26-0.069,0.414c-14.272,12.73-30.486,22.537-46.639,31.861l-1.059,0.611   c-16.677,9.629-34.547,18.627-50.533,25.219c-0.351,0.145-0.675,0.088-0.903-0.045l-1.238-0.715   c-0.187-0.107-0.293-0.111-0.515-0.021c-6.429,2.594-12.54,4.779-18.143,6.432c-3.389,1-6.933,1.918-10.534,2.727   c-5.84,1.281-9.373,2.746-11.982,6.172c-0.102,0.133-0.35,0.58-0.35,0.58c-0.111,0.184-0.031,0.43,0.155,0.537l0.771,0.443   c0.232,0.135,0.263,0.277,0.046,0.549c-1.688,2.105-3.61,4.92-6.176,8.816c-0.105,0.16-0.221,0.244-0.379,0.279l-0.371,0.086   c-0.59,0.139-1.175,0.275-1.754,0.406c-0.279,0.064-0.381,0.17-0.381,0.451v0.402c0,0.129,0.099,0.305,0.238,0.387l1.283,0.74   c0.179,0.104,0.413,0.123,0.799,0.035c0.569-0.131,1.145-0.262,1.725-0.398l0.321-0.1c0.886-0.182,1.585-1.344,1.896-1.816   c0.054-0.082,0.303-0.463,0.303-0.463c1.373-2.123,5.029-3.064,6.845-3.453c5.886-1.26,11.776-2.762,16.844-4.248   c14.71-4.318,32.352-11.879,52.342-21.801c2.03-1.008,3.26-0.486,4.141-0.994c2.134-1.092,4.259-2.188,6.364-3.313   c0.13-0.068,0.257-0.146,0.379-0.357c0.356-0.615,0.701-1.291,1.166-1.926c1.018-1.389,2.211-2.459,3.347-3.09l0.146-0.076   c0.465-0.221,0.877-0.135,1.486,0.084s1.266,0.406,1.578,0.5s0.445,0.223,1.229-0.219c2.979-1.674,5.954-3.43,8.865-5.113   c0.176-0.102,0.329-0.277,0.406-0.455c0.353-0.814,0.817-1.662,1.417-2.48c0.963-1.316,2.084-2.344,3.164-2.984l0.195-0.111   c0.628-0.305,1.191-0.145,1.629,0s1.156,0.375,1.563,0.486s0.672-0.002,1.18-0.324c0.743-0.473,1.602-1.025,2.337-1.502   c0.624-0.404,0.718-0.813,0.843-1.375c0.023-0.109,0.048-0.262,0.065-0.441c0.029-0.307,0.106-0.492,0.326-0.619   c19.057-12.438,35.865-24.682,45.193-38.553c0.709-1.055,2.725-1.967,3.295-3.047c0,0,0.163-0.283,0.194-0.371   C825.679,298.459,825.645,298.285,825.57,298.014z M817.689,302.059c0,0.203-0.104,0.914-0.131,1.09   c-0.113,0.76-0.074,0.637-0.496,1.121c-0.397,0.457-1.098,1.193-1.639,1.723c-0.244,0.24-0.277,0.158-0.244-0.049   c0.059-0.361,0.16-0.674,0.16-0.752c0-0.074-0.005-0.465-0.036-0.705c-0.013-0.096,0.013-0.281-0.151-0.377L815,304.021   c-0.129-0.074-0.145-0.098-0.015-0.232c0.795-0.818,1.588-1.639,2.375-2.451c0.17-0.176,0.329-0.139,0.329,0.104   S817.689,301.943,817.689,302.059z" stroke="#000000" outline-element="true" stroke-width="0.5" g2gstroke="#312783" stroke-miterlimit="10"/>
<path stroke-linecap="round" orgstroke="#000000" orgfill="none" transform="translate(-295.5923495625341, 69.5511410735374) translate(13.523832986521029, -13.523832986521171) translate(0.6567110110379417, -1.9701330331140525) translate(-14.792050684180822, -24.829513648446607) translate(185.48729538878888, 48.62288325725535) translate(724,-30) translate(-518.5915025634765, -83.33211865234375) translate(-244.56766961847688, 147.44270991353153) translate(658.0, -6.0) translate(10.0, 10.00006103515625)" fill="none" stroke-linejoin="round" d="   M818.167,302.27c2.338-2.445,4.576-4.9,6.484-7.459" stroke="#000000" stroke-width="0.25" g2gstroke="#312783" stroke-miterlimit="10"/>
<path stroke-linecap="round" orgstroke="#000000" orgfill="none" transform="translate(-295.5923495625341, 69.5511410735374) translate(13.523832986521029, -13.523832986521171) translate(0.6567110110379417, -1.9701330331140525) translate(-14.792050684180822, -24.829513648446607) translate(185.48729538878888, 48.62288325725535) translate(724,-30) translate(-518.5915025634765, -83.33211865234375) translate(-244.56766961847688, 147.44270991353153) translate(658.0, -6.0) translate(10.0, 10.00006103515625)" fill="none" stroke-linejoin="round" d="   M662.606,386.344c8.217-1.414,17.169-3.592,24.436-5.725c19.191-5.633,45.151-17.887,69.62-32.014   c20.533-11.855,41.873-25.984,57.25-41.941c0.475-0.492,0.951-0.982,1.427-1.473" stroke="#000000" stroke-width="0.25" g2gstroke="#312783" stroke-miterlimit="10"/>
<path stroke-linecap="round" orgstroke="#000000" orgfill="none" transform="translate(-295.5923495625341, 69.5511410735374) translate(13.523832986521029, -13.523832986521171) translate(0.6567110110379417, -1.9701330331140525) translate(-14.792050684180822, -24.829513648446607) translate(185.48729538878888, 48.62288325725535) translate(724,-30) translate(-518.5915025634765, -83.33211865234375) translate(-244.56766961847688, 147.44270991353153) translate(658.0, -6.0) translate(10.0, 10.00006103515625)" fill="none" stroke-linejoin="round" d="   M654.292,397.291c0.886-0.182,1.585-1.271,1.896-1.744c3.203-4.869,5.402-8.111,7.4-10.369" stroke="#000000" stroke-width="0.25" g2gstroke="#312783" stroke-miterlimit="10"/>
<path stroke-linecap="round" orgstroke="#000000" orgfill="none" transform="translate(-295.5923495625341, 69.5511410735374) translate(13.523832986521029, -13.523832986521171) translate(0.6567110110379417, -1.9701330331140525) translate(-14.792050684180822, -24.829513648446607) translate(185.48729538878888, 48.62288325725535) translate(724,-30) translate(-518.5915025634765, -83.33211865234375) translate(-244.56766961847688, 147.44270991353153) translate(658.0, -6.0) translate(10.0, 10.00006103515625)" fill="none" stroke-linejoin="round" d="   M661.914,383.994c8.143-1.41,16.037-3.354,23.241-5.469c3.685-1.08,7.708-2.428,11.829-3.975c1.749-0.656,2.563-1.133,3.25-2.32   c0.604-1.045,1.273-2.682,1.427-3.064" stroke="#000000" stroke-width="0.25" g2gstroke="#312783" stroke-miterlimit="10"/>
<path stroke-linecap="round" orgstroke="#000000" orgfill="none" transform="translate(-295.5923495625341, 69.5511410735374) translate(13.523832986521029, -13.523832986521171) translate(0.6567110110379417, -1.9701330331140525) translate(-14.792050684180822, -24.829513648446607) translate(185.48729538878888, 48.62288325725535) translate(724,-30) translate(-518.5915025634765, -83.33211865234375) translate(-244.56766961847688, 147.44270991353153) translate(658.0, -6.0) translate(10.0, 10.00006103515625)" fill="none" stroke-linejoin="round" d="   M818.109,301.383c2.236-2.334,4.382-4.68,6.235-7.113" stroke="#000000" stroke-width="0.25" g2gstroke="#312783" stroke-miterlimit="10"/>
<path stroke-linecap="round" orgstroke="#000000" orgfill="none" transform="translate(-295.5923495625341, 69.5511410735374) translate(13.523832986521029, -13.523832986521171) translate(0.6567110110379417, -1.9701330331140525) translate(-14.792050684180822, -24.829513648446607) translate(185.48729538878888, 48.62288325725535) translate(724,-30) translate(-518.5915025634765, -83.33211865234375) translate(-244.56766961847688, 147.44270991353153) translate(658.0, -6.0) translate(10.0, 10.00006103515625)" fill="none" stroke-linejoin="round" d="   M805.224,311.143c0.128,0.002,0.256-0.055,0.406-0.193c2.253-2.078,4.427-4.176,6.488-6.316c3.711-3.852,7.518-7.59,10.53-11.576" stroke="#000000" stroke-width="0.25" g2gstroke="#312783" stroke-miterlimit="10"/>
<path orgstroke="#000000" orgfill="none" transform="translate(-295.5923495625341, 69.5511410735374) translate(13.523832986521029, -13.523832986521171) translate(0.6567110110379417, -1.9701330331140525) translate(-14.792050684180822, -24.829513648446607) translate(185.48729538878888, 48.62288325725535) translate(724,-30) translate(-518.5915025634765, -83.33211865234375) translate(-244.56766961847688, 147.44270991353153) translate(658.0, -6.0) translate(10.0, 10.00006103515625)" fill="none" d="M754.406,355.867   c-0.14-0.359-0.353-0.654-0.643-0.867c-0.791-0.578-1.995-0.426-3.274,0.283" stroke="#000000" stroke-width="0.25" g2gstroke="#312783" stroke-miterlimit="10"/>
<path orgstroke="#000000" orgfill="none" transform="translate(-295.5923495625341, 69.5511410735374) translate(13.523832986521029, -13.523832986521171) translate(0.6567110110379417, -1.9701330331140525) translate(-14.792050684180822, -24.829513648446607) translate(185.48729538878888, 48.62288325725535) translate(724,-30) translate(-518.5915025634765, -83.33211865234375) translate(-244.56766961847688, 147.44270991353153) translate(658.0, -6.0) translate(10.0, 10.00006103515625)" fill="none" d="M772.838,344.914   c-0.139-0.313-0.338-0.572-0.6-0.764c-0.828-0.605-2.11-0.41-3.457,0.389" stroke="#000000" stroke-width="0.25" g2gstroke="#312783" stroke-miterlimit="10"/>
<path stroke-linecap="round" orgstroke="#000000" orgfill="none" transform="translate(-295.5923495625341, 69.5511410735374) translate(13.523832986521029, -13.523832986521171) translate(0.6567110110379417, -1.9701330331140525) translate(-14.792050684180822, -24.829513648446607) translate(185.48729538878888, 48.62288325725535) translate(724,-30) translate(-518.5915025634765, -83.33211865234375) translate(-244.56766961847688, 147.44270991353153) translate(658.0, -6.0) translate(10.0, 10.00006103515625)" fill="none" stroke-linejoin="round" d="   M739.432,363.865c0.621-0.318,0.916-0.746,0.881-1.277c-0.022-0.338-0.009-0.84-0.009-1.25c0-1.031-0.311-1.664-1.786-0.896   c-18.669,9.711-36.989,17.779-51.476,22.031c-6.631,1.945-14.669,3.916-22.265,5.336c-0.804,0.15-1.584,0.602-2.111,1.305   c-1.464,1.949-2.348,3.434-3.746,5.568" stroke="#000000" stroke-width="0.25" g2gstroke="#312783" stroke-miterlimit="10"/>
<path orgstroke="#000000" orgfill="none" transform="translate(-295.5923495625341, 69.5511410735374) translate(13.523832986521029, -13.523832986521171) translate(0.6567110110379417, -1.9701330331140525) translate(-14.792050684180822, -24.829513648446607) translate(185.48729538878888, 48.62288325725535) translate(724,-30) translate(-518.5915025634765, -83.33211865234375) translate(-244.56766961847688, 147.44270991353153) translate(658.0, -6.0) translate(10.0, 10.00006103515625)" fill="none" d="M736.146,364.543   c0.621-0.318,0.916-0.715,0.881-1.246s0-1.469,0-1.813c0-0.07,0.004-0.166,0.015-0.275" stroke="#000000" stroke-width="0.25" g2gstroke="#312783" stroke-miterlimit="10"/>
<path orgstroke="#000000" orgfill="none" transform="translate(-295.5923495625341, 69.5511410735374) translate(13.523832986521029, -13.523832986521171) translate(0.6567110110379417, -1.9701330331140525) translate(-14.792050684180822, -24.829513648446607) translate(185.48729538878888, 48.62288325725535) translate(724,-30) translate(-518.5915025634765, -83.33211865234375) translate(-244.56766961847688, 147.44270991353153) translate(658.0, -6.0) translate(10.0, 10.00006103515625)" fill="none" d="M776.593,341.271   c0.065-0.754,0.133-2.061,0.133-2.393c0-0.469,0.038-1.172,0.552-1.5c0.248-0.158,0.748-0.465,0.995-0.625   c13.311-8.568,25.62-17.84,35.64-28.236c3.484-3.615,6.902-7.256,9.969-10.85c0.562-0.658,0.811-0.355,0.938,0.107   c0.228,0.813,0.413,1.5,0.413,1.5" stroke="#000000" stroke-width="0.25" g2gstroke="#312783" stroke-miterlimit="10"/>
<path orgstroke="#000000" orgfill="none" transform="translate(-295.5923495625341, 69.5511410735374) translate(13.523832986521029, -13.523832986521171) translate(0.6567110110379417, -1.9701330331140525) translate(-14.792050684180822, -24.829513648446607) translate(185.48729538878888, 48.62288325725535) translate(724,-30) translate(-518.5915025634765, -83.33211865234375) translate(-244.56766961847688, 147.44270991353153) translate(658.0, -6.0) translate(10.0, 10.00006103515625)" fill="none" d="M822.1840209960938 299.62298583984375L822.7589721679688 301.40399169921875" stroke="#000000" stroke-width="0.25" g2gstroke="#312783" stroke-miterlimit="10"/>
<path stroke-linecap="round" orgstroke="#000000" orgfill="none" transform="translate(-295.5923495625341, 69.5511410735374) translate(13.523832986521029, -13.523832986521171) translate(0.6567110110379417, -1.9701330331140525) translate(-14.792050684180822, -24.829513648446607) translate(185.48729538878888, 48.62288325725535) translate(724,-30) translate(-518.5915025634765, -83.33211865234375) translate(-244.56766961847688, 147.44270991353153) translate(658.0, -6.0) translate(10.0, 10.00006103515625)" fill="none" stroke-linejoin="round" d="   M652.644,395.381l1.041,0.6c0.349,0.201,0.484,0.191,0.726-0.119c0.28-0.361,0.522-0.721,0.667-0.941   c0.067-0.104,0.134-0.203,0.2-0.305" stroke="#000000" stroke-width="0.25" g2gstroke="#312783" stroke-miterlimit="10"/>
<path stroke-linecap="round" orgstroke="#000000" orgfill="none" transform="translate(-295.5923495625341, 69.5511410735374) translate(13.523832986521029, -13.523832986521171) translate(0.6567110110379417, -1.9701330331140525) translate(-14.792050684180822, -24.829513648446607) translate(185.48729538878888, 48.62288325725535) translate(724,-30) translate(-518.5915025634765, -83.33211865234375) translate(-244.56766961847688, 147.44270991353153) translate(658.0, -6.0) translate(10.0, 10.00006103515625)" fill="none" stroke-linejoin="round" d="   M703.58,370.232c0,0-0.771,1.957-1.459,3.145s-1.501,1.664-3.25,2.32c-4.121,1.547-8.145,2.895-11.829,3.975   c-7.119,2.09-14.915,4.008-22.954,5.42c-0.289,0.051-0.527-0.051-0.808-0.213l-1.009-0.58c-0.355-0.205-0.494-0.289-0.213-0.59   c3.151-3.359,5.856-4.414,11.359-5.615c3.517-0.787,6.978-1.678,10.287-2.648c5.43-1.594,11.349-3.695,17.572-6.191   c0.371-0.148,0.535-0.1,0.762,0.033l1.169,0.672c0.261,0.152,0.398,0.199,0.734,0.064c16.295-6.584,34.608-15.828,51.688-25.689   l1.059-0.611c16.636-9.604,33.342-19.709,47.912-33.01" stroke="#000000" stroke-width="0.25" g2gstroke="#312783" stroke-miterlimit="10"/>
<path stroke-linecap="round" orgstroke="#000000" orgfill="none" transform="translate(-295.5923495625341, 69.5511410735374) translate(13.523832986521029, -13.523832986521171) translate(0.6567110110379417, -1.9701330331140525) translate(-14.792050684180822, -24.829513648446607) translate(185.48729538878888, 48.62288325725535) translate(724,-30) translate(-518.5915025634765, -83.33211865234375) translate(-244.56766961847688, 147.44270991353153) translate(658.0, -6.0) translate(10.0, 10.00006103515625)" fill="none" stroke-linejoin="round" d="   M821.635,290.277c-0.123-0.148-0.381-0.313-0.576-0.076c-0.085,0.092-0.172,0.199-0.261,0.314   c-3.609,4.721-8.561,9.779-9.219,10.494c-2.758,2.99-5.621,5.824-8.574,8.529c-0.226,0.207-0.075,0.219,0.136,0.34l1.25,0.723   c0.21,0.111,0.342,0.207,0.513,0.322l1.737,1.172c0.282,0.162,0.492,0.207,0.783-0.063c2.253-2.078,4.427-4.176,6.488-6.316   c0.46-0.477,0.92-0.951,1.38-1.426" stroke="#000000" stroke-width="0.25" g2gstroke="#312783" stroke-miterlimit="10"/>
<path stroke-linecap="round" orgstroke="#000000" orgfill="none" transform="translate(-295.5923495625341, 69.5511410735374) translate(13.523832986521029, -13.523832986521171) translate(0.6567110110379417, -1.9701330331140525) translate(-14.792050684180822, -24.829513648446607) translate(185.48729538878888, 48.62288325725535) translate(724,-30) translate(-518.5915025634765, -83.33211865234375) translate(-244.56766961847688, 147.44270991353153) translate(658.0, -6.0) translate(10.0, 10.00006103515625)" fill="none" stroke-linejoin="round" d="   M801.142,309.705l1.644,0.947c0.167,0.098,0.189,0.215,0.014,0.367s-0.483,0.42-0.54,0.467" stroke="#000000" stroke-width="0.25" g2gstroke="#312783" stroke-miterlimit="10"/>
<path orgstroke="#000000" orgfill="none" transform="translate(-295.5923495625341, 69.5511410735374) translate(13.523832986521029, -13.523832986521171) translate(0.6567110110379417, -1.9701330331140525) translate(-14.792050684180822, -24.829513648446607) translate(185.48729538878888, 48.62288325725535) translate(724,-30) translate(-518.5915025634765, -83.33211865234375) translate(-244.56766961847688, 147.44270991353153) translate(658.0, -6.0) translate(10.0, 10.00006103515625)" fill="none" d="M815.208,305.789   c-0.01,0.076-0.079,0.516-0.084,0.59c-0.031,0.516,0.235,0.379,0.622,0.014c0.558-0.529,1.314-1.332,1.736-1.816   s0.383-0.361,0.496-1.121c0.026-0.176,0.131-0.887,0.131-1.09c0-0.15,0-0.545,0-0.826c0-0.215,0-0.301-0.174-0.402l-0.067-0.037   c-0.179-0.104-0.223-0.057-0.338,0.063l-0.4,0.414" stroke="#000000" stroke-width="0.25" g2gstroke="#312783" stroke-miterlimit="10"/>
</g>
</g>
</g>
</g>
</g>
</g></svg>