<svg xmlns="http://www.w3.org/2000/svg" xmlns:xlink="http://www.w3.org/1999/xlink" xmlns:x="http://ns.adobe.com/Extensibility/1.0/" xmlns:graph="http://ns.adobe.com/Graphs/1.0/" xmlns:i="http://ns.adobe.com/AdobeIllustrator/10.0/" xmlns:etg="http://www.eurotaxglass.com/etg/evd/" etg:dataTimestamp="1539068912893" contentScriptType="text/ecmascript" zoomAndPan="magnify" contentStyleType="text/css" id="Layer_1" enable-background="new 0 0 1841.891 1595.279" version="1.1" xml:space="preserve" width="1841.891px" preserveAspectRatio="xMidYMid meet" viewBox="0 0 1841.891 1595.279" height="1595.279px" x="0px" y="0px"><g xmlns="http://www.w3.org/2000/svg" objecttype="PS" tooltip="#UNDEFINED" id="233">
<g onmouseover="notifyOwner(AGV_OBJECT_MOUSEOVER, '233(PS)')" transform="translate(-9.433746356535266E-6, 3.356933575560106E-7) translate(-35.71980609130861, -13.200809143066408) translate(44.708733184814434, 94.79042849731445) matrix(0.6117410612267968 0 0 0.6117410612267968 0.2921243287958965 0.477310974878083) translate(-92,-34) " onclick="clickZoom(evt); notifyOwner(AGV_OBJECT_MOUSECLICK, '233(PS)')" onmouseout="notifyOwner(AGV_OBJECT_MOUSEOUT, '233(PS)')" tooltip="#UNDEFINED" id="233-Graphic" objecttype="GRAPHIC">
<g zvalue="234">
<g zvalue="34">
<g zvalue="24">
<g>
<path orgstroke="#000000" orgfill="none" transform="translate(-235.70108919365452, -504.2457727831464) translate(-42.50347510049505, -293.66037342160246) translate(-42.163361648033515, 12.297647147343014) translate(1051,951) translate(2.456825836181622, 1.177978515443101E-5) translate(-566.6236223144531, -50.701335571289064) translate(84.0, -34.0) translate(440.0, -17.0) translate(10.0, 10.00006103515625)" fill="none" d="M574.338,101.661   c2.242,1.924,7.305,6.361,9.236,8.156c19.557,18.176,33.645,38.338,39.621,47.551c2.084,3.211,2.51,3.748,3.182,5.09   c1.158,2.313,0.793,7.35,0.445,8.82c-0.07,0.289-0.365,1.658-0.445,1.873c-5.916,16.273-31.25,36.762-62.283,54.785   c-30.377,17.643-66.199,32.541-94.557,37.311l-0.273,0.047c-6.057,0.906-9.6-0.281-12.279-1.574" stroke="#000000" stroke-width="0.25" g2gstroke="#312783" stroke-miterlimit="10"/>
<path orgstroke="#000000" stroke="#000000" d="   M576.531,102.969c2.283,1.973,7.188,6.27,9.08,8.025c19.559,18.174,33.643,38.338,39.619,47.549   c2.084,3.211,2.512,3.748,3.188,5.09c1.152,2.311,0.789,7.35,0.439,8.82c-0.068,0.289-0.365,1.658-0.439,1.873   c-5.922,16.273-31.252,36.76-62.289,54.785c-30.377,17.641-66.199,32.539-94.553,37.313l-0.275,0.043   c-5.314,0.795-8.697-0.023-11.26-1.107l-0.225-0.1c-0.361-0.172-3.639-1.723-3.971-1.896c-3.582-1.857-5.111-5.158-8.52-11.979   c-4.395-8.775-5.986-10.678-13.861-30.748c-5.148-13.121-8.455-23.688-10.496-31.26c-0.215-0.785,0.195-1.176,0.408-1.33   c12.473-9.064,134.219-78.787,150.01-86.297c0.406-0.191,0.691-0.314,1.049-0.107l1.271,0.732   C576.113,102.612,576.289,102.762,576.531,102.969z" outline-element="true" enable-background="new    " transform="translate(-235.70108919365452, -504.2457727831464) translate(-42.50347510049505, -293.66037342160246) translate(-42.163361648033515, 12.297647147343014) translate(1051,951) translate(2.456825836181622, 1.177978515443101E-5) translate(-566.6236223144531, -50.701335571289064) translate(84.0, -34.0) translate(440.0, -17.0) translate(10.0, 10.00006103515625)" stroke-miterlimit="10" orgfill="#ffffff" fill="#ffffff" stroke-width="0.5" g2gfill="#0096C8" opacity="0.6" g2gstroke="#312783"/>
<linearGradient transform="translate(-235.70108919365452, -504.2457727831464) translate(-42.50347510049505, -293.66037342160246) translate(-42.163361648033515, 12.297647147343014) translate(1051,951) translate(2.456825836181622, 1.177978515443101E-5) translate(-566.6236223144531, -50.701335571289064) translate(84.0, -34.0) translate(440.0, -17.0) translate(10.0, 10.00006103515625)" gradientTransform="matrix(1 0 0 1 348.75 0.9102)" x1="69.8447" x2="286.8279" y1="183.8535" gradientUnits="userSpaceOnUse" y2="183.8535" xmlns:xlink="http://www.w3.org/1999/xlink" xlink:type="simple" xlink:actuate="onLoad" id="226::SVGID_30_" xlink:show="other">
<stop stop-opacity="0.18" stop-color="#FFFFFF" offset="0.0848"/>
<stop stop-opacity="0.39" stop-color="#FFFFFF" offset="0.2846"/>
<stop stop-opacity="0.64" stop-color="#FFFFFF" offset="0.4055"/>
<stop stop-opacity="0.21" stop-color="#FFFFFF" offset="0.6061"/>
<stop stop-opacity="0.5101" stop-color="#FFFFFF" offset="0.7147"/>
<stop stop-opacity="0.65" stop-color="#FFFFFF" offset="0.779"/>
<stop stop-opacity="0.16" stop-color="#FFFFFF" offset="0.9302"/>
<stop stop-opacity="0.19" stop-color="#FFFFFF" offset="0.9879"/>
</linearGradient>
<path orgfill="url(#226::SVGID_30_)" enable-background="new    " transform="translate(-235.70108919365452, -504.2457727831464) translate(-42.50347510049505, -293.66037342160246) translate(-42.163361648033515, 12.297647147343014) translate(1051,951) translate(2.456825836181622, 1.177978515443101E-5) translate(-566.6236223144531, -50.701335571289064) translate(84.0, -34.0) translate(440.0, -17.0) translate(10.0, 10.00006103515625)" fill="url(#226::SVGID_30_)" opacity="0.6" d="M625.232,158.573   c-5.98-9.215-20.066-29.379-39.615-47.553c-1.895-1.754-6.797-6.051-9.086-8.018c-0.127-0.113-0.227-0.197-0.352-0.295   l-0.279,0.295c-11.684,5.195-111.631,62.113-142.514,81.102c-3.85,2.373-6.613,4.172-8.004,5.168   c-0.381,0.281-0.508,0.801-0.338,1.49c1.98,7.611,5.195,17.668,10.461,31.078c7.881,20.068,9.467,21.977,13.863,30.754   c3.412,6.813,5.041,9.945,8.607,11.799c0.17,0.084,0.338,0.182,0.521,0.264c0.098,0.059,0.205,0.113,0.32,0.154   c0.197,0.1,0.381,0.184,0.535,0.256c0.225,0.109,0.449,0.221,0.688,0.322c2.57,1.082,5.941,1.912,11.264,1.111l0.281-0.043   c28.354-4.773,64.166-19.676,94.555-37.314c31.025-18.018,56.357-38.508,62.285-54.785c0.068-0.209,0.365-1.588,0.434-1.867   c0.352-1.477,0.721-6.518-0.434-8.818C627.748,162.323,627.313,161.788,625.232,158.573z"/>
<path orgstroke="#000000" orgfill="none" transform="translate(-235.70108919365452, -504.2457727831464) translate(-42.50347510049505, -293.66037342160246) translate(-42.163361648033515, 12.297647147343014) translate(1051,951) translate(2.456825836181622, 1.177978515443101E-5) translate(-566.6236223144531, -50.701335571289064) translate(84.0, -34.0) translate(440.0, -17.0) translate(10.0, 10.00006103515625)" fill="none" d="M576.52,110.084   c19.611,17.152,35.16,35.256,41.814,46.783c3.51,6.074,5.479,12.246,1.516,19.107c-7.357,12.74-15.158,21.918-36.453,34.996   c-6.91,4.242-10.891,1.824-21.623,8.023c-9.592,5.539-14.07,12.75-23.115,17.748c-20.33,11.227-32.75,14.988-52.137,20.758   c-9.586,3.064-17.215-0.459-21.943-10.549c-3.732-7.969-5.766-10.441-13.289-29.617c-4.789-12.203-7.223-19.418-9.273-26.852   c-0.25-0.91-1.195-4.387,2.557-6.848c31.918-20.939,103.893-60.385,127.824-73.402C574.846,108.901,575.584,109.266,576.52,110.084   z" stroke="#000000" stroke-width="0.25" g2gstroke="#312783" stroke-miterlimit="10"/>
<path orgstroke="#000000" orgfill="none" transform="translate(-235.70108919365452, -504.2457727831464) translate(-42.50347510049505, -293.66037342160246) translate(-42.163361648033515, 12.297647147343014) translate(1051,951) translate(2.456825836181622, 1.177978515443101E-5) translate(-566.6236223144531, -50.701335571289064) translate(84.0, -34.0) translate(440.0, -17.0) translate(10.0, 10.00006103515625)" fill="none" d="M460.041,265.36   c-0.748-0.32-1.428-0.66-2.064-0.99c-3.58-1.859-5.203-4.99-8.619-11.809c-4.393-8.775-5.984-10.68-13.859-30.748   c-5.264-13.416-8.475-23.471-10.453-31.09c-0.176-0.682-0.043-1.205,0.332-1.479c1.389-1,4.15-2.795,8.006-5.168   c30.887-18.986,130.824-75.916,142.508-81.111" stroke="#000000" stroke-width="0.25" g2gstroke="#312783" stroke-miterlimit="10"/>
<path orgstroke="#000000" orgfill="none" transform="translate(-235.70108919365452, -504.2457727831464) translate(-42.50347510049505, -293.66037342160246) translate(-42.163361648033515, 12.297647147343014) translate(1051,951) translate(2.456825836181622, 1.177978515443101E-5) translate(-566.6236223144531, -50.701335571289064) translate(84.0, -34.0) translate(440.0, -17.0) translate(10.0, 10.00006103515625)" fill="none" d="M424.968994140625 189.71499633789062L422.82000732421875 188.47300720214844" stroke="#000000" stroke-width="0.25" g2gstroke="#312783"/>
<path orgstroke="#000000" orgfill="none" transform="translate(-235.70108919365452, -504.2457727831464) translate(-42.50347510049505, -293.66037342160246) translate(-42.163361648033515, 12.297647147343014) translate(1051,951) translate(2.456825836181622, 1.177978515443101E-5) translate(-566.6236223144531, -50.701335571289064) translate(84.0, -34.0) translate(440.0, -17.0) translate(10.0, 10.00006103515625)" fill="none" d="M576.531,102.969   c2.283,1.973,7.188,6.27,9.08,8.025c19.559,18.174,33.643,38.338,39.619,47.549c2.084,3.211,2.512,3.748,3.188,5.09   c1.152,2.311,0.789,7.35,0.439,8.82c-0.068,0.289-0.365,1.658-0.439,1.873c-5.922,16.273-31.252,36.76-62.289,54.785   c-30.377,17.641-66.199,32.539-94.553,37.313l-0.275,0.043c-5.314,0.795-8.697-0.023-11.26-1.107l-0.225-0.1   c-0.361-0.172-3.639-1.723-3.971-1.896c-3.582-1.857-5.111-5.158-8.52-11.979c-4.395-8.775-5.986-10.678-13.861-30.748   c-5.148-13.121-8.455-23.688-10.496-31.26c-0.215-0.785,0.195-1.176,0.408-1.33c12.473-9.064,134.219-78.787,150.01-86.297   c0.406-0.191,0.691-0.314,1.049-0.107l1.271,0.732C576.113,102.612,576.289,102.762,576.531,102.969z" stroke="#000000" stroke-width="0.25" g2gstroke="#312783" stroke-miterlimit="10"/>
</g>
</g>
</g>
</g>
</g>
</g></svg>