<svg xmlns="http://www.w3.org/2000/svg" xmlns:xlink="http://www.w3.org/1999/xlink" xmlns:x="http://ns.adobe.com/Extensibility/1.0/" xmlns:graph="http://ns.adobe.com/Graphs/1.0/" xmlns:i="http://ns.adobe.com/AdobeIllustrator/10.0/" xmlns:etg="http://www.eurotaxglass.com/etg/evd/" etg:dataTimestamp="1539068912893" contentScriptType="text/ecmascript" zoomAndPan="magnify" contentStyleType="text/css" id="Layer_1" enable-background="new 0 0 1841.891 1595.279" version="1.1" xml:space="preserve" width="1841.891px" preserveAspectRatio="xMidYMid meet" viewBox="0 0 1841.891 1595.279" height="1595.279px" x="0px" y="0px"><g xmlns="http://www.w3.org/2000/svg" objecttype="PS" tooltip="#UNDEFINED" id="235">
<g onmouseover="notifyOwner(AGV_OBJECT_MOUSEOVER, '235(PS)')" transform="translate(-9.433746356535266E-6, 3.356933575560106E-7) translate(-35.71980609130861, -13.200809143066408) translate(44.708733184814434, 94.79042849731445) matrix(0.6117410612267968 0 0 0.6117410612267968 0.2921243287958965 0.477310974878083) translate(-92,-34) " onclick="clickZoom(evt); notifyOwner(AGV_OBJECT_MOUSECLICK, '235(PS)')" onmouseout="notifyOwner(AGV_OBJECT_MOUSEOUT, '235(PS)')" tooltip="#UNDEFINED" id="235-Graphic" objecttype="GRAPHIC">
<g zvalue="236">
<g zvalue="36">
<g zvalue="28">
<g>
<path orgstroke="#000000" orgfill="none" transform="translate(-235.70108919365452, -504.2457727831464) translate(-42.50347510049505, -293.66037342160246) translate(49.926936414378815, 10.13010304059867) translate(-42.163361648033515, 12.297647147343014) translate(1051,951) translate(2.456825836181622, 1.177978515443101E-5) translate(-566.6236223144531, -50.701335571289064) translate(2.154488474034224, 9.69519813315381) translate(-8.476427269691044, 1.0595534087113663) translate(99.59802041886905, -41.32258293974357) translate(84.0, -34.0) translate(440.0, -17.0) translate(10.0, 10.00006103515625)" fill="none" d="M226.259,264.534   c-1.639,0.674-3.495,0.949-5.291,0.949c-2.51,0-4.889-0.539-6.334-1.277c-5.217-2.664-36.516-20.621-54.872-31.25   c-0.263-0.154-0.315-0.297-0.315-0.639c0-0.701,0.041-1.77,0.041-2.289c0-9.131,0.691-55.143,0.855-66.531" stroke="#000000" stroke-width="0.25" g2gstroke="#312783" stroke-miterlimit="10"/>
<path orgstroke="#000000" stroke="#000000" d="   M225.077,265.217c0.488-0.201,2.134-1.115,2.569-1.385c2.609-1.621,3.852-4.287,3.803-8.154c-0.127-9.867-2.93-19.83-6.479-32.443   c-0.373-1.316-0.746-2.66-1.134-4.027c-0.087-0.314-0.184-0.689-0.296-1.119c-1.242-4.797-4.548-17.541-18.515-27.197   c-5.189-3.588-25.424-15.846-44.268-27.148c-0.352-0.193-0.415-0.248-0.746-0.129c0,0-0.472,0.271-0.867,0.5   c-0.276,0.162-0.519,0.348-0.519,0.766c0,0.416-0.853,56.938-0.853,66.07c0,0.518-0.042,1.586-0.042,2.285   c0,0.344,0.053,0.488,0.316,0.639c18.355,10.629,49.654,28.588,54.871,31.254c1.445,0.736,3.824,1.277,6.334,1.277   c1.885,0,3.846-0.305,5.541-1.057L225.077,265.217z" outline-element="true" enable-background="new    " transform="translate(-235.70108919365452, -504.2457727831464) translate(-42.50347510049505, -293.66037342160246) translate(49.926936414378815, 10.13010304059867) translate(-42.163361648033515, 12.297647147343014) translate(1051,951) translate(2.456825836181622, 1.177978515443101E-5) translate(-566.6236223144531, -50.701335571289064) translate(2.154488474034224, 9.69519813315381) translate(-8.476427269691044, 1.0595534087113663) translate(99.59802041886905, -41.32258293974357) translate(84.0, -34.0) translate(440.0, -17.0) translate(10.0, 10.00006103515625)" stroke-miterlimit="10" orgfill="#ffffff" fill="#ffffff" stroke-width="0.5" g2gfill="#0096C8" opacity="0.6" g2gstroke="#312783"/>
<linearGradient transform="translate(-235.70108919365452, -504.2457727831464) translate(-42.50347510049505, -293.66037342160246) translate(49.926936414378815, 10.13010304059867) translate(-42.163361648033515, 12.297647147343014) translate(1051,951) translate(2.456825836181622, 1.177978515443101E-5) translate(-566.6236223144531, -50.701335571289064) translate(2.154488474034224, 9.69519813315381) translate(-8.476427269691044, 1.0595534087113663) translate(99.59802041886905, -41.32258293974357) translate(84.0, -34.0) translate(440.0, -17.0) translate(10.0, 10.00006103515625)" gradientTransform="matrix(-1 0 0 1 1466.2266 0.9102)" x1="1293.2305" x2="1255.1483" y1="248.1489" gradientUnits="userSpaceOnUse" y2="182.1883" xmlns:xlink="http://www.w3.org/1999/xlink" xlink:type="simple" xlink:actuate="onLoad" id="228::SVGID_32_" xlink:show="other">
<stop stop-opacity="0.83" stop-color="#FFFFFF" offset="0.0439"/>
<stop stop-opacity="0.56" stop-color="#FFFFFF" offset="0.2647"/>
<stop stop-opacity="0.6" stop-color="#FFFFFF" offset="0.3561"/>
<stop stop-opacity="0.35" stop-color="#FFFFFF" offset="0.5676"/>
<stop stop-opacity="0.44" stop-color="#FFFFFF" offset="0.6933"/>
<stop stop-opacity="0.6" stop-color="#FFFFFF" offset="0.8428"/>
<stop stop-opacity="0.22" stop-color="#FFFFFF" offset="0.9853"/>
</linearGradient>
<path orgfill="url(#228::SVGID_32_)" enable-background="new    " transform="translate(-235.70108919365452, -504.2457727831464) translate(-42.50347510049505, -293.66037342160246) translate(49.926936414378815, 10.13010304059867) translate(-42.163361648033515, 12.297647147343014) translate(1051,951) translate(2.456825836181622, 1.177978515443101E-5) translate(-566.6236223144531, -50.701335571289064) translate(2.154488474034224, 9.69519813315381) translate(-8.476427269691044, 1.0595534087113663) translate(99.59802041886905, -41.32258293974357) translate(84.0, -34.0) translate(440.0, -17.0) translate(10.0, 10.00006103515625)" fill="url(#228::SVGID_32_)" opacity="0.6" d="M222.138,220.124c-0.084-0.322-0.184-0.688-0.295-1.125   c-1.234-4.803-4.549-17.537-18.51-27.201c-5.209-3.596-25.644-15.982-44.575-27.33c-0.068,0.1-0.112,0.238-0.112,0.408   c0,0.406-0.855,56.932-0.855,66.061c0,0.52-0.039,1.588-0.039,2.291c0,0.336,0.055,0.492,0.321,0.631   c18.355,10.631,49.646,28.594,54.869,31.26c1.448,0.732,3.821,1.279,6.333,1.279c1.885,0,3.849-0.309,5.535-1.053   c0.209-0.098,0.406-0.184,0.59-0.281c0.182-0.096,0.379-0.209,0.546-0.322c2.614-1.613,3.862-4.283,3.808-8.145   c-0.127-9.873-2.922-19.83-6.474-32.455C222.896,222.834,222.517,221.487,222.138,220.124z"/>
<path orgstroke="#000000" orgfill="none" transform="translate(-235.70108919365452, -504.2457727831464) translate(-42.50347510049505, -293.66037342160246) translate(49.926936414378815, 10.13010304059867) translate(-42.163361648033515, 12.297647147343014) translate(1051,951) translate(2.456825836181622, 1.177978515443101E-5) translate(-566.6236223144531, -50.701335571289064) translate(2.154488474034224, 9.69519813315381) translate(-8.476427269691044, 1.0595534087113663) translate(99.59802041886905, -41.32258293974357) translate(84.0, -34.0) translate(440.0, -17.0) translate(10.0, 10.00006103515625)" fill="none" d="M158.625,164.415   c18.959,11.373,39.456,23.785,44.684,27.4c13.971,9.654,17.273,22.398,18.516,27.195c0.112,0.432,0.208,0.803,0.296,1.119   c0.384,1.369,0.76,2.713,1.133,4.029c3.55,12.611,6.353,22.576,6.479,32.443c0.05,3.865-1.192,6.531-3.802,8.15   c-0.361,0.225-0.743,0.424-1.139,0.6" stroke="#000000" stroke-width="0.25" g2gstroke="#312783" stroke-miterlimit="10"/>
<path orgstroke="#000000" orgfill="none" transform="translate(-235.70108919365452, -504.2457727831464) translate(-42.50347510049505, -293.66037342160246) translate(49.926936414378815, 10.13010304059867) translate(-42.163361648033515, 12.297647147343014) translate(1051,951) translate(2.456825836181622, 1.177978515443101E-5) translate(-566.6236223144531, -50.701335571289064) translate(2.154488474034224, 9.69519813315381) translate(-8.476427269691044, 1.0595534087113663) translate(99.59802041886905, -41.32258293974357) translate(84.0, -34.0) translate(440.0, -17.0) translate(10.0, 10.00006103515625)" fill="none" d="M225.077,265.217   c0.488-0.201,2.134-1.115,2.569-1.385c2.609-1.621,3.852-4.287,3.803-8.154c-0.127-9.867-2.93-19.83-6.479-32.443   c-0.373-1.316-0.746-2.66-1.134-4.027c-0.087-0.314-0.184-0.689-0.296-1.119c-1.242-4.797-4.548-17.541-18.515-27.197   c-5.189-3.588-25.424-15.846-44.268-27.148c-0.352-0.193-0.415-0.248-0.746-0.129c0,0-0.472,0.271-0.867,0.5   c-0.276,0.162-0.519,0.348-0.519,0.766c0,0.416-0.853,56.938-0.853,66.07c0,0.518-0.042,1.586-0.042,2.285   c0,0.344,0.053,0.488,0.316,0.639c18.355,10.629,49.654,28.588,54.871,31.254c1.445,0.736,3.824,1.277,6.334,1.277   c1.885,0,3.846-0.305,5.541-1.057L225.077,265.217z" stroke="#000000" stroke-width="0.25" g2gstroke="#312783" stroke-miterlimit="10"/>
</g>
</g>
</g>
</g>
</g>
</g></svg>