<svg xmlns="http://www.w3.org/2000/svg" xmlns:xlink="http://www.w3.org/1999/xlink" xmlns:x="http://ns.adobe.com/Extensibility/1.0/" xmlns:graph="http://ns.adobe.com/Graphs/1.0/" xmlns:i="http://ns.adobe.com/AdobeIllustrator/10.0/" xmlns:etg="http://www.eurotaxglass.com/etg/evd/" etg:dataTimestamp="1539068912893" contentScriptType="text/ecmascript" zoomAndPan="magnify" contentStyleType="text/css" id="Layer_1" enable-background="new 0 0 1841.891 1595.279" version="1.1" xml:space="preserve" width="1841.891px" preserveAspectRatio="xMidYMid meet" viewBox="0 0 1841.891 1595.279" height="1595.279px" x="0px" y="0px"><g xmlns="http://www.w3.org/2000/svg" objecttype="PS" tooltip="#UNDEFINED" id="242">
<g onmouseover="notifyOwner(AGV_OBJECT_MOUSEOVER, '242(PS)')" transform="translate(-9.433746356535266E-6, 3.356933575560106E-7) translate(-35.71980609130861, -13.200809143066408) translate(44.708733184814434, 94.79042849731445) matrix(0.6117410612267968 0 0 0.6117410612267968 0.2921243287958965 0.477310974878083) translate(-92,-34) " onclick="clickZoom(evt); notifyOwner(AGV_OBJECT_MOUSECLICK, '242(PS)')" onmouseout="notifyOwner(AGV_OBJECT_MOUSEOUT, '242(PS)')" tooltip="#UNDEFINED" id="242-Graphic" objecttype="GRAPHIC">
<g zvalue="243">
<g zvalue="53">
<g>
<path orgstroke="#000000" orgfill="#ffffff" transform="translate(-235.70108919365452, -504.2457727831464) translate(-42.50347510049505, -293.66037342160246) translate(-7.766191290947518, -5.648139120689166) translate(-42.163361648033515, 12.297647147343014) translate(1051,951) translate(2.456825836181622, 1.177978515443101E-5) translate(-566.6236223144531, -50.701335571289064) translate(613.4814236438849, -5.29776704355686) translate(-2.804301256811584, -2.8043012568115557) translate(47.742954833984356, -12.24202313232422)" fill="#ffffff" g2gfill="#ECC35D" d="M417.156,352.365   c-10.98,4.136-18.027,1.194-26.317-1.455c-3.594-1.104-8.554-2.813-8.554-2.813s-16.688-5.229-19.277-6.027   c-0.49-0.146-0.65-0.211-1.292-0.394l-2.052-0.479c0,0-1.319-0.205-1.86-0.072c-0.542,0.146-1.68,0.371-1.68,0.619   c0,0.251,0.729,3.146,0.949,3.754c0.225,0.615,0.567,0.877,1.026,1.033c0.458,0.152,1.066,0.313,1.697,0.58   c0.479,0.211,1.479,2.479,2.753,2.867c1.104,0.34,2.406,0.719,3.797,1.119c0,0,0.292,0.084,0.489,0.084   c0.195,0,0.813-0.339,1.283-0.611c0.75-0.433,0.1,1.152,0.633,1.221c0.509,0.146,5.888,1.691,8.133,2.404   c1.981,0.633,2.191-1.039,3.604-0.613c1.35,0.402,5.313,1.83,9.179,3.021c8.896,2.846,16.461,6.002,28.245,1.563   c0,0,0.793-0.313,0.793-2.686c0-0.396,0-1.813,0-2.146c0-0.317-0.084-0.612-0.497-0.854   C417.801,352.233,417.156,352.365,417.156,352.365z" stroke="#000000" outline-element="true" stroke-width="0.5" g2gstroke="#312783" stroke-miterlimit="10"/>
<path orgstroke="#000000" orgfill="none" transform="translate(-235.70108919365452, -504.2457727831464) translate(-42.50347510049505, -293.66037342160246) translate(-7.766191290947518, -5.648139120689166) translate(-42.163361648033515, 12.297647147343014) translate(1051,951) translate(2.456825836181622, 1.177978515443101E-5) translate(-566.6236223144531, -50.701335571289064) translate(613.4814236438849, -5.29776704355686) translate(-2.804301256811584, -2.8043012568115557) translate(47.742954833984356, -12.24202313232422)" fill="none" d="M368.649,346.112   c4.373,1.367,8.915,2.789,10.365,3.25" stroke="#000000" stroke-width="0.25" g2gstroke="#312783" stroke-miterlimit="10"/>
<path orgstroke="#000000" orgfill="none" transform="translate(-235.70108919365452, -504.2457727831464) translate(-42.50347510049505, -293.66037342160246) translate(-7.766191290947518, -5.648139120689166) translate(-42.163361648033515, 12.297647147343014) translate(1051,951) translate(2.456825836181622, 1.177978515443101E-5) translate(-566.6236223144531, -50.701335571289064) translate(613.4814236438849, -5.29776704355686) translate(-2.804301256811584, -2.8043012568115557) translate(47.742954833984356, -12.24202313232422)" fill="none" d="M359.17,343.151c0,0,3.541,1.104,7.665,2.396" stroke="#000000" stroke-width="0.25" g2gstroke="#312783" stroke-miterlimit="10"/>
<path orgstroke="#000000" orgfill="none" transform="translate(-235.70108919365452, -504.2457727831464) translate(-42.50347510049505, -293.66037342160246) translate(-7.766191290947518, -5.648139120689166) translate(-42.163361648033515, 12.297647147343014) translate(1051,951) translate(2.456825836181622, 1.177978515443101E-5) translate(-566.6236223144531, -50.701335571289064) translate(613.4814236438849, -5.29776704355686) translate(-2.804301256811584, -2.8043012568115557) translate(47.742954833984356, -12.24202313232422)" fill="none" d="M360.028,347.161l-0.976-3.803   c0,0-0.055-0.271-0.055-0.354c0-0.101,0.222-0.282,0.479-0.438c0.412-0.236-1.035-0.459-1.035-0.459   c-0.627-0.137-1.555-0.295-2.146-0.369" stroke="#000000" stroke-width="0.25" g2gstroke="#312783" stroke-miterlimit="10"/>
<path orgstroke="#000000" orgfill="none" transform="translate(-235.70108919365452, -504.2457727831464) translate(-42.50347510049505, -293.66037342160246) translate(-7.766191290947518, -5.648139120689166) translate(-42.163361648033515, 12.297647147343014) translate(1051,951) translate(2.456825836181622, 1.177978515443101E-5) translate(-566.6236223144531, -50.701335571289064) translate(613.4814236438849, -5.29776704355686) translate(-2.804301256811584, -2.8043012568115557) translate(47.742954833984356, -12.24202313232422)" fill="none" d="M378.233,354.274c0,0,0.699-4.232,0.781-4.598   s0.326-0.527,0.541-0.652c0.446-0.256,0.836-0.117,0.836-0.117c0.362,0.115,1.063,0.328,1.063,0.328s4.355,1.507,8.225,2.697   c8.896,2.844,16.46,6,28.247,1.562" stroke="#000000" stroke-width="0.25" g2gstroke="#312783" stroke-miterlimit="10"/>
<path orgstroke="#000000" orgfill="none" transform="translate(-235.70108919365452, -504.2457727831464) translate(-42.50347510049505, -293.66037342160246) translate(-7.766191290947518, -5.648139120689166) translate(-42.163361648033515, 12.297647147343014) translate(1051,951) translate(2.456825836181622, 1.177978515443101E-5) translate(-566.6236223144531, -50.701335571289064) translate(613.4814236438849, -5.29776704355686) translate(-2.804301256811584, -2.8043012568115557) translate(47.742954833984356, -12.24202313232422)" fill="none" d="M379.946,353.401   c-0.05,0-0.462-0.198-0.42-0.479c0.043-0.28,0.585-3.979,0.585-3.979" stroke="#000000" stroke-width="0.25" g2gstroke="#312783" stroke-miterlimit="10"/>
<path orgstroke="#000000" orgfill="none" transform="translate(-235.70108919365452, -504.2457727831464) translate(-42.50347510049505, -293.66037342160246) translate(-7.766191290947518, -5.648139120689166) translate(-42.163361648033515, 12.297647147343014) translate(1051,951) translate(2.456825836181622, 1.177978515443101E-5) translate(-566.6236223144531, -50.701335571289064) translate(613.4814236438849, -5.29776704355686) translate(-2.804301256811584, -2.8043012568115557) translate(47.742954833984356, -12.24202313232422)" fill="none" d="M362.073,346.635   c0.099,0.604,0.563,1.269,1.063,1.466c0.5,0.198,0.827-0.133,0.741-0.74c-0.1-0.611-0.563-1.271-1.063-1.469   C362.317,345.685,361.986,346.017,362.073,346.635z" stroke="#000000" stroke-width="0.25" g2gstroke="#312783" stroke-miterlimit="10"/>
<path orgstroke="#000000" orgfill="none" transform="translate(-235.70108919365452, -504.2457727831464) translate(-42.50347510049505, -293.66037342160246) translate(-7.766191290947518, -5.648139120689166) translate(-42.163361648033515, 12.297647147343014) translate(1051,951) translate(2.456825836181622, 1.177978515443101E-5) translate(-566.6236223144531, -50.701335571289064) translate(613.4814236438849, -5.29776704355686) translate(-2.804301256811584, -2.8043012568115557) translate(47.742954833984356, -12.24202313232422)" fill="none" d="M360.718,346.411   c0.178,1.271,1.15,2.622,2.176,3.036c1.023,0.413,1.709-0.271,1.532-1.536c-0.179-1.266-1.151-2.621-2.175-3.038   C361.226,344.469,360.538,345.147,360.718,346.411z" stroke="#000000" stroke-width="0.25" g2gstroke="#312783" stroke-miterlimit="10"/>
<path orgstroke="#000000" orgfill="none" transform="translate(-235.70108919365452, -504.2457727831464) translate(-42.50347510049505, -293.66037342160246) translate(-7.766191290947518, -5.648139120689166) translate(-42.163361648033515, 12.297647147343014) translate(1051,951) translate(2.456825836181622, 1.177978515443101E-5) translate(-566.6236223144531, -50.701335571289064) translate(613.4814236438849, -5.29776704355686) translate(-2.804301256811584, -2.8043012568115557) translate(47.742954833984356, -12.24202313232422)" fill="none" d="M362.656,345.844   c-0.056,0.128-0.063,0.271-0.026,0.47c0.084,0.61,0.555,1.271,1.05,1.47c0.025,0.019,0.053,0.021,0.081,0.024" stroke="#000000" stroke-width="0.25" g2gstroke="#312783" stroke-miterlimit="10"/>
<path orgstroke="#000000" orgfill="none" transform="translate(-235.70108919365452, -504.2457727831464) translate(-42.50347510049505, -293.66037342160246) translate(-7.766191290947518, -5.648139120689166) translate(-42.163361648033515, 12.297647147343014) translate(1051,951) translate(2.456825836181622, 1.177978515443101E-5) translate(-566.6236223144531, -50.701335571289064) translate(613.4814236438849, -5.29776704355686) translate(-2.804301256811584, -2.8043012568115557) translate(47.742954833984356, -12.24202313232422)" fill="none" d="M374.663,350.385   c0.085,0.604,0.56,1.269,1.054,1.466c0.495,0.198,0.827-0.133,0.742-0.74c-0.085-0.61-0.563-1.27-1.054-1.469   C374.908,349.437,374.577,349.767,374.663,350.385z" stroke="#000000" stroke-width="0.25" g2gstroke="#312783" stroke-miterlimit="10"/>
<path orgstroke="#000000" orgfill="none" transform="translate(-235.70108919365452, -504.2457727831464) translate(-42.50347510049505, -293.66037342160246) translate(-7.766191290947518, -5.648139120689166) translate(-42.163361648033515, 12.297647147343014) translate(1051,951) translate(2.456825836181622, 1.177978515443101E-5) translate(-566.6236223144531, -50.701335571289064) translate(613.4814236438849, -5.29776704355686) translate(-2.804301256811584, -2.8043012568115557) translate(47.742954833984356, -12.24202313232422)" fill="none" d="M373.311,350.162   c0.178,1.271,1.151,2.622,2.176,3.036c1.023,0.412,1.71-0.271,1.532-1.538c-0.177-1.263-1.146-2.618-2.175-3.036   C373.818,348.219,373.133,348.897,373.311,350.162z" stroke="#000000" stroke-width="0.25" g2gstroke="#312783" stroke-miterlimit="10"/>
<path orgstroke="#000000" orgfill="none" transform="translate(-235.70108919365452, -504.2457727831464) translate(-42.50347510049505, -293.66037342160246) translate(-7.766191290947518, -5.648139120689166) translate(-42.163361648033515, 12.297647147343014) translate(1051,951) translate(2.456825836181622, 1.177978515443101E-5) translate(-566.6236223144531, -50.701335571289064) translate(613.4814236438849, -5.29776704355686) translate(-2.804301256811584, -2.8043012568115557) translate(47.742954833984356, -12.24202313232422)" fill="none" d="M375.252,349.594   c-0.047,0.125-0.063,0.271-0.029,0.47c0.084,0.609,0.557,1.271,1.052,1.469c0.025,0.021,0.063,0.021,0.079,0.025" stroke="#000000" stroke-width="0.25" g2gstroke="#312783" stroke-miterlimit="10"/>
<path orgstroke="#000000" orgfill="none" transform="translate(-235.70108919365452, -504.2457727831464) translate(-42.50347510049505, -293.66037342160246) translate(-7.766191290947518, -5.648139120689166) translate(-42.163361648033515, 12.297647147343014) translate(1051,951) translate(2.456825836181622, 1.177978515443101E-5) translate(-566.6236223144531, -50.701335571289064) translate(613.4814236438849, -5.29776704355686) translate(-2.804301256811584, -2.8043012568115557) translate(47.742954833984356, -12.24202313232422)" fill="none" d="M366.85,350.911c0,0,0-4.217,0-4.79   c0-0.688,0.461-0.999,0.461-0.999l0.646-0.357c0,0,0.396-0.246,1.352,0c1.021,0.268,0.343,0.521,0.343,0.521l-0.641,0.369   c0,0-0.461,0.31-0.461,0.998c0,0.387,0,2.438,0,3.729" stroke="#000000" stroke-width="0.25" g2gstroke="#312783" stroke-miterlimit="10"/>
<path orgstroke="#000000" orgfill="none" transform="translate(-235.70108919365452, -504.2457727831464) translate(-42.50347510049505, -293.66037342160246) translate(-7.766191290947518, -5.648139120689166) translate(-42.163361648033515, 12.297647147343014) translate(1051,951) translate(2.456825836181622, 1.177978515443101E-5) translate(-566.6236223144531, -50.701335571289064) translate(613.4814236438849, -5.29776704355686) translate(-2.804301256811584, -2.8043012568115557) translate(47.742954833984356, -12.24202313232422)" fill="none" d="M387.788,352.618   c-2.563-0.813-5.026-1.646-6.023-1.994c0,0-0.406-0.195-0.473,0.242c-0.066,0.451-0.188,1.271-0.201,1.365   c-0.042,0.278,0.42,0.479,0.42,0.479l0.105,0.05c0.813,0.271,3.122,1.063,5.604,1.854c0,0,0.881,0.357,1.001-0.211   c0.039-0.256,0.104-0.643,0.169-1.141C388.466,352.778,387.788,352.618,387.788,352.618z" stroke="#000000" stroke-width="0.25" g2gstroke="#312783" stroke-miterlimit="10"/>
<path orgstroke="#000000" orgfill="none" transform="translate(-235.70108919365452, -504.2457727831464) translate(-42.50347510049505, -293.66037342160246) translate(-7.766191290947518, -5.648139120689166) translate(-42.163361648033515, 12.297647147343014) translate(1051,951) translate(2.456825836181622, 1.177978515443101E-5) translate(-566.6236223144531, -50.701335571289064) translate(613.4814236438849, -5.29776704355686) translate(-2.804301256811584, -2.8043012568115557) translate(47.742954833984356, -12.24202313232422)" fill="none" d="M396.643,356.894   c-1.994-0.533-4.003-1.17-6.091-1.84c0,0-0.055-0.029-0.188-0.105c-0.146-0.077,0.146-1.396,0.146-1.396" stroke="#000000" stroke-width="0.25" g2gstroke="#312783" stroke-miterlimit="10"/>
<path orgstroke="#000000" orgfill="none" transform="translate(-235.70108919365452, -504.2457727831464) translate(-42.50347510049505, -293.66037342160246) translate(-7.766191290947518, -5.648139120689166) translate(-42.163361648033515, 12.297647147343014) translate(1051,951) translate(2.456825836181622, 1.177978515443101E-5) translate(-566.6236223144531, -50.701335571289064) translate(613.4814236438849, -5.29776704355686) translate(-2.804301256811584, -2.8043012568115557) translate(47.742954833984356, -12.24202313232422)" fill="none" d="M382.154,350.76   c-0.063,0.452-0.146,1.05-0.168,1.138c-0.041,0.279,0.421,0.479,0.421,0.479l0.107,0.05c0.816,0.271,3.116,1.061,5.6,1.854" stroke="#000000" stroke-width="0.25" g2gstroke="#312783" stroke-miterlimit="10"/>
<path orgstroke="#000000" orgfill="none" transform="translate(-235.70108919365452, -504.2457727831464) translate(-42.50347510049505, -293.66037342160246) translate(-7.766191290947518, -5.648139120689166) translate(-42.163361648033515, 12.297647147343014) translate(1051,951) translate(2.456825836181622, 1.177978515443101E-5) translate(-566.6236223144531, -50.701335571289064) translate(613.4814236438849, -5.29776704355686) translate(-2.804301256811584, -2.8043012568115557) translate(47.742954833984356, -12.24202313232422)" fill="none" d="M396.254,355.302   c-1.188-0.354-2.371-0.729-3.569-1.107l-1.961-0.617c-0.161-0.055-0.304-0.104-0.424-0.145c0,0-0.406-0.209-0.475,0.241   c-0.064,0.438-0.188,1.261-0.199,1.354c-0.041,0.279,0.421,0.479,0.421,0.479l0.104,0.051c0.104,0.034,0.229,0.074,0.354,0.119   l1.976,0.631c1.156,0.375,2.313,0.739,3.444,1.074c0,0,0.984,0.396,1.052-0.26c0.065-0.396,0.147-0.813,0.147-1.188   C397.132,355.511,396.254,355.302,396.254,355.302z" stroke="#000000" stroke-width="0.25" g2gstroke="#312783" stroke-miterlimit="10"/>
<path orgstroke="#000000" orgfill="none" transform="translate(-235.70108919365452, -504.2457727831464) translate(-42.50347510049505, -293.66037342160246) translate(-7.766191290947518, -5.648139120689166) translate(-42.163361648033515, 12.297647147343014) translate(1051,951) translate(2.456825836181622, 1.177978515443101E-5) translate(-566.6236223144531, -50.701335571289064) translate(613.4814236438849, -5.29776704355686) translate(-2.804301256811584, -2.8043012568115557) translate(47.742954833984356, -12.24202313232422)" fill="none" d="M400.13,359.399c0,0,0.561-2.586,0.643-3.08   c0.084-0.494,8.229,2.257,17.547-2.127" stroke="#000000" stroke-width="0.25" g2gstroke="#312783" stroke-miterlimit="10"/>
<path orgstroke="#000000" orgfill="none" transform="translate(-235.70108919365452, -504.2457727831464) translate(-42.50347510049505, -293.66037342160246) translate(-7.766191290947518, -5.648139120689166) translate(-42.163361648033515, 12.297647147343014) translate(1051,951) translate(2.456825836181622, 1.177978515443101E-5) translate(-566.6236223144531, -50.701335571289064) translate(613.4814236438849, -5.29776704355686) translate(-2.804301256811584, -2.8043012568115557) translate(47.742954833984356, -12.24202313232422)" fill="none" d="M406.687,357.226   c-0.157,2.313-0.093,2.271,0.857,2.238c4.659-0.213,8.974-1.613,9.374-1.854c0.396-0.229,0.41-2.563,0.41-2.563" stroke="#000000" stroke-width="0.25" g2gstroke="#312783" stroke-miterlimit="10"/>
<path orgstroke="#000000" orgfill="none" transform="translate(-235.70108919365452, -504.2457727831464) translate(-42.50347510049505, -293.66037342160246) translate(-7.766191290947518, -5.648139120689166) translate(-42.163361648033515, 12.297647147343014) translate(1051,951) translate(2.456825836181622, 1.177978515443101E-5) translate(-566.6236223144531, -50.701335571289064) translate(613.4814236438849, -5.29776704355686) translate(-2.804301256811584, -2.8043012568115557) translate(47.742954833984356, -12.24202313232422)" fill="none" d="M400.723,358.957c0,0,3.979,0.729,4.461,0.444   c0.239-0.139,0.383-2.256,0.383-2.256" stroke="#000000" stroke-width="0.25" g2gstroke="#312783" stroke-miterlimit="10"/>
</g>
</g>
</g>
</g>
</g></svg>