<svg xmlns="http://www.w3.org/2000/svg" xmlns:xlink="http://www.w3.org/1999/xlink" xmlns:x="http://ns.adobe.com/Extensibility/1.0/" xmlns:graph="http://ns.adobe.com/Graphs/1.0/" xmlns:i="http://ns.adobe.com/AdobeIllustrator/10.0/" xmlns:etg="http://www.eurotaxglass.com/etg/evd/" etg:dataTimestamp="1539068912893" contentScriptType="text/ecmascript" zoomAndPan="magnify" contentStyleType="text/css" id="Layer_1" enable-background="new 0 0 1841.891 1595.279" version="1.1" xml:space="preserve" width="1841.891px" preserveAspectRatio="xMidYMid meet" viewBox="0 0 1841.891 1595.279" height="1595.279px" x="0px" y="0px"><g xmlns="http://www.w3.org/2000/svg" objecttype="PS" tooltip="#UNDEFINED" id="25">
<g onmouseover="notifyOwner(AGV_OBJECT_MOUSEOVER, '25(PS)')" transform="translate(-9.433746356535266E-6, 3.356933575560106E-7) translate(-35.71980609130861, -13.200809143066408) translate(44.708733184814434, 94.79042849731445) matrix(0.6117410612267968 0 0 0.6117410612267968 0.2921243287958965 0.477310974878083) translate(-92,-34) " onclick="clickZoom(evt); notifyOwner(AGV_OBJECT_MOUSECLICK, '25(PS)')" onmouseout="notifyOwner(AGV_OBJECT_MOUSEOUT, '25(PS)')" tooltip="#UNDEFINED" id="25-Graphic" objecttype="GRAPHIC">
<g zvalue="24">
<g zvalue="53">
<g zvalue="47">
<g>
<path stroke-linecap="round" orgstroke="#000000" orgfill="#ffffff" transform="translate(-295.5923495625341, 69.5511410735374) translate(13.523832986521029, -13.523832986521171) translate(0.6567110110379417, -1.9701330331140525) translate(-14.792050684180822, -24.829513648446607) translate(185.48729538878888, 48.62288325725535) translate(724,-30) translate(-518.5915025634765, -83.33211865234375) translate(-244.56766961847688, 147.44270991353153) translate(658.0, -6.0) translate(10.0, 10.00006103515625)" fill="#ffffff" g2gfill="#ECC35D" d="M827.856,264.783   c0,1.334-0.893,20.393-1.97,23.115c-0.239,0.604,0.042,1.363-0.213,1.926c-0.163,0.359-0.328,0.709-0.495,1.049   c-0.105,0.215-0.146,0.287-0.346,0.17l-0.258-0.148c-0.164-0.061-0.296,0.012-0.369,0.217c-0.072,0.199-0.13,0.326-0.211,0.467   c-0.148,0.258-0.327,0.223-0.596,0.068l-0.199-0.115c-0.192-0.111-0.198-0.111-0.285-0.412c-0.463-1.619-1.111-3.75-1.67-5.025   c-0.184-0.441-0.428-0.277-0.634-0.041c-0.034,0.041-0.068,0.086-0.103,0.131c-3.609,4.721-7.798,8.783-8.456,9.498   c-16.405,17.787-36.584,30.109-56.663,41.699l-1.059,0.611c-23.91,13.805-50.244,26.387-70.054,32.201   c-3.31,0.971-7.979,1.861-11.496,2.648c-8.596,1.877-9.699,3.926-16.806,14.617c-0.256,0.385-0.728,0.621-1.051,0.77   c-0.246,0.113-0.457,0.254-0.568,0.404c-0.347,0.465-0.825,0.932-1.363,1.041l-0.31,0.072c-16.558,3.742-28.653,4.885-38.21,4.336   c-0.229-0.014-0.688-0.029-0.916-0.045c-8.244-0.512-12.33-2.176-16.37-5.318c-4.172-3.246-5.766-13.945-6.381-16.955   c-2.971-14.529-10.562-29.313-20.281-41.773c0,0-0.071-0.131,0.092-0.301s3.025-3.078,3.588-3.691   c0.625-0.68,2.018-2.086,3.547-3.615c1.3-1.301,8.632-9.441,12.98-14.93c0.77-0.971,1.768-2.33,1.979-2.611   s0.666-0.617,0.839-0.717c0.104-0.061,0.422-0.242,0.657-0.377c0.153-0.088,0.341-0.1,0.52,0.021   c1.029,0.691,2.325,1.428,3.972,2.186c7.18,3.303,12.623,6.098,28.609,6.559c11.24,0.326,18.809-2.443,25.135-4.182   c0.371-0.102,0.781-0.219,1.227-0.352c0.291-0.088,0.377-0.127,0.32-0.383c-0.204-0.922-0.409-1.756-0.526-2.217   c-0.088-0.346-0.163-0.449,0.247-0.648l4.813-2.779c0.176-0.102,0.33-0.113,0.54,0.008l0.331,0.189   c0.315,0.182,0.347,0.369,0.393,0.615c0.388,2.1,2.152,11.26,4.029,14.68c0.812,1.48,1.859,2.707,3.014,3.639l0.125,0.109   c1.58,0.977,3.27,1.424,4.774,1.252c1.662-0.191,2.795-0.717,3.776-1.055c20.027-6.764,44.738-19.975,64.41-31.334   c18.762-10.83,38.326-23.604,53.227-37.934c4.055-3.898,4.338-4.652,4.719-11.469c0.237-4.238-0.466-15.697-0.629-18.258   c-0.031-0.492-0.057-0.465,0.406-0.762l2.465-1.424c0.18-0.104,0.247-0.262,0.156-0.588c-1.868-6.73-4.177-13.324-8.245-18.729   c-0.122-0.162-0.235-0.313,0.094-0.625c0.84-0.799,2.791-2.963,3.295-3.512c0.625-0.68,7.397-10.275,11.746-15.764   c0.77-0.971,1.768-2.33,1.979-2.611c0.162-0.215,0.366-0.406,0.609-0.547c0.264-0.152,0.43-0.188,0.608,0.037   c3.501,4.406,5.913,17.486,6.586,23.947c0.007,0.063,0.03,0.35,0.03,0.35c0.175,1.26,1.283,4.65,1.283,6.109   c0,1.461,1.037,10.113,2.428,13.484c1.391,3.373,4.451,9.076,5.703,12.344c1.25,3.268,1.217,9.666,1.217,12.516   C827.594,248.979,827.794,258.223,827.856,264.783z" stroke="#000000" outline-element="true" stroke-width="0.5" g2gstroke="#312783" stroke-miterlimit="10"/>
<path stroke-linecap="round" orgstroke="#000000" orgfill="none" transform="translate(-295.5923495625341, 69.5511410735374) translate(13.523832986521029, -13.523832986521171) translate(0.6567110110379417, -1.9701330331140525) translate(-14.792050684180822, -24.829513648446607) translate(185.48729538878888, 48.62288325725535) translate(724,-30) translate(-518.5915025634765, -83.33211865234375) translate(-244.56766961847688, 147.44270991353153) translate(658.0, -6.0) translate(10.0, 10.00006103515625)" fill="none" stroke-linejoin="round" d="   M592.914,304.617c0.594,0.566,1.341,1.121,2.27,1.656c3.6,2.078,17.648,9.711,31.592,9.92c12.168,0.184,16.113-1.658,21.939-3.244   c4.134-1.125,8.172-2.342,11.93-3.547" stroke="#000000" stroke-width="0.25" g2gstroke="#312783" stroke-miterlimit="10"/>
<path stroke-linecap="round" orgstroke="#000000" orgfill="none" transform="translate(-295.5923495625341, 69.5511410735374) translate(13.523832986521029, -13.523832986521171) translate(0.6567110110379417, -1.9701330331140525) translate(-14.792050684180822, -24.829513648446607) translate(185.48729538878888, 48.62288325725535) translate(724,-30) translate(-518.5915025634765, -83.33211865234375) translate(-244.56766961847688, 147.44270991353153) translate(658.0, -6.0) translate(10.0, 10.00006103515625)" fill="none" stroke-linejoin="round" d="   M593.653,304.176c1.144,0.92,2.76,1.928,5.046,2.979c7.18,3.303,12.623,6.098,28.609,6.559c11.24,0.324,18.809-2.443,25.135-4.182   c1.711-0.471,4.148-1.242,7.044-2.213" stroke="#000000" stroke-width="0.25" g2gstroke="#312783" stroke-miterlimit="10"/>
<path stroke-linecap="round" orgstroke="#000000" orgfill="none" transform="translate(-295.5923495625341, 69.5511410735374) translate(13.523832986521029, -13.523832986521171) translate(0.6567110110379417, -1.9701330331140525) translate(-14.792050684180822, -24.829513648446607) translate(185.48729538878888, 48.62288325725535) translate(724,-30) translate(-518.5915025634765, -83.33211865234375) translate(-244.56766961847688, 147.44270991353153) translate(658.0, -6.0) translate(10.0, 10.00006103515625)" fill="none" stroke-linejoin="round" d="   M664.186,323.965c0.854,1.219,3.127,2.846,7.115,2.357c3.986-0.486,6.107-1.139,7.738-1.699   c20.027-6.764,44.738-19.975,64.41-31.334c18.762-10.83,38.326-23.604,53.227-37.934c4.055-3.898,5.537-7.271,6.065-12.033   c0.721-6.5-0.229-23.07-0.229-23.07" stroke="#000000" stroke-width="0.25" g2gstroke="#312783" stroke-miterlimit="10"/>
<path stroke-linecap="round" orgstroke="#000000" orgfill="none" transform="translate(-295.5923495625341, 69.5511410735374) translate(13.523832986521029, -13.523832986521171) translate(0.6567110110379417, -1.9701330331140525) translate(-14.792050684180822, -24.829513648446607) translate(185.48729538878888, 48.62288325725535) translate(724,-30) translate(-518.5915025634765, -83.33211865234375) translate(-244.56766961847688, 147.44270991353153) translate(658.0, -6.0) translate(10.0, 10.00006103515625)" fill="none" stroke-linejoin="round" d="   M602.283,329.117c2.131,0.863,4.992,1.42,9.082,2.027c7.277,1.08,26.996,2.664,48.385-6.078" stroke="#000000" stroke-width="0.25" g2gstroke="#312783" stroke-miterlimit="10"/>
<ellipse orgstroke="#000000" stroke="#000000" stroke-linecap="round" transform="translate(-295.5923495625341, 69.5511410735374) translate(13.523832986521029, -13.523832986521171) translate(0.6567110110379417, -1.9701330331140525) translate(-14.792050684180822, -24.829513648446607) translate(185.48729538878888, 48.62288325725535) translate(724,-30) translate(-518.5915025634765, -83.33211865234375) translate(-244.56766961847688, 147.44270991353153) translate(658.0, -6.0) translate(10.0, 10.00006103515625)" stroke-miterlimit="10" orgfill="none" fill="none" stroke-width="0.25" stroke-linejoin="round" cx="654.033" rx="1.738" g2gstroke="#312783" cy="353.117" ry="1.738"/>
<ellipse orgstroke="#000000" stroke="#000000" stroke-linecap="round" transform="translate(-295.5923495625341, 69.5511410735374) translate(13.523832986521029, -13.523832986521171) translate(0.6567110110379417, -1.9701330331140525) translate(-14.792050684180822, -24.829513648446607) translate(185.48729538878888, 48.62288325725535) translate(724,-30) translate(-518.5915025634765, -83.33211865234375) translate(-244.56766961847688, 147.44270991353153) translate(658.0, -6.0) translate(10.0, 10.00006103515625) matrix(-0.1684 0.9857 -0.9857 -0.1684 1214.3683 -515.4221)" stroke-miterlimit="10" orgfill="none" fill="none" stroke-width="0.25" stroke-linejoin="round" cx="824.601" rx="1.999" g2gstroke="#312783" ry="0.626" cy="254.537"/>
<path stroke-linecap="round" orgstroke="#000000" orgfill="none" transform="translate(-295.5923495625341, 69.5511410735374) translate(13.523832986521029, -13.523832986521171) translate(0.6567110110379417, -1.9701330331140525) translate(-14.792050684180822, -24.829513648446607) translate(185.48729538878888, 48.62288325725535) translate(724,-30) translate(-518.5915025634765, -83.33211865234375) translate(-244.56766961847688, 147.44270991353153) translate(658.0, -6.0) translate(10.0, 10.00006103515625)" fill="none" stroke-linejoin="round" d="   M809.275,238.588c4.543-2.523,11.879-13.799,10.889-18.336" stroke="#000000" stroke-width="0.25" g2gstroke="#312783" stroke-miterlimit="10"/>
<path stroke-linecap="round" orgstroke="#000000" orgfill="none" transform="translate(-295.5923495625341, 69.5511410735374) translate(13.523832986521029, -13.523832986521171) translate(0.6567110110379417, -1.9701330331140525) translate(-14.792050684180822, -24.829513648446607) translate(185.48729538878888, 48.62288325725535) translate(724,-30) translate(-518.5915025634765, -83.33211865234375) translate(-244.56766961847688, 147.44270991353153) translate(658.0, -6.0) translate(10.0, 10.00006103515625)" fill="none" stroke-linejoin="round" d="   M614.488,366.766c-1.377-7.529-9.195-31.223-19.08-44.654c-2.687-3.65-5.386-7.145-8.127-10.465" stroke="#000000" stroke-width="0.25" g2gstroke="#312783" stroke-miterlimit="10"/>
<path stroke-linecap="round" orgstroke="#000000" orgfill="none" transform="translate(-295.5923495625341, 69.5511410735374) translate(13.523832986521029, -13.523832986521171) translate(0.6567110110379417, -1.9701330331140525) translate(-14.792050684180822, -24.829513648446607) translate(185.48729538878888, 48.62288325725535) translate(724,-30) translate(-518.5915025634765, -83.33211865234375) translate(-244.56766961847688, 147.44270991353153) translate(658.0, -6.0) translate(10.0, 10.00006103515625)" fill="none" stroke-linejoin="round" d="   M809.271,178.344c3.857,4.664,6.48,20.918,6.48,25.412c0,0.533-0.174,1.328-0.336,1.748c-2.225,5.762-5.388,10.707-8.792,14.896   c-0.334,0.412-0.513,0.371-0.899,0.148l-2.592-1.492c-0.377-0.219-0.729-0.176-1.031,0l-1.998,1.154" stroke="#000000" stroke-width="0.25" g2gstroke="#312783" stroke-miterlimit="10"/>
<path stroke-linecap="round" orgstroke="#000000" orgfill="none" transform="translate(-295.5923495625341, 69.5511410735374) translate(13.523832986521029, -13.523832986521171) translate(0.6567110110379417, -1.9701330331140525) translate(-14.792050684180822, -24.829513648446607) translate(185.48729538878888, 48.62288325725535) translate(724,-30) translate(-518.5915025634765, -83.33211865234375) translate(-244.56766961847688, 147.44270991353153) translate(658.0, -6.0) translate(10.0, 10.00006103515625)" fill="none" stroke-linejoin="round" d="   M659.59,302.402l-3.801,2.195c-0.346,0.199-0.233,0.336,0.045,0.496l3.429,1.977c0.261,0.15,0.364,0.277,0.468,0.514   c0.162,0.371,0.352,0.723,0.555,1.074c0.418,0.725,0.771,1.695,0.771,3.086s-0.348,5.84,2.154,10.568   c2.504,4.729,9.67,13.879,26.289,9.15c20.029-6.762,45.199-19.176,64.871-30.535c18.762-10.83,38.324-23.604,53.227-37.934   c2.912-2.799,4.727-7.729,2.688-13.197c-2.039-5.471-4.039-5.42-4.039-16.029c0-3.727,0.791-7.51,0.869-8.352   c0.078-0.869,0.086-1.49-0.053-1.941c-0.089-0.285-0.244-0.742-0.323-0.98" stroke="#000000" stroke-width="0.25" g2gstroke="#312783" stroke-miterlimit="10"/>
<path stroke-linecap="round" orgstroke="#000000" orgfill="none" transform="translate(-295.5923495625341, 69.5511410735374) translate(13.523832986521029, -13.523832986521171) translate(0.6567110110379417, -1.9701330331140525) translate(-14.792050684180822, -24.829513648446607) translate(185.48729538878888, 48.62288325725535) translate(724,-30) translate(-518.5915025634765, -83.33211865234375) translate(-244.56766961847688, 147.44270991353153) translate(658.0, -6.0) translate(10.0, 10.00006103515625)" fill="none" stroke-linejoin="round" d="   M653.63,304.775c0,0-0.21,0.18,0.04,0.324c0.138,0.08,1.531,0.883,2.752,1.586c0.284,0.164,0.527,0.264,0.051,0.416   c-1.211,0.385-2.355,0.74-3.194,0.994" stroke="#000000" stroke-width="0.25" g2gstroke="#312783" stroke-miterlimit="10"/>
<path stroke-linecap="round" orgstroke="#000000" orgfill="none" transform="translate(-295.5923495625341, 69.5511410735374) translate(13.523832986521029, -13.523832986521171) translate(0.6567110110379417, -1.9701330331140525) translate(-14.792050684180822, -24.829513648446607) translate(185.48729538878888, 48.62288325725535) translate(724,-30) translate(-518.5915025634765, -83.33211865234375) translate(-244.56766961847688, 147.44270991353153) translate(658.0, -6.0) translate(10.0, 10.00006103515625)" fill="none" stroke-linejoin="round" d="   M666.83,321.084c1.867,1.51,4.012,2.246,5.871,2.031c1.662-0.191,2.795-0.717,3.776-1.055c20.027-6.764,44.738-19.975,64.41-31.334   c18.762-10.83,38.326-23.604,53.227-37.934c4.055-3.898,4.338-4.65,4.719-11.469c0.268-4.783-0.662-18.771-0.662-18.771" stroke="#000000" stroke-width="0.25" g2gstroke="#312783" stroke-miterlimit="10"/>
<path stroke-linecap="round" orgstroke="#000000" orgfill="none" transform="translate(-295.5923495625341, 69.5511410735374) translate(13.523832986521029, -13.523832986521171) translate(0.6567110110379417, -1.9701330331140525) translate(-14.792050684180822, -24.829513648446607) translate(185.48729538878888, 48.62288325725535) translate(724,-30) translate(-518.5915025634765, -83.33211865234375) translate(-244.56766961847688, 147.44270991353153) translate(658.0, -6.0) translate(10.0, 10.00006103515625)" fill="none" stroke-linejoin="round" d="   M807.165,224.684c4.604-4.168,8.396-10.283,11.017-16.988" stroke="#000000" stroke-width="0.25" g2gstroke="#312783" stroke-miterlimit="10"/>
<path stroke-linecap="round" orgstroke="#000000" orgfill="none" transform="translate(-295.5923495625341, 69.5511410735374) translate(13.523832986521029, -13.523832986521171) translate(0.6567110110379417, -1.9701330331140525) translate(-14.792050684180822, -24.829513648446607) translate(185.48729538878888, 48.62288325725535) translate(724,-30) translate(-518.5915025634765, -83.33211865234375) translate(-244.56766961847688, 147.44270991353153) translate(658.0, -6.0) translate(10.0, 10.00006103515625)" fill="none" stroke-linejoin="round" d="   M816.951,202.008c0.148,1.729-0.085,3.875-0.179,4.145c-1.178,3.355-2.635,5.939-4.259,8.563c-1.773,2.861-3.745,5.451-5.774,7.779   l-3.832-2.209c-0.406-0.232-0.613-0.113-0.849,0.023l-3.512,2.027c-0.237,0.137-0.376,0.217-0.641,0.016l-0.584-0.336" stroke="#000000" stroke-width="0.25" g2gstroke="#312783" stroke-miterlimit="10"/>
<path orgstroke="#000000" orgfill="none" transform="translate(-295.5923495625341, 69.5511410735374) translate(13.523832986521029, -13.523832986521171) translate(0.6567110110379417, -1.9701330331140525) translate(-14.792050684180822, -24.829513648446607) translate(185.48729538878888, 48.62288325725535) translate(724,-30) translate(-518.5915025634765, -83.33211865234375) translate(-244.56766961847688, 147.44270991353153) translate(658.0, -6.0) translate(10.0, 10.00006103515625)" fill="none" d="M796.061,200.506   c0.06,0.426,0.389,0.885,0.734,1.025c0.346,0.139,0.578-0.094,0.518-0.52s-0.389-0.885-0.734-1.025S796,200.08,796.061,200.506z" stroke="#000000" stroke-width="0.25" g2gstroke="#312783" stroke-miterlimit="10"/>
<path orgstroke="#000000" orgfill="none" transform="translate(-295.5923495625341, 69.5511410735374) translate(13.523832986521029, -13.523832986521171) translate(0.6567110110379417, -1.9701330331140525) translate(-14.792050684180822, -24.829513648446607) translate(185.48729538878888, 48.62288325725535) translate(724,-30) translate(-518.5915025634765, -83.33211865234375) translate(-244.56766961847688, 147.44270991353153) translate(658.0, -6.0) translate(10.0, 10.00006103515625)" fill="none" d="M798.503,207.443   c0.06,0.426,0.389,0.885,0.734,1.025c0.346,0.139,0.578-0.094,0.518-0.52s-0.389-0.885-0.734-1.025   S798.442,207.018,798.503,207.443z" stroke="#000000" stroke-width="0.25" g2gstroke="#312783" stroke-miterlimit="10"/>
<path orgstroke="#000000" orgfill="none" transform="translate(-295.5923495625341, 69.5511410735374) translate(13.523832986521029, -13.523832986521171) translate(0.6567110110379417, -1.9701330331140525) translate(-14.792050684180822, -24.829513648446607) translate(185.48729538878888, 48.62288325725535) translate(724,-30) translate(-518.5915025634765, -83.33211865234375) translate(-244.56766961847688, 147.44270991353153) translate(658.0, -6.0) translate(10.0, 10.00006103515625)" fill="none" d="M800.945,214.381   c0.06,0.426,0.389,0.885,0.734,1.025c0.346,0.139,0.578-0.094,0.518-0.52s-0.389-0.885-0.734-1.025   S800.885,213.955,800.945,214.381z" stroke="#000000" stroke-width="0.25" g2gstroke="#312783" stroke-miterlimit="10"/>
<path stroke-linecap="round" orgstroke="#000000" orgfill="none" transform="translate(-295.5923495625341, 69.5511410735374) translate(13.523832986521029, -13.523832986521171) translate(0.6567110110379417, -1.9701330331140525) translate(-14.792050684180822, -24.829513648446607) translate(185.48729538878888, 48.62288325725535) translate(724,-30) translate(-518.5915025634765, -83.33211865234375) translate(-244.56766961847688, 147.44270991353153) translate(658.0, -6.0) translate(10.0, 10.00006103515625)" fill="none" stroke-linejoin="round" d="   M710.669,333c-0.138,0.969-0.885,2.012-1.669,2.33c-0.787,0.318-1.315-0.211-1.178-1.182c0.137-0.969,0.884-2.012,1.671-2.33   C710.277,331.502,710.806,332.029,710.669,333z" stroke="#000000" stroke-width="0.25" g2gstroke="#312783" stroke-miterlimit="10"/>
<path stroke-linecap="round" orgstroke="#000000" orgfill="none" transform="translate(-295.5923495625341, 69.5511410735374) translate(13.523832986521029, -13.523832986521171) translate(0.6567110110379417, -1.9701330331140525) translate(-14.792050684180822, -24.829513648446607) translate(185.48729538878888, 48.62288325725535) translate(724,-30) translate(-518.5915025634765, -83.33211865234375) translate(-244.56766961847688, 147.44270991353153) translate(658.0, -6.0) translate(10.0, 10.00006103515625)" fill="none" stroke-linejoin="round" d="   M794.672,284.525c-0.138,0.969-0.885,2.012-1.669,2.33c-0.787,0.318-1.315-0.211-1.178-1.182c0.137-0.969,0.884-2.012,1.671-2.33   C794.28,283.027,794.809,283.555,794.672,284.525z" stroke="#000000" stroke-width="0.25" g2gstroke="#312783" stroke-miterlimit="10"/>
<path stroke-linecap="round" orgstroke="#000000" orgfill="none" transform="translate(-295.5923495625341, 69.5511410735374) translate(13.523832986521029, -13.523832986521171) translate(0.6567110110379417, -1.9701330331140525) translate(-14.792050684180822, -24.829513648446607) translate(185.48729538878888, 48.62288325725535) translate(724,-30) translate(-518.5915025634765, -83.33211865234375) translate(-244.56766961847688, 147.44270991353153) translate(658.0, -6.0) translate(10.0, 10.00006103515625)" fill="none" stroke-linejoin="round" d="   M652.257,387.459c9.759-15.895,10.841-17.283,21.434-19.594c9.46-2.064,24.023-7.006,29.847-9.836   c0.839-0.408,1.037-0.734,1.377-1.561c1.264-3.072,7.908-19.697,9.294-22.408c1.53-2.99,1.879-5.295,9.76-9.068   c9.408-4.504,19.65-9.555,27.838-14.281c10.12-5.844,20.419-12.264,30.14-19.133c3.364-2.377,8.885-4.871,10.914,0.859   c0.496,1.398,2.731,8.598,3.44,11.199c0.241,0.887,0.592,0.943,1.785-0.107c7.642-6.736,13.844-12.945,21.529-22.588   c0.802-1.006,2.726-2.021,4.005,1.113c0.484,1.188,2.082,5.344,2.268,5.844" stroke="#000000" stroke-width="0.25" g2gstroke="#312783" stroke-miterlimit="10"/>
<path stroke-linecap="round" orgstroke="#000000" orgfill="none" transform="translate(-295.5923495625341, 69.5511410735374) translate(13.523832986521029, -13.523832986521171) translate(0.6567110110379417, -1.9701330331140525) translate(-14.792050684180822, -24.829513648446607) translate(185.48729538878888, 48.62288325725535) translate(724,-30) translate(-518.5915025634765, -83.33211865234375) translate(-244.56766961847688, 147.44270991353153) translate(658.0, -6.0) translate(10.0, 10.00006103515625)" fill="none" stroke-linejoin="round" d="   M575.011,325.553c7.819,9.951,14.255,21.25,18.438,32.736c1.635,4.488,4.39,13.961,5.482,18.396   c0.834,3.383,3.204,15.375,7.491,16.322" stroke="#000000" stroke-width="0.25" g2gstroke="#312783" stroke-miterlimit="10"/>
<path stroke-linecap="round" orgstroke="#000000" orgfill="none" transform="translate(-295.5923495625341, 69.5511410735374) translate(13.523832986521029, -13.523832986521171) translate(0.6567110110379417, -1.9701330331140525) translate(-14.792050684180822, -24.829513648446607) translate(185.48729538878888, 48.62288325725535) translate(724,-30) translate(-518.5915025634765, -83.33211865234375) translate(-244.56766961847688, 147.44270991353153) translate(658.0, -6.0) translate(10.0, 10.00006103515625)" fill="none" stroke-linejoin="round" d="   M611.922,347.834c20.588,3.65,44.691-0.779,63.883-6.412s53.064-20.674,77.533-34.803c20.533-11.855,41.873-25.982,57.25-41.939   c8.529-8.852,17.557-17.121,16.342-29.107" stroke="#000000" stroke-width="0.25" g2gstroke="#312783" stroke-miterlimit="10"/>
<path stroke-linecap="round" orgstroke="#000000" orgfill="none" transform="translate(-295.5923495625341, 69.5511410735374) translate(13.523832986521029, -13.523832986521171) translate(0.6567110110379417, -1.9701330331140525) translate(-14.792050684180822, -24.829513648446607) translate(185.48729538878888, 48.62288325725535) translate(724,-30) translate(-518.5915025634765, -83.33211865234375) translate(-244.56766961847688, 147.44270991353153) translate(658.0, -6.0) translate(10.0, 10.00006103515625)" fill="none" stroke-linejoin="round" d="   M651.078,390.104c10.235-15.621,11.887-18.234,22.479-20.547c3.518-0.787,6.921-1.666,10.162-2.617   c19.191-5.633,45.151-17.887,69.62-32.014c20.533-11.855,45.296-26.236,67.129-52.57c0.821-0.99,1.429-1.633,2.066-0.988   c1.074,1.084,2.749,6.303,3.255,7.809" stroke="#000000" stroke-width="0.25" g2gstroke="#312783" stroke-miterlimit="10"/>
<path stroke-linecap="round" orgstroke="#000000" orgfill="none" transform="translate(-295.5923495625341, 69.5511410735374) translate(13.523832986521029, -13.523832986521171) translate(0.6567110110379417, -1.9701330331140525) translate(-14.792050684180822, -24.829513648446607) translate(185.48729538878888, 48.62288325725535) translate(724,-30) translate(-518.5915025634765, -83.33211865234375) translate(-244.56766961847688, 147.44270991353153) translate(658.0, -6.0) translate(10.0, 10.00006103515625)" fill="none" stroke-linejoin="round" d="   M705.385,355.314c15.976-6.836,33.586-15.447,47.954-23.742c12.886-7.439,27.448-15.447,42.452-27.84" stroke="#000000" stroke-width="0.25" g2gstroke="#312783" stroke-miterlimit="10"/>
<path stroke-linecap="round" orgstroke="#000000" orgfill="none" transform="translate(-295.5923495625341, 69.5511410735374) translate(13.523832986521029, -13.523832986521171) translate(0.6567110110379417, -1.9701330331140525) translate(-14.792050684180822, -24.829513648446607) translate(185.48729538878888, 48.62288325725535) translate(724,-30) translate(-518.5915025634765, -83.33211865234375) translate(-244.56766961847688, 147.44270991353153) translate(658.0, -6.0) translate(10.0, 10.00006103515625)" fill="none" stroke-linejoin="round" d="   M821.967,283.318c0.055,0.088,0.11,0.189,0.167,0.309c0.957,2.188,2.182,6.889,2.277,7.207" stroke="#000000" stroke-width="0.25" g2gstroke="#312783" stroke-miterlimit="10"/>
<path stroke-linecap="round" orgstroke="#000000" orgfill="none" transform="translate(-295.5923495625341, 69.5511410735374) translate(13.523832986521029, -13.523832986521171) translate(0.6567110110379417, -1.9701330331140525) translate(-14.792050684180822, -24.829513648446607) translate(185.48729538878888, 48.62288325725535) translate(724,-30) translate(-518.5915025634765, -83.33211865234375) translate(-244.56766961847688, 147.44270991353153) translate(658.0, -6.0) translate(10.0, 10.00006103515625)" fill="none" stroke-linejoin="round" d="   M796.618,304.244c0,0-0.306-0.211-0.677-0.426c-0.371-0.213-9.806-14.457-9.806-14.457" stroke="#000000" stroke-width="0.25" g2gstroke="#312783" stroke-miterlimit="10"/>
<path stroke-linecap="round" orgstroke="#000000" orgfill="none" transform="translate(-295.5923495625341, 69.5511410735374) translate(13.523832986521029, -13.523832986521171) translate(0.6567110110379417, -1.9701330331140525) translate(-14.792050684180822, -24.829513648446607) translate(185.48729538878888, 48.62288325725535) translate(724,-30) translate(-518.5915025634765, -83.33211865234375) translate(-244.56766961847688, 147.44270991353153) translate(658.0, -6.0) translate(10.0, 10.00006103515625)" fill="none" stroke-linejoin="round" d="   M654.468,388.482c0.177-0.242,0.32-0.471,0.421-0.625c8.442-12.838,9.912-14.359,19.102-16.363c3.517-0.787,6.978-1.68,10.287-2.65   c19.81-5.814,46.144-18.395,70.054-32.199l1.059-0.611c20.079-11.592,40.258-23.914,56.663-41.701   c0.658-0.715,5.609-5.771,9.219-10.492c0.51-0.666,0.935-1.031,1.484,0.113c0.912,2.084,2.067,6.453,2.256,7.133" stroke="#000000" stroke-width="0.25" g2gstroke="#312783" stroke-miterlimit="10"/>
<path stroke-linecap="round" orgstroke="#000000" orgfill="none" transform="translate(-295.5923495625341, 69.5511410735374) translate(13.523832986521029, -13.523832986521171) translate(0.6567110110379417, -1.9701330331140525) translate(-14.792050684180822, -24.829513648446607) translate(185.48729538878888, 48.62288325725535) translate(724,-30) translate(-518.5915025634765, -83.33211865234375) translate(-244.56766961847688, 147.44270991353153) translate(658.0, -6.0) translate(10.0, 10.00006103515625)" fill="none" stroke-linejoin="round" d="   M820.817,285.816c0.384-0.385,0.74-0.426,1.176,0.48c0.593,1.355,1.289,3.824,1.755,5.471" stroke="#000000" stroke-width="0.25" g2gstroke="#312783" stroke-miterlimit="10"/>
</g>
</g>
</g>
</g>
</g>
</g></svg>