<svg xmlns="http://www.w3.org/2000/svg" xmlns:xlink="http://www.w3.org/1999/xlink" xmlns:x="http://ns.adobe.com/Extensibility/1.0/" xmlns:graph="http://ns.adobe.com/Graphs/1.0/" xmlns:i="http://ns.adobe.com/AdobeIllustrator/10.0/" xmlns:etg="http://www.eurotaxglass.com/etg/evd/" etg:dataTimestamp="1539068912893" contentScriptType="text/ecmascript" zoomAndPan="magnify" contentStyleType="text/css" id="Layer_1" enable-background="new 0 0 1841.891 1595.279" version="1.1" xml:space="preserve" width="1841.891px" preserveAspectRatio="xMidYMid meet" viewBox="0 0 1841.891 1595.279" height="1595.279px" x="0px" y="0px"><g xmlns="http://www.w3.org/2000/svg" objecttype="PS" tooltip="#UNDEFINED" id="256">
<g onmouseover="notifyOwner(AGV_OBJECT_MOUSEOVER, '256(PS)')" transform="translate(-14.128935532233868, 1.1154422788605984) translate(-266.0, -81.0) matrix(0.9308262702849547 0 0 0.9308262702849547 32.13847834234153 38.925230827912905) matrix(0.6437533209908364 0 0 0.6437533209908364 165.51407918918224 200.46604446832214) translate(-20,57) " onclick="clickZoom(evt); notifyOwner(AGV_OBJECT_MOUSECLICK, '256(PS)')" onmouseout="notifyOwner(AGV_OBJECT_MOUSEOUT, '256(PS)')" tooltip="#UNDEFINED" id="256-Graphic" objecttype="GRAPHIC">
<g zvalue="15">
<g zvalue="49">
<g>
<path orgstroke="#000000" orgfill="#ffffff" transform="translate(-15.46768983513789, -16.281778773829387) translate(-135.7864793701172, -15.95862927246094) translate(-23.810883895874042, -7.293701173693989E-6) translate(-637.1092790527343, 18.13041815948486) translate(1.0618615606344974, -1.0618615606344974) translate(-3.893492388992854, -7.433030924441027) translate(867.4310472906743, 41.485832696510556) translate(38.97153980581288, -1.2571464453487806) translate(0.5294176177978329, 3.356933575560106E-7) translate(-3.5913785858154483, 15.975834228515623) translate(-23.0, 0.0) translate(28.171560055253963, 13.223385332058001) translate(5.0, 0.625) translate(-16.0, 31.0) matrix(-1 0 0 1 860.8167724609375 0) translate(-121.0, 91.0) translate(10.0, 10.00006103515625) " fill="#ffffff" g2gfill="#ECF5E5" d="M536.85498046875 314.9339904785156L536.594970703125 322.22100830078125L539.3140258789062 323.7439880371094L546.0579833984375 319.9939880371094L546.2239990234375 312.9330139160156L543.39599609375 311.55999755859375Z" stroke="#000000" outline-element="true" stroke-width="0.5" g2gstroke="#312783" stroke-miterlimit="10"/>
<path orgstroke="#000000" orgfill="none" transform="translate(-15.46768983513789, -16.281778773829387) translate(-135.7864793701172, -15.95862927246094) translate(-23.810883895874042, -7.293701173693989E-6) translate(-637.1092790527343, 18.13041815948486) translate(1.0618615606344974, -1.0618615606344974) translate(-3.893492388992854, -7.433030924441027) translate(867.4310472906743, 41.485832696510556) translate(38.97153980581288, -1.2571464453487806) translate(0.5294176177978329, 3.356933575560106E-7) translate(-3.5913785858154483, 15.975834228515623) translate(-23.0, 0.0) translate(28.171560055253963, 13.223385332058001) translate(5.0, 0.625) translate(-16.0, 31.0) matrix(-1 0 0 1 860.8167724609375 0) translate(-121.0, 91.0) translate(10.0, 10.00006103515625) " fill="none" d="M537.1420288085938 315.1310119628906L539.6380004882812 316.4079895019531L546.1420288085938 312.92999267578125" stroke="#000000" stroke-width="0.25" g2gstroke="#312783" stroke-miterlimit="10"/>
<path orgstroke="#000000" orgfill="none" transform="translate(-15.46768983513789, -16.281778773829387) translate(-135.7864793701172, -15.95862927246094) translate(-23.810883895874042, -7.293701173693989E-6) translate(-637.1092790527343, 18.13041815948486) translate(1.0618615606344974, -1.0618615606344974) translate(-3.893492388992854, -7.433030924441027) translate(867.4310472906743, 41.485832696510556) translate(38.97153980581288, -1.2571464453487806) translate(0.5294176177978329, 3.356933575560106E-7) translate(-3.5913785858154483, 15.975834228515623) translate(-23.0, 0.0) translate(28.171560055253963, 13.223385332058001) translate(5.0, 0.625) translate(-16.0, 31.0) matrix(-1 0 0 1 860.8167724609375 0) translate(-121.0, 91.0) translate(10.0, 10.00006103515625) " fill="none" d="M539.2789916992188 323.5350036621094L539.510986328125 316.510009765625" stroke="#000000" stroke-width="0.25" g2gstroke="#312783" stroke-miterlimit="10"/>
<ellipse orgstroke="#000000" orgfill="none" transform="translate(-15.46768983513789, -16.281778773829387) translate(-135.7864793701172, -15.95862927246094) translate(-23.810883895874042, -7.293701173693989E-6) translate(-637.1092790527343, 18.13041815948486) translate(1.0618615606344974, -1.0618615606344974) translate(-3.893492388992854, -7.433030924441027) translate(867.4310472906743, 41.485832696510556) translate(38.97153980581288, -1.2571464453487806) translate(0.5294176177978329, 3.356933575560106E-7) translate(-3.5913785858154483, 15.975834228515623) translate(-23.0, 0.0) translate(28.171560055253963, 13.223385332058001) translate(5.0, 0.625) translate(-16.0, 31.0) matrix(-1 0 0 1 860.8167724609375 0) translate(-121.0, 91.0) translate(10.0, 10.00006103515625) matrix(-0.8759 -0.4826 0.4826 -0.8759 864.5203 859.0019)" fill="none" rx="1.805" cx="542.749" ry="3.066" cy="318.303" stroke="#000000" stroke-width="0.25" g2gstroke="#312783" stroke-miterlimit="10"/>
<ellipse orgstroke="#000000" orgfill="none" transform="translate(-15.46768983513789, -16.281778773829387) translate(-135.7864793701172, -15.95862927246094) translate(-23.810883895874042, -7.293701173693989E-6) translate(-637.1092790527343, 18.13041815948486) translate(1.0618615606344974, -1.0618615606344974) translate(-3.893492388992854, -7.433030924441027) translate(867.4310472906743, 41.485832696510556) translate(38.97153980581288, -1.2571464453487806) translate(0.5294176177978329, 3.356933575560106E-7) translate(-3.5913785858154483, 15.975834228515623) translate(-23.0, 0.0) translate(28.171560055253963, 13.223385332058001) translate(5.0, 0.625) translate(-16.0, 31.0) matrix(-1 0 0 1 860.8167724609375 0) translate(-121.0, 91.0) translate(10.0, 10.00006103515625) matrix(-0.8752 -0.4838 0.4838 -0.8752 863.6854 859.3757)" fill="none" rx="1.152" cx="542.705" ry="1.96" cy="318.27" stroke="#000000" stroke-width="0.25" g2gstroke="#312783" stroke-miterlimit="10"/>
</g>
</g>
</g>
</g>
</g></svg>