<svg xmlns="http://www.w3.org/2000/svg" xmlns:xlink="http://www.w3.org/1999/xlink" xmlns:x="http://ns.adobe.com/Extensibility/1.0/" xmlns:graph="http://ns.adobe.com/Graphs/1.0/" xmlns:i="http://ns.adobe.com/AdobeIllustrator/10.0/" xmlns:etg="http://www.eurotaxglass.com/etg/evd/" etg:dataTimestamp="1539068912893" contentScriptType="text/ecmascript" zoomAndPan="magnify" contentStyleType="text/css" id="Layer_1" enable-background="new 0 0 1841.891 1595.279" version="1.1" xml:space="preserve" width="1841.891px" preserveAspectRatio="xMidYMid meet" viewBox="0 0 1841.891 1595.279" height="1595.279px" x="0px" y="0px"><g xmlns="http://www.w3.org/2000/svg" objecttype="PS" tooltip="#UNDEFINED" id="257">
<g onmouseover="notifyOwner(AGV_OBJECT_MOUSEOVER, '257(PS)')" transform="translate(-14.128935532233868, 1.1154422788605984) translate(-266.0, -81.0) matrix(0.9308262702849547 0 0 0.9308262702849547 32.13847834234153 38.925230827912905) matrix(0.6437533209908364 0 0 0.6437533209908364 165.51407918918224 200.46604446832214) translate(-20,57) " onclick="clickZoom(evt); notifyOwner(AGV_OBJECT_MOUSECLICK, '257(PS)')" onmouseout="notifyOwner(AGV_OBJECT_MOUSEOUT, '257(PS)')" tooltip="#UNDEFINED" id="257-Graphic" objecttype="GRAPHIC">
<g zvalue="16">
<g zvalue="85">
<g zvalue="49">
<g>
<path orgstroke="#000000" orgfill="#ffffff" transform="translate(-15.46768983513789, -16.281778773829387) translate(-135.7864793701172, -15.95862927246094) translate(-23.810883895874042, -7.293701173693989E-6) translate(-637.1092790527343, 18.13041815948486) translate(-12.74233872761306, -15.22001570242685) translate(867.4310472906743, 41.485832696510556) translate(38.97153980581288, -1.2571464453487806) translate(0.5294176177978329, 3.356933575560106E-7) translate(-3.5913785858154483, 15.975834228515623) translate(-23.0, 0.0) translate(28.171560055253963, 13.223385332058001) translate(6.25, 1.875) translate(31,8) matrix(-1 0 0 1 955.8167724609375 132.00006103515625)" fill="#ffffff" g2gfill="#ECF5E5" d="M536.85498046875 314.9339904785156L536.594970703125 322.22100830078125L539.3140258789062 323.7439880371094L546.0579833984375 319.9939880371094L546.2239990234375 312.9330139160156L543.39599609375 311.55999755859375Z" stroke="#000000" outline-element="true" stroke-width="0.5" g2gstroke="#312783" stroke-miterlimit="10"/>
<path orgstroke="#000000" orgfill="none" transform="translate(-15.46768983513789, -16.281778773829387) translate(-135.7864793701172, -15.95862927246094) translate(-23.810883895874042, -7.293701173693989E-6) translate(-637.1092790527343, 18.13041815948486) translate(-12.74233872761306, -15.22001570242685) translate(867.4310472906743, 41.485832696510556) translate(38.97153980581288, -1.2571464453487806) translate(0.5294176177978329, 3.356933575560106E-7) translate(-3.5913785858154483, 15.975834228515623) translate(-23.0, 0.0) translate(28.171560055253963, 13.223385332058001) translate(6.25, 1.875) translate(31,8) matrix(-1 0 0 1 955.8167724609375 132.00006103515625)" fill="none" d="M537.1420288085938 315.1310119628906L539.6380004882812 316.4079895019531L546.1420288085938 312.92999267578125" stroke="#000000" stroke-width="0.25" g2gstroke="#312783" stroke-miterlimit="10"/>
<path orgstroke="#000000" orgfill="none" transform="translate(-15.46768983513789, -16.281778773829387) translate(-135.7864793701172, -15.95862927246094) translate(-23.810883895874042, -7.293701173693989E-6) translate(-637.1092790527343, 18.13041815948486) translate(-12.74233872761306, -15.22001570242685) translate(867.4310472906743, 41.485832696510556) translate(38.97153980581288, -1.2571464453487806) translate(0.5294176177978329, 3.356933575560106E-7) translate(-3.5913785858154483, 15.975834228515623) translate(-23.0, 0.0) translate(28.171560055253963, 13.223385332058001) translate(6.25, 1.875) translate(31,8) matrix(-1 0 0 1 955.8167724609375 132.00006103515625)" fill="none" d="M539.2789916992188 323.5350036621094L539.510986328125 316.510009765625" stroke="#000000" stroke-width="0.25" g2gstroke="#312783" stroke-miterlimit="10"/>
<ellipse orgstroke="#000000" orgfill="none" transform="translate(-15.46768983513789, -16.281778773829387) translate(-135.7864793701172, -15.95862927246094) translate(-23.810883895874042, -7.293701173693989E-6) translate(-637.1092790527343, 18.13041815948486) translate(-12.74233872761306, -15.22001570242685) translate(867.4310472906743, 41.485832696510556) translate(38.97153980581288, -1.2571464453487806) translate(0.5294176177978329, 3.356933575560106E-7) translate(-3.5913785858154483, 15.975834228515623) translate(-23.0, 0.0) translate(28.171560055253963, 13.223385332058001) translate(6.25, 1.875) translate(31,8) matrix(0.8758999705314636 -0.48260000348091125 -0.48260000348091125 -0.8758999705314636 107.29644775390625 960.001953125)" fill="none" rx="1.805" cx="513.7769995953887" cy="298.87371232282425" ry="3.066" stroke="#000000" stroke-width="0.25" g2gstroke="#312783" stroke-miterlimit="10"/>
<ellipse orgstroke="#000000" orgfill="none" transform="translate(-15.46768983513789, -16.281778773829387) translate(-135.7864793701172, -15.95862927246094) translate(-23.810883895874042, -7.293701173693989E-6) translate(-637.1092790527343, 18.13041815948486) translate(-12.74233872761306, -15.22001570242685) translate(867.4310472906743, 41.485832696510556) translate(38.97153980581288, -1.2571464453487806) translate(0.5294176177978329, 3.356933575560106E-7) translate(-3.5913785858154483, 15.975834228515623) translate(-23.0, 0.0) translate(28.171560055253963, 13.223385332058001) translate(6.25, 1.875) translate(31,8) matrix(0.8751999735832214 -0.4837999939918518 -0.4837999939918518 -0.8751999735832214 108.13134765625 960.375732421875)" fill="none" rx="1.152" cx="513.7050860161527" cy="298.88032643845617" ry="1.96" stroke="#000000" stroke-width="0.25" g2gstroke="#312783" stroke-miterlimit="10"/>
</g>
</g>
</g>
</g>
</g>
</g></svg>