<svg xmlns="http://www.w3.org/2000/svg" xmlns:xlink="http://www.w3.org/1999/xlink" xmlns:x="http://ns.adobe.com/Extensibility/1.0/" xmlns:graph="http://ns.adobe.com/Graphs/1.0/" xmlns:i="http://ns.adobe.com/AdobeIllustrator/10.0/" xmlns:etg="http://www.eurotaxglass.com/etg/evd/" etg:dataTimestamp="1539068912893" contentScriptType="text/ecmascript" zoomAndPan="magnify" contentStyleType="text/css" id="Layer_1" enable-background="new 0 0 1841.891 1595.279" version="1.1" xml:space="preserve" width="1841.891px" preserveAspectRatio="xMidYMid meet" viewBox="0 0 1841.891 1595.279" height="1595.279px" x="0px" y="0px"><g xmlns="http://www.w3.org/2000/svg" objecttype="PS" tooltip="#UNDEFINED" id="26">
<g onmouseover="notifyOwner(AGV_OBJECT_MOUSEOVER, '26(PS)')" transform="translate(-9.433746356535266E-6, 3.356933575560106E-7) translate(-35.71980609130861, -13.200809143066408) translate(44.708733184814434, 94.79042849731445) matrix(0.6117410612267968 0 0 0.6117410612267968 0.2921243287958965 0.477310974878083) translate(-92,-34) " onclick="clickZoom(evt); notifyOwner(AGV_OBJECT_MOUSECLICK, '26(PS)')" onmouseout="notifyOwner(AGV_OBJECT_MOUSEOUT, '26(PS)')" tooltip="#UNDEFINED" id="26-Graphic" objecttype="GRAPHIC">
<g zvalue="25">
<g zvalue="54">
<g zvalue="48">
<g>
<path stroke-linecap="round" orgstroke="#000000" orgfill="#ffffff" transform="translate(-295.5923495625341, 69.5511410735374) translate(13.523832986521029, -13.523832986521171) translate(0.6567110110379417, -1.9701330331140525) translate(-14.792050684180822, -24.829513648446607) translate(185.48729538878888, 48.62288325725535) translate(724,-30) translate(-518.5915025634765, -83.33211865234375) translate(-193.07973917248182, 289.0345186400182) translate(658.0, -6.0) translate(10.0, 10.00006103515625)" fill="#ffffff" g2gfill="#ECC35D" d="M776.684,121.732   c-0.073-6.449-0.252-14.816-0.252-17.041c0-2.85,0.033-9.248-1.217-12.516c-1.252-3.268-4.313-8.971-5.703-12.344   c-1.391-3.371-2.428-12.023-2.428-13.484c0-1.459-1.108-4.85-1.283-6.109c0,0-0.023-0.287-0.03-0.35   c-0.673-6.461-3.085-19.541-6.586-23.947c-0.179-0.225-0.345-0.189-0.608-0.037c-0.243,0.141-0.447,0.33-0.609,0.545   c-0.212,0.281-1.21,1.641-1.979,2.613c-4.349,5.488-11.121,15.082-11.746,15.762c-0.504,0.551-2.455,2.715-3.295,3.512   c-0.329,0.313-0.216,0.465-0.094,0.627c4.068,5.402,6.377,11.996,8.245,18.727c0.091,0.328,0.023,0.484-0.156,0.588l-2.465,1.424   c-0.463,0.299-0.438,0.271-0.406,0.762c0.163,2.563,0.866,14.021,0.629,18.258c-0.381,6.818-0.664,7.57-4.719,11.469   c-14.9,14.33-34.465,27.104-53.227,37.934c-19.672,11.359-44.383,24.57-64.41,31.334c-0.981,0.338-2.114,0.863-3.776,1.055   c-1.505,0.174-3.194-0.275-4.774-1.25l-0.125-0.109c-1.154-0.932-2.202-2.158-3.014-3.639c-1.877-3.422-3.642-12.58-4.029-14.682   c-0.046-0.246-0.077-0.432-0.393-0.613l-0.331-0.189c-0.21-0.123-0.364-0.109-0.54-0.008l-4.813,2.779   c-0.41,0.199-0.335,0.303-0.247,0.648c0.117,0.459,0.322,1.295,0.526,2.217c0.057,0.256-0.029,0.295-0.32,0.381   c-0.445,0.133-0.855,0.252-1.227,0.354c-6.326,1.738-13.895,4.506-25.135,4.182c-15.986-0.461-21.43-3.256-28.609-6.559   c-1.646-0.758-2.942-1.496-3.972-2.188c-0.179-0.119-0.366-0.107-0.52-0.02c-0.235,0.135-0.554,0.316-0.657,0.377   c-0.173,0.1-0.627,0.434-0.839,0.715s-1.21,1.641-1.979,2.613c-4.349,5.488-11.681,13.629-12.98,14.93   c-1.529,1.529-2.922,2.936-3.547,3.615c-0.563,0.613-3.425,3.52-3.588,3.689s-0.092,0.301-0.092,0.301   c9.72,12.461,17.311,27.244,20.281,41.775c0.615,3.01,2.209,13.709,6.381,16.955c4.04,3.141,8.531,4.816,16.775,5.328   c6.316,0.428,11.96,0.742,19.181,0.045c2.578-0.248,5.349-0.67,8.438-1.172c0.875-0.143,1.373-0.4,1.733-0.639   c3.701-2.447,11.662-8.588,15.406-11.375c4.653-3.465,15.059-7.627,22.21-9.992c19.779-6.539,49.355-20.426,70.766-32.787   c20.535-11.855,46.07-27.174,61.303-44.91c2.328-2.711,4.685-2.998,6.354-2.418c1.688,0.588,3.329,1.193,4.199,1.49   c0.467,0.16,0.791-0.047,0.922-0.291c0.059-0.109,0.107-0.201,0.131-0.246c1.8-3.359,3.445-8.014,4.127-12.609   c0.228-1.533,0.334-4.123,0.083-6.201c-0.188-1.557-1.09-2.479-1.393-3.557c-0.081-0.287-0.056-0.49-0.213-0.582l-0.215-0.123   c-0.226-0.131-0.226-0.115-0.128-0.418C776.148,124.961,776.684,122.896,776.684,121.732z" stroke="#000000" outline-element="true" stroke-width="0.5" g2gstroke="#312783" stroke-miterlimit="10"/>
<path stroke-linecap="round" orgstroke="#000000" orgfill="none" transform="translate(-295.5923495625341, 69.5511410735374) translate(13.523832986521029, -13.523832986521171) translate(0.6567110110379417, -1.9701330331140525) translate(-14.792050684180822, -24.829513648446607) translate(185.48729538878888, 48.62288325725535) translate(724,-30) translate(-518.5915025634765, -83.33211865234375) translate(-193.07973917248182, 289.0345186400182) translate(658.0, -6.0) translate(10.0, 10.00006103515625)" fill="none" stroke-linejoin="round" d="   M541.752,162.684c0.594,0.566,1.341,1.121,2.27,1.658c3.6,2.078,17.648,9.711,31.592,9.92c12.168,0.184,16.113-1.658,21.939-3.244   c4.134-1.127,8.172-2.344,11.93-3.547" stroke="#000000" stroke-width="0.25" g2gstroke="#312783" stroke-miterlimit="10"/>
<path stroke-linecap="round" orgstroke="#000000" orgfill="none" transform="translate(-295.5923495625341, 69.5511410735374) translate(13.523832986521029, -13.523832986521171) translate(0.6567110110379417, -1.9701330331140525) translate(-14.792050684180822, -24.829513648446607) translate(185.48729538878888, 48.62288325725535) translate(724,-30) translate(-518.5915025634765, -83.33211865234375) translate(-193.07973917248182, 289.0345186400182) translate(658.0, -6.0) translate(10.0, 10.00006103515625)" fill="none" stroke-linejoin="round" d="   M542.491,162.242c1.144,0.922,2.76,1.928,5.046,2.98c7.18,3.303,12.623,6.098,28.609,6.559c11.24,0.324,18.809-2.443,25.135-4.182   c1.711-0.471,4.148-1.244,7.044-2.213" stroke="#000000" stroke-width="0.25" g2gstroke="#312783" stroke-miterlimit="10"/>
<path stroke-linecap="round" orgstroke="#000000" orgfill="none" transform="translate(-295.5923495625341, 69.5511410735374) translate(13.523832986521029, -13.523832986521171) translate(0.6567110110379417, -1.9701330331140525) translate(-14.792050684180822, -24.829513648446607) translate(185.48729538878888, 48.62288325725535) translate(724,-30) translate(-518.5915025634765, -83.33211865234375) translate(-193.07973917248182, 289.0345186400182) translate(658.0, -6.0) translate(10.0, 10.00006103515625)" fill="none" stroke-linejoin="round" d="   M613.023,182.033c0.854,1.219,3.127,2.846,7.115,2.357c3.986-0.486,6.107-1.139,7.738-1.699   c20.027-6.764,44.738-19.975,64.41-31.334c18.762-10.83,38.326-23.604,53.227-37.934c4.055-3.898,5.537-7.273,6.065-12.035   c0.721-6.5-0.229-23.068-0.229-23.068" stroke="#000000" stroke-width="0.25" g2gstroke="#312783" stroke-miterlimit="10"/>
<path stroke-linecap="round" orgstroke="#000000" orgfill="none" transform="translate(-295.5923495625341, 69.5511410735374) translate(13.523832986521029, -13.523832986521171) translate(0.6567110110379417, -1.9701330331140525) translate(-14.792050684180822, -24.829513648446607) translate(185.48729538878888, 48.62288325725535) translate(724,-30) translate(-518.5915025634765, -83.33211865234375) translate(-193.07973917248182, 289.0345186400182) translate(658.0, -6.0) translate(10.0, 10.00006103515625)" fill="none" stroke-linejoin="round" d="   M551.121,187.186c2.131,0.863,4.992,1.42,9.082,2.027c7.277,1.08,26.996,2.664,48.385-6.078" stroke="#000000" stroke-width="0.25" g2gstroke="#312783" stroke-miterlimit="10"/>
<ellipse orgstroke="#000000" stroke="#000000" stroke-linecap="round" transform="translate(-295.5923495625341, 69.5511410735374) translate(13.523832986521029, -13.523832986521171) translate(0.6567110110379417, -1.9701330331140525) translate(-14.792050684180822, -24.829513648446607) translate(185.48729538878888, 48.62288325725535) translate(724,-30) translate(-518.5915025634765, -83.33211865234375) translate(-193.07973917248182, 289.0345186400182) translate(658.0, -6.0) translate(10.0, 10.00006103515625)" stroke-miterlimit="10" orgfill="none" fill="none" stroke-width="0.25" stroke-linejoin="round" cx="602.871" rx="1.738" g2gstroke="#312783" cy="211.186" ry="1.738"/>
<ellipse orgstroke="#000000" stroke="#000000" stroke-linecap="round" transform="translate(-295.5923495625341, 69.5511410735374) translate(13.523832986521029, -13.523832986521171) translate(0.6567110110379417, -1.9701330331140525) translate(-14.792050684180822, -24.829513648446607) translate(185.48729538878888, 48.62288325725535) translate(724,-30) translate(-518.5915025634765, -83.33211865234375) translate(-193.07973917248182, 289.0345186400182) translate(658.0, -6.0) translate(10.0, 10.00006103515625) matrix(-0.1684 0.9857 -0.9857 -0.1684 1014.6902 -630.8344)" stroke-miterlimit="10" orgfill="none" fill="none" stroke-width="0.25" stroke-linejoin="round" cx="773.445" rx="1.999" g2gstroke="#312783" ry="0.626" cy="112.602"/>
<path stroke-linecap="round" orgstroke="#000000" orgfill="none" transform="translate(-295.5923495625341, 69.5511410735374) translate(13.523832986521029, -13.523832986521171) translate(0.6567110110379417, -1.9701330331140525) translate(-14.792050684180822, -24.829513648446607) translate(185.48729538878888, 48.62288325725535) translate(724,-30) translate(-518.5915025634765, -83.33211865234375) translate(-193.07973917248182, 289.0345186400182) translate(658.0, -6.0) translate(10.0, 10.00006103515625)" fill="none" stroke-linejoin="round" d="   M758.113,96.656c4.543-2.523,11.879-13.799,10.889-18.336" stroke="#000000" stroke-width="0.25" g2gstroke="#312783" stroke-miterlimit="10"/>
<path stroke-linecap="round" orgstroke="#000000" orgfill="none" transform="translate(-295.5923495625341, 69.5511410735374) translate(13.523832986521029, -13.523832986521171) translate(0.6567110110379417, -1.9701330331140525) translate(-14.792050684180822, -24.829513648446607) translate(185.48729538878888, 48.62288325725535) translate(724,-30) translate(-518.5915025634765, -83.33211865234375) translate(-193.07973917248182, 289.0345186400182) translate(658.0, -6.0) translate(10.0, 10.00006103515625)" fill="none" stroke-linejoin="round" d="   M563.326,224.834c-1.377-7.529-9.195-31.223-19.08-44.654c-2.687-3.65-5.386-7.145-8.127-10.465" stroke="#000000" stroke-width="0.25" g2gstroke="#312783" stroke-miterlimit="10"/>
<path stroke-linecap="round" orgstroke="#000000" orgfill="none" transform="translate(-295.5923495625341, 69.5511410735374) translate(13.523832986521029, -13.523832986521171) translate(0.6567110110379417, -1.9701330331140525) translate(-14.792050684180822, -24.829513648446607) translate(185.48729538878888, 48.62288325725535) translate(724,-30) translate(-518.5915025634765, -83.33211865234375) translate(-193.07973917248182, 289.0345186400182) translate(658.0, -6.0) translate(10.0, 10.00006103515625)" fill="none" stroke-linejoin="round" d="   M758.109,36.41c3.857,4.666,6.48,20.92,6.48,25.412c0,0.535-0.174,1.33-0.336,1.75c-2.225,5.762-5.388,10.705-8.792,14.896   c-0.334,0.41-0.513,0.371-0.899,0.148l-2.592-1.494c-0.377-0.217-0.729-0.174-1.031,0l-1.998,1.154" stroke="#000000" stroke-width="0.25" g2gstroke="#312783" stroke-miterlimit="10"/>
<path stroke-linecap="round" orgstroke="#000000" orgfill="none" transform="translate(-295.5923495625341, 69.5511410735374) translate(13.523832986521029, -13.523832986521171) translate(0.6567110110379417, -1.9701330331140525) translate(-14.792050684180822, -24.829513648446607) translate(185.48729538878888, 48.62288325725535) translate(724,-30) translate(-518.5915025634765, -83.33211865234375) translate(-193.07973917248182, 289.0345186400182) translate(658.0, -6.0) translate(10.0, 10.00006103515625)" fill="none" stroke-linejoin="round" d="   M608.428,160.469l-3.801,2.195c-0.346,0.199-0.233,0.338,0.045,0.498l3.429,1.975c0.261,0.152,0.364,0.279,0.468,0.516   c0.162,0.369,0.352,0.723,0.555,1.074c0.418,0.725,0.771,1.695,0.771,3.086s-0.348,5.84,2.154,10.568   c2.504,4.729,9.67,13.879,26.289,9.15c20.029-6.762,45.199-19.176,64.871-30.535c18.762-10.83,38.324-23.604,53.227-37.934   c2.912-2.799,4.727-7.729,2.688-13.197c-2.039-5.471-4.039-5.42-4.039-16.029c0-3.727,0.791-7.51,0.869-8.352   c0.078-0.869,0.086-1.49-0.053-1.941c-0.089-0.285-0.244-0.742-0.323-0.98" stroke="#000000" stroke-width="0.25" g2gstroke="#312783" stroke-miterlimit="10"/>
<path stroke-linecap="round" orgstroke="#000000" orgfill="none" transform="translate(-295.5923495625341, 69.5511410735374) translate(13.523832986521029, -13.523832986521171) translate(0.6567110110379417, -1.9701330331140525) translate(-14.792050684180822, -24.829513648446607) translate(185.48729538878888, 48.62288325725535) translate(724,-30) translate(-518.5915025634765, -83.33211865234375) translate(-193.07973917248182, 289.0345186400182) translate(658.0, -6.0) translate(10.0, 10.00006103515625)" fill="none" stroke-linejoin="round" d="   M602.468,162.844c0,0-0.21,0.18,0.04,0.324c0.138,0.08,1.531,0.883,2.752,1.584c0.284,0.164,0.527,0.266,0.051,0.416   c-1.211,0.385-2.355,0.742-3.194,0.994" stroke="#000000" stroke-width="0.25" g2gstroke="#312783" stroke-miterlimit="10"/>
<path stroke-linecap="round" orgstroke="#000000" orgfill="none" transform="translate(-295.5923495625341, 69.5511410735374) translate(13.523832986521029, -13.523832986521171) translate(0.6567110110379417, -1.9701330331140525) translate(-14.792050684180822, -24.829513648446607) translate(185.48729538878888, 48.62288325725535) translate(724,-30) translate(-518.5915025634765, -83.33211865234375) translate(-193.07973917248182, 289.0345186400182) translate(658.0, -6.0) translate(10.0, 10.00006103515625)" fill="none" stroke-linejoin="round" d="   M615.668,179.152c1.867,1.508,4.012,2.246,5.871,2.031c1.662-0.191,2.795-0.717,3.776-1.055   c20.027-6.764,44.738-19.975,64.41-31.334c18.762-10.83,38.326-23.604,53.227-37.934c4.055-3.898,4.338-4.652,4.719-11.469   c0.268-4.785-0.662-18.771-0.662-18.771" stroke="#000000" stroke-width="0.25" g2gstroke="#312783" stroke-miterlimit="10"/>
<path stroke-linecap="round" orgstroke="#000000" orgfill="none" transform="translate(-295.5923495625341, 69.5511410735374) translate(13.523832986521029, -13.523832986521171) translate(0.6567110110379417, -1.9701330331140525) translate(-14.792050684180822, -24.829513648446607) translate(185.48729538878888, 48.62288325725535) translate(724,-30) translate(-518.5915025634765, -83.33211865234375) translate(-193.07973917248182, 289.0345186400182) translate(658.0, -6.0) translate(10.0, 10.00006103515625)" fill="none" stroke-linejoin="round" d="   M756.003,82.752c4.604-4.168,8.396-10.283,11.017-16.988" stroke="#000000" stroke-width="0.25" g2gstroke="#312783" stroke-miterlimit="10"/>
<path stroke-linecap="round" orgstroke="#000000" orgfill="none" transform="translate(-295.5923495625341, 69.5511410735374) translate(13.523832986521029, -13.523832986521171) translate(0.6567110110379417, -1.9701330331140525) translate(-14.792050684180822, -24.829513648446607) translate(185.48729538878888, 48.62288325725535) translate(724,-30) translate(-518.5915025634765, -83.33211865234375) translate(-193.07973917248182, 289.0345186400182) translate(658.0, -6.0) translate(10.0, 10.00006103515625)" fill="none" stroke-linejoin="round" d="   M765.789,60.076c0.148,1.729-0.085,3.875-0.179,4.145c-1.178,3.355-2.635,5.939-4.259,8.563c-1.773,2.861-3.745,5.451-5.774,7.779   l-3.832-2.209c-0.406-0.234-0.613-0.113-0.849,0.021l-3.512,2.029c-0.237,0.137-0.376,0.217-0.641,0.016l-0.584-0.336" stroke="#000000" stroke-width="0.25" g2gstroke="#312783" stroke-miterlimit="10"/>
<path orgstroke="#000000" orgfill="none" transform="translate(-295.5923495625341, 69.5511410735374) translate(13.523832986521029, -13.523832986521171) translate(0.6567110110379417, -1.9701330331140525) translate(-14.792050684180822, -24.829513648446607) translate(185.48729538878888, 48.62288325725535) translate(724,-30) translate(-518.5915025634765, -83.33211865234375) translate(-193.07973917248182, 289.0345186400182) translate(658.0, -6.0) translate(10.0, 10.00006103515625)" fill="none" d="M744.898,58.574   c0.06,0.426,0.389,0.885,0.734,1.023c0.346,0.141,0.578-0.092,0.518-0.518c-0.061-0.428-0.389-0.887-0.734-1.025   C745.07,57.914,744.838,58.146,744.898,58.574z" stroke="#000000" stroke-width="0.25" g2gstroke="#312783" stroke-miterlimit="10"/>
<path orgstroke="#000000" orgfill="none" transform="translate(-295.5923495625341, 69.5511410735374) translate(13.523832986521029, -13.523832986521171) translate(0.6567110110379417, -1.9701330331140525) translate(-14.792050684180822, -24.829513648446607) translate(185.48729538878888, 48.62288325725535) translate(724,-30) translate(-518.5915025634765, -83.33211865234375) translate(-193.07973917248182, 289.0345186400182) translate(658.0, -6.0) translate(10.0, 10.00006103515625)" fill="none" d="M747.341,65.512   c0.06,0.426,0.389,0.885,0.734,1.023c0.346,0.141,0.578-0.092,0.518-0.518c-0.061-0.428-0.389-0.887-0.734-1.025   C747.513,64.852,747.28,65.084,747.341,65.512z" stroke="#000000" stroke-width="0.25" g2gstroke="#312783" stroke-miterlimit="10"/>
<path orgstroke="#000000" orgfill="none" transform="translate(-295.5923495625341, 69.5511410735374) translate(13.523832986521029, -13.523832986521171) translate(0.6567110110379417, -1.9701330331140525) translate(-14.792050684180822, -24.829513648446607) translate(185.48729538878888, 48.62288325725535) translate(724,-30) translate(-518.5915025634765, -83.33211865234375) translate(-193.07973917248182, 289.0345186400182) translate(658.0, -6.0) translate(10.0, 10.00006103515625)" fill="none" d="M749.783,72.449   c0.06,0.426,0.389,0.885,0.734,1.023c0.346,0.141,0.578-0.092,0.518-0.518c-0.061-0.428-0.389-0.887-0.734-1.025   C749.955,71.789,749.723,72.021,749.783,72.449z" stroke="#000000" stroke-width="0.25" g2gstroke="#312783" stroke-miterlimit="10"/>
<path stroke-linecap="round" orgstroke="#000000" orgfill="none" transform="translate(-295.5923495625341, 69.5511410735374) translate(13.523832986521029, -13.523832986521171) translate(0.6567110110379417, -1.9701330331140525) translate(-14.792050684180822, -24.829513648446607) translate(185.48729538878888, 48.62288325725535) translate(724,-30) translate(-518.5915025634765, -83.33211865234375) translate(-193.07973917248182, 289.0345186400182) translate(658.0, -6.0) translate(10.0, 10.00006103515625)" fill="none" stroke-linejoin="round" d="   M659.507,191.068c-0.138,0.969-0.885,2.012-1.669,2.33c-0.787,0.318-1.315-0.211-1.178-1.182c0.137-0.969,0.884-2.012,1.671-2.33   C659.115,189.57,659.644,190.098,659.507,191.068z" stroke="#000000" stroke-width="0.25" g2gstroke="#312783" stroke-miterlimit="10"/>
<path stroke-linecap="round" orgstroke="#000000" orgfill="none" transform="translate(-295.5923495625341, 69.5511410735374) translate(13.523832986521029, -13.523832986521171) translate(0.6567110110379417, -1.9701330331140525) translate(-14.792050684180822, -24.829513648446607) translate(185.48729538878888, 48.62288325725535) translate(724,-30) translate(-518.5915025634765, -83.33211865234375) translate(-193.07973917248182, 289.0345186400182) translate(658.0, -6.0) translate(10.0, 10.00006103515625)" fill="none" stroke-linejoin="round" d="   M743.51,142.592c-0.138,0.969-0.885,2.012-1.669,2.33c-0.787,0.318-1.315-0.211-1.178-1.182c0.137-0.969,0.884-2.012,1.671-2.33   C743.118,141.094,743.646,141.621,743.51,142.592z" stroke="#000000" stroke-width="0.25" g2gstroke="#312783" stroke-miterlimit="10"/>
<path stroke-linecap="round" orgstroke="#000000" orgfill="none" transform="translate(-295.5923495625341, 69.5511410735374) translate(13.523832986521029, -13.523832986521171) translate(0.6567110110379417, -1.9701330331140525) translate(-14.792050684180822, -24.829513648446607) translate(185.48729538878888, 48.62288325725535) translate(724,-30) translate(-518.5915025634765, -83.33211865234375) translate(-193.07973917248182, 289.0345186400182) translate(658.0, -6.0) translate(10.0, 10.00006103515625)" fill="none" stroke-linejoin="round" d="   M560.76,205.9c20.588,3.65,44.691-0.779,63.883-6.41c19.191-5.633,53.064-20.676,77.533-34.803   c20.533-11.855,41.873-25.984,57.25-41.941c8.529-8.852,17.557-17.119,16.342-29.107" stroke="#000000" stroke-width="0.25" g2gstroke="#312783" stroke-miterlimit="10"/>
<path stroke-linecap="round" orgstroke="#000000" orgfill="none" transform="translate(-295.5923495625341, 69.5511410735374) translate(13.523832986521029, -13.523832986521171) translate(0.6567110110379417, -1.9701330331140525) translate(-14.792050684180822, -24.829513648446607) translate(185.48729538878888, 48.62288325725535) translate(724,-30) translate(-518.5915025634765, -83.33211865234375) translate(-193.07973917248182, 289.0345186400182) translate(658.0, -6.0) translate(10.0, 10.00006103515625)" fill="none" stroke-linejoin="round" d="   M766.819,141.293c-4.964,6.221-14.907,15.656-21.79,21.24" stroke="#000000" stroke-width="0.25" g2gstroke="#312783" stroke-miterlimit="10"/>
<path orgstroke="#000000" orgfill="none" transform="translate(-295.5923495625341, 69.5511410735374) translate(13.523832986521029, -13.523832986521171) translate(0.6567110110379417, -1.9701330331140525) translate(-14.792050684180822, -24.829513648446607) translate(185.48729538878888, 48.62288325725535) translate(724,-30) translate(-518.5915025634765, -83.33211865234375) translate(-193.07973917248182, 289.0345186400182) translate(658.0, -6.0) translate(10.0, 10.00006103515625)" fill="none" d="M654.021,215.869   c-0.592,0.271-0.745-0.482-0.449-1.184c1.07-2.541,7.953-19.816,9.368-22.584c1.53-2.99,1.879-5.293,9.76-9.066   c9.408-4.506,19.65-9.555,27.838-14.281c10.12-5.844,20.419-12.266,30.14-19.135c3.364-2.377,8.885-4.871,10.914,0.861   c0.528,1.49,2.563,9.408,3.284,11.471c0.169,0.48,0.434,1.434-0.288,2.012c-12.762,10.25-26.503,18.104-40.439,26.15   C690.038,198.26,671.106,208.027,654.021,215.869z" stroke="#000000" stroke-width="0.25" g2gstroke="#312783" stroke-miterlimit="10"/>
<path orgstroke="#000000" orgfill="none" transform="translate(-295.5923495625341, 69.5511410735374) translate(13.523832986521029, -13.523832986521171) translate(0.6567110110379417, -1.9701330331140525) translate(-14.792050684180822, -24.829513648446607) translate(185.48729538878888, 48.62288325725535) translate(724,-30) translate(-518.5915025634765, -83.33211865234375) translate(-193.07973917248182, 289.0345186400182) translate(658.0, -6.0) translate(10.0, 10.00006103515625)" fill="none" d="M732.121,148.686   c1.206-0.648,2.947-0.725,4.315,1.24c1.421,2.041,9.004,12.793,8.578,13.416" stroke="#000000" stroke-width="0.25" g2gstroke="#312783" stroke-miterlimit="10"/>
<path stroke-linecap="round" orgstroke="#000000" orgfill="none" transform="translate(-295.5923495625341, 69.5511410735374) translate(13.523832986521029, -13.523832986521171) translate(0.6567110110379417, -1.9701330331140525) translate(-14.792050684180822, -24.829513648446607) translate(185.48729538878888, 48.62288325725535) translate(724,-30) translate(-518.5915025634765, -83.33211865234375) translate(-193.07973917248182, 289.0345186400182) translate(658.0, -6.0) translate(10.0, 10.00006103515625)" fill="none" stroke-linejoin="round" d="   M523.629,183.447c7.87,9.988,14.348,21.342,18.552,32.885c1.635,4.488,4.39,13.961,5.482,18.395   c0.834,3.383,2.613,5.301,7.528,6.057c0.183,0.029,0.55,0.07,0.733,0.09c21.085,2.389,35.54,0.656,48.301-2.35l0.269-0.064   c1.194-0.289,2.124-1.346,3.098-2.783s2.251-3.65,2.547-4.162s0.152-0.811-1.106-0.512" stroke="#000000" stroke-width="0.25" g2gstroke="#312783" stroke-miterlimit="10"/>
<path orgstroke="#000000" orgfill="none" transform="translate(-295.5923495625341, 69.5511410735374) translate(13.523832986521029, -13.523832986521171) translate(0.6567110110379417, -1.9701330331140525) translate(-14.792050684180822, -24.829513648446607) translate(185.48729538878888, 48.62288325725535) translate(724,-30) translate(-518.5915025634765, -83.33211865234375) translate(-193.07973917248182, 289.0345186400182) translate(658.0, -6.0) translate(10.0, 10.00006103515625)" fill="none" d="M553.182,232.787   c-0.735-0.107-1.113-0.102-0.696,0.699c0.417,0.799,1.564,3.023,2.329,3.859c0.765,0.834,1.684,1.295,2.428,1.379   c17.568,2,31.127,1.871,42.731-0.939c1.66-0.402,3.41-0.648,4.628-2.408c0.411-0.594,1.577-2.344,1.947-2.945   c0.37-0.604,0.411-0.908-0.408-0.756" stroke="#000000" stroke-width="0.25" g2gstroke="#312783" stroke-miterlimit="10"/>
<path orgstroke="#000000" orgfill="none" transform="translate(-295.5923495625341, 69.5511410735374) translate(13.523832986521029, -13.523832986521171) translate(0.6567110110379417, -1.9701330331140525) translate(-14.792050684180822, -24.829513648446607) translate(185.48729538878888, 48.62288325725535) translate(724,-30) translate(-518.5915025634765, -83.33211865234375) translate(-193.07973917248182, 289.0345186400182) translate(658.0, -6.0) translate(10.0, 10.00006103515625)" fill="none" d="M555.36,233.086   c-0.735-0.105-1.045-0.119-0.628,0.682c0.417,0.799,0.78,1.369,1.197,1.855c0.736,0.861,1.684,1.295,2.428,1.381   c6.078,0.691,10.561,1,15.764,1.16c9.837,0.301,18.263-0.391,25.853-2.229c1.66-0.402,3.56-0.555,4.628-2.408   c0.195-0.34,0.445-0.734,0.565-0.941s0.336-0.734-0.483-0.582" stroke="#000000" stroke-width="0.25" g2gstroke="#312783" stroke-miterlimit="10"/>
<path stroke-linecap="round" orgstroke="#000000" orgfill="none" transform="translate(-295.5923495625341, 69.5511410735374) translate(13.523832986521029, -13.523832986521171) translate(0.6567110110379417, -1.9701330331140525) translate(-14.792050684180822, -24.829513648446607) translate(185.48729538878888, 48.62288325725535) translate(724,-30) translate(-518.5915025634765, -83.33211865234375) translate(-193.07973917248182, 289.0345186400182) translate(658.0, -6.0) translate(10.0, 10.00006103515625)" fill="none" stroke-linejoin="round" d="   M775.639,126.527c-1.728,5.023-5.97,11.002-9.182,15.246c-0.754,0.998-0.765,1.416-0.082,1.885c0.5,0.342,1.02,0.807,1.64,1.162   c0.254,0.146,0.575,0.191,0.957-0.451c0.383-0.643,7.659-10.926,8.051-15.223" stroke="#000000" stroke-width="0.25" g2gstroke="#312783" stroke-miterlimit="10"/>
<path orgstroke="#000000" orgfill="none" transform="translate(-295.5923495625341, 69.5511410735374) translate(13.523832986521029, -13.523832986521171) translate(0.6567110110379417, -1.9701330331140525) translate(-14.792050684180822, -24.829513648446607) translate(185.48729538878888, 48.62288325725535) translate(724,-30) translate(-518.5915025634765, -83.33211865234375) translate(-193.07973917248182, 289.0345186400182) translate(658.0, -6.0) translate(10.0, 10.00006103515625)" fill="none" d="M776.192,127.1   c-0.028,0.313-0.062,0.59-0.1,0.793c-0.812,4.355-5.971,11.717-9.273,16.082" stroke="#000000" stroke-width="0.25" g2gstroke="#312783" stroke-miterlimit="10"/>
<path stroke-linecap="round" orgstroke="#000000" orgfill="none" transform="translate(-295.5923495625341, 69.5511410735374) translate(13.523832986521029, -13.523832986521171) translate(0.6567110110379417, -1.9701330331140525) translate(-14.792050684180822, -24.829513648446607) translate(185.48729538878888, 48.62288325725535) translate(724,-30) translate(-518.5915025634765, -83.33211865234375) translate(-193.07973917248182, 289.0345186400182) translate(658.0, -6.0) translate(10.0, 10.00006103515625)" fill="none" stroke-linejoin="round" d="   M547.293,233.273c-0.332-1.248-0.462-1.789,0.829-1.455s4.428,0.883,5.554,1.037c0.398,0.055,1.194,0.164,1.593,0.219   c31.813,4.309,49.074-0.449,66.695-5.621c7.931-2.328,19.179-6.91,31.375-12.482" stroke="#000000" stroke-width="0.25" g2gstroke="#312783" stroke-miterlimit="10"/>
<ellipse orgstroke="#000000" orgfill="none" transform="translate(-295.5923495625341, 69.5511410735374) translate(13.523832986521029, -13.523832986521171) translate(0.6567110110379417, -1.9701330331140525) translate(-14.792050684180822, -24.829513648446607) translate(185.48729538878888, 48.62288325725535) translate(724,-30) translate(-518.5915025634765, -83.33211865234375) translate(-193.07973917248182, 289.0345186400182) translate(658.0, -6.0) translate(10.0, 10.00006103515625)" fill="none" rx="0.75" cx="563.592" ry="0.75" cy="235.268" stroke="#000000" stroke-width="0.25" g2gstroke="#312783" stroke-miterlimit="10"/>
<ellipse orgstroke="#000000" orgfill="none" transform="translate(-295.5923495625341, 69.5511410735374) translate(13.523832986521029, -13.523832986521171) translate(0.6567110110379417, -1.9701330331140525) translate(-14.792050684180822, -24.829513648446607) translate(185.48729538878888, 48.62288325725535) translate(724,-30) translate(-518.5915025634765, -83.33211865234375) translate(-193.07973917248182, 289.0345186400182) translate(658.0, -6.0) translate(10.0, 10.00006103515625)" fill="none" rx="0.75" cx="579.915" ry="0.75" cy="236.018" stroke="#000000" stroke-width="0.25" g2gstroke="#312783" stroke-miterlimit="10"/>
<ellipse orgstroke="#000000" orgfill="none" transform="translate(-295.5923495625341, 69.5511410735374) translate(13.523832986521029, -13.523832986521171) translate(0.6567110110379417, -1.9701330331140525) translate(-14.792050684180822, -24.829513648446607) translate(185.48729538878888, 48.62288325725535) translate(724,-30) translate(-518.5915025634765, -83.33211865234375) translate(-193.07973917248182, 289.0345186400182) translate(658.0, -6.0) translate(10.0, 10.00006103515625) matrix(-0.396 -0.9183 0.9183 -0.396 621.9279 877.2417)" fill="none" rx="0.664" cx="599.483" cy="234.073" ry="0.75" stroke="#000000" stroke-width="0.25" g2gstroke="#312783" stroke-miterlimit="10"/>
</g>
</g>
</g>
</g>
</g>
</g></svg>