<svg xmlns="http://www.w3.org/2000/svg" xmlns:xlink="http://www.w3.org/1999/xlink" xmlns:x="http://ns.adobe.com/Extensibility/1.0/" xmlns:graph="http://ns.adobe.com/Graphs/1.0/" xmlns:i="http://ns.adobe.com/AdobeIllustrator/10.0/" xmlns:etg="http://www.eurotaxglass.com/etg/evd/" etg:dataTimestamp="1539068912893" contentScriptType="text/ecmascript" zoomAndPan="magnify" contentStyleType="text/css" id="Layer_1" enable-background="new 0 0 1841.891 1595.279" version="1.1" xml:space="preserve" width="1841.891px" preserveAspectRatio="xMidYMid meet" viewBox="0 0 1841.891 1595.279" height="1595.279px" x="0px" y="0px"><g xmlns="http://www.w3.org/2000/svg" objecttype="PS" tooltip="#UNDEFINED" id="37">
<g onmouseover="notifyOwner(AGV_OBJECT_MOUSEOVER, '37(PS)')" transform="translate(-9.433746356535266E-6, 3.356933575560106E-7) translate(-35.71980609130861, -13.200809143066408) translate(44.708733184814434, 94.79042849731445) matrix(0.6117410612267968 0 0 0.6117410612267968 0.2921243287958965 0.477310974878083) translate(-92,-34) " onclick="clickZoom(evt); notifyOwner(AGV_OBJECT_MOUSECLICK, '37(PS)')" onmouseout="notifyOwner(AGV_OBJECT_MOUSEOUT, '37(PS)')" tooltip="#UNDEFINED" id="37-Graphic" objecttype="GRAPHIC">
<g zvalue="36">
<g zvalue="81">
<g>
<path stroke-linecap="round" orgstroke="#000000" orgfill="#ffffff" transform="translate(-295.5923495625341, 69.5511410735374) translate(13.523832986521029, -13.523832986521171) translate(-20.641156755826387, -10.927671223672746) translate(185.48729538878888, 48.62288325725535) translate(724,-30) translate(-518.5915025634765, -83.33211865234375) translate(16.578101297026706, 17.61423262809086) translate(-1.3860387278048165, 0.34650968195120413) translate(-12.820858232194496, -12.474348550243349) translate(641.2587701001213, 43.29666878413224) translate(64.88523159790037, 2.6585086364746076) translate(-84.87499999999949, -18.374999999999886)" fill="#ffffff" g2gfill="#ECC35D" d="M574.864990234375 347.9830017089844L575.239990234375 349.1499938964844L575.5239868164062 350.83099365234375L575.5239868164062 352.70599365234375L575.4669799804688 354.7139892578125L575.239990234375 356.53900146484375L574.9539794921875 357.9840087890625L574.5789794921875 359.2969970703125L574.0269775390625 360.46600341796875L572.8820190429688 361.5660095214844L569.697998046875 363.41400146484375L568.2360229492188 364.25299072265625L561.6199951171875 368.08099365234375L561.2440185546875 368.385009765625L559.5490112304688 370.5249938964844L553.6589965820312 373.885009765625L550.405029296875 374.6650085449219L549.947998046875 374.8320007324219L538.1199951171875 381.677001953125L537.7020263671875 382.00799560546875L536.4119873046875 383.8590087890625L521.0789794921875 392.8420104980469L518.2160034179688 393.28900146484375L517.7570190429688 393.468994140625L507.39801025390625 399.46600341796875L506.75799560546875 399.83099365234375L505.0710144042969 401.9620056152344L499.17401123046875 405.33099365234375L495.9119873046875 406.1080017089844L495.52801513671875 406.3370056152344L494.39898681640625 406.99798583984375L488.822998046875 410.21600341796875L487.67401123046875 410.6080017089844L487.0069885253906 410.6910095214844L485.6090087890625 410.6080017089844L484.3190002441406 410.53900146484375L481.96600341796875 409.66400146484375L480.6029968261719 408.5039978027344L479.68798828125 406.99798583984375L479.15899658203125 405.6289978027344L478.739990234375 404.0820007324219L478.3580017089844 401.66400146484375L478.2869873046875 401.23199462890625L478.4119873046875 401.0119934082031L481.5369873046875 399.5249938964844L481.7699890136719 399.5400085449219L482.489013671875 400.12298583984375L482.6199951171875 402.2959899902344L482.8290100097656 403.5639953613281L483.19000244140625 404.468994140625L483.67498779296875 405.24798583984375L484.489990234375 405.88299560546875L484.8110046386719 406.0050048828125L485.5069885253906 406.0050048828125L486.29901123046875 405.6510009765625L568.8289794921875 357.885009765625L569.7570190429688 356.3389892578125L570.18701171875 354.7919921875L570.322998046875 353.1080017089844L570.322998046875 351.0060119628906L570.0369873046875 348.760009765625L570.1090087890625 348.53900146484375L570.3189697265625 348.34600830078125L573.6199951171875 347.17498779296875L573.8410034179688 347.12298583984375L573.9949951171875 347.24798583984375Z" stroke="#000000" outline-element="true" stroke-width="0.5" g2gstroke="#312783"/>
<path orgstroke="#000000" orgfill="none" stroke-linecap="round" transform="translate(-295.5923495625341, 69.5511410735374) translate(13.523832986521029, -13.523832986521171) translate(-20.641156755826387, -10.927671223672746) translate(185.48729538878888, 48.62288325725535) translate(724,-30) translate(-518.5915025634765, -83.33211865234375) translate(16.578101297026706, 17.61423262809086) translate(-1.3860387278048165, 0.34650968195120413) translate(-12.820858232194496, -12.474348550243349) translate(641.2587701001213, 43.29666878413224) translate(64.88523159790037, 2.6585086364746076) translate(-84.87499999999949, -18.374999999999886)" fill="none" d="M505.9119873046875 395.69000244140625L496.92401123046875 400.8869934082031" stroke="#000000" stroke-width="0.25" g2gstroke="#312783"/>
<path orgstroke="#000000" orgfill="none" stroke-linecap="round" transform="translate(-295.5923495625341, 69.5511410735374) translate(13.523832986521029, -13.523832986521171) translate(-20.641156755826387, -10.927671223672746) translate(185.48729538878888, 48.62288325725535) translate(724,-30) translate(-518.5915025634765, -83.33211865234375) translate(16.578101297026706, 17.61423262809086) translate(-1.3860387278048165, 0.34650968195120413) translate(-12.820858232194496, -12.474348550243349) translate(641.2587701001213, 43.29666878413224) translate(64.88523159790037, 2.6585086364746076) translate(-84.87499999999949, -18.374999999999886)" fill="none" d="M537.1060180664062 377.635009765625L519.2869873046875 387.9410095214844" stroke="#000000" stroke-width="0.25" g2gstroke="#312783"/>
<path orgstroke="#000000" orgfill="none" stroke-linecap="round" transform="translate(-295.5923495625341, 69.5511410735374) translate(13.523832986521029, -13.523832986521171) translate(-20.641156755826387, -10.927671223672746) translate(185.48729538878888, 48.62288325725535) translate(724,-30) translate(-518.5915025634765, -83.33211865234375) translate(16.578101297026706, 17.61423262809086) translate(-1.3860387278048165, 0.34650968195120413) translate(-12.820858232194496, -12.474348550243349) translate(641.2587701001213, 43.29666878413224) translate(64.88523159790037, 2.6585086364746076) translate(-84.87499999999949, -18.374999999999886)" fill="none" d="M560.5289916992188 364.08099365234375L551.2570190429688 369.4410095214844" stroke="#000000" stroke-width="0.25" g2gstroke="#312783"/>
<path orgstroke="#000000" orgfill="none" stroke-linecap="round" transform="translate(-295.5923495625341, 69.5511410735374) translate(13.523832986521029, -13.523832986521171) translate(-20.641156755826387, -10.927671223672746) translate(185.48729538878888, 48.62288325725535) translate(724,-30) translate(-518.5915025634765, -83.33211865234375) translate(16.578101297026706, 17.61423262809086) translate(-1.3860387278048165, 0.34650968195120413) translate(-12.820858232194496, -12.474348550243349) translate(641.2587701001213, 43.29666878413224) translate(64.88523159790037, 2.6585086364746076) translate(-84.87499999999949, -18.374999999999886)" fill="none" d="M486.15899658203125 410.6910095214844L485.114990234375 410.53900146484375L482.7699890136719 409.66400146484375L481.4010009765625 408.5039978027344L480.489013671875 406.99798583984375L479.9540100097656 405.6289978027344L479.5369873046875 404.0820007324219L479.156005859375 401.66400146484375" stroke="#000000" stroke-width="0.25" g2gstroke="#312783"/>
<path orgstroke="#000000" orgfill="none" stroke-linecap="round" transform="translate(-295.5923495625341, 69.5511410735374) translate(13.523832986521029, -13.523832986521171) translate(-20.641156755826387, -10.927671223672746) translate(185.48729538878888, 48.62288325725535) translate(724,-30) translate(-518.5915025634765, -83.33211865234375) translate(16.578101297026706, 17.61423262809086) translate(-1.3860387278048165, 0.34650968195120413) translate(-12.820858232194496, -12.474348550243349) translate(641.2587701001213, 43.29666878413224) translate(64.88523159790037, 2.6585086364746076) translate(-84.87499999999949, -18.374999999999886)" fill="none" d="M494.3699951171875 402.37298583984375L487.3529968261719 406.44000244140625L486.54901123046875 406.78900146484375L485.8550109863281 406.78900146484375L484.9460144042969 406.44000244140625L484.239990234375 405.9410095214844" stroke="#000000" stroke-width="0.25" g2gstroke="#312783"/>
<path orgstroke="#000000" orgfill="none" stroke-linecap="round" transform="translate(-295.5923495625341, 69.5511410735374) translate(13.523832986521029, -13.523832986521171) translate(-20.641156755826387, -10.927671223672746) translate(185.48729538878888, 48.62288325725535) translate(724,-30) translate(-518.5915025634765, -83.33211865234375) translate(16.578101297026706, 17.61423262809086) translate(-1.3860387278048165, 0.34650968195120413) translate(-12.820858232194496, -12.474348550243349) translate(641.2587701001213, 43.29666878413224) translate(64.88523159790037, 2.6585086364746076) translate(-84.87499999999949, -18.374999999999886)" fill="none" d="M568.2039794921875 359.6310119628906L561.614990234375 363.45599365234375L561.2349853515625 363.76300048828125L559.5360107421875 365.8999938964844L553.64501953125 369.260009765625L550.3820190429688 370.0409851074219L549.93701171875 370.2080078125L538.1119995117188 377.0539855957031L537.6890258789062 377.385009765625L536.406005859375 379.24798583984375L521.0689697265625 388.218994140625L518.2039794921875 388.66400146484375L517.739990234375 388.843994140625L507.3699951171875 394.8420104980469L506.7449951171875 395.20599365234375L505.04901123046875 397.3380126953125L499.1570129394531 400.70599365234375L495.906005859375 401.4830017089844L495.5069885253906 401.7130126953125L494.3699951171875 402.37298583984375" stroke="#000000" stroke-width="0.25" g2gstroke="#312783"/>
<path orgstroke="#000000" orgfill="none" stroke-linecap="round" transform="translate(-295.5923495625341, 69.5511410735374) translate(13.523832986521029, -13.523832986521171) translate(-20.641156755826387, -10.927671223672746) translate(185.48729538878888, 48.62288325725535) translate(724,-30) translate(-518.5915025634765, -83.33211865234375) translate(16.578101297026706, 17.61423262809086) translate(-1.3860387278048165, 0.34650968195120413) translate(-12.820858232194496, -12.474348550243349) translate(641.2587701001213, 43.29666878413224) translate(64.88523159790037, 2.6585086364746076) translate(-84.87499999999949, -18.374999999999886)" fill="none" d="M571.0789794921875 349.53900146484375L571.3679809570312 351.78900146484375L571.3679809570312 353.89801025390625L571.2310180664062 355.58099365234375L570.81201171875 357.12298583984375L569.8699951171875 358.6650085449219L568.2039794921875 359.6310119628906" stroke="#000000" stroke-width="0.25" g2gstroke="#312783"/>
<path orgstroke="#000000" orgfill="none" stroke-linecap="round" transform="translate(-295.5923495625341, 69.5511410735374) translate(13.523832986521029, -13.523832986521171) translate(-20.641156755826387, -10.927671223672746) translate(185.48729538878888, 48.62288325725535) translate(724,-30) translate(-518.5915025634765, -83.33211865234375) translate(16.578101297026706, 17.61423262809086) translate(-1.3860387278048165, 0.34650968195120413) translate(-12.820858232194496, -12.474348550243349) translate(641.2587701001213, 43.29666878413224) translate(64.88523159790037, 2.6585086364746076) translate(-84.87499999999949, -18.374999999999886)" fill="none" d="M561.614990234375 363.45599365234375L561.614990234375 368.08099365234375" stroke="#000000" stroke-width="0.25" g2gstroke="#312783"/>
<path orgstroke="#000000" orgfill="none" stroke-linecap="round" transform="translate(-295.5923495625341, 69.5511410735374) translate(13.523832986521029, -13.523832986521171) translate(-20.641156755826387, -10.927671223672746) translate(185.48729538878888, 48.62288325725535) translate(724,-30) translate(-518.5915025634765, -83.33211865234375) translate(16.578101297026706, 17.61423262809086) translate(-1.3860387278048165, 0.34650968195120413) translate(-12.820858232194496, -12.474348550243349) translate(641.2587701001213, 43.29666878413224) translate(64.88523159790037, 2.6585086364746076) translate(-84.87499999999949, -18.374999999999886)" fill="none" d="M559.5360107421875 365.8999938964844L559.5360107421875 370.4020080566406" stroke="#000000" stroke-width="0.25" g2gstroke="#312783"/>
<path orgstroke="#000000" orgfill="none" stroke-linecap="round" transform="translate(-295.5923495625341, 69.5511410735374) translate(13.523832986521029, -13.523832986521171) translate(-20.641156755826387, -10.927671223672746) translate(185.48729538878888, 48.62288325725535) translate(724,-30) translate(-518.5915025634765, -83.33211865234375) translate(16.578101297026706, 17.61423262809086) translate(-1.3860387278048165, 0.34650968195120413) translate(-12.820858232194496, -12.474348550243349) translate(641.2587701001213, 43.29666878413224) translate(64.88523159790037, 2.6585086364746076) translate(-84.87499999999949, -18.374999999999886)" fill="none" d="M553.64501953125 369.260009765625L553.64501953125 373.885009765625" stroke="#000000" stroke-width="0.25" g2gstroke="#312783"/>
<path orgstroke="#000000" orgfill="none" stroke-linecap="round" transform="translate(-295.5923495625341, 69.5511410735374) translate(13.523832986521029, -13.523832986521171) translate(-20.641156755826387, -10.927671223672746) translate(185.48729538878888, 48.62288325725535) translate(724,-30) translate(-518.5915025634765, -83.33211865234375) translate(16.578101297026706, 17.61423262809086) translate(-1.3860387278048165, 0.34650968195120413) translate(-12.820858232194496, -12.474348550243349) translate(641.2587701001213, 43.29666878413224) translate(64.88523159790037, 2.6585086364746076) translate(-84.87499999999949, -18.374999999999886)" fill="none" d="M550.114990234375 370.1499938964844L550.114990234375 374.7749938964844" stroke="#000000" stroke-width="0.25" g2gstroke="#312783"/>
<path orgstroke="#000000" orgfill="none" stroke-linecap="round" transform="translate(-295.5923495625341, 69.5511410735374) translate(13.523832986521029, -13.523832986521171) translate(-20.641156755826387, -10.927671223672746) translate(185.48729538878888, 48.62288325725535) translate(724,-30) translate(-518.5915025634765, -83.33211865234375) translate(16.578101297026706, 17.61423262809086) translate(-1.3860387278048165, 0.34650968195120413) translate(-12.820858232194496, -12.474348550243349) translate(641.2587701001213, 43.29666878413224) translate(64.88523159790037, 2.6585086364746076) translate(-84.87499999999949, -18.374999999999886)" fill="none" d="M507.1619873046875 394.8840026855469L507.1619873046875 399.50799560546875" stroke="#000000" stroke-width="0.25" g2gstroke="#312783"/>
<path orgstroke="#000000" orgfill="none" stroke-linecap="round" transform="translate(-295.5923495625341, 69.5511410735374) translate(13.523832986521029, -13.523832986521171) translate(-20.641156755826387, -10.927671223672746) translate(185.48729538878888, 48.62288325725535) translate(724,-30) translate(-518.5915025634765, -83.33211865234375) translate(16.578101297026706, 17.61423262809086) translate(-1.3860387278048165, 0.34650968195120413) translate(-12.820858232194496, -12.474348550243349) translate(641.2587701001213, 43.29666878413224) translate(64.88523159790037, 2.6585086364746076) translate(-84.87499999999949, -18.374999999999886)" fill="none" d="M505.09100341796875 397.33099365234375L505.09100341796875 401.8399963378906" stroke="#000000" stroke-width="0.25" g2gstroke="#312783"/>
<path orgstroke="#000000" orgfill="none" stroke-linecap="round" transform="translate(-295.5923495625341, 69.5511410735374) translate(13.523832986521029, -13.523832986521171) translate(-20.641156755826387, -10.927671223672746) translate(185.48729538878888, 48.62288325725535) translate(724,-30) translate(-518.5915025634765, -83.33211865234375) translate(16.578101297026706, 17.61423262809086) translate(-1.3860387278048165, 0.34650968195120413) translate(-12.820858232194496, -12.474348550243349) translate(641.2587701001213, 43.29666878413224) translate(64.88523159790037, 2.6585086364746076) translate(-84.87499999999949, -18.374999999999886)" fill="none" d="M499.2019958496094 400.70599365234375L499.2019958496094 405.3179931640625" stroke="#000000" stroke-width="0.25" g2gstroke="#312783"/>
<path orgstroke="#000000" orgfill="none" stroke-linecap="round" transform="translate(-295.5923495625341, 69.5511410735374) translate(13.523832986521029, -13.523832986521171) translate(-20.641156755826387, -10.927671223672746) translate(185.48729538878888, 48.62288325725535) translate(724,-30) translate(-518.5915025634765, -83.33211865234375) translate(16.578101297026706, 17.61423262809086) translate(-1.3860387278048165, 0.34650968195120413) translate(-12.820858232194496, -12.474348550243349) translate(641.2587701001213, 43.29666878413224) translate(64.88523159790037, 2.6585086364746076) translate(-84.87499999999949, -18.374999999999886)" fill="none" d="M495.67401123046875 401.58099365234375L495.67401123046875 406.20599365234375" stroke="#000000" stroke-width="0.25" g2gstroke="#312783"/>
<path orgstroke="#000000" orgfill="none" stroke-linecap="round" transform="translate(-295.5923495625341, 69.5511410735374) translate(13.523832986521029, -13.523832986521171) translate(-20.641156755826387, -10.927671223672746) translate(185.48729538878888, 48.62288325725535) translate(724,-30) translate(-518.5915025634765, -83.33211865234375) translate(16.578101297026706, 17.61423262809086) translate(-1.3860387278048165, 0.34650968195120413) translate(-12.820858232194496, -12.474348550243349) translate(641.2587701001213, 43.29666878413224) translate(64.88523159790037, 2.6585086364746076) translate(-84.87499999999949, -18.374999999999886)" fill="none" d="M518.2039794921875 388.66400146484375L518.2039794921875 393.2550048828125" stroke="#000000" stroke-width="0.25" g2gstroke="#312783"/>
<path orgstroke="#000000" orgfill="none" stroke-linecap="round" transform="translate(-295.5923495625341, 69.5511410735374) translate(13.523832986521029, -13.523832986521171) translate(-20.641156755826387, -10.927671223672746) translate(185.48729538878888, 48.62288325725535) translate(724,-30) translate(-518.5915025634765, -83.33211865234375) translate(16.578101297026706, 17.61423262809086) translate(-1.3860387278048165, 0.34650968195120413) translate(-12.820858232194496, -12.474348550243349) translate(641.2587701001213, 43.29666878413224) translate(64.88523159790037, 2.6585086364746076) translate(-84.87499999999949, -18.374999999999886)" fill="none" d="M521.0689697265625 388.218994140625L521.0689697265625 392.8420104980469" stroke="#000000" stroke-width="0.25" g2gstroke="#312783"/>
<path orgstroke="#000000" orgfill="none" stroke-linecap="round" transform="translate(-295.5923495625341, 69.5511410735374) translate(13.523832986521029, -13.523832986521171) translate(-20.641156755826387, -10.927671223672746) translate(185.48729538878888, 48.62288325725535) translate(724,-30) translate(-518.5915025634765, -83.33211865234375) translate(16.578101297026706, 17.61423262809086) translate(-1.3860387278048165, 0.34650968195120413) translate(-12.820858232194496, -12.474348550243349) translate(641.2587701001213, 43.29666878413224) translate(64.88523159790037, 2.6585086364746076) translate(-84.87499999999949, -18.374999999999886)" fill="none" d="M527.3170166015625 384.5069885253906L527.3170166015625 389.1310119628906" stroke="#000000" stroke-width="0.25" g2gstroke="#312783"/>
<path orgstroke="#000000" orgfill="none" stroke-linecap="round" transform="translate(-295.5923495625341, 69.5511410735374) translate(13.523832986521029, -13.523832986521171) translate(-20.641156755826387, -10.927671223672746) translate(185.48729538878888, 48.62288325725535) translate(724,-30) translate(-518.5915025634765, -83.33211865234375) translate(16.578101297026706, 17.61423262809086) translate(-1.3860387278048165, 0.34650968195120413) translate(-12.820858232194496, -12.474348550243349) translate(641.2587701001213, 43.29666878413224) translate(64.88523159790037, 2.6585086364746076) translate(-84.87499999999949, -18.374999999999886)" fill="none" d="M528.6489868164062 383.7749938964844L528.6489868164062 388.3999938964844" stroke="#000000" stroke-width="0.25" g2gstroke="#312783"/>
<path orgstroke="#000000" orgfill="none" stroke-linecap="round" transform="translate(-295.5923495625341, 69.5511410735374) translate(13.523832986521029, -13.523832986521171) translate(-20.641156755826387, -10.927671223672746) translate(185.48729538878888, 48.62288325725535) translate(724,-30) translate(-518.5915025634765, -83.33211865234375) translate(16.578101297026706, 17.61423262809086) translate(-1.3860387278048165, 0.34650968195120413) translate(-12.820858232194496, -12.474348550243349) translate(641.2587701001213, 43.29666878413224) translate(64.88523159790037, 2.6585086364746076) translate(-84.87499999999949, -18.374999999999886)" fill="none" d="M536.406005859375 379.24798583984375L536.406005859375 383.91400146484375" stroke="#000000" stroke-width="0.25" g2gstroke="#312783"/>
<path orgstroke="#000000" orgfill="none" stroke-linecap="round" transform="translate(-295.5923495625341, 69.5511410735374) translate(13.523832986521029, -13.523832986521171) translate(-20.641156755826387, -10.927671223672746) translate(185.48729538878888, 48.62288325725535) translate(724,-30) translate(-518.5915025634765, -83.33211865234375) translate(16.578101297026706, 17.61423262809086) translate(-1.3860387278048165, 0.34650968195120413) translate(-12.820858232194496, -12.474348550243349) translate(641.2587701001213, 43.29666878413224) translate(64.88523159790037, 2.6585086364746076) translate(-84.87499999999949, -18.374999999999886)" fill="none" d="M537.6890258789062 377.385009765625L537.6890258789062 382.093994140625" stroke="#000000" stroke-width="0.25" g2gstroke="#312783"/>
<path orgstroke="#000000" orgfill="none" stroke-linecap="round" transform="translate(-295.5923495625341, 69.5511410735374) translate(13.523832986521029, -13.523832986521171) translate(-20.641156755826387, -10.927671223672746) translate(185.48729538878888, 48.62288325725535) translate(724,-30) translate(-518.5915025634765, -83.33211865234375) translate(16.578101297026706, 17.61423262809086) translate(-1.3860387278048165, 0.34650968195120413) translate(-12.820858232194496, -12.474348550243349) translate(641.2587701001213, 43.29666878413224) translate(64.88523159790037, 2.6585086364746076) translate(-84.87499999999949, -18.374999999999886)" fill="none" d="M570.2310180664062 348.6310119628906L571.0339965820312 349.3999938964844L571.2570190429688 349.3999938964844L574.7449951171875 348.0509948730469" stroke="#000000" stroke-width="0.25" g2gstroke="#312783"/>
<path orgstroke="#000000" orgfill="none" stroke-linecap="round" transform="translate(-295.5923495625341, 69.5511410735374) translate(13.523832986521029, -13.523832986521171) translate(-20.641156755826387, -10.927671223672746) translate(185.48729538878888, 48.62288325725535) translate(724,-30) translate(-518.5915025634765, -83.33211865234375) translate(16.578101297026706, 17.61423262809086) translate(-1.3860387278048165, 0.34650968195120413) translate(-12.820858232194496, -12.474348550243349) translate(641.2587701001213, 43.29666878413224) translate(64.88523159790037, 2.6585086364746076) translate(-84.87499999999949, -18.374999999999886)" fill="none" d="M575.5070190429688 353.260009765625L571.6539916992188 362.0249938964844" stroke="#000000" stroke-width="0.25" g2gstroke="#312783"/>
<path orgstroke="#000000" orgfill="none" stroke-linecap="round" transform="translate(-295.5923495625341, 69.5511410735374) translate(13.523832986521029, -13.523832986521171) translate(-20.641156755826387, -10.927671223672746) translate(185.48729538878888, 48.62288325725535) translate(724,-30) translate(-518.5915025634765, -83.33211865234375) translate(16.578101297026706, 17.61423262809086) translate(-1.3860387278048165, 0.34650968195120413) translate(-12.820858232194496, -12.474348550243349) translate(641.2587701001213, 43.29666878413224) translate(64.88523159790037, 2.6585086364746076) translate(-84.87499999999949, -18.374999999999886)" fill="none" d="M574.0770263671875 356.50799560546875L575.176025390625 356.8399963378906" stroke="#000000" stroke-width="0.25" g2gstroke="#312783"/>
<path orgstroke="#000000" orgfill="none" stroke-linecap="round" transform="translate(-295.5923495625341, 69.5511410735374) translate(13.523832986521029, -13.523832986521171) translate(-20.641156755826387, -10.927671223672746) translate(185.48729538878888, 48.62288325725535) translate(724,-30) translate(-518.5915025634765, -83.33211865234375) translate(16.578101297026706, 17.61423262809086) translate(-1.3860387278048165, 0.34650968195120413) translate(-12.820858232194496, -12.474348550243349) translate(641.2587701001213, 43.29666878413224) translate(64.88523159790037, 2.6585086364746076) translate(-84.87499999999949, -18.374999999999886)" fill="none" d="M573.1090087890625 358.718994140625L574.5789794921875 359.2969970703125" stroke="#000000" stroke-width="0.25" g2gstroke="#312783"/>
<path orgstroke="#000000" orgfill="none" stroke-linecap="round" transform="translate(-295.5923495625341, 69.5511410735374) translate(13.523832986521029, -13.523832986521171) translate(-20.641156755826387, -10.927671223672746) translate(185.48729538878888, 48.62288325725535) translate(724,-30) translate(-518.5915025634765, -83.33211865234375) translate(16.578101297026706, 17.61423262809086) translate(-1.3860387278048165, 0.34650968195120413) translate(-12.820858232194496, -12.474348550243349) translate(641.2587701001213, 43.29666878413224) translate(64.88523159790037, 2.6585086364746076) translate(-84.87499999999949, -18.374999999999886)" fill="none" d="M478.43701171875 401.1910095214844L479.07000732421875 401.6289978027344L479.2869873046875 401.6499938964844L482.45098876953125 400.17401123046875" stroke="#000000" stroke-width="0.25" g2gstroke="#312783"/>
<path orgstroke="#000000" orgfill="none" stroke-linecap="round" transform="translate(-295.5923495625341, 69.5511410735374) translate(13.523832986521029, -13.523832986521171) translate(-20.641156755826387, -10.927671223672746) translate(185.48729538878888, 48.62288325725535) translate(724,-30) translate(-518.5915025634765, -83.33211865234375) translate(16.578101297026706, 17.61423262809086) translate(-1.3860387278048165, 0.34650968195120413) translate(-12.820858232194496, -12.474348550243349) translate(641.2587701001213, 43.29666878413224) translate(64.88523159790037, 2.6585086364746076) translate(-84.87499999999949, -18.374999999999886)" fill="none" d="M486.54901123046875 406.78900146484375L489.2869873046875 409.9410095214844" stroke="#000000" stroke-width="0.25" g2gstroke="#312783"/>
<path orgstroke="#000000" orgfill="none" stroke-linecap="round" transform="translate(-295.5923495625341, 69.5511410735374) translate(13.523832986521029, -13.523832986521171) translate(-20.641156755826387, -10.927671223672746) translate(185.48729538878888, 48.62288325725535) translate(724,-30) translate(-518.5915025634765, -83.33211865234375) translate(16.578101297026706, 17.61423262809086) translate(-1.3860387278048165, 0.34650968195120413) translate(-12.820858232194496, -12.474348550243349) translate(641.2587701001213, 43.29666878413224) translate(64.88523159790037, 2.6585086364746076) translate(-84.87499999999949, -18.374999999999886)" fill="none" d="M491.74200439453125 403.89898681640625L491.74200439453125 408.37298583984375" stroke="#000000" stroke-width="0.25" g2gstroke="#312783"/>
<path orgstroke="#000000" orgfill="none" stroke-linecap="round" transform="translate(-295.5923495625341, 69.5511410735374) translate(13.523832986521029, -13.523832986521171) translate(-20.641156755826387, -10.927671223672746) translate(185.48729538878888, 48.62288325725535) translate(724,-30) translate(-518.5915025634765, -83.33211865234375) translate(16.578101297026706, 17.61423262809086) translate(-1.3860387278048165, 0.34650968195120413) translate(-12.820858232194496, -12.474348550243349) translate(641.2587701001213, 43.29666878413224) translate(64.88523159790037, 2.6585086364746076) translate(-84.87499999999949, -18.374999999999886)" fill="none" d="M494.906,404.841   c-0.306,0.521-0.979,0.945-1.497,0.945c-0.521,0-0.696-0.438-0.396-0.945c0.312-0.521,0.979-0.938,1.479-0.938   C495.026,403.899,495.201,404.316,494.906,404.841z" stroke="#000000" stroke-width="0.25" g2gstroke="#312783"/>
<path orgstroke="#000000" orgfill="none" stroke-linecap="round" transform="translate(-295.5923495625341, 69.5511410735374) translate(13.523832986521029, -13.523832986521171) translate(-20.641156755826387, -10.927671223672746) translate(185.48729538878888, 48.62288325725535) translate(724,-30) translate(-518.5915025634765, -83.33211865234375) translate(16.578101297026706, 17.61423262809086) translate(-1.3860387278048165, 0.34650968195120413) translate(-12.820858232194496, -12.474348550243349) translate(641.2587701001213, 43.29666878413224) translate(64.88523159790037, 2.6585086364746076) translate(-84.87499999999949, -18.374999999999886)" fill="none" d="M483.606,406.789   c-0.312,0.521-0.979,0.938-1.493,0.938c-0.521,0-0.703-0.433-0.396-0.938c0.313-0.521,0.979-0.944,1.49-0.944   C483.73,405.839,483.905,406.26,483.606,406.789z" stroke="#000000" stroke-width="0.25" g2gstroke="#312783"/>
<path orgstroke="#000000" orgfill="none" stroke-linecap="round" transform="translate(-295.5923495625341, 69.5511410735374) translate(13.523832986521029, -13.523832986521171) translate(-20.641156755826387, -10.927671223672746) translate(185.48729538878888, 48.62288325725535) translate(724,-30) translate(-518.5915025634765, -83.33211865234375) translate(16.578101297026706, 17.61423262809086) translate(-1.3860387278048165, 0.34650968195120413) translate(-12.820858232194496, -12.474348550243349) translate(641.2587701001213, 43.29666878413224) translate(64.88523159790037, 2.6585086364746076) translate(-84.87499999999949, -18.374999999999886)" fill="none" d="M565.299,364.081   c-0.313,0.521-0.979,0.938-1.494,0.938c-0.521,0-0.693-0.432-0.396-0.938c0.308-0.521,0.979-0.945,1.493-0.945   C565.416,363.135,565.604,363.564,565.299,364.081z" stroke="#000000" stroke-width="0.25" g2gstroke="#312783"/>
<path orgstroke="#000000" orgfill="none" stroke-linecap="round" transform="translate(-295.5923495625341, 69.5511410735374) translate(13.523832986521029, -13.523832986521171) translate(-20.641156755826387, -10.927671223672746) translate(185.48729538878888, 48.62288325725535) translate(724,-30) translate(-518.5915025634765, -83.33211865234375) translate(16.578101297026706, 17.61423262809086) translate(-1.3860387278048165, 0.34650968195120413) translate(-12.820858232194496, -12.474348550243349) translate(641.2587701001213, 43.29666878413224) translate(64.88523159790037, 2.6585086364746076) translate(-84.87499999999949, -18.374999999999886)" fill="none" d="M542.401,377.635   c-0.313,0.521-0.979,0.945-1.496,0.945c-0.521,0-0.7-0.423-0.396-0.945c0.313-0.521,0.979-0.938,1.479-0.938   C542.523,376.691,542.698,377.11,542.401,377.635z" stroke="#000000" stroke-width="0.25" g2gstroke="#312783"/>
<path orgstroke="#000000" orgfill="none" stroke-linecap="round" transform="translate(-295.5923495625341, 69.5511410735374) translate(13.523832986521029, -13.523832986521171) translate(-20.641156755826387, -10.927671223672746) translate(185.48729538878888, 48.62288325725535) translate(724,-30) translate(-518.5915025634765, -83.33211865234375) translate(16.578101297026706, 17.61423262809086) translate(-1.3860387278048165, 0.34650968195120413) translate(-12.820858232194496, -12.474348550243349) translate(641.2587701001213, 43.29666878413224) translate(64.88523159790037, 2.6585086364746076) translate(-84.87499999999949, -18.374999999999886)" fill="none" d="M516.53,392.842   c-0.303,0.522-0.979,0.946-1.494,0.946c-0.521,0-0.699-0.423-0.396-0.946c0.312-0.521,0.979-0.938,1.479-0.938   C516.656,391.9,516.828,392.316,516.53,392.842z" stroke="#000000" stroke-width="0.25" g2gstroke="#312783"/>
</g>
</g>
</g>
</g>
</g></svg>