<svg xmlns="http://www.w3.org/2000/svg" xmlns:xlink="http://www.w3.org/1999/xlink" xmlns:x="http://ns.adobe.com/Extensibility/1.0/" xmlns:graph="http://ns.adobe.com/Graphs/1.0/" xmlns:i="http://ns.adobe.com/AdobeIllustrator/10.0/" xmlns:etg="http://www.eurotaxglass.com/etg/evd/" etg:dataTimestamp="1539068912893" contentScriptType="text/ecmascript" zoomAndPan="magnify" contentStyleType="text/css" id="Layer_1" enable-background="new 0 0 1841.891 1595.279" version="1.1" xml:space="preserve" width="1841.891px" preserveAspectRatio="xMidYMid meet" viewBox="0 0 1841.891 1595.279" height="1595.279px" x="0px" y="0px"><g xmlns="http://www.w3.org/2000/svg" objecttype="PS" tooltip="#UNDEFINED" id="42">
<g onmouseover="notifyOwner(AGV_OBJECT_MOUSEOVER, '42(PS)')" transform="translate(-9.433746356535266E-6, 3.356933575560106E-7) translate(-35.71980609130861, -13.200809143066408) translate(44.708733184814434, 94.79042849731445) matrix(0.6117410612267968 0 0 0.6117410612267968 0.2921243287958965 0.477310974878083) translate(-92,-34) " onclick="clickZoom(evt); notifyOwner(AGV_OBJECT_MOUSECLICK, '42(PS)')" onmouseout="notifyOwner(AGV_OBJECT_MOUSEOUT, '42(PS)')" tooltip="#UNDEFINED" id="42-Graphic" objecttype="GRAPHIC">
<g zvalue="41">
<g zvalue="2">
<g zvalue="20">
<g>
<path stroke-linecap="round" orgstroke="#000000" orgfill="#ffffff" transform="translate(-452.08241697799326, -394.12313275004544) translate(160.35401969732243, 38.63952281863192) translate(364.2780316618762, -29.33782805330543) translate(-350,439) rotate(4.253614245710539 1486.4905395507812 300.8445053100586) translate(-6.812282221167607, -411.007694010456) translate(383.58052347390344, 192.690685500975) matrix(1.258408215182028 0 0 1.258408215182028 -266.36556054070087 -148.55210332005606) translate(533,195) translate(-21.896966779008153, -6.69073984914138) translate(-45.01043171240576, -11.556732466698747) translate(62.04140587385655, 21.28871770181354) translate(-1.8247472315840696, 0.6082490771946709) translate(-22.50521585620288, -12.164981543893418) translate(26.76295939656552, 13.989728775477488) translate(-24.32996308778695, -20.68046862461881) translate(-17.6392232386454, -36.49494463168031) translate(35.27844647729091, 60.216658642272535) translate(15.6944547729492, 32.65631137084961)" fill="#ffffff" g2gfill="#BCBEC0" d="M588.791,289.943   c-18.043,12.455-40.214,25.979-57.104,35.396l-9.229,0.61c-0.938,0.49-1.841,0.957-2.7,1.401   c-8.171,4.183-16.988,10.091-25.081,11.352l-0.618-0.201l-0.431-0.202l-0.771-0.957l-1.513-5.438l-0.121-2.854l0.232-2.379   l0.188-0.644c7.695-1.199,16.063-6.604,23.896-10.732l0.896-0.672l0.26-0.813l0.11-2.497l1.172-3.563l1.979-3.099l0.301-2.979   l0.072-0.597l0.229-0.361l0.396-0.393c19.646-10.063,56.058-31.938,79.521-49.255l0.384-0.169l0.371,0.111l0.979,0.438l0.181,0.42   l-0.303,2.979l-1.976,3.1l-1.185,3.555l-0.063,1.521l0.521,0.503c2.498-1.898,4.813-3.729,6.896-5.47   c2.382-1.979,4.907-4.858,6.938-7.583l0.271-0.313l0.332,0.021l1.104,0.5l0.236,0.313l0.099,0.36l-0.229,2.381l0.122,2.846   l1.512,5.445l-0.271,0.561c-2.028,2.729-4.563,5.611-6.938,7.585c-3.876,3.229-8.522,6.771-13.672,10.468L588.791,289.943z" stroke="#000000" outline-element="true" stroke-width="0.5" g2gstroke="#312783"/>
<path orgstroke="#000000" orgfill="none" stroke-linecap="round" transform="translate(-452.08241697799326, -394.12313275004544) translate(160.35401969732243, 38.63952281863192) translate(364.2780316618762, -29.33782805330543) translate(-350,439) rotate(4.253614245710539 1486.4905395507812 300.8445053100586) translate(-6.812282221167607, -411.007694010456) translate(383.58052347390344, 192.690685500975) matrix(1.258408215182028 0 0 1.258408215182028 -266.36556054070087 -148.55210332005606) translate(533,195) translate(-21.896966779008153, -6.69073984914138) translate(-45.01043171240576, -11.556732466698747) translate(62.04140587385655, 21.28871770181354) translate(-1.8247472315840696, 0.6082490771946709) translate(-22.50521585620288, -12.164981543893418) translate(26.76295939656552, 13.989728775477488) translate(-24.32996308778695, -20.68046862461881) translate(-17.6392232386454, -36.49494463168031) translate(35.27844647729091, 60.216658642272535) translate(15.6944547729492, 32.65631137084961)" fill="none" d="M612.825,256.56   c0.729-0.879,1.44-1.771,2.104-2.646" stroke="#000000" stroke-width="0.25" g2gstroke="#312783"/>
<path orgstroke="#000000" orgfill="none" stroke-linecap="round" transform="translate(-452.08241697799326, -394.12313275004544) translate(160.35401969732243, 38.63952281863192) translate(364.2780316618762, -29.33782805330543) translate(-350,439) rotate(4.253614245710539 1486.4905395507812 300.8445053100586) translate(-6.812282221167607, -411.007694010456) translate(383.58052347390344, 192.690685500975) matrix(1.258408215182028 0 0 1.258408215182028 -266.36556054070087 -148.55210332005606) translate(533,195) translate(-21.896966779008153, -6.69073984914138) translate(-45.01043171240576, -11.556732466698747) translate(62.04140587385655, 21.28871770181354) translate(-1.8247472315840696, 0.6082490771946709) translate(-22.50521585620288, -12.164981543893418) translate(26.76295939656552, 13.989728775477488) translate(-24.32996308778695, -20.68046862461881) translate(-17.6392232386454, -36.49494463168031) translate(35.27844647729091, 60.216658642272535) translate(15.6944547729492, 32.65631137084961)" fill="none" d="M528.634,313.133   c22.688-12.536,56.051-33.234,75.521-48.547" stroke="#000000" stroke-width="0.25" g2gstroke="#312783"/>
<path orgstroke="#000000" orgfill="none" stroke-linecap="round" transform="translate(-452.08241697799326, -394.12313275004544) translate(160.35401969732243, 38.63952281863192) translate(364.2780316618762, -29.33782805330543) translate(-350,439) rotate(4.253614245710539 1486.4905395507812 300.8445053100586) translate(-6.812282221167607, -411.007694010456) translate(383.58052347390344, 192.690685500975) matrix(1.258408215182028 0 0 1.258408215182028 -266.36556054070087 -148.55210332005606) translate(533,195) translate(-21.896966779008153, -6.69073984914138) translate(-45.01043171240576, -11.556732466698747) translate(62.04140587385655, 21.28871770181354) translate(-1.8247472315840696, 0.6082490771946709) translate(-22.50521585620288, -12.164981543893418) translate(26.76295939656552, 13.989728775477488) translate(-24.32996308778695, -20.68046862461881) translate(-17.6392232386454, -36.49494463168031) translate(35.27844647729091, 60.216658642272535) translate(15.6944547729492, 32.65631137084961)" fill="none" d="M510.723,322.76   c2.562-1.396,5.1-2.836,7.577-4.104c1.58-0.813,3.271-1.692,5.057-2.646" stroke="#000000" stroke-width="0.25" g2gstroke="#312783"/>
<path orgstroke="#000000" orgfill="none" stroke-linecap="round" transform="translate(-452.08241697799326, -394.12313275004544) translate(160.35401969732243, 38.63952281863192) translate(364.2780316618762, -29.33782805330543) translate(-350,439) rotate(4.253614245710539 1486.4905395507812 300.8445053100586) translate(-6.812282221167607, -411.007694010456) translate(383.58052347390344, 192.690685500975) matrix(1.258408215182028 0 0 1.258408215182028 -266.36556054070087 -148.55210332005606) translate(533,195) translate(-21.896966779008153, -6.69073984914138) translate(-45.01043171240576, -11.556732466698747) translate(62.04140587385655, 21.28871770181354) translate(-1.8247472315840696, 0.6082490771946709) translate(-22.50521585620288, -12.164981543893418) translate(26.76295939656552, 13.989728775477488) translate(-24.32996308778695, -20.68046862461881) translate(-17.6392232386454, -36.49494463168031) translate(35.27844647729091, 60.216658642272535) translate(15.6944547729492, 32.65631137084961)" fill="none" d="M493.222,330.009   c1.726-0.271,3.488-0.755,5.267-1.382" stroke="#000000" stroke-width="0.25" g2gstroke="#312783"/>
<path orgstroke="#000000" orgfill="none" stroke-linecap="round" transform="translate(-452.08241697799326, -394.12313275004544) translate(160.35401969732243, 38.63952281863192) translate(364.2780316618762, -29.33782805330543) translate(-350,439) rotate(4.253614245710539 1486.4905395507812 300.8445053100586) translate(-6.812282221167607, -411.007694010456) translate(383.58052347390344, 192.690685500975) matrix(1.258408215182028 0 0 1.258408215182028 -266.36556054070087 -148.55210332005606) translate(533,195) translate(-21.896966779008153, -6.69073984914138) translate(-45.01043171240576, -11.556732466698747) translate(62.04140587385655, 21.28871770181354) translate(-1.8247472315840696, 0.6082490771946709) translate(-22.50521585620288, -12.164981543893418) translate(26.76295939656552, 13.989728775477488) translate(-24.32996308778695, -20.68046862461881) translate(-17.6392232386454, -36.49494463168031) translate(35.27844647729091, 60.216658642272535) translate(15.6944547729492, 32.65631137084961)" fill="none" d="M613.045,259.384   c0.604-0.729,1.188-1.486,1.743-2.226" stroke="#000000" stroke-width="0.25" g2gstroke="#312783"/>
<path orgstroke="#000000" orgfill="none" stroke-linecap="round" transform="translate(-452.08241697799326, -394.12313275004544) translate(160.35401969732243, 38.63952281863192) translate(364.2780316618762, -29.33782805330543) translate(-350,439) rotate(4.253614245710539 1486.4905395507812 300.8445053100586) translate(-6.812282221167607, -411.007694010456) translate(383.58052347390344, 192.690685500975) matrix(1.258408215182028 0 0 1.258408215182028 -266.36556054070087 -148.55210332005606) translate(533,195) translate(-21.896966779008153, -6.69073984914138) translate(-45.01043171240576, -11.556732466698747) translate(62.04140587385655, 21.28871770181354) translate(-1.8247472315840696, 0.6082490771946709) translate(-22.50521585620288, -12.164981543893418) translate(26.76295939656552, 13.989728775477488) translate(-24.32996308778695, -20.68046862461881) translate(-17.6392232386454, -36.49494463168031) translate(35.27844647729091, 60.216658642272535) translate(15.6944547729492, 32.65631137084961)" fill="none" d="M493.067,333.26   c1.791-0.271,3.604-0.771,5.448-1.438" stroke="#000000" stroke-width="0.25" g2gstroke="#312783"/>
<path orgstroke="#000000" orgfill="none" stroke-linecap="round" transform="translate(-452.08241697799326, -394.12313275004544) translate(160.35401969732243, 38.63952281863192) translate(364.2780316618762, -29.33782805330543) translate(-350,439) rotate(4.253614245710539 1486.4905395507812 300.8445053100586) translate(-6.812282221167607, -411.007694010456) translate(383.58052347390344, 192.690685500975) matrix(1.258408215182028 0 0 1.258408215182028 -266.36556054070087 -148.55210332005606) translate(533,195) translate(-21.896966779008153, -6.69073984914138) translate(-45.01043171240576, -11.556732466698747) translate(62.04140587385655, 21.28871770181354) translate(-1.8247472315840696, 0.6082490771946709) translate(-22.50521585620288, -12.164981543893418) translate(26.76295939656552, 13.989728775477488) translate(-24.32996308778695, -20.68046862461881) translate(-17.6392232386454, -36.49494463168031) translate(35.27844647729091, 60.216658642272535) translate(15.6944547729492, 32.65631137084961)" fill="none" d="M563.169,285.998   c12.468-7.815,25.146-16.807,35.129-24.207" stroke="#000000" stroke-width="0.25" g2gstroke="#312783"/>
<path orgstroke="#000000" orgfill="none" stroke-linecap="round" transform="translate(-452.08241697799326, -394.12313275004544) translate(160.35401969732243, 38.63952281863192) translate(364.2780316618762, -29.33782805330543) translate(-350,439) rotate(4.253614245710539 1486.4905395507812 300.8445053100586) translate(-6.812282221167607, -411.007694010456) translate(383.58052347390344, 192.690685500975) matrix(1.258408215182028 0 0 1.258408215182028 -266.36556054070087 -148.55210332005606) translate(533,195) translate(-21.896966779008153, -6.69073984914138) translate(-45.01043171240576, -11.556732466698747) translate(62.04140587385655, 21.28871770181354) translate(-1.8247472315840696, 0.6082490771946709) translate(-22.50521585620288, -12.164981543893418) translate(26.76295939656552, 13.989728775477488) translate(-24.32996308778695, -20.68046862461881) translate(-17.6392232386454, -36.49494463168031) translate(35.27844647729091, 60.216658642272535) translate(15.6944547729492, 32.65631137084961)" fill="none" d="M518.317,311.379   c8.748-4.477,20.813-11.291,33.568-19.005" stroke="#000000" stroke-width="0.25" g2gstroke="#312783"/>
<path orgstroke="#000000" orgfill="none" stroke-linecap="round" transform="translate(-452.08241697799326, -394.12313275004544) translate(160.35401969732243, 38.63952281863192) translate(364.2780316618762, -29.33782805330543) translate(-350,439) rotate(4.253614245710539 1486.4905395507812 300.8445053100586) translate(-6.812282221167607, -411.007694010456) translate(383.58052347390344, 192.690685500975) matrix(1.258408215182028 0 0 1.258408215182028 -266.36556054070087 -148.55210332005606) translate(533,195) translate(-21.896966779008153, -6.69073984914138) translate(-45.01043171240576, -11.556732466698747) translate(62.04140587385655, 21.28871770181354) translate(-1.8247472315840696, 0.6082490771946709) translate(-22.50521585620288, -12.164981543893418) translate(26.76295939656552, 13.989728775477488) translate(-24.32996308778695, -20.68046862461881) translate(-17.6392232386454, -36.49494463168031) translate(35.27844647729091, 60.216658642272535) translate(15.6944547729492, 32.65631137084961)" fill="none" d="M565.06,281.32   c12.365-7.771,24.642-15.945,34.551-23.281" stroke="#000000" stroke-width="0.25" g2gstroke="#312783"/>
<path orgstroke="#000000" orgfill="none" stroke-linecap="round" transform="translate(-452.08241697799326, -394.12313275004544) translate(160.35401969732243, 38.63952281863192) translate(364.2780316618762, -29.33782805330543) translate(-350,439) rotate(4.253614245710539 1486.4905395507812 300.8445053100586) translate(-6.812282221167607, -411.007694010456) translate(383.58052347390344, 192.690685500975) matrix(1.258408215182028 0 0 1.258408215182028 -266.36556054070087 -148.55210332005606) translate(533,195) translate(-21.896966779008153, -6.69073984914138) translate(-45.01043171240576, -11.556732466698747) translate(62.04140587385655, 21.28871770181354) translate(-1.8247472315840696, 0.6082490771946709) translate(-22.50521585620288, -12.164981543893418) translate(26.76295939656552, 13.989728775477488) translate(-24.32996308778695, -20.68046862461881) translate(-17.6392232386454, -36.49494463168031) translate(35.27844647729091, 60.216658642272535) translate(15.6944547729492, 32.65631137084961)" fill="none" d="M519.636,307.627   c8.72-4.465,20.729-11.25,33.454-18.933" stroke="#000000" stroke-width="0.25" g2gstroke="#312783"/>
<path orgstroke="#000000" orgfill="none" stroke-linecap="round" transform="translate(-452.08241697799326, -394.12313275004544) translate(160.35401969732243, 38.63952281863192) translate(364.2780316618762, -29.33782805330543) translate(-350,439) rotate(4.253614245710539 1486.4905395507812 300.8445053100586) translate(-6.812282221167607, -411.007694010456) translate(383.58052347390344, 192.690685500975) matrix(1.258408215182028 0 0 1.258408215182028 -266.36556054070087 -148.55210332005606) translate(533,195) translate(-21.896966779008153, -6.69073984914138) translate(-45.01043171240576, -11.556732466698747) translate(62.04140587385655, 21.28871770181354) translate(-1.8247472315840696, 0.6082490771946709) translate(-22.50521585620288, -12.164981543893418) translate(26.76295939656552, 13.989728775477488) translate(-24.32996308778695, -20.68046862461881) translate(-17.6392232386454, -36.49494463168031) translate(35.27844647729091, 60.216658642272535) translate(15.6944547729492, 32.65631137084961)" fill="none" d="M521.442,304.797   c19.78-10.123,56.522-32.212,79.979-49.585" stroke="#000000" stroke-width="0.25" g2gstroke="#312783"/>
<path orgstroke="#000000" orgfill="none" stroke-linecap="round" transform="translate(-452.08241697799326, -394.12313275004544) translate(160.35401969732243, 38.63952281863192) translate(364.2780316618762, -29.33782805330543) translate(-350,439) rotate(4.253614245710539 1486.4905395507812 300.8445053100586) translate(-6.812282221167607, -411.007694010456) translate(383.58052347390344, 192.690685500975) matrix(1.258408215182028 0 0 1.258408215182028 -266.36556054070087 -148.55210332005606) translate(533,195) translate(-21.896966779008153, -6.69073984914138) translate(-45.01043171240576, -11.556732466698747) translate(62.04140587385655, 21.28871770181354) translate(-1.8247472315840696, 0.6082490771946709) translate(-22.50521585620288, -12.164981543893418) translate(26.76295939656552, 13.989728775477488) translate(-24.32996308778695, -20.68046862461881) translate(-17.6392232386454, -36.49494463168031) translate(35.27844647729091, 60.216658642272535) translate(15.6944547729492, 32.65631137084961)" fill="none" d="M521.967,301.456   c19.777-10.122,56.521-32.213,79.974-49.585" stroke="#000000" stroke-width="0.25" g2gstroke="#312783"/>
<path orgstroke="#000000" orgfill="none" transform="translate(-452.08241697799326, -394.12313275004544) translate(160.35401969732243, 38.63952281863192) translate(364.2780316618762, -29.33782805330543) translate(-350,439) rotate(4.253614245710539 1486.4905395507812 300.8445053100586) translate(-6.812282221167607, -411.007694010456) translate(383.58052347390344, 192.690685500975) matrix(1.258408215182028 0 0 1.258408215182028 -266.36556054070087 -148.55210332005606) translate(533,195) translate(-21.896966779008153, -6.69073984914138) translate(-45.01043171240576, -11.556732466698747) translate(62.04140587385655, 21.28871770181354) translate(-1.8247472315840696, 0.6082490771946709) translate(-22.50521585620288, -12.164981543893418) translate(26.76295939656552, 13.989728775477488) translate(-24.32996308778695, -20.68046862461881) translate(-17.6392232386454, -36.49494463168031) translate(35.27844647729091, 60.216658642272535) translate(15.6944547729492, 32.65631137084961)" fill="none" d="M518.1119995117188 315.95001220703125L518.3170166015625 311.3789978027344L519.4840087890625 307.8219909667969L521.4639892578125 304.73199462890625L521.7659912109375 301.75201416015625" stroke="#000000" stroke-width="0.25" g2gstroke="#312783"/>
<path orgstroke="#000000" orgfill="none" transform="translate(-452.08241697799326, -394.12313275004544) translate(160.35401969732243, 38.63952281863192) translate(364.2780316618762, -29.33782805330543) translate(-350,439) rotate(4.253614245710539 1486.4905395507812 300.8445053100586) translate(-6.812282221167607, -411.007694010456) translate(383.58052347390344, 192.690685500975) matrix(1.258408215182028 0 0 1.258408215182028 -266.36556054070087 -148.55210332005606) translate(533,195) translate(-21.896966779008153, -6.69073984914138) translate(-45.01043171240576, -11.556732466698747) translate(62.04140587385655, 21.28871770181354) translate(-1.8247472315840696, 0.6082490771946709) translate(-22.50521585620288, -12.164981543893418) translate(26.76295939656552, 13.989728775477488) translate(-24.32996308778695, -20.68046862461881) translate(-17.6392232386454, -36.49494463168031) translate(35.27844647729091, 60.216658642272535) translate(15.6944547729492, 32.65631137084961)" fill="none" d="M552.0449829101562 296.8529968261719L552.25 292.2829895019531L553.7780151367188 289.125L554.0260009765625 288.7349853515625L555.39599609375 285.62799072265625L555.6920166015625 282.65399169921875" stroke="#000000" stroke-width="0.25" g2gstroke="#312783"/>
<path orgstroke="#000000" orgfill="none" transform="translate(-452.08241697799326, -394.12313275004544) translate(160.35401969732243, 38.63952281863192) translate(364.2780316618762, -29.33782805330543) translate(-350,439) rotate(4.253614245710539 1486.4905395507812 300.8445053100586) translate(-6.812282221167607, -411.007694010456) translate(383.58052347390344, 192.690685500975) matrix(1.258408215182028 0 0 1.258408215182028 -266.36556054070087 -148.55210332005606) translate(533,195) translate(-21.896966779008153, -6.69073984914138) translate(-45.01043171240576, -11.556732466698747) translate(62.04140587385655, 21.28871770181354) translate(-1.8247472315840696, 0.6082490771946709) translate(-22.50521585620288, -12.164981543893418) translate(26.76295939656552, 13.989728775477488) translate(-24.32996308778695, -20.68046862461881) translate(-17.6392232386454, -36.49494463168031) translate(35.27844647729091, 60.216658642272535) translate(15.6944547729492, 32.65631137084961)" fill="none" d="M562.8590087890625 290.156005859375L563.0260009765625 286.3399963378906L564.7230224609375 282.1969909667969L566.2109985351562 278.9320068359375L566.5079956054688 275.9570007324219" stroke="#000000" stroke-width="0.25" g2gstroke="#312783"/>
<path orgstroke="#000000" orgfill="none" transform="translate(-452.08241697799326, -394.12313275004544) translate(160.35401969732243, 38.63952281863192) translate(364.2780316618762, -29.33782805330543) translate(-350,439) rotate(4.253614245710539 1486.4905395507812 300.8445053100586) translate(-6.812282221167607, -411.007694010456) translate(383.58052347390344, 192.690685500975) matrix(1.258408215182028 0 0 1.258408215182028 -266.36556054070087 -148.55210332005606) translate(533,195) translate(-21.896966779008153, -6.69073984914138) translate(-45.01043171240576, -11.556732466698747) translate(62.04140587385655, 21.28871770181354) translate(-1.8247472315840696, 0.6082490771946709) translate(-22.50521585620288, -12.164981543893418) translate(26.76295939656552, 13.989728775477488) translate(-24.32996308778695, -20.68046862461881) translate(-17.6392232386454, -36.49494463168031) translate(35.27844647729091, 60.216658642272535) translate(15.6944547729492, 32.65631137084961)" fill="none" d="M598.7340087890625 266.0880126953125L598.843994140625 263.7439880371094" stroke="#000000" stroke-width="0.25" g2gstroke="#312783"/>
<path orgstroke="#000000" orgfill="none" transform="translate(-452.08241697799326, -394.12313275004544) translate(160.35401969732243, 38.63952281863192) translate(364.2780316618762, -29.33782805330543) translate(-350,439) rotate(4.253614245710539 1486.4905395507812 300.8445053100586) translate(-6.812282221167607, -411.007694010456) translate(383.58052347390344, 192.690685500975) matrix(1.258408215182028 0 0 1.258408215182028 -266.36556054070087 -148.55210332005606) translate(533,195) translate(-21.896966779008153, -6.69073984914138) translate(-45.01043171240576, -11.556732466698747) translate(62.04140587385655, 21.28871770181354) translate(-1.8247472315840696, 0.6082490771946709) translate(-22.50521585620288, -12.164981543893418) translate(26.76295939656552, 13.989728775477488) translate(-24.32996308778695, -20.68046862461881) translate(-17.6392232386454, -36.49494463168031) translate(35.27844647729091, 60.216658642272535) translate(15.6944547729492, 32.65631137084961)" fill="none" d="M494.243,338.616l-1.521-5.444l-0.122-2.85l0.233-2.379l0.188-0.646   c8.1-1.265,16.905-7.147,25.077-11.353c22.813-11.671,68.147-39.241,89.688-57.161c2.385-1.979,4.897-4.862,6.938-7.586" stroke="#000000" stroke-width="0.25" g2gstroke="#312783"/>
<path orgstroke="#000000" orgfill="none" transform="translate(-452.08241697799326, -394.12313275004544) translate(160.35401969732243, 38.63952281863192) translate(364.2780316618762, -29.33782805330543) translate(-350,439) rotate(4.253614245710539 1486.4905395507812 300.8445053100586) translate(-6.812282221167607, -411.007694010456) translate(383.58052347390344, 192.690685500975) matrix(1.258408215182028 0 0 1.258408215182028 -266.36556054070087 -148.55210332005606) translate(533,195) translate(-21.896966779008153, -6.69073984914138) translate(-45.01043171240576, -11.556732466698747) translate(62.04140587385655, 21.28871770181354) translate(-1.8247472315840696, 0.6082490771946709) translate(-22.50521585620288, -12.164981543893418) translate(26.76295939656552, 13.989728775477488) translate(-24.32996308778695, -20.68046862461881) translate(-17.6392232386454, -36.49494463168031) translate(35.27844647729091, 60.216658642272535) translate(15.6944547729492, 32.65631137084961)" fill="none" d="M499.0669860839844 326.2330017089844L498.8389892578125 328.6130065917969L498.9630126953125 331.4620056152344L500.47100830078125 336.9049987792969" stroke="#000000" stroke-width="0.25" g2gstroke="#312783"/>
<path orgstroke="#000000" orgfill="none" transform="translate(-452.08241697799326, -394.12313275004544) translate(160.35401969732243, 38.63952281863192) translate(364.2780316618762, -29.33782805330543) translate(-350,439) rotate(4.253614245710539 1486.4905395507812 300.8445053100586) translate(-6.812282221167607, -411.007694010456) translate(383.58052347390344, 192.690685500975) matrix(1.258408215182028 0 0 1.258408215182028 -266.36556054070087 -148.55210332005606) translate(533,195) translate(-21.896966779008153, -6.69073984914138) translate(-45.01043171240576, -11.556732466698747) translate(62.04140587385655, 21.28871770181354) translate(-1.8247472315840696, 0.6082490771946709) translate(-22.50521585620288, -12.164981543893418) translate(26.76295939656552, 13.989728775477488) translate(-24.32996308778695, -20.68046862461881) translate(-17.6392232386454, -36.49494463168031) translate(35.27844647729091, 60.216658642272535) translate(15.6944547729492, 32.65631137084961)" fill="none" d="M510.6090087890625 320.4530029296875L510.3789978027344 322.8330078125L510.50201416015625 325.6759948730469L512.0089721679688 331.1210021972656" stroke="#000000" stroke-width="0.25" g2gstroke="#312783"/>
<path orgstroke="#000000" orgfill="none" transform="translate(-452.08241697799326, -394.12313275004544) translate(160.35401969732243, 38.63952281863192) translate(364.2780316618762, -29.33782805330543) translate(-350,439) rotate(4.253614245710539 1486.4905395507812 300.8445053100586) translate(-6.812282221167607, -411.007694010456) translate(383.58052347390344, 192.690685500975) matrix(1.258408215182028 0 0 1.258408215182028 -266.36556054070087 -148.55210332005606) translate(533,195) translate(-21.896966779008153, -6.69073984914138) translate(-45.01043171240576, -11.556732466698747) translate(62.04140587385655, 21.28871770181354) translate(-1.8247472315840696, 0.6082490771946709) translate(-22.50521585620288, -12.164981543893418) translate(26.76295939656552, 13.989728775477488) translate(-24.32996308778695, -20.68046862461881) translate(-17.6392232386454, -36.49494463168031) translate(35.27844647729091, 60.216658642272535) translate(15.6944547729492, 32.65631137084961)" fill="none" d="M604.6420288085938 261.6310119628906L604.4089965820312 264.010009765625L604.5260009765625 266.85400390625L606.0430297851562 272.29998779296875" stroke="#000000" stroke-width="0.25" g2gstroke="#312783"/>
<path orgstroke="#000000" orgfill="none" transform="translate(-452.08241697799326, -394.12313275004544) translate(160.35401969732243, 38.63952281863192) translate(364.2780316618762, -29.33782805330543) translate(-350,439) rotate(4.253614245710539 1486.4905395507812 300.8445053100586) translate(-6.812282221167607, -411.007694010456) translate(383.58052347390344, 192.690685500975) matrix(1.258408215182028 0 0 1.258408215182028 -266.36556054070087 -148.55210332005606) translate(533,195) translate(-21.896966779008153, -6.69073984914138) translate(-45.01043171240576, -11.556732466698747) translate(62.04140587385655, 21.28871770181354) translate(-1.8247472315840696, 0.6082490771946709) translate(-22.50521585620288, -12.164981543893418) translate(26.76295939656552, 13.989728775477488) translate(-24.32996308778695, -20.68046862461881) translate(-17.6392232386454, -36.49494463168031) translate(35.27844647729091, 60.216658642272535) translate(15.6944547729492, 32.65631137084961)" fill="none" d="M612.625 253.80599975585938L612.3980102539062 256.18701171875L612.52099609375 259.02801513671875L614.0260009765625 264.4729919433594" stroke="#000000" stroke-width="0.25" g2gstroke="#312783"/>
<path orgstroke="#000000" orgfill="none" stroke-linecap="round" transform="translate(-452.08241697799326, -394.12313275004544) translate(160.35401969732243, 38.63952281863192) translate(364.2780316618762, -29.33782805330543) translate(-350,439) rotate(4.253614245710539 1486.4905395507812 300.8445053100586) translate(-6.812282221167607, -411.007694010456) translate(383.58052347390344, 192.690685500975) matrix(1.258408215182028 0 0 1.258408215182028 -266.36556054070087 -148.55210332005606) translate(533,195) translate(-21.896966779008153, -6.69073984914138) translate(-45.01043171240576, -11.556732466698747) translate(62.04140587385655, 21.28871770181354) translate(-1.8247472315840696, 0.6082490771946709) translate(-22.50521585620288, -12.164981543893418) translate(26.76295939656552, 13.989728775477488) translate(-24.32996308778695, -20.68046862461881) translate(-17.6392232386454, -36.49494463168031) translate(35.27844647729091, 60.216658642272535) translate(15.6944547729492, 32.65631137084961)" fill="none" d="M502.043,333.13l-0.574,0.063l-0.232-0.395   l-0.462-4.313l0.079-0.408l0.146-0.363l0.354-0.214c2.271-0.976,4.563-2.14,6.843-3.354l0.271-0.104l0.146,0.082l0.188,0.233   l0.438,4.017l0.086,0.901l-0.104,0.329l-0.521,0.271l0.038-0.021c-2.265,1.21-4.521,2.347-6.771,3.309" stroke="#000000" stroke-width="0.25" g2gstroke="#312783"/>
<path orgstroke="#000000" orgfill="none" stroke-linecap="round" transform="translate(-452.08241697799326, -394.12313275004544) translate(160.35401969732243, 38.63952281863192) translate(364.2780316618762, -29.33782805330543) translate(-350,439) rotate(4.253614245710539 1486.4905395507812 300.8445053100586) translate(-6.812282221167607, -411.007694010456) translate(383.58052347390344, 192.690685500975) matrix(1.258408215182028 0 0 1.258408215182028 -266.36556054070087 -148.55210332005606) translate(533,195) translate(-21.896966779008153, -6.69073984914138) translate(-45.01043171240576, -11.556732466698747) translate(62.04140587385655, 21.28871770181354) translate(-1.8247472315840696, 0.6082490771946709) translate(-22.50521585620288, -12.164981543893418) translate(26.76295939656552, 13.989728775477488) translate(-24.32996308778695, -20.68046862461881) translate(-17.6392232386454, -36.49494463168031) translate(35.27844647729091, 60.216658642272535) translate(15.6944547729492, 32.65631137084961)" fill="none" d="M611.847,257.028   c-0.229,0.428-0.706,0.751-1.071,0.729c-0.354-0.016-0.469-0.368-0.241-0.792c0.229-0.424,0.701-0.744,1.063-0.729   C611.963,256.256,612.067,256.604,611.847,257.028z" stroke="#000000" stroke-width="0.25" g2gstroke="#312783"/>
<path orgstroke="#000000" orgfill="none" stroke-linecap="round" transform="translate(-452.08241697799326, -394.12313275004544) translate(160.35401969732243, 38.63952281863192) translate(364.2780316618762, -29.33782805330543) translate(-350,439) rotate(4.253614245710539 1486.4905395507812 300.8445053100586) translate(-6.812282221167607, -411.007694010456) translate(383.58052347390344, 192.690685500975) matrix(1.258408215182028 0 0 1.258408215182028 -266.36556054070087 -148.55210332005606) translate(533,195) translate(-21.896966779008153, -6.69073984914138) translate(-45.01043171240576, -11.556732466698747) translate(62.04140587385655, 21.28871770181354) translate(-1.8247472315840696, 0.6082490771946709) translate(-22.50521585620288, -12.164981543893418) translate(26.76295939656552, 13.989728775477488) translate(-24.32996308778695, -20.68046862461881) translate(-17.6392232386454, -36.49494463168031) translate(35.27844647729091, 60.216658642272535) translate(15.6944547729492, 32.65631137084961)" fill="none" d="M606.63,261.719   c-0.229,0.418-0.706,0.747-1.07,0.73c-0.363-0.021-0.469-0.371-0.242-0.792c0.229-0.423,0.702-0.75,1.065-0.734   C606.746,260.944,606.854,261.299,606.63,261.719z" stroke="#000000" stroke-width="0.25" g2gstroke="#312783"/>
<path orgstroke="#000000" orgfill="none" stroke-linecap="round" transform="translate(-452.08241697799326, -394.12313275004544) translate(160.35401969732243, 38.63952281863192) translate(364.2780316618762, -29.33782805330543) translate(-350,439) rotate(4.253614245710539 1486.4905395507812 300.8445053100586) translate(-6.812282221167607, -411.007694010456) translate(383.58052347390344, 192.690685500975) matrix(1.258408215182028 0 0 1.258408215182028 -266.36556054070087 -148.55210332005606) translate(533,195) translate(-21.896966779008153, -6.69073984914138) translate(-45.01043171240576, -11.556732466698747) translate(62.04140587385655, 21.28871770181354) translate(-1.8247472315840696, 0.6082490771946709) translate(-22.50521585620288, -12.164981543893418) translate(26.76295939656552, 13.989728775477488) translate(-24.32996308778695, -20.68046862461881) translate(-17.6392232386454, -36.49494463168031) translate(35.27844647729091, 60.216658642272535) translate(15.6944547729492, 32.65631137084961)" fill="none" d="M607.553,270.108   c-0.229,0.422-0.704,0.737-1.067,0.729c-0.354-0.016-0.468-0.366-0.245-0.792c0.229-0.425,0.711-0.746,1.067-0.729   C607.671,269.335,607.776,269.685,607.553,270.108z" stroke="#000000" stroke-width="0.25" g2gstroke="#312783"/>
<path orgstroke="#000000" orgfill="none" stroke-linecap="round" transform="translate(-452.08241697799326, -394.12313275004544) translate(160.35401969732243, 38.63952281863192) translate(364.2780316618762, -29.33782805330543) translate(-350,439) rotate(4.253614245710539 1486.4905395507812 300.8445053100586) translate(-6.812282221167607, -411.007694010456) translate(383.58052347390344, 192.690685500975) matrix(1.258408215182028 0 0 1.258408215182028 -266.36556054070087 -148.55210332005606) translate(533,195) translate(-21.896966779008153, -6.69073984914138) translate(-45.01043171240576, -11.556732466698747) translate(62.04140587385655, 21.28871770181354) translate(-1.8247472315840696, 0.6082490771946709) translate(-22.50521585620288, -12.164981543893418) translate(26.76295939656552, 13.989728775477488) translate(-24.32996308778695, -20.68046862461881) translate(-17.6392232386454, -36.49494463168031) translate(35.27844647729091, 60.216658642272535) translate(15.6944547729492, 32.65631137084961)" fill="none" d="M613.237,264.994   c-0.229,0.421-0.695,0.748-1.063,0.729c-0.361-0.019-0.479-0.372-0.244-0.792c0.228-0.431,0.706-0.749,1.065-0.729   C613.359,264.218,613.469,264.57,613.237,264.994z" stroke="#000000" stroke-width="0.25" g2gstroke="#312783"/>
<path orgstroke="#000000" orgfill="none" stroke-linecap="round" transform="translate(-452.08241697799326, -394.12313275004544) translate(160.35401969732243, 38.63952281863192) translate(364.2780316618762, -29.33782805330543) translate(-350,439) rotate(4.253614245710539 1486.4905395507812 300.8445053100586) translate(-6.812282221167607, -411.007694010456) translate(383.58052347390344, 192.690685500975) matrix(1.258408215182028 0 0 1.258408215182028 -266.36556054070087 -148.55210332005606) translate(533,195) translate(-21.896966779008153, -6.69073984914138) translate(-45.01043171240576, -11.556732466698747) translate(62.04140587385655, 21.28871770181354) translate(-1.8247472315840696, 0.6082490771946709) translate(-22.50521585620288, -12.164981543893418) translate(26.76295939656552, 13.989728775477488) translate(-24.32996308778695, -20.68046862461881) translate(-17.6392232386454, -36.49494463168031) translate(35.27844647729091, 60.216658642272535) translate(15.6944547729492, 32.65631137084961)" fill="none" d="M509.512,322.484   c-0.229,0.427-0.706,0.751-1.069,0.729c-0.354-0.017-0.47-0.371-0.243-0.792c0.229-0.429,0.706-0.748,1.066-0.729   C509.633,321.706,509.734,322.066,509.512,322.484z" stroke="#000000" stroke-width="0.25" g2gstroke="#312783"/>
<path orgstroke="#000000" orgfill="none" stroke-linecap="round" transform="translate(-452.08241697799326, -394.12313275004544) translate(160.35401969732243, 38.63952281863192) translate(364.2780316618762, -29.33782805330543) translate(-350,439) rotate(4.253614245710539 1486.4905395507812 300.8445053100586) translate(-6.812282221167607, -411.007694010456) translate(383.58052347390344, 192.690685500975) matrix(1.258408215182028 0 0 1.258408215182028 -266.36556054070087 -148.55210332005606) translate(533,195) translate(-21.896966779008153, -6.69073984914138) translate(-45.01043171240576, -11.556732466698747) translate(62.04140587385655, 21.28871770181354) translate(-1.8247472315840696, 0.6082490771946709) translate(-22.50521585620288, -12.164981543893418) translate(26.76295939656552, 13.989728775477488) translate(-24.32996308778695, -20.68046862461881) translate(-17.6392232386454, -36.49494463168031) translate(35.27844647729091, 60.216658642272535) translate(15.6944547729492, 32.65631137084961)" fill="none" d="M510.876,330.799   c-0.229,0.434-0.705,0.748-1.065,0.729c-0.361-0.021-0.47-0.367-0.241-0.789c0.229-0.429,0.702-0.75,1.063-0.731   C510.987,330.024,511.104,330.373,510.876,330.799z" stroke="#000000" stroke-width="0.25" g2gstroke="#312783"/>
<path orgstroke="#000000" orgfill="none" stroke-linecap="round" transform="translate(-452.08241697799326, -394.12313275004544) translate(160.35401969732243, 38.63952281863192) translate(364.2780316618762, -29.33782805330543) translate(-350,439) rotate(4.253614245710539 1486.4905395507812 300.8445053100586) translate(-6.812282221167607, -411.007694010456) translate(383.58052347390344, 192.690685500975) matrix(1.258408215182028 0 0 1.258408215182028 -266.36556054070087 -148.55210332005606) translate(533,195) translate(-21.896966779008153, -6.69073984914138) translate(-45.01043171240576, -11.556732466698747) translate(62.04140587385655, 21.28871770181354) translate(-1.8247472315840696, 0.6082490771946709) translate(-22.50521585620288, -12.164981543893418) translate(26.76295939656552, 13.989728775477488) translate(-24.32996308778695, -20.68046862461881) translate(-17.6392232386454, -36.49494463168031) translate(35.27844647729091, 60.216658642272535) translate(15.6944547729492, 32.65631137084961)" fill="none" d="M516.146,327.116   c-0.396,0.729-1.22,1.298-1.848,1.271c-0.622-0.021-0.813-0.645-0.417-1.359c0.396-0.729,1.22-1.29,1.847-1.271   C516.351,325.781,516.537,326.399,516.146,327.116z" stroke="#000000" stroke-width="0.25" g2gstroke="#312783"/>
<path orgstroke="#000000" orgfill="none" stroke-linecap="round" transform="translate(-452.08241697799326, -394.12313275004544) translate(160.35401969732243, 38.63952281863192) translate(364.2780316618762, -29.33782805330543) translate(-350,439) rotate(4.253614245710539 1486.4905395507812 300.8445053100586) translate(-6.812282221167607, -411.007694010456) translate(383.58052347390344, 192.690685500975) matrix(1.258408215182028 0 0 1.258408215182028 -266.36556054070087 -148.55210332005606) translate(533,195) translate(-21.896966779008153, -6.69073984914138) translate(-45.01043171240576, -11.556732466698747) translate(62.04140587385655, 21.28871770181354) translate(-1.8247472315840696, 0.6082490771946709) translate(-22.50521585620288, -12.164981543893418) translate(26.76295939656552, 13.989728775477488) translate(-24.32996308778695, -20.68046862461881) translate(-17.6392232386454, -36.49494463168031) translate(35.27844647729091, 60.216658642272535) translate(15.6944547729492, 32.65631137084961)" fill="none" d="M527.026,314.796   c-0.396,0.729-1.219,1.294-1.844,1.271c-0.627-0.027-0.812-0.646-0.416-1.366c0.396-0.73,1.219-1.294,1.847-1.271   C527.234,313.45,527.423,314.066,527.026,314.796z" stroke="#000000" stroke-width="0.25" g2gstroke="#312783"/>
<path orgstroke="#000000" orgfill="none" stroke-linecap="round" transform="translate(-452.08241697799326, -394.12313275004544) translate(160.35401969732243, 38.63952281863192) translate(364.2780316618762, -29.33782805330543) translate(-350,439) rotate(4.253614245710539 1486.4905395507812 300.8445053100586) translate(-6.812282221167607, -411.007694010456) translate(383.58052347390344, 192.690685500975) matrix(1.258408215182028 0 0 1.258408215182028 -266.36556054070087 -148.55210332005606) translate(533,195) translate(-21.896966779008153, -6.69073984914138) translate(-45.01043171240576, -11.556732466698747) translate(62.04140587385655, 21.28871770181354) translate(-1.8247472315840696, 0.6082490771946709) translate(-22.50521585620288, -12.164981543893418) translate(26.76295939656552, 13.989728775477488) translate(-24.32996308778695, -20.68046862461881) translate(-17.6392232386454, -36.49494463168031) translate(35.27844647729091, 60.216658642272535) translate(15.6944547729492, 32.65631137084961)" fill="none" d="M561.222,288.886   c-0.88,1.544-2.733,2.742-4.146,2.688c-1.396-0.063-1.816-1.363-0.938-2.907c0.881-1.542,2.729-2.742,4.144-2.688   C561.68,286.045,562.107,287.345,561.222,288.886z" stroke="#000000" stroke-width="0.25" g2gstroke="#312783"/>
<path orgstroke="#000000" orgfill="none" stroke-linecap="round" transform="translate(-452.08241697799326, -394.12313275004544) translate(160.35401969732243, 38.63952281863192) translate(364.2780316618762, -29.33782805330543) translate(-350,439) rotate(4.253614245710539 1486.4905395507812 300.8445053100586) translate(-6.812282221167607, -411.007694010456) translate(383.58052347390344, 192.690685500975) matrix(1.258408215182028 0 0 1.258408215182028 -266.36556054070087 -148.55210332005606) translate(533,195) translate(-21.896966779008153, -6.69073984914138) translate(-45.01043171240576, -11.556732466698747) translate(62.04140587385655, 21.28871770181354) translate(-1.8247472315840696, 0.6082490771946709) translate(-22.50521585620288, -12.164981543893418) translate(26.76295939656552, 13.989728775477488) translate(-24.32996308778695, -20.68046862461881) translate(-17.6392232386454, -36.49494463168031) translate(35.27844647729091, 60.216658642272535) translate(15.6944547729492, 32.65631137084961)" fill="none" d="M560.483,286.342   c0.175,0.524,0.063,1.236-0.384,2.01c-0.761,1.335-2.247,2.407-3.546,2.646" stroke="#000000" stroke-width="0.25" g2gstroke="#312783"/>
<path orgstroke="#000000" orgfill="none" stroke-linecap="round" transform="translate(-452.08241697799326, -394.12313275004544) translate(160.35401969732243, 38.63952281863192) translate(364.2780316618762, -29.33782805330543) translate(-350,439) rotate(4.253614245710539 1486.4905395507812 300.8445053100586) translate(-6.812282221167607, -411.007694010456) translate(383.58052347390344, 192.690685500975) matrix(1.258408215182028 0 0 1.258408215182028 -266.36556054070087 -148.55210332005606) translate(533,195) translate(-21.896966779008153, -6.69073984914138) translate(-45.01043171240576, -11.556732466698747) translate(62.04140587385655, 21.28871770181354) translate(-1.8247472315840696, 0.6082490771946709) translate(-22.50521585620288, -12.164981543893418) translate(26.76295939656552, 13.989728775477488) translate(-24.32996308778695, -20.68046862461881) translate(-17.6392232386454, -36.49494463168031) translate(35.27844647729091, 60.216658642272535) translate(15.6944547729492, 32.65631137084961)" fill="none" d="M603.067,272.837   c-0.393,0.729-1.218,1.295-1.839,1.269c-0.628-0.021-0.813-0.644-0.421-1.356c0.396-0.729,1.22-1.292,1.843-1.271   C603.276,271.499,603.463,272.112,603.067,272.837z" stroke="#000000" stroke-width="0.25" g2gstroke="#312783"/>
<path orgstroke="#000000" orgfill="none" stroke-linecap="round" transform="translate(-452.08241697799326, -394.12313275004544) translate(160.35401969732243, 38.63952281863192) translate(364.2780316618762, -29.33782805330543) translate(-350,439) rotate(4.253614245710539 1486.4905395507812 300.8445053100586) translate(-6.812282221167607, -411.007694010456) translate(383.58052347390344, 192.690685500975) matrix(1.258408215182028 0 0 1.258408215182028 -266.36556054070087 -148.55210332005606) translate(533,195) translate(-21.896966779008153, -6.69073984914138) translate(-45.01043171240576, -11.556732466698747) translate(62.04140587385655, 21.28871770181354) translate(-1.8247472315840696, 0.6082490771946709) translate(-22.50521585620288, -12.164981543893418) translate(26.76295939656552, 13.989728775477488) translate(-24.32996308778695, -20.68046862461881) translate(-17.6392232386454, -36.49494463168031) translate(35.27844647729091, 60.216658642272535) translate(15.6944547729492, 32.65631137084961)" fill="none" d="M502.634,334.816   c-0.229,0.425-0.705,0.746-1.071,0.729c-0.354-0.018-0.467-0.367-0.241-0.787c0.229-0.429,0.705-0.749,1.063-0.729   C502.753,334.039,502.859,334.399,502.634,334.816z" stroke="#000000" stroke-width="0.25" g2gstroke="#312783"/>
<path orgstroke="#000000" orgfill="none" stroke-linecap="round" transform="translate(-452.08241697799326, -394.12313275004544) translate(160.35401969732243, 38.63952281863192) translate(364.2780316618762, -29.33782805330543) translate(-350,439) rotate(4.253614245710539 1486.4905395507812 300.8445053100586) translate(-6.812282221167607, -411.007694010456) translate(383.58052347390344, 192.690685500975) matrix(1.258408215182028 0 0 1.258408215182028 -266.36556054070087 -148.55210332005606) translate(533,195) translate(-21.896966779008153, -6.69073984914138) translate(-45.01043171240576, -11.556732466698747) translate(62.04140587385655, 21.28871770181354) translate(-1.8247472315840696, 0.6082490771946709) translate(-22.50521585620288, -12.164981543893418) translate(26.76295939656552, 13.989728775477488) translate(-24.32996308778695, -20.68046862461881) translate(-17.6392232386454, -36.49494463168031) translate(35.27844647729091, 60.216658642272535) translate(15.6944547729492, 32.65631137084961)" fill="none" d="M501.067,326.441   c-0.229,0.428-0.709,0.751-1.063,0.729c-0.36-0.017-0.479-0.355-0.245-0.793c0.229-0.424,0.708-0.75,1.063-0.729   C501.188,325.665,501.295,326.024,501.067,326.441z" stroke="#000000" stroke-width="0.25" g2gstroke="#312783"/>
<path orgstroke="#000000" orgfill="none" stroke-linecap="round" transform="translate(-452.08241697799326, -394.12313275004544) translate(160.35401969732243, 38.63952281863192) translate(364.2780316618762, -29.33782805330543) translate(-350,439) rotate(4.253614245710539 1486.4905395507812 300.8445053100586) translate(-6.812282221167607, -411.007694010456) translate(383.58052347390344, 192.690685500975) matrix(1.258408215182028 0 0 1.258408215182028 -266.36556054070087 -148.55210332005606) translate(533,195) translate(-21.896966779008153, -6.69073984914138) translate(-45.01043171240576, -11.556732466698747) translate(62.04140587385655, 21.28871770181354) translate(-1.8247472315840696, 0.6082490771946709) translate(-22.50521585620288, -12.164981543893418) translate(26.76295939656552, 13.989728775477488) translate(-24.32996308778695, -20.68046862461881) translate(-17.6392232386454, -36.49494463168031) translate(35.27844647729091, 60.216658642272535) translate(15.6944547729492, 32.65631137084961)" fill="none" d="M612.064,263.65   c-1.245,1.388-2.543,2.688-3.802,3.728c-0.499,0.418-1.011,0.844-1.54,1.271l-0.237-0.271l-0.146-0.831l-0.462-3.646l0.063-0.442   l0.229-0.368c0.462-0.379,0.907-0.744,1.349-1.113c1.172-0.97,2.369-2.146,3.528-3.433l0.266-0.108l0.21,0.19l0.11,0.348   l0.421,3.827L612.064,263.65z" stroke="#000000" stroke-width="0.25" g2gstroke="#312783"/>
<path orgstroke="#000000" orgfill="none" stroke-linecap="round" transform="translate(-452.08241697799326, -394.12313275004544) translate(160.35401969732243, 38.63952281863192) translate(364.2780316618762, -29.33782805330543) translate(-350,439) rotate(4.253614245710539 1486.4905395507812 300.8445053100586) translate(-6.812282221167607, -411.007694010456) translate(383.58052347390344, 192.690685500975) matrix(1.258408215182028 0 0 1.258408215182028 -266.36556054070087 -148.55210332005606) translate(533,195) translate(-21.896966779008153, -6.69073984914138) translate(-45.01043171240576, -11.556732466698747) translate(62.04140587385655, 21.28871770181354) translate(-1.8247472315840696, 0.6082490771946709) translate(-22.50521585620288, -12.164981543893418) translate(26.76295939656552, 13.989728775477488) translate(-24.32996308778695, -20.68046862461881) translate(-17.6392232386454, -36.49494463168031) translate(35.27844647729091, 60.216658642272535) translate(15.6944547729492, 32.65631137084961)" fill="none" d="M511.2980041503906 326.77899169921875L513.56298828125 324.6910095214844L514.9390258789062 323.7539978027344L516.6400146484375 323.0329895019531L517.4639892578125 323.27398681640625L518.2760009765625 323.7030029296875L518.7340087890625 324.72900390625L518.6900024414062 325.71600341796875L518.31298828125 326.6929931640625L517.6090087890625 327.4580078125L516.2169799804688 328.7449951171875" stroke="#000000" stroke-width="0.25" g2gstroke="#312783"/>
<path orgstroke="#000000" orgfill="none" stroke-linecap="round" transform="translate(-452.08241697799326, -394.12313275004544) translate(160.35401969732243, 38.63952281863192) translate(364.2780316618762, -29.33782805330543) translate(-350,439) rotate(4.253614245710539 1486.4905395507812 300.8445053100586) translate(-6.812282221167607, -411.007694010456) translate(383.58052347390344, 192.690685500975) matrix(1.258408215182028 0 0 1.258408215182028 -266.36556054070087 -148.55210332005606) translate(533,195) translate(-21.896966779008153, -6.69073984914138) translate(-45.01043171240576, -11.556732466698747) translate(62.04140587385655, 21.28871770181354) translate(-1.8247472315840696, 0.6082490771946709) translate(-22.50521585620288, -12.164981543893418) translate(26.76295939656552, 13.989728775477488) translate(-24.32996308778695, -20.68046862461881) translate(-17.6392232386454, -36.49494463168031) translate(35.27844647729091, 60.216658642272535) translate(15.6944547729492, 32.65631137084961)" fill="none" d="M604.760986328125 269.1669921875L602.8590087890625 269.6780090332031L601.5789794921875 270.364990234375L600.5469970703125 271.0660095214844L599.7570190429688 271.9259948730469L599.3270263671875 273.1000061035156L598.8880004882812 274.5769958496094L598.9639892578125 275.625L599.3170166015625 276.0889892578125L599.8150024414062 276.260009765625L601.1920166015625 276.0220031738281" stroke="#000000" stroke-width="0.25" g2gstroke="#312783"/>
<path orgstroke="#000000" orgfill="none" stroke-linecap="round" transform="translate(-452.08241697799326, -394.12313275004544) translate(160.35401969732243, 38.63952281863192) translate(364.2780316618762, -29.33782805330543) translate(-350,439) rotate(4.253614245710539 1486.4905395507812 300.8445053100586) translate(-6.812282221167607, -411.007694010456) translate(383.58052347390344, 192.690685500975) matrix(1.258408215182028 0 0 1.258408215182028 -266.36556054070087 -148.55210332005606) translate(533,195) translate(-21.896966779008153, -6.69073984914138) translate(-45.01043171240576, -11.556732466698747) translate(62.04140587385655, 21.28871770181354) translate(-1.8247472315840696, 0.6082490771946709) translate(-22.50521585620288, -12.164981543893418) translate(26.76295939656552, 13.989728775477488) translate(-24.32996308778695, -20.68046862461881) translate(-17.6392232386454, -36.49494463168031) translate(35.27844647729091, 60.216658642272535) translate(15.6944547729492, 32.65631137084961)" fill="none" d="M510.4419860839844 324.5740051269531L518.8480224609375 320.2969970703125L519.7340087890625 320.0360107421875L521.0980224609375 320.39898681640625L522.1920166015625 321.0459899902344L523.0239868164062 322.12200927734375L524.6220092773438 322.7950134277344L525.2520141601562 322.6759948730469L526.5150146484375 322.4410095214844L529.6920166015625 321.3810119628906L532.6300048828125 320.02398681640625L533.6500244140625 319.61199951171875L534.7760009765625 319.6629943847656L535.6300048828125 320.1499938964844L536.3720092773438 320.33099365234375L537.52001953125 319.9410095214844L542.14501953125 317.302001953125L547.9030151367188 314.27398681640625L552.1610107421875 311.62799072265625L556.0170288085938 309.406005859375L559.4940185546875 307.17498779296875L565.5440063476562 303.5660095214844L569.6680297851562 300.9049987792969L573.7990112304688 298.1029968261719L577.2760009765625 295.8680114746094L581.2730102539062 293.3580017089844L581.8170166015625 292.33599853515625L582.2570190429688 290.86199951171875L582.6920166015625 289.5369873046875L583.3569946289062 288.6700134277344L584.39599609375 287.82000732421875L586.8590087890625 285.9880065917969L588.2760009765625 285.0060119628906L589.9719848632812 283.5889892578125L590.5260009765625 282.2690124511719L590.8480224609375 280.7900085449219L591.6849975585938 278.885009765625L592.25 277.4159851074219L593.4390258789062 275.9729919433594L594.5059814453125 274.52899169921875L595.9420166015625 273.1000061035156L598.2979736328125 270.96600341796875L601.1489868164062 268.85101318359375L603.9869995117188 266.74200439453125" stroke="#000000" stroke-width="0.25" g2gstroke="#312783"/>
<path orgstroke="#000000" orgfill="none" stroke-linecap="round" transform="translate(-452.08241697799326, -394.12313275004544) translate(160.35401969732243, 38.63952281863192) translate(364.2780316618762, -29.33782805330543) translate(-350,439) rotate(4.253614245710539 1486.4905395507812 300.8445053100586) translate(-6.812282221167607, -411.007694010456) translate(383.58052347390344, 192.690685500975) matrix(1.258408215182028 0 0 1.258408215182028 -266.36556054070087 -148.55210332005606) translate(533,195) translate(-21.896966779008153, -6.69073984914138) translate(-45.01043171240576, -11.556732466698747) translate(62.04140587385655, 21.28871770181354) translate(-1.8247472315840696, 0.6082490771946709) translate(-22.50521585620288, -12.164981543893418) translate(26.76295939656552, 13.989728775477488) translate(-24.32996308778695, -20.68046862461881) translate(-17.6392232386454, -36.49494463168031) translate(35.27844647729091, 60.216658642272535) translate(15.6944547729492, 32.65631137084961)" fill="none" d="M535.1680297851562 313.7030029296875L539.2730102539062 311.49700927734375L542.6090087890625 309.5660095214844L544.6799926757812 308.15301513671875L545.5339965820312 305.8009948730469L547.1090087890625 304.0799865722656L548.6510009765625 303.2539978027344L550.1409912109375 303.61700439453125L551.3770141601562 303.97900390625L553.5989990234375 304.6700134277344L556.3880004882812 303.89898681640625L558.4409790039062 302.7950134277344L565.885009765625 298.6440124511719L571.2930297851562 295.3009948730469L576.43798828125 292.2449951171875" stroke="#000000" stroke-width="0.25" g2gstroke="#312783"/>
<path orgstroke="#000000" orgfill="none" stroke-linecap="round" transform="translate(-452.08241697799326, -394.12313275004544) translate(160.35401969732243, 38.63952281863192) translate(364.2780316618762, -29.33782805330543) translate(-350,439) rotate(4.253614245710539 1486.4905395507812 300.8445053100586) translate(-6.812282221167607, -411.007694010456) translate(383.58052347390344, 192.690685500975) matrix(1.258408215182028 0 0 1.258408215182028 -266.36556054070087 -148.55210332005606) translate(533,195) translate(-21.896966779008153, -6.69073984914138) translate(-45.01043171240576, -11.556732466698747) translate(62.04140587385655, 21.28871770181354) translate(-1.8247472315840696, 0.6082490771946709) translate(-22.50521585620288, -12.164981543893418) translate(26.76295939656552, 13.989728775477488) translate(-24.32996308778695, -20.68046862461881) translate(-17.6392232386454, -36.49494463168031) translate(35.27844647729091, 60.216658642272535) translate(15.6944547729492, 32.65631137084961)" fill="none" d="M534.3170166015625 315.7569885253906L534.02099609375 316.9410095214844L535.2310180664062 317.89898681640625L537.9840087890625 317.71600341796875L540.0460205078125 316.6099853515625L550.8460083007812 310.22900390625L562.1589965820312 303.5660095214844" stroke="#000000" stroke-width="0.25" g2gstroke="#312783"/>
<path orgstroke="#000000" orgfill="none" stroke-linecap="round" transform="translate(-452.08241697799326, -394.12313275004544) translate(160.35401969732243, 38.63952281863192) translate(364.2780316618762, -29.33782805330543) translate(-350,439) rotate(4.253614245710539 1486.4905395507812 300.8445053100586) translate(-6.812282221167607, -411.007694010456) translate(383.58052347390344, 192.690685500975) matrix(1.258408215182028 0 0 1.258408215182028 -266.36556054070087 -148.55210332005606) translate(533,195) translate(-21.896966779008153, -6.69073984914138) translate(-45.01043171240576, -11.556732466698747) translate(62.04140587385655, 21.28871770181354) translate(-1.8247472315840696, 0.6082490771946709) translate(-22.50521585620288, -12.164981543893418) translate(26.76295939656552, 13.989728775477488) translate(-24.32996308778695, -20.68046862461881) translate(-17.6392232386454, -36.49494463168031) translate(35.27844647729091, 60.216658642272535) translate(15.6944547729492, 32.65631137084961)" fill="none" d="M556.4940185546875 287.5320129394531L556.5750122070312 286.5849914550781L556.8109741210938 286.0979919433594L557.2470092773438 285.67401123046875L559.64599609375 284.2359924316406L560.1430053710938 284.35699462890625L560.2999877929688 284.6159973144531L560.43798828125 285.2179870605469L560.5960083007812 285.9960021972656" stroke="#000000" stroke-width="0.25" g2gstroke="#312783"/>
<path orgstroke="#000000" orgfill="none" stroke-linecap="round" transform="translate(-452.08241697799326, -394.12313275004544) translate(160.35401969732243, 38.63952281863192) translate(364.2780316618762, -29.33782805330543) translate(-350,439) rotate(4.253614245710539 1486.4905395507812 300.8445053100586) translate(-6.812282221167607, -411.007694010456) translate(383.58052347390344, 192.690685500975) matrix(1.258408215182028 0 0 1.258408215182028 -266.36556054070087 -148.55210332005606) translate(533,195) translate(-21.896966779008153, -6.69073984914138) translate(-45.01043171240576, -11.556732466698747) translate(62.04140587385655, 21.28871770181354) translate(-1.8247472315840696, 0.6082490771946709) translate(-22.50521585620288, -12.164981543893418) translate(26.76295939656552, 13.989728775477488) translate(-24.32996308778695, -20.68046862461881) translate(-17.6392232386454, -36.49494463168031) translate(35.27844647729091, 60.216658642272535) translate(15.6944547729492, 32.65631137084961)" fill="none" d="M518.1279907226562 315.7439880371094L516.4420166015625 314.62200927734375" stroke="#000000" stroke-width="0.25" g2gstroke="#312783"/>
<path orgstroke="#000000" orgfill="none" stroke-linecap="round" transform="translate(-452.08241697799326, -394.12313275004544) translate(160.35401969732243, 38.63952281863192) translate(364.2780316618762, -29.33782805330543) translate(-350,439) rotate(4.253614245710539 1486.4905395507812 300.8445053100586) translate(-6.812282221167607, -411.007694010456) translate(383.58052347390344, 192.690685500975) matrix(1.258408215182028 0 0 1.258408215182028 -266.36556054070087 -148.55210332005606) translate(533,195) translate(-21.896966779008153, -6.69073984914138) translate(-45.01043171240576, -11.556732466698747) translate(62.04140587385655, 21.28871770181354) translate(-1.8247472315840696, 0.6082490771946709) translate(-22.50521585620288, -12.164981543893418) translate(26.76295939656552, 13.989728775477488) translate(-24.32996308778695, -20.68046862461881) translate(-17.6392232386454, -36.49494463168031) translate(35.27844647729091, 60.216658642272535) translate(15.6944547729492, 32.65631137084961)" fill="none" d="M493.3489990234375 327.14898681640625L491.6730041503906 326.02398681640625" stroke="#000000" stroke-width="0.25" g2gstroke="#312783"/>
<path orgstroke="#000000" orgfill="none" stroke-linecap="round" transform="translate(-452.08241697799326, -394.12313275004544) translate(160.35401969732243, 38.63952281863192) translate(364.2780316618762, -29.33782805330543) translate(-350,439) rotate(4.253614245710539 1486.4905395507812 300.8445053100586) translate(-6.812282221167607, -411.007694010456) translate(383.58052347390344, 192.690685500975) matrix(1.258408215182028 0 0 1.258408215182028 -266.36556054070087 -148.55210332005606) translate(533,195) translate(-21.896966779008153, -6.69073984914138) translate(-45.01043171240576, -11.556732466698747) translate(62.04140587385655, 21.28871770181354) translate(-1.8247472315840696, 0.6082490771946709) translate(-22.50521585620288, -12.164981543893418) translate(26.76295939656552, 13.989728775477488) translate(-24.32996308778695, -20.68046862461881) translate(-17.6392232386454, -36.49494463168031) translate(35.27844647729091, 60.216658642272535) translate(15.6944547729492, 32.65631137084961)" fill="none" d="M521.8170166015625 301.5660095214844L520.760009765625 300.73199462890625" stroke="#000000" stroke-width="0.25" g2gstroke="#312783"/>
</g>
</g>
</g>
</g>
</g>
</g></svg>