<svg xmlns="http://www.w3.org/2000/svg" xmlns:xlink="http://www.w3.org/1999/xlink" xmlns:x="http://ns.adobe.com/Extensibility/1.0/" xmlns:graph="http://ns.adobe.com/Graphs/1.0/" xmlns:i="http://ns.adobe.com/AdobeIllustrator/10.0/" xmlns:etg="http://www.eurotaxglass.com/etg/evd/" etg:dataTimestamp="1539068912893" contentScriptType="text/ecmascript" zoomAndPan="magnify" contentStyleType="text/css" id="Layer_1" enable-background="new 0 0 1841.891 1595.279" version="1.1" xml:space="preserve" width="1841.891px" preserveAspectRatio="xMidYMid meet" viewBox="0 0 1841.891 1595.279" height="1595.279px" x="0px" y="0px"><g xmlns="http://www.w3.org/2000/svg" objecttype="PS" tooltip="#UNDEFINED" id="45">
<g onmouseover="notifyOwner(AGV_OBJECT_MOUSEOVER, '45(PS)')" transform="translate(-9.433746356535266E-6, 3.356933575560106E-7) translate(-35.71980609130861, -13.200809143066408) translate(44.708733184814434, 94.79042849731445) matrix(0.6117410612267968 0 0 0.6117410612267968 0.2921243287958965 0.477310974878083) translate(-92,-34) " onclick="clickZoom(evt); notifyOwner(AGV_OBJECT_MOUSECLICK, '45(PS)')" onmouseout="notifyOwner(AGV_OBJECT_MOUSEOUT, '45(PS)')" tooltip="#UNDEFINED" id="45-Graphic" objecttype="GRAPHIC">
<g zvalue="44">
<g zvalue="10">
<g zvalue="12">
<g>
<path orgstroke="#000000" orgfill="#ffffff" transform="translate(-500.59707300319087, -67.64825310853928) translate(224.16168509177794, -133.67439936665653) translate(6.169587663076413, -361.9491429004854) translate(310.77705062323014, -338.63982067910604) translate(420.777215285067, -18.953928616444273) translate(-1000.7674309482675, 481.42978685768924) translate(1083,403) translate(-466.70543994140627, -17.177077911376955) translate(-403.3794257295175, 11.120736047680907) translate(-46.0, -1.0) translate(513.0, -23.0) translate(10.0, 10.00006103515625)" fill="#ffffff" g2gfill="#464646" d="M648.4,447.3c-0.3-0.2-0.5-0.6-0.5-0.8   s0-0.3,0-0.7s-0.2-0.7-0.6-0.9s-3.9-2.2-4.4-2.5c-0.2-0.1-0.2-0.5-0.2-0.8s0-0.5,0-1s-0.4-0.6-0.8-0.9l-0.2-0.1   c-0.2-0.1-0.5-0.1-0.7,0c-0.8,0.4-10.7,6.4-10.7,6.4c-1.8,1.1-3.4,1.7-4.8,1.7c-0.6,0-0.8-0.2-1-0.8c-0.1-0.2-0.3-0.7-0.3-0.9   c-0.4-1.3-0.7-2.6-1-4c-0.4-2-0.4-2.9-0.3-4.2c0.2-1.2-0.5-2.6-0.2-5.2c0.3-2.6,3.6-32.4,3.6-34.1c-0.1-11.5-0.4-18.4-1.2-25.1   c-0.1-1.3-0.5-2.5-0.9-3.7L624,369c-0.4-4.4-1.8-13.3-4.8-26.8c-3.1-13.5-14.6-46.3-15.2-48.2c-0.6-1.9-0.5-4.5,0.3-7.2   c0.9-2.8,2.5-7.4,8.8-11.4c2.2-1.4,4.7-2.9,7.5-4.6l0.4-0.2c0.5-0.3,0-1,0.2-1.1s1-0.4,1-1.2c0-0.5-1.1-4.2-2-5.6   c-0.8-1.2-2.6-3.2-4-4.1c-0.3-0.2-0.7-0.3-1.2,0.1c-6.9,4.3-13.6,8.6-19.8,12.7c-39.3,25.9-69.3,53.4-76.9,61.7   c-7.6,8.3-12.4,15.2-17.1,21.6s-28.7,44.9-34.3,54.7c-4.7,8.2-14.8,25.8-19.7,33.9c-0.1,0.2-0.2,0.3-0.2,0.6v0.6   c0,0.4-0.1,0.5-0.2,0.7c-1.1,1.9-7.2,11.4-7.7,11.9c0,0.1-0.1,0.2-0.1,0.5s0,0.9,0,1s0.2,0.5,0.5,0.7c1.3,0.7,3.5,2,3.9,2.4   c0.8,0.6,1.1,1.4,1.3,2.2c0.1,0.5,1.4,21.9,5.2,43.5c1.7,9.4,3.1,17.6,4.1,23.7c0,0.3,0.1,0.3-0.3,0.5l-0.3,0.1   c-0.2,0.1-0.2,0.4-0.2,0.7c0.9,5.2,1.4,8.3,1.4,8.6c0,0.3,0.1,0.6,0.2,0.7c0.1,0.2,0.3,0.4,0.5,0.5l2,1.2l0.1,0   c0.3,0.1,0.7-0.1,1.3-0.4c1.1-0.5,2.7-1.3,2.7-1.3c0.3-0.1,0.6,0.4,0.9,1.5c0.5,2.2,3.3,12.8,3.3,12.8c0.1,0.3,0,0.4-0.3,0.5   c-2.1,1.2-3.7,2.2-5,3c-0.3,0.2-0.4,0.3-0.4,0.6c-0.1,0.5-0.1,1-0.2,1.5c-0.2,1.3-0.5,2.7-0.7,4.1c-0.1,0.3,0.1,0.4,0.2,0.5   l0.4,0.2c0.2,0.1,0.4,0.1,0.6,0l21.2-12.5l165.2-97.3c0.3-0.2,0.5-0.3,0.6-0.7c0.4-1.6,1.5-7.5,1.6-7.9   C649.1,447.6,648.7,447.5,648.4,447.3z M604.4,399.4c-0.5,4.3-1.9,12.1-3.7,18c-1.8,5.7-5.2,15-6.3,25c-1.1,10.1-2.4,27-16.7,35.5   c0,0-82.1,49.4-106.2,63.8c-0.3,0.2-0.4,0.2-0.5-0.4c-0.1-1.2-0.1-2.7,0-4.6c0.2-3.8-2.5-54.9-2.8-58.2s-1.3-6.1-2.2-8.7   s-1.8-7.1-1.8-9.3c0-2,0-8.1,0-13.3c0-0.3,0.1-0.4,0.2-0.6l0.4-0.4c0.2-0.2,0.2-0.3,0.2-0.6c0.1-0.9,0.5-2.5,1.4-6.3   c0.6-2.6,3.3-9.2,6.9-17.1l0.2-0.3c5.4-11.8,32.7-58.2,43.8-72.2c11.1-14,17.8-19.7,34.9-32.8c7.6-5.8,25.6-18.6,28.5-20.7   c0.9-0.7,2.3-0.7,3.6-0.2c0,0,0.1,0,0.1,0.1c2.6,1.5,4.6,5.2,5.5,8.7c3.9,14.4,9,47.2,9.7,56.8c0.7,9.6,3.9,10.4,4.6,19.5   C605.1,390.3,604.8,395.1,604.4,399.4z" stroke="#000000" outline-element="true" stroke-width="0.5" g2gstroke="#312783" stroke-miterlimit="10"/>
<linearGradient transform="translate(-500.59707300319087, -67.64825310853928) translate(224.16168509177794, -133.67439936665653) translate(6.169587663076413, -361.9491429004854) translate(310.77705062323014, -338.63982067910604) translate(420.777215285067, -18.953928616444273) translate(-1000.7674309482675, 481.42978685768924) translate(1083,403) translate(-466.70543994140627, -17.177077911376955) translate(-403.3794257295175, 11.120736047680907) translate(-46.0, -1.0) translate(513.0, -23.0) translate(10.0, 10.00006103515625)" gradientTransform="matrix(1 0 0 -1 0 595.28)" x1="460.339" x2="649.0831" y1="88.155" gradientUnits="userSpaceOnUse" y2="88.155" xmlns:xlink="http://www.w3.org/1999/xlink" xlink:type="simple" xlink:actuate="onLoad" id="44::SVGID_20_" xlink:show="other">
<stop stop-opacity="5.000000e-002" stop-color="#FFFFFF" offset="0"/>
<stop stop-opacity="5.000000e-002" stop-color="#FFFFFF" offset="1"/>
</linearGradient>
<path fill="url(#44::SVGID_20_)" d="M649,447.7c0.1,0.1,0.1,0.2,0.1,0.4c0,0.5-1.2,6.3-1.6,7.9c-0.1,0.4-0.2,0.5-0.6,0.7L481.7,554   l-21.2,12.5c-0.1,0-0.2,0.1-0.2,0.1c0.3-1.5,0.5-2.8,0.8-4.3c0.1-0.6,0.2-1.3,0.3-1.9c0.1,0,0.2-0.1,0.3-0.1   C478.8,550,587.2,484.9,649,447.7z" transform="translate(-500.59707300319087, -67.64825310853928) translate(224.16168509177794, -133.67439936665653) translate(6.169587663076413, -361.9491429004854) translate(310.77705062323014, -338.63982067910604) translate(420.777215285067, -18.953928616444273) translate(-1000.7674309482675, 481.42978685768924) translate(1083,403) translate(-466.70543994140627, -17.177077911376955) translate(-403.3794257295175, 11.120736047680907) translate(-46.0, -1.0) translate(513.0, -23.0) translate(10.0, 10.00006103515625)" orgfill="url(#44::SVGID_20_)"/>
<linearGradient transform="translate(-500.59707300319087, -67.64825310853928) translate(224.16168509177794, -133.67439936665653) translate(6.169587663076413, -361.9491429004854) translate(310.77705062323014, -338.63982067910604) translate(420.777215285067, -18.953928616444273) translate(-1000.7674309482675, 481.42978685768924) translate(1083,403) translate(-466.70543994140627, -17.177077911376955) translate(-403.3794257295175, 11.120736047680907) translate(-46.0, -1.0) translate(513.0, -23.0) translate(10.0, 10.00006103515625)" gradientTransform="matrix(1 0 0 -1 0 595.28)" x1="635.5664" x2="657.2164" y1="147.4427" gradientUnits="userSpaceOnUse" y2="147.4427" xmlns:xlink="http://www.w3.org/1999/xlink" xlink:type="simple" xlink:actuate="onLoad" id="44::SVGID_21_" xlink:show="other">
<stop stop-opacity="0.2" stop-color="#FFFFFF" offset="0.2025"/>
<stop stop-opacity="0.35" stop-color="#FFFFFF" offset="0.4492"/>
<stop stop-opacity="0" stop-color="#FFFFFF" offset="0.8817"/>
</linearGradient>
<path orgfill="url(#44::SVGID_21_)" enable-background="new    " transform="translate(-500.59707300319087, -67.64825310853928) translate(224.16168509177794, -133.67439936665653) translate(6.169587663076413, -361.9491429004854) translate(310.77705062323014, -338.63982067910604) translate(420.777215285067, -18.953928616444273) translate(-1000.7674309482675, 481.42978685768924) translate(1083,403) translate(-466.70543994140627, -17.177077911376955) translate(-403.3794257295175, 11.120736047680907) translate(-46.0, -1.0) translate(513.0, -23.0) translate(10.0, 10.00006103515625)" fill="url(#44::SVGID_21_)" opacity="0.8" d="M647.4,444.9c0.3,0.2,0.5,0.4,0.5,0.6   c-4.8,2.9-8.8,5.3-10,6c-6.1,3.5-9.5,2.1-11.7-1.1c1.7,0,3.8-0.6,6.3-2c1.2-0.7,5.4-3.2,10.3-6.2c0,0.1,0.1,0.2,0.1,0.2   C643.5,442.7,647.1,444.7,647.4,444.9z"/>
<linearGradient transform="translate(-500.59707300319087, -67.64825310853928) translate(224.16168509177794, -133.67439936665653) translate(6.169587663076413, -361.9491429004854) translate(310.77705062323014, -338.63982067910604) translate(420.777215285067, -18.953928616444273) translate(-1000.7674309482675, 481.42978685768924) translate(1083,403) translate(-466.70543994140627, -17.177077911376955) translate(-403.3794257295175, 11.120736047680907) translate(-46.0, -1.0) translate(513.0, -23.0) translate(10.0, 10.00006103515625)" gradientTransform="matrix(1 0 0 -1 0 595.28)" x1="624.719" x2="642.889" y1="150.0956" gradientUnits="userSpaceOnUse" y2="150.0956" xmlns:xlink="http://www.w3.org/1999/xlink" xlink:type="simple" xlink:actuate="onLoad" id="44::SVGID_22_" xlink:show="other">
<stop stop-opacity="0.1" stop-color="#FFFFFF" offset="0"/>
<stop stop-opacity="0.1" stop-color="#FFFFFF" offset="0.3929"/>
<stop stop-opacity="0.1" stop-color="#FFFFFF" offset="0.8441"/>
</linearGradient>
<path fill="url(#44::SVGID_22_)" d="M642.8,441.6c0,0.2,0,0.4,0.1,0.6c-4.9,2.9-9.2,5.5-10.3,6.2c-2.5,1.5-4.6,2-6.3,2   c-0.6-0.9-1.1-2-1.6-3.1h0c0.2,0.6,0.8,1.2,1.6,1.1c1.4-0.1,3.2-0.6,5.2-1.8l8.5-5.1c0.8-0.5,1.7-1,2.6-1.5   c0.1,0.1,0.2,0.3,0.2,0.5C642.8,441,642.8,441.3,642.8,441.6z" transform="translate(-500.59707300319087, -67.64825310853928) translate(224.16168509177794, -133.67439936665653) translate(6.169587663076413, -361.9491429004854) translate(310.77705062323014, -338.63982067910604) translate(420.777215285067, -18.953928616444273) translate(-1000.7674309482675, 481.42978685768924) translate(1083,403) translate(-466.70543994140627, -17.177077911376955) translate(-403.3794257295175, 11.120736047680907) translate(-46.0, -1.0) translate(513.0, -23.0) translate(10.0, 10.00006103515625)" orgfill="url(#44::SVGID_22_)"/>
<linearGradient transform="translate(-500.59707300319087, -67.64825310853928) translate(224.16168509177794, -133.67439936665653) translate(6.169587663076413, -361.9491429004854) translate(310.77705062323014, -338.63982067910604) translate(420.777215285067, -18.953928616444273) translate(-1000.7674309482675, 481.42978685768924) translate(1083,403) translate(-466.70543994140627, -17.177077911376955) translate(-403.3794257295175, 11.120736047680907) translate(-46.0, -1.0) translate(513.0, -23.0) translate(10.0, 10.00006103515625)" gradientTransform="matrix(1 0 0 -1 0 595.28)" x1="608.7169" x2="626.228" y1="176.2098" gradientUnits="userSpaceOnUse" y2="176.2098" xmlns:xlink="http://www.w3.org/1999/xlink" xlink:type="simple" xlink:actuate="onLoad" id="44::SVGID_23_" xlink:show="other">
<stop stop-opacity="5.000000e-002" stop-color="#FFFFFF" offset="0"/>
<stop stop-opacity="5.000000e-002" stop-color="#FFFFFF" offset="1"/>
</linearGradient>
<path fill="url(#44::SVGID_23_)" d="M626.2,398.4c0,1.7-3.3,31.5-3.6,34.1c-0.1,0.8-0.1,1.4,0,2c0,0-7.1,3.6-9.2,4.7   c-2.9,1.5-4.8,1.3-4.8-1.3c0-1.5,0.8-4.2,1.7-7.1c0,0,0,0,0,0c0.4-1.1,0.7-2.2,1-3.2c1-4,4.9-18.2,4.6-23.6l10.2-5.9h0   C626.2,398.1,626.2,398.3,626.2,398.4z M619.6,422.7c0.5-0.4,0.9-1.2,0.8-1.9c-0.1-0.6-0.5-0.8-1.1-0.4c-0.5,0.4-0.8,1.2-0.8,1.9   C618.6,422.9,619.1,423,619.6,422.7z M615.2,429.6c0.5-0.4,0.9-1.2,0.8-1.9c-0.1-0.6-0.6-0.8-1.1-0.5c-0.5,0.4-0.8,1.2-0.8,1.9   C614.2,429.8,614.7,430,615.2,429.6z" transform="translate(-500.59707300319087, -67.64825310853928) translate(224.16168509177794, -133.67439936665653) translate(6.169587663076413, -361.9491429004854) translate(310.77705062323014, -338.63982067910604) translate(420.777215285067, -18.953928616444273) translate(-1000.7674309482675, 481.42978685768924) translate(1083,403) translate(-466.70543994140627, -17.177077911376955) translate(-403.3794257295175, 11.120736047680907) translate(-46.0, -1.0) translate(513.0, -23.0) translate(10.0, 10.00006103515625)" orgfill="url(#44::SVGID_23_)"/>
<linearGradient transform="translate(-500.59707300319087, -67.64825310853928) translate(224.16168509177794, -133.67439936665653) translate(6.169587663076413, -361.9491429004854) translate(310.77705062323014, -338.63982067910604) translate(420.777215285067, -18.953928616444273) translate(-1000.7674309482675, 481.42978685768924) translate(1083,403) translate(-466.70543994140627, -17.177077911376955) translate(-403.3794257295175, 11.120736047680907) translate(-46.0, -1.0) translate(513.0, -23.0) translate(10.0, 10.00006103515625)" gradientTransform="matrix(1 0 0 -1 0 595.28)" x1="552.7997" x2="595.5632" y1="216.3998" gradientUnits="userSpaceOnUse" y2="158.7399" xmlns:xlink="http://www.w3.org/1999/xlink" xlink:type="simple" xlink:actuate="onLoad" id="44::SVGID_24_" xlink:show="other">
<stop stop-opacity="0.7" stop-color="#FFFFFF" offset="0"/>
<stop stop-opacity="0.5742" stop-color="#FFFFFF" offset="0.129"/>
<stop stop-opacity="0.5" stop-color="#FFFFFF" offset="0.3743"/>
<stop stop-opacity="0.7" stop-color="#FFFFFF" offset="0.5392"/>
</linearGradient>
<path fill="url(#44::SVGID_24_)" d="M622.2,268.2c0,0.4-0.2,0.6-0.4,0.8c-3.4,1.9-6.8,4-10.2,6c-8.6,5.2-17.3,10.8-25.5,16.4   c-1.3,0.9-2.7,1.8-4,2.7h0c-11.9,8.1-22.6,16-30.7,22.2c-17.1,13.1-23.8,18.8-34.9,32.8s-19.3,28.3-28.7,44.7   c-5,8.7-10.4,19.6-14.5,28.6c-3.6,7.9-6.3,14.5-6.9,17.1c-0.9,3.8-1.2,5.4-1.4,6.3c0,0.1,0,0.2-0.1,0.3l-0.1,0   c-4.4-2.9-14.4-3.7-17.7-2.6l-0.1,0c0,0,0-0.1,0.1-0.2c4.9-8.1,15.1-25.7,19.7-34c5.6-9.8,29.6-48.3,34.3-54.7   c4.7-6.4,9.5-13.4,17.1-21.6c7.6-8.3,37.6-35.8,76.9-61.7c6.2-4.1,12.9-8.4,19.8-12.7c0.5-0.3,0.9-0.2,1.2-0.1   c1.5,0.9,3.2,2.9,4,4.1C621.1,264,622.2,267.7,622.2,268.2z" transform="translate(-500.59707300319087, -67.64825310853928) translate(224.16168509177794, -133.67439936665653) translate(6.169587663076413, -361.9491429004854) translate(310.77705062323014, -338.63982067910604) translate(420.777215285067, -18.953928616444273) translate(-1000.7674309482675, 481.42978685768924) translate(1083,403) translate(-466.70543994140627, -17.177077911376955) translate(-403.3794257295175, 11.120736047680907) translate(-46.0, -1.0) translate(513.0, -23.0) translate(10.0, 10.00006103515625)" orgfill="url(#44::SVGID_24_)"/>
<linearGradient transform="translate(-500.59707300319087, -67.64825310853928) translate(224.16168509177794, -133.67439936665653) translate(6.169587663076413, -361.9491429004854) translate(310.77705062323014, -338.63982067910604) translate(420.777215285067, -18.953928616444273) translate(-1000.7674309482675, 481.42978685768924) translate(1083,403) translate(-466.70543994140627, -17.177077911376955) translate(-403.3794257295175, 11.120736047680907) translate(-46.0, -1.0) translate(513.0, -23.0) translate(10.0, 10.00006103515625)" gradientTransform="matrix(1 0 0 -1 0 595.28)" x1="658.646" x2="601.7414" y1="174.8526" gradientUnits="userSpaceOnUse" y2="273.4142" xmlns:xlink="http://www.w3.org/1999/xlink" xlink:type="simple" xlink:actuate="onLoad" id="44::SVGID_25_" xlink:show="other">
<stop stop-opacity="0.1" stop-color="#FFFFFF" offset="6.888200e-004"/>
<stop stop-opacity="0.5" stop-color="#FFFFFF" offset="0.2946"/>
<stop stop-opacity="0.3517" stop-color="#FFFFFF" offset="0.5422"/>
<stop stop-opacity="0.1" stop-color="#FFFFFF" offset="0.6025"/>
<stop stop-opacity="0.1" stop-color="#FFFFFF" offset="0.6574"/>
<stop stop-opacity="0.4" stop-color="#FFFFFF" offset="0.8867"/>
</linearGradient>
<path fill="url(#44::SVGID_25_)" d="M625,373.3c-0.1-1-0.3-2-0.6-3c-0.1-0.3-0.2-0.5-0.2-0.7c0-0.2-0.1-0.3-0.2-0.5   c-0.6-1.6-1.2-3.2-1.8-4.8c-0.3-0.8-0.5-1.6-0.6-2.4c-0.5-3.1-1.1-6.3-1.7-9.9c-0.6-3.8-1.9-9.1-3.5-14.9   c-4.8-17.4-12.4-39.7-13.3-42.1c-1.2-3.2-1.4-5.1,0-9.6c1.4-4.5,4.2-7.5,8.5-10.2c-8.6,5.2-17.3,10.8-25.5,16.4   c5.2,2.1,8.2,3.7,12.1,18.1c2.2,8,4.7,21.8,6.7,34.1c1.5,9.7,2.7,18.5,3,22.7c0.2,2.5,0.5,4.2,1,5.5c0.8,2.4,1.9,3.6,2.7,5.8   c0.5,1.3,0.9,3,1.1,5.5c0.2,2.1,0.3,4.1,0.5,6c0.5,6.2,0.7,11.3,0.4,14.6c0,0.1,0,0.2,0,0.3c0,0.4-0.1,0.9-0.2,1.3l2.8-1.6   l10.2-5.9h0C626.1,386.7,625.8,379.9,625,373.3z M615.1,379.6c-0.1-0.6,0.3-1.5,0.8-1.9c0.5-0.4,1-0.2,1.1,0.4   c0.1,0.6-0.3,1.5-0.8,1.9C615.7,380.5,615.2,380.3,615.1,379.6z M619.7,400.3c-0.7,0.5-2,0.3-2.4-0.4c-0.1-0.2-0.2-0.4-0.2-0.6   v-0.4c-0.1-4.7-0.3-8.5-0.5-12l0-0.5c-0.1-1.2,0.5-2.4,1.7-3.1c0.3-0.2,0.6-0.3,0.9-0.4c0.8-0.1,1.5,0.3,1.6,1.3l0,0.5   c0.3,3.5,0.4,7.4,0.5,12.1l0,0.5C621.3,398.5,620.6,399.7,619.7,400.3z M621.5,381.5c-0.5,0.4-1,0.2-1.1-0.5s0.3-1.5,0.8-1.9   c0.5-0.4,1-0.2,1.1,0.4C622.3,380.2,622,381,621.5,381.5z" transform="translate(-500.59707300319087, -67.64825310853928) translate(224.16168509177794, -133.67439936665653) translate(6.169587663076413, -361.9491429004854) translate(310.77705062323014, -338.63982067910604) translate(420.777215285067, -18.953928616444273) translate(-1000.7674309482675, 481.42978685768924) translate(1083,403) translate(-466.70543994140627, -17.177077911376955) translate(-403.3794257295175, 11.120736047680907) translate(-46.0, -1.0) translate(513.0, -23.0) translate(10.0, 10.00006103515625)" orgfill="url(#44::SVGID_25_)"/>
<linearGradient transform="translate(-500.59707300319087, -67.64825310853928) translate(224.16168509177794, -133.67439936665653) translate(6.169587663076413, -361.9491429004854) translate(310.77705062323014, -338.63982067910604) translate(420.777215285067, -18.953928616444273) translate(-1000.7674309482675, 481.42978685768924) translate(1083,403) translate(-466.70543994140627, -17.177077911376955) translate(-403.3794257295175, 11.120736047680907) translate(-46.0, -1.0) translate(513.0, -23.0) translate(10.0, 10.00006103515625)" gradientTransform="matrix(1 0 0 -1 0 595.28)" x1="532.373" x2="674.3821" y1="174.9104" gradientUnits="userSpaceOnUse" y2="174.9104" xmlns:xlink="http://www.w3.org/1999/xlink" xlink:type="simple" xlink:actuate="onLoad" id="44::SVGID_26_" xlink:show="other">
<stop stop-opacity="0.2" stop-color="#FFFFFF" offset="0.2025"/>
<stop stop-opacity="0.35" stop-color="#FFFFFF" offset="0.4492"/>
<stop stop-opacity="0" stop-color="#FFFFFF" offset="0.8817"/>
</linearGradient>
<path orgfill="url(#44::SVGID_26_)" enable-background="new    " transform="translate(-500.59707300319087, -67.64825310853928) translate(224.16168509177794, -133.67439936665653) translate(6.169587663076413, -361.9491429004854) translate(310.77705062323014, -338.63982067910604) translate(420.777215285067, -18.953928616444273) translate(-1000.7674309482675, 481.42978685768924) translate(1083,403) translate(-466.70543994140627, -17.177077911376955) translate(-403.3794257295175, 11.120736047680907) translate(-46.0, -1.0) translate(513.0, -23.0) translate(10.0, 10.00006103515625)" fill="url(#44::SVGID_26_)" opacity="0.8" d="M608.8,393.5c0-0.2,0-0.5,0-0.7l-0.1,0   c0-5.1,2.7-4.1,4.3-3.6c-0.1-1.9-0.3-3.9-0.5-6c-0.2-2.5-0.6-4.2-1.1-5.5c-0.8-2.2-1.9-3.4-2.7-5.8c-0.4-1.3-0.8-3.1-1-5.5   c-0.3-4.2-1.5-13-3-22.7c-2-12.3-4.5-26-6.7-34.1c-3.9-14.4-6.9-16-12.1-18.1c-1.3,0.9-2.7,1.8-4,2.7c6.1,0.5,8.8,6,10.5,12.4   c3.9,14.4,9,47.2,9.7,56.8c0.7,9.5,3.8,10.4,4.6,19.5c0.3,4,0.5,7.3,0.5,9.9l0.1,0c0,3.4-0.2,5.9-0.5,8.3c-0.5,4.3-1.9,12.1-3.7,18   c-1.8,5.7-5.2,15-6.3,25c-1.1,10.1-2.4,27-16.8,35.5c0,0-87.9,52.9-108.7,65.4l0,0c0.1,0.7,0.3,1.3,0.3,1.8c0.3,2.5,2,3.2,4.6,1.6   c23.1-13.9,64.9-39,104.8-63c1.2-0.7,2.4-1.4,3.6-2.2c14.3-8.6,16.7-26.2,17.8-36.2c1.1-10.1,4.5-19.4,6.3-25   c1.7-5.3,3.7-12.1,4.5-16.6c0.1-0.5,0.1-0.9,0.2-1.3c0-0.1,0-0.2,0-0.3C613.5,403.9,609.1,399.4,608.8,393.5z"/>
<linearGradient transform="translate(-500.59707300319087, -67.64825310853928) translate(224.16168509177794, -133.67439936665653) translate(6.169587663076413, -361.9491429004854) translate(310.77705062323014, -338.63982067910604) translate(420.777215285067, -18.953928616444273) translate(-1000.7674309482675, 481.42978685768924) translate(1083,403) translate(-466.70543994140627, -17.177077911376955) translate(-403.3794257295175, 11.120736047680907) translate(-46.0, -1.0) translate(513.0, -23.0) translate(10.0, 10.00006103515625)" gradientTransform="matrix(1 0 0 -1 0 595.28)" x1="471.117" x2="607.357" y1="175.6536" gradientUnits="userSpaceOnUse" y2="175.6536" xmlns:xlink="http://www.w3.org/1999/xlink" xlink:type="simple" xlink:actuate="onLoad" id="44::SVGID_27_" xlink:show="other">
<stop stop-opacity="0.1" stop-color="#FFFFFF" offset="0"/>
<stop stop-opacity="0.1" stop-color="#FFFFFF" offset="0.3929"/>
<stop stop-opacity="0.1" stop-color="#FFFFFF" offset="0.8441"/>
</linearGradient>
<path fill="url(#44::SVGID_27_)" d="M606.9,382.9c0.3,4,0.5,7.3,0.5,9.9c0,3.4-0.2,5.9-0.5,8.3c-0.5,4.3-1.9,12.1-3.7,18   c-1.8,5.7-5.2,15-6.3,25c-1.1,10.1-2.4,27-16.8,35.5c0,0-87.9,52.9-108.7,65.4l0,0c-0.1-0.5-0.2-1.1-0.3-1.8h0   c23.8-14.3,107.5-64.6,107.5-64.6c14.3-8.6,15.6-25.5,16.7-35.5c1.1-10,4.5-19.4,6.3-25c1.8-5.9,3.2-13.7,3.7-18   c0.5-4.3,0.8-9.1,0-18.2c-0.8-9.1-3.9-10-4.6-19.5c-0.7-9.5-5.8-42.4-9.7-56.8c-1-3.8-3.6-7.6-6.3-9.1c-0.1-0.1-0.2-0.1-0.3-0.2   c0,0-0.1,0-0.1-0.1c-1.3-0.5-2.7-0.5-3.6,0.2c-2.9,2.2-21,14.9-28.5,20.7c-17.1,13.1-23.8,18.8-34.9,32.8   c-11.1,14-38.4,60.4-43.8,72.2l-0.2,0.4c4.1-9.1,9.5-19.9,14.5-28.6c9.4-16.3,17.6-30.7,28.7-44.7s17.8-19.7,34.9-32.8   c8.1-6.2,18.8-14,30.7-22.2h0c6.1,0.5,8.8,6,10.5,12.4c3.9,14.4,9,47.2,9.7,56.8C603,372.9,606.1,373.7,606.9,382.9z" transform="translate(-500.59707300319087, -67.64825310853928) translate(224.16168509177794, -133.67439936665653) translate(6.169587663076413, -361.9491429004854) translate(310.77705062323014, -338.63982067910604) translate(420.777215285067, -18.953928616444273) translate(-1000.7674309482675, 481.42978685768924) translate(1083,403) translate(-466.70543994140627, -17.177077911376955) translate(-403.3794257295175, 11.120736047680907) translate(-46.0, -1.0) translate(513.0, -23.0) translate(10.0, 10.00006103515625)" orgfill="url(#44::SVGID_27_)"/>
<linearGradient transform="translate(-500.59707300319087, -67.64825310853928) translate(224.16168509177794, -133.67439936665653) translate(6.169587663076413, -361.9491429004854) translate(310.77705062323014, -338.63982067910604) translate(420.777215285067, -18.953928616444273) translate(-1000.7674309482675, 481.42978685768924) translate(1083,403) translate(-466.70543994140627, -17.177077911376955) translate(-403.3794257295175, 11.120736047680907) translate(-46.0, -1.0) translate(513.0, -23.0) translate(10.0, 10.00006103515625)" gradientTransform="matrix(1 0 0 -1 0 595.28)" x1="558.9849" x2="506.4873" y1="89.8566" gradientUnits="userSpaceOnUse" y2="180.785" xmlns:xlink="http://www.w3.org/1999/xlink" xlink:type="simple" xlink:actuate="onLoad" id="44::SVGID_28_" xlink:show="other">
<stop stop-opacity="0.1" stop-color="#FFFFFF" offset="6.888200e-004"/>
<stop stop-opacity="0.5" stop-color="#FFFFFF" offset="0.2946"/>
<stop stop-opacity="0.3517" stop-color="#FFFFFF" offset="0.5796"/>
<stop stop-opacity="0.1" stop-color="#FFFFFF" offset="0.6025"/>
<stop stop-opacity="0.1" stop-color="#FFFFFF" offset="0.6574"/>
<stop stop-opacity="0.4" stop-color="#FFFFFF" offset="0.8867"/>
<stop stop-opacity="0.4" stop-color="#FFFFFF" offset="0.9736"/>
</linearGradient>
<path fill="url(#44::SVGID_28_)" d="M648,446.5c0-0.3,0-0.3,0-0.7c0-0.1,0-0.1,0-0.2c-4.8,2.9-8.8,5.3-10,6c-6.1,3.5-9.5,2.1-11.7-1.1   c-0.6-0.9-1.1-2-1.6-3.1c0-0.1,0-0.1-0.1-0.2l0,0c0-0.1-0.1-0.1-0.1-0.2c-0.1-0.2-0.3-0.7-0.3-0.9c-0.4-1.3-0.7-2.6-1-4   c-0.4-2-0.4-2.9-0.3-4.2c0-0.3,0-0.5,0-0.8c-0.5,0.3-7.4,4.3-10.2,5.6c-2.9,1.4-5,0-5-2.7c0-2,1.5-5.7,2.7-9.1c0,0,0,0,0,0   c0.4-1.1,0.7-2.2,1-3.2c1-4,4.9-18.2,4.6-23.6l-2.8,1.6c-0.7,4.4-2.8,11.3-4.5,16.6c-1.8,5.7-5.1,14.9-6.3,25   c-1.1,10.1-3.5,27.6-17.8,36.2c-1.2,0.7-2.4,1.4-3.6,2.2c-39.9,23.9-81.7,49.1-104.8,63c-2.6,1.5-4.3,0.8-4.6-1.6   c0-0.5-0.2-1.1-0.3-1.8c-0.1-0.5-0.2-1.1-0.3-1.8c-0.1-0.5-0.1-1-0.2-1.5c0-0.1,0-0.2,0-0.3c-0.1-1.2,0-2.7,0-4.6   c0-1.1-0.1-5.9-0.4-12.4h-0.1l-15,8.5l-0.1,0c1,5.7,1.5,9.2,1.6,9.5c0.1,0.6,0.2,1,0.4,1.1c0.1,0.1,0.1,0.1,0.2,0.1   c0.3,0.1,0.7-0.1,1.3-0.4c1.1-0.5,2.7-1.3,2.7-1.3v0c0,0,0.1,0,0.1-0.1c1-0.5,1.4-0.5,1.8,1.2c0.5,2.2,3.4,12.8,3.4,12.8l0,0.1   c12.8-7.7,64.4-38.8,115-69.2c23.7-14.2,47.1-28.3,66.2-39.8C648,446.8,648,446.6,648,446.5z M460.8,538.6c-0.5,0.4-0.9,0.2-1-0.4   c0,0,0-0.1,0-0.1c0-0.6,0.3-1.3,0.7-1.7c0,0,0.1-0.1,0.1-0.1v0c0.4-0.2,0.8,0,0.9,0.5C461.6,537.5,461.3,538.3,460.8,538.6z    M465.8,532.9c-0.5,0.4-0.9,0.2-1-0.4c0,0,0-0.1,0-0.1c0-0.6,0.3-1.3,0.7-1.7c0,0,0.1-0.1,0.1-0.1v0c0.4-0.2,0.8,0,0.9,0.5   C466.6,531.7,466.3,532.5,465.8,532.9z M626,458.7c-1.7,1-18.6,10.7-22.6,13.1c-4,2.4-4.7,1.9-2.6-2.1c2.1-4,3.1-11.2,3.3-12.8   c0.2-1.6,0.7-3,1.6-3.5c1-0.5,11.3-6.2,12.5-6.9c1.5-0.8,3-0.9,3.5,0.7s3,5.4,4.6,6.9C628.1,455.8,627.7,457.7,626,458.7z" transform="translate(-500.59707300319087, -67.64825310853928) translate(224.16168509177794, -133.67439936665653) translate(6.169587663076413, -361.9491429004854) translate(310.77705062323014, -338.63982067910604) translate(420.777215285067, -18.953928616444273) translate(-1000.7674309482675, 481.42978685768924) translate(1083,403) translate(-466.70543994140627, -17.177077911376955) translate(-403.3794257295175, 11.120736047680907) translate(-46.0, -1.0) translate(513.0, -23.0) translate(10.0, 10.00006103515625)" orgfill="url(#44::SVGID_28_)"/>
<linearGradient transform="translate(-500.59707300319087, -67.64825310853928) translate(224.16168509177794, -133.67439936665653) translate(6.169587663076413, -361.9491429004854) translate(310.77705062323014, -338.63982067910604) translate(420.777215285067, -18.953928616444273) translate(-1000.7674309482675, 481.42978685768924) translate(1083,403) translate(-466.70543994140627, -17.177077911376955) translate(-403.3794257295175, 11.120736047680907) translate(-46.0, -1.0) translate(513.0, -23.0) translate(10.0, 10.00006103515625)" gradientTransform="matrix(1 0 0 -1 0 595.28)" x1="439.219" x2="470.651" y1="106.6586" gradientUnits="userSpaceOnUse" y2="106.6586" xmlns:xlink="http://www.w3.org/1999/xlink" xlink:type="simple" xlink:actuate="onLoad" id="44::SVGID_29_" xlink:show="other">
<stop stop-opacity="0.25" stop-color="#FFFFFF" offset="0"/>
<stop stop-opacity="0.25" stop-color="#FFFFFF" offset="1"/>
</linearGradient>
<path fill="url(#44::SVGID_29_)" d="M468.7,484.8c-0.2-3.3-0.3-5.6-0.4-6.2c-0.1-1.8-0.5-3.5-1-5.1c-0.4-1.3-0.8-2.5-1.2-3.6   c-0.9-2.6-1.8-7.1-1.8-9.3c0-2,0-8.1,0-13.3c0-0.1,0-0.2,0-0.3c0,0,0,0,0,0c-4.7-2.6-14.2-3.3-17.2-2.2l-0.1,0   c0,0.1-0.1,0.3-0.2,0.4c-1.1,1.9-7.2,11.4-7.7,11.9c0,0,0,0.1-0.1,0.2h0c-0.1,0.4,0,0.8,0.8,1.1c0.9,0.4,4.1,2.3,4.6,2.8   c0.8,0.6,1.1,1.5,1.3,2.4c0,0.2,0.2,2.5,0.5,6.5c0.3,3.7,0.8,8.7,1.4,14.5c0.4,3.5,0.9,7.3,1.4,11.2c0.5,3.7,1.1,7.5,1.8,11.4   c1.9,10.4,3.4,19.4,4.4,25.7l0.1,0l15-8.5h0.1C470.1,512.2,469.2,494.3,468.7,484.8z M461.4,454.7c0,0,0.1-0.1,0.1-0.1   c0.4-0.3,0.8,0,0.9,0.5c0.1,0.6-0.3,1.4-0.8,1.8c-0.5,0.4-1,0.2-1-0.4c0,0,0-0.1,0-0.1h0C460.6,455.8,460.9,455.1,461.4,454.7z    M465.5,480.1c0.1,0.8-0.3,1.8-0.9,2.3c-0.6,0.5-1.2,0.2-1.3-0.5c0,0,0-0.1,0-0.1c0-0.8,0.4-1.7,0.9-2.1c0.1,0,0.1-0.1,0.2-0.1   C464.9,479.2,465.4,479.4,465.5,480.1z M461.4,483.5c0,0,0.1-0.1,0.1-0.1c0.4-0.3,0.8,0,0.9,0.5c0.1,0.6-0.3,1.4-0.8,1.8   c-0.5,0.4-1,0.2-1-0.4c0,0,0-0.1,0-0.1C460.6,484.6,460.9,483.8,461.4,483.5z M456.3,468.1c0.1,0.6-0.3,1.4-0.8,1.8   c-0.5,0.4-1,0.2-1-0.4c0,0,0-0.1,0-0.1c0-0.6,0.3-1.4,0.8-1.7c0,0,0.1-0.1,0.1-0.1v0C455.8,467.4,456.2,467.6,456.3,468.1z    M458.6,518.1c-1,0.8-2.1,0.4-2.2-0.9c-0.2-1.3,0.5-3.1,1.6-3.9c1.1-0.8,2.1-0.4,2.2,0.9C460.4,515.5,459.7,517.3,458.6,518.1z    M465,511.9c-0.9,0.6-1.8,0.3-2-0.7c0-0.1,0-0.2,0-0.3l-0.9-12.3c0-0.1,0-0.2,0-0.2c0-0.2,0.1-0.7,0.1-0.7c0.2-1,0.8-2,1.6-2.5   c0.9-0.6,1.8-0.3,2,0.7l1,12.5C466.8,509.7,466,511.2,465,511.9z" transform="translate(-500.59707300319087, -67.64825310853928) translate(224.16168509177794, -133.67439936665653) translate(6.169587663076413, -361.9491429004854) translate(310.77705062323014, -338.63982067910604) translate(420.777215285067, -18.953928616444273) translate(-1000.7674309482675, 481.42978685768924) translate(1083,403) translate(-466.70543994140627, -17.177077911376955) translate(-403.3794257295175, 11.120736047680907) translate(-46.0, -1.0) translate(513.0, -23.0) translate(10.0, 10.00006103515625)" orgfill="url(#44::SVGID_29_)"/>
<path stroke-linecap="round" orgstroke="#000000" orgfill="none" transform="translate(-500.59707300319087, -67.64825310853928) translate(224.16168509177794, -133.67439936665653) translate(6.169587663076413, -361.9491429004854) translate(310.77705062323014, -338.63982067910604) translate(420.777215285067, -18.953928616444273) translate(-1000.7674309482675, 481.42978685768924) translate(1083,403) translate(-466.70543994140627, -17.177077911376955) translate(-403.3794257295175, 11.120736047680907) translate(-46.0, -1.0) translate(513.0, -23.0) translate(10.0, 10.00006103515625)" fill="none" stroke-linejoin="round" d="   M473.4,422.4c4.1-9.1,9.5-19.9,14.5-28.6c9.4-16.3,17.6-30.7,28.7-44.7c11.1-14,17.8-19.7,34.9-32.8c16.6-12.7,44.7-32.7,70.4-47.3   " stroke="#000000" stroke-width="0.25" g2gstroke="#312783" stroke-miterlimit="10"/>
<path stroke-linecap="round" orgstroke="#000000" orgfill="none" transform="translate(-500.59707300319087, -67.64825310853928) translate(224.16168509177794, -133.67439936665653) translate(6.169587663076413, -361.9491429004854) translate(310.77705062323014, -338.63982067910604) translate(420.777215285067, -18.953928616444273) translate(-1000.7674309482675, 481.42978685768924) translate(1083,403) translate(-466.70543994140627, -17.177077911376955) translate(-403.3794257295175, 11.120736047680907) translate(-46.0, -1.0) translate(513.0, -23.0) translate(10.0, 10.00006103515625)" fill="none" stroke-linejoin="round" d="   M447.3,443.5c3.3-1.1,13.3-0.3,17.7,2.6" stroke="#000000" stroke-width="0.25" g2gstroke="#312783" stroke-miterlimit="10"/>
<path stroke-linecap="round" orgstroke="#000000" orgfill="none" transform="translate(-500.59707300319087, -67.64825310853928) translate(224.16168509177794, -133.67439936665653) translate(6.169587663076413, -361.9491429004854) translate(310.77705062323014, -338.63982067910604) translate(420.777215285067, -18.953928616444273) translate(-1000.7674309482675, 481.42978685768924) translate(1083,403) translate(-466.70543994140627, -17.177077911376955) translate(-403.3794257295175, 11.120736047680907) translate(-46.0, -1.0) translate(513.0, -23.0) translate(10.0, 10.00006103515625)" fill="none" stroke-linejoin="round" d="   M447.2,444.9c3-1.1,12.5-0.4,17.2,2.2" stroke="#000000" stroke-width="0.25" g2gstroke="#312783" stroke-miterlimit="10"/>
<path stroke-linecap="round" orgstroke="#000000" orgfill="none" transform="translate(-500.59707300319087, -67.64825310853928) translate(224.16168509177794, -133.67439936665653) translate(6.169587663076413, -361.9491429004854) translate(310.77705062323014, -338.63982067910604) translate(420.777215285067, -18.953928616444273) translate(-1000.7674309482675, 481.42978685768924) translate(1083,403) translate(-466.70543994140627, -17.177077911376955) translate(-403.3794257295175, 11.120736047680907) translate(-46.0, -1.0) translate(513.0, -23.0) translate(10.0, 10.00006103515625)" fill="none" stroke-linejoin="round" d="   M464.4,447.1c0,0-6.6,4.7-6,13.7c0.7,9.8,1.5,16.9,1.5,16.9" stroke="#000000" stroke-width="0.25" g2gstroke="#312783" stroke-miterlimit="10"/>
<path orgstroke="#000000" orgfill="none" transform="translate(-500.59707300319087, -67.64825310853928) translate(224.16168509177794, -133.67439936665653) translate(6.169587663076413, -361.9491429004854) translate(310.77705062323014, -338.63982067910604) translate(420.777215285067, -18.953928616444273) translate(-1000.7674309482675, 481.42978685768924) translate(1083,403) translate(-466.70543994140627, -17.177077911376955) translate(-403.3794257295175, 11.120736047680907) translate(-46.0, -1.0) translate(513.0, -23.0) translate(10.0, 10.00006103515625)" fill="none" d="M461.6,541.9c0.1,0,0.1-0.1,0.2-0.1c1-0.5,1.4-0.5,1.8,1.2   c0.5,2.2,3.3,12.8,3.3,12.8" stroke="#000000" stroke-width="0.25" g2gstroke="#312783"/>
<path orgstroke="#000000" orgfill="none" transform="translate(-500.59707300319087, -67.64825310853928) translate(224.16168509177794, -133.67439936665653) translate(6.169587663076413, -361.9491429004854) translate(310.77705062323014, -338.63982067910604) translate(420.777215285067, -18.953928616444273) translate(-1000.7674309482675, 481.42978685768924) translate(1083,403) translate(-466.70543994140627, -17.177077911376955) translate(-403.3794257295175, 11.120736047680907) translate(-46.0, -1.0) translate(513.0, -23.0) translate(10.0, 10.00006103515625)" fill="none" d="M439.2,457.3c-0.1,0.4,0,0.8,0.8,1.1c0.9,0.4,4.1,2.3,4.6,2.7   c0.8,0.6,1.1,1.5,1.3,2.4c0.1,0.5,1.4,21.9,5.2,43.5c3.5,19.9,5.9,34.5,6,35.2c0.1,0.8,0.3,1.2,0.6,1.3" stroke="#000000" stroke-width="0.25" g2gstroke="#312783"/>
<path stroke-linecap="round" orgstroke="#000000" orgfill="none" transform="translate(-500.59707300319087, -67.64825310853928) translate(224.16168509177794, -133.67439936665653) translate(6.169587663076413, -361.9491429004854) translate(310.77705062323014, -338.63982067910604) translate(420.777215285067, -18.953928616444273) translate(-1000.7674309482675, 481.42978685768924) translate(1083,403) translate(-466.70543994140627, -17.177077911376955) translate(-403.3794257295175, 11.120736047680907) translate(-46.0, -1.0) translate(513.0, -23.0) translate(10.0, 10.00006103515625)" fill="none" stroke-linejoin="round" d="   M461.4,560.4c-0.1,0.6-0.2,1.3-0.3,1.9c-0.2,1.4-0.5,2.8-0.8,4.3" stroke="#000000" stroke-width="0.25" g2gstroke="#312783" stroke-miterlimit="10"/>
<path orgstroke="#000000" orgfill="none" transform="translate(-500.59707300319087, -67.64825310853928) translate(224.16168509177794, -133.67439936665653) translate(6.169587663076413, -361.9491429004854) translate(310.77705062323014, -338.63982067910604) translate(420.777215285067, -18.953928616444273) translate(-1000.7674309482675, 481.42978685768924) translate(1083,403) translate(-466.70543994140627, -17.177077911376955) translate(-403.3794257295175, 11.120736047680907) translate(-46.0, -1.0) translate(513.0, -23.0) translate(10.0, 10.00006103515625)" fill="none" d="M455.6000061035156 532.9000244140625L470.6000061035156 524.2999877929688" stroke="#000000" stroke-width="0.25" g2gstroke="#312783" stroke-miterlimit="10"/>
<path orgstroke="#000000" orgfill="none" transform="translate(-500.59707300319087, -67.64825310853928) translate(224.16168509177794, -133.67439936665653) translate(6.169587663076413, -361.9491429004854) translate(310.77705062323014, -338.63982067910604) translate(420.777215285067, -18.953928616444273) translate(-1000.7674309482675, 481.42978685768924) translate(1083,403) translate(-466.70543994140627, -17.177077911376955) translate(-403.3794257295175, 11.120736047680907) translate(-46.0, -1.0) translate(513.0, -23.0) translate(10.0, 10.00006103515625)" fill="none" d="M449.5 495.79998779296875L468.70001220703125 484.79998779296875" stroke="#000000" stroke-width="0.25" g2gstroke="#312783" stroke-miterlimit="10"/>
<path orgstroke="#000000" orgfill="none" transform="translate(-500.59707300319087, -67.64825310853928) translate(224.16168509177794, -133.67439936665653) translate(6.169587663076413, -361.9491429004854) translate(310.77705062323014, -338.63982067910604) translate(420.777215285067, -18.953928616444273) translate(-1000.7674309482675, 481.42978685768924) translate(1083,403) translate(-466.70543994140627, -17.177077911376955) translate(-403.3794257295175, 11.120736047680907) translate(-46.0, -1.0) translate(513.0, -23.0) translate(10.0, 10.00006103515625)" fill="none" d="M447.79998779296875 484.6000061035156L467.29998779296875 473.5" stroke="#000000" stroke-width="0.25" g2gstroke="#312783" stroke-miterlimit="10"/>
<path orgstroke="#000000" orgfill="none" transform="translate(-500.59707300319087, -67.64825310853928) translate(224.16168509177794, -133.67439936665653) translate(6.169587663076413, -361.9491429004854) translate(310.77705062323014, -338.63982067910604) translate(420.777215285067, -18.953928616444273) translate(-1000.7674309482675, 481.42978685768924) translate(1083,403) translate(-466.70543994140627, -17.177077911376955) translate(-403.3794257295175, 11.120736047680907) translate(-46.0, -1.0) translate(513.0, -23.0) translate(10.0, 10.00006103515625)" fill="none" d="M446.3999938964844 470.1000061035156L458.3999938964844 463.29998779296875" stroke="#000000" stroke-width="0.25" g2gstroke="#312783" stroke-miterlimit="10"/>
<path orgstroke="#000000" orgfill="none" transform="translate(-500.59707300319087, -67.64825310853928) translate(224.16168509177794, -133.67439936665653) translate(6.169587663076413, -361.9491429004854) translate(310.77705062323014, -338.63982067910604) translate(420.777215285067, -18.953928616444273) translate(-1000.7674309482675, 481.42978685768924) translate(1083,403) translate(-466.70543994140627, -17.177077911376955) translate(-403.3794257295175, 11.120736047680907) translate(-46.0, -1.0) translate(513.0, -23.0) translate(10.0, 10.00006103515625)" fill="none" d="M466.7,508.4c0.1,1.2-0.7,2.8-1.7,3.5c-0.9,0.6-1.8,0.3-2-0.7   c0-0.1,0-0.2,0-0.3l-1-12.2c0-0.1,0-0.2,0-0.2c0,0,0,0.1,0,0.1l0.9,11.2c0.1,0.9,0.7,1.2,1.5,0.7c0.7-0.5,1.3-1.6,1.2-2.6   l-0.9-11.4c-0.1-0.8-0.8-1-1.5-0.5c-0.5,0.4-1,1-1.1,1.7c0.2-1,0.8-2,1.6-2.5c0.9-0.6,1.8-0.3,2,0.7L466.7,508.4z" stroke="#000000" stroke-width="0.25" g2gstroke="#312783"/>
<path orgstroke="#000000" orgfill="none" transform="translate(-500.59707300319087, -67.64825310853928) translate(224.16168509177794, -133.67439936665653) translate(6.169587663076413, -361.9491429004854) translate(310.77705062323014, -338.63982067910604) translate(420.777215285067, -18.953928616444273) translate(-1000.7674309482675, 481.42978685768924) translate(1083,403) translate(-466.70543994140627, -17.177077911376955) translate(-403.3794257295175, 11.120736047680907) translate(-46.0, -1.0) translate(513.0, -23.0) translate(10.0, 10.00006103515625)" fill="none" d="M462.1,497.7c0,0-0.1,0.5-0.1,0.7" stroke="#000000" stroke-width="0.25" g2gstroke="#312783"/>
<path orgstroke="#000000" orgfill="none" transform="translate(-500.59707300319087, -67.64825310853928) translate(224.16168509177794, -133.67439936665653) translate(6.169587663076413, -361.9491429004854) translate(310.77705062323014, -338.63982067910604) translate(420.777215285067, -18.953928616444273) translate(-1000.7674309482675, 481.42978685768924) translate(1083,403) translate(-466.70543994140627, -17.177077911376955) translate(-403.3794257295175, 11.120736047680907) translate(-46.0, -1.0) translate(513.0, -23.0) translate(10.0, 10.00006103515625)" fill="none" d="M460.2,514.2c0.2,1.3-0.5,3.1-1.6,3.9c-1.1,0.8-2.1,0.4-2.2-0.9   c-0.2-1.3,0.5-3.1,1.6-3.9C459.1,512.4,460.1,512.8,460.2,514.2z" stroke="#000000" stroke-width="0.25" g2gstroke="#312783"/>
<path orgstroke="#000000" orgfill="none" transform="translate(-500.59707300319087, -67.64825310853928) translate(224.16168509177794, -133.67439936665653) translate(6.169587663076413, -361.9491429004854) translate(310.77705062323014, -338.63982067910604) translate(420.777215285067, -18.953928616444273) translate(-1000.7674309482675, 481.42978685768924) translate(1083,403) translate(-466.70543994140627, -17.177077911376955) translate(-403.3794257295175, 11.120736047680907) translate(-46.0, -1.0) translate(513.0, -23.0) translate(10.0, 10.00006103515625)" fill="none" d="M459.5,514.7c0.1,0.8-0.3,1.9-1,2.4c-0.6,0.5-1.3,0.2-1.4-0.6   c-0.1-0.8,0.3-1.9,1-2.4C458.8,513.7,459.4,513.9,459.5,514.7z" stroke="#000000" stroke-width="0.25" g2gstroke="#312783"/>
<path orgstroke="#000000" orgfill="none" transform="translate(-500.59707300319087, -67.64825310853928) translate(224.16168509177794, -133.67439936665653) translate(6.169587663076413, -361.9491429004854) translate(310.77705062323014, -338.63982067910604) translate(420.777215285067, -18.953928616444273) translate(-1000.7674309482675, 481.42978685768924) translate(1083,403) translate(-466.70543994140627, -17.177077911376955) translate(-403.3794257295175, 11.120736047680907) translate(-46.0, -1.0) translate(513.0, -23.0) translate(10.0, 10.00006103515625)" fill="none" d="M461.6,536.9c0.1,0.6-0.2,1.4-0.7,1.7c-0.5,0.4-0.9,0.2-1-0.4   c-0.1-0.6,0.2-1.4,0.7-1.7C461,536.1,461.5,536.3,461.6,536.9z" stroke="#000000" stroke-width="0.25" g2gstroke="#312783"/>
<path orgstroke="#000000" orgfill="none" transform="translate(-500.59707300319087, -67.64825310853928) translate(224.16168509177794, -133.67439936665653) translate(6.169587663076413, -361.9491429004854) translate(310.77705062323014, -338.63982067910604) translate(420.777215285067, -18.953928616444273) translate(-1000.7674309482675, 481.42978685768924) translate(1083,403) translate(-466.70543994140627, -17.177077911376955) translate(-403.3794257295175, 11.120736047680907) translate(-46.0, -1.0) translate(513.0, -23.0) translate(10.0, 10.00006103515625)" fill="none" d="M460.7,536.4c0,0.6-0.3,1.3-0.7,1.6c0,0-0.1,0.1-0.1,0.1" stroke="#000000" stroke-width="0.25" g2gstroke="#312783"/>
<path orgstroke="#000000" orgfill="none" transform="translate(-500.59707300319087, -67.64825310853928) translate(224.16168509177794, -133.67439936665653) translate(6.169587663076413, -361.9491429004854) translate(310.77705062323014, -338.63982067910604) translate(420.777215285067, -18.953928616444273) translate(-1000.7674309482675, 481.42978685768924) translate(1083,403) translate(-466.70543994140627, -17.177077911376955) translate(-403.3794257295175, 11.120736047680907) translate(-46.0, -1.0) translate(513.0, -23.0) translate(10.0, 10.00006103515625)" fill="none" d="M466.6,531.1c0.1,0.6-0.2,1.4-0.7,1.7c-0.5,0.4-0.9,0.2-1-0.4   c-0.1-0.6,0.2-1.4,0.7-1.7C466,530.3,466.5,530.5,466.6,531.1z" stroke="#000000" stroke-width="0.25" g2gstroke="#312783"/>
<path orgstroke="#000000" orgfill="none" transform="translate(-500.59707300319087, -67.64825310853928) translate(224.16168509177794, -133.67439936665653) translate(6.169587663076413, -361.9491429004854) translate(310.77705062323014, -338.63982067910604) translate(420.777215285067, -18.953928616444273) translate(-1000.7674309482675, 481.42978685768924) translate(1083,403) translate(-466.70543994140627, -17.177077911376955) translate(-403.3794257295175, 11.120736047680907) translate(-46.0, -1.0) translate(513.0, -23.0) translate(10.0, 10.00006103515625)" fill="none" d="M465.7,530.6c0,0.6-0.3,1.3-0.7,1.6c0,0-0.1,0.1-0.1,0.1" stroke="#000000" stroke-width="0.25" g2gstroke="#312783"/>
<path orgstroke="#000000" orgfill="none" transform="translate(-500.59707300319087, -67.64825310853928) translate(224.16168509177794, -133.67439936665653) translate(6.169587663076413, -361.9491429004854) translate(310.77705062323014, -338.63982067910604) translate(420.777215285067, -18.953928616444273) translate(-1000.7674309482675, 481.42978685768924) translate(1083,403) translate(-466.70543994140627, -17.177077911376955) translate(-403.3794257295175, 11.120736047680907) translate(-46.0, -1.0) translate(513.0, -23.0) translate(10.0, 10.00006103515625)" fill="none" d="M465.5,480.1c0.1,0.8-0.3,1.8-0.9,2.3c-0.6,0.5-1.2,0.2-1.3-0.5   c-0.1-0.8,0.3-1.8,0.9-2.3C464.8,479.1,465.4,479.4,465.5,480.1z" stroke="#000000" stroke-width="0.25" g2gstroke="#312783"/>
<path orgstroke="#000000" orgfill="none" transform="translate(-500.59707300319087, -67.64825310853928) translate(224.16168509177794, -133.67439936665653) translate(6.169587663076413, -361.9491429004854) translate(310.77705062323014, -338.63982067910604) translate(420.777215285067, -18.953928616444273) translate(-1000.7674309482675, 481.42978685768924) translate(1083,403) translate(-466.70543994140627, -17.177077911376955) translate(-403.3794257295175, 11.120736047680907) translate(-46.0, -1.0) translate(513.0, -23.0) translate(10.0, 10.00006103515625)" fill="none" d="M464.4,479.5c0,0.8-0.4,1.7-0.9,2.1c-0.1,0-0.1,0.1-0.2,0.1" stroke="#000000" stroke-width="0.25" g2gstroke="#312783"/>
<path orgstroke="#000000" orgfill="none" transform="translate(-500.59707300319087, -67.64825310853928) translate(224.16168509177794, -133.67439936665653) translate(6.169587663076413, -361.9491429004854) translate(310.77705062323014, -338.63982067910604) translate(420.777215285067, -18.953928616444273) translate(-1000.7674309482675, 481.42978685768924) translate(1083,403) translate(-466.70543994140627, -17.177077911376955) translate(-403.3794257295175, 11.120736047680907) translate(-46.0, -1.0) translate(513.0, -23.0) translate(10.0, 10.00006103515625)" fill="none" d="M462.4,483.9c0.1,0.6-0.2,1.4-0.7,1.8c-0.5,0.4-1,0.2-1-0.4   c-0.1-0.6,0.3-1.4,0.7-1.8C461.9,483.1,462.3,483.3,462.4,483.9z" stroke="#000000" stroke-width="0.25" g2gstroke="#312783"/>
<path orgstroke="#000000" orgfill="none" transform="translate(-500.59707300319087, -67.64825310853928) translate(224.16168509177794, -133.67439936665653) translate(6.169587663076413, -361.9491429004854) translate(310.77705062323014, -338.63982067910604) translate(420.777215285067, -18.953928616444273) translate(-1000.7674309482675, 481.42978685768924) translate(1083,403) translate(-466.70543994140627, -17.177077911376955) translate(-403.3794257295175, 11.120736047680907) translate(-46.0, -1.0) translate(513.0, -23.0) translate(10.0, 10.00006103515625)" fill="none" d="M461.5,483.4c0,0.6-0.3,1.4-0.8,1.7c0,0-0.1,0.1-0.1,0.1" stroke="#000000" stroke-width="0.25" g2gstroke="#312783"/>
<path orgstroke="#000000" orgfill="none" transform="translate(-500.59707300319087, -67.64825310853928) translate(224.16168509177794, -133.67439936665653) translate(6.169587663076413, -361.9491429004854) translate(310.77705062323014, -338.63982067910604) translate(420.777215285067, -18.953928616444273) translate(-1000.7674309482675, 481.42978685768924) translate(1083,403) translate(-466.70543994140627, -17.177077911376955) translate(-403.3794257295175, 11.120736047680907) translate(-46.0, -1.0) translate(513.0, -23.0) translate(10.0, 10.00006103515625)" fill="none" d="M456.3,468.1c0.1,0.6-0.2,1.4-0.7,1.8c-0.5,0.4-1,0.2-1-0.4   c-0.1-0.6,0.3-1.4,0.7-1.8C455.8,467.3,456.2,467.5,456.3,468.1z" stroke="#000000" stroke-width="0.25" g2gstroke="#312783"/>
<path orgstroke="#000000" orgfill="none" transform="translate(-500.59707300319087, -67.64825310853928) translate(224.16168509177794, -133.67439936665653) translate(6.169587663076413, -361.9491429004854) translate(310.77705062323014, -338.63982067910604) translate(420.777215285067, -18.953928616444273) translate(-1000.7674309482675, 481.42978685768924) translate(1083,403) translate(-466.70543994140627, -17.177077911376955) translate(-403.3794257295175, 11.120736047680907) translate(-46.0, -1.0) translate(513.0, -23.0) translate(10.0, 10.00006103515625)" fill="none" d="M455.4,467.6c0,0.6-0.3,1.4-0.8,1.7c0,0-0.1,0.1-0.1,0.1" stroke="#000000" stroke-width="0.25" g2gstroke="#312783"/>
<path orgstroke="#000000" orgfill="none" transform="translate(-500.59707300319087, -67.64825310853928) translate(224.16168509177794, -133.67439936665653) translate(6.169587663076413, -361.9491429004854) translate(310.77705062323014, -338.63982067910604) translate(420.777215285067, -18.953928616444273) translate(-1000.7674309482675, 481.42978685768924) translate(1083,403) translate(-466.70543994140627, -17.177077911376955) translate(-403.3794257295175, 11.120736047680907) translate(-46.0, -1.0) translate(513.0, -23.0) translate(10.0, 10.00006103515625)" fill="none" d="M462.4,455.1c0.1,0.6-0.2,1.4-0.7,1.8c-0.5,0.4-1,0.2-1-0.4   c-0.1-0.6,0.3-1.4,0.7-1.8C461.9,454.3,462.3,454.5,462.4,455.1z" stroke="#000000" stroke-width="0.25" g2gstroke="#312783"/>
<path orgstroke="#000000" orgfill="none" transform="translate(-500.59707300319087, -67.64825310853928) translate(224.16168509177794, -133.67439936665653) translate(6.169587663076413, -361.9491429004854) translate(310.77705062323014, -338.63982067910604) translate(420.777215285067, -18.953928616444273) translate(-1000.7674309482675, 481.42978685768924) translate(1083,403) translate(-466.70543994140627, -17.177077911376955) translate(-403.3794257295175, 11.120736047680907) translate(-46.0, -1.0) translate(513.0, -23.0) translate(10.0, 10.00006103515625)" fill="none" d="M461.5,454.6c0,0.6-0.3,1.4-0.8,1.7c0,0-0.1,0.1-0.1,0.1" stroke="#000000" stroke-width="0.25" g2gstroke="#312783"/>
<path orgstroke="#000000" orgfill="none" transform="translate(-500.59707300319087, -67.64825310853928) translate(224.16168509177794, -133.67439936665653) translate(6.169587663076413, -361.9491429004854) translate(310.77705062323014, -338.63982067910604) translate(420.777215285067, -18.953928616444273) translate(-1000.7674309482675, 481.42978685768924) translate(1083,403) translate(-466.70543994140627, -17.177077911376955) translate(-403.3794257295175, 11.120736047680907) translate(-46.0, -1.0) translate(513.0, -23.0) translate(10.0, 10.00006103515625)" fill="none" d="M453.4,532.2l0.6,0.3c0.3,0.2,0.4,0,0.3-0.3c0-0.2-0.2-1.5-0.2-1.5" stroke="#000000" stroke-width="0.25" g2gstroke="#312783"/>
<path stroke-linecap="round" orgstroke="#000000" orgfill="none" transform="translate(-500.59707300319087, -67.64825310853928) translate(224.16168509177794, -133.67439936665653) translate(6.169587663076413, -361.9491429004854) translate(310.77705062323014, -338.63982067910604) translate(420.777215285067, -18.953928616444273) translate(-1000.7674309482675, 481.42978685768924) translate(1083,403) translate(-466.70543994140627, -17.177077911376955) translate(-403.3794257295175, 11.120736047680907) translate(-46.0, -1.0) translate(513.0, -23.0) translate(10.0, 10.00006103515625)" fill="none" stroke-linejoin="round" d="   M460.4,560c0,0,0.4,0.2,0.6,0.4c0.2,0.1,0.5,0.1,0.7-0.1C478.8,550,587.2,484.9,649,447.7" stroke="#000000" stroke-width="0.25" g2gstroke="#312783" stroke-miterlimit="10"/>
<path stroke-linecap="round" orgstroke="#000000" orgfill="none" transform="translate(-500.59707300319087, -67.64825310853928) translate(224.16168509177794, -133.67439936665653) translate(6.169587663076413, -361.9491429004854) translate(310.77705062323014, -338.63982067910604) translate(420.777215285067, -18.953928616444273) translate(-1000.7674309482675, 481.42978685768924) translate(1083,403) translate(-466.70543994140627, -17.177077911376955) translate(-403.3794257295175, 11.120736047680907) translate(-46.0, -1.0) translate(513.0, -23.0) translate(10.0, 10.00006103515625)" fill="none" stroke-linejoin="round" d="   M648.1,446.9c-61,36.7-166.7,100.3-182.2,109.6" stroke="#000000" stroke-width="0.25" g2gstroke="#312783" stroke-miterlimit="10"/>
<path orgstroke="#000000" orgfill="none" transform="translate(-500.59707300319087, -67.64825310853928) translate(224.16168509177794, -133.67439936665653) translate(6.169587663076413, -361.9491429004854) translate(310.77705062323014, -338.63982067910604) translate(420.777215285067, -18.953928616444273) translate(-1000.7674309482675, 481.42978685768924) translate(1083,403) translate(-466.70543994140627, -17.177077911376955) translate(-403.3794257295175, 11.120736047680907) translate(-46.0, -1.0) translate(513.0, -23.0) translate(10.0, 10.00006103515625)" fill="none" d="M624.7,447.1c1.9,5.2,5.4,9,13.3,4.4c1.1-0.7,5.2-3.1,10-6" stroke="#000000" stroke-width="0.25" g2gstroke="#312783"/>
<path orgstroke="#000000" orgfill="none" transform="translate(-500.59707300319087, -67.64825310853928) translate(224.16168509177794, -133.67439936665653) translate(6.169587663076413, -361.9491429004854) translate(310.77705062323014, -338.63982067910604) translate(420.777215285067, -18.953928616444273) translate(-1000.7674309482675, 481.42978685768924) translate(1083,403) translate(-466.70543994140627, -17.177077911376955) translate(-403.3794257295175, 11.120736047680907) translate(-46.0, -1.0) translate(513.0, -23.0) translate(10.0, 10.00006103515625)" fill="none" d="M626.3,450.4c1.7,0,3.8-0.6,6.3-2c1.2-0.7,5.4-3.2,10.3-6.2" stroke="#000000" stroke-width="0.25" g2gstroke="#312783"/>
<path orgstroke="#000000" orgfill="none" transform="translate(-500.59707300319087, -67.64825310853928) translate(224.16168509177794, -133.67439936665653) translate(6.169587663076413, -361.9491429004854) translate(310.77705062323014, -338.63982067910604) translate(420.777215285067, -18.953928616444273) translate(-1000.7674309482675, 481.42978685768924) translate(1083,403) translate(-466.70543994140627, -17.177077911376955) translate(-403.3794257295175, 11.120736047680907) translate(-46.0, -1.0) translate(513.0, -23.0) translate(10.0, 10.00006103515625)" fill="none" d="M586.2,291.5c5.2,2.1,8.2,3.7,12.1,18.1c3.9,14.4,9,47.2,9.7,56.8   c0.7,9.6,4,7.8,4.7,16.9c0.8,9.1,1.3,16.7,0.8,21c-0.5,4.3-2.8,12-4.6,17.9c-1.8,5.7-5.2,15-6.3,25c-1.1,10.1-3.5,27.6-17.8,36.2   c-41,24.6-84.6,50.8-108.4,65.1c-2.6,1.5-4.3,0.8-4.6-1.7c-0.1-1.2-0.6-2.7-0.8-5.5" stroke="#000000" stroke-width="0.25" g2gstroke="#312783"/>
<path orgstroke="#000000" orgfill="none" transform="translate(-500.59707300319087, -67.64825310853928) translate(224.16168509177794, -133.67439936665653) translate(6.169587663076413, -361.9491429004854) translate(310.77705062323014, -338.63982067910604) translate(420.777215285067, -18.953928616444273) translate(-1000.7674309482675, 481.42978685768924) translate(1083,403) translate(-466.70543994140627, -17.177077911376955) translate(-403.3794257295175, 11.120736047680907) translate(-46.0, -1.0) translate(513.0, -23.0) translate(10.0, 10.00006103515625)" fill="none" d="M582.2,294.2c6.1,0.5,8.8,6,10.5,12.4c3.9,14.4,9,47.2,9.7,56.8   c0.7,9.6,3.9,10.4,4.6,19.5c0.8,9.1,0.5,13.9,0,18.2c-0.5,4.3-1.9,12.1-3.7,18c-1.8,5.7-5.1,15-6.3,25c-1.1,10.1-2.4,27-16.7,35.5   c0,0-87.9,52.9-108.7,65.4" stroke="#000000" stroke-width="0.25" g2gstroke="#312783"/>
<path orgstroke="#000000" orgfill="none" transform="translate(-500.59707300319087, -67.64825310853928) translate(224.16168509177794, -133.67439936665653) translate(6.169587663076413, -361.9491429004854) translate(310.77705062323014, -338.63982067910604) translate(420.777215285067, -18.953928616444273) translate(-1000.7674309482675, 481.42978685768924) translate(1083,403) translate(-466.70543994140627, -17.177077911376955) translate(-403.3794257295175, 11.120736047680907) translate(-46.0, -1.0) translate(513.0, -23.0) translate(10.0, 10.00006103515625)" fill="none" d="M584.4,296.2c0.2,0.1,0.3,0.1,0.5,0.2c2.7,1.5,5.2,5.4,6.3,9.1   c3.9,14.4,9,47.2,9.7,56.8c0.7,9.6,3.9,10.4,4.6,19.5c0.8,9.1,0.5,13.9,0,18.2c-0.5,4.3-1.9,12.1-3.7,18c-1.8,5.7-5.1,15-6.3,25   c-1.1,10.1-2.4,27-16.7,35.5c0,0-83.7,50.3-107.5,64.6" stroke="#000000" stroke-width="0.25" g2gstroke="#312783"/>
<path orgstroke="#000000" orgfill="none" transform="translate(-500.59707300319087, -67.64825310853928) translate(224.16168509177794, -133.67439936665653) translate(6.169587663076413, -361.9491429004854) translate(310.77705062323014, -338.63982067910604) translate(420.777215285067, -18.953928616444273) translate(-1000.7674309482675, 481.42978685768924) translate(1083,403) translate(-466.70543994140627, -17.177077911376955) translate(-403.3794257295175, 11.120736047680907) translate(-46.0, -1.0) translate(513.0, -23.0) translate(10.0, 10.00006103515625)" fill="none" d="M624.2,369.5c-0.9-2.6-2.1-5.1-2.5-7.7c-0.5-3.1-1.1-6.3-1.7-9.9   c-2.5-15.2-15.7-53.8-16.9-57c-1.2-3.2-1.4-5.1,0-9.6c1.4-4.5,4.2-7.5,8.5-10.2" stroke="#000000" stroke-width="0.25" g2gstroke="#312783"/>
<path orgstroke="#000000" orgfill="none" transform="translate(-500.59707300319087, -67.64825310853928) translate(224.16168509177794, -133.67439936665653) translate(6.169587663076413, -361.9491429004854) translate(310.77705062323014, -338.63982067910604) translate(420.777215285067, -18.953928616444273) translate(-1000.7674309482675, 481.42978685768924) translate(1083,403) translate(-466.70543994140627, -17.177077911376955) translate(-403.3794257295175, 11.120736047680907) translate(-46.0, -1.0) translate(513.0, -23.0) translate(10.0, 10.00006103515625)" fill="none" d="M613.2999877929688 405.5L626.2999877929688 398" stroke="#000000" stroke-width="0.25" g2gstroke="#312783"/>
<path orgstroke="#000000" orgfill="none" transform="translate(-500.59707300319087, -67.64825310853928) translate(224.16168509177794, -133.67439936665653) translate(6.169587663076413, -361.9491429004854) translate(310.77705062323014, -338.63982067910604) translate(420.777215285067, -18.953928616444273) translate(-1000.7674309482675, 481.42978685768924) translate(1083,403) translate(-466.70543994140627, -17.177077911376955) translate(-403.3794257295175, 11.120736047680907) translate(-46.0, -1.0) translate(513.0, -23.0) translate(10.0, 10.00006103515625)" fill="none" d="M611.5 377.79998779296875L624.5 370.20001220703125" stroke="#000000" stroke-width="0.25" g2gstroke="#312783"/>
<path orgstroke="#000000" orgfill="none" transform="translate(-500.59707300319087, -67.64825310853928) translate(224.16168509177794, -133.67439936665653) translate(6.169587663076413, -361.9491429004854) translate(310.77705062323014, -338.63982067910604) translate(420.777215285067, -18.953928616444273) translate(-1000.7674309482675, 481.42978685768924) translate(1083,403) translate(-466.70543994140627, -17.177077911376955) translate(-403.3794257295175, 11.120736047680907) translate(-46.0, -1.0) translate(513.0, -23.0) translate(10.0, 10.00006103515625)" fill="none" d="M609.0999755859375 371.79998779296875L622.0999755859375 364.29998779296875" stroke="#000000" stroke-width="0.25" g2gstroke="#312783"/>
<path orgstroke="#000000" orgfill="none" transform="translate(-500.59707300319087, -67.64825310853928) translate(224.16168509177794, -133.67439936665653) translate(6.169587663076413, -361.9491429004854) translate(310.77705062323014, -338.63982067910604) translate(420.777215285067, -18.953928616444273) translate(-1000.7674309482675, 481.42978685768924) translate(1083,403) translate(-466.70543994140627, -17.177077911376955) translate(-403.3794257295175, 11.120736047680907) translate(-46.0, -1.0) translate(513.0, -23.0) translate(10.0, 10.00006103515625)" fill="none" d="M605 343.70001220703125L616.4000244140625 337" stroke="#000000" stroke-width="0.25" g2gstroke="#312783"/>
<path orgstroke="#000000" orgfill="none" transform="translate(-500.59707300319087, -67.64825310853928) translate(224.16168509177794, -133.67439936665653) translate(6.169587663076413, -361.9491429004854) translate(310.77705062323014, -338.63982067910604) translate(420.777215285067, -18.953928616444273) translate(-1000.7674309482675, 481.42978685768924) translate(1083,403) translate(-466.70543994140627, -17.177077911376955) translate(-403.3794257295175, 11.120736047680907) translate(-46.0, -1.0) translate(513.0, -23.0) translate(10.0, 10.00006103515625)" fill="none" d="M616.3,380.1c0.5-0.4,0.9-1.2,0.8-1.9c-0.1-0.6-0.6-0.8-1.1-0.4   c-0.5,0.4-0.8,1.2-0.8,1.9C615.3,380.3,615.8,380.5,616.3,380.1z" stroke="#000000" stroke-width="0.25" g2gstroke="#312783"/>
<path orgstroke="#000000" orgfill="none" transform="translate(-500.59707300319087, -67.64825310853928) translate(224.16168509177794, -133.67439936665653) translate(6.169587663076413, -361.9491429004854) translate(310.77705062323014, -338.63982067910604) translate(420.777215285067, -18.953928616444273) translate(-1000.7674309482675, 481.42978685768924) translate(1083,403) translate(-466.70543994140627, -17.177077911376955) translate(-403.3794257295175, 11.120736047680907) translate(-46.0, -1.0) translate(513.0, -23.0) translate(10.0, 10.00006103515625)" fill="none" d="M621.6,381.4c0.5-0.4,0.9-1.2,0.8-1.9c-0.1-0.6-0.6-0.8-1.1-0.4   c-0.5,0.4-0.8,1.2-0.8,1.9C620.6,381.6,621,381.8,621.6,381.4z" stroke="#000000" stroke-width="0.25" g2gstroke="#312783"/>
<path orgstroke="#000000" orgfill="none" transform="translate(-500.59707300319087, -67.64825310853928) translate(224.16168509177794, -133.67439936665653) translate(6.169587663076413, -361.9491429004854) translate(310.77705062323014, -338.63982067910604) translate(420.777215285067, -18.953928616444273) translate(-1000.7674309482675, 481.42978685768924) translate(1083,403) translate(-466.70543994140627, -17.177077911376955) translate(-403.3794257295175, 11.120736047680907) translate(-46.0, -1.0) translate(513.0, -23.0) translate(10.0, 10.00006103515625)" fill="none" d="M615.3,429.6c0.5-0.4,0.9-1.2,0.8-1.9c-0.1-0.6-0.6-0.8-1.1-0.4   c-0.5,0.4-0.8,1.2-0.8,1.9C614.3,429.8,614.8,430,615.3,429.6z" stroke="#000000" stroke-width="0.25" g2gstroke="#312783"/>
<path orgstroke="#000000" orgfill="none" transform="translate(-500.59707300319087, -67.64825310853928) translate(224.16168509177794, -133.67439936665653) translate(6.169587663076413, -361.9491429004854) translate(310.77705062323014, -338.63982067910604) translate(420.777215285067, -18.953928616444273) translate(-1000.7674309482675, 481.42978685768924) translate(1083,403) translate(-466.70543994140627, -17.177077911376955) translate(-403.3794257295175, 11.120736047680907) translate(-46.0, -1.0) translate(513.0, -23.0) translate(10.0, 10.00006103515625)" fill="none" d="M619.7,422.7c0.5-0.4,0.9-1.2,0.8-1.9c-0.1-0.6-0.6-0.8-1.1-0.4   c-0.5,0.4-0.8,1.2-0.8,1.9C618.7,422.9,619.2,423.1,619.7,422.7z" stroke="#000000" stroke-width="0.25" g2gstroke="#312783"/>
<path orgstroke="#000000" orgfill="none" transform="translate(-500.59707300319087, -67.64825310853928) translate(224.16168509177794, -133.67439936665653) translate(6.169587663076413, -361.9491429004854) translate(310.77705062323014, -338.63982067910604) translate(420.777215285067, -18.953928616444273) translate(-1000.7674309482675, 481.42978685768924) translate(1083,403) translate(-466.70543994140627, -17.177077911376955) translate(-403.3794257295175, 11.120736047680907) translate(-46.0, -1.0) translate(513.0, -23.0) translate(10.0, 10.00006103515625)" fill="none" d="M620.9,384.7c0.3,3.5,0.4,7.3,0.5,12.1l0,0.5c0,1.2-0.7,2.4-1.6,2.9   c-0.9,0.6-2.6,0.3-2.6-1l0-0.4c-0.1-4.7-0.3-8.5-0.5-12l0-0.5c-0.1-1.2,0.5-2.4,1.6-3.1c1.2-0.7,2.4-0.4,2.5,1L620.9,384.7z" stroke="#000000" stroke-width="0.25" g2gstroke="#312783"/>
<path orgstroke="#000000" orgfill="none" transform="translate(-500.59707300319087, -67.64825310853928) translate(224.16168509177794, -133.67439936665653) translate(6.169587663076413, -361.9491429004854) translate(310.77705062323014, -338.63982067910604) translate(420.777215285067, -18.953928616444273) translate(-1000.7674309482675, 481.42978685768924) translate(1083,403) translate(-466.70543994140627, -17.177077911376955) translate(-403.3794257295175, 11.120736047680907) translate(-46.0, -1.0) translate(513.0, -23.0) translate(10.0, 10.00006103515625)" fill="none" d="M619.2,382.9c0.1,0.2,0.1,0.4,0.1,0.6l0,0.5c0.3,3.5,0.4,7.3,0.5,12.1   l0,0.5c0,1.2-0.7,2.4-1.6,2.9c-0.3,0.2-0.6,0.3-0.9,0.3" stroke="#000000" stroke-width="0.25" g2gstroke="#312783"/>
<path orgstroke="#000000" orgfill="none" transform="translate(-500.59707300319087, -67.64825310853928) translate(224.16168509177794, -133.67439936665653) translate(6.169587663076413, -361.9491429004854) translate(310.77705062323014, -338.63982067910604) translate(420.777215285067, -18.953928616444273) translate(-1000.7674309482675, 481.42978685768924) translate(1083,403) translate(-466.70543994140627, -17.177077911376955) translate(-403.3794257295175, 11.120736047680907) translate(-46.0, -1.0) translate(513.0, -23.0) translate(10.0, 10.00006103515625)" fill="none" d="M613.5,403.9c0,0-4.5-4.5-4.7-10.4c-0.2-5.9,2.6-4.9,4.3-4.3" stroke="#000000" stroke-width="0.25" g2gstroke="#312783"/>
<path orgstroke="#000000" orgfill="none" transform="translate(-500.59707300319087, -67.64825310853928) translate(224.16168509177794, -133.67439936665653) translate(6.169587663076413, -361.9491429004854) translate(310.77705062323014, -338.63982067910604) translate(420.777215285067, -18.953928616444273) translate(-1000.7674309482675, 481.42978685768924) translate(1083,403) translate(-466.70543994140627, -17.177077911376955) translate(-403.3794257295175, 11.120736047680907) translate(-46.0, -1.0) translate(513.0, -23.0) translate(10.0, 10.00006103515625)" fill="none" d="M611.1,393c-0.4-0.3-0.7-1.1-0.7-1.6s0.5-0.7,0.9-0.4   c0.4,0.3,0.7,1,0.7,1.6C611.9,393.1,611.5,393.3,611.1,393z" stroke="#000000" stroke-width="0.25" g2gstroke="#312783"/>
<path orgstroke="#000000" orgfill="none" transform="translate(-500.59707300319087, -67.64825310853928) translate(224.16168509177794, -133.67439936665653) translate(6.169587663076413, -361.9491429004854) translate(310.77705062323014, -338.63982067910604) translate(420.777215285067, -18.953928616444273) translate(-1000.7674309482675, 481.42978685768924) translate(1083,403) translate(-466.70543994140627, -17.177077911376955) translate(-403.3794257295175, 11.120736047680907) translate(-46.0, -1.0) translate(513.0, -23.0) translate(10.0, 10.00006103515625)" fill="none" d="M610.8,397.8c-0.4-0.3-0.7-1.1-0.7-1.6c0.1-0.5,0.5-0.7,0.9-0.4   c0.4,0.3,0.7,1,0.7,1.6C611.6,398,611.2,398.2,610.8,397.8z" stroke="#000000" stroke-width="0.25" g2gstroke="#312783"/>
<path orgstroke="#000000" orgfill="none" transform="translate(-500.59707300319087, -67.64825310853928) translate(224.16168509177794, -133.67439936665653) translate(6.169587663076413, -361.9491429004854) translate(310.77705062323014, -338.63982067910604) translate(420.777215285067, -18.953928616444273) translate(-1000.7674309482675, 481.42978685768924) translate(1083,403) translate(-466.70543994140627, -17.177077911376955) translate(-403.3794257295175, 11.120736047680907) translate(-46.0, -1.0) translate(513.0, -23.0) translate(10.0, 10.00006103515625)" fill="none" d="M605.8,453.5c-1,0.5-1.4,1.9-1.6,3.5c-0.2,1.6-1.3,8.8-3.4,12.8   c-2.1,4-1.3,4.5,2.6,2.1c4-2.4,20.8-12.1,22.5-13.1c1.7-1,2.1-2.9,0.5-4.5c-1.6-1.6-4.1-5.3-4.6-6.9c-0.5-1.6-2-1.5-3.5-0.7   C617,447.3,606.7,453,605.8,453.5z" stroke="#000000" stroke-width="0.25" g2gstroke="#312783"/>
<path orgstroke="#000000" orgfill="none" transform="translate(-500.59707300319087, -67.64825310853928) translate(224.16168509177794, -133.67439936665653) translate(6.169587663076413, -361.9491429004854) translate(310.77705062323014, -338.63982067910604) translate(420.777215285067, -18.953928616444273) translate(-1000.7674309482675, 481.42978685768924) translate(1083,403) translate(-466.70543994140627, -17.177077911376955) translate(-403.3794257295175, 11.120736047680907) translate(-46.0, -1.0) translate(513.0, -23.0) translate(10.0, 10.00006103515625)" fill="none" d="M616.1,403.9c0.3,5.4-3.7,19.6-4.6,23.6c-1,4-3.6,9.7-3.7,12.3   c0,2.7,2,4.1,5,2.7c2.9-1.4,10.3-5.6,10.3-5.6" stroke="#000000" stroke-width="0.25" g2gstroke="#312783"/>
<path orgstroke="#000000" orgfill="none" transform="translate(-500.59707300319087, -67.64825310853928) translate(224.16168509177794, -133.67439936665653) translate(6.169587663076413, -361.9491429004854) translate(310.77705062323014, -338.63982067910604) translate(420.777215285067, -18.953928616444273) translate(-1000.7674309482675, 481.42978685768924) translate(1083,403) translate(-466.70543994140627, -17.177077911376955) translate(-403.3794257295175, 11.120736047680907) translate(-46.0, -1.0) translate(513.0, -23.0) translate(10.0, 10.00006103515625)" fill="none" d="M610.5,430.8c-0.8,2.9-1.7,5.6-1.7,7.1c0,2.7,1.9,2.8,4.8,1.3   c2.1-1.1,9.2-4.7,9.2-4.7" stroke="#000000" stroke-width="0.25" g2gstroke="#312783"/>
<path orgstroke="#000000" orgfill="none" transform="translate(-500.59707300319087, -67.64825310853928) translate(224.16168509177794, -133.67439936665653) translate(6.169587663076413, -361.9491429004854) translate(310.77705062323014, -338.63982067910604) translate(420.777215285067, -18.953928616444273) translate(-1000.7674309482675, 481.42978685768924) translate(1083,403) translate(-466.70543994140627, -17.177077911376955) translate(-403.3794257295175, 11.120736047680907) translate(-46.0, -1.0) translate(513.0, -23.0) translate(10.0, 10.00006103515625)" fill="none" d="M642.7,439.9c-0.9,0.5-1.8,1.1-2.7,1.6l-8.5,5.1c-2,1.2-3.8,1.7-5.2,1.8   c-0.8,0.1-1.4-0.6-1.6-1.1" stroke="#000000" stroke-width="0.25" g2gstroke="#312783"/>
<path stroke-linecap="round" orgstroke="#000000" orgfill="none" transform="translate(-500.59707300319087, -67.64825310853928) translate(224.16168509177794, -133.67439936665653) translate(6.169587663076413, -361.9491429004854) translate(310.77705062323014, -338.63982067910604) translate(420.777215285067, -18.953928616444273) translate(-1000.7674309482675, 481.42978685768924) translate(1083,403) translate(-466.70543994140627, -17.177077911376955) translate(-403.3794257295175, 11.120736047680907) translate(-46.0, -1.0) translate(513.0, -23.0) translate(10.0, 10.00006103515625)" fill="none" stroke-linejoin="round" d="   M648.4,447.3c-0.3-0.2-0.5-0.6-0.5-0.8s0-0.3,0-0.7s-0.2-0.7-0.6-0.9s-3.9-2.2-4.4-2.5c-0.2-0.1-0.2-0.5-0.2-0.8s0-0.5,0-1   s-0.4-0.6-0.8-0.9l-0.2-0.1c-0.2-0.1-0.5-0.1-0.7,0c-0.8,0.4-10.7,6.4-10.7,6.4c-1.8,1.1-3.4,1.7-4.8,1.7c-0.6,0-0.8-0.2-1-0.8   c-0.1-0.2-0.3-0.7-0.3-0.9c-0.4-1.3-0.7-2.6-1-4c-0.4-2-0.4-2.9-0.3-4.2c0.2-1.2-0.5-2.6-0.2-5.2c0.3-2.6,3.6-32.4,3.6-34.1   c-0.1-11.5-0.4-18.4-1.2-25.1c-0.1-1.3-0.5-2.5-0.9-3.7L624,369c-0.4-4.4-1.8-13.3-4.8-26.8c-3.1-13.5-14.6-46.3-15.2-48.2   c-0.6-1.9-0.5-4.5,0.3-7.2c0.9-2.8,2.5-7.4,8.8-11.4c2.2-1.4,4.7-2.9,7.5-4.6l0.4-0.2c0.5-0.3,0-1,0.2-1.1s1-0.4,1-1.2   c0-0.5-1.1-4.2-2-5.6c-0.8-1.2-2.6-3.2-4-4.1c-0.3-0.2-0.7-0.3-1.2,0.1c-6.9,4.3-13.6,8.6-19.8,12.7   c-39.3,25.9-69.3,53.4-76.9,61.7c-7.6,8.3-12.4,15.2-17.1,21.6s-28.7,44.9-34.3,54.7c-4.7,8.2-14.8,25.8-19.7,33.9   c-0.1,0.2-0.2,0.3-0.2,0.6v0.6c0,0.4-0.1,0.5-0.2,0.7c-1.1,1.9-7.2,11.4-7.7,11.9c0,0.1-0.1,0.2-0.1,0.5s0,0.9,0,1s0.2,0.5,0.5,0.7   c1.3,0.7,3.5,2,3.9,2.4c0.8,0.6,1.1,1.4,1.3,2.2c0.1,0.5,1.4,21.9,5.2,43.5c1.7,9.4,3.1,17.6,4.1,23.7c0,0.3,0.1,0.3-0.3,0.5   l-0.3,0.1c-0.2,0.1-0.2,0.4-0.2,0.7c0.9,5.2,1.4,8.3,1.4,8.6c0,0.3,0.1,0.6,0.2,0.7c0.1,0.2,0.3,0.4,0.5,0.5l2,1.2l0.1,0   c0.3,0.1,0.7-0.1,1.3-0.4c1.1-0.5,2.7-1.3,2.7-1.3c0.3-0.1,0.6,0.4,0.9,1.5c0.5,2.2,3.3,12.8,3.3,12.8c0.1,0.3,0,0.4-0.3,0.5   c-2.1,1.2-3.7,2.2-5,3c-0.3,0.2-0.4,0.3-0.4,0.6c-0.1,0.5-0.1,1-0.2,1.5c-0.2,1.3-0.5,2.7-0.7,4.1c-0.1,0.3,0.1,0.4,0.2,0.5   l0.4,0.2c0.2,0.1,0.4,0.1,0.6,0l21.2-12.5l165.2-97.3c0.3-0.2,0.5-0.3,0.6-0.7c0.4-1.6,1.5-7.5,1.6-7.9   C649.1,447.6,648.7,447.5,648.4,447.3z M604.4,399.4c-0.5,4.3-1.9,12.1-3.7,18c-1.8,5.7-5.2,15-6.3,25c-1.1,10.1-2.4,27-16.7,35.5   c0,0-82.1,49.4-106.2,63.8c-0.3,0.2-0.4,0.2-0.5-0.4c-0.1-1.2-0.1-2.7,0-4.6c0.2-3.8-2.5-54.9-2.8-58.2s-1.3-6.1-2.2-8.7   s-1.8-7.1-1.8-9.3c0-2,0-8.1,0-13.3c0-0.3,0.1-0.4,0.2-0.6l0.4-0.4c0.2-0.2,0.2-0.3,0.2-0.6c0.1-0.9,0.5-2.5,1.4-6.3   c0.6-2.6,3.3-9.2,6.9-17.1l0.2-0.3c5.4-11.8,32.7-58.2,43.8-72.2c11.1-14,17.8-19.7,34.9-32.8c7.6-5.8,25.6-18.6,28.5-20.7   c0.9-0.7,2.3-0.7,3.6-0.2c0,0,0.1,0,0.1,0.1c2.6,1.5,4.6,5.2,5.5,8.7c3.9,14.4,9,47.2,9.7,56.8c0.7,9.6,3.9,10.4,4.6,19.5   C605.1,390.3,604.8,395.1,604.4,399.4z" stroke="#000000" stroke-width="0.25" g2gstroke="#312783" stroke-miterlimit="10"/>
</g>
</g>
</g>
</g>
</g>
</g></svg>