<svg xmlns="http://www.w3.org/2000/svg" xmlns:xlink="http://www.w3.org/1999/xlink" xmlns:x="http://ns.adobe.com/Extensibility/1.0/" xmlns:graph="http://ns.adobe.com/Graphs/1.0/" xmlns:i="http://ns.adobe.com/AdobeIllustrator/10.0/" xmlns:etg="http://www.eurotaxglass.com/etg/evd/" etg:dataTimestamp="1539068912893" contentScriptType="text/ecmascript" zoomAndPan="magnify" contentStyleType="text/css" id="Layer_1" enable-background="new 0 0 1841.891 1595.279" version="1.1" xml:space="preserve" width="1841.891px" preserveAspectRatio="xMidYMid meet" viewBox="0 0 1841.891 1595.279" height="1595.279px" x="0px" y="0px"><g xmlns="http://www.w3.org/2000/svg" objecttype="PS" tooltip="#UNDEFINED" id="48">
<g onmouseover="notifyOwner(AGV_OBJECT_MOUSEOVER, '48(PS)')" transform="translate(-9.433746356535266E-6, 3.356933575560106E-7) translate(-35.71980609130861, -13.200809143066408) translate(44.708733184814434, 94.79042849731445) matrix(0.6117410612267968 0 0 0.6117410612267968 0.2921243287958965 0.477310974878083) translate(-92,-34) " onclick="clickZoom(evt); notifyOwner(AGV_OBJECT_MOUSECLICK, '48(PS)')" onmouseout="notifyOwner(AGV_OBJECT_MOUSEOUT, '48(PS)')" tooltip="#UNDEFINED" id="48-Graphic" objecttype="GRAPHIC">
<g zvalue="47">
<g zvalue="2">
<g zvalue="2">
<g>
<path orgstroke="#000000" orgfill="#ffffff" transform="translate(-500.59707300319087, -67.64825310853928) translate(-46.363569312196205, -599.1599726499189) translate(-250.89656496510906, -170.69192534511535) translate(304.3471806103357, 272.19783054586367) translate(646,569) translate(-433.109431640625, 16.160353161811827) translate(132.0312401237611, 11.61874913089099) translate(-121.58349609375, -18.951508045196533) translate(28.0, -52.0) translate(452.0, 15.0) translate(10.0, 10.00006103515625)" fill="#ffffff" g2gfill="#464646" d="M275.522,205.939   c3.42,3.082,28.369,23.362,68.287,46.476c39.412,22.815,71.77,36.597,77.37,38.593c0.751,0.266,1.079,0.001,1.446-0.41   c4.625-5.154,9.545-10.046,14.746-14.632c97.352-80.082,225.012-146.272,238.924-151.926c1.551-0.63,2.096-1.243,2.096-1.992   v-1.173c0-0.474-0.123-0.757-0.273-0.924c-0.262-0.293-0.627-0.621-0.852-0.879c-0.434-0.492-0.305-0.545-0.305-0.842   s0-0.568,0-0.773c0-0.445-0.029-0.75-0.615-1.282c0,0-21.791-20.367-59.982-40.613c-33.146-17.571-48.328-21.899-52.416-23.449   c-2.498-0.798-6.59-2.409-12.945-0.401c-4.666,1.473-50.578,18.525-106.83,45.128c-65.078,30.776-124.623,70.206-165.553,103.323   c-0.515,0.414-0.108,0.699-0.515,1.077c-0.747,0.695-1.699,1.382-2.538,2.026c-0.345,0.266-0.466,0.553-0.466,0.876v0.899   C275.101,205.363,275.174,205.628,275.522,205.939z" stroke="#000000" outline-element="true" stroke-width="0.5" g2gstroke="#312783" stroke-miterlimit="10"/>
<linearGradient transform="translate(-500.59707300319087, -67.64825310853928) translate(-46.363569312196205, -599.1599726499189) translate(-250.89656496510906, -170.69192534511535) translate(304.3471806103357, 272.19783054586367) translate(646,569) translate(-433.109431640625, 16.160353161811827) translate(132.0312401237611, 11.61874913089099) translate(-121.58349609375, -18.951508045196533) translate(28.0, -52.0) translate(452.0, 15.0) translate(10.0, 10.00006103515625)" gradientTransform="matrix(1 0 0 -1 174.375 719.4551)" x1="357.2402" x2="230.0955" y1="480.6758" gradientUnits="userSpaceOnUse" y2="669.3218" xmlns:xlink="http://www.w3.org/1999/xlink" xlink:type="simple" xlink:actuate="onLoad" id="47::SVGID_1_" xlink:show="other">
<stop stop-opacity="0.89" stop-color="#FFFFFF" offset="0"/>
<stop stop-opacity="0.39" stop-color="#FFFFFF" offset="0.52"/>
<stop stop-opacity="0.31" stop-color="#FFFFFF" offset="0.8711"/>
</linearGradient>
<path fill="url(#47::SVGID_1_)" d="M616.4,75.581c38.195,20.238,59.984,40.606,59.984,40.606c0.145,0.128,0.256,0.238,0.336,0.353   c0,0,0.016,0.016,0.047,0.063c0.064,0.096,0.111,0.174,0.145,0.254c0.08,0.21,0.08,0.385,0.08,0.609c0,0.031,0,0.046,0,0.08   c-0.113,0.397-0.496,0.861-1.551,1.262c-13.754,6.021-141.58,71.838-238.93,151.932c-4.695,4.139-9.152,8.514-13.369,13.115   c-0.193,0.191-0.352,0.352-0.574,0.398c-0.225,0.064-0.496,0.033-0.927-0.11c-5.319-1.933-37.126-15.398-75.895-37.778   c-41.486-23.947-66.391-44.875-67.364-45.769c0.017-0.128,0.079-0.272,0.272-0.415c40.925-33.115,100.479-72.557,165.556-103.324   c56.248-26.612,102.158-43.656,106.822-45.127c6.357-2.013,10.447-0.398,12.955,0.399C568.078,53.678,583.254,58.007,616.4,75.581z   " transform="translate(-500.59707300319087, -67.64825310853928) translate(-46.363569312196205, -599.1599726499189) translate(-250.89656496510906, -170.69192534511535) translate(304.3471806103357, 272.19783054586367) translate(646,569) translate(-433.109431640625, 16.160353161811827) translate(132.0312401237611, 11.61874913089099) translate(-121.58349609375, -18.951508045196533) translate(28.0, -52.0) translate(452.0, 15.0) translate(10.0, 10.00006103515625)" orgfill="url(#47::SVGID_1_)"/>
<linearGradient transform="translate(-500.59707300319087, -67.64825310853928) translate(-46.363569312196205, -599.1599726499189) translate(-250.89656496510906, -170.69192534511535) translate(304.3471806103357, 272.19783054586367) translate(646,569) translate(-433.109431640625, 16.160353161811827) translate(132.0312401237611, 11.61874913089099) translate(-121.58349609375, -18.951508045196533) translate(28.0, -52.0) translate(452.0, 15.0) translate(10.0, 10.00006103515625)" gradientTransform="matrix(1 0 0 -1 174.375 719.4551)" x1="100.8462" x2="504.0391" y1="515.5439" gradientUnits="userSpaceOnUse" y2="515.5439" xmlns:xlink="http://www.w3.org/1999/xlink" xlink:type="simple" xlink:actuate="onLoad" id="47::SVGID_2_" xlink:show="other">
<stop stop-opacity="0.2" stop-color="#FFFFFF" offset="0"/>
<stop stop-opacity="0.2" stop-color="#FFFFFF" offset="1"/>
</linearGradient>
<path fill="url(#47::SVGID_2_)" d="M278.655,202.689c2.908,2.605,27.477,22.636,67.094,45.513   c38.769,22.38,70.573,35.845,75.893,37.763c0.433,0.159,0.72,0.191,0.945,0.129c0.223-0.051,0.365-0.209,0.559-0.399   c4.215-4.603,8.674-8.996,13.369-13.132c97.348-80.08,225.016-146.278,238.93-151.92c1.07-0.431,1.551-0.876,1.551-1.294   c0-0.127,0-0.464,0-0.733c0.014,0.111,0.094,0.238,0.303,0.479c0.24,0.254,0.59,0.574,0.861,0.876   c0.113,0.113,0.209,0.306,0.256,0.576h-0.016c0,0.416-0.43,0.927-2.061,1.582c-13.914,5.656-141.58,71.852-238.928,151.93   c-5.209,4.587-10.129,9.477-14.746,14.634c-0.271,0.304-0.512,0.511-0.894,0.511c-0.16,0.017-0.352-0.016-0.559-0.096   c-5.592-1.998-37.957-15.78-77.365-38.595c-41.741-24.185-67.027-45.319-68.625-46.79c0.08-0.145,0.192-0.303,0.382-0.447   c0.832-0.639,1.791-1.325,2.54-2.031c0.209-0.189,0.209-0.348,0.209-0.508v1.198C278.351,202.256,278.446,202.499,278.655,202.689z   " transform="translate(-500.59707300319087, -67.64825310853928) translate(-46.363569312196205, -599.1599726499189) translate(-250.89656496510906, -170.69192534511535) translate(304.3471806103357, 272.19783054586367) translate(646,569) translate(-433.109431640625, 16.160353161811827) translate(132.0312401237611, 11.61874913089099) translate(-121.58349609375, -18.951508045196533) translate(28.0, -52.0) translate(452.0, 15.0) translate(10.0, 10.00006103515625)" orgfill="url(#47::SVGID_2_)"/>
<path orgstroke="#000000" orgfill="none" transform="translate(-500.59707300319087, -67.64825310853928) translate(-46.363569312196205, -599.1599726499189) translate(-250.89656496510906, -170.69192534511535) translate(304.3471806103357, 272.19783054586367) translate(646,569) translate(-433.109431640625, 16.160353161811827) translate(132.0312401237611, 11.61874913089099) translate(-121.58349609375, -18.951508045196533) translate(28.0, -52.0) translate(452.0, 15.0) translate(10.0, 10.00006103515625)" fill="none" d="M278.321,200.555c0,0,25.025,21.334,67.39,45.793   c38.769,22.384,70.578,35.843,75.895,37.772c0.875,0.314,1.139,0.105,1.5-0.283c4.223-4.604,8.686-8.983,13.375-13.119   c97.35-80.085,225.17-145.904,238.922-151.927c2.506-0.941,1.283-2.271,1.283-2.271" stroke="#000000" stroke-width="0.25" g2gstroke="#312783"/>
<path orgstroke="#000000" orgfill="none" transform="translate(-500.59707300319087, -67.64825310853928) translate(-46.363569312196205, -599.1599726499189) translate(-250.89656496510906, -170.69192534511535) translate(304.3471806103357, 272.19783054586367) translate(646,569) translate(-433.109431640625, 16.160353161811827) translate(132.0312401237611, 11.61874913089099) translate(-121.58349609375, -18.951508045196533) translate(28.0, -52.0) translate(452.0, 15.0) translate(10.0, 10.00006103515625)" fill="none" d="M275.101,203.634c0,0,25.503,21.841,68.708,46.859   c39.412,22.82,71.77,36.601,77.37,38.594c0.751,0.27,1.079,0.004,1.446-0.408c4.625-5.154,9.545-10.046,14.746-14.633   c97.352-80.083,225.012-146.271,238.924-151.924c1.627-0.662,2.063-1.18,2.07-1.596" stroke="#000000" stroke-width="0.25" g2gstroke="#312783"/>
<path orgstroke="#000000" orgfill="none" transform="translate(-500.59707300319087, -67.64825310853928) translate(-46.363569312196205, -599.1599726499189) translate(-250.89656496510906, -170.69192534511535) translate(304.3471806103357, 272.19783054586367) translate(646,569) translate(-433.109431640625, 16.160353161811827) translate(132.0312401237611, 11.61874913089099) translate(-121.58349609375, -18.951508045196533) translate(28.0, -52.0) translate(452.0, 15.0) translate(10.0, 10.00006103515625)" fill="none" d="M278.321,200.555v1.364c0,0.323,0.097,0.563,0.302,0.746   c2.899,2.611,27.474,22.647,67.088,45.518c38.769,22.383,70.578,35.841,75.895,37.771c0.875,0.317,1.139,0.105,1.5-0.283   c4.223-4.602,8.686-8.983,13.375-13.12c97.35-80.083,225.014-146.275,238.922-151.925c1.07-0.435,1.561-0.874,1.561-1.296   c0-0.224,0-1.1,0-1.1" stroke="#000000" stroke-width="0.25" g2gstroke="#312783"/>
<path orgstroke="#000000" orgfill="none" transform="translate(-500.59707300319087, -67.64825310853928) translate(-46.363569312196205, -599.1599726499189) translate(-250.89656496510906, -170.69192534511535) translate(304.3471806103357, 272.19783054586367) translate(646,569) translate(-433.109431640625, 16.160353161811827) translate(132.0312401237611, 11.61874913089099) translate(-121.58349609375, -18.951508045196533) translate(28.0, -52.0) translate(452.0, 15.0) translate(10.0, 10.00006103515625)" fill="none" d="M421.7300109863281 289.19500732421875L421.7300109863281 291.114990234375" stroke="#000000" stroke-width="0.25" g2gstroke="#312783"/>
<path orgstroke="#000000" orgfill="none" transform="translate(-500.59707300319087, -67.64825310853928) translate(-46.363569312196205, -599.1599726499189) translate(-250.89656496510906, -170.69192534511535) translate(304.3471806103357, 272.19783054586367) translate(646,569) translate(-433.109431640625, 16.160353161811827) translate(132.0312401237611, 11.61874913089099) translate(-121.58349609375, -18.951508045196533) translate(28.0, -52.0) translate(452.0, 15.0) translate(10.0, 10.00006103515625)" fill="none" d="M422.531005859375 284.2460021972656L422.531005859375 286.00799560546875" stroke="#000000" stroke-width="0.25" g2gstroke="#312783"/>
<path orgstroke="#000000" orgfill="none" transform="translate(-500.59707300319087, -67.64825310853928) translate(-46.363569312196205, -599.1599726499189) translate(-250.89656496510906, -170.69192534511535) translate(304.3471806103357, 272.19783054586367) translate(646,569) translate(-433.109431640625, 16.160353161811827) translate(132.0312401237611, 11.61874913089099) translate(-121.58349609375, -18.951508045196533) translate(28.0, -52.0) translate(452.0, 15.0) translate(10.0, 10.00006103515625)" fill="none" d="M275.522,205.939   c3.42,3.082,28.369,23.362,68.287,46.476c39.412,22.815,71.77,36.597,77.37,38.593c0.751,0.266,1.079,0.001,1.446-0.41   c4.625-5.154,9.545-10.046,14.746-14.632c97.352-80.082,225.012-146.272,238.924-151.926c1.551-0.63,2.096-1.243,2.096-1.992   v-1.173c0-0.474-0.123-0.757-0.273-0.924c-0.262-0.293-0.627-0.621-0.852-0.879c-0.434-0.492-0.305-0.545-0.305-0.842   s0-0.568,0-0.773c0-0.445-0.029-0.75-0.615-1.282c0,0-21.791-20.367-59.982-40.613c-33.146-17.571-48.328-21.899-52.416-23.449   c-2.498-0.798-6.59-2.409-12.945-0.401c-4.666,1.473-50.578,18.525-106.83,45.128c-65.078,30.776-124.623,70.206-165.553,103.323   c-0.515,0.414-0.108,0.699-0.515,1.077c-0.747,0.695-1.699,1.382-2.538,2.026c-0.345,0.266-0.466,0.553-0.466,0.876v0.899   C275.101,205.363,275.174,205.628,275.522,205.939z" stroke="#000000" stroke-width="0.25" g2gstroke="#312783" stroke-miterlimit="10"/>
</g>
</g>
</g>
</g>
</g>
</g></svg>