<svg xmlns="http://www.w3.org/2000/svg" xmlns:xlink="http://www.w3.org/1999/xlink" xmlns:x="http://ns.adobe.com/Extensibility/1.0/" xmlns:graph="http://ns.adobe.com/Graphs/1.0/" xmlns:i="http://ns.adobe.com/AdobeIllustrator/10.0/" xmlns:etg="http://www.eurotaxglass.com/etg/evd/" etg:dataTimestamp="1539068912893" contentScriptType="text/ecmascript" zoomAndPan="magnify" contentStyleType="text/css" id="Layer_1" enable-background="new 0 0 1841.891 1595.279" version="1.1" xml:space="preserve" width="1841.891px" preserveAspectRatio="xMidYMid meet" viewBox="0 0 1841.891 1595.279" height="1595.279px" x="0px" y="0px"><g xmlns="http://www.w3.org/2000/svg" objecttype="PS" tooltip="#UNDEFINED" id="49">
<g onmouseover="notifyOwner(AGV_OBJECT_MOUSEOVER, '49(PS)')" transform="translate(-9.433746356535266E-6, 3.356933575560106E-7) translate(-35.71980609130861, -13.200809143066408) translate(44.708733184814434, 94.79042849731445) matrix(0.6117410612267968 0 0 0.6117410612267968 0.2921243287958965 0.477310974878083) translate(-92,-34) " onclick="clickZoom(evt); notifyOwner(AGV_OBJECT_MOUSECLICK, '49(PS)')" onmouseout="notifyOwner(AGV_OBJECT_MOUSEOUT, '49(PS)')" tooltip="#UNDEFINED" id="49-Graphic" objecttype="GRAPHIC">
<g zvalue="48">
<g zvalue="3">
<g zvalue="6">
<g>
<path orgstroke="#000000" orgfill="#ffffff" transform="translate(-500.59707300319087, -67.64825310853928) translate(-46.363569312196205, -599.1599726499189) translate(-250.89656496510906, -170.69192534511535) translate(304.3471806103357, 272.19783054586367) translate(646,569) translate(-433.109431640625, 16.160353161811827) translate(132.0312401237611, 11.61874913089099) translate(121.58192443847656, 18.952003955841064) translate(28.0, -52.0) translate(452.0, 15.0) translate(10.0, 10.00006103515625)" fill="#ffffff" g2gfill="#464646" d="M434.953,82.048   c-0.262-0.293-0.627-0.621-0.852-0.879c-0.434-0.492-0.307-0.545-0.307-0.842s0-0.568,0-0.773c0-0.445-0.027-0.75-0.613-1.282   c0,0-21.793-20.367-59.983-40.613c-33.147-17.571-48.329-21.899-52.416-23.449c-2.498-0.798-6.59-2.409-12.946-0.401   c-4.665,1.473-50.577,18.525-106.831,45.128C135.928,89.712,76.383,129.142,35.453,162.259c-0.514,0.414-0.107,0.699-0.514,1.077   c-0.748,0.695-1.699,1.382-2.539,2.026c-0.344,0.266-0.466,0.553-0.466,0.876v0.899c0.001,0.322,0.075,0.588,0.423,0.898   c3.42,3.082,28.369,23.362,68.287,46.475c39.412,22.816,71.77,36.598,77.369,38.594c0.752,0.266,1.078,0.001,1.445-0.41   c4.625-5.154,9.545-10.046,14.746-14.632c97.353-80.082,225.014-146.272,238.926-151.926c1.549-0.63,2.096-1.243,2.096-1.992   v-1.173C435.227,82.499,435.104,82.215,434.953,82.048z M346.193,103.75c-0.434,0.429-0.984,0.854-1.635,1.229   c-44.666,25.537-103.919,62.253-157.414,104.277c-1.748,1.37-3.315,2.214-6.506,0.779c-13.608-6.114-31.152-14.736-50.124-25.691   c-21.343-12.321-37.992-24.106-49.298-32.7c-0.439-0.334-0.801-0.69-1.063-1.063c-0.258-0.371-0.246-0.422,0.135-0.92   c0.199-0.259,0.493-0.492,0.836-0.732c19.258-13.508,40.587-27.665,63.534-41.189c21.159-12.468,43.608-24.518,66.762-35.465   c14.184-6.706,27.711-12.795,40.074-18.198c1.661-0.726,4.526-1.091,8.533,0.243c8.613,2.867,21.706,9.043,41.137,19.345   c19.621,10.402,32.447,19.056,42.687,26.709c1.066,0.798,1.798,1.499,2.268,2.127C346.47,103.116,346.53,103.417,346.193,103.75z" stroke="#000000" outline-element="true" stroke-width="0.5" g2gstroke="#312783" stroke-miterlimit="10"/>
<linearGradient transform="translate(-500.59707300319087, -67.64825310853928) translate(-46.363569312196205, -599.1599726499189) translate(-250.89656496510906, -170.69192534511535) translate(304.3471806103357, 272.19783054586367) translate(646,569) translate(-433.109431640625, 16.160353161811827) translate(132.0312401237611, 11.61874913089099) translate(121.58192443847656, 18.952003955841064) translate(28.0, -52.0) translate(452.0, 15.0) translate(10.0, 10.00006103515625)" x1="288.522" x2="161.219" y1="200.9224" gradientUnits="userSpaceOnUse" y2="12.188" xmlns:xlink="http://www.w3.org/1999/xlink" xlink:type="simple" xlink:actuate="onLoad" id="48::SVGID_3_" xlink:show="other">
<stop stop-opacity="0.7" stop-color="#FFFFFF" offset="0"/>
<stop stop-opacity="0.39" stop-color="#FFFFFF" offset="0.52"/>
<stop stop-opacity="0.31" stop-color="#FFFFFF" offset="0.8711"/>
</linearGradient>
<path fill="url(#48::SVGID_3_)" d="M433.746,78.955c-0.033-0.08-0.078-0.158-0.145-0.254c-0.031-0.048-0.047-0.063-0.047-0.063   c-0.078-0.114-0.191-0.225-0.334-0.353c0,0-21.79-20.368-59.985-40.606c-33.146-17.573-48.322-21.902-52.413-23.451   c-2.509-0.798-6.597-2.412-12.954-0.399c-4.664,1.471-50.575,18.515-106.822,45.127C135.968,89.722,76.414,129.164,35.49,162.279   c-0.193,0.143-0.256,0.287-0.273,0.415c0.975,0.894,25.879,21.821,67.365,45.769c38.768,22.38,70.574,35.846,75.895,37.778   c0.43,0.144,0.701,0.175,0.926,0.11c0.225-0.047,0.383-0.207,0.574-0.398c4.219-4.602,8.674-8.977,13.371-13.115   c97.349-80.094,225.176-145.91,238.928-151.932c1.055-0.4,1.438-0.864,1.551-1.262c0-0.034,0-0.049,0-0.08   C433.826,79.339,433.826,79.165,433.746,78.955z M346.368,103.527c-0.031,0.081-0.097,0.16-0.175,0.225   c-0.432,0.434-0.99,0.863-1.628,1.23c-44.673,25.54-103.929,62.254-157.425,104.277c-1.741,1.373-3.304,2.218-6.494,0.783   c-13.61-6.111-31.16-14.744-50.13-25.688c-21.348-12.332-37.987-24.106-49.3-32.707c-0.432-0.337-0.797-0.688-1.053-1.069   c-0.097-0.112-0.144-0.209-0.16-0.272c-0.622-1.114-0.192-2.281,1.117-3.206c19.258-13.498,40.588-27.666,63.531-41.194   c21.172-12.46,43.621-24.506,66.771-35.467c14.185-6.701,27.714-12.778,40.078-18.188c1.659-0.734,4.516-1.085,8.537,0.239   c8.599,2.872,21.698,9.046,41.13,19.353c19.626,10.402,32.452,19.05,42.68,26.709C346.464,100.497,347.436,102.22,346.368,103.527z   " transform="translate(-500.59707300319087, -67.64825310853928) translate(-46.363569312196205, -599.1599726499189) translate(-250.89656496510906, -170.69192534511535) translate(304.3471806103357, 272.19783054586367) translate(646,569) translate(-433.109431640625, 16.160353161811827) translate(132.0312401237611, 11.61874913089099) translate(121.58192443847656, 18.952003955841064) translate(28.0, -52.0) translate(452.0, 15.0) translate(10.0, 10.00006103515625)" orgfill="url(#48::SVGID_3_)"/>
<linearGradient transform="translate(-500.59707300319087, -67.64825310853928) translate(-46.363569312196205, -599.1599726499189) translate(-250.89656496510906, -170.69192534511535) translate(304.3471806103357, 272.19783054586367) translate(646,569) translate(-433.109431640625, 16.160353161811827) translate(132.0312401237611, 11.61874913089099) translate(121.58192443847656, 18.952003955841064) translate(28.0, -52.0) translate(452.0, 15.0) translate(10.0, 10.00006103515625)" gradientTransform="matrix(1 0 0 -1 174.375 719.4551)" x1="-142.3188" x2="260.875" y1="553.4463" gradientUnits="userSpaceOnUse" y2="553.4463" xmlns:xlink="http://www.w3.org/1999/xlink" xlink:type="simple" xlink:actuate="onLoad" id="48::SVGID_4_" xlink:show="other">
<stop stop-opacity="0.2" stop-color="#FFFFFF" offset="0"/>
<stop stop-opacity="0.2" stop-color="#FFFFFF" offset="1"/>
</linearGradient>
<path fill="url(#48::SVGID_4_)" d="M35.49,164.787c2.908,2.605,27.477,22.636,67.093,45.513c38.769,22.38,70.573,35.845,75.894,37.763   c0.432,0.159,0.721,0.191,0.943,0.129c0.224-0.051,0.367-0.209,0.559-0.399c4.217-4.603,8.676-8.996,13.371-13.132   c97.347-80.08,225.015-146.278,238.93-151.92c1.07-0.431,1.549-0.876,1.549-1.294c0-0.127,0-0.464,0-0.733   c0.016,0.111,0.096,0.238,0.305,0.479c0.238,0.254,0.59,0.574,0.859,0.876c0.113,0.113,0.211,0.306,0.258,0.576h-0.016   c0,0.416-0.432,0.927-2.061,1.582c-13.915,5.656-141.583,71.852-238.929,151.93c-5.21,4.587-10.128,9.477-14.745,14.634   c-0.271,0.304-0.512,0.511-0.895,0.511c-0.16,0.017-0.352-0.016-0.56-0.096c-5.591-1.998-37.956-15.78-77.364-38.595   c-41.742-24.185-67.027-45.319-68.625-46.79c0.08-0.145,0.191-0.303,0.381-0.447c0.832-0.639,1.791-1.325,2.541-2.031   c0.209-0.189,0.209-0.348,0.209-0.508v1.198C35.185,164.354,35.281,164.596,35.49,164.787z" transform="translate(-500.59707300319087, -67.64825310853928) translate(-46.363569312196205, -599.1599726499189) translate(-250.89656496510906, -170.69192534511535) translate(304.3471806103357, 272.19783054586367) translate(646,569) translate(-433.109431640625, 16.160353161811827) translate(132.0312401237611, 11.61874913089099) translate(121.58192443847656, 18.952003955841064) translate(28.0, -52.0) translate(452.0, 15.0) translate(10.0, 10.00006103515625)" orgfill="url(#48::SVGID_4_)"/>
<path orgstroke="#000000" orgfill="none" transform="translate(-500.59707300319087, -67.64825310853928) translate(-46.363569312196205, -599.1599726499189) translate(-250.89656496510906, -170.69192534511535) translate(304.3471806103357, 272.19783054586367) translate(646,569) translate(-433.109431640625, 16.160353161811827) translate(132.0312401237611, 11.61874913089099) translate(121.58192443847656, 18.952003955841064) translate(28.0, -52.0) translate(452.0, 15.0) translate(10.0, 10.00006103515625)" fill="none" d="M35.156,162.653c0,0,25.024,21.334,67.389,45.793   c38.769,22.384,70.578,35.843,75.895,37.772c0.875,0.314,1.14,0.105,1.5-0.283c4.223-4.604,8.686-8.983,13.376-13.119   c97.351-80.085,225.171-145.904,238.923-151.927c2.506-0.941,1.283-2.271,1.283-2.271" stroke="#000000" stroke-width="0.25" g2gstroke="#312783"/>
<path orgstroke="#000000" orgfill="none" transform="translate(-500.59707300319087, -67.64825310853928) translate(-46.363569312196205, -599.1599726499189) translate(-250.89656496510906, -170.69192534511535) translate(304.3471806103357, 272.19783054586367) translate(646,569) translate(-433.109431640625, 16.160353161811827) translate(132.0312401237611, 11.61874913089099) translate(121.58192443847656, 18.952003955841064) translate(28.0, -52.0) translate(452.0, 15.0) translate(10.0, 10.00006103515625)" fill="none" d="M31.935,165.732c0,0,25.504,21.841,68.709,46.859   c39.412,22.82,71.77,36.601,77.369,38.594c0.752,0.27,1.078,0.004,1.445-0.408c4.625-5.154,9.545-10.046,14.746-14.633   C291.557,156.061,419.218,89.873,433.131,84.22c1.627-0.662,2.063-1.18,2.068-1.596" stroke="#000000" stroke-width="0.25" g2gstroke="#312783"/>
<path orgstroke="#000000" orgfill="none" transform="translate(-500.59707300319087, -67.64825310853928) translate(-46.363569312196205, -599.1599726499189) translate(-250.89656496510906, -170.69192534511535) translate(304.3471806103357, 272.19783054586367) translate(646,569) translate(-433.109431640625, 16.160353161811827) translate(132.0312401237611, 11.61874913089099) translate(121.58192443847656, 18.952003955841064) translate(28.0, -52.0) translate(452.0, 15.0) translate(10.0, 10.00006103515625)" fill="none" d="M35.156,162.653v1.364c0,0.323,0.096,0.563,0.301,0.746   c2.9,2.611,27.475,22.647,67.088,45.518c38.769,22.383,70.578,35.841,75.895,37.771c0.875,0.317,1.14,0.105,1.5-0.283   c4.223-4.602,8.686-8.983,13.376-13.12c97.351-80.083,225.013-146.275,238.923-151.925c1.068-0.435,1.561-0.874,1.561-1.296   c0-0.224,0-1.1,0-1.1" stroke="#000000" stroke-width="0.25" g2gstroke="#312783"/>
<path orgstroke="#000000" orgfill="none" transform="translate(-500.59707300319087, -67.64825310853928) translate(-46.363569312196205, -599.1599726499189) translate(-250.89656496510906, -170.69192534511535) translate(304.3471806103357, 272.19783054586367) translate(646,569) translate(-433.109431640625, 16.160353161811827) translate(132.0312401237611, 11.61874913089099) translate(121.58192443847656, 18.952003955841064) translate(28.0, -52.0) translate(452.0, 15.0) translate(10.0, 10.00006103515625)" fill="none" d="M178.56399536132812 251.29200744628906L178.56399536132812 253.21200561523438" stroke="#000000" stroke-width="0.25" g2gstroke="#312783"/>
<path orgstroke="#000000" orgfill="none" transform="translate(-500.59707300319087, -67.64825310853928) translate(-46.363569312196205, -599.1599726499189) translate(-250.89656496510906, -170.69192534511535) translate(304.3471806103357, 272.19783054586367) translate(646,569) translate(-433.109431640625, 16.160353161811827) translate(132.0312401237611, 11.61874913089099) translate(121.58192443847656, 18.952003955841064) translate(28.0, -52.0) translate(452.0, 15.0) translate(10.0, 10.00006103515625)" fill="none" d="M179.36500549316406 246.34300231933594L179.36500549316406 248.1060028076172" stroke="#000000" stroke-width="0.25" g2gstroke="#312783"/>
<path orgstroke="#000000" orgfill="none" transform="translate(-500.59707300319087, -67.64825310853928) translate(-46.363569312196205, -599.1599726499189) translate(-250.89656496510906, -170.69192534511535) translate(304.3471806103357, 272.19783054586367) translate(646,569) translate(-433.109431640625, 16.160353161811827) translate(132.0312401237611, 11.61874913089099) translate(121.58192443847656, 18.952003955841064) translate(28.0, -52.0) translate(452.0, 15.0) translate(10.0, 10.00006103515625)" fill="none" d="M346.193,103.75c1.347-1.348,0.414-3.148-2.342-5.208   c-10.239-7.653-23.067-16.309-42.687-26.709c-19.431-10.301-32.523-16.477-41.137-19.345c-4.006-1.334-6.872-0.97-8.533-0.243   c-12.365,5.406-25.894,11.492-40.074,18.198c-23.153,10.947-45.603,22.997-66.762,35.465   c-22.947,13.525-44.274,27.684-63.534,41.189c-1.422,0.997-1.812,2.276-0.971,3.484" stroke="#000000" stroke-width="0.25" g2gstroke="#312783"/>
<path orgstroke="#000000" orgfill="none" transform="translate(-500.59707300319087, -67.64825310853928) translate(-46.363569312196205, -599.1599726499189) translate(-250.89656496510906, -170.69192534511535) translate(304.3471806103357, 272.19783054586367) translate(646,569) translate(-433.109431640625, 16.160353161811827) translate(132.0312401237611, 11.61874913089099) translate(121.58192443847656, 18.952003955841064) translate(28.0, -52.0) translate(452.0, 15.0) translate(10.0, 10.00006103515625)" fill="none" d="M434.953,82.048c-0.262-0.293-0.627-0.621-0.852-0.879   c-0.434-0.492-0.307-0.545-0.307-0.842s0-0.568,0-0.773c0-0.445-0.027-0.75-0.613-1.282c0,0-21.793-20.367-59.983-40.613   c-33.147-17.571-48.329-21.899-52.416-23.449c-2.498-0.798-6.59-2.409-12.946-0.401c-4.665,1.473-50.577,18.525-106.831,45.128   C135.928,89.712,76.383,129.142,35.453,162.259c-0.514,0.414-0.107,0.699-0.514,1.077c-0.748,0.695-1.699,1.382-2.539,2.026   c-0.344,0.266-0.466,0.553-0.466,0.876v0.899c0.001,0.322,0.075,0.588,0.423,0.898c3.42,3.082,28.369,23.362,68.287,46.475   c39.412,22.816,71.77,36.598,77.369,38.594c0.752,0.266,1.078,0.001,1.445-0.41c4.625-5.154,9.545-10.046,14.746-14.632   c97.353-80.082,225.014-146.272,238.926-151.926c1.549-0.63,2.096-1.243,2.096-1.992v-1.173   C435.227,82.499,435.104,82.215,434.953,82.048z M346.193,103.75c-0.434,0.429-0.984,0.854-1.635,1.229   c-44.666,25.537-103.919,62.253-157.414,104.277c-1.748,1.37-3.315,2.214-6.506,0.779c-13.608-6.114-31.152-14.736-50.124-25.691   c-21.343-12.321-37.992-24.106-49.298-32.7c-0.439-0.334-0.801-0.69-1.063-1.063c-0.258-0.371-0.246-0.422,0.135-0.92   c0.199-0.259,0.493-0.492,0.836-0.732c19.258-13.508,40.587-27.665,63.534-41.189c21.159-12.468,43.608-24.518,66.762-35.465   c14.184-6.706,27.711-12.795,40.074-18.198c1.661-0.726,4.526-1.091,8.533,0.243c8.613,2.867,21.706,9.043,41.137,19.345   c19.621,10.402,32.447,19.056,42.687,26.709c1.066,0.798,1.798,1.499,2.268,2.127C346.47,103.116,346.53,103.417,346.193,103.75z" stroke="#000000" stroke-width="0.25" g2gstroke="#312783"/>
</g>
</g>
</g>
</g>
</g>
</g></svg>