<svg xmlns="http://www.w3.org/2000/svg" xmlns:xlink="http://www.w3.org/1999/xlink" xmlns:x="http://ns.adobe.com/Extensibility/1.0/" xmlns:graph="http://ns.adobe.com/Graphs/1.0/" xmlns:i="http://ns.adobe.com/AdobeIllustrator/10.0/" xmlns:etg="http://www.eurotaxglass.com/etg/evd/" etg:dataTimestamp="1539068912893" contentScriptType="text/ecmascript" zoomAndPan="magnify" contentStyleType="text/css" id="Layer_1" enable-background="new 0 0 1841.891 1595.279" version="1.1" xml:space="preserve" width="1841.891px" preserveAspectRatio="xMidYMid meet" viewBox="0 0 1841.891 1595.279" height="1595.279px" x="0px" y="0px"><g xmlns="http://www.w3.org/2000/svg" objecttype="PS" tooltip="#UNDEFINED" id="51">
<g onmouseover="notifyOwner(AGV_OBJECT_MOUSEOVER, '51(PS)')" transform="translate(-9.433746356535266E-6, 3.356933575560106E-7) translate(-35.71980609130861, -13.200809143066408) translate(44.708733184814434, 94.79042849731445) matrix(0.6117410612267968 0 0 0.6117410612267968 0.2921243287958965 0.477310974878083) translate(-92,-34) " onclick="clickZoom(evt); notifyOwner(AGV_OBJECT_MOUSECLICK, '51(PS)')" onmouseout="notifyOwner(AGV_OBJECT_MOUSEOUT, '51(PS)')" tooltip="#UNDEFINED" id="51-Graphic" objecttype="GRAPHIC">
<g zvalue="50">
<g zvalue="13">
<g zvalue="12">
<g>
<path orgstroke="#000000" orgfill="none" transform="translate(-500.59707300319087, -67.64825310853928) translate(-5.043470176874052, 13.617369477560345) translate(-46.363569312196205, -599.1599726499189) translate(-250.89656496510906, -170.69192534511535) translate(0.9884104388752348, 15.81456702200569) translate(304.3471806103357, 272.19783054586367) translate(646,569) translate(-433.109431640625, 16.160353161811827) translate(250.23993829820859, 27.543974473104925) translate(28.0, -52.0) translate(452.0, 15.0) translate(10.0, 10.00006103515625)" fill="none" d="M185.144,58.41c12.129-6.507,24.254-12.629,36.267-18.311   c12.79-6.049,25.874-11.991,39.999-18.166c0.365-0.159,1.159-0.426,2.428-0.426c1.256,0,2.658,0.256,4.163,0.756   c8.376,2.791,21.316,8.881,40.724,19.169c21.026,11.146,33.654,20.031,42.335,26.487c0.545,0.405,0.872,0.793,0.88,1.205" stroke="#000000" stroke-width="0.25" g2gstroke="#312783"/>
<path orgstroke="#000000" stroke="#000000" d="   M351.937,69.125c0.005,0.487-0.43,1-1.482,1.609c-19.632,11.333-43.521,25.617-69.076,42.051c-0.795,0.51-1.308,0.166-1.308,0.166   c-14.599-9.36-78.142-45.827-94.63-54.171c-0.377-0.193-0.508-0.396-0.508-0.845v-0.5c0-0.411,0.075-0.581,0.494-0.805   c12.037-6.444,24.063-12.522,35.98-18.158c12.792-6.047,25.873-11.991,40.001-18.164c0.362-0.159,1.16-0.427,2.426-0.427   c1.259,0,2.658,0.255,4.165,0.757c8.376,2.791,21.315,8.881,40.723,19.169c21.026,11.146,33.655,20.029,42.334,26.486   c0.55,0.408,0.878,0.801,0.881,1.215C351.937,67.508,351.934,68.719,351.937,69.125z" outline-element="true" enable-background="new    " transform="translate(-500.59707300319087, -67.64825310853928) translate(-5.043470176874052, 13.617369477560345) translate(-46.363569312196205, -599.1599726499189) translate(-250.89656496510906, -170.69192534511535) translate(0.9884104388752348, 15.81456702200569) translate(304.3471806103357, 272.19783054586367) translate(646,569) translate(-433.109431640625, 16.160353161811827) translate(250.23993829820859, 27.543974473104925) translate(28.0, -52.0) translate(452.0, 15.0) translate(10.0, 10.00006103515625)" stroke-miterlimit="10" orgfill="#ffffff" fill="#ffffff" stroke-width="0.5" g2gfill="#0096C8" opacity="0.6" g2gstroke="#312783"/>
<linearGradient transform="translate(-500.59707300319087, -67.64825310853928) translate(-5.043470176874052, 13.617369477560345) translate(-46.363569312196205, -599.1599726499189) translate(-250.89656496510906, -170.69192534511535) translate(0.9884104388752348, 15.81456702200569) translate(304.3471806103357, 272.19783054586367) translate(646,569) translate(-433.109431640625, 16.160353161811827) translate(250.23993829820859, 27.543974473104925) translate(28.0, -52.0) translate(452.0, 15.0) translate(10.0, 10.00006103515625)" gradientTransform="matrix(1 0 0 1 348.75 0.9102)" x1="-166.2393" x2="5.6101" y1="64.7588" gradientUnits="userSpaceOnUse" y2="64.7588" xmlns:xlink="http://www.w3.org/1999/xlink" xlink:type="simple" xlink:actuate="onLoad" id="50::SVGID_6_" xlink:show="other">
<stop stop-opacity="0.18" stop-color="#FFFFFF" offset="0.0848"/>
<stop stop-opacity="0.39" stop-color="#FFFFFF" offset="0.2846"/>
<stop stop-opacity="0.64" stop-color="#FFFFFF" offset="0.4055"/>
<stop stop-opacity="0.21" stop-color="#FFFFFF" offset="0.6061"/>
<stop stop-opacity="0.5101" stop-color="#FFFFFF" offset="0.7147"/>
<stop stop-opacity="0.65" stop-color="#FFFFFF" offset="0.779"/>
<stop stop-opacity="0.16" stop-color="#FFFFFF" offset="0.9302"/>
<stop stop-opacity="0.19" stop-color="#FFFFFF" offset="0.9879"/>
</linearGradient>
<path orgfill="url(#50::SVGID_6_)" enable-background="new    " transform="translate(-500.59707300319087, -67.64825310853928) translate(-5.043470176874052, 13.617369477560345) translate(-46.363569312196205, -599.1599726499189) translate(-250.89656496510906, -170.69192534511535) translate(0.9884104388752348, 15.81456702200569) translate(304.3471806103357, 272.19783054586367) translate(646,569) translate(-433.109431640625, 16.160353161811827) translate(250.23993829820859, 27.543974473104925) translate(28.0, -52.0) translate(452.0, 15.0) translate(10.0, 10.00006103515625)" fill="url(#50::SVGID_6_)" opacity="0.6" d="M351.012,66.284   c-8.679-6.444-21.316-15.331-42.346-26.485c-19.401-10.272-32.339-16.369-40.716-19.162c-1.515-0.495-2.904-0.749-4.163-0.749   c-1.262,0-2.06,0.254-2.428,0.414c-14.135,6.174-27.218,12.125-39.999,18.172c-11.916,5.633-23.947,11.713-35.976,18.158   c-0.209,0.11-0.337,0.19-0.399,0.317c15.827,7.914,80.22,44.865,94.993,54.357c0,0,0.608,0.336,1.135-0.016   c25.624-16.497,49.603-30.823,69.29-42.184c1.054-0.607,1.484-1.117,1.484-1.611C351.886,67.097,351.552,66.698,351.012,66.284z"/>
<path orgstroke="#000000" orgfill="none" transform="translate(-500.59707300319087, -67.64825310853928) translate(-5.043470176874052, 13.617369477560345) translate(-46.363569312196205, -599.1599726499189) translate(-250.89656496510906, -170.69192534511535) translate(0.9884104388752348, 15.81456702200569) translate(304.3471806103357, 272.19783054586367) translate(646,569) translate(-433.109431640625, 16.160353161811827) translate(250.23993829820859, 27.543974473104925) translate(28.0, -52.0) translate(452.0, 15.0) translate(10.0, 10.00006103515625)" fill="none" d="M351.937,67.507c0.005,0.482-0.435,0.993-1.482,1.6   c-19.688,11.363-43.659,25.692-69.293,42.193c-0.521,0.336-1.125,0.002-1.125,0.002c-14.815-9.494-79.462-46.611-95.104-54.407" stroke="#000000" stroke-width="0.25" g2gstroke="#312783"/>
<path orgstroke="#000000" orgfill="none" transform="translate(-500.59707300319087, -67.64825310853928) translate(-5.043470176874052, 13.617369477560345) translate(-46.363569312196205, -599.1599726499189) translate(-250.89656496510906, -170.69192534511535) translate(0.9884104388752348, 15.81456702200569) translate(304.3471806103357, 272.19783054586367) translate(646,569) translate(-433.109431640625, 16.160353161811827) translate(250.23993829820859, 27.543974473104925) translate(28.0, -52.0) translate(452.0, 15.0) translate(10.0, 10.00006103515625)" fill="none" d="M351.937,69.125c0.005,0.487-0.43,1-1.482,1.609   c-19.632,11.333-43.521,25.617-69.076,42.051c-0.795,0.51-1.308,0.166-1.308,0.166c-14.599-9.36-78.142-45.827-94.63-54.171   c-0.377-0.193-0.508-0.396-0.508-0.845v-0.5c0-0.411,0.075-0.581,0.494-0.805c12.037-6.444,24.063-12.522,35.98-18.158   c12.792-6.047,25.873-11.991,40.001-18.164c0.362-0.159,1.16-0.427,2.426-0.427c1.259,0,2.658,0.255,4.165,0.757   c8.376,2.791,21.315,8.881,40.723,19.169c21.026,11.146,33.655,20.029,42.334,26.486c0.55,0.408,0.878,0.801,0.881,1.215   C351.937,67.508,351.934,68.719,351.937,69.125z" stroke="#000000" stroke-width="0.25" g2gstroke="#312783"/>
</g>
</g>
</g>
</g>
</g>
</g></svg>