<svg xmlns="http://www.w3.org/2000/svg" xmlns:xlink="http://www.w3.org/1999/xlink" xmlns:x="http://ns.adobe.com/Extensibility/1.0/" xmlns:graph="http://ns.adobe.com/Graphs/1.0/" xmlns:i="http://ns.adobe.com/AdobeIllustrator/10.0/" xmlns:etg="http://www.eurotaxglass.com/etg/evd/" etg:dataTimestamp="1539068912893" contentScriptType="text/ecmascript" zoomAndPan="magnify" contentStyleType="text/css" id="Layer_1" enable-background="new 0 0 1841.891 1595.279" version="1.1" xml:space="preserve" width="1841.891px" preserveAspectRatio="xMidYMid meet" viewBox="0 0 1841.891 1595.279" height="1595.279px" x="0px" y="0px"><g xmlns="http://www.w3.org/2000/svg" objecttype="PS" tooltip="#UNDEFINED" id="54">
<g onmouseover="notifyOwner(AGV_OBJECT_MOUSEOVER, '54(PS)')" transform="translate(-9.433746356535266E-6, 3.356933575560106E-7) translate(-35.71980609130861, -13.200809143066408) translate(44.708733184814434, 94.79042849731445) matrix(0.6117410612267968 0 0 0.6117410612267968 0.2921243287958965 0.477310974878083) translate(-92,-34) " onclick="clickZoom(evt); notifyOwner(AGV_OBJECT_MOUSECLICK, '54(PS)')" onmouseout="notifyOwner(AGV_OBJECT_MOUSEOUT, '54(PS)')" tooltip="#UNDEFINED" id="54-Graphic" objecttype="GRAPHIC">
<g zvalue="53">
<g zvalue="0">
<g>
<path orgstroke="#000000" orgfill="#ffffff" transform="translate(1.6666666666666288, 45.0) translate(5.0, 141.66666666666663) translate(0.0, -2.331987004449843) translate(3.4979805066747645, 1.1659935022249215) translate(0.0, 8.161954515574394) translate(-560.842874570186, 9.327948017799315) translate(138.75322676476537, -174.89902533373788) translate(-214.5428044093851, 58.29967511124602) translate(-127.75934877066777, -108.29125752942315) translate(-18.320388349514587, -5.7475728155339425) translate(708,260) " fill="#ffffff" g2gfill="#ECC35D" d="M367.428,226.634   c1.517-0.443,3.259-0.342,5.125,0.444c6.11,2.574,11.175,11.358,11.175,19.563c0,4.608-1.604,7.975-4.092,9.498l-2.654,1.152   c-1.688,0.563-3.666,0.396-5.771-0.604c-5.969-2.854-10.703-11.489-10.703-19.354c0-4.896,1.849-8.458,4.691-9.813L367.428,226.634   z" stroke="#000000" outline-element="true" stroke-width="0.5" g2gstroke="#312783" stroke-miterlimit="10"/>
<path orgstroke="#000000" orgfill="none" stroke-linecap="round" transform="translate(1.6666666666666288, 45.0) translate(5.0, 141.66666666666663) translate(0.0, -2.331987004449843) translate(3.4979805066747645, 1.1659935022249215) translate(0.0, 8.161954515574394) translate(-560.842874570186, 9.327948017799315) translate(138.75322676476537, -174.89902533373788) translate(-214.5428044093851, 58.29967511124602) translate(-127.75934877066777, -108.29125752942315) translate(-18.320388349514587, -5.7475728155339425) translate(708,260) " fill="none" d="M375.004,243.714c0,2.41-1.7,3.652-3.748,2.787   c-2.004-0.842-3.59-3.381-3.59-5.686c0-2.313,1.586-3.597,3.59-2.854C373.304,238.719,375.004,241.302,375.004,243.714z" stroke="#000000" stroke-width="0.25" g2gstroke="#312783"/>
<path orgstroke="#000000" orgfill="none" stroke-linecap="round" transform="translate(1.6666666666666288, 45.0) translate(5.0, 141.66666666666663) translate(0.0, -2.331987004449843) translate(3.4979805066747645, 1.1659935022249215) translate(0.0, 8.161954515574394) translate(-560.842874570186, 9.327948017799315) translate(138.75322676476537, -174.89902533373788) translate(-214.5428044093851, 58.29967511124602) translate(-127.75934877066777, -108.29125752942315) translate(-18.320388349514587, -5.7475728155339425) translate(708,260) " fill="none" d="M374.122,243.363c0,1.83-1.29,2.773-2.854,2.122   c-1.52-0.642-2.72-2.569-2.72-4.322c0-1.754,1.199-2.729,2.72-2.17C372.83,239.569,374.122,241.531,374.122,243.363z" stroke="#000000" stroke-width="0.25" g2gstroke="#312783"/>
<path orgstroke="#000000" orgfill="none" stroke-linecap="round" transform="translate(1.6666666666666288, 45.0) translate(5.0, 141.66666666666663) translate(0.0, -2.331987004449843) translate(3.4979805066747645, 1.1659935022249215) translate(0.0, 8.161954515574394) translate(-560.842874570186, 9.327948017799315) translate(138.75322676476537, -174.89902533373788) translate(-214.5428044093851, 58.29967511124602) translate(-127.75934877066777, -108.29125752942315) translate(-18.320388349514587, -5.7475728155339425) translate(708,260) " fill="none" d="M371.82,240.442   c0.775,0.721,1.313,1.854,1.313,2.938c0,1.483-1.009,2.249-2.232,1.729c-1.192-0.521-2.146-2.087-2.146-3.507   c0-1.421,0.938-2.229,2.146-1.769c0.082,0.035,0.162,0.067,0.239,0.104" stroke="#000000" stroke-width="0.25" g2gstroke="#312783"/>
<path orgstroke="#000000" orgfill="none" stroke-linecap="round" transform="translate(1.6666666666666288, 45.0) translate(5.0, 141.66666666666663) translate(0.0, -2.331987004449843) translate(3.4979805066747645, 1.1659935022249215) translate(0.0, 8.161954515574394) translate(-560.842874570186, 9.327948017799315) translate(138.75322676476537, -174.89902533373788) translate(-214.5428044093851, 58.29967511124602) translate(-127.75934877066777, -108.29125752942315) translate(-18.320388349514587, -5.7475728155339425) translate(708,260) " fill="none" d="M380.951,246.74   c0,7.457-4.448,11.299-9.827,8.635c-5.238-2.596-9.404-10.438-9.404-17.588c0-7.142,4.16-11.118,9.404-8.826   C376.503,231.3,380.951,239.282,380.951,246.74z" stroke="#000000" stroke-width="0.25" g2gstroke="#312783"/>
<path orgstroke="#000000" orgfill="none" stroke-linecap="round" transform="translate(1.6666666666666288, 45.0) translate(5.0, 141.66666666666663) translate(0.0, -2.331987004449843) translate(3.4979805066747645, 1.1659935022249215) translate(0.0, 8.161954515574394) translate(-560.842874570186, 9.327948017799315) translate(138.75322676476537, -174.89902533373788) translate(-214.5428044093851, 58.29967511124602) translate(-127.75934877066777, -108.29125752942315) translate(-18.320388349514587, -5.7475728155339425) translate(708,260) " fill="none" d="M378.473,234.285   c2.383,3.732,3.913,8.401,3.913,12.906c0,4.035-1.222,7.104-3.194,8.84" stroke="#000000" stroke-width="0.25" g2gstroke="#312783"/>
<path orgstroke="#000000" orgfill="none" stroke-linecap="round" transform="translate(1.6666666666666288, 45.0) translate(5.0, 141.66666666666663) translate(0.0, -2.331987004449843) translate(3.4979805066747645, 1.1659935022249215) translate(0.0, 8.161954515574394) translate(-560.842874570186, 9.327948017799315) translate(138.75322676476537, -174.89902533373788) translate(-214.5428044093851, 58.29967511124602) translate(-127.75934877066777, -108.29125752942315) translate(-18.320388349514587, -5.7475728155339425) translate(708,260) " fill="none" d="M366.896,226.997   c1.321-0.21,2.775-0.021,4.314,0.629c2.367,0.997,4.577,2.938,6.396,5.399" stroke="#000000" stroke-width="0.25" g2gstroke="#312783"/>
<path orgstroke="#000000" orgfill="none" stroke-linecap="round" transform="translate(1.6666666666666288, 45.0) translate(5.0, 141.66666666666663) translate(0.0, -2.331987004449843) translate(3.4979805066747645, 1.1659935022249215) translate(0.0, 8.161954515574394) translate(-560.842874570186, 9.327948017799315) translate(138.75322676476537, -174.89902533373788) translate(-214.5428044093851, 58.29967511124602) translate(-127.75934877066777, -108.29125752942315) translate(-18.320388349514587, -5.7475728155339425) translate(708,260) " fill="none" d="M376.334,242.674   c0.302,1.571-0.691,2.606-1.592,3.146" stroke="#000000" stroke-width="0.25" g2gstroke="#312783"/>
<path orgstroke="#000000" orgfill="none" stroke-linecap="round" transform="translate(1.6666666666666288, 45.0) translate(5.0, 141.66666666666663) translate(0.0, -2.331987004449843) translate(3.4979805066747645, 1.1659935022249215) translate(0.0, 8.161954515574394) translate(-560.842874570186, 9.327948017799315) translate(138.75322676476537, -174.89902533373788) translate(-214.5428044093851, 58.29967511124602) translate(-127.75934877066777, -108.29125752942315) translate(-18.320388349514587, -5.7475728155339425) translate(708,260) " fill="none" d="M374.978,239.16   c0.563,0.745,0.938,1.61,1.131,2.464" stroke="#000000" stroke-width="0.25" g2gstroke="#312783"/>
<path orgstroke="#000000" orgfill="none" stroke-linecap="round" transform="translate(1.6666666666666288, 45.0) translate(5.0, 141.66666666666663) translate(0.0, -2.331987004449843) translate(3.4979805066747645, 1.1659935022249215) translate(0.0, 8.161954515574394) translate(-560.842874570186, 9.327948017799315) translate(138.75322676476537, -174.89902533373788) translate(-214.5428044093851, 58.29967511124602) translate(-127.75934877066777, -108.29125752942315) translate(-18.320388349514587, -5.7475728155339425) translate(708,260) " fill="none" d="M372.404,237.117   c0.693,0.314,0.581,0.354,1.042,0.634" stroke="#000000" stroke-width="0.25" g2gstroke="#312783"/>
<path orgstroke="#000000" orgfill="none" stroke-linecap="round" transform="translate(1.6666666666666288, 45.0) translate(5.0, 141.66666666666663) translate(0.0, -2.331987004449843) translate(3.4979805066747645, 1.1659935022249215) translate(0.0, 8.161954515574394) translate(-560.842874570186, 9.327948017799315) translate(138.75322676476537, -174.89902533373788) translate(-214.5428044093851, 58.29967511124602) translate(-127.75934877066777, -108.29125752942315) translate(-18.320388349514587, -5.7475728155339425) translate(708,260) " fill="none" d="M363.041,238.576   c-0.041-0.521-0.064-1.048-0.064-1.563c0-2.082,0.354-3.896,0.984-5.357" stroke="#000000" stroke-width="0.25" g2gstroke="#312783"/>
<path orgstroke="#000000" orgfill="none" stroke-linecap="round" transform="translate(1.6666666666666288, 45.0) translate(5.0, 141.66666666666663) translate(0.0, -2.331987004449843) translate(3.4979805066747645, 1.1659935022249215) translate(0.0, 8.161954515574394) translate(-560.842874570186, 9.327948017799315) translate(138.75322676476537, -174.89902533373788) translate(-214.5428044093851, 58.29967511124602) translate(-127.75934877066777, -108.29125752942315) translate(-18.320388349514587, -5.7475728155339425) translate(708,260) " fill="none" d="M366.013,248.049   c-1.188-2.089-2.088-4.438-2.585-6.854" stroke="#000000" stroke-width="0.25" g2gstroke="#312783"/>
<path orgstroke="#000000" orgfill="none" stroke-linecap="round" transform="translate(1.6666666666666288, 45.0) translate(5.0, 141.66666666666663) translate(0.0, -2.331987004449843) translate(3.4979805066747645, 1.1659935022249215) translate(0.0, 8.161954515574394) translate(-560.842874570186, 9.327948017799315) translate(138.75322676476537, -174.89902533373788) translate(-214.5428044093851, 58.29967511124602) translate(-127.75934877066777, -108.29125752942315) translate(-18.320388349514587, -5.7475728155339425) translate(708,260) " fill="none" d="M371.776,254.272   c-1.521-0.896-2.937-2.213-4.169-3.816" stroke="#000000" stroke-width="0.25" g2gstroke="#312783"/>
<path orgstroke="#000000" orgfill="none" stroke-linecap="round" transform="translate(1.6666666666666288, 45.0) translate(5.0, 141.66666666666663) translate(0.0, -2.331987004449843) translate(3.4979805066747645, 1.1659935022249215) translate(0.0, 8.161954515574394) translate(-560.842874570186, 9.327948017799315) translate(138.75322676476537, -174.89902533373788) translate(-214.5428044093851, 58.29967511124602) translate(-127.75934877066777, -108.29125752942315) translate(-18.320388349514587, -5.7475728155339425) translate(708,260) " fill="none" d="M377.767,255.083   c-0.8,0.172-2.585,0.399-3.489,0.197" stroke="#000000" stroke-width="0.25" g2gstroke="#312783"/>
<path orgstroke="#000000" orgfill="none" stroke-linecap="round" transform="translate(1.6666666666666288, 45.0) translate(5.0, 141.66666666666663) translate(0.0, -2.331987004449843) translate(3.4979805066747645, 1.1659935022249215) translate(0.0, 8.161954515574394) translate(-560.842874570186, 9.327948017799315) translate(138.75322676476537, -174.89902533373788) translate(-214.5428044093851, 58.29967511124602) translate(-127.75934877066777, -108.29125752942315) translate(-18.320388349514587, -5.7475728155339425) translate(708,260) " fill="none" d="M376.2919921875 233.2949981689453L372.7919921875 238.78599548339844" stroke="#000000" stroke-width="0.25" g2gstroke="#312783"/>
<path orgstroke="#000000" orgfill="none" stroke-linecap="round" transform="translate(1.6666666666666288, 45.0) translate(5.0, 141.66666666666663) translate(0.0, -2.331987004449843) translate(3.4979805066747645, 1.1659935022249215) translate(0.0, 8.161954515574394) translate(-560.842874570186, 9.327948017799315) translate(138.75322676476537, -174.89902533373788) translate(-214.5428044093851, 58.29967511124602) translate(-127.75934877066777, -108.29125752942315) translate(-18.320388349514587, -5.7475728155339425) translate(708,260) " fill="none" d="M377.34100341796875 234.93800354003906L374.7640075683594 238.97500610351562" stroke="#000000" stroke-width="0.25" g2gstroke="#312783"/>
<path orgstroke="#000000" orgfill="none" stroke-linecap="round" transform="translate(1.6666666666666288, 45.0) translate(5.0, 141.66666666666663) translate(0.0, -2.331987004449843) translate(3.4979805066747645, 1.1659935022249215) translate(0.0, 8.161954515574394) translate(-560.842874570186, 9.327948017799315) translate(138.75322676476537, -174.89902533373788) translate(-214.5428044093851, 58.29967511124602) translate(-127.75934877066777, -108.29125752942315) translate(-18.320388349514587, -5.7475728155339425) translate(708,260) " fill="none" d="M372.7919921875 238.78599548339844L374.7640075683594 238.97500610351562" stroke="#000000" stroke-width="0.25" g2gstroke="#312783"/>
<path orgstroke="#000000" orgfill="none" stroke-linecap="round" transform="translate(1.6666666666666288, 45.0) translate(5.0, 141.66666666666663) translate(0.0, -2.331987004449843) translate(3.4979805066747645, 1.1659935022249215) translate(0.0, 8.161954515574394) translate(-560.842874570186, 9.327948017799315) translate(138.75322676476537, -174.89902533373788) translate(-214.5428044093851, 58.29967511124602) translate(-127.75934877066777, -108.29125752942315) translate(-18.320388349514587, -5.7475728155339425) translate(708,260) " fill="none" d="M368.87298583984375 244.49000549316406L365.24700927734375 249.6510009765625" stroke="#000000" stroke-width="0.25" g2gstroke="#312783"/>
<path orgstroke="#000000" orgfill="none" stroke-linecap="round" transform="translate(1.6666666666666288, 45.0) translate(5.0, 141.66666666666663) translate(0.0, -2.331987004449843) translate(3.4979805066747645, 1.1659935022249215) translate(0.0, 8.161954515574394) translate(-560.842874570186, 9.327948017799315) translate(138.75322676476537, -174.89902533373788) translate(-214.5428044093851, 58.29967511124602) translate(-127.75934877066777, -108.29125752942315) translate(-18.320388349514587, -5.7475728155339425) translate(708,260) " fill="none" d="M370.47900390625 246.08200073242188L367.5469970703125 250.2570037841797" stroke="#000000" stroke-width="0.25" g2gstroke="#312783"/>
<path orgstroke="#000000" orgfill="none" stroke-linecap="round" transform="translate(1.6666666666666288, 45.0) translate(5.0, 141.66666666666663) translate(0.0, -2.331987004449843) translate(3.4979805066747645, 1.1659935022249215) translate(0.0, 8.161954515574394) translate(-560.842874570186, 9.327948017799315) translate(138.75322676476537, -174.89902533373788) translate(-214.5428044093851, 58.29967511124602) translate(-127.75934877066777, -108.29125752942315) translate(-18.320388349514587, -5.7475728155339425) translate(708,260) " fill="none" d="M371.8550109863281 246.77699279785156L371.8550109863281 255.44200134277344" stroke="#000000" stroke-width="0.25" g2gstroke="#312783"/>
<path orgstroke="#000000" orgfill="none" stroke-linecap="round" transform="translate(1.6666666666666288, 45.0) translate(5.0, 141.66666666666663) translate(0.0, -2.331987004449843) translate(3.4979805066747645, 1.1659935022249215) translate(0.0, 8.161954515574394) translate(-560.842874570186, 9.327948017799315) translate(138.75322676476537, -174.89902533373788) translate(-214.5428044093851, 58.29967511124602) translate(-127.75934877066777, -108.29125752942315) translate(-18.320388349514587, -5.7475728155339425) translate(708,260) " fill="none" d="M367.7460021972656 241.71400451660156L363.42401123046875 240.97500610351562" stroke="#000000" stroke-width="0.25" g2gstroke="#312783"/>
<path orgstroke="#000000" orgfill="none" stroke-linecap="round" transform="translate(1.6666666666666288, 45.0) translate(5.0, 141.66666666666663) translate(0.0, -2.331987004449843) translate(3.4979805066747645, 1.1659935022249215) translate(0.0, 8.161954515574394) translate(-560.842874570186, 9.327948017799315) translate(138.75322676476537, -174.89902533373788) translate(-214.5428044093851, 58.29967511124602) translate(-127.75934877066777, -108.29125752942315) translate(-18.320388349514587, -5.7475728155339425) translate(708,260) " fill="none" d="M376.4750061035156 242.7169952392578L374.9440002441406 242.26400756835938" stroke="#000000" stroke-width="0.25" g2gstroke="#312783"/>
<path orgstroke="#000000" orgfill="none" stroke-linecap="round" transform="translate(1.6666666666666288, 45.0) translate(5.0, 141.66666666666663) translate(0.0, -2.331987004449843) translate(3.4979805066747645, 1.1659935022249215) translate(0.0, 8.161954515574394) translate(-560.842874570186, 9.327948017799315) translate(138.75322676476537, -174.89902533373788) translate(-214.5428044093851, 58.29967511124602) translate(-127.75934877066777, -108.29125752942315) translate(-18.320388349514587, -5.7475728155339425) translate(708,260) " fill="none" d="M380.7460021972656 243.93299865722656L376.4750061035156 242.7169952392578" stroke="#000000" stroke-width="0.25" g2gstroke="#312783"/>
<path orgstroke="#000000" orgfill="none" stroke-linecap="round" transform="translate(1.6666666666666288, 45.0) translate(5.0, 141.66666666666663) translate(0.0, -2.331987004449843) translate(3.4979805066747645, 1.1659935022249215) translate(0.0, 8.161954515574394) translate(-560.842874570186, 9.327948017799315) translate(138.75322676476537, -174.89902533373788) translate(-214.5428044093851, 58.29967511124602) translate(-127.75934877066777, -108.29125752942315) translate(-18.320388349514587, -5.7475728155339425) translate(708,260) " fill="none" d="M374.02099609375 246.23800659179688L378.64599609375 254.2530059814453" stroke="#000000" stroke-width="0.25" g2gstroke="#312783"/>
<path orgstroke="#000000" orgfill="none" stroke-linecap="round" transform="translate(1.6666666666666288, 45.0) translate(5.0, 141.66666666666663) translate(0.0, -2.331987004449843) translate(3.4979805066747645, 1.1659935022249215) translate(0.0, 8.161954515574394) translate(-560.842874570186, 9.327948017799315) translate(138.75322676476537, -174.89902533373788) translate(-214.5428044093851, 58.29967511124602) translate(-127.75934877066777, -108.29125752942315) translate(-18.320388349514587, -5.7475728155339425) translate(708,260) " fill="none" d="M365.3580017089844 229.14599609375L369.8450012207031 237.16900634765625" stroke="#000000" stroke-width="0.25" g2gstroke="#312783"/>
<path orgstroke="#000000" orgfill="none" stroke-linecap="round" transform="translate(1.6666666666666288, 45.0) translate(5.0, 141.66666666666663) translate(0.0, -2.331987004449843) translate(3.4979805066747645, 1.1659935022249215) translate(0.0, 8.161954515574394) translate(-560.842874570186, 9.327948017799315) translate(138.75322676476537, -174.89902533373788) translate(-214.5428044093851, 58.29967511124602) translate(-127.75934877066777, -108.29125752942315) translate(-18.320388349514587, -5.7475728155339425) translate(708,260) " fill="none" d="M363.7030029296875 230.6929931640625L368.3030090332031 238.66799926757812" stroke="#000000" stroke-width="0.25" g2gstroke="#312783"/>
<path orgstroke="#000000" orgfill="none" stroke-linecap="round" transform="translate(1.6666666666666288, 45.0) translate(5.0, 141.66666666666663) translate(0.0, -2.331987004449843) translate(3.4979805066747645, 1.1659935022249215) translate(0.0, 8.161954515574394) translate(-560.842874570186, 9.327948017799315) translate(138.75322676476537, -174.89902533373788) translate(-214.5428044093851, 58.29967511124602) translate(-127.75934877066777, -108.29125752942315) translate(-18.320388349514587, -5.7475728155339425) translate(708,260) " fill="none" d="M373.468994140625 246.77699279785156L374.1780090332031 255.24099731445312" stroke="#000000" stroke-width="0.25" g2gstroke="#312783"/>
<path orgstroke="#000000" orgfill="none" stroke-linecap="round" transform="translate(1.6666666666666288, 45.0) translate(5.0, 141.66666666666663) translate(0.0, -2.331987004449843) translate(3.4979805066747645, 1.1659935022249215) translate(0.0, 8.161954515574394) translate(-560.842874570186, 9.327948017799315) translate(138.75322676476537, -174.89902533373788) translate(-214.5428044093851, 58.29967511124602) translate(-127.75934877066777, -108.29125752942315) translate(-18.320388349514587, -5.7475728155339425) translate(708,260) " fill="none" d="M375.2250061035156 245.5050048828125L379.885009765625 252.28500366210938" stroke="#000000" stroke-width="0.25" g2gstroke="#312783"/>
<path orgstroke="#000000" orgfill="none" stroke-linecap="round" transform="translate(1.6666666666666288, 45.0) translate(5.0, 141.66666666666663) translate(0.0, -2.331987004449843) translate(3.4979805066747645, 1.1659935022249215) translate(0.0, 8.161954515574394) translate(-560.842874570186, 9.327948017799315) translate(138.75322676476537, -174.89902533373788) translate(-214.5428044093851, 58.29967511124602) translate(-127.75934877066777, -108.29125752942315) translate(-18.320388349514587, -5.7475728155339425) translate(708,260) " fill="none" d="M376.2019958496094 241.71400451660156L380.3890075683594 242.0279998779297" stroke="#000000" stroke-width="0.25" g2gstroke="#312783"/>
<path orgstroke="#000000" orgfill="none" stroke-linecap="round" transform="translate(1.6666666666666288, 45.0) translate(5.0, 141.66666666666663) translate(0.0, -2.331987004449843) translate(3.4979805066747645, 1.1659935022249215) translate(0.0, 8.161954515574394) translate(-560.842874570186, 9.327948017799315) translate(138.75322676476537, -174.89902533373788) translate(-214.5428044093851, 58.29967511124602) translate(-127.75934877066777, -108.29125752942315) translate(-18.320388349514587, -5.7475728155339425) translate(708,260) " fill="none" d="M361.9460144042969 238.41900634765625L367.5740051269531 240.1540069580078" stroke="#000000" stroke-width="0.25" g2gstroke="#312783"/>
<path orgstroke="#000000" orgfill="none" stroke-linecap="round" transform="translate(1.6666666666666288, 45.0) translate(5.0, 141.66666666666663) translate(0.0, -2.331987004449843) translate(3.4979805066747645, 1.1659935022249215) translate(0.0, 8.161954515574394) translate(-560.842874570186, 9.327948017799315) translate(138.75322676476537, -174.89902533373788) translate(-214.5428044093851, 58.29967511124602) translate(-127.75934877066777, -108.29125752942315) translate(-18.320388349514587, -5.7475728155339425) translate(708,260) " fill="none" d="M376.0419921875 241.75100708007812L374.7640075683594 242.0229949951172" stroke="#000000" stroke-width="0.25" g2gstroke="#312783"/>
<path orgstroke="#000000" orgfill="none" stroke-linecap="round" transform="translate(1.6666666666666288, 45.0) translate(5.0, 141.66666666666663) translate(0.0, -2.331987004449843) translate(3.4979805066747645, 1.1659935022249215) translate(0.0, 8.161954515574394) translate(-560.842874570186, 9.327948017799315) translate(138.75322676476537, -174.89902533373788) translate(-214.5428044093851, 58.29967511124602) translate(-127.75934877066777, -108.29125752942315) translate(-18.320388349514587, -5.7475728155339425) translate(708,260) " fill="none" d="M376.2019958496094 241.71400451660156L376.0419921875 241.75100708007812" stroke="#000000" stroke-width="0.25" g2gstroke="#312783"/>
<path orgstroke="#000000" orgfill="none" stroke-linecap="round" transform="translate(1.6666666666666288, 45.0) translate(5.0, 141.66666666666663) translate(0.0, -2.331987004449843) translate(3.4979805066747645, 1.1659935022249215) translate(0.0, 8.161954515574394) translate(-560.842874570186, 9.327948017799315) translate(138.75322676476537, -174.89902533373788) translate(-214.5428044093851, 58.29967511124602) translate(-127.75934877066777, -108.29125752942315) translate(-18.320388349514587, -5.7475728155339425) translate(708,260) " fill="none" d="M365.9389953613281 250.68499755859375L365.9389953613281 250.68499755859375" stroke="#000000" stroke-width="0.25" g2gstroke="#312783"/>
<path orgstroke="#000000" orgfill="none" stroke-linecap="round" transform="translate(1.6666666666666288, 45.0) translate(5.0, 141.66666666666663) translate(0.0, -2.331987004449843) translate(3.4979805066747645, 1.1659935022249215) translate(0.0, 8.161954515574394) translate(-560.842874570186, 9.327948017799315) translate(138.75322676476537, -174.89902533373788) translate(-214.5428044093851, 58.29967511124602) translate(-127.75934877066777, -108.29125752942315) translate(-18.320388349514587, -5.7475728155339425) translate(708,260) " fill="none" d="M367.44000244140625 250.24899291992188L365.4330139160156 249.6510009765625" stroke="#000000" stroke-width="0.25" g2gstroke="#312783"/>
<path orgstroke="#000000" orgfill="none" stroke-linecap="round" transform="translate(1.6666666666666288, 45.0) translate(5.0, 141.66666666666663) translate(0.0, -2.331987004449843) translate(3.4979805066747645, 1.1659935022249215) translate(0.0, 8.161954515574394) translate(-560.842874570186, 9.327948017799315) translate(138.75322676476537, -174.89902533373788) translate(-214.5428044093851, 58.29967511124602) translate(-127.75934877066777, -108.29125752942315) translate(-18.320388349514587, -5.7475728155339425) translate(708,260) " fill="none" d="M374.1669921875 255.08299255371094L371.8550109863281 255.44200134277344" stroke="#000000" stroke-width="0.25" g2gstroke="#312783"/>
<path orgstroke="#000000" orgfill="none" stroke-linecap="round" transform="translate(1.6666666666666288, 45.0) translate(5.0, 141.66666666666663) translate(0.0, -2.331987004449843) translate(3.4979805066747645, 1.1659935022249215) translate(0.0, 8.161954515574394) translate(-560.842874570186, 9.327948017799315) translate(138.75322676476537, -174.89902533373788) translate(-214.5428044093851, 58.29967511124602) translate(-127.75934877066777, -108.29125752942315) translate(-18.320388349514587, -5.7475728155339425) translate(708,260) " fill="none" d="M363.42401123046875 240.97500610351562L361.9460144042969 238.41900634765625" stroke="#000000" stroke-width="0.25" g2gstroke="#312783"/>
<path orgstroke="#000000" orgfill="none" stroke-linecap="round" transform="translate(1.6666666666666288, 45.0) translate(5.0, 141.66666666666663) translate(0.0, -2.331987004449843) translate(3.4979805066747645, 1.1659935022249215) translate(0.0, 8.161954515574394) translate(-560.842874570186, 9.327948017799315) translate(138.75322676476537, -174.89902533373788) translate(-214.5428044093851, 58.29967511124602) translate(-127.75934877066777, -108.29125752942315) translate(-18.320388349514587, -5.7475728155339425) translate(708,260) " fill="none" d="M369.1510009765625 237.8000030517578L369.8450012207031 237.16900634765625L370.364013671875 237.11399841308594" stroke="#000000" stroke-width="0.25" g2gstroke="#312783"/>
<path orgstroke="#000000" orgfill="none" stroke-linecap="round" transform="translate(1.6666666666666288, 45.0) translate(5.0, 141.66666666666663) translate(0.0, -2.331987004449843) translate(3.4979805066747645, 1.1659935022249215) translate(0.0, 8.161954515574394) translate(-560.842874570186, 9.327948017799315) translate(138.75322676476537, -174.89902533373788) translate(-214.5428044093851, 58.29967511124602) translate(-127.75934877066777, -108.29125752942315) translate(-18.320388349514587, -5.7475728155339425) translate(708,260) " fill="none" d="M370.4309997558594 237.6280059814453L372.4129943847656 237.01600646972656" stroke="#000000" stroke-width="0.25" g2gstroke="#312783"/>
<path orgstroke="#000000" orgfill="none" stroke-linecap="round" transform="translate(1.6666666666666288, 45.0) translate(5.0, 141.66666666666663) translate(0.0, -2.331987004449843) translate(3.4979805066747645, 1.1659935022249215) translate(0.0, 8.161954515574394) translate(-560.842874570186, 9.327948017799315) translate(138.75322676476537, -174.89902533373788) translate(-214.5428044093851, 58.29967511124602) translate(-127.75934877066777, -108.29125752942315) translate(-18.320388349514587, -5.7475728155339425) translate(708,260) " fill="none" d="M370.4309997558594 237.6280059814453L370.7569885253906 228.80799865722656" stroke="#000000" stroke-width="0.25" g2gstroke="#312783"/>
<path orgstroke="#000000" orgfill="none" stroke-linecap="round" transform="translate(1.6666666666666288, 45.0) translate(5.0, 141.66666666666663) translate(0.0, -2.331987004449843) translate(3.4979805066747645, 1.1659935022249215) translate(0.0, 8.161954515574394) translate(-560.842874570186, 9.327948017799315) translate(138.75322676476537, -174.89902533373788) translate(-214.5428044093851, 58.29967511124602) translate(-127.75934877066777, -108.29125752942315) translate(-18.320388349514587, -5.7475728155339425) translate(708,260) " fill="none" d="M372.40399169921875 237.11700439453125L372.9200134277344 229.9739990234375" stroke="#000000" stroke-width="0.25" g2gstroke="#312783"/>
<path orgstroke="#000000" orgfill="none" stroke-linecap="round" transform="translate(1.6666666666666288, 45.0) translate(5.0, 141.66666666666663) translate(0.0, -2.331987004449843) translate(3.4979805066747645, 1.1659935022249215) translate(0.0, 8.161954515574394) translate(-560.842874570186, 9.327948017799315) translate(138.75322676476537, -174.89902533373788) translate(-214.5428044093851, 58.29967511124602) translate(-127.75934877066777, -108.29125752942315) translate(-18.320388349514587, -5.7475728155339425) translate(708,260) " fill="none" d="M372.7070007324219 237.0570068359375L373.34698486328125 236.7949981689453L373.5660095214844 236.7519989013672L374.0459899902344 236.7100067138672" stroke="#000000" stroke-width="0.25" g2gstroke="#312783"/>
<path orgstroke="#000000" orgfill="none" stroke-linecap="round" transform="translate(1.6666666666666288, 45.0) translate(5.0, 141.66666666666663) translate(0.0, -2.331987004449843) translate(3.4979805066747645, 1.1659935022249215) translate(0.0, 8.161954515574394) translate(-560.842874570186, 9.327948017799315) translate(138.75322676476537, -174.89902533373788) translate(-214.5428044093851, 58.29967511124602) translate(-127.75934877066777, -108.29125752942315) translate(-18.320388349514587, -5.7475728155339425) translate(708,260) " fill="none" d="M375.8890075683594 237.53900146484375L376.2799987792969 237.8470001220703L376.6730041503906 238.43800354003906L377.0039978027344 239.16400146484375L377.3529968261719 240.14700317382812L377.5060119628906 240.9149932861328L377.4849853515625 241.48399353027344L377.44000244140625 241.7480010986328" stroke="#000000" stroke-width="0.25" g2gstroke="#312783"/>
<path orgstroke="#000000" orgfill="none" stroke-linecap="round" transform="translate(1.6666666666666288, 45.0) translate(5.0, 141.66666666666663) translate(0.0, -2.331987004449843) translate(3.4979805066747645, 1.1659935022249215) translate(0.0, 8.161954515574394) translate(-560.842874570186, 9.327948017799315) translate(138.75322676476537, -174.89902533373788) translate(-214.5428044093851, 58.29967511124602) translate(-127.75934877066777, -108.29125752942315) translate(-18.320388349514587, -5.7475728155339425) translate(708,260) " fill="none" d="M377.2489929199219 243.0399932861328L377.04901123046875 243.47999572753906L376.8039855957031 243.78599548339844L376.5429992675781 243.9810028076172L376.322998046875 244.093994140625" stroke="#000000" stroke-width="0.25" g2gstroke="#312783"/>
</g>
</g>
</g>
</g>
</g></svg>