<svg xmlns="http://www.w3.org/2000/svg" xmlns:xlink="http://www.w3.org/1999/xlink" xmlns:x="http://ns.adobe.com/Extensibility/1.0/" xmlns:graph="http://ns.adobe.com/Graphs/1.0/" xmlns:i="http://ns.adobe.com/AdobeIllustrator/10.0/" xmlns:etg="http://www.eurotaxglass.com/etg/evd/" etg:dataTimestamp="1539068912893" contentScriptType="text/ecmascript" zoomAndPan="magnify" contentStyleType="text/css" id="Layer_1" enable-background="new 0 0 1841.891 1595.279" version="1.1" xml:space="preserve" width="1841.891px" preserveAspectRatio="xMidYMid meet" viewBox="0 0 1841.891 1595.279" height="1595.279px" x="0px" y="0px"><g xmlns="http://www.w3.org/2000/svg" objecttype="PS" tooltip="#UNDEFINED" id="71">
<g onmouseover="notifyOwner(AGV_OBJECT_MOUSEOVER, '71(PS)')" transform="translate(-9.433746356535266E-6, 3.356933575560106E-7) translate(-35.71980609130861, -13.200809143066408) translate(44.708733184814434, 94.79042849731445) matrix(0.6117410612267968 0 0 0.6117410612267968 0.2921243287958965 0.477310974878083) translate(-92,-34) " onclick="clickZoom(evt); notifyOwner(AGV_OBJECT_MOUSECLICK, '71(PS)')" onmouseout="notifyOwner(AGV_OBJECT_MOUSEOUT, '71(PS)')" tooltip="#UNDEFINED" id="71-Graphic" objecttype="GRAPHIC">
<g zvalue="72">
<g zvalue="5">
<g>
<g>
<g id="70::XMLID_1_">
<g>
<path orgstroke="#000000" orgfill="#ffffff" transform="translate(1.6666666666666288, 45.0) translate(5.0, 141.66666666666663) translate(-1.1659935022249215, -6.995961013349529) translate(2.331987004449843, 3.4979805066747645) translate(-6.995961013349529, 0.0) translate(-318.31622610740294, -206.38084989381065) translate(279.8384405339806, 277.50645352953075) translate(-65,-56) translate(-135.7864793701172, -15.95862927246094) translate(-23.810883895874042, -7.293701173693989E-6) translate(-637.1092790527343, 18.13041815948486) translate(-16.387655096749086, -53.04425202368759) translate(-41.48582895271852, -126.97177952195636) translate(641.1446292692842, -11.314316987104917) translate(299.3890529476578, 250.5347723411361) translate(-24.855084067253813, -6.213771016813496) translate(0.5294176177978329, 3.356933575560106E-7) translate(-3.5913785858154483, 15.975834228515623) translate(0.0, 43.22552223049013) translate(8.387041626811538, 1.290314096432553)" fill="#ffffff" g2gfill="#ECC35D" d="M403.216,352.849l0.21,0.7l0.02,0.5      l-0.229,0.16l-0.46,0.14l-0.313,0.11c-1.813,0.68-3.188,2.14-4.35,3.646c-0.5,5.563,2.04,11.771-0.4,16.869      c-7.5,1.16-15.313,0.53-22.92,0.396c-1.93-1.524-0.25-5.314-3.313-5.809c-0.13,0-0.271,0-0.38,0H370.9l-2.77,0.188h-1.063      l-1-0.313l-0.813-1.063l-0.688-1.857l-0.438-2.063l-0.563-4.271c-0.063-0.563-0.354-1.17-0.214-2.063      c0.28-0.229,0.563-0.462,0.813-0.712c12.72-0.866,25.54-2.172,37.64-5.094l0.813-0.194l0.313,0.145l0.146,0.229L403.216,352.849      z M395.015,358.769v-0.46l-0.25-0.54l-0.84-0.04l-14.25,1.79l-0.79,0.62l-0.5,0.8l-2.66,5.83l-0.42,0.54l-0.64,0.46l-0.146,0.5      l0.79,0.54l0.92,0.34l0.87,0.12l1.21,0.04l10.67-0.37l2-0.46l0.66-0.58l1-1.13l0.54-1.37l0.24-0.55l1.25-4.96L395.015,358.769z" stroke="#000000" outline-element="true" stroke-width="0.5" g2gstroke="#312783" stroke-miterlimit="10"/>
</g>
</g>
</g>
<path orgstroke="#000000" orgfill="none" stroke-linecap="round" transform="translate(1.6666666666666288, 45.0) translate(5.0, 141.66666666666663) translate(-1.1659935022249215, -6.995961013349529) translate(2.331987004449843, 3.4979805066747645) translate(-6.995961013349529, 0.0) translate(-318.31622610740294, -206.38084989381065) translate(279.8384405339806, 277.50645352953075) translate(-65,-56) translate(-135.7864793701172, -15.95862927246094) translate(-23.810883895874042, -7.293701173693989E-6) translate(-637.1092790527343, 18.13041815948486) translate(-16.387655096749086, -53.04425202368759) translate(-41.48582895271852, -126.97177952195636) translate(641.1446292692842, -11.314316987104917) translate(299.3890529476578, 250.5347723411361) translate(-24.855084067253813, -6.213771016813496) translate(0.5294176177978329, 3.356933575560106E-7) translate(-3.5913785858154483, 15.975834228515623) translate(0.0, 43.22552223049013) translate(8.387041626811538, 1.290314096432553)" fill="none" d="M374.468994140625 368.02398681640625L374.4330139160156 368.6449890136719L374.3080139160156 369.5199890136719L375.1000061035156 370.06201171875L376.0169982910156 370.3949890136719L376.8919982910156 370.5199890136719L377.8800048828125 370.5539855957031" stroke="#000000" stroke-width="0.25" g2gstroke="#312783"/>
<path orgstroke="#000000" orgfill="none" stroke-linecap="round" transform="translate(1.6666666666666288, 45.0) translate(5.0, 141.66666666666663) translate(-1.1659935022249215, -6.995961013349529) translate(2.331987004449843, 3.4979805066747645) translate(-6.995961013349529, 0.0) translate(-318.31622610740294, -206.38084989381065) translate(279.8384405339806, 277.50645352953075) translate(-65,-56) translate(-135.7864793701172, -15.95862927246094) translate(-23.810883895874042, -7.293701173693989E-6) translate(-637.1092790527343, 18.13041815948486) translate(-16.387655096749086, -53.04425202368759) translate(-41.48582895271852, -126.97177952195636) translate(641.1446292692842, -11.314316987104917) translate(299.3890529476578, 250.5347723411361) translate(-24.855084067253813, -6.213771016813496) translate(0.5294176177978329, 3.356933575560106E-7) translate(-3.5913785858154483, 15.975834228515623) translate(0.0, 43.22552223049013) translate(8.387041626811538, 1.290314096432553)" fill="none" d="M380.79901123046875 370.468994140625L388.7669982910156 370.18701171875L390.7669982910156 369.72900390625L391.4330139160156 369.1449890136719L392.4330139160156 368.0199890136719L392.9750061035156 366.6449890136719L393.3420104980469 365.218994140625" stroke="#000000" stroke-width="0.25" g2gstroke="#312783"/>
<path orgstroke="#000000" orgfill="none" stroke-linecap="round" transform="translate(1.6666666666666288, 45.0) translate(5.0, 141.66666666666663) translate(-1.1659935022249215, -6.995961013349529) translate(2.331987004449843, 3.4979805066747645) translate(-6.995961013349529, 0.0) translate(-318.31622610740294, -206.38084989381065) translate(279.8384405339806, 277.50645352953075) translate(-65,-56) translate(-135.7864793701172, -15.95862927246094) translate(-23.810883895874042, -7.293701173693989E-6) translate(-637.1092790527343, 18.13041815948486) translate(-16.387655096749086, -53.04425202368759) translate(-41.48582895271852, -126.97177952195636) translate(641.1446292692842, -11.314316987104917) translate(299.3890529476578, 250.5347723411361) translate(-24.855084067253813, -6.213771016813496) translate(0.5294176177978329, 3.356933575560106E-7) translate(-3.5913785858154483, 15.975834228515623) translate(0.0, 43.22552223049013) translate(8.387041626811538, 1.290314096432553)" fill="none" d="M377.8800048828125 370.5539855957031L378.1000061035156 370.56201171875" stroke="#000000" stroke-width="0.25" g2gstroke="#312783"/>
<path orgstroke="#000000" orgfill="none" stroke-linecap="round" transform="translate(1.6666666666666288, 45.0) translate(5.0, 141.66666666666663) translate(-1.1659935022249215, -6.995961013349529) translate(2.331987004449843, 3.4979805066747645) translate(-6.995961013349529, 0.0) translate(-318.31622610740294, -206.38084989381065) translate(279.8384405339806, 277.50645352953075) translate(-65,-56) translate(-135.7864793701172, -15.95862927246094) translate(-23.810883895874042, -7.293701173693989E-6) translate(-637.1092790527343, 18.13041815948486) translate(-16.387655096749086, -53.04425202368759) translate(-41.48582895271852, -126.97177952195636) translate(641.1446292692842, -11.314316987104917) translate(299.3890529476578, 250.5347723411361) translate(-24.855084067253813, -6.213771016813496) translate(0.5294176177978329, 3.356933575560106E-7) translate(-3.5913785858154483, 15.975834228515623) translate(0.0, 43.22552223049013) translate(8.387041626811538, 1.290314096432553)" fill="none" d="M369.219,359.099   c-1.595,0.124-3.189,0.238-4.783,0.347c-0.132,0.146-0.271,0.271-0.418,0.396" stroke="#000000" stroke-width="0.25" g2gstroke="#312783"/>
<path orgstroke="#000000" orgfill="none" stroke-linecap="round" transform="translate(1.6666666666666288, 45.0) translate(5.0, 141.66666666666663) translate(-1.1659935022249215, -6.995961013349529) translate(2.331987004449843, 3.4979805066747645) translate(-6.995961013349529, 0.0) translate(-318.31622610740294, -206.38084989381065) translate(279.8384405339806, 277.50645352953075) translate(-65,-56) translate(-135.7864793701172, -15.95862927246094) translate(-23.810883895874042, -7.293701173693989E-6) translate(-637.1092790527343, 18.13041815948486) translate(-16.387655096749086, -53.04425202368759) translate(-41.48582895271852, -126.97177952195636) translate(641.1446292692842, -11.314316987104917) translate(299.3890529476578, 250.5347723411361) translate(-24.855084067253813, -6.213771016813496) translate(0.5294176177978329, 3.356933575560106E-7) translate(-3.5913785858154483, 15.975834228515623) translate(0.0, 43.22552223049013) translate(8.387041626811538, 1.290314096432553)" fill="none" d="M379.599,358.135   c-2.354,0.261-4.726,0.49-7.095,0.688" stroke="#000000" stroke-width="0.25" g2gstroke="#312783"/>
<path orgstroke="#000000" orgfill="none" stroke-linecap="round" transform="translate(1.6666666666666288, 45.0) translate(5.0, 141.66666666666663) translate(-1.1659935022249215, -6.995961013349529) translate(2.331987004449843, 3.4979805066747645) translate(-6.995961013349529, 0.0) translate(-318.31622610740294, -206.38084989381065) translate(279.8384405339806, 277.50645352953075) translate(-65,-56) translate(-135.7864793701172, -15.95862927246094) translate(-23.810883895874042, -7.293701173693989E-6) translate(-637.1092790527343, 18.13041815948486) translate(-16.387655096749086, -53.04425202368759) translate(-41.48582895271852, -126.97177952195636) translate(641.1446292692842, -11.314316987104917) translate(299.3890529476578, 250.5347723411361) translate(-24.855084067253813, -6.213771016813496) translate(0.5294176177978329, 3.356933575560106E-7) translate(-3.5913785858154483, 15.975834228515623) translate(0.0, 43.22552223049013) translate(8.387041626811538, 1.290314096432553)" fill="none" d="M402.081,354.346   c-6.236,1.508-12.658,2.589-19.158,3.396" stroke="#000000" stroke-width="0.25" g2gstroke="#312783"/>
<path orgstroke="#000000" orgfill="none" stroke-linecap="round" transform="translate(1.6666666666666288, 45.0) translate(5.0, 141.66666666666663) translate(-1.1659935022249215, -6.995961013349529) translate(2.331987004449843, 3.4979805066747645) translate(-6.995961013349529, 0.0) translate(-318.31622610740294, -206.38084989381065) translate(279.8384405339806, 277.50645352953075) translate(-65,-56) translate(-135.7864793701172, -15.95862927246094) translate(-23.810883895874042, -7.293701173693989E-6) translate(-637.1092790527343, 18.13041815948486) translate(-16.387655096749086, -53.04425202368759) translate(-41.48582895271852, -126.97177952195636) translate(641.1446292692842, -11.314316987104917) translate(299.3890529476578, 250.5347723411361) translate(-24.855084067253813, -6.213771016813496) translate(0.5294176177978329, 3.356933575560106E-7) translate(-3.5913785858154483, 15.975834228515623) translate(0.0, 43.22552223049013) translate(8.387041626811538, 1.290314096432553)" fill="none" d="M375.63299560546875 360.385009765625L368.84100341796875 360.760009765625L367.17401123046875 360.802001953125L366.13299560546875 361.052001953125L365.75799560546875 361.510009765625L365.42401123046875 362.135009765625L365.67401123046875 362.760009765625L366.17401123046875 363.260009765625L366.92401123046875 363.468994140625L369.00799560546875 363.427001953125L372.67401123046875 363.260009765625L374.96600341796875 362.927001953125L375.63299560546875 362.385009765625L375.96600341796875 361.802001953125L376.04998779296875 361.052001953125L375.92498779296875 360.593994140625Z" stroke="#000000" stroke-width="0.25" g2gstroke="#312783"/>
<path orgstroke="#000000" orgfill="none" stroke-linecap="round" transform="translate(1.6666666666666288, 45.0) translate(5.0, 141.66666666666663) translate(-1.1659935022249215, -6.995961013349529) translate(2.331987004449843, 3.4979805066747645) translate(-6.995961013349529, 0.0) translate(-318.31622610740294, -206.38084989381065) translate(279.8384405339806, 277.50645352953075) translate(-65,-56) translate(-135.7864793701172, -15.95862927246094) translate(-23.810883895874042, -7.293701173693989E-6) translate(-637.1092790527343, 18.13041815948486) translate(-16.387655096749086, -53.04425202368759) translate(-41.48582895271852, -126.97177952195636) translate(641.1446292692842, -11.314316987104917) translate(299.3890529476578, 250.5347723411361) translate(-24.855084067253813, -6.213771016813496) translate(0.5294176177978329, 3.356933575560106E-7) translate(-3.5913785858154483, 15.975834228515623) translate(0.0, 43.22552223049013) translate(8.387041626811538, 1.290314096432553)" fill="none" d="M367.50799560546875 366.635009765625L369.50799560546875 366.510009765625L370.17401123046875 366.802001953125L370.34100341796875 367.135009765625L370.46600341796875 368.218994140625L370.17401123046875 368.510009765625L369.75799560546875 368.843994140625L367.79901123046875 368.843994140625L367.13299560546875 368.593994140625L366.92401123046875 368.093994140625L366.88299560546875 367.010009765625L367.00799560546875 366.760009765625Z" stroke="#000000" stroke-width="0.25" g2gstroke="#312783"/>
<path orgstroke="#000000" orgfill="none" stroke-linecap="round" transform="translate(1.6666666666666288, 45.0) translate(5.0, 141.66666666666663) translate(-1.1659935022249215, -6.995961013349529) translate(2.331987004449843, 3.4979805066747645) translate(-6.995961013349529, 0.0) translate(-318.31622610740294, -206.38084989381065) translate(279.8384405339806, 277.50645352953075) translate(-65,-56) translate(-135.7864793701172, -15.95862927246094) translate(-23.810883895874042, -7.293701173693989E-6) translate(-637.1092790527343, 18.13041815948486) translate(-16.387655096749086, -53.04425202368759) translate(-41.48582895271852, -126.97177952195636) translate(641.1446292692842, -11.314316987104917) translate(299.3890529476578, 250.5347723411361) translate(-24.855084067253813, -6.213771016813496) translate(0.5294176177978329, 3.356933575560106E-7) translate(-3.5913785858154483, 15.975834228515623) translate(0.0, 43.22552223049013) translate(8.387041626811538, 1.290314096432553)" fill="none" d="M382.5899963378906 374.2200012207031L379.92498779296875 374.260009765625L378.79998779296875 374.218994140625L378.00799560546875 373.968994140625L377.71600341796875 373.468994140625L377.67498779296875 372.968994140625L378.21600341796875 372.552001953125L378.84100341796875 372.510009765625L392.46600341796875 372.010009765625L393.09100341796875 372.218994140625L393.59100341796875 373.135009765625L393.29998779296875 373.802001953125L392.88299560546875 374.052001953125L391.92498779296875 374.093994140625L385.2149963378906 374.1839904785156" stroke="#000000" stroke-width="0.25" g2gstroke="#312783"/>
</g>
</g>
</g>
</g>
</g></svg>