<svg xmlns="http://www.w3.org/2000/svg" xmlns:xlink="http://www.w3.org/1999/xlink" xmlns:x="http://ns.adobe.com/Extensibility/1.0/" xmlns:graph="http://ns.adobe.com/Graphs/1.0/" xmlns:i="http://ns.adobe.com/AdobeIllustrator/10.0/" xmlns:etg="http://www.eurotaxglass.com/etg/evd/" etg:dataTimestamp="1539068912893" contentScriptType="text/ecmascript" zoomAndPan="magnify" contentStyleType="text/css" id="Layer_1" enable-background="new 0 0 1841.891 1595.279" version="1.1" xml:space="preserve" width="1841.891px" preserveAspectRatio="xMidYMid meet" viewBox="0 0 1841.891 1595.279" height="1595.279px" x="0px" y="0px"><g xmlns="http://www.w3.org/2000/svg" objecttype="PS" tooltip="#UNDEFINED" id="8">
<g onmouseover="notifyOwner(AGV_OBJECT_MOUSEOVER, '8(PS)')" transform="translate(-9.433746356535266E-6, 3.356933575560106E-7) translate(-35.71980609130861, -13.200809143066408) translate(44.708733184814434, 94.79042849731445) matrix(0.6117410612267968 0 0 0.6117410612267968 0.2921243287958965 0.477310974878083) translate(-92,-34) " onclick="clickZoom(evt); notifyOwner(AGV_OBJECT_MOUSECLICK, '8(PS)')" onmouseout="notifyOwner(AGV_OBJECT_MOUSEOUT, '8(PS)')" tooltip="#UNDEFINED" id="8-Graphic" objecttype="GRAPHIC">
<g zvalue="7">
<g zvalue="13">
<g zvalue="84">
<g zvalue="49">
<g>
<path orgstroke="#000000" orgfill="#ffffff" transform="translate(-295.5923495625341, 69.5511410735374) translate(13.523832986521029, -13.523832986521171) translate(18.008475280465063, -9.004237640232475) translate(185.48729538878888, 48.62288325725535) translate(724,-30) translate(-518.5915025634765, -83.33211865234375) translate(218.24351802102694, -14.96024115466713) translate(-38.66936120275477, -34.608195414337615) translate(-170.84631466171118, 17.55270356113465) translate(346.37335027305835, 152.12343086316753) translate(-10.596302996758254, 4.709467998559205) translate(64.88523159790037, 2.6585086364746076) translate(-84.87499999999949, -18.374999999999886) translate(-27.778225806451587, 17.737903225806463) matrix(-1 0 0 1 1309.3992919921875 0) translate(9.139531345100409, 0.6687461959829193) translate(-11.071464800162289, -3.046510448366803) translate(217.2231751477036, -87.67105012388032) translate(20,20) translate(5.0, 0.625) translate(-16.0, 31.0) matrix(-1 0 0 1 860.8167724609375 0) translate(-121.0, 91.0) translate(10.0, 10.00006103515625)" fill="#ffffff" g2gfill="#ECF5E5" d="M536.85498046875 314.9339904785156L536.594970703125 322.22100830078125L539.3140258789062 323.7439880371094L546.0579833984375 319.9939880371094L546.2239990234375 312.9330139160156L543.39599609375 311.55999755859375Z" stroke="#000000" outline-element="true" stroke-width="0.5" g2gstroke="#312783" stroke-miterlimit="10"/>
<path orgstroke="#000000" orgfill="none" transform="translate(-295.5923495625341, 69.5511410735374) translate(13.523832986521029, -13.523832986521171) translate(18.008475280465063, -9.004237640232475) translate(185.48729538878888, 48.62288325725535) translate(724,-30) translate(-518.5915025634765, -83.33211865234375) translate(218.24351802102694, -14.96024115466713) translate(-38.66936120275477, -34.608195414337615) translate(-170.84631466171118, 17.55270356113465) translate(346.37335027305835, 152.12343086316753) translate(-10.596302996758254, 4.709467998559205) translate(64.88523159790037, 2.6585086364746076) translate(-84.87499999999949, -18.374999999999886) translate(-27.778225806451587, 17.737903225806463) matrix(-1 0 0 1 1309.3992919921875 0) translate(9.139531345100409, 0.6687461959829193) translate(-11.071464800162289, -3.046510448366803) translate(217.2231751477036, -87.67105012388032) translate(20,20) translate(5.0, 0.625) translate(-16.0, 31.0) matrix(-1 0 0 1 860.8167724609375 0) translate(-121.0, 91.0) translate(10.0, 10.00006103515625)" fill="none" d="M537.1420288085938 315.1310119628906L539.6380004882812 316.4079895019531L546.1420288085938 312.92999267578125" stroke="#000000" stroke-width="0.25" g2gstroke="#312783" stroke-miterlimit="10"/>
<path orgstroke="#000000" orgfill="none" transform="translate(-295.5923495625341, 69.5511410735374) translate(13.523832986521029, -13.523832986521171) translate(18.008475280465063, -9.004237640232475) translate(185.48729538878888, 48.62288325725535) translate(724,-30) translate(-518.5915025634765, -83.33211865234375) translate(218.24351802102694, -14.96024115466713) translate(-38.66936120275477, -34.608195414337615) translate(-170.84631466171118, 17.55270356113465) translate(346.37335027305835, 152.12343086316753) translate(-10.596302996758254, 4.709467998559205) translate(64.88523159790037, 2.6585086364746076) translate(-84.87499999999949, -18.374999999999886) translate(-27.778225806451587, 17.737903225806463) matrix(-1 0 0 1 1309.3992919921875 0) translate(9.139531345100409, 0.6687461959829193) translate(-11.071464800162289, -3.046510448366803) translate(217.2231751477036, -87.67105012388032) translate(20,20) translate(5.0, 0.625) translate(-16.0, 31.0) matrix(-1 0 0 1 860.8167724609375 0) translate(-121.0, 91.0) translate(10.0, 10.00006103515625)" fill="none" d="M539.2789916992188 323.5350036621094L539.510986328125 316.510009765625" stroke="#000000" stroke-width="0.25" g2gstroke="#312783" stroke-miterlimit="10"/>
<ellipse orgstroke="#000000" orgfill="none" transform="translate(-295.5923495625341, 69.5511410735374) translate(13.523832986521029, -13.523832986521171) translate(18.008475280465063, -9.004237640232475) translate(185.48729538878888, 48.62288325725535) translate(724,-30) translate(-518.5915025634765, -83.33211865234375) translate(218.24351802102694, -14.96024115466713) translate(-38.66936120275477, -34.608195414337615) translate(-170.84631466171118, 17.55270356113465) translate(346.37335027305835, 152.12343086316753) translate(-10.596302996758254, 4.709467998559205) translate(64.88523159790037, 2.6585086364746076) translate(-84.87499999999949, -18.374999999999886) translate(-27.778225806451587, 17.737903225806463) matrix(-1 0 0 1 1309.3992919921875 0) translate(9.139531345100409, 0.6687461959829193) translate(-11.071464800162289, -3.046510448366803) translate(217.2231751477036, -87.67105012388032) translate(20,20) translate(5.0, 0.625) translate(-16.0, 31.0) matrix(-1 0 0 1 860.8167724609375 0) translate(-121.0, 91.0) translate(10.0, 10.00006103515625) matrix(-0.8759 -0.4826 0.4826 -0.8759 864.5203 859.0019)" fill="none" rx="1.805" cx="542.749" ry="3.066" cy="318.303" stroke="#000000" stroke-width="0.25" g2gstroke="#312783" stroke-miterlimit="10"/>
<ellipse orgstroke="#000000" orgfill="none" transform="translate(-295.5923495625341, 69.5511410735374) translate(13.523832986521029, -13.523832986521171) translate(18.008475280465063, -9.004237640232475) translate(185.48729538878888, 48.62288325725535) translate(724,-30) translate(-518.5915025634765, -83.33211865234375) translate(218.24351802102694, -14.96024115466713) translate(-38.66936120275477, -34.608195414337615) translate(-170.84631466171118, 17.55270356113465) translate(346.37335027305835, 152.12343086316753) translate(-10.596302996758254, 4.709467998559205) translate(64.88523159790037, 2.6585086364746076) translate(-84.87499999999949, -18.374999999999886) translate(-27.778225806451587, 17.737903225806463) matrix(-1 0 0 1 1309.3992919921875 0) translate(9.139531345100409, 0.6687461959829193) translate(-11.071464800162289, -3.046510448366803) translate(217.2231751477036, -87.67105012388032) translate(20,20) translate(5.0, 0.625) translate(-16.0, 31.0) matrix(-1 0 0 1 860.8167724609375 0) translate(-121.0, 91.0) translate(10.0, 10.00006103515625) matrix(-0.8752 -0.4838 0.4838 -0.8752 863.6854 859.3757)" fill="none" rx="1.152" cx="542.705" ry="1.96" cy="318.27" stroke="#000000" stroke-width="0.25" g2gstroke="#312783" stroke-miterlimit="10"/>
</g>
</g>
</g>
</g>
</g>
</g>
</g></svg>