<svg xmlns="http://www.w3.org/2000/svg" xmlns:xlink="http://www.w3.org/1999/xlink" xmlns:x="http://ns.adobe.com/Extensibility/1.0/" xmlns:graph="http://ns.adobe.com/Graphs/1.0/" xmlns:i="http://ns.adobe.com/AdobeIllustrator/10.0/" xmlns:etg="http://www.eurotaxglass.com/etg/evd/" etg:dataTimestamp="1539068912893" contentScriptType="text/ecmascript" zoomAndPan="magnify" contentStyleType="text/css" id="Layer_1" enable-background="new 0 0 1841.891 1595.279" version="1.1" xml:space="preserve" width="1841.891px" preserveAspectRatio="xMidYMid meet" viewBox="0 0 1841.891 1595.279" height="1595.279px" x="0px" y="0px"><g xmlns="http://www.w3.org/2000/svg" objecttype="PS" tooltip="#UNDEFINED" id="81">
<g onmouseover="notifyOwner(AGV_OBJECT_MOUSEOVER, '81(PS)')" transform="translate(-9.433746356535266E-6, 3.356933575560106E-7) translate(-35.71980609130861, -13.200809143066408) translate(44.708733184814434, 94.79042849731445) matrix(0.6117410612267968 0 0 0.6117410612267968 0.2921243287958965 0.477310974878083) translate(-92,-34) " onclick="clickZoom(evt); notifyOwner(AGV_OBJECT_MOUSECLICK, '81(PS)')" onmouseout="notifyOwner(AGV_OBJECT_MOUSEOUT, '81(PS)')" tooltip="#UNDEFINED" id="81-Graphic" objecttype="GRAPHIC">
<g zvalue="82">
<g zvalue="31">
<g zvalue="0">
<g>
<path orgstroke="#000000" orgfill="#ffffff" transform="translate(1.6666666666666288, 45.0) translate(5.0, 141.66666666666663) translate(-1.1659935022249215, -6.995961013349529) translate(2.331987004449843, 3.4979805066747645) translate(-6.995961013349529, 0.0) translate(-318.31622610740294, -206.38084989381065) translate(279.8384405339806, 277.50645352953075) translate(-65,-56) translate(-135.7864793701172, -15.95862927246094) translate(-23.810883895874042, -7.293701173693989E-6) translate(-637.1092790527343, 18.13041815948486) translate(-3.3541126168383926, 1.341645046735266) translate(2.6832900934707595, 0.670822523367633) translate(-48.97004420583971, -139.5310848604745) translate(-37.56606130858927, 18.783030654294635) translate(67.75307486013412, 42.93264149553056) translate(25.491255887971192, 71.77801000034026) translate(-8.82777467181677, 73.14441870934016) translate(21.25, 0.0) translate(670.0, -93.75) translate(12.5, 12.50006103515625)" fill="#ffffff" g2gfill="#ECC35D" d="M532.966,534.816   c-0.123,0.59-0.342,1.639-0.449,2.16c-0.154,0.75-0.256,1.152-0.74,1.508c-1.139,0.83-2.303,1.594-4.234,2.189   c-19.178,5.896-35.41,7.994-49.75,7.994c-13.309,0-24.986-1.807-35.873-4.055c-19.139-3.953-44.68-14.658-70.072-29.369   c-2.264-1.314-4.424-2.553-6.49-3.738c-17.459-10.025-27.998-16.078-38.443-29.402c-4.941-6.303-8.557-13.504-10.803-21.998   l-0.044-0.127c-4.808-14.264-5.247-31.359-2.841-51.904c0.036-0.309,0.152-0.518,0.477-0.33l0.639,0.369   c0.287,0.164,0.287,0.379,0.287,0.738v1.58c0,0.389,0.17,0.564,0.535,0.775l6.074,3.502c0.355,0.205,0.525,0.508,0.498,1.018   c-0.346,6.645-0.994,13.232-0.99,18.807c0.475,17.322,2.732,29.164,10.629,39.238c9.766,12.457,19.371,17.973,36.805,27.984   c2.113,1.213,4.217,2.525,6.512,3.75c47.042,25.127,66.483,31.127,102.626,33.543c7.406,0.496,31.859-1.73,47.438-6.146   c0.568-0.162,1.066-0.137,1.484,0.105l2.988,1.791c0.348,0.199,0.512,0.232,0.906,0.004c0.451-0.26,0.863-0.521,1.242-0.814   c0.215-0.162,0.445-0.313,0.848-0.08l0.438,0.252C532.988,534.349,533.07,534.32,532.966,534.816z" stroke="#000000" outline-element="true" stroke-width="0.5" g2gstroke="#312783" stroke-miterlimit="10"/>
<path stroke-linecap="round" orgstroke="#000000" orgfill="none" transform="translate(1.6666666666666288, 45.0) translate(5.0, 141.66666666666663) translate(-1.1659935022249215, -6.995961013349529) translate(2.331987004449843, 3.4979805066747645) translate(-6.995961013349529, 0.0) translate(-318.31622610740294, -206.38084989381065) translate(279.8384405339806, 277.50645352953075) translate(-65,-56) translate(-135.7864793701172, -15.95862927246094) translate(-23.810883895874042, -7.293701173693989E-6) translate(-637.1092790527343, 18.13041815948486) translate(-3.3541126168383926, 1.341645046735266) translate(2.6832900934707595, 0.670822523367633) translate(-48.97004420583971, -139.5310848604745) translate(-37.56606130858927, 18.783030654294635) translate(67.75307486013412, 42.93264149553056) translate(25.491255887971192, 71.77801000034026) translate(-8.82777467181677, 73.14441870934016) translate(21.25, 0.0) translate(670.0, -93.75) translate(12.5, 12.50006103515625)" fill="none" stroke-linejoin="round" d="   M314.604,408.476c-3.707,31.98,0.098,53.219,12.309,68.793c10.445,13.324,20.984,19.379,38.443,29.402   c2.066,1.188,4.227,2.426,6.49,3.738c25.394,14.711,50.935,25.416,70.072,29.369c10.887,2.248,22.564,4.055,35.873,4.055   c14.34,0,30.572-2.098,49.75-7.994c0.85-0.262,1.965-0.736,2.592-1.037" stroke="#000000" stroke-width="0.25" g2gstroke="#312783" stroke-miterlimit="10"/>
<path stroke-linecap="round" orgstroke="#000000" orgfill="none" transform="translate(1.6666666666666288, 45.0) translate(5.0, 141.66666666666663) translate(-1.1659935022249215, -6.995961013349529) translate(2.331987004449843, 3.4979805066747645) translate(-6.995961013349529, 0.0) translate(-318.31622610740294, -206.38084989381065) translate(279.8384405339806, 277.50645352953075) translate(-65,-56) translate(-135.7864793701172, -15.95862927246094) translate(-23.810883895874042, -7.293701173693989E-6) translate(-637.1092790527343, 18.13041815948486) translate(-3.3541126168383926, 1.341645046735266) translate(2.6832900934707595, 0.670822523367633) translate(-48.97004420583971, -139.5310848604745) translate(-37.56606130858927, 18.783030654294635) translate(67.75307486013412, 42.93264149553056) translate(25.491255887971192, 71.77801000034026) translate(-8.82777467181677, 73.14441870934016) translate(21.25, 0.0) translate(670.0, -93.75) translate(12.5, 12.50006103515625)" fill="none" stroke-linejoin="round" d="   M314.75,410.873c-0.922,7.896-1.51,15.529-1.506,22.193" stroke="#000000" stroke-width="0.25" g2gstroke="#312783" stroke-miterlimit="10"/>
<path stroke-linecap="round" orgstroke="#000000" orgfill="none" transform="translate(1.6666666666666288, 45.0) translate(5.0, 141.66666666666663) translate(-1.1659935022249215, -6.995961013349529) translate(2.331987004449843, 3.4979805066747645) translate(-6.995961013349529, 0.0) translate(-318.31622610740294, -206.38084989381065) translate(279.8384405339806, 277.50645352953075) translate(-65,-56) translate(-135.7864793701172, -15.95862927246094) translate(-23.810883895874042, -7.293701173693989E-6) translate(-637.1092790527343, 18.13041815948486) translate(-3.3541126168383926, 1.341645046735266) translate(2.6832900934707595, 0.670822523367633) translate(-48.97004420583971, -139.5310848604745) translate(-37.56606130858927, 18.783030654294635) translate(67.75307486013412, 42.93264149553056) translate(25.491255887971192, 71.77801000034026) translate(-8.82777467181677, 73.14441870934016) translate(21.25, 0.0) translate(670.0, -93.75) translate(12.5, 12.50006103515625)" fill="none" stroke-linejoin="round" d="   M316.065,459.978c2.242,6.648,5.435,12.686,9.731,18.164c11.873,15.146,23.961,21.104,45.338,33.494   c25.125,14.557,50.772,25.455,70.497,29.529c18.102,3.74,45.98,8.436,86.328-3.973c2.395-0.736,3.809-1.557,4.984-2.697" stroke="#000000" stroke-width="0.25" g2gstroke="#312783" stroke-miterlimit="10"/>
</g>
</g>
</g>
</g>
</g>
</g></svg>