<svg xmlns="http://www.w3.org/2000/svg" xmlns:xlink="http://www.w3.org/1999/xlink" xmlns:etg="http://www.eurotaxglass.com/etg/evd/" etg:dataTimestamp="1539068912893" contentScriptType="text/ecmascript" zoomAndPan="magnify" contentStyleType="text/css" id="Layer_1" enable-background="new 0 0 1841.891 1595.279" version="1.1" width="1841.891px" xml:space="preserve" preserveAspectRatio="xMidYMid meet" viewBox="0 0 1841.891 1595.279" height="1595.279px" x="0px" y="0px"><g xmlns="http://www.w3.org/2000/svg" objecttype="PS" tooltip="#UNDEFINED" id="1">
<g onmouseover="notifyOwner(AGV_OBJECT_MOUSEOVER, '1(PS)')" onclick="clickZoom(evt); notifyOwner(AGV_OBJECT_MOUSECLICK, '1(PS)')" onmouseout="notifyOwner(AGV_OBJECT_MOUSEOUT, '1(PS)')" tooltip="#UNDEFINED" id="1-Graphic" objecttype="GRAPHIC">
<g>
	<polyline orgstroke="#000000" orgfill="#ffffff" points="520.74,439.929 498.45,452.929    494.321,454.307 490.531,454.649 486.397,453.966 480.884,452.237 471.235,450.514 467.444,450.174 461.24,450.859    454.694,449.825 449.867,447.76 417.478,429.15 414.722,427.43 414.031,425.702 413.687,421.924 413.687,416.758 411.993,408.861    411.685,408.56 411.49,408.399 411.19,408.216 410.08,407.059 404.712,396.137 404.513,395.392 404.448,391.383 404.609,390.857    404.773,390.385 405.331,389.609 405.837,389.111 406.378,388.827 431.81,372.816 434.262,372.133 456.763,369.883 461.24,370.57    526.992,403.937 529.033,406.592 533.775,417.141 533.864,418.058 533.178,422.605 532.858,423.479 526.282,427.515    525.853,428.299 525.597,429.15 524.818,435.44 523.95,437.258 523.269,438.466 520.74,439.929  " fill="#ffffff" g2gfill="#ECF5E4" outline-element="true" stroke="#000000" stroke-width="0.5" g2gstroke="#312783" stroke-miterlimit="10"/>
	<path orgstroke="#000000" orgfill="none" fill="none" d="M410.611,388.008   c0.146-0.039,0.313-0.063,0.479-0.063c0.688,0.005,1.258,0.398,1.255,0.884c-0.003,0.482-0.566,0.874-1.262,0.869   c-0.694-0.003-1.271-0.396-1.271-0.884c0.02-0.174,0.078-0.341,0.207-0.479" stroke="#000000" stroke-width="0.25" g2gstroke="#312783" stroke-miterlimit="10"/>
	<path orgstroke="#000000" orgfill="none" fill="none" d="M432.156,374.519   c0.148-0.04,0.313-0.063,0.48-0.063c0.688,0.006,1.258,0.396,1.256,0.885c-0.004,0.479-0.567,0.874-1.262,0.87   c-0.695-0.005-1.271-0.398-1.271-0.896c0.001-0.176,0.076-0.34,0.208-0.479" stroke="#000000" stroke-width="0.25" g2gstroke="#312783" stroke-miterlimit="10"/>
	<path orgstroke="#000000" orgfill="none" fill="none" d="M457.783,371.341   c0.149-0.04,0.313-0.065,0.481-0.065c0.688,0.004,1.257,0.4,1.254,0.883c-0.003,0.485-0.566,0.874-1.262,0.872   c-0.694-0.005-1.271-0.396-1.269-0.883c0-0.178,0.072-0.34,0.205-0.479" stroke="#000000" stroke-width="0.25" g2gstroke="#312783" stroke-miterlimit="10"/>
	<path orgstroke="#000000" orgfill="none" fill="none" d="M524.736,404.11   c0.148-0.039,0.313-0.063,0.479-0.063c0.688,0.005,1.258,0.396,1.255,0.884c-0.002,0.483-0.565,0.876-1.271,0.871   c-0.688-0.005-1.257-0.398-1.255-0.884c0-0.188,0.077-0.339,0.208-0.479" stroke="#000000" stroke-width="0.25" g2gstroke="#312783" stroke-miterlimit="10"/>
	<path orgstroke="#000000" orgfill="none" fill="none" d="M529.509,416.966   c0.146-0.042,0.312-0.063,0.479-0.063c0.693,0.002,1.258,0.398,1.255,0.884c-0.005,0.482-0.563,0.871-1.261,0.869   c-0.695-0.005-1.257-0.396-1.255-0.882c0-0.176,0.077-0.343,0.208-0.479" stroke="#000000" stroke-width="0.25" g2gstroke="#312783" stroke-miterlimit="10"/>
	<path orgstroke="#000000" orgfill="none" fill="none" d="M515.575,427.51   c0.146-0.044,0.313-0.065,0.479-0.065c0.689,0.002,1.257,0.398,1.255,0.896c-0.003,0.479-0.563,0.854-1.261,0.854   c-0.693-0.003-1.26-0.396-1.26-0.882c0.007-0.176,0.072-0.343,0.209-0.479" stroke="#000000" stroke-width="0.25" g2gstroke="#312783" stroke-miterlimit="10"/>
	<path orgstroke="#000000" orgfill="none" fill="none" d="M495.094,438.817   c0.146-0.042,0.312-0.063,0.479-0.063c0.695,0.002,1.257,0.396,1.255,0.881c-0.003,0.483-0.563,0.875-1.263,0.872   c-0.693-0.002-1.256-0.401-1.255-0.885c0.002-0.188,0.079-0.354,0.208-0.479" stroke="#000000" stroke-width="0.25" g2gstroke="#312783" stroke-miterlimit="10"/>
	<path orgstroke="#000000" orgfill="none" fill="none" d="M471.857,436.902   c0.15-0.041,0.313-0.063,0.479-0.063c0.688,0.005,1.271,0.396,1.269,0.884s-0.566,0.874-1.271,0.871   c-0.688-0.005-1.258-0.401-1.256-0.884c0.001-0.188,0.078-0.354,0.208-0.479" stroke="#000000" stroke-width="0.25" g2gstroke="#312783" stroke-miterlimit="10"/>
	<path orgstroke="#000000" orgfill="none" fill="none" d="M413.128,403.235   c0.146-0.042,0.312-0.063,0.479-0.063c0.694,0.005,1.258,0.396,1.255,0.884s-0.563,0.874-1.262,0.872   c-0.694-0.003-1.258-0.399-1.256-0.882c0.002-0.188,0.078-0.354,0.207-0.479" stroke="#000000" stroke-width="0.25" g2gstroke="#312783" stroke-miterlimit="10"/>
	<path orgstroke="#000000" orgfill="none" fill="none" d="M430.7,413.937   c0.148-0.041,0.313-0.063,0.48-0.063c0.688,0.006,1.257,0.396,1.255,0.885c-0.003,0.479-0.567,0.874-1.262,0.869   c-0.694-0.004-1.271-0.399-1.254-0.896c0-0.176,0.063-0.34,0.193-0.479" stroke="#000000" stroke-width="0.25" g2gstroke="#312783" stroke-miterlimit="10"/>
	<path orgstroke="#000000" orgfill="none" fill="none" d="M452.012,425.758   c0.146-0.042,0.313-0.066,0.479-0.066c0.695,0.005,1.258,0.401,1.256,0.884c-0.003,0.484-0.563,0.874-1.262,0.872   c-0.693-0.005-1.256-0.396-1.255-0.885c0.001-0.176,0.076-0.34,0.207-0.479" stroke="#000000" stroke-width="0.25" g2gstroke="#312783" stroke-miterlimit="10"/>
	<path orgstroke="#000000" orgfill="none" fill="none" d="M477.51,380.285   c0.146-0.04,0.311-0.063,0.479-0.063c0.693,0.003,1.256,0.396,1.253,0.885c-0.002,0.483-0.563,0.871-1.261,0.869   c-0.695-0.004-1.256-0.399-1.255-0.884c0.001-0.178,0.077-0.341,0.207-0.479" stroke="#000000" stroke-width="0.25" g2gstroke="#312783" stroke-miterlimit="10"/>
	<path orgstroke="#000000" orgfill="none" fill="none" d="M503.008,393.057   c0.146-0.042,0.311-0.066,0.479-0.066c0.695,0.019,1.258,0.401,1.255,0.896c-0.002,0.479-0.563,0.874-1.262,0.854   c-0.695-0.002-1.257-0.396-1.255-0.881c0-0.177,0.078-0.341,0.207-0.479" stroke="#000000" stroke-width="0.25" g2gstroke="#312783" stroke-miterlimit="10"/>
	<polyline orgstroke="#000000" orgfill="none" points="509.509,434.559 532.858,420.591    533.408,419.805 533.606,418.967  " fill="none" stroke="#000000" stroke-width="0.25" g2gstroke="#312783" stroke-miterlimit="10"/>
	
		<line orgstroke="#000000" orgfill="none" fill="none" x1="504.182" x2="506.351" y1="437.758" y2="436.448" stroke="#000000" stroke-width="0.25" g2gstroke="#312783" stroke-miterlimit="10"/>
	<polyline orgstroke="#000000" orgfill="none" points="439.299,421.633 469.984,439.231    472.306,439.883 494.805,442.475 497.681,441.641 504.182,437.758  " fill="none" stroke="#000000" stroke-width="0.25" g2gstroke="#312783" stroke-miterlimit="10"/>
	
		<line orgstroke="#000000" orgfill="none" fill="none" x1="425.783" x2="435.403" y1="413.883" y2="419.393" stroke="#000000" stroke-width="0.25" g2gstroke="#312783" stroke-miterlimit="10"/>
	<polyline orgstroke="#000000" orgfill="none" points="404.556,391.85 404.513,392.508    404.712,393.236 410.08,404.159 411.607,405.741 419.948,410.527  " fill="none" stroke="#000000" stroke-width="0.25" g2gstroke="#312783" stroke-miterlimit="10"/>
	<polyline orgstroke="#000000" orgfill="none" points="446.277,374.978 437.477,375.841    435.305,376.431 428.95,380.341  " fill="none" stroke="#000000" stroke-width="0.25" g2gstroke="#312783" stroke-miterlimit="10"/>
	<polyline orgstroke="#000000" orgfill="none" points="489.073,388.311 461.408,374.485    457.439,373.89 450.681,374.551  " fill="none" stroke="#000000" stroke-width="0.25" g2gstroke="#312783" stroke-miterlimit="10"/>
	<polyline orgstroke="#000000" orgfill="none" points="425.48,382.466 412.742,390.286    412.263,390.533 411.814,390.966 411.317,391.635 411.166,392.231 411.126,392.899 411.089,393.466 411.265,394.104    416.026,403.556 417.381,404.927 470.617,434.908 472.68,435.466 492.638,437.718 495.189,436.992 526.397,418.768    526.889,418.096 527.059,417.367 527.283,416.591 527.2,415.799 522.992,406.657 521.2,404.365 492.367,389.966  " fill="none" stroke="#000000" stroke-width="0.25" g2gstroke="#312783" stroke-miterlimit="10"/>
	<polyline orgstroke="#000000" orgfill="none" points="532.858,423.479 497.681,444.536    494.805,445.383 472.306,442.769 469.984,442.133 412.448,409.133  " fill="none" stroke="#000000" stroke-width="0.25" g2gstroke="#312783" stroke-miterlimit="10"/>
	<polyline orgstroke="#000000" orgfill="none" points="467.7,448.883 468.992,446.811    469.984,442.133  " fill="none" stroke="#000000" stroke-width="0.25" g2gstroke="#312783" stroke-miterlimit="10"/>
	<polyline orgstroke="#000000" orgfill="none" points="494.321,448.104 493.548,450.688    492.256,452.758  " fill="none" stroke="#000000" stroke-width="0.25" g2gstroke="#312783" stroke-miterlimit="10"/>
	<polyline orgstroke="#000000" orgfill="none" points="423.242,406.493 442.367,395.896    445.991,394.862 455.814,394.092 458.908,394.606 464.075,395.896 493.806,411.674 496.906,412.695 517.322,417.608  " fill="none" stroke="#000000" stroke-width="0.25" g2gstroke="#312783" stroke-miterlimit="10"/>
	<polyline orgstroke="#000000" orgfill="none" points="521.45,408.819 519.906,418.133    519.65,420.191 520.426,420.969  " fill="none" stroke="#000000" stroke-width="0.25" g2gstroke="#312783" stroke-miterlimit="10"/>
	
		<line orgstroke="#000000" orgfill="none" fill="none" x1="457.617" x2="457.364" y1="379.614" y2="389.178" stroke="#000000" stroke-width="0.25" g2gstroke="#312783" stroke-miterlimit="10"/>
	
		<line orgstroke="#000000" orgfill="none" fill="none" x1="437.982" x2="440.308" y1="381.941" y2="389.693" stroke="#000000" stroke-width="0.25" g2gstroke="#312783" stroke-miterlimit="10"/>
	
		<line orgstroke="#000000" orgfill="none" fill="none" x1="490.188" x2="473.905" y1="417.091" y2="430.269" stroke="#000000" stroke-width="0.25" g2gstroke="#312783" stroke-miterlimit="10"/>
</g>
</g>
</g></svg>