<svg xmlns="http://www.w3.org/2000/svg" xmlns:xlink="http://www.w3.org/1999/xlink" xmlns:etg="http://www.eurotaxglass.com/etg/evd/" etg:dataTimestamp="1539068912893" contentScriptType="text/ecmascript" zoomAndPan="magnify" contentStyleType="text/css" id="Layer_1" enable-background="new 0 0 1841.891 1595.279" version="1.1" width="1841.891px" xml:space="preserve" preserveAspectRatio="xMidYMid meet" viewBox="0 0 1841.891 1595.279" height="1595.279px" x="0px" y="0px"><g xmlns="http://www.w3.org/2000/svg" objecttype="PS" tooltip="#UNDEFINED" id="101">
<g onmouseover="notifyOwner(AGV_OBJECT_MOUSEOVER, '101(PS)')" transform="translate(32.07046552454915, -8.60427123829362) translate(-18,2) " onclick="clickZoom(evt); notifyOwner(AGV_OBJECT_MOUSECLICK, '101(PS)')" onmouseout="notifyOwner(AGV_OBJECT_MOUSEOUT, '101(PS)')" tooltip="#UNDEFINED" id="101-Graphic" objecttype="GRAPHIC">
<g zvalue="32">
<g>
<path orgstroke="#000000" orgfill="#ffffff" fill="#ffffff" g2gfill="#ECF5E4" d="M214.868,302.954l-0.563-0.271l-0.215-0.156   l-0.382-0.514l-0.2-0.438l-0.271-0.506l-0.229-0.438l-0.188-0.076h-0.104l-0.238,0.055l-0.354,0.055l-0.612,0.146l-0.771-0.063   l-0.578-0.184l-0.763-0.375l0.038,0.021c-1-0.604-1.604-1.783-1.604-3.467c0-3.729,3.033-8.521,6.771-10.685   c2.146-1.245,4.063-1.352,5.313-0.492l0.479,0.403l0.457,0.672l0.271,0.512l0.021,0.188l0.14,0.074h0.188l0.86-0.146l0.938,0.021   l0.697,0.063l0.604,0.271l0.354,0.21l0.62,0.604c0.913,0.629,1.457,1.771,1.457,3.354c0,3.737-3.021,8.521-6.771,10.688   c-1.782,1.022-3.406,1.272-4.621,0.854L214.868,302.954z" stroke="#000000" outline-element="true" stroke-width="0.5" g2gstroke="#312783" stroke-miterlimit="10"/>
<path orgstroke="#000000" orgfill="none" fill="none" d="M217.445,291.206   c0.854-0.888,1.813-1.66,2.813-2.239c1.892-1.089,3.597-1.302,4.821-0.769" stroke="#000000" stroke-width="0.25" g2gstroke="#312783" stroke-miterlimit="10"/>
<path orgstroke="#000000" orgfill="none" fill="none" d="M214.918,294.66   c0.466-0.862,1.021-1.7,1.66-2.479" stroke="#000000" stroke-width="0.25" g2gstroke="#312783" stroke-miterlimit="10"/>
<path orgstroke="#000000" orgfill="none" fill="none" d="M215.09,303.101   c-1-0.604-1.604-1.781-1.604-3.449c0-1.063,0.242-2.201,0.688-3.342" stroke="#000000" stroke-width="0.25" g2gstroke="#312783" stroke-miterlimit="10"/>
<path orgstroke="#000000" orgfill="none" fill="none" d="M214.467,302.495   c-0.998-0.604-1.604-1.771-1.604-3.438c0-3.738,3.033-8.523,6.771-10.688c2.158-1.246,4.077-1.346,5.316-0.494" stroke="#000000" stroke-width="0.25" g2gstroke="#312783" stroke-miterlimit="10"/>
<path orgstroke="#000000" orgfill="none" fill="none" d="M212.044,289.251   c0.979-1.125,2.124-2.103,3.337-2.801c1.456-0.841,2.81-1.161,3.91-1.015" stroke="#000000" stroke-width="0.25" g2gstroke="#312783" stroke-miterlimit="10"/>
<path orgstroke="#000000" orgfill="none" fill="none" d="M210.086,292.054   c0.313-0.604,0.688-1.161,1.09-1.729" stroke="#000000" stroke-width="0.25" g2gstroke="#312783" stroke-miterlimit="10"/>
<path orgstroke="#000000" orgfill="none" fill="none" d="M210.208,300.594   c-1-0.604-1.604-1.777-1.604-3.445c0-1.193,0.313-2.493,0.854-3.78" stroke="#000000" stroke-width="0.25" g2gstroke="#312783" stroke-miterlimit="10"/>
<path orgstroke="#000000" orgfill="none" fill="none" d="M212.034,298.915   c-0.729-0.436-1.161-1.291-1.161-2.498c0-2.709,2.188-6.174,4.896-7.729c1.563-0.899,2.954-0.979,3.854-0.356" stroke="#000000" stroke-width="0.25" g2gstroke="#312783" stroke-miterlimit="10"/>
<path orgstroke="#000000" orgfill="none" fill="none" d="M212.352,298.982   c-0.387-0.479-0.604-1.156-0.604-2.008c0-2.709,2.188-6.188,4.896-7.742c1.104-0.63,1.979-0.896,2.792-0.761" stroke="#000000" stroke-width="0.25" g2gstroke="#312783" stroke-miterlimit="10"/>
<path orgstroke="#000000" orgfill="none" fill="none" d="M212.91,299.472   c-0.211-0.135-0.401-0.295-0.563-0.49" stroke="#000000" stroke-width="0.25" g2gstroke="#312783" stroke-miterlimit="10"/>
<path orgstroke="#000000" orgfill="none" fill="none" d="M212.888,299.486   c-0.373-0.477-0.583-1.146-0.583-1.982c0-2.709,2.197-6.174,4.907-7.729c0.521-0.313,0.646-0.404,1.126-0.523" stroke="#000000" stroke-width="0.25" g2gstroke="#312783" stroke-miterlimit="10"/>
<path orgstroke="#000000" orgfill="none" fill="none" d="M221.906,297.163   c-0.396,0.51-0.876,0.955-1.396,1.271c-1.325,0.77-2.397,0.313-2.397-1.021s1.072-3.021,2.397-3.79   c1.327-0.766,2.402-0.313,2.402,1.021c0,0.521-0.161,1.07-0.438,1.622" stroke="#000000" stroke-width="0.25" g2gstroke="#312783" stroke-miterlimit="10"/>
<path orgstroke="#000000" orgfill="none" fill="none" d="M226.031,292.432   c0,3.209-2.604,7.305-5.813,9.155c-3.209,1.854-5.807,0.75-5.807-2.449c0-3.211,2.602-7.313,5.807-9.162   C223.43,288.126,226.031,289.221,226.031,292.432z" stroke="#000000" stroke-width="0.25" g2gstroke="#312783" stroke-miterlimit="10"/>
<path orgstroke="#000000" orgfill="none" fill="none" d="M221.862,293.436   c0.063,0.158,0.068,0.342,0.068,0.545c0,1.327-1.071,3.02-2.396,3.79c-0.364,0.209-0.709,0.328-1.021,0.354" stroke="#000000" stroke-width="0.25" g2gstroke="#312783" stroke-miterlimit="10"/>
<path orgstroke="#000000" orgfill="none" fill="none" d="M212.03399658203125 298.9150085449219L212.91000366210938 299.47198486328125" stroke="#000000" stroke-width="0.25" g2gstroke="#312783" stroke-miterlimit="10"/>
</g>
</g>
</g>
</g></svg>