<svg xmlns="http://www.w3.org/2000/svg" xmlns:xlink="http://www.w3.org/1999/xlink" xmlns:etg="http://www.eurotaxglass.com/etg/evd/" etg:dataTimestamp="1539068912893" contentScriptType="text/ecmascript" zoomAndPan="magnify" contentStyleType="text/css" id="Layer_1" enable-background="new 0 0 1841.891 1595.279" version="1.1" width="1841.891px" xml:space="preserve" preserveAspectRatio="xMidYMid meet" viewBox="0 0 1841.891 1595.279" height="1595.279px" x="0px" y="0px"><g xmlns="http://www.w3.org/2000/svg" objecttype="PS" tooltip="#UNDEFINED" id="104">
<g onmouseover="notifyOwner(AGV_OBJECT_MOUSEOVER, '104(PS)')" transform="translate(0,14) " onclick="clickZoom(evt); notifyOwner(AGV_OBJECT_MOUSECLICK, '104(PS)')" onmouseout="notifyOwner(AGV_OBJECT_MOUSEOUT, '104(PS)')" tooltip="#UNDEFINED" id="104-Graphic" objecttype="GRAPHIC">
<g zvalue="20">
<g>
<path orgstroke="#000000" orgfill="#ffffff" fill="#ffffff" g2gfill="#ECF5E4" d="M553.83,470.022   c0.431-0.83,0.685-1.69,0.685-2.479c0-0.744-0.232-1.302-0.624-1.642l-1.311-1.054l-6.729-3.902l-0.678-0.563l-0.063-0.34   l-0.146-0.729l-0.108-0.569l-0.407-0.785l-0.742-0.729l-2.354-1.396l-1.074-0.188l-0.941,0.14l-1.104,0.428l-0.412,0.313   l-0.563,0.229l-0.432-0.146l-0.512-0.169l-0.615-0.396l-0.677-0.229l-0.771,0.104l-0.891,0.294l-1.271,0.979l-0.771,0.854   l-0.295,1.104l-0.195,0.556l-0.103,0.813l-0.063,0.643l0.183,0.938l0.338,0.445l1.246,0.688l0.398,0.813   c0,0.098-0.012,0.188-0.012,0.271c0,0.771,0.188,1.396,0.485,1.876l0.563,0.52l2.313,1.457l-0.325-0.244   c0.616,0.563,1.521,0.729,2.602,0.464l1.152,0.021l8.759,5.067l0.521,0.188c0.582,0.1,1.311-0.063,2.098-0.521   c0.693-0.396,1.338-0.979,1.886-1.646L553.83,470.022z" stroke="#000000" outline-element="true" stroke-width="0.5" g2gstroke="#312783" stroke-miterlimit="10"/>
<path orgstroke="#000000" orgfill="none" fill="none" d="M538.0490112304688 467.4530029296875L539.0869750976562 468.052001953125" stroke="#000000" stroke-width="0.25" g2gstroke="#312783" stroke-miterlimit="10"/>
<path orgstroke="#000000" orgfill="none" fill="none" d="M547.586,472.462   c-0.076-0.25-0.12-0.521-0.12-0.851c0-1.949,1.575-4.438,3.521-5.563c0.646-0.375,1.245-0.555,1.771-0.555" stroke="#000000" stroke-width="0.25" g2gstroke="#312783" stroke-miterlimit="10"/>
<path orgstroke="#000000" orgfill="none" fill="none" d="M538.01,467.453   c-0.58-0.304-0.938-0.944-0.938-1.878c0-1.982,1.609-4.521,3.604-5.666c0.996-0.572,1.896-0.688,2.546-0.408" stroke="#000000" stroke-width="0.25" g2gstroke="#312783" stroke-miterlimit="10"/>
<path orgstroke="#000000" orgfill="none" fill="none" d="M536.145,461.76   c0.919-1.642,2.305-3.146,3.856-4.043c2.563-1.479,4.688-0.76,4.963,1.604" stroke="#000000" stroke-width="0.25" g2gstroke="#312783" stroke-miterlimit="10"/>
<path orgstroke="#000000" orgfill="none" fill="none" d="M535.861,467.881   c-0.54-0.479-0.851-1.267-0.851-2.303c0-0.71,0.146-1.475,0.418-2.237" stroke="#000000" stroke-width="0.25" g2gstroke="#312783" stroke-miterlimit="10"/>
<path orgstroke="#000000" orgfill="none" fill="none" d="M533.101,463.161   c-0.489-2.073,1.938-5.252,3.876-5.97" stroke="#000000" stroke-width="0.25" g2gstroke="#312783" stroke-miterlimit="10"/>
<path orgstroke="#000000" orgfill="none" fill="none" d="M543.2150268554688 459.5010070800781L545.1859741210938 460.38299560546875" stroke="#000000" stroke-width="0.25" g2gstroke="#312783" stroke-miterlimit="10"/>
</g>
</g>
</g>
</g></svg>