<svg xmlns="http://www.w3.org/2000/svg" xmlns:xlink="http://www.w3.org/1999/xlink" xmlns:etg="http://www.eurotaxglass.com/etg/evd/" etg:dataTimestamp="1539068912893" contentScriptType="text/ecmascript" zoomAndPan="magnify" contentStyleType="text/css" id="Layer_1" enable-background="new 0 0 1841.891 1595.279" version="1.1" width="1841.891px" xml:space="preserve" preserveAspectRatio="xMidYMid meet" viewBox="0 0 1841.891 1595.279" height="1595.279px" x="0px" y="0px"><g xmlns="http://www.w3.org/2000/svg" objecttype="PS" tooltip="#UNDEFINED" id="14">
<g onmouseover="notifyOwner(AGV_OBJECT_MOUSEOVER, '14(PS)')" onclick="clickZoom(evt); notifyOwner(AGV_OBJECT_MOUSECLICK, '14(PS)')" onmouseout="notifyOwner(AGV_OBJECT_MOUSEOUT, '14(PS)')" tooltip="#UNDEFINED" id="14-Graphic" objecttype="GRAPHIC">
<g>
	<polygon orgstroke="#000000" orgfill="#ffffff" points="453.406,188.9 404.82,217.329    404.433,218.233 404.304,224.048 404.562,224.824 405.208,225.34 407.663,227.15 407.922,227.537 408.18,228.442 408.18,241.623    408.438,242.01 499.67,295.379 500.834,295.767 501.737,295.508 528.486,280.261 528.74,279.485 529.134,275.608 529.391,274.833    543.347,267.467 543.99,266.175 544.115,265.141 543.863,263.979 539.343,256.742 539.073,250.021 539.343,249.247    543.605,246.404 544.115,245.37 544.253,241.235 543.99,240.589 543.089,239.943 454.959,188.642  " fill="#ffffff" g2gfill="#ECF5E4" outline-element="true" stroke="#000000" stroke-width="0.5" g2gstroke="#312783" stroke-miterlimit="10"/>
	
		<line orgstroke="#000000" orgfill="none" fill="none" x1="411.41" x2="411.41" y1="225.164" y2="228.658" stroke="#000000" stroke-width="0.25" g2gstroke="#312783" stroke-miterlimit="10"/>
	<polyline orgstroke="#000000" orgfill="none" points="405.337,217.243 411.022,220.215    411.41,220.732 411.41,223.833  " fill="none" stroke="#000000" stroke-width="0.25" g2gstroke="#312783" stroke-miterlimit="10"/>
	<polyline orgstroke="#000000" orgfill="none" points="447.263,239.205 490.364,264.107    490.755,264.624 491.011,265.4  " fill="none" stroke="#000000" stroke-width="0.25" g2gstroke="#312783" stroke-miterlimit="10"/>
	
		<line orgstroke="#000000" orgfill="none" fill="none" x1="427.97" x2="439.776" y1="228.056" y2="234.878" stroke="#000000" stroke-width="0.25" g2gstroke="#312783" stroke-miterlimit="10"/>
	<polyline orgstroke="#000000" orgfill="none" points="411.927,220.43 412.833,220.042    413.349,220.042 413.995,219.913 414.771,220.43 425.365,226.557  " fill="none" stroke="#000000" stroke-width="0.25" g2gstroke="#312783" stroke-miterlimit="10"/>
	<polyline orgstroke="#000000" orgfill="none" points="526.054,250.836 542.313,241.364    542.823,240.459 542.49,239.599  " fill="none" stroke="#000000" stroke-width="0.25" g2gstroke="#312783" stroke-miterlimit="10"/>
	
		<line orgstroke="#000000" orgfill="none" fill="none" x1="509.851" x2="523.339" y1="260.275" y2="252.419" stroke="#000000" stroke-width="0.25" g2gstroke="#312783" stroke-miterlimit="10"/>
	<polyline orgstroke="#000000" orgfill="none" points="413.866,221.335 489.462,265.141    491.011,266.046 492.304,266.304 493.726,266.821 495.924,267.08 497.603,266.95 499.406,266.434 500.834,265.528 506.772,262.069     " fill="none" stroke="#000000" stroke-width="0.25" g2gstroke="#312783" stroke-miterlimit="10"/>
	<polyline orgstroke="#000000" orgfill="none" points="408.567,228.055 410.635,228.959    411.41,229.088 411.927,228.959 413.09,228.184 413.478,227.537 413.866,221.335  " fill="none" stroke="#000000" stroke-width="0.25" g2gstroke="#312783" stroke-miterlimit="10"/>
	<polyline orgstroke="#000000" orgfill="none" points="429.198,230.223 429.114,235.807    429.502,237.1 430.147,238.392 431.052,238.909 432.217,239.297 433.115,238.909 433.637,238.65 434.153,237.617 434.462,233.269     " fill="none" stroke="#000000" stroke-width="0.25" g2gstroke="#312783" stroke-miterlimit="10"/>
	<polyline orgstroke="#000000" orgfill="none" points="422.114,243.926 420.5,242.656    419.638,241.537 419.165,240.331 419.165,239.167 419.422,237.875 420.198,237.229 420.585,237.1 422.136,237.358 424.334,238.521    426.656,240.233 427.92,241.493 428.34,242.398 428.727,243.863 428.597,245.241 427.948,246.146 426.656,246.275 425.237,245.887    423.429,244.724  " fill="none" stroke="#000000" stroke-width="0.25" g2gstroke="#312783" stroke-miterlimit="10"/>
	<polyline orgstroke="#000000" orgfill="none" points="490.528,265.764 490.884,271.344    491.141,272.377 491.918,274.187 494.031,275.738 495.341,276.42 496.948,276.642 497.86,276.427 499.67,275.91 501.262,275.132     " fill="none" stroke="#000000" stroke-width="0.25" g2gstroke="#312783" stroke-miterlimit="10"/>
	<polyline orgstroke="#000000" orgfill="none" points="493.338,267.08 493.597,269.147    493.854,270.956 494.49,271.99 495.276,272.636 496.31,273.282 497.217,273.541 512.198,266.175 512.85,266.175 514.272,266.175    515.823,265.787 516.985,265.528 526.281,260.231 528.228,258.421 529.649,256.225 530.683,255.45 538.565,249.505  " fill="none" stroke="#000000" stroke-width="0.25" g2gstroke="#312783" stroke-miterlimit="10"/>
	<polyline orgstroke="#000000" orgfill="none" points="512.198,266.175 512.85,263.139    513.237,262.169 514.272,261.135 515.823,260.101 523.671,255.677 524.839,255.123 526.054,254.804 529.978,255.979  " fill="none" stroke="#000000" stroke-width="0.25" g2gstroke="#312783" stroke-miterlimit="10"/>
	<polyline orgstroke="#000000" orgfill="none" points="520.438,259.519 525.771,256.483    526.807,256.225 527.841,256.225 529.134,256.096  " fill="none" stroke="#000000" stroke-width="0.25" g2gstroke="#312783" stroke-miterlimit="10"/>
	<polyline orgstroke="#000000" orgfill="none" points="512.85,266.175 514.53,264.236    515.563,262.944 517.365,261.264 518.962,260.36  " fill="none" stroke="#000000" stroke-width="0.25" g2gstroke="#312783" stroke-miterlimit="10"/>
	
		<line orgstroke="#000000" orgfill="none" fill="none" x1="501.24" x2="501.22" y1="282.974" y2="295.12" stroke="#000000" stroke-width="0.25" g2gstroke="#312783" stroke-miterlimit="10"/>
	
		<line orgstroke="#000000" orgfill="none" fill="none" x1="501.262" x2="501.252" y1="271.553" y2="277.805" stroke="#000000" stroke-width="0.25" g2gstroke="#312783" stroke-miterlimit="10"/>
	
		<line orgstroke="#000000" orgfill="none" fill="none" x1="538.99" x2="543.477" y1="267.586" y2="264.883" stroke="#000000" stroke-width="0.25" g2gstroke="#312783" stroke-miterlimit="10"/>
	<polyline orgstroke="#000000" orgfill="none" points="539.343,256.742 538.695,258.033    533.906,263.332 533.396,264.107 533.139,269.922 533.396,270.311 534.043,270.568 537.396,268.547  " fill="none" stroke="#000000" stroke-width="0.25" g2gstroke="#312783" stroke-miterlimit="10"/>
	<polygon orgstroke="#000000" orgfill="none" points="448.365,194.069 414.254,214.228    414.254,214.228 413.866,215.39 414.254,216.424 416.321,218.492 418.13,219.784 491.271,262.299 493.597,263.332 495.531,264.107    497.217,264.366 498.765,263.979 500.573,263.461 502.771,262.169 534.302,244.078 534.688,243.432 534.431,242.786    533.781,242.269 526.419,237.875 519.823,237.746 519.823,234.644 514.53,231.415 510.267,231.285 510.009,229.347    495.146,220.301 490.107,220.042 489.592,217.717 475.115,208.8 469.69,208.025 469.561,205.699 464.392,202.727 458.836,202.339    458.448,199.108 453.926,196.524 449.92,196.007 449.53,194.069 449.015,193.811  " fill="none" stroke="#000000" stroke-width="0.25" g2gstroke="#312783" stroke-miterlimit="10"/>
	<polygon orgstroke="#000000" orgfill="none" points="423.507,208.761 427.305,211.45    427.865,211.542 433.508,208.413 433.508,208.009 429.862,205.004  " fill="none" stroke="#000000" stroke-width="0.25" g2gstroke="#312783" stroke-miterlimit="10"/>
	<polygon orgstroke="#000000" orgfill="none" points="431.531,204.08 435.431,206.894    435.728,206.961 441.543,203.731 441.531,203.438 437.896,200.323  " fill="none" stroke="#000000" stroke-width="0.25" g2gstroke="#312783" stroke-miterlimit="10"/>
	
		<line orgstroke="#000000" orgfill="none" fill="none" x1="423.507" x2="423.615" y1="208.761" y2="217.845" stroke="#000000" stroke-width="0.25" g2gstroke="#312783" stroke-miterlimit="10"/>
	
		<line orgstroke="#000000" orgfill="none" fill="none" x1="427.847" x2="427.821" y1="216.812" y2="221.076" stroke="#000000" stroke-width="0.25" g2gstroke="#312783" stroke-miterlimit="10"/>
	
		<line orgstroke="#000000" orgfill="none" fill="none" x1="427.865" x2="427.857" y1="211.542" y2="214.742" stroke="#000000" stroke-width="0.25" g2gstroke="#312783" stroke-miterlimit="10"/>
	<polyline orgstroke="#000000" orgfill="none" points="436.49,219.617 437.127,219.979    439.063,220.883 440.865,221.464 442.23,221.723 443.323,221.642 443.715,221.521  " fill="none" stroke="#000000" stroke-width="0.25" g2gstroke="#312783" stroke-miterlimit="10"/>
	<polyline orgstroke="#000000" orgfill="none" points="450.565,216.749 452.181,215.327    452.891,214.357 453.086,213.388 452.762,212.483 452.24,211.708 451.47,210.934 447.981,208.995 446.106,207.896 443.906,206.927    442.489,206.54 441.585,206.345 440.485,206.54 438.612,207.508 436.222,208.995 433.115,211.063 431.892,212.031 431.377,212.613    431.052,213.453 430.987,214.422 431.377,215.456 431.948,216.295 432.99,217.394 433.693,217.891  " fill="none" stroke="#000000" stroke-width="0.25" g2gstroke="#312783" stroke-miterlimit="10"/>
	
		<line orgstroke="#000000" orgfill="none" fill="none" x1="440.74" x2="440.656" y1="221.594" y2="229.088" stroke="#000000" stroke-width="0.25" g2gstroke="#312783" stroke-miterlimit="10"/>
	
		<line orgstroke="#000000" orgfill="none" fill="none" x1="442.934" x2="442.854" y1="221.67" y2="229.26" stroke="#000000" stroke-width="0.25" g2gstroke="#312783" stroke-miterlimit="10"/>
	<polyline orgstroke="#000000" orgfill="none" points="430.838,213.625 430.49,214.4    430.406,215.347 430.406,220.775  " fill="none" stroke="#000000" stroke-width="0.25" g2gstroke="#312783" stroke-miterlimit="10"/>
	<path orgstroke="#000000" orgfill="none" fill="none" d="M445.088,210.967   c0.669,0.441,1.084,1.063,1.084,1.729c0,1.344-1.657,2.435-3.705,2.435c-2.045,0-3.703-1.091-3.703-2.435s1.658-2.438,3.703-2.438   c0.345,0,0.678,0.03,0.994,0.104" stroke="#000000" stroke-width="0.25" g2gstroke="#312783" stroke-miterlimit="10"/>
	
		<ellipse orgstroke="#000000" orgfill="none" fill="none" rx="1.896" cx="434.111" ry="1.346" cy="214.034" stroke="#000000" stroke-width="0.25" g2gstroke="#312783" stroke-miterlimit="10"/>
	<path orgstroke="#000000" orgfill="none" fill="none" d="M421.729,234.067   c-0.165-0.407-0.113-0.824,0.158-1.023c0.348-0.255,0.922-0.063,1.271,0.423c0.357,0.487,0.366,1.104,0.021,1.354   c-0.281,0.206-0.711,0.12-1.054-0.188" stroke="#000000" stroke-width="0.25" g2gstroke="#312783" stroke-miterlimit="10"/>
	<path orgstroke="#000000" orgfill="none" fill="none" d="M411.12,242.344   c-0.166-0.408-0.113-0.823,0.146-1.024c0.354-0.255,0.919-0.064,1.276,0.424c0.354,0.486,0.359,1.09,0.021,1.345   c-0.271,0.206-0.714,0.12-1.056-0.18" stroke="#000000" stroke-width="0.25" g2gstroke="#312783" stroke-miterlimit="10"/>
	<polyline orgstroke="#000000" orgfill="none" points="447.031,240.91 446.943,246.495    447.323,247.787 447.977,249.079 448.883,249.596 450.045,249.984 450.948,249.596 451.466,249.338 451.983,248.304    452.281,243.956  " fill="none" stroke="#000000" stroke-width="0.25" g2gstroke="#312783" stroke-miterlimit="10"/>
	<polyline orgstroke="#000000" orgfill="none" points="439.943,254.615 438.323,253.344    437.467,252.223 436.99,251.018 436.99,249.854 437.252,248.563 438.026,247.916 438.406,247.787 439.966,248.045 442.156,249.208    444.487,250.921 445.74,252.18 446.168,253.085 446.556,254.549 446.427,255.928 445.78,256.833 444.487,256.962 443.065,256.574    441.258,255.411  " fill="none" stroke="#000000" stroke-width="0.25" g2gstroke="#312783" stroke-miterlimit="10"/>
	<path orgstroke="#000000" orgfill="none" fill="none" d="M439.56,244.754   c-0.165-0.396-0.113-0.813,0.158-1.021c0.348-0.254,0.921-0.063,1.271,0.424c0.357,0.488,0.366,1.092,0.021,1.346   c-0.281,0.206-0.711,0.12-1.063-0.181" stroke="#000000" stroke-width="0.25" g2gstroke="#312783" stroke-miterlimit="10"/>
	<path orgstroke="#000000" orgfill="none" fill="none" d="M428.948,253.031   c-0.166-0.407-0.104-0.823,0.16-1.024c0.348-0.254,0.92-0.063,1.275,0.438c0.354,0.479,0.354,1.09,0.021,1.345   c-0.28,0.206-0.71,0.12-1.053-0.18" stroke="#000000" stroke-width="0.25" g2gstroke="#312783" stroke-miterlimit="10"/>
	<polyline orgstroke="#000000" orgfill="none" points="466.031,252.075 465.946,257.66    466.335,258.953 466.98,260.245 467.885,260.762 469.049,261.15 469.948,260.762 470.469,260.503 470.986,259.469 471.294,255.122     " fill="none" stroke="#000000" stroke-width="0.25" g2gstroke="#312783" stroke-miterlimit="10"/>
	<polyline orgstroke="#000000" orgfill="none" points="458.947,265.781 457.323,264.509    456.47,263.388 455.99,262.183 455.99,261.02 456.256,259.728 457.03,259.082 457.419,258.953 458.969,259.211 461.156,260.374    463.49,262.086 464.752,263.346 465.172,264.251 465.558,265.714 465.43,267.094 464.781,267.999 463.49,268.127 462.069,267.74    460.261,266.577  " fill="none" stroke="#000000" stroke-width="0.25" g2gstroke="#312783" stroke-miterlimit="10"/>
	<path orgstroke="#000000" orgfill="none" fill="none" d="M458.563,255.919   c-0.166-0.396-0.115-0.813,0.157-1.021c0.348-0.254,0.921-0.063,1.271,0.424c0.357,0.487,0.367,1.091,0.021,1.346   c-0.281,0.206-0.712,0.12-1.063-0.18" stroke="#000000" stroke-width="0.25" g2gstroke="#312783" stroke-miterlimit="10"/>
	<path orgstroke="#000000" orgfill="none" fill="none" d="M447.948,264.197   c-0.165-0.405-0.104-0.822,0.16-1.023c0.354-0.254,0.92-0.063,1.275,0.438c0.354,0.479,0.354,1.09,0.021,1.344   c-0.271,0.206-0.71,0.121-1.053-0.18" stroke="#000000" stroke-width="0.25" g2gstroke="#312783" stroke-miterlimit="10"/>
	<polyline orgstroke="#000000" orgfill="none" points="482.531,261.531 482.448,267.117    482.839,268.409 483.484,269.701 484.388,270.219 485.552,270.605 486.448,270.219 486.974,269.959 487.49,268.926    487.797,264.578  " fill="none" stroke="#000000" stroke-width="0.25" g2gstroke="#312783" stroke-miterlimit="10"/>
	<polyline orgstroke="#000000" orgfill="none" points="472.973,272.846 472.49,271.639    472.49,270.477 472.759,269.184 473.531,268.538 473.922,268.409 475.473,268.667 477.67,269.83 479.99,271.543 481.257,272.803    481.676,273.707 482.062,275.171 481.933,276.55 481.281,277.455 479.99,277.584 478.572,277.195 476.763,276.033 475.448,275.236    474.529,274.512  " fill="none" stroke="#000000" stroke-width="0.25" g2gstroke="#312783" stroke-miterlimit="10"/>
	<path orgstroke="#000000" orgfill="none" fill="none" d="M475.066,265.375   c-0.166-0.407-0.115-0.813,0.158-1.021c0.349-0.255,0.921-0.063,1.271,0.424c0.357,0.487,0.367,1.091,0.021,1.345   c-0.28,0.207-0.71,0.119-1.053-0.181" stroke="#000000" stroke-width="0.25" g2gstroke="#312783" stroke-miterlimit="10"/>
	<path orgstroke="#000000" orgfill="none" fill="none" d="M464.448,273.654   c-0.165-0.407-0.104-0.825,0.158-1.024c0.354-0.254,0.922-0.063,1.277,0.438c0.354,0.479,0.354,1.09,0.02,1.345   c-0.271,0.206-0.711,0.12-1.053-0.179" stroke="#000000" stroke-width="0.25" g2gstroke="#312783" stroke-miterlimit="10"/>
	
		<ellipse orgstroke="#000000" orgfill="none" fill="none" rx="1.894" cx="441.543" ry="1.346" cy="208.273" stroke="#000000" stroke-width="0.25" g2gstroke="#312783" stroke-miterlimit="10"/>
	
		<ellipse orgstroke="#000000" orgfill="none" fill="none" rx="1.896" cx="450.566" ry="1.346" cy="213.303" stroke="#000000" stroke-width="0.25" g2gstroke="#312783" stroke-miterlimit="10"/>
	
		<ellipse orgstroke="#000000" orgfill="none" fill="none" rx="1.895" cx="442.469" ry="1.346" cy="219.191" stroke="#000000" stroke-width="0.25" g2gstroke="#312783" stroke-miterlimit="10"/>
	
		<line orgstroke="#000000" orgfill="none" fill="none" x1="433.508" x2="433.476" y1="208.413" y2="210.738" stroke="#000000" stroke-width="0.25" g2gstroke="#312783" stroke-miterlimit="10"/>
	
		<line orgstroke="#000000" orgfill="none" fill="none" x1="441.543" x2="441.487" y1="203.731" y2="206.215" stroke="#000000" stroke-width="0.25" g2gstroke="#312783" stroke-miterlimit="10"/>
	
		<line orgstroke="#000000" orgfill="none" fill="none" x1="435.633" x2="435.607" y1="206.94" y2="209.155" stroke="#000000" stroke-width="0.25" g2gstroke="#312783" stroke-miterlimit="10"/>
	
		<line orgstroke="#000000" orgfill="none" fill="none" x1="431.531" x2="431.531" y1="204.08" y2="206.184" stroke="#000000" stroke-width="0.25" g2gstroke="#312783" stroke-miterlimit="10"/>
	<polyline orgstroke="#000000" orgfill="none" points="452.344,220.994 454.049,220.046    454.049,219.643 450.403,216.638 444.047,220.395 447.846,223.083 448.406,223.176 450.823,221.835  " fill="none" stroke="#000000" stroke-width="0.25" g2gstroke="#312783" stroke-miterlimit="10"/>
	<polygon orgstroke="#000000" orgfill="none" points="452.073,215.714 455.97,218.528    456.266,218.596 462.073,215.365 462.073,215.071 458.437,211.957  " fill="none" stroke="#000000" stroke-width="0.25" g2gstroke="#312783" stroke-miterlimit="10"/>
	
		<line orgstroke="#000000" orgfill="none" fill="none" x1="444.047" x2="444.156" y1="220.395" y2="229.48" stroke="#000000" stroke-width="0.25" g2gstroke="#312783" stroke-miterlimit="10"/>
	
		<line orgstroke="#000000" orgfill="none" fill="none" x1="448.386" x2="448.362" y1="228.7" y2="232.71" stroke="#000000" stroke-width="0.25" g2gstroke="#312783" stroke-miterlimit="10"/>
	
		<line orgstroke="#000000" orgfill="none" fill="none" x1="448.406" x2="448.398" y1="223.176" y2="226.243" stroke="#000000" stroke-width="0.25" g2gstroke="#312783" stroke-miterlimit="10"/>
	<polyline orgstroke="#000000" orgfill="none" points="456.556,230.973 457.656,231.612    459.604,232.517 461.406,233.098 462.771,233.356 463.489,233.304  " fill="none" stroke="#000000" stroke-width="0.25" g2gstroke="#312783" stroke-miterlimit="10"/>
	<polyline orgstroke="#000000" orgfill="none" points="473.431,225.99 473.627,225.021    473.303,224.117 472.781,223.342 472.011,222.566 468.521,220.628 466.647,219.53 464.448,218.561 463.028,218.173    462.115,217.979 461.026,218.173 459.152,219.142 456.761,220.628 453.656,222.696 452.433,223.665 451.906,224.247    451.594,225.086 451.528,226.056 451.906,227.089 452.49,227.929 453.53,229.028  " fill="none" stroke="#000000" stroke-width="0.25" g2gstroke="#312783" stroke-miterlimit="10"/>
	<polyline orgstroke="#000000" orgfill="none" points="451.379,225.259 451.031,226.034    450.946,226.981 450.946,232.409  " fill="none" stroke="#000000" stroke-width="0.25" g2gstroke="#312783" stroke-miterlimit="10"/>
	<path orgstroke="#000000" orgfill="none" fill="none" d="M465.627,222.601   c0.67,0.438,1.086,1.05,1.086,1.721c0,1.345-1.659,2.435-3.705,2.435c-2.047,0-3.704-1.09-3.704-2.435   c0-1.344,1.657-2.433,3.704-2.433c0.336,0,0.662,0.021,0.971,0.085" stroke="#000000" stroke-width="0.25" g2gstroke="#312783" stroke-miterlimit="10"/>
	
		<ellipse orgstroke="#000000" orgfill="none" fill="none" rx="1.896" cx="454.652" ry="1.346" cy="225.667" stroke="#000000" stroke-width="0.25" g2gstroke="#312783" stroke-miterlimit="10"/>
	
		<ellipse orgstroke="#000000" orgfill="none" fill="none" rx="1.896" cx="462.073" ry="1.346" cy="219.907" stroke="#000000" stroke-width="0.25" g2gstroke="#312783" stroke-miterlimit="10"/>
	
		<ellipse orgstroke="#000000" orgfill="none" fill="none" rx="1.896" cx="429.677" ry="1.346" cy="223.273" stroke="#000000" stroke-width="0.25" g2gstroke="#312783" stroke-miterlimit="10"/>
	
		<ellipse orgstroke="#000000" orgfill="none" fill="none" rx="1.896" cx="437.526" ry="1.345" cy="228.4" stroke="#000000" stroke-width="0.25" g2gstroke="#312783" stroke-miterlimit="10"/>
	
		<ellipse orgstroke="#000000" orgfill="none" fill="none" rx="1.896" cx="451.726" ry="1.346" cy="235.597" stroke="#000000" stroke-width="0.25" g2gstroke="#312783" stroke-miterlimit="10"/>
	
		<ellipse orgstroke="#000000" orgfill="none" fill="none" rx="1.896" cx="459.573" ry="1.345" cy="240.723" stroke="#000000" stroke-width="0.25" g2gstroke="#312783" stroke-miterlimit="10"/>
	
		<ellipse orgstroke="#000000" orgfill="none" fill="none" rx="1.896" cx="472.152" ry="1.346" cy="247.459" stroke="#000000" stroke-width="0.25" g2gstroke="#312783" stroke-miterlimit="10"/>
	
		<ellipse orgstroke="#000000" orgfill="none" fill="none" rx="1.896" cx="480.003" ry="1.346" cy="252.586" stroke="#000000" stroke-width="0.25" g2gstroke="#312783" stroke-miterlimit="10"/>
	
		<ellipse orgstroke="#000000" orgfill="none" fill="none" rx="1.895" cx="492.143" ry="1.346" cy="258.96" stroke="#000000" stroke-width="0.25" g2gstroke="#312783" stroke-miterlimit="10"/>
	
		<ellipse orgstroke="#000000" orgfill="none" fill="none" rx="1.896" cx="471.107" ry="1.346" cy="224.937" stroke="#000000" stroke-width="0.25" g2gstroke="#312783" stroke-miterlimit="10"/>
	
		<ellipse orgstroke="#000000" orgfill="none" fill="none" rx="1.895" cx="463.01" ry="1.346" cy="230.826" stroke="#000000" stroke-width="0.25" g2gstroke="#312783" stroke-miterlimit="10"/>
	
		<line orgstroke="#000000" orgfill="none" fill="none" x1="462.073" x2="462.027" y1="215.365" y2="217.85" stroke="#000000" stroke-width="0.25" g2gstroke="#312783" stroke-miterlimit="10"/>
	
		<line orgstroke="#000000" orgfill="none" fill="none" x1="456.173" x2="456.147" y1="218.575" y2="220.789" stroke="#000000" stroke-width="0.25" g2gstroke="#312783" stroke-miterlimit="10"/>
	
		<line orgstroke="#000000" orgfill="none" fill="none" x1="452.073" x2="452.073" y1="215.714" y2="217.817" stroke="#000000" stroke-width="0.25" g2gstroke="#312783" stroke-miterlimit="10"/>
	<polyline orgstroke="#000000" orgfill="none" points="471.144,233.256 473.979,231.681    473.979,231.277 470.334,228.271 463.977,232.029 467.775,234.717 468.346,234.81 469.865,233.962  " fill="none" stroke="#000000" stroke-width="0.25" g2gstroke="#312783" stroke-miterlimit="10"/>
	<polygon orgstroke="#000000" orgfill="none" points="472.011,227.349 475.901,230.163    476.197,230.23 482.013,227 482.008,226.706 478.365,223.591  " fill="none" stroke="#000000" stroke-width="0.25" g2gstroke="#312783" stroke-miterlimit="10"/>
	
		<line orgstroke="#000000" orgfill="none" fill="none" x1="463.977" x2="464.094" y1="232.029" y2="241.114" stroke="#000000" stroke-width="0.25" g2gstroke="#312783" stroke-miterlimit="10"/>
	
		<line orgstroke="#000000" orgfill="none" fill="none" x1="468.346" x2="468.293" y1="234.81" y2="244.344" stroke="#000000" stroke-width="0.25" g2gstroke="#312783" stroke-miterlimit="10"/>
	<polyline orgstroke="#000000" orgfill="none" points="477.597,243.246 479.531,244.151    481.344,244.732 482.698,244.991 483.801,244.91 484.573,244.667  " fill="none" stroke="#000000" stroke-width="0.25" g2gstroke="#312783" stroke-miterlimit="10"/>
	<polyline orgstroke="#000000" orgfill="none" points="491.474,239.631 492.651,238.594    493.361,237.625 493.555,236.656 493.231,235.751 492.716,234.976 491.94,234.2 488.448,232.262 486.573,231.164 484.381,230.194    482.961,229.807 482.054,229.613 480.948,229.807 479.084,230.776 476.691,232.262 473.592,234.33 472.363,235.298    471.847,235.881 471.522,236.721 471.459,237.689 471.847,238.724 472.428,239.563 473.463,240.662 475.012,241.76  " fill="none" stroke="#000000" stroke-width="0.25" g2gstroke="#312783" stroke-miterlimit="10"/>
	<polyline orgstroke="#000000" orgfill="none" points="471.308,236.893 470.964,237.668    470.878,238.615 470.878,244.043  " fill="none" stroke="#000000" stroke-width="0.25" g2gstroke="#312783" stroke-miterlimit="10"/>
	
		<ellipse orgstroke="#000000" orgfill="none" fill="none" rx="3.704" cx="482.938" ry="2.434" cy="235.956" stroke="#000000" stroke-width="0.25" g2gstroke="#312783" stroke-miterlimit="10"/>
	
		<ellipse orgstroke="#000000" orgfill="none" fill="none" rx="1.895" cx="474.585" ry="1.346" cy="237.301" stroke="#000000" stroke-width="0.25" g2gstroke="#312783" stroke-miterlimit="10"/>
	
		<ellipse orgstroke="#000000" orgfill="none" fill="none" rx="1.894" cx="482.013" ry="1.345" cy="231.541" stroke="#000000" stroke-width="0.25" g2gstroke="#312783" stroke-miterlimit="10"/>
	
		<ellipse orgstroke="#000000" orgfill="none" fill="none" rx="1.896" cx="491.031" ry="1.346" cy="236.572" stroke="#000000" stroke-width="0.25" g2gstroke="#312783" stroke-miterlimit="10"/>
	
		<ellipse orgstroke="#000000" orgfill="none" fill="none" rx="1.895" cx="482.938" ry="1.346" cy="242.46" stroke="#000000" stroke-width="0.25" g2gstroke="#312783" stroke-miterlimit="10"/>
	<line orgstroke="#000000" orgfill="none" fill="none" x1="482.013" x2="481.96" y1="227" y2="229.484" stroke="#000000" stroke-width="0.25" g2gstroke="#312783" stroke-miterlimit="10"/>
	
		<line orgstroke="#000000" orgfill="none" fill="none" x1="476.103" x2="476.073" y1="230.208" y2="232.423" stroke="#000000" stroke-width="0.25" g2gstroke="#312783" stroke-miterlimit="10"/>
	
		<line orgstroke="#000000" orgfill="none" fill="none" x1="472.011" x2="472.009" y1="227.349" y2="229.452" stroke="#000000" stroke-width="0.25" g2gstroke="#312783" stroke-miterlimit="10"/>
	<polyline orgstroke="#000000" orgfill="none" points="493.215,244.216 494.837,243.314    494.837,242.911 491.189,239.905 484.834,243.663 488.633,246.352 489.198,246.444 492.27,244.739  " fill="none" stroke="#000000" stroke-width="0.25" g2gstroke="#312783" stroke-miterlimit="10"/>
	
		<line orgstroke="#000000" orgfill="none" fill="none" x1="492.27" x2="493.215" y1="244.739" y2="244.216" stroke="#000000" stroke-width="0.25" g2gstroke="#312783" stroke-miterlimit="10"/>
	<polygon orgstroke="#000000" orgfill="none" points="492.865,238.982 496.759,241.796    497.054,241.865 502.865,238.634 502.862,238.34 499.224,235.225  " fill="none" stroke="#000000" stroke-width="0.25" g2gstroke="#312783" stroke-miterlimit="10"/>
	
		<line orgstroke="#000000" orgfill="none" fill="none" x1="484.834" x2="484.948" y1="243.663" y2="252.748" stroke="#000000" stroke-width="0.25" g2gstroke="#312783" stroke-miterlimit="10"/>
	
		<line orgstroke="#000000" orgfill="none" fill="none" x1="489.175" x2="489.148" y1="251.573" y2="255.979" stroke="#000000" stroke-width="0.25" g2gstroke="#312783" stroke-miterlimit="10"/>
	
		<line orgstroke="#000000" orgfill="none" fill="none" x1="489.198" x2="489.187" y1="246.444" y2="249.248" stroke="#000000" stroke-width="0.25" g2gstroke="#312783" stroke-miterlimit="10"/>
	<polyline orgstroke="#000000" orgfill="none" points="498.448,254.88 500.392,255.784    502.198,256.367 503.558,256.624 504.323,256.568  " fill="none" stroke="#000000" stroke-width="0.25" g2gstroke="#312783" stroke-miterlimit="10"/>
	<polyline orgstroke="#000000" orgfill="none" points="511.382,252.045 511.893,251.649    513.508,250.228 514.219,249.259 514.406,248.29 514.091,247.385 513.572,246.61 512.798,245.834 509.308,243.896 507.434,242.798    505.237,241.829 503.815,241.441 502.906,241.247 501.813,241.441 499.938,242.41 497.55,243.896 494.446,245.964 493.22,246.933    492.698,247.514 492.381,248.354 492.314,249.324 492.698,250.357 493.281,251.197 494.317,252.296 495.865,253.394  " fill="none" stroke="#000000" stroke-width="0.25" g2gstroke="#312783" stroke-miterlimit="10"/>
	<polyline orgstroke="#000000" orgfill="none" points="492.156,248.527 491.819,249.302    491.733,250.25 491.733,255.677  " fill="none" stroke="#000000" stroke-width="0.25" g2gstroke="#312783" stroke-miterlimit="10"/>
	
		<ellipse orgstroke="#000000" orgfill="none" fill="none" rx="3.688" cx="503.796" ry="2.434" cy="247.589" stroke="#000000" stroke-width="0.25" g2gstroke="#312783" stroke-miterlimit="10"/>
	<path orgstroke="#000000" orgfill="none" fill="none" d="M526.299,272.318   c-1.44,2.093-3.702,3.068-5.32,2.188c-1.787-0.967-2.114-3.813-0.729-6.384c1.393-2.56,3.943-3.848,5.729-2.879   c1.564,0.847,2.021,3.146,1.167,5.415" stroke="#000000" stroke-width="0.25" g2gstroke="#312783" stroke-miterlimit="10"/>
	<path orgstroke="#000000" orgfill="none" fill="none" d="M520.323,281.134   c-0.313,0.479-0.835,0.69-1.188,0.495c-0.402-0.218-0.479-0.854-0.163-1.438c0.313-0.576,0.893-0.867,1.296-0.647   c0.353,0.19,0.453,0.708,0.263,1.229" stroke="#000000" stroke-width="0.25" g2gstroke="#312783" stroke-miterlimit="10"/>
	<path orgstroke="#000000" orgfill="none" fill="none" d="M533.772,261.428   c-0.324,0.472-0.836,0.688-1.2,0.479c-0.396-0.217-0.477-0.854-0.164-1.438c0.313-0.577,0.896-0.867,1.296-0.648   c0.354,0.189,0.453,0.707,0.271,1.229" stroke="#000000" stroke-width="0.25" g2gstroke="#312783" stroke-miterlimit="10"/>
	<path orgstroke="#000000" orgfill="none" fill="none" d="M515.948,272.389   c-0.322,0.473-0.835,0.688-1.197,0.479c-0.396-0.217-0.479-0.854-0.146-1.438c0.313-0.576,0.893-0.866,1.295-0.648   c0.354,0.19,0.438,0.708,0.264,1.229" stroke="#000000" stroke-width="0.25" g2gstroke="#312783" stroke-miterlimit="10"/>
	<path orgstroke="#000000" orgfill="none" fill="none" d="M451.563,194.393   c0.419,0.036,0.743,0.283,0.751,0.588c0.005,0.336-0.381,0.616-0.862,0.625c-0.479,0.009-0.878-0.258-0.883-0.593   c-0.006-0.295,0.29-0.563,0.688-0.609" stroke="#000000" stroke-width="0.25" g2gstroke="#312783" stroke-miterlimit="10"/>
	<path orgstroke="#000000" orgfill="none" fill="none" d="M410.468,216.594   c0.419,0.021,0.743,0.271,0.749,0.589c0.008,0.335-0.379,0.604-0.859,0.624c-0.479,0.009-0.878-0.271-0.883-0.604   c-0.007-0.295,0.289-0.545,0.688-0.604" stroke="#000000" stroke-width="0.25" g2gstroke="#312783" stroke-miterlimit="10"/>
	<path orgstroke="#000000" orgfill="none" fill="none" d="M460.72,200.311   c0.42,0.038,0.743,0.284,0.75,0.59c0.006,0.334-0.38,0.616-0.861,0.624c-0.479,0.01-0.878-0.258-0.883-0.594   c-0.006-0.294,0.289-0.545,0.687-0.609" stroke="#000000" stroke-width="0.25" g2gstroke="#312783" stroke-miterlimit="10"/>
	<path orgstroke="#000000" orgfill="none" fill="none" d="M492.593,217.953   c0.417,0.036,0.743,0.284,0.749,0.59c0.006,0.336-0.38,0.616-0.86,0.625c-0.479,0.021-0.879-0.257-0.883-0.593   c-0.007-0.296,0.287-0.547,0.687-0.609" stroke="#000000" stroke-width="0.25" g2gstroke="#312783" stroke-miterlimit="10"/>
	<path orgstroke="#000000" orgfill="none" fill="none" d="M522.804,235.349   c0.418,0.037,0.742,0.271,0.75,0.589c0.006,0.336-0.38,0.616-0.862,0.626c-0.479,0.008-0.878-0.258-0.883-0.595   c-0.005-0.313,0.29-0.563,0.686-0.608" stroke="#000000" stroke-width="0.25" g2gstroke="#312783" stroke-miterlimit="10"/>
	<path orgstroke="#000000" orgfill="none" fill="none" d="M534.813,239.861   c0.417,0.037,0.741,0.285,0.748,0.59c0.006,0.337-0.38,0.616-0.861,0.623c-0.479,0.012-0.878-0.257-0.883-0.592   c-0.005-0.295,0.29-0.546,0.688-0.609" stroke="#000000" stroke-width="0.25" g2gstroke="#312783" stroke-miterlimit="10"/>
	<path orgstroke="#000000" orgfill="none" fill="none" d="M512.323,229.139   c0.419,0.037,0.743,0.271,0.749,0.589c0.006,0.336-0.381,0.616-0.854,0.624c-0.481,0.01-0.877-0.257-0.884-0.604   c-0.021-0.294,0.271-0.546,0.688-0.604" stroke="#000000" stroke-width="0.25" g2gstroke="#312783" stroke-miterlimit="10"/>
	<path orgstroke="#000000" orgfill="none" fill="none" d="M472.133,205.738   c0.417,0.038,0.729,0.284,0.748,0.591c0.006,0.334-0.379,0.615-0.861,0.624c-0.481,0.009-0.877-0.259-0.882-0.594   c-0.007-0.295,0.288-0.545,0.686-0.608" stroke="#000000" stroke-width="0.25" g2gstroke="#312783" stroke-miterlimit="10"/>
	<path orgstroke="#000000" orgfill="none" fill="none" d="M505.232,289.273   c-0.323,0.474-0.835,0.688-1.2,0.495c-0.396-0.229-0.478-0.862-0.164-1.439c0.314-0.577,0.896-0.867,1.296-0.646   c0.354,0.188,0.452,0.709,0.271,1.223" stroke="#000000" stroke-width="0.25" g2gstroke="#312783" stroke-miterlimit="10"/>
	<path orgstroke="#000000" orgfill="none" fill="none" d="M505.232,284.682   c-0.323,0.473-0.835,0.688-1.2,0.479c-0.396-0.218-0.478-0.854-0.164-1.438c0.314-0.577,0.896-0.866,1.296-0.648   c0.354,0.189,0.452,0.708,0.271,1.229" stroke="#000000" stroke-width="0.25" g2gstroke="#312783" stroke-miterlimit="10"/>
	
		<ellipse orgstroke="#000000" orgfill="none" fill="none" rx="1.896" cx="495.439" ry="1.346" cy="248.936" stroke="#000000" stroke-width="0.25" g2gstroke="#312783" stroke-miterlimit="10"/>
	
		<ellipse orgstroke="#000000" orgfill="none" fill="none" rx="1.896" cx="502.865" ry="1.346" cy="243.175" stroke="#000000" stroke-width="0.25" g2gstroke="#312783" stroke-miterlimit="10"/>
	
		<ellipse orgstroke="#000000" orgfill="none" fill="none" rx="1.896" cx="511.895" ry="1.346" cy="248.206" stroke="#000000" stroke-width="0.25" g2gstroke="#312783" stroke-miterlimit="10"/>
	
		<ellipse orgstroke="#000000" orgfill="none" fill="none" rx="1.896" cx="503.796" ry="1.346" cy="254.094" stroke="#000000" stroke-width="0.25" g2gstroke="#312783" stroke-miterlimit="10"/>
	
		<line orgstroke="#000000" orgfill="none" fill="none" x1="502.865" x2="502.814" y1="238.634" y2="241.118" stroke="#000000" stroke-width="0.25" g2gstroke="#312783" stroke-miterlimit="10"/>
	
		<line orgstroke="#000000" orgfill="none" fill="none" x1="496.96" x2="496.934" y1="241.844" y2="244.058" stroke="#000000" stroke-width="0.25" g2gstroke="#312783" stroke-miterlimit="10"/>
	
		<line orgstroke="#000000" orgfill="none" fill="none" x1="492.865" x2="492.864" y1="238.982" y2="241.085" stroke="#000000" stroke-width="0.25" g2gstroke="#312783" stroke-miterlimit="10"/>
	<polyline orgstroke="#000000" orgfill="none" points="514.651,255.188 511.008,252.183    504.65,255.94 508.448,258.628  " fill="none" stroke="#000000" stroke-width="0.25" g2gstroke="#312783" stroke-miterlimit="10"/>
	<polyline orgstroke="#000000" orgfill="none" points="522.68,250.617 519.031,247.503    512.684,251.259 516.573,254.073  " fill="none" stroke="#000000" stroke-width="0.25" g2gstroke="#312783" stroke-miterlimit="10"/>
	
		<line orgstroke="#000000" orgfill="none" fill="none" x1="504.65" x2="504.598" y1="255.94" y2="261.121" stroke="#000000" stroke-width="0.25" g2gstroke="#312783" stroke-miterlimit="10"/>
	
		<line orgstroke="#000000" orgfill="none" fill="none" x1="512.684" x2="512.681" y1="251.259" y2="253.363" stroke="#000000" stroke-width="0.25" g2gstroke="#312783" stroke-miterlimit="10"/>
	
		<line orgstroke="#000000" orgfill="none" fill="none" x1="453.086" x2="453.063" y1="213.388" y2="215.277" stroke="#000000" stroke-width="0.25" g2gstroke="#312783" stroke-miterlimit="10"/>
	<polyline orgstroke="#000000" orgfill="none" points="449.272,195.361 449.53,200.53    449.53,202.339 450.306,203.243 451.47,204.148 456.51,207.378  " fill="none" stroke="#000000" stroke-width="0.25" g2gstroke="#312783" stroke-miterlimit="10"/>
	<polyline orgstroke="#000000" orgfill="none" points="448.886,199.238 448.11,200.4    447.465,201.951 447.336,203.502 447.336,208.154  " fill="none" stroke="#000000" stroke-width="0.25" g2gstroke="#312783" stroke-miterlimit="10"/>
	<polyline orgstroke="#000000" orgfill="none" points="453.797,197.041 453.797,201.822    454.184,202.339 457.931,204.794  " fill="none" stroke="#000000" stroke-width="0.25" g2gstroke="#312783" stroke-miterlimit="10"/>
	<polyline orgstroke="#000000" orgfill="none" points="450.049,202.469 450.694,202.856    451.405,202.986 452.181,202.921 452.697,202.727 453.473,202.081  " fill="none" stroke="#000000" stroke-width="0.25" g2gstroke="#312783" stroke-miterlimit="10"/>
	<polyline orgstroke="#000000" orgfill="none" points="458.836,202.339 458.642,204.601    453.086,212.687  " fill="none" stroke="#000000" stroke-width="0.25" g2gstroke="#312783" stroke-miterlimit="10"/>
	<polyline orgstroke="#000000" orgfill="none" points="463.89,202.692 463.681,206.862    463.74,207.378 460.71,209.771 460.71,210.094 460.597,213.805  " fill="none" stroke="#000000" stroke-width="0.25" g2gstroke="#312783" stroke-miterlimit="10"/>
	<polyline orgstroke="#000000" orgfill="none" points="459.156,204.214 459.934,204.731    460.258,205.376 460.573,209.382  " fill="none" stroke="#000000" stroke-width="0.25" g2gstroke="#312783" stroke-miterlimit="10"/>
	
		<line orgstroke="#000000" orgfill="none" fill="none" x1="459.865" x2="453.473" y1="205.182" y2="214.649" stroke="#000000" stroke-width="0.25" g2gstroke="#312783" stroke-miterlimit="10"/>
	<polyline orgstroke="#000000" orgfill="none" points="469.547,207.378 469.805,212.548    469.805,214.357 470.573,215.261 471.74,216.166 476.781,219.396  " fill="none" stroke="#000000" stroke-width="0.25" g2gstroke="#312783" stroke-miterlimit="10"/>
	<polyline orgstroke="#000000" orgfill="none" points="469.156,211.255 468.385,212.418    467.737,213.969 467.608,215.52 467.608,220.172  " fill="none" stroke="#000000" stroke-width="0.25" g2gstroke="#312783" stroke-miterlimit="10"/>
	<polyline orgstroke="#000000" orgfill="none" points="474.069,209.059 474.069,213.84    474.448,214.357 478.198,216.812  " fill="none" stroke="#000000" stroke-width="0.25" g2gstroke="#312783" stroke-miterlimit="10"/>
	<polyline orgstroke="#000000" orgfill="none" points="470.321,214.486 470.969,214.874    471.679,215.002 472.448,214.939 472.972,214.744 473.74,214.099  " fill="none" stroke="#000000" stroke-width="0.25" g2gstroke="#312783" stroke-miterlimit="10"/>
	<polyline orgstroke="#000000" orgfill="none" points="479.108,214.357 478.906,216.619    473.627,224.321  " fill="none" stroke="#000000" stroke-width="0.25" g2gstroke="#312783" stroke-miterlimit="10"/>
	<polyline orgstroke="#000000" orgfill="none" points="484.156,214.708 483.948,218.88    484.02,219.396 480.982,221.788 480.982,222.11 480.854,225.828  " fill="none" stroke="#000000" stroke-width="0.25" g2gstroke="#312783" stroke-miterlimit="10"/>
	<polyline orgstroke="#000000" orgfill="none" points="479.432,216.231 480.209,216.749    480.531,217.394 480.854,221.4  " fill="none" stroke="#000000" stroke-width="0.25" g2gstroke="#312783" stroke-miterlimit="10"/>
	
		<line orgstroke="#000000" orgfill="none" fill="none" x1="480.143" x2="474.573" y1="217.2" y2="225.828" stroke="#000000" stroke-width="0.25" g2gstroke="#312783" stroke-miterlimit="10"/>
	<polyline orgstroke="#000000" orgfill="none" points="489.98,219.396 490.239,224.565    490.239,226.375 491.015,227.279 492.178,228.184 497.218,231.415  " fill="none" stroke="#000000" stroke-width="0.25" g2gstroke="#312783" stroke-miterlimit="10"/>
	<polyline orgstroke="#000000" orgfill="none" points="489.594,223.273 488.817,224.436    488.173,225.987 488.043,227.537 488.043,232.189  " fill="none" stroke="#000000" stroke-width="0.25" g2gstroke="#312783" stroke-miterlimit="10"/>
	<polyline orgstroke="#000000" orgfill="none" points="494.505,221.076 494.505,225.857    494.892,226.375 498.64,228.83  " fill="none" stroke="#000000" stroke-width="0.25" g2gstroke="#312783" stroke-miterlimit="10"/>
	<polyline orgstroke="#000000" orgfill="none" points="490.757,226.503 491.402,226.892    492.113,227.021 492.889,226.957 493.405,226.762 494.181,226.116  " fill="none" stroke="#000000" stroke-width="0.25" g2gstroke="#312783" stroke-miterlimit="10"/>
	<polyline orgstroke="#000000" orgfill="none" points="499.544,226.375 499.35,228.637    493.599,237.257  " fill="none" stroke="#000000" stroke-width="0.25" g2gstroke="#312783" stroke-miterlimit="10"/>
	<polyline orgstroke="#000000" orgfill="none" points="504.598,226.727 504.389,230.896    504.448,231.415 501.418,233.806 501.418,234.127 501.281,238.392  " fill="none" stroke="#000000" stroke-width="0.25" g2gstroke="#312783" stroke-miterlimit="10"/>
	<polyline orgstroke="#000000" orgfill="none" points="499.865,228.249 500.643,228.766    500.967,229.412 501.281,233.418  " fill="none" stroke="#000000" stroke-width="0.25" g2gstroke="#312783" stroke-miterlimit="10"/>
	
		<line orgstroke="#000000" orgfill="none" fill="none" x1="500.573" x2="495.021" y1="229.217" y2="237.708" stroke="#000000" stroke-width="0.25" g2gstroke="#312783" stroke-miterlimit="10"/>
	<polyline orgstroke="#000000" orgfill="none" points="510.223,230.537 510.479,235.706    510.479,237.515 511.257,238.419 512.418,239.324 517.448,242.554  " fill="none" stroke="#000000" stroke-width="0.25" g2gstroke="#312783" stroke-miterlimit="10"/>
	<polyline orgstroke="#000000" orgfill="none" points="509.834,234.414 509.058,235.577    508.406,237.127 508.281,238.678 508.281,243.33  " fill="none" stroke="#000000" stroke-width="0.25" g2gstroke="#312783" stroke-miterlimit="10"/>
	<polyline orgstroke="#000000" orgfill="none" points="514.74,232.217 514.74,236.998    515.133,237.515 518.88,239.97  " fill="none" stroke="#000000" stroke-width="0.25" g2gstroke="#312783" stroke-miterlimit="10"/>
	<polyline orgstroke="#000000" orgfill="none" points="510.99,237.645 511.643,238.031    512.354,238.161 513.131,238.095 513.646,237.903 514.421,237.257  " fill="none" stroke="#000000" stroke-width="0.25" g2gstroke="#312783" stroke-miterlimit="10"/>
	<polyline orgstroke="#000000" orgfill="none" points="519.781,237.515 519.59,239.775    514.421,247.503  " fill="none" stroke="#000000" stroke-width="0.25" g2gstroke="#312783" stroke-miterlimit="10"/>
	<polyline orgstroke="#000000" orgfill="none" points="524.839,237.867 524.631,242.038    524.694,242.554 521.656,244.944 521.656,245.269 521.528,249.533  " fill="none" stroke="#000000" stroke-width="0.25" g2gstroke="#312783" stroke-miterlimit="10"/>
	<polyline orgstroke="#000000" orgfill="none" points="520.107,239.388 520.883,239.904    521.198,240.551 521.528,244.557  " fill="none" stroke="#000000" stroke-width="0.25" g2gstroke="#312783" stroke-miterlimit="10"/>
	
		<line orgstroke="#000000" orgfill="none" fill="none" x1="520.817" x2="514.775" y1="240.358" y2="250.023" stroke="#000000" stroke-width="0.25" g2gstroke="#312783" stroke-miterlimit="10"/>
	<polyline orgstroke="#000000" orgfill="none" points="418.13,219.784 423.085,217.76    427.821,221.076 430.406,220.775 440.631,227.582 440.656,229.088 442.21,229.476 443.76,229.303 448.362,232.71 450.946,232.409    464.094,241.114 468.293,244.344 470.878,244.043 484.948,252.748 489.148,255.979 491.733,255.677 502.771,262.169  " fill="none" stroke="#000000" stroke-width="0.25" g2gstroke="#312783" stroke-miterlimit="10"/>
</g>
</g>
</g></svg>