<svg xmlns="http://www.w3.org/2000/svg" xmlns:xlink="http://www.w3.org/1999/xlink" xmlns:etg="http://www.eurotaxglass.com/etg/evd/" etg:dataTimestamp="1539068912893" contentScriptType="text/ecmascript" zoomAndPan="magnify" contentStyleType="text/css" id="Layer_1" enable-background="new 0 0 1841.891 1595.279" version="1.1" width="1841.891px" xml:space="preserve" preserveAspectRatio="xMidYMid meet" viewBox="0 0 1841.891 1595.279" height="1595.279px" x="0px" y="0px"><g xmlns="http://www.w3.org/2000/svg" objecttype="PS" tooltip="#UNDEFINED" id="25">
<g onmouseover="notifyOwner(AGV_OBJECT_MOUSEOVER, '25(PS)')" onclick="clickZoom(evt); notifyOwner(AGV_OBJECT_MOUSECLICK, '25(PS)')" onmouseout="notifyOwner(AGV_OBJECT_MOUSEOUT, '25(PS)')" tooltip="#UNDEFINED" id="25-Graphic" objecttype="GRAPHIC">
<g>
	<path orgstroke="#000000" orgfill="#ffffff" fill="#ffffff" g2gfill="#ECF5E4" d="M259.979,285.832l-0.769-0.393l-0.301-0.229   l-0.528-0.713l-0.285-0.597l-0.382-0.706l-0.313-0.613l-0.262-0.104h-0.146l-0.354,0.063l-0.479,0.078l-0.862,0.188l-1.088-0.079   l-0.813-0.253l-1.059-0.524l0.056,0.032c-1.396-0.843-2.229-2.49-2.229-4.819c0-5.229,4.229-11.914,9.465-14.931   c3.013-1.738,5.688-1.88,7.429-0.688l0.675,0.564l0.646,0.938l0.375,0.729l0.038,0.263l0.188,0.111h0.271l1.189-0.188l1.313,0.027   l0.979,0.088l0.854,0.387l0.492,0.291l0.854,0.854c1.276,0.876,2.034,2.474,2.034,4.688c0,5.229-4.229,11.913-9.465,14.938   c-2.496,1.438-4.769,1.771-6.457,1.186L259.979,285.832z" outline-element="true" stroke="#000000" stroke-width="0.5" g2gstroke="#312783" stroke-miterlimit="10"/>
	<path orgstroke="#000000" orgfill="none" fill="none" d="M263.579,269.415   c1.188-1.239,2.521-2.313,3.936-3.127c2.638-1.521,5.021-1.82,6.736-1.075" stroke="#000000" stroke-width="0.25" g2gstroke="#312783" stroke-miterlimit="10"/>
	<path orgstroke="#000000" orgfill="none" fill="none" d="M260.048,274.242   c0.652-1.203,1.434-2.377,2.321-3.465" stroke="#000000" stroke-width="0.25" g2gstroke="#312783" stroke-miterlimit="10"/>
	<path orgstroke="#000000" orgfill="none" fill="none" d="M260.289,286.037   c-1.397-0.844-2.239-2.488-2.239-4.82c0-1.479,0.338-3.063,0.943-4.668" stroke="#000000" stroke-width="0.25" g2gstroke="#312783" stroke-miterlimit="10"/>
	<path orgstroke="#000000" orgfill="none" fill="none" d="M259.42,285.189   c-1.396-0.843-2.239-2.489-2.239-4.819c0-5.229,4.238-11.913,9.467-14.93c3.021-1.741,5.695-1.881,7.438-0.689" stroke="#000000" stroke-width="0.25" g2gstroke="#312783" stroke-miterlimit="10"/>
	<path orgstroke="#000000" orgfill="none" fill="none" d="M256.686,267.035   c1.376-1.572,2.968-2.937,4.663-3.913c2.035-1.176,3.92-1.622,5.464-1.419" stroke="#000000" stroke-width="0.25" g2gstroke="#312783" stroke-miterlimit="10"/>
	<path orgstroke="#000000" orgfill="none" fill="none" d="M253.951,270.952   c0.438-0.82,0.96-1.623,1.521-2.394" stroke="#000000" stroke-width="0.25" g2gstroke="#312783" stroke-miterlimit="10"/>
	<path orgstroke="#000000" orgfill="none" fill="none" d="M254.12,282.871   c-1.396-0.842-2.238-2.488-2.238-4.813c0-1.668,0.43-3.483,1.188-5.28" stroke="#000000" stroke-width="0.25" g2gstroke="#312783" stroke-miterlimit="10"/>
	<path orgstroke="#000000" orgfill="none" fill="none" d="M256.019,280.189   c-1.01-0.609-1.621-1.813-1.621-3.492c0-3.785,3.069-8.626,6.854-10.815c2.184-1.257,4.127-1.354,5.381-0.5" stroke="#000000" stroke-width="0.25" g2gstroke="#312783" stroke-miterlimit="10"/>
	<path orgstroke="#000000" orgfill="none" fill="none" d="M256.463,280.281   c-0.536-0.668-0.842-1.613-0.842-2.805c0-3.786,3.063-8.629,6.854-10.815c1.526-0.882,2.762-1.248,3.899-1.063" stroke="#000000" stroke-width="0.25" g2gstroke="#312783" stroke-miterlimit="10"/>
	<path orgstroke="#000000" orgfill="none" fill="none" d="M257.244,280.963   c-0.313-0.179-0.563-0.396-0.781-0.683" stroke="#000000" stroke-width="0.25" g2gstroke="#312783" stroke-miterlimit="10"/>
	<path orgstroke="#000000" orgfill="none" fill="none" d="M257.212,280.986   c-0.521-0.666-0.815-1.598-0.815-2.771c0-3.771,3.07-8.626,6.856-10.813c0.729-0.423,0.912-0.565,1.576-0.732" stroke="#000000" stroke-width="0.25" g2gstroke="#312783" stroke-miterlimit="10"/>
	<path orgstroke="#000000" orgfill="none" fill="none" d="M268.859,276.83   c-0.479,0.633-1.086,1.188-1.729,1.563c-1.646,0.938-2.979,0.387-2.979-1.271c0-1.644,1.334-3.747,2.979-4.688   c1.643-0.948,2.975-0.396,2.975,1.259c0,0.634-0.188,1.334-0.538,2.012" stroke="#000000" stroke-width="0.25" g2gstroke="#312783" stroke-miterlimit="10"/>
	<path orgstroke="#000000" orgfill="none" fill="none" d="M272.166,270.332   c-0.198,0.258-0.44,0.48-0.705,0.633c-0.666,0.396-1.208,0.156-1.208-0.512s0.542-1.521,1.208-1.906   c0.668-0.387,1.211-0.146,1.211,0.521c0,0.258-0.082,0.542-0.219,0.813" stroke="#000000" stroke-width="0.25" g2gstroke="#312783" stroke-miterlimit="10"/>
	<path orgstroke="#000000" orgfill="none" fill="none" d="M263.663,282.597   c-0.197,0.257-0.441,0.479-0.705,0.631c-0.666,0.385-1.208,0.146-1.208-0.521c0-0.669,0.542-1.521,1.208-1.896   c0.668-0.396,1.21-0.156,1.21,0.51c0,0.259-0.081,0.544-0.219,0.818" stroke="#000000" stroke-width="0.25" g2gstroke="#312783" stroke-miterlimit="10"/>
	<path orgstroke="#000000" orgfill="none" fill="none" d="M271.343,277.892   c-0.197,0.257-0.44,0.479-0.704,0.631c-0.667,0.385-1.21,0.157-1.21-0.51c0-0.669,0.542-1.521,1.21-1.908   c0.667-0.386,1.209-0.156,1.209,0.513c0,0.259-0.081,0.544-0.219,0.817" stroke="#000000" stroke-width="0.25" g2gstroke="#312783" stroke-miterlimit="10"/>
	<path orgstroke="#000000" orgfill="none" fill="none" d="M264.872,273.109   c-0.198,0.257-0.442,0.479-0.707,0.631c-0.666,0.387-1.208,0.157-1.208-0.51c0-0.668,0.542-1.521,1.208-1.906   c0.668-0.386,1.211-0.156,1.211,0.512c0,0.271-0.081,0.543-0.219,0.816" stroke="#000000" stroke-width="0.25" g2gstroke="#312783" stroke-miterlimit="10"/>
	<path orgstroke="#000000" orgfill="none" fill="none" d="M273.463,277.806   c-1.484,2.479-3.624,4.729-6.001,6.104c-4.484,2.604-8.114,1.063-8.114-3.428c0-4.479,3.635-10.211,8.114-12.801   c4.479-2.587,8.113-1.063,8.113,3.43c0,1.354-0.328,2.813-0.907,4.255" stroke="#000000" stroke-width="0.25" g2gstroke="#312783" stroke-miterlimit="10"/>
	<path orgstroke="#000000" orgfill="none" fill="none" d="M273.268,267.105   c0.776,0.795,1.229,2.009,1.229,3.586c0,4.479-3.646,10.207-8.115,12.799c-1.322,0.76-2.57,1.165-3.671,1.241" stroke="#000000" stroke-width="0.25" g2gstroke="#312783" stroke-miterlimit="10"/>
	<path orgstroke="#000000" orgfill="none" fill="none" d="M268.805,272.212   c0.059,0.198,0.089,0.438,0.089,0.688c0,1.646-1.333,3.729-2.975,4.688c-0.451,0.271-0.878,0.408-1.271,0.447" stroke="#000000" stroke-width="0.25" g2gstroke="#312783" stroke-miterlimit="10"/>
	
		<line orgstroke="#000000" orgfill="none" fill="none" x1="256.019" x2="257.244" y1="280.189" y2="280.963" stroke="#000000" stroke-width="0.25" g2gstroke="#312783" stroke-miterlimit="10"/>
</g>
</g>
</g></svg>