<svg xmlns="http://www.w3.org/2000/svg" xmlns:xlink="http://www.w3.org/1999/xlink" xmlns:etg="http://www.eurotaxglass.com/etg/evd/" etg:dataTimestamp="1539068912893" contentScriptType="text/ecmascript" zoomAndPan="magnify" contentStyleType="text/css" id="Layer_1" enable-background="new 0 0 1841.891 1595.279" version="1.1" width="1841.891px" xml:space="preserve" preserveAspectRatio="xMidYMid meet" viewBox="0 0 1841.891 1595.279" height="1595.279px" x="0px" y="0px"><g xmlns="http://www.w3.org/2000/svg" objecttype="PS" tooltip="#UNDEFINED" id="29">
<g onmouseover="notifyOwner(AGV_OBJECT_MOUSEOVER, '29(PS)')" onclick="clickZoom(evt); notifyOwner(AGV_OBJECT_MOUSECLICK, '29(PS)')" onmouseout="notifyOwner(AGV_OBJECT_MOUSEOUT, '29(PS)')" tooltip="#UNDEFINED" id="29-Graphic" objecttype="GRAPHIC">
<g>
	<path orgstroke="#000000" orgfill="#ffffff" fill="#ffffff" g2gfill="#ECF5E4" d="M555.74,154.928   c0.854,0.633,2.201,0.563,3.729-0.313c2.563-1.479,4.666-4.771,4.666-7.354c0-0.729-0.163-1.313-0.454-1.749l-0.702-1.271   l-6.636-3.186l-0.8-0.354l-5.75-0.266l-2.034-1.238l-0.091-4.867l-3.729-2.478l-0.268,0.089l-1.771,0.979l-0.088,2.563   l-0.354,0.354l-33.979-20.084l-0.267-0.354l-0.187-0.354l-0.186-4.521l-3.979-2.563l-1.509,1.146v2.831l-0.523,0.183l-3.104-1.938   L497.203,110l-0.185-0.521l-0.183-0.708l-0.271-0.62l-0.438-0.531l-2.828-1.682l-0.894,0.178l-0.522,0.271l-0.706,0.267   l-0.354-0.354l-0.702-0.354l-0.438,0.09l-0.522,0.09l-0.708,0.708l-0.354,0.796v0.271l0.62,0.708v0.531l-0.62,0.796l-0.178,1.229   l0.178,0.813l1.854,1.854l0.804,0.354l1.593,0.09l2.743,2.035l0.522,0.521l-0.354,0.443l-2.204,1.52l-0.146,1.188l0.109,1.271   l0.646,0.896l1.233,0.708l1.229,0.09l4.152-2.479l0.892-0.092l0.979,0.188l0.438,0.354l-1.146,2.831l2.831,2.214h0.524l2.925-1.771   l0.886,0.089l0.889,0.621l0.271,0.708l-1.688,1.504l-0.606,0.493l-0.146,1.101l0.185,1.063l0.621,1.094l0.938,0.313l0.979,0.188   l1.415-0.354l2.737-1.688l0.438-0.354l2.396,0.354l5.848,3.188l0.265,0.522l-2.211,1.601l-0.521,0.523l-0.188,0.708v0.893   l0.354,0.979l1.063,1.063l1.063,0.354l0.563-0.063l0.771-0.39l3.442-2.213h0.803l1.507,0.09l0.354,0.271l-1.063,2.395l-0.271,0.62   l0.183,0.354l3.188,1.938l0.523,0.185l2.83-2.22l0.438-0.177l0.619,0.354l0.884,0.354l-0.088,0.62l-1.771,1.505l-0.522,0.708   l-0.354,0.62l0.101,0.797l0.271,0.979l0.354,0.8l0.699,0.617l0.896,0.354l0.707-0.088l0.616-0.271l3.979-2.646l0.441-0.184h0.354   l2.831,1.511l0.708,0.798l0.708,1.597l1.15,0.621l0.521,0.438l-0.268,0.707l-7.438,4.688l-0.438,0.796l0.088,0.892l0.354,0.804   l0.521,0.523h1.147l0.8-0.096l6.98-4.604l0.619-0.271l0.525,0.096L555.74,154.928z" outline-element="true" stroke="#000000" stroke-width="0.5" g2gstroke="#312783" stroke-miterlimit="10"/>
	<polyline orgstroke="#000000" orgfill="none" points="501.614,109.556 505.281,112.109    505.557,112.64 505.822,116.622  " fill="none" stroke="#000000" stroke-width="0.25" g2gstroke="#312783" stroke-miterlimit="10"/>
	<polyline orgstroke="#000000" orgfill="none" points="542.432,133.239 545.898,135.82    546.254,136.174 546.254,140.066  " fill="none" stroke="#000000" stroke-width="0.25" g2gstroke="#312783" stroke-miterlimit="10"/>
	<polyline orgstroke="#000000" orgfill="none" points="501.222,112.906 501.222,113.791    501.31,114.321 501.929,114.676 505.281,116.887 505.99,116.976 506.353,116.533 506.615,116.533 507.504,116.356  " fill="none" stroke="#000000" stroke-width="0.25" g2gstroke="#312783" stroke-miterlimit="10"/>
	<polyline orgstroke="#000000" orgfill="none" points="541.781,136.652 541.781,137.537    541.865,138.067 542.49,138.422 545.856,140.633 546.563,140.722 546.919,140.279 547.182,140.279 548.067,140.103  " fill="none" stroke="#000000" stroke-width="0.25" g2gstroke="#312783" stroke-miterlimit="10"/>
	
		<line orgstroke="#000000" orgfill="none" fill="none" x1="502.637" x2="503.345" y1="121.487" y2="119.629" stroke="#000000" stroke-width="0.25" g2gstroke="#312783" stroke-miterlimit="10"/>
	<polyline orgstroke="#000000" orgfill="none" points="504.584,126.354 508.212,122.638    508.652,122.461 509.008,123.08 509.008,124.672  " fill="none" stroke="#000000" stroke-width="0.25" g2gstroke="#312783" stroke-miterlimit="10"/>
	
		<line orgstroke="#000000" orgfill="none" fill="none" x1="530.363" x2="531.07" y1="137.183" y2="135.325" stroke="#000000" stroke-width="0.25" g2gstroke="#312783" stroke-miterlimit="10"/>
	<polyline orgstroke="#000000" orgfill="none" points="532.186,142.721 535.938,138.333    536.38,138.156 536.732,138.775 536.732,140.368  " fill="none" stroke="#000000" stroke-width="0.25" g2gstroke="#312783" stroke-miterlimit="10"/>
	<path orgstroke="#000000" orgfill="none" fill="none" d="M555.147,154.82   c-0.225-0.417-0.35-0.942-0.35-1.569c0-2.577,2.09-5.872,4.666-7.354c1.247-0.729,2.381-0.896,3.216-0.571" stroke="#000000" stroke-width="0.25" g2gstroke="#312783" stroke-miterlimit="10"/>
	<path orgstroke="#000000" orgfill="none" fill="none" d="M553.49,153.649   c-0.224-0.417-0.348-0.943-0.348-1.571c0-2.577,2.089-5.872,4.666-7.354c1.246-0.729,2.38-0.896,3.215-0.57" stroke="#000000" stroke-width="0.25" g2gstroke="#312783" stroke-miterlimit="10"/>
	<path orgstroke="#000000" orgfill="none" fill="none" d="M548.99,149.383   c0.154-2.521,2.188-5.626,4.656-7.054c0.67-0.389,1.307-0.615,1.883-0.688" stroke="#000000" stroke-width="0.25" g2gstroke="#312783" stroke-miterlimit="10"/>
	<path orgstroke="#000000" orgfill="none" fill="none" d="M547.031,147.667   c-0.146-0.271-0.229-0.632-0.229-1.055c0-1.727,1.396-3.934,3.127-4.932c0.837-0.48,1.596-0.604,2.146-0.396" stroke="#000000" stroke-width="0.25" g2gstroke="#312783" stroke-miterlimit="10"/>
	<polyline orgstroke="#000000" orgfill="none" points="535.865,143.605 536.573,143.546    537.111,143.665 537.573,144.136 537.937,144.607 538.175,145.197 538.281,145.965 538.281,146.673 538.175,147.203    537.99,147.557  " fill="none" stroke="#000000" stroke-width="0.25" g2gstroke="#312783" stroke-miterlimit="10"/>
	<polyline orgstroke="#000000" orgfill="none" points="535.813,145.315 535.756,144.903    535.931,144.549 536.228,144.43 536.639,144.607 536.935,144.903 537.111,145.315 537.281,145.906 537.229,146.496 537.053,146.85    536.698,146.85 536.345,146.673  " fill="none" stroke="#000000" stroke-width="0.25" g2gstroke="#312783" stroke-miterlimit="10"/>
	<polyline orgstroke="#000000" orgfill="none" points="537.879,141.422 539.235,140.892    539.823,140.774 540.236,140.656 540.886,140.656 541.531,140.951 541.947,141.422 542.24,142.072 542.302,142.661 542.24,143.251    542.24,143.723 542.36,144.253 542.479,144.726  " fill="none" stroke="#000000" stroke-width="0.25" g2gstroke="#312783" stroke-miterlimit="10"/>
	<polyline orgstroke="#000000" orgfill="none" points="521.281,135.362 521.99,135.303    522.521,135.421 522.99,135.893 523.347,136.364 523.573,136.955 523.698,137.722 523.698,138.43 523.573,138.96 523.405,139.314     " fill="none" stroke="#000000" stroke-width="0.25" g2gstroke="#312783" stroke-miterlimit="10"/>
	<polyline orgstroke="#000000" orgfill="none" points="521.223,137.072 521.156,136.661    521.341,136.306 521.637,136.188 522.049,136.364 522.344,136.661 522.521,137.072 522.697,137.663 522.638,138.253    522.462,138.606 522.107,138.606 521.755,138.43  " fill="none" stroke="#000000" stroke-width="0.25" g2gstroke="#312783" stroke-miterlimit="10"/>
	<polyline orgstroke="#000000" orgfill="none" points="523.281,133.179 524.645,132.648    525.233,132.531 525.646,132.414 526.296,132.414 526.944,132.708 527.356,133.179 527.652,133.83 527.711,134.418    527.652,135.008 527.652,135.479 527.77,136.01 527.888,136.483  " fill="none" stroke="#000000" stroke-width="0.25" g2gstroke="#312783" stroke-miterlimit="10"/>
	<polyline orgstroke="#000000" orgfill="none" points="508.506,127.917 509.213,127.857    509.74,127.976 510.216,128.447 510.568,128.919 510.805,129.51 510.924,130.276 510.924,130.984 510.805,131.515 510.63,131.869     " fill="none" stroke="#000000" stroke-width="0.25" g2gstroke="#312783" stroke-miterlimit="10"/>
	<polyline orgstroke="#000000" orgfill="none" points="508.446,129.627 508.386,129.215    508.563,128.861 508.858,128.742 509.271,128.919 509.567,129.215 509.74,129.627 509.922,130.217 509.861,130.807    509.684,131.161 509.323,131.161 508.976,130.984  " fill="none" stroke="#000000" stroke-width="0.25" g2gstroke="#312783" stroke-miterlimit="10"/>
	<polyline orgstroke="#000000" orgfill="none" points="502.656,112.765 502.606,112.354    502.781,112 503.073,111.88 503.49,112.057 503.781,112.354 503.965,112.765 504.142,113.355 504.073,113.946 503.905,114.301    503.552,114.301 503.197,114.124  " fill="none" stroke="#000000" stroke-width="0.25" g2gstroke="#312783" stroke-miterlimit="10"/>
	<polyline orgstroke="#000000" orgfill="none" points="543.635,136.584 543.573,136.172    543.753,135.818 544.048,135.699 544.448,135.876 544.755,136.172 544.932,136.584 545.108,137.175 545.05,137.765    544.865,138.119 544.518,138.119 544.156,137.942  " fill="none" stroke="#000000" stroke-width="0.25" g2gstroke="#312783" stroke-miterlimit="10"/>
	<polyline orgstroke="#000000" orgfill="none" points="510.51,125.734 511.865,125.203    512.448,125.085 512.865,124.969 513.518,124.969 514.168,125.263 514.573,125.734 514.865,126.384 514.934,126.973    514.865,127.563 514.865,128.034 514.99,128.565 515.109,129.038  " fill="none" stroke="#000000" stroke-width="0.25" g2gstroke="#312783" stroke-miterlimit="10"/>
	<polyline orgstroke="#000000" orgfill="none" points="494.055,119.127 494.764,119.068    495.295,119.187 495.765,119.658 496.115,120.13 496.356,120.72 496.474,121.487 496.474,122.195 496.356,122.727 496.179,123.08     " fill="none" stroke="#000000" stroke-width="0.25" g2gstroke="#312783" stroke-miterlimit="10"/>
	<polyline orgstroke="#000000" orgfill="none" points="493.99,120.838 493.937,120.426    494.113,120.072 494.406,119.953 494.821,120.13 495.115,120.426 495.295,120.838 495.471,121.428 495.406,122.018    495.234,122.372 494.882,122.372 494.527,122.195  " fill="none" stroke="#000000" stroke-width="0.25" g2gstroke="#312783" stroke-miterlimit="10"/>
	<polyline orgstroke="#000000" orgfill="none" points="496.06,116.945 497.419,116.414    498.008,116.296 498.42,116.179 499.068,116.179 499.719,116.474 500.13,116.945 500.427,117.595 500.483,118.184 500.427,118.774    500.427,119.245 500.544,119.776 500.656,120.249  " fill="none" stroke="#000000" stroke-width="0.25" g2gstroke="#312783" stroke-miterlimit="10"/>
	<polyline orgstroke="#000000" orgfill="none" points="530.92,139.595 530.801,139.005    531.272,138.534 531.98,138.237 532.865,138.65 533.219,139.241 533.043,139.949 532.393,140.42 531.804,140.42  " fill="none" stroke="#000000" stroke-width="0.25" g2gstroke="#312783" stroke-miterlimit="10"/>
	<polyline orgstroke="#000000" orgfill="none" points="503.49,123.189 503.365,122.599    503.847,122.128 504.554,121.832 505.439,122.245 505.794,122.835 505.615,123.543 504.968,124.014 504.379,124.014  " fill="none" stroke="#000000" stroke-width="0.25" g2gstroke="#312783" stroke-miterlimit="10"/>
	<polyline orgstroke="#000000" orgfill="none" points="496.823,110.4 495.823,110.635    495.059,111.048 494.293,111.52 493.761,111.992 493.347,112.581 492.935,113.349 492.758,113.938 492.568,114.646  " fill="none" stroke="#000000" stroke-width="0.25" g2gstroke="#312783" stroke-miterlimit="10"/>
	
		<line orgstroke="#000000" orgfill="none" fill="none" x1="506.885" x2="505.281" y1="111.136" y2="112.109" stroke="#000000" stroke-width="0.25" g2gstroke="#312783" stroke-miterlimit="10"/>
	
		<line orgstroke="#000000" orgfill="none" fill="none" x1="547.592" x2="545.99" y1="135.213" y2="136.188" stroke="#000000" stroke-width="0.25" g2gstroke="#312783" stroke-miterlimit="10"/>
	<polyline orgstroke="#000000" orgfill="none" points="491.965,114.243 491.638,113.938    491.343,113.289 491.281,112.021 491.844,110.842 492.816,109.987 493.466,109.632 494.406,109.455 494.99,109.396    495.471,109.396 496.823,110.4  " fill="none" stroke="#000000" stroke-width="0.25" g2gstroke="#312783" stroke-miterlimit="10"/>
	<polyline orgstroke="#000000" orgfill="none" points="490.309,114.067 490.156,113.585    490.156,112.287 490.311,111.136 491.106,109.869 492.05,108.866 492.99,108.394 494.055,108.13 494.99,108.276 496.115,108.572     " fill="none" stroke="#000000" stroke-width="0.25" g2gstroke="#312783" stroke-miterlimit="10"/>
	<polyline orgstroke="#000000" orgfill="none" points="488.926,109.338 489.395,108.571    489.985,107.98 490.398,107.569 490.93,107.333  " fill="none" stroke="#000000" stroke-width="0.25" g2gstroke="#312783" stroke-miterlimit="10"/>
	<polyline orgstroke="#000000" orgfill="none" points="542.008,155.284 542.531,155.328    543.068,155.549 543.555,155.991 543.776,156.743 543.819,157.229 543.688,157.717 543.555,158.071  " fill="none" stroke="#000000" stroke-width="0.25" g2gstroke="#312783" stroke-miterlimit="10"/>
	<polyline orgstroke="#000000" orgfill="none" points="543.345,154.302 543.865,154.345    544.406,154.566 544.894,155.009 545.114,155.76 545.156,156.249 545.027,156.734 544.894,157.087  " fill="none" stroke="#000000" stroke-width="0.25" g2gstroke="#312783" stroke-miterlimit="10"/>
	<polyline orgstroke="#000000" orgfill="none" points="544.927,153.427 545.448,153.472    545.989,153.692 546.475,154.135 546.697,154.888 546.74,155.373 546.607,155.859 546.475,156.213  " fill="none" stroke="#000000" stroke-width="0.25" g2gstroke="#312783" stroke-miterlimit="10"/>
	<polyline orgstroke="#000000" orgfill="none" points="546.109,152.497 546.64,152.541    547.172,152.763 547.656,153.204 547.88,153.957 547.925,154.443 547.793,154.929 547.656,155.284  " fill="none" stroke="#000000" stroke-width="0.25" g2gstroke="#312783" stroke-miterlimit="10"/>
	<polyline orgstroke="#000000" orgfill="none" points="547.615,151.514 548.155,151.558    548.687,151.779 549.174,152.222 549.395,152.973 549.438,153.46 549.304,153.948 549.174,154.302  " fill="none" stroke="#000000" stroke-width="0.25" g2gstroke="#312783" stroke-miterlimit="10"/>
	<polyline orgstroke="#000000" orgfill="none" points="549.438,150.463 549.969,150.506    550.49,150.727 550.985,151.17 551.198,151.922 551.24,152.41 551.115,152.895 550.985,153.248  " fill="none" stroke="#000000" stroke-width="0.25" g2gstroke="#312783" stroke-miterlimit="10"/>
	<path orgstroke="#000000" orgfill="none" fill="none" d="M561.726,149.397   c0,0.979-0.801,2.253-1.79,2.822c-0.989,0.563-1.791,0.229-1.791-0.771c0-0.979,0.802-2.253,1.791-2.813   C560.925,148.07,561.726,148.406,561.726,149.397z" stroke="#000000" stroke-width="0.25" g2gstroke="#312783" stroke-miterlimit="10"/>
</g>
</g>
</g></svg>