<svg xmlns="http://www.w3.org/2000/svg" xmlns:xlink="http://www.w3.org/1999/xlink" xmlns:etg="http://www.eurotaxglass.com/etg/evd/" etg:dataTimestamp="1539068912893" contentScriptType="text/ecmascript" zoomAndPan="magnify" contentStyleType="text/css" id="Layer_1" enable-background="new 0 0 1841.891 1595.279" version="1.1" width="1841.891px" xml:space="preserve" preserveAspectRatio="xMidYMid meet" viewBox="0 0 1841.891 1595.279" height="1595.279px" x="0px" y="0px"><g xmlns="http://www.w3.org/2000/svg" objecttype="PS" tooltip="#UNDEFINED" id="42">
<g onmouseover="notifyOwner(AGV_OBJECT_MOUSEOVER, '42(PS)')" onclick="clickZoom(evt); notifyOwner(AGV_OBJECT_MOUSECLICK, '42(PS)')" onmouseout="notifyOwner(AGV_OBJECT_MOUSEOUT, '42(PS)')" tooltip="#UNDEFINED" id="42-Graphic" objecttype="GRAPHIC">
<g>
	<path orgstroke="#000000" orgfill="#ffffff" fill="#ffffff" g2gfill="#ECF5E4" d="M560.073,317.02   c-0.05-1.063-0.643-2.145-1.813-3.104c-3.127-2.563-9.201-3.302-13.567-1.646c-2.515,0.948-3.914,2.479-4.053,4.102l-0.013,16.564   l0.271,0.301l0.899,0.229l0.521,0.303l0.688,0.6l0.375,0.749l0.374,0.979l0.225,0.603l0.376,0.521l0.564,0.45   c3.271,1.341,7.688,1.502,11.094,0.226c2.729-1.028,4.146-2.747,4.06-4.521L560.073,317.02L560.073,317.02z" outline-element="true" stroke="#000000" stroke-width="0.5" g2gstroke="#312783" stroke-miterlimit="10"/>
	<path orgstroke="#000000" orgfill="none" fill="none" d="M545.799,321.639   c-1.289-0.423-2.443-1.013-3.354-1.755c-1.056-0.865-1.64-1.826-1.781-2.783" stroke="#000000" stroke-width="0.25" g2gstroke="#312783" stroke-miterlimit="10"/>
	<path orgstroke="#000000" orgfill="none" fill="none" d="M559.926,318.147   c-0.438,1.352-1.771,2.584-3.909,3.393c-1.999,0.771-4.357,1.021-6.626,0.814" stroke="#000000" stroke-width="0.25" g2gstroke="#312783" stroke-miterlimit="10"/>
	<path orgstroke="#000000" orgfill="none" fill="none" d="M560.068,319.062   c-0.188,1.578-1.586,3.063-4.043,3.99c-4.367,1.646-10.438,0.896-13.568-1.655c-1.266-1.038-1.854-2.216-1.813-3.357" stroke="#000000" stroke-width="0.25" g2gstroke="#312783" stroke-miterlimit="10"/>
	<path orgstroke="#000000" orgfill="none" fill="none" d="M560.068,320.51   c-0.188,1.563-1.586,3.063-4.043,3.979c-4.367,1.647-10.438,0.905-13.568-1.646c-1.266-1.038-1.854-2.229-1.813-3.359" stroke="#000000" stroke-width="0.25" g2gstroke="#312783" stroke-miterlimit="10"/>
	<path orgstroke="#000000" orgfill="none" fill="none" d="M560.068,321.927   c-0.188,1.578-1.586,3.063-4.043,3.979c-4.367,1.648-10.438,0.906-13.568-1.646c-1.266-1.039-1.854-2.216-1.813-3.36" stroke="#000000" stroke-width="0.25" g2gstroke="#312783" stroke-miterlimit="10"/>
	
		<ellipse orgstroke="#000000" orgfill="none" fill="none" rx="7.938" cx="550.294" ry="4.207" cy="317.019" stroke="#000000" stroke-width="0.25" g2gstroke="#312783" stroke-miterlimit="10"/>
	<ellipse orgstroke="#000000" orgfill="none" fill="none" rx="3.6" cx="550.055" ry="2.189" cy="317.02" stroke="#000000" stroke-width="0.25" g2gstroke="#312783" stroke-miterlimit="10"/>
	<path orgstroke="#000000" orgfill="none" fill="none" d="M541.823,331.329   c-0.344-0.479-0.562-1.048-0.562-1.521c0-0.869,0.704-1.168,1.563-0.666c0.866,0.502,1.57,1.604,1.57,2.479   s-0.704,1.168-1.57,0.666c-0.139-0.079-0.271-0.173-0.396-0.271" stroke="#000000" stroke-width="0.25" g2gstroke="#312783" stroke-miterlimit="10"/>
	<path orgstroke="#000000" orgfill="none" fill="none" d="M544.228,331.635   c-0.216-0.021-0.461-0.091-0.719-0.24c-0.816-0.472-1.489-1.482-1.566-2.326" stroke="#000000" stroke-width="0.25" g2gstroke="#312783" stroke-miterlimit="10"/>
</g>
</g>
</g></svg>