<svg xmlns="http://www.w3.org/2000/svg" xmlns:xlink="http://www.w3.org/1999/xlink" xmlns:etg="http://www.eurotaxglass.com/etg/evd/" etg:dataTimestamp="1539068912893" contentScriptType="text/ecmascript" zoomAndPan="magnify" contentStyleType="text/css" id="Layer_1" enable-background="new 0 0 1841.891 1595.279" version="1.1" width="1841.891px" xml:space="preserve" preserveAspectRatio="xMidYMid meet" viewBox="0 0 1841.891 1595.279" height="1595.279px" x="0px" y="0px"><g xmlns="http://www.w3.org/2000/svg" objecttype="PS" tooltip="#UNDEFINED" id="44">
<g onmouseover="notifyOwner(AGV_OBJECT_MOUSEOVER, '44(PS)')" onclick="clickZoom(evt); notifyOwner(AGV_OBJECT_MOUSECLICK, '44(PS)')" onmouseout="notifyOwner(AGV_OBJECT_MOUSEOUT, '44(PS)')" tooltip="#UNDEFINED" id="44-Graphic" objecttype="GRAPHIC">
<g>
	<path orgstroke="#000000" orgfill="#ffffff" fill="#ffffff" g2gfill="#ECC35D" stroke-linejoin="round" d="M685.406,367.276   v1.289c0,0,0.159,0.807,0.627,1.199c0.438,0.363,2.153,2.463,4.229,2.463v-0.002c0.479-0.088,0.938-0.063,1.342,0.074v0.002   c0,0,5.432,2.021,7.307,2.473c0,0,0.349,0.066,0.583,0.318l0,0c0.412-0.104,0.811-0.117,1.15-0.063c0,0,0.592,0.021,0.928,0.463   c1.955-0.537,3.396,0.688,3.396,3.104c0,2.895-2.044,6.422-4.564,7.879c-1.421,0.818-2.687,0.809-3.521,0.129l-0.021-0.025   c-0.438,0.248-1.175,0.115-1.175,0.115c-0.313-0.059-0.594-0.172-0.844-0.338l0.012,0.006c-0.451,0.164-1.212,0-1.212,0   s-5.063-0.646-8.182-2.797v0.002c-0.438-0.271-0.773-0.705-0.995-1.279h0.003c-2.612-2.137-6.146-5.021-7.66-7.42   c-2.455-3.873-2.427-7.59-2.427-7.59v-0.002c-0.438-0.496-0.65-1.039-0.657-1.582v-4.977h0.01c0.065-0.854,0.664-1.688,1.783-2.33   c2.396-1.387,6.304-1.379,8.72,0.014c1.116,0.646,1.729,1.479,1.813,2.318l0.016-0.002v4.977c0.006,0.543-0.201,1.088-0.625,1.584" outline-element="true" stroke="#000000" stroke-width="0.5" g2gstroke="#312783" stroke-miterlimit="10"/>
	<path orgstroke="#000000" orgfill="none" fill="none" d="M686.026,360.719   c0.104,0.979-0.492,1.975-1.783,2.717c-2.396,1.387-6.302,1.379-8.719-0.018c-1.288-0.742-1.894-1.73-1.813-2.699" stroke="#000000" stroke-width="0.25" g2gstroke="#312783" stroke-miterlimit="10"/>
	<path orgstroke="#000000" orgfill="none" fill="none" d="M685.406,367.278   c-0.288,0.338-0.679,0.658-1.168,0.939c-2.396,1.387-6.302,1.377-8.719-0.021c-0.479-0.271-0.869-0.592-1.16-0.924" stroke="#000000" stroke-width="0.25" g2gstroke="#312783" stroke-miterlimit="10"/>
	<path orgstroke="#000000" orgfill="none" fill="none" d="M685.221,369.612   c-0.264,0.313-0.615,0.604-1.063,0.855c-2.186,1.264-5.744,1.256-7.938-0.021c-0.44-0.254-0.793-0.541-1.063-0.844" stroke="#000000" stroke-width="0.25" g2gstroke="#312783" stroke-miterlimit="10"/>
	<path orgstroke="#000000" orgfill="none" fill="none" d="M683.215,362.844   c-1.836,1.061-4.82,1.057-6.668-0.021c-1.854-1.063-1.854-2.789-0.021-3.85c1.836-1.063,4.821-1.053,6.666,0.012   C685.031,360.057,685.049,361.78,683.215,362.844z" stroke="#000000" stroke-width="0.25" g2gstroke="#312783" stroke-miterlimit="10"/>
	<path orgstroke="#000000" orgfill="none" fill="none" d="M696.865,386.604   c-0.646-0.531-1.041-1.467-1.041-2.73c0-2.896,2.043-6.422,4.566-7.879c0.396-0.229,0.795-0.396,1.17-0.5" stroke="#000000" stroke-width="0.25" g2gstroke="#312783" stroke-miterlimit="10"/>
	<path orgstroke="#000000" orgfill="none" fill="none" d="M699.486,375.094   c-0.41,0.1-0.846,0.271-1.298,0.535c-2.521,1.457-4.563,4.979-4.563,7.877c0,1.354,0.438,2.35,1.188,2.852" stroke="#000000" stroke-width="0.25" g2gstroke="#312783" stroke-miterlimit="10"/>
	<path orgstroke="#000000" orgfill="none" fill="none" d="M693.615,386.362   c-1.063-0.342-1.761-1.438-1.761-3.121c0-2.895,2.043-6.418,4.566-7.875c0.9-0.521,1.764-0.713,2.479-0.594" stroke="#000000" stroke-width="0.25" g2gstroke="#312783" stroke-miterlimit="10"/>
	<path orgstroke="#000000" orgfill="none" fill="none" d="M684.448,382.288   c-0.173-0.438-0.264-0.979-0.264-1.604c0-2.896,2.044-6.418,4.563-7.875c0.523-0.305,1.029-0.492,1.519-0.576" stroke="#000000" stroke-width="0.25" g2gstroke="#312783" stroke-miterlimit="10"/>
	<path orgstroke="#000000" orgfill="none" fill="none" d="M682.798,380.149   c-0.146-0.375-0.229-0.82-0.229-1.332c0-2.396,1.692-5.32,3.783-6.527c0.438-0.25,0.854-0.396,1.244-0.477" stroke="#000000" stroke-width="0.25" g2gstroke="#312783" stroke-miterlimit="10"/>
	<path orgstroke="#000000" orgfill="none" fill="none" d="M700.406,376.719   c2.021-1.256,3.646-0.252,3.646,2.246c0,2.479-1.634,5.521-3.646,6.793c-2.006,1.256-3.634,0.25-3.634-2.246   S698.402,377.969,700.406,376.719" stroke="#000000" stroke-width="0.25" g2gstroke="#312783" stroke-miterlimit="10"/>
	<path orgstroke="#000000" orgfill="none" fill="none" d="M701.378,376.272   c0.518,0.457,0.788,1.229,0.788,2.318c0,2.479-1.646,5.537-3.646,6.793c-0.333,0.211-0.655,0.354-0.967,0.438" stroke="#000000" stroke-width="0.25" g2gstroke="#312783" stroke-miterlimit="10"/>
	<path orgstroke="#000000" orgfill="none" fill="none" d="M700.343,376.76   c0.202,0.438,0.313,0.979,0.313,1.646c0,2.467-1.592,5.479-3.563,6.752" stroke="#000000" stroke-width="0.25" g2gstroke="#312783" stroke-miterlimit="10"/>
</g>
</g>
</g></svg>