<svg xmlns="http://www.w3.org/2000/svg" xmlns:xlink="http://www.w3.org/1999/xlink" xmlns:etg="http://www.eurotaxglass.com/etg/evd/" etg:dataTimestamp="1539068912893" contentScriptType="text/ecmascript" zoomAndPan="magnify" contentStyleType="text/css" id="Layer_1" enable-background="new 0 0 1841.891 1595.279" version="1.1" width="1841.891px" xml:space="preserve" preserveAspectRatio="xMidYMid meet" viewBox="0 0 1841.891 1595.279" height="1595.279px" x="0px" y="0px"><g xmlns="http://www.w3.org/2000/svg" objecttype="PS" tooltip="#UNDEFINED" id="49">
<g onmouseover="notifyOwner(AGV_OBJECT_MOUSEOVER, '49(PS)')" transform="translate(-129.0, 192.0) translate(-50.0, -106.0) translate(88,50) " onclick="clickZoom(evt); notifyOwner(AGV_OBJECT_MOUSECLICK, '49(PS)')" onmouseout="notifyOwner(AGV_OBJECT_MOUSEOUT, '49(PS)')" tooltip="#UNDEFINED" id="49-Graphic" objecttype="GRAPHIC">
<g zvalue="41">
<g zvalue="21">
<g>
<path orgstroke="#000000" orgfill="#ffffff" transform="matrix(1 0 0 1 127 -174.99993896484375)" fill="#ffffff" g2gfill="#ECF5E4" d="M562.523,290.508   c-0.146-0.146-0.313-0.295-0.502-0.417l-0.762-0.747l-0.438-0.252l-0.736-0.337l-0.855-0.077l-1.146-0.021l-1.063,0.165h-0.229   l-0.166-0.104l-0.033-0.229l-0.33-0.624l-0.557-0.822l-0.605-0.494c-1.516-1.043-3.854-0.921-6.494,0.604   c-4.564,2.644-8.275,8.489-8.275,13.063c0,2.037,0.729,3.479,1.955,4.229l-0.051-0.031l0.93,0.461l0.705,0.223l0.949,0.066   l0.766-0.164l0.428-0.066l0.297-0.063h0.129l0.23,0.1l0.27,0.537l0.205,0.66l-0.502,0.334l-0.27,0.608v0.771l0.229,0.563   l0.334,0.771l0.729,1.008l0.439,0.563l0.439,0.613l0.395,0.723l0.271,0.578l0.438,0.688l0.484,0.586l1.359,0.855l18.424,10.844   l1.387,0.748c1.932,1.164,4.814,0.947,8.021-0.914c5.813-3.352,10.52-10.771,10.52-16.584c0-2.465-0.848-4.238-2.268-5.211   l-0.771-0.688l-1.051-0.605l-0.215-0.066v-2.557v-3.283l-0.23-0.724l-0.393-0.444l-2.227-1.382l-0.104-0.005l-0.775,0.107l-1,0.334   l-1.275,0.938l-0.73,0.129l-3.42-1.941l-0.17-0.063l-0.314,0.029l-0.334-0.355v-3.056l-0.225-0.729l-0.395-0.438l-2.322-1.385   l-0.779,0.104l-1,0.334l-1.275,0.946l-0.355,0.337l-0.92-0.165l-0.814-0.461l-0.168-0.055l-0.305,0.02l-0.229,0.104l-2.148,1.647   L562.523,290.508z" stroke="#000000" outline-element="true" stroke-width="0.5" g2gstroke="#322F82" stroke-miterlimit="10"/>
<path orgstroke="#000000" orgfill="none" transform="matrix(1 0 0 1 127 -174.99993896484375)" fill="none" d="M572.816,310.474   c1.787-2.438,4.059-4.602,6.508-6.02c3.354-1.931,6.324-2.089,8.26-0.767" stroke="#000000" stroke-width="0.25" g2gstroke="#322F82" stroke-miterlimit="10"/>
<path orgstroke="#000000" orgfill="none" transform="matrix(1 0 0 1 127 -174.99993896484375)" fill="none" d="M571.296,326.4   c-1.553-0.938-2.488-2.771-2.488-5.354c0-2.396,0.803-5.063,2.15-7.604" stroke="#000000" stroke-width="0.25" g2gstroke="#322F82" stroke-miterlimit="10"/>
<path orgstroke="#000000" orgfill="none" transform="matrix(1 0 0 1 127 -174.99993896484375)" fill="none" d="M576.955,300.825   c2.48-0.926,4.639-0.799,6.146,0.239" stroke="#000000" stroke-width="0.25" g2gstroke="#322F82" stroke-miterlimit="10"/>
<path orgstroke="#000000" orgfill="none" transform="matrix(1 0 0 1 127 -174.99993896484375)" fill="none" d="M566.816,323.771   c-1.553-0.938-2.48-2.771-2.48-5.355c0-4.02,2.254-8.814,5.564-12.494" stroke="#000000" stroke-width="0.25" g2gstroke="#322F82" stroke-miterlimit="10"/>
<path orgstroke="#000000" orgfill="none" transform="matrix(1 0 0 1 127 -174.99993896484375)" fill="none" d="M565.013,322.849   c-1.553-0.938-2.486-2.77-2.486-5.354c0-1.988,0.563-4.17,1.52-6.313" stroke="#000000" stroke-width="0.25" g2gstroke="#322F82" stroke-miterlimit="10"/>
<path orgstroke="#000000" orgfill="none" transform="matrix(1 0 0 1 127 -174.99993896484375)" fill="none" d="M557.876,318.404   c-1.564-0.938-2.49-2.771-2.49-5.354c0-1.813,0.457-3.771,1.264-5.729" stroke="#000000" stroke-width="0.25" g2gstroke="#322F82" stroke-miterlimit="10"/>
<path orgstroke="#000000" orgfill="none" transform="matrix(1 0 0 1 127 -174.99993896484375)" fill="none" d="M548.185,305.65   c1.486-4.859,5.34-9.938,9.854-12.542c1.439-0.833,2.814-1.336,4.064-1.533" stroke="#000000" stroke-width="0.25" g2gstroke="#322F82" stroke-miterlimit="10"/>
<path orgstroke="#000000" orgfill="none" transform="matrix(1 0 0 1 127 -174.99993896484375)" fill="none" d="M553.58,315.818   c-1.291-1-2.063-2.723-2.063-5.061c0-1.652,0.393-3.443,1.066-5.231" stroke="#000000" stroke-width="0.25" g2gstroke="#322F82" stroke-miterlimit="10"/>
<path orgstroke="#000000" orgfill="none" transform="matrix(1 0 0 1 127 -174.99993896484375)" fill="none" d="M579.4819946289062 297.885986328125L581.1480102539062 296.3840026855469L582.4290161132812 295.43798828125L583.4349975585938 295.1050109863281L584.2069702148438 294.9930114746094" stroke="#000000" stroke-width="0.25" g2gstroke="#322F82" stroke-miterlimit="10"/>
<path orgstroke="#000000" orgfill="none" transform="matrix(1 0 0 1 127 -174.99993896484375)" fill="none" d="M576.1909790039062 300.8349914550781L578.47998046875 298.7860107421875" stroke="#000000" stroke-width="0.25" stroke-miterlimit="10" g2gstroke="#322F82"/>
<path orgstroke="#000000" orgfill="none" transform="matrix(1 0 0 1 127 -174.99993896484375)" fill="none" d="M552.1209716796875 306.68499755859375L551.0050048828125 307.79998779296875L550.1090087890625 308.2449951171875L549.6090087890625 308.5799865722656L549.3369750976562 309.19000244140625L549.3369750976562 309.9739990234375L549.5599975585938 310.5249938964844L549.8939819335938 311.3080139160156L550.6190185546875 312.3080139160156L551.0640258789062 312.8630065917969L551.5070190429688 313.4739990234375L551.89599609375 314.1990051269531L552.2869873046875 314.6419982910156L552.60498046875 315.4580078125" stroke="#000000" stroke-width="0.25" g2gstroke="#322F82" stroke-miterlimit="10"/>
<path orgstroke="#000000" orgfill="none" transform="matrix(1 0 0 1 127 -174.99993896484375)" fill="none" d="M551.2160034179688 307.3760070800781L548.2550048828125 305.6189880371094" stroke="#000000" stroke-width="0.25" stroke-miterlimit="10" g2gstroke="#322F82"/>
<path orgstroke="#000000" orgfill="none" transform="matrix(1 0 0 1 127 -174.99993896484375)" fill="none" d="M562.7730102539062 312.7080078125L562.4290161132812 313.3689880371094L561.9290161132812 313.5350036621094L561.594970703125 313.45098876953125L560.8489990234375 313.2829895019531L555.9210205078125 310.531005859375" stroke="#000000" stroke-width="0.25" g2gstroke="#322F82" stroke-miterlimit="10"/>
<path orgstroke="#000000" orgfill="none" transform="matrix(1 0 0 1 127 -174.99993896484375)" fill="none" d="M562.5230102539062 315.2669982910156L562.1710205078125 315.9330139160156L561.6729736328125 316.09698486328125L561.3369750976562 316.0169982910156L560.5869750976562 315.8489990234375L555.6640014648438 313.0849914550781" stroke="#000000" stroke-width="0.25" g2gstroke="#322F82" stroke-miterlimit="10"/>
<path orgstroke="#000000" orgfill="none" transform="matrix(1 0 0 1 127 -174.99993896484375)" fill="none" d="M562.3410034179688 317.68499755859375L561.9819946289062 318.3489990234375L561.4819946289062 318.5169982910156L561.1480102539062 318.4330139160156L560.3980102539062 318.2669982910156L555.9210205078125 315.7550048828125" stroke="#000000" stroke-width="0.25" g2gstroke="#322F82" stroke-miterlimit="10"/>
<path orgstroke="#000000" orgfill="none" transform="matrix(1 0 0 1 127 -174.99993896484375)" fill="none" d="M579.707,319.142   c-2.063,1.188-3.729,0.479-3.729-1.572c0-2.063,1.67-4.689,3.729-5.885c2.059-1.188,3.729-0.479,3.729,1.578   c0,0.896-0.313,1.896-0.836,2.834" stroke="#000000" stroke-width="0.25" g2gstroke="#322F82" stroke-miterlimit="10"/>
<path orgstroke="#000000" orgfill="none" transform="matrix(1 0 0 1 127 -174.99993896484375)" fill="none" d="M583.316,298.72   c-0.584,0.334-1.059,0.146-1.059-0.438s0.475-1.329,1.059-1.664c0.582-0.336,1.063-0.135,1.063,0.438   c0,0.265-0.102,0.536-0.238,0.813" stroke="#000000" stroke-width="0.25" g2gstroke="#322F82" stroke-miterlimit="10"/>
<path orgstroke="#000000" orgfill="none" transform="matrix(1 0 0 1 127 -174.99993896484375)" fill="none" d="M572.816,292.848   c-0.582,0.334-1.057,0.146-1.057-0.438c0-0.581,0.473-1.327,1.057-1.664c0.584-0.334,1.063-0.137,1.063,0.438   c0,0.26-0.086,0.533-0.234,0.811" stroke="#000000" stroke-width="0.25" g2gstroke="#322F82" stroke-miterlimit="10"/>
<path orgstroke="#000000" orgfill="none" transform="matrix(1 0 0 1 127 -174.99993896484375)" fill="none" d="M582.599,316.097   c-0.545,0.98-1.314,1.896-2.189,2.566" stroke="#000000" stroke-width="0.25" g2gstroke="#322F82" stroke-miterlimit="10"/>
<path orgstroke="#000000" orgfill="none" transform="matrix(1 0 0 1 127 -174.99993896484375)" fill="none" d="M581.81,311.396   c0.072,0.25,0.109,0.523,0.109,0.85c0,2.063-1.67,4.691-3.729,5.877c-0.564,0.326-1.105,0.521-1.584,0.563" stroke="#000000" stroke-width="0.25" g2gstroke="#322F82" stroke-miterlimit="10"/>
<path orgstroke="#000000" orgfill="none" transform="matrix(1 0 0 1 127 -174.99993896484375)" fill="none" d="M552.083,293.431   c1.051-1.085,2.217-2.021,3.439-2.729c2.313-1.33,4.395-1.592,5.895-0.938" stroke="#000000" stroke-width="0.25" g2gstroke="#322F82" stroke-miterlimit="10"/>
<path orgstroke="#000000" orgfill="none" transform="matrix(1 0 0 1 127 -174.99993896484375)" fill="none" d="M548.996,297.654   c0.564-1.063,1.254-2.081,2.021-3.033" stroke="#000000" stroke-width="0.25" g2gstroke="#322F82" stroke-miterlimit="10"/>
<path orgstroke="#000000" orgfill="none" transform="matrix(1 0 0 1 127 -174.99993896484375)" fill="none" d="M547.398,305.294   c-0.104-0.465-0.15-0.977-0.15-1.535c0-1.293,0.297-2.688,0.814-4.086" stroke="#000000" stroke-width="0.25" g2gstroke="#322F82" stroke-miterlimit="10"/>
<path orgstroke="#000000" orgfill="none" transform="matrix(1 0 0 1 127 -174.99993896484375)" fill="none" d="M547.005,305.611   c-0.336-0.706-0.52-1.579-0.52-2.604c0-4.563,3.709-10.424,8.271-13.063c2.646-1.522,4.98-1.646,6.498-0.604" stroke="#000000" stroke-width="0.25" g2gstroke="#322F82" stroke-miterlimit="10"/>
<path orgstroke="#000000" orgfill="none" transform="matrix(1 0 0 1 127 -174.99993896484375)" fill="none" d="M545.482,291.042   c1.201-1.377,2.604-2.569,4.076-3.425c1.781-1.028,3.432-1.419,4.781-1.242" stroke="#000000" stroke-width="0.25" g2gstroke="#322F82" stroke-miterlimit="10"/>
<path orgstroke="#000000" orgfill="none" transform="matrix(1 0 0 1 127 -174.99993896484375)" fill="none" d="M543.087,294.469   c0.393-0.716,0.838-1.421,1.332-2.091" stroke="#000000" stroke-width="0.25" g2gstroke="#322F82" stroke-miterlimit="10"/>
<path orgstroke="#000000" orgfill="none" transform="matrix(1 0 0 1 127 -174.99993896484375)" fill="none" d="M543.232,304.899   c-1.223-0.737-1.959-2.188-1.959-4.229c0-1.461,0.379-3.047,1.045-4.624" stroke="#000000" stroke-width="0.25" g2gstroke="#322F82" stroke-miterlimit="10"/>
<path orgstroke="#000000" orgfill="none" transform="matrix(1 0 0 1 127 -174.99993896484375)" fill="none" d="M545.47,302.859   c-0.887-0.533-1.42-1.579-1.42-3.063c0-3.313,2.688-7.549,5.996-9.464c1.912-1.101,3.611-1.188,4.709-0.438" stroke="#000000" stroke-width="0.25" g2gstroke="#322F82" stroke-miterlimit="10"/>
<path orgstroke="#000000" orgfill="none" transform="matrix(1 0 0 1 127 -174.99993896484375)" fill="none" d="M546.539,303.536   c-0.268-0.157-0.488-0.358-0.688-0.597" stroke="#000000" stroke-width="0.25" g2gstroke="#322F82" stroke-miterlimit="10"/>
<path orgstroke="#000000" orgfill="none" transform="matrix(1 0 0 1 127 -174.99993896484375)" fill="none" d="M548.55,304.57   c-0.107-0.438-0.17-0.915-0.17-1.441c0-3.924,3.184-8.937,7.104-11.201c1.908-1.101,3.645-1.35,4.914-0.854" stroke="#000000" stroke-width="0.25" g2gstroke="#322F82" stroke-miterlimit="10"/>
<path orgstroke="#000000" orgfill="none" transform="matrix(1 0 0 1 127 -174.99993896484375)" fill="none" d="M545.469970703125 302.8590087890625L546.5390014648438 303.5360107421875" stroke="#000000" stroke-width="0.25" stroke-miterlimit="10" g2gstroke="#322F82"/>
<path orgstroke="#000000" orgfill="none" transform="matrix(1 0 0 1 127 -174.99993896484375)" fill="none" d="M583.10498046875 301.06298828125L583.885986328125 301.5679931640625L584.6069946289062 302.0690002441406L585.166015625 302.625" stroke="#000000" stroke-width="0.25" g2gstroke="#322F82" stroke-miterlimit="10"/>
<path orgstroke="#000000" orgfill="none" transform="matrix(1 0 0 1 127 -174.99993896484375)" fill="none" d="M569.22998046875 306.3760070800781L568.3839721679688 307.010986328125L566.1599731445312 308.6789855957031L565.27099609375 308.7919921875L564.27099609375 308.4580078125L563.0440063476562 307.8999938964844L555.47998046875 303.8940124511719" stroke="#000000" stroke-width="0.25" g2gstroke="#322F82" stroke-miterlimit="10"/>
<path orgstroke="#000000" orgfill="none" transform="matrix(1 0 0 1 127 -174.99993896484375)" fill="none" d="M576.1890258789062 301.1419982910156L569.22998046875 306.3760070800781" stroke="#000000" stroke-width="0.25" stroke-miterlimit="10" g2gstroke="#322F82"/>
<path orgstroke="#000000" orgfill="none" transform="matrix(1 0 0 1 127 -174.99993896484375)" fill="none" d="M566.9099731445312 310.52899169921875L566.1599731445312 311.0989990234375L565.27099609375 311.20098876953125L564.27099609375 310.86700439453125L563.0440063476562 310.31298828125L555.47998046875 306.3059997558594" stroke="#000000" stroke-width="0.25" g2gstroke="#322F82" stroke-miterlimit="10"/>
<path orgstroke="#000000" orgfill="none" transform="matrix(1 0 0 1 127 -174.99993896484375)" fill="none" d="M570.0830078125 291.1310119628906L561.2670288085938 298.4209899902344L559.0419921875 300.09100341796875L558.1480102539062 300.2030029296875L557.1480102539062 299.8689880371094L555.9229736328125 299.31298828125L553.8759765625 297.9639892578125" stroke="#000000" stroke-width="0.25" g2gstroke="#322F82" stroke-miterlimit="10"/>
<path orgstroke="#000000" orgfill="none" transform="matrix(1 0 0 1 127 -174.99993896484375)" fill="none" d="M559.791015625 301.9389953613281L559.0419921875 302.5010070800781L558.1480102539062 302.6130065917969L557.1480102539062 302.27899169921875L555.9229736328125 301.72198486328125L553.8759765625 300.375" stroke="#000000" stroke-width="0.25" g2gstroke="#322F82" stroke-miterlimit="10"/>
<path orgstroke="#000000" orgfill="none" transform="matrix(1 0 0 1 127 -174.99993896484375)" fill="none" d="M563.0130004882812 290.8340148925781L554.1480102539062 297.6440124511719" stroke="#000000" stroke-width="0.25" stroke-miterlimit="10" g2gstroke="#322F82"/>
<path orgstroke="#000000" orgfill="none" transform="matrix(1 0 0 1 127 -174.99993896484375)" fill="none" d="M555.47998046875 306.3059997558594L553.4760131835938 305.22900390625L553.1909790039062 304.9519958496094L553.0230102539062 304.3389892578125L553.1069946289062 302.3349914550781L553.1069946289062 302.3349914550781L553.3159790039062 301.97601318359375L554.3590087890625 300.9739990234375" stroke="#000000" stroke-width="0.25" g2gstroke="#322F82" stroke-miterlimit="10"/>
<path orgstroke="#000000" orgfill="none" transform="matrix(1 0 0 1 127 -174.99993896484375)" fill="none" d="M568.1480102539062 289.5639953613281L569.916015625 290.57000732421875L570.1380004882812 290.82000732421875L570.219970703125 291.0169982910156L570.302001953125 291.3210144042969L570.3330078125 292.5459899902344L570.3569946289062 292.9630126953125L570.2730102539062 293.3240051269531L570.0830078125 293.6029968261719L559.791015625 301.9389953613281" stroke="#000000" stroke-width="0.25" g2gstroke="#322F82" stroke-miterlimit="10"/>
<path orgstroke="#000000" orgfill="none" transform="matrix(1 0 0 1 127 -174.99993896484375)" fill="none" d="M578.9819946289062 296.01800537109375L570.1690063476562 303.3110046386719L567.9409790039062 304.97900390625L567.0599975585938 305.09100341796875L566.0540161132812 304.7569885253906L564.8300170898438 304.20098876953125L562.7730102539062 302.85198974609375" stroke="#000000" stroke-width="0.25" g2gstroke="#322F82" stroke-miterlimit="10"/>
<path orgstroke="#000000" orgfill="none" transform="matrix(1 0 0 1 127 -174.99993896484375)" fill="none" d="M568.6909790039062 306.8280029296875L567.9409790039062 307.3900146484375L567.0599975585938 307.5010070800781L566.0540161132812 307.1669921875L564.8300170898438 306.6109924316406L562.7730102539062 305.26300048828125" stroke="#000000" stroke-width="0.25" g2gstroke="#322F82" stroke-miterlimit="10"/>
<path orgstroke="#000000" orgfill="none" transform="matrix(1 0 0 1 127 -174.99993896484375)" fill="none" d="M574.7069702148438 293.57598876953125L563.0599975585938 302.5329895019531" stroke="#000000" stroke-width="0.25" stroke-miterlimit="10" g2gstroke="#322F82"/>
<path orgstroke="#000000" orgfill="none" transform="matrix(1 0 0 1 127 -174.99993896484375)" fill="none" d="M579.1259765625 295.9049987792969L579.2069702148438 296.2099914550781L579.2319946289062 297.4339904785156L579.2670288085938 297.85101318359375L579.1849975585938 298.2120056152344L578.9819946289062 298.49200439453125L568.6909790039062 306.8280029296875" stroke="#000000" stroke-width="0.25" g2gstroke="#322F82" stroke-miterlimit="10"/>
<path orgstroke="#000000" orgfill="none" transform="matrix(1 0 0 1 127 -174.99993896484375)" fill="none" d="M554.1480102539062 297.6440124511719L553.9409790039062 297.8039855957031L553.8350219726562 298.1080017089844L553.8099975585938 298.47198486328125L553.97802734375 300.3080139160156" stroke="#000000" stroke-width="0.25" g2gstroke="#322F82" stroke-miterlimit="10"/>
<path orgstroke="#000000" orgfill="none" transform="matrix(1 0 0 1 127 -174.99993896484375)" fill="none" d="M563.0599975585938 302.5329895019531L562.8759765625 302.7820129394531L562.7670288085938 303.1990051269531L562.7730102539062 305.26300048828125" stroke="#000000" stroke-width="0.25" g2gstroke="#322F82" stroke-miterlimit="10"/>
<path orgstroke="#000000" orgfill="none" transform="matrix(1 0 0 1 127 -174.99993896484375)" fill="none" d="M555.47998046875 303.8940124511719L553.3980102539062 302.7239990234375" stroke="#000000" stroke-width="0.25" stroke-miterlimit="10" g2gstroke="#322F82"/>
<path orgstroke="#000000" orgfill="none" transform="matrix(1 0 0 1 127 -174.99993896484375)" fill="none" d="M558.5830078125 300.2030029296875L558.5830078125 302.4830017089844" stroke="#000000" stroke-width="0.25" stroke-miterlimit="10" g2gstroke="#322F82"/>
<path orgstroke="#000000" orgfill="none" transform="matrix(1 0 0 1 127 -174.99993896484375)" fill="none" d="M567.3410034179688 305.0539855957031L567.3410034179688 307.3760070800781" stroke="#000000" stroke-width="0.25" stroke-miterlimit="10" g2gstroke="#322F82"/>
<path orgstroke="#000000" orgfill="none" transform="matrix(1 0 0 1 127 -174.99993896484375)" fill="none" d="M574.0189819335938 289.3349914550781L573.3920288085938 289.2929992675781L572.7260131835938 289.5419921875L572.2670288085938 289.7489929199219L571.8079833984375 290.12701416015625L570.469970703125 291.25201416015625" stroke="#000000" stroke-width="0.25" g2gstroke="#322F82" stroke-miterlimit="10"/>
<path orgstroke="#000000" orgfill="none" transform="matrix(1 0 0 1 127 -174.99993896484375)" fill="none" d="M570.510986328125 293.0050048828125L573.1010131835938 294.63299560546875" stroke="#000000" stroke-width="0.25" stroke-miterlimit="10" g2gstroke="#322F82"/>
<path orgstroke="#000000" orgfill="none" transform="matrix(1 0 0 1 127 -174.99993896484375)" fill="none" d="M559.054,296.771   c0.326,0.21,0.533,0.521,0.533,0.893c0,0.632-0.639,1.14-1.418,1.14c-0.785,0-1.418-0.512-1.418-1.14s0.635-1.14,1.418-1.14" stroke="#000000" stroke-width="0.25" g2gstroke="#322F82" stroke-miterlimit="10"/>
<path orgstroke="#000000" orgfill="none" transform="matrix(1 0 0 1 127 -174.99993896484375)" fill="none" d="M566.191,290.899   c0.33,0.209,0.537,0.521,0.537,0.894c0,0.63-0.639,1.146-1.418,1.146c-0.785,0-1.42-0.521-1.42-1.146c0-0.631,0.637-1.14,1.42-1.14   " stroke="#000000" stroke-width="0.25" g2gstroke="#322F82" stroke-miterlimit="10"/>
<path orgstroke="#000000" orgfill="none" transform="matrix(1 0 0 1 127 -174.99993896484375)" fill="none" d="M568.001,301.591   c0.326,0.211,0.535,0.529,0.535,0.896c0,0.631-0.646,1.14-1.416,1.14c-0.783,0-1.439-0.512-1.439-1.14   c0-0.627,0.646-1.146,1.439-1.146" stroke="#000000" stroke-width="0.25" g2gstroke="#322F82" stroke-miterlimit="10"/>
<path orgstroke="#000000" orgfill="none" transform="matrix(1 0 0 1 127 -174.99993896484375)" fill="none" d="M575.585,295.546   c0.326,0.21,0.539,0.532,0.539,0.896c0,0.631-0.646,1.141-1.418,1.141c-0.783,0-1.418-0.513-1.418-1.141s0.633-1.146,1.418-1.146" stroke="#000000" stroke-width="0.25" g2gstroke="#322F82" stroke-miterlimit="10"/>
</g>
</g>
</g>
</g>
</g></svg>