<svg xmlns="http://www.w3.org/2000/svg" xmlns:xlink="http://www.w3.org/1999/xlink" xmlns:etg="http://www.eurotaxglass.com/etg/evd/" etg:dataTimestamp="1539068912893" contentScriptType="text/ecmascript" zoomAndPan="magnify" contentStyleType="text/css" id="Layer_1" enable-background="new 0 0 1841.891 1595.279" version="1.1" width="1841.891px" xml:space="preserve" preserveAspectRatio="xMidYMid meet" viewBox="0 0 1841.891 1595.279" height="1595.279px" x="0px" y="0px"><g xmlns="http://www.w3.org/2000/svg" objecttype="PS" tooltip="#UNDEFINED" id="70">
<g onmouseover="notifyOwner(AGV_OBJECT_MOUSEOVER, '70(PS)')" onclick="clickZoom(evt); notifyOwner(AGV_OBJECT_MOUSECLICK, '70(PS)')" onmouseout="notifyOwner(AGV_OBJECT_MOUSEOUT, '70(PS)')" tooltip="#UNDEFINED" id="70-Graphic" objecttype="GRAPHIC">
<g>
	<g id="58::Colector_de_escape_con_turbo">
		<path orgstroke="#000000" orgfill="#ffffff" fill="#ffffff" g2gfill="#ECF5E4" stroke-linejoin="round" d="M316.21,363.817    c0.979-0.558,1.677-0.458,2.431-0.021c0.616,0.354,1.182,0.928,1.627,1.596l0.001,0.003c2.854,3.755,5.231,8.199,6.667,12.362    c2.279-1.502,4.782-2.998,5.729-3.4l0.464-0.215c0.979-0.54,1.686-0.438,2.438,0.005c0.616,0.355,1.188,0.929,1.628,1.597    l0.001,0.002c0.563,0.729,1.104,1.479,1.604,2.233c0.503-0.734,0.851-1.204,0.851-1.204s4.165-2.968,6.656-4.719l0.49-0.295    c0.313-1.038,1.979-3.045,4.908-0.563c1.915,1.646,4.063,4.396,4.021,6.943c-0.05,2.882-2.278,2.938-3.138,3.307l0.006,0.021    c-2.491,1.753-6.656,4.72-6.656,4.72s-0.479,0.652-1.138,1.626c2.27-1.493,4.751-2.979,5.688-3.376l0.479-0.215    c0.979-0.551,1.686-0.438,2.438,0.004c0.616,0.354,1.188,0.929,1.628,1.597l0.004,0.003c4.563,6.007,8.096,13.838,8.096,19.328    c0,0.777-0.268,1.336-0.688,1.622l-0.002-0.004l-1.536,0.574l0.076-0.026c-0.416,0.082-0.916-0.02-1.455-0.331    c-0.718-0.414-1.369-1.124-1.84-1.937l-0.021-0.034c-0.382-0.452-2.93-3.771-5.51-5.63l0.01,0.006    c-3.772,2.496-9.063,5.863-9.063,5.863h0.001c1.092,1.188,2.301,3.104,2.301,5.757l-0.104,0.008    c0.021,0.203,0.021,0.413,0.021,0.63c0,4.288-3.022,9.521-6.766,11.671c-0.458,0.271-0.911,0.474-1.354,0.612l0.004,0.011    c-1.489,0.813-3.633,1.358-7.262-0.29l-1.843-0.932c-2.671,4.117-6.164,5.521-8.824,2.264c-1.216-1.494-1.935-4.646-2.015-8.33    h-0.02c-0.844,0.175-1.521,0.069-2.102-0.229l0.086,0.063l-4.998-3.104c-0.813-0.465-1.474-1.205-1.922-2.188l0.001-0.003    l-0.354-0.207l-0.021,0.021c-1.925,1.637-2.707,1.802-4.266,5.935l0.002,0.001c-0.396,1.111-1.19,2.188-2.116,2.729    c-0.646,0.379-1.247,0.414-1.675,0.175l0.028,0.014l-1.396-0.946v0.004c-0.38-0.267-0.604-0.771-0.604-1.473    c0-0.438,0.092-0.902,0.254-1.367h0.001c0.916-4.521-1.771-7.713-2.414-10.396c-0.865-3.567-0.355-4.82-2.771-6.188    c-0.552-0.181-0.896-0.744-0.896-1.604c0-1.501,1.063-3.326,2.369-4.086c0.321-0.188,0.638-0.296,0.922-0.313l-0.01,0.001    c2.531-0.188,5.316-5.313,7.877-7.396c-8.837-5.335-11.479-13.313-11.002-19.419h0.003c-0.447,0.044-0.694,0.104-0.694,0.104    c-0.416,0.082-1.188,0.074-1.729-0.229c-1.438-0.826-2.604-2.843-2.604-4.479c0-0.791,0.271-1.354,0.705-1.641    c1.372-1.448,8.626-5.958,10.33-6.688c0.988-0.485,1.688-0.434,2.438,0.009c0.613,0.354,1.188,0.936,1.628,1.604l0.001,0.003    c2.979,3.915,5.415,8.338,6.818,12.646C311.634,366.302,315.147,364.271,316.21,363.817z" outline-element="true" stroke="#000000" stroke-width="0.5" g2gstroke="#312783" stroke-miterlimit="10"/>
		<path orgstroke="#000000" orgfill="none" fill="none" d="M349.141,388.888    c0.688-0.496,1.688-0.48,2.801,0.164c2.063,1.188,3.733,4.063,3.733,6.438c0,0.787-0.188,1.418-0.509,1.865" stroke="#000000" stroke-width="0.25" g2gstroke="#312783" stroke-miterlimit="10"/>
		<path orgstroke="#000000" orgfill="none" fill="none" d="M362.115,405.51    c0,1.021-0.438,1.677-1.146,1.813" stroke="#000000" stroke-width="0.25" g2gstroke="#312783" stroke-miterlimit="10"/>
		<path orgstroke="#000000" orgfill="none" fill="none" d="M350.489,384.429    c0.479-0.314,1.154-0.291,1.908,0.145c0.616,0.355,1.188,0.938,1.628,1.604" stroke="#000000" stroke-width="0.25" g2gstroke="#312783" stroke-miterlimit="10"/>
		<path orgstroke="#000000" orgfill="none" fill="none" d="M345.286,411.017    c-0.271-3.51-2.736-5.023-5.896-3.662" stroke="#000000" stroke-width="0.25" g2gstroke="#312783" stroke-miterlimit="10"/>
		<path orgstroke="#000000" orgfill="none" fill="none" d="M333.213,423.427    c0.972,0.808,2.393,1.021,3.979,0.513" stroke="#000000" stroke-width="0.25" g2gstroke="#312783" stroke-miterlimit="10"/>
		<path orgstroke="#000000" orgfill="none" fill="none" d="M332.577,416.677    c0,2.021,1.438,2.854,3.215,1.832c1.771-1.025,3.215-3.521,3.215-5.563c0-2.021-1.439-2.854-3.215-1.834    C334.017,412.148,332.577,414.635,332.577,416.677z" stroke="#000000" stroke-width="0.25" g2gstroke="#312783" stroke-miterlimit="10"/>
		<path orgstroke="#000000" orgfill="none" fill="none" d="M330.701,414.605    c0,0.309,0.219,0.434,0.479,0.277c0.271-0.154,0.488-0.531,0.488-0.84c0-0.313-0.218-0.438-0.488-0.279    C330.92,413.927,330.701,414.302,330.701,414.605z" stroke="#000000" stroke-width="0.25" g2gstroke="#312783" stroke-miterlimit="10"/>
		<path orgstroke="#000000" orgfill="none" fill="none" d="M338.086,408.225    c0,0.31,0.218,0.434,0.479,0.278c0.271-0.156,0.488-0.531,0.488-0.854c0-0.309-0.218-0.434-0.488-0.271    C338.304,407.54,338.086,407.927,338.086,408.225z" stroke="#000000" stroke-width="0.25" g2gstroke="#312783" stroke-miterlimit="10"/>
		<path orgstroke="#000000" orgfill="none" fill="none" d="M340.133,415.847    c0,0.309,0.218,0.434,0.487,0.271c0.27-0.146,0.479-0.521,0.479-0.841c0-0.311-0.218-0.434-0.479-0.271    C340.351,415.162,340.133,415.539,340.133,415.847z" stroke="#000000" stroke-width="0.25" g2gstroke="#312783" stroke-miterlimit="10"/>
		<path orgstroke="#000000" orgfill="none" fill="none" d="M332.81,422.533    c0,0.313,0.218,0.438,0.487,0.278c0.27-0.155,0.488-0.532,0.488-0.841c0-0.313-0.229-0.438-0.488-0.277    C333.029,421.847,332.81,422.224,332.81,422.533z" stroke="#000000" stroke-width="0.25" g2gstroke="#312783" stroke-miterlimit="10"/>
		<path orgstroke="#000000" orgfill="none" fill="none" d="M346.301,372.052    c0.738-0.611,1.861-0.625,3.12,0.102c2.224,1.284,4.021,4.396,4.021,6.943c0,1.077-0.313,1.883-0.854,2.354" stroke="#000000" stroke-width="0.25" g2gstroke="#312783" stroke-miterlimit="10"/>
		<path orgstroke="#000000" orgfill="none" fill="none" d="M344.951,373.01    c0.729-0.611,1.688-0.646,2.938,0.081c2.229,1.271,4.026,4.394,4.026,6.938c0,1.076-0.313,2.025-0.854,2.5" stroke="#000000" stroke-width="0.25" g2gstroke="#312783" stroke-miterlimit="10"/>
		<path orgstroke="#000000" orgfill="none" fill="none" d="M313.43,387.719    c-1.487-1.089-3.671-1.063-6.104,0.348c-4.482,2.589-8.117,8.857-8.117,14.001c0,2.572,0.907,4.376,2.377,5.214" stroke="#000000" stroke-width="0.25" g2gstroke="#312783" stroke-miterlimit="10"/>
		<path orgstroke="#000000" orgfill="none" fill="none" d="M327.605,395.885    c-1.386-0.7-3.021-0.284-5.202,0.97c-4.479,2.588-8.104,8.855-8.104,14c0,2.573,0.896,4.377,2.377,5.215" stroke="#000000" stroke-width="0.25" g2gstroke="#312783" stroke-miterlimit="10"/>
		<path orgstroke="#000000" orgfill="none" fill="none" d="M341.369,403.769    c-1.488-1.089-3.271-0.737-5.692,0.668c-4.482,2.588-8.117,8.857-8.117,14c0,2.572,0.909,4.377,2.377,5.214" stroke="#000000" stroke-width="0.25" g2gstroke="#312783" stroke-miterlimit="10"/>
		<path orgstroke="#000000" orgfill="none" fill="none" d="M323.148,392.072    c-1.621-1.186-4.001-1.146-6.646,0.38c-4.896,2.821-8.854,9.651-8.854,15.271c0,1.359,0.238,2.551,0.669,3.479" stroke="#000000" stroke-width="0.25" g2gstroke="#312783" stroke-miterlimit="10"/>
		<path orgstroke="#000000" orgfill="none" fill="none" d="M328.305,395.33    c-1.659-1.586-4.425-0.926-6.567,0.313c-4.885,2.82-8.845,9.652-8.845,15.256c0,1.996,0.563,4.631,2.259,5.527" stroke="#000000" stroke-width="0.25" g2gstroke="#312783" stroke-miterlimit="10"/>
		<path orgstroke="#000000" orgfill="none" fill="none" d="M295.174,398.193    c0,0.688,0.485,0.963,1.083,0.617c0.598-0.345,1.083-1.18,1.083-1.867c0-0.686-0.485-0.962-1.083-0.617    C295.659,396.677,295.174,397.51,295.174,398.193z" stroke="#000000" stroke-width="0.25" g2gstroke="#312783" stroke-miterlimit="10"/>
		<path orgstroke="#000000" orgfill="none" fill="none" d="M313.073,382.263    c0,0.686,0.485,0.963,1.082,0.617c0.604-0.354,1.083-1.188,1.083-1.867c0-0.688-0.479-0.963-1.083-0.617    C313.558,380.742,313.073,381.578,313.073,382.263z" stroke="#000000" stroke-width="0.25" g2gstroke="#312783" stroke-miterlimit="10"/>
		<path orgstroke="#000000" orgfill="none" fill="none" d="M300.367,417.57    c0,0.688,0.479,0.962,1.083,0.617c0.598-0.346,1.083-1.182,1.083-1.868c0-0.686-0.484-0.962-1.083-0.616    C300.851,416.052,300.367,416.885,300.367,417.57z" stroke="#000000" stroke-width="0.25" g2gstroke="#312783" stroke-miterlimit="10"/>
		
			<line orgstroke="#000000" orgfill="none" fill="none" x1="307.965" x2="301.585" y1="410.992" y2="407.277" stroke="#000000" stroke-width="0.25" g2gstroke="#312783" stroke-miterlimit="10"/>
		
			<line orgstroke="#000000" orgfill="none" fill="none" x1="319.637" x2="313.43" y1="391.302" y2="387.719" stroke="#000000" stroke-width="0.25" g2gstroke="#312783" stroke-miterlimit="10"/>
		
			<line orgstroke="#000000" orgfill="none" fill="none" x1="341.369" x2="337.899" y1="403.769" y2="401.808" stroke="#000000" stroke-width="0.25" g2gstroke="#312783" stroke-miterlimit="10"/>
		<path orgstroke="#000000" orgfill="none" fill="none" d="M354.026,386.177    c4.563,6.006,8.104,13.838,8.104,19.328" stroke="#000000" stroke-width="0.25" g2gstroke="#312783" stroke-miterlimit="10"/>
		<path orgstroke="#000000" orgfill="none" fill="none" d="M331.052,378.947    c0.717-0.479,1.75-0.453,2.896,0.209c0.979,0.563,1.857,1.479,2.542,2.537" stroke="#000000" stroke-width="0.25" g2gstroke="#312783" stroke-miterlimit="10"/>
		<path orgstroke="#000000" orgfill="none" fill="none" d="M332.661,374.351    c0.475-0.313,1.146-0.29,1.896,0.146c0.616,0.356,1.188,0.938,1.628,1.604" stroke="#000000" stroke-width="0.25" g2gstroke="#312783" stroke-miterlimit="10"/>
		<path orgstroke="#000000" orgfill="none" fill="none" d="M326.029,378.363    c0.313-0.201,0.604-0.396,0.908-0.604" stroke="#000000" stroke-width="0.25" g2gstroke="#312783" stroke-miterlimit="10"/>
		<path orgstroke="#000000" orgfill="none" fill="none" d="M336.198,376.095    c0.688,0.896,1.354,1.844,1.979,2.813" stroke="#000000" stroke-width="0.25" g2gstroke="#312783" stroke-miterlimit="10"/>
		<path orgstroke="#000000" orgfill="none" fill="none" d="M314.155,368.579    c0.729-0.466,1.736-0.427,2.868,0.229c2.168,1.252,3.938,4.284,3.938,6.771" stroke="#000000" stroke-width="0.25" g2gstroke="#312783" stroke-miterlimit="10"/>
		<path orgstroke="#000000" orgfill="none" fill="none" d="M315.796,364.011    c0.475-0.314,1.093-0.3,1.847,0.136c0.616,0.355,1.188,0.929,1.627,1.596" stroke="#000000" stroke-width="0.25" g2gstroke="#312783" stroke-miterlimit="10"/>
		<path orgstroke="#000000" orgfill="none" fill="none" d="M323.124,385.193    c-0.34-0.406-2.658-3.592-4.963-5.611" stroke="#000000" stroke-width="0.25" g2gstroke="#312783" stroke-miterlimit="10"/>
		<path orgstroke="#000000" orgfill="none" fill="none" d="M308.257,368.595    c0.29-0.203,0.593-0.413,0.907-0.625" stroke="#000000" stroke-width="0.25" g2gstroke="#312783" stroke-miterlimit="10"/>
		<path orgstroke="#000000" orgfill="none" fill="none" d="M319.271,365.746    c2.854,3.768,5.321,8.454,6.757,12.617" stroke="#000000" stroke-width="0.25" g2gstroke="#312783" stroke-miterlimit="10"/>
		<path orgstroke="#000000" orgfill="none" fill="none" d="M296.019,358.441    c0.748-0.531,1.835-0.511,3.048,0.189c2.252,1.301,4.079,4.438,4.079,7.036" stroke="#000000" stroke-width="0.25" g2gstroke="#312783" stroke-miterlimit="10"/>
		<path orgstroke="#000000" orgfill="none" fill="none" d="M308.566,376.969    c-0.423,0.031-0.952-0.028-1.729-0.479c-0.718-0.414-1.369-1.124-1.839-1.937" stroke="#000000" stroke-width="0.25" g2gstroke="#312783" stroke-miterlimit="10"/>
		<path orgstroke="#000000" orgfill="none" fill="none" d="M297.808,353.931    c0.479-0.314,1.155-0.291,1.909,0.145c0.616,0.355,1.182,0.938,1.627,1.604" stroke="#000000" stroke-width="0.25" g2gstroke="#312783" stroke-miterlimit="10"/>
		<path orgstroke="#000000" orgfill="none" fill="none" d="M304.974,374.515    c-0.283-0.34-1.792-2.297-3.62-4.04" stroke="#000000" stroke-width="0.25" g2gstroke="#312783" stroke-miterlimit="10"/>
		<path orgstroke="#000000" orgfill="none" fill="none" d="M301.344,355.677    c2.969,3.915,5.505,8.604,6.911,12.919" stroke="#000000" stroke-width="0.25" g2gstroke="#312783" stroke-miterlimit="10"/>
		<path orgstroke="#000000" orgfill="none" fill="none" d="M296.019,358.441    c-1.958,1.284-3.461,4.386-3.754,8.209" stroke="#000000" stroke-width="0.25" g2gstroke="#312783" stroke-miterlimit="10"/>
		<path orgstroke="#000000" orgfill="none" fill="none" d="M315.854,382.814    c0.438-0.742,0.7-1.578,0.7-2.332c0-1.502-1.061-2.104-2.369-1.351c-0.646,0.378-1.334,1.186-1.763,1.925" stroke="#000000" stroke-width="0.25" g2gstroke="#312783" stroke-miterlimit="10"/>
		<path orgstroke="#000000" orgfill="none" fill="none" d="M296.678,394.344    c-0.284,0.021-0.595,0.131-0.922,0.313c-1.313,0.756-2.369,2.586-2.369,4.086c0,0.865,0.352,1.438,0.901,1.612" stroke="#000000" stroke-width="0.25" g2gstroke="#312783" stroke-miterlimit="10"/>
		<path orgstroke="#000000" orgfill="none" fill="none" d="M299.46,416.944    c-0.162,0.46-0.252,0.929-0.252,1.368c0,0.75,0.265,1.277,0.688,1.521" stroke="#000000" stroke-width="0.25" g2gstroke="#312783" stroke-miterlimit="10"/>
		<path orgstroke="#000000" orgfill="none" fill="none" d="M317.978,390.344    c0-4.771-2.825-5.197-2.125-7.529" stroke="#000000" stroke-width="0.25" g2gstroke="#312783" stroke-miterlimit="10"/>
		<path orgstroke="#000000" orgfill="none" fill="none" d="M296.67,394.344    c2.538-0.193,5.328-5.313,7.876-7.396c2.549-2.084,5.528-2.271,7.876-5.892" stroke="#000000" stroke-width="0.25" g2gstroke="#312783" stroke-miterlimit="10"/>
		<path orgstroke="#000000" orgfill="none" fill="none" d="M294.268,400.427    c2.402,1.354,1.916,2.552,2.78,6.104c0.652,2.693,3.33,5.896,2.414,10.405" stroke="#000000" stroke-width="0.25" g2gstroke="#312783" stroke-miterlimit="10"/>
		<path orgstroke="#000000" orgfill="none" fill="none" d="M338.724,406.885    c-0.09-0.446-0.476-0.604-0.938-0.35c-0.271,0.152-0.54,0.479-0.729,0.778" stroke="#000000" stroke-width="0.25" g2gstroke="#312783" stroke-miterlimit="10"/>
		<path orgstroke="#000000" orgfill="none" fill="none" d="M330.701,412.691    c-0.114,0.012-0.241,0.053-0.373,0.13c-0.53,0.313-0.958,1.046-0.958,1.653c0,0.35,0.142,0.578,0.354,0.651" stroke="#000000" stroke-width="0.25" g2gstroke="#312783" stroke-miterlimit="10"/>
		<path orgstroke="#000000" orgfill="none" fill="none" d="M331.827,421.844    c-0.065,0.187-0.104,0.376-0.104,0.553c0,0.229,0.063,0.405,0.164,0.521" stroke="#000000" stroke-width="0.25" g2gstroke="#312783" stroke-miterlimit="10"/>
		<path orgstroke="#000000" orgfill="none" fill="none" d="M340.205,413.927    c0.229-0.021,0.584-0.024,0.829,0.104" stroke="#000000" stroke-width="0.25" g2gstroke="#312783" stroke-miterlimit="10"/>
		<path orgstroke="#000000" orgfill="none" fill="none" d="M330.698,412.692    c1.027-0.078,2.155-2.146,3.188-2.991c1.031-0.844,2.237-0.92,3.187-2.385" stroke="#000000" stroke-width="0.25" g2gstroke="#312783" stroke-miterlimit="10"/>
		<path orgstroke="#000000" orgfill="none" fill="none" d="M329.725,415.152    c0.973,0.551,0.775,1.031,1.125,2.479c0.271,1.089,1.348,2.38,0.979,4.21" stroke="#000000" stroke-width="0.25" g2gstroke="#312783" stroke-miterlimit="10"/>
		<path orgstroke="#000000" orgfill="none" fill="none" d="M339.126,408.441    c0.175-0.299,0.283-0.638,0.283-0.943c0-0.604-0.438-0.852-0.958-0.546c-0.271,0.152-0.54,0.479-0.729,0.778" stroke="#000000" stroke-width="0.25" g2gstroke="#312783" stroke-miterlimit="10"/>
		<path orgstroke="#000000" orgfill="none" fill="none" d="M331.367,413.106    c-0.114,0.011-0.241,0.052-0.373,0.129c-0.53,0.306-0.958,1.046-0.958,1.653c0,0.35,0.142,0.579,0.354,0.646" stroke="#000000" stroke-width="0.25" g2gstroke="#312783" stroke-miterlimit="10"/>
		<path orgstroke="#000000" orgfill="none" fill="none" d="M333.349,423.351    c0.375-0.216,0.698-0.649,0.856-1.1" stroke="#000000" stroke-width="0.25" g2gstroke="#312783" stroke-miterlimit="10"/>
		<path orgstroke="#000000" orgfill="none" fill="none" d="M332.492,422.26    c-0.065,0.187-0.104,0.375-0.104,0.553c0,0.604,0.43,0.852,0.958,0.547" stroke="#000000" stroke-width="0.25" g2gstroke="#312783" stroke-miterlimit="10"/>
		<path orgstroke="#000000" orgfill="none" fill="none" d="M339.126,408.441    c-0.283,0.945,0.854,1.121,0.854,3.047l0.063,1.875c0,0,0.044,0.813,0.628,0.96c0.258,0.065,1.452-0.245,1.289,0.896    c-0.094,0.646-0.997,1.687-1.536,1.547c-0.814-0.088-1.855,0.992-2.837,1.883c-0.535,0.486-1.662,1.207-1.662,1.207    c-0.779,0.662-1.095,0.729-1.729,2.4" stroke="#000000" stroke-width="0.25" g2gstroke="#312783" stroke-miterlimit="10"/>
		<path orgstroke="#000000" orgfill="none" fill="none" d="M331.364,413.107    c1.027-0.078,2.155-2.146,3.188-2.992c1.031-0.844,2.236-0.919,3.186-2.383" stroke="#000000" stroke-width="0.25" g2gstroke="#312783" stroke-miterlimit="10"/>
		<path orgstroke="#000000" orgfill="none" fill="none" d="M330.392,415.566    c0.972,0.551,0.774,1.031,1.125,2.479c0.264,1.089,1.347,2.38,0.979,4.21" stroke="#000000" stroke-width="0.25" g2gstroke="#312783" stroke-miterlimit="10"/>
		<path orgstroke="#000000" orgfill="none" fill="none" d="M314.503,378.052    c-0.421-0.198-0.982-0.146-1.604,0.211c-0.646,0.378-1.335,1.186-1.763,1.925" stroke="#000000" stroke-width="0.25" g2gstroke="#312783" stroke-miterlimit="10"/>
		<path orgstroke="#000000" orgfill="none" fill="none" d="M303.267,386.069    c2.548-2.083,5.528-2.271,7.876-5.892" stroke="#000000" stroke-width="0.25" g2gstroke="#312783" stroke-miterlimit="10"/>
		
			<line orgstroke="#000000" orgfill="none" fill="none" x1="315.997" x2="314.503" y1="379.052" y2="378.052" stroke="#000000" stroke-width="0.25" g2gstroke="#312783" stroke-miterlimit="10"/>
		<path orgstroke="#000000" orgfill="none" fill="none" d="M301.354,370.478    c0.364,2.592,2.332,5.79,7.063,8.854" stroke="#000000" stroke-width="0.25" g2gstroke="#312783" stroke-miterlimit="10"/>
		<path orgstroke="#000000" orgfill="none" fill="none" d="M303.146,365.677    c-1.271,0.882-2.098,2.632-1.792,4.812" stroke="#000000" stroke-width="0.25" g2gstroke="#312783" stroke-miterlimit="10"/>
		<path orgstroke="#000000" orgfill="none" fill="none" d="M355.166,397.357    c-0.688,0.481-1.771,1.211-3.021,2.033" stroke="#000000" stroke-width="0.25" g2gstroke="#312783" stroke-miterlimit="10"/>
		<path orgstroke="#000000" orgfill="none" fill="none" d="M349.141,388.888    c-1.748,1.188-5.03,3.438-7.729,5.293" stroke="#000000" stroke-width="0.25" g2gstroke="#312783" stroke-miterlimit="10"/>
		<path orgstroke="#000000" orgfill="none" fill="none" d="M333.68,388.812    c-1.68,1.281-2.621,2.176-2.621,2.176s-1.89,1.871-2.14,3.715" stroke="#000000" stroke-width="0.25" g2gstroke="#312783" stroke-miterlimit="10"/>
		<path orgstroke="#000000" orgfill="none" fill="none" d="M331.052,378.947    c-0.961,0.356-4.916,3.479-5.757,4.131c-0.841,0.652-5.188,4.15-3.524,8.123" stroke="#000000" stroke-width="0.25" g2gstroke="#312783" stroke-miterlimit="10"/>
		<path orgstroke="#000000" orgfill="none" fill="none" d="M320.949,375.578    c-5.771,4.438-1.853,12.121-1.853,12.121" stroke="#000000" stroke-width="0.25" g2gstroke="#312783" stroke-miterlimit="10"/>
		<path orgstroke="#000000" orgfill="none" fill="none" d="M314.155,368.579    c-3.354,3.229-8.054,9.188-4.555,13.479" stroke="#000000" stroke-width="0.25" g2gstroke="#312783" stroke-miterlimit="10"/>
		
			<line orgstroke="#000000" orgfill="none" fill="none" x1="323.148" x2="327.7" y1="392.072" y2="394.885" stroke="#000000" stroke-width="0.25" g2gstroke="#312783" stroke-miterlimit="10"/>
		<path orgstroke="#000000" orgfill="none" fill="none" d="M338.795,377.976    c-1.16,1.693-3.149,4.8-3.634,6.854c-0.731,3.104-1.829,5.326-3.235,7.188c-1.406,1.852-6.552,5.518-8.323,6.938    c-1.771,1.438-5.037,6.73-5.798,10.896c-0.422,2.302-0.596,4.646-0.55,6.811" stroke="#000000" stroke-width="0.25" g2gstroke="#312783" stroke-miterlimit="10"/>
		<path orgstroke="#000000" orgfill="none" fill="none" d="M344.8,387.808    c-1.175,1.75-2.9,4.539-3.347,6.434c-0.731,3.104-1.829,5.33-3.235,7.188c-1.406,1.852-6.552,5.518-8.323,6.938    c-1.771,1.438-6.747,9.979-1.8,14.354" stroke="#000000" stroke-width="0.25" g2gstroke="#312783" stroke-miterlimit="10"/>
		<path orgstroke="#000000" orgfill="none" fill="none" d="M351.193,376.94    c-2.479,1.753-5.188,3.292-6.646,4.72c-1.646,1.615-3.789,5.109-4.485,8.063c-0.729,3.103-1.829,5.329-3.229,7.183    c-1.4,1.854-6.563,5.521-8.317,6.943c-1.771,1.425-7.854,16.952-2.271,17.793" stroke="#000000" stroke-width="0.25" g2gstroke="#312783" stroke-miterlimit="10"/>
		
			<line orgstroke="#000000" orgfill="none" fill="none" x1="316.664" x2="317.249" y1="416.065" y2="416.427" stroke="#000000" stroke-width="0.25" g2gstroke="#312783" stroke-miterlimit="10"/>
		<path orgstroke="#000000" orgfill="none" fill="none" d="M341.369,403.769c0,0,0.813,0.496,1.725,1.484" stroke="#000000" stroke-width="0.25" g2gstroke="#312783" stroke-miterlimit="10"/>
		
			<line orgstroke="#000000" orgfill="none" fill="none" x1="338.394" x2="339.259" y1="406.443" y2="406.999" stroke="#000000" stroke-width="0.25" g2gstroke="#312783" stroke-miterlimit="10"/>
		
			<line orgstroke="#000000" orgfill="none" fill="none" x1="331.905" x2="332.809" y1="422.927" y2="423.483" stroke="#000000" stroke-width="0.25" g2gstroke="#312783" stroke-miterlimit="10"/>
		
			<line orgstroke="#000000" orgfill="none" fill="none" x1="341.033" x2="341.849" y1="414.037" y2="414.594" stroke="#000000" stroke-width="0.25" g2gstroke="#312783" stroke-miterlimit="10"/>
		<path orgstroke="#000000" orgfill="none" fill="none" d="M330.701,412.691c0,0-1.188,0.078-0.666-1.682    c0.517-1.771,2.584-2.593,3.75-2.816c0.791-0.152,2.188,0.249,2.188,0.249" stroke="#000000" stroke-width="0.25" g2gstroke="#312783" stroke-miterlimit="10"/>
	</g>
</g>
</g>
</g></svg>