<svg xmlns="http://www.w3.org/2000/svg" xmlns:xlink="http://www.w3.org/1999/xlink" xmlns:etg="http://www.eurotaxglass.com/etg/evd/" etg:dataTimestamp="1539068912893" contentScriptType="text/ecmascript" zoomAndPan="magnify" contentStyleType="text/css" id="Layer_1" enable-background="new 0 0 1841.891 1595.279" version="1.1" width="1841.891px" xml:space="preserve" preserveAspectRatio="xMidYMid meet" viewBox="0 0 1841.891 1595.279" height="1595.279px" x="0px" y="0px"><g xmlns="http://www.w3.org/2000/svg" objecttype="PS" tooltip="#UNDEFINED" id="73">
<g onmouseover="notifyOwner(AGV_OBJECT_MOUSEOVER, '73(PS)')" onclick="clickZoom(evt); notifyOwner(AGV_OBJECT_MOUSECLICK, '73(PS)')" onmouseout="notifyOwner(AGV_OBJECT_MOUSEOUT, '73(PS)')" tooltip="#UNDEFINED" id="73-Graphic" objecttype="GRAPHIC">
<g>
	<g id="61::Tubo_de_alimentacion_de_aceite_turbo">
		<path orgstroke="#000000" orgfill="#ffffff" fill="#ffffff" g2gfill="#ECF5E4" d="M287.057,355.32L287,353.69    c0.101-1.635-0.771-1.965-0.771-1.965s-2.254-1.104-3.842-1.715c-1.347-0.521-1.307-0.396-3.021,0.347    c0,0-22.238,11.938-24.729,13.432c-2.484,1.493-3.714,1.104-4.975,1.368c0,0-6.104,3.109-8.706,4.979    c-2.612,1.854-1.085,3.27-0.995,4.104c0.383,3.581-0.122,5.996,1.495,14.329c0.854,4.403,1.354,7.584,1.646,9.604    c0,0,0.12,0.979-0.146,1.659v0.729v-0.006l-0.875,1.013v-0.001c-0.623,0.729-1.063,1.721-1.063,2.584    c0.004,0.698,0.282,1.159,0.729,1.313v-0.001l2.811,0.688l0,0c0.313,0.063,0.66-0.021,1.047-0.246    c1.063-0.604,1.917-2.102,1.912-3.313c-0.002-0.622-0.226-1.063-0.586-1.253v0.002l-1.188-0.771v-0.729    c-0.002-0.107-0.041-0.229-0.119-0.32c-0.786-0.777-0.829-1.729-0.829-1.729c-0.356-2.052-0.879-4.904-1.599-8.607    c-1.616-8.333-0.985-10.692-1.247-14.184c-0.079-1.061-1.617-2.229,0.979-4.104c2.608-1.865,7.866-4.344,7.866-4.344    c1.271-0.271,3.323-0.521,5.813-2c2.479-1.492,22.938-12.479,22.938-12.479c1.358-0.674,1.688-1.099,3.853-0.003    c1.424,0.729,1.354,0.662,1.354,0.662s0.479,0.203,0.479,0.883l-0.154,1.705c0.001,0.146,0.099,0.287,0.284,0.396    c0.385,0.223,1,0.223,1.383,0.004C286.964,355.61,287.058,355.469,287.057,355.32z" outline-element="true" stroke="#000000" stroke-width="0.5" g2gstroke="#312783" stroke-miterlimit="10"/>
		<path orgstroke="#000000" orgfill="#ffffff" fill="#ffffff" g2gfill="#ECF5E4" d="M244.569,406.157    c-0.521-0.091-0.88-0.575-0.882-1.354c-0.004-1.229,0.854-2.713,1.913-3.325c0.521-0.301,0.994-0.334,1.342-0.146" stroke="#000000" stroke-width="0.25" g2gstroke="#312783" stroke-miterlimit="10"/>
		<path orgstroke="#000000" orgfill="#ffffff" fill="#ffffff" g2gfill="#ECF5E4" d="M245.746,400.473    c0.047,0.229-0.086,0.479-0.397,0.66c-0.545,0.313-1.431,0.313-1.979-0.005c-0.274-0.156-0.412-0.364-0.413-0.57" stroke="#000000" stroke-width="0.25" g2gstroke="#312783" stroke-miterlimit="10"/>
		<path orgstroke="#000000" orgfill="#ffffff" fill="#ffffff" g2gfill="#ECF5E4" d="M245.755,399.831    c0.002,0.208-0.134,0.415-0.406,0.573c-0.545,0.314-1.431,0.313-1.979-0.004c-0.273-0.158-0.411-0.363-0.413-0.569" stroke="#000000" stroke-width="0.25" g2gstroke="#312783" stroke-miterlimit="10"/>
		<path orgstroke="#000000" orgfill="#ffffff" fill="#ffffff" g2gfill="#ECF5E4" d="M245.61,404.594    c-0.431,0.249-0.771,0.048-0.771-0.449c-0.002-0.497,0.346-1.104,0.771-1.352c0.438-0.248,0.781-0.063,0.783,0.438    C246.389,403.741,246.041,404.344,245.61,404.594z" stroke="#000000" stroke-width="0.25" g2gstroke="#312783" stroke-miterlimit="10"/>
		<path orgstroke="#000000" orgfill="#ffffff" fill="#ffffff" g2gfill="#ECF5E4" d="M281.449,351.242    c0,0-0.072-0.794,0.394-1.095" stroke="#000000" stroke-width="0.25" g2gstroke="#312783" stroke-miterlimit="10"/>
		<path orgstroke="#000000" orgfill="#ffffff" fill="#ffffff" g2gfill="#ECF5E4" d="M285.105,352.571    c0,0,0.091-0.508,0.563-0.81" stroke="#000000" stroke-width="0.25" g2gstroke="#312783" stroke-miterlimit="10"/>
		<path orgstroke="#000000" orgfill="#ffffff" fill="#ffffff" g2gfill="#ECF5E4" d="M285.568,353.411    c0,0,0.188,0.336,1.104-0.139" stroke="#000000" stroke-width="0.25" g2gstroke="#312783" stroke-miterlimit="10"/>
	</g>
</g>
</g>
</g></svg>