<svg xmlns="http://www.w3.org/2000/svg" xmlns:xlink="http://www.w3.org/1999/xlink" xmlns:etg="http://www.eurotaxglass.com/etg/evd/" etg:dataTimestamp="1539068912893" contentScriptType="text/ecmascript" zoomAndPan="magnify" contentStyleType="text/css" id="Layer_1" enable-background="new 0 0 1841.891 1595.279" version="1.1" width="1841.891px" xml:space="preserve" preserveAspectRatio="xMidYMid meet" viewBox="0 0 1841.891 1595.279" height="1595.279px" x="0px" y="0px"><g xmlns="http://www.w3.org/2000/svg" objecttype="PS" tooltip="#UNDEFINED" id="80">
<g onmouseover="notifyOwner(AGV_OBJECT_MOUSEOVER, '80(PS)')" onclick="clickZoom(evt); notifyOwner(AGV_OBJECT_MOUSECLICK, '80(PS)')" onmouseout="notifyOwner(AGV_OBJECT_MOUSEOUT, '80(PS)')" tooltip="#UNDEFINED" id="80-Graphic" objecttype="GRAPHIC">
<g>
	<g id="67::XMLID_8_">
		<g>
			<path orgstroke="#000000" orgfill="#ffffff" fill="#ffffff" g2gfill="#ECF5E4" d="M555.152,360.483     c0-0.438-0.063-0.827-0.18-1.16l-0.207-0.286c-0.782-0.209-1.8-0.021-2.905,0.611c-2.484,1.438-4.499,4.616-4.499,7.099     c0,0.521,0.089,0.976,0.252,1.332l0.396,0.169c0.746,0.107,1.646-0.098,2.646-0.673     C553.136,366.144,555.152,362.969,555.152,360.483z M557.823,359.791l-0.104,3.318l-1.367,4.383l-0.323,0.479l-6.646,3.688     l-0.279,0.063h-0.388l-2.604-1.813l-0.563-0.475l-0.875-0.82v-4.264l0.271-0.854l0.368-1.104l0.746-0.927l1.296-1.688     l1.296-1.854l0.278-1.39v-2.878l-0.161-1.896l-0.324-2.463l-0.379-1.965c-0.134-0.241-0.206-0.563-0.206-0.938     c0-1.104,0.646-2.419,1.565-3.396l2.555-1.421l0.182,0.009l0.229,0.069l0.297,0.103l0.324,0.188l0.689,0.634l0.525,0.479     c0.251,0.271,0.404,0.688,0.404,1.215c0,0.896-0.107,1.897-0.763,2.779l-0.379,0.991l-0.315,2.753v3.589v2.25l0.19,0.513     l0.271,0.369l0.549,0.162l0.656,0.054h1.044l0.71,0.171l0.439,0.563L557.823,359.791z" outline-element="true" stroke="#000000" stroke-width="0.5" g2gstroke="#312783" stroke-miterlimit="10"/>
		</g>
	</g>
	<path orgstroke="#000000" orgfill="none" fill="none" d="M554.613,366.112   c-0.76,1.03-1.715,1.938-2.754,2.534c-1.829,1.055-3.403,0.874-4.104-0.287" stroke="#000000" stroke-width="0.25" g2gstroke="#312783" stroke-miterlimit="10"/>
	<path orgstroke="#000000" orgfill="none" fill="none" d="M555.109,359.16   c0.772,0.363,1.248,1.188,1.248,2.396c0,0.892-0.26,1.873-0.709,2.833" stroke="#000000" stroke-width="0.25" g2gstroke="#312783" stroke-miterlimit="10"/>
	<path orgstroke="#000000" orgfill="none" fill="none" d="M552.74,346.563   c-0.229,0.294-0.521,0.549-0.834,0.728c-0.846,0.489-1.521,0.198-1.521-0.646c0-0.852,0.687-1.934,1.521-2.42   c0.854-0.487,1.533-0.198,1.533,0.646c0,0.255-0.062,0.531-0.17,0.813" stroke="#000000" stroke-width="0.25" g2gstroke="#312783" stroke-miterlimit="10"/>
	<path orgstroke="#000000" orgfill="none" fill="none" d="M553.188,342.685   c0.146-0.005,0.284,0.007,0.412,0.036" stroke="#000000" stroke-width="0.25" g2gstroke="#312783" stroke-miterlimit="10"/>
	<path orgstroke="#000000" orgfill="none" fill="none" d="M553.188,342.685l-2.55,1.417   c-0.927,0.989-1.565,2.31-1.565,3.409c0,0.374,0.074,0.686,0.205,0.935l0.377,1.957l0.322,2.471l0.164,1.894v2.872l-0.278,1.396   l-1.299,1.854l-1.297,1.668l-0.74,0.931l-0.371,1.104l-0.271,0.84v3.813" stroke="#000000" stroke-width="0.25" g2gstroke="#312783" stroke-miterlimit="10"/>
	<path orgstroke="#000000" orgfill="none" fill="none" d="M552.49,344.32   c-0.141,0.78-0.761,1.667-1.504,2.093" stroke="#000000" stroke-width="0.25" g2gstroke="#312783" stroke-miterlimit="10"/>
	<polyline orgstroke="#000000" orgfill="none" points="549.26,348.409 549.406,348.908    549.554,349.667 549.653,350.402  " fill="none" stroke="#000000" stroke-width="0.25" g2gstroke="#312783" stroke-miterlimit="10"/>
	
		<line orgstroke="#000000" orgfill="none" fill="none" x1="544.671" x2="545.934" y1="364.344" y2="365.238" stroke="#000000" stroke-width="0.25" g2gstroke="#312783" stroke-miterlimit="10"/>
	
		<line orgstroke="#000000" orgfill="none" fill="none" x1="545.303" x2="546.564" y1="362.219" y2="363.108" stroke="#000000" stroke-width="0.25" g2gstroke="#312783" stroke-miterlimit="10"/>
	
		<line orgstroke="#000000" orgfill="none" fill="none" x1="549.26" x2="550.521" y1="343.094" y2="343.987" stroke="#000000" stroke-width="0.25" g2gstroke="#312783" stroke-miterlimit="10"/>
	
		<line orgstroke="#000000" orgfill="none" fill="none" x1="548.628" x2="549.89" y1="357.865" y2="358.761" stroke="#000000" stroke-width="0.25" g2gstroke="#312783" stroke-miterlimit="10"/>
	
		<line orgstroke="#000000" orgfill="none" fill="none" x1="545.875" x2="546.236" y1="369.141" y2="369.893" stroke="#000000" stroke-width="0.25" g2gstroke="#312783" stroke-miterlimit="10"/>
	<polyline orgstroke="#000000" orgfill="none" points="552.448,351.242 552.448,350.818    552.74,348.387 552.615,348.12 552.448,348.01 552.224,348.064 550.365,348.684 550.173,348.853 550.089,349.161 550.115,349.225    550.343,350.402 550.656,352.872 550.823,354.76 550.823,357.26 550.847,357.484 550.987,357.598 551.297,357.598 552.253,357.285    552.531,357.177 552.591,357.063 552.569,356.802 552.573,356.635 552.448,354.41 552.448,353.434  " fill="none" stroke="#000000" stroke-width="0.25" g2gstroke="#312783" stroke-miterlimit="10"/>
	
		<line orgstroke="#000000" orgfill="none" fill="none" x1="552.448" x2="552.448" y1="352.141" y2="351.242" stroke="#000000" stroke-width="0.25" g2gstroke="#312783" stroke-miterlimit="10"/>
</g>
</g>
</g></svg>