<svg xmlns="http://www.w3.org/2000/svg" xmlns:xlink="http://www.w3.org/1999/xlink" xmlns:etg="http://www.eurotaxglass.com/etg/evd/" etg:dataTimestamp="1539068912893" contentScriptType="text/ecmascript" zoomAndPan="magnify" contentStyleType="text/css" id="Layer_1" enable-background="new 0 0 1841.891 1595.279" version="1.1" xml:space="preserve" width="1841.891px" preserveAspectRatio="xMidYMid meet" viewBox="0 0 1841.891 1595.279" height="1595.279px" x="0px" y="0px"><g xmlns="http://www.w3.org/2000/svg" objecttype="PS" tooltip="#UNDEFINED" id="109">
<g onmouseover="notifyOwner(AGV_OBJECT_MOUSEOVER, '109(PS)')" transform="translate(-1.0864257831144641E-5, 66.80804286193847) translate(-478.1112626953125, -9.244252822875978) translate(59.0, -37.0) translate(572.0, -62.0) translate(10.0, 10.00006103515625)" onclick="clickZoom(evt); notifyOwner(AGV_OBJECT_MOUSECLICK, '109(PS)')" onmouseout="notifyOwner(AGV_OBJECT_MOUSEOUT, '109(PS)')" tooltip="#UNDEFINED" id="109-Graphic" objecttype="GRAPHIC">
<g zvalue="7">
<g>
<path stroke-linecap="round" orgstroke="#000000" orgfill="#ffffff" fill="#ffffff" g2gfill="#ECC35D" d="M449.178,289.611   c-0.973-5.758-3.156-6.949-3.156-17.559c0-3.727,1.766-24.301,1.018-31.125c-0.264-2.408-1.527-7.078-2.402-9.68   c-0.379-1.125-0.604-2.047-0.051-3.449c0.949-2.404,1.693-4.6,2.133-6.41c0.877-3.625,1.084-6.021,0.799-8.113   c-0.123-0.912-0.297-1.543-1.008-2.303c-2.375-2.541-4.537-4.75-5.48-5.672c-2.18-2.129-28.363-37.832-38.573-49.828   c-2.511-2.951-11.151-10.352-14.87-13.162l-0.161-0.123c-0.527-0.395-2.487-1.424-3.191-1.609   c-3.049-0.807-7.194,0.072-7.601,0.215c-0.945,0.33-17.27,5.557-64.092,32.443c-46.82,26.887-57.356,37.094-59.754,39.188   c-1.17,1.021-1.941,1.777-3.568,5.086c-2.248,4.564-1.393,15.805-0.373,24.428c1.02,8.621,9.041,51.039,9.227,55.721   c0.186,4.684-2.127,10.573-2.193,10.749c-0.832,2.201-1.233,4.408,0,5.969c0.428,0.541,1.8,1.492,2.673,1.85l0.166,0.086   c0.499,0.246,1.093,0.451,1.793,0.609c2.729,0.621,6.397,1.541,11.625,1.98c3.235,0.271,9.242,0.199,15.931-0.301   c1.38-0.104,2.383-0.063,3.132,0.154c0.297,0.086,0.488,0.248,0.647,0.439c0.264,0.314,0.51,0.654,0.768,1.018   c1.87,2.654,4.252,6.658,4.676,11.473c0.627,7.094,2.227,16.203,2.227,17.594s-0.348,5.84,2.154,10.568   c1.245,2.35,3.642,5.793,7.778,8.08l0.756,0.432c4.208,2.527,10.333,3.877,19.07,1.391c20.029-6.762,45.199-19.176,64.871-30.535   c18.762-10.83,38.325-23.604,53.227-37.934C450.285,298.48,450.354,296.574,449.178,289.611z M444.707,298.875   c-12.525,12.045-29.849,24.385-52.963,37.727c-22.479,12.982-46.635,24.357-64.632,30.439c-2.839,0.805-5.523,1.211-7.979,1.211   c-3.3,0-5.983-0.742-8.151-1.85l-0.152-0.098c-2.974-1.947-4.776-4.557-5.78-6.451c-1.973-3.727-1.904-7.225-1.873-8.906   c0,0-0.199-2.701-0.665-5.928c-0.512-3.537-1.212-8.383-1.574-12.477c-0.37-4.199-2.056-8.377-5.154-12.773   c-0.609-0.865-1.249-1.676-2.147-2.299l-0.125-0.086c-0.479-0.338-2.188-1.266-2.85-1.477c-0.807-0.254-1.773-0.4-2.967-0.4   c-0.426,0-0.89,0.018-1.399,0.055c-3.9,0.291-7.83,0.453-11.062,0.453c-1.816,0-3.384-0.051-4.533-0.148   c-4.589-0.387-7.914-1.049-10.543-1.754c-0.254-0.068-0.605-0.188-0.968-0.324c-0.174-0.064-0.203-0.125-0.325-0.389   c-0.205-0.445-0.313-1.359,0.328-3.105c1.039-2.824,2.551-7.137,2.365-11.801c-0.098-2.492-1.864-12.676-4.763-29.154   c-1.989-11.318-4.048-23.021-4.52-27.01c-1.8-15.221-0.923-20.965,0.13-23.1c1.479-3.01,2.34-3.756,3.434-4.721   c12.266-10.84,38.904-27.035,59.141-38.656c43.3-24.863,61.302-31.553,63.802-32.34c1.479-0.465,3.459-0.535,5.004-0.375   l0.276,0.033c0.754,0,1.653,0.6,1.902,0.803c4.258,3.451,11.355,9.5,13.457,11.969c5.963,7.006,17.29,21.988,26.389,34.027   c7.746,10.246,11.514,15.213,12.512,16.189c0.822,0.805,2.945,2.963,5.422,5.613c0.217,0.23,0.299,0.578,0.383,1.207   c0.25,1.832-0.012,3.686-0.791,6.902c-0.391,1.619-1.076,3.672-2.033,6.1c-0.873,2.211-0.455,3.855,0.004,5.223   c0.904,2.686,2.07,7.117,2.295,9.184c0.498,4.537-0.197,15.953-0.656,23.508c-0.221,3.627-0.381,6.25-0.381,7.473   c0,7.449,1.072,10.709,2.018,13.582c0.457,1.393,0.889,2.707,1.188,4.479C446.951,296.435,446.594,297.062,444.707,298.875z" stroke="#000000" outline-element="true" stroke-width="0.5" g2gstroke="#312783" stroke-miterlimit="10"/>
<path orgstroke="#000000" orgfill="none" stroke-linecap="round" fill="none" stroke-linejoin="round" d="   M258.718,316.311c-2.953-1.455-2.598-4.309-1.523-7.152c0.066-0.176,2.379-6.064,2.193-10.749   c-0.186-4.682-8.207-47.1-9.227-55.721c-1.02-8.623-1.875-19.863,0.373-24.428c1.627-3.309,2.398-4.064,3.568-5.086   c2.397-2.094,12.934-12.301,59.754-39.188c46.822-26.887,63.146-32.113,64.092-32.443c0.5-0.176,6.664-1.465,9.477,0.643   c0.053,0.041,0.106,0.082,0.161,0.123" stroke="#000000" stroke-width="0.25" g2gstroke="#312783" stroke-miterlimit="10"/>
<path orgstroke="#000000" orgfill="none" stroke-linecap="round" fill="none" stroke-linejoin="round" d="   M383.784,143.138c1.065,0.111,1.925,0.332,2.27,0.605c3.956,3.141,12.363,10.227,14.682,12.951   c5.963,7.008,17.29,21.988,26.39,34.027c7.744,10.246,11.512,15.215,12.51,16.189c0.824,0.805,2.947,2.963,5.424,5.613   c0.215,0.23,0.303,0.641,0.389,1.27c0.25,1.832-0.018,3.625-0.797,6.84c-0.393,1.621-1.076,3.674-2.033,6.102   c-0.873,2.211-0.455,3.854,0.004,5.221c0.904,2.686,2.068,7.119,2.295,9.184c0.496,4.539-0.197,15.953-0.658,23.508   c-0.221,3.629-0.379,6.25-0.379,7.475c0,7.449,1.07,10.707,2.016,13.582c0.457,1.391,0.891,2.705,1.189,4.479   c1.184,7.004,0.824,7.633-1.061,9.446c-12.525,12.043-29.85,24.385-52.964,37.727c-22.479,12.98-46.635,24.355-64.632,30.439   c-2.839,0.803-5.523,1.209-7.979,1.209c-4.089,0-7.231-1.137-9.619-2.699" stroke="#000000" stroke-width="0.25" g2gstroke="#312783" stroke-miterlimit="10"/>
<path orgstroke="#000000" orgfill="none" stroke-linecap="round" fill="none" stroke-linejoin="round" d="   M291.496,318.84c1.251,0.406,1.783,1.201,2.434,2.125c1.87,2.652,4.252,6.658,4.676,11.471c0.627,7.094,2.227,16.203,2.227,17.594   s-0.348,5.84,2.154,10.568c1.188,2.242,3.424,5.48,7.219,7.76" stroke="#000000" stroke-width="0.25" g2gstroke="#312783" stroke-miterlimit="10"/>
<path orgstroke="#000000" orgfill="none" stroke-linecap="round" fill="none" stroke-linejoin="round" d="   M293.634,317.471c-1.059-0.736-2.476-1.211-4.626-1.211c-0.426,0-0.89,0.018-1.399,0.057c-3.9,0.291-7.83,0.451-11.062,0.451   c-1.816,0-3.384-0.051-4.533-0.146c-4.589-0.389-7.914-1.051-10.543-1.756c-0.726-0.195-2.26-0.779-2.486-1.201" stroke="#000000" stroke-width="0.25" g2gstroke="#312783" stroke-miterlimit="10"/>
</g>
</g>
</g>
</g></svg>