<svg xmlns="http://www.w3.org/2000/svg" xmlns:xlink="http://www.w3.org/1999/xlink" xmlns:x="http://ns.adobe.com/Extensibility/1.0/" xmlns:graph="http://ns.adobe.com/Graphs/1.0/" xmlns:i="http://ns.adobe.com/AdobeIllustrator/10.0/" xmlns:etg="http://www.eurotaxglass.com/etg/evd/" etg:dataTimestamp="1539068912893" contentScriptType="text/ecmascript" zoomAndPan="magnify" contentStyleType="text/css" id="Layer_1" enable-background="new 0 0 1841.891 1595.279" version="1.1" xml:space="preserve" width="1841.891px" preserveAspectRatio="xMidYMid meet" viewBox="0 0 1841.891 1595.279" height="1595.279px" x="0px" y="0px"><g xmlns="http://www.w3.org/2000/svg" objecttype="PS" tooltip="#UNDEFINED" id="11">
<g onmouseover="notifyOwner(AGV_OBJECT_MOUSEOVER, '11(PS)')" transform="translate(15.529125793457013, 11.764660217285154)" onclick="clickZoom(evt); notifyOwner(AGV_OBJECT_MOUSECLICK, '11(PS)')" onmouseout="notifyOwner(AGV_OBJECT_MOUSEOUT, '11(PS)')" tooltip="#UNDEFINED" id="11-Graphic" objecttype="GRAPHIC">
<g>
	<polygon orgstroke="#000000" orgfill="#ffffff" stroke-linecap="round" points="441.018,383.749 441.018,392.385    440.776,392.885 435.281,396.64 433.857,396.64 424.879,390.326 423.448,390.512 418.739,394.219 418.374,394.268 417.112,393.357    416.995,393.024 416.995,383.993 417.283,383.615 421.99,380.041 423.424,379.855 423.755,380.094 424.091,379.781    424.111,377.244 424.031,375.52 423.858,373.51 423.423,372.177 422.887,370.73 422.354,369.487 421.968,368.721 421.817,367.955    422.39,366.79 422.72,366.569 429.781,361.827 432.637,360.038 436.107,356.973 438.962,353.398 440.593,350.344 440.966,349.344    441.07,349.219 441.17,349.12 441.323,349.12 442.065,349.695 443.9,351.992 444.309,354.552 444.485,368.531 445.941,370.574    449.981,367.444 450.315,367.332 451.031,367.761 451.271,368.193 450.695,370.348 450.773,370.73 451.531,373.319    451.652,374.897 451.383,375.567 441.198,382.928  " fill="#ffffff" g2gfill="#BCBEC0" outline-element="true" stroke="#000000" stroke-width="0.5" g2gstroke="#312783"/>
	
		<line orgstroke="#000000" orgfill="none" stroke-linecap="round" fill="none" x1="451.383" x2="435.88" y1="373.572" y2="384.398" stroke="#000000" stroke-width="0.25" g2gstroke="#312783"/>
	<polyline orgstroke="#000000" stroke-linecap="round" orgfill="none" points="441.018,391.01 435.147,395.135    433.716,395.135 425.031,389.026  " fill="none" stroke="#000000" stroke-width="0.25" g2gstroke="#312783"/>
	<polyline orgstroke="#000000" stroke-linecap="round" orgfill="none" points="441.018,386.346 434.986,390.635    433.559,390.635 424.879,384.523  " fill="none" stroke="#000000" stroke-width="0.25" g2gstroke="#312783"/>
	<polyline orgstroke="#000000" stroke-linecap="round" orgfill="none" points="434.182,366.783 433.904,365.527    432.281,361.982  " fill="none" stroke="#000000" stroke-width="0.25" g2gstroke="#312783"/>
	<polyline orgstroke="#000000" stroke-linecap="round" orgfill="none" points="435.179,379.706 435.323,375.744    434.924,370.135 434.439,367.934  " fill="none" stroke="#000000" stroke-width="0.25" g2gstroke="#312783"/>
	
		<line orgstroke="#000000" orgfill="none" stroke-linecap="round" fill="none" x1="434.898" x2="435.11" y1="386.983" y2="381.496" stroke="#000000" stroke-width="0.25" g2gstroke="#312783"/>
	<polyline orgstroke="#000000" stroke-linecap="round" orgfill="none" points="422.071,368.344 430.437,362.72    433.293,360.931 436.759,357.868 439.615,354.302 441.24,351.227  " fill="none" stroke="#000000" stroke-width="0.25" g2gstroke="#312783"/>
	<polyline orgstroke="#000000" stroke-linecap="round" orgfill="none" points="444.49,369.198 444.512,370.636    445.115,371.913 446.551,372.68 447.572,372.177 450.656,369.76  " fill="none" stroke="#000000" stroke-width="0.25" g2gstroke="#312783"/>
	<polyline orgstroke="#000000" stroke-linecap="round" orgfill="none" points="444.512,371.528 445.115,372.806    446.551,373.572 447.573,373.31 450.816,371.115  " fill="none" stroke="#000000" stroke-width="0.25" g2gstroke="#312783"/>
	<polyline orgstroke="#000000" stroke-linecap="round" orgfill="none" points="434.822,385.29 428.012,382.885    427.781,382.033 427.63,381.177 428.156,372.36 428.396,371.977 428.855,371.69 435.198,373.982  " fill="none" stroke="#000000" stroke-width="0.25" g2gstroke="#312783"/>
	
		<line orgstroke="#000000" orgfill="none" stroke-linecap="round" fill="none" x1="428.396" x2="435.311" y1="371.977" y2="376.302" stroke="#000000" stroke-width="0.25" g2gstroke="#312783"/>
	<polygon orgstroke="#000000" stroke-linecap="round" orgfill="none" points="433.674,376.957 429.697,374.469    429.466,374.469 429.237,374.76 428.778,379.35 429.615,381.65 429.849,381.844 432.605,382.895 433.365,382.991 433.598,382.415    433.74,377.819  " fill="none" stroke="#000000" stroke-width="0.25" g2gstroke="#312783"/>
	<polyline orgstroke="#000000" stroke-linecap="round" orgfill="none" points="427.554,379.829 426.255,374.094    425.795,372.072 425.717,370.636 425.795,369.487 426.102,368.635 426.865,367.761 428.615,366.614 429.773,366.518    430.615,366.518 431.531,366.804  " fill="none" stroke="#000000" stroke-width="0.25" g2gstroke="#312783"/>
	<polyline orgstroke="#000000" stroke-linecap="round" orgfill="none" points="427.572,364.644 429.392,364.41    430.461,364.41 431.38,364.602  " fill="none" stroke="#000000" stroke-width="0.25" g2gstroke="#312783"/>
	<path orgstroke="#000000" stroke-linecap="round" orgfill="none" fill="none" d="M427.948,370.763   c0.267,0.556,0.104,1.005-0.344,1.005c-0.438,0-1.013-0.45-1.266-1.005c-0.263-0.563-0.106-1.005,0.339-1.005   C427.137,369.76,427.698,370.219,427.948,370.763z" stroke="#000000" stroke-width="0.25" g2gstroke="#312783"/>
	<path orgstroke="#000000" stroke-linecap="round" orgfill="none" fill="none" d="M431.198,369.103   c0.269,0.556,0.104,1.007-0.341,1.007c-0.438,0-1.012-0.451-1.27-1.007c-0.253-0.556-0.104-1.005,0.343-1.005   S430.948,368.552,431.198,369.103z" stroke="#000000" stroke-width="0.25" g2gstroke="#312783"/>
	<path orgstroke="#000000" stroke-linecap="round" orgfill="none" fill="none" d="M433.74,392.398   c0.354,0.771,0.146,1.391-0.472,1.391c-0.612,0-1.396-0.624-1.747-1.391c-0.354-0.768-0.146-1.389,0.469-1.389   C432.613,391.01,433.395,391.635,433.74,392.398z" stroke="#000000" stroke-width="0.25" g2gstroke="#312783"/>
	<polyline orgstroke="#000000" orgfill="none" points="435.511,367.285 435.511,364.985 435.74,362.885    436.504,360.102  " fill="none" stroke="#000000" stroke-width="0.25" g2gstroke="#312783"/>
	<polyline orgstroke="#000000" stroke-linecap="round" orgfill="none" points="444.232,365.177 442.615,367.474    442.396,368.052 442.32,368.913 442.473,369.678 442.931,370.157 444.512,370.636  " fill="none" stroke="#000000" stroke-width="0.25" g2gstroke="#312783"/>
	<polyline orgstroke="#000000" stroke-linecap="round" orgfill="none" points="444.073,354.552 442.549,356.271    441.859,357.427 441.095,359.344 439.182,368.816 439.029,369.969 439.182,370.826 439.565,371.403 442.012,374.469    442.156,375.041 442.24,375.807 442.156,377.149 441.859,378.01 441.698,378.872 441.556,379.638 441.693,380.273  " fill="none" stroke="#000000" stroke-width="0.25" g2gstroke="#312783"/>
	
		<line orgstroke="#000000" orgfill="none" stroke-linecap="round" fill="none" x1="446.551" x2="442.198" y1="373.572" y2="376.572" stroke="#000000" stroke-width="0.25" g2gstroke="#312783"/>
	<polyline orgstroke="#000000" stroke-linecap="round" orgfill="none" points="443.849,354.354 442.012,354.738    440.865,355.027 439.948,355.51 439.029,356.271 438.265,356.844 436.759,357.868  " fill="none" stroke="#000000" stroke-width="0.25" g2gstroke="#312783"/>
	<polyline orgstroke="#000000" stroke-linecap="round" orgfill="none" points="441.095,359.344 439.182,359.344    437.806,359.239 436.964,359.344 436.275,359.623 435.434,360.102 434.44,360.485  " fill="none" stroke="#000000" stroke-width="0.25" g2gstroke="#312783"/>
	<polyline orgstroke="#000000" orgfill="none" points="445.941,370.574 445.531,370.541 445.228,370.397    444.959,370.062 444.691,369.535  " fill="none" stroke="#000000" stroke-width="0.25" g2gstroke="#312783"/>
	
		<line orgstroke="#000000" orgfill="none" stroke-linecap="round" fill="none" x1="446.306" x2="450.344" y1="371.323" y2="368.193" stroke="#000000" stroke-width="0.25" g2gstroke="#312783"/>
	<polyline orgstroke="#000000" orgfill="none" points="446.306,371.323 445.896,371.289 445.59,371.145    445.321,370.81 445.054,370.285  " fill="none" stroke="#000000" stroke-width="0.25" g2gstroke="#312783"/>
	<polyline orgstroke="#000000" stroke-linecap="round" orgfill="none" points="418.739,386.533 423.448,382.972    424.879,382.788 433.857,389.101 435.281,389.101 441.018,385.035  " fill="none" stroke="#000000" stroke-width="0.25" g2gstroke="#312783"/>
	<polyline orgstroke="#000000" orgfill="none" points="420.528,383.073 423.448,380.859 424.879,380.677    433.857,386.983 435.281,386.983 444.09,380.74  " fill="none" stroke="#000000" stroke-width="0.25" g2gstroke="#312783"/>
	<polyline orgstroke="#000000" orgfill="none" points="418.45,390.556 418.45,384.809 418.739,384.429 419.9,383.552     " fill="none" stroke="#000000" stroke-width="0.25" g2gstroke="#312783"/>
	<line orgstroke="#000000" orgfill="none" fill="none" x1="418.45" x2="418.45" y1="393.844" y2="392.219" stroke="#000000" stroke-width="0.25" g2gstroke="#312783"/>
	
		<line orgstroke="#000000" orgfill="none" stroke-linecap="round" fill="none" x1="424.879" x2="424.879" y1="387.906" y2="390.326" stroke="#000000" stroke-width="0.25" g2gstroke="#312783"/>
	
		<line orgstroke="#000000" orgfill="none" stroke-linecap="round" fill="none" x1="424.879" x2="424.879" y1="380.677" y2="387.906" stroke="#000000" stroke-width="0.25" g2gstroke="#312783"/>
	<polyline orgstroke="#000000" stroke-linecap="round" orgfill="none" points="420.441,392.536 420.389,390.621    420.493,390.052 420.797,389.534 422.835,388.067 423.092,388.135 423.348,388.386 423.448,390.512  " fill="none" stroke="#000000" stroke-width="0.25" g2gstroke="#312783"/>
	
		<line orgstroke="#000000" orgfill="none" stroke-linecap="round" fill="none" x1="434.484" x2="434.484" y1="391.135" y2="394.602" stroke="#000000" stroke-width="0.25" g2gstroke="#312783"/>
	
		<line orgstroke="#000000" orgfill="none" stroke-linecap="round" fill="none" x1="430.692" x2="430.692" y1="389.101" y2="392.572" stroke="#000000" stroke-width="0.25" g2gstroke="#312783"/>
	<line orgstroke="#000000" orgfill="none" fill="none" x1="418.45" x2="416.995" y1="384.809" y2="383.993" stroke="#000000" stroke-width="0.25" g2gstroke="#312783"/>
</g>
</g>
</g></svg>