<svg xmlns="http://www.w3.org/2000/svg" xmlns:xlink="http://www.w3.org/1999/xlink" xmlns:etg="http://www.eurotaxglass.com/etg/evd/" etg:dataTimestamp="1539068912893" contentScriptType="text/ecmascript" zoomAndPan="magnify" contentStyleType="text/css" id="Layer_1" enable-background="new 0 0 1841.891 1595.279" version="1.1" xml:space="preserve" width="1841.891px" preserveAspectRatio="xMidYMid meet" viewBox="0 0 1841.891 1595.279" height="1595.279px" x="0px" y="0px"><g xmlns="http://www.w3.org/2000/svg" objecttype="PS" tooltip="#UNDEFINED" id="119">
<g onmouseover="notifyOwner(AGV_OBJECT_MOUSEOVER, '119(PS)')" transform="translate(3.2101226993864884, -4.938650306748457) translate(-1.0864257831144641E-5, 66.80804286193847) translate(-478.1112626953125, -9.244252822875978) translate(-3.3283232704204693, 1.3313293081682076) rotate(-4.257236450872749 1087.0981311798096 92.61358642578125) translate(-26.29375383632214, 18.305777987312794) rotate(-25.73342009439559 1113.3918838500977 74.30783081054688) translate(227.45941139419733, -96.79123889114777) translate(59.0, -37.0) translate(572.0, -62.0) translate(10.0, 10.00006103515625)" onclick="clickZoom(evt); notifyOwner(AGV_OBJECT_MOUSECLICK, '119(PS)')" onmouseout="notifyOwner(AGV_OBJECT_MOUSEOUT, '119(PS)')" tooltip="#UNDEFINED" id="119-Graphic" objecttype="GRAPHIC">
<g zvalue="17">
<g>
<path orgstroke="#000000" orgfill="#ffffff" fill="#ffffff" g2gfill="#ECF5E4" d="M239.643,235.031   c-0.161,0.094-0.298,0.205-0.414,0.322c-0.216,0.234-0.31,0.471-0.265,0.699l8.473,47.984l0.073,0.242   c0.111,0.191,0.336,0.371,0.66,0.473c0,0,0.426,0.061,0.477,0.461c0.081,0.461,0.212,1.18,0.236,1.338   c0.033,0.145-0.167,0.313-0.167,0.313c-0.069,0.088-0.133,0.195-0.186,0.32c-0.382,0.826-0.327,2.02,0.114,2.666   c0.142,0.207,0.31,0.33,0.476,0.379l0.126,0.02l1.442,0.039c0.312-0.014,0.623-0.26,0.842-0.732   c0.378-0.822,0.326-2.02-0.116-2.668c-0.142-0.203-0.299-0.324-0.47-0.377c0,0-0.323-0.074-0.351-0.236   c-0.027-0.154-0.166-0.93-0.238-1.344c-0.076-0.414,0.25-0.537,0.25-0.537c0.121-0.074,0.223-0.164,0.312-0.256   c0.172-0.174,0.254-0.361,0.273-0.541v-0.125l-8.485-48.1c-0.07-0.285-0.348-0.529-0.806-0.652c0,0-0.329-0.078-0.43-0.375   c-0.098-0.287-0.124-0.641-0.151-0.838c-0.052-0.299,0.048-0.482,0.048-0.482c0.008-0.02,0.019-0.049,0.025-0.066   c0.36-0.834,0.273-2.025-0.202-2.664c-0.196-0.258-0.424-0.383-0.643-0.381c0,0-1.154,0.008-1.332,0.004   c-0.17-0.004-0.236,0.027-0.236,0.027c-0.254,0.084-0.491,0.328-0.661,0.723c-0.36,0.836-0.274,2.027,0.205,2.668   c0.116,0.15,0.24,0.262,0.368,0.318c0,0,0.205,0.1,0.453,0.102c0.258,0.008,0.277,0.176,0.277,0.176s0.112,0.371,0.178,0.658   C239.885,234.943,239.643,235.031,239.643,235.031z" stroke="#000000" outline-element="true" stroke-width="0.5" g2gstroke="#312783" stroke-miterlimit="10"/>
<path orgstroke="#000000" orgfill="none" fill="none" d="M249.3699951171875 286.4599914550781L250.86500549316406 286.49798583984375" stroke="#000000" stroke-width="0.25" g2gstroke="#312783" stroke-miterlimit="10"/>
<path orgstroke="#000000" orgfill="none" fill="none" d="M248.816,286.759   c0.392-0.445,0.923-0.344,1.233,0.1c0.459,0.646,0.508,1.844,0.115,2.668c-0.197,0.43-0.475,0.664-0.756,0.723" stroke="#000000" stroke-width="0.25" g2gstroke="#312783" stroke-miterlimit="10"/>
<path orgstroke="#000000" orgfill="none" fill="none" d="M248.838,287.625   c-0.24,0.516-0.208,1.264,0.076,1.68c0.284,0.396,0.714,0.311,0.951-0.203c0.24-0.52,0.206-1.264-0.078-1.682   C249.507,287.017,249.081,287.109,248.838,287.625z" stroke="#000000" stroke-width="0.25" g2gstroke="#312783" stroke-miterlimit="10"/>
<path orgstroke="#000000" orgfill="none" fill="none" d="M249.853,287.49   c-0.034,0.051-0.068,0.109-0.094,0.176c-0.221,0.477-0.209,1.164,0.022,1.584" stroke="#000000" stroke-width="0.25" g2gstroke="#312783" stroke-miterlimit="10"/>
<path orgstroke="#000000" orgfill="none" fill="none" d="M239.174,233.724   c0.321-0.006,0.637-0.268,0.848-0.756c0.355-0.83,0.271-2.025-0.203-2.662c-0.119-0.154-0.242-0.26-0.368-0.32" stroke="#000000" stroke-width="0.25" g2gstroke="#312783" stroke-miterlimit="10"/>
<path orgstroke="#000000" orgfill="none" fill="none" d="M238.629,231.103   c-0.225,0.525-0.166,1.277,0.133,1.672c0.295,0.396,0.721,0.295,0.945-0.232c0.222-0.523,0.165-1.273-0.134-1.664   C239.282,230.478,238.854,230.58,238.629,231.103z" stroke="#000000" stroke-width="0.25" g2gstroke="#312783" stroke-miterlimit="10"/>
<path orgstroke="#000000" orgfill="none" fill="none" d="M239.643,230.937   c-0.034,0.057-0.061,0.115-0.087,0.182c-0.213,0.484-0.179,1.168,0.069,1.58" stroke="#000000" stroke-width="0.25" g2gstroke="#312783" stroke-miterlimit="10"/>
<path orgstroke="#000000" orgfill="none" fill="none" d="M248.646,285.218l-0.211-1.131   c-0.015-0.1,0.021-0.209,0.118-0.318c0.248-0.262,0.775-0.395,1.182-0.297c0.229,0.057,0.363,0.168,0.402,0.309l0.208,1.162" stroke="#000000" stroke-width="0.25" g2gstroke="#312783" stroke-miterlimit="10"/>
<path orgstroke="#000000" orgfill="none" fill="none" d="M239.62,233.939   c-0.057-0.346,0.101-0.48,0.182-0.566c0.242-0.266,0.674-0.346,1.083-0.242c0.096,0.021,0.347,0.068,0.407,0.295" stroke="#000000" stroke-width="0.25" g2gstroke="#312783" stroke-miterlimit="10"/>
<path orgstroke="#000000" orgfill="none" fill="none" d="M239.722,234.976   c0.458-0.27,1.283-0.504,2.015-0.326" stroke="#000000" stroke-width="0.25" g2gstroke="#312783" stroke-miterlimit="10"/>
<path orgstroke="#000000" orgfill="none" fill="none" d="M247.409,283.929   c-0.028-0.156,0.22-0.479,0.294-0.551c0.542-0.572,1.704-0.867,2.584-0.648c0.224,0.053,0.698,0.25,0.894,0.752" stroke="#000000" stroke-width="0.25" g2gstroke="#312783" stroke-miterlimit="10"/>
</g>
</g>
</g>
</g></svg>