<svg xmlns="http://www.w3.org/2000/svg" xmlns:xlink="http://www.w3.org/1999/xlink" xmlns:x="http://ns.adobe.com/Extensibility/1.0/" xmlns:graph="http://ns.adobe.com/Graphs/1.0/" xmlns:i="http://ns.adobe.com/AdobeIllustrator/10.0/" xmlns:etg="http://www.eurotaxglass.com/etg/evd/" etg:dataTimestamp="1539068912893" contentScriptType="text/ecmascript" zoomAndPan="magnify" contentStyleType="text/css" id="Layer_1" enable-background="new 0 0 1841.891 1595.279" version="1.1" xml:space="preserve" width="1841.891px" preserveAspectRatio="xMidYMid meet" viewBox="0 0 1841.891 1595.279" height="1595.279px" x="0px" y="0px"><g xmlns="http://www.w3.org/2000/svg" objecttype="PS" tooltip="#UNDEFINED" id="12">
<g onmouseover="notifyOwner(AGV_OBJECT_MOUSEOVER, '12(PS)')" transform="translate(15.529125793457013, 11.764660217285154) translate(-3.5294117647058556, 5.882352941176464)" onclick="clickZoom(evt); notifyOwner(AGV_OBJECT_MOUSECLICK, '12(PS)')" onmouseout="notifyOwner(AGV_OBJECT_MOUSEOUT, '12(PS)')" tooltip="#UNDEFINED" id="12-Graphic" objecttype="GRAPHIC">
<g>
	<polygon orgstroke="#000000" orgfill="#ffffff" points="444.919,392.325 446.323,393.142 446.463,393.323    446.49,394.14 446.49,401.412 446.252,401.862 440.761,405.224 439.323,405.224 430.358,399.572 428.928,399.739 424.216,403.057    423.853,403.101 422.589,402.285 422.473,401.987 422.473,393.904 422.76,393.564 428.563,389.553 429.073,389.399    430.517,389.427 439.194,394.885 440.615,394.885 444.606,392.327  " fill="#ffffff" g2gfill="#BCBEC0" outline-element="true" stroke="#000000" stroke-width="0.5" g2gstroke="#312783"/>
	<polyline orgstroke="#000000" stroke-linecap="round" orgfill="none" points="446.49,400.184 440.615,403.871    439.194,403.871 430.517,398.408  " fill="none" stroke="#000000" stroke-width="0.25" g2gstroke="#312783"/>
	<polyline orgstroke="#000000" stroke-linecap="round" orgfill="none" points="446.49,396.01 440.462,399.844    439.031,399.844 430.358,394.385  " fill="none" stroke="#000000" stroke-width="0.25" g2gstroke="#312783"/>
	<path orgstroke="#000000" stroke-linecap="round" orgfill="none" fill="none" d="M439.227,401.427   c0.352,0.688,0.143,1.245-0.471,1.245c-0.614,0-1.396-0.563-1.749-1.245c-0.354-0.688-0.146-1.243,0.471-1.243   C438.089,400.184,438.865,400.741,439.227,401.427z" stroke="#000000" stroke-width="0.25" g2gstroke="#312783"/>
	<polyline orgstroke="#000000" stroke-linecap="round" orgfill="none" points="424.216,396.177 428.928,392.989    430.358,392.824 439.323,398.474 440.761,398.474 446.49,394.844  " fill="none" stroke="#000000" stroke-width="0.25" g2gstroke="#312783"/>
	<polyline orgstroke="#000000" orgfill="none" points="426.005,393.079 428.928,391.097 430.358,390.93    439.323,396.582 440.761,396.582 446.191,393.097  " fill="none" stroke="#000000" stroke-width="0.25" g2gstroke="#312783"/>
	<polyline orgstroke="#000000" orgfill="none" points="423.927,399.778 423.927,394.635 424.216,394.302    425.376,393.51  " fill="none" stroke="#000000" stroke-width="0.25" g2gstroke="#312783"/>
	<line orgstroke="#000000" orgfill="none" fill="none" x1="423.927" x2="423.927" y1="402.719" y2="401.263" stroke="#000000" stroke-width="0.25" g2gstroke="#312783"/>
	
		<line orgstroke="#000000" orgfill="none" stroke-linecap="round" fill="none" x1="430.358" x2="430.358" y1="397.406" y2="399.572" stroke="#000000" stroke-width="0.25" g2gstroke="#312783"/>
	
		<line orgstroke="#000000" orgfill="none" stroke-linecap="round" fill="none" x1="430.358" x2="430.358" y1="390.93" y2="397.406" stroke="#000000" stroke-width="0.25" g2gstroke="#312783"/>
	<polyline orgstroke="#000000" stroke-linecap="round" orgfill="none" points="425.906,401.552 425.865,399.844    425.97,399.32 426.274,398.863 428.314,397.552 428.569,397.606 428.823,397.844 428.928,399.739  " fill="none" stroke="#000000" stroke-width="0.25" g2gstroke="#312783"/>
	<line orgstroke="#000000" orgfill="none" stroke-linecap="round" fill="none" x1="439.96" x2="439.96" y1="400.302" y2="403.4" stroke="#000000" stroke-width="0.25" g2gstroke="#312783"/>
	
		<line orgstroke="#000000" orgfill="none" stroke-linecap="round" fill="none" x1="436.169" x2="436.169" y1="398.474" y2="401.594" stroke="#000000" stroke-width="0.25" g2gstroke="#312783"/>
	<line orgstroke="#000000" orgfill="none" fill="none" x1="423.927" x2="422.473" y1="394.635" y2="393.904" stroke="#000000" stroke-width="0.25" g2gstroke="#312783"/>
</g>
</g>
</g></svg>