<svg xmlns="http://www.w3.org/2000/svg" xmlns:xlink="http://www.w3.org/1999/xlink" xmlns:etg="http://www.eurotaxglass.com/etg/evd/" etg:dataTimestamp="1539068912893" contentScriptType="text/ecmascript" zoomAndPan="magnify" contentStyleType="text/css" id="Layer_1" enable-background="new 0 0 1841.891 1595.279" version="1.1" xml:space="preserve" width="1841.891px" preserveAspectRatio="xMidYMid meet" viewBox="0 0 1841.891 1595.279" height="1595.279px" x="0px" y="0px"><g xmlns="http://www.w3.org/2000/svg" objecttype="PS" tooltip="#UNDEFINED" id="120">
<g onmouseover="notifyOwner(AGV_OBJECT_MOUSEOVER, '120(PS)')" transform="translate(-1.0864257831144641E-5, 66.80804286193847) translate(-478.1112626953125, -9.244252822875978) translate(20.666025844153637, 2.384541443556202) translate(59.0, -37.0) translate(572.0, -62.0) translate(10.0, 10.00006103515625)" onclick="clickZoom(evt); notifyOwner(AGV_OBJECT_MOUSECLICK, '120(PS)')" onmouseout="notifyOwner(AGV_OBJECT_MOUSEOUT, '120(PS)')" tooltip="#UNDEFINED" id="120-Graphic" objecttype="GRAPHIC">
<g zvalue="18">
<g>
<path stroke-linecap="round" orgstroke="#000000" orgfill="#ffffff" fill="#ffffff" g2gfill="#ECC35D" stroke-linejoin="round" d="   M289.377,368.219c0.312,0.236,0.479,0.697,0.431,1.305c-0.094,1.133-0.922,2.35-1.846,2.719c-0.316,0.121-0.601,0.135-0.836,0.053   l-0.094-0.049l-3.622-2.133c-0.348-0.23-0.542-0.699-0.488-1.336c0.088-1.137,0.916-2.355,1.849-2.717   c0.377-0.154,0.705-0.141,0.966,0.002l3.509,2.074L289.377,368.219z" stroke="#000000" outline-element="true" stroke-width="0.5" g2gstroke="#312783" stroke-miterlimit="10"/>
<path orgstroke="#000000" orgfill="none" stroke-linecap="round" fill="none" stroke-linejoin="round" d="   M286.916,372.186c-0.33-0.23-0.516-0.701-0.454-1.32c0.095-1.131,0.923-2.35,1.839-2.721c0.359-0.145,0.682-0.141,0.93-0.018" stroke="#000000" stroke-width="0.25" g2gstroke="#312783" stroke-miterlimit="10"/>
<path orgstroke="#000000" orgfill="none" stroke-linecap="round" fill="none" stroke-linejoin="round" d="   M285.753,371.486c-0.34-0.234-0.519-0.699-0.455-1.32c0.097-1.131,0.922-2.35,1.838-2.721c0.36-0.145,0.67-0.146,0.93-0.016" stroke="#000000" stroke-width="0.25" g2gstroke="#312783" stroke-miterlimit="10"/>
<path orgstroke="#000000" orgfill="none" stroke-linecap="round" fill="none" stroke-linejoin="round" d="   M284.565,370.828c-0.34-0.234-0.517-0.703-0.456-1.322c0.095-1.129,0.926-2.348,1.84-2.719c0.359-0.145,0.67-0.146,0.931-0.018" stroke="#000000" stroke-width="0.25" g2gstroke="#312783" stroke-miterlimit="10"/>
</g>
</g>
</g>
</g></svg>