<svg xmlns="http://www.w3.org/2000/svg" xmlns:xlink="http://www.w3.org/1999/xlink" xmlns:etg="http://www.eurotaxglass.com/etg/evd/" etg:dataTimestamp="1539068912893" contentScriptType="text/ecmascript" zoomAndPan="magnify" contentStyleType="text/css" id="Layer_1" enable-background="new 0 0 1841.891 1595.279" version="1.1" xml:space="preserve" width="1841.891px" preserveAspectRatio="xMidYMid meet" viewBox="0 0 1841.891 1595.279" height="1595.279px" x="0px" y="0px"><g xmlns="http://www.w3.org/2000/svg" objecttype="PS" tooltip="#UNDEFINED" id="146">
<g onmouseover="notifyOwner(AGV_OBJECT_MOUSEOVER, '146(PS)')" transform="translate(-1.0864257831144641E-5, 66.80804286193847) translate(-478.1112626953125, -9.244252822875978) translate(59.0, -37.0) translate(572.0, -62.0) translate(10.0, 10.00006103515625)" onclick="clickZoom(evt); notifyOwner(AGV_OBJECT_MOUSECLICK, '146(PS)')" onmouseout="notifyOwner(AGV_OBJECT_MOUSEOUT, '146(PS)')" tooltip="#UNDEFINED" id="146-Graphic" objecttype="GRAPHIC">
<g zvalue="44">
<g>
<path orgstroke="#000000" orgfill="#ffffff" fill="#ffffff" g2gfill="#ECC35D" d="M304.798,316.584   c0.499,1.279,1.626,4.209,1.927,5.287c0.174,0.627,0.346,1.906,0.346,3.365c0,1.461-1.076,4.42-2.571,5.285   c-1.496,0.865-6.649,3.807-6.649,3.807c-0.854,0.492-2.285,0.361-2.98-0.145c-0.324-0.234-1.186-1.068-1.186-1.068   c-0.512-0.463-0.683-1.148-0.683-1.738c0,0,0.015-2.668,0.015-3.539s-0.459-0.926-0.979-0.6c-0.519,0.324-1.244,0.076-1.836-0.266   c0,0-0.506-0.35-0.773-0.518c-0.665-0.414-0.867-1.381-0.867-2.086c0,0,0-1.701,0-5.365c0-3.666,2.765-5.273,4.535-5.643   c0.539-0.111,1.668-0.115,2.207,0c0.41,0.09,1.277,0.43,1.893,0.682c0.479,0.197,0.691,0.529,0.833,0.859s0.903,0.211,1.462-0.113   c0.605-0.35,1.457-0.736,2.574-0.383c0.383,0.121,0.843,0.275,1.307,0.502C303.897,315.162,304.491,315.783,304.798,316.584z" stroke="#000000" outline-element="true" stroke-width="0.5" g2gstroke="#312783" stroke-miterlimit="10"/>
<path orgstroke="#000000" orgfill="none" stroke-linecap="round" fill="none" d="M296.922,334.611   c-0.78,0.199-1.176-0.52-1.176-1.156v-12.439c0-0.922,0.569-1.656,1.176-1.988c1.003-0.553,5.645-2.877,6.087-3.133   c0.653-0.377,1.231-0.268,1.231-0.268" stroke="#000000" stroke-width="0.25" g2gstroke="#312783"/>
<path orgstroke="#000000" orgfill="none" stroke-linecap="round" fill="none" d="M293.033,328.193v-8.285   c0-1.158,0.703-2.035,1.65-2.58l4.354-2.299" stroke="#000000" stroke-width="0.25" g2gstroke="#312783"/>
<path orgstroke="#000000" orgfill="none" stroke-linecap="round" fill="none" d="M298.505,320.01l3.681-1.939   c0.618-0.357,1.661-0.096,1.883,0.777l1.031,4.08c0.225,0.893-0.049,2.832-0.392,3.941c-0.342,1.109-0.843,1.895-2.182,2.668   l-3.47,1.988c-1.006,0.574-1.774,0.064-1.774-1.117v-7.535C297.283,321.795,297.667,320.494,298.505,320.01z" stroke="#000000" stroke-width="0.25" g2gstroke="#312783"/>
<path orgstroke="#000000" orgfill="none" stroke-linecap="round" fill="none" d="M291.259,327.5c0,0-0.479-0.197-0.479-1.371   c0-1.172,0-4.645,0-5.906s0.607-2.324,1.074-2.959c1.094-1.488,3.915-3.146,5.646-2.943" stroke="#000000" stroke-width="0.25" g2gstroke="#312783"/>
<path orgstroke="#000000" orgfill="none" stroke-linecap="round" fill="none" d="M293.54400634765625 318.56298828125L295.84600830078125 319.9079895019531" stroke="#000000" stroke-width="0.25" g2gstroke="#312783"/>
<path orgstroke="#000000" orgfill="none" stroke-linecap="round" fill="none" d="M300.813,330.518v-2.494   c0-1.178,0.688-2.281,1.968-2.98l2.399-1.313" stroke="#000000" stroke-width="0.25" g2gstroke="#312783"/>
<path orgstroke="#000000" orgfill="none" stroke-linecap="round" fill="none" d="M304.2139892578125 320.76800537109375L297.4159851074219 324.6969909667969" stroke="#000000" stroke-width="0.25" g2gstroke="#312783"/>
<path orgstroke="#000000" orgfill="none" stroke-linecap="round" fill="none" d="M299.2929992675781 323.6109924316406L299.2929992675781 331.25" stroke="#000000" stroke-width="0.25" g2gstroke="#312783"/>
<path orgstroke="#000000" orgfill="none" stroke-linecap="round" fill="none" d="M301.7820129394531 318.2969970703125L301.7820129394531 322.1390075683594" stroke="#000000" stroke-width="0.25" g2gstroke="#312783"/>
</g>
</g>
</g>
</g></svg>