<svg xmlns="http://www.w3.org/2000/svg" xmlns:xlink="http://www.w3.org/1999/xlink" xmlns:x="http://ns.adobe.com/Extensibility/1.0/" xmlns:graph="http://ns.adobe.com/Graphs/1.0/" xmlns:i="http://ns.adobe.com/AdobeIllustrator/10.0/" xmlns:etg="http://www.eurotaxglass.com/etg/evd/" etg:dataTimestamp="1539068912893" contentScriptType="text/ecmascript" zoomAndPan="magnify" contentStyleType="text/css" id="Layer_1" enable-background="new 0 0 1841.891 1595.279" version="1.1" xml:space="preserve" width="1841.891px" preserveAspectRatio="xMidYMid meet" viewBox="0 0 1841.891 1595.279" height="1595.279px" x="0px" y="0px"><g xmlns="http://www.w3.org/2000/svg" objecttype="PS" tooltip="#UNDEFINED" id="20">
<g onmouseover="notifyOwner(AGV_OBJECT_MOUSEOVER, '20(PS)')" transform="translate(15.529125793457013, 11.764660217285154)" onclick="clickZoom(evt); notifyOwner(AGV_OBJECT_MOUSECLICK, '20(PS)')" onmouseout="notifyOwner(AGV_OBJECT_MOUSEOUT, '20(PS)')" tooltip="#UNDEFINED" id="20-Graphic" objecttype="GRAPHIC">
<g>
	<polygon orgstroke="#000000" orgfill="#ffffff" points="500.942,198.834 499.339,197.863    498.573,197.736 496.012,199.527 495.504,199.655 494.865,199.527 492.689,197.736 492.435,197.224 492.819,196.711    494.353,195.305 494.215,194.666 493.072,193.642 492.946,193.131 493.449,192.619 494.736,191.723 496.012,190.573    497.798,189.293 499.084,188.271 501.13,186.864 503.173,185.457 504.839,184.305 506.631,183.41 508.421,182.387 510.339,181.619    511.867,180.98 513.793,180.34 515.839,179.701 517.881,179.445 519.158,179.445 520.191,179.19 520.823,178.676 521.464,177.655    522.281,177.146 523.283,176.807 524.031,176.638 524.274,176.567 524.752,176.399 525.048,176.418 534.776,182.302    535.341,182.366 536.567,181.791 538.612,180.767 539.887,180.767 551.656,186.513 551.791,186.815 553.156,189.939    554.178,195.567 554.44,201.961 554.44,209.892 552.964,227.6 552.916,227.761 552.837,227.888 552.323,228.097 552.173,228.114    551.99,228.065  " fill="#ffffff" g2gfill="#82AA8E" outline-element="true" stroke="#000000" stroke-width="0.5" g2gstroke="#312783" stroke-miterlimit="10"/>
	
		<line orgstroke="#000000" orgfill="none" fill="none" x1="535.502" x2="551.365" y1="183.215" y2="191.892" stroke="#000000" stroke-width="0.25" g2gstroke="#312783" stroke-miterlimit="10"/>
	
		<line orgstroke="#000000" orgfill="none" fill="none" x1="535.921" x2="535.921" y1="200.932" y2="195.944" stroke="#000000" stroke-width="0.25" g2gstroke="#312783" stroke-miterlimit="10"/>
	<polyline orgstroke="#000000" orgfill="none" points="541.262,212.888 536.947,210.271    536.173,209.246 535.921,207.711 535.921,203.618  " fill="none" stroke="#000000" stroke-width="0.25" g2gstroke="#312783" stroke-miterlimit="10"/>
	
		<line orgstroke="#000000" orgfill="none" fill="none" x1="551.464" x2="544.156" y1="219.073" y2="214.646" stroke="#000000" stroke-width="0.25" g2gstroke="#312783" stroke-miterlimit="10"/>
	<polyline orgstroke="#000000" orgfill="none" points="536.691,208.223 539.756,205.409    540.272,203.618 540.528,193.13 539.756,191.082 538.737,189.804 526.713,183.155 524.923,181.874 522.615,179.317  " fill="none" stroke="#000000" stroke-width="0.25" g2gstroke="#312783" stroke-miterlimit="10"/>
	<polyline orgstroke="#000000" orgfill="none" points="527.215,190.513 520.823,186.735    519.798,184.944 519.295,182.898  " fill="none" stroke="#000000" stroke-width="0.25" g2gstroke="#312783" stroke-miterlimit="10"/>
	<polyline orgstroke="#000000" orgfill="none" points="538.737,191.85 535.921,193.899    534.901,194.154 533.615,193.899 532.084,193.385 529.314,191.747  " fill="none" stroke="#000000" stroke-width="0.25" g2gstroke="#312783" stroke-miterlimit="10"/>
	<polyline orgstroke="#000000" orgfill="none" points="534.698,195.609 533.028,195.464    522.364,189.166 521.076,188.399 518.272,188.142 515.711,188.654 513.922,189.677 509.38,192.347 505.736,194.792    504.712,195.817 503.691,197.863  " fill="none" stroke="#000000" stroke-width="0.25" g2gstroke="#312783" stroke-miterlimit="10"/>
	
		<line orgstroke="#000000" orgfill="none" fill="none" x1="553.531" x2="552.339" y1="213.438" y2="227.985" stroke="#000000" stroke-width="0.25" g2gstroke="#312783" stroke-miterlimit="10"/>
	<polyline orgstroke="#000000" orgfill="none" points="553.671,199.207 553.795,202.301    553.795,208.99  " fill="none" stroke="#000000" stroke-width="0.25" g2gstroke="#312783" stroke-miterlimit="10"/>
	<polyline orgstroke="#000000" orgfill="none" points="524.406,176.757 527.625,178.704    527.906,178.704 529.673,179.78 529.941,180.106 534.131,182.641 534.698,182.706 535.921,182.13 537.964,181.107 539.241,181.107    551.02,186.854 551.152,187.156 552.512,190.279 553.532,195.906  " fill="none" stroke="#000000" stroke-width="0.25" g2gstroke="#312783" stroke-miterlimit="10"/>
	
	<polyline orgstroke="#000000" orgfill="none" points="547.045,190.369 547.428,191.339    548.45,195.944 548.964,203.618 548.964,209.246 548.964,211.292  " fill="none" stroke="#000000" stroke-width="0.25" g2gstroke="#312783" stroke-miterlimit="10"/>
	<polyline orgstroke="#000000" orgfill="none" points="539.756,205.409 548.964,211.292    551.589,217.636  " fill="none" stroke="#000000" stroke-width="0.25" g2gstroke="#312783" stroke-miterlimit="10"/>
	<polyline orgstroke="#000000" orgfill="none" points="493.713,196.457 494.865,195.818    496.528,194.792 497.798,193.642 499.084,192.107 500.363,190.573 501.772,189.166 503.298,187.886 505.736,186.224    508.421,184.946 510.982,183.922 513.922,183.027 516.089,182.643 517.63,182.258 518.781,182.003 519.928,181.363    520.318,180.595  " fill="none" stroke="#000000" stroke-width="0.25" g2gstroke="#312783" stroke-miterlimit="10"/>
	<polyline orgstroke="#000000" orgfill="none" points="495.367,198.246 496.272,197.479    497.548,196.327 498.319,195.434 499.854,193.899 501.13,192.619 503.048,191.212  " fill="none" stroke="#000000" stroke-width="0.25" g2gstroke="#312783" stroke-miterlimit="10"/>
	<polyline orgstroke="#000000" orgfill="none" points="502.214,197.262 501.13,196.584    500.588,196.361 500.132,196.264 499.716,196.232 499.211,196.232  " fill="none" stroke="#000000" stroke-width="0.25" g2gstroke="#312783" stroke-miterlimit="10"/>
	<polyline orgstroke="#000000" orgfill="none" points="502.214,197.262 550.569,224.922    550.756,224.963 550.881,224.899 550.983,224.813 552.256,209.719 552.256,201.789 552.004,195.396 550.983,189.766    549.502,186.387  " fill="none" stroke="#000000" stroke-width="0.25" g2gstroke="#312783" stroke-miterlimit="10"/>
	<polyline orgstroke="#000000" orgfill="none" points="527.734,178.75 527.561,180.943    527.736,181.41 528.085,181.937 528.73,182.287 529.023,182.346 529.365,182.113 529.548,181.821 529.658,181.469 529.716,180.182     " fill="none" stroke="#000000" stroke-width="0.25" g2gstroke="#312783" stroke-miterlimit="10"/>
	<path orgstroke="#000000" orgfill="none" fill="none" d="M528.948,181.016   c0.14,0.229,0.061,0.419-0.178,0.419c-0.229,0-0.528-0.188-0.661-0.419c-0.135-0.229-0.06-0.421,0.177-0.421   C528.526,180.595,528.819,180.783,528.948,181.016z" stroke="#000000" stroke-width="0.25" g2gstroke="#312783" stroke-miterlimit="10"/>
	<path orgstroke="#000000" orgfill="none" fill="none" d="M540.073,183.471   c0.229,0.396,0.1,0.729-0.306,0.729c-0.398,0-0.908-0.323-1.146-0.729c-0.229-0.396-0.096-0.728,0.313-0.728   C539.339,182.75,539.85,183.073,540.073,183.471z" stroke="#000000" stroke-width="0.25" g2gstroke="#312783" stroke-miterlimit="10"/>
	<path orgstroke="#000000" orgfill="none" fill="none" d="M503.273,194.954   c0.263,0.457,0.104,0.826-0.354,0.826s-1.041-0.37-1.312-0.826c-0.262-0.458-0.104-0.827,0.354-0.827   S503.006,194.496,503.273,194.954z" stroke="#000000" stroke-width="0.25" g2gstroke="#312783" stroke-miterlimit="10"/>
	<path orgstroke="#000000" orgfill="none" fill="none" d="M496.923,193.771   c0.229,0.396,0.103,0.72-0.311,0.72c-0.4,0-0.902-0.323-1.138-0.72c-0.229-0.399-0.099-0.729,0.306-0.729   C496.192,193.048,496.698,193.371,496.923,193.771z" stroke="#000000" stroke-width="0.25" g2gstroke="#312783" stroke-miterlimit="10"/>
	<path orgstroke="#000000" orgfill="none" fill="none" d="M544.408,185.665   c0.229,0.398,0.101,0.728-0.305,0.728c-0.396,0-0.908-0.315-1.146-0.728c-0.229-0.396-0.099-0.722,0.313-0.722   C543.673,184.944,544.188,185.267,544.408,185.665z" stroke="#000000" stroke-width="0.25" g2gstroke="#312783" stroke-miterlimit="10"/>
	<path orgstroke="#000000" orgfill="none" fill="none" d="M548.729,187.554   c0.229,0.396,0.093,0.729-0.313,0.729c-0.396,0-0.908-0.323-1.144-0.729c-0.229-0.396-0.095-0.728,0.308-0.728   C547.99,186.832,548.492,187.156,548.729,187.554z" stroke="#000000" stroke-width="0.25" g2gstroke="#312783" stroke-miterlimit="10"/>
	<polyline orgstroke="#000000" orgfill="none" points="546.387,184.595 546.214,187.184    546.406,187.696 546.731,188.079 550.881,190.446  " fill="none" stroke="#000000" stroke-width="0.25" g2gstroke="#312783" stroke-miterlimit="10"/>
	
		<ellipse orgstroke="#000000" orgfill="none" fill="none" rx="1.039" cx="521.357" ry="0.608" cy="182.345" stroke="#000000" stroke-width="0.25" g2gstroke="#312783" stroke-miterlimit="10"/>
</g>
</g>
</g></svg>