<svg xmlns="http://www.w3.org/2000/svg" xmlns:xlink="http://www.w3.org/1999/xlink" xmlns:x="http://ns.adobe.com/Extensibility/1.0/" xmlns:graph="http://ns.adobe.com/Graphs/1.0/" xmlns:i="http://ns.adobe.com/AdobeIllustrator/10.0/" xmlns:etg="http://www.eurotaxglass.com/etg/evd/" etg:dataTimestamp="1539068912893" contentScriptType="text/ecmascript" zoomAndPan="magnify" contentStyleType="text/css" id="Layer_1" enable-background="new 0 0 1841.891 1595.279" version="1.1" xml:space="preserve" width="1841.891px" preserveAspectRatio="xMidYMid meet" viewBox="0 0 1841.891 1595.279" height="1595.279px" x="0px" y="0px"><g xmlns="http://www.w3.org/2000/svg" objecttype="PS" tooltip="#UNDEFINED" id="28">
<g onmouseover="notifyOwner(AGV_OBJECT_MOUSEOVER, '28(PS)')" transform="translate(15.529125793457013, 11.764660217285154)" onclick="clickZoom(evt); notifyOwner(AGV_OBJECT_MOUSECLICK, '28(PS)')" onmouseout="notifyOwner(AGV_OBJECT_MOUSEOUT, '28(PS)')" tooltip="#UNDEFINED" id="28-Graphic" objecttype="GRAPHIC">
<g>
	<g>
		<path orgstroke="#000000" orgfill="#ffffff" fill="#ffffff" g2gfill="#BCBEC0" d="M295.422,288.363    c-0.37,1.645-0.208,2.004,0.327,4.085c3.409,13.479,12.354,41.09,15.926,57.188c1.329,5.979,0.447,10.609-2.36,15.521    c0.021,0.563,0.021,1.112-0.12,1.521c-0.516-0.107-0.872,0.396-1.188,0.438c-12.438,1.521-10.12,15.109-7.767,24.671    c0.021,0.112,0.054,0.229,0.087,0.328c4.4,2.867,9.042,5.49,13.271,8.368c0.856,0.688,1.438,1.906,1.438,3.069    c0.098,0.021,0.188,0.063,0.271,0.104c1.104,8.29-0.015,16.656,0.229,24.979c-0.283,1.121-1.58,1.429-2.495,1.884    c-0.087,0.055-0.175,0.12-0.263,0.174c-0.438,0.229-0.797,0.577-1.345,0.533c-7.901-3.956-15.683-8.738-23.773-12.169    c-0.521-0.188-1.079-0.603-1.438-1.021c-2.625,0.521-3.188-1.646-4.396-3.354c-2.229-3.126-4.104-6.979-7.146-10.425    c-4.923-5.577-11.843-10.837-18.148-13.704c-5.937-2.69-16.71-5.501-21.979,0.313c-1.224,1.536-2.188,3.271-3.203,4.972    l-1.621,1.697l-0.896,0.368l-2.245,0.578l-2.418-1.521l-12.169-9.784l-6.09-5.544l-0.119-5.959l-0.358-1.089l-6.533-6.166    l-0.229-0.104l-0.501-0.043l-0.357-0.044l-0.354,0.188l-0.272,0.176l-0.185,0.37l-0.272,2.079l-0.087,0.359l-0.458,0.444    l-0.458,0.188l-0.599-0.205l-12.563-11.411l-0.729-2.896l-3.627-3.271v-1.095l-0.36-2.902l1.449-2.537l2.179-0.37l2.188,1.09    l2.896,1.459l1.813-0.37l2.909-2.179v-13.972l0.896-22.063l1.275-12.188l2.833-14.259l2.604-10.813l4.779-13.719l4.726-10.753    l-4.234-2.463l-0.729-0.728l0.184-1.636l1.089-0.915l1.089-0.902l0.729-1.985l0.354-1.643l-0.545-2.354l0.188-1.099l1.988-0.896    l12.169,6.354l0.402,0.358c15.396,8.819,33.479,18.817,50.021,28.646l0.438,0.249l0.337-2.754l0.386-1.832l0.703-0.707    l4.722-0.729l1.1,1.813l0.359,2.188l0.729,3.997l1.264,3.521l0.729,0.751c2.55,1.58,5.021,3.146,7.438,4.688    c4.217,2.727,5.229,3.336,6.813,5.309c0.055,0.188,0.104,0.37,0.055,0.608C295.869,287.721,295.738,288.135,295.422,288.363z     M268.786,343.833c6.231-14.304-0.854-36.003-4.324-50.646c-1.362-5.694-2.313-9.706-6.624-13.813l-1.563-1.56l-1.874-1.547    c-13.271-7.408-26.417-15.238-38.729-23.771l-0.313-0.188h-0.266l-0.185,0.098l-0.271,0.175l-0.412,0.958l-0.033,0.118    l-4.354,10.896l-3.271,14.149l-1.813,8.728l-1.09,11.605l-1.101,17.063l-1.797,21.626l-0.916,18.229l0.589,1.636l21.521,16.452    l3.41,1.893l0.261,0.111l0.873-0.067l0.854-0.217l1.229-0.416l1.449-0.544l1.089-0.63l1.229-0.917l1.101-0.631l1.729-0.938    c5.396-2.99,14.114-4.588,17.833-6.063C261.443,362.287,264.885,352.767,268.786,343.833z" outline-element="true" stroke="#000000" stroke-width="0.5" g2gstroke="#312783" stroke-miterlimit="10"/>
	</g>
	<path orgstroke="#000000" stroke-linecap="round" orgfill="none" fill="none" d="M215.674,250.329   c11.597,8.025,23.916,15.438,36.396,22.449" stroke="#000000" stroke-width="0.25" g2gstroke="#312783"/>
	<path orgstroke="#000000" stroke-linecap="round" orgfill="none" fill="none" d="M306.555,363.523   c2.117-4.326,2.688-8.585,1.506-13.896c-3.581-16.103-12.518-43.696-15.934-57.188c-0.522-2.082-0.698-2.442-0.326-4.085   c0.313-0.231,0.442-0.647,0.736-0.909" stroke="#000000" stroke-width="0.25" g2gstroke="#312783"/>
	<path orgstroke="#000000" stroke-linecap="round" orgfill="none" fill="none" d="M300.276,391.944l-0.174-0.701l-0.229-0.977   l-0.251-1.113l-0.285-1.343l-0.295-1.564l-0.107-0.632l-0.183-1.104l-0.132-1.102l-0.188-1.725l-0.044-0.953l-0.02-1.063   l0.014-0.938l0.063-1.146l0.104-0.979l0.134-0.854l0.149-0.701l0.215-0.813l0.21-0.646l0.253-0.646l0.325-0.688l0.541-0.919   l0.262-0.388l0.482-0.597l0.561-0.573l0.688-0.577l0.603-0.411l0.63-0.364l0.674-0.329l0.521-0.211l0.563-0.198l0.979-0.285   l0.563-0.111l0.55-0.094l0.811-0.183l0.282-0.245l0.313-0.146l0.354-0.016l0.064-0.33l0.033-0.521l-0.035-0.615l0.028,0.012   c-14.317-3.896-19.146,21.731-13.066,27.774c0.542,0.229,1.087,0.354,1.642,0.396c0.847-0.313,1.858-0.438,2.441-1.226   L300.276,391.944z" stroke="#000000" stroke-width="0.25" g2gstroke="#312783"/>
	<path orgstroke="#000000" stroke-linecap="round" orgfill="none" fill="none" d="M274.073,324.719   c-0.771-9.124-3.426-18.272-4.853-25.688c-0.521-2.736-1.183-5.609-1.653-7.736c-0.311-1.354-0.771-2.636-1.354-3.813" stroke="#000000" stroke-width="0.25" g2gstroke="#312783"/>
	<path orgstroke="#000000" stroke-linecap="round" orgfill="none" fill="none" d="M286.494,417.436l-0.155,0.35l-0.162,0.271   l-0.315,0.047l-0.521,0.018l-0.479-0.063l-0.478-0.164l-0.479-0.296l-0.401-0.396l-0.336-0.438l-0.357-0.521l-0.544-0.894   l-0.432-0.653l-0.617-0.891l-0.292-0.444l-1.002-1.58l-1.191-1.923l-1.145-1.771l-1.188-1.688l-0.938-1.217l-0.994-1.159   l-1.079-1.168l-1.373-1.39l-1.362-1.294l-1.541-1.365l-1.396-1.165l-1.704-1.332l-1.298-0.953l-1.899-1.293l-1.377-0.874   l-1.468-0.865l-1.159-0.637l-1.243-0.62l-1.445-0.681l-1.063-0.454l-1.042-0.399l-1.729-0.588l-1.391-0.421l-1.438-0.347   l-1.438-0.294l-1.104-0.188l-1.354-0.146l-1.229-0.071l-0.796-0.014l-1.183,0.021l-0.933,0.104l-0.885,0.144l-1.205,0.313   l-0.813,0.229l-1.093,0.444l-0.813,0.469l-0.604,0.409l-0.668,0.529l-0.604,0.576l-0.151,0.173   c-1.313,0.313-2.479,1.01-3.489,1.915" stroke="#000000" stroke-width="0.25" g2gstroke="#312783"/>
	<path orgstroke="#000000" stroke-linecap="round" orgfill="none" fill="none" d="M228.874,391.773   c5.646-6.188,14.974-7.039,22.334-5.678c14.261,2.639,29.938,19.538,34.122,30.763" stroke="#000000" stroke-width="0.25" g2gstroke="#312783"/>
	<path orgstroke="#000000" stroke-linecap="round" orgfill="none" fill="none" d="M287.802,419.135l0.328,0.146l1.396,0.612   l2.208,1.021l2.313,1.142l2.938,1.521l3.951,2.104l3.943,2.143l3.563,1.896l2.604,1.343l0.34,0.063l0.187,0.124l0.247-0.027   l0.411-0.179l0.257-0.146l0.324-0.193l-0.022,0.021c-0.741-8.637,0.634-17.229,0.197-25.938c-0.642-0.896-0.644-2.166-1.634-2.854   c-4.688-2.563-9.221-5.521-13.479-8.574c-0.313,9.384-6.828,17.187-10.214,25.729L287.802,419.135z" stroke="#000000" stroke-width="0.25" g2gstroke="#312783"/>
	<path orgstroke="#000000" stroke-linecap="round" orgfill="none" fill="none" d="M295.421,288.361   c-3.804-2.335-7.698-4.521-11.438-6.942" stroke="#000000" stroke-width="0.25" g2gstroke="#312783"/>
	<path orgstroke="#000000" stroke-linecap="round" orgfill="none" fill="none" d="M230.135,393.74   c-1.109,1.271-1.975,2.793-2.521,4.291" stroke="#000000" stroke-width="0.25" g2gstroke="#312783"/>
	<path orgstroke="#000000" stroke-linecap="round" orgfill="none" fill="none" d="M286.49,417.436   c-0.089,0.205-0.176,0.406-0.262,0.613" stroke="#000000" stroke-width="0.25" g2gstroke="#312783"/>
	<path orgstroke="#000000" stroke-linecap="round" orgfill="none" fill="none" d="M296.238,392.93   c-0.217,8.938-6.23,16.51-9.735,24.51" stroke="#000000" stroke-width="0.25" g2gstroke="#312783"/>
	<path orgstroke="#000000" stroke-linecap="round" orgfill="none" fill="none" d="M315.027,403.552   c-0.685,0.184-1.354,0.603-2.042,1.229" stroke="#000000" stroke-width="0.25" g2gstroke="#312783"/>
	<path orgstroke="#000000" stroke-linecap="round" orgfill="none" fill="none" d="M313.595,400.483   c-0.794,0.41-1.652,0.715-2.247,1.43" stroke="#000000" stroke-width="0.25" g2gstroke="#312783"/>
	<path orgstroke="#000000" stroke-linecap="round" orgfill="none" fill="none" d="M238.236,254.459   c1.229,0.817,18.792,11.438,20.021,12.249" stroke="#000000" stroke-width="0.25" g2gstroke="#312783"/>
	<path orgstroke="#000000" stroke-linecap="round" orgfill="none" fill="none" d="M268.87,272.433   c1.17,0.889,2.502,1.517,3.764,2.244" stroke="#000000" stroke-width="0.25" g2gstroke="#312783"/>
	<path orgstroke="#000000" stroke-linecap="round" orgfill="none" fill="none" d="M307.264,420.292   c-0.085,0.771,0.179,1.611-0.119,2.348c-2.27-0.479-4.838-1.958-6.413-3.563" stroke="#000000" stroke-width="0.25" g2gstroke="#312783"/>
	<path orgstroke="#000000" stroke-linecap="round" orgfill="none" fill="none" d="M302.772,418.26c0-4.229,0-8.438,0-12.661" stroke="#000000" stroke-width="0.25" g2gstroke="#312783"/>
	<path orgstroke="#000000" stroke-linecap="round" orgfill="none" fill="none" d="M302.772,405.594   c0.021-0.293-0.051-0.49-0.124-0.691c-0.536-0.336-1.313-0.839-1.792-0.783c-0.289,4.961-0.042,9.979-0.125,14.956" stroke="#000000" stroke-width="0.25" g2gstroke="#312783"/>
	<path orgstroke="#000000" stroke-linecap="round" orgfill="none" fill="none" d="M302.772,418.26   c-0.685,0.5-1.354,0.767-2.041,0.813" stroke="#000000" stroke-width="0.25" g2gstroke="#312783"/>
	<path orgstroke="#000000" stroke-linecap="round" orgfill="none" fill="none" d="M307.264,420.292   c-1.611-0.229-3.085-1.237-4.489-2.03" stroke="#000000" stroke-width="0.25" g2gstroke="#312783"/>
	<path orgstroke="#000000" stroke-linecap="round" orgfill="none" fill="none" d="M307.264,420.292   c-0.354-4.229,0.847-8.343,0.285-12.541c-1.547-0.771-3.047-1.921-4.774-2.151" stroke="#000000" stroke-width="0.25" g2gstroke="#312783"/>
	<path orgstroke="#000000" stroke-linecap="round" orgfill="none" fill="none" d="M296.646,405.594   c-0.39-0.188-0.385-0.771-0.281-1.104c1.104-0.523,1.971,0.975,1.779,1.813C297.601,406.766,296.677,406.286,296.646,405.594" stroke="#000000" stroke-width="0.25" g2gstroke="#312783"/>
	<path orgstroke="#000000" stroke-linecap="round" orgfill="none" fill="none" d="M309.307,412.532   c0.563,0.25,1.112,0.396,1.515,0.277c0.398-0.899-0.378-2.313-1.39-2.158C309.299,411.156,309.319,411.867,309.307,412.532" stroke="#000000" stroke-width="0.25" g2gstroke="#312783"/>
	<path orgstroke="#000000" stroke-linecap="round" orgfill="none" fill="none" d="M296.238,415.802   c0.563,0.614,1.108,0.729,1.52,0.681c0.456-0.93-0.229-2.063-1.146-2.286C296.207,414.401,296.276,415.164,296.238,415.802" stroke="#000000" stroke-width="0.25" g2gstroke="#312783"/>
	<path orgstroke="#000000" stroke-linecap="round" orgfill="none" fill="none" d="M309.716,422.743   c-0.386-0.188-0.381-0.759-0.277-1.104c1.188-0.596,2.563,1.438,1.407,2.236C310.319,423.777,309.909,423.224,309.716,422.743" stroke="#000000" stroke-width="0.25" g2gstroke="#312783"/>
	<polyline orgstroke="#000000" stroke-linecap="round" orgfill="none" points="213.792,250.877 209.64,260.353    204.855,274.064 202.242,284.889 199.409,299.135 198.129,311.325 197.23,333.387 197.23,347.364  " fill="none" stroke="#000000" stroke-width="0.25" g2gstroke="#312783"/>
	<polyline orgstroke="#000000" stroke-linecap="round" orgfill="none" points="238.236,254.459 227.485,248.687    220.813,244.329 219.86,243.104 219.723,242.014 219.587,241.469  " fill="none" stroke="#000000" stroke-width="0.25" g2gstroke="#312783"/>
	<polyline orgstroke="#000000" stroke-linecap="round" orgfill="none" points="273.784,327.12 273.51,331.205    272.967,333.112 272.149,334.474  " fill="none" stroke="#000000" stroke-width="0.25" g2gstroke="#312783"/>
	<polyline orgstroke="#000000" stroke-linecap="round" orgfill="none" points="288.943,303.43 294.754,324.397    298.566,338.83 299.927,344.553 300.472,352.723 300.472,358.719  " fill="none" stroke="#000000" stroke-width="0.25" g2gstroke="#312783"/>
	<polyline orgstroke="#000000" stroke-linecap="round" orgfill="none" points="231.689,375.749 236.047,373.302    241.22,371.12 246.668,370.306 254.705,370.854 260.285,372.482 265.785,374.927 271.508,379.529 275.807,383.648 280.438,388.278    283.432,392.094 285.612,396.448 287.791,403.803 289.702,410.641  " fill="none" stroke="#000000" stroke-width="0.25" g2gstroke="#312783"/>
	<polyline orgstroke="#000000" stroke-linecap="round" orgfill="none" points="231.537,375.766 228.03,380.226    227.213,382.68 227.213,387.852 226.123,388.941 222.583,394.116  " fill="none" stroke="#000000" stroke-width="0.25" g2gstroke="#312783"/>
	<polyline orgstroke="#000000" stroke-linecap="round" orgfill="none" points="195.76,371.51 195.985,368.428    197.075,367.699 197.719,367.956  " fill="none" stroke="#000000" stroke-width="0.25" g2gstroke="#312783"/>
	<polyline orgstroke="#000000" stroke-linecap="round" orgfill="none" points="192.898,349.724 188.813,352.178    186.77,353.81 186.09,355.444 186.09,357.078  " fill="none" stroke="#000000" stroke-width="0.25" g2gstroke="#312783"/>
	<polyline orgstroke="#000000" stroke-linecap="round" orgfill="none" points="252.071,272.782 257.987,276.466    261.255,279.734 263.706,282.457 266.203,287.477  " fill="none" stroke="#000000" stroke-width="0.25" g2gstroke="#312783"/>
	<polyline orgstroke="#000000" stroke-linecap="round" orgfill="none" points="215.674,250.329 215.275,250.138    214.777,250.185 214.549,250.231 214.186,250.412 213.868,250.684  " fill="none" stroke="#000000" stroke-width="0.25" g2gstroke="#312783"/>
	
		<line orgstroke="#000000" orgfill="none" stroke-linecap="round" fill="none" x1="214.322" x2="215.003" y1="250.729" y2="251.773" stroke="#000000" stroke-width="0.25" g2gstroke="#312783"/>
	
		<line orgstroke="#000000" orgfill="none" stroke-linecap="round" fill="none" x1="181.824" x2="195.077" y1="357.532" y2="368.516" stroke="#000000" stroke-width="0.25" g2gstroke="#312783"/>
	<polyline orgstroke="#000000" stroke-linecap="round" orgfill="none" points="196.983,357.078 223.672,378.052    225.681,378.571 227.492,378.571 230.481,376.958  " fill="none" stroke="#000000" stroke-width="0.25" g2gstroke="#312783"/>
	<polyline orgstroke="#000000" stroke-linecap="round" orgfill="none" points="193.987,359.349 216.864,378.32    218.77,379.41 221.494,380.226 223.945,380.771 225.851,381.316 227.557,381.648  " fill="none" stroke="#000000" stroke-width="0.25" g2gstroke="#312783"/>
	<polyline orgstroke="#000000" stroke-linecap="round" orgfill="none" points="191.299,332.552 193.443,333.657    194.532,334.474 195.348,336.108 195.621,345.912 195.621,348.638 194.804,349.724 193.987,349.724 192.898,349.724    192.353,348.908 191.263,347.364  " fill="none" stroke="#000000" stroke-width="0.25" g2gstroke="#312783"/>
	<polyline orgstroke="#000000" stroke-linecap="round" orgfill="none" points="186.77,353.81 191.879,357.078    194.351,357.078 196.277,355.445 196.983,352.993  " fill="none" stroke="#000000" stroke-width="0.25" g2gstroke="#312783"/>
	<polyline orgstroke="#000000" stroke-linecap="round" orgfill="none" points="197.23,347.364 197.255,350.269    197.255,351.635 196.983,352.993 198.073,355.444 199.856,355.973  " fill="none" stroke="#000000" stroke-width="0.25" g2gstroke="#312783"/>
	<polyline orgstroke="#000000" stroke-linecap="round" orgfill="none" points="199.856,355.973 196.983,357.078    196.166,357.622 193.987,359.349 193.443,363.344  " fill="none" stroke="#000000" stroke-width="0.25" g2gstroke="#312783"/>
	
		<line orgstroke="#000000" orgfill="none" stroke-linecap="round" fill="none" x1="177.829" x2="198.889" y1="350.269" y2="368.428" stroke="#000000" stroke-width="0.25" g2gstroke="#312783"/>
	
		<line orgstroke="#000000" orgfill="none" stroke-linecap="round" fill="none" x1="205.789" x2="224.019" y1="378.052" y2="392.016" stroke="#000000" stroke-width="0.25" g2gstroke="#312783"/>
	<polyline orgstroke="#000000" stroke-linecap="round" orgfill="none" points="214.572,376.427 213.595,378.32    213.051,380.498 212.722,383.302  " fill="none" stroke="#000000" stroke-width="0.25" g2gstroke="#312783"/>
	<polyline orgstroke="#000000" stroke-linecap="round" orgfill="none" points="212.97,381.182 218.225,384.856    223.4,385.401 227.213,384.723  " fill="none" stroke="#000000" stroke-width="0.25" g2gstroke="#312783"/>
	<polyline orgstroke="#000000" stroke-linecap="round" orgfill="none" points="213.595,378.32 218.225,381.316    220.677,382.405 227.213,382.68  " fill="none" stroke="#000000" stroke-width="0.25" g2gstroke="#312783"/>
	<polyline orgstroke="#000000" stroke-linecap="round" orgfill="none" points="192.021,314.847 193.443,314.866    195.077,315.14 196.166,316.499 196.711,318.406 196.166,325.219 195.077,326.306 192.353,329.027  " fill="none" stroke="#000000" stroke-width="0.25" g2gstroke="#312783"/>
	
		<line orgstroke="#000000" orgfill="none" stroke-linecap="round" fill="none" x1="193.987" x2="197.26" y1="328.76" y2="332.594" stroke="#000000" stroke-width="0.25" g2gstroke="#312783"/>
	
		<line orgstroke="#000000" orgfill="none" stroke-linecap="round" fill="none" x1="195.077" x2="197.406" y1="326.306" y2="329.027" stroke="#000000" stroke-width="0.25" g2gstroke="#312783"/>
	<polyline orgstroke="#000000" stroke-linecap="round" orgfill="none" points="196.846,285.316 199.57,285.997    199.979,286.27 199.979,286.27 200.251,287.222 199.979,288.176 199.026,293.487 198.753,294.44 198.208,294.849 197.528,294.849    195.758,294.576 194.804,294.303  " fill="none" stroke="#000000" stroke-width="0.25" g2gstroke="#312783"/>
	
		<line orgstroke="#000000" orgfill="none" stroke-linecap="round" fill="none" x1="194.396" x2="198.208" y1="298.26" y2="299.344" stroke="#000000" stroke-width="0.25" g2gstroke="#312783"/>
	
		<line orgstroke="#000000" orgfill="none" stroke-linecap="round" fill="none" x1="193.718" x2="197.531" y1="300.677" y2="301.766" stroke="#000000" stroke-width="0.25" g2gstroke="#312783"/>
	
		<line orgstroke="#000000" orgfill="none" stroke-linecap="round" fill="none" x1="193.718" x2="197.531" y1="303.287" y2="304.385" stroke="#000000" stroke-width="0.25" g2gstroke="#312783"/>
	<polyline orgstroke="#000000" stroke-linecap="round" orgfill="none" points="208.421,252.635 208.966,253.453    209.102,254.542 207.741,257.81 206.243,262.032 205.017,265.027 204.064,268.159 202.975,272.108 202.021,274.423    201.341,275.104 200.66,275.104 199.57,274.831  " fill="none" stroke="#000000" stroke-width="0.25" g2gstroke="#312783"/>
	<polyline orgstroke="#000000" stroke-linecap="round" orgfill="none" points="204.336,245.01 207.741,246.781    208.421,247.189 209.374,248.414 209.783,249.095 209.919,249.912 209.51,251.002  " fill="none" stroke="#000000" stroke-width="0.25" g2gstroke="#312783"/>
	<polyline orgstroke="#000000" stroke-linecap="round" orgfill="none" points="206.514,235.886 211.962,238.883    213.324,239.291 214.14,239.564 215.23,239.7 216.455,239.564  " fill="none" stroke="#000000" stroke-width="0.25" g2gstroke="#312783"/>
	
		<line orgstroke="#000000" orgfill="none" stroke-linecap="round" fill="none" x1="206.379" x2="210.736" y1="243.376" y2="245.554" stroke="#000000" stroke-width="0.25" g2gstroke="#312783"/>
	
		<line orgstroke="#000000" orgfill="none" stroke-linecap="round" fill="none" x1="207.468" x2="211.009" y1="239.7" y2="241.606" stroke="#000000" stroke-width="0.25" g2gstroke="#312783"/>
	<polyline orgstroke="#000000" stroke-linecap="round" orgfill="none" points="212.326,243.512 212.688,246.053    214.14,246.781 221.403,250.775 221.765,252.227 221.836,254.495  " fill="none" stroke="#000000" stroke-width="0.25" g2gstroke="#312783"/>
	<polyline orgstroke="#000000" stroke-linecap="round" orgfill="none" points="234.236,253.662 234.598,256.929    233.873,258.745 233.147,260.56  " fill="none" stroke="#000000" stroke-width="0.25" g2gstroke="#312783"/>
	<polyline orgstroke="#000000" stroke-linecap="round" orgfill="none" points="244.557,259.808 244.921,263.076    244.194,264.892 243.469,266.708  " fill="none" stroke="#000000" stroke-width="0.25" g2gstroke="#312783"/>
	<polyline orgstroke="#000000" stroke-linecap="round" orgfill="none" points="251.708,263.869 252.071,267.136    251.345,268.952 250.619,270.767  " fill="none" stroke="#000000" stroke-width="0.25" g2gstroke="#312783"/>
	<polyline orgstroke="#000000" stroke-linecap="round" orgfill="none" points="239.325,256.969 239.688,260.237    238.963,262.052 238.236,263.869  " fill="none" stroke="#000000" stroke-width="0.25" g2gstroke="#312783"/>
	<polyline orgstroke="#000000" stroke-linecap="round" orgfill="none" points="228.221,250.684 228.586,253.952    227.858,255.768 227.133,257.584  " fill="none" stroke="#000000" stroke-width="0.25" g2gstroke="#312783"/>
	<polyline orgstroke="#000000" stroke-linecap="round" orgfill="none" points="257.352,273.288 257.352,272.199    258.803,271.472 260.257,271.472 266.067,274.014 267.156,276.555 267.52,278.009 266.792,279.099 266.067,280.188  " fill="none" stroke="#000000" stroke-width="0.25" g2gstroke="#312783"/>
	<polyline orgstroke="#000000" stroke-linecap="round" orgfill="none" points="281.428,276.936 281.681,277.645    284.585,284.908 286.763,293.26 288.943,303.43 290.396,312.51 291.846,321.222 292.211,329.572 291.846,340.469 289.668,358.984     " fill="none" stroke="#000000" stroke-width="0.25" g2gstroke="#312783"/>
	<polyline orgstroke="#000000" stroke-linecap="round" orgfill="none" points="272.967,265.3 276.96,282.003    278.05,289.266 279.138,300.522 279.864,315.052 280.592,327.76 280.228,336.844 279.138,345.912 276.96,353.992  " fill="none" stroke="#000000" stroke-width="0.25" g2gstroke="#312783"/>
	<polyline orgstroke="#000000" stroke-linecap="round" orgfill="none" points="243.975,370.707 252.81,367.766    258.079,365.887 263.747,363.802 270.172,363.523 274.417,365.158 277.719,367.699 281.318,371.694 285.311,377.141    287.945,384.197 289.306,390.576 290.033,399.29 289.013,408.182  " fill="none" stroke="#000000" stroke-width="0.25" g2gstroke="#312783"/>
	<polyline orgstroke="#000000" stroke-linecap="round" orgfill="none" points="276.96,353.992 284.585,357.177    289.668,358.984 298.383,358.984 300.472,358.719 303.104,355.353 304.557,353.901 307.097,353.177  " fill="none" stroke="#000000" stroke-width="0.25" g2gstroke="#312783"/>
	<polyline orgstroke="#000000" stroke-linecap="round" orgfill="none" points="271.944,270.767 275.145,280.551    276.595,289.992 279.503,309.645  " fill="none" stroke="#000000" stroke-width="0.25" g2gstroke="#312783"/>
	<polyline orgstroke="#000000" stroke-linecap="round" orgfill="none" points="279.503,291.081 280.592,292.534    283.496,292.171 284.95,290.718  " fill="none" stroke="#000000" stroke-width="0.25" g2gstroke="#312783"/>
	<polyline orgstroke="#000000" stroke-linecap="round" orgfill="none" points="281.318,308.147 282.771,316.139    283.132,327.03 282.771,333.203 282.771,341.557 281.681,348.454 280.592,355.51  " fill="none" stroke="#000000" stroke-width="0.25" g2gstroke="#312783"/>
	<polyline orgstroke="#000000" stroke-linecap="round" orgfill="none" points="282.771,333.203 284.95,334.656    290.758,335.385 292.018,335.385 295.843,332.844  " fill="none" stroke="#000000" stroke-width="0.25" g2gstroke="#312783"/>
	<polyline orgstroke="#000000" stroke-linecap="round" orgfill="none" points="283.496,292.171 286.763,303.789    288.678,314.51 289.668,320.767 289.668,327.76 289.306,335.385  " fill="none" stroke="#000000" stroke-width="0.25" g2gstroke="#312783"/>
	<polyline orgstroke="#000000" stroke-linecap="round" orgfill="none" points="280.592,292.534 283.543,306.818    284.585,315.243 285.333,323.036 284.95,334.656  " fill="none" stroke="#000000" stroke-width="0.25" g2gstroke="#312783"/>
	
		<line orgstroke="#000000" orgfill="none" stroke-linecap="round" fill="none" x1="179.281" x2="186.77" y1="347.728" y2="353.81" stroke="#000000" stroke-width="0.25" g2gstroke="#312783"/>
	<polyline orgstroke="#000000" stroke-linecap="round" orgfill="none" points="186.544,349.907 187.315,350.406    188.54,350.541 189.765,350.269 190.719,349.594 191.672,348.499  " fill="none" stroke="#000000" stroke-width="0.25" g2gstroke="#312783"/>
	
		<line orgstroke="#000000" orgfill="none" stroke-linecap="round" fill="none" x1="196.277" x2="189.867" y1="355.445" y2="351.541" stroke="#000000" stroke-width="0.25" g2gstroke="#312783"/>
	
		<line orgstroke="#000000" orgfill="none" stroke-linecap="round" fill="none" x1="228.874" x2="224.162" y1="391.773" y2="396.973" stroke="#000000" stroke-width="0.25" g2gstroke="#312783"/>
	<polyline orgstroke="#000000" stroke-linecap="round" orgfill="none" points="268.245,389.849 272.603,394.57    275.507,399.653 278.652,405.558  " fill="none" stroke="#000000" stroke-width="0.25" g2gstroke="#312783"/>
	<polyline orgstroke="#000000" stroke-linecap="round" orgfill="none" points="255.265,381.677 260.62,383.679    263.887,385.855 264.839,386.726  " fill="none" stroke="#000000" stroke-width="0.25" g2gstroke="#312783"/>
	<polyline orgstroke="#000000" stroke-linecap="round" orgfill="none" points="230.135,390.473 239.402,383.289    243.552,381.497 249.136,381.497  " fill="none" stroke="#000000" stroke-width="0.25" g2gstroke="#312783"/>
	<polyline orgstroke="#000000" stroke-linecap="round" orgfill="none" points="247.534,385.624 252.995,374.969    254.81,373.511 256.262,373.511 257.352,374.235 257.352,376.054 254.515,381.648 250.023,385.897 249.55,385.831  " fill="none" stroke="#000000" stroke-width="0.25" g2gstroke="#312783"/>
	<polyline orgstroke="#000000" stroke-linecap="round" orgfill="none" points="255.944,373.827 256.217,374.643    256.353,375.391 256.014,376.141 250.023,385.897  " fill="none" stroke="#000000" stroke-width="0.25" g2gstroke="#312783"/>
	<polyline orgstroke="#000000" stroke-linecap="round" orgfill="none" points="262.382,390.688 269.359,381.93    269.904,381.519 270.379,381.386 271.129,381.594 271.741,382.136 272.013,382.745 271.877,383.635 268.064,389.486    267.656,389.761 264.16,391.844  " fill="none" stroke="#000000" stroke-width="0.25" g2gstroke="#312783"/>
	<polyline orgstroke="#000000" stroke-linecap="round" orgfill="none" points="271.538,382.344 271.605,382.95    270.993,383.767 264.16,391.844  " fill="none" stroke="#000000" stroke-width="0.25" g2gstroke="#312783"/>
	<polyline orgstroke="#000000" stroke-linecap="round" orgfill="none" points="289.013,408.182 283.649,413.157    282.799,416.24  " fill="none" stroke="#000000" stroke-width="0.25" g2gstroke="#312783"/>
	<polyline orgstroke="#000000" stroke-linecap="round" orgfill="none" points="256.353,381.316 258.803,381.861    261.8,382.68 264.252,383.767 266.904,385.012  " fill="none" stroke="#000000" stroke-width="0.25" g2gstroke="#312783"/>
	<polyline orgstroke="#000000" stroke-linecap="round" orgfill="none" points="270.002,386.512 272.149,388.941    275.145,392.482 277.324,395.749 279.503,399.29 281.136,403.385 282.498,406.643 284.132,409.367 285.435,411.499  " fill="none" stroke="#000000" stroke-width="0.25" g2gstroke="#312783"/>
	<polyline orgstroke="#000000" stroke-linecap="round" orgfill="none" points="252.81,375.319 247.637,374.78    243.281,375.325 238.651,376.413 234.838,377.776 231.298,379.954 229.39,382.136 227.213,384.723  " fill="none" stroke="#000000" stroke-width="0.25" g2gstroke="#312783"/>
	<polyline orgstroke="#000000" stroke-linecap="round" orgfill="none" points="258.251,266.708 264.524,271.019    267.247,273.469 270.515,278.644 272.422,283.546 274.328,288.449 275.962,295.257 279.386,308.85  " fill="none" stroke="#000000" stroke-width="0.25" g2gstroke="#312783"/>
	<polyline orgstroke="#000000" stroke-linecap="round" orgfill="none" points="257.987,276.466 263.162,280.278    267.247,284.908 269.97,289.266 272.694,297.98 274.599,306.695 274.055,308.601 273.784,309.691 271.963,311.577  " fill="none" stroke="#000000" stroke-width="0.25" g2gstroke="#312783"/>
	
		<line orgstroke="#000000" orgfill="none" stroke-linecap="round" fill="none" x1="269.97" x2="267.562" y1="289.266" y2="291.303" stroke="#000000" stroke-width="0.25" g2gstroke="#312783"/>
	
		<line orgstroke="#000000" orgfill="none" stroke-linecap="round" fill="none" x1="271.767" x2="269.082" y1="295.016" y2="298.315" stroke="#000000" stroke-width="0.25" g2gstroke="#312783"/>
	<polyline orgstroke="#000000" stroke-linecap="round" orgfill="none" points="278.076,349.852 273.51,351.903    270.243,353.81 267.247,355.444 265.613,357.895 265.069,359.26 265.749,360.277 267.247,360.891 272.694,361.435 275.009,362.182    278.685,363.889 281.428,365.65 283.682,368.052 286.856,372.329 288.218,373.69 291.213,374.51 292.592,374.037 293.664,373.146    295.026,369.061 296.387,366.344 298.839,363.344 300.201,361.162 300.472,360.349 300.472,358.719  " fill="none" stroke="#000000" stroke-width="0.25" g2gstroke="#312783"/>
	<polyline orgstroke="#000000" stroke-linecap="round" orgfill="none" points="205.949,281.692 204.609,282.457    203.519,287.631 202.429,295.257 201.885,302.885 201.341,311.599 200.796,318.951 200.251,324.942 199.706,330.391    199.979,332.567 200.251,334.745  " fill="none" stroke="#000000" stroke-width="0.25" g2gstroke="#312783"/>
</g>
</g>
</g></svg>