<svg xmlns="http://www.w3.org/2000/svg" xmlns:xlink="http://www.w3.org/1999/xlink" xmlns:x="http://ns.adobe.com/Extensibility/1.0/" xmlns:graph="http://ns.adobe.com/Graphs/1.0/" xmlns:i="http://ns.adobe.com/AdobeIllustrator/10.0/" xmlns:etg="http://www.eurotaxglass.com/etg/evd/" etg:dataTimestamp="1539068912893" contentScriptType="text/ecmascript" zoomAndPan="magnify" contentStyleType="text/css" id="Layer_1" enable-background="new 0 0 1841.891 1595.279" version="1.1" xml:space="preserve" width="1841.891px" preserveAspectRatio="xMidYMid meet" viewBox="0 0 1841.891 1595.279" height="1595.279px" x="0px" y="0px"><g xmlns="http://www.w3.org/2000/svg" objecttype="PS" tooltip="#UNDEFINED" id="29">
<g onmouseover="notifyOwner(AGV_OBJECT_MOUSEOVER, '29(PS)')" transform="translate(2.364804225749367, 27.431729018692806) translate(15.529125793457013, 11.764660217285154)" onclick="clickZoom(evt); notifyOwner(AGV_OBJECT_MOUSECLICK, '29(PS)')" onmouseout="notifyOwner(AGV_OBJECT_MOUSEOUT, '29(PS)')" tooltip="#UNDEFINED" id="29-Graphic" objecttype="GRAPHIC">
<g>
	<path orgstroke="#000000" orgfill="#ffffff" stroke-linecap="round" fill="#ffffff" g2gfill="#BCBEC0" d="M224.102,379.938l-1.163,0.175l-5.174,2.179   l-4.354,2.451l-0.152,0.021l-3.508,4.462l-0.817,2.451v5.174l-1.089,1.09l-3.541,5.174l0.995,2.606l0.545,0.545l0.544,0.136   l2.451,0.817l0.497-0.188c0.545-1.498,1.406-3.021,2.519-4.29l0.938-0.938c1.014-0.906,2.188-1.604,3.479-1.916l0.159-0.17   l0.604-0.579l0.667-0.53l0.604-0.409l0.813-0.468l1.094-0.445l0.813-0.229l1.206-0.313l0.888-0.144l0.93-0.104l1.18-0.021   l0.799,0.013l1.229,0.072l1.358,0.146l1.104,0.188l1.438,0.295l1.438,0.346l1.392,0.421l1.729,0.594l1.042,0.396l1.068,0.454   l1.445,0.681l1.238,0.621l1.158,0.643l1.469,0.86l1.379,0.872l1.896,1.295l1.298,0.953l1.705,1.331l1.396,1.165l1.541,1.364   l1.357,1.295l1.372,1.389l1.079,1.168l0.991,1.158l0.938,1.218l1.183,1.688l1.146,1.771l1.188,1.929l1.003,1.574l0.292,0.444   l0.612,0.892l0.438,0.652l0.545,0.896l0.354,0.52l0.337,0.438l0.412,0.396l0.479,0.296l0.479,0.165l0.479,0.063l0.521-0.021   l0.313-0.047l0.162-0.271l0.149-0.354l-0.271,0.612c0.085-0.204,0.174-0.406,0.266-0.612c0.911-2.08,1.994-4.133,3.104-6.188   l0.104-0.606l-0.563-2.021l-0.12-0.438l1.021-8.892l-0.729-8.726l-1.355-6.377l-2.638-7.059l-3.991-5.446l-3.604-3.995   l-3.301-2.541l-4.244-1.635l-6.425,0.271l-5.669,2.098l-5.271,1.885l-5.625,1.872l-3.209,1.063L224.102,379.938z" outline-element="true" stroke="#000000" stroke-width="0.5" g2gstroke="#312783"/>
	<path orgstroke="#000000" stroke-linecap="round" orgfill="none" fill="none" d="M210.593,400.765   c5.644-6.188,14.975-7.039,22.334-5.677c14.262,2.638,30.463,20.771,34.651,32.005" stroke="#000000" stroke-width="0.25" g2gstroke="#312783"/>
	<polyline orgstroke="#000000" stroke-linecap="round" orgfill="none" points="224.649,379.856 228.386,379.302    236.423,379.846 242.003,381.474 247.503,383.916 253.226,388.521 257.526,392.64 262.156,397.27 265.152,401.082 267.33,405.44    269.509,412.802 270.512,416.385  " fill="none" stroke="#000000" stroke-width="0.25" g2gstroke="#312783"/>
	<polyline orgstroke="#000000" stroke-linecap="round" orgfill="none" points="229.252,379.355 233.802,377.995    239.07,376.113 244.74,374.024 251.161,373.76 255.409,375.386 258.71,377.927 262.309,381.927 266.303,387.368 268.937,394.427    269.931,401.01 270.733,407.243 270.207,415.302  " fill="none" stroke="#000000" stroke-width="0.25" g2gstroke="#312783"/>
	
		<line orgstroke="#000000" orgfill="none" stroke-linecap="round" fill="none" x1="210.593" x2="205.88" y1="400.765" y2="405.969" stroke="#000000" stroke-width="0.25" g2gstroke="#312783"/>
	<polyline orgstroke="#000000" stroke-linecap="round" orgfill="none" points="249.964,398.844 254.321,403.561    257.225,408.644 260.37,414.552  " fill="none" stroke="#000000" stroke-width="0.25" g2gstroke="#312783"/>
	<polyline orgstroke="#000000" stroke-linecap="round" orgfill="none" points="236.984,390.66 242.338,392.677    245.606,394.846 246.557,395.72  " fill="none" stroke="#000000" stroke-width="0.25" g2gstroke="#312783"/>
	<polyline orgstroke="#000000" stroke-linecap="round" orgfill="none" points="211.853,399.469 221.12,392.281    225.271,390.489 230.855,390.489  " fill="none" stroke="#000000" stroke-width="0.25" g2gstroke="#312783"/>
	<polyline orgstroke="#000000" stroke-linecap="round" orgfill="none" points="229.252,394.615 234.713,383.952    236.529,382.499 237.981,382.499 239.07,383.226 239.07,385.052 236.235,390.64 231.741,394.888 231.268,394.823  " fill="none" stroke="#000000" stroke-width="0.25" g2gstroke="#312783"/>
	<polyline orgstroke="#000000" stroke-linecap="round" orgfill="none" points="237.663,382.818 237.935,383.635    238.071,384.385 237.733,385.135 231.741,394.888  " fill="none" stroke="#000000" stroke-width="0.25" g2gstroke="#312783"/>
	<polyline orgstroke="#000000" stroke-linecap="round" orgfill="none" points="244.1,399.68 251.077,390.927    251.622,390.511 252.097,390.385 252.847,390.579 253.459,391.124 253.732,391.737 253.595,392.622 249.783,398.477    249.374,398.749 245.879,400.83  " fill="none" stroke="#000000" stroke-width="0.25" g2gstroke="#312783"/>
	<polyline orgstroke="#000000" stroke-linecap="round" orgfill="none" points="253.256,391.328 253.323,391.941    252.712,392.76 245.879,400.83  " fill="none" stroke="#000000" stroke-width="0.25" g2gstroke="#312783"/>
	<polyline orgstroke="#000000" stroke-linecap="round" orgfill="none" points="270.733,417.177 265.368,422.15    264.518,425.233  " fill="none" stroke="#000000" stroke-width="0.25" g2gstroke="#312783"/>
	<polyline orgstroke="#000000" stroke-linecap="round" orgfill="none" points="238.071,390.307 240.522,390.852    243.518,391.677 245.97,392.76 248.622,394.01  " fill="none" stroke="#000000" stroke-width="0.25" g2gstroke="#312783"/>
	<polyline orgstroke="#000000" stroke-linecap="round" orgfill="none" points="251.72,395.51 253.868,397.933    256.864,401.473 259.042,404.74 261.221,408.281 262.855,412.366 264.217,415.635 265.851,418.358 267.154,420.49  " fill="none" stroke="#000000" stroke-width="0.25" g2gstroke="#312783"/>
	<polyline orgstroke="#000000" stroke-linecap="round" orgfill="none" points="234.529,384.31 229.356,383.771    224.999,384.316 220.369,385.405 216.556,386.767 213.016,388.946 211.11,391.124 208.931,393.719  " fill="none" stroke="#000000" stroke-width="0.25" g2gstroke="#312783"/>
</g>
</g>
</g></svg>