<svg xmlns="http://www.w3.org/2000/svg" xmlns:xlink="http://www.w3.org/1999/xlink" xmlns:x="http://ns.adobe.com/Extensibility/1.0/" xmlns:graph="http://ns.adobe.com/Graphs/1.0/" xmlns:i="http://ns.adobe.com/AdobeIllustrator/10.0/" xmlns:etg="http://www.eurotaxglass.com/etg/evd/" etg:dataTimestamp="1539068912893" contentScriptType="text/ecmascript" zoomAndPan="magnify" contentStyleType="text/css" id="Layer_1" enable-background="new 0 0 1841.891 1595.279" version="1.1" xml:space="preserve" width="1841.891px" preserveAspectRatio="xMidYMid meet" viewBox="0 0 1841.891 1595.279" height="1595.279px" x="0px" y="0px"><g xmlns="http://www.w3.org/2000/svg" objecttype="PS" tooltip="#UNDEFINED" id="31">
<g onmouseover="notifyOwner(AGV_OBJECT_MOUSEOVER, '31(PS)')" transform="translate(15.529125793457013, 11.764660217285154)" onclick="clickZoom(evt); notifyOwner(AGV_OBJECT_MOUSECLICK, '31(PS)')" onmouseout="notifyOwner(AGV_OBJECT_MOUSEOUT, '31(PS)')" tooltip="#UNDEFINED" id="31-Graphic" objecttype="GRAPHIC">
<g>
	<g>
		<path orgstroke="#000000" orgfill="#ffffff" fill="#ffffff" g2gfill="#BCBEC0" d="M451.323,298.172l12.326-7.439l0.062-0.281    l0.063-0.155l0.104-2.542l0.021-0.104l0.122-0.188l0.875-0.506V285.8l-0.138-0.226l-2.812-1.62l-0.408,0.188l-3.842,2.129    l-0.25,0.188l-0.16,0.008l-0.133-0.063l-0.006-3.479l0.006-1.916l-0.233-0.398l-1.271-0.813l-0.49-0.231l-17.18,10.604    c-0.854,0.486-1.271,0.211-1.271,0.211l-22.553-13.934l-0.319-0.438l-0.023-0.271l-0.063-0.346v-0.687l0.168-0.545l-0.069-0.371    l-0.169-0.205L411.7,273h-0.178l-0.229,0.033l-0.207,0.271l-0.271,0.607l-0.328,1.875l-0.146,2.962l-0.396,0.278l-1.264-0.563    l-19.789-9.438l-0.454-0.092l-0.271,0.092l-6.271,6.313l-0.381,0.063l-0.571-0.146l-0.544,0.45l-0.229,0.315l-0.229,2.588    l0.185,0.229l3.134,0.729l9.438,3.271l4.356,1.813l3.087,1.636l2.354,1.092l11.438,5.764l42.146,25.462l0.521,0.729l0.063,4.854    l0.271,0.545l1.438,0.528h0.56l3.437-2.319l0.511,0.064l4.431,4.02l1.156,0.406l1.495-0.065l1.563-0.813l1.297-1.362l0.271-0.953    l-0.207-1.226l-0.741-1.021l-3.539-2.988l0.146-0.357l1.48-1l0.204-0.546l0.063-9.668l-0.2-0.613l-0.271-0.14l-2.063-0.651    l-0.813,0.026l0,0l-1.813,1.33l-1.05,0.035l-13-8.024C450.591,298.917,451.323,298.172,451.323,298.172z" outline-element="true" stroke="#000000" stroke-width="0.5" g2gstroke="#312783" stroke-miterlimit="10"/>
		
			<line orgstroke="#000000" orgfill="none" fill="none" x1="457.153" x2="444.573" y1="286.745" y2="294.302" stroke="#000000" stroke-width="0.25" g2gstroke="#312783" stroke-miterlimit="10"/>
		
			<line orgstroke="#000000" orgfill="none" fill="none" x1="464.632" x2="447.091" y1="285.79" y2="296.012" stroke="#000000" stroke-width="0.25" g2gstroke="#312783" stroke-miterlimit="10"/>
		
			<line orgstroke="#000000" orgfill="none" fill="none" x1="456.784" x2="453.007" y1="281.012" y2="283.319" stroke="#000000" stroke-width="0.25" g2gstroke="#312783" stroke-miterlimit="10"/>
		
			<line orgstroke="#000000" orgfill="none" fill="none" x1="450.491" x2="439.781" y1="284.857" y2="291.403" stroke="#000000" stroke-width="0.25" g2gstroke="#312783" stroke-miterlimit="10"/>
		
			<line orgstroke="#000000" orgfill="none" fill="none" x1="463.875" x2="448.547" y1="287.748" y2="296.762" stroke="#000000" stroke-width="0.25" g2gstroke="#312783" stroke-miterlimit="10"/>
		
			<line orgstroke="#000000" orgfill="none" fill="none" x1="450.401" x2="437.674" y1="298.8" y2="290.928" stroke="#000000" stroke-width="0.25" g2gstroke="#312783" stroke-miterlimit="10"/>
		
			<line orgstroke="#000000" orgfill="none" fill="none" x1="418.785" x2="413.945" y1="292.158" y2="289.338" stroke="#000000" stroke-width="0.25" g2gstroke="#312783" stroke-miterlimit="10"/>
		
			<line orgstroke="#000000" orgfill="none" fill="none" x1="431.591" x2="425.836" y1="299.634" y2="296.27" stroke="#000000" stroke-width="0.25" g2gstroke="#312783" stroke-miterlimit="10"/>
		
			<line orgstroke="#000000" orgfill="none" fill="none" x1="456.091" x2="435.657" y1="313.924" y2="302.008" stroke="#000000" stroke-width="0.25" g2gstroke="#312783" stroke-miterlimit="10"/>
		
			<line orgstroke="#000000" orgfill="none" fill="none" x1="443.965" x2="413.945" y1="297.343" y2="278.995" stroke="#000000" stroke-width="0.25" g2gstroke="#312783" stroke-miterlimit="10"/>
		
			<line orgstroke="#000000" orgfill="none" fill="none" x1="452.757" x2="448.989" y1="302.721" y2="300.425" stroke="#000000" stroke-width="0.25" g2gstroke="#312783" stroke-miterlimit="10"/>
		
			<line orgstroke="#000000" orgfill="none" fill="none" x1="462.625" x2="455.281" y1="308.758" y2="304.26" stroke="#000000" stroke-width="0.25" g2gstroke="#312783" stroke-miterlimit="10"/>
		
			<line orgstroke="#000000" orgfill="none" fill="none" x1="458.299" x2="411.584" y1="311.966" y2="283.898" stroke="#000000" stroke-width="0.25" g2gstroke="#312783" stroke-miterlimit="10"/>
		
			<line orgstroke="#000000" orgfill="none" fill="none" x1="456.007" x2="413.945" y1="315.448" y2="290.706" stroke="#000000" stroke-width="0.25" g2gstroke="#312783" stroke-miterlimit="10"/>
		<polyline orgstroke="#000000" orgfill="none" points="413.945,278.995 411.584,277.547     411.039,276.455 410.859,275.004   " fill="none" stroke="#000000" stroke-width="0.25" g2gstroke="#312783" stroke-miterlimit="10"/>
		
			<line orgstroke="#000000" orgfill="none" fill="none" x1="413.945" x2="404.323" y1="289.338" y2="283.898" stroke="#000000" stroke-width="0.25" g2gstroke="#312783" stroke-miterlimit="10"/>
		<polyline orgstroke="#000000" orgfill="none" points="413.945,285.26 409.951,283.354     407.408,282.445 404.502,281.719 401.598,281.357   " fill="none" stroke="#000000" stroke-width="0.25" g2gstroke="#312783" stroke-miterlimit="10"/>
		
			<line orgstroke="#000000" orgfill="none" fill="none" x1="404.323" x2="401.053" y1="283.898" y2="281.902" stroke="#000000" stroke-width="0.25" g2gstroke="#312783" stroke-miterlimit="10"/>
		
			<line orgstroke="#000000" orgfill="none" fill="none" x1="413.945" x2="401.236" y1="290.706" y2="283.354" stroke="#000000" stroke-width="0.25" g2gstroke="#312783" stroke-miterlimit="10"/>
		
			<line orgstroke="#000000" orgfill="none" fill="none" x1="387.936" x2="384.668" y1="278.45" y2="277.361" stroke="#000000" stroke-width="0.25" g2gstroke="#312783" stroke-miterlimit="10"/>
		<polyline orgstroke="#000000" orgfill="none" points="401.598,281.357 401.143,281.445     400.873,281.583 400.398,282.944 400.054,283.014 399.783,282.881 391.323,279.718   " fill="none" stroke="#000000" stroke-width="0.25" g2gstroke="#312783" stroke-miterlimit="10"/>
		<polyline orgstroke="#000000" orgfill="none" points="400.463,281.855 394.27,279.473     390.795,278.178 385.756,276.479   " fill="none" stroke="#000000" stroke-width="0.25" g2gstroke="#312783" stroke-miterlimit="10"/>
		
			<line orgstroke="#000000" orgfill="none" fill="none" x1="385.756" x2="381.516" y1="276.479" y2="275.381" stroke="#000000" stroke-width="0.25" g2gstroke="#312783" stroke-miterlimit="10"/>
		
			<line orgstroke="#000000" orgfill="none" fill="none" x1="384.668" x2="380.154" y1="277.361" y2="276.269" stroke="#000000" stroke-width="0.25" g2gstroke="#312783" stroke-miterlimit="10"/>
		<polyline orgstroke="#000000" orgfill="none" points="402.054,275.292 401.689,277.091     402.234,278.995 403.594,280.631 404.502,281.719   " fill="none" stroke="#000000" stroke-width="0.25" g2gstroke="#312783" stroke-miterlimit="10"/>
		
			<line orgstroke="#000000" orgfill="none" fill="none" x1="411.584" x2="411.584" y1="277.547" y2="283.898" stroke="#000000" stroke-width="0.25" g2gstroke="#312783" stroke-miterlimit="10"/>
		<polyline orgstroke="#000000" orgfill="none" points="410.314,279.165 410.314,281.357     410.675,282.175 411.584,283.898   " fill="none" stroke="#000000" stroke-width="0.25" g2gstroke="#312783" stroke-miterlimit="10"/>
		<polyline orgstroke="#000000" orgfill="none" points="390.07,277.635 392.612,274.276     392.973,274.276 393.336,274.276 399.6,276.184 400.054,276.729 400.145,277.182 398.713,281.184   " fill="none" stroke="#000000" stroke-width="0.25" g2gstroke="#312783" stroke-miterlimit="10"/>
		<polyline orgstroke="#000000" orgfill="none" points="396.803,272.785 395.879,273.006     394.699,273.096 392.882,272.643 386.49,270.696   " fill="none" stroke="#000000" stroke-width="0.25" g2gstroke="#312783" stroke-miterlimit="10"/>
		<polyline orgstroke="#000000" orgfill="none" points="387.533,269.648 393.156,271.643     393.881,271.643   " fill="none" stroke="#000000" stroke-width="0.25" g2gstroke="#312783" stroke-miterlimit="10"/>
		
			<ellipse orgstroke="#000000" orgfill="none" fill="none" rx="0.685" cx="397.483" ry="0.502" cy="274.276" stroke="#000000" stroke-width="0.25" g2gstroke="#312783" stroke-miterlimit="10"/>
		
			<ellipse orgstroke="#000000" orgfill="none" fill="none" rx="0.683" cx="386.49" ry="0.503" cy="273.774" stroke="#000000" stroke-width="0.25" g2gstroke="#312783" stroke-miterlimit="10"/>
		
			<line orgstroke="#000000" orgfill="none" fill="none" x1="401.236" x2="400.398" y1="283.354" y2="282.944" stroke="#000000" stroke-width="0.25" g2gstroke="#312783" stroke-miterlimit="10"/>
		<polyline orgstroke="#000000" orgfill="none" points="463.507,310.881 469.233,306.675     469.233,306.675 469.534,306.653   " fill="none" stroke="#000000" stroke-width="0.25" g2gstroke="#312783" stroke-miterlimit="10"/>
		<polyline orgstroke="#000000" orgfill="none" points="458.632,317.134 458.612,315.012     458.882,314.268 461.799,312.133   " fill="none" stroke="#000000" stroke-width="0.25" g2gstroke="#312783" stroke-miterlimit="10"/>
		<polyline orgstroke="#000000" orgfill="none" points="458.952,325.233 458.75,324.817     458.674,320.391   " fill="none" stroke="#000000" stroke-width="0.25" g2gstroke="#312783" stroke-miterlimit="10"/>
		<polyline orgstroke="#000000" orgfill="none" points="456.61,318.69 456.549,314.356     456.823,313.61 464.759,307.774   " fill="none" stroke="#000000" stroke-width="0.25" g2gstroke="#312783" stroke-miterlimit="10"/>
		
			<line orgstroke="#000000" orgfill="none" fill="none" x1="468.49" x2="462.864" y1="318.8" y2="322.594" stroke="#000000" stroke-width="0.25" g2gstroke="#312783" stroke-miterlimit="10"/>
		
			<line orgstroke="#000000" orgfill="none" fill="none" x1="456.823" x2="458.756" y1="313.61" y2="314.631" stroke="#000000" stroke-width="0.25" g2gstroke="#312783" stroke-miterlimit="10"/>
		<polyline orgstroke="#000000" orgfill="none" points="463.674,322.381 467.698,326.01     468.507,326.3 469.55,326.256 470.656,325.677 471.561,324.719 471.75,324.052 471.61,323.192 471.084,322.477 467.715,319.573       " fill="none" stroke="#000000" stroke-width="0.25" g2gstroke="#312783" stroke-miterlimit="10"/>
	</g>
	<g>
		<g>
			<polygon fill="#F39200" enable-background="new    " opacity="0.5" points="451.311,299.786 449.584,300.783 449.584,306.724      444.802,303.816 438.438,307.492 438.376,307.902 456.076,318.598 456.601,319.328 456.66,324.185 456.936,324.73      458.378,325.26 458.932,325.26 462.365,322.939 462.878,323.01 467.304,327.023 468.462,327.429 469.96,327.364 471.524,326.552      472.821,325.188 473.091,324.235 472.884,323.01 472.142,321.989 468.602,318.996 468.744,318.637 470.23,317.637      470.434,317.094 470.493,307.427 470.296,306.81 470.026,306.677 467.962,306.019 467.15,306.052 467.15,306.052      465.336,307.382 464.284,307.412 451.992,299.824    " orgfill="#F39200"/>
			<polyline orgstroke="#000000" orgfill="none" points="454.306,298.086 449.633,300.783      449.633,306.724 444.851,303.816 435.24,309.364    " fill="none" outline-element="true" stroke="#000000" stroke-width="0.5" g2gstroke="#312783" stroke-miterlimit="10"/>
		</g>
		<g>
			<ellipse orgstroke="#000000" orgfill="#FFFFFF" fill="#FFFFFF" rx="5.029" cx="457.593" ry="7.729" cy="311.775" outline-element="true" stroke="#000000" stroke-width="0.5" g2gstroke="#312783"/>
			<text font-family="'MyriadPro-Regular'" font-size="12" transform="matrix(1 0 0 1 453.6663 315.4529)">D</text>
		</g>
	</g>
</g>
</g>
</g></svg>