<svg xmlns="http://www.w3.org/2000/svg" xmlns:xlink="http://www.w3.org/1999/xlink" xmlns:x="http://ns.adobe.com/Extensibility/1.0/" xmlns:graph="http://ns.adobe.com/Graphs/1.0/" xmlns:i="http://ns.adobe.com/AdobeIllustrator/10.0/" xmlns:etg="http://www.eurotaxglass.com/etg/evd/" etg:dataTimestamp="1539068912893" contentScriptType="text/ecmascript" zoomAndPan="magnify" contentStyleType="text/css" id="Layer_1" enable-background="new 0 0 1841.891 1595.279" version="1.1" xml:space="preserve" width="1841.891px" preserveAspectRatio="xMidYMid meet" viewBox="0 0 1841.891 1595.279" height="1595.279px" x="0px" y="0px"><g xmlns="http://www.w3.org/2000/svg" objecttype="PS" tooltip="#UNDEFINED" id="33">
<g onmouseover="notifyOwner(AGV_OBJECT_MOUSEOVER, '33(PS)')" transform="translate(15.529125793457013, 11.764660217285154) translate(1.0, 1.0)" onclick="clickZoom(evt); notifyOwner(AGV_OBJECT_MOUSECLICK, '33(PS)')" onmouseout="notifyOwner(AGV_OBJECT_MOUSEOUT, '33(PS)')" tooltip="#UNDEFINED" id="33-Graphic" objecttype="GRAPHIC">
<g zvalue="29">
<g zvalue="32">
<g>
<path orgstroke="#000000" stroke="#000000" d="   M344.525,397.919l0.353,0.412l9.795,5.655c1.778,1.026,4.117-1.435,4.117-1.435l3.583-3.777l-0.003-0.003v-4.084   c0.537-3.911,4.795-6.373,5.283-6.647h0.033l0.952-0.828c0,0,0.039-0.066,0.085-0.183c0.012-0.03,0.025-0.065,0.037-0.103   l0.104-1.801l-0.013-0.048c-0.057-0.474-0.329-1.021-1.114-1.469l-7.007-4.09c0,0-2.068-0.772-2.968,0.643   c0,0-0.107,0.424-0.583,0.782c-2.685-0.054-6.193-1.167-7.454-0.46c-1.149,0.645-2.332,1.293-2.494,4.907   c-0.161,3.571-0.161,6.316-0.161,6.316l-0.097,3.003c0,0-2.441,1.066-2.445,2.022C344.526,396.733,344.526,397.919,344.525,397.919   z M353.604,385.126l0.118-0.047c0.418-0.146,0.922-0.175,1.502-0.071c1.264,0.226,2.621,1.046,3.743,2.16l0.228,0.072   c-0.745,0.676-1.434,1.638-1.434,4.367c0,0.299,0,0.613,0,0.938h-0.001c-1.733-0.982-3.35-2.793-4.032-4.687   C353.331,386.762,353.313,385.815,353.604,385.126z" stroke-linecap="round" outline-element="true" transform="matrix(1 0 0 1 13 -69)" stroke-miterlimit="10" orgfill="#ffffff" fill="#ffffff" stroke-width="0.5" g2gfill="#BCBEC0" stroke-linejoin="round" g2gstroke="#312783"/>
<path orgstroke="#000000" orgfill="none" stroke-linecap="round" transform="matrix(1 0 0 1 13 -69)" fill="none" stroke-linejoin="round" d="M357.77801513671875 400.96099853515625L358.6549987792969 401.47900390625" stroke="#000000" stroke-width="0.25" g2gstroke="#312783" stroke-miterlimit="10"/>
<path orgstroke="#000000" orgfill="none" stroke-linecap="round" transform="matrix(1 0 0 1 13 -69)" fill="none" stroke-linejoin="round" d="   M347.722,395.009l0.067-2.658c0,0,0.211-2.537,0.211-6.14c0-3.604,0.759-4.336,2.146-4.976c1.086-0.501,1.878-0.291,3.989-0.087   c0.036,0.003,3.902,0.313,3.938,0.313" stroke="#000000" stroke-width="0.25" g2gstroke="#312783" stroke-miterlimit="10"/>
<path orgstroke="#000000" orgfill="none" stroke-linecap="round" transform="matrix(1 0 0 1 13 -69)" fill="none" stroke-linejoin="round" d="   M358.714,401.513v-2.834c0,0,0-2.659,0-6.262c0-3.602,0.997-4.073,2.145-4.975c1.137-0.892,4.081-0.439,6.766-0.387" stroke="#000000" stroke-width="0.25" g2gstroke="#312783" stroke-miterlimit="10"/>
<path orgstroke="#000000" orgfill="none" transform="matrix(1 0 0 1 13 -69)" fill="none" d="M344.806,397.246   c-0.199-0.162-0.281-0.336-0.28-0.513" stroke="#000000" stroke-width="0.25" g2gstroke="#312783" stroke-miterlimit="10"/>
<path orgstroke="#000000" orgfill="none" transform="matrix(1 0 0 1 13 -69)" fill="none" d="M357.778,400.962c0,0-0.015-4.835-0.017-8.416" stroke="#000000" stroke-width="0.25" g2gstroke="#312783" stroke-miterlimit="10"/>
<path orgstroke="#000000" orgfill="none" transform="matrix(1 0 0 1 13 -69)" fill="none" d="M359.195,387.24   c0.238-0.216,0.482-0.402,0.71-0.607c1.136-1.021,4.218-0.336,6.896-0.133" stroke="#000000" stroke-width="0.25" g2gstroke="#312783" stroke-miterlimit="10"/>
<path orgstroke="#000000" orgfill="none" transform="matrix(1 0 0 1 13 -69)" fill="none" d="M367.7640075683594 387.0559997558594L357.177001953125 380.9440002441406" stroke="#000000" stroke-width="0.25" g2gstroke="#312783" stroke-miterlimit="10"/>
<path orgstroke="#000000" orgfill="none" stroke-linecap="round" transform="matrix(1 0 0 1 13 -69)" fill="none" stroke-linejoin="round" d="   M357.689,394.026c-2.07-0.774-4.183-2.899-4.991-5.139c-0.693-1.918-0.229-3.376,1.024-3.809" stroke="#000000" stroke-width="0.25" g2gstroke="#312783" stroke-miterlimit="10"/>
<path orgstroke="#000000" orgfill="none" stroke-linecap="round" transform="matrix(1 0 0 1 13 -69)" fill="none" stroke-linejoin="round" d="   M356.992,395.215c-2.07-0.775-4.183-2.9-4.991-5.139c-0.116-0.32-0.199-0.627-0.252-0.918" stroke="#000000" stroke-width="0.25" g2gstroke="#312783" stroke-miterlimit="10"/>
<path orgstroke="#000000" orgfill="none" stroke-linecap="round" transform="matrix(1 0 0 1 13 -69)" fill="none" stroke-linejoin="round" d="M355.6300048828125 381.9630126953125L362.7569885253906 386.0350036621094" stroke="#000000" stroke-width="0.25" g2gstroke="#312783" stroke-miterlimit="10"/>
<path orgstroke="#000000" orgfill="none" stroke-linecap="round" transform="matrix(1 0 0 1 13 -69)" fill="none" stroke-linejoin="round" d="M355.7200012207031 383.7590026855469L359.8340148925781 386.135009765625" stroke="#000000" stroke-width="0.25" g2gstroke="#312783" stroke-miterlimit="10"/>
<path orgstroke="#000000" orgfill="none" stroke-linecap="round" transform="matrix(1 0 0 1 13 -69)" fill="none" stroke-linejoin="round" d="M352.0249938964844 394.0719909667969L357.177001953125 397.0469970703125" stroke="#000000" stroke-width="0.25" g2gstroke="#312783" stroke-miterlimit="10"/>
<path orgstroke="#000000" orgfill="none" stroke-linecap="round" transform="matrix(1 0 0 1 13 -69)" fill="none" stroke-linejoin="round" d="M351.281005859375 395.6919860839844L351.281005859375 388.67999267578125" stroke="#000000" stroke-width="0.25" g2gstroke="#312783" stroke-miterlimit="10"/>
<path orgstroke="#000000" orgfill="none" stroke-linecap="round" transform="matrix(1 0 0 1 13 -69)" fill="none" stroke-linejoin="round" d="M346.97100830078125 394.71099853515625L348.0010070800781 395.30499267578125" stroke="#000000" stroke-width="0.25" g2gstroke="#312783" stroke-miterlimit="10"/>
<path orgstroke="#000000" orgfill="none" stroke-linecap="round" transform="matrix(1 0 0 1 13 -69)" fill="none" stroke-linejoin="round" d="M347.9830017089844 395.30499267578125L357.77801513671875 400.96099853515625" stroke="#000000" stroke-width="0.25" g2gstroke="#312783" stroke-miterlimit="10"/>
<path orgstroke="#000000" orgfill="none" stroke-linecap="round" transform="matrix(1 0 0 1 13 -69)" fill="none" stroke-linejoin="round" d="   M358.713,401.479c0,0-2.262,2.505-4.04,1.479l-9.795-5.655" stroke="#000000" stroke-width="0.25" g2gstroke="#312783" stroke-miterlimit="10"/>
<path orgstroke="#000000" orgfill="none" stroke-linecap="round" transform="matrix(1 0 0 1 13 -69)" fill="none" stroke-linejoin="round" d="   M344.806,398.275c-0.159-0.129-0.243-0.268-0.271-0.407" stroke="#000000" stroke-width="0.25" g2gstroke="#312783" stroke-miterlimit="10"/>
<path orgstroke="#000000" orgfill="none" stroke-linecap="round" transform="matrix(1 0 0 1 13 -69)" fill="none" stroke-linejoin="round" d="   M368.85,385.079c0.046,0.386-0.05,0.724-0.128,0.921c-0.046,0.116-0.085,0.184-0.085,0.184l-0.952,0.828" stroke="#000000" stroke-width="0.25" g2gstroke="#312783" stroke-miterlimit="10"/>
<path orgstroke="#000000" orgfill="none" transform="matrix(1 0 0 1 13 -69)" fill="none" d="M351.424,387.709   c0.193-2.612,2.793-4.723,3.281-4.852" stroke="#000000" stroke-width="0.25" g2gstroke="#312783" stroke-miterlimit="10"/>
</g>
</g>
</g>
</g>
</g></svg>