<svg xmlns="http://www.w3.org/2000/svg" xmlns:xlink="http://www.w3.org/1999/xlink" xmlns:x="http://ns.adobe.com/Extensibility/1.0/" xmlns:graph="http://ns.adobe.com/Graphs/1.0/" xmlns:i="http://ns.adobe.com/AdobeIllustrator/10.0/" xmlns:etg="http://www.eurotaxglass.com/etg/evd/" etg:dataTimestamp="1539068912893" contentScriptType="text/ecmascript" zoomAndPan="magnify" contentStyleType="text/css" id="Layer_1" enable-background="new 0 0 1841.891 1595.279" version="1.1" xml:space="preserve" width="1841.891px" preserveAspectRatio="xMidYMid meet" viewBox="0 0 1841.891 1595.279" height="1595.279px" x="0px" y="0px"><g xmlns="http://www.w3.org/2000/svg" objecttype="PS" tooltip="#UNDEFINED" id="40">
<g onmouseover="notifyOwner(AGV_OBJECT_MOUSEOVER, '40(PS)')" transform="translate(15.529125793457013, 11.764660217285154) translate(-1.875, -0.625) translate(103.125, 66.24999999999997) translate(-56,-73) " onclick="clickZoom(evt); notifyOwner(AGV_OBJECT_MOUSECLICK, '40(PS)')" onmouseout="notifyOwner(AGV_OBJECT_MOUSEOUT, '40(PS)')" tooltip="#UNDEFINED" id="40-Graphic" objecttype="GRAPHIC">
<g zvalue="1">
<g>
<path stroke-linecap="round" orgstroke="#000000" orgfill="#ffffff" fill="#ffffff" g2gfill="#BCBEC0" d="M347.426,230.96   c1.699-1.104,7.563-4.801,9.493-4.372l1.036,1.795l18.885-1.827c0,0,9.658-2.841,12.123-2.285l5.969-4.304v-1.176l-0.81-1.812   l-0.641-0.755l-0.647,0.188c0,0,0,0-3.85,2.415c-3.849,2.414-6.647,1.737-6.647,1.737c-58.268-4.4-44.465,28.094-44.465,28.094   s0.635,1.481-3.667,4.273c-4.304,2.792-4.825,3.091-4.825,3.091l-0.104,0.383l0.554,1.377l1.128,2.264l0.962-0.057   c0,0,6.037-5.206,10.187-4.302l4.05-5.356l-0.109-1.132c0,0-2.4-4.657-2.304-8.621l0.149-0.515c0.226-1.216,0.758-2.29,1.762-3.042   c1.889-1.412,2.431-2.237,2.418-2.77L347.426,230.96z" stroke="#000000" outline-element="true" stroke-width="0.5" g2gstroke="#312783"/>
<path orgstroke="#000000" orgfill="none" stroke-linecap="round" fill="none" d="M393.641,216.979c0,0,0,0-3.85,2.414   c-3.85,2.415-6.827,2.052-6.827,2.052c-58.269-4.401-44.045,27.642-44.045,27.642s0.394,1.622-3.908,4.414   c-4.301,2.792-4.794,3.076-4.794,3.076" stroke="#000000" stroke-width="0.25" g2gstroke="#312783"/>
<path orgstroke="#000000" orgfill="none" stroke-linecap="round" fill="none" d="M347.813,233.667   c-0.17,0.53-0.81,1.295-2.368,2.464c-1.264,0.946-1.791,2.372-1.896,3.937" stroke="#000000" stroke-width="0.25" g2gstroke="#312783"/>
<path orgstroke="#000000" orgfill="none" stroke-linecap="round" fill="none" d="M394.931,219.212l-5.97,4.305   c-2.464-0.557-12.122,2.282-12.122,2.282l-18.688,1.641l-1.036-1.795c-2.264-0.503-10.153,4.869-10.153,4.869s0,0.201,0,0.482" stroke="#000000" stroke-width="0.25" g2gstroke="#312783"/>
<path orgstroke="#000000" orgfill="none" stroke-linecap="round" fill="none" d="M329.427,256.217l0.755,0.756l1.129,2.265h0.606   c0,0,5.924-5.583,10.071-4.679l3.809-5.036" stroke="#000000" stroke-width="0.25" g2gstroke="#312783"/>
<path orgstroke="#000000" orgfill="none" stroke-linecap="round" fill="none" d="M331.2619934082031 259.260986328125L331.031005859375 259.9320068359375" stroke="#000000" stroke-width="0.25" g2gstroke="#312783"/>
<path orgstroke="#000000" orgfill="none" stroke-linecap="round" fill="none" d="M331.9179992675781 259.2349853515625L331.9179992675781 259.9320068359375" stroke="#000000" stroke-width="0.25" g2gstroke="#312783"/>
<path orgstroke="#000000" orgfill="none" stroke-linecap="round" fill="none" d="M341.99200439453125 254.55599975585938L342.10400390625 255.68800354003906" stroke="#000000" stroke-width="0.25" g2gstroke="#312783"/>
<path orgstroke="#000000" orgfill="none" stroke-linecap="round" fill="none" d="M388.9620056152344 223.51300048828125L388.9620056152344 224.26699829101562" stroke="#000000" stroke-width="0.25" g2gstroke="#312783"/>
<path orgstroke="#000000" orgfill="none" stroke-linecap="round" fill="none" d="M358.1520080566406 227.43600463867188L358.1520080566406 228.36300659179688" stroke="#000000" stroke-width="0.25" g2gstroke="#312783"/>
<ellipse stroke-linecap="round" orgstroke="#000000" orgfill="none" fill="none" rx="1.47" cx="380.657" cy="223.135" ry="0.844" stroke="#000000" stroke-width="0.25" g2gstroke="#312783"/>
<ellipse stroke-linecap="round" orgstroke="#000000" orgfill="none" fill="none" rx="1.469" cx="342.104" cy="249.989" ry="0.844" stroke="#000000" stroke-width="0.25" g2gstroke="#312783"/>
</g>
</g>
</g>
</g></svg>