<svg xmlns="http://www.w3.org/2000/svg" xmlns:xlink="http://www.w3.org/1999/xlink" xmlns:etg="http://www.eurotaxglass.com/etg/evd/" etg:dataTimestamp="1539068912893" contentScriptType="text/ecmascript" zoomAndPan="magnify" contentStyleType="text/css" id="Layer_1" enable-background="new 0 0 1841.891 1595.279" version="1.1" xml:space="preserve" width="1841.891px" preserveAspectRatio="xMidYMid meet" viewBox="0 0 1841.891 1595.279" height="1595.279px" x="0px" y="0px"><g xmlns="http://www.w3.org/2000/svg" objecttype="PS" tooltip="#UNDEFINED" id="49">
<g onmouseover="notifyOwner(AGV_OBJECT_MOUSEOVER, '49(PS)')" transform="translate(6.0, 5.0) translate(4.0, -2.0) translate(33.0, -7.0) translate(-18.01092089843752, -7.293701173693989E-6) translate(8.328388793945294, -42.254741333007814)" onclick="clickZoom(evt); notifyOwner(AGV_OBJECT_MOUSECLICK, '49(PS)')" onmouseout="notifyOwner(AGV_OBJECT_MOUSEOUT, '49(PS)')" tooltip="#UNDEFINED" id="49-Graphic" objecttype="GRAPHIC">
<g>
	<polygon orgstroke="#000000" orgfill="#ffffff" points="404.718,431.849 404.823,429.573    404.99,429.032 405.343,428.308 405.801,427.907 406.343,427.532 407.073,427.323 408.134,427.349 409.176,427.489    409.698,427.657 410.498,427.969 411.281,428.349 411.759,428.891 412.343,429.474 412.593,429.724 413.718,430.489    414.426,430.849 415.365,431.099 416.406,431.058 417.31,430.704 435.051,420.016 437.551,418.516 439.801,418.766    442.551,417.516 444.801,415.516 446.55,413.016 446.8,409.516 448.05,406.266 451.55,402.766 455.55,398.516 456.55,394.516    457.05,393.016 458.134,392.516 465.55,393.266 468.302,397.016 468.302,400.766 469.302,402.433 487.302,402.433 488.302,406.433    488.427,408.016 487.677,409.891 485.677,411.516 483.427,411.641 480.677,411.766 473.677,411.391 471.677,411.766    468.427,412.516 465.55,413.641 458.55,418.016 457.425,419.141 456.55,420.141 456.115,422.157 456.3,422.573 457.3,423.766    457.99,424.573 458.3,425.323 458.55,426.891 458.365,430.391 457.925,433.198 457.425,435.823 457.115,437.766 456.925,438.323    456.55,438.891 455.49,440.016 453.615,441.448 447.365,445.573 443.051,440.391 442.301,439.766 440.926,439.641 439.176,439.916    422.49,450.766 421.24,450.766 419.879,450.766 418.801,450.641 417.865,450.448 417.129,450.344 406.301,441.266 406.301,440.224    406.301,439.266 406.634,437.433 406.468,435.933 405.468,434.599 404.801,433.766  " fill="#ffffff" g2gfill="#BCBEC0" outline-element="true" stroke="#000000" stroke-width="0.5" g2gstroke="#312783" stroke-miterlimit="10"/>
	<polyline orgstroke="#000000" orgfill="none" points="449.324,407.862 448.509,409.516    448.509,412.516 449.175,413.891 449.925,415.641 451.675,417.891 455.531,421.599  " fill="none" stroke="#000000" stroke-width="0.25" g2gstroke="#312783" stroke-miterlimit="10"/>
	
		<line orgstroke="#000000" orgfill="none" fill="none" x1="449.968" x2="449.324" y1="406.599" y2="407.862" stroke="#000000" stroke-width="0.25" g2gstroke="#312783" stroke-miterlimit="10"/>
	<polyline orgstroke="#000000" orgfill="none" points="466.615,394.719 459.175,393.641    458.134,394.224 457.55,397.599 456.8,399.849 455.925,401.141 452.468,404.099  " fill="none" stroke="#000000" stroke-width="0.25" g2gstroke="#312783" stroke-miterlimit="10"/>
	<polyline orgstroke="#000000" orgfill="none" points="452.976,421.594 453.675,422.266    455.55,424.391 456.675,425.641 456.8,426.641 454.675,431.016 453.55,433.266 452.55,434.266 451.05,434.891 450.05,435.516    449.55,436.141 449.175,437.266 448.55,441.391 448.3,442.766 446.675,444.891  " fill="none" stroke="#000000" stroke-width="0.25" g2gstroke="#312783" stroke-miterlimit="10"/>
	<polyline orgstroke="#000000" orgfill="none" points="446.8,413.766 448.3,416.516    450.55,419.266  " fill="none" stroke="#000000" stroke-width="0.25" g2gstroke="#312783" stroke-miterlimit="10"/>
	<polyline orgstroke="#000000" orgfill="none" points="458.3,427.641 455.3,433.766    454.425,434.641 453.425,435.266 451.74,435.987 450.884,437.016 450.49,439.411 449.8,442.266 449.425,443.516 448.55,444.516    447.365,445.573  " fill="none" stroke="#000000" stroke-width="0.25" g2gstroke="#312783" stroke-miterlimit="10"/>
	<polyline orgstroke="#000000" orgfill="none" points="469.302,402.433 470.687,403.225    473.603,403.558 487.644,403.808  " fill="none" stroke="#000000" stroke-width="0.25" g2gstroke="#312783" stroke-miterlimit="10"/>
	<polyline orgstroke="#000000" orgfill="none" points="446.425,414.641 445.051,424.016    445.676,425.266 446.425,426.266 453.175,432.641  " fill="none" stroke="#000000" stroke-width="0.25" g2gstroke="#312783" stroke-miterlimit="10"/>
	<polyline orgstroke="#000000" orgfill="none" points="444.801,424.891 443.926,430.266    444.051,431.016 444.551,432.141 449.425,435.641  " fill="none" stroke="#000000" stroke-width="0.25" g2gstroke="#312783" stroke-miterlimit="10"/>
	<polyline orgstroke="#000000" orgfill="none" points="424.74,426.225 436.176,435.391    437.551,435.766 440.551,434.266 441.426,434.141 443.051,434.891 448.425,438.641  " fill="none" stroke="#000000" stroke-width="0.25" g2gstroke="#312783" stroke-miterlimit="10"/>
	<polyline orgstroke="#000000" orgfill="none" points="404.957,431.166 405.551,432.641    406.301,433.266 406.863,434.356 407.134,436.099 407.093,437.558 406.676,438.349 406.301,439.266  " fill="none" stroke="#000000" stroke-width="0.25" g2gstroke="#312783" stroke-miterlimit="10"/>
	<polyline orgstroke="#000000" orgfill="none" points="430.353,444.016 437.656,439.11    438.962,438.641 441.051,439.016 442.301,439.766  " fill="none" stroke="#000000" stroke-width="0.25" g2gstroke="#312783" stroke-miterlimit="10"/>
	<polyline orgstroke="#000000" orgfill="none" points="406.301,439.641 417.24,448.641    418.645,448.891 421.145,449.141 422.24,449.141 423.198,448.856 425.18,447.485 427.24,446.099  " fill="none" stroke="#000000" stroke-width="0.25" g2gstroke="#312783" stroke-miterlimit="10"/>
	
		<line orgstroke="#000000" orgfill="none" fill="none" x1="457.05" x2="458.134" y1="393.016" y2="394.224" stroke="#000000" stroke-width="0.25" g2gstroke="#312783" stroke-miterlimit="10"/>
	<path orgstroke="#000000" orgfill="none" fill="none" d="M422.353,435.612   c1.4,0.354,2.396,1.156,2.396,2.104c0,1.262-1.74,2.271-3.897,2.271s-3.905-1.02-3.905-2.271c0-0.871,0.842-1.646,2.071-2.021" stroke="#000000" stroke-width="0.25" g2gstroke="#312783" stroke-miterlimit="10"/>
	
		<line orgstroke="#000000" orgfill="none" fill="none" x1="422.478" x2="422.365" y1="449.065" y2="450.641" stroke="#000000" stroke-width="0.25" g2gstroke="#312783" stroke-miterlimit="10"/>
	<polyline orgstroke="#000000" orgfill="none" points="488.395,407.635 471.718,407.099    468.968,407.266 466.3,407.433 463.634,407.933 460.968,408.849 458.8,409.849 457.3,410.599 456.218,411.683 455.468,412.849    454.384,414.766 454.05,415.849 453.8,417.266 453.8,419.599  " fill="none" stroke="#000000" stroke-width="0.25" g2gstroke="#312783" stroke-miterlimit="10"/>
	
		<line orgstroke="#000000" orgfill="none" fill="none" x1="459.895" x2="459.907" y1="393.739" y2="409.329" stroke="#000000" stroke-width="0.25" g2gstroke="#312783" stroke-miterlimit="10"/>
	<polyline orgstroke="#000000" orgfill="none" points="464.634,394.683 465.384,405.766    465.884,406.683 466.718,407.016 467.81,407.332  " fill="none" stroke="#000000" stroke-width="0.25" g2gstroke="#312783" stroke-miterlimit="10"/>
	
		<ellipse orgstroke="#000000" orgfill="none" fill="none" rx="2.771" cx="420.99" ry="1.396" cy="437.801" stroke="#000000" stroke-width="0.25" g2gstroke="#312783" stroke-miterlimit="10"/>
</g>
</g>
</g></svg>