<svg xmlns="http://www.w3.org/2000/svg" xmlns:xlink="http://www.w3.org/1999/xlink" xmlns:etg="http://www.eurotaxglass.com/etg/evd/" etg:dataTimestamp="1539068912893" contentScriptType="text/ecmascript" zoomAndPan="magnify" contentStyleType="text/css" id="Layer_1" enable-background="new 0 0 1841.891 1595.279" version="1.1" xml:space="preserve" width="1841.891px" preserveAspectRatio="xMidYMid meet" viewBox="0 0 1841.891 1595.279" height="1595.279px" x="0px" y="0px"><g xmlns="http://www.w3.org/2000/svg" objecttype="PS" tooltip="#UNDEFINED" id="12">
<g onmouseover="notifyOwner(AGV_OBJECT_MOUSEOVER, '12(PS)')" transform="translate(65.41986523437498, 61.739147521972654) translate(-72.0, -25.0) translate(33.0, -48.0) translate(-188.0, -75.0)" onclick="clickZoom(evt); notifyOwner(AGV_OBJECT_MOUSECLICK, '12(PS)')" onmouseout="notifyOwner(AGV_OBJECT_MOUSEOUT, '12(PS)')" tooltip="#UNDEFINED" id="12-Graphic" objecttype="GRAPHIC">
<g>
	<path orgstroke="#000000" orgfill="#ffffff" fill="#ffffff" g2gfill="#BCBEC0" d="M746.128,274.759   c-23.188-15.83-57.831-35.272-81.071-47.313l-0.522-0.078l-0.728,0.343l-1.204,0.48l-0.955,0.313l-1.369-0.229l-1.128-0.305   l-1.019-0.3l-0.69-0.063l-0.708,0.145l-4.063,1.426l-0.642,0.544l-0.265,0.384l-0.858,0.422l-0.938,0.212l-0.69-0.063l-0.393,0.46   l-0.146,0.287l-0.229,1.181l-0.024,0.624c23.233,12.037,57.896,31.479,81.064,47.308l0.867,0.08l1.051,0.104l1.131-0.813   l0.681-0.486l0.942-1.021l3.934-1.283l1.448,0.318l0.813,0.438l0.788,0.62l1.65,0.344l0.873-0.286l1.287-0.232l0.479-0.503   l0.729-1.146L746.128,274.759z" outline-element="true" stroke="#000000" stroke-width="0.5" g2gstroke="#312783" stroke-miterlimit="10"/>
	<path orgstroke="#000000" orgfill="none" fill="none" d="M689.729,253.599   c14.487,8.355,28.966,17.184,40.577,25.116" stroke="#000000" stroke-width="0.25" g2gstroke="#312783" stroke-miterlimit="10"/>
	<path orgstroke="#000000" orgfill="none" fill="none" d="M676.893,246.314   c2.52,1.409,5.063,2.843,7.618,4.296" stroke="#000000" stroke-width="0.25" g2gstroke="#312783" stroke-miterlimit="10"/>
	<path orgstroke="#000000" orgfill="none" fill="none" d="M649.234,231.4   c5.688,2.947,12.063,6.339,18.782,10.009" stroke="#000000" stroke-width="0.25" g2gstroke="#312783" stroke-miterlimit="10"/>
	<path orgstroke="#000000" orgfill="none" fill="none" d="M672.073,239.67   c20.638,11.29,44.479,25.188,61.855,37.063" stroke="#000000" stroke-width="0.25" g2gstroke="#312783" stroke-miterlimit="10"/>
	<path orgstroke="#000000" orgfill="none" fill="none" d="M652.865,229.425   c4.794,2.479,10.081,5.286,15.646,8.305" stroke="#000000" stroke-width="0.25" g2gstroke="#312783" stroke-miterlimit="10"/>
	<path orgstroke="#000000" orgfill="none" fill="none" d="M657.298,227.804   c23.229,12.034,57.89,31.479,81.063,47.308" stroke="#000000" stroke-width="0.25" g2gstroke="#312783" stroke-miterlimit="10"/>
	<polyline orgstroke="#000000" orgfill="none" points="730.298,278.71 731.352,278.808    732.487,277.996 733.156,277.511 734.108,276.498 738.031,275.212 739.49,275.534 740.282,275.976 741.073,276.599 742.74,276.939    743.615,276.653 744.906,276.41 745.378,275.9 746.128,274.759  " fill="none" stroke="#000000" stroke-width="0.25" g2gstroke="#312783" stroke-miterlimit="10"/>
	
		<line orgstroke="#000000" orgfill="none" fill="none" x1="730.298" x2="730.115" y1="278.71" y2="280.575" stroke="#000000" stroke-width="0.25" g2gstroke="#312783" stroke-miterlimit="10"/>
	
		<ellipse orgstroke="#000000" orgfill="none" transform="matrix(0.9957 0.0924 -0.0924 0.9957 24.4194 -60.9796)" fill="none" rx="1.982" cx="670.737" ry="1.015" cy="233.219" stroke="#000000" stroke-width="0.25" g2gstroke="#312783" stroke-miterlimit="10"/>
	<path orgstroke="#000000" orgfill="none" fill="none" d="M709.256,251.273   c-0.063,0.688-1.201,1.146-2.542,1.021c-1.336-0.128-2.377-0.785-2.313-1.479c0.042-0.416,0.472-0.745,1.104-0.914" stroke="#000000" stroke-width="0.25" g2gstroke="#312783" stroke-miterlimit="10"/>
	<path orgstroke="#000000" orgfill="none" fill="none" d="M720.434,258.256   c-0.064,0.687-1.201,1.144-2.541,1.021c-1.343-0.131-2.383-0.783-2.313-1.479c0.03-0.407,0.479-0.742,1.104-0.911" stroke="#000000" stroke-width="0.25" g2gstroke="#312783" stroke-miterlimit="10"/>
	<path orgstroke="#000000" orgfill="none" fill="none" d="M697.43,244.93   c-0.063,0.687-1.203,1.141-2.54,1.016c-1.344-0.126-2.382-0.772-2.313-1.47c0.029-0.417,0.459-0.746,1.102-0.914" stroke="#000000" stroke-width="0.25" g2gstroke="#312783" stroke-miterlimit="10"/>
	<path orgstroke="#000000" orgfill="none" fill="none" d="M685.933,238.382   c-0.073,0.686-1.128,0.88-2.459,0.756c-1.345-0.126-2.384-0.782-2.313-1.472c0.03-0.417,0.479-0.746,1.104-0.914" stroke="#000000" stroke-width="0.25" g2gstroke="#312783" stroke-miterlimit="10"/>
	
		<ellipse orgstroke="#000000" orgfill="none" transform="matrix(0.9956 0.0932 -0.0932 0.9956 28.2363 -67.0436)" fill="none" rx="1.98" cx="731.703" ry="1.016" cy="268.698" stroke="#000000" stroke-width="0.25" g2gstroke="#312783" stroke-miterlimit="10"/>
</g>
</g>
</g></svg>