<svg xmlns="http://www.w3.org/2000/svg" xmlns:xlink="http://www.w3.org/1999/xlink" xmlns:etg="http://www.eurotaxglass.com/etg/evd/" etg:dataTimestamp="1539068912893" contentScriptType="text/ecmascript" zoomAndPan="magnify" contentStyleType="text/css" id="Layer_1" enable-background="new 0 0 1841.891 1595.279" version="1.1" xml:space="preserve" width="1841.891px" preserveAspectRatio="xMidYMid meet" viewBox="0 0 1841.891 1595.279" height="1595.279px" x="0px" y="0px"><g xmlns="http://www.w3.org/2000/svg" objecttype="PS" tooltip="#UNDEFINED" id="13">
<g onmouseover="notifyOwner(AGV_OBJECT_MOUSEOVER, '13(PS)')" transform="translate(65.41986523437498, 61.739147521972654) translate(-72.0, -25.0) translate(33.0, -48.0) translate(-188.0, -75.0)" onclick="clickZoom(evt); notifyOwner(AGV_OBJECT_MOUSECLICK, '13(PS)')" onmouseout="notifyOwner(AGV_OBJECT_MOUSEOUT, '13(PS)')" tooltip="#UNDEFINED" id="13-Graphic" objecttype="GRAPHIC">
<g>
	<path orgstroke="#000000" orgfill="#ffffff" fill="#ffffff" g2gfill="#ECF5E4" d="M577.335,384.234   c0,0,15.509-25.975,56.938-41.265l4.636-1.527l7.604-3.313l0.365-0.354l-0.063-2.049l-0.261-0.15l-6.204,3.166l-0.289,0.14   c-0.146,0.063-0.322,0.091-0.526,0.068c-0.938-0.041-2.104-0.854-2.604-1.834c-0.354-0.684-0.279-1.258,0.131-1.521l0.104-0.056   l5.416-2.771l0.104-0.539l0.138-0.501l0.474-0.41l2.286-1.175l0.229-0.372l0.265-0.539l0.444-0.294l2.55-1.085l0.354-0.021   l0.465,0.103l0.476,0.206l0.362,0.021l0.545,0.08c0.969,0.396,1.95,1.229,2.438,2.167c0.398,0.786,0.383,1.46-0.011,1.854   l-0.392,0.313l-0.091,0.188l-0.15,0.508l-0.021,1.706l0.264,0.206l9.479-4.166l1.313-1.196l3.207-2.912l3.824-2.563l3.479-2.188   l3.542-1.804l4.688-2.451l5.877-2.787l4.734-1.972l4.813-1.899l4.49-1.752l4.009-1.688l3.118-0.875l2.063-0.605l1.141-0.649   l1.523-0.792l2.934-1.909l1.31-1.038l1.778-1.021l1.771-0.854l2.247-0.918l0.749-0.274l0.741-0.183l0.79-0.063l4.517-0.102   l0.479,0.079l0.604,0.496l0.327,0.812l0.113,0.946l-0.192,0.822l-0.438,0.447l-0.733,0.069l-3.415,0.103l-0.582,0.134l-0.354,0.104   l-0.393,0.342l-0.188,0.209l-0.07,0.235l0.034,0.414l0.062,0.446l-0.017,0.313l-0.131,0.271l-0.134,0.188l-0.359,0.221   l-2.842,1.418l-0.281,0.128l-0.341,0.007l-0.313-0.077l-0.174-0.083l-0.104-0.158l-0.022-0.263l0.049-0.189l0.071-0.174   l0.263-0.168l2.54-1.272l0.146-0.188l0.051-0.22l0.015-0.271l-0.261-0.199l-0.273,0.113l-1.771,0.855l-1.777,1.021l-1.312,1.039   l-2.926,1.908l-1.53,0.793l-1.133,0.646l-2.068,0.607l-3.111,0.872l-4.014,1.691l-4.488,1.759l-4.813,1.896l-3.646,1.522   l-0.396,0.505l-0.188,0.208l-0.063,0.229l0.037,0.415l0.06,0.448l-0.019,0.314l-0.138,0.271l-0.13,0.189l-0.355,0.22l-2.851,1.416   l-0.274,0.129l-0.342,0.004l-0.313-0.079l-0.173-0.083l-0.109-0.16l-0.032-0.26l0.055-0.188l0.063-0.184l0.271-0.165l2.542-1.271   l0.146-0.188l0.051-0.218l0.021-0.271l-0.063-0.313l-4.767,2.268l-4.688,2.443l-3.544,1.809l-3.485,2.188l-3.816,2.574l-3.21,2.913   l-1.313,1.188l-23.855,10.426l-2.102,0.688l-0.577,0.374l-0.188,0.208l-0.078,0.237l0.041,0.415l0.063,0.438l-0.021,0.314   l-0.14,0.271l-0.128,0.191l-0.362,0.22l-2.841,1.416l-0.285,0.129l-0.339,0.004l-0.313-0.077l-0.178-0.084l-0.106-0.152   l-0.021-0.269l0.051-0.188l0.063-0.174l0.267-0.169l2.542-1.273l0.146-0.188l0.05-0.222l0.021-0.271l-0.438-0.235   c-13.756,5.104-24.646,11.377-33.047,17.479l-0.354,0.521l-0.118,0.254l0.014,0.244l0.166,0.383l0.188,0.415l0.077,0.313   l-0.039,0.293l-0.063,0.225l-0.274,0.322l-2.271,2.221l-0.229,0.205l-0.313,0.104l-0.313,0.025l-0.191-0.03l-0.146-0.116   l-0.104-0.23l-0.018-0.198l0.015-0.184l0.194-0.236l2.021-1.993l0.078-0.228l-0.021-0.221l-0.069-0.271l-0.279-0.28   c-15.311,11.615-21.604,22.188-21.604,22.188l-0.271,0.729l-0.021,0.469l-0.196,0.854l-0.498,0.84l-0.729,0.361l-0.798,0.198   l-4.486,0.101l-0.772-0.19l-0.686-0.582l-0.193-0.808l0.046-0.938l0.631-1.621l0.678-0.989l0.896-0.59l1.677-0.396l1.835-0.547   L577.335,384.234z" outline-element="true" stroke="#000000" stroke-width="0.5" g2gstroke="#312783" stroke-miterlimit="10"/>
	
		<line orgstroke="#000000" orgfill="none" fill="none" x1="653.063" x2="647.32" y1="335.263" y2="337.772" stroke="#000000" stroke-width="0.25" g2gstroke="#312783" stroke-miterlimit="10"/>
	<path orgstroke="#000000" orgfill="none" fill="none" d="M602.906,364.229   c-0.472,0.34-0.934,0.684-1.389,1.026" stroke="#000000" stroke-width="0.25" g2gstroke="#312783" stroke-miterlimit="10"/>
	
		<line orgstroke="#000000" orgfill="none" fill="none" x1="638.49" x2="636.823" y1="345.795" y2="346.345" stroke="#000000" stroke-width="0.25" g2gstroke="#312783" stroke-miterlimit="10"/>
	
		<line orgstroke="#000000" orgfill="none" fill="none" x1="638.98" x2="638.795" y1="345.635" y2="345.697" stroke="#000000" stroke-width="0.25" g2gstroke="#312783" stroke-miterlimit="10"/>
	
		<line orgstroke="#000000" orgfill="none" fill="none" x1="726.723" x2="725.198" y1="302.665" y2="303.284" stroke="#000000" stroke-width="0.25" g2gstroke="#312783" stroke-miterlimit="10"/>
	
		<line orgstroke="#000000" orgfill="none" fill="none" x1="726.813" x2="726.723" y1="302.631" y2="302.665" stroke="#000000" stroke-width="0.25" g2gstroke="#312783" stroke-miterlimit="10"/>
	<path orgstroke="#000000" orgfill="none" fill="none" d="M642.794,332.171   c0.057-0.632,0.521-1.03,1.336-0.992c1.226,0.059,2.736,1.127,3.39,2.387c0.605,1.179,0.236,2.112-0.824,2.173" stroke="#000000" stroke-width="0.25" g2gstroke="#312783" stroke-miterlimit="10"/>
	<path orgstroke="#000000" orgfill="none" fill="none" d="M643.657,332.222   c0.052-0.012,0.095-0.022,0.14-0.031" stroke="#000000" stroke-width="0.25" g2gstroke="#312783" stroke-miterlimit="10"/>
	<path orgstroke="#000000" orgfill="none" fill="none" d="M637.898,335.452   c0.911,0.124,1.973,0.909,2.453,1.819c0.211,0.409,0.268,0.78,0.187,1.073" stroke="#000000" stroke-width="0.25" g2gstroke="#312783" stroke-miterlimit="10"/>
	<path orgstroke="#000000" orgfill="none" fill="none" d="M688.947,315.067   c0.918,0.123,1.98,0.908,2.454,1.816c0.211,0.41,0.271,0.78,0.191,1.072" stroke="#000000" stroke-width="0.25" g2gstroke="#312783" stroke-miterlimit="10"/>
	<path orgstroke="#000000" orgfill="none" fill="none" d="M686.072,316.547   c0.916,0.122,1.979,0.896,2.45,1.813c0.214,0.41,0.271,0.781,0.191,1.073" stroke="#000000" stroke-width="0.25" g2gstroke="#312783" stroke-miterlimit="10"/>
	<path orgstroke="#000000" orgfill="none" fill="none" d="M721.115,300.738   c0.915,0.123,1.979,0.908,2.449,1.822c0.215,0.41,0.271,0.782,0.192,1.068" stroke="#000000" stroke-width="0.25" g2gstroke="#312783" stroke-miterlimit="10"/>
	<path orgstroke="#000000" orgfill="none" fill="none" d="M724.627,299.523   c0.917,0.123,1.979,0.907,2.441,1.822c0.212,0.402,0.271,0.78,0.191,1.066" stroke="#000000" stroke-width="0.25" g2gstroke="#312783" stroke-miterlimit="10"/>
	<path orgstroke="#000000" orgfill="none" fill="none" d="M597.337,363.392   c0.899,0.122,1.973,0.908,2.438,1.821c0.214,0.408,0.271,0.771,0.192,1.063" stroke="#000000" stroke-width="0.25" g2gstroke="#312783" stroke-miterlimit="10"/>
	<path orgstroke="#000000" orgfill="none" fill="none" d="M600.988,360.582   c0.916,0.126,1.979,0.902,2.449,1.813c0.215,0.41,0.271,0.782,0.193,1.07" stroke="#000000" stroke-width="0.25" g2gstroke="#312783" stroke-miterlimit="10"/>
	<path orgstroke="#000000" orgfill="none" fill="none" d="M632.974,343.518   c0.913,0.123,1.979,0.908,2.452,1.817c0.211,0.398,0.268,0.771,0.188,1.063" stroke="#000000" stroke-width="0.25" g2gstroke="#312783" stroke-miterlimit="10"/>
	<path orgstroke="#000000" orgfill="none" fill="none" d="M636.597,342.396   c0.89,0.237,1.851,1.147,2.206,2.118c0.16,0.431,0.169,0.808,0.059,1.079" stroke="#000000" stroke-width="0.25" g2gstroke="#312783" stroke-miterlimit="10"/>
	<path orgstroke="#000000" orgfill="none" fill="none" d="M650.198,336.365   c0.896,0.237,1.854,1.148,2.205,2.113c0.161,0.438,0.171,0.813,0.063,1.084" stroke="#000000" stroke-width="0.25" g2gstroke="#312783" stroke-miterlimit="10"/>
	<path orgstroke="#000000" orgfill="none" fill="none" d="M653.067,335.111   c0.888,0.237,1.855,1.147,2.213,2.113c0.158,0.436,0.169,0.813,0.063,1.084" stroke="#000000" stroke-width="0.25" g2gstroke="#312783" stroke-miterlimit="10"/>
	<path orgstroke="#000000" orgfill="none" fill="none" d="M649.468,336.887   c0.889,0.235,1.851,1.146,2.205,2.11c0.161,0.438,0.171,0.813,0.059,1.087" stroke="#000000" stroke-width="0.25" g2gstroke="#312783" stroke-miterlimit="10"/>
	<path orgstroke="#000000" orgfill="none" fill="none" d="M643.096,332.51l0.271-0.135l0.438-0.188   c0.1-0.018,0.207-0.021,0.33-0.018c0.938,0.045,2.104,0.859,2.604,1.837c0.242,0.479,0.282,0.917,0.143,1.215" stroke="#000000" stroke-width="0.25" g2gstroke="#312783" stroke-miterlimit="10"/>
	
		<line orgstroke="#000000" orgfill="none" fill="none" x1="647.352" x2="649.531" y1="335.511" y2="334.394" stroke="#000000" stroke-width="0.25" g2gstroke="#312783" stroke-miterlimit="10"/>
	
	<polyline orgstroke="#000000" orgfill="none" points="573.12,386.29 574.823,386.843    575.287,387.02 575.486,387.815 575.294,388.516 575.03,389.134 574.365,389.887 573.155,390.462 571.553,390.962  " fill="none" stroke="#000000" stroke-width="0.25" g2gstroke="#312783" stroke-miterlimit="10"/>
	<polyline orgstroke="#000000" orgfill="none" points="571.805,387.483 572.823,387.54    572.962,387.931 573.079,388.724 572.663,389.257 572.343,389.396 571.543,389.675  " fill="none" stroke="#000000" stroke-width="0.25" g2gstroke="#312783" stroke-miterlimit="10"/>
	<polyline orgstroke="#000000" orgfill="none" points="577.695,384.385 578.055,385.106    578.737,385.61 579.274,385.956 580.213,386.081  " fill="none" stroke="#000000" stroke-width="0.25" g2gstroke="#312783" stroke-miterlimit="10"/>
	<polyline orgstroke="#000000" orgfill="none" points="646.865,328.924 647.336,329.023    648.138,329.38 649.09,330.052 649.573,330.744 649.899,331.387 650.216,332.11 650.419,332.829 650.466,333.464 650.487,336.296     " fill="none" stroke="#000000" stroke-width="0.25" g2gstroke="#312783" stroke-miterlimit="10"/>
	<polyline orgstroke="#000000" orgfill="none" points="649.065,327.853 649.407,327.831    649.884,327.932 650.694,328.287 651.648,328.965 652.115,329.653 652.442,330.299 652.766,331.019 652.965,331.739    653.003,332.167  " fill="none" stroke="#000000" stroke-width="0.25" g2gstroke="#312783" stroke-miterlimit="10"/>
	<polyline orgstroke="#000000" orgfill="none" points="647.01,329.798 647.444,329.983    648.395,330.659 648.865,331.35 649.191,331.996 649.516,332.722 649.712,333.436 649.763,334.068 649.781,336.901  " fill="none" stroke="#000000" stroke-width="0.25" g2gstroke="#312783" stroke-miterlimit="10"/>
	
		<line orgstroke="#000000" orgfill="none" fill="none" x1="647.772" x2="647.673" y1="335.53" y2="337.525" stroke="#000000" stroke-width="0.25" g2gstroke="#312783" stroke-miterlimit="10"/>
	<polyline orgstroke="#000000" orgfill="none" points="722.421,305.749 722.656,305.701    722.846,305.827 722.902,305.889 723.073,306.135 723.031,306.348  " fill="none" stroke="#000000" stroke-width="0.25" g2gstroke="#312783" stroke-miterlimit="10"/>
	<polyline orgstroke="#000000" orgfill="none" points="687.152,321.562 687.387,321.515    687.573,321.642 687.637,321.704 687.799,321.947 687.772,322.162  " fill="none" stroke="#000000" stroke-width="0.25" g2gstroke="#312783" stroke-miterlimit="10"/>
	<polyline orgstroke="#000000" orgfill="none" points="633.977,348.903 634.21,348.855    634.406,348.982 634.462,349.048 634.615,349.29 634.597,349.506  " fill="none" stroke="#000000" stroke-width="0.25" g2gstroke="#312783" stroke-miterlimit="10"/>
	<polyline orgstroke="#000000" orgfill="none" points="690.148,318.962 690.879,318.612    691.603,318.31  " fill="none" stroke="#000000" stroke-width="0.25" g2gstroke="#312783" stroke-miterlimit="10"/>
	<polyline orgstroke="#000000" orgfill="none" points="599.49,368.677 599.698,368.554    599.926,368.616 599.99,368.661 600.234,368.843 600.27,369.053  " fill="none" stroke="#000000" stroke-width="0.25" g2gstroke="#312783" stroke-miterlimit="10"/>
</g>
</g>
</g></svg>