<svg xmlns="http://www.w3.org/2000/svg" xmlns:xlink="http://www.w3.org/1999/xlink" xmlns:etg="http://www.eurotaxglass.com/etg/evd/" etg:dataTimestamp="1539068912893" contentScriptType="text/ecmascript" zoomAndPan="magnify" contentStyleType="text/css" id="Layer_1" enable-background="new 0 0 1841.891 1595.279" version="1.1" xml:space="preserve" width="1841.891px" preserveAspectRatio="xMidYMid meet" viewBox="0 0 1841.891 1595.279" height="1595.279px" x="0px" y="0px"><g xmlns="http://www.w3.org/2000/svg" objecttype="PS" tooltip="#UNDEFINED" id="16">
<g onmouseover="notifyOwner(AGV_OBJECT_MOUSEOVER, '16(PS)')" transform="translate(65.41986523437498, 61.739147521972654) translate(-72.0, -25.0) translate(33.0, -48.0) translate(-188.0, -75.0) translate(-25.0, -6.0)" onclick="clickZoom(evt); notifyOwner(AGV_OBJECT_MOUSECLICK, '16(PS)')" onmouseout="notifyOwner(AGV_OBJECT_MOUSEOUT, '16(PS)')" tooltip="#UNDEFINED" id="16-Graphic" objecttype="GRAPHIC">
<g>
	<polygon orgstroke="#000000" orgfill="#ffffff" points="392.424,410.635 392.737,409.706    393.158,407.969 393.08,406.431 392.737,405.748 391.967,405.129 390.585,404.748 388.51,404.748 387.123,405.129 386.435,405.748    386.201,406.431 386.101,407.015 385.868,407.248 382.052,405.099 381.128,405.129 379.67,406.285 379.364,407.048 379.13,416.425    379.21,417.502 379.364,418.04 386.895,423.802 389.277,425.265 391.736,426.498 405.034,432.956 406.188,433.178 407.341,433.178    409.184,432.26 409.569,431.798 409.722,421.498 409.107,420.267 392.737,411.206  " fill="#ffffff" g2gfill="#ECC35D" outline-element="true" stroke="#000000" stroke-width="0.5" g2gstroke="#312783" stroke-miterlimit="10"/>
	<polyline orgstroke="#000000" orgfill="none" points="399.454,419.123 405.955,421.961    407.494,422.04 408.953,421.424  " fill="none" stroke="#000000" stroke-width="0.25" g2gstroke="#312783" stroke-miterlimit="10"/>
	<polyline orgstroke="#000000" orgfill="none" points="391.331,415.308 393.119,416.347    397.954,418.463  " fill="none" stroke="#000000" stroke-width="0.25" g2gstroke="#312783" stroke-miterlimit="10"/>
	
		<line orgstroke="#000000" orgfill="none" fill="none" x1="380.207" x2="385.853" y1="407.277" y2="411.623" stroke="#000000" stroke-width="0.25" g2gstroke="#312783" stroke-miterlimit="10"/>
	
		<line orgstroke="#000000" orgfill="none" fill="none" x1="406.494" x2="406.417" y1="423.423" y2="432.104" stroke="#000000" stroke-width="0.25" g2gstroke="#312783" stroke-miterlimit="10"/>
	<polyline orgstroke="#000000" orgfill="none" points="392.24,411.185 391.967,412.006    391.2,414.347 390.505,416.425 390.431,417.541 390.66,418.04 391.331,418.192 392.198,418.04 392.812,418.502 393.044,419.345    392.89,420.66 392.504,421.123 391.967,421.651 390.894,421.961 389.2,421.651 388.124,420.581 386.971,418.502 386.086,415.308    385.853,411.311 385.853,408.47 386.023,407.478  " fill="none" stroke="#000000" stroke-width="0.25" g2gstroke="#312783" stroke-miterlimit="10"/>
	<polyline orgstroke="#000000" orgfill="none" points="386.356,407.048 387.047,407.588    388.124,407.894 389.508,407.969 390.853,407.969 391.698,407.776 392.559,407.082 392.737,406.431  " fill="none" stroke="#000000" stroke-width="0.25" g2gstroke="#312783" stroke-miterlimit="10"/>
</g>
</g>
</g></svg>