<svg xmlns="http://www.w3.org/2000/svg" xmlns:xlink="http://www.w3.org/1999/xlink" xmlns:etg="http://www.eurotaxglass.com/etg/evd/" etg:dataTimestamp="1539068912893" contentScriptType="text/ecmascript" zoomAndPan="magnify" contentStyleType="text/css" id="Layer_1" enable-background="new 0 0 1841.891 1595.279" version="1.1" xml:space="preserve" width="1841.891px" preserveAspectRatio="xMidYMid meet" viewBox="0 0 1841.891 1595.279" height="1595.279px" x="0px" y="0px"><g xmlns="http://www.w3.org/2000/svg" objecttype="PS" tooltip="#UNDEFINED" id="36">
<g onmouseover="notifyOwner(AGV_OBJECT_MOUSEOVER, '36(PS)')" transform="translate(65.41986523437498, 61.739147521972654) translate(-72.0, -25.0) translate(33.0, -48.0) translate(-188.0, -75.0)" onclick="clickZoom(evt); notifyOwner(AGV_OBJECT_MOUSECLICK, '36(PS)')" onmouseout="notifyOwner(AGV_OBJECT_MOUSEOUT, '36(PS)')" tooltip="#UNDEFINED" id="36-Graphic" objecttype="GRAPHIC">
<g>
	<path orgstroke="#000000" orgfill="#ffffff" fill="#ffffff" g2gfill="#ECC35D" d="M393.402,411.487v2.456l0.188,3.107   c0,0,0.058,0.806,0.271,1.885c0,0,0.201,0.462,0.652,0.377c0.45-0.085,3.854-1.991,3.854-1.991l0.585-0.951l0.563-1.729   l0.272-0.817l0.455-1.479c0,0,0.087-0.622,0.27-1.734c0.036-1.229-0.359-2.096-0.979-2.664l-0.229-0.188l-0.744,0.435   c0,0-0.238,0.049-0.23,0.408c0.006,0.354,0,1.569,0,1.569l-0.16,0.354c-0.339,0.13-0.73,0.204-1.157,0.204   c-0.672,0-1.271-0.188-1.671-0.479l-0.215-0.091l-1.479,0.854L393.402,411.487z" outline-element="true" stroke="#000000" stroke-width="0.5" g2gstroke="#312783" stroke-miterlimit="10"/>
	<path orgstroke="#000000" orgfill="none" fill="none" d="M400.245,409.908   c0,0.996-1.454,1.806-3.247,1.806c-1.169,0-2.192-0.345-2.771-0.854" stroke="#000000" stroke-width="0.25" g2gstroke="#312783" stroke-miterlimit="10"/>
	<path orgstroke="#000000" orgfill="none" fill="none" d="M398.464,408.401   c0.437,0.244,0.708,0.594,0.708,0.982c0,0.396-0.283,0.755-0.733,0.999" stroke="#000000" stroke-width="0.25" g2gstroke="#312783" stroke-miterlimit="10"/>
</g>
</g>
</g></svg>