<svg xmlns="http://www.w3.org/2000/svg" xmlns:xlink="http://www.w3.org/1999/xlink" xmlns:etg="http://www.eurotaxglass.com/etg/evd/" etg:dataTimestamp="1539068912893" contentScriptType="text/ecmascript" zoomAndPan="magnify" contentStyleType="text/css" id="Layer_1" enable-background="new 0 0 1841.891 1595.279" version="1.1" xml:space="preserve" width="1841.891px" preserveAspectRatio="xMidYMid meet" viewBox="0 0 1841.891 1595.279" height="1595.279px" x="0px" y="0px"><g xmlns="http://www.w3.org/2000/svg" objecttype="PS" tooltip="#UNDEFINED" id="37">
<g onmouseover="notifyOwner(AGV_OBJECT_MOUSEOVER, '37(PS)')" transform="translate(65.41986523437498, 61.739147521972654) translate(-72.0, -25.0) translate(33.0, -48.0) translate(-188.0, -75.0)" onclick="clickZoom(evt); notifyOwner(AGV_OBJECT_MOUSECLICK, '37(PS)')" onmouseout="notifyOwner(AGV_OBJECT_MOUSEOUT, '37(PS)')" tooltip="#UNDEFINED" id="37-Graphic" objecttype="GRAPHIC">
<g>
	<polygon orgstroke="#000000" orgfill="#ffffff" points="389.514,350.471 392.367,347.76    393.252,347.724 394.064,347.949 397.145,350.066 398.012,350.731 397.793,351.514 393.837,355.044 392.721,355.294    391.278,355.451 389.69,354.872 388.534,353.99 388.337,352.813 388.431,351.854  " fill="#ffffff" g2gfill="#ECC35D" outline-element="true" stroke="#000000" stroke-width="0.5" g2gstroke="#312783" stroke-miterlimit="10"/>
	<polyline orgstroke="#000000" stroke-linecap="round" orgfill="none" points="397.004,351.385 396.803,351.561    395.812,351.785 394.533,351.927 393.125,351.41 392.106,350.631 391.93,349.588 392.008,348.737 392.201,348.496  " fill="none" stroke="#000000" stroke-width="0.25" g2gstroke="#312783"/>
	<polyline orgstroke="#000000" stroke-linecap="round" orgfill="none" points="396.137,352.142 395.94,352.321    394.947,352.545 393.668,352.681 392.26,352.169 391.238,351.385 391.065,350.344 391.148,349.495 391.333,349.256  " fill="none" stroke="#000000" stroke-width="0.25" g2gstroke="#312783"/>
	<polyline orgstroke="#000000" stroke-linecap="round" orgfill="none" points="394.641,353.801 394.442,353.978    393.451,354.2 392.171,354.344 390.767,353.826 389.743,353.046 389.568,352.004 389.653,351.153 389.842,350.913  " fill="none" stroke="#000000" stroke-width="0.25" g2gstroke="#312783"/>
	
		<line orgstroke="#000000" orgfill="none" stroke-linecap="round" fill="none" x1="394.517" x2="392.952" y1="352.59" y2="354.181" stroke="#000000" stroke-width="0.25" g2gstroke="#312783"/>
	<path orgstroke="#000000" stroke-linecap="round" orgfill="none" fill="none" d="M394.618,349.766   c-0.393-0.364-0.95-0.486-1.249-0.271c-0.299,0.217-0.226,0.685,0.168,1.046s0.949,0.483,1.249,0.27   C395.085,350.596,395.009,350.13,394.618,349.766z" stroke="#000000" stroke-width="0.25" g2gstroke="#312783"/>
	<path orgstroke="#000000" stroke-linecap="round" orgfill="none" fill="none" d="M392.126,352.048   c-0.392-0.363-0.95-0.482-1.247-0.271c-0.299,0.211-0.225,0.684,0.167,1.046c0.391,0.362,0.949,0.482,1.246,0.271   C392.59,352.881,392.517,352.407,392.126,352.048z" stroke="#000000" stroke-width="0.25" g2gstroke="#312783"/>
</g>
</g>
</g></svg>