<svg xmlns="http://www.w3.org/2000/svg" xmlns:xlink="http://www.w3.org/1999/xlink" xmlns:etg="http://www.eurotaxglass.com/etg/evd/" etg:dataTimestamp="1539068912893" contentScriptType="text/ecmascript" zoomAndPan="magnify" contentStyleType="text/css" id="Layer_1" enable-background="new 0 0 1841.891 1595.279" version="1.1" xml:space="preserve" width="1841.891px" preserveAspectRatio="xMidYMid meet" viewBox="0 0 1841.891 1595.279" height="1595.279px" x="0px" y="0px"><g xmlns="http://www.w3.org/2000/svg" objecttype="PS" tooltip="#UNDEFINED" id="57">
<g onmouseover="notifyOwner(AGV_OBJECT_MOUSEOVER, '57(PS)')" transform="translate(6.0, 5.0) translate(17.0, -8.0) translate(-18.01092089843752, -7.293701173693989E-6) translate(-230.0, -99.0) translate(205.0, 73.0) translate(10.0, 10.00006103515625)" onclick="clickZoom(evt); notifyOwner(AGV_OBJECT_MOUSECLICK, '57(PS)')" onmouseout="notifyOwner(AGV_OBJECT_MOUSEOUT, '57(PS)')" tooltip="#UNDEFINED" id="57-Graphic" objecttype="GRAPHIC">
<g zvalue="23">
<g>
<path orgstroke="#000000" orgfill="#ffffff" fill="#ffffff" g2gfill="#BCBEC0" d="M449.506,389.866l0.096-1.482l0.707-1.479   l0.707-1.104l6.008-2.577l7.074-6.137l1.063-1.232l0.528-4.054l0.354-1.229l1.229-1.352l2.658-1.713l2.121-1.111l4.063-1.472   l4.514-1.354l1.758-0.438l3.146-0.813l3.668-0.719l4.418-0.738l7.25-0.729h7.604l1.705,0.854l0.104,0.49l-0.181,7.063l-0.622,0.309   l-1.188,0.492l-0.885,0.489l-1.236,0.979l-1.771,1.479l-1.585,1.717l-4.421,11.909l-0.704,1.478l-1.771,0.854l-1.771,0.499   l-3.18,0.236l-4.602,0.369l-4.242,0.491l-3.354,0.362l-3.714,0.867l-3.713,1.713l-3.895,1.724l-11.853,15.966l-1.414,4.063   l-1.586,3.559l-0.709,2.819v1.229l-2.479,1.728l-0.706,0.115l-8.84-6.264l-0.176-0.613v-4.176l5.382-9.32   c0.146-0.463-0.269-0.246-0.269-0.246l-0.459,0.158l-0.996-0.039l-0.926-0.963l-0.97-0.896l-1.688-0.266l-11.486,2.004   l-0.347-0.188l-4.021-4.314l-0.104-0.309l0.185-1.5l0.118-0.199l20.017-3.824l5.122-2.77" stroke="#000000" outline-element="true" stroke-width="0.5" g2gstroke="#312783" stroke-miterlimit="10"/>
<path orgstroke="#000000" orgfill="none" fill="none" d="M447.531005859375 398.2879943847656L428.5060119628906 401.927001953125" stroke="#000000" stroke-width="0.25" g2gstroke="#312783" stroke-miterlimit="10"/>
<path orgstroke="#000000" orgfill="none" fill="none" d="M446.7590026855469 399.87200927734375L439.989990234375 401.27801513671875" stroke="#000000" stroke-width="0.25" g2gstroke="#312783" stroke-miterlimit="10"/>
<path orgstroke="#000000" orgfill="none" fill="none" d="M424.14801025390625 397.1159973144531L428.5060119628906 401.927001953125L428.2439880371094 403.2239990234375" stroke="#000000" stroke-width="0.25" g2gstroke="#312783" stroke-miterlimit="10"/>
<path orgstroke="#000000" orgfill="none" fill="none" d="M444.13299560546875 393.03399658203125L448.36199951171875 397.9440002441406" stroke="#000000" stroke-width="0.25" g2gstroke="#312783" stroke-miterlimit="10"/>
<path orgstroke="#000000" orgfill="none" fill="none" d="M429.84698486328125 398.27398681640625L430.239990234375 398.3940124511719L430.531005859375 398.72198486328125L430.489990234375 399.01300048828125L430.1759948730469 399.2489929199219L429.7550048828125 399.2239990234375L429.27301025390625 399.114013671875L428.9530029296875 398.8190002441406L428.906005859375 398.489013671875L429.072998046875 398.2690124511719L429.3659973144531 398.2040100097656" stroke="#000000" stroke-width="0.25" g2gstroke="#312783" stroke-miterlimit="10"/>
<path orgstroke="#000000" orgfill="none" fill="none" d="M435.14898681640625 397.64898681640625L435.5469970703125 397.7669982910156L435.84100341796875 398.093994140625L435.7980041503906 398.385986328125L435.4809875488281 398.6199951171875L435.0589904785156 398.593994140625L434.572998046875 398.48699951171875L434.2640075683594 398.1940002441406L434.20098876953125 397.864013671875L434.3810119628906 397.6419982910156L434.6780090332031 397.5769958496094" stroke="#000000" stroke-width="0.25" g2gstroke="#312783" stroke-miterlimit="10"/>
<path orgstroke="#000000" orgfill="none" fill="none" d="M436.322998046875 394.6029968261719L440.42498779296875 397.8059997558594L440.9049987792969 398.5299987792969L440.7929992675781 399.27801513671875L440.1700134277344 399.635009765625" stroke="#000000" stroke-width="0.25" g2gstroke="#312783" stroke-miterlimit="10"/>
<path orgstroke="#000000" orgfill="none" fill="none" d="M449.4830017089844 390.2330017089844L449.06500244140625 396.7279968261719L445.322998046875 403.2040100097656" stroke="#000000" stroke-width="0.25" g2gstroke="#312783" stroke-miterlimit="10"/>
<path orgstroke="#000000" orgfill="none" fill="none" d="M456.52398681640625 385.0220031738281L452.7229919433594 386.6659851074219L452.0159912109375 387.76300048828125L451.3089904785156 389.23699951171875L450.864990234375 396.1730041503906" stroke="#000000" stroke-width="0.25" g2gstroke="#312783" stroke-miterlimit="10"/>
<path orgstroke="#000000" orgfill="none" fill="none" d="M477.822998046875 365.77801513671875L473.760009765625 367.260009765625L471.6390075683594 368.3580017089844L468.9809875488281 370.0920104980469" stroke="#000000" stroke-width="0.25" g2gstroke="#312783" stroke-miterlimit="10"/>
<path orgstroke="#000000" orgfill="none" fill="none" d="M510.1780090332031 360.989013671875L502.572998046875 360.989013671875L495.322998046875 361.7279968261719L490.906005859375 362.468994140625L487.2340087890625 363.18701171875L482.33599853515625 364.4289855957031" stroke="#000000" stroke-width="0.25" g2gstroke="#312783" stroke-miterlimit="10"/>
<path orgstroke="#000000" orgfill="none" fill="none" d="M510.1780090332031 364.802001953125L502.572998046875 364.802001953125L495.322998046875 365.5299987792969L490.906005859375 366.2690124511719L487.2340087890625 366.989013671875L482.33599853515625 368.2309875488281L477.822998046875 369.5920104980469L473.760009765625 371.05999755859375L471.6390075683594 372.1759948730469L469.6369934082031 373.4679870605469" stroke="#000000" stroke-width="0.25" g2gstroke="#312783" stroke-miterlimit="10"/>
<path orgstroke="#000000" orgfill="none" fill="none" d="M465.5159912109375 373.1340026855469L467.63299560546875 374.63299560546875L469.7560119628906 375.2330017089844L472.0530090332031 375.3559875488281L473.81500244140625 375.47900390625L474.72900390625 375.71099853515625L474.95098876953125 376.3559875488281L474.1759948730469 376.9670104980469L456.14300537109375 383.7170104980469" stroke="#000000" stroke-width="0.25" g2gstroke="#312783" stroke-miterlimit="10"/>
<path orgstroke="#000000" orgfill="none" fill="none" d="M459.6059875488281 383.927001953125L456.52398681640625 385.0220031738281" stroke="#000000" stroke-width="0.25" g2gstroke="#312783" stroke-miterlimit="10"/>
<path orgstroke="#000000" orgfill="none" fill="none" d="M469.6369934082031 373.4670104980469L469.8890075683594 373.56201171875L471.8110046386719 373.9739990234375L473.197998046875 374.06500244140625L475.19000244140625 374.2590026855469L476.1860046386719 374.572998046875L476.9100036621094 375.0920104980469L477.24200439453125 375.6789855957031L477.24200439453125 376.4259948730469L477.04901123046875 377.01300048828125L476.5780029296875 377.5669860839844L475.98199462890625 378.0260009765625L475.12701416015625 378.3970031738281L464.6780090332031 382.1340026855469" stroke="#000000" stroke-width="0.25" g2gstroke="#312783" stroke-miterlimit="10"/>
<path orgstroke="#000000" orgfill="none" fill="none" d="M468.9809875488281 370.0920104980469L468.42999267578125 370.802001953125L468.2309875488281 371.677001953125L468.2309875488281 372.31500244140625L468.489990234375 373.010986328125L469.6369934082031 373.4670104980469" stroke="#000000" stroke-width="0.25" g2gstroke="#312783" stroke-miterlimit="10"/>
<path orgstroke="#000000" orgfill="none" fill="none" d="M449.06500244140625 396.7279968261719L449.0220031738281 402.8739929199219L449.3819885253906 404.4679870605469L450.0899963378906 405.81500244140625L451.1470031738281 407.4230041503906L451.5039978027344 409.010986328125L451.5039978027344 410.7279968261719L450.7950134277344 413.92498779296875L449.906005859375 417.11199951171875L449.0220031738281 419.322998046875L448.31500244140625 420.677001953125L447.1000061035156 422.843994140625" stroke="#000000" stroke-width="0.25" g2gstroke="#312783" stroke-miterlimit="10"/>
<path orgstroke="#000000" orgfill="none" fill="none" d="M451.0119934082031 401.97601318359375L450.99200439453125 403.68701171875L451.35400390625 405.2900085449219L452.0610046386719 406.635986328125L453.114990234375 408.2309875488281L453.4750061035156 409.8330078125L453.4750061035156 411.552001953125L452.76800537109375 414.739013671875L451.88299560546875 417.93499755859375L450.99200439453125 420.1440124511719L450.2850036621094 421.5069885253906L448.7170104980469 423.989013671875" stroke="#000000" stroke-width="0.25" g2gstroke="#312783" stroke-miterlimit="10"/>
<path orgstroke="#000000" orgfill="none" fill="none" d="M451.04400634765625 397.54998779296875L451.0220031738281 400.4150085449219" stroke="#000000" stroke-width="0.25" g2gstroke="#312783" stroke-miterlimit="10"/>
<path orgstroke="#000000" orgfill="none" fill="none" d="M477.17401123046875 376.63800048828125L477.22698974609375 378.3039855957031L477.1390075683594 380.1470031738281L476.69000244140625 382.2330017089844L475.7229919433594 384.01300048828125L467.5329895019531 394.4809875488281" stroke="#000000" stroke-width="0.25" g2gstroke="#312783" stroke-miterlimit="10"/>
<path orgstroke="#000000" orgfill="none" fill="none" d="M502.572998046875 360.989013671875L502.572998046875 364.802001953125L502.2340087890625 367.135009765625L501.1820068359375 368.9700012207031L493.39801025390625 386.5409851074219L493.06500244140625 388.8420104980469" stroke="#000000" stroke-width="0.25" g2gstroke="#312783" stroke-miterlimit="10"/>
<path orgstroke="#000000" orgfill="none" fill="none" d="M473.52398681640625 386.81500244140625L474.4809875488281 387.760986328125L475.7229919433594 387.885986328125L477.66900634765625 387.5150146484375L489.864990234375 385.802001953125L492.1579895019531 385.427001953125L493.9280090332031 385.343994140625" stroke="#000000" stroke-width="0.25" g2gstroke="#312783" stroke-miterlimit="10"/>
<path orgstroke="#000000" orgfill="none" fill="none" d="M476.9100036621094 375.0920104980469L479.07598876953125 374.5090026855469L480.8500061035156 374.63299560546875L482.7950134277344 374.864013671875L484.2030029296875 375.7239990234375L484.2030029296875 376.9670104980469L483.8559875488281 378.802001953125L483.14801025390625 379.89898681640625L483.14801025390625 381.135009765625L484.2030029296875 381.75799560546875L486.3240051269531 381.63299560546875L488.27301025390625 380.51300048828125L489.5119934082031 380.51300048828125L490.22100830078125 381.63299560546875L490.22100830078125 383.218994140625L489.156005859375 384.93701171875L487.9219970703125 385.927001953125" stroke="#000000" stroke-width="0.25" g2gstroke="#312783" stroke-miterlimit="10"/>
<path orgstroke="#000000" orgfill="none" fill="none" d="M479.36700439453125 369.1340026855469L479.4360046386719 370.81298828125L478.3689880371094 372.0509948730469L477.4840087890625 373.0220031738281L477.31500244140625 373.885986328125L477.66900634765625 374.864013671875" stroke="#000000" stroke-width="0.25" g2gstroke="#312783" stroke-miterlimit="10"/>
<path orgstroke="#000000" orgfill="none" fill="none" d="M487.2149963378906 384.385986328125L487.25799560546875 383.927001953125L487.031005859375 383.6470031738281L486.5509948730469 383.4309997558594L485.843994140625 383.5220031738281L485.489990234375 383.802001953125L485.0039978027344 384.4779968261719L485.04901123046875 384.93701171875L485.39801025390625 385.364013671875L485.843994140625 385.48699951171875L486.4200134277344 385.3970031738281L486.6839904785156 385.1809997558594" stroke="#000000" stroke-width="0.25" g2gstroke="#312783" stroke-miterlimit="10"/>
<path orgstroke="#000000" orgfill="none" fill="none" d="M482.010009765625 377.802001953125L482.0530090332031 377.343994140625L481.82598876953125 377.06298828125L481.34600830078125 376.84698486328125L480.6390075683594 376.94000244140625L480.281005859375 377.218994140625L479.79901123046875 377.8940124511719L479.8420104980469 378.35400390625L480.19000244140625 378.7909851074219L480.6390075683594 378.9049987792969L481.2130126953125 378.81500244140625L481.47900390625 378.59698486328125" stroke="#000000" stroke-width="0.25" g2gstroke="#312783" stroke-miterlimit="10"/>
<path orgstroke="#000000" orgfill="none" fill="none" d="M478.94000244140625 385.10400390625L478.98199462890625 384.6440124511719L478.76800537109375 384.364013671875L478.281005859375 384.14898681640625L477.5679931640625 384.25201416015625L477.2229919433594 384.52099609375L476.7309875488281 385.1940002441406L476.77301025390625 385.6549987792969L477.13299560546875 386.0929870605469L477.5679931640625 386.2170104980469L478.14801025390625 386.114013671875L478.4100036621094 385.89898681640625" stroke="#000000" stroke-width="0.25" g2gstroke="#312783" stroke-miterlimit="10"/>
<path orgstroke="#000000" orgfill="none" fill="none" d="M458.739013671875 398.89599609375L458.781005859375 398.43499755859375L458.56500244140625 398.1650085449219L458.072998046875 397.9440002441406L457.364990234375 398.0480041503906L457.01800537109375 398.31298828125L456.52398681640625 398.98699951171875L456.572998046875 399.4460144042969L456.92999267578125 399.8819885253906L457.364990234375 400.0069885253906L457.94000244140625 399.9150085449219L458.21099853515625 399.6940002441406" stroke="#000000" stroke-width="0.25" g2gstroke="#312783" stroke-miterlimit="10"/>
<path orgstroke="#000000" orgfill="none" fill="none" d="M473.0039978027344 373.843994140625L474.06500244140625 373.23699951171875L475.19000244140625 372.593994140625L476.2539978027344 372.31500244140625" stroke="#000000" stroke-width="0.25" g2gstroke="#312783" stroke-miterlimit="10"/>
<path orgstroke="#000000" orgfill="none" fill="none" d="M444.37701416015625 416.2080078125L448.5350036621094 419.1099853515625" stroke="#000000" stroke-width="0.25" g2gstroke="#312783" stroke-miterlimit="10"/>
<path orgstroke="#000000" orgfill="none" fill="none" d="M439.697998046875 412.93798828125L442.8890075683594 415.17498779296875" stroke="#000000" stroke-width="0.25" g2gstroke="#312783" stroke-miterlimit="10"/>
<path orgstroke="#000000" orgfill="none" fill="none" d="M444.4909973144531 412.15301513671875L444.69000244140625 411.64898681640625L445.3559875488281 411.2349853515625L446.1470031738281 411.18798828125L446.81500244140625 411.5559997558594L447.2149963378906 412.29998779296875L447.4809875488281 413.1319885253906L447.0159912109375 414.0069885253906L446.5530090332031 414.3190002441406L445.7569885253906 414.3190002441406L445.0220031738281 414.0069885253906L444.6310119628906 413.489013671875" stroke="#000000" stroke-width="0.25" g2gstroke="#312783" stroke-miterlimit="10"/>
<path orgstroke="#000000" orgfill="none" fill="none" d="M502.81500244140625 374.010009765625L504.760009765625 369.2760009765625L505.5570068359375 367.4809875488281L505.81500244140625 360.989013671875" stroke="#000000" stroke-width="0.25" g2gstroke="#312783" stroke-miterlimit="10"/>
</g>
</g>
</g>
</g></svg>