<svg xmlns="http://www.w3.org/2000/svg" xmlns:xlink="http://www.w3.org/1999/xlink" xmlns:etg="http://www.eurotaxglass.com/etg/evd/" etg:dataTimestamp="1539068912893" contentScriptType="text/ecmascript" zoomAndPan="magnify" contentStyleType="text/css" id="Layer_1" enable-background="new 0 0 1841.891 1595.279" version="1.1" xml:space="preserve" width="1841.891px" preserveAspectRatio="xMidYMid meet" viewBox="0 0 1841.891 1595.279" height="1595.279px" x="0px" y="0px"><g xmlns="http://www.w3.org/2000/svg" objecttype="PS" tooltip="#UNDEFINED" id="107">
<g onmouseover="notifyOwner(AGV_OBJECT_MOUSEOVER, '107(PS)')" transform="translate(-1.0864257831144641E-5, 66.80804286193847) translate(-478.1112626953125, -9.244252822875978) translate(-20.568138264369054, -6.0494524306967605) translate(59.0, -37.0) translate(572.0, -62.0) translate(10.0, 10.00006103515625)" onclick="clickZoom(evt); notifyOwner(AGV_OBJECT_MOUSECLICK, '107(PS)')" onmouseout="notifyOwner(AGV_OBJECT_MOUSEOUT, '107(PS)')" tooltip="#UNDEFINED" id="107-Graphic" objecttype="GRAPHIC">
<g zvalue="5">
<g>
<path orgstroke="#000000" orgfill="#ffffff" fill="#ffffff" g2gfill="#ECF5E4" d="M465.002,538.059   c3.045-1.488,25.166-12.295,36.568-18.543c0.41-0.223,0.67-0.121,0.67,0.275c0,0,0,4,0,5.318c0,0.4,0.037,0.617,0.438,0.848   c0.285,0.164,0.639,0.357,0.932,0.525c0.309,0.178,0.627,0.037,1.041-0.203c1.135-0.654,4.182-2.414,4.936-2.857   c0.783-0.461,0.994-1.086,1.031-1.742c0-0.35,0.211-0.299,0.559-0.148c0.727,0.314,1.439,0.174,2.264-0.184   c0.613-0.266,1.242-0.51,1.592-0.711c0.385-0.223,0.355,0.113,0.42,0.443c0.219,1.1,0.854,1.973,2.379,2.354   c0.365,0.092,0.871,0.254,1.254,0.238c0.625-0.023,0.65,0.17,0.543,0.508c-0.055,0.246-0.131,0.428-0.234,0.543   c-0.438,0.484-0.748,0.814-0.934,1.301c-0.131,0.299-0.176,0.695-0.109,1.164c0.191,1.365,1.246,2.838,2.355,3.285   c0.186,0.076,0.525,0.131,0.525,0.131c0.791,0.086,0.982,0.334,1.105,1.105s1.266,1.725,3.715,2.674   c3.625,1.408,6.586,0.494,7.822-2.465c1.283-3.066,1.623-5.91,1.648-10.252c0-0.34,0.078-0.527,0.354-0.688   c1.018-0.533,1.395-1.336,1.039-2.08v0.002c-0.4-0.746-0.381-1.586-0.381-1.898s0-0.709,0-1.633c0-0.926-0.428-4.121-3.229-4.121   s-3.223,3.4-3.223,4.121s-0.004,1.092-0.004,1.695s-0.09,1.139-0.295,1.59c-0.402,0.635-0.256,1.375,0.51,1.973   c0.16,0.125,0.299,0.213,0.467,0.297c0.373,0.182,0.365,0.357,0.365,0.578c-0.008,1.066-0.023,2.125-0.154,3.105   c-0.797,5.971-5.123,4.023-5.123,0.082c0-0.297-0.002-1.025-0.002-1.834c0-0.303,0.105-0.543,0.291-0.838   c0.592-0.803,0.6-1.867,0.572-3.111c-0.021-1.076-0.607-2.367-1.186-2.813l-0.027-0.018c0,0-1.535-1.197-1.535-2.871   c0-1.316,0-5.857,0-5.857c0-0.244,0.004-0.633,0.484-0.914s28.205-17.555,39.109-25.236c0.303-0.213,0.496-0.352,1.025-0.299   c1.158,0,1.744-0.844,1.744-1.691c0-0.625,0-4.219,0-4.688s-0.488-1.893-1.025-2.203c0,0-3.406-1.967-4.766-2.752   c-1.357-0.783-1.977-2.896-3.152-3.576c-4.078-2.354-18.266-10.516-18.266-10.516c-1.453-0.84-1.961-1.277-4.131,0.012   c-0.17,0.102-0.893,0.496-1.059,0.607c-0.547,0.367-0.383,1.203,0.143,1.795c1.682,1.895,1.813,2.131,2.07,3.068   c0.127,0.463,0.711,0.852,1.908,1.541c0,0,12.908,7.451,17.779,10.264c0.506,0.293,0.416,0.357-0.051,0.68   c-12.162,8.449-27.125,18.014-43.398,27.484c-16.777,9.766-52.383,27.449-52.865,27.672c-0.484,0.223-0.688,0.105-1.236-0.211   c-1.031-0.598-4.344-0.6-5.521-1.279c-1.18-0.682-18.836-10.875-18.836-10.875c-1.453-0.84-2.553-0.941-4.721,0.348   c-0.117,0.07-0.469,0.271-0.469,0.271c-0.516,0.41-0.381,1.205,0.143,1.795c1.682,1.896,1.813,2.131,2.07,3.07   c0.127,0.463,0.711,0.85,1.908,1.541c0,0,19.361,11.178,20.557,11.869c1.195,0.689,3.086-0.154,4.131,0.449   s5.229,3.018,5.229,3.018c0.381,0.221,0.859,0.199,1.25,0.063c0.143-0.049,0.248-0.117,0.338-0.199   C464.619,538.213,464.744,538.184,465.002,538.059z" stroke="#000000" outline-element="true" stroke-width="0.5" g2gstroke="#312783" stroke-miterlimit="10"/>
<path orgstroke="#000000" orgfill="none" fill="none" d="M519.709,523.648   c3.32-0.031,5.27-0.484,6.137-1.303" stroke="#000000" stroke-width="0.25" g2gstroke="#312783" stroke-miterlimit="10"/>
<path orgstroke="#000000" orgfill="none" fill="none" d="M506.135,520.053   c-0.07,0.5-0.455,1.039-0.861,1.201c-0.404,0.164-0.676-0.107-0.607-0.607c0.072-0.5,0.457-1.039,0.863-1.201   C505.934,519.281,506.205,519.553,506.135,520.053z" stroke="#000000" stroke-width="0.25" g2gstroke="#312783" stroke-miterlimit="10"/>
<path orgstroke="#000000" orgfill="none" fill="none" d="M509.799,518.059   c-0.07,0.5-0.457,1.039-0.861,1.201c-0.406,0.164-0.676-0.107-0.607-0.607c0.07-0.5,0.457-1.039,0.861-1.201   C509.598,517.287,509.869,517.559,509.799,518.059z" stroke="#000000" stroke-width="0.25" g2gstroke="#312783" stroke-miterlimit="10"/>
<path orgstroke="#000000" orgfill="none" fill="none" d="M508.371,522.006   c-0.07,0.5-0.455,1.039-0.861,1.201c-0.404,0.164-0.676-0.107-0.607-0.607c0.072-0.5,0.457-1.039,0.863-1.201   C508.17,521.234,508.441,521.506,508.371,522.006z" stroke="#000000" stroke-width="0.25" g2gstroke="#312783" stroke-miterlimit="10"/>
<path orgstroke="#000000" orgfill="none" fill="none" d="M430.227,518.459   c0.086,0.617,0.563,1.283,1.064,1.486c0.5,0.201,0.836-0.135,0.75-0.754c-0.088-0.617-0.564-1.283-1.064-1.484   C430.475,517.504,430.139,517.842,430.227,518.459z" stroke="#000000" stroke-width="0.25" g2gstroke="#312783" stroke-miterlimit="10"/>
<path orgstroke="#000000" orgfill="none" fill="none" d="M535.76,458.008   c0.088,0.617,0.564,1.283,1.066,1.484c0.5,0.203,0.836-0.133,0.75-0.752c-0.088-0.617-0.564-1.283-1.064-1.486   C536.01,457.053,535.674,457.389,535.76,458.008z" stroke="#000000" stroke-width="0.25" g2gstroke="#312783" stroke-miterlimit="10"/>
<path orgstroke="#000000" orgfill="none" fill="none" d="M447.746,529.18   c0.088,0.617,0.564,1.283,1.066,1.486c0.5,0.201,0.836-0.135,0.75-0.754c-0.088-0.617-0.564-1.283-1.064-1.484   C447.996,528.225,447.66,528.563,447.746,529.18z" stroke="#000000" stroke-width="0.25" g2gstroke="#312783" stroke-miterlimit="10"/>
<path orgstroke="#000000" orgfill="none" fill="none" d="M563.938,473.336   c-24.639,17.494-63.375,40.953-100.506,58.025" stroke="#000000" stroke-width="0.25" g2gstroke="#312783" stroke-miterlimit="10"/>
<path orgstroke="#000000" orgfill="none" fill="none" d="M559.521,470.811   c-1.039,0.738-2.807,1.975-3.895,2.732" stroke="#000000" stroke-width="0.25" g2gstroke="#312783" stroke-miterlimit="10"/>
<path orgstroke="#000000" orgfill="none" fill="none" d="M564.832,474.945   c-24.639,17.496-63.375,40.953-100.504,58.027" stroke="#000000" stroke-width="0.25" g2gstroke="#312783" stroke-miterlimit="10"/>
<path orgstroke="#000000" orgfill="none" fill="none" d="M524.445,506.434   c-7.352,4.383-15.027,8.785-22.875,13.082" stroke="#000000" stroke-width="0.25" g2gstroke="#312783" stroke-miterlimit="10"/>
<path orgstroke="#000000" orgfill="none" fill="none" d="M564.051,480.846   c0.186-0.133,0.371-0.264,0.555-0.393c0.283-0.201,0.313-0.518,0.313-1.1c0-0.25,0-4.168,0-4.408s-0.436-1.295-0.98-1.609   c0,0-3.408-1.967-4.766-2.752c-1.357-0.783-1.977-2.896-3.154-3.576" stroke="#000000" stroke-width="0.25" g2gstroke="#312783" stroke-miterlimit="10"/>
<path orgstroke="#000000" orgfill="none" fill="none" d="M516.465,511.123c0,0,0,2.635,0,4.1   c0,1.904,2.828,2.734,5.238,1.633" stroke="#000000" stroke-width="0.25" g2gstroke="#312783" stroke-miterlimit="10"/>
<path orgstroke="#000000" orgfill="none" fill="none" d="M516.465,513.02   c-1.203,1.25-1.551,3.352-0.084,4.652c1.043,0.926,2.564,1.113,3.709,0.979" stroke="#000000" stroke-width="0.25" g2gstroke="#312783" stroke-miterlimit="10"/>
<path orgstroke="#000000" orgfill="none" fill="none" d="M508.982,515.398   c0.879-0.496,1.641-0.045,1.641,1.205s0,4.105,0,4.844" stroke="#000000" stroke-width="0.25" g2gstroke="#312783" stroke-miterlimit="10"/>
<path orgstroke="#000000" orgfill="none" fill="none" d="M503.031,518.713   c0.627-0.344,0.797,0.088,0.797,0.713s0,5.781,0,6.25s0.242,0.939,0.752,0.645" stroke="#000000" stroke-width="0.25" g2gstroke="#312783" stroke-miterlimit="10"/>
<path orgstroke="#000000" orgfill="none" fill="none" d="M525.523,516.094   c-0.58-0.443-1.4-0.52-2.367-0.129c-2.15,0.869-4.195,3.723-4.568,6.373c-0.049,0.342-0.068,0.799-0.059,1.096" stroke="#000000" stroke-width="0.25" g2gstroke="#312783" stroke-miterlimit="10"/>
<path orgstroke="#000000" orgfill="none" fill="none" d="M510.682,516.77c0,0,0.736,0.471,1.049,0.621   c0.313,0.15,0.951-0.09,1.311-0.297s2.275-1.209,2.275-1.209" stroke="#000000" stroke-width="0.25" g2gstroke="#312783" stroke-miterlimit="10"/>
<path orgstroke="#000000" orgfill="none" fill="none" d="M512.0180053710938 521.6680297851562L512.0180053710938 517.43798828125" stroke="#000000" stroke-width="0.25" g2gstroke="#312783" stroke-miterlimit="10"/>
<path orgstroke="#000000" orgfill="none" fill="none" d="M515.416015625 515.541015625L515.416015625 520.551025390625" stroke="#000000" stroke-width="0.25" g2gstroke="#312783" stroke-miterlimit="10"/>
<path orgstroke="#000000" orgfill="none" fill="none" d="M457.1050109863281 535.3419799804688L457.1050109863281 529.5469970703125" stroke="#000000" stroke-width="0.25" g2gstroke="#312783" stroke-miterlimit="10"/>
<path orgstroke="#000000" orgfill="none" fill="none" d="M454.0270080566406 535.3419799804688L452.3500061035156 528.6580200195312" stroke="#000000" stroke-width="0.25" g2gstroke="#312783" stroke-miterlimit="10"/>
<path orgstroke="#000000" orgfill="none" fill="none" d="M428.729,516.85   c0.201-0.158,0.498-0.258,0.908-0.268c1.469-0.031,2.002,0.176,3.213,0.873c0,0,17.896,10.332,19.092,11.023   c1.193,0.689,4.551,0.693,5.596,1.297c1.045,0.602,4.33,2.498,4.33,2.498c0.4,0.232,1.176,1.475,1.176,1.85s0,3.313,0,3.75   s-0.041,0.76-0.277,0.719" stroke="#000000" stroke-width="0.25" g2gstroke="#312783" stroke-miterlimit="10"/>
<path orgstroke="#000000" orgfill="none" fill="none" d="M459.027,528.818   c1.555,0.898,4.404,2.543,4.404,2.543c0.436,0.25,1.07,1.408,1.07,1.971s0,3.82,0,4.521c0,0.193-0.063,0.375-0.174,0.527" stroke="#000000" stroke-width="0.25" g2gstroke="#312783" stroke-miterlimit="10"/>
<path orgstroke="#000000" orgfill="none" fill="none" d="M533.926,456.092   c0.201-0.158,0.498-0.26,0.908-0.268c1.469-0.031,2.002,0.174,3.213,0.873c0,0,13.326,7.629,17.971,10.311" stroke="#000000" stroke-width="0.25" g2gstroke="#312783" stroke-miterlimit="10"/>
<path orgstroke="#000000" orgfill="none" fill="none" d="M534.91,511.758   c0.65,0.51,0.461,1.213-0.424,1.572c-0.887,0.357-2.135,0.234-2.787-0.275c-0.65-0.51-0.461-1.213,0.424-1.572   C533.01,511.125,534.258,511.248,534.91,511.758z" stroke="#000000" stroke-width="0.25" g2gstroke="#312783" stroke-miterlimit="10"/>
<path orgstroke="#000000" orgfill="none" fill="none" d="M536.531,515.332   c0.041,0.586-0.414,1.168-1.313,1.533c-1.438,0.578-3.457,0.379-4.514-0.445c-0.41-0.32-0.613-0.688-0.627-1.051" stroke="#000000" stroke-width="0.25" g2gstroke="#312783" stroke-miterlimit="10"/>
<path orgstroke="#000000" orgfill="none" fill="none" d="M536.594,517.928   c0.137,0.633-0.402,1.559-1.375,1.953c-1.438,0.578-3.457,0.379-4.514-0.445c-0.492-0.387-0.789-1.014-0.713-1.447" stroke="#000000" stroke-width="0.25" g2gstroke="#312783" stroke-miterlimit="10"/>
<path orgstroke="#000000" orgfill="none" fill="none" d="M535.521,521.143   c-1.336,0.539-3.107,0.496-4.389-0.037" stroke="#000000" stroke-width="0.25" g2gstroke="#312783" stroke-miterlimit="10"/>
<path orgstroke="#000000" orgfill="none" fill="none" d="M521.23,530.6   c0.807,0.053,1.293-0.654,1.133-1.791c-0.191-1.367-1.246-2.838-2.355-3.287c-0.729-0.293-1.299-0.072-1.549,0.502" stroke="#000000" stroke-width="0.25" g2gstroke="#312783" stroke-miterlimit="10"/>
<path orgstroke="#000000" orgfill="none" fill="none" d="M521.596,523.613   c0.205,1.225,0.486,1.816,0.799,2.232" stroke="#000000" stroke-width="0.25" g2gstroke="#312783" stroke-miterlimit="10"/>
<path orgstroke="#000000" orgfill="none" fill="none" d="M530.971,524.607   c-0.229,2.328-0.713,4.266-1.518,5.049c-1.188,1.156-4.934,1.449-6.615-4.264" stroke="#000000" stroke-width="0.25" g2gstroke="#312783" stroke-miterlimit="10"/>
<path orgstroke="#000000" orgfill="none" fill="none" d="M522.393,529.23c0,0,0-2.348,0-3.039   c0-0.689,0.418-0.416,0.49-0.98c0.229-1.793,2.41-2.605,2.99,0" stroke="#000000" stroke-width="0.25" g2gstroke="#312783" stroke-miterlimit="10"/>
<path orgstroke="#000000" orgfill="none" fill="none" d="M529.342,535.029   c0.596-0.043,1.27-0.42,1.938-1.273c0.674-0.861,1.721-2.871,2.049-4.285c0.389-1.68,0.725-3.441,0.725-7.879" stroke="#000000" stroke-width="0.25" g2gstroke="#312783" stroke-miterlimit="10"/>
<path orgstroke="#000000" orgfill="none" fill="none" d="M520.889,523.648   c-0.094-4.34,4.336-7.758,5.668-5.721" stroke="#000000" stroke-width="0.25" g2gstroke="#312783" stroke-miterlimit="10"/>
</g>
</g>
</g>
</g></svg>