<svg xmlns="http://www.w3.org/2000/svg" xmlns:xlink="http://www.w3.org/1999/xlink" xmlns:etg="http://www.eurotaxglass.com/etg/evd/" etg:dataTimestamp="1539068912893" contentScriptType="text/ecmascript" zoomAndPan="magnify" contentStyleType="text/css" id="Layer_1" enable-background="new 0 0 1841.891 1595.279" version="1.1" xml:space="preserve" width="1841.891px" preserveAspectRatio="xMidYMid meet" viewBox="0 0 1841.891 1595.279" height="1595.279px" x="0px" y="0px"><g xmlns="http://www.w3.org/2000/svg" objecttype="PS" tooltip="#UNDEFINED" id="108">
<g onmouseover="notifyOwner(AGV_OBJECT_MOUSEOVER, '108(PS)')" transform="translate(-1.0864257831144641E-5, 66.80804286193847) translate(-478.1112626953125, -9.244252822875978) translate(59.0, -37.0) translate(572.0, -62.0) translate(10.0, 10.00006103515625)" onclick="clickZoom(evt); notifyOwner(AGV_OBJECT_MOUSECLICK, '108(PS)')" onmouseout="notifyOwner(AGV_OBJECT_MOUSEOUT, '108(PS)')" tooltip="#UNDEFINED" id="108-Graphic" objecttype="GRAPHIC">
<g zvalue="6">
<g>
<path stroke-linecap="round" orgstroke="#000000" orgfill="#ffffff" fill="#ffffff" g2gfill="#ECC35D" d="M382.878,221.166   c4.484,1.238,5.358,1.705,6.803,3.656c1.563,2.102,2.982,7.645,3.057,9.283c0.071,1.639,0.439,1.484,6.245,11.023   c5.813,9.533,4.989,22.268,3.429,31.57c-1.565,9.301-2.979,16.758-11.84,24.055c-8.872,7.299-29.121,21.725-29.479,21.926   l-0.169,0.098c-1.71,1.342-1.402,2.908-2.855,4.057c-1.44,1.139-25.993,15.535-29.098,17.113c-3.107,1.59-3.621-0.35-6.396,1.252   l-0.471,0.223c-4.312,2.047-30.675,13.99-37.508,16.867c-7.149,3.02-15.188,3.131-19.555,0c-4.354-3.125-8.263-6.811-11.283-9.826   c-3.01-3.014-3.236-7.373-4.026-17.988c-0.775-10.613-3.072-19.734-6.918-25.689c-2.467-3.791-3.911-6.035-3.911-7.594   c0-1.563,0.781-1.896,6.25-1.896c5.478,0,6.255,0.217,8.938,2.791c0.39,0.371,0.729,0.701,1.046,0.99l0.23,0.207   c0,0,1.312,1.059,2.784,2.236c0.248,0.141,0.67,0.289,1.096,0.242c0.73-0.068,1.585-0.207,2.652-0.426l1.153-0.236   c4.599-1.283,10.239-3.324,19.84-6.963c4.692-1.781,8.295-3.365,11.144-4.893c3.728-2.252,10.138-6.086,12.775-7.604   c4.577-2.637,5.767-12.424,12.136-16.178c9.959-5.85,14.539,1.018,18.521-0.682c3.97-1.701,17.106-10.057,22.331-13.648   c3.13-2.143,6.84-4.742,11.448-8.516c3.866-3.17,6.589-5.508,8.496-7.508l1.322-1.563c3.771-4.219,3.04-9.271,0.542-14.213   L382.878,221.166z" stroke="#000000" outline-element="true" stroke-width="0.5" g2gstroke="#312783" stroke-miterlimit="10"/>
<path orgstroke="#000000" orgfill="none" stroke-linecap="round" fill="none" d="M283.244,314.775   l-1.827-1.145c-0.093-0.055-0.211-0.059-0.362-0.002c-0.357,0.145-0.7,0.621-0.758,1.066c-0.041,0.248,0.02,0.434,0.137,0.523   l1.884,1.172" stroke="#000000" stroke-width="0.25" g2gstroke="#312783" stroke-miterlimit="10"/>
<path orgstroke="#000000" orgfill="none" stroke-linecap="round" fill="none" d="M283.43,315.322   c-0.063,0.443-0.408,0.924-0.766,1.068c-0.357,0.139-0.598-0.096-0.54-0.545c0.062-0.441,0.4-0.918,0.763-1.059   C283.247,314.639,283.493,314.883,283.43,315.322z" stroke="#000000" stroke-width="0.25" g2gstroke="#312783" stroke-miterlimit="10"/>
<path orgstroke="#000000" orgfill="none" stroke-linecap="round" fill="none" d="M238.958,301.578   l6.479,7.74c8.403,12.299,14.427,21.271,14.427,30.15c0,14.807-0.557,19.25,5.617,23.115" stroke="#000000" stroke-width="0.25" g2gstroke="#312783" stroke-miterlimit="10"/>
<path orgstroke="#000000" orgfill="none" stroke-linecap="round" fill="none" d="M241.795,304.971   c-1.28-1.529-1.864-3.852,0.918-3.881c6.849-0.076,7.557,0.26,13.741,5.299c2.872,2.342,4.465,3.084,5.691,4.258   c1.228,1.158,4.851,1.277,9.442,0c4.594-1.291,10.242-3.326,19.826-6.961c4.703-1.781,8.306-3.365,11.148-4.893   c3.735-2.252,10.146-6.086,12.779-7.604c4.568-2.639,5.761-12.428,12.142-16.172c9.95-5.859,14.534,1.012,18.512-0.684   c3.967-1.697,17.106-10.049,22.333-13.65c3.123-2.141,6.84-4.732,11.446-8.52c11.054-9.045,12.734-11.395,12.968-18.051" stroke="#000000" stroke-width="0.25" g2gstroke="#312783" stroke-miterlimit="10"/>
<path orgstroke="#000000" orgfill="none" stroke-linecap="round" fill="none" d="M262.341,310.795   c-6.896-3.059-11.522-4.01-13.038-2.613" stroke="#000000" stroke-width="0.25" g2gstroke="#312783" stroke-miterlimit="10"/>
<path orgstroke="#000000" orgfill="none" stroke-linecap="round" fill="none" d="M254.907,308.074   c-1.413-0.313-2.246,0.525-3.477,2.189c-1.227,1.668-1.241,3.318-0.706,4.145" stroke="#000000" stroke-width="0.25" g2gstroke="#312783" stroke-miterlimit="10"/>
<path orgstroke="#000000" orgfill="none" stroke-linecap="round" fill="none" d="M282.176,314.107   c0.494-0.824,0.822-1.844,0.59-2.443c-0.365-0.965-1.596-3.258-2.008-4.014" stroke="#000000" stroke-width="0.25" g2gstroke="#312783" stroke-miterlimit="10"/>
<path orgstroke="#000000" orgfill="none" stroke-linecap="round" fill="none" d="M278.1520080566406 316.7149963378906L280.8030090332031 315.4490051269531" stroke="#000000" stroke-width="0.25" g2gstroke="#312783" stroke-miterlimit="10"/>
<path orgstroke="#000000" orgfill="none" stroke-linecap="round" fill="none" d="M275.031,309.611   c0,0,0,1.701,0,2.049c0,0.354,0.017,0.305-1.184,0.854c-1.199,0.553-1.474,1.178-0.993,1.457c0,0,4.088,2.33,4.919,2.754   c0.826,0.404,2.626-2.498,2.166-3.703c-0.458-1.209-2.182-4.316-2.182-4.316" stroke="#000000" stroke-width="0.25" g2gstroke="#312783" stroke-miterlimit="10"/>
<path orgstroke="#000000" orgfill="none" stroke-linecap="round" fill="none" d="M273.027,313.014   c0,0,3.897,2.139,4.369,2.5c0.476,0.357,1.021-0.023,1.503-0.863c0.473-0.834,0.387-1.539,0-2.313   c-0.398-0.775-1.86-3.293-1.86-3.293" stroke="#000000" stroke-width="0.25" g2gstroke="#312783" stroke-miterlimit="10"/>
<path orgstroke="#000000" orgfill="none" stroke-linecap="round" fill="none" d="M275.01800537109375 311.85198974609375L279.0719909667969 314.2770080566406" stroke="#000000" stroke-width="0.25" g2gstroke="#312783" stroke-miterlimit="10"/>
<path orgstroke="#000000" orgfill="none" stroke-linecap="round" fill="none" d="M354.423,276   l-1.817-1.156c-0.098-0.057-0.225-0.063-0.37,0c-0.354,0.141-0.698,0.629-0.763,1.061c-0.036,0.25,0.024,0.439,0.146,0.523   l1.873,1.174" stroke="#000000" stroke-width="0.25" g2gstroke="#312783" stroke-miterlimit="10"/>
<path orgstroke="#000000" orgfill="none" stroke-linecap="round" fill="none" d="M354.614,276.544   c-0.07,0.447-0.404,0.92-0.774,1.064c-0.358,0.143-0.593-0.094-0.536-0.543c0.061-0.439,0.398-0.918,0.759-1.059   C354.43,275.857,354.676,276.101,354.614,276.544z" stroke="#000000" stroke-width="0.25" g2gstroke="#312783" stroke-miterlimit="10"/>
<path orgstroke="#000000" orgfill="none" stroke-linecap="round" fill="none" d="M353.36,275.328   c0.486-0.824,0.811-1.844,0.59-2.436c-0.211-0.541-0.665-1.471-1.105-2.32" stroke="#000000" stroke-width="0.25" g2gstroke="#312783" stroke-miterlimit="10"/>
<path orgstroke="#000000" orgfill="none" stroke-linecap="round" fill="none" d="M343.903,274.556   c-0.163,0.266-0.116,0.494,0.133,0.637c0,0,4.082,2.33,4.919,2.744c0.828,0.416,2.615-2.498,2.155-3.701   c-0.172-0.494-0.586-1.293-0.977-2.086" stroke="#000000" stroke-width="0.25" g2gstroke="#312783" stroke-miterlimit="10"/>
<path orgstroke="#000000" orgfill="none" stroke-linecap="round" fill="none" d="M344.874,274.599   c1.129,0.627,3.357,1.867,3.695,2.133c0.484,0.359,1.027-0.025,1.498-0.859c0.479-0.83,0.404-1.541,0-2.311   c-0.119-0.232-0.325-0.617-0.571-1.053" stroke="#000000" stroke-width="0.25" g2gstroke="#312783" stroke-miterlimit="10"/>
<path orgstroke="#000000" orgfill="none" stroke-linecap="round" fill="none" d="M347.2869873046875 273.7200012207031L350.2550048828125 275.4960021972656" stroke="#000000" stroke-width="0.25" g2gstroke="#312783" stroke-miterlimit="10"/>
<path orgstroke="#000000" orgfill="none" stroke-linecap="round" fill="none" d="M378.351,259.707   l-1.825-1.154c-0.097-0.055-0.213-0.061-0.365-0.002c-0.354,0.145-0.693,0.623-0.764,1.063c-0.034,0.25,0.023,0.439,0.147,0.525   l1.876,1.172" stroke="#000000" stroke-width="0.25" g2gstroke="#312783" stroke-miterlimit="10"/>
<path orgstroke="#000000" orgfill="none" stroke-linecap="round" fill="none" d="M378.534,260.253   c-0.063,0.447-0.403,0.918-0.765,1.063c-0.357,0.145-0.593-0.096-0.542-0.543c0.059-0.441,0.402-0.918,0.76-1.059   C378.358,259.564,378.597,259.808,378.534,260.253z" stroke="#000000" stroke-width="0.25" g2gstroke="#312783" stroke-miterlimit="10"/>
<path orgstroke="#000000" orgfill="none" stroke-linecap="round" fill="none" d="M377.281,259.035   c0.495-0.824,0.822-1.842,0.589-2.443c-0.178-0.486-0.589-1.295-0.991-2.088" stroke="#000000" stroke-width="0.25" g2gstroke="#312783" stroke-miterlimit="10"/>
<path orgstroke="#000000" orgfill="none" stroke-linecap="round" fill="none" d="M369.581,259.818   c1.238,0.701,2.815,1.588,3.301,1.832c0.822,0.414,2.612-2.5,2.16-3.703c-0.139-0.375-0.402-0.936-0.699-1.527" stroke="#000000" stroke-width="0.25" g2gstroke="#312783" stroke-miterlimit="10"/>
<path orgstroke="#000000" orgfill="none" stroke-linecap="round" fill="none" d="M370.433,259.22   c0.939,0.527,1.856,1.061,2.067,1.217c0.478,0.361,1.016-0.023,1.499-0.857c0.473-0.832,0.39-1.543,0-2.311   c-0.066-0.119-0.138-0.268-0.235-0.449" stroke="#000000" stroke-width="0.25" g2gstroke="#312783" stroke-miterlimit="10"/>
<path orgstroke="#000000" orgfill="none" stroke-linecap="round" fill="none" d="M372.2200012207031 258.0350036621094L374.17401123046875 259.2030029296875" stroke="#000000" stroke-width="0.25" g2gstroke="#312783" stroke-miterlimit="10"/>
<path orgstroke="#000000" orgfill="none" stroke-linecap="round" fill="none" d="M312.459,300.064   l-1.817-1.143c-0.095-0.066-0.224-0.07-0.366-0.004c-0.359,0.143-0.702,0.622-0.763,1.061c-0.036,0.25,0.021,0.436,0.147,0.525   l1.874,1.172" stroke="#000000" stroke-width="0.25" g2gstroke="#312783" stroke-miterlimit="10"/>
<path orgstroke="#000000" orgfill="none" stroke-linecap="round" fill="none" d="M312.649,300.611   c-0.068,0.445-0.402,0.918-0.77,1.061c-0.359,0.139-0.594-0.096-0.542-0.543c0.07-0.445,0.4-0.918,0.767-1.061   C312.463,299.928,312.711,300.168,312.649,300.611z" stroke="#000000" stroke-width="0.25" g2gstroke="#312783" stroke-miterlimit="10"/>
<path orgstroke="#000000" orgfill="none" stroke-linecap="round" fill="none" d="M311.399,299.396   c0.49-0.825,0.812-1.846,0.589-2.444c-0.248-0.656-0.92-1.928-1.475-2.92" stroke="#000000" stroke-width="0.25" g2gstroke="#312783" stroke-miterlimit="10"/>
<path orgstroke="#000000" orgfill="none" stroke-linecap="round" fill="none" d="M301.934,299.09   c0.025,0.047,0.072,0.084,0.139,0.121c0,0,4.08,2.33,4.921,2.746c0.827,0.416,2.618-2.5,2.163-3.704   c-0.247-0.635-0.799-1.752-1.278-2.654" stroke="#000000" stroke-width="0.25" g2gstroke="#312783" stroke-miterlimit="10"/>
<path orgstroke="#000000" orgfill="none" stroke-linecap="round" fill="none" d="M302.884,298.603   c1.122,0.624,3.38,1.883,3.733,2.151c0.479,0.354,1.025-0.027,1.496-0.869c0.479-0.824,0.392-1.534,0-2.309   c-0.165-0.338-0.518-0.979-0.869-1.592" stroke="#000000" stroke-width="0.25" g2gstroke="#312783" stroke-miterlimit="10"/>
<path orgstroke="#000000" orgfill="none" stroke-linecap="round" fill="none" d="M304.81298828125 297.43701171875L308.2929992675781 299.5140075683594" stroke="#000000" stroke-width="0.25" g2gstroke="#312783" stroke-miterlimit="10"/>
<path orgstroke="#000000" orgfill="none" stroke-linecap="round" fill="none" d="M274.292,352.414   l-8.28-5.152c-0.262-0.152-0.614-0.166-1.02-0.01c-1.006,0.402-1.953,1.74-2.138,2.969c-0.097,0.707,0.072,1.215,0.419,1.477   l8.408,5.229" stroke="#000000" stroke-width="0.25" g2gstroke="#312783" stroke-miterlimit="10"/>
<path orgstroke="#000000" orgfill="none" stroke-linecap="round" fill="none" d="M274.81,353.932   c-0.173,1.248-1.13,2.568-2.139,2.977c-1.008,0.402-1.671-0.26-1.496-1.514c0.167-1.236,1.122-2.566,2.128-2.969   C274.313,352.021,274.988,352.695,274.81,353.932z" stroke="#000000" stroke-width="0.25" g2gstroke="#312783" stroke-miterlimit="10"/>
<path orgstroke="#000000" orgfill="none" stroke-linecap="round" fill="none" d="M306.979,334.904   l-3.486-2.172c-0.166-0.096-0.384-0.102-0.635-0.008c-0.614,0.25-1.2,1.059-1.305,1.816c-0.068,0.439,0.045,0.748,0.258,0.912   l3.568,2.219" stroke="#000000" stroke-width="0.25" g2gstroke="#312783" stroke-miterlimit="10"/>
<path orgstroke="#000000" orgfill="none" stroke-linecap="round" fill="none" d="M307.298,335.83   c-0.116,0.758-0.692,1.578-1.308,1.816c-0.617,0.256-1.025-0.164-0.917-0.918c0.113-0.758,0.693-1.578,1.302-1.824   C306.992,334.662,307.403,335.078,307.298,335.83z" stroke="#000000" stroke-width="0.25" g2gstroke="#312783" stroke-miterlimit="10"/>
<path orgstroke="#000000" orgfill="none" stroke-linecap="round" fill="none" d="M356.072,305.957   l-3.485-2.174c-0.164-0.094-0.377-0.105-0.633-0.008c-0.619,0.254-1.205,1.063-1.316,1.824c-0.057,0.432,0.045,0.738,0.259,0.902   l3.57,2.217" stroke="#000000" stroke-width="0.25" g2gstroke="#312783" stroke-miterlimit="10"/>
<path orgstroke="#000000" orgfill="none" stroke-linecap="round" fill="none" d="M356.391,306.887   c-0.113,0.76-0.693,1.576-1.309,1.822c-0.612,0.25-1.019-0.164-0.918-0.928c0.105-0.75,0.695-1.568,1.31-1.818   C356.086,305.717,356.5,306.127,356.391,306.887z" stroke="#000000" stroke-width="0.25" g2gstroke="#312783" stroke-miterlimit="10"/>
<path orgstroke="#000000" orgfill="none" stroke-linecap="round" fill="none" d="M332.206,273.082   c-0.008,0.051-0.023,0.098-0.023,0.145c-0.058,0.43,0.056,0.746,0.258,0.902l3.57,2.219" stroke="#000000" stroke-width="0.25" g2gstroke="#312783" stroke-miterlimit="10"/>
<path orgstroke="#000000" orgfill="none" stroke-linecap="round" fill="none" d="M337.6,273.585   l-1.539-0.965" stroke="#000000" stroke-width="0.25" g2gstroke="#312783" stroke-miterlimit="10"/>
<path orgstroke="#000000" orgfill="none" stroke-linecap="round" fill="none" d="M337.919,274.513   c-0.109,0.76-0.695,1.576-1.31,1.824c-0.615,0.246-1.018-0.166-0.917-0.926c0.105-0.756,0.691-1.572,1.304-1.813   C337.612,273.341,338.024,273.757,337.919,274.513z" stroke="#000000" stroke-width="0.25" g2gstroke="#312783" stroke-miterlimit="10"/>
<path orgstroke="#000000" orgfill="none" stroke-linecap="round" fill="none" d="M321.026,282.958   l1.169,0.729" stroke="#000000" stroke-width="0.25" g2gstroke="#312783" stroke-miterlimit="10"/>
<path orgstroke="#000000" orgfill="none" stroke-linecap="round" fill="none" d="M323.795,280.919   l-1.203-0.75" stroke="#000000" stroke-width="0.25" g2gstroke="#312783" stroke-miterlimit="10"/>
<path orgstroke="#000000" orgfill="none" stroke-linecap="round" fill="none" d="M324.108,281.847   c-0.104,0.762-0.693,1.578-1.306,1.828c-0.614,0.246-1.023-0.166-0.918-0.928c0.113-0.756,0.693-1.57,1.306-1.82   C323.804,280.677,324.219,281.093,324.108,281.847z" stroke="#000000" stroke-width="0.25" g2gstroke="#312783" stroke-miterlimit="10"/>
<path orgstroke="#000000" orgfill="none" stroke-linecap="round" fill="none" d="M391.861,282.111   l-8.28-5.154c-0.264-0.156-0.619-0.17-1.023-0.012c-1.006,0.402-1.954,1.744-2.137,2.977c-0.098,0.701,0.075,1.215,0.414,1.471   l8.416,5.23" stroke="#000000" stroke-width="0.25" g2gstroke="#312783" stroke-miterlimit="10"/>
<path orgstroke="#000000" orgfill="none" stroke-linecap="round" fill="none" d="M392.378,283.626   c-0.18,1.242-1.134,2.566-2.138,2.977c-1.011,0.404-1.675-0.268-1.504-1.512c0.168-1.236,1.129-2.566,2.135-2.975   C391.875,281.716,392.551,282.39,392.378,283.626z" stroke="#000000" stroke-width="0.25" g2gstroke="#312783" stroke-miterlimit="10"/>
<path orgstroke="#000000" orgfill="none" stroke-linecap="round" fill="none" d="M267.145,354.1   c-3.556,0.518-5.761-0.611-5.881-2.537" stroke="#000000" stroke-width="0.25" g2gstroke="#312783" stroke-miterlimit="10"/>
<path orgstroke="#000000" orgfill="none" stroke-linecap="round" fill="none" d="M277.888,350.154   c-1.624,0.709-3.08,1.33-4.272,1.836" stroke="#000000" stroke-width="0.25" g2gstroke="#312783" stroke-miterlimit="10"/>
<path orgstroke="#000000" orgfill="none" stroke-linecap="round" fill="none" d="M286.811,346.234   c-2.174,0.963-4.289,1.898-6.245,2.752" stroke="#000000" stroke-width="0.25" g2gstroke="#312783" stroke-miterlimit="10"/>
<path orgstroke="#000000" orgfill="none" stroke-linecap="round" fill="none" d="M295.586,342.334   c-1.999,0.9-4.071,1.816-6.135,2.738" stroke="#000000" stroke-width="0.25" g2gstroke="#312783" stroke-miterlimit="10"/>
<path orgstroke="#000000" orgfill="none" stroke-linecap="round" fill="none" d="M306.95,337.223   c-2.233,1.012-5.309,2.395-8.728,3.932" stroke="#000000" stroke-width="0.25" g2gstroke="#312783" stroke-miterlimit="10"/>
<path orgstroke="#000000" orgfill="none" stroke-linecap="round" fill="none" d="M277.735,348.732   c0-2.092,0.365-2.123,1.175-1.342c0.809,0.787,7.124,6.875,8.517,8.24c1.392,1.371,1.201,2.066-0.473,1.016   c-1.678-1.061-8.18-5.645-8.687-6.035C277.758,350.213,277.735,349.857,277.735,348.732z" stroke="#000000" stroke-width="0.25" g2gstroke="#312783" stroke-miterlimit="10"/>
<path orgstroke="#000000" orgfill="none" stroke-linecap="round" fill="none" d="M274.275,355.387   c1.597,1.541,3.121,3.016,3.718,3.602c1.396,1.373,1.201,2.068-0.473,1.01c-0.822-0.518-2.791-1.877-4.641-3.176" stroke="#000000" stroke-width="0.25" g2gstroke="#312783" stroke-miterlimit="10"/>
<path orgstroke="#000000" orgfill="none" stroke-linecap="round" fill="none" d="M286.684,344.869   c0-2.092,0.363-2.123,1.171-1.342c0.808,0.785,7.12,6.873,8.521,8.236c1.388,1.369,1.201,2.066-0.481,1.016   c-1.666-1.059-8.168-5.643-8.685-6.037C286.702,346.348,286.684,345.992,286.684,344.869z" stroke="#000000" stroke-width="0.25" g2gstroke="#312783" stroke-miterlimit="10"/>
<path orgstroke="#000000" orgfill="none" stroke-linecap="round" fill="none" d="M295.43,340.699   c0-2.092,0.352-2.127,1.163-1.34c0.805,0.779,7.126,6.871,8.517,8.238c1.396,1.373,1.205,2.064-0.477,1.012   c-1.666-1.061-8.167-5.643-8.685-6.035C295.45,342.18,295.43,341.828,295.43,340.699z" stroke="#000000" stroke-width="0.25" g2gstroke="#312783" stroke-miterlimit="10"/>
<path orgstroke="#000000" orgfill="none" stroke-linecap="round" fill="none" d="M306.737,334.842   c0.075-1.344,0.447-1.271,1.152-0.594c0.809,0.783,7.119,6.865,8.518,8.236c1.397,1.371,1.201,2.066-0.474,1.014   c-1.676-1.059-8.175-5.633-8.685-6.035c-0.212-0.164-0.344-0.311-0.419-0.525" stroke="#000000" stroke-width="0.25" g2gstroke="#312783" stroke-miterlimit="10"/>
<path orgstroke="#000000" orgfill="none" stroke-linecap="round" fill="none" d="M359.391,303.412   c0-2.094,0.362-2.121,1.17-1.34c0.803,0.779,7.119,6.873,8.518,8.24c1.395,1.371,1.2,2.057-0.479,1.012   c-1.672-1.064-8.175-5.643-8.686-6.035C359.407,304.893,359.391,304.539,359.391,303.412z" stroke="#000000" stroke-width="0.25" g2gstroke="#312783" stroke-miterlimit="10"/>
<path orgstroke="#000000" orgfill="none" stroke-linecap="round" fill="none" d="M366.263,298.294   c0-2.094,0.359-2.123,1.171-1.34c0.807,0.785,7.117,6.872,8.516,8.243c1.397,1.367,1.201,2.063-0.478,1.008   c-1.675-1.061-8.173-5.645-8.683-6.033C366.287,299.775,366.263,299.42,366.263,298.294z" stroke="#000000" stroke-width="0.25" g2gstroke="#312783" stroke-miterlimit="10"/>
<path orgstroke="#000000" orgfill="none" stroke-linecap="round" fill="none" d="M372.619,292.576   c0-2.096,0.362-2.123,1.167-1.342c0.821,0.781,7.126,6.871,8.525,8.241c1.396,1.379,1.205,2.064-0.479,1.014   c-1.671-1.063-8.169-5.643-8.68-6.034C372.637,294.056,372.619,293.705,372.619,292.576z" stroke="#000000" stroke-width="0.25" g2gstroke="#312783" stroke-miterlimit="10"/>
<path orgstroke="#000000" orgfill="none" stroke-linecap="round" fill="none" d="M379.666,287.458   c0-2.094,0.361-2.121,1.167-1.34c0.821,0.777,7.126,6.873,8.525,8.24c1.392,1.371,1.205,2.066-0.479,1.008   c-1.683-1.059-8.173-5.643-8.678-6.033C379.68,288.941,379.666,288.585,379.666,287.458z" stroke="#000000" stroke-width="0.25" g2gstroke="#312783" stroke-miterlimit="10"/>
<path orgstroke="#000000" orgfill="none" stroke-linecap="round" fill="none" d="M349.873,309.838   c0-2.094,0.364-2.129,1.177-1.342c0.808,0.779,7.12,6.867,8.52,8.238c1.395,1.373,1.201,2.068-0.483,1.014   c-1.671-1.063-8.168-5.641-8.682-6.043C349.889,311.32,349.873,310.965,349.873,309.838z" stroke="#000000" stroke-width="0.25" g2gstroke="#312783" stroke-miterlimit="10"/>
<path orgstroke="#000000" orgfill="none" stroke-linecap="round" fill="none" d="M257.87,305.291   c1.59,1.277,3.924,3.143,4.281,3.434c1.751,1.398,2.566,2.055,7.37,1.059l1.159-0.238c4.595-1.281,10.234-3.318,19.833-6.959   c4.706-1.775,8.308-3.367,11.146-4.885c3.729-2.254,10.157-6.098,12.779-7.605c4.581-2.639,5.767-12.426,12.144-16.182   c9.956-5.85,14.541,1.021,18.519-0.678c3.965-1.697,17.108-10.057,22.335-13.646c3.121-2.146,6.838-4.746,11.45-8.518   c3.859-3.164,6.58-5.508,8.492-7.504l1.322-1.559c4.019-4.506,2.927-9.955,0.023-15.195c-0.92-1.67-1.813-2.215-7.124-3.506" stroke="#000000" stroke-width="0.25" g2gstroke="#312783" stroke-miterlimit="10"/>
<path orgstroke="#000000" orgfill="none" stroke-linecap="round" fill="none" d="M392.533,236.654   c0.253,1.426,2.141,3.701,5.908,10.33c4.097,7.189,4.72,18.209,2.414,30.883c-2.042,11.195-4.623,15.664-10.429,21.323   c-4.654,4.539-26.589,19.807-29.348,21.744c-0.097,0.072-0.193,0.133-0.289,0.195l-0.306,0.205   c-1.718,1.338-1.623,3.125-3.07,4.262c-1.449,1.137-25.997,15.535-29.105,17.121c-3.106,1.592-3.618-0.168-6.39,1.438l-0.396,0.211   c-4.736,2.449-34.508,15.934-39.279,17.725c-5.082,1.906-11.676,2.303-16.475-0.557c-4.803-2.852-4.806-9.443-4.806-22.051   c0-6.924-2.063-10.613-5.596-17.205c-3.542-6.596-7.366-11.84-8.646-13.678c-1.284-1.844-5.831-6.719-5.831-6.719" stroke="#000000" stroke-width="0.25" g2gstroke="#312783" stroke-miterlimit="10"/>
<path orgstroke="#000000" orgfill="none" stroke-linecap="round" fill="none" d="M398.01,254.259   c-2.937,0-7.503-0.289-9.129-0.494c-0.289-0.027-0.709,0.023-0.822,0.217c-0.837,0.857-1.824,1.787-2.986,2.816   c-0.212,0.189-0.385,0.666-0.385,1.004c0,0.246-0.005,0.418-0.022,0.596c0,0.307,0.022,0.531,0.446,0.529   c2.979-0.02,11.23-2.057,13.348-2.791c0.211-0.072,0.438-0.242,0.334-0.639c-0.045-0.211-0.094-0.426-0.137-0.635   C398.582,254.548,398.398,254.259,398.01,254.259z" stroke="#000000" stroke-width="0.25" g2gstroke="#312783" stroke-miterlimit="10"/>
<path orgstroke="#000000" orgfill="none" stroke-linecap="round" fill="none" d="M377.891,267.679   c-21.083,16.363-70.122,44.057-103.367,58.614" stroke="#000000" stroke-width="0.25" g2gstroke="#312783" stroke-miterlimit="10"/>
<path orgstroke="#000000" orgfill="none" stroke-linecap="round" fill="none" d="M282.766,311.66   c-0.965,0.447-1.908,0.879-2.851,1.313" stroke="#000000" stroke-width="0.25" g2gstroke="#312783" stroke-miterlimit="10"/>
<path orgstroke="#000000" orgfill="none" stroke-linecap="round" fill="none" d="M311.849,297.132   c-0.872,0.455-1.753,0.918-2.627,1.381" stroke="#000000" stroke-width="0.25" g2gstroke="#312783" stroke-miterlimit="10"/>
<path orgstroke="#000000" orgfill="none" stroke-linecap="round" fill="none" d="M353.978,273.009   c-0.92,0.574-1.85,1.154-2.787,1.725" stroke="#000000" stroke-width="0.25" g2gstroke="#312783" stroke-miterlimit="10"/>
<path orgstroke="#000000" orgfill="none" stroke-linecap="round" fill="none" d="M377.913,256.757   c-0.873,0.676-1.796,1.375-2.768,2.092" stroke="#000000" stroke-width="0.25" g2gstroke="#312783" stroke-miterlimit="10"/>
<path orgstroke="#000000" orgfill="none" stroke-linecap="round" fill="none" d="M375.442,263.623   c-20.158,16.355-72.127,46.016-106.443,60.827" stroke="#000000" stroke-width="0.25" g2gstroke="#312783" stroke-miterlimit="10"/>
<path orgstroke="#000000" orgfill="none" stroke-linecap="round" fill="none" d="M351.746,276.519   c-0.685,0.434-1.378,0.865-2.079,1.295" stroke="#000000" stroke-width="0.25" g2gstroke="#312783" stroke-miterlimit="10"/>
<path orgstroke="#000000" orgfill="none" stroke-linecap="round" fill="none" d="M375.442,260.087   c-0.683,0.547-1.28,0.904-2.042,1.482" stroke="#000000" stroke-width="0.25" g2gstroke="#312783" stroke-miterlimit="10"/>
<path orgstroke="#000000" orgfill="none" stroke-linecap="round" fill="none" d="M309.874,300.646   c-0.824,0.447-1.67,0.9-2.503,1.346" stroke="#000000" stroke-width="0.25" g2gstroke="#312783" stroke-miterlimit="10"/>
<path orgstroke="#000000" orgfill="none" stroke-linecap="round" fill="none" d="M350.042,311.293   c-1.322,0.922-2.284,1.596-2.729,1.912c-0.096,0.074-0.192,0.133-0.288,0.195l-0.305,0.193c-1.721,1.344-1.629,3.131-3.086,4.268   c-1.439,1.137-25.992,15.533-29.096,17.119c-2.53,1.295-3.344,0.359-5.061,0.848" stroke="#000000" stroke-width="0.25" g2gstroke="#312783" stroke-miterlimit="10"/>
<path orgstroke="#000000" orgfill="none" stroke-linecap="round" fill="none" d="M354.062,308.459   c-0.619,0.438-1.208,0.854-1.767,1.244" stroke="#000000" stroke-width="0.25" g2gstroke="#312783" stroke-miterlimit="10"/>
<path orgstroke="#000000" orgfill="none" stroke-linecap="round" fill="none" d="M359.458,304.611   c-1.016,0.73-2.024,1.447-2.99,2.141" stroke="#000000" stroke-width="0.25" g2gstroke="#312783" stroke-miterlimit="10"/>
<path orgstroke="#000000" orgfill="none" stroke-linecap="round" fill="none" d="M366.36,299.592   c-1.553,1.145-3.166,2.32-4.771,3.482" stroke="#000000" stroke-width="0.25" g2gstroke="#312783" stroke-miterlimit="10"/>
<path orgstroke="#000000" orgfill="none" stroke-linecap="round" fill="none" d="M373.139,294.439   c-1.345,1.064-2.931,2.283-4.633,3.555" stroke="#000000" stroke-width="0.25" g2gstroke="#312783" stroke-miterlimit="10"/>
<path orgstroke="#000000" orgfill="none" stroke-linecap="round" fill="none" d="M379.68,288.25   c-0.9,1.064-1.904,2.115-3.029,3.209c-0.353,0.355-0.817,0.76-1.365,1.227" stroke="#000000" stroke-width="0.25" g2gstroke="#312783" stroke-miterlimit="10"/>
<path orgstroke="#000000" orgfill="none" stroke-linecap="round" fill="none" d="M383.262,282.9   c-0.635,1.252-1.343,2.402-2.137,3.506" stroke="#000000" stroke-width="0.25" g2gstroke="#312783" stroke-miterlimit="10"/>
<path orgstroke="#000000" orgfill="none" stroke-linecap="round" fill="none" d="M388.372,258.597   c-0.118,3.631-0.557,7.5-1.293,11.537c-0.551,3.064-1.154,5.623-1.854,7.844" stroke="#000000" stroke-width="0.25" g2gstroke="#312783" stroke-miterlimit="10"/>
<path orgstroke="#000000" orgfill="none" stroke-linecap="round" fill="none" d="M387.289,246.08   c0.567,2.338,0.916,4.885,1.053,7.607" stroke="#000000" stroke-width="0.25" g2gstroke="#312783" stroke-miterlimit="10"/>
<path orgstroke="#000000" orgfill="none" stroke-linecap="round" fill="none" d="M309.9330139160156 335.73199462890625L323.46099853515625 343.50799560546875" stroke="#000000" stroke-width="0.25" g2gstroke="#312783" stroke-miterlimit="10"/>
<path orgstroke="#000000" orgfill="none" stroke-linecap="round" fill="none" d="M345.9989929199219 314.37298583984375L359.52899169921875 322.1499938964844" stroke="#000000" stroke-width="0.25" g2gstroke="#312783" stroke-miterlimit="10"/>
<path orgstroke="#000000" orgfill="none" stroke-linecap="round" fill="none" d="M315.5350036621094 335.8070068359375L326.25201416015625 341.9729919433594" stroke="#000000" stroke-width="0.25" g2gstroke="#312783" stroke-miterlimit="10"/>
<path orgstroke="#000000" orgfill="none" stroke-linecap="round" fill="none" d="M374.903,260.587   l0.354,2c0.128,0.73,0.541,1.246,0.939,1.479l2.406,1.389c0.635,0.357,1.016,1.094,1.016,1.725v13.064" stroke="#000000" stroke-width="0.25" g2gstroke="#312783" stroke-miterlimit="10"/>
<path orgstroke="#000000" orgfill="none" stroke-linecap="round" fill="none" d="M345.2699890136719 318.260009765625L356 324.42401123046875" stroke="#000000" stroke-width="0.25" g2gstroke="#312783" stroke-miterlimit="10"/>
<path orgstroke="#000000" orgfill="none" stroke-linecap="round" fill="none" d="M347.375,326.016   c0.968,0.559,0.85,1.535-0.27,2.189l-13.327,7.693c-1.118,0.646-2.813,0.717-3.778,0.154l-4.766-2.746   c-0.968-0.561-0.85-1.535,0.262-2.193l13.336-7.695c1.112-0.645,2.808-0.711,3.778-0.154L347.375,326.016z" stroke="#000000" stroke-width="0.25" g2gstroke="#312783" stroke-miterlimit="10"/>
<path orgstroke="#000000" orgfill="none" stroke-linecap="round" fill="none" d="M347.865,326.463   c0.398-0.424,8.162-0.072,9.942-1.219" stroke="#000000" stroke-width="0.25" g2gstroke="#312783" stroke-miterlimit="10"/>
<path orgstroke="#000000" orgfill="none" stroke-linecap="round" fill="none" d="M331.042,336.381   c-0.433,0.195-3.242,6.783-4.904,7.035" stroke="#000000" stroke-width="0.25" g2gstroke="#312783" stroke-miterlimit="10"/>
<path orgstroke="#000000" orgfill="none" stroke-linecap="round" fill="none" d="M310.661,311.41   c0,0,2.244,1.295,2.473,1.432c0.235,0.137,0.261,0.148,0.261,0.398c0,0.236,0,3.135,0,3.135v0.072c0,0,0.018,0.152-0.139,0.238   c-0.154,0.088-2.543,1.471-2.659,1.527c-0.117,0.072-0.306,0.072-0.415,0.012c-0.111-0.07-2.452-1.426-2.563-1.48   c-0.118-0.064-0.118-0.211-0.118-0.211s0-3.121,0-3.289c0-0.176,0.038-0.199,0.118-0.244c0.126-0.072,2.519-1.455,2.707-1.572   C310.528,311.322,310.661,311.41,310.661,311.41z" stroke="#000000" stroke-width="0.25" g2gstroke="#312783" stroke-miterlimit="10"/>
<path orgstroke="#000000" orgfill="none" stroke-linecap="round" fill="none" d="M307.518,313.059   l2.775,1.605c0,0,0.166,0.135,0.432,0l2.549-1.467" stroke="#000000" stroke-width="0.25" g2gstroke="#312783" stroke-miterlimit="10"/>
<path orgstroke="#000000" orgfill="none" stroke-linecap="round" fill="none" d="M310.4580078125 318.2560119628906L310.4580078125 314.66400146484375" stroke="#000000" stroke-width="0.25" g2gstroke="#312783" stroke-miterlimit="10"/>
<path orgstroke="#000000" orgfill="none" stroke-linecap="round" fill="none" d="M333.002,316.84   l-7.273,4.135c-0.467,0.27-0.587,0.426-0.587,0.777v4.777c0,0.389,0.218,0.564,0.58,0.361c0.519-0.307,6.869-3.904,7.355-4.188   c0.321-0.182,0.496-0.4,0.496-0.938c0-0.539,0-3.9,0-4.525C333.584,316.875,333.354,316.637,333.002,316.84z" stroke="#000000" stroke-width="0.25" g2gstroke="#312783" stroke-miterlimit="10"/>
<path orgstroke="#000000" orgfill="none" stroke-linecap="round" fill="none" d="M325.333,326.969   l-1.866-1.064h-0.011c-0.101-0.072-0.154-0.213-0.154-0.402v-4.777c0-0.354,0.115-0.506,0.589-0.777l7.327-4.16   c0.144-0.08,0.259-0.092,0.355-0.051l1.821,1.055" stroke="#000000" stroke-width="0.25" g2gstroke="#312783" stroke-miterlimit="10"/>
<path orgstroke="#000000" orgfill="none" stroke-linecap="round" fill="none" d="M350.07,289.699   c0,0,2.249,1.295,2.479,1.436c0.235,0.135,0.266,0.145,0.266,0.389c0,0.238,0,3.145,0,3.145v0.07c0,0,0.019,0.154-0.136,0.238   c-0.16,0.092-2.54,1.473-2.66,1.531c-0.117,0.072-0.306,0.072-0.417,0c-0.112-0.064-2.451-1.418-2.563-1.479   c-0.104-0.061-0.116-0.211-0.116-0.211s0-3.111,0-3.277c0-0.176,0.037-0.207,0.116-0.252c0.13-0.07,2.52-1.447,2.708-1.566   C349.946,289.613,350.07,289.699,350.07,289.699z" stroke="#000000" stroke-width="0.25" g2gstroke="#312783" stroke-miterlimit="10"/>
<path orgstroke="#000000" orgfill="none" stroke-linecap="round" fill="none" d="M346.934,291.349   l2.763,1.604c0,0,0.165,0.137,0.443,0l2.538-1.467" stroke="#000000" stroke-width="0.25" g2gstroke="#312783" stroke-miterlimit="10"/>
<path orgstroke="#000000" orgfill="none" stroke-linecap="round" fill="none" d="M349.875 296.5419921875L349.875 292.9549865722656" stroke="#000000" stroke-width="0.25" g2gstroke="#312783" stroke-miterlimit="10"/>
<path orgstroke="#000000" orgfill="none" stroke-linecap="round" fill="none" d="M278.1820068359375 299.91400146484375L285.8299865722656 304.3550109863281" stroke="#000000" stroke-width="0.25" g2gstroke="#312783" stroke-miterlimit="10"/>
<path orgstroke="#000000" orgfill="none" stroke-linecap="round" fill="none" d="M381.5979919433594 223.30999755859375L382.87799072265625 221.16600036621094" stroke="#000000" stroke-width="0.25" g2gstroke="#312783" stroke-miterlimit="10"/>
<path orgstroke="#000000" orgfill="none" stroke-linecap="round" fill="none" d="M332.043,318.17   l-5.346,3.037c-0.351,0.199-0.44,0.316-0.44,0.574v3.512c0,0.285,0.171,0.42,0.44,0.268c0.38-0.223,5.048-2.885,5.401-3.082   c0.237-0.135,0.37-0.291,0.37-0.691c0-0.396,0-2.869,0-3.318C332.467,318.195,332.302,318.018,332.043,318.17z" stroke="#000000" stroke-width="0.25" g2gstroke="#312783" stroke-miterlimit="10"/>
<path orgstroke="#000000" orgfill="none" stroke-linecap="round" fill="none" d="M272.993,340.918   v-12.457c0-0.543-0.483-1.797-1.284-2.262l-1.821-1.047c-0.63-0.363-1.124-1.061-1.244-1.789l-2.09-11.797" stroke="#000000" stroke-width="0.25" g2gstroke="#312783" stroke-miterlimit="10"/>
<path orgstroke="#000000" orgfill="none" stroke-linecap="round" fill="none" d="M264.868,311.48   l2.232,12.609c0.156,0.869,0.693,1.586,1.466,2.031l1.512,0.871c0.564,0.326,1.342,1.096,1.342,2.301v10.287   c0,0.332,0.135,0.66,0.442,0.838l0.603,0.344c0.25,0.154,0.604,0.258,1.22-0.012c34.329-14.918,86.136-44.284,106.154-60.516" stroke="#000000" stroke-width="0.25" g2gstroke="#312783" stroke-miterlimit="10"/>
<path orgstroke="#000000" orgfill="none" stroke-linecap="round" fill="none" d="M384.782,257.308   c2.642,0.35,12.856-2.309,13.674-2.842" stroke="#000000" stroke-width="0.25" g2gstroke="#312783" stroke-miterlimit="10"/>
</g>
</g>
</g>
</g></svg>