<svg xmlns="http://www.w3.org/2000/svg" xmlns:xlink="http://www.w3.org/1999/xlink" xmlns:etg="http://www.eurotaxglass.com/etg/evd/" etg:dataTimestamp="1539068912893" contentScriptType="text/ecmascript" zoomAndPan="magnify" contentStyleType="text/css" id="Layer_1" enable-background="new 0 0 1841.891 1595.279" version="1.1" xml:space="preserve" width="1841.891px" preserveAspectRatio="xMidYMid meet" viewBox="0 0 1841.891 1595.279" height="1595.279px" x="0px" y="0px"><g xmlns="http://www.w3.org/2000/svg" objecttype="PS" tooltip="#UNDEFINED" id="127">
<g onmouseover="notifyOwner(AGV_OBJECT_MOUSEOVER, '127(PS)')" transform="translate(-1.0864257831144641E-5, 66.80804286193847) translate(-478.1112626953125, -9.244252822875978) translate(59.0, -37.0) translate(572.0, -62.0) translate(10.0, 10.00006103515625)" onclick="clickZoom(evt); notifyOwner(AGV_OBJECT_MOUSECLICK, '127(PS)')" onmouseout="notifyOwner(AGV_OBJECT_MOUSEOUT, '127(PS)')" tooltip="#UNDEFINED" id="127-Graphic" objecttype="GRAPHIC">
<g zvalue="25">
<g>
<path stroke-linecap="round" orgstroke="#000000" orgfill="#ffffff" fill="#ffffff" g2gfill="#ECF5E4" stroke-linejoin="round" d="   M404.257,258.236c-0.806,0.57-6.535,2.6-8.19,3.1c-0.068,0.021-0.336,0.01-0.181,0.205c0.278,0.355,0.396,0.676,0.421,1.131   c0.042,0.729,0.07,1.443-0.209,1.961c-0.277,0.521-2,3.217-2.342,3.941c-0.191,0.4-0.517,0.619-0.817,0.734l-0.125,0.045   c-0.461,0.078-1.318,0.23-1.445,0.23c-0.251,0-1.244,0-2.312-0.043c-1.07-0.045-1.809-0.105-2.46-0.531   c-0.454-0.297-2.248-1.363-3.284-1.98c-0.379-0.229-0.061,0.084-0.061,0.084c0.377,0.371,0.717,0.738,0.766,0.973l0.096,0.053   c0.616,0.371,1.059,1.15,1.059,2.053c0,1.182-0.73,2.15-1.675,2.275l-0.12,0.016l-0.779,0.064l-0.296,0.078   c-0.523,0.117-0.802,0.145-1.068,0.162c-0.903,0.068-1.577-0.404-1.79-0.768c-0.566-0.99-0.179-2.014-0.204-3.051   c-0.026-1.035-0.353-1.232-0.79-1.707c-0.436-0.469-4.951-3.092-5.659-3.447c-0.289-0.152-0.663-0.211-1.024-0.209l-0.144,0.055   c-0.073,0.029-0.153,0.066-0.222,0.105c-0.457,0.275-1.219,1.154-1.566,1.533c0,0-0.044,0.176,0.058,0.354   c0.253,0.438,0.258,0.973,0.297,1.25c0.045,0.313-0.022,1.141-0.646,1.861l-0.002,0.066c-0.047,1.123-0.762,2.035-1.666,2.162   l-0.123,0.016l-0.773,0.066l-0.086,0.012c-0.155-0.016-0.29-0.049-0.424-0.104l-0.165-0.072c-1.038,0-1.953-1.338-2.108-1.621   c-0.363-0.623-0.516-1.131-0.078-1.65c0.426-0.518,1.184-1.377,1.33-1.572c0.149-0.197,0.308-1.158,0-1.551   c-0.309-0.391-0.521-0.703-0.716-1.061c-0.195-0.357-0.197-0.834,0.194-1.412c0.303-0.455,3.287-5.602,3.616-6.088   c0.495-0.746,1.732-1.578,3.292-2.176c0.137-0.053,0.377-0.137,0.521-0.137l1.184-0.229l0.185-0.025l0.538-0.451l0.08-0.051   c0.037-0.027,0.076-0.053,0.125-0.076c0.438-0.246,0.943-0.297,1.448-0.178l0.061-0.02c0.272-0.084,0.569-0.084,0.856-0.014   l0.219-0.09c0.733-0.602,1.436-1.146,1.436-1.146l0.099-0.086c0.047-0.039,0.093-0.072,0.147-0.104   c0.275-0.16,0.63-0.152,0.954-0.004l0.189-0.143c0.927-0.754,2.1-1.684,2.1-1.684l0.11-0.045c0.283-0.084,0.645,0.088,0.844,0.434   c0.152,0.279,0.167,0.592,0.048,0.809l-0.032,0.063c0,0-0.563,0.455-1.202,0.971c-0.237,0.195-0.012,0.119,0.464,0.197   c1.017,0.15,2.695,0.773,3.334,1.105c0.717,0.375,2.051-0.555,3.156-0.582c1.114-0.023,1.952,2.121,4.425,1.885   c2.472-0.236,7.933-1.092,8.696-1.229c0.771-0.135,2.487,0.145,2.83,0.826l0.067,0.088c0.655,0.363,1.109,1.156,1.109,2.082   c0,1.053-0.586,1.936-1.376,2.205L404.257,258.236z" stroke="#000000" outline-element="true" stroke-width="0.5" g2gstroke="#312783" stroke-miterlimit="10"/>
<path orgstroke="#000000" orgfill="none" stroke-linecap="round" fill="none" stroke-linejoin="round" d="   M382.67,272.554c-1.138,0.316-2.014-0.256-2.259-0.682c-0.565-0.992-0.179-2.016-0.208-3.053c-0.028-1.037-0.367-1.223-0.783-1.707   c-0.431-0.49-4.953-3.096-5.662-3.451c-0.615-0.313-1.561-0.238-2.15-0.002" stroke="#000000" stroke-width="0.25" g2gstroke="#312783" stroke-miterlimit="10"/>
<path orgstroke="#000000" orgfill="none" stroke-linecap="round" fill="none" stroke-linejoin="round" d="   M382.887,250.541c-0.046,0.084-0.108,0.15-0.195,0.195c-0.301,0.172-0.725,0-0.943-0.391c-0.225-0.383-0.153-0.838,0.147-1.012   c0.033-0.023,0.067-0.033,0.112-0.043" stroke="#000000" stroke-width="0.25" g2gstroke="#312783" stroke-miterlimit="10"/>
<path orgstroke="#000000" orgfill="none" stroke-linecap="round" fill="none" stroke-linejoin="round" d="   M381.656,251.57c-0.616,0.498-1.274,1.092-1.882,1.543c-0.279,0.207-0.725,0-0.944-0.391c-0.225-0.385-0.11-0.783,0.153-1.01   c0.164-0.141,0.393-0.328,0.65-0.543" stroke="#000000" stroke-width="0.25" g2gstroke="#312783" stroke-miterlimit="10"/>
<path orgstroke="#000000" orgfill="none" stroke-linecap="round" fill="none" stroke-linejoin="round" d="   M380.565,252.496c0.064,0.492-0.109,0.947-0.486,1.16c-0.535,0.303-1.289-0.002-1.68-0.689c-0.354-0.623-0.285-1.342,0.125-1.697" stroke="#000000" stroke-width="0.25" g2gstroke="#312783" stroke-miterlimit="10"/>
<path orgstroke="#000000" orgfill="none" stroke-linecap="round" fill="none" stroke-linejoin="round" d="   M380.159,253.605c0,0-1.859,1.539-2.783,2.295c-0.455,0.367-1.237-0.066-1.618-0.723c-0.305-0.541-0.296-1.148-0.025-1.537   c0,0,0.086-0.137,0.126-0.17c0.314-0.281,0.727-0.627,1.135-0.963" stroke="#000000" stroke-width="0.25" g2gstroke="#312783" stroke-miterlimit="10"/>
<path orgstroke="#000000" orgfill="none" stroke-linecap="round" fill="none" stroke-linejoin="round" d="   M378.573,254.947c0.03,0.672-0.234,1.275-0.758,1.578c-0.817,0.465-1.967-0.006-2.566-1.055c-0.599-1.053-0.415-2.277,0.41-2.748   c0.08-0.049,0.171-0.086,0.262-0.111" stroke="#000000" stroke-width="0.25" g2gstroke="#312783" stroke-miterlimit="10"/>
<path orgstroke="#000000" orgfill="none" stroke-linecap="round" fill="none" stroke-linejoin="round" d="   M377.954,256.427l-1.015,0.811c-0.819,0.463-1.969-0.002-2.57-1.059c-0.493-0.867-0.455-1.861,0.043-2.441l0.1-0.098l0.933-0.773" stroke="#000000" stroke-width="0.25" g2gstroke="#312783" stroke-miterlimit="10"/>
<path orgstroke="#000000" orgfill="none" stroke-linecap="round" fill="none" stroke-linejoin="round" d="   M378.311,256.039c-0.028,0.789-0.377,1.479-1.013,1.836c-1.093,0.627-2.627-0.004-3.423-1.406   c-0.768-1.346-0.573-2.918,0.418-3.588" stroke="#000000" stroke-width="0.25" g2gstroke="#312783" stroke-miterlimit="10"/>
<path orgstroke="#000000" orgfill="none" stroke-linecap="round" fill="none" stroke-linejoin="round" d="   M377.423,257.794l-1.334,1.104l-0.122,0.082c-1.095,0.625-2.627-0.004-3.425-1.406c-0.718-1.238-0.595-2.674,0.206-3.414   l0.928-0.775" stroke="#000000" stroke-width="0.25" g2gstroke="#312783" stroke-miterlimit="10"/>
<ellipse orgstroke="#000000" stroke="#000000" stroke-linecap="round" transform="matrix(0.8087 0.5882 -0.5882 0.8087 225.4441 -174.9987)" stroke-miterlimit="10" orgfill="none" fill="none" stroke-width="0.25" stroke-linejoin="round" cx="381.778" rx="1.414" g2gstroke="#312783" ry="1.256" cy="259.116"/>
<path orgstroke="#000000" orgfill="none" stroke-linecap="round" fill="none" stroke-linejoin="round" d="   M381.313,259.781c-0.28-0.203-0.361-0.568-0.181-0.814c0.179-0.248,0.552-0.283,0.831-0.08c0.28,0.205,0.359,0.568,0.182,0.816   C381.963,259.947,381.593,259.982,381.313,259.781z" stroke="#000000" stroke-width="0.25" g2gstroke="#312783" stroke-miterlimit="10"/>
<path orgstroke="#000000" orgfill="none" stroke-linecap="round" fill="none" stroke-linejoin="round" d="   M378.566,255.21c1.565-0.711,3.574-0.508,5.204,0.67c2.301,1.678,2.951,4.688,1.469,6.725c-1.493,2.041-4.559,2.336-6.853,0.664   c-1.479-1.078-2.278-2.703-2.271-4.271" stroke="#000000" stroke-width="0.25" g2gstroke="#312783" stroke-miterlimit="10"/>
<path orgstroke="#000000" orgfill="none" stroke-linecap="round" fill="none" stroke-linejoin="round" d="   M381.829,260.425c0,1.064-0.713,3.352-1.531,3.758" stroke="#000000" stroke-width="0.25" g2gstroke="#312783" stroke-miterlimit="10"/>
<path orgstroke="#000000" orgfill="none" stroke-linecap="round" fill="none" stroke-linejoin="round" d="   M380.852,254.814c0.453,0.496,0.975,1.119,0.975,2.992" stroke="#000000" stroke-width="0.25" g2gstroke="#312783" stroke-miterlimit="10"/>
<path orgstroke="#000000" orgfill="none" stroke-linecap="round" fill="none" stroke-linejoin="round" d="   M382.96,258.501c0.175-0.094,1.658-1.186,1.612-1.799" stroke="#000000" stroke-width="0.25" g2gstroke="#312783" stroke-miterlimit="10"/>
<path orgstroke="#000000" orgfill="none" stroke-linecap="round" fill="none" stroke-linejoin="round" d="   M377.233,262.156c0.464-0.264,3.044-1.859,3.684-2.133" stroke="#000000" stroke-width="0.25" g2gstroke="#312783" stroke-miterlimit="10"/>
<path orgstroke="#000000" orgfill="none" stroke-linecap="round" fill="none" stroke-linejoin="round" d="   M382.893,260.039c0.799,0.6,1.566,1.25,1.887,1.719c0.396,0.576,0.344,0.996,0.344,0.996" stroke="#000000" stroke-width="0.25" g2gstroke="#312783" stroke-miterlimit="10"/>
<path orgstroke="#000000" orgfill="none" stroke-linecap="round" fill="none" stroke-linejoin="round" d="   M377.604,257.654c0.567-0.053,2.301,0.543,2.955,0.846" stroke="#000000" stroke-width="0.25" g2gstroke="#312783" stroke-miterlimit="10"/>
<ellipse orgstroke="#000000" stroke="#000000" stroke-linecap="round" stroke-miterlimit="10" orgfill="none" fill="none" stroke-width="0.25" stroke-linejoin="round" cx="368.055" rx="0.67" g2gstroke="#312783" cy="268.858" ry="0.808"/>
<ellipse orgstroke="#000000" stroke="#000000" stroke-linecap="round" stroke-miterlimit="10" orgfill="none" fill="none" stroke-width="0.25" stroke-linejoin="round" cx="367.639" rx="1.253" g2gstroke="#312783" cy="268.714" ry="1.52"/>
<path orgstroke="#000000" orgfill="none" stroke-linecap="round" fill="none" stroke-linejoin="round" d="   M367.856,270.988c-0.071,0.01-0.147,0.016-0.217,0.016c-1.049,0-1.887-1.025-1.887-2.287c0-1.268,0.849-2.291,1.887-2.291   c1.042,0,1.885,1.023,1.885,2.291c0,0.037,0,0.074-0.002,0.111" stroke="#000000" stroke-width="0.25" g2gstroke="#312783" stroke-miterlimit="10"/>
<path orgstroke="#000000" orgfill="none" stroke-linecap="round" fill="none" stroke-linejoin="round" d="M367.5199890136719 266.4389953613281L366.6310119628906 266.5660095214844" stroke="#000000" stroke-width="0.25" g2gstroke="#312783" stroke-miterlimit="10"/>
<path orgstroke="#000000" orgfill="none" stroke-linecap="round" fill="none" stroke-linejoin="round" d="   M366.434,270.976c-0.76-0.295-1.317-1.158-1.317-2.184c0-1.039,0.571-1.916,1.354-2.195l0.16-0.031l0.887-0.129" stroke="#000000" stroke-width="0.25" g2gstroke="#312783" stroke-miterlimit="10"/>
<ellipse orgstroke="#000000" stroke="#000000" stroke-linecap="round" stroke-miterlimit="10" orgfill="none" fill="none" stroke-width="0.25" stroke-linejoin="round" cx="383.697" rx="0.669" g2gstroke="#312783" cy="270.339" ry="0.809"/>
<ellipse orgstroke="#000000" stroke="#000000" stroke-linecap="round" stroke-miterlimit="10" orgfill="none" fill="none" stroke-width="0.25" stroke-linejoin="round" cx="383.278" rx="1.25" g2gstroke="#312783" cy="270.196" ry="1.521"/>
<path orgstroke="#000000" orgfill="none" stroke-linecap="round" fill="none" stroke-linejoin="round" d="   M383.486,272.47c-0.064,0.012-0.14,0.016-0.212,0.016c-1.039,0-1.88-1.025-1.88-2.289c0-1.266,0.844-2.291,1.88-2.291   c0.301,0,0.584,0.082,0.833,0.236" stroke="#000000" stroke-width="0.25" g2gstroke="#312783" stroke-miterlimit="10"/>
<path orgstroke="#000000" orgfill="none" stroke-linecap="round" fill="none" stroke-linejoin="round" d="   M382.586,272.548l-0.087,0.012c-0.976-0.09-1.745-1.076-1.745-2.283c0-1.037,0.57-1.916,1.351-2.195l0.174-0.029l0.876-0.127" stroke="#000000" stroke-width="0.25" g2gstroke="#312783" stroke-miterlimit="10"/>
<ellipse orgstroke="#000000" stroke="#000000" stroke-linecap="round" stroke-miterlimit="10" orgfill="none" fill="none" stroke-width="0.25" stroke-linejoin="round" cx="404.257" rx="0.67" g2gstroke="#312783" cy="256.091" ry="0.809"/>
<ellipse orgstroke="#000000" stroke="#000000" stroke-linecap="round" stroke-miterlimit="10" orgfill="none" fill="none" stroke-width="0.25" stroke-linejoin="round" cx="388.708" rx="0.465" g2gstroke="#312783" cy="253.649" ry="0.562"/>
<ellipse orgstroke="#000000" stroke="#000000" stroke-linecap="round" stroke-miterlimit="10" orgfill="none" fill="none" stroke-width="0.25" stroke-linejoin="round" cx="403.84" rx="1.248" g2gstroke="#312783" cy="255.945" ry="1.52"/>
<path orgstroke="#000000" orgfill="none" stroke-linecap="round" fill="none" stroke-linejoin="round" d="   M404.348,258.152c-0.162,0.055-0.329,0.084-0.51,0.084c-1.042,0-1.881-1.023-1.881-2.291s0.843-2.289,1.881-2.289   c0.28,0,0.544,0.07,0.789,0.209" stroke="#000000" stroke-width="0.25" g2gstroke="#312783" stroke-miterlimit="10"/>
<path orgstroke="#000000" orgfill="none" stroke-linecap="round" fill="none" stroke-linejoin="round" d="   M403.926,258.236l-0.775,0.064l-0.088,0.01c-0.965-0.088-1.746-1.074-1.746-2.279c0-1.037,0.57-1.92,1.35-2.195l0.173-0.031   l0.888-0.127" stroke="#000000" stroke-width="0.25" g2gstroke="#312783" stroke-miterlimit="10"/>
<path orgstroke="#000000" orgfill="none" stroke-linecap="round" fill="none" stroke-linejoin="round" d="   M365.139,269.128c-0.434-0.578-0.507-1.135-0.079-1.654c0.431-0.521,1.178-1.379,1.327-1.572c0.153-0.195,0.309-1.16,0-1.551   c-0.308-0.393-0.518-0.703-0.715-1.061c-0.197-0.359-0.197-0.836,0.191-1.412c0.307-0.457,3.293-5.605,3.617-6.092   c0.518-0.779,2.045-1.914,4.064-2.299" stroke="#000000" stroke-width="0.25" g2gstroke="#312783" stroke-miterlimit="10"/>
<path orgstroke="#000000" orgfill="none" stroke-linecap="round" fill="none" stroke-linejoin="round" d="   M400.78,258.669c-0.437-0.734-0.692-1.633-0.692-2.613c0-0.578,0.091-1.129,0.256-1.633" stroke="#000000" stroke-width="0.25" g2gstroke="#312783" stroke-miterlimit="10"/>
<path orgstroke="#000000" orgfill="none" stroke-linecap="round" fill="none" stroke-linejoin="round" d="   M393.162,259.722c-0.437-0.732-0.69-1.633-0.69-2.607c0-0.582,0.09-1.131,0.254-1.635" stroke="#000000" stroke-width="0.25" g2gstroke="#312783" stroke-miterlimit="10"/>
<path orgstroke="#000000" orgfill="none" stroke-linecap="round" fill="none" stroke-linejoin="round" d="   M378.99,265.699c0.316-0.152,0.69-0.332,0.885-0.332c0.628,0,1.957,0.453,2.571,1.012c0.201,0.184,0.438,0.393,0.664,0.6" stroke="#000000" stroke-width="0.25" g2gstroke="#312783" stroke-miterlimit="10"/>
<path orgstroke="#000000" orgfill="none" stroke-linecap="round" fill="none" stroke-linejoin="round" d="   M379.993,253.744c0.77-0.139,3.178,0.367,4.58,1.006c1.405,0.635,4.267,2.299,5.116,2.787c0.57,0.336,4.401,2.834,5.386,3.398   c0.271,0.158,0.493,0.309,0.658,0.455" stroke="#000000" stroke-width="0.25" g2gstroke="#312783" stroke-miterlimit="10"/>
<path orgstroke="#000000" orgfill="none" stroke-linecap="round" fill="none" stroke-linejoin="round" d="   M382.542,264.271c0.142,0.541,0.366,1.793,0.978,2.152c0,0,3.408,2.008,4.059,2.434c0.654,0.426,1.396,0.492,2.461,0.535   c1.061,0.043,2.05,0.043,2.315,0.043c0.112,0,0.322-0.023,0.567-0.121" stroke="#000000" stroke-width="0.25" g2gstroke="#312783" stroke-miterlimit="10"/>
<path orgstroke="#000000" orgfill="none" stroke-linecap="round" fill="none" stroke-linejoin="round" d="   M395.581,265.505c-0.175-0.16-0.398-0.324-0.7-0.496c-0.987-0.57-4.813-3.063-5.388-3.396c-0.586-0.332-2.125-1.232-3.486-1.963" stroke="#000000" stroke-width="0.25" g2gstroke="#312783" stroke-miterlimit="10"/>
<path orgstroke="#000000" orgfill="none" stroke-linecap="round" fill="none" stroke-linejoin="round" d="   M394.978,266.361c-0.163-0.146-0.368-0.281-0.628-0.436c-0.982-0.57-4.807-3.061-5.386-3.395c-0.507-0.297-1.763-1.023-2.988-1.695   " stroke="#000000" stroke-width="0.25" g2gstroke="#312783" stroke-miterlimit="10"/>
<path orgstroke="#000000" orgfill="none" stroke-linecap="round" fill="none" stroke-linejoin="round" d="   M382.378,266.255c0.064-0.398,0.888,0.01,1.318,0.27" stroke="#000000" stroke-width="0.25" g2gstroke="#312783" stroke-miterlimit="10"/>
<path orgstroke="#000000" orgfill="none" stroke-linecap="round" fill="none" stroke-linejoin="round" d="   M369.772,265.492c-0.358-0.457-1.217-1.012-1.911-1.717c-0.699-0.713-1.246-0.99-1.589-1.018" stroke="#000000" stroke-width="0.25" g2gstroke="#312783" stroke-miterlimit="10"/>
<path orgstroke="#000000" orgfill="none" stroke-linecap="round" fill="none" stroke-linejoin="round" d="   M381.629,264.355c0,0-1.176,0.029-1.564,0c-0.85-0.066-1.9-0.531-2.658-1.084c-1.396-1.014-2.184-2.512-2.268-3.99" stroke="#000000" stroke-width="0.25" g2gstroke="#312783" stroke-miterlimit="10"/>
</g>
</g>
</g>
</g></svg>