<svg xmlns="http://www.w3.org/2000/svg" xmlns:xlink="http://www.w3.org/1999/xlink" xmlns:etg="http://www.eurotaxglass.com/etg/evd/" etg:dataTimestamp="1539068912893" contentScriptType="text/ecmascript" zoomAndPan="magnify" contentStyleType="text/css" id="Layer_1" enable-background="new 0 0 1841.891 1595.279" version="1.1" xml:space="preserve" width="1841.891px" preserveAspectRatio="xMidYMid meet" viewBox="0 0 1841.891 1595.279" height="1595.279px" x="0px" y="0px"><g xmlns="http://www.w3.org/2000/svg" objecttype="PS" tooltip="#UNDEFINED" id="130">
<g onmouseover="notifyOwner(AGV_OBJECT_MOUSEOVER, '130(PS)')" transform="translate(-1.0864257831144641E-5, 66.80804286193847) translate(-478.1112626953125, -9.244252822875978) translate(59.0, -37.0) translate(572.0, -62.0) translate(10.0, 10.00006103515625)" onclick="clickZoom(evt); notifyOwner(AGV_OBJECT_MOUSECLICK, '130(PS)')" onmouseout="notifyOwner(AGV_OBJECT_MOUSEOUT, '130(PS)')" tooltip="#UNDEFINED" id="130-Graphic" objecttype="GRAPHIC">
<g zvalue="28">
<g>
<path stroke-linecap="round" orgstroke="#000000" orgfill="#ffffff" fill="#ffffff" g2gfill="#ECC35D" stroke-linejoin="round" d="   M385.737,244.24c-0.161,0.012-0.128-0.055-0.128-0.055c-0.457-0.389-2.366-0.322-3.604-0.414s-1.429-0.127-2.387,0.277   c-0.58,0.244-0.527,0.537-0.478,0.74c0.03,0.117,0.098,0.227,0.226,0.311c0.094,0.061,0.222,0.111,0.396,0.145   c0.409,0.076,0.438,0.223,0.727,0.648c0.292,0.424,0.126,0.465-0.178,0.584c-0.305,0.119-0.494,0.262-0.413,0.506   c0.077,0.244,0.377,0.354,0.698,0.432c0.322,0.08,1.163,0.484,1.642,1.07c0.475,0.584,1.302,0.793,1.844,0.541   c0,0,1.862-0.693,2.181-0.863c0.316-0.172,0.246-0.195,0.246-0.289c0.001-0.104,0.143-0.232,0.303-0.281s0.451-0.129,0.645-0.242   c0.119-0.07,0.189-0.223,0.244-0.398c0.232-0.688-0.03-1.756-0.584-2.387c-0.311-0.352-0.648-0.494-0.922-0.43L385.737,244.24z" stroke="#000000" outline-element="true" stroke-width="0.5" g2gstroke="#312783" stroke-miterlimit="10"/>
<path orgstroke="#000000" orgfill="none" stroke-linecap="round" fill="none" stroke-linejoin="round" d="   M385.579,244.328l-0.869,0.258c-0.206,0.066-0.364,0.238-0.457,0.512c-0.233,0.691,0.03,1.76,0.589,2.393   c0.302,0.348,0.646,0.492,0.93,0.428l0.646-0.191" stroke="#000000" stroke-width="0.25" g2gstroke="#312783" stroke-miterlimit="10"/>
<path orgstroke="#000000" orgfill="none" stroke-linecap="round" fill="none" stroke-linejoin="round" d="   M386.123,244.166l-0.304,0.09" stroke="#000000" stroke-width="0.25" g2gstroke="#312783" stroke-miterlimit="10"/>
<path orgstroke="#000000" orgfill="none" stroke-linecap="round" fill="none" stroke-linejoin="round" d="   M387.111,247.503c-0.258,0.018-0.552-0.125-0.829-0.438c-0.555-0.635-0.816-1.703-0.589-2.395c0.074-0.217,0.187-0.369,0.322-0.457   " stroke="#000000" stroke-width="0.25" g2gstroke="#312783" stroke-miterlimit="10"/>
<path orgstroke="#000000" orgfill="none" stroke-linecap="round" fill="none" stroke-linejoin="round" d="   M385.495,248.281c-0.959-0.18-1.619-0.904-2.115-1.459c-0.498-0.553-1.062-0.564-1.392-0.508c-0.464,0.082-1.76,0.977-1.76,0.977" stroke="#000000" stroke-width="0.25" g2gstroke="#312783" stroke-miterlimit="10"/>
<path orgstroke="#000000" orgfill="none" stroke-linecap="round" fill="none" stroke-linejoin="round" d="   M380.312,246.476l0.807-0.381c0.22-0.076,0.185-0.24,0.088-0.453c-0.145-0.316-0.264-0.514-0.373-0.852   c-0.076-0.316-0.206-0.322-0.392-0.285c-0.402,0.082-1.042,0.439-1.202,0.506" stroke="#000000" stroke-width="0.25" g2gstroke="#312783" stroke-miterlimit="10"/>
</g>
</g>
</g>
</g></svg>