<svg xmlns="http://www.w3.org/2000/svg" xmlns:xlink="http://www.w3.org/1999/xlink" xmlns:etg="http://www.eurotaxglass.com/etg/evd/" etg:dataTimestamp="1539068912893" contentScriptType="text/ecmascript" zoomAndPan="magnify" contentStyleType="text/css" id="Layer_1" enable-background="new 0 0 1841.891 1595.279" version="1.1" xml:space="preserve" width="1841.891px" preserveAspectRatio="xMidYMid meet" viewBox="0 0 1841.891 1595.279" height="1595.279px" x="0px" y="0px"><g xmlns="http://www.w3.org/2000/svg" objecttype="PS" tooltip="#UNDEFINED" id="153">
<g onmouseover="notifyOwner(AGV_OBJECT_MOUSEOVER, '153(PS)')" transform="translate(-1.0864257831144641E-5, 66.80804286193847) translate(-478.1112626953125, -9.244252822875978) translate(-287.9539357011647, 68.9637577099428) translate(15.72857631981151, 37.50660507031978) translate(59.0, -37.0) translate(572.0, -62.0) translate(10.0, 10.00006103515625)" onclick="clickZoom(evt); notifyOwner(AGV_OBJECT_MOUSECLICK, '153(PS)')" onmouseout="notifyOwner(AGV_OBJECT_MOUSEOUT, '153(PS)')" tooltip="#UNDEFINED" id="153-Graphic" objecttype="GRAPHIC">
<g zvalue="51">
<g>
<path orgstroke="#000000" orgfill="#ffffff" fill="#ffffff" g2gfill="#ECC35D" d="M801.441,325.234c0,0.262,0,0.566,0,0.695   c0,0.203-0.105,0.914-0.131,1.09c-0.113,0.76-0.074,0.637-0.496,1.121s-1.18,1.287-1.736,1.816   c-0.205,0.193-0.381,0.352-0.488,0.326c-0.119-0.027-0.432-0.225-0.432-0.225c-0.176-0.102-0.328-0.215-0.318-0.391   c0-0.023,0-0.051,0-0.078c0.031-0.516,0.217-1.078,0.217-1.188c0-0.072-0.021-0.438-0.035-0.68   c-0.01-0.145-0.014-0.221,0.188-0.424c0.838-0.855,1.67-1.713,2.488-2.572c0.115-0.121,0.197-0.109,0.322-0.037l0.229,0.131   C801.441,324.947,801.441,324.99,801.441,325.234z" stroke="#000000" outline-element="true" stroke-width="0.5" g2gstroke="#312783" stroke-miterlimit="10"/>
<path orgstroke="#000000" orgfill="none" stroke-linecap="round" fill="none" stroke-linejoin="round" d="   M798.672,328.756c0.924-0.951,1.846-1.896,2.752-2.844" stroke="#000000" stroke-width="0.25" g2gstroke="#312783" stroke-miterlimit="10"/>
<path orgstroke="#000000" orgfill="none" fill="none" d="M798.623,327.857c0,0,0.049,0.789,0.049,0.898   s-0.186,0.672-0.217,1.188c-0.014,0.242,0.037,0.34,0.135,0.34" stroke="#000000" stroke-width="0.25" g2gstroke="#312783" stroke-miterlimit="10"/>
<path orgstroke="#000000" orgfill="none" stroke-linecap="round" fill="none" stroke-linejoin="round" d="   M798.117,327.564l0.277,0.158c0.229,0.135,0.246,0.119,0.438-0.08c0.848-0.873,1.693-1.742,2.529-2.611" stroke="#000000" stroke-width="0.25" g2gstroke="#312783" stroke-miterlimit="10"/>
</g>
</g>
</g>
</g></svg>