<svg xmlns="http://www.w3.org/2000/svg" xmlns:xlink="http://www.w3.org/1999/xlink" xmlns:etg="http://www.eurotaxglass.com/etg/evd/" etg:dataTimestamp="1539068912893" contentScriptType="text/ecmascript" zoomAndPan="magnify" contentStyleType="text/css" id="Layer_1" enable-background="new 0 0 1841.891 1595.279" version="1.1" xml:space="preserve" width="1841.891px" preserveAspectRatio="xMidYMid meet" viewBox="0 0 1841.891 1595.279" height="1595.279px" x="0px" y="0px"><g xmlns="http://www.w3.org/2000/svg" objecttype="PS" tooltip="#UNDEFINED" id="19">
<g onmouseover="notifyOwner(AGV_OBJECT_MOUSEOVER, '19(PS)')" transform="translate(6.0, 5.0) translate(-3.0, 8.0) translate(-18.01092089843752, -7.293701173693989E-6) translate(8.328388793945294, -42.254741333007814)" onclick="clickZoom(evt); notifyOwner(AGV_OBJECT_MOUSECLICK, '19(PS)')" onmouseout="notifyOwner(AGV_OBJECT_MOUSEOUT, '19(PS)')" tooltip="#UNDEFINED" id="19-Graphic" objecttype="GRAPHIC">
<g>
	<polygon orgstroke="#000000" orgfill="#ffffff" points="472.435,342.552 470.679,342.991    466.17,344.344 462.103,345.816 459.982,346.927 457.323,348.64 456.094,349.991 455.74,351.22 455.21,355.273 454.148,356.51    447.073,362.642 441.066,365.22 440.359,366.327 439.652,367.802 439.115,376.152 429.752,392.363 429.752,396.538    429.928,397.152 438.767,403.415 439.474,403.302 441.948,401.573 441.948,400.345 442.656,397.521 444.24,393.969    445.656,389.906 457.508,373.941 461.396,372.222 465.109,370.51 468.822,369.642 472.181,369.275 476.424,368.782    481.019,368.413 484.198,368.177 485.97,367.677 487.74,366.818 488.445,365.345 492.865,353.431 494.448,351.719 496.224,350.238    497.463,349.26 498.347,348.765 499.531,348.273 500.156,347.969 500.336,340.904 500.228,340.415 498.523,339.554    490.922,339.554 483.672,340.29 479.254,341.027 475.586,341.747  " fill="#ffffff" g2gfill="#BCBEC0" outline-element="true" stroke="#000000" stroke-width="0.5" g2gstroke="#312783" stroke-miterlimit="10"/>
	<polyline orgstroke="#000000" orgfill="none" points="446.573,364.448 442.773,366.094    442.066,367.189 441.358,368.663 440.918,375.594  " fill="none" stroke="#000000" stroke-width="0.25" g2gstroke="#312783" stroke-miterlimit="10"/>
	<polyline orgstroke="#000000" orgfill="none" points="467.877,345.204 463.81,346.679    461.689,347.784 459.031,349.51  " fill="none" stroke="#000000" stroke-width="0.25" g2gstroke="#312783" stroke-miterlimit="10"/>
	<polyline orgstroke="#000000" orgfill="none" points="500.228,340.415 492.627,340.415    485.379,341.152 480.959,341.89 477.281,342.611 472.386,343.855  " fill="none" stroke="#000000" stroke-width="0.25" g2gstroke="#312783" stroke-miterlimit="10"/>
	<polyline orgstroke="#000000" orgfill="none" points="500.228,344.22 492.627,344.22    485.379,344.956 480.959,345.693 477.281,346.415 472.386,347.657 467.877,349.01 463.81,350.484 461.689,351.594 459.687,352.886     " fill="none" stroke="#000000" stroke-width="0.25" g2gstroke="#312783" stroke-miterlimit="10"/>
	<polyline orgstroke="#000000" orgfill="none" points="455.566,352.552 457.683,354.052    459.806,354.659 462.103,354.782 463.865,354.904 464.779,355.135 465.008,355.782 464.226,356.385 446.193,363.135  " fill="none" stroke="#000000" stroke-width="0.25" g2gstroke="#312783" stroke-miterlimit="10"/>
	
		<line orgstroke="#000000" orgfill="none" fill="none" x1="449.656" x2="446.573" y1="363.351" y2="364.448" stroke="#000000" stroke-width="0.25" g2gstroke="#312783" stroke-miterlimit="10"/>
	<polyline orgstroke="#000000" orgfill="none" points="459.687,352.885 459.939,352.986    461.861,353.4 463.254,353.491 465.24,353.677 466.236,353.999 466.967,354.51 467.299,355.105 467.299,355.844 467.099,356.439    466.635,356.993 466.031,357.452 465.177,357.822 454.727,361.552  " fill="none" stroke="#000000" stroke-width="0.25" g2gstroke="#312783" stroke-miterlimit="10"/>
	<polyline orgstroke="#000000" orgfill="none" points="459.031,349.51 458.48,350.222    458.281,351.097 458.281,351.741 458.547,352.433 459.687,352.885  " fill="none" stroke="#000000" stroke-width="0.25" g2gstroke="#312783" stroke-miterlimit="10"/>
	<polyline orgstroke="#000000" orgfill="none" points="439.115,376.152 439.073,382.302    439.432,383.888 440.14,385.24 441.198,386.844 441.554,388.433 441.554,390.152 440.845,393.345 439.963,396.538 439.073,398.749    438.365,400.099 437.149,402.269  " fill="none" stroke="#000000" stroke-width="0.25" g2gstroke="#312783" stroke-miterlimit="10"/>
	<polyline orgstroke="#000000" orgfill="none" points="441.061,381.4 441.049,383.111    441.403,384.719 442.11,386.06 443.17,387.656 443.524,389.26 443.524,390.972 442.817,394.165 441.933,397.359 441.049,399.568    440.342,400.927 438.767,403.415  " fill="none" stroke="#000000" stroke-width="0.25" g2gstroke="#312783" stroke-miterlimit="10"/>
	
		<line orgstroke="#000000" orgfill="none" fill="none" x1="441.094" x2="441.072" y1="376.97" y2="379.844" stroke="#000000" stroke-width="0.25" g2gstroke="#312783" stroke-miterlimit="10"/>
	<polyline orgstroke="#000000" orgfill="none" points="467.224,356.064 467.277,357.73    467.189,359.572 466.74,361.659 465.773,363.439 457.59,373.906  " fill="none" stroke="#000000" stroke-width="0.25" g2gstroke="#312783" stroke-miterlimit="10"/>
	<polyline orgstroke="#000000" orgfill="none" points="492.627,340.415 492.627,344.22    492.281,346.554 491.232,348.396 483.448,365.969 483.115,368.26  " fill="none" stroke="#000000" stroke-width="0.25" g2gstroke="#312783" stroke-miterlimit="10"/>
	<polyline orgstroke="#000000" orgfill="none" points="463.573,366.241 464.531,367.187    465.773,367.308 467.719,366.941 479.918,365.22 482.215,364.853 483.978,364.767  " fill="none" stroke="#000000" stroke-width="0.25" g2gstroke="#312783" stroke-miterlimit="10"/>
	<polyline orgstroke="#000000" orgfill="none" points="466.967,354.51 469.133,353.927    470.9,354.052 472.845,354.29 474.26,355.15 474.26,356.385 473.906,358.222 473.198,359.325 473.198,360.554 474.26,361.177    476.381,361.052 478.323,359.939 479.562,359.939 480.271,361.052 480.271,362.642 479.209,364.361 477.972,365.345  " fill="none" stroke="#000000" stroke-width="0.25" g2gstroke="#312783" stroke-miterlimit="10"/>
	<polyline orgstroke="#000000" orgfill="none" points="469.424,348.552 469.486,350.238    468.426,351.469 467.531,352.448 467.365,353.308 467.719,354.29  " fill="none" stroke="#000000" stroke-width="0.25" g2gstroke="#312783" stroke-miterlimit="10"/>
	<polyline orgstroke="#000000" orgfill="none" points="477.265,363.808 477.308,363.347    477.088,363.072 476.601,362.857 475.894,362.948 475.543,363.226 475.054,363.902 475.099,364.361 475.448,364.79    475.894,364.913 476.47,364.822 476.734,364.607  " fill="none" stroke="#000000" stroke-width="0.25" g2gstroke="#312783" stroke-miterlimit="10"/>
	<polyline orgstroke="#000000" orgfill="none" points="472.06,357.226 472.103,356.765    471.883,356.488 471.396,356.273 470.689,356.365 470.336,356.642 469.849,357.318 469.892,357.779 470.24,358.219    470.689,358.331 471.263,358.24 471.529,358.023  " fill="none" stroke="#000000" stroke-width="0.25" g2gstroke="#312783" stroke-miterlimit="10"/>
	<polyline orgstroke="#000000" orgfill="none" points="468.99,364.529 469.031,364.068    468.818,363.79 468.334,363.575 467.615,363.677 467.273,363.945 466.781,364.62 466.823,365.081 467.183,365.511 467.615,365.635    468.198,365.54 468.467,365.325  " fill="none" stroke="#000000" stroke-width="0.25" g2gstroke="#312783" stroke-miterlimit="10"/>
	<polyline orgstroke="#000000" orgfill="none" points="448.781,378.32 448.836,377.859    448.615,377.594 448.13,377.368 447.422,377.469 447.068,377.738 446.573,378.411 446.627,378.872 446.98,379.302 447.422,379.427    447.99,379.344 448.261,379.118  " fill="none" stroke="#000000" stroke-width="0.25" g2gstroke="#312783" stroke-miterlimit="10"/>
	<polyline orgstroke="#000000" orgfill="none" points="463.054,353.263 464.115,352.663    465.24,352.019 466.304,351.741  " fill="none" stroke="#000000" stroke-width="0.25" g2gstroke="#312783" stroke-miterlimit="10"/>
	
		<line orgstroke="#000000" orgfill="none" fill="none" x1="434.427" x2="438.592" y1="395.635" y2="398.534" stroke="#000000" stroke-width="0.25" g2gstroke="#312783" stroke-miterlimit="10"/>
	
		<line orgstroke="#000000" orgfill="none" fill="none" x1="429.752" x2="432.939" y1="392.363" y2="394.594" stroke="#000000" stroke-width="0.25" g2gstroke="#312783" stroke-miterlimit="10"/>
	<polyline orgstroke="#000000" orgfill="none" points="434.548,391.579 434.74,391.073    435.406,390.659 436.198,390.613 436.865,390.98 437.265,391.719 437.531,392.552 437.066,393.427 436.603,393.743    435.807,393.743 435.073,393.427 434.681,392.915  " fill="none" stroke="#000000" stroke-width="0.25" g2gstroke="#312783" stroke-miterlimit="10"/>
	<polyline orgstroke="#000000" orgfill="none" points="492.865,353.431 494.81,348.702    495.607,346.906 495.865,340.415  " fill="none" stroke="#000000" stroke-width="0.25" g2gstroke="#312783" stroke-miterlimit="10"/>
</g>
</g>
</g></svg>