<svg xmlns="http://www.w3.org/2000/svg" xmlns:xlink="http://www.w3.org/1999/xlink" xmlns:etg="http://www.eurotaxglass.com/etg/evd/" etg:dataTimestamp="1539068912893" contentScriptType="text/ecmascript" zoomAndPan="magnify" contentStyleType="text/css" id="Layer_1" enable-background="new 0 0 1841.891 1595.279" version="1.1" xml:space="preserve" width="1841.891px" preserveAspectRatio="xMidYMid meet" viewBox="0 0 1841.891 1595.279" height="1595.279px" x="0px" y="0px"><g xmlns="http://www.w3.org/2000/svg" objecttype="PS" tooltip="#UNDEFINED" id="23">
<g onmouseover="notifyOwner(AGV_OBJECT_MOUSEOVER, '23(PS)')" transform="translate(-1.0864257831144641E-5, 66.80804286193847) translate(-478.1112626953125, -9.244252822875978) translate(574.6979809161899, -233.50886382489398) translate(-70.17364819608213, 205.681382643689) translate(36.308689697265606, -1.4010578613281268) translate(34.250095947265606, -8.631938598632814) translate(-84.39897698209705, -13.503836317135551) translate(1.6879795396419013, -1.6879795396419581)" onclick="clickZoom(evt); notifyOwner(AGV_OBJECT_MOUSECLICK, '23(PS)')" onmouseout="notifyOwner(AGV_OBJECT_MOUSEOUT, '23(PS)')" tooltip="#UNDEFINED" id="23-Graphic" objecttype="GRAPHIC">
<g>
	<polygon orgstroke="#000000" orgfill="#ffffff" stroke-linecap="round" points="455.073,377.906 456.264,378.927    456.434,379.517 456.434,379.942 456.01,380.451 455.24,380.705 453.128,381.052 452.448,381.469 451.688,383.51 451.688,383.51    450.925,383.844 449.143,384.095 446.601,384.264 444.142,384.264 441.684,383.927 438.719,383.677 438.115,383.76    437.781,384.095 434.395,389.774 434.142,390.707 434.142,391.638 435.573,397.149 435.751,398.26 435.656,399.269 435.49,400.115    434.903,400.969 434.31,401.558 433.377,402.065 432.781,402.235 432.781,403.677 432.615,404.948 432.191,406.22 431.513,407.344    431.226,407.469 430.939,407.427 429.319,406.517 429.156,406.26 428.642,404.94 427.198,401.72 425.925,398.748 424.656,395.954    424.656,395.448 426.479,391.158 427.921,388.023 429.595,385.177 430.822,381.888 431.82,379.291 432.406,377.936    433.115,377.575 434.183,377.146 438.345,378.191 441.738,378.615 445.552,378.783 449.027,378.698 452.419,378.445    454.615,378.021  " fill="#ffffff" g2gfill="#ECC35D" outline-element="true" stroke="#000000" stroke-width="0.5" g2gstroke="#312783"/>
	<polyline orgstroke="#000000" orgfill="none" points="428.528,401.73 427.254,398.76 425.986,395.969    425.986,395.469 427.427,392.068 428.865,388.932 430.531,386.08 431.769,382.802 432.768,380.201 433.359,378.845    434.066,378.484 435.13,378.055 439.293,379.101 442.684,379.526 446.49,379.694 449.972,379.609 453.362,379.356 455.567,378.931     " fill="none" stroke="#000000" stroke-width="0.25" g2gstroke="#312783"/>
	<polyline orgstroke="#000000" orgfill="none" points="430.939,407.427 429.969,404.953 429.384,403.643  " fill="none" stroke="#000000" stroke-width="0.25" g2gstroke="#312783"/>
	<polyline orgstroke="#000000" orgfill="none" points="432.781,402.235 431.429,401.558 430.49,400.802    429.818,399.945 428.115,397.826 427.53,396.811  " fill="none" stroke="#000000" stroke-width="0.25" g2gstroke="#312783"/>
	<polyline orgstroke="#000000" orgfill="none" points="427.147,398.526 427.53,396.811 428.281,394.945    429.31,392.91  " fill="none" stroke="#000000" stroke-width="0.25" g2gstroke="#312783"/>
	<polyline orgstroke="#000000" orgfill="none" points="433.254,397.9 433.115,399.522 432.865,400.623    432.403,400.885 431.698,400.682 430.923,399.246 429.987,396.386 429.732,394.436 430.072,393.164 430.656,392.233    431.26,391.893 432.021,391.893 432.698,392.233 433.115,392.74 433.463,393.928 433.463,395.285 433.397,396.104  " fill="none" stroke="#000000" stroke-width="0.25" g2gstroke="#312783"/>
	<polyline orgstroke="#000000" orgfill="none" points="430.531,386.08 430.877,388.344 432.594,389.413    433.102,390.885  " fill="none" stroke="#000000" stroke-width="0.25" g2gstroke="#312783"/>
	<line orgstroke="#000000" orgfill="none" fill="none" x1="432.594" x2="433.928" y1="389.413" y2="388.469" stroke="#000000" stroke-width="0.25" g2gstroke="#312783"/>
	<polyline orgstroke="#000000" orgfill="none" points="432.656,380.969 433.156,383.438 435.39,384.52 437.97,383.91     " fill="none" stroke="#000000" stroke-width="0.25" g2gstroke="#312783"/>
	<line orgstroke="#000000" orgfill="none" fill="none" x1="441.945" x2="441.684" y1="379.433" y2="383.927" stroke="#000000" stroke-width="0.25" g2gstroke="#312783"/>
	<line orgstroke="#000000" orgfill="none" fill="none" x1="445.853" x2="445.593" y1="379.747" y2="384.24" stroke="#000000" stroke-width="0.25" g2gstroke="#312783"/>
	<line orgstroke="#000000" orgfill="none" fill="none" x1="449.352" x2="449.091" y1="379.747" y2="384.24" stroke="#000000" stroke-width="0.25" g2gstroke="#312783"/>
	<path orgstroke="#000000" orgfill="none" fill="none" d="M440.313,381.243c-0.479,0.825-1.531,1.494-2.355,1.494   c-0.813,0-1.104-0.669-0.633-1.494c0.479-0.813,1.533-1.479,2.356-1.479C440.505,379.764,440.781,380.427,440.313,381.243z" stroke="#000000" stroke-width="0.25" g2gstroke="#312783"/>
	
		<line orgstroke="#000000" orgfill="none" stroke-linecap="round" fill="none" x1="425.986" x2="424.876" y1="395.469" y2="394.931" stroke="#000000" stroke-width="0.25" g2gstroke="#312783"/>
	
		<line orgstroke="#000000" orgfill="none" stroke-linecap="round" fill="none" x1="430.531" x2="429.433" y1="386.219" y2="385.686" stroke="#000000" stroke-width="0.25" g2gstroke="#312783"/>
	
		<line orgstroke="#000000" orgfill="none" stroke-linecap="round" fill="none" x1="433.34" x2="432.23" y1="378.594" y2="378.055" stroke="#000000" stroke-width="0.25" g2gstroke="#312783"/>
	
		<line orgstroke="#000000" orgfill="none" stroke-linecap="round" fill="none" x1="434.906" x2="433.804" y1="377.938" y2="377.409" stroke="#000000" stroke-width="0.25" g2gstroke="#312783"/>
</g>
</g>
</g></svg>