<svg xmlns="http://www.w3.org/2000/svg" xmlns:xlink="http://www.w3.org/1999/xlink" xmlns:etg="http://www.eurotaxglass.com/etg/evd/" etg:dataTimestamp="1539068912893" contentScriptType="text/ecmascript" zoomAndPan="magnify" contentStyleType="text/css" id="Layer_1" enable-background="new 0 0 1841.891 1595.279" version="1.1" xml:space="preserve" width="1841.891px" preserveAspectRatio="xMidYMid meet" viewBox="0 0 1841.891 1595.279" height="1595.279px" x="0px" y="0px"><g xmlns="http://www.w3.org/2000/svg" objecttype="PS" tooltip="#UNDEFINED" id="3">
<g onmouseover="notifyOwner(AGV_OBJECT_MOUSEOVER, '3(PS)')" transform="translate(-1.0864257831144641E-5, 66.80804286193847) translate(-478.1112626953125, -9.244252822875978) translate(3.629671458418102, 4.839561944557374) translate(488.7957564002963, -45.9758384732952) matrix(1.5246706913411874 0 0 1.5246706913411874 -197.50063165788572 -128.72533941341018) translate(36.308689697265606, -1.4010578613281268) translate(34.250095947265606, -8.631938598632814)" onclick="clickZoom(evt); notifyOwner(AGV_OBJECT_MOUSECLICK, '3(PS)')" onmouseout="notifyOwner(AGV_OBJECT_MOUSEOUT, '3(PS)')" tooltip="#UNDEFINED" id="3-Graphic" objecttype="GRAPHIC">
<g>
	<path orgstroke="#000000" orgfill="#ffffff" fill="#ffffff" g2gfill="#ECC35D" d="M321.789,254.658l-0.688,0.532l-1.209,0.188   h-1.161l-1.354-0.271l-1.232-0.729l-0.771-0.581l-0.775-0.968l-0.771-1.743l-7.771-29.095l-0.188-1.354l0.646-2.271l1.091-1.213   l1.731-1.163l2.247-1.363c27.771-15.805,49.313-27.104,68.396-40.336l1.729-0.878l1.229-0.364l1.095,0.146l3.979,0.969l0.507,0.099   l1.446,0.396l1.354,0.582l1.354,0.872l1.739,1.146l2.021,2.131l0.872,1.16l14.137,22.364l-0.11,3.315l-0.195,0.271l-0.096,0.254   l0.001,0.251L411,207.65l0.004,1.117l-0.242,0.34l-0.388,0.145l-0.483-0.049l-3.146-0.92l-0.192-0.242l-0.151-0.471l0.021,0.085   l-0.19-1.507l-0.354-1.646l-15.503-24.188l-0.252-0.257l-0.324-0.072l-0.604,0.063l-0.563,0.191l-2.069,1.512l-4.332,3.948   l-6.103,4.688l-5.574,3.604l-8.253,5.313l-6.479,3.777l-7.938,4.329l-7.09,3.521l-8.286,3.769l-8.317,3.688l-3.548,2.146   l-1.688,1.136l-1.063,1.188l-0.64,2.208l0.188,1.313l6.604,24.854l0.754,1.688l0.753,0.938l0.752,0.563l0.001,0.143l-0.089,0.188   l-0.107,0.102l-0.146,0.045l-0.544-0.021L325,254.8l-0.696-0.179l-0.867-0.364l-0.324-0.146l-0.354-0.09l-0.163,0.018l-0.188,0.063   l-0.104,0.104L321.789,254.658z" outline-element="true" stroke="#000000" stroke-width="0.5" g2gstroke="#312783" stroke-miterlimit="10"/>
	
		<line orgstroke="#000000" orgfill="none" fill="none" x1="410.834" x2="410.922" y1="206.358" y2="207.047" stroke="#000000" stroke-width="0.25" g2gstroke="#312783" stroke-miterlimit="10"/>
	<polyline orgstroke="#000000" orgfill="none" points="379.887,185.573 382.147,183.837    386.6,179.77 388.729,178.22 390.666,177.54 393.044,177.934 394.3,179.241 410.435,204.42 410.802,206.102 410.834,206.358  " fill="none" stroke="#000000" stroke-width="0.25" g2gstroke="#312783" stroke-miterlimit="10"/>
	<polyline orgstroke="#000000" orgfill="none" points="373.424,190.237 375.873,188.657    378.011,187.012  " fill="none" stroke="#000000" stroke-width="0.25" g2gstroke="#312783" stroke-miterlimit="10"/>
	<polyline orgstroke="#000000" orgfill="none" points="317.148,231.724 315.542,225.659    315.347,224.303 316.004,222.031 317.089,220.818 318.832,219.656 322.478,217.443 331.03,213.654 339.551,209.781    346.839,206.164 354.997,201.712 361.66,197.822 370.141,192.356 370.887,191.874  " fill="none" stroke="#000000" stroke-width="0.25" g2gstroke="#312783" stroke-miterlimit="10"/>
	
		<line orgstroke="#000000" orgfill="none" fill="none" x1="320.464" x2="317.753" y1="244.224" y2="234.003" stroke="#000000" stroke-width="0.25" g2gstroke="#312783" stroke-miterlimit="10"/>
	<polyline orgstroke="#000000" orgfill="none" points="324.64,254.509 323.866,253.927    323.093,252.96 322.318,251.219 320.879,245.793  " fill="none" stroke="#000000" stroke-width="0.25" g2gstroke="#312783" stroke-miterlimit="10"/>
	<polyline orgstroke="#000000" orgfill="none" points="320.844,252.926 320.071,252.345    319.296,251.377 318.521,249.635 311.745,224.077 311.551,222.721 312.208,220.449 313.294,219.236 315.035,218.073    318.682,215.861 327.234,212.071 335.754,208.199 343.043,204.582 351.2,200.131 357.865,196.24 366.346,190.773 372.077,187.075    378.35,182.255 382.804,178.188 384.933,176.638 386.87,175.958 389.246,176.353  " fill="none" stroke="#000000" stroke-width="0.25" g2gstroke="#312783" stroke-miterlimit="10"/>
	<polyline orgstroke="#000000" orgfill="none" points="311.779,237.174 307.836,222.38    307.643,221.024 308.302,218.756 309.386,217.539 311.129,216.378 313.377,215.014  " fill="none" stroke="#000000" stroke-width="0.25" g2gstroke="#312783" stroke-miterlimit="10"/>
	
		<line orgstroke="#000000" orgfill="none" fill="none" x1="313.778" x2="312.876" y1="244.665" y2="241.286" stroke="#000000" stroke-width="0.25" g2gstroke="#312783" stroke-miterlimit="10"/>
	<polyline orgstroke="#000000" orgfill="none" points="317.915,254.767 317.142,254.187    316.367,253.219 315.592,251.477 314.319,246.699  " fill="none" stroke="#000000" stroke-width="0.25" g2gstroke="#312783" stroke-miterlimit="10"/>
	<path orgstroke="#000000" orgfill="none" fill="none" d="M333.46,203.697   c18.508-10.375,34.097-19.162,48.313-29.019" stroke="#000000" stroke-width="0.25" g2gstroke="#312783" stroke-miterlimit="10"/>
	<path orgstroke="#000000" orgfill="none" fill="none" d="M325.795,207.997   c1.883-1.057,3.729-2.098,5.561-3.121" stroke="#000000" stroke-width="0.25" g2gstroke="#312783" stroke-miterlimit="10"/>
	<path orgstroke="#000000" orgfill="none" fill="none" d="M313.377,215.014   c3.313-1.896,6.553-3.729,9.703-5.491" stroke="#000000" stroke-width="0.25" g2gstroke="#312783" stroke-miterlimit="10"/>
	<polyline orgstroke="#000000" orgfill="none" points="381.776,174.679 383.604,173.966    385.249,173.772 385.718,173.808  " fill="none" stroke="#000000" stroke-width="0.25" g2gstroke="#312783" stroke-miterlimit="10"/>
	
		<line orgstroke="#000000" orgfill="none" fill="none" x1="313.268" x2="315.011" y1="220.823" y2="221.404" stroke="#000000" stroke-width="0.25" g2gstroke="#312783" stroke-miterlimit="10"/>
	<polyline orgstroke="#000000" orgfill="none" points="404.426,197.467 409.726,205.74    410.085,207.375 410.273,208.882  " fill="none" stroke="#000000" stroke-width="0.25" g2gstroke="#312783" stroke-miterlimit="10"/>
	
		<line orgstroke="#000000" orgfill="none" fill="none" x1="400.273" x2="403.011" y1="190.987" y2="195.262" stroke="#000000" stroke-width="0.25" g2gstroke="#312783" stroke-miterlimit="10"/>
	<polyline orgstroke="#000000" orgfill="none" points="390.168,179.711 390.5,179.595    392.81,179.981 394.033,181.251 399.599,189.936  " fill="none" stroke="#000000" stroke-width="0.25" g2gstroke="#312783" stroke-miterlimit="10"/>
	<polyline orgstroke="#000000" orgfill="none" points="320.813,252.9 324.16,254.587    325.297,254.9 325.661,254.9 325.938,254.9  " fill="none" stroke="#000000" stroke-width="0.25" g2gstroke="#312783" stroke-miterlimit="10"/>
	<polyline orgstroke="#000000" orgfill="none" points="389.246,176.353 391.495,176.967    393.044,177.934  " fill="none" stroke="#000000" stroke-width="0.25" g2gstroke="#312783" stroke-miterlimit="10"/>
	<polyline orgstroke="#000000" orgfill="none" points="411.486,202.912 411.87,203.833    411.945,204.848 411.8,205.503 411.364,206.229  " fill="none" stroke="#000000" stroke-width="0.25" g2gstroke="#312783" stroke-miterlimit="10"/>
	<path orgstroke="#000000" orgfill="none" fill="none" d="M314.975,226.741   c0.271,0.461,0.108,0.834-0.354,0.834c-0.458,0-1.063-0.373-1.317-0.834c-0.267-0.462-0.107-0.836,0.354-0.836   S314.709,226.279,314.975,226.741z" stroke="#000000" stroke-width="0.25" g2gstroke="#312783" stroke-miterlimit="10"/>
	<path orgstroke="#000000" orgfill="none" fill="none" d="M400.597,193.159   c0.266,0.46,0.107,0.834-0.354,0.834c-0.46,0-1.063-0.373-1.317-0.834c-0.266-0.46-0.109-0.836,0.352-0.836   S400.328,192.698,400.597,193.159z" stroke="#000000" stroke-width="0.25" g2gstroke="#312783" stroke-miterlimit="10"/>
	<path orgstroke="#000000" orgfill="none" fill="none" d="M318.078,238.648   c0.266,0.461,0.104,0.835-0.355,0.835s-1.049-0.375-1.316-0.835c-0.267-0.462-0.104-0.835,0.354-0.835   S317.811,238.186,318.078,238.648z" stroke="#000000" stroke-width="0.25" g2gstroke="#312783" stroke-miterlimit="10"/>
	<path orgstroke="#000000" orgfill="none" fill="none" d="M320.447,247.578   c0.271,0.462,0.108,0.837-0.354,0.837c-0.461,0-1.051-0.374-1.318-0.837c-0.265-0.459-0.104-0.835,0.354-0.835   S320.182,247.117,320.447,247.578z" stroke="#000000" stroke-width="0.25" g2gstroke="#312783" stroke-miterlimit="10"/>
</g>
</g>
</g></svg>