<svg xmlns="http://www.w3.org/2000/svg" xmlns:xlink="http://www.w3.org/1999/xlink" xmlns:etg="http://www.eurotaxglass.com/etg/evd/" etg:dataTimestamp="1539068912893" contentScriptType="text/ecmascript" zoomAndPan="magnify" contentStyleType="text/css" id="Layer_1" enable-background="new 0 0 1841.891 1595.279" version="1.1" xml:space="preserve" width="1841.891px" preserveAspectRatio="xMidYMid meet" viewBox="0 0 1841.891 1595.279" height="1595.279px" x="0px" y="0px"><g xmlns="http://www.w3.org/2000/svg" objecttype="PS" tooltip="#UNDEFINED" id="30">
<g onmouseover="notifyOwner(AGV_OBJECT_MOUSEOVER, '30(PS)')" transform="translate(65.41986523437498, 61.739147521972654) translate(-237.0, -91.0) translate(237.0, 93.0) translate(-72.0, -25.0) translate(33.0, -48.0) translate(-188.0, -75.0) translate(121.0, -22.0) translate(278.0, 11.0) translate(-398.0, 6.0) translate(428.0, -27.0) translate(-437.0, 30.0) translate(347.0, 136.0)" onclick="clickZoom(evt); notifyOwner(AGV_OBJECT_MOUSECLICK, '30(PS)')" onmouseout="notifyOwner(AGV_OBJECT_MOUSEOUT, '30(PS)')" tooltip="#UNDEFINED" id="30-Graphic" objecttype="GRAPHIC">
<g>
	<g id="29::XMLID_3_">
		<g>
			<path orgstroke="#000000" orgfill="#ffffff" fill="#ffffff" g2gfill="#82AA8E" d="M303.887,200.454l0.659,1.481l-0.271,0.86     l-0.596,0.135l-1.938-0.161l-2.993,0.817l-4.043,1.799l-8.709,3.896l-9.982,5.389l-10.688,6.574l-12.076,6.995l-8.46,5.523     l-7.896,5.912l-7.451,5.246l-7.556,6.479l-5.208,3.832l-0.784,0.287l-2.659-1.104l-2.963-1.664l-2.554-2.342l-1.391-1.896     l-0.682-3.604l0.544-1.919l-0.438-1.644l-2.083-0.706l-1.744-0.145l-3.583-1.532l-6.38-3.188l-9.869-5.438l-10.976-6.403     l-10.028-5.987l-12.963-8.351l-6.299-4.25l-9.195-6.439l-7.521-5.771l-6.782-5.187l-7.729-5.604l-7.028-6.979l-0.595,0.134     l-0.762-0.413l-1.409,0.771l-1.598,0.219l-2.146,0.188l-1.936-0.35l-2.442-0.917l-2.063-1.229l-1.356-2.245l-0.45-1.637     l0.531-1.905l1.104-1.327l1.815-0.745l2.197-0.699l1.715,0.491l1.49,0.657l1.622,1.307l0.735,0.604l3.479-1.779l12.854-6.93     l12.829-6.581l11.786-5.591l11.533-5.09l10.688-4.445l10.692-4.093l11.505-4.731l5.244,0.253l0.994-0.269l1.229-0.783     l2.146-2.313l0.813-0.641l1.646-0.76l9.878-4.148l1.089-1.146l0.472-1.027l0.53-1.906l0.895-1.174l1.229-0.61l18.521-7.349     l31.17-11.275l1.572-0.224l0.906,0.778l1.456,1.364l1.883,0.688l2.141,0.178l1.396-0.417l12.278-4.663l0.714-6.169l0.665-1.01     l8.673-3.545l1.005-0.271l2.464,0.729l0.753,0.412l0.72,0.771l0.642,1.646l0.075,1.03l0.212,0.826l0.719,0.178l2.188-0.521     l2.169-0.354l6.059-0.031l3.479,0.287l3.839,0.67l4.018,1.043l5.479,2.063l12.23,5.438l10.461,5.491l11.293,7.327l11.677,7.354     l8.063,6.167l9.479,8.072l8.313,7.786l4.079,4.963l1.714,2.808l0.593,2.354l-0.134,1.587l-1.313,1.672l-2.471,1.577     l-22.503,10.396l-1.646,1.104l-1.46,1.126l-0.715,1.541l0.313,0.91l0.341,0.741l1.777,1.927l-0.854,0.995l-0.792,0.104l-2,0.55     l-3.4,1.146l-5.803,1.834l-10.514,4.458l-7.459,2.934l-6.896,3.345l-7.066,2.966l-4.104,2.51l-2.469,1.571l-1.011,0.445     l-0.988,0.09l-1.354-0.104l-0.935-0.608l-2.788-1.646l-1.915-0.342l-2.366,0.339l-3.021,1.182l-4.285,2.313l-2.681,1.729     l-0.739,1.894L303.887,200.454z M311.49,133.142l-0.254-0.457l-0.813-0.782l-1.576-1.013l-3.558-1.725l-8.688-4.617l-3.396-1.354     l-1.521-0.479l-2.021-0.337l-2.139-0.1l-1.292,0.35l-2.21,0.693l-1.146,0.979l-0.771,1.002l0.287,1.354l1.456,1.188l12.908,7.729     l2.724,1.292l2.593,0.48l1.354,0.188l1.184-0.168l6.732-3.604L311.49,133.142z M256.115,182.064l-0.178-0.57     c-26.086-16.563-42.933-25.479-63.021-36.435l-1.043,0.02l-1.921,0.694l-24.271,12.413l-3.429,2.146l-0.188,0.4l0.297,0.376     l0.479,0.328c15.624,9.55,45.561,25.548,65.847,37.296l0.438,0.196l0.409,0.076l0.39,0.04l0.309-0.063l0.651-0.254l0.002-0.021     l16.629-10.401l8.146-5.913L256.115,182.064z M199.108,193.7l1.381-1.132l-0.333-0.222l-1.144-0.732l-4.816-3.595l-5.01-3.08     l-5.288-3.239l-1.128-0.479l-0.729-0.063l-0.646,0.608l-0.496,0.758l-1.021,1.781l-1.422,1.215l-2.628,1.787l-2.296,1.143     l-3.185,1.335l-10.97,5.354l-3.85,2.219l-1.452,1.746l-0.735,1.521l-0.188,0.563l-0.145,0.67l-0.021,0.639l0.104,0.573     l0.161,0.313l22.963,13.892l0.697-0.221l0.262-0.771l0.986-2.849l0.979-2.242l1.37-1.431l17.138-11.106l0.465-0.09l0.604-3.817     L199.108,193.7z" outline-element="true" stroke="#000000" stroke-width="0.5" g2gstroke="#312783" stroke-miterlimit="10"/>
		</g>
	</g>
	<path orgstroke="#000000" orgfill="none" fill="none" d="M99.948,168.278   c25.31,23.722,65.319,47.276,108.688,71.107" stroke="#000000" stroke-width="0.25" g2gstroke="#312783" stroke-miterlimit="10"/>
	<path orgstroke="#000000" orgfill="none" fill="none" d="M186.338,229.341   c6.475,3.66,13.069,7.318,19.746,10.986" stroke="#000000" stroke-width="0.25" g2gstroke="#312783" stroke-miterlimit="10"/>
	<path orgstroke="#000000" orgfill="none" fill="none" d="M160.409,214.274   c3.977,2.396,8.021,4.785,12.146,7.178" stroke="#000000" stroke-width="0.25" g2gstroke="#312783" stroke-miterlimit="10"/>
	<path orgstroke="#000000" orgfill="none" fill="none" d="M157.174,212.32   c1.069,0.653,2.146,1.313,3.229,1.955" stroke="#000000" stroke-width="0.25" g2gstroke="#312783" stroke-miterlimit="10"/>
	<path orgstroke="#000000" orgfill="none" fill="none" d="M97.401,169.222   c14.562,13.644,33.979,27.229,56.104,40.849" stroke="#000000" stroke-width="0.25" g2gstroke="#312783" stroke-miterlimit="10"/>
	<polyline orgstroke="#000000" orgfill="none" points="97.401,169.222 96.49,168.373    95.497,167.959 94.488,167.807 93.756,167.813 92.705,168.127 92.02,168.469 91.881,169.259 91.863,170.387 92.16,171.212    92.725,172.325 93.537,173.126 94.51,173.736 95.795,174.11 97.176,174.224 98.499,174.134 99.531,174.018 100.197,173.941    101.027,173.611 101.703,173.4  " fill="none" stroke="#000000" stroke-width="0.25" g2gstroke="#312783" stroke-miterlimit="10"/>
	<polyline orgstroke="#000000" orgfill="none" points="349.443,175.272 359.543,170.956    369.566,167.697 371.174,167.12  " fill="none" stroke="#000000" stroke-width="0.25" g2gstroke="#312783" stroke-miterlimit="10"/>
	<polyline orgstroke="#000000" orgfill="none" points="260.436,220.695 266.577,217.623    277.058,211.206 286.018,206.617 292.73,203.265 295.001,201.678 296.335,199.658 299.11,196.867 303.065,193.818 306.934,191.827    310.615,189.647 313.78,189.196 316.892,189.275 320.063,188.648 322.49,187.608 328.198,184.527 338.933,179.731 343.198,177.92     " fill="none" stroke="#000000" stroke-width="0.25" g2gstroke="#312783" stroke-miterlimit="10"/>
	<polyline orgstroke="#000000" orgfill="none" points="241.661,233.473 248.359,228.196    253.182,225.096  " fill="none" stroke="#000000" stroke-width="0.25" g2gstroke="#312783" stroke-miterlimit="10"/>
	<polyline orgstroke="#000000" orgfill="none" points="208.629,239.385 208.986,239.815    209.108,240.094 209.218,241.126 209.323,242.248 209.169,243.473 208.988,244.524 208.762,245.482 208.91,247.227    209.317,248.194 210.302,249.251 211.577,250.334 212.812,251.331 213.837,251.895 214.632,252.317 215.244,252.546    215.678,252.626 215.971,252.605 216.469,252.469 216.832,252.233 229.94,241.637 236.727,237.082  " fill="none" stroke="#000000" stroke-width="0.25" g2gstroke="#312783" stroke-miterlimit="10"/>
	<polyline orgstroke="#000000" orgfill="none" points="392.21,155.54 398.31,151.906    399.815,149.864 400.027,147.302 398.823,143.871 397.532,141.433 393.532,137.175 387.741,131.722 378.44,124.027    367.366,116.362 357.573,109.869 348.448,104.675 342.127,100.953 336.674,97.829 329.385,94.751 320.743,92.126 312.157,90.84    306.528,90.552 298.705,91.178 287.445,94.972 284.253,95.814 270.191,100.871 265.532,102.971 263.948,103.196 262.898,104.176    262.626,105.042 261.904,106.758 260.827,107.911 257.157,109.918 251.516,112.114 247.108,113.527 243.152,114.265    239.413,114.667 237.446,114.859 233.667,115.79 231.058,116.641 220.611,120.396 219.735,121.565 215.091,123.49 209.85,125.546    204.402,127.759 198.762,129.957 195.397,130.567 192.807,131.239 170.72,141.316 160.377,146.144 149.603,151.47 138.326,158.176     " fill="none" stroke="#000000" stroke-width="0.25" g2gstroke="#312783" stroke-miterlimit="10"/>
	<polyline orgstroke="#000000" orgfill="none" points="252.243,105.604 249.807,104.515    247.316,103.953 245.144,104.306 241.542,105.429 232.297,108.751 230.287,109.472 227.185,111.527 225.028,113.586 222.543,115.4    219.369,117.716  " fill="none" stroke="#000000" stroke-width="0.25" g2gstroke="#312783" stroke-miterlimit="10"/>
	<polyline orgstroke="#000000" orgfill="none" points="207.721,119.969 214.705,117.511    218.937,117.398 219.369,117.716 219.778,118.97 219.735,121.565  " fill="none" stroke="#000000" stroke-width="0.25" g2gstroke="#312783" stroke-miterlimit="10"/>
	<polyline orgstroke="#000000" orgfill="none" points="195.001,125.918 197.685,127.646    197.814,128.457 197.496,129.942  " fill="none" stroke="#000000" stroke-width="0.25" g2gstroke="#312783" stroke-miterlimit="10"/>
	<polyline orgstroke="#000000" orgfill="none" points="192.862,128.225 192.811,128.844    193.041,129.574 194.841,130.711  " fill="none" stroke="#000000" stroke-width="0.25" g2gstroke="#312783" stroke-miterlimit="10"/>
	<polyline orgstroke="#000000" orgfill="none" points="212.762,122.512 215.25,121.552    218.413,119.858 219.544,119.152  " fill="none" stroke="#000000" stroke-width="0.25" g2gstroke="#312783" stroke-miterlimit="10"/>
	
		<line orgstroke="#000000" orgfill="none" fill="none" x1="205.88" x2="210.517" y1="125.217" y2="123.38" stroke="#000000" stroke-width="0.25" g2gstroke="#312783" stroke-miterlimit="10"/>
	
		<line orgstroke="#000000" orgfill="none" fill="none" x1="197.983" x2="203.777" y1="127.584" y2="125.847" stroke="#000000" stroke-width="0.25" g2gstroke="#312783" stroke-miterlimit="10"/>
	<polyline orgstroke="#000000" orgfill="none" points="169.073,135.603 167.541,136.744    167.108,138.441 167.132,139.908 167.781,140.896 168.901,141.52 169.671,141.802  " fill="none" stroke="#000000" stroke-width="0.25" g2gstroke="#312783" stroke-miterlimit="10"/>
	<polyline orgstroke="#000000" orgfill="none" points="168.813,142.207 167.781,140.896    167.132,139.908 163.201,139.719 160.698,139.908 158.475,140.26 146.325,145.021 144.512,146.432 143.22,147.925 142.641,149.608    142.24,150.905 142.867,152.157 144.079,153.456 145.883,153.684  " fill="none" stroke="#000000" stroke-width="0.25" g2gstroke="#312783" stroke-miterlimit="10"/>
	<polyline orgstroke="#000000" orgfill="none" points="100.457,168.751 104.058,168.799    107.475,168.149 110.5,166.932 118.133,163.035 123.28,160.929 126.418,160.123 129.097,159.546 131.901,159.243 134.514,159.459    136.37,160.013 138.805,160.613 141.446,162.298 170.928,179.314  " fill="none" stroke="#000000" stroke-width="0.25" g2gstroke="#312783" stroke-miterlimit="10"/>
	<polyline orgstroke="#000000" orgfill="none" points="125.975,160.235 129.78,160.135    131.791,160.566 134.631,161.601 138.109,163.753 167.507,181.369  " fill="none" stroke="#000000" stroke-width="0.25" g2gstroke="#312783" stroke-miterlimit="10"/>
	<polyline orgstroke="#000000" orgfill="none" points="147.419,203.729 148.025,199.474    148.981,196.759 149.893,194.566 152,192.078 154.568,189.542 158.58,186.76 163.792,183.859 173.155,178.507 177.752,175.956    179.413,175.294 181.191,175.042 182.633,175.294 184.613,176.123 187.429,177.422 195.369,182.207 199.546,184.985    202.83,187.281 204.077,188.716 204.615,190.447  " fill="none" stroke="#000000" stroke-width="0.25" g2gstroke="#312783" stroke-miterlimit="10"/>
	<polyline orgstroke="#000000" orgfill="none" points="198.113,198.553 200.924,200.341    204.455,201.845 206.907,202.846 209.774,204.313 212.703,206.02 219.515,210.311 225.262,213.996 228.372,216.373 232.198,219.62    234.515,221.677 235.927,224.058 236.423,226.896 235.925,229.386 235.024,231.444 233.24,233.559 217.681,246.667  " fill="none" stroke="#000000" stroke-width="0.25" g2gstroke="#312783" stroke-miterlimit="10"/>
	<polyline orgstroke="#000000" orgfill="none" points="176.718,217.674 176.621,217.959    176.133,221.104  " fill="none" stroke="#000000" stroke-width="0.25" g2gstroke="#312783" stroke-miterlimit="10"/>
	<polyline orgstroke="#000000" orgfill="none" points="221.848,236.469 215.348,241.272    212.301,242.755 210.202,243.38  " fill="none" stroke="#000000" stroke-width="0.25" g2gstroke="#312783" stroke-miterlimit="10"/>
	
		<line orgstroke="#000000" orgfill="none" fill="none" x1="227.184" x2="223.659" y1="232.528" y2="235.134" stroke="#000000" stroke-width="0.25" g2gstroke="#312783" stroke-miterlimit="10"/>
	<polyline orgstroke="#000000" orgfill="none" points="196.229,200.129 219.68,215.388    224.12,218.287 228.419,221.572 230.096,223.268 231.213,224.469 231.361,226.212 231.208,228.064 230.308,230.121  " fill="none" stroke="#000000" stroke-width="0.25" g2gstroke="#312783" stroke-miterlimit="10"/>
	<polyline orgstroke="#000000" orgfill="none" points="172.834,185.939 175.121,184.797    177.755,183.016 179.17,181.802 180.196,180.019 180.698,179.263 181.332,178.649 182.058,178.709 183.188,179.201    188.477,182.437 193.487,185.514 198.9,189.04 201.958,191.585  " fill="none" stroke="#000000" stroke-width="0.25" g2gstroke="#312783" stroke-miterlimit="10"/>
	<polyline orgstroke="#000000" orgfill="none" points="152.705,202.227 152.384,201.566    152.359,200.1 152.323,198.765 153.381,196.589 154.842,194.844 158.681,192.63 166.893,188.621  " fill="none" stroke="#000000" stroke-width="0.25" g2gstroke="#312783" stroke-miterlimit="10"/>
	
		<line orgstroke="#000000" orgfill="none" fill="none" x1="233.286" x2="242.155" y1="215.315" y2="208.853" stroke="#000000" stroke-width="0.25" g2gstroke="#312783" stroke-miterlimit="10"/>
	<polyline orgstroke="#000000" orgfill="none" points="262.947,196.185 284.825,184.406    285.511,183.263 286.188,182.12 286.848,181.242 287.93,180.532 305.553,172.53 308.198,172.35 310.694,172.29 313.028,172.348    315.271,171.735 317.614,169.93 318.774,168.295 320.232,166.552 321.044,165.552 326.074,163.04 330.769,161.16 334.698,159.62    337.689,158.802 340.323,158.753 343.538,158.752 345.903,158.548 349.198,157.489 363.336,151.385 366.691,150.241    369.581,149.594  " fill="none" stroke="#000000" stroke-width="0.25" g2gstroke="#312783" stroke-miterlimit="10"/>
	<polyline orgstroke="#000000" orgfill="none" points="370.026,149.748 371.615,139.358    372.448,138.845 380.365,136.085 381.696,135.929 382.424,135.988 383.799,137.035 384.47,137.758 385.542,138.911    385.602,139.981 384.906,148.411 384.431,149.272 375.282,153.347 373.767,153.1 372.722,152.213 371.752,151.348 370.026,149.748     " fill="none" stroke="#000000" stroke-width="0.25" g2gstroke="#312783" stroke-miterlimit="10"/>
	
		<line orgstroke="#000000" orgfill="none" fill="none" x1="375.684" x2="375.317" y1="148.525" y2="152.986" stroke="#000000" stroke-width="0.25" g2gstroke="#312783" stroke-miterlimit="10"/>
	<polyline orgstroke="#000000" orgfill="none" points="372.523,139.432 374.971,141.233    375.907,142.245 376.073,143.722 375.948,145.273  " fill="none" stroke="#000000" stroke-width="0.25" g2gstroke="#312783" stroke-miterlimit="10"/>
	
		<line orgstroke="#000000" orgfill="none" fill="none" x1="376.372" x2="385.157" y1="141.918" y2="138.745" stroke="#000000" stroke-width="0.25" g2gstroke="#312783" stroke-miterlimit="10"/>
	<polyline orgstroke="#000000" orgfill="none" points="276.072,201.932 287.398,195.808    290.51,193.534 293.177,191.357 296.134,189.204 298.432,187.929 303.129,185.919 307.015,184.907 310.42,184.39 312.927,184.196    316.02,183.92 317.99,183.017 321.921,181.477  " fill="none" stroke="#000000" stroke-width="0.25" g2gstroke="#312783" stroke-miterlimit="10"/>
	<polyline orgstroke="#000000" orgfill="none" points="285.557,184.467 288.99,187.147    290.235,188.05 291.976,188.194 293.198,187.496 307.481,181.082 309.176,180.022 311.033,178.713 311.907,177.052    312.051,175.332 312.693,172.854  " fill="none" stroke="#000000" stroke-width="0.25" g2gstroke="#312783" stroke-miterlimit="10"/>
	
		<line orgstroke="#000000" orgfill="none" fill="none" x1="304.725" x2="312.693" y1="176.762" y2="172.854" stroke="#000000" stroke-width="0.25" g2gstroke="#312783" stroke-miterlimit="10"/>
	<polyline orgstroke="#000000" orgfill="none" points="287.24,181.808 288.939,182.482    290.365,182.864 292.146,182.612 293.641,182.202 300.618,178.775  " fill="none" stroke="#000000" stroke-width="0.25" g2gstroke="#312783" stroke-miterlimit="10"/>
	
		<line orgstroke="#000000" orgfill="none" fill="none" x1="291.198" x2="290.724" y1="183.469" y2="187.424" stroke="#000000" stroke-width="0.25" g2gstroke="#312783" stroke-miterlimit="10"/>
	<polygon orgstroke="#000000" orgfill="none" points="324.234,180.068 323.922,176.715    324.952,173.069 327.115,169.917 329.657,167.463 331.836,165.91 334.699,164.816 337.951,164.42 341.299,164.694 345.781,165.331    348.073,165.79 350.032,166.884 350.823,168.013 351.043,168.831 350.677,169.733 349.865,170.73 347.859,172.031 327.825,180.766    326.497,180.923 325.477,180.97  " fill="none" stroke="#000000" stroke-width="0.25" g2gstroke="#312783" stroke-miterlimit="10"/>
	<polyline orgstroke="#000000" orgfill="none" points="345.74,165.728 345.02,167.399    345.149,169.409 345.641,170.515 345.876,171.2  " fill="none" stroke="#000000" stroke-width="0.25" g2gstroke="#312783" stroke-miterlimit="10"/>
	<polyline orgstroke="#000000" orgfill="none" points="325.343,175.501 328.144,173.465    329.225,172.757 331.117,172.778 332.251,173.272 333.168,174.547 333.196,176.014 333.055,177.735  " fill="none" stroke="#000000" stroke-width="0.25" g2gstroke="#312783" stroke-miterlimit="10"/>
	<polyline orgstroke="#000000" orgfill="none" points="333.032,172.67 340.311,169.543    342.584,168.53  " fill="none" stroke="#000000" stroke-width="0.25" g2gstroke="#312783" stroke-miterlimit="10"/>
	<polygon orgstroke="#000000" orgfill="none" points="247.698,219.32 246.918,216.021    247.42,212.277 249.112,208.892 251.277,206.152 253.205,204.354 255.894,202.927 259.054,202.145 262.398,202.022 266.92,202.126    269.266,202.308 271.358,203.162 272.286,204.193 272.635,204.978 272.397,205.918 271.736,207.007 269.931,208.536    251.362,219.586 250.068,219.898 249.057,220.068  " fill="none" stroke="#000000" stroke-width="0.25" g2gstroke="#312783" stroke-miterlimit="10"/>
	<polyline orgstroke="#000000" orgfill="none" points="266.948,202.524 266.469,204.271    266.883,206.253 267.528,207.292 267.855,207.944  " fill="none" stroke="#000000" stroke-width="0.25" g2gstroke="#312783" stroke-miterlimit="10"/>
	<polyline orgstroke="#000000" orgfill="none" points="248.149,214.647 250.626,212.298    251.6,211.463 253.482,211.26 254.667,211.617 255.761,212.775 255.99,214.229 256.097,215.954  " fill="none" stroke="#000000" stroke-width="0.25" g2gstroke="#312783" stroke-miterlimit="10"/>
	<polyline orgstroke="#000000" orgfill="none" points="255.355,210.927 262.115,206.959    264.222,205.682  " fill="none" stroke="#000000" stroke-width="0.25" g2gstroke="#312783" stroke-miterlimit="10"/>
	
		<line orgstroke="#000000" orgfill="none" fill="none" x1="239.115" x2="245.265" y1="226.187" y2="222.565" stroke="#000000" stroke-width="0.25" g2gstroke="#312783" stroke-miterlimit="10"/>
	<polygon orgstroke="#000000" orgfill="none" points="275.896,122.654 277.469,121.32    278.149,120.178 279.349,118.012 280.907,116.81 283.223,115.402 286.379,114.331 289.907,114.091 293.977,114.426 298.41,115.594    303.375,117.469 313.092,122.001 316.974,124.586 319.036,126.089 320.073,127.771 320.448,130.912 319.573,135.591    318.41,137.226 316.854,138.429 314.433,139.427 311.74,140.139 309.658,140.498 303.096,140.356 298.782,139.469 289.133,134.139    282.568,130.399 277.198,126.359 275.825,125.181 275.384,124.224  " fill="none" stroke="#000000" stroke-width="0.25" g2gstroke="#312783" stroke-miterlimit="10"/>
	<polyline orgstroke="#000000" orgfill="none" points="307.201,122.447 314.282,126.671    315.396,127.784 315.872,129.023 316.057,130.371 315.513,131.658 314.555,132.645 311.072,134.088 308.471,135.471    307.084,136.29 305.407,137.084 304.2,137.516  " fill="none" stroke="#000000" stroke-width="0.25" g2gstroke="#312783" stroke-miterlimit="10"/>
	<polyline orgstroke="#000000" orgfill="none" points="278.397,120.729 284.144,118.141    287.149,117.459 289.816,117.011 293.092,117.014 295.908,117.517 301.368,119.62  " fill="none" stroke="#000000" stroke-width="0.25" g2gstroke="#312783" stroke-miterlimit="10"/>
	<polyline orgstroke="#000000" orgfill="none" points="320.364,131.351 319.097,133.38    317.136,135.38 314.365,137.382 312.31,138.186 309.615,138.745  " fill="none" stroke="#000000" stroke-width="0.25" g2gstroke="#312783" stroke-miterlimit="10"/>
	<polyline orgstroke="#000000" orgfill="none" points="284.377,87.045 287.544,88.79    288.24,88.899 289.483,88.631 298.23,85.446  " fill="none" stroke="#000000" stroke-width="0.25" g2gstroke="#312783" stroke-miterlimit="10"/>
	
		<line orgstroke="#000000" orgfill="none" fill="none" x1="288.095" x2="287.445" y1="89.206" y2="94.972" stroke="#000000" stroke-width="0.25" g2gstroke="#312783" stroke-miterlimit="10"/>
	<polyline orgstroke="#000000" orgfill="none" points="298.778,88.143 298.854,88.521    298.848,89.061 298.847,89.532 298.802,90.51 298.705,91.178  " fill="none" stroke="#000000" stroke-width="0.25" g2gstroke="#312783" stroke-miterlimit="10"/>
	
		<line orgstroke="#000000" orgfill="none" fill="none" x1="283.191" x2="287.445" y1="93.746" y2="94.972" stroke="#000000" stroke-width="0.25" g2gstroke="#312783" stroke-miterlimit="10"/>
	<polyline orgstroke="#000000" orgfill="none" points="385.776,144.141 387.304,143.335    388.846,142.397 389.833,141.013 390.448,138.933 390.419,137.466 390.431,135.601 389.524,134.192  " fill="none" stroke="#000000" stroke-width="0.25" g2gstroke="#312783" stroke-miterlimit="10"/>
	<path orgstroke="#000000" orgfill="none" fill="none" d="M256.251,181.834l0.021-0.07l0.091-0.206   l-0.088-1.065l-0.008-0.254l-0.204-0.244c-26.093-16.563-42.93-25.496-63.021-36.438l-1.054,0.019l-1.935,0.688l-24.264,12.423   l-3.604,2.26l-0.229,0.277l-0.031,0.188l0.031,0.811" stroke="#000000" stroke-width="0.25" g2gstroke="#312783" stroke-miterlimit="10"/>
	<polyline orgstroke="#000000" orgfill="none" points="204.615,190.447 204.432,192.701    204.034,193.951 203.062,195.114 202.06,196.631 201.703,197.399 201.519,198.45 200.924,200.341  " fill="none" stroke="#000000" stroke-width="0.25" g2gstroke="#312783" stroke-miterlimit="10"/>
	<polyline orgstroke="#000000" orgfill="none" points="201.958,191.585 202.148,192.019    201.62,192.509 201.016,192.725  " fill="none" stroke="#000000" stroke-width="0.25" g2gstroke="#312783" stroke-miterlimit="10"/>
</g>
</g>
</g></svg>