<svg xmlns="http://www.w3.org/2000/svg" xmlns:xlink="http://www.w3.org/1999/xlink" xmlns:etg="http://www.eurotaxglass.com/etg/evd/" etg:dataTimestamp="1539068912893" contentScriptType="text/ecmascript" zoomAndPan="magnify" contentStyleType="text/css" id="Layer_1" enable-background="new 0 0 1841.891 1595.279" version="1.1" xml:space="preserve" width="1841.891px" preserveAspectRatio="xMidYMid meet" viewBox="0 0 1841.891 1595.279" height="1595.279px" x="0px" y="0px"><g xmlns="http://www.w3.org/2000/svg" objecttype="PS" tooltip="#UNDEFINED" id="32">
<g onmouseover="notifyOwner(AGV_OBJECT_MOUSEOVER, '32(PS)')" transform="translate(65.41986523437498, 61.739147521972654) translate(-72.0, -25.0) translate(33.0, -48.0) translate(-188.0, -75.0) translate(347.0, 136.0) translate(0.0, -4.0)" onclick="clickZoom(evt); notifyOwner(AGV_OBJECT_MOUSECLICK, '32(PS)')" onmouseout="notifyOwner(AGV_OBJECT_MOUSEOUT, '32(PS)')" tooltip="#UNDEFINED" id="32-Graphic" objecttype="GRAPHIC">
<g>
	<path orgstroke="#000000" orgfill="#ffffff" fill="#ffffff" g2gfill="#82AA8E" d="M256.101,165.373   c-16.063-9.554-40.1-23.354-60.955-35.063l-0.452-0.197l-0.397-0.059l-0.396-0.035l-0.326,0.063l-0.675,0.279l0.001,0.034   l-14.386,8.244l-13.529,8.385l-0.467,0.363l-0.107,0.104l-0.063,0.229l-0.101,0.202l0.104,1.105l0.011,0.271l0.215,0.235   c25.144,17.64,45.292,28.167,64.816,36.354l1.078-0.048l2.36-1.772l20.269-13.669l3.683-2.438l0.239-0.292l0.021-0.198   l-0.046-1.104l-0.102-0.273l-0.296-0.386L256.101,165.373z" stroke="#000000" stroke-width="0.25" g2gstroke="#312783" stroke-miterlimit="10"/>
	<path orgstroke="#000000" orgfill="none" fill="none" d="M254.345,166.511   c-16.051-9.501-38.747-22.522-59.106-33.965l-0.44-0.195l-0.407-0.063l-0.396-0.023l-0.318,0.063l-0.683,0.281l0.001,0.038   l-14.387,8.243l-11.815,7.34l0.021,0.313c24.309,16.896,43.438,26.766,62.501,34.73l1.08-0.046l2.358-1.771l20.271-13.67   l1.354-0.896L254.345,166.511z" stroke="#000000" stroke-width="0.25" g2gstroke="#312783" stroke-miterlimit="10"/>
	<path orgstroke="#000000" orgfill="none" fill="none" d="M170.08,146.479   c24.308,16.708,43.496,26.538,62.563,34.465" stroke="#000000" stroke-width="0.25" g2gstroke="#312783" stroke-miterlimit="10"/>
	<path orgstroke="#000000" orgfill="none" fill="none" d="M208.217,138.882   c-4.412-2.503-8.782-4.979-13.023-7.354l-0.452-0.197l-0.398-0.06l-0.396-0.035l-0.325,0.063l-0.676,0.274l0.001,0.035   l-14.382,8.244l-12.317,7.646" stroke="#000000" stroke-width="0.25" g2gstroke="#312783" stroke-miterlimit="10"/>
	<path orgstroke="#000000" orgfill="none" fill="none" d="M213.863,142.094   c-0.385-0.229-0.771-0.44-1.146-0.663" stroke="#000000" stroke-width="0.25" g2gstroke="#312783" stroke-miterlimit="10"/>
	<path orgstroke="#000000" orgfill="none" fill="none" d="M254.999,165.915   c-11.031-6.528-25.54-14.937-40.146-23.263" stroke="#000000" stroke-width="0.25" g2gstroke="#312783" stroke-miterlimit="10"/>
	<path orgstroke="#000000" orgfill="none" fill="none" d="M172.112,153.402   c-2.453-1.646-4.96-3.368-7.513-5.164" stroke="#000000" stroke-width="0.25" g2gstroke="#312783" stroke-miterlimit="10"/>
	<path orgstroke="#000000" orgfill="none" fill="none" d="M181.187,159.327   c-2.104-1.338-4.254-2.724-6.437-4.166" stroke="#000000" stroke-width="0.25" g2gstroke="#312783" stroke-miterlimit="10"/>
	<path orgstroke="#000000" orgfill="none" fill="none" d="M240.727,177.456l1.51-1.021l1.286-0.867   l1.199-0.812l8.396-5.667l3.688-2.438" stroke="#000000" stroke-width="0.25" g2gstroke="#312783" stroke-miterlimit="10"/>
	<path orgstroke="#000000" orgfill="none" fill="none" d="M236.224,180.492l3.313-2.229" stroke="#000000" stroke-width="0.25" g2gstroke="#312783" stroke-miterlimit="10"/>
	<path orgstroke="#000000" orgfill="none" fill="none" d="M184.018,161.1   c16.589,10.303,31.161,17.519,45.396,23.479l1.079-0.043l2.355-1.771l1.688-1.134" stroke="#000000" stroke-width="0.25" g2gstroke="#312783" stroke-miterlimit="10"/>
	<polyline orgstroke="#000000" orgfill="none" points="166.238,147.508 166.09,147.623    166.073,147.768 166.104,147.936 166.135,148.128 166.284,148.194 166.506,148.354  " fill="none" stroke="#000000" stroke-width="0.25" g2gstroke="#312783" stroke-miterlimit="10"/>
	<polyline orgstroke="#000000" orgfill="none" points="254.999,165.915 255.125,166.018    255.211,166.138 255.157,166.277 255.042,166.423 254.615,166.697  " fill="none" stroke="#000000" stroke-width="0.25" g2gstroke="#312783" stroke-miterlimit="10"/>
	<polyline orgstroke="#000000" orgfill="none" points="172.173,151.709 172.784,151.152    172.784,151.152 173.313,151.131 173.96,151.421 177.765,153.908 178.322,154.52 178.131,155.056 177.327,155.635  " fill="none" stroke="#000000" stroke-width="0.25" g2gstroke="#312783" stroke-miterlimit="10"/>
	<polyline orgstroke="#000000" orgfill="none" points="211.075,174.623 211.61,173.995    211.61,173.995 212.127,173.902 212.809,174.103 216.913,176.059 217.545,176.594 217.429,177.15 216.705,177.828  " fill="none" stroke="#000000" stroke-width="0.25" g2gstroke="#312783" stroke-miterlimit="10"/>
	
		<line orgstroke="#000000" orgfill="none" fill="none" x1="208.217" x2="212.708" y1="138.882" y2="141.432" stroke="#000000" stroke-width="0.25" g2gstroke="#312783" stroke-miterlimit="10"/>
	
		<line orgstroke="#000000" orgfill="none" fill="none" x1="213.863" x2="214.854" y1="142.094" y2="142.656" stroke="#000000" stroke-width="0.25" g2gstroke="#312783" stroke-miterlimit="10"/>
</g>
</g>
</g></svg>