<svg xmlns="http://www.w3.org/2000/svg" xmlns:xlink="http://www.w3.org/1999/xlink" xmlns:etg="http://www.eurotaxglass.com/etg/evd/" etg:dataTimestamp="1539068912893" contentScriptType="text/ecmascript" zoomAndPan="magnify" contentStyleType="text/css" id="Layer_1" enable-background="new 0 0 1841.891 1595.279" version="1.1" xml:space="preserve" width="1841.891px" preserveAspectRatio="xMidYMid meet" viewBox="0 0 1841.891 1595.279" height="1595.279px" x="0px" y="0px"><g xmlns="http://www.w3.org/2000/svg" objecttype="PS" tooltip="#UNDEFINED" id="45">
<g onmouseover="notifyOwner(AGV_OBJECT_MOUSEOVER, '45(PS)')" transform="translate(65.41986523437498, 61.739147521972654) translate(-72.0, -25.0) translate(33.0, -48.0) translate(-188.0, -75.0) translate(347.0, 136.0) translate(55.0, -48.0) translate(20,20) " onclick="clickZoom(evt); notifyOwner(AGV_OBJECT_MOUSECLICK, '45(PS)')" onmouseout="notifyOwner(AGV_OBJECT_MOUSEOUT, '45(PS)')" tooltip="#UNDEFINED" id="45-Graphic" objecttype="GRAPHIC">
<g zvalue="33">
<g>
<path orgstroke="#000000" orgfill="#ffffff" fill="#ffffff" g2gfill="#ECC35D" d="M255.04299926757812 130.052001953125L256.91900634765625 130.80099487304688L258.78399658203125 131.9219970703125L260.0509948730469 133.93499755859375L260.6080017089844 135.61900329589844L260.7950134277344 138.05499267578125L260.2340087890625 140.48899841308594L259.114013671875 143.29800415039062L258.1700134277344 145.3560028076172L256.8479919433594 147.6020050048828L256.30499267578125 149.1009979248047L255.92999267578125 151.16099548339844L256.114013671875 153.41000366210938L256.864990234375 155.093994140625L257.614990234375 157.031005859375L257.739013671875 157.5240020751953L257.6449890136719 157.70899963378906L257.5090026855469 157.9219970703125L257.364990234375 158.01600646972656L257.0799865722656 158.01600646972656L256.8479919433594 158.01600646972656L256.5249938964844 157.9219970703125L256.2860107421875 157.80499267578125L256.14898681640625 157.5919952392578L255.86500549316406 157.0780029296875L255.11500549316406 155.39300537109375L254.36500549316406 153.70700073242188L254.18499755859375 151.46200561523438L254.5570068359375 149.4010009765625L255.3070068359375 147.343994140625L256.385986328125 145.4199981689453L257.364990234375 143.5959930419922L258.48699951171875 140.7899932861328L259.052001953125 138.35400390625L258.8609924316406 135.91900634765625L258.30499267578125 134.23399353027344L257.5559997558594 133.10899353027344L255.68099975585938 131.98500061035156L253.80999755859375 131.23599243164062L253.48399353027344 131.0500030517578L253.36099243164062 130.88600158691406L253.36099243164062 130.79299926757812L253.40699768066406 130.60400390625L253.55099487304688 130.3470001220703L253.64999389648438 130.1820068359375L253.9459991455078 129.86399841308594L254.60299682617188 129.86399841308594Z" stroke="#000000" outline-element="true" stroke-width="0.5" g2gstroke="#312783" stroke-miterlimit="10"/>
<path orgstroke="#000000" orgfill="none" fill="none" d="M257.0799865722656 156.8419952392578L256.8680114746094 156.7729949951172L256.6860046386719 156.7259979248047L256.54400634765625 156.7729949951172L256.4729919433594 156.89100646972656L256.4049987792969 157.00900268554688" stroke="#000000" stroke-width="0.25" g2gstroke="#312783" stroke-miterlimit="10"/>
</g>
</g>
</g>
</g></svg>