<svg xmlns="http://www.w3.org/2000/svg" xmlns:xlink="http://www.w3.org/1999/xlink" xmlns:etg="http://www.eurotaxglass.com/etg/evd/" etg:dataTimestamp="1539068912893" contentScriptType="text/ecmascript" zoomAndPan="magnify" contentStyleType="text/css" id="Layer_1" enable-background="new 0 0 1841.891 1595.279" version="1.1" xml:space="preserve" width="1841.891px" preserveAspectRatio="xMidYMid meet" viewBox="0 0 1841.891 1595.279" height="1595.279px" x="0px" y="0px"><g xmlns="http://www.w3.org/2000/svg" objecttype="PS" tooltip="#UNDEFINED" id="47">
<g onmouseover="notifyOwner(AGV_OBJECT_MOUSEOVER, '47(PS)')" transform="translate(65.41986523437498, 61.739147521972654) translate(-72.0, -25.0) translate(33.0, -48.0) translate(-188.0, -75.0) translate(-10.0, 4.0) translate(8.0, -9.0) translate(127.0, 253.0) translate(-137,-243) " onclick="clickZoom(evt); notifyOwner(AGV_OBJECT_MOUSECLICK, '47(PS)')" onmouseout="notifyOwner(AGV_OBJECT_MOUSEOUT, '47(PS)')" tooltip="#UNDEFINED" id="47-Graphic" objecttype="GRAPHIC">
<g zvalue="23">
<g>
<path orgstroke="#000000" orgfill="#ffffff" fill="#ffffff" g2gfill="#ECC35D" d="M703.8259887695312 364.23699951171875L699.3920288085938 367.00799560546875L698.8389892578125 367.42401123046875L698.5609741210938 368.1109924316406L698.5609741210938 368.9440002441406L698.8389892578125 370.052001953125L699.6729736328125 373.2359924316406L700.77001953125 377.6659851074219L702.1680297851562 383.0660095214844L703.9650268554688 391.37298583984375L704.6480102539062 395.1099853515625L705.3499755859375 400.7900085449219L705.906005859375 406.18701171875L705.7670288085938 411.5870056152344L706.0460205078125 412.2879943847656L708.260009765625 413.6650085449219L708.6729736328125 413.802001953125L710.3359985351562 413.10699462890625L710.6129760742188 412.5539855957031L710.468994140625 410.47698974609375L710.7529907226562 409.7900085449219L715.3140258789062 407.1650085449219L716.0130004882812 406.74798583984375L716.697998046875 406.8810119628906L718.0889892578125 407.9859924316406L719.0579833984375 408.12799072265625L720.572998046875 407.1650085449219L720.8519897460938 406.74798583984375L720.719970703125 402.45599365234375L719.6110229492188 396.0820007324219L718.0889892578125 390.8219909667969L716.426025390625 385.5559997558594L713.7969970703125 376.9729919433594L711.719970703125 371.29901123046875L708.3920288085938 364.37799072265625L707.7030029296875 363.5459899902344L706.458984375 363.1310119628906L705.489013671875 363.4049987792969Z" stroke="#000000" outline-element="true" stroke-width="0.5" g2gstroke="#312783" stroke-miterlimit="10"/>
<path orgstroke="#000000" orgfill="none" fill="none" d="M711.1740112304688 375.6579895019531L709.9290161132812 372.260009765625L706.9130249023438 365.989013671875" stroke="#000000" stroke-width="0.25" g2gstroke="#312783" stroke-miterlimit="10"/>
<path orgstroke="#000000" orgfill="none" fill="none" d="M715.969970703125 390.7659912109375L714.6370239257812 386.51800537109375L712.281982421875 378.85400390625" stroke="#000000" stroke-width="0.25" g2gstroke="#312783" stroke-miterlimit="10"/>
<path orgstroke="#000000" orgfill="none" fill="none" d="M719.0330200195312 407.9200134277344L718.927001953125 403.4150085449219L717.8200073242188 397.0409851074219L717.3820190429688 395.5530090332031" stroke="#000000" stroke-width="0.25" g2gstroke="#312783" stroke-miterlimit="10"/>
<path orgstroke="#000000" orgfill="none" fill="none" d="M716.5180053710938 406.49798583984375L716.4099731445312 401.8320007324219L715.3060302734375 395.4580078125L713.781005859375 390.197998046875L712.1179809570312 384.93499755859375L709.489990234375 376.35101318359375L707.4110107421875 370.677001953125L705.4199829101562 365.989013671875" stroke="#000000" stroke-width="0.25" g2gstroke="#312783" stroke-miterlimit="10"/>
<path orgstroke="#000000" orgfill="none" fill="none" d="M708.5590209960938 403.9150085449219L708.6729736328125 405.6709899902344L708.6729736328125 409.74798583984375L708.6729736328125 413.802001953125" stroke="#000000" stroke-width="0.25" g2gstroke="#312783" stroke-miterlimit="10"/>
<path orgstroke="#000000" orgfill="none" fill="none" d="M705.0440063476562 385.0679931640625L705.6290283203125 387.0379943847656L706.697998046875 391.135009765625L707.656005859375 396.49798583984375L708.364013671875 400.8550109863281" stroke="#000000" stroke-width="0.25" g2gstroke="#312783" stroke-miterlimit="10"/>
<path orgstroke="#000000" orgfill="none" fill="none" d="M700.739013671875 369.0369873046875L701.4749755859375 372.0830078125L702.8510131835938 377.343994140625L703.4349975585938 379.4620056152344" stroke="#000000" stroke-width="0.25" g2gstroke="#312783" stroke-miterlimit="10"/>
<path orgstroke="#000000" orgfill="none" fill="none" d="M702.7520141601562 368.22198486328125L703.489013671875 371.2669982910156L704.864990234375 376.5270080566406L706.3499755859375 381.8810119628906L707.635986328125 386.218994140625L708.7160034179688 390.31201171875L709.6719970703125 395.67498779296875L710.3790283203125 400.0409851074219L710.6799926757812 404.85101318359375L710.6799926757812 408.927001953125L710.6799926757812 409.2669982910156" stroke="#000000" stroke-width="0.25" g2gstroke="#312783" stroke-miterlimit="10"/>
<path orgstroke="#000000" orgfill="none" fill="none" d="M698.9349975585938 368.2900085449219L700.739013671875 369.0369873046875L701.1279907226562 369.0140075683594L701.2659912109375 368.9440002441406L702.60400390625 368.2900085449219L702.6420288085938 368.0469970703125L702.5789794921875 367.94000244140625L702.1680297851562 367.52398681640625L701.9910278320312 367.3869934082031L702.0590209960938 367.1809997558594L702.2670288085938 366.97100830078125L705.1740112304688 365.5199890136719L705.4199829101562 365.4809875488281L705.6290283203125 365.4469909667969L706.458984375 365.83099365234375L706.7670288085938 365.9330139160156L706.9390258789062 365.83099365234375L708.260009765625 365.0320129394531" stroke="#000000" stroke-width="0.25" g2gstroke="#312783" stroke-miterlimit="10"/>
<path orgstroke="#000000" orgfill="none" fill="none" d="M704.3909912109375 374.7179870605469L705.6729736328125 374.0329895019531L706.2219848632812 374.0329895019531L706.958984375 374.5899963378906L709.1820068359375 381.04901123046875L709.1820068359375 382.3429870605469L708.4390258789062 382.71099853515625L706.7940063476562 383.37701416015625" stroke="#000000" stroke-width="0.25" g2gstroke="#312783" stroke-miterlimit="10"/>
</g>
</g>
</g>
</g></svg>