<svg xmlns="http://www.w3.org/2000/svg" xmlns:xlink="http://www.w3.org/1999/xlink" xmlns:etg="http://www.eurotaxglass.com/etg/evd/" etg:dataTimestamp="1539068912893" contentScriptType="text/ecmascript" zoomAndPan="magnify" contentStyleType="text/css" id="Layer_1" enable-background="new 0 0 1841.891 1595.279" version="1.1" xml:space="preserve" width="1841.891px" preserveAspectRatio="xMidYMid meet" viewBox="0 0 1841.891 1595.279" height="1595.279px" x="0px" y="0px"><g xmlns="http://www.w3.org/2000/svg" objecttype="PS" tooltip="#UNDEFINED" id="52">
<g onmouseover="notifyOwner(AGV_OBJECT_MOUSEOVER, '52(PS)')" transform="translate(-1.0864257831144641E-5, 66.80804286193847) translate(-478.1112626953125, -9.244252822875978) translate(3.0149374573699106, -6.460580265792629) matrix(0.8695566630764137 0 0 0.8695566630764137 109.06894141585525 30.295718777441675) rotate(5.418791187572636 859.2533645629883 178.56176376342773) translate(504.52433272010774, -48.395619445573914) matrix(1.7561104439487845 0 0 1.7561104439487845 -254.4037978425464 -211.07277152130152) translate(36.308689697265606, -1.4010578613281268) translate(34.250095947265606, -8.631938598632814) translate(12.0, 2.0)" onclick="clickZoom(evt); notifyOwner(AGV_OBJECT_MOUSECLICK, '52(PS)')" onmouseout="notifyOwner(AGV_OBJECT_MOUSEOUT, '52(PS)')" tooltip="#UNDEFINED" id="52-Graphic" objecttype="GRAPHIC">
<g>
	<path orgstroke="#000000" orgfill="#ffffff" fill="#ffffff" g2gfill="#BCBEC0" d="M266.905,280.493   c0,0-10.833-38.082-11.917-42.5c-1.083-4.416-0.167-4.309,0-6.652c0.167-2.343,1.232-1.459,2.199-0.286   c0.967,1.168,2.214,0.266,4.697-1.019c3.541-1.824,3.806-2.295,5.021-0.813c1.218,1.479-0.083,1.225-0.333,7.457   c-0.25,6.231,0.834,10.231,3.167,18.563c2.333,8.334-3.709,0.021,1.748,16.563c1.347,4.852,3.22,6.848,0.109,11.791   C270.4,285.499,268.806,287.189,266.905,280.493z" outline-element="true" stroke="#000000" stroke-width="0.5" g2gstroke="#312783" stroke-miterlimit="10"/>
	<path orgstroke="#000000" orgfill="none" fill="none" d="M269.795,284.9   c-0.16-0.463-0.322-0.982-0.486-1.563c0,0-10.833-38.084-11.917-42.5c-0.78-3.252,0-6.649,0-6.649" stroke="#000000" stroke-width="0.25" g2gstroke="#312783" stroke-miterlimit="10"/>
	<path orgstroke="#000000" orgfill="none" fill="none" d="M254.988,231.712c0,0,1.306,1.449,1.514,1.701   c0.967,1.168,2.276,0.383,4.694-1.016c2.974-1.719,5.708-3.178,5.708-3.178" stroke="#000000" stroke-width="0.25" g2gstroke="#312783" stroke-miterlimit="10"/>
	<path orgstroke="#000000" orgfill="none" fill="none" d="M259.09,247.107c0,0,1.043-3.344,2.104-5.551   c1.063-2.209,1.729-4.543,3.271-4.563s2.094-0.021,2.094-0.021" stroke="#000000" stroke-width="0.25" g2gstroke="#312783" stroke-miterlimit="10"/>
</g>
</g>
</g></svg>