<svg xmlns="http://www.w3.org/2000/svg" xmlns:xlink="http://www.w3.org/1999/xlink" xmlns:etg="http://www.eurotaxglass.com/etg/evd/" etg:dataTimestamp="1539068912893" contentScriptType="text/ecmascript" zoomAndPan="magnify" contentStyleType="text/css" id="Layer_1" enable-background="new 0 0 1841.891 1595.279" version="1.1" xml:space="preserve" width="1841.891px" preserveAspectRatio="xMidYMid meet" viewBox="0 0 1841.891 1595.279" height="1595.279px" x="0px" y="0px"><g xmlns="http://www.w3.org/2000/svg" objecttype="PS" tooltip="#UNDEFINED" id="55">
<g onmouseover="notifyOwner(AGV_OBJECT_MOUSEOVER, '55(PS)')" transform="translate(-30.0, -7.0) translate(128,-78) " onclick="clickZoom(evt); notifyOwner(AGV_OBJECT_MOUSECLICK, '55(PS)')" onmouseout="notifyOwner(AGV_OBJECT_MOUSEOUT, '55(PS)')" tooltip="#UNDEFINED" id="55-Graphic" objecttype="GRAPHIC">
<g zvalue="9">
<g>
<path orgstroke="#000000" orgfill="#ffffff" transform="translate(65.41986523437498, 61.739147521972654) translate(-72.0, -25.0) translate(33.0, -48.0) translate(-188.0, -75.0) " fill="#ffffff" g2gfill="#BCBEC0" d="M674.051025390625 526.0880126953125L710.0590209960938 509.3819885253906L710.5239868164062 508.260009765625L710.7969970703125 507.052001953125L710.4299926757812 503.99798583984375L709.864990234375 501.58099365234375L708.947998046875 498.9779968261719L707.4630126953125 496.7560119628906L706.905029296875 496.1000061035156L705.781982421875 495.7309875488281L704.864013671875 495.635986328125L704.0280151367188 495.635986328125L697.8040161132812 498.593994140625L662.1690063476562 515.1259765625L661.801025390625 515.302001953125L661.197998046875 515.6370239257812L661.1530151367188 516.0089721679688L661.0590209960938 516.2969970703125L661.10400390625 516.802001953125L661.322998046875 517.1409912109375L662.5859985351562 519.0399780273438L665.5599975585938 521.0070190429688L670.218994140625 526.9819946289062L671.8889770507812 526.9819946289062Z" stroke="#000000" outline-element="true" stroke-width="0.5" g2gstroke="#312783" stroke-miterlimit="10"/>
<path orgstroke="#000000" orgfill="none" transform="translate(65.41986523437498, 61.739147521972654) translate(-72.0, -25.0) translate(33.0, -48.0) translate(-188.0, -75.0) " fill="none" d="M661.801025390625 515.6840209960938L663.280029296875 517.9210205078125L667.072998046875 520.2319946289062L671.8560180664062 526.6010131835938" stroke="#000000" stroke-width="0.25" g2gstroke="#312783" stroke-miterlimit="10"/>
<path orgstroke="#000000" orgfill="none" transform="translate(65.41986523437498, 61.739147521972654) translate(-72.0, -25.0) translate(33.0, -48.0) translate(-188.0, -75.0) " fill="none" d="M685.739990234375 504.0589904785156L687.2269897460938 506.2900085449219L691.6799926757812 507.77301025390625L696.8610229492188 515.5070190429688" stroke="#000000" stroke-width="0.25" g2gstroke="#312783" stroke-miterlimit="10"/>
<path orgstroke="#000000" orgfill="none" transform="translate(65.41986523437498, 61.739147521972654) translate(-72.0, -25.0) translate(33.0, -48.0) translate(-188.0, -75.0) " fill="none" d="M697.739990234375 507.35198974609375L701.7269897460938 513.3090209960938" stroke="#000000" stroke-width="0.25" g2gstroke="#312783" stroke-miterlimit="10"/>
<path orgstroke="#000000" orgfill="none" transform="translate(65.41986523437498, 61.739147521972654) translate(-72.0, -25.0) translate(33.0, -48.0) translate(-188.0, -75.0) " fill="none" d="M699.7349853515625 506.37298583984375L703.7160034179688 512.3309936523438" stroke="#000000" stroke-width="0.25" g2gstroke="#312783" stroke-miterlimit="10"/>
<path orgstroke="#000000" orgfill="none" transform="translate(65.41986523437498, 61.739147521972654) translate(-72.0, -25.0) translate(33.0, -48.0) translate(-188.0, -75.0) " fill="none" d="M698.4849853515625 498.27398681640625L699.9760131835938 500.97198486328125L704.4310302734375 502.4670104980469L709.3610229492188 509.70599365234375" stroke="#000000" stroke-width="0.25" g2gstroke="#312783" stroke-miterlimit="10"/>
<path orgstroke="#000000" orgfill="none" transform="translate(65.41986523437498, 61.739147521972654) translate(-72.0, -25.0) translate(33.0, -48.0) translate(-188.0, -75.0) " fill="none" d="M663.364990234375 517.7260131835938L699.9760131835938 500.97198486328125" stroke="#000000" stroke-width="0.25" g2gstroke="#312783" stroke-miterlimit="10"/>
<path orgstroke="#000000" orgfill="none" transform="translate(65.41986523437498, 61.739147521972654) translate(-72.0, -25.0) translate(33.0, -48.0) translate(-188.0, -75.0) " fill="none" d="M684.781005859375 511.6650085449219L703.7639770507812 502.7139892578125" stroke="#000000" stroke-width="0.25" g2gstroke="#312783" stroke-miterlimit="10"/>
<path orgstroke="#000000" orgfill="none" transform="translate(65.41986523437498, 61.739147521972654) translate(-72.0, -25.0) translate(33.0, -48.0) translate(-188.0, -75.0) " fill="none" d="M667.072998046875 519.9979858398438L681.5869750976562 513.1649780273438" stroke="#000000" stroke-width="0.25" g2gstroke="#312783" stroke-miterlimit="10"/>
<path orgstroke="#000000" orgfill="none" transform="translate(65.41986523437498, 61.739147521972654) translate(-72.0, -25.0) translate(33.0, -48.0) translate(-188.0, -75.0) " fill="none" d="M668.9409790039062 522.4569702148438L685.739990234375 514.5809936523438" stroke="#000000" stroke-width="0.25" g2gstroke="#312783" stroke-miterlimit="10"/>
<path orgstroke="#000000" orgfill="none" transform="translate(65.41986523437498, 61.739147521972654) translate(-72.0, -25.0) translate(33.0, -48.0) translate(-188.0, -75.0) " fill="none" d="M683.4840087890625 519.5809936523438L687.81298828125 517.5869750976562" stroke="#000000" stroke-width="0.25" g2gstroke="#312783" stroke-miterlimit="10"/>
<path orgstroke="#000000" orgfill="none" transform="translate(65.41986523437498, 61.739147521972654) translate(-72.0, -25.0) translate(33.0, -48.0) translate(-188.0, -75.0) " fill="none" d="M670.927978515625 525.3729858398438L679.406005859375 521.4559936523438" stroke="#000000" stroke-width="0.25" g2gstroke="#312783" stroke-miterlimit="10"/>
<path orgstroke="#000000" orgfill="none" transform="translate(65.41986523437498, 61.739147521972654) translate(-72.0, -25.0) translate(33.0, -48.0) translate(-188.0, -75.0) " fill="none" d="M685.739990234375 514.5809936523438L686.2559814453125 514.4310302734375L686.9039916992188 514.5809936523438L687.4619750976562 514.802001953125L687.927978515625 515.1740112304688L688.1110229492188 515.5919799804688L688.2969970703125 516.2059936523438L688.2969970703125 516.6229858398438L688.197998046875 517.0399780273438L687.81298828125 517.5869750976562" stroke="#000000" stroke-width="0.25" g2gstroke="#312783" stroke-miterlimit="10"/>
<path orgstroke="#000000" orgfill="none" transform="translate(65.41986523437498, 61.739147521972654) translate(-72.0, -25.0) translate(33.0, -48.0) translate(-188.0, -75.0) " fill="none" d="M707.4630126953125 500.23199462890625L707.822998046875 499.3489990234375L708.1110229492188 498.1419982910156" stroke="#000000" stroke-width="0.25" g2gstroke="#312783" stroke-miterlimit="10"/>
<path orgstroke="#000000" orgfill="none" transform="translate(65.41986523437498, 61.739147521972654) translate(-72.0, -25.0) translate(33.0, -48.0) translate(-188.0, -75.0) " fill="none" d="M703.7639770507812 502.7139892578125L705.5050048828125 501.9020080566406L706.2329711914062 501.4169921875" stroke="#000000" stroke-width="0.25" g2gstroke="#312783" stroke-miterlimit="10"/>
</g>
</g>
</g>
</g></svg>