<svg xmlns="http://www.w3.org/2000/svg" xmlns:xlink="http://www.w3.org/1999/xlink" xmlns:etg="http://www.eurotaxglass.com/etg/evd/" etg:dataTimestamp="1539068912893" contentScriptType="text/ecmascript" zoomAndPan="magnify" contentStyleType="text/css" id="Layer_1" enable-background="new 0 0 1841.891 1595.279" version="1.1" xml:space="preserve" width="1841.891px" preserveAspectRatio="xMidYMid meet" viewBox="0 0 1841.891 1595.279" height="1595.279px" x="0px" y="0px"><g xmlns="http://www.w3.org/2000/svg" objecttype="PS" tooltip="#UNDEFINED" id="75">
<g onmouseover="notifyOwner(AGV_OBJECT_MOUSEOVER, '75(PS)')" transform="translate(-1.0864257831144641E-5, 66.80804286193847) translate(-478.1112626953125, -9.244252822875978) translate(-20.568138264369054, -6.0494524306967605) translate(-1.9577515956946172, 0.0) translate(41.50433382872848, -39.54658223303369) matrix(0.7247016636772907 0 0 0.7247016636772907 303.60254734314964 137.1646824081588) translate(462.17816570523064, 72.59342916836084) translate(36.308689697265606, -1.4010578613281268) translate(34.250095947265606, -8.631938598632814) translate(-84.39897698209705, -13.503836317135551) translate(1.6879795396419013, -1.6879795396419581) translate(-12.727272727272748, 34.54545454545453) translate(23,-39) " onclick="clickZoom(evt); notifyOwner(AGV_OBJECT_MOUSECLICK, '75(PS)')" onmouseout="notifyOwner(AGV_OBJECT_MOUSEOUT, '75(PS)')" tooltip="#UNDEFINED" id="75-Graphic" objecttype="GRAPHIC">
<g zvalue="66">
<g zvalue="11">
<g>
<path orgstroke="#000000" stroke="#000000" d="   M223.094,381.957c-0.104,0.664-0.234,1.203-0.385,1.346c-0.775,0.729-1.625,1.313-2.48,1.685c-0.209,0.088-0.424,0.146-0.609,0.194   c-0.314,0.144-0.594-0.061-0.814-0.397l-0.213,0.021c0,0-4.896-0.853-6.725-1.896c-1.816-1.062-5.666-3.504-5.666-3.504   l-0.25-7.689c1.305-3.342,3.914-6.403,6.627-7.483c1.41-0.562,2.615-0.521,3.521,0.021l6.844,3.938c0,0,0.885,0.729,0.332,2.174   l0.201,0.02c0.246,0.021,0.469,0.066,0.688,0.158c0,0,0.436,0.281,0.322,0.934c-0.113,0.646,0.4,1.23,0.959,1.229   c0,0,0.67-0.162,0.67,0.267c0.225,0.729,0.287,1.655,0.143,2.696c-0.307,2.164-1.422,4.431-2.895,6.127L223.094,381.957z" stroke-linecap="round" outline-element="true" transform="matrix(1 0 0 1 448.8235347972196 70.00005968879253)" stroke-miterlimit="10" orgfill="#ffffff" fill="#ffffff" stroke-width="0.5" g2gfill="#ECF5E4" stroke-linejoin="round" g2gstroke="#312783"/>
<path stroke-linecap="round" orgstroke="#000000" orgfill="none" transform="matrix(1 0 0 1 448.8235347972196 70.00005968879253)" fill="none" stroke-linejoin="round" d="   M218.713,384.551c-2.133,0.146-3.447-1.707-2.99-4.686c0.18-1.271,0.637-2.563,1.285-3.771l-0.322-0.567   c1.189-2.228,3.018-4.104,4.891-4.855c0.689-0.27,1.313-0.375,1.895-0.334" stroke="#000000" stroke-width="0.25" g2gstroke="#312783" stroke-miterlimit="10"/>
<path stroke-linecap="round" orgstroke="#000000" orgfill="none" transform="matrix(1 0 0 1 448.8235347972196 70.00005968879253)" fill="none" stroke-linejoin="round" d="   M224.274,376.387c-0.311,2.229-2.053,4.687-3.865,5.416c-1.814,0.729-3.053-0.5-2.744-2.752c0.313-2.229,2.039-4.67,3.865-5.387   C223.366,372.934,224.594,374.148,224.274,376.387z" stroke="#000000" stroke-width="0.25" g2gstroke="#312783" stroke-miterlimit="10"/>
<path stroke-linecap="round" orgstroke="#000000" orgfill="none" transform="matrix(1 0 0 1 448.8235347972196 70.00005968879253)" fill="none" stroke-linejoin="round" d="M222.0240020751953 371.60400390625L222.0240020751953 373.34600830078125" stroke="#000000" stroke-width="0.25" g2gstroke="#312783" stroke-miterlimit="10"/>
<path stroke-linecap="round" orgstroke="#000000" orgfill="none" transform="matrix(1 0 0 1 448.8235347972196 70.00005968879253)" fill="none" stroke-linejoin="round" d="   M222.024,371.604c-0.146,0.05-0.283,0.101-0.438,0.156c-0.438,0.187-0.873,0.42-1.313,0.729l-0.021,0.104v1.757" stroke="#000000" stroke-width="0.25" g2gstroke="#312783" stroke-miterlimit="10"/>
<path stroke-linecap="round" orgstroke="#000000" orgfill="none" transform="matrix(1 0 0 1 448.8235347972196 70.00005968879253)" fill="none" stroke-linejoin="round" d="   M218.801,384.768c-0.656-1.067-0.877-3.664-0.877-3.664" stroke="#000000" stroke-width="0.25" g2gstroke="#312783" stroke-miterlimit="10"/>
<path stroke-linecap="round" orgstroke="#000000" orgfill="none" transform="matrix(1 0 0 1 448.8235347972196 70.00005968879253)" fill="none" stroke-linejoin="round" d="   M223.401,378.873c0,0-0.111,1.783-0.314,3.098" stroke="#000000" stroke-width="0.25" g2gstroke="#312783" stroke-miterlimit="10"/>
<path stroke-linecap="round" orgstroke="#000000" orgfill="none" transform="matrix(1 0 0 1 448.8235347972196 70.00005968879253)" fill="none" stroke-linejoin="round" d="   M222.467,380.484c-0.068,0.805-0.209,2.215-0.434,2.396c-0.52,0.506-1.088,0.877-1.658,1.136c-0.145,0.061-0.27,0.104-0.412,0.146   c-0.646,0.269-0.934-1.369-1.072-2.229" stroke="#000000" stroke-width="0.25" g2gstroke="#312783" stroke-miterlimit="10"/>
<path stroke-linecap="round" orgstroke="#000000" orgfill="none" transform="matrix(1 0 0 1 448.8235347972196 70.00005968879253)" fill="none" stroke-linejoin="round" d="   M218.795,372.475c0.125-2.229-3.318-3.637-3.318-3.637c0.785-0.688,1.613-1.229,2.455-1.563c0.602-0.236,1.146-0.357,1.662-0.377" stroke="#000000" stroke-width="0.25" g2gstroke="#312783" stroke-miterlimit="10"/>
<path stroke-linecap="round" orgstroke="#000000" orgfill="none" transform="matrix(1 0 0 1 448.8235347972196 70.00005968879253)" fill="none" stroke-linejoin="round" d="   M211.297,374.873l-5.193-2.979" stroke="#000000" stroke-width="0.25" g2gstroke="#312783" stroke-miterlimit="10"/>
<path stroke-linecap="round" orgstroke="#000000" orgfill="none" transform="matrix(1 0 0 1 448.8235347972196 70.00005968879253)" fill="none" stroke-linejoin="round" d="   M217.352,369.842c0.412-0.271,0.83-0.479,1.25-0.656c0.377-0.146,0.764-0.262,1.115-0.313" stroke="#000000" stroke-width="0.25" g2gstroke="#312783" stroke-miterlimit="10"/>
<path stroke-linecap="round" orgstroke="#000000" orgfill="none" transform="matrix(1 0 0 1 448.8235347972196 70.00005968879253)" fill="none" stroke-linejoin="round" d="   M214.862,372.09v-2.238l-0.223-0.135c-1.313,1.438-2.625,3.521-3.236,5.381v0.166l0.012,1.438" stroke="#000000" stroke-width="0.25" g2gstroke="#312783" stroke-miterlimit="10"/>
<path stroke-linecap="round" orgstroke="#000000" orgfill="none" transform="matrix(1 0 0 1 448.8235347972196 70.00005968879253)" fill="none" stroke-linejoin="round" d="M219.7949981689453 367.0820007324219L219.71299743652344 368.8689880371094" stroke="#000000" stroke-width="0.25" g2gstroke="#312783" stroke-miterlimit="10"/>
<path stroke-linecap="round" orgstroke="#000000" orgfill="none" transform="matrix(1 0 0 1 448.8235347972196 70.00005968879253)" fill="none" stroke-linejoin="round" d="   M216.928,376.197l-3.195-1.842" stroke="#000000" stroke-width="0.25" g2gstroke="#312783" stroke-miterlimit="10"/>
<path stroke-linecap="round" orgstroke="#000000" orgfill="none" transform="matrix(1 0 0 1 448.8235347972196 70.00005968879253)" fill="none" stroke-linejoin="round" d="   M213.145,375.049c-0.057,0.383-0.354,0.793-0.67,0.938c-0.313,0.125-0.52-0.086-0.471-0.479c0.053-0.377,0.35-0.813,0.668-0.934   C212.993,374.447,213.2,374.66,213.145,375.049z" stroke="#000000" stroke-width="0.25" g2gstroke="#312783" stroke-miterlimit="10"/>
<path stroke-linecap="round" orgstroke="#000000" orgfill="none" transform="matrix(1 0 0 1 448.8235347972196 70.00005968879253)" fill="none" stroke-linejoin="round" d="   M211.504,376.775c0.18,0.164,0.451,0.219,0.785,0.09c0.664-0.271,1.313-1.187,1.416-1.984c0.02-0.227,0.02-0.432-0.025-0.594   l-0.055-0.252c0.348-0.555,0.82-1.271,1.234-1.771" stroke="#000000" stroke-width="0.25" g2gstroke="#312783" stroke-miterlimit="10"/>
<path stroke-linecap="round" orgstroke="#000000" orgfill="none" transform="matrix(1 0 0 1 448.8235347972196 70.00005968879253)" fill="none" stroke-linejoin="round" d="   M215.112,378.873l-3.717-2.225" stroke="#000000" stroke-width="0.25" g2gstroke="#312783" stroke-miterlimit="10"/>
<path stroke-linecap="round" orgstroke="#000000" orgfill="none" transform="matrix(1 0 0 1 448.8235347972196 70.00005968879253)" fill="none" stroke-linejoin="round" d="   M217.622,373.883l-2.762-1.594" stroke="#000000" stroke-width="0.25" g2gstroke="#312783" stroke-miterlimit="10"/>
<path stroke-linecap="round" orgstroke="#000000" orgfill="none" transform="matrix(1 0 0 1 448.8235347972196 70.00005968879253)" fill="none" stroke-linejoin="round" d="   M222.29,370.367l-2.48-1.445" stroke="#000000" stroke-width="0.25" g2gstroke="#312783" stroke-miterlimit="10"/>
<path stroke-linecap="round" orgstroke="#000000" orgfill="none" transform="matrix(1 0 0 1 448.8235347972196 70.00005968879253)" fill="none" stroke-linejoin="round" d="   M210.713,382.148c0.213,0.146,0.439,0.27,0.664,0.362c1.424,0.574,2.377-0.375,2.125-2.127c-0.197-1.358-1.057-2.813-2.105-3.653" stroke="#000000" stroke-width="0.25" g2gstroke="#312783" stroke-miterlimit="10"/>
<path stroke-linecap="round" orgstroke="#000000" orgfill="none" transform="matrix(1 0 0 1 448.8235347972196 70.00005968879253)" fill="none" stroke-linejoin="round" d="   M216.077,371.846c0.045,0.313,0.287,0.646,0.543,0.729c0.258,0.104,0.428-0.063,0.379-0.377c-0.045-0.313-0.293-0.646-0.535-0.729   C216.213,371.361,216.043,371.529,216.077,371.846z" stroke="#000000" stroke-width="0.25" g2gstroke="#312783" stroke-miterlimit="10"/>
<path stroke-linecap="round" orgstroke="#000000" orgfill="none" transform="matrix(1 0 0 1 448.8235347972196 70.00005968879253)" fill="none" stroke-linejoin="round" d="   M218.004,373.424c0.125-2.229-3.32-3.641-3.32-3.641" stroke="#000000" stroke-width="0.25" g2gstroke="#312783" stroke-miterlimit="10"/>
<path stroke-linecap="round" orgstroke="#000000" orgfill="none" transform="matrix(1 0 0 1 448.8235347972196 70.00005968879253)" fill="none" stroke-linejoin="round" d="   M222.268,376.139c-0.115,0.834-0.771,1.771-1.451,2.035c-0.686,0.271-1.146-0.188-1.029-1.021c0.113-0.836,0.77-1.75,1.449-2.026   C221.93,374.84,222.387,375.299,222.268,376.139z" stroke="#000000" stroke-width="0.25" g2gstroke="#312783" stroke-miterlimit="10"/>
</g>
</g>
</g>
</g>
</g></svg>