<svg xmlns="http://www.w3.org/2000/svg" xmlns:xlink="http://www.w3.org/1999/xlink" xmlns:etg="http://www.eurotaxglass.com/etg/evd/" etg:dataTimestamp="1539068912893" contentScriptType="text/ecmascript" zoomAndPan="magnify" contentStyleType="text/css" id="Layer_1" enable-background="new 0 0 1841.891 1595.279" version="1.1" xml:space="preserve" width="1841.891px" preserveAspectRatio="xMidYMid meet" viewBox="0 0 1841.891 1595.279" height="1595.279px" x="0px" y="0px"><g xmlns="http://www.w3.org/2000/svg" objecttype="PS" tooltip="#UNDEFINED" id="96">
<g onmouseover="notifyOwner(AGV_OBJECT_MOUSEOVER, '96(PS)')" transform="translate(-1.0864257831144641E-5, 66.80804286193847) translate(-478.1112626953125, -9.244252822875978) translate(71.13881973275966, -153.8029231093742) translate(459.7583847329519, 61.70441479310671) translate(18,17) " onclick="clickZoom(evt); notifyOwner(AGV_OBJECT_MOUSECLICK, '96(PS)')" onmouseout="notifyOwner(AGV_OBJECT_MOUSEOUT, '96(PS)')" tooltip="#UNDEFINED" id="96-Graphic" objecttype="GRAPHIC">
<g zvalue="72" transform="translate(-30,0) ">
<g zvalue="71" transform="translate(-13,9) ">
<g zvalue="70" transform="translate(-201,-103) ">
<g zvalue="52" transform="translate(112,58) ">
<g zvalue="68">
<g zvalue="66">
<g zvalue="57">
<g zvalue="55">
<g zvalue="53">
<g zvalue="49">
<g zvalue="81">
<g zvalue="75">
<g zvalue="76">
<g zvalue="51">
<g zvalue="55">
<g zvalue="60">
<g zvalue="58">
<g zvalue="57">
<g zvalue="10">
<g>
<path stroke-linecap="round" orgstroke="#000000" orgfill="#ffffff" transform="matrix(-0.4764811098575592 -0.7178243398666382 0.7178243398666382 -0.4764811098575592 119.79083120411843 666.626119679418)" fill="#ffffff" g2gfill="#ECF5E4" d="M97.224,552.222   c0,0.267,0.069,0.513,0.045,0.744c-0.045,0.398-0.211,0.678-0.451,0.824l-2.148,1.19c-0.658,0.382-2.035,2.146-3.316,2.888   c-1.283,0.74-3.386,0.799-4.5-1.131h-0.002c-1.114-1.933,0-3.703,1.282-4.445c1.282-0.74,3.371-0.998,4.027-1.377l2.266-1.269   c0.351-0.172,0.843-0.084,1.363,0.3c0.09,0.065,1.299-0.39,1.836,0.5C98.028,551.113,97.224,551.867,97.224,552.222z" stroke="#000000" outline-element="true" stroke-width="0.5" g2gstroke="#312783" stroke-miterlimit="10"/>
<path orgstroke="#000000" orgfill="none" transform="matrix(-0.4764811098575592 -0.7178243398666382 0.7178243398666382 -0.4764811098575592 119.79083120411843 666.626119679418)" fill="none" d="M95.791,549.947   c0.58,0.535,1.282,1.541,1.433,2.274" stroke="#000000" stroke-width="0.25" g2gstroke="#312783" stroke-miterlimit="10"/>
<path orgstroke="#000000" orgfill="none" transform="matrix(-0.4764811098575592 -0.7178243398666382 0.7178243398666382 -0.4764811098575592 119.79083120411843 666.626119679418)" fill="none" d="M92.137,550.929   c0.352-0.254,0.896-0.19,1.474,0.234c0.925,0.678,1.586,2.029,1.478,3.016c-0.043,0.384-0.194,0.656-0.418,0.808" stroke="#000000" stroke-width="0.25" g2gstroke="#312783" stroke-miterlimit="10"/>
<path orgstroke="#000000" orgfill="none" transform="matrix(-0.4764811098575592 -0.7178243398666382 0.7178243398666382 -0.4764811098575592 119.79083120411843 666.626119679418)" fill="none" d="M94.67,554.984   c-0.354,0.235-0.888,0.17-1.453-0.246c-0.925-0.681-1.587-2.029-1.477-3.019c0.041-0.371,0.184-0.637,0.396-0.791" stroke="#000000" stroke-width="0.25" g2gstroke="#312783" stroke-miterlimit="10"/>
<path orgstroke="#000000" orgfill="none" transform="matrix(-0.4764811098575592 -0.7178243398666382 0.7178243398666382 -0.4764811098575592 119.79083120411843 666.626119679418)" fill="none" d="M93.349,553.539   c-0.304-0.225-0.522-0.67-0.486-0.994c0.036-0.324,0.312-0.406,0.616-0.184c0.304,0.225,0.523,0.668,0.487,0.991   C93.929,553.679,93.653,553.761,93.349,553.539z" stroke="#000000" stroke-width="0.25" g2gstroke="#312783" stroke-miterlimit="10"/>
<path orgstroke="#000000" orgfill="none" transform="matrix(-0.4764811098575592 -0.7178243398666382 0.7178243398666382 -0.4764811098575592 119.79083120411843 666.626119679418)" fill="none" d="M93.809,553.63   c-1.173,0.678-1.871,1.195-2.407,2.514" stroke="#000000" stroke-width="0.25" g2gstroke="#312783" stroke-miterlimit="10"/>
<path orgstroke="#000000" orgfill="none" transform="matrix(-0.4764811098575592 -0.7178243398666382 0.7178243398666382 -0.4764811098575592 119.79083120411843 666.626119679418)" fill="none" d="M93.021,552.267   c-1.172,0.679-1.827,0.953-3.237,0.761" stroke="#000000" stroke-width="0.25" g2gstroke="#312783" stroke-miterlimit="10"/>
</g>
</g>
</g>
</g>
</g>
</g>
</g>
</g>
</g>
</g>
</g>
</g>
</g>
</g>
</g>
</g>
</g>
</g>
</g>
</g>
</g>
</g></svg>