<svg xmlns="http://www.w3.org/2000/svg" xmlns:xlink="http://www.w3.org/1999/xlink" xmlns:x="http://ns.adobe.com/Extensibility/1.0/" xmlns:graph="http://ns.adobe.com/Graphs/1.0/" xmlns:i="http://ns.adobe.com/AdobeIllustrator/10.0/" xmlns:etg="http://www.eurotaxglass.com/etg/evd/" etg:dataTimestamp="1541512339925" contentScriptType="text/ecmascript" zoomAndPan="magnify" contentStyleType="text/css" id="Layer_1" enable-background="new 0 0 1841.891 1595.279" version="1.1" xml:space="preserve" width="1841.891px" preserveAspectRatio="xMidYMid meet" viewBox="0 0 1841.891 1595.279" height="1595.279px" x="0px" y="0px"><g xmlns="http://www.w3.org/2000/svg" objecttype="PS" tooltip="#UNDEFINED" id="10">
<g onmouseover="notifyOwner(AGV_OBJECT_MOUSEOVER, '10(PS)')" transform="translate(-9.433746356535266E-6, 3.356933575560106E-7) translate(-35.71980609130861, -13.200809143066408) translate(44.708733184814434, 94.79042849731445) matrix(0.6117410612267968 0 0 0.6117410612267968 0.2921243287958965 0.477310974878083) translate(-92,-34) " onclick="clickZoom(evt); notifyOwner(AGV_OBJECT_MOUSECLICK, '10(PS)')" onmouseout="notifyOwner(AGV_OBJECT_MOUSEOUT, '10(PS)')" tooltip="#UNDEFINED" id="10-Graphic" objecttype="GRAPHIC">
<g zvalue="9">
<g zvalue="23">
<g zvalue="5">
<g>
<path stroke-linecap="round" orgstroke="#000000" orgfill="none" transform="translate(-295.5923495625341, 69.5511410735374) translate(13.523832986521029, -13.523832986521171) translate(2.3904280801782534, -5.5776655204163035) translate(32.66918376243825, 11.155331040832579) translate(185.48729538878888, 48.62288325725535) translate(724,-30) translate(-518.5915025634765, -83.33211865234375) translate(-1.736632568639493, 3.4732651372788155) translate(12.156427980475883, 12.156427980475883) translate(41.69417475728153, -12.574433656957922) translate(658.0, -6.0) translate(10.0, 10.00006103515625)" fill="none" stroke-linejoin="round" d="   M158.447,274.916c-1.607,0.736-3.784,1.039-6.281,1.039c-9.289,0-25.703-4.428-31.109-6.076   c-15.976-4.869-60.298-24.791-74.671-31.314c-2.015-0.916-3.248-1.445-4.118-1.877c-0.303-0.15-0.3-0.264-0.217-0.49   c0.157-0.432,0.331-0.904,0.531-1.438c8.018-21.336,23.078-53.637,36.009-70.697" stroke="#000000" stroke-width="0.25" g2gstroke="#312783" stroke-miterlimit="10"/>
<path orgstroke="#000000" stroke="#000000" d="   M158.096,275.154c0.354-0.162,1.032-0.584,1.328-0.789c1.787-1.236,2.939-2.6,3.742-4.314l0.049-0.127   c1.24-3.262,1.422-7.297,1.422-12.514c0-9.178,0-27.813,0-31.291c0-3.477-1.252-9.596-14.324-17.939   c-11.772-7.514-39.717-27.32-71.24-43.982c-0.257-0.135-0.416-0.221-0.72-0.043c-0.128,0.074-0.412,0.238-0.611,0.355   c-0.218,0.125-0.253,0.174-0.381,0.344c-12.885,17.113-27.912,49.285-35.909,70.564c-0.2,0.533-0.374,1.006-0.531,1.438   c-0.083,0.227-0.086,0.34,0.217,0.49c0.87,0.432,2.104,0.961,4.118,1.877c14.373,6.523,58.695,26.445,74.671,31.314   c5.406,1.648,21.82,6.076,31.109,6.076c2.653,0,4.947-0.342,6.578-1.182L158.096,275.154z" outline-element="true" enable-background="new    " transform="translate(-295.5923495625341, 69.5511410735374) translate(13.523832986521029, -13.523832986521171) translate(2.3904280801782534, -5.5776655204163035) translate(32.66918376243825, 11.155331040832579) translate(185.48729538878888, 48.62288325725535) translate(724,-30) translate(-518.5915025634765, -83.33211865234375) translate(-1.736632568639493, 3.4732651372788155) translate(12.156427980475883, 12.156427980475883) translate(41.69417475728153, -12.574433656957922) translate(658.0, -6.0) translate(10.0, 10.00006103515625)" stroke-miterlimit="10" orgfill="#ffffff" fill="#ffffff" stroke-width="0.5" g2gfill="#0096C8" opacity="0.6" g2gstroke="#312783"/>
<linearGradient transform="translate(-295.5923495625341, 69.5511410735374) translate(13.523832986521029, -13.523832986521171) translate(2.3904280801782534, -5.5776655204163035) translate(32.66918376243825, 11.155331040832579) translate(185.48729538878888, 48.62288325725535) translate(724,-30) translate(-518.5915025634765, -83.33211865234375) translate(-1.736632568639493, 3.4732651372788155) translate(12.156427980475883, 12.156427980475883) translate(41.69417475728153, -12.574433656957922) translate(658.0, -6.0) translate(10.0, 10.00006103515625)" gradientTransform="matrix(-1 0 0 -1 8609.1895 595.28)" x1="8523.0596" x2="8469.7559" y1="320.3322" gradientUnits="userSpaceOnUse" y2="412.6567" xmlns:xlink="http://www.w3.org/1999/xlink" xlink:type="simple" xlink:actuate="onLoad" id="9::SVGID_13_" xlink:show="other">
<stop stop-opacity="0.83" stop-color="#FFFFFF" offset="0.0439"/>
<stop stop-opacity="0.56" stop-color="#FFFFFF" offset="0.2647"/>
<stop stop-opacity="0.6" stop-color="#FFFFFF" offset="0.3561"/>
<stop stop-opacity="0.35" stop-color="#FFFFFF" offset="0.5676"/>
<stop stop-opacity="0.44" stop-color="#FFFFFF" offset="0.6933"/>
<stop stop-opacity="0.6" stop-color="#FFFFFF" offset="0.8428"/>
<stop stop-opacity="0.22" stop-color="#FFFFFF" offset="0.9853"/>
</linearGradient>
<path orgfill="url(#9::SVGID_13_)" enable-background="new    " transform="translate(-295.5923495625341, 69.5511410735374) translate(13.523832986521029, -13.523832986521171) translate(2.3904280801782534, -5.5776655204163035) translate(32.66918376243825, 11.155331040832579) translate(185.48729538878888, 48.62288325725535) translate(724,-30) translate(-518.5915025634765, -83.33211865234375) translate(-1.736632568639493, 3.4732651372788155) translate(12.156427980475883, 12.156427980475883) translate(41.69417475728153, -12.574433656957922) translate(658.0, -6.0) translate(10.0, 10.00006103515625)" fill="url(#9::SVGID_13_)" opacity="0.8" d="M149.164,208.834   c-11.824-7.547-39.963-27.496-71.656-44.203c-12.945,17.037-28.043,49.412-36.074,70.783c-0.2,0.533-0.374,1.004-0.531,1.436   c-0.083,0.229-0.086,0.34,0.217,0.49c0.87,0.432,2.104,0.963,4.118,1.877c14.373,6.525,58.695,26.447,74.671,31.316   c5.406,1.648,21.82,6.076,31.109,6.076c3.047,0,5.617-0.451,7.258-1.59c1.787-1.236,2.939-2.6,3.742-4.314l0.049-0.127   c1.24-3.262,1.422-7.297,1.422-12.514c0-9.178,0-27.813,0-31.291C163.488,223.297,162.236,217.178,149.164,208.834z"/>
<path stroke-linecap="round" orgstroke="#000000" orgfill="none" transform="translate(-295.5923495625341, 69.5511410735374) translate(13.523832986521029, -13.523832986521171) translate(2.3904280801782534, -5.5776655204163035) translate(32.66918376243825, 11.155331040832579) translate(185.48729538878888, 48.62288325725535) translate(724,-30) translate(-518.5915025634765, -83.33211865234375) translate(-1.736632568639493, 3.4732651372788155) translate(12.156427980475883, 12.156427980475883) translate(41.69417475728153, -12.574433656957922) translate(658.0, -6.0) translate(10.0, 10.00006103515625)" fill="none" stroke-linejoin="round" d="   M162.084,270.582c1.24-3.262,1.422-7.297,1.422-12.514c0-9.178,0-27.813,0-31.291c0-3.477-1.252-9.596-14.324-17.939   c-11.812-7.539-39.905-27.455-71.562-44.15" stroke="#000000" stroke-width="0.25" g2gstroke="#312783" stroke-miterlimit="10"/>
<path stroke-linecap="round" orgstroke="#000000" orgfill="none" transform="translate(-295.5923495625341, 69.5511410735374) translate(13.523832986521029, -13.523832986521171) translate(2.3904280801782534, -5.5776655204163035) translate(32.66918376243825, 11.155331040832579) translate(185.48729538878888, 48.62288325725535) translate(724,-30) translate(-518.5915025634765, -83.33211865234375) translate(-1.736632568639493, 3.4732651372788155) translate(12.156427980475883, 12.156427980475883) translate(41.69417475728153, -12.574433656957922) translate(658.0, -6.0) translate(10.0, 10.00006103515625)" fill="none" stroke-linejoin="round" d="   M81.709,180.238c-8.967,15.531-17.871,34.918-23.998,50.215c-1.25,3.119-1.332,5.426,3.25,7.359   c19.295,8.596,47.639,20.912,59.734,24.598c2.428,0.74,7.033,2.227,12.299,3.25c10.135,1.969,20.729,1.969,20.916-10.063   c0,0,0.895-23.348,0.895-25.941c0-3.477-0.863-8.84-14.227-18.455c-8.967-6.451-28.904-19.293-52.316-32.811   C83.932,175.891,82.977,178.043,81.709,180.238z" stroke="#000000" stroke-width="0.25" g2gstroke="#312783" stroke-miterlimit="10"/>
<path stroke-linecap="round" orgstroke="#000000" orgfill="none" transform="translate(-295.5923495625341, 69.5511410735374) translate(13.523832986521029, -13.523832986521171) translate(2.3904280801782534, -5.5776655204163035) translate(32.66918376243825, 11.155331040832579) translate(185.48729538878888, 48.62288325725535) translate(724,-30) translate(-518.5915025634765, -83.33211865234375) translate(-1.736632568639493, 3.4732651372788155) translate(12.156427980475883, 12.156427980475883) translate(41.69417475728153, -12.574433656957922) translate(658.0, -6.0) translate(10.0, 10.00006103515625)" fill="none" stroke-linejoin="round" d="   M157.613,275.432c0.241-0.125,0.469-0.262,0.68-0.408c1.787-1.236,2.939-2.6,3.742-4.314" stroke="#000000" stroke-width="0.25" g2gstroke="#312783" stroke-miterlimit="10"/>
<path stroke-linecap="round" orgstroke="#000000" orgfill="none" transform="translate(-295.5923495625341, 69.5511410735374) translate(13.523832986521029, -13.523832986521171) translate(2.3904280801782534, -5.5776655204163035) translate(32.66918376243825, 11.155331040832579) translate(185.48729538878888, 48.62288325725535) translate(724,-30) translate(-518.5915025634765, -83.33211865234375) translate(-1.736632568639493, 3.4732651372788155) translate(12.156427980475883, 12.156427980475883) translate(41.69417475728153, -12.574433656957922) translate(658.0, -6.0) translate(10.0, 10.00006103515625)" fill="none" stroke-linejoin="round" d="   M158.096,275.154c0.354-0.162,1.032-0.584,1.328-0.789c1.787-1.236,2.939-2.6,3.742-4.314l0.049-0.127   c1.24-3.262,1.422-7.297,1.422-12.514c0-9.178,0-27.813,0-31.291c0-3.477-1.252-9.596-14.324-17.939   c-11.772-7.514-39.717-27.32-71.24-43.982c-0.257-0.135-0.416-0.221-0.72-0.043c-0.128,0.074-0.412,0.238-0.611,0.355   c-0.218,0.125-0.253,0.174-0.381,0.344c-12.885,17.113-27.912,49.285-35.909,70.564c-0.2,0.533-0.374,1.006-0.531,1.438   c-0.083,0.227-0.086,0.34,0.217,0.49c0.87,0.432,2.104,0.961,4.118,1.877c14.373,6.523,58.695,26.445,74.671,31.314   c5.406,1.648,21.82,6.076,31.109,6.076c2.653,0,4.947-0.342,6.578-1.182L158.096,275.154z" stroke="#000000" stroke-width="0.25" g2gstroke="#312783" stroke-miterlimit="10"/>
</g>
</g>
</g>
</g>
</g>
</g></svg>