<svg xmlns="http://www.w3.org/2000/svg" xmlns:xlink="http://www.w3.org/1999/xlink" xmlns:x="http://ns.adobe.com/Extensibility/1.0/" xmlns:graph="http://ns.adobe.com/Graphs/1.0/" xmlns:i="http://ns.adobe.com/AdobeIllustrator/10.0/" xmlns:etg="http://www.eurotaxglass.com/etg/evd/" etg:dataTimestamp="1541512339925" contentScriptType="text/ecmascript" zoomAndPan="magnify" contentStyleType="text/css" id="Layer_1" enable-background="new 0 0 1841.891 1595.279" version="1.1" xml:space="preserve" width="1841.891px" preserveAspectRatio="xMidYMid meet" viewBox="0 0 1841.891 1595.279" height="1595.279px" x="0px" y="0px"><g xmlns="http://www.w3.org/2000/svg" objecttype="PS" tooltip="#UNDEFINED" id="101">
<g onmouseover="notifyOwner(AGV_OBJECT_MOUSEOVER, '101(PS)')" transform="translate(-9.433746356535266E-6, 3.356933575560106E-7) translate(-35.71980609130861, -13.200809143066408) translate(44.708733184814434, 94.79042849731445) matrix(0.6117410612267968 0 0 0.6117410612267968 0.2921243287958965 0.477310974878083) translate(-92,-34) " onclick="clickZoom(evt); notifyOwner(AGV_OBJECT_MOUSECLICK, '101(PS)')" onmouseout="notifyOwner(AGV_OBJECT_MOUSEOUT, '101(PS)')" tooltip="#UNDEFINED" id="101-Graphic" objecttype="GRAPHIC">
<g zvalue="102">
<g zvalue="103">
<g zvalue="53">
<g>
<path orgstroke="#000000" orgfill="#ffffff" transform="translate(1.6666666666666288, 45.0) translate(5.0, 141.66666666666663) translate(-1.1659935022249215, -6.995961013349529) translate(2.331987004449843, 3.4979805066747645) translate(-6.995961013349529, 0.0) translate(-318.31622610740294, -206.38084989381065) translate(279.8384405339806, 277.50645352953075) translate(-65,-56) translate(-135.7864793701172, -15.95862927246094) translate(284.61321814083357, -34.52408859104787) translate(-23.810883895874042, -7.293701173693989E-6) translate(-637.1092790527343, 18.13041815948486) translate(-8.82777467181677, 73.14441870934016) translate(21.25, 0.0) translate(670.0, -93.75) translate(12.5, 12.50006103515625)" fill="#ffffff" g2gfill="#ECC35D" d="M282.626,481.822l-0.756-0.441   c-0.221-0.127-0.316-0.156-0.588-0.027c-1.248,0.592-6.707,3.184-7.184,3.455c-0.537,0.313-2.166,0.994-3.725,1.359   s-14.916,3.875-17.25,4.291c-1.725,0.309-3.334,0.16-4.51-0.256l-0.164-0.117c-1.43-1.029-4.447-3.258-5.119-3.781   c-0.75-0.582-1.73-1.379-2.445-1.793c-0.529-0.307-1.447-0.834-1.891-1.092c0,0-1.096-0.582-1.332-0.719   c-0.184-0.107-0.256-0.148-0.414,0.031c-0.291,0.332-0.521,0.57-0.674,0.695c-1.516,1.27-3.055,4.594-23.367,6.844   c-6.328,0.701-11.814,1.025-16.516,1.133l-1.086,0.021c-7.848-0.039-13.961-0.586-16.811-0.744   c-0.836-0.047-1.578-0.104-2.238-0.158c-0.613-0.049-1.01-0.084-0.467-0.398c0.193-0.113,0.275-0.342,0.275-0.611v-1.283   c0-0.213-0.021-0.473-0.375-0.596c-0.572-0.199-1.902-0.598-2.488-0.803c-0.35-0.121-0.494-0.484-0.494-0.734v-1.09   c0.002-0.555-0.082-0.584-0.486-0.727c-14.789-5.229-33.475-12.334-53.029-22.807c-0.234-0.125-0.281-0.139-0.551,0.018   l-0.297,0.186c-0.158,0.102-0.244,0.158-0.361,0.238c-0.703,0.479-1.943,1.299-2.953,1.889c0,0-0.379,0.152-0.512,0.191   c-2.73,0.814-5.59,0.842-7.584,0.676c-2.635-0.219-5.189-1.824-6.846-4.623c-1.002-1.691-1.617-3.822-1.76-5.797   c-0.053-0.73-0.092-3.313-0.092-4.998c0-0.219-0.082-0.377-0.219-0.469C82.45,438.283,70.71,428.09,62.995,420.324   c-0.229-0.23-0.355-0.336-0.615-0.186c-0.109,0.064-0.607,0.352-0.607,0.352s-0.127,0.102-0.15,0.127   c-0.059,0.07-0.141,0.164-0.23,0.262c-0.15,0.166-0.318,0.313-0.512,0.115c-0.314-0.318-0.615-0.639-0.912-0.951   c-0.141-0.15-0.232-0.135-0.4-0.039l-0.256,0.141c-0.207,0.182-0.211,0.182-0.211,0.514v0.984c0,0.283-0.027,0.396-0.324,0.566   l-0.531,0.307c-0.227,0.129-0.523,0.102-0.646-0.102c-0.063-0.1-0.123-0.199-0.182-0.299c-1.998-3.477-3.365-7.922-4.313-12.365   l-0.037-0.174c-0.084-3.559-0.035-6.877,0.314-8.643c0.324-1.645,0.834-2.969,1.133-3.928c3.15-10.104,9.77-29.252,15.813-38.383   c0.242-0.365,0.236-0.67,0.016-0.826l-0.412-0.24c-0.191-0.111-0.348-0.145-0.537-0.023c-1.197,0.752-6.367,3.996-6.893,4.326   c-0.594,0.375-1.313,0.875-1.719,1.592c-0.34,0.602-5.258,9.135-6.832,11.852c-0.096,0.166-0.234,0.195-0.314,0.055l-0.129-0.229   c-0.104-0.184-0.135-0.289-0.391-0.438l-0.34-0.211c-0.254-0.146-0.383,0.037-0.51,0.387c-1.248,3.455-4.478,7.664-6.569,13.76   c-0.206,0.6-0.552,1.813-0.776,2.416c-1.214,3.279-3.526,8.049-5.94,14.988c-0.243,0.697-1.626,1.846-1.829,3.457   c-0.256,5.371-0.15,9.928,0.206,13.809c0,0,0.014,0.146,0.014,0.451s0.036,16.375,0,20.209l-0.003,0.244   c0.005,0.15-0.092,0.826-0.207,1.65l-0.021,0.156c-0.833,2.307-1.301,5.156-1.241,8.447l-0.004,0.246   c0,0.885,0.223,4.5,0.286,5.422c0.518,7.467,3.234,16.029,9.813,24.014l0.113,0.137c0.542,0.666,0.499,0.557,1.157,0.693   c1.104,0.229,3.375,0.686,5.315,1.297c0.988,0.311,2.311,0.922,3.667,2.008c9.034,7.332,24.457,17.467,40.167,26.572   c16.883,9.781,36.553,20.066,51.08,25.826c2.704,1.072,4.238,2.051,5.36,3.15l0.154,0.217c0.646,0.885,2.264,3.002,2.596,3.461   c0.143,0.197,0.386,0.438,0.781,0.523c14.617,3.184,32.081,5.807,43.097,6.367c0.771,0.039,4.755,0.191,5.597,0.205   c11.168,0.166,23.334-0.5,39.084-4s16.834-6.168,18.334-12.334s2.537-15.602,6.109-27.059c3.156-10.123,8.102-20.063,14.184-28.979   C282.894,482.076,282.792,481.917,282.626,481.822z M52.115,450.783c0-0.314,0.14-0.213,0.315-0.047   c0.436,0.408,0.874,0.822,1.324,1.236c0.195,0.18,0.301,0.281,0.301,0.807c0,0.354,0,1.338,0,2.113c0,0.23-0.083,0.416-0.23,0.279   c-0.474-0.443-0.903-0.854-1.401-1.334c-0.169-0.162-0.309-0.51-0.309-0.838C52.115,452.775,52.115,451.607,52.115,450.783z    M159.481,521.138c-1.548,4.82-5.023,12.824-5.138,13.033c-0.426,0.781-0.617,0.793-0.799,0.818   c-0.771,0.111-1.647-0.242-2.581-0.574c-1.792-0.637-3.553-1.342-4.683-1.785c-22.415-8.789-61.713-29.146-86.678-50.441   c-3.579-3.055-6.24-4.871-7.932-10.451c-0.895-2.949-2.252-10.59-2.794-16.686c-0.031-0.352,0.103-0.334,0.365-0.152   c0.301,0.207,0.619,0.486,0.959,0.824c10.194,10.133,25.84,21.893,46.226,33.707c22.702,13.154,44.144,22.502,61.492,28.094   C159.957,518.179,159.889,519.871,159.481,521.138z M196.231,501.533c0,0,2.459-3.084,2.916-3.668   c0.459-0.584,1.709-1.168,2.584-1.209c0.832-0.039,9.354-0.785,10.867-0.785c0.381,0,0.316,0.115,0.176,0.324   c-0.734,1.084-1.846,2.523-2.025,2.775c-0.209,0.291-0.748,1.225-1.166,1.949c-0.418,0.723-1.043,1.371-2.084,1.467   c-2.779,0.256-7.461,0.777-11.123,1.004c-0.389,0.023-0.629-0.049-0.777-0.154l-0.033-0.162   C195.565,502.824,195.612,502.273,196.231,501.533z M240.46,541.044c-6.553,0.768-28.667,2.857-54.079,0.436   c-2.553-0.242-7.224-0.805-7.745-0.871s-0.563-0.326-0.405-0.814c0.157-0.484,6.85-24.111,6.85-24.111   c0.088-0.311,0.134-0.316,0.549-0.309c5.301,0.143,10.741,0.143,15.713-0.006c3.362-0.102,6.072-0.264,9.182-0.418   c4.616-0.227,16.527-1.66,23.946,11.348c1.935,3.391,5.253,9.26,6.823,12.439C241.733,539.63,241.98,540.865,240.46,541.044z" stroke="#000000" outline-element="true" stroke-width="0.5" g2gstroke="#312783" stroke-miterlimit="10"/>
<path stroke-linecap="round" orgstroke="#000000" orgfill="none" transform="translate(1.6666666666666288, 45.0) translate(5.0, 141.66666666666663) translate(-1.1659935022249215, -6.995961013349529) translate(2.331987004449843, 3.4979805066747645) translate(-6.995961013349529, 0.0) translate(-318.31622610740294, -206.38084989381065) translate(279.8384405339806, 277.50645352953075) translate(-65,-56) translate(-135.7864793701172, -15.95862927246094) translate(284.61321814083357, -34.52408859104787) translate(-23.810883895874042, -7.293701173693989E-6) translate(-637.1092790527343, 18.13041815948486) translate(-8.82777467181677, 73.14441870934016) translate(21.25, 0.0) translate(670.0, -93.75) translate(12.5, 12.50006103515625)" fill="none" stroke-linejoin="round" d="   M170.165,510.195c9.657,1.559,29.758,1.797,44.229,0.256c10.029-1.068,17.083,3.375,20.708,9.061   c1.724,2.703,11.622,18.453,9.977,22.113" stroke="#000000" stroke-width="0.25" g2gstroke="#312783" stroke-miterlimit="10"/>
<path stroke-linecap="round" orgstroke="#000000" orgfill="none" transform="translate(1.6666666666666288, 45.0) translate(5.0, 141.66666666666663) translate(-1.1659935022249215, -6.995961013349529) translate(2.331987004449843, 3.4979805066747645) translate(-6.995961013349529, 0.0) translate(-318.31622610740294, -206.38084989381065) translate(279.8384405339806, 277.50645352953075) translate(-65,-56) translate(-135.7864793701172, -15.95862927246094) translate(284.61321814083357, -34.52408859104787) translate(-23.810883895874042, -7.293701173693989E-6) translate(-637.1092790527343, 18.13041815948486) translate(-8.82777467181677, 73.14441870934016) translate(21.25, 0.0) translate(670.0, -93.75) translate(12.5, 12.50006103515625)" fill="none" stroke-linejoin="round" d="   M42.191,412.56c0.02,0.291,0.293,0.447,0.457,0.215c0.164-0.234,0.301-0.514,0.568-1.049c0.156-0.311,0.479-0.904,0.697-1.094   c0.218-0.188,3.234-2.578,3.563-2.857c0.329-0.281,0.49-0.646,0.479-1c-0.094-2.547-0.107-5.131-0.006-7.619   c0.006-0.111,0.012-0.223,0.016-0.332c0.045-1.123-0.535-0.814-0.832-0.564s-2.813,2.234-3.203,2.625s-0.875,1.078-1.016,1.328   s-0.688,1.188-0.813,1.547s-0.225,0.906-0.221,1.297c0.023,2.527,0.139,5.068,0.309,7.496L42.191,412.56z" stroke="#000000" stroke-width="0.25" g2gstroke="#312783" stroke-miterlimit="10"/>
<path stroke-linecap="round" orgstroke="#000000" orgfill="none" transform="translate(1.6666666666666288, 45.0) translate(5.0, 141.66666666666663) translate(-1.1659935022249215, -6.995961013349529) translate(2.331987004449843, 3.4979805066747645) translate(-6.995961013349529, 0.0) translate(-318.31622610740294, -206.38084989381065) translate(279.8384405339806, 277.50645352953075) translate(-65,-56) translate(-135.7864793701172, -15.95862927246094) translate(284.61321814083357, -34.52408859104787) translate(-23.810883895874042, -7.293701173693989E-6) translate(-637.1092790527343, 18.13041815948486) translate(-8.82777467181677, 73.14441870934016) translate(21.25, 0.0) translate(670.0, -93.75) translate(12.5, 12.50006103515625)" fill="none" stroke-linejoin="round" d="   M47.653,434.546c10.593,11.127,28.727,24.5,51.167,37.51c25.125,14.557,49.363,24.705,68.083,30.531" stroke="#000000" stroke-width="0.25" g2gstroke="#312783" stroke-miterlimit="10"/>
<path stroke-linecap="round" orgstroke="#000000" orgfill="none" transform="translate(1.6666666666666288, 45.0) translate(5.0, 141.66666666666663) translate(-1.1659935022249215, -6.995961013349529) translate(2.331987004449843, 3.4979805066747645) translate(-6.995961013349529, 0.0) translate(-318.31622610740294, -206.38084989381065) translate(279.8384405339806, 277.50645352953075) translate(-65,-56) translate(-135.7864793701172, -15.95862927246094) translate(284.61321814083357, -34.52408859104787) translate(-23.810883895874042, -7.293701173693989E-6) translate(-637.1092790527343, 18.13041815948486) translate(-8.82777467181677, 73.14441870934016) translate(21.25, 0.0) translate(670.0, -93.75) translate(12.5, 12.50006103515625)" fill="none" stroke-linejoin="round" d="   M45.976,445.816c-2.556-3.043-7.3-8.172-8.616-22.52" stroke="#000000" stroke-width="0.25" g2gstroke="#312783" stroke-miterlimit="10"/>
<path stroke-linecap="round" orgstroke="#000000" orgfill="none" transform="translate(1.6666666666666288, 45.0) translate(5.0, 141.66666666666663) translate(-1.1659935022249215, -6.995961013349529) translate(2.331987004449843, 3.4979805066747645) translate(-6.995961013349529, 0.0) translate(-318.31622610740294, -206.38084989381065) translate(279.8384405339806, 277.50645352953075) translate(-65,-56) translate(-135.7864793701172, -15.95862927246094) translate(284.61321814083357, -34.52408859104787) translate(-23.810883895874042, -7.293701173693989E-6) translate(-637.1092790527343, 18.13041815948486) translate(-8.82777467181677, 73.14441870934016) translate(21.25, 0.0) translate(670.0, -93.75) translate(12.5, 12.50006103515625)" fill="none" stroke-linejoin="round" d="   M44.845,441.966c-4.049-5.729-8.242-18.615-6.172-35.396" stroke="#000000" stroke-width="0.25" g2gstroke="#312783" stroke-miterlimit="10"/>
<path stroke-linecap="round" orgstroke="#000000" orgfill="none" transform="translate(1.6666666666666288, 45.0) translate(5.0, 141.66666666666663) translate(-1.1659935022249215, -6.995961013349529) translate(2.331987004449843, 3.4979805066747645) translate(-6.995961013349529, 0.0) translate(-318.31622610740294, -206.38084989381065) translate(279.8384405339806, 277.50645352953075) translate(-65,-56) translate(-135.7864793701172, -15.95862927246094) translate(284.61321814083357, -34.52408859104787) translate(-23.810883895874042, -7.293701173693989E-6) translate(-637.1092790527343, 18.13041815948486) translate(-8.82777467181677, 73.14441870934016) translate(21.25, 0.0) translate(670.0, -93.75) translate(12.5, 12.50006103515625)" fill="none" stroke-linejoin="round" d="   M210.358,499.589c0.688-0.104,1.373-0.213,2.056-0.326c15.82-2.625,22.531-6.074,29.203-14.268" stroke="#000000" stroke-width="0.25" g2gstroke="#312783" stroke-miterlimit="10"/>
<path stroke-linecap="round" orgstroke="#000000" orgfill="none" transform="translate(1.6666666666666288, 45.0) translate(5.0, 141.66666666666663) translate(-1.1659935022249215, -6.995961013349529) translate(2.331987004449843, 3.4979805066747645) translate(-6.995961013349529, 0.0) translate(-318.31622610740294, -206.38084989381065) translate(279.8384405339806, 277.50645352953075) translate(-65,-56) translate(-135.7864793701172, -15.95862927246094) translate(284.61321814083357, -34.52408859104787) translate(-23.810883895874042, -7.293701173693989E-6) translate(-637.1092790527343, 18.13041815948486) translate(-8.82777467181677, 73.14441870934016) translate(21.25, 0.0) translate(670.0, -93.75) translate(12.5, 12.50006103515625)" fill="none" stroke-linejoin="round" d="   M157.142,531.085c2.595-6.727,8.21-23.063,9.313-25.445c0.998-2.148,2.686-3.271,6.248-3.271c2.594,0,11.82-0.121,22.753-1.045" stroke="#000000" stroke-width="0.25" g2gstroke="#312783" stroke-miterlimit="10"/>
<path stroke-linecap="round" orgstroke="#000000" orgfill="none" transform="translate(1.6666666666666288, 45.0) translate(5.0, 141.66666666666663) translate(-1.1659935022249215, -6.995961013349529) translate(2.331987004449843, 3.4979805066747645) translate(-6.995961013349529, 0.0) translate(-318.31622610740294, -206.38084989381065) translate(279.8384405339806, 277.50645352953075) translate(-65,-56) translate(-135.7864793701172, -15.95862927246094) translate(284.61321814083357, -34.52408859104787) translate(-23.810883895874042, -7.293701173693989E-6) translate(-637.1092790527343, 18.13041815948486) translate(-8.82777467181677, 73.14441870934016) translate(21.25, 0.0) translate(670.0, -93.75) translate(12.5, 12.50006103515625)" fill="none" stroke-linejoin="round" d="   M172.743,514.707c-1.734-0.133-1.773-0.021-2.246,1.123l-7.56,21.686c-0.418,1.27-0.674,2.238,1.062,2.609" stroke="#000000" stroke-width="0.25" g2gstroke="#312783" stroke-miterlimit="10"/>
<path stroke-linecap="round" orgstroke="#000000" orgfill="none" transform="translate(1.6666666666666288, 45.0) translate(5.0, 141.66666666666663) translate(-1.1659935022249215, -6.995961013349529) translate(2.331987004449843, 3.4979805066747645) translate(-6.995961013349529, 0.0) translate(-318.31622610740294, -206.38084989381065) translate(279.8384405339806, 277.50645352953075) translate(-65,-56) translate(-135.7864793701172, -15.95862927246094) translate(284.61321814083357, -34.52408859104787) translate(-23.810883895874042, -7.293701173693989E-6) translate(-637.1092790527343, 18.13041815948486) translate(-8.82777467181677, 73.14441870934016) translate(21.25, 0.0) translate(670.0, -93.75) translate(12.5, 12.50006103515625)" fill="none" stroke-linejoin="round" d="   M37.373,443.957c-0.001,0.084-0.002,0.166-0.003,0.244c-0.182,16.85,6.42,32.68,8.524,35.854c0.472,0.711,0.778,0.707,1.937,1.148   c1.775,0.678,5.749,2.172,6.562,2.803c15.172,11.797,25.52,18.646,42.023,28.213c16.883,9.781,36.938,20.061,51.488,25.76   c1.272,0.498,2.967,2.156,3.646,3.453" stroke="#000000" stroke-width="0.25" g2gstroke="#312783" stroke-miterlimit="10"/>
<path stroke-linecap="round" orgstroke="#000000" orgfill="none" transform="translate(1.6666666666666288, 45.0) translate(5.0, 141.66666666666663) translate(-1.1659935022249215, -6.995961013349529) translate(2.331987004449843, 3.4979805066747645) translate(-6.995961013349529, 0.0) translate(-318.31622610740294, -206.38084989381065) translate(279.8384405339806, 277.50645352953075) translate(-65,-56) translate(-135.7864793701172, -15.95862927246094) translate(284.61321814083357, -34.52408859104787) translate(-23.810883895874042, -7.293701173693989E-6) translate(-637.1092790527343, 18.13041815948486) translate(-8.82777467181677, 73.14441870934016) translate(21.25, 0.0) translate(670.0, -93.75) translate(12.5, 12.50006103515625)" fill="none" stroke-linejoin="round" d="   M35.9,454.455c0.13,7.125,2.73,16.328,9.443,26.596" stroke="#000000" stroke-width="0.25" g2gstroke="#312783" stroke-miterlimit="10"/>
<path stroke-linecap="round" orgstroke="#000000" orgfill="none" transform="translate(1.6666666666666288, 45.0) translate(5.0, 141.66666666666663) translate(-1.1659935022249215, -6.995961013349529) translate(2.331987004449843, 3.4979805066747645) translate(-6.995961013349529, 0.0) translate(-318.31622610740294, -206.38084989381065) translate(279.8384405339806, 277.50645352953075) translate(-65,-56) translate(-135.7864793701172, -15.95862927246094) translate(284.61321814083357, -34.52408859104787) translate(-23.810883895874042, -7.293701173693989E-6) translate(-637.1092790527343, 18.13041815948486) translate(-8.82777467181677, 73.14441870934016) translate(21.25, 0.0) translate(670.0, -93.75) translate(12.5, 12.50006103515625)" fill="none" stroke-linejoin="round" d="   M156.822,545.105c17.514,3.832,39.697,6.295,49.404,6.271c11.169-0.027,21.054-0.676,39.363-5.082   c10.116-2.434,10.042-2.654,11.517-9.717c1.297-6.211,2.726-16.287,6.298-27.744c2.406-7.719,5.854-15.334,10.053-22.469" stroke="#000000" stroke-width="0.25" g2gstroke="#312783" stroke-miterlimit="10"/>
<path stroke-linecap="round" orgstroke="#000000" orgfill="none" transform="translate(1.6666666666666288, 45.0) translate(5.0, 141.66666666666663) translate(-1.1659935022249215, -6.995961013349529) translate(2.331987004449843, 3.4979805066747645) translate(-6.995961013349529, 0.0) translate(-318.31622610740294, -206.38084989381065) translate(279.8384405339806, 277.50645352953075) translate(-65,-56) translate(-135.7864793701172, -15.95862927246094) translate(284.61321814083357, -34.52408859104787) translate(-23.810883895874042, -7.293701173693989E-6) translate(-637.1092790527343, 18.13041815948486) translate(-8.82777467181677, 73.14441870934016) translate(21.25, 0.0) translate(670.0, -93.75) translate(12.5, 12.50006103515625)" fill="none" stroke-linejoin="round" d="   M43.225,401.74c0.015-0.717,0.036-1.426,0.064-2.123c0.126-3.051,0.759-5.93,1.634-8.574" stroke="#000000" stroke-width="0.25" g2gstroke="#312783" stroke-miterlimit="10"/>
<path stroke-linecap="round" orgstroke="#000000" orgfill="none" transform="translate(1.6666666666666288, 45.0) translate(5.0, 141.66666666666663) translate(-1.1659935022249215, -6.995961013349529) translate(2.331987004449843, 3.4979805066747645) translate(-6.995961013349529, 0.0) translate(-318.31622610740294, -206.38084989381065) translate(279.8384405339806, 277.50645352953075) translate(-65,-56) translate(-135.7864793701172, -15.95862927246094) translate(284.61321814083357, -34.52408859104787) translate(-23.810883895874042, -7.293701173693989E-6) translate(-637.1092790527343, 18.13041815948486) translate(-8.82777467181677, 73.14441870934016) translate(21.25, 0.0) translate(670.0, -93.75) translate(12.5, 12.50006103515625)" fill="none" stroke-linejoin="round" d="   M51.883,478.568c-1.093-0.836-2.085-2.916-2.258-3.699c-1.679-7.605-4.116-17.715-3.523-38.252c0.106-3.686,0-3.688-1.178-9.307   c-0.521-2.482-1.228-8.848-1.551-15.883" stroke="#000000" stroke-width="0.25" g2gstroke="#312783" stroke-miterlimit="10"/>
<path stroke-linecap="round" orgstroke="#000000" orgfill="none" transform="translate(1.6666666666666288, 45.0) translate(5.0, 141.66666666666663) translate(-1.1659935022249215, -6.995961013349529) translate(2.331987004449843, 3.4979805066747645) translate(-6.995961013349529, 0.0) translate(-318.31622610740294, -206.38084989381065) translate(279.8384405339806, 277.50645352953075) translate(-65,-56) translate(-135.7864793701172, -15.95862927246094) translate(284.61321814083357, -34.52408859104787) translate(-23.810883895874042, -7.293701173693989E-6) translate(-637.1092790527343, 18.13041815948486) translate(-8.82777467181677, 73.14441870934016) translate(21.25, 0.0) translate(670.0, -93.75) translate(12.5, 12.50006103515625)" fill="none" stroke-linejoin="round" d="   M41.485,439.363c0.131,14.773,2.384,26.002,5.073,32.828c0.315,0.801,0.528,1.039,0.792,1.369c1.966,2.492,4.326,4.904,7.205,7.691   c1.122,1.086,2.284,2.049,3.567,3.125c14.849,12.455,47.657,34.494,86.895,50.07c2.512,0.996,8.194,3.145,10.147,3.723   c3.018,0.893,6.135,1.439,9.227,2.031c32.843,6.281,66.697,3.229,74.882,2.27c1.441-0.17,2.069-0.938,2.312-1.713" stroke="#000000" stroke-width="0.25" g2gstroke="#312783" stroke-miterlimit="10"/>
<path stroke-linecap="round" orgstroke="#000000" orgfill="none" transform="translate(1.6666666666666288, 45.0) translate(5.0, 141.66666666666663) translate(-1.1659935022249215, -6.995961013349529) translate(2.331987004449843, 3.4979805066747645) translate(-6.995961013349529, 0.0) translate(-318.31622610740294, -206.38084989381065) translate(279.8384405339806, 277.50645352953075) translate(-65,-56) translate(-135.7864793701172, -15.95862927246094) translate(284.61321814083357, -34.52408859104787) translate(-23.810883895874042, -7.293701173693989E-6) translate(-637.1092790527343, 18.13041815948486) translate(-8.82777467181677, 73.14441870934016) translate(21.25, 0.0) translate(670.0, -93.75) translate(12.5, 12.50006103515625)" fill="none" stroke-linejoin="round" d="   M49.133,454.832c-1.104-0.908-1.652-0.584-1.592,0.213c0.468,6.219,1.929,14.482,2.867,17.578   c1.691,5.582,4.353,7.398,7.932,10.451c24.965,21.297,64.263,41.656,86.678,50.445c1.13,0.443,2.891,1.148,4.683,1.785   c1.67,0.592,3.213,1.037,4.293-0.586" stroke="#000000" stroke-width="0.25" g2gstroke="#312783" stroke-miterlimit="10"/>
<path stroke-linecap="round" orgstroke="#000000" orgfill="none" transform="translate(1.6666666666666288, 45.0) translate(5.0, 141.66666666666663) translate(-1.1659935022249215, -6.995961013349529) translate(2.331987004449843, 3.4979805066747645) translate(-6.995961013349529, 0.0) translate(-318.31622610740294, -206.38084989381065) translate(279.8384405339806, 277.50645352953075) translate(-65,-56) translate(-135.7864793701172, -15.95862927246094) translate(284.61321814083357, -34.52408859104787) translate(-23.810883895874042, -7.293701173693989E-6) translate(-637.1092790527343, 18.13041815948486) translate(-8.82777467181677, 73.14441870934016) translate(21.25, 0.0) translate(670.0, -93.75) translate(12.5, 12.50006103515625)" fill="none" stroke-linejoin="round" d="   M151.55,541.431c0.459,1.115,0.886,1.818,1.461,2.605" stroke="#000000" stroke-width="0.25" g2gstroke="#312783" stroke-miterlimit="10"/>
<path stroke-linecap="round" orgstroke="#000000" orgfill="none" transform="translate(1.6666666666666288, 45.0) translate(5.0, 141.66666666666663) translate(-1.1659935022249215, -6.995961013349529) translate(2.331987004449843, 3.4979805066747645) translate(-6.995961013349529, 0.0) translate(-318.31622610740294, -206.38084989381065) translate(279.8384405339806, 277.50645352953075) translate(-65,-56) translate(-135.7864793701172, -15.95862927246094) translate(284.61321814083357, -34.52408859104787) translate(-23.810883895874042, -7.293701173693989E-6) translate(-637.1092790527343, 18.13041815948486) translate(-8.82777467181677, 73.14441870934016) translate(21.25, 0.0) translate(670.0, -93.75) translate(12.5, 12.50006103515625)" fill="none" stroke-linejoin="round" d="   M157.943,545.212c43.343,6.164,73.17,1.113,96.147-2.717" stroke="#000000" stroke-width="0.25" g2gstroke="#312783" stroke-miterlimit="10"/>
<path stroke-linecap="round" orgstroke="#000000" orgfill="none" transform="translate(1.6666666666666288, 45.0) translate(5.0, 141.66666666666663) translate(-1.1659935022249215, -6.995961013349529) translate(2.331987004449843, 3.4979805066747645) translate(-6.995961013349529, 0.0) translate(-318.31622610740294, -206.38084989381065) translate(279.8384405339806, 277.50645352953075) translate(-65,-56) translate(-135.7864793701172, -15.95862927246094) translate(284.61321814083357, -34.52408859104787) translate(-23.810883895874042, -7.293701173693989E-6) translate(-637.1092790527343, 18.13041815948486) translate(-8.82777467181677, 73.14441870934016) translate(21.25, 0.0) translate(670.0, -93.75) translate(12.5, 12.50006103515625)" fill="none" stroke-linejoin="round" d="   M46.516,484.673c-0.335-0.957-0.333-2.547-0.266-4.133" stroke="#000000" stroke-width="0.25" g2gstroke="#312783" stroke-miterlimit="10"/>
<path stroke-linecap="round" orgstroke="#000000" orgfill="none" transform="translate(1.6666666666666288, 45.0) translate(5.0, 141.66666666666663) translate(-1.1659935022249215, -6.995961013349529) translate(2.331987004449843, 3.4979805066747645) translate(-6.995961013349529, 0.0) translate(-318.31622610740294, -206.38084989381065) translate(279.8384405339806, 277.50645352953075) translate(-65,-56) translate(-135.7864793701172, -15.95862927246094) translate(284.61321814083357, -34.52408859104787) translate(-23.810883895874042, -7.293701173693989E-6) translate(-637.1092790527343, 18.13041815948486) translate(-8.82777467181677, 73.14441870934016) translate(21.25, 0.0) translate(670.0, -93.75) translate(12.5, 12.50006103515625)" fill="none" stroke-linejoin="round" d="   M243.467,540.447c-0.001-0.666-0.133-1.383-0.465-2.115c-1.969-4.342-6.929-14.756-10.732-19.139   c-5.705-6.578-14-7.061-21.313-6.352c-4.479,0.434-14.658,0.85-17.293,0.828c-10.172-0.086-21.255-1.127-28.41-2.186" stroke="#000000" stroke-width="0.25" g2gstroke="#312783" stroke-miterlimit="10"/>
<path stroke-linecap="round" orgstroke="#000000" orgfill="none" transform="translate(1.6666666666666288, 45.0) translate(5.0, 141.66666666666663) translate(-1.1659935022249215, -6.995961013349529) translate(2.331987004449843, 3.4979805066747645) translate(-6.995961013349529, 0.0) translate(-318.31622610740294, -206.38084989381065) translate(279.8384405339806, 277.50645352953075) translate(-65,-56) translate(-135.7864793701172, -15.95862927246094) translate(284.61321814083357, -34.52408859104787) translate(-23.810883895874042, -7.293701173693989E-6) translate(-637.1092790527343, 18.13041815948486) translate(-8.82777467181677, 73.14441870934016) translate(21.25, 0.0) translate(670.0, -93.75) translate(12.5, 12.50006103515625)" fill="none" stroke-linejoin="round" d="   M241.629,539.794c0.287,1.281-0.499,3.193-2.355,3.412c-10.462,1.227-51.903,5.791-87.724-1.775" stroke="#000000" stroke-width="0.25" g2gstroke="#312783" stroke-miterlimit="10"/>
<path stroke-linecap="round" orgstroke="#000000" orgfill="none" transform="translate(1.6666666666666288, 45.0) translate(5.0, 141.66666666666663) translate(-1.1659935022249215, -6.995961013349529) translate(2.331987004449843, 3.4979805066747645) translate(-6.995961013349529, 0.0) translate(-318.31622610740294, -206.38084989381065) translate(279.8384405339806, 277.50645352953075) translate(-65,-56) translate(-135.7864793701172, -15.95862927246094) translate(284.61321814083357, -34.52408859104787) translate(-23.810883895874042, -7.293701173693989E-6) translate(-637.1092790527343, 18.13041815948486) translate(-8.82777467181677, 73.14441870934016) translate(21.25, 0.0) translate(670.0, -93.75) translate(12.5, 12.50006103515625)" fill="none" stroke-linejoin="round" d="   M163.48,513.585c2.795,0.504,6.417,0.91,10.482,1.217" stroke="#000000" stroke-width="0.25" g2gstroke="#312783" stroke-miterlimit="10"/>
<path stroke-linecap="round" orgstroke="#000000" orgfill="none" transform="translate(1.6666666666666288, 45.0) translate(5.0, 141.66666666666663) translate(-1.1659935022249215, -6.995961013349529) translate(2.331987004449843, 3.4979805066747645) translate(-6.995961013349529, 0.0) translate(-318.31622610740294, -206.38084989381065) translate(279.8384405339806, 277.50645352953075) translate(-65,-56) translate(-135.7864793701172, -15.95862927246094) translate(284.61321814083357, -34.52408859104787) translate(-23.810883895874042, -7.293701173693989E-6) translate(-637.1092790527343, 18.13041815948486) translate(-8.82777467181677, 73.14441870934016) translate(21.25, 0.0) translate(670.0, -93.75) translate(12.5, 12.50006103515625)" fill="none" stroke-linejoin="round" d="   M151.846,537.031c0.632,0.234,2.491,0.309,3.726-2.393c0.635-1.391,1.571-3.555,1.571-3.555" stroke="#000000" stroke-width="0.25" g2gstroke="#312783" stroke-miterlimit="10"/>
<path stroke-linecap="round" orgstroke="#000000" orgfill="none" transform="translate(1.6666666666666288, 45.0) translate(5.0, 141.66666666666663) translate(-1.1659935022249215, -6.995961013349529) translate(2.331987004449843, 3.4979805066747645) translate(-6.995961013349529, 0.0) translate(-318.31622610740294, -206.38084989381065) translate(279.8384405339806, 277.50645352953075) translate(-65,-56) translate(-135.7864793701172, -15.95862927246094) translate(284.61321814083357, -34.52408859104787) translate(-23.810883895874042, -7.293701173693989E-6) translate(-637.1092790527343, 18.13041815948486) translate(-8.82777467181677, 73.14441870934016) translate(21.25, 0.0) translate(670.0, -93.75) translate(12.5, 12.50006103515625)" fill="none" stroke-linejoin="round" d="   M38.104,428.835c0,2.23,0,13.402,0,14.303c0,1,0.128,2.818,0.258,3.826l0.296,2.236c1.527,10.982,3.9,16.947,7.607,22.23" stroke="#000000" stroke-width="0.25" g2gstroke="#312783" stroke-miterlimit="10"/>
<path stroke-linecap="round" orgstroke="#000000" orgfill="none" transform="translate(1.6666666666666288, 45.0) translate(5.0, 141.66666666666663) translate(-1.1659935022249215, -6.995961013349529) translate(2.331987004449843, 3.4979805066747645) translate(-6.995961013349529, 0.0) translate(-318.31622610740294, -206.38084989381065) translate(279.8384405339806, 277.50645352953075) translate(-65,-56) translate(-135.7864793701172, -15.95862927246094) translate(284.61321814083357, -34.52408859104787) translate(-23.810883895874042, -7.293701173693989E-6) translate(-637.1092790527343, 18.13041815948486) translate(-8.82777467181677, 73.14441870934016) translate(21.25, 0.0) translate(670.0, -93.75) translate(12.5, 12.50006103515625)" fill="none" stroke-linejoin="round" d="M37.38199996948242 442.76300048828125L38.13199996948242 444.1210021972656" stroke="#000000" stroke-width="0.25" g2gstroke="#312783" stroke-miterlimit="10"/>
<path stroke-linecap="round" orgstroke="#000000" orgfill="none" transform="translate(1.6666666666666288, 45.0) translate(5.0, 141.66666666666663) translate(-1.1659935022249215, -6.995961013349529) translate(2.331987004449843, 3.4979805066747645) translate(-6.995961013349529, 0.0) translate(-318.31622610740294, -206.38084989381065) translate(279.8384405339806, 277.50645352953075) translate(-65,-56) translate(-135.7864793701172, -15.95862927246094) translate(284.61321814083357, -34.52408859104787) translate(-23.810883895874042, -7.293701173693989E-6) translate(-637.1092790527343, 18.13041815948486) translate(-8.82777467181677, 73.14441870934016) translate(21.25, 0.0) translate(670.0, -93.75) translate(12.5, 12.50006103515625)" fill="none" stroke-linejoin="round" d="   M37.163,445.851c-0.171,1.225-0.383,2.771-0.362,3.396c0.408,12.891,6.141,27.623,7.788,30.477" stroke="#000000" stroke-width="0.25" g2gstroke="#312783" stroke-miterlimit="10"/>
<path stroke-linecap="round" orgstroke="#000000" orgfill="none" transform="translate(1.6666666666666288, 45.0) translate(5.0, 141.66666666666663) translate(-1.1659935022249215, -6.995961013349529) translate(2.331987004449843, 3.4979805066747645) translate(-6.995961013349529, 0.0) translate(-318.31622610740294, -206.38084989381065) translate(279.8384405339806, 277.50645352953075) translate(-65,-56) translate(-135.7864793701172, -15.95862927246094) translate(284.61321814083357, -34.52408859104787) translate(-23.810883895874042, -7.293701173693989E-6) translate(-637.1092790527343, 18.13041815948486) translate(-8.82777467181677, 73.14441870934016) translate(21.25, 0.0) translate(670.0, -93.75) translate(12.5, 12.50006103515625)" fill="none" stroke-linejoin="round" d="   M52.255,450.57c-0.155-0.146-0.309-0.293-0.461-0.438c-0.43-0.412-0.613-0.119-0.613,0.225s0,2.688,0,3.016s0.14,0.676,0.309,0.838   c0.712,0.689,1.286,1.23,2.047,1.932c0.187,0.174,0.52,0.199,0.52-0.361c0-0.146,0-0.863,0-1.143" stroke="#000000" stroke-width="0.25" g2gstroke="#312783" stroke-miterlimit="10"/>
<path stroke-linecap="round" orgstroke="#000000" orgfill="none" transform="translate(1.6666666666666288, 45.0) translate(5.0, 141.66666666666663) translate(-1.1659935022249215, -6.995961013349529) translate(2.331987004449843, 3.4979805066747645) translate(-6.995961013349529, 0.0) translate(-318.31622610740294, -206.38084989381065) translate(279.8384405339806, 277.50645352953075) translate(-65,-56) translate(-135.7864793701172, -15.95862927246094) translate(284.61321814083357, -34.52408859104787) translate(-23.810883895874042, -7.293701173693989E-6) translate(-637.1092790527343, 18.13041815948486) translate(-8.82777467181677, 73.14441870934016) translate(21.25, 0.0) translate(670.0, -93.75) translate(12.5, 12.50006103515625)" fill="none" stroke-linejoin="round" d="   M176.382,490.509c-0.426-0.033-0.82-0.045-1.172-0.131c-0.4-0.098-0.387-0.15-0.098-0.316l0.287-0.168   c0.168-0.096,0.242-0.398,0.242-0.629v-0.742c0-0.215-0.021-0.313-0.375-0.436c-0.572-0.199-1.902-0.598-2.488-0.803   c-0.35-0.121-0.494-0.484-0.494-0.734v-1.09c0.002-0.555-0.082-0.584-0.486-0.727c-14.859-5.252-33.66-12.389-53.311-22.957" stroke="#000000" stroke-width="0.25" g2gstroke="#312783" stroke-miterlimit="10"/>
<path stroke-linecap="round" orgstroke="#000000" orgfill="none" transform="translate(1.6666666666666288, 45.0) translate(5.0, 141.66666666666663) translate(-1.1659935022249215, -6.995961013349529) translate(2.331987004449843, 3.4979805066747645) translate(-6.995961013349529, 0.0) translate(-318.31622610740294, -206.38084989381065) translate(279.8384405339806, 277.50645352953075) translate(-65,-56) translate(-135.7864793701172, -15.95862927246094) translate(284.61321814083357, -34.52408859104787) translate(-23.810883895874042, -7.293701173693989E-6) translate(-637.1092790527343, 18.13041815948486) translate(-8.82777467181677, 73.14441870934016) translate(21.25, 0.0) translate(670.0, -93.75) translate(12.5, 12.50006103515625)" fill="none" stroke-linejoin="round" d="   M52.356,374.658c-1.402,5.918-2.551,13.963-2.441,17.604c0.123,4.064,0.936,20.947,6.436,30.518   c0.117,0.199,0.242,0.418,0.389,0.572c7.744,8.125,20.877,19.695,38.533,31.266c0,0,0.223,0.145,0.234,0.508   c0.053,2.291,0.637,4.563,1.795,6.52c1.658,2.801,4.211,4.404,6.846,4.623c2.188,0.184,5.416,0.133,8.373-0.934   c0,0,0.355-0.121,0.684,0.059c22.164,12.107,43.365,19.814,59.182,25.324c1.145,0.301,2.809,0.484,5.342,0.627   c4.875,0.273,16.5,1.898,36.813-0.352s21.852-5.574,23.367-6.844c0.152-0.127,0.383-0.365,0.674-0.695   c0.158-0.18,0.23-0.139,0.414-0.033" stroke="#000000" stroke-width="0.25" g2gstroke="#312783" stroke-miterlimit="10"/>
<path stroke-linecap="round" orgstroke="#000000" orgfill="none" transform="translate(1.6666666666666288, 45.0) translate(5.0, 141.66666666666663) translate(-1.1659935022249215, -6.995961013349529) translate(2.331987004449843, 3.4979805066747645) translate(-6.995961013349529, 0.0) translate(-318.31622610740294, -206.38084989381065) translate(279.8384405339806, 277.50645352953075) translate(-65,-56) translate(-135.7864793701172, -15.95862927246094) translate(284.61321814083357, -34.52408859104787) translate(-23.810883895874042, -7.293701173693989E-6) translate(-637.1092790527343, 18.13041815948486) translate(-8.82777467181677, 73.14441870934016) translate(21.25, 0.0) translate(670.0, -93.75) translate(12.5, 12.50006103515625)" fill="none" stroke-linejoin="round" d="   M212.921,495.972c0.059-0.09,0.111-0.174,0.16-0.252c0.666-1.082,0.293-1.084-0.5-1.084c-0.791,0-10.166,0.75-11.041,0.791   s-2.125,0.625-2.584,1.209c-0.457,0.584-2.916,3.668-2.916,3.668c-0.619,0.74-0.666,1.291-0.666,1.541s0,0.75,0,0.959   c0,0.113,0.041,0.299,0.225,0.434" stroke="#000000" stroke-width="0.25" g2gstroke="#312783" stroke-miterlimit="10"/>
<path stroke-linecap="round" orgstroke="#000000" orgfill="none" transform="translate(1.6666666666666288, 45.0) translate(5.0, 141.66666666666663) translate(-1.1659935022249215, -6.995961013349529) translate(2.331987004449843, 3.4979805066747645) translate(-6.995961013349529, 0.0) translate(-318.31622610740294, -206.38084989381065) translate(279.8384405339806, 277.50645352953075) translate(-65,-56) translate(-135.7864793701172, -15.95862927246094) translate(284.61321814083357, -34.52408859104787) translate(-23.810883895874042, -7.293701173693989E-6) translate(-637.1092790527343, 18.13041815948486) translate(-8.82777467181677, 73.14441870934016) translate(21.25, 0.0) translate(670.0, -93.75) translate(12.5, 12.50006103515625)" fill="none" stroke-linejoin="round" d="   M42.192,412.56c0.02,0.289,0.293,0.447,0.457,0.215c0.164-0.234,0.301-0.516,0.568-1.049c0.156-0.313,0.479-0.904,0.697-1.094   c0.218-0.188,3.234-2.578,3.563-2.857c0.329-0.281,0.49-0.646,0.479-1.002c-0.094-2.547-0.107-5.131-0.006-7.619   c0.006-0.109,0.012-0.223,0.016-0.33c0.045-1.125-0.535-0.814-0.832-0.564s-2.813,2.234-3.203,2.625s-0.875,1.078-1.016,1.328   s-0.688,1.188-0.813,1.547s-0.225,0.906-0.221,1.297c0.023,2.527,0.139,5.068,0.309,7.494L42.192,412.56z" stroke="#000000" stroke-width="0.25" g2gstroke="#312783" stroke-miterlimit="10"/>
<path stroke-linecap="round" orgstroke="#000000" orgfill="none" transform="translate(1.6666666666666288, 45.0) translate(5.0, 141.66666666666663) translate(-1.1659935022249215, -6.995961013349529) translate(2.331987004449843, 3.4979805066747645) translate(-6.995961013349529, 0.0) translate(-318.31622610740294, -206.38084989381065) translate(279.8384405339806, 277.50645352953075) translate(-65,-56) translate(-135.7864793701172, -15.95862927246094) translate(284.61321814083357, -34.52408859104787) translate(-23.810883895874042, -7.293701173693989E-6) translate(-637.1092790527343, 18.13041815948486) translate(-8.82777467181677, 73.14441870934016) translate(21.25, 0.0) translate(670.0, -93.75) translate(12.5, 12.50006103515625)" fill="none" stroke-linejoin="round" d="   M47.935,399.132c-0.785,0.629-2.527,2.018-2.848,2.336c-0.391,0.393-0.875,1.078-1.016,1.328s-0.688,1.189-0.813,1.547   c-0.125,0.359-0.225,0.906-0.221,1.297c0.02,1.982,0.094,3.975,0.207,5.908" stroke="#000000" stroke-width="0.25" g2gstroke="#312783" stroke-miterlimit="10"/>
<path stroke-linecap="round" orgstroke="#000000" orgfill="none" transform="translate(1.6666666666666288, 45.0) translate(5.0, 141.66666666666663) translate(-1.1659935022249215, -6.995961013349529) translate(2.331987004449843, 3.4979805066747645) translate(-6.995961013349529, 0.0) translate(-318.31622610740294, -206.38084989381065) translate(279.8384405339806, 277.50645352953075) translate(-65,-56) translate(-135.7864793701172, -15.95862927246094) translate(284.61321814083357, -34.52408859104787) translate(-23.810883895874042, -7.293701173693989E-6) translate(-637.1092790527343, 18.13041815948486) translate(-8.82777467181677, 73.14441870934016) translate(21.25, 0.0) translate(670.0, -93.75) translate(12.5, 12.50006103515625)" fill="none" stroke-linejoin="round" d="   M135.112,497.082c0.123,0.871,0.795,1.809,1.502,2.096c0.707,0.285,1.18-0.188,1.057-1.063c-0.121-0.871-0.793-1.809-1.5-2.094   S134.991,496.21,135.112,497.082z" stroke="#000000" stroke-width="0.25" g2gstroke="#312783" stroke-miterlimit="10"/>
<path stroke-linecap="round" orgstroke="#000000" orgfill="none" transform="translate(1.6666666666666288, 45.0) translate(5.0, 141.66666666666663) translate(-1.1659935022249215, -6.995961013349529) translate(2.331987004449843, 3.4979805066747645) translate(-6.995961013349529, 0.0) translate(-318.31622610740294, -206.38084989381065) translate(279.8384405339806, 277.50645352953075) translate(-65,-56) translate(-135.7864793701172, -15.95862927246094) translate(284.61321814083357, -34.52408859104787) translate(-23.810883895874042, -7.293701173693989E-6) translate(-637.1092790527343, 18.13041815948486) translate(-8.82777467181677, 73.14441870934016) translate(21.25, 0.0) translate(670.0, -93.75) translate(12.5, 12.50006103515625)" fill="none" stroke-linejoin="round" d="   M61.505,454.892c0.123,0.871,0.795,1.811,1.502,2.098c0.707,0.285,1.18-0.189,1.057-1.064c-0.121-0.871-0.793-1.809-1.5-2.094   S61.384,454.021,61.505,454.892z" stroke="#000000" stroke-width="0.25" g2gstroke="#312783" stroke-miterlimit="10"/>
<path stroke-linecap="round" orgstroke="#000000" orgfill="none" transform="translate(1.6666666666666288, 45.0) translate(5.0, 141.66666666666663) translate(-1.1659935022249215, -6.995961013349529) translate(2.331987004449843, 3.4979805066747645) translate(-6.995961013349529, 0.0) translate(-318.31622610740294, -206.38084989381065) translate(279.8384405339806, 277.50645352953075) translate(-65,-56) translate(-135.7864793701172, -15.95862927246094) translate(284.61321814083357, -34.52408859104787) translate(-23.810883895874042, -7.293701173693989E-6) translate(-637.1092790527343, 18.13041815948486) translate(-8.82777467181677, 73.14441870934016) translate(21.25, 0.0) translate(670.0, -93.75) translate(12.5, 12.50006103515625)" fill="none" stroke-linejoin="round" d="   M63.735,368.339c-0.08,0.564-0.514,1.166-0.969,1.354c-0.457,0.184-0.762-0.121-0.682-0.688c0.078-0.563,0.512-1.166,0.967-1.35   C63.509,367.472,63.813,367.777,63.735,368.339z" stroke="#000000" stroke-width="0.25" g2gstroke="#312783" stroke-miterlimit="10"/>
<path stroke-linecap="round" orgstroke="#000000" orgfill="none" transform="translate(1.6666666666666288, 45.0) translate(5.0, 141.66666666666663) translate(-1.1659935022249215, -6.995961013349529) translate(2.331987004449843, 3.4979805066747645) translate(-6.995961013349529, 0.0) translate(-318.31622610740294, -206.38084989381065) translate(279.8384405339806, 277.50645352953075) translate(-65,-56) translate(-135.7864793701172, -15.95862927246094) translate(284.61321814083357, -34.52408859104787) translate(-23.810883895874042, -7.293701173693989E-6) translate(-637.1092790527343, 18.13041815948486) translate(-8.82777467181677, 73.14441870934016) translate(21.25, 0.0) translate(670.0, -93.75) translate(12.5, 12.50006103515625)" fill="none" stroke-linejoin="round" d="   M58.667,379.255c-0.08,0.564-0.514,1.166-0.969,1.354c-0.457,0.184-0.762-0.121-0.682-0.688c0.078-0.563,0.512-1.166,0.967-1.35   C58.44,378.388,58.745,378.693,58.667,379.255z" stroke="#000000" stroke-width="0.25" g2gstroke="#312783" stroke-miterlimit="10"/>
<path stroke-linecap="round" orgstroke="#000000" orgfill="none" transform="translate(1.6666666666666288, 45.0) translate(5.0, 141.66666666666663) translate(-1.1659935022249215, -6.995961013349529) translate(2.331987004449843, 3.4979805066747645) translate(-6.995961013349529, 0.0) translate(-318.31622610740294, -206.38084989381065) translate(279.8384405339806, 277.50645352953075) translate(-65,-56) translate(-135.7864793701172, -15.95862927246094) translate(284.61321814083357, -34.52408859104787) translate(-23.810883895874042, -7.293701173693989E-6) translate(-637.1092790527343, 18.13041815948486) translate(-8.82777467181677, 73.14441870934016) translate(21.25, 0.0) translate(670.0, -93.75) translate(12.5, 12.50006103515625)" fill="none" stroke-linejoin="round" d="   M55.003,389.876c-0.08,0.564-0.514,1.166-0.969,1.352c-0.457,0.186-0.762-0.119-0.682-0.686c0.078-0.561,0.512-1.166,0.967-1.35   C54.776,389.009,55.081,389.316,55.003,389.876z" stroke="#000000" stroke-width="0.25" g2gstroke="#312783" stroke-miterlimit="10"/>
<path stroke-linecap="round" orgstroke="#000000" orgfill="none" transform="translate(1.6666666666666288, 45.0) translate(5.0, 141.66666666666663) translate(-1.1659935022249215, -6.995961013349529) translate(2.331987004449843, 3.4979805066747645) translate(-6.995961013349529, 0.0) translate(-318.31622610740294, -206.38084989381065) translate(279.8384405339806, 277.50645352953075) translate(-65,-56) translate(-135.7864793701172, -15.95862927246094) translate(284.61321814083357, -34.52408859104787) translate(-23.810883895874042, -7.293701173693989E-6) translate(-637.1092790527343, 18.13041815948486) translate(-8.82777467181677, 73.14441870934016) translate(21.25, 0.0) translate(670.0, -93.75) translate(12.5, 12.50006103515625)" fill="none" stroke-linejoin="round" d="   M51.575,399.996c0.143-0.154,0.305-0.277,0.471-0.344c0.455-0.184,0.76,0.123,0.682,0.684c-0.078,0.564-0.512,1.166-0.969,1.352" stroke="#000000" stroke-width="0.25" g2gstroke="#312783" stroke-miterlimit="10"/>
<path stroke-linecap="round" orgstroke="#000000" orgfill="none" transform="translate(1.6666666666666288, 45.0) translate(5.0, 141.66666666666663) translate(-1.1659935022249215, -6.995961013349529) translate(2.331987004449843, 3.4979805066747645) translate(-6.995961013349529, 0.0) translate(-318.31622610740294, -206.38084989381065) translate(279.8384405339806, 277.50645352953075) translate(-65,-56) translate(-135.7864793701172, -15.95862927246094) translate(284.61321814083357, -34.52408859104787) translate(-23.810883895874042, -7.293701173693989E-6) translate(-637.1092790527343, 18.13041815948486) translate(-8.82777467181677, 73.14441870934016) translate(21.25, 0.0) translate(670.0, -93.75) translate(12.5, 12.50006103515625)" fill="none" stroke-linejoin="round" d="   M248.45,490.085c0.164,0.117,0.309,0.221,0.424,0.303c1.125,0.791,3.248,1.209,5.582,0.791c2.334-0.416,15.691-3.926,17.25-4.291   c1.559-0.363,3.188-1.049,3.725-1.357c0.506-0.293,6.646-3.201,7.367-3.543" stroke="#000000" stroke-width="0.25" g2gstroke="#312783" stroke-miterlimit="10"/>
<path stroke-linecap="round" orgstroke="#000000" orgfill="none" transform="translate(1.6666666666666288, 45.0) translate(5.0, 141.66666666666663) translate(-1.1659935022249215, -6.995961013349529) translate(2.331987004449843, 3.4979805066747645) translate(-6.995961013349529, 0.0) translate(-318.31622610740294, -206.38084989381065) translate(279.8384405339806, 277.50645352953075) translate(-65,-56) translate(-135.7864793701172, -15.95862927246094) translate(284.61321814083357, -34.52408859104787) translate(-23.810883895874042, -7.293701173693989E-6) translate(-637.1092790527343, 18.13041815948486) translate(-8.82777467181677, 73.14441870934016) translate(21.25, 0.0) translate(670.0, -93.75) translate(12.5, 12.50006103515625)" fill="none" stroke-linejoin="round" d="   M59.062,421.826c7.744,8.125,21.008,19.857,38.664,31.426c0,0,0.223,0.145,0.234,0.508c0.053,2.291,0.637,4.564,1.795,6.521   c1.658,2.799,4.211,4.404,6.846,4.623c2.188,0.182,5.416,0.131,8.373-0.934c0,0,0.355-0.121,0.684,0.059   c22.164,12.107,43.365,19.814,59.182,25.324c0.215,0.057,0.451,0.111,0.709,0.16" stroke="#000000" stroke-width="0.25" g2gstroke="#312783" stroke-miterlimit="10"/>
<path stroke-linecap="round" orgstroke="#000000" orgfill="none" transform="translate(1.6666666666666288, 45.0) translate(5.0, 141.66666666666663) translate(-1.1659935022249215, -6.995961013349529) translate(2.331987004449843, 3.4979805066747645) translate(-6.995961013349529, 0.0) translate(-318.31622610740294, -206.38084989381065) translate(279.8384405339806, 277.50645352953075) translate(-65,-56) translate(-135.7864793701172, -15.95862927246094) translate(284.61321814083357, -34.52408859104787) translate(-23.810883895874042, -7.293701173693989E-6) translate(-637.1092790527343, 18.13041815948486) translate(-8.82777467181677, 73.14441870934016) translate(21.25, 0.0) translate(670.0, -93.75) translate(12.5, 12.50006103515625)" fill="none" stroke-linejoin="round" d="M112.71800231933594 465.2460021972656L114.9739990234375 463.9700012207031" stroke="#000000" stroke-width="0.25" g2gstroke="#312783" stroke-miterlimit="10"/>
<path stroke-linecap="round" orgstroke="#000000" orgfill="none" transform="translate(1.6666666666666288, 45.0) translate(5.0, 141.66666666666663) translate(-1.1659935022249215, -6.995961013349529) translate(2.331987004449843, 3.4979805066747645) translate(-6.995961013349529, 0.0) translate(-318.31622610740294, -206.38084989381065) translate(279.8384405339806, 277.50645352953075) translate(-65,-56) translate(-135.7864793701172, -15.95862927246094) translate(284.61321814083357, -34.52408859104787) translate(-23.810883895874042, -7.293701173693989E-6) translate(-637.1092790527343, 18.13041815948486) translate(-8.82777467181677, 73.14441870934016) translate(21.25, 0.0) translate(670.0, -93.75) translate(12.5, 12.50006103515625)" fill="none" stroke-linejoin="round" d="M95.48899841308594 454.8450012207031L97.83499908447266 453.4679870605469" stroke="#000000" stroke-width="0.25" g2gstroke="#312783" stroke-miterlimit="10"/>
<path stroke-linecap="round" orgstroke="#000000" orgfill="none" transform="translate(1.6666666666666288, 45.0) translate(5.0, 141.66666666666663) translate(-1.1659935022249215, -6.995961013349529) translate(2.331987004449843, 3.4979805066747645) translate(-6.995961013349529, 0.0) translate(-318.31622610740294, -206.38084989381065) translate(279.8384405339806, 277.50645352953075) translate(-65,-56) translate(-135.7864793701172, -15.95862927246094) translate(284.61321814083357, -34.52408859104787) translate(-23.810883895874042, -7.293701173693989E-6) translate(-637.1092790527343, 18.13041815948486) translate(-8.82777467181677, 73.14441870934016) translate(21.25, 0.0) translate(670.0, -93.75) translate(12.5, 12.50006103515625)" fill="none" stroke-linejoin="round" d="   M53.106,409.75c-0.881-4.133-1.398-8.266-1.723-11.619c-0.148-1.541-0.318-3.916-0.318-5.295c0-3.691,0.846-11.908,2.275-17.848" stroke="#000000" stroke-width="0.25" g2gstroke="#312783" stroke-miterlimit="10"/>
<path stroke-linecap="round" orgstroke="#000000" orgfill="none" transform="translate(1.6666666666666288, 45.0) translate(5.0, 141.66666666666663) translate(-1.1659935022249215, -6.995961013349529) translate(2.331987004449843, 3.4979805066747645) translate(-6.995961013349529, 0.0) translate(-318.31622610740294, -206.38084989381065) translate(279.8384405339806, 277.50645352953075) translate(-65,-56) translate(-135.7864793701172, -15.95862927246094) translate(284.61321814083357, -34.52408859104787) translate(-23.810883895874042, -7.293701173693989E-6) translate(-637.1092790527343, 18.13041815948486) translate(-8.82777467181677, 73.14441870934016) translate(21.25, 0.0) translate(670.0, -93.75) translate(12.5, 12.50006103515625)" fill="none" stroke-linejoin="round" d="   M97.985,454.343c-0.041-0.73-0.172-2.951-0.172-4.637c0-0.219-0.082-0.377-0.219-0.469c-15.865-10.502-27.813-20.861-35.506-28.646   c-0.148-0.146-0.258-0.176-0.4-0.043" stroke="#000000" stroke-width="0.25" g2gstroke="#312783" stroke-miterlimit="10"/>
<path stroke-linecap="round" orgstroke="#000000" orgfill="none" transform="translate(1.6666666666666288, 45.0) translate(5.0, 141.66666666666663) translate(-1.1659935022249215, -6.995961013349529) translate(2.331987004449843, 3.4979805066747645) translate(-6.995961013349529, 0.0) translate(-318.31622610740294, -206.38084989381065) translate(279.8384405339806, 277.50645352953075) translate(-65,-56) translate(-135.7864793701172, -15.95862927246094) translate(284.61321814083357, -34.52408859104787) translate(-23.810883895874042, -7.293701173693989E-6) translate(-637.1092790527343, 18.13041815948486) translate(-8.82777467181677, 73.14441870934016) translate(21.25, 0.0) translate(670.0, -93.75) translate(12.5, 12.50006103515625)" fill="none" stroke-linejoin="round" d="   M61.243,421.044c-0.23,0.252-0.457,0.492-0.457,0.492c-0.156,0.172-0.301,0.232-0.547-0.01c-0.348-0.342-0.781-0.854-1.104-1.191" stroke="#000000" stroke-width="0.25" g2gstroke="#312783" stroke-miterlimit="10"/>
<path orgstroke="#000000" orgfill="none" transform="translate(1.6666666666666288, 45.0) translate(5.0, 141.66666666666663) translate(-1.1659935022249215, -6.995961013349529) translate(2.331987004449843, 3.4979805066747645) translate(-6.995961013349529, 0.0) translate(-318.31622610740294, -206.38084989381065) translate(279.8384405339806, 277.50645352953075) translate(-65,-56) translate(-135.7864793701172, -15.95862927246094) translate(284.61321814083357, -34.52408859104787) translate(-23.810883895874042, -7.293701173693989E-6) translate(-637.1092790527343, 18.13041815948486) translate(-8.82777467181677, 73.14441870934016) translate(21.25, 0.0) translate(670.0, -93.75) translate(12.5, 12.50006103515625)" fill="none" d="M53.579,375.251l0.576,1.018   c0.166,0.287,0.322,0.307,0.502-0.01c1.256-2.172,6.693-11.602,7.053-12.232c0.406-0.717,1.125-1.217,1.719-1.592   s7.137-4.48,7.137-4.48" stroke="#000000" stroke-width="0.25" g2gstroke="#312783" stroke-miterlimit="10"/>
<path stroke-linecap="round" orgstroke="#000000" orgfill="none" transform="translate(1.6666666666666288, 45.0) translate(5.0, 141.66666666666663) translate(-1.1659935022249215, -6.995961013349529) translate(2.331987004449843, 3.4979805066747645) translate(-6.995961013349529, 0.0) translate(-318.31622610740294, -206.38084989381065) translate(279.8384405339806, 277.50645352953075) translate(-65,-56) translate(-135.7864793701172, -15.95862927246094) translate(284.61321814083357, -34.52408859104787) translate(-23.810883895874042, -7.293701173693989E-6) translate(-637.1092790527343, 18.13041815948486) translate(-8.82777467181677, 73.14441870934016) translate(21.25, 0.0) translate(670.0, -93.75) translate(12.5, 12.50006103515625)" fill="none" stroke-linejoin="round" d="M184.20899963378906 515.3350219726562L176.8520050048828 541.072021484375" stroke="#000000" stroke-width="0.25" g2gstroke="#312783" stroke-miterlimit="10"/>
<path stroke-linecap="round" orgstroke="#000000" orgfill="none" transform="translate(1.6666666666666288, 45.0) translate(5.0, 141.66666666666663) translate(-1.1659935022249215, -6.995961013349529) translate(2.331987004449843, 3.4979805066747645) translate(-6.995961013349529, 0.0) translate(-318.31622610740294, -206.38084989381065) translate(279.8384405339806, 277.50645352953075) translate(-65,-56) translate(-135.7864793701172, -15.95862927246094) translate(284.61321814083357, -34.52408859104787) translate(-23.810883895874042, -7.293701173693989E-6) translate(-637.1092790527343, 18.13041815948486) translate(-8.82777467181677, 73.14441870934016) translate(21.25, 0.0) translate(670.0, -93.75) translate(12.5, 12.50006103515625)" fill="none" stroke-linejoin="round" d="   M178.137,540.119c-0.063,0.268-0.292,0.434-0.37,0.484c-0.112,0.07-0.313,0.184-0.545,0.314c-0.257,0.148-0.617,0.244-0.885,0.207   c-3.452-0.48-6.939-1.033-10.43-1.701c-0.13-0.025-0.261-0.051-0.391-0.074c-1.735-0.371-1.481-1.342-1.063-2.609l7.167-20.664   c0.473-1.145,0.417-1.42,2.151-1.287" stroke="#000000" stroke-width="0.25" g2gstroke="#312783" stroke-miterlimit="10"/>
<path stroke-linecap="round" orgstroke="#000000" orgfill="none" transform="translate(1.6666666666666288, 45.0) translate(5.0, 141.66666666666663) translate(-1.1659935022249215, -6.995961013349529) translate(2.331987004449843, 3.4979805066747645) translate(-6.995961013349529, 0.0) translate(-318.31622610740294, -206.38084989381065) translate(279.8384405339806, 277.50645352953075) translate(-65,-56) translate(-135.7864793701172, -15.95862927246094) translate(284.61321814083357, -34.52408859104787) translate(-23.810883895874042, -7.293701173693989E-6) translate(-637.1092790527343, 18.13041815948486) translate(-8.82777467181677, 73.14441870934016) translate(21.25, 0.0) translate(670.0, -93.75) translate(12.5, 12.50006103515625)" fill="none" stroke-linejoin="round" d="   M185.214,515.365c-3.916-0.109-7.748-0.299-11.251-0.563l-0.191-0.014" stroke="#000000" stroke-width="0.25" g2gstroke="#312783" stroke-miterlimit="10"/>
<ellipse orgstroke="#000000" stroke="#000000" stroke-linecap="round" transform="translate(1.6666666666666288, 45.0) translate(5.0, 141.66666666666663) translate(-1.1659935022249215, -6.995961013349529) translate(2.331987004449843, 3.4979805066747645) translate(-6.995961013349529, 0.0) translate(-318.31622610740294, -206.38084989381065) translate(279.8384405339806, 277.50645352953075) translate(-65,-56) translate(-135.7864793701172, -15.95862927246094) translate(284.61321814083357, -34.52408859104787) translate(-23.810883895874042, -7.293701173693989E-6) translate(-637.1092790527343, 18.13041815948486) translate(-8.82777467181677, 73.14441870934016) translate(21.25, 0.0) translate(670.0, -93.75) translate(12.5, 12.50006103515625)" stroke-miterlimit="10" orgfill="none" fill="none" stroke-width="0.25" stroke-linejoin="round" cx="167.5" rx="0.886" g2gstroke="#312783" cy="536.965" ry="0.938"/>
<ellipse orgstroke="#000000" stroke="#000000" stroke-linecap="round" transform="translate(1.6666666666666288, 45.0) translate(5.0, 141.66666666666663) translate(-1.1659935022249215, -6.995961013349529) translate(2.331987004449843, 3.4979805066747645) translate(-6.995961013349529, 0.0) translate(-318.31622610740294, -206.38084989381065) translate(279.8384405339806, 277.50645352953075) translate(-65,-56) translate(-135.7864793701172, -15.95862927246094) translate(284.61321814083357, -34.52408859104787) translate(-23.810883895874042, -7.293701173693989E-6) translate(-637.1092790527343, 18.13041815948486) translate(-8.82777467181677, 73.14441870934016) translate(21.25, 0.0) translate(670.0, -93.75) translate(12.5, 12.50006103515625)" stroke-miterlimit="10" orgfill="none" fill="none" stroke-width="0.25" stroke-linejoin="round" cx="167.725" rx="0.519" g2gstroke="#312783" cy="536.865" ry="0.549"/>
<ellipse orgstroke="#000000" stroke="#000000" stroke-linecap="round" transform="translate(1.6666666666666288, 45.0) translate(5.0, 141.66666666666663) translate(-1.1659935022249215, -6.995961013349529) translate(2.331987004449843, 3.4979805066747645) translate(-6.995961013349529, 0.0) translate(-318.31622610740294, -206.38084989381065) translate(279.8384405339806, 277.50645352953075) translate(-65,-56) translate(-135.7864793701172, -15.95862927246094) translate(284.61321814083357, -34.52408859104787) translate(-23.810883895874042, -7.293701173693989E-6) translate(-637.1092790527343, 18.13041815948486) translate(-8.82777467181677, 73.14441870934016) translate(21.25, 0.0) translate(670.0, -93.75) translate(12.5, 12.50006103515625)" stroke-miterlimit="10" orgfill="none" fill="none" stroke-width="0.25" stroke-linejoin="round" cx="180.478" rx="0.886" g2gstroke="#312783" cy="517.934" ry="0.938"/>
<ellipse orgstroke="#000000" stroke="#000000" stroke-linecap="round" transform="translate(1.6666666666666288, 45.0) translate(5.0, 141.66666666666663) translate(-1.1659935022249215, -6.995961013349529) translate(2.331987004449843, 3.4979805066747645) translate(-6.995961013349529, 0.0) translate(-318.31622610740294, -206.38084989381065) translate(279.8384405339806, 277.50645352953075) translate(-65,-56) translate(-135.7864793701172, -15.95862927246094) translate(284.61321814083357, -34.52408859104787) translate(-23.810883895874042, -7.293701173693989E-6) translate(-637.1092790527343, 18.13041815948486) translate(-8.82777467181677, 73.14441870934016) translate(21.25, 0.0) translate(670.0, -93.75) translate(12.5, 12.50006103515625)" stroke-miterlimit="10" orgfill="none" fill="none" stroke-width="0.25" stroke-linejoin="round" cx="180.704" rx="0.519" g2gstroke="#312783" cy="517.833" ry="0.549"/>
<path stroke-linecap="round" orgstroke="#000000" orgfill="none" transform="translate(1.6666666666666288, 45.0) translate(5.0, 141.66666666666663) translate(-1.1659935022249215, -6.995961013349529) translate(2.331987004449843, 3.4979805066747645) translate(-6.995961013349529, 0.0) translate(-318.31622610740294, -206.38084989381065) translate(279.8384405339806, 277.50645352953075) translate(-65,-56) translate(-135.7864793701172, -15.95862927246094) translate(284.61321814083357, -34.52408859104787) translate(-23.810883895874042, -7.293701173693989E-6) translate(-637.1092790527343, 18.13041815948486) translate(-8.82777467181677, 73.14441870934016) translate(21.25, 0.0) translate(670.0, -93.75) translate(12.5, 12.50006103515625)" fill="none" stroke-linejoin="round" d="   M40.303,436.74c0.148,9.551,0.955,17.654,2.069,23.117c0.405,1.986,1.805,6.152,2.773,8.133" stroke="#000000" stroke-width="0.25" g2gstroke="#312783" stroke-miterlimit="10"/>
</g>
</g>
</g>
</g>
</g>
</g></svg>