<svg xmlns="http://www.w3.org/2000/svg" xmlns:xlink="http://www.w3.org/1999/xlink" xmlns:x="http://ns.adobe.com/Extensibility/1.0/" xmlns:graph="http://ns.adobe.com/Graphs/1.0/" xmlns:i="http://ns.adobe.com/AdobeIllustrator/10.0/" xmlns:etg="http://www.eurotaxglass.com/etg/evd/" etg:dataTimestamp="1541512339925" contentScriptType="text/ecmascript" zoomAndPan="magnify" contentStyleType="text/css" id="Layer_1" enable-background="new 0 0 1841.891 1595.279" version="1.1" xml:space="preserve" width="1841.891px" preserveAspectRatio="xMidYMid meet" viewBox="0 0 1841.891 1595.279" height="1595.279px" x="0px" y="0px"><g xmlns="http://www.w3.org/2000/svg" objecttype="PS" tooltip="#UNDEFINED" id="104">
<g onmouseover="notifyOwner(AGV_OBJECT_MOUSEOVER, '104(PS)')" transform="translate(-9.433746356535266E-6, 3.356933575560106E-7) translate(-35.71980609130861, -13.200809143066408) translate(44.708733184814434, 94.79042849731445) matrix(0.6117410612267968 0 0 0.6117410612267968 0.2921243287958965 0.477310974878083) translate(-92,-34) " onclick="clickZoom(evt); notifyOwner(AGV_OBJECT_MOUSECLICK, '104(PS)')" onmouseout="notifyOwner(AGV_OBJECT_MOUSEOUT, '104(PS)')" tooltip="#UNDEFINED" id="104-Graphic" objecttype="GRAPHIC">
<g zvalue="105">
<g zvalue="106">
<g zvalue="58">
<g>
<path orgstroke="#000000" orgfill="#ffffff" transform="translate(1.6666666666666288, 45.0) translate(5.0, 141.66666666666663) translate(-1.1659935022249215, -6.995961013349529) translate(2.331987004449843, 3.4979805066747645) translate(-6.995961013349529, 0.0) translate(-318.31622610740294, -206.38084989381065) translate(279.8384405339806, 277.50645352953075) translate(-65,-56) translate(-135.7864793701172, -15.95862927246094) translate(284.61321814083357, -34.52408859104787) translate(-23.810883895874042, -7.293701173693989E-6) translate(-637.1092790527343, 18.13041815948486) translate(14.57942479646465, -35.21068630089587) translate(-8.82777467181677, 73.14441870934016) translate(21.25, 0.0) translate(670.0, -93.75) translate(12.5, 12.50006103515625)" fill="#ffffff" g2gfill="#ECC35D" d="M172.3,554.548   c1.177-0.678,5.715-3.297,6.345-3.662c0.725-0.42,2.548-0.723,3.934-0.805c0.801-0.049,2.441-0.049,3.734-0.049   c0.484,0,0.749,0.096,1.168,0.42l3.926,3.041c0.275,0.16,0.453,0.326,0.656,0.326c0.298,0,0.715,0.127,1.018,0.301l3.717,2.109   l0.201,0.1c1.031,0.557,2.083,1.203,3.033,1.752c0.439,0.254,0.209,0.324-0.105,0.348c-4.129,0.311-8.494,0.656-12.169,0.855   c-6.998,0.377-13.4,0.518-20.064,0.346c-0.376-0.01-0.468-0.041-0.337-0.449l0.915-3.104c0.011-0.049,0.132-0.234,0.385-0.381   c0.253-0.148,1.31-0.748,1.31-0.748c0.273-0.156,0.596-0.217,0.925-0.217c0.251-0.004,0.502-0.01,0.753-0.016   C171.969,554.71,172.063,554.685,172.3,554.548z" stroke="#000000" outline-element="true" stroke-width="0.5" g2gstroke="#312783" stroke-miterlimit="10"/>
<path fill="#0096C8" d="M192.063,553.822c-4.266-0.238-10.381,0.607-15.788,0.773l-1.762,0.053   c-1.213,0.035-2.422,0.063-3.623,0.082c-0.329,0-0.651,0.061-0.925,0.219l-1.59,0.906l-0.066,0.098   c-0.015,0.033-0.027,0.076-0.038,0.125l-0.915,3.102c-0.131,0.408-0.039,0.439,0.337,0.449c6.664,0.174,13.066,0.031,20.064-0.346   c3.675-0.197,8.04-0.545,12.169-0.852c0.314-0.023,0.545-0.094,0.105-0.348c-0.95-0.551-2.002-1.197-3.033-1.752l-0.201-0.104   l-3.717-2.105C192.777,553.947,192.36,553.837,192.063,553.822" transform="translate(1.6666666666666288, 45.0) translate(5.0, 141.66666666666663) translate(-1.1659935022249215, -6.995961013349529) translate(2.331987004449843, 3.4979805066747645) translate(-6.995961013349529, 0.0) translate(-318.31622610740294, -206.38084989381065) translate(279.8384405339806, 277.50645352953075) translate(-65,-56) translate(-135.7864793701172, -15.95862927246094) translate(284.61321814083357, -34.52408859104787) translate(-23.810883895874042, -7.293701173693989E-6) translate(-637.1092790527343, 18.13041815948486) translate(14.57942479646465, -35.21068630089587) translate(-8.82777467181677, 73.14441870934016) translate(21.25, 0.0) translate(670.0, -93.75) translate(12.5, 12.50006103515625)" orgfill="#0096C8"/>
<g>
<path orgfill="#FAFAFA" enable-background="new    " transform="translate(1.6666666666666288, 45.0) translate(5.0, 141.66666666666663) translate(-1.1659935022249215, -6.995961013349529) translate(2.331987004449843, 3.4979805066747645) translate(-6.995961013349529, 0.0) translate(-318.31622610740294, -206.38084989381065) translate(279.8384405339806, 277.50645352953075) translate(-65,-56) translate(-135.7864793701172, -15.95862927246094) translate(284.61321814083357, -34.52408859104787) translate(-23.810883895874042, -7.293701173693989E-6) translate(-637.1092790527343, 18.13041815948486) translate(14.57942479646465, -35.21068630089587) translate(-8.82777467181677, 73.14441870934016) translate(21.25, 0.0) translate(670.0, -93.75) translate(12.5, 12.50006103515625)" fill="#FAFAFA" opacity="0.3" d="M171.643,555.775v0.08l-1.15,3.859v0.061    c-1.51,0-1.27-0.023-2.8-0.064c-0.38-0.01-0.47-0.039-0.34-0.449l0.92-3.1c0.011-0.051,0.021-0.09,0.04-0.121l0.061-0.1l0.01-0.01    l0.1-0.061h0.011c0.069-0.021,0.149-0.021,0.239-0.021C170.272,555.832,170.083,555.814,171.643,555.775z"/>
<path orgfill="#FAFAFA" enable-background="new    " transform="translate(1.6666666666666288, 45.0) translate(5.0, 141.66666666666663) translate(-1.1659935022249215, -6.995961013349529) translate(2.331987004449843, 3.4979805066747645) translate(-6.995961013349529, 0.0) translate(-318.31622610740294, -206.38084989381065) translate(279.8384405339806, 277.50645352953075) translate(-65,-56) translate(-135.7864793701172, -15.95862927246094) translate(284.61321814083357, -34.52408859104787) translate(-23.810883895874042, -7.293701173693989E-6) translate(-637.1092790527343, 18.13041815948486) translate(14.57942479646465, -35.21068630089587) translate(-8.82777467181677, 73.14441870934016) translate(21.25, 0.0) translate(670.0, -93.75) translate(12.5, 12.50006103515625)" fill="#FAFAFA" opacity="0.5" d="M197.003,556.412c1.03,0.559,2.08,1.209,3.03,1.76    c0.439,0.25,0.21,0.32-0.11,0.34c-4.13,0.313-8.49,0.66-12.17,0.859c-5.39,0.291-12.181,0.434-17.261,0.404v-0.061l1.15-3.859    v-0.08c0.37-0.01,2.49-0.023,2.87-0.033l1.76-0.051c5.561-0.17,11.86-1.09,16.141-0.75c1.17,0.09,1.729,0.26,2.17,0.391    c0.649,0.209,1.37,0.529,2.1,0.92l0.11,0.059L197.003,556.412z"/>
</g>
<linearGradient transform="translate(1.6666666666666288, 45.0) translate(5.0, 141.66666666666663) translate(-1.1659935022249215, -6.995961013349529) translate(2.331987004449843, 3.4979805066747645) translate(-6.995961013349529, 0.0) translate(-318.31622610740294, -206.38084989381065) translate(279.8384405339806, 277.50645352953075) translate(-65,-56) translate(-135.7864793701172, -15.95862927246094) translate(284.61321814083357, -34.52408859104787) translate(-23.810883895874042, -7.293701173693989E-6) translate(-637.1092790527343, 18.13041815948486) translate(14.57942479646465, -35.21068630089587) translate(-8.82777467181677, 73.14441870934016) translate(21.25, 0.0) translate(670.0, -93.75) translate(12.5, 12.50006103515625)" gradientTransform="matrix(1 0 0 1 174.375 122.4554)" x1="-13.4038" x2="31.0414" y1="434.8684" gradientUnits="userSpaceOnUse" y2="434.8684" xmlns:xlink="http://www.w3.org/1999/xlink" xlink:type="simple" xlink:actuate="onLoad" id="96::SVGID_26_" xlink:show="other">
<stop stop-opacity="0.18" stop-color="#FFFFFF" offset="0.0848"/>
<stop stop-opacity="0.39" stop-color="#FFFFFF" offset="0.2846"/>
<stop stop-opacity="0.64" stop-color="#FFFFFF" offset="0.4055"/>
<stop stop-opacity="0.21" stop-color="#FFFFFF" offset="0.6061"/>
<stop stop-opacity="0.5101" stop-color="#FFFFFF" offset="0.7147"/>
<stop stop-opacity="0.65" stop-color="#FFFFFF" offset="0.779"/>
<stop stop-opacity="0.16" stop-color="#FFFFFF" offset="0.9302"/>
<stop stop-opacity="0.19" stop-color="#FFFFFF" offset="0.9879"/>
</linearGradient>
<path orgfill="url(#96::SVGID_26_)" enable-background="new    " transform="translate(1.6666666666666288, 45.0) translate(5.0, 141.66666666666663) translate(-1.1659935022249215, -6.995961013349529) translate(2.331987004449843, 3.4979805066747645) translate(-6.995961013349529, 0.0) translate(-318.31622610740294, -206.38084989381065) translate(279.8384405339806, 277.50645352953075) translate(-65,-56) translate(-135.7864793701172, -15.95862927246094) translate(284.61321814083357, -34.52408859104787) translate(-23.810883895874042, -7.293701173693989E-6) translate(-637.1092790527343, 18.13041815948486) translate(14.57942479646465, -35.21068630089587) translate(-8.82777467181677, 73.14441870934016) translate(21.25, 0.0) translate(670.0, -93.75) translate(12.5, 12.50006103515625)" fill="url(#96::SVGID_26_)" opacity="0.6" d="M199.791,558.511   c-4.129,0.311-8.494,0.656-12.169,0.855c-6.998,0.377-13.4,0.518-20.064,0.346c-0.376-0.01-0.468-0.041-0.337-0.449l0.915-3.104   c0.073-0.328,0.243-0.295,0.463-0.314c1.906-0.012,3.837-0.047,5.779-0.104l1.762-0.053c5.555-0.17,11.86-1.094,16.134-0.748   c1.17,0.094,1.739,0.256,2.179,0.393c1.663,0.521,3.721,1.836,5.444,2.832C200.336,558.417,200.105,558.488,199.791,558.511z"/>
<path stroke-linecap="round" orgstroke="#000000" orgfill="none" transform="translate(1.6666666666666288, 45.0) translate(5.0, 141.66666666666663) translate(-1.1659935022249215, -6.995961013349529) translate(2.331987004449843, 3.4979805066747645) translate(-6.995961013349529, 0.0) translate(-318.31622610740294, -206.38084989381065) translate(279.8384405339806, 277.50645352953075) translate(-65,-56) translate(-135.7864793701172, -15.95862927246094) translate(284.61321814083357, -34.52408859104787) translate(-23.810883895874042, -7.293701173693989E-6) translate(-637.1092790527343, 18.13041815948486) translate(14.57942479646465, -35.21068630089587) translate(-8.82777467181677, 73.14441870934016) translate(21.25, 0.0) translate(670.0, -93.75) translate(12.5, 12.50006103515625)" fill="none" stroke-linejoin="round" d="   M168.309,555.951c0.087-0.195,0.238-0.174,0.425-0.188c1.906-0.012,3.837-0.047,5.779-0.105l1.762-0.053   c5.555-0.17,11.86-1.092,16.134-0.748c1.17,0.094,1.739,0.256,2.179,0.393c0.747,0.234,1.572,0.627,2.411,1.08" stroke="#000000" stroke-width="0.25" g2gstroke="#312783" stroke-miterlimit="10"/>
<path stroke-linecap="round" orgstroke="#000000" orgfill="none" transform="translate(1.6666666666666288, 45.0) translate(5.0, 141.66666666666663) translate(-1.1659935022249215, -6.995961013349529) translate(2.331987004449843, 3.4979805066747645) translate(-6.995961013349529, 0.0) translate(-318.31622610740294, -206.38084989381065) translate(279.8384405339806, 277.50645352953075) translate(-65,-56) translate(-135.7864793701172, -15.95862927246094) translate(284.61321814083357, -34.52408859104787) translate(-23.810883895874042, -7.293701173693989E-6) translate(-637.1092790527343, 18.13041815948486) translate(14.57942479646465, -35.21068630089587) translate(-8.82777467181677, 73.14441870934016) translate(21.25, 0.0) translate(670.0, -93.75) translate(12.5, 12.50006103515625)" fill="none" stroke-linejoin="round" d="   M192.191,553.832c-0.045-0.006-0.088-0.01-0.129-0.012c-4.266-0.236-10.381,0.607-15.788,0.775l-1.762,0.053   c-0.96,0.027-1.918,0.051-2.87,0.068" stroke="#000000" stroke-width="0.25" g2gstroke="#312783" stroke-miterlimit="10"/>
<path stroke-linecap="round" orgstroke="#000000" orgfill="none" transform="translate(1.6666666666666288, 45.0) translate(5.0, 141.66666666666663) translate(-1.1659935022249215, -6.995961013349529) translate(2.331987004449843, 3.4979805066747645) translate(-6.995961013349529, 0.0) translate(-318.31622610740294, -206.38084989381065) translate(279.8384405339806, 277.50645352953075) translate(-65,-56) translate(-135.7864793701172, -15.95862927246094) translate(284.61321814083357, -34.52408859104787) translate(-23.810883895874042, -7.293701173693989E-6) translate(-637.1092790527343, 18.13041815948486) translate(14.57942479646465, -35.21068630089587) translate(-8.82777467181677, 73.14441870934016) translate(21.25, 0.0) translate(670.0, -93.75) translate(12.5, 12.50006103515625)" fill="none" stroke-linejoin="round" d="M191.406005859375 553.4940185546875L191.6510009765625 553.6849975585938" stroke="#000000" stroke-width="0.25" g2gstroke="#312783" stroke-miterlimit="10"/>
<path stroke-linecap="round" orgstroke="#000000" orgfill="none" transform="translate(1.6666666666666288, 45.0) translate(5.0, 141.66666666666663) translate(-1.1659935022249215, -6.995961013349529) translate(2.331987004449843, 3.4979805066747645) translate(-6.995961013349529, 0.0) translate(-318.31622610740294, -206.38084989381065) translate(279.8384405339806, 277.50645352953075) translate(-65,-56) translate(-135.7864793701172, -15.95862927246094) translate(284.61321814083357, -34.52408859104787) translate(-23.810883895874042, -7.293701173693989E-6) translate(-637.1092790527343, 18.13041815948486) translate(14.57942479646465, -35.21068630089587) translate(-8.82777467181677, 73.14441870934016) translate(21.25, 0.0) translate(670.0, -93.75) translate(12.5, 12.50006103515625)" fill="none" stroke-linejoin="round" d="   M172.3,554.548c1.177-0.678,5.715-3.297,6.345-3.662c0.725-0.42,2.548-0.723,3.934-0.805c0.801-0.049,2.441-0.049,3.734-0.049   c0.484,0,0.749,0.096,1.168,0.42l3.926,3.041c0.275,0.16,0.453,0.326,0.656,0.326c0.298,0,0.715,0.127,1.018,0.301l3.717,2.109   l0.201,0.1c1.031,0.557,2.083,1.203,3.033,1.752c0.439,0.254,0.209,0.324-0.105,0.348c-4.129,0.311-8.494,0.656-12.169,0.855   c-6.998,0.377-13.4,0.518-20.064,0.346c-0.376-0.01-0.468-0.041-0.337-0.449l0.915-3.104c0.011-0.049,0.132-0.234,0.385-0.381   c0.253-0.148,1.31-0.748,1.31-0.748c0.273-0.156,0.596-0.217,0.925-0.217c0.251-0.004,0.502-0.01,0.753-0.016   C171.969,554.71,172.063,554.685,172.3,554.548z" stroke="#000000" stroke-width="0.25" g2gstroke="#312783" stroke-miterlimit="10"/>
<path orgstroke="#000000" orgfill="none" transform="translate(1.6666666666666288, 45.0) translate(5.0, 141.66666666666663) translate(-1.1659935022249215, -6.995961013349529) translate(2.331987004449843, 3.4979805066747645) translate(-6.995961013349529, 0.0) translate(-318.31622610740294, -206.38084989381065) translate(279.8384405339806, 277.50645352953075) translate(-65,-56) translate(-135.7864793701172, -15.95862927246094) translate(284.61321814083357, -34.52408859104787) translate(-23.810883895874042, -7.293701173693989E-6) translate(-637.1092790527343, 18.13041815948486) translate(14.57942479646465, -35.21068630089587) translate(-8.82777467181677, 73.14441870934016) translate(21.25, 0.0) translate(670.0, -93.75) translate(12.5, 12.50006103515625)" fill="none" d="M176.936,552.964   c0.417-0.184,1.012-0.143,1.329,0.092c0.318,0.232,0.239,0.57-0.179,0.754c-0.417,0.184-1.012,0.145-1.33-0.092   C176.438,553.486,176.52,553.148,176.936,552.964z" stroke="#000000" stroke-width="0.25" g2gstroke="#312783" stroke-miterlimit="10"/>
<path orgstroke="#000000" orgfill="none" transform="translate(1.6666666666666288, 45.0) translate(5.0, 141.66666666666663) translate(-1.1659935022249215, -6.995961013349529) translate(2.331987004449843, 3.4979805066747645) translate(-6.995961013349529, 0.0) translate(-318.31622610740294, -206.38084989381065) translate(279.8384405339806, 277.50645352953075) translate(-65,-56) translate(-135.7864793701172, -15.95862927246094) translate(284.61321814083357, -34.52408859104787) translate(-23.810883895874042, -7.293701173693989E-6) translate(-637.1092790527343, 18.13041815948486) translate(14.57942479646465, -35.21068630089587) translate(-8.82777467181677, 73.14441870934016) translate(21.25, 0.0) translate(670.0, -93.75) translate(12.5, 12.50006103515625)" fill="none" d="M177.103,553.857   c-0.172-0.125-0.128-0.309,0.097-0.408c0.227-0.1,0.548-0.076,0.72,0.051c0.144,0.104,0.139,0.246,0.005,0.35" stroke="#000000" stroke-width="0.25" g2gstroke="#312783" stroke-miterlimit="10"/>
<path orgstroke="#000000" orgfill="none" transform="translate(1.6666666666666288, 45.0) translate(5.0, 141.66666666666663) translate(-1.1659935022249215, -6.995961013349529) translate(2.331987004449843, 3.4979805066747645) translate(-6.995961013349529, 0.0) translate(-318.31622610740294, -206.38084989381065) translate(279.8384405339806, 277.50645352953075) translate(-65,-56) translate(-135.7864793701172, -15.95862927246094) translate(284.61321814083357, -34.52408859104787) translate(-23.810883895874042, -7.293701173693989E-6) translate(-637.1092790527343, 18.13041815948486) translate(14.57942479646465, -35.21068630089587) translate(-8.82777467181677, 73.14441870934016) translate(21.25, 0.0) translate(670.0, -93.75) translate(12.5, 12.50006103515625)" fill="none" d="M185.551,551.123   c0.417-0.184,1.012-0.143,1.329,0.092c0.318,0.232,0.239,0.57-0.179,0.754c-0.417,0.184-1.012,0.145-1.33-0.092   C185.054,551.644,185.135,551.306,185.551,551.123z" stroke="#000000" stroke-width="0.25" g2gstroke="#312783" stroke-miterlimit="10"/>
<path orgstroke="#000000" orgfill="none" transform="translate(1.6666666666666288, 45.0) translate(5.0, 141.66666666666663) translate(-1.1659935022249215, -6.995961013349529) translate(2.331987004449843, 3.4979805066747645) translate(-6.995961013349529, 0.0) translate(-318.31622610740294, -206.38084989381065) translate(279.8384405339806, 277.50645352953075) translate(-65,-56) translate(-135.7864793701172, -15.95862927246094) translate(284.61321814083357, -34.52408859104787) translate(-23.810883895874042, -7.293701173693989E-6) translate(-637.1092790527343, 18.13041815948486) translate(14.57942479646465, -35.21068630089587) translate(-8.82777467181677, 73.14441870934016) translate(21.25, 0.0) translate(670.0, -93.75) translate(12.5, 12.50006103515625)" fill="none" d="M185.718,552.015   c-0.172-0.125-0.128-0.309,0.097-0.406c0.227-0.102,0.548-0.076,0.72,0.051c0.144,0.104,0.139,0.246,0.005,0.35" stroke="#000000" stroke-width="0.25" g2gstroke="#312783" stroke-miterlimit="10"/>
</g>
</g>
</g>
</g>
</g>
</g></svg>