<svg xmlns="http://www.w3.org/2000/svg" xmlns:xlink="http://www.w3.org/1999/xlink" xmlns:x="http://ns.adobe.com/Extensibility/1.0/" xmlns:graph="http://ns.adobe.com/Graphs/1.0/" xmlns:i="http://ns.adobe.com/AdobeIllustrator/10.0/" xmlns:etg="http://www.eurotaxglass.com/etg/evd/" etg:dataTimestamp="1541512339925" contentScriptType="text/ecmascript" zoomAndPan="magnify" contentStyleType="text/css" id="Layer_1" enable-background="new 0 0 1841.891 1595.279" version="1.1" xml:space="preserve" width="1841.891px" preserveAspectRatio="xMidYMid meet" viewBox="0 0 1841.891 1595.279" height="1595.279px" x="0px" y="0px"><g xmlns="http://www.w3.org/2000/svg" objecttype="PS" tooltip="#UNDEFINED" id="113">
<g onmouseover="notifyOwner(AGV_OBJECT_MOUSEOVER, '113(PS)')" transform="translate(-9.433746356535266E-6, 3.356933575560106E-7) translate(-35.71980609130861, -13.200809143066408) translate(44.708733184814434, 94.79042849731445) matrix(0.6117410612267968 0 0 0.6117410612267968 0.2921243287958965 0.477310974878083) translate(-92,-34) " onclick="clickZoom(evt); notifyOwner(AGV_OBJECT_MOUSECLICK, '113(PS)')" onmouseout="notifyOwner(AGV_OBJECT_MOUSEOUT, '113(PS)')" tooltip="#UNDEFINED" id="113-Graphic" objecttype="GRAPHIC">
<g zvalue="114">
<g zvalue="115">
<g zvalue="27">
<g>
<path orgstroke="#000000" orgfill="#ffffff" transform="translate(1.6666666666666288, 45.0) translate(5.0, 141.66666666666663) translate(-1.1659935022249215, -6.995961013349529) translate(2.331987004449843, 3.4979805066747645) translate(-6.995961013349529, 0.0) translate(-318.31622610740294, -206.38084989381065) translate(279.8384405339806, 277.50645352953075) translate(-65,-56) translate(-135.7864793701172, -15.95862927246094) translate(283.77116719958855, 267.7721993159322) translate(-23.810883895874042, -7.293701173693989E-6) translate(-637.1092790527343, 18.13041815948486) translate(-8.82777467181677, 73.14441870934016) translate(21.25, 0.0) translate(670.0, -93.75) translate(12.5, 12.50006103515625)" fill="#ffffff" g2gfill="#ECC35D" d="M156.165,227.293   c2.224-4.939,3.799-9.484,4.263-10.855c0.115-0.342,0.14-0.422,0.451-0.6l0.752-0.436c0.258-0.148,0.415-0.137,0.736-0.063   c2.517,0.58,5.102,0.873,8.202,1.244c3.771,0.451,8.532,0.873,14.868,1.107c0.344,0.012,0.675,0.102,0.98,0.279l1.358,0.793   c0.365,0.178,0.326,0.369,0.268,0.604l-5.615,22.449c0,0-0.067,0.24-0.334,0.232c-2.188-0.072-20.737-0.791-33.084-4.896   c-14.832-4.93-31.408-13.271-48.291-23.053c-15.369-8.908-27.541-16.939-37.57-25.256c-2.904-2.408-6.469-6.191-9.803-10.824   c-2.84-3.945-4.781-8.508-6.732-13.359c-1.81-4.502-3.528-10.051-4.307-14.992c-0.438-2.775-2.812-14.648-3.22-17.426   c-0.051-0.346-0.03-0.371,0.337-0.154l0.903,0.529c0.197,0.113,0.311,0.258,0.368,0.543c0.443,2.174,0.939,4.027,1.512,5.535   c1.558,4.105,3.127,7.223,4.847,9.342c0.258,0.318,0.3,0.51,0.368,0.82l0.594,2.715c0.912,4.463,2.883,13.918,3.863,17.156   c1.691,5.582,6.141,10.291,9.568,13.514c11.811,11.113,20.691,17.25,34.115,25.031c18.758,10.867,34.752,18.1,50.207,23.969   c2.635,1.002,7.545,2.758,10.215-3.559L156.165,227.293z" stroke="#000000" outline-element="true" stroke-width="0.5" g2gstroke="#312783" stroke-miterlimit="10"/>
<path stroke-linecap="round" orgstroke="#000000" orgfill="none" transform="translate(1.6666666666666288, 45.0) translate(5.0, 141.66666666666663) translate(-1.1659935022249215, -6.995961013349529) translate(2.331987004449843, 3.4979805066747645) translate(-6.995961013349529, 0.0) translate(-318.31622610740294, -206.38084989381065) translate(279.8384405339806, 277.50645352953075) translate(-65,-56) translate(-135.7864793701172, -15.95862927246094) translate(283.77116719958855, 267.7721993159322) translate(-23.810883895874042, -7.293701173693989E-6) translate(-637.1092790527343, 18.13041815948486) translate(-8.82777467181677, 73.14441870934016) translate(21.25, 0.0) translate(670.0, -93.75) translate(12.5, 12.50006103515625)" fill="none" stroke-linejoin="round" d="   M187.907,218.936c-7.592-0.195-13.091-0.674-17.338-1.184c-3.783-0.451-6.806-0.762-9.856-1.691" stroke="#000000" stroke-width="0.25" g2gstroke="#312783" stroke-miterlimit="10"/>
<path stroke-linecap="round" orgstroke="#000000" orgfill="none" transform="translate(1.6666666666666288, 45.0) translate(5.0, 141.66666666666663) translate(-1.1659935022249215, -6.995961013349529) translate(2.331987004449843, 3.4979805066747645) translate(-6.995961013349529, 0.0) translate(-318.31622610740294, -206.38084989381065) translate(279.8384405339806, 277.50645352953075) translate(-65,-56) translate(-135.7864793701172, -15.95862927246094) translate(283.77116719958855, 267.7721993159322) translate(-23.810883895874042, -7.293701173693989E-6) translate(-637.1092790527343, 18.13041815948486) translate(-8.82777467181677, 73.14441870934016) translate(21.25, 0.0) translate(670.0, -93.75) translate(12.5, 12.50006103515625)" fill="none" stroke-linejoin="round" d="   M45.884,149.189c0,0,3.045,15.242,4.348,19.539c1.691,5.582,5.938,10.678,9.363,13.9c11.811,11.113,20.693,17.25,34.115,25.031   c18.76,10.867,34.629,18.434,50.207,23.969c6.178,2.195,8.748,3.383,12.156-4.135c0.031-0.066,0.062-0.135,0.092-0.201" stroke="#000000" stroke-width="0.25" g2gstroke="#312783" stroke-miterlimit="10"/>
<path stroke-linecap="round" orgstroke="#000000" orgfill="none" transform="translate(1.6666666666666288, 45.0) translate(5.0, 141.66666666666663) translate(-1.1659935022249215, -6.995961013349529) translate(2.331987004449843, 3.4979805066747645) translate(-6.995961013349529, 0.0) translate(-318.31622610740294, -206.38084989381065) translate(279.8384405339806, 277.50645352953075) translate(-65,-56) translate(-135.7864793701172, -15.95862927246094) translate(283.77116719958855, 267.7721993159322) translate(-23.810883895874042, -7.293701173693989E-6) translate(-637.1092790527343, 18.13041815948486) translate(-8.82777467181677, 73.14441870934016) translate(21.25, 0.0) translate(670.0, -93.75) translate(12.5, 12.50006103515625)" fill="none" stroke-linejoin="round" d="   M47.165,148.443l-0.897,0.541c-0.384,0.205-0.441,0.158-0.676-0.154c-1.629-2.18-3.104-5.346-4.651-9.422   c-0.73-1.924-1.344-4.418-1.864-7.424" stroke="#000000" stroke-width="0.25" g2gstroke="#312783" stroke-miterlimit="10"/>
</g>
</g>
</g>
</g>
</g>
</g></svg>