<svg xmlns="http://www.w3.org/2000/svg" xmlns:xlink="http://www.w3.org/1999/xlink" xmlns:x="http://ns.adobe.com/Extensibility/1.0/" xmlns:graph="http://ns.adobe.com/Graphs/1.0/" xmlns:i="http://ns.adobe.com/AdobeIllustrator/10.0/" xmlns:etg="http://www.eurotaxglass.com/etg/evd/" etg:dataTimestamp="1541512339925" contentScriptType="text/ecmascript" zoomAndPan="magnify" contentStyleType="text/css" id="Layer_1" enable-background="new 0 0 1841.891 1595.279" version="1.1" xml:space="preserve" width="1841.891px" preserveAspectRatio="xMidYMid meet" viewBox="0 0 1841.891 1595.279" height="1595.279px" x="0px" y="0px"><g xmlns="http://www.w3.org/2000/svg" objecttype="PS" tooltip="#UNDEFINED" id="117">
<g onmouseover="notifyOwner(AGV_OBJECT_MOUSEOVER, '117(PS)')" transform="translate(-9.433746356535266E-6, 3.356933575560106E-7) translate(-35.71980609130861, -13.200809143066408) translate(44.708733184814434, 94.79042849731445) matrix(0.6117410612267968 0 0 0.6117410612267968 0.2921243287958965 0.477310974878083) translate(-92,-34) " onclick="clickZoom(evt); notifyOwner(AGV_OBJECT_MOUSECLICK, '117(PS)')" onmouseout="notifyOwner(AGV_OBJECT_MOUSEOUT, '117(PS)')" tooltip="#UNDEFINED" id="117-Graphic" objecttype="GRAPHIC">
<g zvalue="118">
<g zvalue="119">
<g zvalue="33">
<g>
<path orgstroke="#000000" orgfill="#ffffff" transform="translate(1.6666666666666288, 45.0) translate(5.0, 141.66666666666663) translate(-1.1659935022249215, -6.995961013349529) translate(2.331987004449843, 3.4979805066747645) translate(-6.995961013349529, 0.0) translate(-318.31622610740294, -206.38084989381065) translate(279.8384405339806, 277.50645352953075) translate(-65,-56) translate(-135.7864793701172, -15.95862927246094) translate(283.77116719958855, 267.7721993159322) translate(-23.810883895874042, -7.293701173693989E-6) translate(-637.1092790527343, 18.13041815948486) translate(43.90454791652712, -21.810646384339265) translate(-44.215752647413524, 22.213655636260427) translate(-8.82777467181677, 73.14441870934016) translate(21.25, 0.0) translate(670.0, -93.75) translate(12.5, 12.50006103515625)" fill="#ffffff" g2gfill="#ECC35D" d="M50.194,154.971   c1.577,1.465,3.274,2.959,5.079,4.482c0.173,0.145,0.195,0.164,0.43,0.025l0.714-0.418c0.151-0.088,0.178-0.248,0.178-0.42   c0-1.055,0-4.438,0-5.523c0-1.291-0.168-1.832-0.793-2.541c-0.625-0.707-1.875-1.916-3.041-2.791   c-0.583-0.438-0.938-0.387-1.222-0.223c-0.346,0.199-1.077,0.621-1.077,0.621l-0.09,0.076c-0.217,0.225-0.306,0.625-0.306,1.016   c0,0.74,0,4.551,0,5.404C50.066,154.68,50.036,154.822,50.194,154.971z" stroke="#000000" outline-element="true" stroke-width="0.5" g2gstroke="#312783" stroke-miterlimit="10"/>
<path stroke-linecap="round" orgstroke="#000000" orgfill="none" transform="translate(1.6666666666666288, 45.0) translate(5.0, 141.66666666666663) translate(-1.1659935022249215, -6.995961013349529) translate(2.331987004449843, 3.4979805066747645) translate(-6.995961013349529, 0.0) translate(-318.31622610740294, -206.38084989381065) translate(279.8384405339806, 277.50645352953075) translate(-65,-56) translate(-135.7864793701172, -15.95862927246094) translate(283.77116719958855, 267.7721993159322) translate(-23.810883895874042, -7.293701173693989E-6) translate(-637.1092790527343, 18.13041815948486) translate(43.90454791652712, -21.810646384339265) translate(-44.215752647413524, 22.213655636260427) translate(-8.82777467181677, 73.14441870934016) translate(21.25, 0.0) translate(670.0, -93.75) translate(12.5, 12.50006103515625)" fill="none" stroke-linejoin="round" d="   M50.372,148.26c0.243-0.252,0.646-0.279,1.263,0.184c1.166,0.875,2.416,2.084,3.041,2.791c0.625,0.709,0.793,1.25,0.793,2.541   c0,1.293,0,5.709,0,5.709" stroke="#000000" stroke-width="0.25" g2gstroke="#312783" stroke-miterlimit="10"/>
</g>
</g>
</g>
</g>
</g>
</g></svg>