<svg xmlns="http://www.w3.org/2000/svg" xmlns:xlink="http://www.w3.org/1999/xlink" xmlns:x="http://ns.adobe.com/Extensibility/1.0/" xmlns:graph="http://ns.adobe.com/Graphs/1.0/" xmlns:i="http://ns.adobe.com/AdobeIllustrator/10.0/" xmlns:etg="http://www.eurotaxglass.com/etg/evd/" etg:dataTimestamp="1541512339925" contentScriptType="text/ecmascript" zoomAndPan="magnify" contentStyleType="text/css" id="Layer_1" enable-background="new 0 0 1841.891 1595.279" version="1.1" xml:space="preserve" width="1841.891px" preserveAspectRatio="xMidYMid meet" viewBox="0 0 1841.891 1595.279" height="1595.279px" x="0px" y="0px"><g xmlns="http://www.w3.org/2000/svg" objecttype="PS" tooltip="#UNDEFINED" id="129">
<g onmouseover="notifyOwner(AGV_OBJECT_MOUSEOVER, '129(PS)')" transform="translate(-9.433746356535266E-6, 3.356933575560106E-7) translate(-35.71980609130861, -13.200809143066408) translate(44.708733184814434, 94.79042849731445) matrix(0.6117410612267968 0 0 0.6117410612267968 0.2921243287958965 0.477310974878083) translate(-92,-34) " onclick="clickZoom(evt); notifyOwner(AGV_OBJECT_MOUSECLICK, '129(PS)')" onmouseout="notifyOwner(AGV_OBJECT_MOUSEOUT, '129(PS)')" tooltip="#UNDEFINED" id="129-Graphic" objecttype="GRAPHIC">
<g zvalue="130">
<g zvalue="131">
<g zvalue="91">
<g zvalue="49">
<g>
<path orgstroke="#000000" orgfill="#ffffff" transform="translate(1.6666666666666288, 45.0) translate(5.0, 141.66666666666663) translate(-1.1659935022249215, -6.995961013349529) translate(2.331987004449843, 3.4979805066747645) translate(-6.995961013349529, 0.0) translate(-318.31622610740294, -206.38084989381065) translate(279.8384405339806, 277.50645352953075) translate(-65,-56) translate(-135.7864793701172, -15.95862927246094) translate(-125.59226342852446, 221.0097622670788) translate(126.30764118676052, -224.82760131243364) translate(-23.810883895874042, -7.293701173693989E-6) translate(-637.1092790527343, 18.13041815948486) translate(-29.28422451603592, -29.650277322486318) translate(-30.0, -30.0) translate(60,60) matrix(1 0 0 1 694.9222412109375 -4.444992064845394)" fill="#ffffff" g2gfill="#ECC35D" d="M349.609,367.125l0.017-0.02   c0.188-0.152,0.343-0.42,0.398-0.881c0.048-0.395,0.251-1.793,0.515-3.578l8.924-5.15c0.968-0.559,1.563-1.592,1.563-2.709v-8.414   c0-1.145-0.61-2.201-1.601-2.773l2.453-1.342c0.448-0.246,0.727-0.715,0.727-1.225v-7.35h0.007   c0.027-0.365-0.141-0.744-0.503-0.953l6.656-3.859c0.676-0.391,1.093-1.113,1.093-1.895v-8.822l0.001,0.014   c-0.007-0.504-0.265-1.004-0.771-1.279l-14.893-8.1c0.856-4.346,1.822-7.904,2.765-10.236c1.105-2.731,2.07-4.538,1.5-4.872   c-0.201-0.117-0.522-0.016-0.897,0.199c0,0-2.359,1.375-2.36,1.373c-0.717,0.314-1.721,1.234-2.354,1.971   c-1.506,1.749-11.709,16.388-13.375,22.304c-1.666,5.918-3.188,13.426-3.063,17.594c0.123,4.119,0.924,21.465,6.682,30.93   c0.162,0.266,0.465,0.41,0.93,0.475c0.73,0.102,2.09,0.283,2.385,0.283c0.163,0,0.349-0.025,0.517-0.127L349.609,367.125z" stroke="#000000" outline-element="true" stroke-width="0.5" g2gstroke="#312783" stroke-miterlimit="10"/>
<path fill="#0096C8" d="M349.531,352.812c0.027,0.234,0.025,0.469-0.01,0.699c-0.317,2.102-1.964,13-2.111,14.229   c-0.111,0.924-0.617,1.066-1.004,1.066c-0.295,0-1.654-0.182-2.385-0.281c-0.465-0.064-0.768-0.209-0.93-0.477   c-5.758-9.465-6.559-26.811-6.682-30.93c-0.125-4.168,1.396-11.676,3.063-17.594c1.666-5.916,11.869-20.553,13.375-22.303   c0.867-1.008,2.43-2.361,2.998-2.029c0.57,0.334-0.395,2.141-1.5,4.873C350.93,308.515,347.204,333.089,349.531,352.812z" transform="translate(1.6666666666666288, 45.0) translate(5.0, 141.66666666666663) translate(-1.1659935022249215, -6.995961013349529) translate(2.331987004449843, 3.4979805066747645) translate(-6.995961013349529, 0.0) translate(-318.31622610740294, -206.38084989381065) translate(279.8384405339806, 277.50645352953075) translate(-65,-56) translate(-135.7864793701172, -15.95862927246094) translate(-125.59226342852446, 221.0097622670788) translate(126.30764118676052, -224.82760131243364) translate(-23.810883895874042, -7.293701173693989E-6) translate(-637.1092790527343, 18.13041815948486) translate(-29.28422451603592, -29.650277322486318) translate(-30.0, -30.0) translate(60,60) matrix(1 0 0 1 694.9222412109375 -4.444992064845394)" orgfill="#0096C8"/>
<g>
<linearGradient transform="translate(1.6666666666666288, 45.0) translate(5.0, 141.66666666666663) translate(-1.1659935022249215, -6.995961013349529) translate(2.331987004449843, 3.4979805066747645) translate(-6.995961013349529, 0.0) translate(-318.31622610740294, -206.38084989381065) translate(279.8384405339806, 277.50645352953075) translate(-65,-56) translate(-135.7864793701172, -15.95862927246094) translate(-125.59226342852446, 221.0097622670788) translate(126.30764118676052, -224.82760131243364) translate(-23.810883895874042, -7.293701173693989E-6) translate(-637.1092790527343, 18.13041815948486) translate(-29.28422451603592, -29.650277322486318) translate(-30.0, -30.0) translate(60,60)" gradientTransform="matrix(1 0 0 1 174.375 122.4554)" x1="162.0263" x2="181.6414" y1="209.5217" gradientUnits="userSpaceOnUse" y2="209.5217" xmlns:xlink="http://www.w3.org/1999/xlink" xlink:type="simple" xlink:actuate="onLoad" id="121::SVGID_16_" xlink:show="other">
<stop stop-opacity="0.4" stop-color="#FFFFFF" offset="0.0053"/>
<stop stop-opacity="0.4" stop-color="#FFFFFF" offset="1"/>
</linearGradient>
<path fill="url(#121::SVGID_16_)" d="M355.848,295.191c-0.15-0.09-0.381-0.051-0.65,0.061c-0.71,0.32-1.72,1.24-2.35,1.969    c-1.5,1.749-11.711,16.392-13.37,22.302c-1.67,5.92-3.19,13.43-3.07,17.6c0.13,4.121,0.931,21.461,6.69,30.93    c0.16,0.26,0.46,0.41,0.92,0.471c0.74,0.1,2.09,0.289,2.39,0.289c0.16,0,0.351-0.029,0.521-0.129    c0.22-0.141,0.42-0.41,0.479-0.939c0.08-0.621,0.53-3.65,1-6.801c0.04-0.291,0.091-0.57,0.13-0.859    c0.42-2.852,0.84-5.621,0.98-6.57c0.04-0.229,0.04-0.461,0.02-0.699c-0.189-1.602-0.34-3.238-0.459-4.891    c-0.021-0.43-0.051-0.859-0.08-1.291v-0.01c-0.08-1.471-0.131-2.959-0.16-4.449c-0.021-0.979-0.03-1.951-0.03-2.93    c0-2.73,0.09-5.471,0.239-8.16c0.09-1.711,0.221-3.41,0.36-5.07c0.08-0.871,0.16-1.721,0.25-2.568    c0.32-3.189,0.729-6.25,1.19-9.07c0.05-0.289,0.1-0.58,0.14-0.859c0.22-1.301,0.46-2.551,0.7-3.74    c0.83-4.109,1.75-7.471,2.66-9.711C355.447,297.332,356.418,295.531,355.848,295.191z M353.037,299.531    c-1.05,2.59-2.09,6.48-2.99,11.189c-0.149,0.771-0.299,1.57-0.43,2.381c-0.06,0.279-0.1,0.561-0.14,0.84    c-0.45,2.65-0.841,5.5-1.149,8.471c-0.041,0.359-0.08,0.719-0.111,1.08c-0.06,0.488-0.109,0.979-0.149,1.469    c0,0.041-0.01,0.09-0.01,0.141c-0.21,2.23-0.37,4.521-0.479,6.83c-0.08,1.563-0.131,3.143-0.16,4.721    c-0.011,0.488-0.021,0.988-0.021,1.488c-0.021,1.25-0.011,2.49,0.01,3.73c0.021,1.189,0.06,2.371,0.12,3.541    c0.01,0.369,0.03,0.738,0.051,1.1c0.079,1.449,0.18,2.891,0.319,4.299c0.069,0.73,0.14,1.451,0.229,2.172    c0.01,0.061,0.01,0.119,0.01,0.182c-0.01,0.049-0.01,0.1-0.02,0.139c-0.23,1.5-0.57,3.791-0.92,6.111    c-0.05,0.299-0.09,0.6-0.14,0.896c-0.46,3.111-0.9,6.07-1.03,7.041c-0.37-0.041-0.98-0.119-1.811-0.229    c-0.01,0-0.02-0.01-0.029-0.01c-5.33-8.98-6.221-25.24-6.359-30.029c-0.121-4.051,1.42-11.541,3.01-17.17    c0.289-1.041,0.879-2.393,1.66-3.934h0.01c2.939-5.777,8.57-14.059,10.74-16.969C353.178,299.181,353.107,299.351,353.037,299.531    z" transform="translate(1.6666666666666288, 45.0) translate(5.0, 141.66666666666663) translate(-1.1659935022249215, -6.995961013349529) translate(2.331987004449843, 3.4979805066747645) translate(-6.995961013349529, 0.0) translate(-318.31622610740294, -206.38084989381065) translate(279.8384405339806, 277.50645352953075) translate(-65,-56) translate(-135.7864793701172, -15.95862927246094) translate(-125.59226342852446, 221.0097622670788) translate(126.30764118676052, -224.82760131243364) translate(-23.810883895874042, -7.293701173693989E-6) translate(-637.1092790527343, 18.13041815948486) translate(-29.28422451603592, -29.650277322486318) translate(-30.0, -30.0) translate(60,60) matrix(1 0 0 1 694.9222412109375 -4.444992064845394)" orgfill="url(#121::SVGID_16_)"/>
<path orgfill="#464646" enable-background="new    " transform="translate(1.6666666666666288, 45.0) translate(5.0, 141.66666666666663) translate(-1.1659935022249215, -6.995961013349529) translate(2.331987004449843, 3.4979805066747645) translate(-6.995961013349529, 0.0) translate(-318.31622610740294, -206.38084989381065) translate(279.8384405339806, 277.50645352953075) translate(-65,-56) translate(-135.7864793701172, -15.95862927246094) translate(-125.59226342852446, 221.0097622670788) translate(126.30764118676052, -224.82760131243364) translate(-23.810883895874042, -7.293701173693989E-6) translate(-637.1092790527343, 18.13041815948486) translate(-29.28422451603592, -29.650277322486318) translate(-30.0, -30.0) translate(60,60) matrix(1 0 0 1 694.9222412109375 -4.444992064845394)" fill="#464646" opacity="0.6" d="M351.688,309.771c-0.24,1.189-0.48,2.439-0.7,3.74    c-0.47-0.18-0.93-0.32-1.37-0.41c-1.63-0.371-3.07-0.24-4.26,0.32l4.689-2.701L351.688,309.771z"/>
<path orgfill="#BCBEC0" enable-background="new    " transform="translate(1.6666666666666288, 45.0) translate(5.0, 141.66666666666663) translate(-1.1659935022249215, -6.995961013349529) translate(2.331987004449843, 3.4979805066747645) translate(-6.995961013349529, 0.0) translate(-318.31622610740294, -206.38084989381065) translate(279.8384405339806, 277.50645352953075) translate(-65,-56) translate(-135.7864793701172, -15.95862927246094) translate(-125.59226342852446, 221.0097622670788) translate(126.30764118676052, -224.82760131243364) translate(-23.810883895874042, -7.293701173693989E-6) translate(-637.1092790527343, 18.13041815948486) translate(-29.28422451603592, -29.650277322486318) translate(-30.0, -30.0) translate(60,60) matrix(1 0 0 1 694.9222412109375 -4.444992064845394)" fill="#BCBEC0" opacity="0.8" d="M350.987,313.511c-0.04,0.279-0.09,0.57-0.14,0.859    c-0.471-0.18-0.92-0.33-1.37-0.43c-0.56-0.131-1.11-0.199-1.63-0.199c-1.49,0-2.711,0.539-3.62,1.59    c-1.399,1.609-1.931,4.299-1.47,7.568c0.47,3.281,1.84,6.682,3.74,9.65l-0.73,0.42l-0.01-0.02c-1.961-3.063-3.36-6.551-3.84-9.932    c-0.4-2.828-0.09-5.197,0.789-6.93c0.471-0.951,1.121-1.711,1.91-2.24l0.721-0.42l0.02-0.01c1.189-0.561,2.63-0.691,4.26-0.32    C350.058,313.191,350.518,313.332,350.987,313.511z"/>
<radialGradient transform="translate(1.6666666666666288, 45.0) translate(5.0, 141.66666666666663) translate(-1.1659935022249215, -6.995961013349529) translate(2.331987004449843, 3.4979805066747645) translate(-6.995961013349529, 0.0) translate(-318.31622610740294, -206.38084989381065) translate(279.8384405339806, 277.50645352953075) translate(-65,-56) translate(-135.7864793701172, -15.95862927246094) translate(-125.59226342852446, 221.0097622670788) translate(126.30764118676052, -224.82760131243364) translate(-23.810883895874042, -7.293701173693989E-6) translate(-637.1092790527343, 18.13041815948486) translate(-29.28422451603592, -29.650277322486318) translate(-30.0, -30.0) translate(60,60)" gradientTransform="matrix(0.9756 -0.2197 0.405 1.7985 96.9392 -0.3864)" gradientUnits="userSpaceOnUse" xmlns:xlink="http://www.w3.org/1999/xlink" xlink:type="simple" r="7.2613" cx="174.0869" xlink:actuate="onLoad" cy="201.9397" id="121::SVGID_17_" xlink:show="other">
<stop stop-opacity="0.5" stop-color="#FFFFFF" offset="0"/>
<stop stop-opacity="0.1" stop-color="#FFFFFF" offset="1"/>
</radialGradient>
<path fill="url(#121::SVGID_17_)" d="M347.418,323.64c0.069,0.512,0.31,1.041,0.64,1.461c0.28,0.381,0.63,0.682,0.989,0.82    c0.131,0.049,0.25,0.08,0.36,0.09c-0.14,1.66-0.271,3.359-0.36,5.07l-1.469,0.85l-1.08,0.619c-1.9-2.969-3.271-6.369-3.74-9.648    c-0.461-3.271,0.07-5.959,1.47-7.568c0.909-1.051,2.13-1.59,3.62-1.59c0.52,0,1.07,0.066,1.63,0.199    c0.45,0.1,0.899,0.25,1.37,0.43c-0.461,2.82-0.87,5.881-1.19,9.07c-0.29-0.439-0.69-0.803-1.09-0.961    c-0.08-0.029-0.16-0.061-0.239-0.068C347.697,322.291,347.297,322.791,347.418,323.64z" transform="translate(1.6666666666666288, 45.0) translate(5.0, 141.66666666666663) translate(-1.1659935022249215, -6.995961013349529) translate(2.331987004449843, 3.4979805066747645) translate(-6.995961013349529, 0.0) translate(-318.31622610740294, -206.38084989381065) translate(279.8384405339806, 277.50645352953075) translate(-65,-56) translate(-135.7864793701172, -15.95862927246094) translate(-125.59226342852446, 221.0097622670788) translate(126.30764118676052, -224.82760131243364) translate(-23.810883895874042, -7.293701173693989E-6) translate(-637.1092790527343, 18.13041815948486) translate(-29.28422451603592, -29.650277322486318) translate(-30.0, -30.0) translate(60,60) matrix(1 0 0 1 694.9222412109375 -4.444992064845394)" orgfill="url(#121::SVGID_17_)"/>
<linearGradient transform="translate(1.6666666666666288, 45.0) translate(5.0, 141.66666666666663) translate(-1.1659935022249215, -6.995961013349529) translate(2.331987004449843, 3.4979805066747645) translate(-6.995961013349529, 0.0) translate(-318.31622610740294, -206.38084989381065) translate(279.8384405339806, 277.50645352953075) translate(-65,-56) translate(-135.7864793701172, -15.95862927246094) translate(-125.59226342852446, 221.0097622670788) translate(126.30764118676052, -224.82760131243364) translate(-23.810883895874042, -7.293701173693989E-6) translate(-637.1092790527343, 18.13041815948486) translate(-29.28422451603592, -29.650277322486318) translate(-30.0, -30.0) translate(60,60)" gradientTransform="matrix(1 0 0 1 174.375 122.4554)" x1="173.0214" x2="175.282" y1="201.7477" gradientUnits="userSpaceOnUse" y2="201.7477" xmlns:xlink="http://www.w3.org/1999/xlink" xlink:type="simple" xlink:actuate="onLoad" id="121::SVGID_18_" xlink:show="other">
<stop stop-opacity="0.4" stop-color="#FFFFFF" offset="0.0053"/>
<stop stop-opacity="0.4" stop-color="#FFFFFF" offset="1"/>
</linearGradient>
<path fill="url(#121::SVGID_18_)" d="M348.567,322.48c-0.08-0.029-0.16-0.059-0.239-0.068c-0.631-0.121-1.031,0.379-0.91,1.229    c0.069,0.512,0.31,1.041,0.64,1.461c0.28,0.381,0.63,0.682,0.989,0.82c0.131,0.049,0.25,0.08,0.36,0.09    c0.08-0.871,0.16-1.721,0.25-2.568C349.367,323.001,348.967,322.64,348.567,322.48z M348.668,325.47    c-0.221-0.09-0.431-0.277-0.601-0.51c-0.17-0.23-0.29-0.51-0.33-0.779c-0.06-0.461,0.149-0.729,0.479-0.688    c0.051,0,0.111,0.02,0.17,0.039c0.441,0.18,0.852,0.75,0.921,1.291C349.387,325.351,349.098,325.64,348.668,325.47z" transform="translate(1.6666666666666288, 45.0) translate(5.0, 141.66666666666663) translate(-1.1659935022249215, -6.995961013349529) translate(2.331987004449843, 3.4979805066747645) translate(-6.995961013349529, 0.0) translate(-318.31622610740294, -206.38084989381065) translate(279.8384405339806, 277.50645352953075) translate(-65,-56) translate(-135.7864793701172, -15.95862927246094) translate(-125.59226342852446, 221.0097622670788) translate(126.30764118676052, -224.82760131243364) translate(-23.810883895874042, -7.293701173693989E-6) translate(-637.1092790527343, 18.13041815948486) translate(-29.28422451603592, -29.650277322486318) translate(-30.0, -30.0) translate(60,60) matrix(1 0 0 1 694.9222412109375 -4.444992064845394)" orgfill="url(#121::SVGID_18_)"/>
<linearGradient transform="translate(1.6666666666666288, 45.0) translate(5.0, 141.66666666666663) translate(-1.1659935022249215, -6.995961013349529) translate(2.331987004449843, 3.4979805066747645) translate(-6.995961013349529, 0.0) translate(-318.31622610740294, -206.38084989381065) translate(279.8384405339806, 277.50645352953075) translate(-65,-56) translate(-135.7864793701172, -15.95862927246094) translate(-125.59226342852446, 221.0097622670788) translate(126.30764118676052, -224.82760131243364) translate(-23.810883895874042, -7.293701173693989E-6) translate(-637.1092790527343, 18.13041815948486) translate(-29.28422451603592, -29.650277322486318) translate(-30.0, -30.0) translate(60,60)" gradientTransform="matrix(1 0 0 1 174.375 122.4554)" x1="173.3517" x2="174.946" y1="202.0479" gradientUnits="userSpaceOnUse" y2="202.0479" xmlns:xlink="http://www.w3.org/1999/xlink" xlink:type="simple" xlink:actuate="onLoad" id="121::SVGID_19_" xlink:show="other">
<stop stop-opacity="0.6" stop-color="#FFFFFF" offset="0.0053"/>
<stop stop-opacity="0.6" stop-color="#FFFFFF" offset="1"/>
</linearGradient>
<path fill="url(#121::SVGID_19_)" d="M349.308,324.822c0.079,0.529-0.21,0.818-0.64,0.648c-0.221-0.09-0.431-0.279-0.601-0.51    c-0.17-0.232-0.29-0.51-0.33-0.779c-0.06-0.461,0.149-0.73,0.479-0.689c0.051,0,0.111,0.02,0.17,0.039    C348.828,323.71,349.237,324.281,349.308,324.822z" transform="translate(1.6666666666666288, 45.0) translate(5.0, 141.66666666666663) translate(-1.1659935022249215, -6.995961013349529) translate(2.331987004449843, 3.4979805066747645) translate(-6.995961013349529, 0.0) translate(-318.31622610740294, -206.38084989381065) translate(279.8384405339806, 277.50645352953075) translate(-65,-56) translate(-135.7864793701172, -15.95862927246094) translate(-125.59226342852446, 221.0097622670788) translate(126.30764118676052, -224.82760131243364) translate(-23.810883895874042, -7.293701173693989E-6) translate(-637.1092790527343, 18.13041815948486) translate(-29.28422451603592, -29.650277322486318) translate(-30.0, -30.0) translate(60,60) matrix(1 0 0 1 694.9222412109375 -4.444992064845394)" orgfill="url(#121::SVGID_19_)"/>
<linearGradient transform="translate(1.6666666666666288, 45.0) translate(5.0, 141.66666666666663) translate(-1.1659935022249215, -6.995961013349529) translate(2.331987004449843, 3.4979805066747645) translate(-6.995961013349529, 0.0) translate(-318.31622610740294, -206.38084989381065) translate(279.8384405339806, 277.50645352953075) translate(-65,-56) translate(-135.7864793701172, -15.95862927246094) translate(-125.59226342852446, 221.0097622670788) translate(126.30764118676052, -224.82760131243364) translate(-23.810883895874042, -7.293701173693989E-6) translate(-637.1092790527343, 18.13041815948486) translate(-29.28422451603592, -29.650277322486318) translate(-30.0, -30.0) translate(60,60)" gradientTransform="matrix(1 0 0 1 174.375 122.4554)" x1="171.2218" x2="174.044" y1="229.0667" gradientUnits="userSpaceOnUse" y2="229.0667" xmlns:xlink="http://www.w3.org/1999/xlink" xlink:type="simple" xlink:actuate="onLoad" id="121::SVGID_20_" xlink:show="other">
<stop stop-opacity="0.4" stop-color="#FFFFFF" offset="0.0053"/>
<stop stop-opacity="0.4" stop-color="#FFFFFF" offset="1"/>
</linearGradient>
<path fill="url(#121::SVGID_20_)" d="M348.397,352.082c-0.06-0.432-0.24-0.881-0.5-1.271c-0.31-0.459-0.71-0.84-1.13-1.01    c-0.77-0.309-1.28,0.211-1.15,1.16c0.131,0.939,0.86,1.971,1.631,2.281c0.369,0.148,0.68,0.109,0.889-0.08    C348.367,352.951,348.467,352.572,348.397,352.082z M346.867,352.781c-0.439-0.17-0.85-0.75-0.92-1.279    c-0.08-0.541,0.21-0.83,0.641-0.65c0.439,0.172,0.85,0.75,0.92,1.279C347.588,352.671,347.297,352.96,346.867,352.781z" transform="translate(1.6666666666666288, 45.0) translate(5.0, 141.66666666666663) translate(-1.1659935022249215, -6.995961013349529) translate(2.331987004449843, 3.4979805066747645) translate(-6.995961013349529, 0.0) translate(-318.31622610740294, -206.38084989381065) translate(279.8384405339806, 277.50645352953075) translate(-65,-56) translate(-135.7864793701172, -15.95862927246094) translate(-125.59226342852446, 221.0097622670788) translate(126.30764118676052, -224.82760131243364) translate(-23.810883895874042, -7.293701173693989E-6) translate(-637.1092790527343, 18.13041815948486) translate(-29.28422451603592, -29.650277322486318) translate(-30.0, -30.0) translate(60,60) matrix(1 0 0 1 694.9222412109375 -4.444992064845394)" orgfill="url(#121::SVGID_20_)"/>
<radialGradient transform="translate(1.6666666666666288, 45.0) translate(5.0, 141.66666666666663) translate(-1.1659935022249215, -6.995961013349529) translate(2.331987004449843, 3.4979805066747645) translate(-6.995961013349529, 0.0) translate(-318.31622610740294, -206.38084989381065) translate(279.8384405339806, 277.50645352953075) translate(-65,-56) translate(-135.7864793701172, -15.95862927246094) translate(-125.59226342852446, 221.0097622670788) translate(126.30764118676052, -224.82760131243364) translate(-23.810883895874042, -7.293701173693989E-6) translate(-637.1092790527343, 18.13041815948486) translate(-29.28422451603592, -29.650277322486318) translate(-30.0, -30.0) translate(60,60)" gradientTransform="matrix(0.9756 -0.2197 0.405 1.7985 85.7927 -22.6266)" gradientUnits="userSpaceOnUse" xmlns:xlink="http://www.w3.org/1999/xlink" xlink:type="simple" r="6.0154" cx="172.5469" xlink:actuate="onLoad" cy="229.3694" id="121::SVGID_21_" xlink:show="other">
<stop stop-opacity="0.5" stop-color="#FFFFFF" offset="0"/>
<stop stop-opacity="0.1" stop-color="#FFFFFF" offset="1"/>
</radialGradient>
<path fill="url(#121::SVGID_21_)" d="M349.537,352.81c-0.189-1.6-0.34-3.236-0.459-4.889c-0.471-0.531-0.98-1.01-1.5-1.41    c-0.691-0.561-1.4-1-2.131-1.291c-0.6-0.238-1.17-0.357-1.689-0.357c-0.771,0-1.391,0.27-1.86,0.801    c-0.761,0.869-1.03,2.35-0.78,4.17c0.53,3.74,3.131,7.74,6.08,9.58c0.391,0.25,0.79,0.459,1.188,0.619    c0.051,0.02,0.091,0.041,0.141,0.051h0.01c0.42-2.852,0.84-5.621,0.98-6.57C349.558,353.281,349.558,353.05,349.537,352.81z     M348.137,353.162c-0.209,0.189-0.52,0.229-0.889,0.08c-0.771-0.311-1.5-1.342-1.631-2.281c-0.13-0.949,0.381-1.469,1.15-1.16    c0.42,0.17,0.82,0.551,1.13,1.01c0.26,0.393,0.44,0.842,0.5,1.271C348.467,352.572,348.367,352.951,348.137,353.162z" transform="translate(1.6666666666666288, 45.0) translate(5.0, 141.66666666666663) translate(-1.1659935022249215, -6.995961013349529) translate(2.331987004449843, 3.4979805066747645) translate(-6.995961013349529, 0.0) translate(-318.31622610740294, -206.38084989381065) translate(279.8384405339806, 277.50645352953075) translate(-65,-56) translate(-135.7864793701172, -15.95862927246094) translate(-125.59226342852446, 221.0097622670788) translate(126.30764118676052, -224.82760131243364) translate(-23.810883895874042, -7.293701173693989E-6) translate(-637.1092790527343, 18.13041815948486) translate(-29.28422451603592, -29.650277322486318) translate(-30.0, -30.0) translate(60,60) matrix(1 0 0 1 694.9222412109375 -4.444992064845394)" orgfill="url(#121::SVGID_21_)"/>
<path orgfill="#464646" enable-background="new    " transform="translate(1.6666666666666288, 45.0) translate(5.0, 141.66666666666663) translate(-1.1659935022249215, -6.995961013349529) translate(2.331987004449843, 3.4979805066747645) translate(-6.995961013349529, 0.0) translate(-318.31622610740294, -206.38084989381065) translate(279.8384405339806, 277.50645352953075) translate(-65,-56) translate(-135.7864793701172, -15.95862927246094) translate(-125.59226342852446, 221.0097622670788) translate(126.30764118676052, -224.82760131243364) translate(-23.810883895874042, -7.293701173693989E-6) translate(-637.1092790527343, 18.13041815948486) translate(-29.28422451603592, -29.650277322486318) translate(-30.0, -30.0) translate(60,60) matrix(1 0 0 1 694.9222412109375 -4.444992064845394)" fill="#464646" opacity="0.6" d="M349.047,331.082c-0.149,2.689-0.239,5.43-0.239,8.16    c-0.31-0.92-0.79-1.82-1.39-2.592c-0.721-0.939-1.601-1.68-2.5-2.049c-0.73-0.291-1.371-0.301-1.86-0.061l2.71-1.57l0.73-0.42    l1.08-0.619L349.047,331.082z"/>
<path orgfill="#BCBEC0" enable-background="new    " transform="translate(1.6666666666666288, 45.0) translate(5.0, 141.66666666666663) translate(-1.1659935022249215, -6.995961013349529) translate(2.331987004449843, 3.4979805066747645) translate(-6.995961013349529, 0.0) translate(-318.31622610740294, -206.38084989381065) translate(279.8384405339806, 277.50645352953075) translate(-65,-56) translate(-135.7864793701172, -15.95862927246094) translate(-125.59226342852446, 221.0097622670788) translate(126.30764118676052, -224.82760131243364) translate(-23.810883895874042, -7.293701173693989E-6) translate(-637.1092790527343, 18.13041815948486) translate(-29.28422451603592, -29.650277322486318) translate(-30.0, -30.0) translate(60,60) matrix(1 0 0 1 694.9222412109375 -4.444992064845394)" fill="#BCBEC0" opacity="0.8" d="M348.527,360.082h0.01c-0.039,0.289-0.09,0.568-0.13,0.859    c-0.11-0.029-0.22-0.07-0.329-0.119c-0.341-0.141-0.691-0.311-1.021-0.512c-3.28-1.879-6.2-6.26-6.78-10.369    c-0.37-2.619,0.311-4.551,1.65-5.42l0.09-0.051c0.96-0.59,2.26-0.639,3.75-0.029c0.59,0.24,1.189,0.57,1.76,0.971    c0.51,0.35,1,0.76,1.471,1.209v0.01c0.029,0.432,0.06,0.861,0.08,1.291c-0.471-0.531-0.98-1.01-1.5-1.41    c-0.691-0.561-1.4-1-2.131-1.291c-0.6-0.238-1.17-0.357-1.689-0.357c-0.771,0-1.391,0.27-1.86,0.801    c-0.761,0.869-1.03,2.35-0.78,4.17c0.53,3.74,3.131,7.74,6.08,9.58c0.391,0.25,0.79,0.459,1.188,0.619    C348.438,360.05,348.478,360.072,348.527,360.082z"/>
<linearGradient transform="translate(1.6666666666666288, 45.0) translate(5.0, 141.66666666666663) translate(-1.1659935022249215, -6.995961013349529) translate(2.331987004449843, 3.4979805066747645) translate(-6.995961013349529, 0.0) translate(-318.31622610740294, -206.38084989381065) translate(279.8384405339806, 277.50645352953075) translate(-65,-56) translate(-135.7864793701172, -15.95862927246094) translate(-125.59226342852446, 221.0097622670788) translate(126.30764118676052, -224.82760131243364) translate(-23.810883895874042, -7.293701173693989E-6) translate(-637.1092790527343, 18.13041815948486) translate(-29.28422451603592, -29.650277322486318) translate(-30.0, -30.0) translate(60,60)" gradientTransform="matrix(1 0 0 1 174.375 122.4554)" x1="171.5587" x2="173.1462" y1="229.3601" gradientUnits="userSpaceOnUse" y2="229.3601" xmlns:xlink="http://www.w3.org/1999/xlink" xlink:type="simple" xlink:actuate="onLoad" id="121::SVGID_22_" xlink:show="other">
<stop stop-opacity="0.6" stop-color="#FFFFFF" offset="0.0053"/>
<stop stop-opacity="0.6" stop-color="#FFFFFF" offset="1"/>
</linearGradient>
<path fill="url(#121::SVGID_22_)" d="M347.508,352.13c0.08,0.541-0.211,0.83-0.641,0.65c-0.439-0.17-0.85-0.75-0.92-1.279    c-0.08-0.541,0.211-0.83,0.641-0.65C347.027,351.021,347.438,351.601,347.508,352.13z" transform="translate(1.6666666666666288, 45.0) translate(5.0, 141.66666666666663) translate(-1.1659935022249215, -6.995961013349529) translate(2.331987004449843, 3.4979805066747645) translate(-6.995961013349529, 0.0) translate(-318.31622610740294, -206.38084989381065) translate(279.8384405339806, 277.50645352953075) translate(-65,-56) translate(-135.7864793701172, -15.95862927246094) translate(-125.59226342852446, 221.0097622670788) translate(126.30764118676052, -224.82760131243364) translate(-23.810883895874042, -7.293701173693989E-6) translate(-637.1092790527343, 18.13041815948486) translate(-29.28422451603592, -29.650277322486318) translate(-30.0, -30.0) translate(60,60) matrix(1 0 0 1 694.9222412109375 -4.444992064845394)" orgfill="url(#121::SVGID_22_)"/>
<path orgfill="#464646" enable-background="new    " transform="translate(1.6666666666666288, 45.0) translate(5.0, 141.66666666666663) translate(-1.1659935022249215, -6.995961013349529) translate(2.331987004449843, 3.4979805066747645) translate(-6.995961013349529, 0.0) translate(-318.31622610740294, -206.38084989381065) translate(279.8384405339806, 277.50645352953075) translate(-65,-56) translate(-135.7864793701172, -15.95862927246094) translate(-125.59226342852446, 221.0097622670788) translate(126.30764118676052, -224.82760131243364) translate(-23.810883895874042, -7.293701173693989E-6) translate(-637.1092790527343, 18.13041815948486) translate(-29.28422451603592, -29.650277322486318) translate(-30.0, -30.0) translate(60,60) matrix(1 0 0 1 694.9222412109375 -4.444992064845394)" fill="#464646" opacity="0.6" d="M348.998,346.621c-0.471-0.449-0.961-0.859-1.471-1.209    c-0.57-0.4-1.17-0.73-1.76-0.971c-1.49-0.609-2.79-0.561-3.75,0.029l3.02-1.74l0.811-0.469c0.31-0.211,0.949-0.381,1.56-0.391    c0.31-0.021,0.601,0.01,0.841,0.08c0,0,0.209,0.051,0.56,0.221h0.03C348.867,343.662,348.918,345.15,348.998,346.621z"/>
<path orgfill="#BCBEC0" enable-background="new    " transform="translate(1.6666666666666288, 45.0) translate(5.0, 141.66666666666663) translate(-1.1659935022249215, -6.995961013349529) translate(2.331987004449843, 3.4979805066747645) translate(-6.995961013349529, 0.0) translate(-318.31622610740294, -206.38084989381065) translate(279.8384405339806, 277.50645352953075) translate(-65,-56) translate(-135.7864793701172, -15.95862927246094) translate(-125.59226342852446, 221.0097622670788) translate(126.30764118676052, -224.82760131243364) translate(-23.810883895874042, -7.293701173693989E-6) translate(-637.1092790527343, 18.13041815948486) translate(-29.28422451603592, -29.650277322486318) translate(-30.0, -30.0) translate(60,60) matrix(1 0 0 1 694.9222412109375 -4.444992064845394)" fill="#BCBEC0" opacity="0.8" d="M348.838,342.171h-0.03c-0.351-0.17-0.56-0.221-0.56-0.221    c0.069-0.59,0.02-1.301,0-1.41c-0.111-0.789-0.42-1.629-0.851-2.4c-0.72-1.26-1.761-2.33-2.8-2.75    c-0.27-0.107-0.53-0.17-0.76-0.17c-0.291,0-0.521,0.104-0.69,0.301c-0.33,0.369-0.45,1.07-0.33,1.91    c0.261,1.859,1.58,3.893,3.03,4.83l-0.811,0.469c-1.52-1.146-2.779-3.219-3.06-5.18c-0.2-1.438,0.18-2.479,0.94-2.93l0.14-0.08    c0.489-0.24,1.13-0.23,1.86,0.061c0.899,0.369,1.779,1.109,2.5,2.051c0.6,0.77,1.08,1.672,1.39,2.592    C348.808,340.22,348.817,341.191,348.838,342.171z"/>
<path orgfill="#F39200" enable-background="new    " transform="translate(1.6666666666666288, 45.0) translate(5.0, 141.66666666666663) translate(-1.1659935022249215, -6.995961013349529) translate(2.331987004449843, 3.4979805066747645) translate(-6.995961013349529, 0.0) translate(-318.31622610740294, -206.38084989381065) translate(279.8384405339806, 277.50645352953075) translate(-65,-56) translate(-135.7864793701172, -15.95862927246094) translate(-125.59226342852446, 221.0097622670788) translate(126.30764118676052, -224.82760131243364) translate(-23.810883895874042, -7.293701173693989E-6) translate(-637.1092790527343, 18.13041815948486) translate(-29.28422451603592, -29.650277322486318) translate(-30.0, -30.0) translate(60,60) matrix(1 0 0 1 694.9222412109375 -4.444992064845394)" fill="#F39200" opacity="0.8" d="M348.248,340.541c-0.111-0.789-0.42-1.629-0.851-2.4    c-0.72-1.26-1.761-2.33-2.8-2.75c-0.27-0.107-0.53-0.17-0.76-0.17c-0.291,0-0.521,0.104-0.69,0.301    c-0.33,0.369-0.45,1.07-0.33,1.91c0.261,1.859,1.58,3.893,3.03,4.83c0.31-0.211,0.949-0.381,1.56-0.391    c0.31-0.02,0.601,0.01,0.841,0.08C348.317,341.361,348.268,340.65,348.248,340.541z M346.168,340.46    c-0.761-0.311-1.5-1.33-1.631-2.279c-0.13-0.949,0.381-1.471,1.15-1.158c0.769,0.311,1.5,1.34,1.641,2.277    C347.457,340.251,346.938,340.771,346.168,340.46z"/>
<linearGradient transform="translate(1.6666666666666288, 45.0) translate(5.0, 141.66666666666663) translate(-1.1659935022249215, -6.995961013349529) translate(2.331987004449843, 3.4979805066747645) translate(-6.995961013349529, 0.0) translate(-318.31622610740294, -206.38084989381065) translate(279.8384405339806, 277.50645352953075) translate(-65,-56) translate(-135.7864793701172, -15.95862927246094) translate(-125.59226342852446, 221.0097622670788) translate(126.30764118676052, -224.82760131243364) translate(-23.810883895874042, -7.293701173693989E-6) translate(-637.1092790527343, 18.13041815948486) translate(-29.28422451603592, -29.650277322486318) translate(-30.0, -30.0) translate(60,60)" gradientTransform="matrix(1 0 0 1 174.375 122.4554)" x1="170.142" x2="172.9726" y1="216.2861" gradientUnits="userSpaceOnUse" y2="216.2861" xmlns:xlink="http://www.w3.org/1999/xlink" xlink:type="simple" xlink:actuate="onLoad" id="121::SVGID_23_" xlink:show="other">
<stop stop-opacity="0.4" stop-color="#FFFFFF" offset="0.0053"/>
<stop stop-opacity="0.4" stop-color="#FFFFFF" offset="1"/>
</linearGradient>
<path fill="url(#121::SVGID_23_)" d="M347.328,339.3c0.129,0.951-0.391,1.473-1.16,1.16c-0.76-0.311-1.5-1.33-1.631-2.279    c-0.129-0.949,0.381-1.471,1.15-1.158C346.456,337.333,347.188,338.361,347.328,339.3z M345.787,340.011    c0.43,0.17,0.721-0.121,0.65-0.648c-0.08-0.539-0.49-1.109-0.92-1.289c-0.439-0.172-0.73,0.119-0.65,0.646    C344.938,339.261,345.348,339.832,345.787,340.011z" transform="translate(1.6666666666666288, 45.0) translate(5.0, 141.66666666666663) translate(-1.1659935022249215, -6.995961013349529) translate(2.331987004449843, 3.4979805066747645) translate(-6.995961013349529, 0.0) translate(-318.31622610740294, -206.38084989381065) translate(279.8384405339806, 277.50645352953075) translate(-65,-56) translate(-135.7864793701172, -15.95862927246094) translate(-125.59226342852446, 221.0097622670788) translate(126.30764118676052, -224.82760131243364) translate(-23.810883895874042, -7.293701173693989E-6) translate(-637.1092790527343, 18.13041815948486) translate(-29.28422451603592, -29.650277322486318) translate(-30.0, -30.0) translate(60,60) matrix(1 0 0 1 694.9222412109375 -4.444992064845394)" orgfill="url(#121::SVGID_23_)"/>
<path orgfill="#464646" enable-background="new    " transform="translate(1.6666666666666288, 45.0) translate(5.0, 141.66666666666663) translate(-1.1659935022249215, -6.995961013349529) translate(2.331987004449843, 3.4979805066747645) translate(-6.995961013349529, 0.0) translate(-318.31622610740294, -206.38084989381065) translate(279.8384405339806, 277.50645352953075) translate(-65,-56) translate(-135.7864793701172, -15.95862927246094) translate(-125.59226342852446, 221.0097622670788) translate(126.30764118676052, -224.82760131243364) translate(-23.810883895874042, -7.293701173693989E-6) translate(-637.1092790527343, 18.13041815948486) translate(-29.28422451603592, -29.650277322486318) translate(-30.0, -30.0) translate(60,60) matrix(1 0 0 1 694.9222412109375 -4.444992064845394)" fill="#464646" opacity="0.3" d="M353.251,299.007c-0.07,0.17-0.14,0.34-0.21,0.521    c-1.051,2.592-2.09,6.479-2.99,11.189l-4.688,2.699l-0.021,0.01c-0.25,0.121-0.489,0.25-0.72,0.42    c-0.79,0.531-1.44,1.291-1.91,2.24c-0.88,1.73-1.189,4.102-0.79,6.93c0.479,3.383,1.88,6.871,3.84,9.932l0.011,0.02l-2.711,1.57    l-0.14,0.08c-0.761,0.449-1.14,1.488-0.94,2.93c0.28,1.959,1.541,4.029,3.061,5.18l-3.02,1.74l-0.091,0.049    c-1.34,0.871-2.021,2.803-1.649,5.42c0.58,4.111,3.5,8.49,6.779,10.371c-0.459,3.109-0.9,6.07-1.029,7.039    c-0.371-0.039-0.98-0.119-1.811-0.229c-0.01,0-0.02-0.012-0.029-0.012c-5.33-8.979-6.221-25.238-6.36-30.029    c-0.12-4.051,1.42-11.539,3.01-17.17c0.29-1.039,0.88-2.391,1.66-3.93h0.01C345.451,310.197,351.081,301.917,353.251,299.007z"/>
<linearGradient transform="translate(1.6666666666666288, 45.0) translate(5.0, 141.66666666666663) translate(-1.1659935022249215, -6.995961013349529) translate(2.331987004449843, 3.4979805066747645) translate(-6.995961013349529, 0.0) translate(-318.31622610740294, -206.38084989381065) translate(279.8384405339806, 277.50645352953075) translate(-65,-56) translate(-135.7864793701172, -15.95862927246094) translate(-125.59226342852446, 221.0097622670788) translate(126.30764118676052, -224.82760131243364) translate(-23.810883895874042, -7.293701173693989E-6) translate(-637.1092790527343, 18.13041815948486) translate(-29.28422451603592, -29.650277322486318) translate(-30.0, -30.0) translate(60,60)" gradientTransform="matrix(1 0 0 1 174.375 122.4554)" x1="170.4798" x2="172.0734" y1="216.5856" gradientUnits="userSpaceOnUse" y2="216.5856" xmlns:xlink="http://www.w3.org/1999/xlink" xlink:type="simple" xlink:actuate="onLoad" id="121::SVGID_24_" xlink:show="other">
<stop stop-opacity="0.6" stop-color="#FFFFFF" offset="0.0053"/>
<stop stop-opacity="0.6" stop-color="#FFFFFF" offset="1"/>
</linearGradient>
<path fill="url(#121::SVGID_24_)" d="M346.438,339.361c0.07,0.529-0.221,0.82-0.65,0.65c-0.439-0.18-0.85-0.75-0.92-1.291    c-0.08-0.529,0.211-0.82,0.65-0.648C345.947,338.251,346.357,338.822,346.438,339.361z" transform="translate(1.6666666666666288, 45.0) translate(5.0, 141.66666666666663) translate(-1.1659935022249215, -6.995961013349529) translate(2.331987004449843, 3.4979805066747645) translate(-6.995961013349529, 0.0) translate(-318.31622610740294, -206.38084989381065) translate(279.8384405339806, 277.50645352953075) translate(-65,-56) translate(-135.7864793701172, -15.95862927246094) translate(-125.59226342852446, 221.0097622670788) translate(126.30764118676052, -224.82760131243364) translate(-23.810883895874042, -7.293701173693989E-6) translate(-637.1092790527343, 18.13041815948486) translate(-29.28422451603592, -29.650277322486318) translate(-30.0, -30.0) translate(60,60) matrix(1 0 0 1 694.9222412109375 -4.444992064845394)" orgfill="url(#121::SVGID_24_)"/>
<path fill="#ffffff" g2gfill="#ECC35D" d="M345.338,313.431l-0.721,0.42C344.848,313.681,345.088,313.55,345.338,313.431z" transform="translate(1.6666666666666288, 45.0) translate(5.0, 141.66666666666663) translate(-1.1659935022249215, -6.995961013349529) translate(2.331987004449843, 3.4979805066747645) translate(-6.995961013349529, 0.0) translate(-318.31622610740294, -206.38084989381065) translate(279.8384405339806, 277.50645352953075) translate(-65,-56) translate(-135.7864793701172, -15.95862927246094) translate(-125.59226342852446, 221.0097622670788) translate(126.30764118676052, -224.82760131243364) translate(-23.810883895874042, -7.293701173693989E-6) translate(-637.1092790527343, 18.13041815948486) translate(-29.28422451603592, -29.650277322486318) translate(-30.0, -30.0) translate(60,60) matrix(1 0 0 1 694.9222412109375 -4.444992064845394)" orgfill="#ffffff"/>
</g>
<path stroke-linecap="round" orgstroke="#000000" orgfill="none" transform="translate(1.6666666666666288, 45.0) translate(5.0, 141.66666666666663) translate(-1.1659935022249215, -6.995961013349529) translate(2.331987004449843, 3.4979805066747645) translate(-6.995961013349529, 0.0) translate(-318.31622610740294, -206.38084989381065) translate(279.8384405339806, 277.50645352953075) translate(-65,-56) translate(-135.7864793701172, -15.95862927246094) translate(-125.59226342852446, 221.0097622670788) translate(126.30764118676052, -224.82760131243364) translate(-23.810883895874042, -7.293701173693989E-6) translate(-637.1092790527343, 18.13041815948486) translate(-29.28422451603592, -29.650277322486318) translate(-30.0, -30.0) translate(60,60) matrix(1 0 0 1 694.9222412109375 -4.444992064845394)" fill="none" stroke-linejoin="round" d="   M354.195,308.789c-2.246,11.406-3.734,28.23-2.049,42.51c0.027,0.234,0.025,0.467-0.011,0.699   c-0.215,1.424-1.04,6.893-1.597,10.648" stroke="#000000" stroke-width="0.25" g2gstroke="#312783" stroke-miterlimit="10"/>
<path stroke-linecap="round" orgstroke="#000000" orgfill="none" transform="translate(1.6666666666666288, 45.0) translate(5.0, 141.66666666666663) translate(-1.1659935022249215, -6.995961013349529) translate(2.331987004449843, 3.4979805066747645) translate(-6.995961013349529, 0.0) translate(-318.31622610740294, -206.38084989381065) translate(279.8384405339806, 277.50645352953075) translate(-65,-56) translate(-135.7864793701172, -15.95862927246094) translate(-125.59226342852446, 221.0097622670788) translate(126.30764118676052, -224.82760131243364) translate(-23.810883895874042, -7.293701173693989E-6) translate(-637.1092790527343, 18.13041815948486) translate(-29.28422451603592, -29.650277322486318) translate(-30.0, -30.0) translate(60,60) matrix(1 0 0 1 694.9222412109375 -4.444992064845394)" fill="none" stroke-linejoin="round" d="   M362.109,332.73l-5.703-3.293c-1.014-0.584-1.014-2.045,0-2.631l12.714-7.34c0.5-0.289,0.745-0.795,0.739-1.299" stroke="#000000" stroke-width="0.25" g2gstroke="#312783" stroke-miterlimit="10"/>
<path stroke-linecap="round" orgstroke="#000000" orgfill="none" transform="translate(1.6666666666666288, 45.0) translate(5.0, 141.66666666666663) translate(-1.1659935022249215, -6.995961013349529) translate(2.331987004449843, 3.4979805066747645) translate(-6.995961013349529, 0.0) translate(-318.31622610740294, -206.38084989381065) translate(279.8384405339806, 277.50645352953075) translate(-65,-56) translate(-135.7864793701172, -15.95862927246094) translate(-125.59226342852446, 221.0097622670788) translate(126.30764118676052, -224.82760131243364) translate(-23.810883895874042, -7.293701173693989E-6) translate(-637.1092790527343, 18.13041815948486) translate(-29.28422451603592, -29.650277322486318) translate(-30.0, -30.0) translate(60,60) matrix(1 0 0 1 694.9222412109375 -4.444992064845394)" fill="none" stroke-linejoin="round" d="   M359.426,343.599l-5.186-2.992c-0.607-0.352-0.607-1.23,0-1.578l7.869-4.543c0.312-0.182,0.479-0.486,0.503-0.803" stroke="#000000" stroke-width="0.25" g2gstroke="#312783" stroke-miterlimit="10"/>
<path orgstroke="#000000" orgfill="none" transform="translate(1.6666666666666288, 45.0) translate(5.0, 141.66666666666663) translate(-1.1659935022249215, -6.995961013349529) translate(2.331987004449843, 3.4979805066747645) translate(-6.995961013349529, 0.0) translate(-318.31622610740294, -206.38084989381065) translate(279.8384405339806, 277.50645352953075) translate(-65,-56) translate(-135.7864793701172, -15.95862927246094) translate(-125.59226342852446, 221.0097622670788) translate(126.30764118676052, -224.82760131243364) translate(-23.810883895874042, -7.293701173693989E-6) translate(-637.1092790527343, 18.13041815948486) translate(-29.28422451603592, -29.650277322486318) translate(-30.0, -30.0) translate(60,60) matrix(1 0 0 1 694.9222412109375 -4.444992064845394)" fill="none" d="M363.43,315.933c1.313,1.025,0.932,2.441-0.853,3.162   c-1.785,0.723-4.296,0.477-5.608-0.553c-1.313-1.025-0.932-2.441,0.854-3.162C359.605,314.66,362.117,314.908,363.43,315.933z" stroke="#000000" stroke-width="0.25" g2gstroke="#312783"/>
<path orgstroke="#000000" orgfill="none" transform="translate(1.6666666666666288, 45.0) translate(5.0, 141.66666666666663) translate(-1.1659935022249215, -6.995961013349529) translate(2.331987004449843, 3.4979805066747645) translate(-6.995961013349529, 0.0) translate(-318.31622610740294, -206.38084989381065) translate(279.8384405339806, 277.50645352953075) translate(-65,-56) translate(-135.7864793701172, -15.95862927246094) translate(-125.59226342852446, 221.0097622670788) translate(126.30764118676052, -224.82760131243364) translate(-23.810883895874042, -7.293701173693989E-6) translate(-637.1092790527343, 18.13041815948486) translate(-29.28422451603592, -29.650277322486318) translate(-30.0, -30.0) translate(60,60) matrix(1 0 0 1 694.9222412109375 -4.444992064845394)" fill="none" d="M362.327,316.378c0.864,0.676,0.613,1.607-0.562,2.084   c-1.176,0.477-2.829,0.313-3.693-0.365c-0.865-0.676-0.614-1.605,0.561-2.082C359.809,315.541,361.462,315.703,362.327,316.378z" stroke="#000000" stroke-width="0.25" g2gstroke="#312783"/>
<path orgstroke="#000000" orgfill="none" transform="translate(1.6666666666666288, 45.0) translate(5.0, 141.66666666666663) translate(-1.1659935022249215, -6.995961013349529) translate(2.331987004449843, 3.4979805066747645) translate(-6.995961013349529, 0.0) translate(-318.31622610740294, -206.38084989381065) translate(279.8384405339806, 277.50645352953075) translate(-65,-56) translate(-135.7864793701172, -15.95862927246094) translate(-125.59226342852446, 221.0097622670788) translate(126.30764118676052, -224.82760131243364) translate(-23.810883895874042, -7.293701173693989E-6) translate(-637.1092790527343, 18.13041815948486) translate(-29.28422451603592, -29.650277322486318) translate(-30.0, -30.0) translate(60,60) matrix(1 0 0 1 694.9222412109375 -4.444992064845394)" fill="none" d="M357.928,317.972c0.03-0.014,0.063-0.023,0.094-0.039   c1.175-0.475,2.828-0.313,3.693,0.363c0.051,0.041,0.098,0.08,0.141,0.121" stroke="#000000" stroke-width="0.25" g2gstroke="#312783"/>
<path orgstroke="#000000" orgfill="none" transform="translate(1.6666666666666288, 45.0) translate(5.0, 141.66666666666663) translate(-1.1659935022249215, -6.995961013349529) translate(2.331987004449843, 3.4979805066747645) translate(-6.995961013349529, 0.0) translate(-318.31622610740294, -206.38084989381065) translate(279.8384405339806, 277.50645352953075) translate(-65,-56) translate(-135.7864793701172, -15.95862927246094) translate(-125.59226342852446, 221.0097622670788) translate(126.30764118676052, -224.82760131243364) translate(-23.810883895874042, -7.293701173693989E-6) translate(-637.1092790527343, 18.13041815948486) translate(-29.28422451603592, -29.650277322486318) translate(-30.0, -30.0) translate(60,60) matrix(1 0 0 1 694.9222412109375 -4.444992064845394)" fill="none" d="M351.619,331.654c0.057-0.027,0.115-0.051,0.174-0.076   c1.539-0.621,3.705-0.408,4.837,0.477c1.132,0.887,0.804,2.105-0.735,2.73c-1.344,0.543-3.164,0.449-4.358-0.174" stroke="#000000" stroke-width="0.25" g2gstroke="#312783"/>
<path orgstroke="#000000" orgfill="none" transform="translate(1.6666666666666288, 45.0) translate(5.0, 141.66666666666663) translate(-1.1659935022249215, -6.995961013349529) translate(2.331987004449843, 3.4979805066747645) translate(-6.995961013349529, 0.0) translate(-318.31622610740294, -206.38084989381065) translate(279.8384405339806, 277.50645352953075) translate(-65,-56) translate(-135.7864793701172, -15.95862927246094) translate(-125.59226342852446, 221.0097622670788) translate(126.30764118676052, -224.82760131243364) translate(-23.810883895874042, -7.293701173693989E-6) translate(-637.1092790527343, 18.13041815948486) translate(-29.28422451603592, -29.650277322486318) translate(-30.0, -30.0) translate(60,60) matrix(1 0 0 1 694.9222412109375 -4.444992064845394)" fill="none" d="M355.679,332.439c0.746,0.582,0.528,1.387-0.484,1.797   c-1.013,0.408-2.439,0.268-3.185-0.314s-0.529-1.387,0.484-1.797C353.507,331.716,354.934,331.857,355.679,332.439z" stroke="#000000" stroke-width="0.25" g2gstroke="#312783"/>
<path orgstroke="#000000" orgfill="none" transform="translate(1.6666666666666288, 45.0) translate(5.0, 141.66666666666663) translate(-1.1659935022249215, -6.995961013349529) translate(2.331987004449843, 3.4979805066747645) translate(-6.995961013349529, 0.0) translate(-318.31622610740294, -206.38084989381065) translate(279.8384405339806, 277.50645352953075) translate(-65,-56) translate(-135.7864793701172, -15.95862927246094) translate(-125.59226342852446, 221.0097622670788) translate(126.30764118676052, -224.82760131243364) translate(-23.810883895874042, -7.293701173693989E-6) translate(-637.1092790527343, 18.13041815948486) translate(-29.28422451603592, -29.650277322486318) translate(-30.0, -30.0) translate(60,60) matrix(1 0 0 1 694.9222412109375 -4.444992064845394)" fill="none" d="M351.885,333.814c0.027-0.012,0.053-0.023,0.081-0.035   c1.013-0.408,2.438-0.268,3.185,0.314c0.044,0.033,0.084,0.068,0.121,0.105" stroke="#000000" stroke-width="0.25" g2gstroke="#312783"/>
<path orgstroke="#000000" orgfill="none" transform="translate(1.6666666666666288, 45.0) translate(5.0, 141.66666666666663) translate(-1.1659935022249215, -6.995961013349529) translate(2.331987004449843, 3.4979805066747645) translate(-6.995961013349529, 0.0) translate(-318.31622610740294, -206.38084989381065) translate(279.8384405339806, 277.50645352953075) translate(-65,-56) translate(-135.7864793701172, -15.95862927246094) translate(-125.59226342852446, 221.0097622670788) translate(126.30764118676052, -224.82760131243364) translate(-23.810883895874042, -7.293701173693989E-6) translate(-637.1092790527343, 18.13041815948486) translate(-29.28422451603592, -29.650277322486318) translate(-30.0, -30.0) translate(60,60) matrix(1 0 0 1 694.9222412109375 -4.444992064845394)" fill="none" d="M351.559,342.796c1.194-0.318,2.674-0.109,3.49,0.527   c0.917,0.717,0.65,1.707-0.597,2.211c-0.82,0.332-1.86,0.369-2.737,0.152" stroke="#000000" stroke-width="0.25" g2gstroke="#312783"/>
<path orgstroke="#000000" orgfill="none" transform="translate(1.6666666666666288, 45.0) translate(5.0, 141.66666666666663) translate(-1.1659935022249215, -6.995961013349529) translate(2.331987004449843, 3.4979805066747645) translate(-6.995961013349529, 0.0) translate(-318.31622610740294, -206.38084989381065) translate(279.8384405339806, 277.50645352953075) translate(-65,-56) translate(-135.7864793701172, -15.95862927246094) translate(-125.59226342852446, 221.0097622670788) translate(126.30764118676052, -224.82760131243364) translate(-23.810883895874042, -7.293701173693989E-6) translate(-637.1092790527343, 18.13041815948486) translate(-29.28422451603592, -29.650277322486318) translate(-30.0, -30.0) translate(60,60) matrix(1 0 0 1 694.9222412109375 -4.444992064845394)" fill="none" d="M351.59,343.427c0.033-0.016,0.069-0.029,0.105-0.047   c0.822-0.332,1.978-0.217,2.582,0.256s0.429,1.123-0.393,1.455c-0.67,0.271-1.564,0.244-2.198-0.031" stroke="#000000" stroke-width="0.25" g2gstroke="#312783"/>
<path orgstroke="#000000" orgfill="none" transform="translate(1.6666666666666288, 45.0) translate(5.0, 141.66666666666663) translate(-1.1659935022249215, -6.995961013349529) translate(2.331987004449843, 3.4979805066747645) translate(-6.995961013349529, 0.0) translate(-318.31622610740294, -206.38084989381065) translate(279.8384405339806, 277.50645352953075) translate(-65,-56) translate(-135.7864793701172, -15.95862927246094) translate(-125.59226342852446, 221.0097622670788) translate(126.30764118676052, -224.82760131243364) translate(-23.810883895874042, -7.293701173693989E-6) translate(-637.1092790527343, 18.13041815948486) translate(-29.28422451603592, -29.650277322486318) translate(-30.0, -30.0) translate(60,60) matrix(1 0 0 1 694.9222412109375 -4.444992064845394)" fill="none" d="M351.646,344.605c0.769-0.174,1.688-0.031,2.203,0.371   c0.035,0.027,0.068,0.057,0.098,0.084" stroke="#000000" stroke-width="0.25" g2gstroke="#312783"/>
<path orgstroke="#000000" orgfill="none" transform="translate(1.6666666666666288, 45.0) translate(5.0, 141.66666666666663) translate(-1.1659935022249215, -6.995961013349529) translate(2.331987004449843, 3.4979805066747645) translate(-6.995961013349529, 0.0) translate(-318.31622610740294, -206.38084989381065) translate(279.8384405339806, 277.50645352953075) translate(-65,-56) translate(-135.7864793701172, -15.95862927246094) translate(-125.59226342852446, 221.0097622670788) translate(126.30764118676052, -224.82760131243364) translate(-23.810883895874042, -7.293701173693989E-6) translate(-637.1092790527343, 18.13041815948486) translate(-29.28422451603592, -29.650277322486318) translate(-30.0, -30.0) translate(60,60) matrix(1 0 0 1 694.9222412109375 -4.444992064845394)" fill="none" d="M360.4339904785156 344.52301025390625L351.8550109863281 348.90399169921875" stroke="#000000" stroke-width="0.25" g2gstroke="#312783"/>
<radialGradient transform="translate(1.6666666666666288, 45.0) translate(5.0, 141.66666666666663) translate(-1.1659935022249215, -6.995961013349529) translate(2.331987004449843, 3.4979805066747645) translate(-6.995961013349529, 0.0) translate(-318.31622610740294, -206.38084989381065) translate(279.8384405339806, 277.50645352953075) translate(-65,-56) translate(-135.7864793701172, -15.95862927246094) translate(-125.59226342852446, 221.0097622670788) translate(126.30764118676052, -224.82760131243364) translate(-23.810883895874042, -7.293701173693989E-6) translate(-637.1092790527343, 18.13041815948486) translate(-29.28422451603592, -29.650277322486318) translate(-30.0, -30.0) translate(60,60)" gradientTransform="matrix(0.9936 0.1128 -0.296 2.608 237.4879 -234.0184)" gradientUnits="userSpaceOnUse" xmlns:xlink="http://www.w3.org/1999/xlink" xlink:type="simple" r="26.9517" cx="174.8784" xlink:actuate="onLoad" cy="209.593" id="121::SVGID_25_" xlink:show="other">
<stop stop-opacity="0.6" stop-color="#FFFFFF" offset="0"/>
<stop stop-opacity="0.2" stop-color="#FFFFFF" offset="1"/>
</radialGradient>
<path fill="url(#121::SVGID_25_)" d="M349.531,352.812c0.027,0.234,0.025,0.469-0.01,0.699c-0.317,2.102-1.964,13-2.111,14.229   c-0.111,0.924-0.617,1.066-1.004,1.066c-0.295,0-1.654-0.182-2.385-0.281c-0.465-0.064-0.768-0.209-0.93-0.477   c-5.758-9.465-6.559-26.811-6.682-30.93c-0.125-4.168,1.396-11.676,3.063-17.594c1.666-5.916,11.869-20.553,13.375-22.303   c0.867-1.008,2.43-2.361,2.998-2.029c0.57,0.334-0.395,2.141-1.5,4.873C350.93,308.515,347.204,333.089,349.531,352.812z" transform="translate(1.6666666666666288, 45.0) translate(5.0, 141.66666666666663) translate(-1.1659935022249215, -6.995961013349529) translate(2.331987004449843, 3.4979805066747645) translate(-6.995961013349529, 0.0) translate(-318.31622610740294, -206.38084989381065) translate(279.8384405339806, 277.50645352953075) translate(-65,-56) translate(-135.7864793701172, -15.95862927246094) translate(-125.59226342852446, 221.0097622670788) translate(126.30764118676052, -224.82760131243364) translate(-23.810883895874042, -7.293701173693989E-6) translate(-637.1092790527343, 18.13041815948486) translate(-29.28422451603592, -29.650277322486318) translate(-30.0, -30.0) translate(60,60) matrix(1 0 0 1 694.9222412109375 -4.444992064845394)" orgfill="url(#121::SVGID_25_)"/>
<path stroke-linecap="round" orgstroke="#000000" orgfill="none" transform="translate(1.6666666666666288, 45.0) translate(5.0, 141.66666666666663) translate(-1.1659935022249215, -6.995961013349529) translate(2.331987004449843, 3.4979805066747645) translate(-6.995961013349529, 0.0) translate(-318.31622610740294, -206.38084989381065) translate(279.8384405339806, 277.50645352953075) translate(-65,-56) translate(-135.7864793701172, -15.95862927246094) translate(-125.59226342852446, 221.0097622670788) translate(126.30764118676052, -224.82760131243364) translate(-23.810883895874042, -7.293701173693989E-6) translate(-637.1092790527343, 18.13041815948486) translate(-29.28422451603592, -29.650277322486318) translate(-30.0, -30.0) translate(60,60) matrix(1 0 0 1 694.9222412109375 -4.444992064845394)" fill="none" stroke-linejoin="round" d="   M355.202,295.252c0.265-0.115,0.491-0.148,0.645-0.059c0.57,0.334-0.395,2.141-1.5,4.873c-3.415,8.449-7.142,33.023-4.813,52.746   c0.027,0.234,0.024,0.467-0.011,0.699c-0.317,2.1-1.964,13-2.111,14.227c-0.063,0.531-0.259,0.805-0.487,0.941" stroke="#000000" stroke-width="0.25" g2gstroke="#312783" stroke-miterlimit="10"/>
<path stroke-linecap="round" orgstroke="#000000" orgfill="none" transform="translate(1.6666666666666288, 45.0) translate(5.0, 141.66666666666663) translate(-1.1659935022249215, -6.995961013349529) translate(2.331987004449843, 3.4979805066747645) translate(-6.995961013349529, 0.0) translate(-318.31622610740294, -206.38084989381065) translate(279.8384405339806, 277.50645352953075) translate(-65,-56) translate(-135.7864793701172, -15.95862927246094) translate(-125.59226342852446, 221.0097622670788) translate(126.30764118676052, -224.82760131243364) translate(-23.810883895874042, -7.293701173693989E-6) translate(-637.1092790527343, 18.13041815948486) translate(-29.28422451603592, -29.650277322486318) translate(-30.0, -30.0) translate(60,60) matrix(1 0 0 1 694.9222412109375 -4.444992064845394)" fill="none" stroke-linejoin="round" d="   M349.609,367.125l0.017-0.02c0.188-0.152,0.343-0.42,0.398-0.881c0.048-0.395,0.251-1.793,0.515-3.578l8.924-5.15   c0.968-0.559,1.563-1.592,1.563-2.709v-8.414c0-1.145-0.61-2.201-1.601-2.773l2.453-1.342c0.448-0.246,0.727-0.715,0.727-1.225   v-7.35h0.007c0.027-0.365-0.141-0.744-0.503-0.953l6.656-3.859c0.676-0.391,1.093-1.113,1.093-1.895v-8.822l0.001,0.014   c-0.007-0.504-0.265-1.004-0.771-1.279l-14.893-8.1c0.856-4.346,1.822-7.904,2.765-10.236c1.105-2.731,2.07-4.538,1.5-4.872   c-0.201-0.117-0.522-0.016-0.897,0.199c0,0-2.359,1.375-2.36,1.373c-0.717,0.314-1.721,1.234-2.354,1.971   c-1.506,1.749-11.709,16.388-13.375,22.304c-1.666,5.918-3.188,13.426-3.063,17.594c0.123,4.119,0.924,21.465,6.682,30.93   c0.162,0.266,0.465,0.41,0.93,0.475c0.73,0.102,2.09,0.283,2.385,0.283c0.163,0,0.349-0.025,0.517-0.127L349.609,367.125z" stroke="#000000" stroke-width="0.25" g2gstroke="#312783" stroke-miterlimit="10"/>
</g>
</g>
</g>
</g>
</g>
</g>
</g></svg>