<svg xmlns="http://www.w3.org/2000/svg" xmlns:xlink="http://www.w3.org/1999/xlink" xmlns:x="http://ns.adobe.com/Extensibility/1.0/" xmlns:graph="http://ns.adobe.com/Graphs/1.0/" xmlns:i="http://ns.adobe.com/AdobeIllustrator/10.0/" xmlns:etg="http://www.eurotaxglass.com/etg/evd/" etg:dataTimestamp="1541512339925" contentScriptType="text/ecmascript" zoomAndPan="magnify" contentStyleType="text/css" id="Layer_1" enable-background="new 0 0 1841.891 1595.279" version="1.1" xml:space="preserve" width="1841.891px" preserveAspectRatio="xMidYMid meet" viewBox="0 0 1841.891 1595.279" height="1595.279px" x="0px" y="0px"><g xmlns="http://www.w3.org/2000/svg" objecttype="PS" tooltip="#UNDEFINED" id="158">
<g onmouseover="notifyOwner(AGV_OBJECT_MOUSEOVER, '158(PS)')" transform="translate(-9.433746356535266E-6, 3.356933575560106E-7) translate(-35.71980609130861, -13.200809143066408) translate(44.708733184814434, 94.79042849731445) matrix(0.6117410612267968 0 0 0.6117410612267968 0.2921243287958965 0.477310974878083) translate(-92,-34) " onclick="clickZoom(evt); notifyOwner(AGV_OBJECT_MOUSECLICK, '158(PS)')" onmouseout="notifyOwner(AGV_OBJECT_MOUSEOUT, '158(PS)')" tooltip="#UNDEFINED" id="158-Graphic" objecttype="GRAPHIC">
<g zvalue="159">
<g zvalue="28">
<g zvalue="19">
<g>
<path orgstroke="#000000" orgfill="#ffffff" transform="translate(-691.5254507698542, 52.22457831334839) translate(-16.467393441228978, -61.43604476150841) translate(-1.8008475280464609, -381.7796759458569) translate(-7.384350479671866, -6.7130458906109425) translate(199.89407561316102, 180.0847528046495) translate(708,319) translate(14.169231994628888, 42.77478060913086) translate(-262.62181823049787, -408.9745342722613) translate(-150.41806926514585, 275.6309485453212) translate(401.0, 94.0) translate(10.0, 10.00006103515625)" fill="#ffffff" g2gfill="#464646" d="M451.169,407.915   c7.058-4.223,86.043-51.475,135.768-81.242c0.465-0.277,0.533-0.34,0.65-0.991c0.156-0.866,0.166-2.394,0.166-3.206   c0-2.836-1.099-5.484-0.686-8.442c2.822-20.114,3.816-40.676,3.611-61.183c-0.078-7.716-0.453-13.587-3.816-23.917   c-0.172-0.531-0.318-0.952-0.423-1.362c-0.106-0.408-0.254-0.76-0.704-1.029l-0.952-0.551c-0.581-0.334-1.218,0.172-1.218,0.172   c-54.811,36.463-109.357,73.034-140.563,93.293c-0.069,0.045-0.135,0.089-0.194,0.134c-0.653,0.482-0.554,1.08-0.356,1.879   c0.196,0.793,0.421,1.588,0.6,2.123c0.875,2.625,1.959,5.457,2.209,8.707s2.926,54.338,2.75,58.168   c-0.334,7.25,0.777,8.314,0.777,10.064c0,1.313-0.277,4.502-0.412,6.015c-0.045,0.511,0.108,0.644,0.43,0.829l1.178,0.67   C450.328,408.244,450.802,408.135,451.169,407.915z" stroke="#000000" outline-element="true" stroke-width="0.5" g2gstroke="#312783" stroke-miterlimit="10"/>
<linearGradient transform="translate(-691.5254507698542, 52.22457831334839) translate(-16.467393441228978, -61.43604476150841) translate(-1.8008475280464609, -381.7796759458569) translate(-7.384350479671866, -6.7130458906109425) translate(199.89407561316102, 180.0847528046495) translate(708,319) translate(14.169231994628888, 42.77478060913086) translate(-262.62181823049787, -408.9745342722613) translate(-150.41806926514585, 275.6309485453212) translate(401.0, 94.0) translate(10.0, 10.00006103515625)" gradientTransform="matrix(1 0 0 -1 174.375 719.4551)" x1="360.5469" x2="327.428" y1="376.9082" gradientUnits="userSpaceOnUse" y2="429.7041" xmlns:xlink="http://www.w3.org/1999/xlink" xlink:type="simple" xlink:actuate="onLoad" id="148::SVGID_7_" xlink:show="other">
<stop stop-opacity="0.25" stop-color="#FFFFFF" offset="0.014"/>
<stop stop-opacity="0.58" stop-color="#FFFFFF" offset="0.7745"/>
<stop stop-opacity="0.58" stop-color="#FFFFFF" offset="0.9975"/>
</linearGradient>
<path fill="url(#148::SVGID_7_)" d="M590.694,252.869c0.207,20.42-0.646,39.297-3.423,59.337l-0.192-0.034   c-52.378,30.987-115.346,68.426-135.768,80.569c-0.304,0.175-1.017,0.605-1.625,1.226c-0.016-0.256,0.109-0.621,0.109-0.749   c-0.362-18.297-1.286-41.921-2.838-59.997c-0.092-1.061-0.055-1.033-0.311-2.044c46.955-27.232,95.735-57.807,143.552-87.803   C590.567,246.532,590.646,249.516,590.694,252.869z M578.027,269.971c3.317-2.216,5.839-6.797,5.631-10.259   c-0.128-2.219-1.355-3.415-3.111-3.415c-0.974,0-2.104,0.383-3.302,1.165l-3.671,2.44c-3.334,2.203-5.854,6.796-5.646,10.243   c0.223,3.446,3.095,4.468,6.413,2.249L578.027,269.971z" transform="translate(-691.5254507698542, 52.22457831334839) translate(-16.467393441228978, -61.43604476150841) translate(-1.8008475280464609, -381.7796759458569) translate(-7.384350479671866, -6.7130458906109425) translate(199.89407561316102, 180.0847528046495) translate(708,319) translate(14.169231994628888, 42.77478060913086) translate(-262.62181823049787, -408.9745342722613) translate(-150.41806926514585, 275.6309485453212) translate(401.0, 94.0) translate(10.0, 10.00006103515625)" orgfill="url(#148::SVGID_7_)"/>
<linearGradient transform="translate(-691.5254507698542, 52.22457831334839) translate(-16.467393441228978, -61.43604476150841) translate(-1.8008475280464609, -381.7796759458569) translate(-7.384350479671866, -6.7130458906109425) translate(199.89407561316102, 180.0847528046495) translate(708,319) translate(14.169231994628888, 42.77478060913086) translate(-262.62181823049787, -408.9745342722613) translate(-150.41806926514585, 275.6309485453212) translate(401.0, 94.0) translate(10.0, 10.00006103515625)" gradientTransform="matrix(1 0 0 -1 174.375 719.4551)" x1="335.6792" x2="346.3479" y1="450.7734" gradientUnits="userSpaceOnUse" y2="433.3637" xmlns:xlink="http://www.w3.org/1999/xlink" xlink:type="simple" xlink:actuate="onLoad" id="148::SVGID_8_" xlink:show="other">
<stop stop-opacity="0.5" stop-color="#FFFFFF" offset="0.5221"/>
<stop stop-opacity="0.7" stop-color="#FFFFFF" offset="1"/>
</linearGradient>
<path fill="url(#148::SVGID_8_)" d="M586.88,228.952c1.9,5.855,2.841,10.272,3.319,14.422c-47.816,29.996-96.597,60.57-143.552,87.806   c-0.854-4.125-2.322-7.017-2.784-9.917l-0.016-0.162c0.175-0.016,0.492-0.14,0.685-0.249   c31.096-20.485,86.332-57.213,141.583-93.975c0.192,0.208,0.271,0.445,0.335,0.717C586.563,227.992,586.706,228.426,586.88,228.952   z" transform="translate(-691.5254507698542, 52.22457831334839) translate(-16.467393441228978, -61.43604476150841) translate(-1.8008475280464609, -381.7796759458569) translate(-7.384350479671866, -6.7130458906109425) translate(199.89407561316102, 180.0847528046495) translate(708,319) translate(14.169231994628888, 42.77478060913086) translate(-262.62181823049787, -408.9745342722613) translate(-150.41806926514585, 275.6309485453212) translate(401.0, 94.0) translate(10.0, 10.00006103515625)" orgfill="url(#148::SVGID_8_)"/>
<linearGradient transform="translate(-691.5254507698542, 52.22457831334839) translate(-16.467393441228978, -61.43604476150841) translate(-1.8008475280464609, -381.7796759458569) translate(-7.384350479671866, -6.7130458906109425) translate(199.89407561316102, 180.0847528046495) translate(708,319) translate(14.169231994628888, 42.77478060913086) translate(-262.62181823049787, -408.9745342722613) translate(-150.41806926514585, 275.6309485453212) translate(401.0, 94.0) translate(10.0, 10.00006103515625)" gradientTransform="matrix(1 0 0 -1 174.375 719.4551)" x1="353.7339" x2="336.5773" y1="339.8848" gradientUnits="userSpaceOnUse" y2="368.8504" xmlns:xlink="http://www.w3.org/1999/xlink" xlink:type="simple" xlink:actuate="onLoad" id="148::SVGID_9_" xlink:show="other">
<stop stop-opacity="0.25" stop-color="#FFFFFF" offset="0.5758"/>
<stop stop-opacity="0.62" stop-color="#FFFFFF" offset="0.7022"/>
</linearGradient>
<path fill="url(#148::SVGID_9_)" d="M587.577,319.602c0.065,0.461,0.172,1.254,0.172,1.734c0,0.813,0.01,3.489-0.148,4.367   c-0.112,0.655-0.193,0.701-0.654,0.988c-51.871,31.05-134.843,80.678-135.497,81.077c-0.67,0.399-1.164,0.356-1.466,0.276   c0.047-0.752,0.549-6.683,0.469-7.19h0.016C470.06,389.459,533.235,351.941,587.577,319.602z" transform="translate(-691.5254507698542, 52.22457831334839) translate(-16.467393441228978, -61.43604476150841) translate(-1.8008475280464609, -381.7796759458569) translate(-7.384350479671866, -6.7130458906109425) translate(199.89407561316102, 180.0847528046495) translate(708,319) translate(14.169231994628888, 42.77478060913086) translate(-262.62181823049787, -408.9745342722613) translate(-150.41806926514585, 275.6309485453212) translate(401.0, 94.0) translate(10.0, 10.00006103515625)" orgfill="url(#148::SVGID_9_)"/>
<linearGradient transform="translate(-691.5254507698542, 52.22457831334839) translate(-16.467393441228978, -61.43604476150841) translate(-1.8008475280464609, -381.7796759458569) translate(-7.384350479671866, -6.7130458906109425) translate(199.89407561316102, 180.0847528046495) translate(708,319) translate(14.169231994628888, 42.77478060913086) translate(-262.62181823049787, -408.9745342722613) translate(-150.41806926514585, 275.6309485453212) translate(401.0, 94.0) translate(10.0, 10.00006103515625)" gradientTransform="matrix(1 0 0 -1 174.375 719.4551)" x1="334.4951" x2="350.0934" y1="380.2314" gradientUnits="userSpaceOnUse" y2="353.2144" xmlns:xlink="http://www.w3.org/1999/xlink" xlink:type="simple" xlink:actuate="onLoad" id="148::SVGID_10_" xlink:show="other">
<stop stop-opacity="0.15" stop-color="#FFFFFF" offset="0.5758"/>
<stop stop-opacity="0.5" stop-color="#FFFFFF" offset="0.7088"/>
</linearGradient>
<path fill="url(#148::SVGID_10_)" d="M587.271,312.206c-0.016,0.081-0.016,0.158-0.031,0.24c-0.647,2.562-0.011,4.905,0.212,7.233   c-54.342,32.343-117.393,69.779-136.984,81.172h-0.016c-0.24-2.266-1.159-4.375-0.841-6.209c0.024-0.141,0.009-0.459-0.009-0.57   c0.608-0.623,1.405-1.156,1.709-1.331c20.422-12.144,83.39-49.582,135.768-80.569L587.271,312.206z" transform="translate(-691.5254507698542, 52.22457831334839) translate(-16.467393441228978, -61.43604476150841) translate(-1.8008475280464609, -381.7796759458569) translate(-7.384350479671866, -6.7130458906109425) translate(199.89407561316102, 180.0847528046495) translate(708,319) translate(14.169231994628888, 42.77478060913086) translate(-262.62181823049787, -408.9745342722613) translate(-150.41806926514585, 275.6309485453212) translate(401.0, 94.0) translate(10.0, 10.00006103515625)" orgfill="url(#148::SVGID_10_)"/>
<radialGradient transform="translate(-691.5254507698542, 52.22457831334839) translate(-16.467393441228978, -61.43604476150841) translate(-1.8008475280464609, -381.7796759458569) translate(-7.384350479671866, -6.7130458906109425) translate(199.89407561316102, 180.0847528046495) translate(708,319) translate(14.169231994628888, 42.77478060913086) translate(-262.62181823049787, -408.9745342722613) translate(-150.41806926514585, 275.6309485453212) translate(401.0, 94.0) translate(10.0, 10.00006103515625)" gradientTransform="matrix(0.7942 -0.6076 -0.2938 -0.3841 333.8677 578.4092)" gradientUnits="userSpaceOnUse" xmlns:xlink="http://www.w3.org/1999/xlink" xlink:type="simple" r="11.581" cx="381.1143" xlink:actuate="onLoad" cy="215.957" id="148::SVGID_11_" xlink:show="other">
<stop stop-opacity="0.1" stop-color="#FFFFFF" offset="0"/>
<stop stop-opacity="0.35" stop-color="#FFFFFF" offset="0.9924"/>
</radialGradient>
<path fill="url(#148::SVGID_11_)" d="M583.658,259.712c0.208,3.462-2.313,8.043-5.631,10.259l-3.687,2.427   c-3.318,2.219-6.19,1.197-6.413-2.249c-0.208-3.446,2.313-8.04,5.646-10.243l3.671-2.439c1.197-0.783,2.328-1.166,3.302-1.166   C582.303,256.297,583.53,257.493,583.658,259.712z" transform="translate(-691.5254507698542, 52.22457831334839) translate(-16.467393441228978, -61.43604476150841) translate(-1.8008475280464609, -381.7796759458569) translate(-7.384350479671866, -6.7130458906109425) translate(199.89407561316102, 180.0847528046495) translate(708,319) translate(14.169231994628888, 42.77478060913086) translate(-262.62181823049787, -408.9745342722613) translate(-150.41806926514585, 275.6309485453212) translate(401.0, 94.0) translate(10.0, 10.00006103515625)" orgfill="url(#148::SVGID_11_)"/>
<path orgstroke="#000000" orgfill="none" transform="translate(-691.5254507698542, 52.22457831334839) translate(-16.467393441228978, -61.43604476150841) translate(-1.8008475280464609, -381.7796759458569) translate(-7.384350479671866, -6.7130458906109425) translate(199.89407561316102, 180.0847528046495) translate(708,319) translate(14.169231994628888, 42.77478060913086) translate(-262.62181823049787, -408.9745342722613) translate(-150.41806926514585, 275.6309485453212) translate(401.0, 94.0) translate(10.0, 10.00006103515625)" fill="none" d="M442.255,320.234c0.063,0.054,0.133,0.103,0.211,0.149l0.856,0.499   c0.366,0.212,0.769,0.237,1.188-0.04c31.12-20.515,86.388-57.254,141.676-94.031" stroke="#000000" stroke-width="0.25" g2gstroke="#312783"/>
<path orgstroke="#000000" orgfill="none" transform="translate(-691.5254507698542, 52.22457831334839) translate(-16.467393441228978, -61.43604476150841) translate(-1.8008475280464609, -381.7796759458569) translate(-7.384350479671866, -6.7130458906109425) translate(199.89407561316102, 180.0847528046495) translate(708,319) translate(14.169231994628888, 42.77478060913086) translate(-262.62181823049787, -408.9745342722613) translate(-150.41806926514585, 275.6309485453212) translate(401.0, 94.0) translate(10.0, 10.00006103515625)" fill="none" d="M443.778,321.047c0.255,1.107,0.646,2.632,0.932,3.488   c0.875,2.625,1.959,5.457,2.209,8.707s2.926,54.338,2.75,58.168c-0.334,7.25,0.777,8.314,0.777,10.064   c0,1.51-0.363,5.506-0.463,6.57" stroke="#000000" stroke-width="0.25" g2gstroke="#312783"/>
<path orgstroke="#000000" orgfill="none" transform="translate(-691.5254507698542, 52.22457831334839) translate(-16.467393441228978, -61.43604476150841) translate(-1.8008475280464609, -381.7796759458569) translate(-7.384350479671866, -6.7130458906109425) translate(199.89407561316102, 180.0847528046495) translate(708,319) translate(14.169231994628888, 42.77478060913086) translate(-262.62181823049787, -408.9745342722613) translate(-150.41806926514585, 275.6309485453212) translate(401.0, 94.0) translate(10.0, 10.00006103515625)" fill="none" d="M451.169,407.915c7.058-4.223,86.043-51.475,135.768-81.242   c0.465-0.277,0.533-0.34,0.65-0.991c0.156-0.866,0.166-2.394,0.166-3.206c0-2.836-1.099-5.484-0.686-8.442   c2.822-20.114,3.816-40.676,3.611-61.183c-0.078-7.716-0.453-13.587-3.816-23.917c-0.172-0.531-0.318-0.952-0.423-1.362   c-0.106-0.408-0.254-0.76-0.704-1.029l-0.952-0.551c-0.581-0.334-1.218,0.172-1.218,0.172   c-54.811,36.463-109.357,73.034-140.563,93.293c-0.069,0.045-0.135,0.089-0.194,0.134c-0.653,0.482-0.554,1.08-0.356,1.879   c0.196,0.793,0.421,1.588,0.6,2.123c0.875,2.625,1.959,5.457,2.209,8.707s2.926,54.338,2.75,58.168   c-0.334,7.25,0.777,8.314,0.777,10.064c0,1.313-0.277,4.502-0.412,6.015c-0.045,0.511,0.108,0.644,0.43,0.829l1.178,0.67   C450.328,408.244,450.802,408.135,451.169,407.915z" stroke="#000000" stroke-width="0.25" g2gstroke="#312783"/>
</g>
</g>
</g>
</g>
</g>
</g></svg>