<svg xmlns="http://www.w3.org/2000/svg" xmlns:xlink="http://www.w3.org/1999/xlink" xmlns:x="http://ns.adobe.com/Extensibility/1.0/" xmlns:graph="http://ns.adobe.com/Graphs/1.0/" xmlns:i="http://ns.adobe.com/AdobeIllustrator/10.0/" xmlns:etg="http://www.eurotaxglass.com/etg/evd/" etg:dataTimestamp="1541512339925" contentScriptType="text/ecmascript" zoomAndPan="magnify" contentStyleType="text/css" id="Layer_1" enable-background="new 0 0 1841.891 1595.279" version="1.1" xml:space="preserve" width="1841.891px" preserveAspectRatio="xMidYMid meet" viewBox="0 0 1841.891 1595.279" height="1595.279px" x="0px" y="0px"><g xmlns="http://www.w3.org/2000/svg" objecttype="PS" tooltip="#UNDEFINED" id="162">
<g onmouseover="notifyOwner(AGV_OBJECT_MOUSEOVER, '162(PS)')" transform="translate(-9.433746356535266E-6, 3.356933575560106E-7) translate(-35.71980609130861, -13.200809143066408) translate(44.708733184814434, 94.79042849731445) matrix(0.6117410612267968 0 0 0.6117410612267968 0.2921243287958965 0.477310974878083) translate(-92,-34) " onclick="clickZoom(evt); notifyOwner(AGV_OBJECT_MOUSECLICK, '162(PS)')" onmouseout="notifyOwner(AGV_OBJECT_MOUSEOUT, '162(PS)')" tooltip="#UNDEFINED" id="162-Graphic" objecttype="GRAPHIC">
<g zvalue="163">
<g zvalue="36">
<g zvalue="16">
<g>
<path orgstroke="#000000" orgfill="#ffffff" transform="translate(-691.5254507698542, 52.22457831334839) translate(-16.467393441228978, -61.43604476150841) translate(-1.8008475280464609, -381.7796759458569) translate(-10.06956883591647, -4.699132123427603) translate(199.89407561316102, 180.0847528046495) translate(708,319) translate(14.169231994628888, 42.77478060913086) translate(0.0, -1.1783304386921714) translate(-7.855536257947733, -12.17608119981901) translate(-262.62181823049787, -408.9745342722613) translate(-150.41806926514585, 275.6309485453212) translate(401.0, 94.0) translate(10.0, 10.00006103515625)" fill="#ffffff" g2gfill="#ECF5E4" d="M599.101,262.315   c-0.125-0.078-0.218-0.115-0.43-0.24c-0.198-0.121-0.538-0.361-0.537-0.77c0.013-0.412-0.158-0.508-0.158-0.508   c-0.094-0.064-0.162-0.188-0.167-0.336c0,0,0.048-0.125-0.175-0.264c-0.224-0.137-0.547-0.211-0.547-0.211l-0.314-0.012   c-0.236,0.012-0.412-0.188-0.386-0.484c0.013-0.336,0.279-0.686,0.578-0.764c0.237-0.068,0.438,0.059,0.488,0.287   c0,0-0.052,0.115,0.194,0.248c0.242,0.137,0.439,0.326,0.613,0.336c0.175,0.006,0.377-0.291,0.896,0.02   c0.181,0.086,0.45-0.063,0.702,0.012c0.396,0.125,2.345,1.295,2.345,1.295c0.193,0.168,0.332,0.139,0.585,0.043   c0.126-0.047,0.251-0.096,0.376-0.143c0.449-0.166,1.152-0.475,1.343,0.271s0.276,1.154,0.308,1.594   c0.201,2.848-0.331,4.637-1.47,6.113c-0.171,0.221-0.388,0.16-0.665,0c-0.278-0.162-3.876-2.574-4.182-2.789   c-0.307-0.217-0.367-0.355-0.367-0.691s0-1.756,0-2.004s0.093-0.469,0.367-0.598c0,0,0.146-0.049,0.384-0.166   C599.148,262.427,599.243,262.397,599.101,262.315z" stroke="#000000" outline-element="true" stroke-width="0.5" g2gstroke="#312783" stroke-miterlimit="10"/>
<path orgstroke="#000000" orgfill="none" transform="translate(-691.5254507698542, 52.22457831334839) translate(-16.467393441228978, -61.43604476150841) translate(-1.8008475280464609, -381.7796759458569) translate(-10.06956883591647, -4.699132123427603) translate(199.89407561316102, 180.0847528046495) translate(708,319) translate(14.169231994628888, 42.77478060913086) translate(0.0, -1.1783304386921714) translate(-7.855536257947733, -12.17608119981901) translate(-262.62181823049787, -408.9745342722613) translate(-150.41806926514585, 275.6309485453212) translate(401.0, 94.0) translate(10.0, 10.00006103515625)" fill="none" d="M602.536,261.063   c-1.354,0.52-2.743,1.104-3.486,1.42" stroke="#000000" stroke-width="0.25" g2gstroke="#312783" stroke-miterlimit="10"/>
<path stroke-linecap="round" orgstroke="#000000" orgfill="none" transform="translate(-691.5254507698542, 52.22457831334839) translate(-16.467393441228978, -61.43604476150841) translate(-1.8008475280464609, -381.7796759458569) translate(-10.06956883591647, -4.699132123427603) translate(199.89407561316102, 180.0847528046495) translate(708,319) translate(14.169231994628888, 42.77478060913086) translate(0.0, -1.1783304386921714) translate(-7.855536257947733, -12.17608119981901) translate(-262.62181823049787, -408.9745342722613) translate(-150.41806926514585, 275.6309485453212) translate(401.0, 94.0) translate(10.0, 10.00006103515625)" fill="none" stroke-linejoin="round" d="   M603.143,266.55c0.084-0.164,0.159-0.329,0.225-0.496c0.804-2.006,1.1-3.943,0.863-5.369" stroke="#000000" stroke-width="0.25" g2gstroke="#312783" stroke-miterlimit="10"/>
<path stroke-linecap="round" orgstroke="#000000" orgfill="none" transform="translate(-691.5254507698542, 52.22457831334839) translate(-16.467393441228978, -61.43604476150841) translate(-1.8008475280464609, -381.7796759458569) translate(-10.06956883591647, -4.699132123427603) translate(199.89407561316102, 180.0847528046495) translate(708,319) translate(14.169231994628888, 42.77478060913086) translate(0.0, -1.1783304386921714) translate(-7.855536257947733, -12.17608119981901) translate(-262.62181823049787, -408.9745342722613) translate(-150.41806926514585, 275.6309485453212) translate(401.0, 94.0) translate(10.0, 10.00006103515625)" fill="none" stroke-linejoin="round" d="   M598.388,262.983c0.715,0.473,3.843,2.553,4.277,3.012c0.494,0.52,0.66,0.842,0.775,1.244c0.093,0.322,0,0.891,0,1.096   c0,0.146,0,0.324-0.132,0.535" stroke="#000000" stroke-width="0.25" g2gstroke="#312783" stroke-miterlimit="10"/>
<ellipse orgstroke="#000000" stroke="#000000" stroke-linecap="round" transform="translate(-691.5254507698542, 52.22457831334839) translate(-16.467393441228978, -61.43604476150841) translate(-1.8008475280464609, -381.7796759458569) translate(-10.06956883591647, -4.699132123427603) translate(199.89407561316102, 180.0847528046495) translate(708,319) translate(14.169231994628888, 42.77478060913086) translate(0.0, -1.1783304386921714) translate(-7.855536257947733, -12.17608119981901) translate(-262.62181823049787, -408.9745342722613) translate(-150.41806926514585, 275.6309485453212) translate(401.0, 94.0) translate(10.0, 10.00006103515625) matrix(-0.9899 -0.1414 0.1414 -0.9899 1164.9078 613.7172)" stroke-miterlimit="10" orgfill="none" fill="none" stroke-width="0.25" stroke-linejoin="round" cx="604.262" rx="0.186" g2gstroke="#312783" ry="0.871" cy="265.465"/>
<path orgstroke="#000000" orgfill="none" transform="translate(-691.5254507698542, 52.22457831334839) translate(-16.467393441228978, -61.43604476150841) translate(-1.8008475280464609, -381.7796759458569) translate(-10.06956883591647, -4.699132123427603) translate(199.89407561316102, 180.0847528046495) translate(708,319) translate(14.169231994628888, 42.77478060913086) translate(0.0, -1.1783304386921714) translate(-7.855536257947733, -12.17608119981901) translate(-262.62181823049787, -408.9745342722613) translate(-150.41806926514585, 275.6309485453212) translate(401.0, 94.0) translate(10.0, 10.00006103515625)" fill="none" d="M599.327,262.366   c-0.07-0.209-0.155-0.525-0.131-0.676c0.094-0.646,0.628-1.322,1.186-1.51c0.037-0.012,0.377-0.084,0.607,0.051" stroke="#000000" stroke-width="0.25" g2gstroke="#312783" stroke-miterlimit="10"/>
<path orgstroke="#000000" orgfill="none" transform="translate(-691.5254507698542, 52.22457831334839) translate(-16.467393441228978, -61.43604476150841) translate(-1.8008475280464609, -381.7796759458569) translate(-10.06956883591647, -4.699132123427603) translate(199.89407561316102, 180.0847528046495) translate(708,319) translate(14.169231994628888, 42.77478060913086) translate(0.0, -1.1783304386921714) translate(-7.855536257947733, -12.17608119981901) translate(-262.62181823049787, -408.9745342722613) translate(-150.41806926514585, 275.6309485453212) translate(401.0, 94.0) translate(10.0, 10.00006103515625)" fill="none" d="M598.133,261.204   c0.112-0.932,0.595-1.432,1.161-1.549" stroke="#000000" stroke-width="0.25" g2gstroke="#312783" stroke-miterlimit="10"/>
<path orgstroke="#000000" orgfill="none" transform="translate(-691.5254507698542, 52.22457831334839) translate(-16.467393441228978, -61.43604476150841) translate(-1.8008475280464609, -381.7796759458569) translate(-10.06956883591647, -4.699132123427603) translate(199.89407561316102, 180.0847528046495) translate(708,319) translate(14.169231994628888, 42.77478060913086) translate(0.0, -1.1783304386921714) translate(-7.855536257947733, -12.17608119981901) translate(-262.62181823049787, -408.9745342722613) translate(-150.41806926514585, 275.6309485453212) translate(401.0, 94.0) translate(10.0, 10.00006103515625)" fill="none" d="M597.81,260.472   c-0.003-0.035-0.003-0.063-0.001-0.088c0.019-0.336,0.15-0.686,0.45-0.773" stroke="#000000" stroke-width="0.25" g2gstroke="#312783" stroke-miterlimit="10"/>
<path orgstroke="#000000" orgfill="none" transform="translate(-691.5254507698542, 52.22457831334839) translate(-16.467393441228978, -61.43604476150841) translate(-1.8008475280464609, -381.7796759458569) translate(-10.06956883591647, -4.699132123427603) translate(199.89407561316102, 180.0847528046495) translate(708,319) translate(14.169231994628888, 42.77478060913086) translate(0.0, -1.1783304386921714) translate(-7.855536257947733, -12.17608119981901) translate(-262.62181823049787, -408.9745342722613) translate(-150.41806926514585, 275.6309485453212) translate(401.0, 94.0) translate(10.0, 10.00006103515625)" fill="none" d="M597.092,259.995   c-0.387-0.662,0.312-0.836,0.312-0.836" stroke="#000000" stroke-width="0.25" g2gstroke="#312783" stroke-miterlimit="10"/>
</g>
</g>
</g>
</g>
</g>
</g></svg>