<svg xmlns="http://www.w3.org/2000/svg" xmlns:xlink="http://www.w3.org/1999/xlink" xmlns:x="http://ns.adobe.com/Extensibility/1.0/" xmlns:graph="http://ns.adobe.com/Graphs/1.0/" xmlns:i="http://ns.adobe.com/AdobeIllustrator/10.0/" xmlns:etg="http://www.eurotaxglass.com/etg/evd/" etg:dataTimestamp="1539068912893" contentScriptType="text/ecmascript" zoomAndPan="magnify" contentStyleType="text/css" id="Layer_1" enable-background="new 0 0 1841.891 1595.279" version="1.1" xml:space="preserve" width="1841.891px" preserveAspectRatio="xMidYMid meet" viewBox="0 0 1841.891 1595.279" height="1595.279px" x="0px" y="0px"><g xmlns="http://www.w3.org/2000/svg" objecttype="PS" tooltip="#UNDEFINED" id="169">
<g onmouseover="notifyOwner(AGV_OBJECT_MOUSEOVER, '169(PS)')" transform="translate(-9.433746356535266E-6, 3.356933575560106E-7) translate(-35.71980609130861, -13.200809143066408) translate(44.708733184814434, 94.79042849731445) matrix(0.6117410612267968 0 0 0.6117410612267968 0.2921243287958965 0.477310974878083) translate(-92,-34) " onclick="clickZoom(evt); notifyOwner(AGV_OBJECT_MOUSECLICK, '169(PS)')" onmouseout="notifyOwner(AGV_OBJECT_MOUSEOUT, '169(PS)')" tooltip="#UNDEFINED" id="169-Graphic" objecttype="GRAPHIC">
<g zvalue="170">
<g zvalue="44">
<g zvalue="24">
<g>
<g>
<path stroke-linecap="round" orgstroke="#000000" orgfill="#ffffff" transform="translate(-691.5254507698542, 52.22457831334839) translate(-16.467393441228978, -61.43604476150841) translate(-1.8008475280464609, -381.7796759458569) translate(199.89407561316102, 180.0847528046495) translate(708,319) translate(14.169231994628888, 42.77478060913086) translate(-11.225606958067658, -10.986764256832174) translate(10.0, 10.0) translate(-262.62181823049787, -408.9745342722613) translate(-150.41806926514585, 275.6309485453212) translate(401.0, 94.0) translate(10.0, 10.00006103515625)" fill="#ffffff" g2gfill="#ECF5E4" d="M489.462,282.889    c0.872,3.07,2.95,4.082,4.664,4.414c6.273,1.215,11.971-0.256,8.208-7.25c-1.991-3.439-6.089-6.297-9.465-6.514    c-2.011-0.129-3.337,0.707-3.788,2.121l-0.006,0.025c-0.73,2.088-0.362,4.291,0.389,7.203H489.462" stroke="#000000" outline-element="true" stroke-width="0.5" g2gstroke="#312783"/>
<path orgstroke="#000000" orgfill="none" transform="translate(-691.5254507698542, 52.22457831334839) translate(-16.467393441228978, -61.43604476150841) translate(-1.8008475280464609, -381.7796759458569) translate(199.89407561316102, 180.0847528046495) translate(708,319) translate(14.169231994628888, 42.77478060913086) translate(-11.225606958067658, -10.986764256832174) translate(10.0, 10.0) translate(-262.62181823049787, -408.9745342722613) translate(-150.41806926514585, 275.6309485453212) translate(401.0, 94.0) translate(10.0, 10.00006103515625)" fill="none" d="M489.462,282.889    c-0.367-1.291,0.525-2.215,1.979-2.123c1.07,0.071,2.339,0.594,3.289,1.514c3.076,2.982,1.438,5.324-1.568,4.764" stroke="#000000" stroke-width="0.25" g2gstroke="#312783" stroke-miterlimit="10"/>
<path orgstroke="#000000" orgfill="none" transform="translate(-691.5254507698542, 52.22457831334839) translate(-16.467393441228978, -61.43604476150841) translate(-1.8008475280464609, -381.7796759458569) translate(199.89407561316102, 180.0847528046495) translate(708,319) translate(14.169231994628888, 42.77478060913086) translate(-11.225606958067658, -10.986764256832174) translate(10.0, 10.0) translate(-262.62181823049787, -408.9745342722613) translate(-150.41806926514585, 275.6309485453212) translate(401.0, 94.0) translate(10.0, 10.00006103515625)" fill="none" d="M488.87,280.26    c-0.135-1.785,0.996-2.953,3.051-2.82c2.184,0.141,4.961,1.559,6.445,3.773c1.973,2.947,1.759,6.174-1.275,6.455" stroke="#000000" stroke-width="0.25" g2gstroke="#312783" stroke-miterlimit="10"/>
<path orgstroke="#000000" orgfill="none" transform="translate(-691.5254507698542, 52.22457831334839) translate(-16.467393441228978, -61.43604476150841) translate(-1.8008475280464609, -381.7796759458569) translate(199.89407561316102, 180.0847528046495) translate(708,319) translate(14.169231994628888, 42.77478060913086) translate(-11.225606958067658, -10.986764256832174) translate(10.0, 10.0) translate(-262.62181823049787, -408.9745342722613) translate(-150.41806926514585, 275.6309485453212) translate(401.0, 94.0) translate(10.0, 10.00006103515625)" fill="none" d="M498.7770080566406 281.864990234375L501.8970031738281 279.3550109863281" stroke="#000000" stroke-width="0.25" g2gstroke="#312783" stroke-miterlimit="10"/>
<path orgstroke="#000000" orgfill="none" transform="translate(-691.5254507698542, 52.22457831334839) translate(-16.467393441228978, -61.43604476150841) translate(-1.8008475280464609, -381.7796759458569) translate(199.89407561316102, 180.0847528046495) translate(708,319) translate(14.169231994628888, 42.77478060913086) translate(-11.225606958067658, -10.986764256832174) translate(10.0, 10.0) translate(-262.62181823049787, -408.9745342722613) translate(-150.41806926514585, 275.6309485453212) translate(401.0, 94.0) translate(10.0, 10.00006103515625)" fill="none" d="M499.5710144042969 283.85198974609375L503.0320129394531 281.55499267578125" stroke="#000000" stroke-width="0.25" g2gstroke="#312783" stroke-miterlimit="10"/>
<path orgstroke="#000000" orgfill="none" transform="translate(-691.5254507698542, 52.22457831334839) translate(-16.467393441228978, -61.43604476150841) translate(-1.8008475280464609, -381.7796759458569) translate(199.89407561316102, 180.0847528046495) translate(708,319) translate(14.169231994628888, 42.77478060913086) translate(-11.225606958067658, -10.986764256832174) translate(10.0, 10.0) translate(-262.62181823049787, -408.9745342722613) translate(-150.41806926514585, 275.6309485453212) translate(401.0, 94.0) translate(10.0, 10.00006103515625)" fill="none" d="M490.47198486328125 273.9219970703125L490.0570068359375 277.73199462890625" stroke="#000000" stroke-width="0.25" g2gstroke="#312783" stroke-miterlimit="10"/>
<path orgstroke="#000000" orgfill="none" transform="translate(-691.5254507698542, 52.22457831334839) translate(-16.467393441228978, -61.43604476150841) translate(-1.8008475280464609, -381.7796759458569) translate(199.89407561316102, 180.0847528046495) translate(708,319) translate(14.169231994628888, 42.77478060913086) translate(-11.225606958067658, -10.986764256832174) translate(10.0, 10.0) translate(-262.62181823049787, -408.9745342722613) translate(-150.41806926514585, 275.6309485453212) translate(401.0, 94.0) translate(10.0, 10.00006103515625)" fill="none" d="M491.9209899902344 277.4389953613281L493.4119873046875 273.5979919433594" stroke="#000000" stroke-width="0.25" g2gstroke="#312783" stroke-miterlimit="10"/>
<path orgstroke="#000000" orgfill="none" transform="translate(-691.5254507698542, 52.22457831334839) translate(-16.467393441228978, -61.43604476150841) translate(-1.8008475280464609, -381.7796759458569) translate(199.89407561316102, 180.0847528046495) translate(708,319) translate(14.169231994628888, 42.77478060913086) translate(-11.225606958067658, -10.986764256832174) translate(10.0, 10.0) translate(-262.62181823049787, -408.9745342722613) translate(-150.41806926514585, 275.6309485453212) translate(401.0, 94.0) translate(10.0, 10.00006103515625)" fill="none" d="M490.0199890136719 277.7340087890625L490.7019958496094 280.8500061035156" stroke="#000000" stroke-width="0.25" g2gstroke="#312783" stroke-miterlimit="10"/>
<path orgstroke="#000000" orgfill="none" transform="translate(-691.5254507698542, 52.22457831334839) translate(-16.467393441228978, -61.43604476150841) translate(-1.8008475280464609, -381.7796759458569) translate(199.89407561316102, 180.0847528046495) translate(708,319) translate(14.169231994628888, 42.77478060913086) translate(-11.225606958067658, -10.986764256832174) translate(10.0, 10.0) translate(-262.62181823049787, -408.9745342722613) translate(-150.41806926514585, 275.6309485453212) translate(401.0, 94.0) translate(10.0, 10.00006103515625)" fill="none" d="M491.8890075683594 277.4490051269531L491.95599365234375 280.75201416015625" stroke="#000000" stroke-width="0.25" g2gstroke="#312783" stroke-miterlimit="10"/>
<path orgstroke="#000000" orgfill="none" transform="translate(-691.5254507698542, 52.22457831334839) translate(-16.467393441228978, -61.43604476150841) translate(-1.8008475280464609, -381.7796759458569) translate(199.89407561316102, 180.0847528046495) translate(708,319) translate(14.169231994628888, 42.77478060913086) translate(-11.225606958067658, -10.986764256832174) translate(10.0, 10.0) translate(-262.62181823049787, -408.9745342722613) translate(-150.41806926514585, 275.6309485453212) translate(401.0, 94.0) translate(10.0, 10.00006103515625)" fill="none" d="M498.7770080566406 281.864990234375L495.7569885253906 283.4960021972656" stroke="#000000" stroke-width="0.25" g2gstroke="#312783" stroke-miterlimit="10"/>
<path orgstroke="#000000" orgfill="none" transform="translate(-691.5254507698542, 52.22457831334839) translate(-16.467393441228978, -61.43604476150841) translate(-1.8008475280464609, -381.7796759458569) translate(199.89407561316102, 180.0847528046495) translate(708,319) translate(14.169231994628888, 42.77478060913086) translate(-11.225606958067658, -10.986764256832174) translate(10.0, 10.0) translate(-262.62181823049787, -408.9745342722613) translate(-150.41806926514585, 275.6309485453212) translate(401.0, 94.0) translate(10.0, 10.00006103515625)" fill="none" d="M499.5710144042969 283.85198974609375L496.2900085449219 284.6289978027344" stroke="#000000" stroke-width="0.25" g2gstroke="#312783" stroke-miterlimit="10"/>
<path orgstroke="#000000" orgfill="none" transform="translate(-691.5254507698542, 52.22457831334839) translate(-16.467393441228978, -61.43604476150841) translate(-1.8008475280464609, -381.7796759458569) translate(199.89407561316102, 180.0847528046495) translate(708,319) translate(14.169231994628888, 42.77478060913086) translate(-11.225606958067658, -10.986764256832174) translate(10.0, 10.0) translate(-262.62181823049787, -408.9745342722613) translate(-150.41806926514585, 275.6309485453212) translate(401.0, 94.0) translate(10.0, 10.00006103515625)" fill="none" d="M493.391,283.748    c0.874,0.756,1.188,1.824,0.704,2.385c-0.487,0.563-1.59,0.402-2.465-0.354c-0.872-0.756-1.188-1.824-0.701-2.387    C491.415,282.832,492.517,282.99,493.391,283.748z" stroke="#000000" stroke-width="0.25" g2gstroke="#312783" stroke-miterlimit="10"/>
</g>
</g>
</g>
</g>
</g>
</g>
</g></svg>