<svg xmlns="http://www.w3.org/2000/svg" xmlns:xlink="http://www.w3.org/1999/xlink" xmlns:x="http://ns.adobe.com/Extensibility/1.0/" xmlns:graph="http://ns.adobe.com/Graphs/1.0/" xmlns:i="http://ns.adobe.com/AdobeIllustrator/10.0/" xmlns:etg="http://www.eurotaxglass.com/etg/evd/" etg:dataTimestamp="1541512339925" contentScriptType="text/ecmascript" zoomAndPan="magnify" contentStyleType="text/css" id="Layer_1" enable-background="new 0 0 1841.891 1595.279" version="1.1" xml:space="preserve" width="1841.891px" preserveAspectRatio="xMidYMid meet" viewBox="0 0 1841.891 1595.279" height="1595.279px" x="0px" y="0px"><g xmlns="http://www.w3.org/2000/svg" objecttype="PS" tooltip="#UNDEFINED" id="182">
<g onmouseover="notifyOwner(AGV_OBJECT_MOUSEOVER, '182(PS)')" transform="translate(-9.433746356535266E-6, 3.356933575560106E-7) translate(-35.71980609130861, -13.200809143066408) translate(44.708733184814434, 94.79042849731445) matrix(0.6117410612267968 0 0 0.6117410612267968 0.2921243287958965 0.477310974878083) translate(-92,-34) " onclick="clickZoom(evt); notifyOwner(AGV_OBJECT_MOUSECLICK, '182(PS)')" onmouseout="notifyOwner(AGV_OBJECT_MOUSEOUT, '182(PS)')" tooltip="#UNDEFINED" id="182-Graphic" objecttype="GRAPHIC">
<g zvalue="183">
<g zvalue="32">
<g zvalue="29">
<g>
<path stroke-linecap="round" orgstroke="#000000" orgfill="#ffffff" transform="translate(-16.467393441228978, -19.000838586033524) translate(-162.07627752418455, -28.813560448743942) translate(-316.949164936183, -12.605932696325453) translate(-58.14081484389976, -48.93518582694895) translate(16.207627752418375, -385.38137100195) translate(97.24576651451093, 140.46610718762656) translate(781,377) translate(-2.3992265625000186, 12.519657470703123) translate(-7.848694831795342, -16.15907759487277) translate(-5.827521568780526, 0.8325030812544014) translate(-445.3891484710807, -115.71792829435554) translate(0.8325030812543446, 0.0) translate(4.285714285714334, -150.0) translate(445.71428571428567, 237.14285714285705) translate(14.285714285714285, 14.285775320870535)" fill="#ffffff" g2gfill="#ECC35D" stroke-linejoin="round" d="M586.459,271.269   c2.152-1.58,3.58-3.702,4.529-5.549c1.1-2.133-0.375-2.922-1.93-2.512c-1.557,0.416-4.674,2.053-4.674,2.053   s-0.512,0.229-1.061,0.553c0,0-0.393,0.15-0.375,0.635c0.014,0.564,0.08,3.445,0.08,3.445s0.016,0.465,0.385,0.688   c0.373,0.221,1.27,0.74,1.967,0.914C585.98,271.644,586.459,271.269,586.459,271.269z" stroke="#000000" outline-element="true" stroke-width="0.5" g2gstroke="#312783"/>
<path stroke-linecap="round" orgstroke="#000000" orgfill="none" transform="translate(-16.467393441228978, -19.000838586033524) translate(-162.07627752418455, -28.813560448743942) translate(-316.949164936183, -12.605932696325453) translate(-58.14081484389976, -48.93518582694895) translate(16.207627752418375, -385.38137100195) translate(97.24576651451093, 140.46610718762656) translate(781,377) translate(-2.3992265625000186, 12.519657470703123) translate(-7.848694831795342, -16.15907759487277) translate(-5.827521568780526, 0.8325030812544014) translate(-445.3891484710807, -115.71792829435554) translate(0.8325030812543446, 0.0) translate(4.285714285714334, -150.0) translate(445.71428571428567, 237.14285714285705) translate(14.285714285714285, 14.285775320870535)" fill="none" stroke-linejoin="round" d="   M589.018,267.843c-0.021,0.526-0.359,1.133-0.764,1.338c-0.406,0.215-0.717-0.038-0.699-0.564c0.021-0.525,0.363-1.127,0.768-1.339   C588.727,267.063,589.037,267.315,589.018,267.843z" stroke="#000000" stroke-width="0.25" g2gstroke="#312783" stroke-miterlimit="10"/>
<path stroke-linecap="round" orgstroke="#000000" orgfill="none" transform="translate(-16.467393441228978, -19.000838586033524) translate(-162.07627752418455, -28.813560448743942) translate(-316.949164936183, -12.605932696325453) translate(-58.14081484389976, -48.93518582694895) translate(16.207627752418375, -385.38137100195) translate(97.24576651451093, 140.46610718762656) translate(781,377) translate(-2.3992265625000186, 12.519657470703123) translate(-7.848694831795342, -16.15907759487277) translate(-5.827521568780526, 0.8325030812544014) translate(-445.3891484710807, -115.71792829435554) translate(0.8325030812543446, 0.0) translate(4.285714285714334, -150.0) translate(445.71428571428567, 237.14285714285705) translate(14.285714285714285, 14.285775320870535)" fill="none" stroke-linejoin="round" d="   M588.648,267.88c-0.012,0.396-0.268,0.842-0.566,1.004c-0.299,0.155-0.537-0.031-0.521-0.426s0.268-0.842,0.57-1.005   C588.432,267.296,588.666,267.481,588.648,267.88z" stroke="#000000" stroke-width="0.25" g2gstroke="#312783" stroke-miterlimit="10"/>
<path orgstroke="#000000" orgfill="none" stroke-linecap="round" transform="translate(-16.467393441228978, -19.000838586033524) translate(-162.07627752418455, -28.813560448743942) translate(-316.949164936183, -12.605932696325453) translate(-58.14081484389976, -48.93518582694895) translate(16.207627752418375, -385.38137100195) translate(97.24576651451093, 140.46610718762656) translate(781,377) translate(-2.3992265625000186, 12.519657470703123) translate(-7.848694831795342, -16.15907759487277) translate(-5.827521568780526, 0.8325030812544014) translate(-445.3891484710807, -115.71792829435554) translate(0.8325030812543446, 0.0) translate(4.285714285714334, -150.0) translate(445.71428571428567, 237.14285714285705) translate(14.285714285714285, 14.285775320870535)" fill="none" stroke-linejoin="round" d="M590.805,263.649   c-1.557,1.376-2.777,3.072-4.453,4.498" stroke="#000000" stroke-width="0.25" g2gstroke="#312783"/>
<path orgstroke="#000000" orgfill="none" stroke-linecap="round" transform="translate(-16.467393441228978, -19.000838586033524) translate(-162.07627752418455, -28.813560448743942) translate(-316.949164936183, -12.605932696325453) translate(-58.14081484389976, -48.93518582694895) translate(16.207627752418375, -385.38137100195) translate(97.24576651451093, 140.46610718762656) translate(781,377) translate(-2.3992265625000186, 12.519657470703123) translate(-7.848694831795342, -16.15907759487277) translate(-5.827521568780526, 0.8325030812544014) translate(-445.3891484710807, -115.71792829435554) translate(0.8325030812543446, 0.0) translate(4.285714285714334, -150.0) translate(445.71428571428567, 237.14285714285705) translate(14.285714285714285, 14.285775320870535)" fill="none" stroke-linejoin="round" d="M583.084,265.966   c0,0,0.658,0.455,2.363,1.468c1.709,1.015,1.436,3.517,0.457,4.109" stroke="#000000" stroke-width="0.25" g2gstroke="#312783"/>
</g>
</g>
</g>
</g>
</g>
</g></svg>