<svg xmlns="http://www.w3.org/2000/svg" xmlns:xlink="http://www.w3.org/1999/xlink" xmlns:x="http://ns.adobe.com/Extensibility/1.0/" xmlns:graph="http://ns.adobe.com/Graphs/1.0/" xmlns:i="http://ns.adobe.com/AdobeIllustrator/10.0/" xmlns:etg="http://www.eurotaxglass.com/etg/evd/" etg:dataTimestamp="1541512339925" contentScriptType="text/ecmascript" zoomAndPan="magnify" contentStyleType="text/css" id="Layer_1" enable-background="new 0 0 1841.891 1595.279" version="1.1" xml:space="preserve" width="1841.891px" preserveAspectRatio="xMidYMid meet" viewBox="0 0 1841.891 1595.279" height="1595.279px" x="0px" y="0px"><g xmlns="http://www.w3.org/2000/svg" objecttype="PS" tooltip="#UNDEFINED" id="193">
<g onmouseover="notifyOwner(AGV_OBJECT_MOUSEOVER, '193(PS)')" transform="translate(-9.433746356535266E-6, 3.356933575560106E-7) translate(-35.71980609130861, -13.200809143066408) translate(44.708733184814434, 94.79042849731445) matrix(0.6117410612267968 0 0 0.6117410612267968 0.2921243287958965 0.477310974878083) translate(-92,-34) " onclick="clickZoom(evt); notifyOwner(AGV_OBJECT_MOUSECLICK, '193(PS)')" onmouseout="notifyOwner(AGV_OBJECT_MOUSEOUT, '193(PS)')" tooltip="#UNDEFINED" id="193-Graphic" objecttype="GRAPHIC">
<g zvalue="194">
<g zvalue="36">
<g zvalue="23">
<g>
<path stroke-linecap="round" orgstroke="#000000" orgfill="none" transform="translate(-452.08241697799326, -394.12313275004544) translate(160.35401969732243, 38.63952281863192) translate(6.447830958432405, -2.8657026481922685) translate(-12.605932696325453, 183.68644786074248) translate(972,283) translate(-478.1112626953125, -9.244252822875978) translate(59.0, -37.0) translate(572.0, -62.0) translate(10.0, 10.00006103515625)" fill="none" stroke-linejoin="round" d="   M402.036,150.57c0,0,26.119,32.064,36.822,45.053c1.496,1.951,3.166,3.854,4.104,5.4c0.514,0.846,0.92,2.721,0.896,3.725   c-0.1,4.355,0.057,9.477-7.629,17.42c-13.105,13.547-31.784,26.678-57.222,41.363c-23.733,13.703-57.46,29.326-77.063,35.08   c-5.953,1.749-11.863,2.374-17.229,2.374c-9.322,0-16.997-1.889-20.382-3.049c-0.203-0.068-0.413-0.08-0.317-0.588   c0.219-1.16,0.258-2.475,0.197-4.018c-0.186-4.682-7.981-47.1-9.001-55.721c-0.044-0.363-0.087-0.732-0.128-1.105" stroke="#000000" stroke-width="0.25" g2gstroke="#312783" stroke-miterlimit="10"/>
<path orgstroke="#000000" stroke="#000000" d="   M403.188,150.341c2.812,3.508,29.287,36.4,38.392,47.381c1.43,1.725,1.994,2.262,2.563,2.998c0.182,0.236,0.568,0.881,0.613,1.115   c1.125,5.877,0.57,12.525-7.711,21.119c-15.377,15.957-36.715,30.086-57.25,41.941c-24.469,14.127-58.34,29.17-77.532,34.803   c-18.329,5.381-35.505,0.322-39.11-0.991c-0.392-0.143-0.417-0.162-0.358-0.539c0.178-1.143,0.241-2.42,0.183-3.918   c-0.186-4.682-8.207-47.1-9.227-55.721c-0.035-0.297-0.07-0.596-0.104-0.9s-0.038-0.342,0.232-0.502l0.62-0.361   c0.268-0.154,0.641-0.395,1.005-0.508c34.416-10.461,122.301-58.92,146.035-85.244c0.136-0.234,0.424-0.404,0.652-0.537   l0.502-0.293C402.944,150.039,403.062,150.183,403.188,150.341z" outline-element="true" enable-background="new    " transform="translate(-452.08241697799326, -394.12313275004544) translate(160.35401969732243, 38.63952281863192) translate(6.447830958432405, -2.8657026481922685) translate(-12.605932696325453, 183.68644786074248) translate(972,283) translate(-478.1112626953125, -9.244252822875978) translate(59.0, -37.0) translate(572.0, -62.0) translate(10.0, 10.00006103515625)" stroke-miterlimit="10" orgfill="#ffffff" fill="#ffffff" stroke-width="0.5" g2gfill="#0096C8" opacity="0.6" g2gstroke="#312783"/>
<linearGradient transform="translate(-452.08241697799326, -394.12313275004544) translate(160.35401969732243, 38.63952281863192) translate(6.447830958432405, -2.8657026481922685) translate(-12.605932696325453, 183.68644786074248) translate(972,283) translate(-478.1112626953125, -9.244252822875978) translate(59.0, -37.0) translate(572.0, -62.0) translate(10.0, 10.00006103515625)" gradientTransform="matrix(1 0 0 -1 0 595.28)" x1="217.6523" x2="475.8494" y1="369.1535" gradientUnits="userSpaceOnUse" y2="369.1535" xmlns:xlink="http://www.w3.org/1999/xlink" xlink:type="simple" xlink:actuate="onLoad" id="181::SVGID_23_" xlink:show="other">
<stop stop-opacity="0.18" stop-color="#FFFFFF" offset="0.0848"/>
<stop stop-opacity="0.39" stop-color="#FFFFFF" offset="0.2846"/>
<stop stop-opacity="0.64" stop-color="#FFFFFF" offset="0.4055"/>
<stop stop-opacity="0.21" stop-color="#FFFFFF" offset="0.6061"/>
<stop stop-opacity="0.5101" stop-color="#FFFFFF" offset="0.7147"/>
<stop stop-opacity="0.65" stop-color="#FFFFFF" offset="0.779"/>
<stop stop-opacity="0.16" stop-color="#FFFFFF" offset="0.9302"/>
<stop stop-opacity="0.19" stop-color="#FFFFFF" offset="0.9879"/>
</linearGradient>
<path orgfill="url(#181::SVGID_23_)" enable-background="new    " transform="translate(-452.08241697799326, -394.12313275004544) translate(160.35401969732243, 38.63952281863192) translate(6.447830958432405, -2.8657026481922685) translate(-12.605932696325453, 183.68644786074248) translate(972,283) translate(-478.1112626953125, -9.244252822875978) translate(59.0, -37.0) translate(572.0, -62.0) translate(10.0, 10.00006103515625)" fill="url(#181::SVGID_23_)" opacity="0.8" d="M444.143,200.718c-0.57-0.738-1.131-1.27-2.561-3   c-9.1-10.979-35.581-43.869-38.39-47.379c-0.07-0.09-0.15-0.18-0.25-0.211v0.01c-19.03,25.611-114.72,78.941-149.25,87.131   c-0.08,0.08-0.07,0.16-0.04,0.359c0.03,0.301,0.07,0.602,0.1,0.9c1.021,8.621,9.04,51.041,9.23,55.721   c0.06,1.5-0.01,2.779-0.19,3.92c-0.05,0.379-0.029,0.4,0.36,0.539c3.61,1.311,20.78,6.372,39.11,0.991   c19.199-5.629,53.069-20.68,77.54-34.799c20.529-11.861,41.869-25.99,57.25-41.951c8.279-8.59,8.83-15.24,7.709-21.119   C444.711,201.599,444.332,200.958,444.143,200.718z"/>
<path stroke-linecap="round" orgstroke="#000000" orgfill="none" transform="translate(-452.08241697799326, -394.12313275004544) translate(160.35401969732243, 38.63952281863192) translate(6.447830958432405, -2.8657026481922685) translate(-12.605932696325453, 183.68644786074248) translate(972,283) translate(-478.1112626953125, -9.244252822875978) translate(59.0, -37.0) translate(572.0, -62.0) translate(10.0, 10.00006103515625)" fill="none" stroke-linejoin="round" d="   M402.944,150.14c-19.03,25.611-114.728,78.938-149.255,87.127" stroke="#000000" stroke-width="0.25" g2gstroke="#312783" stroke-miterlimit="10"/>
<path stroke-linecap="round" orgstroke="#000000" orgfill="none" transform="translate(-452.08241697799326, -394.12313275004544) translate(160.35401969732243, 38.63952281863192) translate(6.447830958432405, -2.8657026481922685) translate(-12.605932696325453, 183.68644786074248) translate(972,283) translate(-478.1112626953125, -9.244252822875978) translate(59.0, -37.0) translate(572.0, -62.0) translate(10.0, 10.00006103515625)" fill="none" stroke-linejoin="round" d="   M400.239,159.443c-11.296,11.172-32.22,25.59-55.165,39.219c-22.979,13.65-47.983,26.512-67.374,34.533   c-5.197,2.086-9.022,4.225-7.632,10.898c1.391,6.676,8.744,36.133,10.569,40.238c2.479,5.576,8.577,11.383,22.706,7.02   c17.18-5.305,41.063-15.162,63.492-27.738c1.108-0.621,1.51-1.254,1.88-3.387c0.371-2.133,0.741-4.59,4.635-6.723   c3.895-2.131,6.756-0.693,7.719-0.137c0.963,0.555,2.227,0.453,3.441-0.303c12.706-7.893,25.56-16.35,36.799-25.535   c2.253-1.842,8.099-6.965,11.146-10.74c7.865-9.744,3.477-17.893,1.021-21.555c-2.457-3.662-25.555-32.238-27.619-34.486   C403.795,158.5,401.461,158.195,400.239,159.443z" stroke="#000000" stroke-width="0.25" g2gstroke="#312783" stroke-miterlimit="10"/>
<path stroke-linecap="round" orgstroke="#000000" orgfill="none" transform="translate(-452.08241697799326, -394.12313275004544) translate(160.35401969732243, 38.63952281863192) translate(6.447830958432405, -2.8657026481922685) translate(-12.605932696325453, 183.68644786074248) translate(972,283) translate(-478.1112626953125, -9.244252822875978) translate(59.0, -37.0) translate(572.0, -62.0) translate(10.0, 10.00006103515625)" fill="none" stroke-linejoin="round" d="   M403.188,150.341c2.812,3.508,29.287,36.4,38.392,47.381c1.43,1.725,1.994,2.262,2.563,2.998c0.182,0.236,0.568,0.881,0.613,1.115   c1.125,5.877,0.57,12.525-7.711,21.119c-15.377,15.957-36.715,30.086-57.25,41.941c-24.469,14.127-58.34,29.17-77.532,34.803   c-18.329,5.381-35.505,0.322-39.11-0.991c-0.392-0.143-0.417-0.162-0.358-0.539c0.178-1.143,0.241-2.42,0.183-3.918   c-0.186-4.682-8.207-47.1-9.227-55.721c-0.035-0.297-0.07-0.596-0.104-0.9s-0.038-0.342,0.232-0.502l0.62-0.361   c0.268-0.154,0.641-0.395,1.005-0.508c34.416-10.461,122.301-58.92,146.035-85.244c0.136-0.234,0.424-0.404,0.652-0.537   l0.502-0.293C402.944,150.039,403.062,150.183,403.188,150.341z" stroke="#000000" stroke-width="0.25" g2gstroke="#312783" stroke-miterlimit="10"/>
</g>
</g>
</g>
</g>
</g>
</g></svg>