<svg xmlns="http://www.w3.org/2000/svg" xmlns:xlink="http://www.w3.org/1999/xlink" xmlns:x="http://ns.adobe.com/Extensibility/1.0/" xmlns:graph="http://ns.adobe.com/Graphs/1.0/" xmlns:i="http://ns.adobe.com/AdobeIllustrator/10.0/" xmlns:etg="http://www.eurotaxglass.com/etg/evd/" etg:dataTimestamp="1541512339925" contentScriptType="text/ecmascript" zoomAndPan="magnify" contentStyleType="text/css" id="Layer_1" enable-background="new 0 0 1841.891 1595.279" version="1.1" xml:space="preserve" width="1841.891px" preserveAspectRatio="xMidYMid meet" viewBox="0 0 1841.891 1595.279" height="1595.279px" x="0px" y="0px"><g xmlns="http://www.w3.org/2000/svg" objecttype="PS" tooltip="#UNDEFINED" id="204">
<g onmouseover="notifyOwner(AGV_OBJECT_MOUSEOVER, '204(PS)')" transform="translate(-9.433746356535266E-6, 3.356933575560106E-7) translate(-35.71980609130861, -13.200809143066408) translate(44.708733184814434, 94.79042849731445) matrix(0.6117410612267968 0 0 0.6117410612267968 0.2921243287958965 0.477310974878083) translate(-92,-34) " onclick="clickZoom(evt); notifyOwner(AGV_OBJECT_MOUSECLICK, '204(PS)')" onmouseout="notifyOwner(AGV_OBJECT_MOUSEOUT, '204(PS)')" tooltip="#UNDEFINED" id="204-Graphic" objecttype="GRAPHIC">
<g zvalue="205">
<g zvalue="57">
<g zvalue="54">
<g>
<path stroke-linecap="round" orgstroke="#000000" orgfill="#ffffff" transform="translate(-452.08241697799326, -394.12313275004544) translate(160.35401969732243, 38.63952281863192) translate(-0.5526333407535731, 0.0) translate(-16.579000222607647, -19.894800267129085) translate(-12.605932696325453, 183.68644786074248) translate(972,283) translate(-478.1112626953125, -9.244252822875978) translate(-287.9539357011647, 68.9637577099428) translate(15.72857631981151, 37.50660507031978) translate(59.0, -37.0) translate(572.0, -62.0) translate(10.0, 10.00006103515625)" fill="#ffffff" g2gfill="#ECC35D" d="M809.08,285.525   c0,1.334-0.893,20.393-1.969,23.116c-0.24,0.604,0.041,1.363-0.213,1.926c-0.164,0.359-0.328,0.709-0.496,1.049   c-0.105,0.215-0.145,0.287-0.346,0.17l-0.258-0.148c-0.164-0.061-0.295,0.012-0.369,0.217c-0.072,0.199-0.129,0.326-0.211,0.467   c-0.148,0.258-0.326,0.223-0.596,0.068l-0.199-0.115c-0.191-0.111-0.197-0.111-0.285-0.412c-0.463-1.619-1.111-3.75-1.67-5.025   c-0.184-0.441-0.428-0.277-0.633-0.041c-0.035,0.041-0.068,0.086-0.104,0.131c-3.609,4.721-7.797,8.783-8.455,9.498   c-16.406,17.787-36.584,30.109-56.664,41.699l-1.059,0.611c-23.91,13.805-50.244,26.387-70.053,32.201   c-3.311,0.971-7.98,1.861-11.496,2.648c-8.596,1.877-9.699,3.926-16.807,14.617c-0.256,0.385-0.727,0.621-1.051,0.77   c-0.246,0.113-0.457,0.254-0.568,0.404c-0.346,0.465-0.824,0.932-1.363,1.041l-0.309,0.072   c-16.559,3.742-28.654,4.885-38.211,4.336c-0.229-0.014-0.688-0.029-0.916-0.045c-8.244-0.512-12.33-2.176-16.369-5.318   c-4.172-3.246-5.766-13.945-6.381-16.955c-2.971-14.529-10.563-29.313-20.281-41.773c0,0-0.072-0.131,0.092-0.301   c0.162-0.17,3.025-3.078,3.588-3.691c0.625-0.68,2.018-2.086,3.547-3.615c1.299-1.301,8.631-9.441,12.98-14.93   c0.77-0.971,1.768-2.33,1.979-2.611c0.213-0.281,0.666-0.617,0.84-0.717c0.104-0.061,0.422-0.242,0.656-0.377   c0.154-0.088,0.342-0.1,0.52,0.021c1.029,0.691,2.326,1.428,3.973,2.186c7.18,3.303,12.623,6.098,28.609,6.559   c11.24,0.326,18.809-2.443,25.135-4.182c0.371-0.102,0.781-0.219,1.227-0.352c0.291-0.088,0.377-0.127,0.32-0.383   c-0.205-0.922-0.41-1.756-0.527-2.217c-0.088-0.346-0.162-0.449,0.248-0.648l4.813-2.779c0.176-0.102,0.33-0.113,0.539,0.008   l0.332,0.189c0.314,0.182,0.346,0.369,0.393,0.615c0.387,2.1,2.152,11.26,4.029,14.68c0.811,1.48,1.859,2.707,3.014,3.639   l0.125,0.109c1.58,0.977,3.27,1.424,4.773,1.252c1.662-0.191,2.795-0.717,3.777-1.055c20.027-6.764,44.738-19.975,64.41-31.334   c18.762-10.83,38.326-23.604,53.227-37.934c4.055-3.898,4.338-4.652,4.719-11.469c0.236-4.238-0.467-15.697-0.629-18.258   c-0.031-0.492-0.057-0.465,0.406-0.762l2.465-1.424c0.18-0.104,0.246-0.262,0.156-0.588c-1.869-6.73-4.178-13.324-8.246-18.729   c-0.121-0.162-0.234-0.313,0.094-0.625c0.84-0.799,2.791-2.963,3.295-3.512c0.625-0.68,7.398-10.275,11.746-15.764   c0.77-0.971,1.768-2.33,1.98-2.611c0.162-0.215,0.365-0.406,0.609-0.547c0.264-0.152,0.43-0.188,0.607,0.037   c3.502,4.406,5.914,17.486,6.586,23.947c0.008,0.063,0.031,0.35,0.031,0.35c0.174,1.26,1.283,4.65,1.283,6.109   c0,1.461,1.037,10.113,2.428,13.484c1.391,3.373,4.451,9.076,5.703,12.344c1.25,3.268,1.217,9.666,1.217,12.516   C808.818,269.72,809.018,278.964,809.08,285.525z" stroke="#000000" outline-element="true" stroke-width="0.5" g2gstroke="#312783" stroke-miterlimit="10"/>
<path stroke-linecap="round" orgstroke="#000000" orgfill="none" transform="translate(-452.08241697799326, -394.12313275004544) translate(160.35401969732243, 38.63952281863192) translate(-0.5526333407535731, 0.0) translate(-16.579000222607647, -19.894800267129085) translate(-12.605932696325453, 183.68644786074248) translate(972,283) translate(-478.1112626953125, -9.244252822875978) translate(-287.9539357011647, 68.9637577099428) translate(15.72857631981151, 37.50660507031978) translate(59.0, -37.0) translate(572.0, -62.0) translate(10.0, 10.00006103515625)" fill="none" stroke-linejoin="round" d="   M574.139,325.359c0.594,0.566,1.34,1.121,2.27,1.656c3.6,2.078,17.648,9.711,31.592,9.92c12.168,0.184,16.113-1.658,21.939-3.244   c4.133-1.125,8.172-2.342,11.93-3.547" stroke="#000000" stroke-width="0.25" g2gstroke="#312783" stroke-miterlimit="10"/>
<path stroke-linecap="round" orgstroke="#000000" orgfill="none" transform="translate(-452.08241697799326, -394.12313275004544) translate(160.35401969732243, 38.63952281863192) translate(-0.5526333407535731, 0.0) translate(-16.579000222607647, -19.894800267129085) translate(-12.605932696325453, 183.68644786074248) translate(972,283) translate(-478.1112626953125, -9.244252822875978) translate(-287.9539357011647, 68.9637577099428) translate(15.72857631981151, 37.50660507031978) translate(59.0, -37.0) translate(572.0, -62.0) translate(10.0, 10.00006103515625)" fill="none" stroke-linejoin="round" d="   M574.877,324.918c1.145,0.92,2.76,1.928,5.047,2.979c7.18,3.303,12.623,6.098,28.609,6.559c11.24,0.324,18.809-2.443,25.135-4.182   c1.711-0.471,4.148-1.242,7.043-2.213" stroke="#000000" stroke-width="0.25" g2gstroke="#312783" stroke-miterlimit="10"/>
<path stroke-linecap="round" orgstroke="#000000" orgfill="none" transform="translate(-452.08241697799326, -394.12313275004544) translate(160.35401969732243, 38.63952281863192) translate(-0.5526333407535731, 0.0) translate(-16.579000222607647, -19.894800267129085) translate(-12.605932696325453, 183.68644786074248) translate(972,283) translate(-478.1112626953125, -9.244252822875978) translate(-287.9539357011647, 68.9637577099428) translate(15.72857631981151, 37.50660507031978) translate(59.0, -37.0) translate(572.0, -62.0) translate(10.0, 10.00006103515625)" fill="none" stroke-linejoin="round" d="   M645.41,344.707c0.854,1.219,3.127,2.846,7.115,2.357c3.986-0.486,6.107-1.139,7.738-1.699   c20.027-6.764,44.738-19.975,64.41-31.334c18.762-10.83,38.326-23.604,53.227-37.934c4.055-3.898,5.537-7.271,6.064-12.033   c0.721-6.5-0.229-23.07-0.229-23.07" stroke="#000000" stroke-width="0.25" g2gstroke="#312783" stroke-miterlimit="10"/>
<path stroke-linecap="round" orgstroke="#000000" orgfill="none" transform="translate(-452.08241697799326, -394.12313275004544) translate(160.35401969732243, 38.63952281863192) translate(-0.5526333407535731, 0.0) translate(-16.579000222607647, -19.894800267129085) translate(-12.605932696325453, 183.68644786074248) translate(972,283) translate(-478.1112626953125, -9.244252822875978) translate(-287.9539357011647, 68.9637577099428) translate(15.72857631981151, 37.50660507031978) translate(59.0, -37.0) translate(572.0, -62.0) translate(10.0, 10.00006103515625)" fill="none" stroke-linejoin="round" d="   M583.508,349.859c2.131,0.863,4.992,1.42,9.082,2.027c7.277,1.08,26.996,2.664,48.385-6.078" stroke="#000000" stroke-width="0.25" g2gstroke="#312783" stroke-miterlimit="10"/>
<ellipse orgstroke="#000000" stroke="#000000" stroke-linecap="round" transform="translate(-452.08241697799326, -394.12313275004544) translate(160.35401969732243, 38.63952281863192) translate(-0.5526333407535731, 0.0) translate(-16.579000222607647, -19.894800267129085) translate(-12.605932696325453, 183.68644786074248) translate(972,283) translate(-478.1112626953125, -9.244252822875978) translate(-287.9539357011647, 68.9637577099428) translate(15.72857631981151, 37.50660507031978) translate(59.0, -37.0) translate(572.0, -62.0) translate(10.0, 10.00006103515625)" stroke-miterlimit="10" orgfill="none" fill="none" stroke-width="0.25" stroke-linejoin="round" cx="635.258" rx="1.738" g2gstroke="#312783" cy="373.859" ry="1.738"/>
<ellipse orgstroke="#000000" stroke="#000000" stroke-linecap="round" transform="translate(-452.08241697799326, -394.12313275004544) translate(160.35401969732243, 38.63952281863192) translate(-0.5526333407535731, 0.0) translate(-16.579000222607647, -19.894800267129085) translate(-12.605932696325453, 183.68644786074248) translate(972,283) translate(-478.1112626953125, -9.244252822875978) translate(-287.9539357011647, 68.9637577099428) translate(15.72857631981151, 37.50660507031978) translate(59.0, -37.0) translate(572.0, -62.0) translate(10.0, 10.00006103515625) matrix(-0.1684 0.9857 -0.9857 -0.1684 1212.8755 -472.6805)" stroke-miterlimit="10" orgfill="none" fill="none" stroke-width="0.25" stroke-linejoin="round" cx="805.825" rx="1.999" g2gstroke="#312783" ry="0.626" cy="275.278"/>
<path stroke-linecap="round" orgstroke="#000000" orgfill="none" transform="translate(-452.08241697799326, -394.12313275004544) translate(160.35401969732243, 38.63952281863192) translate(-0.5526333407535731, 0.0) translate(-16.579000222607647, -19.894800267129085) translate(-12.605932696325453, 183.68644786074248) translate(972,283) translate(-478.1112626953125, -9.244252822875978) translate(-287.9539357011647, 68.9637577099428) translate(15.72857631981151, 37.50660507031978) translate(59.0, -37.0) translate(572.0, -62.0) translate(10.0, 10.00006103515625)" fill="none" stroke-linejoin="round" d="   M790.5,259.33c4.543-2.523,11.879-13.799,10.889-18.336" stroke="#000000" stroke-width="0.25" g2gstroke="#312783" stroke-miterlimit="10"/>
<path stroke-linecap="round" orgstroke="#000000" orgfill="none" transform="translate(-452.08241697799326, -394.12313275004544) translate(160.35401969732243, 38.63952281863192) translate(-0.5526333407535731, 0.0) translate(-16.579000222607647, -19.894800267129085) translate(-12.605932696325453, 183.68644786074248) translate(972,283) translate(-478.1112626953125, -9.244252822875978) translate(-287.9539357011647, 68.9637577099428) translate(15.72857631981151, 37.50660507031978) translate(59.0, -37.0) translate(572.0, -62.0) translate(10.0, 10.00006103515625)" fill="none" stroke-linejoin="round" d="   M595.713,387.508c-1.377-7.529-9.195-31.223-19.08-44.654c-2.688-3.65-5.387-7.145-8.127-10.465" stroke="#000000" stroke-width="0.25" g2gstroke="#312783" stroke-miterlimit="10"/>
<path stroke-linecap="round" orgstroke="#000000" orgfill="none" transform="translate(-452.08241697799326, -394.12313275004544) translate(160.35401969732243, 38.63952281863192) translate(-0.5526333407535731, 0.0) translate(-16.579000222607647, -19.894800267129085) translate(-12.605932696325453, 183.68644786074248) translate(972,283) translate(-478.1112626953125, -9.244252822875978) translate(-287.9539357011647, 68.9637577099428) translate(15.72857631981151, 37.50660507031978) translate(59.0, -37.0) translate(572.0, -62.0) translate(10.0, 10.00006103515625)" fill="none" stroke-linejoin="round" d="   M790.496,199.085c3.857,4.664,6.48,20.918,6.48,25.412c0,0.533-0.174,1.328-0.336,1.748c-2.225,5.762-5.389,10.707-8.793,14.896   c-0.334,0.412-0.512,0.371-0.898,0.148l-2.592-1.492c-0.377-0.219-0.73-0.176-1.031,0l-1.998,1.154" stroke="#000000" stroke-width="0.25" g2gstroke="#312783" stroke-miterlimit="10"/>
<path stroke-linecap="round" orgstroke="#000000" orgfill="none" transform="translate(-452.08241697799326, -394.12313275004544) translate(160.35401969732243, 38.63952281863192) translate(-0.5526333407535731, 0.0) translate(-16.579000222607647, -19.894800267129085) translate(-12.605932696325453, 183.68644786074248) translate(972,283) translate(-478.1112626953125, -9.244252822875978) translate(-287.9539357011647, 68.9637577099428) translate(15.72857631981151, 37.50660507031978) translate(59.0, -37.0) translate(572.0, -62.0) translate(10.0, 10.00006103515625)" fill="none" stroke-linejoin="round" d="   M640.814,323.145l-3.801,2.195c-0.346,0.199-0.234,0.336,0.045,0.496l3.428,1.977c0.262,0.15,0.365,0.277,0.469,0.514   c0.162,0.371,0.352,0.723,0.555,1.074c0.418,0.725,0.771,1.695,0.771,3.086s-0.348,5.84,2.154,10.568   c2.504,4.729,9.67,13.879,26.289,9.15c20.029-6.762,45.199-19.176,64.871-30.535c18.762-10.83,38.324-23.604,53.227-37.934   c2.912-2.799,4.727-7.729,2.688-13.197c-2.039-5.471-4.039-5.42-4.039-16.029c0-3.727,0.791-7.51,0.869-8.352   c0.078-0.869,0.086-1.49-0.053-1.941c-0.09-0.285-0.244-0.742-0.324-0.98" stroke="#000000" stroke-width="0.25" g2gstroke="#312783" stroke-miterlimit="10"/>
<path stroke-linecap="round" orgstroke="#000000" orgfill="none" transform="translate(-452.08241697799326, -394.12313275004544) translate(160.35401969732243, 38.63952281863192) translate(-0.5526333407535731, 0.0) translate(-16.579000222607647, -19.894800267129085) translate(-12.605932696325453, 183.68644786074248) translate(972,283) translate(-478.1112626953125, -9.244252822875978) translate(-287.9539357011647, 68.9637577099428) translate(15.72857631981151, 37.50660507031978) translate(59.0, -37.0) translate(572.0, -62.0) translate(10.0, 10.00006103515625)" fill="none" stroke-linejoin="round" d="   M634.854,325.518c0,0-0.209,0.18,0.041,0.324c0.137,0.08,1.531,0.883,2.752,1.586c0.283,0.164,0.527,0.264,0.051,0.416   c-1.211,0.385-2.355,0.74-3.195,0.994" stroke="#000000" stroke-width="0.25" g2gstroke="#312783" stroke-miterlimit="10"/>
<path stroke-linecap="round" orgstroke="#000000" orgfill="none" transform="translate(-452.08241697799326, -394.12313275004544) translate(160.35401969732243, 38.63952281863192) translate(-0.5526333407535731, 0.0) translate(-16.579000222607647, -19.894800267129085) translate(-12.605932696325453, 183.68644786074248) translate(972,283) translate(-478.1112626953125, -9.244252822875978) translate(-287.9539357011647, 68.9637577099428) translate(15.72857631981151, 37.50660507031978) translate(59.0, -37.0) translate(572.0, -62.0) translate(10.0, 10.00006103515625)" fill="none" stroke-linejoin="round" d="   M648.055,341.826c1.867,1.51,4.012,2.246,5.871,2.031c1.662-0.191,2.795-0.717,3.775-1.055   c20.027-6.764,44.738-19.975,64.41-31.334c18.762-10.83,38.326-23.604,53.227-37.934c4.055-3.898,4.338-4.65,4.719-11.469   c0.268-4.783-0.662-18.771-0.662-18.771" stroke="#000000" stroke-width="0.25" g2gstroke="#312783" stroke-miterlimit="10"/>
<path stroke-linecap="round" orgstroke="#000000" orgfill="none" transform="translate(-452.08241697799326, -394.12313275004544) translate(160.35401969732243, 38.63952281863192) translate(-0.5526333407535731, 0.0) translate(-16.579000222607647, -19.894800267129085) translate(-12.605932696325453, 183.68644786074248) translate(972,283) translate(-478.1112626953125, -9.244252822875978) translate(-287.9539357011647, 68.9637577099428) translate(15.72857631981151, 37.50660507031978) translate(59.0, -37.0) translate(572.0, -62.0) translate(10.0, 10.00006103515625)" fill="none" stroke-linejoin="round" d="   M788.389,245.425c4.605-4.168,8.396-10.283,11.018-16.988" stroke="#000000" stroke-width="0.25" g2gstroke="#312783" stroke-miterlimit="10"/>
<path stroke-linecap="round" orgstroke="#000000" orgfill="none" transform="translate(-452.08241697799326, -394.12313275004544) translate(160.35401969732243, 38.63952281863192) translate(-0.5526333407535731, 0.0) translate(-16.579000222607647, -19.894800267129085) translate(-12.605932696325453, 183.68644786074248) translate(972,283) translate(-478.1112626953125, -9.244252822875978) translate(-287.9539357011647, 68.9637577099428) translate(15.72857631981151, 37.50660507031978) translate(59.0, -37.0) translate(572.0, -62.0) translate(10.0, 10.00006103515625)" fill="none" stroke-linejoin="round" d="   M798.176,222.75c0.148,1.729-0.086,3.875-0.18,4.145c-1.178,3.355-2.635,5.939-4.258,8.563c-1.773,2.861-3.746,5.451-5.775,7.779   l-3.832-2.209c-0.406-0.232-0.613-0.113-0.848,0.023l-3.512,2.027c-0.238,0.137-0.377,0.217-0.641,0.016l-0.584-0.336" stroke="#000000" stroke-width="0.25" g2gstroke="#312783" stroke-miterlimit="10"/>
<path orgstroke="#000000" orgfill="none" transform="translate(-452.08241697799326, -394.12313275004544) translate(160.35401969732243, 38.63952281863192) translate(-0.5526333407535731, 0.0) translate(-16.579000222607647, -19.894800267129085) translate(-12.605932696325453, 183.68644786074248) translate(972,283) translate(-478.1112626953125, -9.244252822875978) translate(-287.9539357011647, 68.9637577099428) translate(15.72857631981151, 37.50660507031978) translate(59.0, -37.0) translate(572.0, -62.0) translate(10.0, 10.00006103515625)" fill="none" d="M777.285,221.248   c0.059,0.426,0.389,0.885,0.734,1.025c0.346,0.139,0.578-0.094,0.518-0.52s-0.389-0.885-0.734-1.025   S777.225,220.822,777.285,221.248z" stroke="#000000" stroke-width="0.25" g2gstroke="#312783" stroke-miterlimit="10"/>
<path orgstroke="#000000" orgfill="none" transform="translate(-452.08241697799326, -394.12313275004544) translate(160.35401969732243, 38.63952281863192) translate(-0.5526333407535731, 0.0) translate(-16.579000222607647, -19.894800267129085) translate(-12.605932696325453, 183.68644786074248) translate(972,283) translate(-478.1112626953125, -9.244252822875978) translate(-287.9539357011647, 68.9637577099428) translate(15.72857631981151, 37.50660507031978) translate(59.0, -37.0) translate(572.0, -62.0) translate(10.0, 10.00006103515625)" fill="none" d="M779.727,228.185   c0.061,0.426,0.389,0.885,0.734,1.025c0.346,0.139,0.578-0.094,0.518-0.52s-0.389-0.885-0.734-1.025   S779.666,227.759,779.727,228.185z" stroke="#000000" stroke-width="0.25" g2gstroke="#312783" stroke-miterlimit="10"/>
<path orgstroke="#000000" orgfill="none" transform="translate(-452.08241697799326, -394.12313275004544) translate(160.35401969732243, 38.63952281863192) translate(-0.5526333407535731, 0.0) translate(-16.579000222607647, -19.894800267129085) translate(-12.605932696325453, 183.68644786074248) translate(972,283) translate(-478.1112626953125, -9.244252822875978) translate(-287.9539357011647, 68.9637577099428) translate(15.72857631981151, 37.50660507031978) translate(59.0, -37.0) translate(572.0, -62.0) translate(10.0, 10.00006103515625)" fill="none" d="M782.17,235.123   c0.059,0.426,0.389,0.885,0.734,1.025c0.346,0.139,0.578-0.094,0.518-0.52s-0.389-0.885-0.734-1.025   S782.109,234.697,782.17,235.123z" stroke="#000000" stroke-width="0.25" g2gstroke="#312783" stroke-miterlimit="10"/>
<path stroke-linecap="round" orgstroke="#000000" orgfill="none" transform="translate(-452.08241697799326, -394.12313275004544) translate(160.35401969732243, 38.63952281863192) translate(-0.5526333407535731, 0.0) translate(-16.579000222607647, -19.894800267129085) translate(-12.605932696325453, 183.68644786074248) translate(972,283) translate(-478.1112626953125, -9.244252822875978) translate(-287.9539357011647, 68.9637577099428) translate(15.72857631981151, 37.50660507031978) translate(59.0, -37.0) translate(572.0, -62.0) translate(10.0, 10.00006103515625)" fill="none" stroke-linejoin="round" d="   M691.893,353.742c-0.137,0.969-0.885,2.012-1.668,2.33c-0.787,0.318-1.316-0.211-1.178-1.182c0.137-0.969,0.883-2.012,1.67-2.33   C691.502,352.244,692.029,352.771,691.893,353.742z" stroke="#000000" stroke-width="0.25" g2gstroke="#312783" stroke-miterlimit="10"/>
<path stroke-linecap="round" orgstroke="#000000" orgfill="none" transform="translate(-452.08241697799326, -394.12313275004544) translate(160.35401969732243, 38.63952281863192) translate(-0.5526333407535731, 0.0) translate(-16.579000222607647, -19.894800267129085) translate(-12.605932696325453, 183.68644786074248) translate(972,283) translate(-478.1112626953125, -9.244252822875978) translate(-287.9539357011647, 68.9637577099428) translate(15.72857631981151, 37.50660507031978) translate(59.0, -37.0) translate(572.0, -62.0) translate(10.0, 10.00006103515625)" fill="none" stroke-linejoin="round" d="   M775.896,305.268c-0.139,0.969-0.885,2.012-1.67,2.33c-0.787,0.318-1.314-0.211-1.178-1.182c0.137-0.969,0.885-2.012,1.672-2.33   C775.504,303.77,776.033,304.297,775.896,305.268z" stroke="#000000" stroke-width="0.25" g2gstroke="#312783" stroke-miterlimit="10"/>
<path stroke-linecap="round" orgstroke="#000000" orgfill="none" transform="translate(-452.08241697799326, -394.12313275004544) translate(160.35401969732243, 38.63952281863192) translate(-0.5526333407535731, 0.0) translate(-16.579000222607647, -19.894800267129085) translate(-12.605932696325453, 183.68644786074248) translate(972,283) translate(-478.1112626953125, -9.244252822875978) translate(-287.9539357011647, 68.9637577099428) translate(15.72857631981151, 37.50660507031978) translate(59.0, -37.0) translate(572.0, -62.0) translate(10.0, 10.00006103515625)" fill="none" stroke-linejoin="round" d="   M633.48,408.201c9.76-15.895,10.842-17.283,21.434-19.594c9.461-2.064,24.023-7.006,29.848-9.836   c0.838-0.408,1.037-0.734,1.377-1.561c1.264-3.072,7.908-19.697,9.293-22.408c1.531-2.99,1.879-5.295,9.76-9.068   c9.408-4.504,19.65-9.555,27.838-14.281c10.121-5.844,20.42-12.264,30.141-19.133c3.363-2.377,8.885-4.871,10.914,0.859   c0.496,1.398,2.73,8.598,3.439,11.199c0.242,0.887,0.592,0.943,1.785-0.107c7.643-6.736,13.844-12.945,21.529-22.588   c0.803-1.006,2.727-2.021,4.006,1.113c0.484,1.188,2.082,5.344,2.268,5.844" stroke="#000000" stroke-width="0.25" g2gstroke="#312783" stroke-miterlimit="10"/>
<path stroke-linecap="round" orgstroke="#000000" orgfill="none" transform="translate(-452.08241697799326, -394.12313275004544) translate(160.35401969732243, 38.63952281863192) translate(-0.5526333407535731, 0.0) translate(-16.579000222607647, -19.894800267129085) translate(-12.605932696325453, 183.68644786074248) translate(972,283) translate(-478.1112626953125, -9.244252822875978) translate(-287.9539357011647, 68.9637577099428) translate(15.72857631981151, 37.50660507031978) translate(59.0, -37.0) translate(572.0, -62.0) translate(10.0, 10.00006103515625)" fill="none" stroke-linejoin="round" d="   M556.234,346.295c7.82,9.951,14.256,21.25,18.438,32.736c1.635,4.488,4.391,13.961,5.482,18.396   c0.834,3.383,3.205,15.375,7.492,16.322" stroke="#000000" stroke-width="0.25" g2gstroke="#312783" stroke-miterlimit="10"/>
<path stroke-linecap="round" orgstroke="#000000" orgfill="none" transform="translate(-452.08241697799326, -394.12313275004544) translate(160.35401969732243, 38.63952281863192) translate(-0.5526333407535731, 0.0) translate(-16.579000222607647, -19.894800267129085) translate(-12.605932696325453, 183.68644786074248) translate(972,283) translate(-478.1112626953125, -9.244252822875978) translate(-287.9539357011647, 68.9637577099428) translate(15.72857631981151, 37.50660507031978) translate(59.0, -37.0) translate(572.0, -62.0) translate(10.0, 10.00006103515625)" fill="none" stroke-linejoin="round" d="   M593.146,368.576c20.588,3.65,44.691-0.779,63.883-6.412s53.064-20.674,77.533-34.803c20.533-11.855,41.873-25.982,57.25-41.94   c8.529-8.852,17.557-17.121,16.342-29.107" stroke="#000000" stroke-width="0.25" g2gstroke="#312783" stroke-miterlimit="10"/>
<path stroke-linecap="round" orgstroke="#000000" orgfill="none" transform="translate(-452.08241697799326, -394.12313275004544) translate(160.35401969732243, 38.63952281863192) translate(-0.5526333407535731, 0.0) translate(-16.579000222607647, -19.894800267129085) translate(-12.605932696325453, 183.68644786074248) translate(972,283) translate(-478.1112626953125, -9.244252822875978) translate(-287.9539357011647, 68.9637577099428) translate(15.72857631981151, 37.50660507031978) translate(59.0, -37.0) translate(572.0, -62.0) translate(10.0, 10.00006103515625)" fill="none" stroke-linejoin="round" d="   M632.303,410.846c10.234-15.621,11.887-18.234,22.479-20.547c3.518-0.787,6.92-1.666,10.162-2.617   c19.191-5.633,45.15-17.887,69.619-32.014c20.533-11.855,45.297-26.236,67.129-52.57c0.822-0.99,1.43-1.633,2.066-0.988   c1.074,1.084,2.75,6.303,3.256,7.809" stroke="#000000" stroke-width="0.25" g2gstroke="#312783" stroke-miterlimit="10"/>
<path stroke-linecap="round" orgstroke="#000000" orgfill="none" transform="translate(-452.08241697799326, -394.12313275004544) translate(160.35401969732243, 38.63952281863192) translate(-0.5526333407535731, 0.0) translate(-16.579000222607647, -19.894800267129085) translate(-12.605932696325453, 183.68644786074248) translate(972,283) translate(-478.1112626953125, -9.244252822875978) translate(-287.9539357011647, 68.9637577099428) translate(15.72857631981151, 37.50660507031978) translate(59.0, -37.0) translate(572.0, -62.0) translate(10.0, 10.00006103515625)" fill="none" stroke-linejoin="round" d="   M686.609,376.057c15.975-6.836,33.586-15.447,47.953-23.742c12.887-7.439,27.449-15.447,42.453-27.84" stroke="#000000" stroke-width="0.25" g2gstroke="#312783" stroke-miterlimit="10"/>
<path stroke-linecap="round" orgstroke="#000000" orgfill="none" transform="translate(-452.08241697799326, -394.12313275004544) translate(160.35401969732243, 38.63952281863192) translate(-0.5526333407535731, 0.0) translate(-16.579000222607647, -19.894800267129085) translate(-12.605932696325453, 183.68644786074248) translate(972,283) translate(-478.1112626953125, -9.244252822875978) translate(-287.9539357011647, 68.9637577099428) translate(15.72857631981151, 37.50660507031978) translate(59.0, -37.0) translate(572.0, -62.0) translate(10.0, 10.00006103515625)" fill="none" stroke-linejoin="round" d="   M803.191,304.061c0.055,0.088,0.109,0.189,0.166,0.309c0.957,2.188,2.182,6.889,2.277,7.207" stroke="#000000" stroke-width="0.25" g2gstroke="#312783" stroke-miterlimit="10"/>
<path stroke-linecap="round" orgstroke="#000000" orgfill="none" transform="translate(-452.08241697799326, -394.12313275004544) translate(160.35401969732243, 38.63952281863192) translate(-0.5526333407535731, 0.0) translate(-16.579000222607647, -19.894800267129085) translate(-12.605932696325453, 183.68644786074248) translate(972,283) translate(-478.1112626953125, -9.244252822875978) translate(-287.9539357011647, 68.9637577099428) translate(15.72857631981151, 37.50660507031978) translate(59.0, -37.0) translate(572.0, -62.0) translate(10.0, 10.00006103515625)" fill="none" stroke-linejoin="round" d="   M777.842,324.986c0,0-0.305-0.211-0.676-0.426c-0.371-0.213-9.807-14.457-9.807-14.457" stroke="#000000" stroke-width="0.25" g2gstroke="#312783" stroke-miterlimit="10"/>
<path stroke-linecap="round" orgstroke="#000000" orgfill="none" transform="translate(-452.08241697799326, -394.12313275004544) translate(160.35401969732243, 38.63952281863192) translate(-0.5526333407535731, 0.0) translate(-16.579000222607647, -19.894800267129085) translate(-12.605932696325453, 183.68644786074248) translate(972,283) translate(-478.1112626953125, -9.244252822875978) translate(-287.9539357011647, 68.9637577099428) translate(15.72857631981151, 37.50660507031978) translate(59.0, -37.0) translate(572.0, -62.0) translate(10.0, 10.00006103515625)" fill="none" stroke-linejoin="round" d="   M635.691,409.225c0.178-0.242,0.32-0.471,0.422-0.625c8.441-12.838,9.912-14.359,19.102-16.363c3.516-0.787,6.977-1.68,10.287-2.65   c19.809-5.814,46.143-18.395,70.053-32.199l1.059-0.611c20.08-11.592,40.258-23.914,56.664-41.701   c0.658-0.715,5.609-5.771,9.219-10.492c0.51-0.666,0.934-1.031,1.484,0.113c0.912,2.084,2.066,6.453,2.256,7.133" stroke="#000000" stroke-width="0.25" g2gstroke="#312783" stroke-miterlimit="10"/>
<path stroke-linecap="round" orgstroke="#000000" orgfill="none" transform="translate(-452.08241697799326, -394.12313275004544) translate(160.35401969732243, 38.63952281863192) translate(-0.5526333407535731, 0.0) translate(-16.579000222607647, -19.894800267129085) translate(-12.605932696325453, 183.68644786074248) translate(972,283) translate(-478.1112626953125, -9.244252822875978) translate(-287.9539357011647, 68.9637577099428) translate(15.72857631981151, 37.50660507031978) translate(59.0, -37.0) translate(572.0, -62.0) translate(10.0, 10.00006103515625)" fill="none" stroke-linejoin="round" d="   M802.041,306.559c0.385-0.385,0.74-0.426,1.176,0.48c0.594,1.355,1.289,3.824,1.756,5.471" stroke="#000000" stroke-width="0.25" g2gstroke="#312783" stroke-miterlimit="10"/>
</g>
</g>
</g>
</g>
</g>
</g></svg>