<svg xmlns="http://www.w3.org/2000/svg" xmlns:xlink="http://www.w3.org/1999/xlink" xmlns:x="http://ns.adobe.com/Extensibility/1.0/" xmlns:graph="http://ns.adobe.com/Graphs/1.0/" xmlns:i="http://ns.adobe.com/AdobeIllustrator/10.0/" xmlns:etg="http://www.eurotaxglass.com/etg/evd/" etg:dataTimestamp="1541512339925" contentScriptType="text/ecmascript" zoomAndPan="magnify" contentStyleType="text/css" id="Layer_1" enable-background="new 0 0 1841.891 1595.279" version="1.1" xml:space="preserve" width="1841.891px" preserveAspectRatio="xMidYMid meet" viewBox="0 0 1841.891 1595.279" height="1595.279px" x="0px" y="0px"><g xmlns="http://www.w3.org/2000/svg" objecttype="PS" tooltip="#UNDEFINED" id="209">
<g onmouseover="notifyOwner(AGV_OBJECT_MOUSEOVER, '209(PS)')" transform="translate(-9.433746356535266E-6, 3.356933575560106E-7) translate(-35.71980609130861, -13.200809143066408) translate(44.708733184814434, 94.79042849731445) matrix(0.6117410612267968 0 0 0.6117410612267968 0.2921243287958965 0.477310974878083) translate(-92,-34) " onclick="clickZoom(evt); notifyOwner(AGV_OBJECT_MOUSECLICK, '209(PS)')" onmouseout="notifyOwner(AGV_OBJECT_MOUSEOUT, '209(PS)')" tooltip="#UNDEFINED" id="209-Graphic" objecttype="GRAPHIC">
<g zvalue="210">
<g zvalue="62">
<g zvalue="59">
<g>
<path orgstroke="#000000" orgfill="#ffffff" transform="translate(-452.08241697799326, -394.12313275004544) translate(160.35401969732243, 38.63952281863192) translate(51.042511985231386, -10.208502397046232) translate(-12.605932696325453, 183.68644786074248) translate(972,283) translate(-478.1112626953125, -9.244252822875978) translate(4.839561944557431, -1.2098904861393578) translate(59.0, -37.0) translate(572.0, -62.0) translate(10.0, 10.00006103515625)" fill="#ffffff" g2gfill="#464646" d="M144.486,314.877   c0.491-0.346,2.376-1.52,2.986-1.828c0.955-0.482,3.344-1.297,5.47-1.631c1.567-0.246,3.188-0.178,4.721,0.268   c0.864,0.252,1.768,0.596,2.557,1.031c1.446,0.801,2.743,1.945,3.628,3.344c0.938,1.484,1.639,3.24,1.925,4.975   c0.161,0.975,0.249,1.994,0.091,2.975c-0.165,1.01-0.537,1.982-0.88,2.943c-1.001,2.809-2.867,5.627-5.146,7.545   c-0.837,0.705-3.062,2.15-4.028,2.676l-0.156,0.084c-1.383,0.721-2.879,1.217-4.44,1.363c-1.444,0.137-2.983,0.088-4.383-0.322   c-6.54-1.924-9.591-9.762-6.769-17.529c0.428-1.176,1.033-2.291,1.749-3.314c0.334-0.475,1.173-1.467,2.486-2.439L144.486,314.877z   " stroke="#000000" outline-element="true" stroke-width="0.5" g2gstroke="#312783" stroke-miterlimit="10"/>
<linearGradient transform="translate(-452.08241697799326, -394.12313275004544) translate(160.35401969732243, 38.63952281863192) translate(51.042511985231386, -10.208502397046232) translate(-12.605932696325453, 183.68644786074248) translate(972,283) translate(-478.1112626953125, -9.244252822875978) translate(4.839561944557431, -1.2098904861393578) translate(59.0, -37.0) translate(572.0, -62.0) translate(10.0, 10.00006103515625)" gradientTransform="matrix(1 0 0 -1 0 595.28)" x1="170.8723" x2="153.2924" y1="315.9649" gradientUnits="userSpaceOnUse" y2="273.7428" xmlns:xlink="http://www.w3.org/1999/xlink" xlink:type="simple" xlink:actuate="onLoad" id="197::SVGID_46_" xlink:show="other">
<stop stop-opacity="0.6" stop-color="#FFFFFF" offset="0"/>
<stop stop-opacity="0.4" stop-color="#FFFFFF" offset="0.4552"/>
<stop stop-opacity="0.4" stop-color="#FFFFFF" offset="0.8664"/>
<stop stop-opacity="0.58" stop-color="#FFFFFF" offset="1"/>
</linearGradient>
<path fill="url(#197::SVGID_46_)" d="M163.971,327.072c-5.471-2.51-12.971-6.02-21.74-10.15c0.439-0.51,1.13-1.209,2.069-1.908   c0.101-0.07,0.19-0.141,0.301-0.211c0.08-0.051,0.18-0.119,0.29-0.199c0.25-0.17,0.529-0.34,0.819-0.51   c0.17-0.092,0.34-0.182,0.521-0.271c0.95-0.479,3.34-1.299,5.47-1.629c1.561-0.25,3.19-0.18,4.72,0.27   c0.86,0.25,1.771,0.59,2.551,1.029c1.449,0.801,2.75,1.941,3.63,3.34c0.939,1.49,1.64,3.24,1.93,4.98   c0.16,0.971,0.25,1.99,0.09,2.971C164.491,325.563,164.241,326.322,163.971,327.072z" transform="translate(-452.08241697799326, -394.12313275004544) translate(160.35401969732243, 38.63952281863192) translate(51.042511985231386, -10.208502397046232) translate(-12.605932696325453, 183.68644786074248) translate(972,283) translate(-478.1112626953125, -9.244252822875978) translate(4.839561944557431, -1.2098904861393578) translate(59.0, -37.0) translate(572.0, -62.0) translate(10.0, 10.00006103515625)" orgfill="url(#197::SVGID_46_)"/>
<linearGradient transform="translate(-452.08241697799326, -394.12313275004544) translate(160.35401969732243, 38.63952281863192) translate(51.042511985231386, -10.208502397046232) translate(-12.605932696325453, 183.68644786074248) translate(972,283) translate(-478.1112626953125, -9.244252822875978) translate(4.839561944557431, -1.2098904861393578) translate(59.0, -37.0) translate(572.0, -62.0) translate(10.0, 10.00006103515625)" gradientTransform="matrix(1 0 0 -1 0 595.28)" x1="131.6837" x2="160.109" y1="227.6454" gradientUnits="userSpaceOnUse" y2="288.6038" xmlns:xlink="http://www.w3.org/1999/xlink" xlink:type="simple" xlink:actuate="onLoad" id="197::SVGID_47_" xlink:show="other">
<stop stop-opacity="0.2" stop-color="#FFFFFF" offset="0.014"/>
<stop stop-opacity="0.58" stop-color="#FFFFFF" offset="0.7745"/>
<stop stop-opacity="0.58" stop-color="#FFFFFF" offset="0.9975"/>
</linearGradient>
<path fill="url(#197::SVGID_47_)" d="M163.971,327.072c-0.07,0.221-0.15,0.43-0.23,0.65c-1,2.811-2.87,5.631-5.15,7.551   c-0.5,0.43-1.04,0.83-1.59,1.189c-0.439,0.289-0.89,0.561-1.35,0.801c-1.38,0.719-2.88,1.209-4.44,1.359   c-1.439,0.141-2.979,0.09-4.38-0.32c-6.54-1.93-9.59-9.76-6.77-17.529c0.43-1.18,1.029-2.291,1.75-3.32   c0.1-0.141,0.229-0.32,0.42-0.531C151,321.053,158.5,324.563,163.971,327.072z" transform="translate(-452.08241697799326, -394.12313275004544) translate(160.35401969732243, 38.63952281863192) translate(51.042511985231386, -10.208502397046232) translate(-12.605932696325453, 183.68644786074248) translate(972,283) translate(-478.1112626953125, -9.244252822875978) translate(4.839561944557431, -1.2098904861393578) translate(59.0, -37.0) translate(572.0, -62.0) translate(10.0, 10.00006103515625)" orgfill="url(#197::SVGID_47_)"/>
<path stroke-linecap="round" orgstroke="#000000" orgfill="none" transform="translate(-452.08241697799326, -394.12313275004544) translate(160.35401969732243, 38.63952281863192) translate(51.042511985231386, -10.208502397046232) translate(-12.605932696325453, 183.68644786074248) translate(972,283) translate(-478.1112626953125, -9.244252822875978) translate(4.839561944557431, -1.2098904861393578) translate(59.0, -37.0) translate(572.0, -62.0) translate(10.0, 10.00006103515625)" fill="none" stroke-linejoin="round" d="   M144.296,315.016c0.559-0.414,1.203-0.826,1.932-1.195c0.955-0.482,3.344-1.297,5.47-1.631c1.567-0.246,3.188-0.178,4.721,0.268   c0.864,0.252,1.768,0.596,2.557,1.031c1.446,0.801,2.743,1.945,3.628,3.344c0.938,1.484,1.639,3.24,1.925,4.975   c0.161,0.975,0.249,1.994,0.091,2.975c-0.165,1.01-0.537,1.982-0.88,2.943c-1.001,2.809-2.867,5.627-5.146,7.545   c-0.901,0.76-1.889,1.439-2.94,1.988" stroke="#000000" stroke-width="0.25" g2gstroke="#312783" stroke-miterlimit="10"/>
<path stroke-linecap="round" orgstroke="#000000" orgfill="none" transform="translate(-452.08241697799326, -394.12313275004544) translate(160.35401969732243, 38.63952281863192) translate(51.042511985231386, -10.208502397046232) translate(-12.605932696325453, 183.68644786074248) translate(972,283) translate(-478.1112626953125, -9.244252822875978) translate(4.839561944557431, -1.2098904861393578) translate(59.0, -37.0) translate(572.0, -62.0) translate(10.0, 10.00006103515625)" fill="none" stroke-linejoin="round" d="   M144.486,314.877c0.491-0.346,2.376-1.52,2.986-1.828c0.955-0.482,3.344-1.297,5.47-1.631c1.567-0.246,3.188-0.178,4.721,0.268   c0.864,0.252,1.768,0.596,2.557,1.031c1.446,0.801,2.743,1.945,3.628,3.344c0.938,1.484,1.639,3.24,1.925,4.975   c0.161,0.975,0.249,1.994,0.091,2.975c-0.165,1.01-0.537,1.982-0.88,2.943c-1.001,2.809-2.867,5.627-5.146,7.545   c-0.837,0.705-3.062,2.15-4.028,2.676l-0.156,0.084c-1.383,0.721-2.879,1.217-4.44,1.363c-1.444,0.137-2.983,0.088-4.383-0.322   c-6.54-1.924-9.591-9.762-6.769-17.529c0.428-1.176,1.033-2.291,1.749-3.314c0.334-0.475,1.173-1.467,2.486-2.439L144.486,314.877z   " stroke="#000000" stroke-width="0.25" g2gstroke="#312783" stroke-miterlimit="10"/>
</g>
</g>
</g>
</g>
</g>
</g></svg>