<svg xmlns="http://www.w3.org/2000/svg" xmlns:xlink="http://www.w3.org/1999/xlink" xmlns:x="http://ns.adobe.com/Extensibility/1.0/" xmlns:graph="http://ns.adobe.com/Graphs/1.0/" xmlns:i="http://ns.adobe.com/AdobeIllustrator/10.0/" xmlns:etg="http://www.eurotaxglass.com/etg/evd/" etg:dataTimestamp="1541512339925" contentScriptType="text/ecmascript" zoomAndPan="magnify" contentStyleType="text/css" id="Layer_1" enable-background="new 0 0 1841.891 1595.279" version="1.1" xml:space="preserve" width="1841.891px" preserveAspectRatio="xMidYMid meet" viewBox="0 0 1841.891 1595.279" height="1595.279px" x="0px" y="0px"><g xmlns="http://www.w3.org/2000/svg" objecttype="PS" tooltip="#UNDEFINED" id="215">
<g onmouseover="notifyOwner(AGV_OBJECT_MOUSEOVER, '215(PS)')" transform="translate(-9.433746356535266E-6, 3.356933575560106E-7) translate(-35.71980609130861, -13.200809143066408) translate(44.708733184814434, 94.79042849731445) matrix(0.6117410612267968 0 0 0.6117410612267968 0.2921243287958965 0.477310974878083) translate(-92,-34) " onclick="clickZoom(evt); notifyOwner(AGV_OBJECT_MOUSECLICK, '215(PS)')" onmouseout="notifyOwner(AGV_OBJECT_MOUSEOUT, '215(PS)')" tooltip="#UNDEFINED" id="215-Graphic" objecttype="GRAPHIC">
<g zvalue="216">
<g zvalue="80">
<g zvalue="33">
<g>
<path orgstroke="#000000" orgfill="#ffffff" transform="translate(-452.08241697799326, -394.12313275004544) translate(160.35401969732243, 38.63952281863192) translate(13.448797456817601, -7.862373897831844) translate(-12.605932696325453, 183.68644786074248) translate(972,283) translate(-478.1112626953125, -9.244252822875978) translate(-0.7948471478521242, -36.165545227268865) translate(-0.0653076171875, -36.95747375488281) translate(-7.948471478520673, 0.3974235739260621) translate(186.32313486545956, -82.27255305747565) translate(59.0, -37.0) translate(572.0, -62.0) translate(10.0, 10.00006103515625)" fill="#ffffff" g2gfill="#ECC35D" d="M108.995,508.957   c-2.785,0.934-5.249,1.713-6.907,2.168c-6.327,1.738-13.896,4.506-25.136,4.182c-15.986-0.461-21.429-3.256-28.609-6.559   s-7.755-6.164-7.797-7.305l0.023-0.301c0.112-1.113,0.49-2.188,0.921-3.172c1.299-2.967,9.583-14.432,11.032-15.949   c0.036-0.039,0.334-0.322,0.334-0.322c1.425-1.463,4.187-2.951,5.591-3.451c2.195-0.781,4.692-1.035,6.707-0.541   c0.987,0.244,2.268,0.717,4.059,1.254c0.264,0.078,0.412,0.012,0.684-0.145c0.869-0.5,3.898-2.188,4.219-2.393   c0.375-0.242,0.338-0.914,0.816-1.189c0.479-0.277,4.363-2.57,4.738-2.744s0.897-0.389,1.572,0   c0.621,0.357,12.653,7.303,14.579,8.408c0.179,0.104,0.368,0.205,0.597,0.193c1.078-0.057,2.184-0.123,3.308-0.193   c0.315-0.02,0.483,0.074,0.673,0.184l0.846,0.498c0.201,0.113,0.266,0.164,0.405,0.293c1.86,1.717,6.223,7.041,6.825,13.871   c0.626,7.094,0.626,11.127,0.626,12.1c0,0.256,0.022,0.494,0.077,0.717C109.259,508.893,109.164,508.9,108.995,508.957z" stroke="#000000" outline-element="true" stroke-width="0.5" g2gstroke="#312783" stroke-miterlimit="10"/>
<g>
<path fill="#FAFAFA" d="M108.414,504.496c0,2.66,0.131,2.879,0.131,3.449c0,0.25-0.031,0.57-0.441,0.711    c-2.489,0.82-4.67,1.51-6.17,1.92c-0.879,0.24-1.779,0.51-2.719,0.779c-5.291,1.531-11.791,3.41-20.49,3.41    c-0.57,0-1.16-0.01-1.76-0.029c-5.711-0.16-10.051-0.621-13.601-1.291c-5.91-1.119-9.649-2.84-13.94-4.83l-0.84-0.379    c-1.98-0.91-3.58-1.85-4.779-2.781c-0.351-0.27-0.211-0.449-0.01-0.729c0.229-0.33,1.039-1.33,1.789-2.25    c0.37-0.43,0.641-0.4,1.02-0.17c1.75,1.08,4.191,2.398,7.391,3.648c5.391,2.102,12.93,4.012,22.96,4.301    c11.24,0.32,18.81-2.449,25.13-4.18c1.461-0.41,5.28-1.67,5.92-1.84C108.234,504.166,108.414,504.186,108.414,504.496z" transform="translate(-452.08241697799326, -394.12313275004544) translate(160.35401969732243, 38.63952281863192) translate(13.448797456817601, -7.862373897831844) translate(-12.605932696325453, 183.68644786074248) translate(972,283) translate(-478.1112626953125, -9.244252822875978) translate(-0.7948471478521242, -36.165545227268865) translate(-0.0653076171875, -36.95747375488281) translate(-7.948471478520673, 0.3974235739260621) translate(186.32313486545956, -82.27255305747565) translate(59.0, -37.0) translate(572.0, -62.0) translate(10.0, 10.00006103515625)" orgfill="#FAFAFA"/>
<path fill="#E1321E" d="M109.173,508.557c-0.05-0.221-0.07-0.461-0.07-0.711c0-0.59,0-2.289-0.14-5.1    c-0.09-1.85-0.239-4.189-0.489-7c-0.28-3.24-1.42-6.141-2.73-8.48c-1.449-2.6-3.109-4.49-4.09-5.391    c-0.08-0.078-0.141-0.129-0.221-0.18c-8.06,0.51-15.639,0.83-19.43,0.51c-9.92-0.83-14.34-2.949-16.85-3.568    c-4.07-1-9.9,0.879-12.35,3.109l-0.041,0.039c-0.02,0.012-0.029,0.031-0.05,0.051c-0.03,0.02-0.05,0.039-0.079,0.07    c-0.051,0.061-0.101,0.1-0.111,0.109c-0.219,0.23-0.59,0.68-1.06,1.291c-2.71,3.469-8.86,12.139-9.97,14.66    c-0.43,0.988-0.811,2.059-0.92,3.18l-0.029,0.299c0.039,1.141,0.619,4,7.799,7.301c4.61,2.119,8.5,4.029,14.92,5.24    c3.58,0.689,7.961,1.16,13.69,1.32c11.24,0.318,18.81-2.441,25.13-4.182c1.66-0.459,4.13-1.238,6.91-2.17    C109.164,508.896,109.263,508.896,109.173,508.557z M108.103,508.656c-2.489,0.82-4.67,1.51-6.17,1.92    c-0.879,0.24-1.779,0.51-2.72,0.779c-5.29,1.531-11.79,3.41-20.489,3.41c-0.57,0-1.16-0.01-1.761-0.029    c-5.71-0.16-10.05-0.621-13.6-1.291c-5.91-1.119-9.65-2.84-13.94-4.83l-0.84-0.379c-1.98-0.91-3.58-1.85-4.779-2.781    c-0.351-0.27-0.211-0.449-0.01-0.729c0.229-0.33,1.039-1.33,1.789-2.25c0.37-0.43,0.641-0.4,1.02-0.17    c1.75,1.08,4.191,2.398,7.391,3.648c5.391,2.102,12.93,4.012,22.96,4.301c11.24,0.32,18.81-2.449,25.13-4.18    c1.461-0.41,5.28-1.67,5.92-1.84c0.23-0.07,0.41-0.051,0.41,0.26c0,2.66,0.131,2.879,0.131,3.449    C108.544,508.195,108.513,508.516,108.103,508.656z" transform="translate(-452.08241697799326, -394.12313275004544) translate(160.35401969732243, 38.63952281863192) translate(13.448797456817601, -7.862373897831844) translate(-12.605932696325453, 183.68644786074248) translate(972,283) translate(-478.1112626953125, -9.244252822875978) translate(-0.7948471478521242, -36.165545227268865) translate(-0.0653076171875, -36.95747375488281) translate(-7.948471478520673, 0.3974235739260621) translate(186.32313486545956, -82.27255305747565) translate(59.0, -37.0) translate(572.0, -62.0) translate(10.0, 10.00006103515625)" orgfill="#E1321E"/>
</g>
<g>
<path orgfill="#BCBEC0" enable-background="new    " transform="translate(-452.08241697799326, -394.12313275004544) translate(160.35401969732243, 38.63952281863192) translate(13.448797456817601, -7.862373897831844) translate(-12.605932696325453, 183.68644786074248) translate(972,283) translate(-478.1112626953125, -9.244252822875978) translate(-0.7948471478521242, -36.165545227268865) translate(-0.0653076171875, -36.95747375488281) translate(-7.948471478520673, 0.3974235739260621) translate(186.32313486545956, -82.27255305747565) translate(59.0, -37.0) translate(572.0, -62.0) translate(10.0, 10.00006103515625)" fill="#BCBEC0" opacity="0.4" d="M66.111,509.225c3.232,0.541,6.84,0.916,10.843,1.031    c11.24,0.32,18.81-2.449,25.13-4.18c1.461-0.41,5.28-1.67,5.92-1.84c0.23-0.07,0.41-0.051,0.41,0.26    c0,2.66,0.131,2.879,0.131,3.449c0,0.25-0.031,0.57-0.441,0.711c-2.489,0.82-4.67,1.51-6.17,1.92    c-0.879,0.24-1.779,0.51-2.719,0.779c-5.291,1.531-11.791,3.41-20.49,3.41c-0.57,0-1.16-0.01-1.76-0.029    c-4.317-0.121-7.852-0.414-10.854-0.838C66.111,513.898,66.111,509.225,66.111,509.225z"/>
<path fill="#ffffff" g2gfill="#ECC35D" d="M105.923,500.686c0,0-0.07-0.039-0.189-0.109C105.804,500.596,105.874,500.637,105.923,500.686z" transform="translate(-452.08241697799326, -394.12313275004544) translate(160.35401969732243, 38.63952281863192) translate(13.448797456817601, -7.862373897831844) translate(-12.605932696325453, 183.68644786074248) translate(972,283) translate(-478.1112626953125, -9.244252822875978) translate(-0.7948471478521242, -36.165545227268865) translate(-0.0653076171875, -36.95747375488281) translate(-7.948471478520673, 0.3974235739260621) translate(186.32313486545956, -82.27255305747565) translate(59.0, -37.0) translate(572.0, -62.0) translate(10.0, 10.00006103515625)" orgfill="#ffffff"/>
<path fill="#ffffff" g2gfill="#ECC35D" d="M94.513,490.887l-0.209-0.141C94.384,490.785,94.454,490.836,94.513,490.887z" transform="translate(-452.08241697799326, -394.12313275004544) translate(160.35401969732243, 38.63952281863192) translate(13.448797456817601, -7.862373897831844) translate(-12.605932696325453, 183.68644786074248) translate(972,283) translate(-478.1112626953125, -9.244252822875978) translate(-0.7948471478521242, -36.165545227268865) translate(-0.0653076171875, -36.95747375488281) translate(-7.948471478520673, 0.3974235739260621) translate(186.32313486545956, -82.27255305747565) translate(59.0, -37.0) translate(572.0, -62.0) translate(10.0, 10.00006103515625)" orgfill="#ffffff"/>
<path orgfill="#464646" enable-background="new    " transform="translate(-452.08241697799326, -394.12313275004544) translate(160.35401969732243, 38.63952281863192) translate(13.448797456817601, -7.862373897831844) translate(-12.605932696325453, 183.68644786074248) translate(972,283) translate(-478.1112626953125, -9.244252822875978) translate(-0.7948471478521242, -36.165545227268865) translate(-0.0653076171875, -36.95747375488281) translate(-7.948471478520673, 0.3974235739260621) translate(186.32313486545956, -82.27255305747565) translate(59.0, -37.0) translate(572.0, -62.0) translate(10.0, 10.00006103515625)" fill="#464646" opacity="0.7" d="M90.544,492.625c0.979-0.129,1.77,0.58,1.77,1.58    s-0.801,1.91-1.78,2.041l-2.399,0.311c-0.98,0.119-1.771-0.59-1.771-1.59s0.8-1.91,1.78-2.041L90.544,492.625z"/>
<path orgfill="#464646" enable-background="new    " transform="translate(-452.08241697799326, -394.12313275004544) translate(160.35401969732243, 38.63952281863192) translate(13.448797456817601, -7.862373897831844) translate(-12.605932696325453, 183.68644786074248) translate(972,283) translate(-478.1112626953125, -9.244252822875978) translate(-0.7948471478521242, -36.165545227268865) translate(-0.0653076171875, -36.95747375488281) translate(-7.948471478520673, 0.3974235739260621) translate(186.32313486545956, -82.27255305747565) translate(59.0, -37.0) translate(572.0, -62.0) translate(10.0, 10.00006103515625)" fill="#464646" opacity="0.6" d="M86.714,490.936c-1.08,0.141-2.061,0.711-2.771,1.52    c-0.71,0.82-1.149,1.871-1.16,2.971c0,1.131,0.46,2.09,1.2,2.73l-8.25-4.07l-0.2-0.109c-1.11-0.67-1.83-1.891-1.819-3.381    c0-0.84,0.229-1.629,0.619-2.35c4.061,0.17,9.62,0.369,16.53,0.129l3.44,2.371c-0.641-0.41-1.44-0.6-2.311-0.49L86.714,490.936z"/>
<path orgfill="#464646" enable-background="new    " transform="translate(-452.08241697799326, -394.12313275004544) translate(160.35401969732243, 38.63952281863192) translate(13.448797456817601, -7.862373897831844) translate(-12.605932696325453, 183.68644786074248) translate(972,283) translate(-478.1112626953125, -9.244252822875978) translate(-0.7948471478521242, -36.165545227268865) translate(-0.0653076171875, -36.95747375488281) translate(-7.948471478520673, 0.3974235739260621) translate(186.32313486545956, -82.27255305747565) translate(59.0, -37.0) translate(572.0, -62.0) translate(10.0, 10.00006103515625)" fill="#464646" opacity="0.6" d="M89.624,503.945c-3.899,0.602-10.819,0.91-17.75-3.709    c-0.29-0.189-0.55-0.41-0.78-0.641c5.521,2.359,10.66,2.061,13.82,1.58c5.221-0.789,11.77-2.369,15.721-3.379    c0.229-0.061,0.43,0.02,0.569,0.109c1.12,0.67,3.79,2.24,4.53,2.67c-0.11-0.029-0.24-0.041-0.381,0    C101.394,501.576,94.843,503.156,89.624,503.945z"/>
<path orgfill="#464646" enable-background="new    " transform="translate(-452.08241697799326, -394.12313275004544) translate(160.35401969732243, 38.63952281863192) translate(13.448797456817601, -7.862373897831844) translate(-12.605932696325453, 183.68644786074248) translate(972,283) translate(-478.1112626953125, -9.244252822875978) translate(-0.7948471478521242, -36.165545227268865) translate(-0.0653076171875, -36.95747375488281) translate(-7.948471478520673, 0.3974235739260621) translate(186.32313486545956, -82.27255305747565) translate(59.0, -37.0) translate(572.0, -62.0) translate(10.0, 10.00006103515625)" fill="#464646" opacity="0.5" d="M95.794,504.146c-0.441,0.08-0.771,0.5-0.771,0.939    c0,0.01,0,0.029,0,0.039c0.021,0.461,0.39,0.762,0.84,0.682l1.101-0.191c0.439-0.08,0.789-0.51,0.77-0.969    c-0.02-0.461-0.4-0.771-0.85-0.691L95.794,504.146z M78.694,505.846c0.021-0.459-0.32-0.799-0.78-0.77l-1.1,0.09    c-0.461,0.039-0.84,0.439-0.87,0.9c-0.021,0.449,0.319,0.799,0.78,0.76l1.109-0.09C78.284,506.705,78.664,506.307,78.694,505.846z     M100.144,504.896c0.449-0.1,0.77-0.551,0.729-1.01c-0.04-0.451-0.43-0.75-0.87-0.65l-1.09,0.24c-0.42,0.09-0.73,0.5-0.73,0.93    c0,0.029,0,0.049,0,0.08c0.041,0.459,0.431,0.75,0.881,0.65L100.144,504.896z M92.644,504.686c-0.44,0.08-0.78,0.49-0.78,0.93    c0,0.01,0,0.031,0,0.041c0.021,0.459,0.399,0.77,0.851,0.689l1.09-0.189c0.449-0.08,0.799-0.52,0.779-0.98    c-0.02-0.459-0.4-0.77-0.85-0.689L92.644,504.686z M90.654,506.686c0.449-0.08,0.79-0.51,0.779-0.969    c-0.02-0.461-0.399-0.771-0.85-0.691l-1.09,0.191c-0.439,0.08-0.779,0.5-0.779,0.939c0,0.01,0,0.029,0,0.039    c0.02,0.461,0.399,0.76,0.85,0.691L90.654,506.686z M66.614,499.455l1.069-0.299c0.44-0.121,0.74-0.59,0.681-1.051    c-0.069-0.449-0.47-0.719-0.91-0.6l-1.069,0.301c-0.4,0.109-0.69,0.51-0.69,0.92c0,0.039,0,0.08,0.01,0.119    C65.774,499.307,66.173,499.576,66.614,499.455z M66.824,500.816c0.07,0.459,0.471,0.73,0.91,0.609l1.07-0.301    c0.439-0.119,0.74-0.59,0.68-1.049c-0.07-0.451-0.471-0.721-0.91-0.6l-1.07,0.299c-0.4,0.111-0.689,0.51-0.689,0.92    C66.814,500.736,66.814,500.775,66.824,500.816z M67.824,493.516c-0.061-0.449-0.471-0.719-0.91-0.6l-1.07,0.301    c-0.39,0.109-0.68,0.5-0.68,0.908c0,0.041,0,0.092,0.01,0.131c0.061,0.461,0.471,0.73,0.91,0.609l1.07-0.299    C67.583,494.445,67.894,493.977,67.824,493.516z M67.984,495.816c-0.07-0.451-0.48-0.721-0.91-0.6l-1.07,0.299    c-0.4,0.109-0.689,0.51-0.689,0.92c0,0.041,0,0.08,0.01,0.121c0.061,0.459,0.471,0.729,0.91,0.609l1.07-0.301    C67.744,496.746,68.044,496.275,67.984,495.816z M67.984,491.205c-0.07-0.449-0.48-0.719-0.91-0.6l-1.07,0.301    c-0.4,0.109-0.689,0.51-0.689,0.92c0,0.039,0,0.08,0.01,0.119c0.061,0.461,0.471,0.73,0.91,0.611l1.07-0.301    C67.744,492.137,68.044,491.666,67.984,491.205z M66.234,490.266l1.07-0.299c0.439-0.121,0.74-0.592,0.68-1.041    c-0.07-0.459-0.48-0.73-0.91-0.609l-1.07,0.299c-0.4,0.111-0.689,0.51-0.689,0.92c0,0.041,0,0.08,0.01,0.121    C65.384,490.115,65.794,490.387,66.234,490.266z M103.173,504.137c0.44-0.102,0.771-0.551,0.73-1.012    c-0.04-0.459-0.439-0.75-0.88-0.648l-1.08,0.24c-0.431,0.09-0.74,0.5-0.74,0.93c0,0.029,0,0.049,0,0.08    c0.04,0.459,0.44,0.75,0.88,0.648L103.173,504.137z M81.833,506.195c0.061-0.459-0.26-0.83-0.71-0.83h-1.11    c-0.459,0-0.869,0.371-0.939,0.83c-0.061,0.451,0.26,0.82,0.721,0.82h1.109C81.353,507.016,81.774,506.646,81.833,506.195z     M85.024,506.365c0.06-0.459-0.261-0.83-0.71-0.83h-1.11c-0.46,0-0.88,0.371-0.94,0.82c-0.06,0.461,0.261,0.83,0.711,0.83h1.119    C84.544,507.186,84.964,506.816,85.024,506.365z M86.284,507.186h1.11c0.449,0,0.869-0.369,0.93-0.82    c0.061-0.459-0.26-0.83-0.71-0.83h-1.11c-0.459,0-0.88,0.371-0.939,0.82C85.503,506.816,85.824,507.186,86.284,507.186z     M70.414,502.887c0.439-0.07,0.801-0.5,0.79-0.961c-0.01-0.449-0.38-0.77-0.83-0.699l-1.1,0.17c-0.44,0.07-0.79,0.479-0.79,0.93    c0,0.01,0,0.01,0,0.02c0.01,0.461,0.38,0.779,0.83,0.711L70.414,502.887z M71.574,504.496l1.08-0.26    c0.439-0.1,0.76-0.561,0.72-1.01c-0.05-0.461-0.45-0.75-0.89-0.641l-1.08,0.25c-0.42,0.1-0.721,0.51-0.721,0.939    c0,0.031,0,0.051,0,0.08C70.734,504.316,71.134,504.596,71.574,504.496z M75.214,503.807l-1.091,0.189    c-0.44,0.08-0.78,0.49-0.78,0.93c0,0.01,0,0.029,0,0.041c0.021,0.459,0.4,0.77,0.84,0.689l1.101-0.18    c0.45-0.08,0.8-0.521,0.78-0.971C76.044,504.047,75.664,503.727,75.214,503.807z M71.154,500.926c5.07,3.551,10.59,5.1,18.71,3.85    c5.19-0.799,11.46-2.219,15.431-3.219c0.84-0.211,0.899-0.66,0.629-0.871c-0.05-0.049-0.119-0.09-0.189-0.109    c-0.74-0.43-3.41-2-4.53-2.67c-0.14-0.09-0.34-0.17-0.569-0.109c-3.951,1.01-10.5,2.59-15.721,3.379    c-3.16,0.48-8.3,0.779-13.82-1.58c-3.58-3.57-0.49-11.221-0.449-11.299l0.01-0.201c0.51,0.029,0.949,0.041,1.34,0.051    c0.71,0.029,1.49,0.059,2.34,0.1c-0.39,0.721-0.619,1.51-0.619,2.35c-0.011,1.49,0.709,2.711,1.819,3.381l0.2,0.109l8.25,4.07    c0.689,0.59,1.65,0.891,2.699,0.76l5.281-0.68c2.159-0.281,3.92-2.291,3.93-4.49c0-1.221-0.53-2.24-1.381-2.859    c-0.06-0.051-0.129-0.102-0.209-0.141l-3.44-2.371c4.42-0.148,9.39-0.479,14.88-1.109c1.311,2.34,2.45,5.24,2.73,8.48    c0.25,2.811,0.399,5.15,0.49,7h-0.101c0,0-9.84,3.449-20.399,4.76c-10.57,1.311-17.261-1.279-21.471-4.6    c-4.12-3.25-5.21-13.541-4.58-16.01c3.189,0.789,5.46,1.049,7.141,1.15v0.029C69.554,488.076,66.024,497.336,71.154,500.926z"/>
<path fill="#ffffff" g2gfill="#ECC35D" d="M52.804,481.746c-0.03,0.029-0.061,0.051-0.09,0.09C52.744,481.797,52.784,481.766,52.804,481.746z" transform="translate(-452.08241697799326, -394.12313275004544) translate(160.35401969732243, 38.63952281863192) translate(13.448797456817601, -7.862373897831844) translate(-12.605932696325453, 183.68644786074248) translate(972,283) translate(-478.1112626953125, -9.244252822875978) translate(-0.7948471478521242, -36.165545227268865) translate(-0.0653076171875, -36.95747375488281) translate(-7.948471478520673, 0.3974235739260621) translate(186.32313486545956, -82.27255305747565) translate(59.0, -37.0) translate(572.0, -62.0) translate(10.0, 10.00006103515625)" orgfill="#ffffff"/>
<path orgfill="#464646" enable-background="new    " transform="translate(-452.08241697799326, -394.12313275004544) translate(160.35401969732243, 38.63952281863192) translate(13.448797456817601, -7.862373897831844) translate(-12.605932696325453, 183.68644786074248) translate(972,283) translate(-478.1112626953125, -9.244252822875978) translate(-0.7948471478521242, -36.165545227268865) translate(-0.0653076171875, -36.95747375488281) translate(-7.948471478520673, 0.3974235739260621) translate(186.32313486545956, -82.27255305747565) translate(59.0, -37.0) translate(572.0, -62.0) translate(10.0, 10.00006103515625)" fill="#464646" opacity="0.3" d="M109.173,508.557c-0.05-0.221-0.07-0.461-0.07-0.711    c0-0.59,0-2.289-0.14-5.1h-0.1c0,0-9.841,3.449-20.4,4.76c-10.569,1.311-17.26-1.279-21.47-4.6c-4.12-3.25-5.21-13.541-4.58-16.01    c3.189,0.789,5.46,1.049,7.141,1.15c0.399,0.029,0.77,0.049,1.1,0.049c0.51,0.029,0.949,0.041,1.34,0.051    c0.71,0.029,1.49,0.059,2.34,0.1c4.061,0.17,9.62,0.369,16.53,0.129c4.42-0.148,9.39-0.479,14.88-1.109    c-1.449-2.6-3.109-4.49-4.09-5.391c-0.08-0.078-0.141-0.129-0.221-0.18c-8.06,0.51-15.639,0.83-19.43,0.51    c-9.92-0.83-14.34-2.949-16.85-3.568c-4.07-1-9.9,0.879-12.35,3.109c-0.031,0.029-0.061,0.051-0.091,0.09    c-0.03,0.02-0.05,0.039-0.079,0.07c-0.051,0.061-0.101,0.1-0.111,0.109c-0.219,0.23-0.59,0.68-1.06,1.291    c-2.71,3.469-8.86,12.139-9.97,14.66c-0.43,0.988-0.811,2.059-0.92,3.18l-0.029,0.299c0.039,1.141,0.619,4,7.799,7.301    c4.61,2.119,8.5,4.029,14.92,5.24c3.58,0.689,7.961,1.16,13.69,1.32c11.24,0.318,18.81-2.441,25.13-4.182    c1.66-0.459,4.13-1.238,6.91-2.17C109.164,508.896,109.263,508.896,109.173,508.557z M108.103,508.656    c-2.489,0.82-4.67,1.51-6.17,1.92c-0.879,0.24-1.779,0.51-2.72,0.779c-5.29,1.531-11.79,3.41-20.489,3.41    c-0.57,0-1.16-0.01-1.761-0.029c-5.71-0.16-10.05-0.621-13.6-1.291c-5.91-1.119-9.65-2.84-13.94-4.83l-0.84-0.379    c-1.98-0.91-3.58-1.85-4.779-2.781c-0.351-0.27-0.211-0.449-0.01-0.729c0.229-0.33,1.039-1.33,1.789-2.25    c0.37-0.43,0.641-0.4,1.02-0.17c1.75,1.08,4.191,2.398,7.391,3.648c5.391,2.102,12.93,4.012,22.96,4.301    c11.24,0.32,18.81-2.449,25.13-4.18c1.461-0.41,5.28-1.67,5.92-1.84c0.23-0.07,0.41-0.051,0.41,0.26    c0,2.66,0.131,2.879,0.131,3.449C108.544,508.195,108.513,508.516,108.103,508.656z"/>
</g>
<path orgfill="#464646" enable-background="new    " transform="translate(-452.08241697799326, -394.12313275004544) translate(160.35401969732243, 38.63952281863192) translate(13.448797456817601, -7.862373897831844) translate(-12.605932696325453, 183.68644786074248) translate(972,283) translate(-478.1112626953125, -9.244252822875978) translate(-0.7948471478521242, -36.165545227268865) translate(-0.0653076171875, -36.95747375488281) translate(-7.948471478520673, 0.3974235739260621) translate(186.32313486545956, -82.27255305747565) translate(59.0, -37.0) translate(572.0, -62.0) translate(10.0, 10.00006103515625)" fill="#464646" opacity="0.5" d="M54.118,505.959l-0.25-0.012   c0.005-0.107,0.504-10.832,0.751-13.377c0.25-2.568,2.86-6.904,2.971-7.086l0.215,0.129c-0.027,0.045-2.691,4.469-2.936,6.98   C54.621,495.133,54.123,505.852,54.118,505.959z"/>
<path stroke-linecap="round" orgstroke="#000000" orgfill="none" transform="translate(-452.08241697799326, -394.12313275004544) translate(160.35401969732243, 38.63952281863192) translate(13.448797456817601, -7.862373897831844) translate(-12.605932696325453, 183.68644786074248) translate(972,283) translate(-478.1112626953125, -9.244252822875978) translate(-0.7948471478521242, -36.165545227268865) translate(-0.0653076171875, -36.95747375488281) translate(-7.948471478520673, 0.3974235739260621) translate(186.32313486545956, -82.27255305747565) translate(59.0, -37.0) translate(572.0, -62.0) translate(10.0, 10.00006103515625)" fill="none" stroke-linejoin="round" d="   M96.189,481.104c-6.029,0.318-11.19,0.426-14.185,0.174c-5.838-0.492-10.483-1.643-13.243-2.453" stroke="#000000" stroke-width="0.25" g2gstroke="#312783" stroke-miterlimit="10"/>
<path stroke-linecap="round" orgstroke="#000000" orgfill="none" transform="translate(-452.08241697799326, -394.12313275004544) translate(160.35401969732243, 38.63952281863192) translate(13.448797456817601, -7.862373897831844) translate(-12.605932696325453, 183.68644786074248) translate(972,283) translate(-478.1112626953125, -9.244252822875978) translate(-0.7948471478521242, -36.165545227268865) translate(-0.0653076171875, -36.95747375488281) translate(-7.948471478520673, 0.3974235739260621) translate(186.32313486545956, -82.27255305747565) translate(59.0, -37.0) translate(572.0, -62.0) translate(10.0, 10.00006103515625)" fill="none" stroke-linejoin="round" d="   M85.484,481.375c-4.215-2.432-9.973-5.752-10.396-5.996c-0.048-0.027-0.094-0.053-0.14-0.074" stroke="#000000" stroke-width="0.25" g2gstroke="#312783" stroke-miterlimit="10"/>
<path stroke-linecap="round" orgstroke="#000000" orgfill="none" transform="translate(-452.08241697799326, -394.12313275004544) translate(160.35401969732243, 38.63952281863192) translate(13.448797456817601, -7.862373897831844) translate(-12.605932696325453, 183.68644786074248) translate(972,283) translate(-478.1112626953125, -9.244252822875978) translate(-0.7948471478521242, -36.165545227268865) translate(-0.0653076171875, -36.95747375488281) translate(-7.948471478520673, 0.3974235739260621) translate(186.32313486545956, -82.27255305747565) translate(59.0, -37.0) translate(572.0, -62.0) translate(10.0, 10.00006103515625)" fill="none" stroke-linejoin="round" d="   M82.775,481.297c-3.559-2.053-7.559-4.359-8.576-4.947" stroke="#000000" stroke-width="0.25" g2gstroke="#312783" stroke-miterlimit="10"/>
<path orgstroke="#000000" orgfill="none" transform="translate(-452.08241697799326, -394.12313275004544) translate(160.35401969732243, 38.63952281863192) translate(13.448797456817601, -7.862373897831844) translate(-12.605932696325453, 183.68644786074248) translate(972,283) translate(-478.1112626953125, -9.244252822875978) translate(-0.7948471478521242, -36.165545227268865) translate(-0.0653076171875, -36.95747375488281) translate(-7.948471478520673, 0.3974235739260621) translate(186.32313486545956, -82.27255305747565) translate(59.0, -37.0) translate(572.0, -62.0) translate(10.0, 10.00006103515625)" fill="none" d="M80.334,474.893   c0.408-0.18,0.99-0.141,1.301,0.088c0.312,0.229,0.233,0.559-0.175,0.738s-0.99,0.139-1.303-0.09   C79.847,475.402,79.927,475.07,80.334,474.893z" stroke="#000000" stroke-width="0.25" g2gstroke="#312783" stroke-miterlimit="10"/>
<path orgstroke="#000000" orgfill="none" transform="translate(-452.08241697799326, -394.12313275004544) translate(160.35401969732243, 38.63952281863192) translate(13.448797456817601, -7.862373897831844) translate(-12.605932696325453, 183.68644786074248) translate(972,283) translate(-478.1112626953125, -9.244252822875978) translate(-0.7948471478521242, -36.165545227268865) translate(-0.0653076171875, -36.95747375488281) translate(-7.948471478520673, 0.3974235739260621) translate(186.32313486545956, -82.27255305747565) translate(59.0, -37.0) translate(572.0, -62.0) translate(10.0, 10.00006103515625)" fill="none" d="M83.425,476.557   c0.408-0.18,0.99-0.141,1.301,0.088c0.312,0.229,0.233,0.559-0.175,0.738s-0.99,0.139-1.303-0.09   C82.938,477.066,83.018,476.734,83.425,476.557z" stroke="#000000" stroke-width="0.25" g2gstroke="#312783" stroke-miterlimit="10"/>
<path orgstroke="#000000" orgfill="none" transform="translate(-452.08241697799326, -394.12313275004544) translate(160.35401969732243, 38.63952281863192) translate(13.448797456817601, -7.862373897831844) translate(-12.605932696325453, 183.68644786074248) translate(972,283) translate(-478.1112626953125, -9.244252822875978) translate(-0.7948471478521242, -36.165545227268865) translate(-0.0653076171875, -36.95747375488281) translate(-7.948471478520673, 0.3974235739260621) translate(186.32313486545956, -82.27255305747565) translate(59.0, -37.0) translate(572.0, -62.0) translate(10.0, 10.00006103515625)" fill="none" d="M86.516,478.221   c0.408-0.18,0.99-0.141,1.301,0.088c0.312,0.229,0.233,0.559-0.175,0.738s-0.99,0.139-1.303-0.09   C86.029,478.73,86.109,478.398,86.516,478.221z" stroke="#000000" stroke-width="0.25" g2gstroke="#312783" stroke-miterlimit="10"/>
<g>
<path fill="#ffffff" g2gfill="#ECC35D" d="M105.874,500.656c-0.03-0.02-0.079-0.041-0.14-0.08c0.02,0,0.05,0.02,0.07,0.029    C105.833,500.615,105.853,500.637,105.874,500.656z" transform="translate(-452.08241697799326, -394.12313275004544) translate(160.35401969732243, 38.63952281863192) translate(13.448797456817601, -7.862373897831844) translate(-12.605932696325453, 183.68644786074248) translate(972,283) translate(-478.1112626953125, -9.244252822875978) translate(-0.7948471478521242, -36.165545227268865) translate(-0.0653076171875, -36.95747375488281) translate(-7.948471478520673, 0.3974235739260621) translate(186.32313486545956, -82.27255305747565) translate(59.0, -37.0) translate(572.0, -62.0) translate(10.0, 10.00006103515625)" orgfill="#ffffff"/>
<radialGradient transform="translate(-452.08241697799326, -394.12313275004544) translate(160.35401969732243, 38.63952281863192) translate(13.448797456817601, -7.862373897831844) translate(-12.605932696325453, 183.68644786074248) translate(972,283) translate(-478.1112626953125, -9.244252822875978) translate(-0.7948471478521242, -36.165545227268865) translate(-0.0653076171875, -36.95747375488281) translate(-7.948471478520673, 0.3974235739260621) translate(186.32313486545956, -82.27255305747565) translate(59.0, -37.0) translate(572.0, -62.0) translate(10.0, 10.00006103515625)" gradientTransform="matrix(0.0072 1 2.8437 -0.0205 -274.5403 394.4055)" gradientUnits="userSpaceOnUse" xmlns:xlink="http://www.w3.org/1999/xlink" xlink:type="simple" r="19.3919" cx="79.2207" xlink:actuate="onLoad" cy="124.2019" id="203::SVGID_27_" xlink:show="other">
<stop stop-opacity="0.3" stop-color="#FFFFFF" offset="0"/>
<stop stop-opacity="0.6" stop-color="#FFFFFF" offset="1"/>
</radialGradient>
<path fill="url(#203::SVGID_27_)" d="M74.333,488.246c-0.85-0.041-1.63-0.07-2.34-0.1c-0.391-0.01-0.83-0.021-1.34-0.051    c-0.33,0-0.7-0.02-1.1-0.049c-1.681-0.102-3.951-0.361-7.141-1.15c-1.39-0.34-2.949-0.781-4.72-1.35    c-1.841-0.602-3.91-1.33-6.229-2.24c0.469-0.611,0.84-1.061,1.06-1.291c0.01-0.01,0.06-0.049,0.11-0.109    c0.029-0.031,0.049-0.051,0.08-0.07c0.029-0.039,0.06-0.061,0.09-0.09c2.449-2.23,8.279-4.109,12.35-3.109    c2.51,0.619,6.93,2.738,16.85,3.568c3.791,0.32,11.37,0,19.43-0.51c0.08,0.051,0.141,0.102,0.221,0.18    c0.98,0.9,2.641,2.791,4.09,5.391c-5.49,0.631-10.46,0.961-14.88,1.109C83.954,488.615,78.394,488.416,74.333,488.246z" transform="translate(-452.08241697799326, -394.12313275004544) translate(160.35401969732243, 38.63952281863192) translate(13.448797456817601, -7.862373897831844) translate(-12.605932696325453, 183.68644786074248) translate(972,283) translate(-478.1112626953125, -9.244252822875978) translate(-0.7948471478521242, -36.165545227268865) translate(-0.0653076171875, -36.95747375488281) translate(-7.948471478520673, 0.3974235739260621) translate(186.32313486545956, -82.27255305747565) translate(59.0, -37.0) translate(572.0, -62.0) translate(10.0, 10.00006103515625)" orgfill="url(#203::SVGID_27_)"/>
<path fill="#ffffff" g2gfill="#ECC35D" d="M52.804,481.746c-0.03,0.029-0.061,0.051-0.09,0.09C52.744,481.797,52.784,481.766,52.804,481.746z" transform="translate(-452.08241697799326, -394.12313275004544) translate(160.35401969732243, 38.63952281863192) translate(13.448797456817601, -7.862373897831844) translate(-12.605932696325453, 183.68644786074248) translate(972,283) translate(-478.1112626953125, -9.244252822875978) translate(-0.7948471478521242, -36.165545227268865) translate(-0.0653076171875, -36.95747375488281) translate(-7.948471478520673, 0.3974235739260621) translate(186.32313486545956, -82.27255305747565) translate(59.0, -37.0) translate(572.0, -62.0) translate(10.0, 10.00006103515625)" orgfill="#ffffff"/>
<radialGradient transform="translate(-452.08241697799326, -394.12313275004544) translate(160.35401969732243, 38.63952281863192) translate(13.448797456817601, -7.862373897831844) translate(-12.605932696325453, 183.68644786074248) translate(972,283) translate(-478.1112626953125, -9.244252822875978) translate(-0.7948471478521242, -36.165545227268865) translate(-0.0653076171875, -36.95747375488281) translate(-7.948471478520673, 0.3974235739260621) translate(186.32313486545956, -82.27255305747565) translate(59.0, -37.0) translate(572.0, -62.0) translate(10.0, 10.00006103515625)" gradientTransform="matrix(0.0072 1 2.5521 -0.0184 -214.9331 405.4727)" gradientUnits="userSpaceOnUse" xmlns:xlink="http://www.w3.org/1999/xlink" xlink:type="simple" r="39.409" cx="77.5303" xlink:actuate="onLoad" cy="114.3845" id="203::SVGID_28_" xlink:show="other">
<stop stop-opacity="0.6" stop-color="#FFFFFF" offset="0"/>
<stop stop-opacity="0.2" stop-color="#FFFFFF" offset="1"/>
</radialGradient>
<path fill="url(#203::SVGID_28_)" d="M109.173,508.557c-0.05-0.221-0.07-0.461-0.07-0.711c0-0.59,0-2.289-0.14-5.1    c-0.09-1.85-0.239-4.189-0.489-7c-0.28-3.24-1.42-6.141-2.73-8.48c-5.49,0.631-10.46,0.961-14.88,1.109    c-6.91,0.24-12.47,0.041-16.53-0.129c-0.85-0.041-1.63-0.07-2.34-0.1c-0.391-0.01-0.83-0.021-1.34-0.051    c-0.33,0-0.7-0.02-1.1-0.049c-1.681-0.102-3.951-0.361-7.141-1.15c-1.391-0.34-2.95-0.781-4.72-1.35    c-1.841-0.602-3.91-1.33-6.23-2.24c-2.71,3.469-8.86,12.139-9.97,14.66c-0.43,0.988-0.811,2.059-0.92,3.18l-0.029,0.299    c0.039,1.141,0.619,4,7.799,7.301c4.61,2.119,8.5,4.029,14.92,5.24c3.58,0.689,7.961,1.16,13.69,1.32    c11.24,0.318,18.81-2.441,25.13-4.182c1.66-0.459,4.13-1.238,6.91-2.17C109.164,508.896,109.263,508.896,109.173,508.557z     M105.804,500.605c0.029,0.01,0.049,0.02,0.069,0.051c-0.03-0.02-0.079-0.041-0.14-0.08    C105.753,500.576,105.784,500.596,105.804,500.605z" transform="translate(-452.08241697799326, -394.12313275004544) translate(160.35401969732243, 38.63952281863192) translate(13.448797456817601, -7.862373897831844) translate(-12.605932696325453, 183.68644786074248) translate(972,283) translate(-478.1112626953125, -9.244252822875978) translate(-0.7948471478521242, -36.165545227268865) translate(-0.0653076171875, -36.95747375488281) translate(-7.948471478520673, 0.3974235739260621) translate(186.32313486545956, -82.27255305747565) translate(59.0, -37.0) translate(572.0, -62.0) translate(10.0, 10.00006103515625)" orgfill="url(#203::SVGID_28_)"/>
</g>
<path stroke-linecap="round" orgstroke="#000000" orgfill="none" transform="translate(-452.08241697799326, -394.12313275004544) translate(160.35401969732243, 38.63952281863192) translate(13.448797456817601, -7.862373897831844) translate(-12.605932696325453, 183.68644786074248) translate(972,283) translate(-478.1112626953125, -9.244252822875978) translate(-0.7948471478521242, -36.165545227268865) translate(-0.0653076171875, -36.95747375488281) translate(-7.948471478520673, 0.3974235739260621) translate(186.32313486545956, -82.27255305747565) translate(59.0, -37.0) translate(572.0, -62.0) translate(10.0, 10.00006103515625)" fill="none" stroke-linejoin="round" d="   M101.445,481.693c-8.06,0.516-15.648,0.834-19.44,0.516c-9.921-0.836-14.337-2.951-16.851-3.57   c-4.174-1.027-10.185,0.965-12.521,3.268" stroke="#000000" stroke-width="0.25" g2gstroke="#312783" stroke-miterlimit="10"/>
<path orgstroke="#000000" orgfill="none" transform="translate(-452.08241697799326, -394.12313275004544) translate(160.35401969732243, 38.63952281863192) translate(13.448797456817601, -7.862373897831844) translate(-12.605932696325453, 183.68644786074248) translate(972,283) translate(-478.1112626953125, -9.244252822875978) translate(-0.7948471478521242, -36.165545227268865) translate(-0.0653076171875, -36.95747375488281) translate(-7.948471478520673, 0.3974235739260621) translate(186.32313486545956, -82.27255305747565) translate(59.0, -37.0) translate(572.0, -62.0) translate(10.0, 10.00006103515625)" fill="none" d="M108.995,508.957   c-2.785,0.934-5.249,1.713-6.907,2.168c-6.327,1.738-13.896,4.506-25.136,4.182c-15.986-0.461-21.429-3.256-28.609-6.559   s-7.755-6.164-7.797-7.305l0.023-0.301c0.112-1.113,0.49-2.188,0.921-3.172c1.299-2.967,9.583-14.432,11.032-15.949   c0.036-0.039,0.334-0.322,0.334-0.322c1.425-1.463,4.187-2.951,5.591-3.451c2.195-0.781,4.692-1.035,6.707-0.541   c0.987,0.244,2.268,0.717,4.059,1.254c0.264,0.078,0.412,0.012,0.684-0.145c0.869-0.5,3.898-2.188,4.219-2.393   c0.375-0.242,0.338-0.914,0.816-1.189c0.479-0.277,4.363-2.57,4.738-2.744s0.897-0.389,1.572,0   c0.621,0.357,12.653,7.303,14.579,8.408c0.179,0.104,0.368,0.205,0.597,0.193c1.078-0.057,2.184-0.123,3.308-0.193   c0.315-0.02,0.483,0.074,0.673,0.184l0.846,0.498c0.201,0.113,0.266,0.164,0.405,0.293c1.86,1.717,6.223,7.041,6.825,13.871   c0.626,7.094,0.626,11.127,0.626,12.1c0,0.256,0.022,0.494,0.077,0.717C109.259,508.893,109.164,508.9,108.995,508.957z" stroke="#000000" stroke-width="0.25" g2gstroke="#312783" stroke-miterlimit="10"/>
</g>
</g>
</g>
</g>
</g>
</g></svg>