<svg xmlns="http://www.w3.org/2000/svg" xmlns:xlink="http://www.w3.org/1999/xlink" xmlns:x="http://ns.adobe.com/Extensibility/1.0/" xmlns:graph="http://ns.adobe.com/Graphs/1.0/" xmlns:i="http://ns.adobe.com/AdobeIllustrator/10.0/" xmlns:etg="http://www.eurotaxglass.com/etg/evd/" etg:dataTimestamp="1541512339925" contentScriptType="text/ecmascript" zoomAndPan="magnify" contentStyleType="text/css" id="Layer_1" enable-background="new 0 0 1841.891 1595.279" version="1.1" xml:space="preserve" width="1841.891px" preserveAspectRatio="xMidYMid meet" viewBox="0 0 1841.891 1595.279" height="1595.279px" x="0px" y="0px"><g xmlns="http://www.w3.org/2000/svg" objecttype="PS" tooltip="#UNDEFINED" id="218">
<g onmouseover="notifyOwner(AGV_OBJECT_MOUSEOVER, '218(PS)')" transform="translate(-9.433746356535266E-6, 3.356933575560106E-7) translate(-35.71980609130861, -13.200809143066408) translate(44.708733184814434, 94.79042849731445) matrix(0.6117410612267968 0 0 0.6117410612267968 0.2921243287958965 0.477310974878083) translate(-92,-34) " onclick="clickZoom(evt); notifyOwner(AGV_OBJECT_MOUSECLICK, '218(PS)')" onmouseout="notifyOwner(AGV_OBJECT_MOUSEOUT, '218(PS)')" tooltip="#UNDEFINED" id="218-Graphic" objecttype="GRAPHIC">
<g zvalue="219">
<g zvalue="33">
<g zvalue="20">
<g>
<path stroke-linecap="round" orgstroke="#000000" orgfill="#ffffff" transform="translate(-452.08241697799326, -394.12313275004544) translate(160.35401969732243, 38.63952281863192) translate(-12.605932696325453, 183.68644786074248) translate(972,283) translate(-478.1112626953125, -9.244252822875978) translate(59.0, -37.0) translate(572.0, -62.0) translate(10.0, 10.00006103515625)" fill="#ffffff" g2gfill="#ECC35D" d="M262.102,200.369   c1.979-2.291,13.36-13.4,58.735-39.457c46.822-26.887,63.146-32.113,64.092-32.443c0.5-0.176,0.438-0.264,0.623-0.586   c0.186-0.324,0.471-0.6,1.305-0.631c0.836-0.031,4.736-0.248,7.549,1.859c4.043,3.029,13.99,11.799,15.381,13.686   s2.359,3.271,2.189,4.74c-0.262,2.248,0.277,3.361-6.861,9.203c-7.139,5.84-41.301,26.504-58.68,36.637   c-17.377,10.133-44.697,23.719-57.119,28.17c-12.322,4.414-20.039,6.768-32.024,6.768c-0.184,0-0.333-0.008-0.333-0.291   c0-0.141-0.03-0.277-0.046-0.418c-0.901-8.287-1.476-18.201,0.603-22.42c0.874-1.775,1.839-3.111,2.544-3.969   c0.4-0.486,0.72-0.816,0.889-0.986c0.058-0.059,0.131-0.133,0.328-0.027c0.148,0.08,0.297,0.16,0.443,0.238   C261.862,200.515,261.922,200.576,262.102,200.369z" stroke="#000000" outline-element="true" stroke-width="0.5" g2gstroke="#312783" stroke-miterlimit="10"/>
<path stroke-linecap="round" orgstroke="#000000" orgfill="none" transform="translate(-452.08241697799326, -394.12313275004544) translate(160.35401969732243, 38.63952281863192) translate(-12.605932696325453, 183.68644786074248) translate(972,283) translate(-478.1112626953125, -9.244252822875978) translate(59.0, -37.0) translate(572.0, -62.0) translate(10.0, 10.00006103515625)" fill="none" stroke-linejoin="round" d="   M261.862,200.515c2.803,1.492,5.281,2.635,7.288,3.137c4.449,1.113,8.414,1.947,18.219-2.225   c9.803-4.172,45.684-23.99,59.174-31.777c13.49-7.789,36.783-22.529,41.373-26.354s6.676-9.805-0.625-15.09   c-0.287-0.207-0.672-0.488-1.148-0.836" stroke="#000000" stroke-width="0.25" g2gstroke="#312783" stroke-miterlimit="10"/>
<path stroke-linecap="round" orgstroke="#000000" orgfill="none" transform="translate(-452.08241697799326, -394.12313275004544) translate(160.35401969732243, 38.63952281863192) translate(-12.605932696325453, 183.68644786074248) translate(972,283) translate(-478.1112626953125, -9.244252822875978) translate(59.0, -37.0) translate(572.0, -62.0) translate(10.0, 10.00006103515625)" fill="none" stroke-linejoin="round" d="   M385.218,128.351c2.16,1.604,4.168,3.373,4.922,6.914c0.582,2.723,0.797,5.838-2.469,8.23" stroke="#000000" stroke-width="0.25" g2gstroke="#312783" stroke-miterlimit="10"/>
</g>
</g>
</g>
</g>
</g>
</g></svg>