<svg xmlns="http://www.w3.org/2000/svg" xmlns:xlink="http://www.w3.org/1999/xlink" xmlns:x="http://ns.adobe.com/Extensibility/1.0/" xmlns:graph="http://ns.adobe.com/Graphs/1.0/" xmlns:i="http://ns.adobe.com/AdobeIllustrator/10.0/" xmlns:etg="http://www.eurotaxglass.com/etg/evd/" etg:dataTimestamp="1541512339925" contentScriptType="text/ecmascript" zoomAndPan="magnify" contentStyleType="text/css" id="Layer_1" enable-background="new 0 0 1841.891 1595.279" version="1.1" xml:space="preserve" width="1841.891px" preserveAspectRatio="xMidYMid meet" viewBox="0 0 1841.891 1595.279" height="1595.279px" x="0px" y="0px"><g xmlns="http://www.w3.org/2000/svg" objecttype="PS" tooltip="#UNDEFINED" id="224">
<g onmouseover="notifyOwner(AGV_OBJECT_MOUSEOVER, '224(PS)')" transform="translate(-9.433746356535266E-6, 3.356933575560106E-7) translate(-35.71980609130861, -13.200809143066408) translate(44.708733184814434, 94.79042849731445) matrix(0.6117410612267968 0 0 0.6117410612267968 0.2921243287958965 0.477310974878083) translate(-92,-34) " onclick="clickZoom(evt); notifyOwner(AGV_OBJECT_MOUSECLICK, '224(PS)')" onmouseout="notifyOwner(AGV_OBJECT_MOUSEOUT, '224(PS)')" tooltip="#UNDEFINED" id="224-Graphic" objecttype="GRAPHIC">
<g zvalue="225">
<g zvalue="13">
<g zvalue="1">
<g>
<path orgstroke="#000000" stroke="#000000" d="   M144.217,309.048l-7.018,2.445c-0.578,0.244-0.825,0.988-0.825,0.988s-0.908,1.898-1.565,2.639   c-1.567,1.568-5.443,4.949-5.443,4.949c-5.938,5.279-7.506,12.531-7.338,15.67l0.411,8.494c0,0.244,0.161,0.494,0.414,0.658   l0.574,0.328c0.328,0.168,0.824,0.33,1.731,0.168c0.824-0.168,1.814-0.414,2.473-0.824l8.659-5.529   c0.493-0.412,0.823-1.074,0.66-2.227c0,0-0.083-1.65-0.165-3.543c0,0-0.165-1.902,2.394-2.805   c2.061-0.742,10.964-1.73,22.926,8.076c0,0,1.318,1.242,2.388,2.973c4.206,6.514,6.757,13.525,8.495,18.643   c0.826,2.473,2.557,8.408,3.299,10.717c0,0,0.988,4.045,7.834,7.178c3.627,1.65,5.357,2.477,6.183,2.801c0,0,0.739,0.328,1.319,0   l1.65-0.822c1.318-0.664-1.152-1.982-1.152-1.982s-0.992-0.576-0.826-2.309c0.244-5.111,0.66-21.855-4.04-33.971   c-1.319-3.385-5.856-12.039-7.751-14.842l-0.33-0.494c-4.699-6.436-11.707-10.885-17.236-13.359   c-3.627-2.066-11.543-2.066-11.543-2.066c-0.495,0-1.399,0.086-2.227,0.168c-1.076,0.082-1.322-0.496-1.322-0.496l-0.55-0.799   c-0.101-0.174-0.259-0.256-0.585-0.443l-0.75-0.316C144.749,308.993,144.459,308.962,144.217,309.048z" stroke-linecap="round" outline-element="true" transform="translate(-235.70108919365452, -504.2457727831464) translate(-42.50347510049505, -293.66037342160246) translate(49.926936414378815, 10.13010304059867) translate(-42.163361648033515, 12.297647147343014) translate(1051,951) translate(2.456825836181622, 1.177978515443101E-5) translate(-566.6236223144531, -50.701335571289064) translate(-8.476427269691044, 1.0595534087113663) translate(99.59802041886905, -41.32258293974357) translate(84.0, -34.0) translate(440.0, -17.0) translate(10.0, 10.00006103515625)" stroke-miterlimit="10" orgfill="#ffffff" fill="#ffffff" stroke-width="0.5" g2gfill="#ECC35D" stroke-linejoin="round" g2gstroke="#312783"/>
<path stroke-linecap="round" orgstroke="#000000" orgfill="none" transform="translate(-235.70108919365452, -504.2457727831464) translate(-42.50347510049505, -293.66037342160246) translate(49.926936414378815, 10.13010304059867) translate(-42.163361648033515, 12.297647147343014) translate(1051,951) translate(2.456825836181622, 1.177978515443101E-5) translate(-566.6236223144531, -50.701335571289064) translate(-8.476427269691044, 1.0595534087113663) translate(99.59802041886905, -41.32258293974357) translate(84.0, -34.0) translate(440.0, -17.0) translate(10.0, 10.00006103515625)" fill="none" stroke-linejoin="round" d="   M137.939,322.542c6.021,1.318,12.533,4.535,17.814,8.904c2.887,2.395,5.444,5.529,7.504,8.414" stroke="#000000" stroke-width="0.25" g2gstroke="#312783" stroke-miterlimit="10"/>
<path stroke-linecap="round" orgstroke="#000000" orgfill="none" transform="translate(-235.70108919365452, -504.2457727831464) translate(-42.50347510049505, -293.66037342160246) translate(49.926936414378815, 10.13010304059867) translate(-42.163361648033515, 12.297647147343014) translate(1051,951) translate(2.456825836181622, 1.177978515443101E-5) translate(-566.6236223144531, -50.701335571289064) translate(-8.476427269691044, 1.0595534087113663) translate(99.59802041886905, -41.32258293974357) translate(84.0, -34.0) translate(440.0, -17.0) translate(10.0, 10.00006103515625)" fill="none" stroke-linejoin="round" d="   M165.481,331.534c0.577,0,1.155,0.572,1.155,1.316c0,0.74-0.412,1.398-1.072,1.398c-0.578,0-1.158-0.57-1.158-1.316   S164.904,331.61,165.481,331.534z" stroke="#000000" stroke-width="0.25" g2gstroke="#312783" stroke-miterlimit="10"/>
<path stroke-linecap="round" orgstroke="#000000" orgfill="none" transform="translate(-235.70108919365452, -504.2457727831464) translate(-42.50347510049505, -293.66037342160246) translate(49.926936414378815, 10.13010304059867) translate(-42.163361648033515, 12.297647147343014) translate(1051,951) translate(2.456825836181622, 1.177978515443101E-5) translate(-566.6236223144531, -50.701335571289064) translate(-8.476427269691044, 1.0595534087113663) translate(99.59802041886905, -41.32258293974357) translate(84.0, -34.0) translate(440.0, -17.0) translate(10.0, 10.00006103515625)" fill="none" stroke-linejoin="round" d="   M137.939,322.542c-0.986-0.25-1.978-0.412-2.971-0.494c-2.557-0.25-5.771,1.234-7.174,2.721c-3.384,3.715-4.041,8.412-3.796,14.35   l0.165,3.385l0.081,2.969" stroke="#000000" stroke-width="0.25" g2gstroke="#312783" stroke-miterlimit="10"/>
<path stroke-linecap="round" orgstroke="#000000" orgfill="none" transform="translate(-235.70108919365452, -504.2457727831464) translate(-42.50347510049505, -293.66037342160246) translate(49.926936414378815, 10.13010304059867) translate(-42.163361648033515, 12.297647147343014) translate(1051,951) translate(2.456825836181622, 1.177978515443101E-5) translate(-566.6236223144531, -50.701335571289064) translate(-8.476427269691044, 1.0595534087113663) translate(99.59802041886905, -41.32258293974357) translate(84.0, -34.0) translate(440.0, -17.0) translate(10.0, 10.00006103515625)" fill="none" stroke-linejoin="round" d="   M190.055,355.112c0,0-1.272,4.531-1.399,5.361c-0.238,1.559,0.007,5.324-0.084,7.094c-0.034,0.662-0.245,1.814-1.24,2.475   l-4.651,3.26" stroke="#000000" stroke-width="0.25" g2gstroke="#312783" stroke-miterlimit="10"/>
<path stroke-linecap="round" orgstroke="#000000" orgfill="none" transform="translate(-235.70108919365452, -504.2457727831464) translate(-42.50347510049505, -293.66037342160246) translate(49.926936414378815, 10.13010304059867) translate(-42.163361648033515, 12.297647147343014) translate(1051,951) translate(2.456825836181622, 1.177978515443101E-5) translate(-566.6236223144531, -50.701335571289064) translate(-8.476427269691044, 1.0595534087113663) translate(99.59802041886905, -41.32258293974357) translate(84.0, -34.0) translate(440.0, -17.0) translate(10.0, 10.00006103515625)" fill="none" stroke-linejoin="round" d="   M153.631,324.327c0.27,0.234,6.628,4.939,7.56,5.725c0.661,0.559,1.621,0.705,2.145,0.572c0.987-0.244,2.639-0.74,3.709,0.658   c0.916,1.32,1.077,2.391,0.584,3.879c-0.579,1.482-0.658,1.482-0.088,2.475c0.496,0.992,5.691,9.158,6.849,11.797   c1.157,2.637,2.146,2.477,2.557,2.393c0.414-0.088,6.928-1.158,11.46-5.857" stroke="#000000" stroke-width="0.25" g2gstroke="#312783" stroke-miterlimit="10"/>
<path stroke-linecap="round" orgstroke="#000000" orgfill="none" transform="translate(-235.70108919365452, -504.2457727831464) translate(-42.50347510049505, -293.66037342160246) translate(49.926936414378815, 10.13010304059867) translate(-42.163361648033515, 12.297647147343014) translate(1051,951) translate(2.456825836181622, 1.177978515443101E-5) translate(-566.6236223144531, -50.701335571289064) translate(-8.476427269691044, 1.0595534087113663) translate(99.59802041886905, -41.32258293974357) translate(84.0, -34.0) translate(440.0, -17.0) translate(10.0, 10.00006103515625)" fill="none" stroke-linejoin="round" d="   M134.805,336.147c-0.084,0.826-0.658,1.65-1.237,1.896c-0.659,0.244-1.072-0.082-0.986-0.908c0.083-0.822,0.66-1.646,1.235-1.896   C134.477,334.995,134.888,335.325,134.805,336.147z" stroke="#000000" stroke-width="0.25" g2gstroke="#312783" stroke-miterlimit="10"/>
<path stroke-linecap="round" orgstroke="#000000" orgfill="none" transform="translate(-235.70108919365452, -504.2457727831464) translate(-42.50347510049505, -293.66037342160246) translate(49.926936414378815, 10.13010304059867) translate(-42.163361648033515, 12.297647147343014) translate(1051,951) translate(2.456825836181622, 1.177978515443101E-5) translate(-566.6236223144531, -50.701335571289064) translate(-8.476427269691044, 1.0595534087113663) translate(99.59802041886905, -41.32258293974357) translate(84.0, -34.0) translate(440.0, -17.0) translate(10.0, 10.00006103515625)" fill="none" stroke-linejoin="round" d="   M130.931,342.581c0-0.912-0.248-5.281-0.248-5.939c-0.089-1.318,0.734-2.889,1.396-3.293c1.239-0.664,5.22-3.568,5.707-4.887" stroke="#000000" stroke-width="0.25" g2gstroke="#312783" stroke-miterlimit="10"/>
<path stroke-linecap="round" orgstroke="#000000" orgfill="none" transform="translate(-235.70108919365452, -504.2457727831464) translate(-42.50347510049505, -293.66037342160246) translate(49.926936414378815, 10.13010304059867) translate(-42.163361648033515, 12.297647147343014) translate(1051,951) translate(2.456825836181622, 1.177978515443101E-5) translate(-566.6236223144531, -50.701335571289064) translate(-8.476427269691044, 1.0595534087113663) translate(99.59802041886905, -41.32258293974357) translate(84.0, -34.0) translate(440.0, -17.0) translate(10.0, 10.00006103515625)" fill="none" stroke-linejoin="round" d="   M136.783,333.181c0,0-0.08-11.381,10.145-7.424" stroke="#000000" stroke-width="0.25" g2gstroke="#312783" stroke-miterlimit="10"/>
<path stroke-linecap="round" orgstroke="#000000" orgfill="none" transform="translate(-235.70108919365452, -504.2457727831464) translate(-42.50347510049505, -293.66037342160246) translate(49.926936414378815, 10.13010304059867) translate(-42.163361648033515, 12.297647147343014) translate(1051,951) translate(2.456825836181622, 1.177978515443101E-5) translate(-566.6236223144531, -50.701335571289064) translate(-8.476427269691044, 1.0595534087113663) translate(99.59802041886905, -41.32258293974357) translate(84.0, -34.0) translate(440.0, -17.0) translate(10.0, 10.00006103515625)" fill="none" stroke-linejoin="round" d="   M138.105,312.563l0.081,1.482c0,0,0.086,0.498,0.58,0.33l9.398-3.295" stroke="#000000" stroke-width="0.25" g2gstroke="#312783" stroke-miterlimit="10"/>
<path stroke-linecap="round" orgstroke="#000000" orgfill="none" transform="translate(-235.70108919365452, -504.2457727831464) translate(-42.50347510049505, -293.66037342160246) translate(49.926936414378815, 10.13010304059867) translate(-42.163361648033515, 12.297647147343014) translate(1051,951) translate(2.456825836181622, 1.177978515443101E-5) translate(-566.6236223144531, -50.701335571289064) translate(-8.476427269691044, 1.0595534087113663) translate(99.59802041886905, -41.32258293974357) translate(84.0, -34.0) translate(440.0, -17.0) translate(10.0, 10.00006103515625)" fill="none" stroke-linejoin="round" d="   M193.271,379.771c-0.738-0.326-3.135-1.482-7.257-3.381c-6.845-3.133-7.831-7.174-7.831-7.174   c-0.082-0.248-3.629-11.875-5.113-15.26c-5.771-13.521-12.283-20.697-13.275-21.77c-5.362-5.279-11.96-9.236-20.614-11.215   c-0.498-0.084-1.979-0.328-1.979-0.328l-0.328-0.08c-0.905-0.166-1.566-0.166-1.234-2.805c0.16-1.289,0.639-2.344,1.891-3.621" stroke="#000000" stroke-width="0.25" g2gstroke="#312783" stroke-miterlimit="10"/>
<path stroke-linecap="round" orgstroke="#000000" orgfill="none" transform="translate(-235.70108919365452, -504.2457727831464) translate(-42.50347510049505, -293.66037342160246) translate(49.926936414378815, 10.13010304059867) translate(-42.163361648033515, 12.297647147343014) translate(1051,951) translate(2.456825836181622, 1.177978515443101E-5) translate(-566.6236223144531, -50.701335571289064) translate(-8.476427269691044, 1.0595534087113663) translate(99.59802041886905, -41.32258293974357) translate(84.0, -34.0) translate(440.0, -17.0) translate(10.0, 10.00006103515625)" fill="none" stroke-linejoin="round" d="   M137.529,314.138c-0.66,0.824-1.074,1.971-1.237,2.879c-0.333,2.639,0.326,2.639,1.234,2.805l0.327,0.082   c0,0,1.484,0.25,1.979,0.33c8.655,1.896,15.257,5.938,20.616,11.215c1.072,1.074,7.504,8.244,13.276,21.771   c1.483,3.383,5.031,15.008,5.11,15.256c0,0,0.989,4.043,7.833,7.178c1.899,0.908,3.959,1.813,5.195,2.307" stroke="#000000" stroke-width="0.25" g2gstroke="#312783" stroke-miterlimit="10"/>
<path stroke-linecap="round" orgstroke="#000000" orgfill="none" transform="translate(-235.70108919365452, -504.2457727831464) translate(-42.50347510049505, -293.66037342160246) translate(49.926936414378815, 10.13010304059867) translate(-42.163361648033515, 12.297647147343014) translate(1051,951) translate(2.456825836181622, 1.177978515443101E-5) translate(-566.6236223144531, -50.701335571289064) translate(-8.476427269691044, 1.0595534087113663) translate(99.59802041886905, -41.32258293974357) translate(84.0, -34.0) translate(440.0, -17.0) translate(10.0, 10.00006103515625)" fill="none" stroke-linejoin="round" d="   M145.196,312.151c1.317,0.326,4.287,0.99,4.618,1.072c8.656,1.896,15.256,5.936,20.61,11.213c1.077,1.076,7.511,8.246,13.28,21.771   c0.165,0.414,0.74,1.732,1.072,2.637" stroke="#000000" stroke-width="0.25" g2gstroke="#312783" stroke-miterlimit="10"/>
<path stroke-linecap="round" orgstroke="#000000" orgfill="none" transform="translate(-235.70108919365452, -504.2457727831464) translate(-42.50347510049505, -293.66037342160246) translate(49.926936414378815, 10.13010304059867) translate(-42.163361648033515, 12.297647147343014) translate(1051,951) translate(2.456825836181622, 1.177978515443101E-5) translate(-566.6236223144531, -50.701335571289064) translate(-8.476427269691044, 1.0595534087113663) translate(99.59802041886905, -41.32258293974357) translate(84.0, -34.0) translate(440.0, -17.0) translate(10.0, 10.00006103515625)" fill="none" stroke-linejoin="round" d="   M141.981,313.306c0,0,6.101,1.318,6.597,1.404c8.658,1.898,15.257,5.934,20.617,11.215c1.074,1.072,7.504,8.33,13.277,21.771   c0.162,0.326,0.575,1.316,0.826,1.977" stroke="#000000" stroke-width="0.25" g2gstroke="#312783" stroke-miterlimit="10"/>
<path stroke-linecap="round" orgstroke="#000000" orgfill="none" transform="translate(-235.70108919365452, -504.2457727831464) translate(-42.50347510049505, -293.66037342160246) translate(49.926936414378815, 10.13010304059867) translate(-42.163361648033515, 12.297647147343014) translate(1051,951) translate(2.456825836181622, 1.177978515443101E-5) translate(-566.6236223144531, -50.701335571289064) translate(-8.476427269691044, 1.0595534087113663) translate(99.59802041886905, -41.32258293974357) translate(84.0, -34.0) translate(440.0, -17.0) translate(10.0, 10.00006103515625)" fill="none" stroke-linejoin="round" d="   M193.355,379.771c0,0-0.088,0-0.166-0.08" stroke="#000000" stroke-width="0.25" g2gstroke="#312783" stroke-miterlimit="10"/>
<path stroke-linecap="round" orgstroke="#000000" orgfill="none" transform="translate(-235.70108919365452, -504.2457727831464) translate(-42.50347510049505, -293.66037342160246) translate(49.926936414378815, 10.13010304059867) translate(-42.163361648033515, 12.297647147343014) translate(1051,951) translate(2.456825836181622, 1.177978515443101E-5) translate(-566.6236223144531, -50.701335571289064) translate(-8.476427269691044, 1.0595534087113663) translate(99.59802041886905, -41.32258293974357) translate(84.0, -34.0) translate(440.0, -17.0) translate(10.0, 10.00006103515625)" fill="none" stroke-linejoin="round" d="   M136.783,311.903c0,0,0.82,0.281,1.08,0.404c0.165,0.078,0.449,0.137,0.711,0.047l7.532-2.68" stroke="#000000" stroke-width="0.25" g2gstroke="#312783" stroke-miterlimit="10"/>
<path stroke-linecap="round" orgstroke="#000000" orgfill="none" transform="translate(-235.70108919365452, -504.2457727831464) translate(-42.50347510049505, -293.66037342160246) translate(49.926936414378815, 10.13010304059867) translate(-42.163361648033515, 12.297647147343014) translate(1051,951) translate(2.456825836181622, 1.177978515443101E-5) translate(-566.6236223144531, -50.701335571289064) translate(-8.476427269691044, 1.0595534087113663) translate(99.59802041886905, -41.32258293974357) translate(84.0, -34.0) translate(440.0, -17.0) translate(10.0, 10.00006103515625)" fill="none" stroke-linejoin="round" d="M135.95799255371094 313.7200012207031L138.4340057373047 314.37799072265625" stroke="#000000" stroke-width="0.25" g2gstroke="#312783" stroke-miterlimit="10"/>
<path stroke-linecap="round" orgstroke="#000000" orgfill="none" transform="translate(-235.70108919365452, -504.2457727831464) translate(-42.50347510049505, -293.66037342160246) translate(49.926936414378815, 10.13010304059867) translate(-42.163361648033515, 12.297647147343014) translate(1051,951) translate(2.456825836181622, 1.177978515443101E-5) translate(-566.6236223144531, -50.701335571289064) translate(-8.476427269691044, 1.0595534087113663) translate(99.59802041886905, -41.32258293974357) translate(84.0, -34.0) translate(440.0, -17.0) translate(10.0, 10.00006103515625)" fill="none" stroke-linejoin="round" d="   M127.633,344.642c0,0-2.643-22.928,7.335-22.594" stroke="#000000" stroke-width="0.25" g2gstroke="#312783" stroke-miterlimit="10"/>
<path stroke-linecap="round" orgstroke="#000000" orgfill="none" transform="translate(-235.70108919365452, -504.2457727831464) translate(-42.50347510049505, -293.66037342160246) translate(49.926936414378815, 10.13010304059867) translate(-42.163361648033515, 12.297647147343014) translate(1051,951) translate(2.456825836181622, 1.177978515443101E-5) translate(-566.6236223144531, -50.701335571289064) translate(-8.476427269691044, 1.0595534087113663) translate(99.59802041886905, -41.32258293974357) translate(84.0, -34.0) translate(440.0, -17.0) translate(10.0, 10.00006103515625)" fill="none" stroke-linejoin="round" d="   M132.991,332.771c0.249-3.879,0.988-7.922,2.886-10.477" stroke="#000000" stroke-width="0.25" g2gstroke="#312783" stroke-miterlimit="10"/>
<path stroke-linecap="round" orgstroke="#000000" orgfill="none" transform="translate(-235.70108919365452, -504.2457727831464) translate(-42.50347510049505, -293.66037342160246) translate(49.926936414378815, 10.13010304059867) translate(-42.163361648033515, 12.297647147343014) translate(1051,951) translate(2.456825836181622, 1.177978515443101E-5) translate(-566.6236223144531, -50.701335571289064) translate(-8.476427269691044, 1.0595534087113663) translate(99.59802041886905, -41.32258293974357) translate(84.0, -34.0) translate(440.0, -17.0) translate(10.0, 10.00006103515625)" fill="none" stroke-linejoin="round" d="   M145.691,321.884c0,0,2.475-7.922,15.505-9.238" stroke="#000000" stroke-width="0.25" g2gstroke="#312783" stroke-miterlimit="10"/>
<path stroke-linecap="round" orgstroke="#000000" orgfill="none" transform="translate(-235.70108919365452, -504.2457727831464) translate(-42.50347510049505, -293.66037342160246) translate(49.926936414378815, 10.13010304059867) translate(-42.163361648033515, 12.297647147343014) translate(1051,951) translate(2.456825836181622, 1.177978515443101E-5) translate(-566.6236223144531, -50.701335571289064) translate(-8.476427269691044, 1.0595534087113663) translate(99.59802041886905, -41.32258293974357) translate(84.0, -34.0) translate(440.0, -17.0) translate(10.0, 10.00006103515625)" fill="none" stroke-linejoin="round" d="   M153.109,325.591c0,0,1.98-7.832,15.011-9.236" stroke="#000000" stroke-width="0.25" g2gstroke="#312783" stroke-miterlimit="10"/>
<path stroke-linecap="round" orgstroke="#000000" orgfill="none" transform="translate(-235.70108919365452, -504.2457727831464) translate(-42.50347510049505, -293.66037342160246) translate(49.926936414378815, 10.13010304059867) translate(-42.163361648033515, 12.297647147343014) translate(1051,951) translate(2.456825836181622, 1.177978515443101E-5) translate(-566.6236223144531, -50.701335571289064) translate(-8.476427269691044, 1.0595534087113663) translate(99.59802041886905, -41.32258293974357) translate(84.0, -34.0) translate(440.0, -17.0) translate(10.0, 10.00006103515625)" fill="none" stroke-linejoin="round" d="   M168.699,339.53c0,0,2.227-7.008,13.195-8.656" stroke="#000000" stroke-width="0.25" g2gstroke="#312783" stroke-miterlimit="10"/>
<path stroke-linecap="round" orgstroke="#000000" orgfill="none" transform="translate(-235.70108919365452, -504.2457727831464) translate(-42.50347510049505, -293.66037342160246) translate(49.926936414378815, 10.13010304059867) translate(-42.163361648033515, 12.297647147343014) translate(1051,951) translate(2.456825836181622, 1.177978515443101E-5) translate(-566.6236223144531, -50.701335571289064) translate(-8.476427269691044, 1.0595534087113663) translate(99.59802041886905, -41.32258293974357) translate(84.0, -34.0) translate(440.0, -17.0) translate(10.0, 10.00006103515625)" fill="none" stroke-linejoin="round" d="   M173.153,347.114c0,0,1.896-6.35,12.861-7.916" stroke="#000000" stroke-width="0.25" g2gstroke="#312783" stroke-miterlimit="10"/>
</g>
</g>
</g>
</g>
</g>
</g></svg>