<svg xmlns="http://www.w3.org/2000/svg" xmlns:xlink="http://www.w3.org/1999/xlink" xmlns:x="http://ns.adobe.com/Extensibility/1.0/" xmlns:graph="http://ns.adobe.com/Graphs/1.0/" xmlns:i="http://ns.adobe.com/AdobeIllustrator/10.0/" xmlns:etg="http://www.eurotaxglass.com/etg/evd/" etg:dataTimestamp="1541512339925" contentScriptType="text/ecmascript" zoomAndPan="magnify" contentStyleType="text/css" id="Layer_1" enable-background="new 0 0 1841.891 1595.279" version="1.1" xml:space="preserve" width="1841.891px" preserveAspectRatio="xMidYMid meet" viewBox="0 0 1841.891 1595.279" height="1595.279px" x="0px" y="0px"><g xmlns="http://www.w3.org/2000/svg" objecttype="PS" tooltip="#UNDEFINED" id="227">
<g onmouseover="notifyOwner(AGV_OBJECT_MOUSEOVER, '227(PS)')" transform="translate(-9.433746356535266E-6, 3.356933575560106E-7) translate(-35.71980609130861, -13.200809143066408) translate(44.708733184814434, 94.79042849731445) matrix(0.6117410612267968 0 0 0.6117410612267968 0.2921243287958965 0.477310974878083) translate(-92,-34) " onclick="clickZoom(evt); notifyOwner(AGV_OBJECT_MOUSECLICK, '227(PS)')" onmouseout="notifyOwner(AGV_OBJECT_MOUSEOUT, '227(PS)')" tooltip="#UNDEFINED" id="227-Graphic" objecttype="GRAPHIC">
<g zvalue="228">
<g zvalue="28">
<g zvalue="18">
<g>
<path orgstroke="#000000" orgfill="#ffffff" transform="translate(-235.70108919365452, -504.2457727831464) translate(-42.50347510049505, -293.66037342160246) translate(-7.766191290947518, -5.648139120689166) translate(-42.163361648033515, 12.297647147343014) translate(1051,951) translate(2.456825836181622, 1.177978515443101E-5) translate(-566.6236223144531, -50.701335571289064) translate(-24.36972840036151, -4.238213634845522) translate(84.0, -34.0) translate(440.0, -17.0) translate(10.0, 10.00006103515625)" fill="#ffffff" g2gfill="#ECC35D" d="M488.129,439.716   c0.785,3.203,1.424,5.766,1.816,6.67c1.061,2.441,4.127,4.619,13.574,7.42c9.449,2.801,61.307,17.557,68.652,18.881   c7.348,1.326,14.99,2.645,24.371,0c0.559-0.158,1.787-0.525,2.377-0.721c0.502-0.162,1.496-0.623,1.846-1.148   c0.352-0.527,0.662-1.063,0.9-1.473c0.604-1.051,1.514-1.336,2.041-1.557c0.525-0.219,13.967-5.398,15.502-5.969   c0.182-0.068,0.354-0.123,0.514-0.172c0.334-0.107,0.545-0.123,0.545,0.389c0,0.107,0.012,0.207,0.012,0.297   c0,0.357,0.033,0.488,0.428,0.664c0.174,0.076,0.434,0.164,0.666,0.238c0.555,0.168,0.799,0.197,1.432-0.057   c20.998-8.449,51.158-22.18,80.813-40.621c48.174-29.955,56.139-42.059,58.381-45.102c1.439-1.959,3.592-6.596,5.088-12.559   c0.746-2.967,1.324-6.266,1.576-9.725v-0.139c0.252-3.615-2.26-5.127-6.9-9.543c-5.451-5.188-42.721-30.416-48.146-34.025   c-0.354-0.236-0.699-0.199-0.943-0.057l-0.984,0.559c-0.457,0.26-0.484,0.424-0.553,0.781c-1.834,9.729-4.926,14.535-8.52,19.313   c-1.105,1.467-3.291,3.182-5.32,4.635c-0.42,0.303-0.596,0.543-0.596,0.893v0.475c0,0.361,0.055,0.619,0.496,0.875   c6.158,3.551,34.891,22.17,41.219,28.459c2.777,2.766,4.51,5.199,4.537,7.539c0,0.043-0.012,0.133-0.018,0.178   c-0.373,3.229-3.244,6.287-8.102,9.748c-16.992,12.104-32.15,21.996-45.834,30.211c-1.16,0.695-7.406,0.641-8.551,1.316   c-6.953,4.105-7.781,4.568-14.008,7.877c-1.48,0.787-3.58,5.506-5.02,6.252c-28.082,14.551-41.824,21.002-65.348,29.076   c-9.215,3.164-22.055,1.322-29.402,0c-4.84-0.871-34.131-9.35-56.5-15.914c-0.479-0.139-0.641-0.205-1.324-0.023   c-0.623,0.166-1.236,0.326-1.854,0.443c-0.271,0.053-0.658,0.061-1.025-0.043c-3.152-0.914-5.996-1.754-8.402-2.455   c-2.617-0.766-5.574-1.777-7.213-3.182c-0.305-0.258-0.561-0.324-1.037-0.047l-0.889,0.504   C488.08,439.075,488.053,439.399,488.129,439.716z" stroke="#000000" outline-element="true" stroke-width="0.5" g2gstroke="#312783" stroke-miterlimit="10"/>
<path orgstroke="#000000" orgfill="none" transform="translate(-235.70108919365452, -504.2457727831464) translate(-42.50347510049505, -293.66037342160246) translate(-7.766191290947518, -5.648139120689166) translate(-42.163361648033515, 12.297647147343014) translate(1051,951) translate(2.456825836181622, 1.177978515443101E-5) translate(-566.6236223144531, -50.701335571289064) translate(-24.36972840036151, -4.238213634845522) translate(84.0, -34.0) translate(440.0, -17.0) translate(10.0, 10.00006103515625)" fill="none" d="M495.338,442.894   c0.848,3.451,1.533,6.244,1.947,7.201c0.332,0.768,0.863,1.51,1.73,2.254" stroke="#000000" stroke-width="0.25" g2gstroke="#312783" stroke-miterlimit="10"/>
<path orgstroke="#000000" orgfill="none" transform="translate(-235.70108919365452, -504.2457727831464) translate(-42.50347510049505, -293.66037342160246) translate(-7.766191290947518, -5.648139120689166) translate(-42.163361648033515, 12.297647147343014) translate(1051,951) translate(2.456825836181622, 1.177978515443101E-5) translate(-566.6236223144531, -50.701335571289064) translate(-24.36972840036151, -4.238213634845522) translate(84.0, -34.0) translate(440.0, -17.0) translate(10.0, 10.00006103515625)" fill="none" d="M488.107,439.306   c1.357,1.783,4.785,2.877,7.721,3.734c19.604,5.715,69.98,20.57,76.344,21.717c4.912,0.885,9.953,1.77,15.557,1.471" stroke="#000000" stroke-width="0.25" g2gstroke="#312783" stroke-miterlimit="10"/>
<path orgstroke="#000000" orgfill="none" transform="translate(-235.70108919365452, -504.2457727831464) translate(-42.50347510049505, -293.66037342160246) translate(-7.766191290947518, -5.648139120689166) translate(-42.163361648033515, 12.297647147343014) translate(1051,951) translate(2.456825836181622, 1.177978515443101E-5) translate(-566.6236223144531, -50.701335571289064) translate(-24.36972840036151, -4.238213634845522) translate(84.0, -34.0) translate(440.0, -17.0) translate(10.0, 10.00006103515625)" fill="none" d="M622.9979858398438 455.20599365234375L622.9979858398438 457.6400146484375" stroke="#000000" stroke-width="0.25" g2gstroke="#312783" stroke-miterlimit="10"/>
<path orgstroke="#000000" orgfill="none" transform="translate(-235.70108919365452, -504.2457727831464) translate(-42.50347510049505, -293.66037342160246) translate(-7.766191290947518, -5.648139120689166) translate(-42.163361648033515, 12.297647147343014) translate(1051,951) translate(2.456825836181622, 1.177978515443101E-5) translate(-566.6236223144531, -50.701335571289064) translate(-24.36972840036151, -4.238213634845522) translate(84.0, -34.0) translate(440.0, -17.0) translate(10.0, 10.00006103515625)" fill="none" d="M622.146,454.659v1.867   c0,0.283-0.211,0.57-0.539,0.701c-12.887,5.154-22.242,8.326-25.807,9.33c-1.338,0.375-2.648,0.646-3.916,0.898   c-1.738,0.346-2.979-0.158-3.807-0.803" stroke="#000000" stroke-width="0.25" g2gstroke="#312783" stroke-miterlimit="10"/>
<path orgstroke="#000000" orgfill="none" transform="translate(-235.70108919365452, -504.2457727831464) translate(-42.50347510049505, -293.66037342160246) translate(-7.766191290947518, -5.648139120689166) translate(-42.163361648033515, 12.297647147343014) translate(1051,951) translate(2.456825836181622, 1.177978515443101E-5) translate(-566.6236223144531, -50.701335571289064) translate(-24.36972840036151, -4.238213634845522) translate(84.0, -34.0) translate(440.0, -17.0) translate(10.0, 10.00006103515625)" fill="none" d="M767.1209716796875 359.9809875488281L767.1209716796875 357.67498779296875" stroke="#000000" stroke-width="0.25" g2gstroke="#312783"/>
<path orgstroke="#000000" orgfill="none" transform="translate(-235.70108919365452, -504.2457727831464) translate(-42.50347510049505, -293.66037342160246) translate(-7.766191290947518, -5.648139120689166) translate(-42.163361648033515, 12.297647147343014) translate(1051,951) translate(2.456825836181622, 1.177978515443101E-5) translate(-566.6236223144531, -50.701335571289064) translate(-24.36972840036151, -4.238213634845522) translate(84.0, -34.0) translate(440.0, -17.0) translate(10.0, 10.00006103515625)" fill="none" d="M767.961,357.886c0,0-0.275,3.742-0.84,5.074   c-1.865,4.654-4.293,7.982-5.127,9.115c-2.24,3.041-10.207,15.143-58.379,45.102c-29.551,18.375-59.607,32.076-80.596,40.529" stroke="#000000" stroke-width="0.25" g2gstroke="#312783" stroke-miterlimit="10"/>
<path orgstroke="#000000" orgfill="none" transform="translate(-235.70108919365452, -504.2457727831464) translate(-42.50347510049505, -293.66037342160246) translate(-7.766191290947518, -5.648139120689166) translate(-42.163361648033515, 12.297647147343014) translate(1051,951) translate(2.456825836181622, 1.177978515443101E-5) translate(-566.6236223144531, -50.701335571289064) translate(-24.36972840036151, -4.238213634845522) translate(84.0, -34.0) translate(440.0, -17.0) translate(10.0, 10.00006103515625)" fill="none" d="M623.02,457.7   c-13.227,5.33-22.852,8.574-26.477,9.598c-1.34,0.375-2.65,0.646-3.918,0.9c-2.553,0.506-4.215-1.117-4.717-1.748   c-0.18-0.223-0.148-0.27-0.352-0.385l-0.305-0.166c-0.299-0.082-0.367-0.184-0.088-0.203c2.699-0.174,5.529-0.604,8.539-1.455   c3.596-1.012,12.891-4.107,25.938-9.381c0.199-0.078,0.506-0.201,0.883,0.004l0.189,0.104c0.197,0.113,0.348,0.176,0.611,0.068   c20.969-8.475,50.881-22.117,80.291-40.404c26.689-16.6,41.041-27.717,48.91-34.85" stroke="#000000" stroke-width="0.25" g2gstroke="#312783" stroke-miterlimit="10"/>
<path orgstroke="#000000" orgfill="none" transform="translate(-235.70108919365452, -504.2457727831464) translate(-42.50347510049505, -293.66037342160246) translate(-7.766191290947518, -5.648139120689166) translate(-42.163361648033515, 12.297647147343014) translate(1051,951) translate(2.456825836181622, 1.177978515443101E-5) translate(-566.6236223144531, -50.701335571289064) translate(-24.36972840036151, -4.238213634845522) translate(84.0, -34.0) translate(440.0, -17.0) translate(10.0, 10.00006103515625)" fill="none" d="M619.877,461.606   c1.174-0.32,1.752,0.021,1.773,0.844c0.018,0.594,0.229,0.961,0.773,0.857" stroke="#000000" stroke-width="0.25" g2gstroke="#312783" stroke-miterlimit="10"/>
<path orgstroke="#000000" orgfill="none" transform="translate(-235.70108919365452, -504.2457727831464) translate(-42.50347510049505, -293.66037342160246) translate(-7.766191290947518, -5.648139120689166) translate(-42.163361648033515, 12.297647147343014) translate(1051,951) translate(2.456825836181622, 1.177978515443101E-5) translate(-566.6236223144531, -50.701335571289064) translate(-24.36972840036151, -4.238213634845522) translate(84.0, -34.0) translate(440.0, -17.0) translate(10.0, 10.00006103515625)" fill="none" d="M711.229,312.228   c2.984,1.955,43.271,29.428,49.082,34.65c6.891,6.191,6.67,7.451,5.047,12.248c-2.217,6.549-6.934,18.314-61.742,53.555   c-47.719,30.682-97.691,47.488-107.072,50.129c-9.381,2.643-17.023,1.322-24.371,0c-5.553-1-44.145-12.295-66.697-18.895" stroke="#000000" stroke-width="0.25" g2gstroke="#312783" stroke-miterlimit="10"/>
<path orgstroke="#000000" orgfill="none" transform="translate(-235.70108919365452, -504.2457727831464) translate(-42.50347510049505, -293.66037342160246) translate(-7.766191290947518, -5.648139120689166) translate(-42.163361648033515, 12.297647147343014) translate(1051,951) translate(2.456825836181622, 1.177978515443101E-5) translate(-566.6236223144531, -50.701335571289064) translate(-24.36972840036151, -4.238213634845522) translate(84.0, -34.0) translate(440.0, -17.0) translate(10.0, 10.00006103515625)" fill="none" d="M702.381,332.464   c2.984,1.957,37.404,25.553,43.354,30.623c6.195,5.277,6.818,10.928,6.27,14.158" stroke="#000000" stroke-width="0.25" g2gstroke="#312783" stroke-miterlimit="10"/>
<path orgstroke="#000000" orgfill="none" transform="translate(-235.70108919365452, -504.2457727831464) translate(-42.50347510049505, -293.66037342160246) translate(-7.766191290947518, -5.648139120689166) translate(-42.163361648033515, 12.297647147343014) translate(1051,951) translate(2.456825836181622, 1.177978515443101E-5) translate(-566.6236223144531, -50.701335571289064) translate(-24.36972840036151, -4.238213634845522) translate(84.0, -34.0) translate(440.0, -17.0) translate(10.0, 10.00006103515625)" fill="none" d="M696.697,337.116   c4.914,2.633,35.193,22.256,41.713,28.738c3.477,3.455,4.918,6.416,4.523,9.26" stroke="#000000" stroke-width="0.25" g2gstroke="#312783" stroke-miterlimit="10"/>
<path orgstroke="#000000" orgfill="none" transform="translate(-235.70108919365452, -504.2457727831464) translate(-42.50347510049505, -293.66037342160246) translate(-7.766191290947518, -5.648139120689166) translate(-42.163361648033515, 12.297647147343014) translate(1051,951) translate(2.456825836181622, 1.177978515443101E-5) translate(-566.6236223144531, -50.701335571289064) translate(-24.36972840036151, -4.238213634845522) translate(84.0, -34.0) translate(440.0, -17.0) translate(10.0, 10.00006103515625)" fill="none" d="M733.146,392.542c0,0-1.67-1.295-0.266-2.523   s8.646-6.785,10.623-8.672c1.975-1.889,3.477-1.773,5.07-1.018" stroke="#000000" stroke-width="0.25" g2gstroke="#312783" stroke-miterlimit="10"/>
<path orgstroke="#000000" orgfill="none" transform="translate(-235.70108919365452, -504.2457727831464) translate(-42.50347510049505, -293.66037342160246) translate(-7.766191290947518, -5.648139120689166) translate(-42.163361648033515, 12.297647147343014) translate(1051,951) translate(2.456825836181622, 1.177978515443101E-5) translate(-566.6236223144531, -50.701335571289064) translate(-24.36972840036151, -4.238213634845522) translate(84.0, -34.0) translate(440.0, -17.0) translate(10.0, 10.00006103515625)" fill="none" d="M678.887,418.575   c-3.377,1.988-5.033,2.93-7.678,4.355c-0.557,0.303-1.281,0.984,0,1.336c1.285,0.352,3.172,0.922,4.049,1.098   c0.879,0.176,1.945-0.146,2.883-0.672c0.936-0.527,3.33-1.91,3.73-2.141s0.893-1.076,0.133-1.928   c-0.764-0.848-1.584-1.756-1.904-2.049C679.779,418.284,679.436,418.251,678.887,418.575z" stroke="#000000" stroke-width="0.25" g2gstroke="#312783" stroke-miterlimit="10"/>
<path orgstroke="#000000" orgfill="none" transform="translate(-235.70108919365452, -504.2457727831464) translate(-42.50347510049505, -293.66037342160246) translate(-7.766191290947518, -5.648139120689166) translate(-42.163361648033515, 12.297647147343014) translate(1051,951) translate(2.456825836181622, 1.177978515443101E-5) translate(-566.6236223144531, -50.701335571289064) translate(-24.36972840036151, -4.238213634845522) translate(84.0, -34.0) translate(440.0, -17.0) translate(10.0, 10.00006103515625)" fill="none" d="M675.541,421.7   c0.66-0.291,1.602-0.223,2.104,0.148c0.5,0.367,0.375,0.902-0.285,1.189c-0.658,0.291-1.602,0.225-2.102-0.143   C674.754,422.522,674.879,421.991,675.541,421.7z" stroke="#000000" stroke-width="0.25" g2gstroke="#312783" stroke-miterlimit="10"/>
<path orgstroke="#000000" orgfill="none" transform="translate(-235.70108919365452, -504.2457727831464) translate(-42.50347510049505, -293.66037342160246) translate(-7.766191290947518, -5.648139120689166) translate(-42.163361648033515, 12.297647147343014) translate(1051,951) translate(2.456825836181622, 1.177978515443101E-5) translate(-566.6236223144531, -50.701335571289064) translate(-24.36972840036151, -4.238213634845522) translate(84.0, -34.0) translate(440.0, -17.0) translate(10.0, 10.00006103515625)" fill="none" d="M675.338,422.978   c0.066-0.043,0.141-0.084,0.223-0.117c0.613-0.27,1.473-0.234,1.994,0.07" stroke="#000000" stroke-width="0.25" g2gstroke="#312783" stroke-miterlimit="10"/>
<path orgstroke="#000000" orgfill="none" transform="translate(-235.70108919365452, -504.2457727831464) translate(-42.50347510049505, -293.66037342160246) translate(-7.766191290947518, -5.648139120689166) translate(-42.163361648033515, 12.297647147343014) translate(1051,951) translate(2.456825836181622, 1.177978515443101E-5) translate(-566.6236223144531, -50.701335571289064) translate(-24.36972840036151, -4.238213634845522) translate(84.0, -34.0) translate(440.0, -17.0) translate(10.0, 10.00006103515625)" fill="none" d="M733.875,392.122   c-0.234-0.287-0.789-0.844,0.586-1.867c1.377-1.025,8.982-7.258,9.83-7.959c0.852-0.703,2.109-1.111,2.813-0.703" stroke="#000000" stroke-width="0.25" g2gstroke="#312783" stroke-miterlimit="10"/>
<path orgstroke="#000000" orgfill="none" transform="translate(-235.70108919365452, -504.2457727831464) translate(-42.50347510049505, -293.66037342160246) translate(-7.766191290947518, -5.648139120689166) translate(-42.163361648033515, 12.297647147343014) translate(1051,951) translate(2.456825836181622, 1.177978515443101E-5) translate(-566.6236223144531, -50.701335571289064) translate(-24.36972840036151, -4.238213634845522) translate(84.0, -34.0) translate(440.0, -17.0) translate(10.0, 10.00006103515625)" fill="none" d="M752.566,382.149v-1.92   c0-0.311-0.207-0.543-0.402-0.656l-0.195-0.111c-0.158-0.092-0.137-0.297,0.047-0.465c6.063-5.566,8.158-8.619,9.139-9.953   c0.949-1.287,3.945-5.436,5.865-11.131c0.08-0.23,0.102-0.42,0.502-0.199l0.168,0.09c0.234,0.143,0.314,0.162,0.416-0.17   c0.182-0.602,0.354-1.215,0.504-1.846" stroke="#000000" stroke-width="0.25" g2gstroke="#312783" stroke-miterlimit="10"/>
<path orgstroke="#000000" orgfill="none" transform="translate(-235.70108919365452, -504.2457727831464) translate(-42.50347510049505, -293.66037342160246) translate(-7.766191290947518, -5.648139120689166) translate(-42.163361648033515, 12.297647147343014) translate(1051,951) translate(2.456825836181622, 1.177978515443101E-5) translate(-566.6236223144531, -50.701335571289064) translate(-24.36972840036151, -4.238213634845522) translate(84.0, -34.0) translate(440.0, -17.0) translate(10.0, 10.00006103515625)" fill="none" d="M767.732,360.157l-0.25-0.137   c-0.361-0.203-0.434,0.023-0.498,0.217c-1.91,5.646-4.887,9.744-5.83,11.023c-0.951,1.291-2.934,4.215-8.584,9.449" stroke="#000000" stroke-width="0.25" g2gstroke="#312783" stroke-miterlimit="10"/>
<path orgstroke="#000000" orgfill="none" transform="translate(-235.70108919365452, -504.2457727831464) translate(-42.50347510049505, -293.66037342160246) translate(-7.766191290947518, -5.648139120689166) translate(-42.163361648033515, 12.297647147343014) translate(1051,951) translate(2.456825836181622, 1.177978515443101E-5) translate(-566.6236223144531, -50.701335571289064) translate(-24.36972840036151, -4.238213634845522) translate(84.0, -34.0) translate(440.0, -17.0) translate(10.0, 10.00006103515625)" fill="none" d="M621.9940185546875 456.9419860839844L622.9860229492188 457.4909973144531" stroke="#000000" stroke-width="0.25" g2gstroke="#312783" stroke-miterlimit="10"/>
</g>
</g>
</g>
</g>
</g>
</g></svg>