<svg xmlns="http://www.w3.org/2000/svg" xmlns:xlink="http://www.w3.org/1999/xlink" xmlns:x="http://ns.adobe.com/Extensibility/1.0/" xmlns:graph="http://ns.adobe.com/Graphs/1.0/" xmlns:i="http://ns.adobe.com/AdobeIllustrator/10.0/" xmlns:etg="http://www.eurotaxglass.com/etg/evd/" etg:dataTimestamp="1541512339925" contentScriptType="text/ecmascript" zoomAndPan="magnify" contentStyleType="text/css" id="Layer_1" enable-background="new 0 0 1841.891 1595.279" version="1.1" xml:space="preserve" width="1841.891px" preserveAspectRatio="xMidYMid meet" viewBox="0 0 1841.891 1595.279" height="1595.279px" x="0px" y="0px"><g xmlns="http://www.w3.org/2000/svg" objecttype="PS" tooltip="#UNDEFINED" id="228">
<g onmouseover="notifyOwner(AGV_OBJECT_MOUSEOVER, '228(PS)')" transform="translate(-9.433746356535266E-6, 3.356933575560106E-7) translate(-35.71980609130861, -13.200809143066408) translate(44.708733184814434, 94.79042849731445) matrix(0.6117410612267968 0 0 0.6117410612267968 0.2921243287958965 0.477310974878083) translate(-92,-34) " onclick="clickZoom(evt); notifyOwner(AGV_OBJECT_MOUSECLICK, '228(PS)')" onmouseout="notifyOwner(AGV_OBJECT_MOUSEOUT, '228(PS)')" tooltip="#UNDEFINED" id="228-Graphic" objecttype="GRAPHIC">
<g zvalue="229">
<g zvalue="29">
<g zvalue="19">
<g>
<path orgstroke="#000000" orgfill="#ffffff" transform="translate(-235.70108919365452, -504.2457727831464) translate(-42.50347510049505, -293.66037342160246) translate(-7.766191290947518, -5.648139120689166) translate(-42.163361648033515, 12.297647147343014) translate(1051,951) translate(2.456825836181622, 1.177978515443101E-5) translate(-566.6236223144531, -50.701335571289064) translate(16.70076748303427, -1.6700767483034156) translate(-24.36972840036151, -4.238213634845522) translate(84.0, -34.0) translate(440.0, -17.0) translate(10.0, 10.00006103515625)" fill="#ffffff" g2gfill="#ECC35D" d="M574.822,467.364   c0.666,0.217,1.455,0.305,2.357,0.127c1.268-0.252,2.578-0.523,3.918-0.9c3.57-1.006,12.965-4.172,25.891-9.361   c0.377-0.15,0.564-0.348,0.564-0.746v-1.424c0-0.307-0.141-0.639-0.428-0.807l-1.482-0.838c-0.359-0.209-0.682-0.186-1.146,0.002   c-12.932,5.189-22.08,8.258-25.654,9.266c-2.984,0.842-5.789,1.318-8.473,1.451c-0.336,0.016-0.34,0.047-0.041,0.379   c0.297,0.328,0.854,0.76,1.541,1.193c0.406,0.258,1.885,1.318,2.67,1.555L574.822,467.364z" stroke="#000000" outline-element="true" stroke-width="0.5" g2gstroke="#312783" stroke-miterlimit="10"/>
<path fill="#E1321E" d="M579.758,463.292c3.621-1.014,13.23-4.256,26.404-9.578h0.014h0.014l0.941,0.551   c0.281,0.164,0.422,0.49,0.422,0.799v1.42c0,0.402-0.184,0.604-0.563,0.754c-12.934,5.184-22.314,8.344-25.896,9.354   c-1.332,0.381-2.641,0.648-3.918,0.902c-0.898,0.182-1.686,0.096-2.359-0.125l-0.279-0.1c-0.451-0.143-1.139-0.551-1.715-0.928   c-0.014,0-0.027-0.014-0.041-0.014c-0.41-0.279-0.744-0.521-0.912-0.617c-0.111-0.07-0.211-0.143-0.313-0.197   c-0.166-0.152-0.307-0.309-0.377-0.449c-0.182-0.324-0.041-0.338,0.322-0.338C574.125,464.724,576.852,464.12,579.758,463.292z" transform="translate(-235.70108919365452, -504.2457727831464) translate(-42.50347510049505, -293.66037342160246) translate(-7.766191290947518, -5.648139120689166) translate(-42.163361648033515, 12.297647147343014) translate(1051,951) translate(2.456825836181622, 1.177978515443101E-5) translate(-566.6236223144531, -50.701335571289064) translate(16.70076748303427, -1.6700767483034156) translate(-24.36972840036151, -4.238213634845522) translate(84.0, -34.0) translate(440.0, -17.0) translate(10.0, 10.00006103515625)" orgfill="#E1321E"/>
<radialGradient transform="translate(-235.70108919365452, -504.2457727831464) translate(-42.50347510049505, -293.66037342160246) translate(-7.766191290947518, -5.648139120689166) translate(-42.163361648033515, 12.297647147343014) translate(1051,951) translate(2.456825836181622, 1.177978515443101E-5) translate(-566.6236223144531, -50.701335571289064) translate(16.70076748303427, -1.6700767483034156) translate(-24.36972840036151, -4.238213634845522) translate(84.0, -34.0) translate(440.0, -17.0) translate(10.0, 10.00006103515625)" gradientTransform="matrix(0.0072 -1 -2.5521 -0.0184 1228.5393 890.0586)" gradientUnits="userSpaceOnUse" xmlns:xlink="http://www.w3.org/1999/xlink" xlink:type="simple" r="18.1163" cx="416.8818" xlink:actuate="onLoad" cy="250.8833" id="216::SVGID_14_" xlink:show="other">
<stop stop-opacity="0.6" stop-color="#FFFFFF" offset="0"/>
<stop stop-opacity="0.2" stop-color="#FFFFFF" offset="1"/>
</radialGradient>
<path fill="url(#216::SVGID_14_)" d="M606.977,457.224c-12.92,5.195-22.314,8.355-25.883,9.367c-1.346,0.381-2.652,0.645-3.916,0.902   c-0.9,0.182-1.701,0.082-2.359-0.125c-1.643-0.539-2.584-1.926-2.584-1.926c0.195,0.057,0.365,0.037,0.615,0.037   c2.611,0,5.338-0.613,8.242-1.432c3.609-1.01,13.16-4.24,26.305-9.52c0.111,0.152,0.152,0.35,0.152,0.531v1.424   C607.553,456.886,607.357,457.085,606.977,457.224z" transform="translate(-235.70108919365452, -504.2457727831464) translate(-42.50347510049505, -293.66037342160246) translate(-7.766191290947518, -5.648139120689166) translate(-42.163361648033515, 12.297647147343014) translate(1051,951) translate(2.456825836181622, 1.177978515443101E-5) translate(-566.6236223144531, -50.701335571289064) translate(16.70076748303427, -1.6700767483034156) translate(-24.36972840036151, -4.238213634845522) translate(84.0, -34.0) translate(440.0, -17.0) translate(10.0, 10.00006103515625)" orgfill="url(#216::SVGID_14_)"/>
<path orgstroke="#000000" orgfill="none" transform="translate(-235.70108919365452, -504.2457727831464) translate(-42.50347510049505, -293.66037342160246) translate(-7.766191290947518, -5.648139120689166) translate(-42.163361648033515, 12.297647147343014) translate(1051,951) translate(2.456825836181622, 1.177978515443101E-5) translate(-566.6236223144531, -50.701335571289064) translate(16.70076748303427, -1.6700767483034156) translate(-24.36972840036151, -4.238213634845522) translate(84.0, -34.0) translate(440.0, -17.0) translate(10.0, 10.00006103515625)" fill="none" d="M572.287,465.519c0,0,0.891,1.311,2.535,1.846" stroke="#000000" stroke-width="0.25" g2gstroke="#312783" stroke-miterlimit="10"/>
<path orgstroke="#000000" orgfill="none" transform="translate(-235.70108919365452, -504.2457727831464) translate(-42.50347510049505, -293.66037342160246) translate(-7.766191290947518, -5.648139120689166) translate(-42.163361648033515, 12.297647147343014) translate(1051,951) translate(2.456825836181622, 1.177978515443101E-5) translate(-566.6236223144531, -50.701335571289064) translate(16.70076748303427, -1.6700767483034156) translate(-24.36972840036151, -4.238213634845522) translate(84.0, -34.0) translate(440.0, -17.0) translate(10.0, 10.00006103515625)" fill="none" d="M573.127,466.476   c-0.963-0.402-1.701-0.996-1.947-1.424c-0.188-0.322-0.041-0.326,0.326-0.326c2.615,0,5.348-0.613,8.25-1.432   c3.623-1.02,13.229-4.262,26.434-9.58" stroke="#000000" stroke-width="0.25" g2gstroke="#312783" stroke-miterlimit="10"/>
<path orgstroke="#000000" orgfill="none" transform="translate(-235.70108919365452, -504.2457727831464) translate(-42.50347510049505, -293.66037342160246) translate(-7.766191290947518, -5.648139120689166) translate(-42.163361648033515, 12.297647147343014) translate(1051,951) translate(2.456825836181622, 1.177978515443101E-5) translate(-566.6236223144531, -50.701335571289064) translate(16.70076748303427, -1.6700767483034156) translate(-24.36972840036151, -4.238213634845522) translate(84.0, -34.0) translate(440.0, -17.0) translate(10.0, 10.00006103515625)" fill="none" d="M570.033,464.149l1.859,1.127   c0.395,0.242,0.564,0.207,0.963,0.207c2.615,0,5.346-0.615,8.242-1.432c3.609-1.016,13.162-4.24,26.305-9.527" stroke="#000000" stroke-width="0.25" g2gstroke="#312783" stroke-miterlimit="10"/>
<path stroke-linecap="round" orgstroke="#000000" orgfill="none" transform="translate(-235.70108919365452, -504.2457727831464) translate(-42.50347510049505, -293.66037342160246) translate(-7.766191290947518, -5.648139120689166) translate(-42.163361648033515, 12.297647147343014) translate(1051,951) translate(2.456825836181622, 1.177978515443101E-5) translate(-566.6236223144531, -50.701335571289064) translate(16.70076748303427, -1.6700767483034156) translate(-24.36972840036151, -4.238213634845522) translate(84.0, -34.0) translate(440.0, -17.0) translate(10.0, 10.00006103515625)" fill="none" stroke-linejoin="round" d="   M574.822,467.364c0.666,0.217,1.455,0.305,2.357,0.127c1.268-0.252,2.578-0.523,3.918-0.9c3.57-1.006,12.965-4.172,25.891-9.361   c0.377-0.15,0.564-0.348,0.564-0.746v-1.424c0-0.307-0.141-0.639-0.428-0.807l-1.482-0.838c-0.359-0.209-0.682-0.186-1.146,0.002   c-12.932,5.189-22.08,8.258-25.654,9.266c-2.984,0.842-5.789,1.318-8.473,1.451c-0.336,0.016-0.34,0.047-0.041,0.379   c0.297,0.328,0.854,0.76,1.541,1.193c0.406,0.258,1.885,1.318,2.67,1.555L574.822,467.364z" stroke="#000000" stroke-width="0.25" g2gstroke="#312783" stroke-miterlimit="10"/>
</g>
</g>
</g>
</g>
</g>
</g></svg>