<svg xmlns="http://www.w3.org/2000/svg" xmlns:xlink="http://www.w3.org/1999/xlink" xmlns:x="http://ns.adobe.com/Extensibility/1.0/" xmlns:graph="http://ns.adobe.com/Graphs/1.0/" xmlns:i="http://ns.adobe.com/AdobeIllustrator/10.0/" xmlns:etg="http://www.eurotaxglass.com/etg/evd/" etg:dataTimestamp="1541512339925" contentScriptType="text/ecmascript" zoomAndPan="magnify" contentStyleType="text/css" id="Layer_1" enable-background="new 0 0 1841.891 1595.279" version="1.1" xml:space="preserve" width="1841.891px" preserveAspectRatio="xMidYMid meet" viewBox="0 0 1841.891 1595.279" height="1595.279px" x="0px" y="0px"><g xmlns="http://www.w3.org/2000/svg" objecttype="PS" tooltip="#UNDEFINED" id="238">
<g onmouseover="notifyOwner(AGV_OBJECT_MOUSEOVER, '238(PS)')" transform="translate(-9.433746356535266E-6, 3.356933575560106E-7) translate(-35.71980609130861, -13.200809143066408) translate(44.708733184814434, 94.79042849731445) matrix(0.6117410612267968 0 0 0.6117410612267968 0.2921243287958965 0.477310974878083) translate(-92,-34) " onclick="clickZoom(evt); notifyOwner(AGV_OBJECT_MOUSECLICK, '238(PS)')" onmouseout="notifyOwner(AGV_OBJECT_MOUSEOUT, '238(PS)')" tooltip="#UNDEFINED" id="238-Graphic" objecttype="GRAPHIC">
<g zvalue="239">
<g zvalue="44">
<g zvalue="39">
<g>
<path orgstroke="#000000" stroke="#000000" d="   M565.816,226.995c-1.984,0.084-3.938,1.119-5.404,2.835c-2.936,3.456-2.803,8.645,0.285,11.601c1.119,1.07,2.795,1.816,3.756,1.943   c0.803,0.105,2.713,0.088,2.713,0.088c2.16-0.018,4.342-0.986,5.938-2.869c2.945-3.454,2.814-8.643-0.279-11.598   c-1.283-1.211-2.861-1.898-4.484-1.959C567.545,227.006,566.611,226.963,565.816,226.995z" stroke-linecap="round" outline-element="true" transform="translate(-235.70108919365452, -504.2457727831464) translate(-42.50347510049505, -293.66037342160246) translate(-42.163361648033515, 12.297647147343014) translate(1051,951) translate(2.456825836181622, 1.177978515443101E-5) translate(-566.6236223144531, -50.701335571289064) translate(84.0, -34.0) translate(440.0, -17.0) translate(10.0, 10.00006103515625)" stroke-miterlimit="10" orgfill="#ffffff" fill="#ffffff" stroke-width="0.5" g2gfill="#ECC35D" stroke-linejoin="round" g2gstroke="#312783"/>
<path fill="#464646" d="M562.18,241.483c1.137,1.089,2.547,1.748,3.977,1.95l1.01,0.03c2.164-0.021,4.338-0.99,5.938-2.871   c2.945-3.449,2.814-8.643-0.281-11.598c-1.281-1.213-2.859-1.858-4.486-1.96l-1.201,0.001c-1.926,0.206-3.801,1.176-5.238,2.845   C558.959,233.34,559.107,238.529,562.18,241.483z" transform="translate(-235.70108919365452, -504.2457727831464) translate(-42.50347510049505, -293.66037342160246) translate(-42.163361648033515, 12.297647147343014) translate(1051,951) translate(2.456825836181622, 1.177978515443101E-5) translate(-566.6236223144531, -50.701335571289064) translate(84.0, -34.0) translate(440.0, -17.0) translate(10.0, 10.00006103515625)" orgfill="#464646"/>
<g>
<path fill="#ECF5E4" d="M562.18,241.483c1.137,1.089,2.547,1.748,3.977,1.95l1.01,0.03c2.164-0.021,4.338-0.99,5.938-2.871    c2.945-3.449,2.814-8.643-0.281-11.598c-1.281-1.213-2.859-1.858-4.486-1.96l-1.201,0.001c-1.926,0.206-3.801,1.176-5.238,2.845    C558.959,233.34,559.107,238.529,562.18,241.483z M573.576,238.054l-0.826-7.681C574.568,232.418,574.865,235.518,573.576,238.054    z M572.182,236.581l-2.262-1.496l-1.035-6.666c0.773,0.063,1.547,0.291,2.258,0.668L572.182,236.581z M570.172,241.296    l-0.074-3.527l2.639,1.575c-0.035,0.042-0.072,0.08-0.107,0.129C571.924,240.297,571.076,240.907,570.172,241.296z     M567.936,233.553l-4.451-2.82c0.996-1.16,2.252-1.894,3.572-2.193L567.936,233.553z M562.195,237.879l6.436,3.867    c-1.746,0.264-3.545-0.25-4.916-1.55C563.027,239.536,562.521,238.741,562.195,237.879z M561.754,235.544    c-0.012-1.045,0.203-2.106,0.645-3.094l5.666,3.784l0.295,3.441L561.754,235.544z" transform="translate(-235.70108919365452, -504.2457727831464) translate(-42.50347510049505, -293.66037342160246) translate(-42.163361648033515, 12.297647147343014) translate(1051,951) translate(2.456825836181622, 1.177978515443101E-5) translate(-566.6236223144531, -50.701335571289064) translate(84.0, -34.0) translate(440.0, -17.0) translate(10.0, 10.00006103515625)" orgfill="#ECF5E4"/>
</g>
<path stroke-linecap="round" orgstroke="#000000" orgfill="none" transform="translate(-235.70108919365452, -504.2457727831464) translate(-42.50347510049505, -293.66037342160246) translate(-42.163361648033515, 12.297647147343014) translate(1051,951) translate(2.456825836181622, 1.177978515443101E-5) translate(-566.6236223144531, -50.701335571289064) translate(84.0, -34.0) translate(440.0, -17.0) translate(10.0, 10.00006103515625)" fill="none" stroke-linejoin="round" d="   M571.141,229.084c-0.711-0.378-1.484-0.604-2.258-0.666l1.033,6.662l2.266,1.498L571.141,229.084z" stroke="#000000" stroke-width="0.25" g2gstroke="#312783" stroke-miterlimit="10"/>
<path stroke-linecap="round" orgstroke="#000000" orgfill="none" transform="translate(-235.70108919365452, -504.2457727831464) translate(-42.50347510049505, -293.66037342160246) translate(-42.163361648033515, 12.297647147343014) translate(1051,951) translate(2.456825836181622, 1.177978515443101E-5) translate(-566.6236223144531, -50.701335571289064) translate(84.0, -34.0) translate(440.0, -17.0) translate(10.0, 10.00006103515625)" fill="none" stroke-linejoin="round" d="   M573.576,238.05c1.289-2.532,0.992-5.632-0.826-7.677L573.576,238.05z" stroke="#000000" stroke-width="0.25" g2gstroke="#312783" stroke-miterlimit="10"/>
<path stroke-linecap="round" orgstroke="#000000" orgfill="none" transform="translate(-235.70108919365452, -504.2457727831464) translate(-42.50347510049505, -293.66037342160246) translate(-42.163361648033515, 12.297647147343014) translate(1051,951) translate(2.456825836181622, 1.177978515443101E-5) translate(-566.6236223144531, -50.701335571289064) translate(84.0, -34.0) translate(440.0, -17.0) translate(10.0, 10.00006103515625)" fill="none" stroke-linejoin="round" d="   M570.172,241.299c0.908-0.393,1.756-1.002,2.463-1.832c0.029-0.044,0.066-0.082,0.102-0.123l-2.637-1.575L570.172,241.299z" stroke="#000000" stroke-width="0.25" g2gstroke="#312783" stroke-miterlimit="10"/>
<path stroke-linecap="round" orgstroke="#000000" orgfill="none" transform="translate(-235.70108919365452, -504.2457727831464) translate(-42.50347510049505, -293.66037342160246) translate(-42.163361648033515, 12.297647147343014) translate(1051,951) translate(2.456825836181622, 1.177978515443101E-5) translate(-566.6236223144531, -50.701335571289064) translate(84.0, -34.0) translate(440.0, -17.0) translate(10.0, 10.00006103515625)" fill="none" stroke-linejoin="round" d="   M562.195,237.879c0.324,0.861,0.832,1.658,1.52,2.317c1.371,1.3,3.17,1.813,4.916,1.55L562.195,237.879z" stroke="#000000" stroke-width="0.25" g2gstroke="#312783" stroke-miterlimit="10"/>
<path stroke-linecap="round" orgstroke="#000000" orgfill="none" transform="translate(-235.70108919365452, -504.2457727831464) translate(-42.50347510049505, -293.66037342160246) translate(-42.163361648033515, 12.297647147343014) translate(1051,951) translate(2.456825836181622, 1.177978515443101E-5) translate(-566.6236223144531, -50.701335571289064) translate(84.0, -34.0) translate(440.0, -17.0) translate(10.0, 10.00006103515625)" fill="none" stroke-linejoin="round" d="   M562.4,232.451c-0.441,0.987-0.654,2.049-0.646,3.094l6.605,4.132l-0.295-3.441L562.4,232.451z" stroke="#000000" stroke-width="0.25" g2gstroke="#312783" stroke-miterlimit="10"/>
<path stroke-linecap="round" orgstroke="#000000" orgfill="none" transform="translate(-235.70108919365452, -504.2457727831464) translate(-42.50347510049505, -293.66037342160246) translate(-42.163361648033515, 12.297647147343014) translate(1051,951) translate(2.456825836181622, 1.177978515443101E-5) translate(-566.6236223144531, -50.701335571289064) translate(84.0, -34.0) translate(440.0, -17.0) translate(10.0, 10.00006103515625)" fill="none" stroke-linejoin="round" d="   M567.936,233.553l-0.879-5.013c-1.32,0.3-2.576,1.032-3.572,2.192L567.936,233.553z" stroke="#000000" stroke-width="0.25" g2gstroke="#312783" stroke-miterlimit="10"/>
<path stroke-linecap="round" orgstroke="#000000" orgfill="none" transform="translate(-235.70108919365452, -504.2457727831464) translate(-42.50347510049505, -293.66037342160246) translate(-42.163361648033515, 12.297647147343014) translate(1051,951) translate(2.456825836181622, 1.177978515443101E-5) translate(-566.6236223144531, -50.701335571289064) translate(84.0, -34.0) translate(440.0, -17.0) translate(10.0, 10.00006103515625)" fill="none" stroke-linejoin="round" d="M569.916015625 235.08399963378906L568.0640258789062 236.23500061035156" stroke="#000000" stroke-width="0.25" g2gstroke="#312783" stroke-miterlimit="10"/>
<path orgstroke="#000000" orgfill="none" transform="translate(-235.70108919365452, -504.2457727831464) translate(-42.50347510049505, -293.66037342160246) translate(-42.163361648033515, 12.297647147343014) translate(1051,951) translate(2.456825836181622, 1.177978515443101E-5) translate(-566.6236223144531, -50.701335571289064) translate(84.0, -34.0) translate(440.0, -17.0) translate(10.0, 10.00006103515625)" fill="none" d="M562.18,241.483c1.137,1.089,2.547,1.748,3.977,1.95l1.01,0.03   c2.164-0.021,4.338-0.99,5.938-2.871c2.945-3.449,2.814-8.643-0.281-11.598c-1.281-1.213-2.859-1.858-4.486-1.96l-1.201,0.001   c-1.926,0.206-3.801,1.176-5.238,2.845C558.959,233.34,559.107,238.529,562.18,241.483z" stroke="#000000" stroke-width="0.25" g2gstroke="#312783"/>
</g>
</g>
</g>
</g>
</g>
</g></svg>