<svg xmlns="http://www.w3.org/2000/svg" xmlns:xlink="http://www.w3.org/1999/xlink" xmlns:x="http://ns.adobe.com/Extensibility/1.0/" xmlns:graph="http://ns.adobe.com/Graphs/1.0/" xmlns:i="http://ns.adobe.com/AdobeIllustrator/10.0/" xmlns:etg="http://www.eurotaxglass.com/etg/evd/" etg:dataTimestamp="1541512339925" contentScriptType="text/ecmascript" zoomAndPan="magnify" contentStyleType="text/css" id="Layer_1" enable-background="new 0 0 1841.891 1595.279" version="1.1" xml:space="preserve" width="1841.891px" preserveAspectRatio="xMidYMid meet" viewBox="0 0 1841.891 1595.279" height="1595.279px" x="0px" y="0px"><g xmlns="http://www.w3.org/2000/svg" objecttype="PS" tooltip="#UNDEFINED" id="30">
<g onmouseover="notifyOwner(AGV_OBJECT_MOUSEOVER, '30(PS)')" transform="translate(-9.433746356535266E-6, 3.356933575560106E-7) translate(-35.71980609130861, -13.200809143066408) translate(44.708733184814434, 94.79042849731445) matrix(0.6117410612267968 0 0 0.6117410612267968 0.2921243287958965 0.477310974878083) translate(-92,-34) " onclick="clickZoom(evt); notifyOwner(AGV_OBJECT_MOUSECLICK, '30(PS)')" onmouseout="notifyOwner(AGV_OBJECT_MOUSEOUT, '30(PS)')" tooltip="#UNDEFINED" id="30-Graphic" objecttype="GRAPHIC">
<g zvalue="29">
<g zvalue="60">
<g zvalue="58">
<g>
<path orgstroke="#000000" orgfill="#ffffff" transform="translate(-295.5923495625341, 69.5511410735374) translate(13.523832986521029, -13.523832986521171) translate(29.83741946343389, 13.523434720836917) translate(185.48729538878888, 48.62288325725535) translate(724,-30) translate(-518.5915025634765, -83.33211865234375) translate(4.365262774807206, -1.455087591602421) translate(41.69417475728153, -12.574433656957922) translate(658.0, -6.0) translate(10.0, 10.00006103515625)" fill="#ffffff" g2gfill="#464646" d="M176.496,324.865   c0.491-0.346,2.376-1.519,2.986-1.827c0.955-0.482,3.344-1.297,5.47-1.631c1.567-0.247,3.188-0.179,4.721,0.267   c0.864,0.252,1.768,0.596,2.557,1.032c1.446,0.8,2.743,1.945,3.628,3.344c0.938,1.483,1.639,3.239,1.925,4.974   c0.161,0.976,0.249,1.994,0.091,2.976c-0.165,1.01-0.537,1.982-0.88,2.943c-1.001,2.809-2.867,5.626-5.146,7.544   c-0.837,0.705-3.062,2.151-4.028,2.677l-0.156,0.083c-1.383,0.722-2.879,1.217-4.44,1.363c-1.444,0.137-2.983,0.089-4.383-0.322   c-6.54-1.923-9.591-9.762-6.769-17.529c0.428-1.176,1.033-2.29,1.749-3.313c0.334-0.476,1.173-1.467,2.486-2.44L176.496,324.865z" stroke="#000000" outline-element="true" stroke-width="0.5" g2gstroke="#312783" stroke-miterlimit="10"/>
<linearGradient transform="translate(-295.5923495625341, 69.5511410735374) translate(13.523832986521029, -13.523832986521171) translate(29.83741946343389, 13.523434720836917) translate(185.48729538878888, 48.62288325725535) translate(724,-30) translate(-518.5915025634765, -83.33211865234375) translate(4.365262774807206, -1.455087591602421) translate(41.69417475728153, -12.574433656957922) translate(658.0, -6.0) translate(10.0, 10.00006103515625)" gradientTransform="matrix(1 0 0 -1 0 595.28)" x1="202.8835" x2="185.3027" y1="305.9774" gradientUnits="userSpaceOnUse" y2="263.7534" xmlns:xlink="http://www.w3.org/1999/xlink" xlink:type="simple" xlink:actuate="onLoad" id="29::SVGID_44_" xlink:show="other">
<stop stop-opacity="0.6" stop-color="#FFFFFF" offset="0"/>
<stop stop-opacity="0.4" stop-color="#FFFFFF" offset="0.4552"/>
<stop stop-opacity="0.4" stop-color="#FFFFFF" offset="0.8664"/>
<stop stop-opacity="0.58" stop-color="#FFFFFF" offset="1"/>
</linearGradient>
<path fill="url(#29::SVGID_44_)" d="M195.981,337.062c-5.471-2.51-12.971-6.02-21.74-10.15c0.439-0.51,1.13-1.21,2.069-1.909   c0.101-0.07,0.19-0.141,0.301-0.21c0.08-0.051,0.18-0.12,0.29-0.2c0.25-0.17,0.529-0.34,0.819-0.51   c0.17-0.091,0.34-0.181,0.521-0.271c0.95-0.479,3.34-1.3,5.47-1.63c1.561-0.25,3.19-0.18,4.72,0.27   c0.86,0.25,1.771,0.591,2.551,1.03c1.449,0.8,2.75,1.94,3.63,3.34c0.939,1.49,1.64,3.24,1.93,4.98c0.16,0.97,0.25,1.99,0.09,2.97   C196.501,335.552,196.251,336.312,195.981,337.062z" transform="translate(-295.5923495625341, 69.5511410735374) translate(13.523832986521029, -13.523832986521171) translate(29.83741946343389, 13.523434720836917) translate(185.48729538878888, 48.62288325725535) translate(724,-30) translate(-518.5915025634765, -83.33211865234375) translate(4.365262774807206, -1.455087591602421) translate(41.69417475728153, -12.574433656957922) translate(658.0, -6.0) translate(10.0, 10.00006103515625)" orgfill="url(#29::SVGID_44_)"/>
<linearGradient transform="translate(-295.5923495625341, 69.5511410735374) translate(13.523832986521029, -13.523832986521171) translate(29.83741946343389, 13.523434720836917) translate(185.48729538878888, 48.62288325725535) translate(724,-30) translate(-518.5915025634765, -83.33211865234375) translate(4.365262774807206, -1.455087591602421) translate(41.69417475728153, -12.574433656957922) translate(658.0, -6.0) translate(10.0, 10.00006103515625)" gradientTransform="matrix(1 0 0 -1 0 595.28)" x1="163.6938" x2="192.1192" y1="217.6565" gradientUnits="userSpaceOnUse" y2="278.6148" xmlns:xlink="http://www.w3.org/1999/xlink" xlink:type="simple" xlink:actuate="onLoad" id="29::SVGID_45_" xlink:show="other">
<stop stop-opacity="0.2" stop-color="#FFFFFF" offset="0.014"/>
<stop stop-opacity="0.58" stop-color="#FFFFFF" offset="0.7745"/>
<stop stop-opacity="0.58" stop-color="#FFFFFF" offset="0.9975"/>
</linearGradient>
<path fill="url(#29::SVGID_45_)" d="M195.981,337.062c-0.07,0.22-0.15,0.43-0.23,0.65c-1,2.81-2.87,5.63-5.15,7.55   c-0.5,0.43-1.04,0.83-1.59,1.189c-0.439,0.29-0.89,0.561-1.35,0.801c-1.38,0.72-2.88,1.21-4.44,1.359   c-1.439,0.141-2.979,0.09-4.38-0.319c-6.54-1.931-9.59-9.761-6.77-17.53c0.43-1.18,1.029-2.29,1.75-3.32   c0.1-0.14,0.229-0.319,0.42-0.53C183.011,331.042,190.511,334.552,195.981,337.062z" transform="translate(-295.5923495625341, 69.5511410735374) translate(13.523832986521029, -13.523832986521171) translate(29.83741946343389, 13.523434720836917) translate(185.48729538878888, 48.62288325725535) translate(724,-30) translate(-518.5915025634765, -83.33211865234375) translate(4.365262774807206, -1.455087591602421) translate(41.69417475728153, -12.574433656957922) translate(658.0, -6.0) translate(10.0, 10.00006103515625)" orgfill="url(#29::SVGID_45_)"/>
<path stroke-linecap="round" orgstroke="#000000" orgfill="none" transform="translate(-295.5923495625341, 69.5511410735374) translate(13.523832986521029, -13.523832986521171) translate(29.83741946343389, 13.523434720836917) translate(185.48729538878888, 48.62288325725535) translate(724,-30) translate(-518.5915025634765, -83.33211865234375) translate(4.365262774807206, -1.455087591602421) translate(41.69417475728153, -12.574433656957922) translate(658.0, -6.0) translate(10.0, 10.00006103515625)" fill="none" stroke-linejoin="round" d="   M176.307,325.004c0.559-0.414,1.203-0.826,1.932-1.194c0.955-0.482,3.344-1.297,5.47-1.631c1.567-0.247,3.188-0.179,4.721,0.267   c0.864,0.252,1.768,0.596,2.557,1.032c1.446,0.8,2.743,1.945,3.628,3.344c0.938,1.483,1.639,3.239,1.925,4.974   c0.161,0.976,0.249,1.994,0.091,2.976c-0.165,1.01-0.537,1.982-0.88,2.943c-1.001,2.809-2.867,5.626-5.146,7.544   c-0.901,0.76-1.889,1.439-2.94,1.988" stroke="#000000" stroke-width="0.25" g2gstroke="#312783" stroke-miterlimit="10"/>
<path stroke-linecap="round" orgstroke="#000000" orgfill="none" transform="translate(-295.5923495625341, 69.5511410735374) translate(13.523832986521029, -13.523832986521171) translate(29.83741946343389, 13.523434720836917) translate(185.48729538878888, 48.62288325725535) translate(724,-30) translate(-518.5915025634765, -83.33211865234375) translate(4.365262774807206, -1.455087591602421) translate(41.69417475728153, -12.574433656957922) translate(658.0, -6.0) translate(10.0, 10.00006103515625)" fill="none" stroke-linejoin="round" d="   M176.496,324.865c0.491-0.346,2.376-1.519,2.986-1.827c0.955-0.482,3.344-1.297,5.47-1.631c1.567-0.247,3.188-0.179,4.721,0.267   c0.864,0.252,1.768,0.596,2.557,1.032c1.446,0.8,2.743,1.945,3.628,3.344c0.938,1.483,1.639,3.239,1.925,4.974   c0.161,0.976,0.249,1.994,0.091,2.976c-0.165,1.01-0.537,1.982-0.88,2.943c-1.001,2.809-2.867,5.626-5.146,7.544   c-0.837,0.705-3.062,2.151-4.028,2.677l-0.156,0.083c-1.383,0.722-2.879,1.217-4.44,1.363c-1.444,0.137-2.983,0.089-4.383-0.322   c-6.54-1.923-9.591-9.762-6.769-17.529c0.428-1.176,1.033-2.29,1.749-3.313c0.334-0.476,1.173-1.467,2.486-2.44L176.496,324.865z" stroke="#000000" stroke-width="0.25" g2gstroke="#312783" stroke-miterlimit="10"/>
</g>
</g>
</g>
</g>
</g>
</g></svg>