<svg xmlns="http://www.w3.org/2000/svg" xmlns:xlink="http://www.w3.org/1999/xlink" xmlns:x="http://ns.adobe.com/Extensibility/1.0/" xmlns:graph="http://ns.adobe.com/Graphs/1.0/" xmlns:i="http://ns.adobe.com/AdobeIllustrator/10.0/" xmlns:etg="http://www.eurotaxglass.com/etg/evd/" etg:dataTimestamp="1541512339925" contentScriptType="text/ecmascript" zoomAndPan="magnify" contentStyleType="text/css" id="Layer_1" enable-background="new 0 0 1841.891 1595.279" version="1.1" xml:space="preserve" width="1841.891px" preserveAspectRatio="xMidYMid meet" viewBox="0 0 1841.891 1595.279" height="1595.279px" x="0px" y="0px"><g xmlns="http://www.w3.org/2000/svg" objecttype="PS" tooltip="#UNDEFINED" id="31">
<g onmouseover="notifyOwner(AGV_OBJECT_MOUSEOVER, '31(PS)')" transform="translate(-9.433746356535266E-6, 3.356933575560106E-7) translate(-35.71980609130861, -13.200809143066408) translate(44.708733184814434, 94.79042849731445) matrix(0.6117410612267968 0 0 0.6117410612267968 0.2921243287958965 0.477310974878083) translate(-92,-34) " onclick="clickZoom(evt); notifyOwner(AGV_OBJECT_MOUSECLICK, '31(PS)')" onmouseout="notifyOwner(AGV_OBJECT_MOUSEOUT, '31(PS)')" tooltip="#UNDEFINED" id="31-Graphic" objecttype="GRAPHIC">
<g zvalue="30">
<g zvalue="64">
<g zvalue="121">
<g zvalue="59">
<g>
<path orgstroke="#000000" stroke="#000000" d="   M447.417,305.154c-0.439-0.375-1.926-1.188-2.471-1.334c-1.031-0.278-2.229-0.128-3.514,0.521c-4.016,2.027-7.357,8.15-7.471,13.67   c-0.066,2.992,0.832,5.195,2.309,6.263c0.281,0.203,1.297,0.851,1.617,0.969l0.15,0.075c1.156,0.545,2.582,0.488,4.137-0.299   c4.014-2.027,7.354-8.15,7.471-13.668c0.059-2.841-0.75-4.969-2.094-6.09L447.417,305.154z" stroke-linecap="round" outline-element="true" transform="translate(-295.5923495625341, 69.5511410735374) translate(13.523832986521029, -13.523832986521171) translate(-4.494822031104604, -1.9263522990448223) translate(185.48729538878888, 48.62288325725535) translate(724,-30) translate(-518.5915025634765, -83.33211865234375) translate(-15.321396814454829, -17.438988244094844) translate(20,20) matrix(1 0 0 1 665.538918645293 3.6188233207762437)" stroke-miterlimit="10" orgfill="#ffffff" fill="#ffffff" stroke-width="0.5" g2gfill="#ECC35D" stroke-linejoin="round" g2gstroke="#312783"/>
<path fill="#464646" d="M442.597,305.027c-4.016,2.027-7.357,8.15-7.471,13.67c-0.123,5.52,3.035,8.355,7.049,6.322   c4.014-2.027,7.355-8.15,7.471-13.668C449.761,305.832,446.601,303.002,442.597,305.027z" transform="translate(-295.5923495625341, 69.5511410735374) translate(13.523832986521029, -13.523832986521171) translate(-4.494822031104604, -1.9263522990448223) translate(185.48729538878888, 48.62288325725535) translate(724,-30) translate(-518.5915025634765, -83.33211865234375) translate(-15.321396814454829, -17.438988244094844) translate(20,20) matrix(1 0 0 1 665.538918645293 3.6188233207762437)" orgfill="#464646"/>
<path fill="#ECF5E4" d="M442.597,305.027c-4.016,2.027-7.357,8.15-7.471,13.67c-0.123,5.52,3.035,8.355,7.049,6.322   c4.014-2.027,7.355-8.15,7.471-13.668C449.761,305.832,446.601,303.002,442.597,305.027z M445.677,306.485l-2.08,6.647   l-1.688-5.454C443.255,306.66,444.56,306.293,445.677,306.485z M436.95,319.598c-0.137-1.123-0.07-2.336,0.156-3.553l2.557,7.627   C438.261,323.24,437.239,321.818,436.95,319.598z M438.054,312.936c0.559-1.308,1.283-2.543,2.141-3.585l2.047,7.188l-1.652,4.431   L438.054,312.936z M443.786,322.566c-0.959,0.724-1.902,1.118-2.766,1.209l1.859-4.438l1.051,3.113   C443.882,322.49,443.835,322.52,443.786,322.566z M444.198,315.906l2.861-8.775c0.525,0.414,0.961,1.036,1.271,1.813l-3.305,9.817   L444.198,315.906z M448.798,311.252c0.201,3.347-1.26,7.348-3.564,9.953L448.798,311.252z" transform="translate(-295.5923495625341, 69.5511410735374) translate(13.523832986521029, -13.523832986521171) translate(-4.494822031104604, -1.9263522990448223) translate(185.48729538878888, 48.62288325725535) translate(724,-30) translate(-518.5915025634765, -83.33211865234375) translate(-15.321396814454829, -17.438988244094844) translate(20,20) matrix(1 0 0 1 665.538918645293 3.6188233207762437)" orgfill="#ECF5E4"/>
<path stroke-linecap="round" orgstroke="#000000" orgfill="none" transform="translate(-295.5923495625341, 69.5511410735374) translate(13.523832986521029, -13.523832986521171) translate(-4.494822031104604, -1.9263522990448223) translate(185.48729538878888, 48.62288325725535) translate(724,-30) translate(-518.5915025634765, -83.33211865234375) translate(-15.321396814454829, -17.438988244094844) translate(20,20) matrix(1 0 0 1 665.538918645293 3.6188233207762437)" fill="none" stroke-linejoin="round" d="   M438.038,325.318c-1.832-0.863-2.988-3.238-2.914-6.621c0.113-5.52,3.455-11.643,7.471-13.67c1.943-0.982,3.689-0.822,4.957,0.234" stroke="#000000" stroke-width="0.25" g2gstroke="#312783" stroke-miterlimit="10"/>
<path stroke-linecap="round" orgstroke="#000000" orgfill="none" transform="translate(-295.5923495625341, 69.5511410735374) translate(13.523832986521029, -13.523832986521171) translate(-4.494822031104604, -1.9263522990448223) translate(185.48729538878888, 48.62288325725535) translate(724,-30) translate(-518.5915025634765, -83.33211865234375) translate(-15.321396814454829, -17.438988244094844) translate(20,20) matrix(1 0 0 1 665.538918645293 3.6188233207762437)" fill="none" stroke-linejoin="round" d="   M445.233,321.205l3.563-9.953C448.999,314.599,447.536,318.6,445.233,321.205z" stroke="#000000" stroke-width="0.25" g2gstroke="#312783" stroke-miterlimit="10"/>
<path stroke-linecap="round" orgstroke="#000000" orgfill="none" transform="translate(-295.5923495625341, 69.5511410735374) translate(13.523832986521029, -13.523832986521171) translate(-4.494822031104604, -1.9263522990448223) translate(185.48729538878888, 48.62288325725535) translate(724,-30) translate(-518.5915025634765, -83.33211865234375) translate(-15.321396814454829, -17.438988244094844) translate(20,20) matrix(1 0 0 1 665.538918645293 3.6188233207762437)" fill="none" stroke-linejoin="round" d="   M445.024,318.761l-0.828-2.854l2.863-8.775c0.525,0.414,0.961,1.036,1.27,1.813L445.024,318.761z" stroke="#000000" stroke-width="0.25" g2gstroke="#312783" stroke-miterlimit="10"/>
<path stroke-linecap="round" orgstroke="#000000" orgfill="none" transform="translate(-295.5923495625341, 69.5511410735374) translate(13.523832986521029, -13.523832986521171) translate(-4.494822031104604, -1.9263522990448223) translate(185.48729538878888, 48.62288325725535) translate(724,-30) translate(-518.5915025634765, -83.33211865234375) translate(-15.321396814454829, -17.438988244094844) translate(20,20) matrix(1 0 0 1 665.538918645293 3.6188233207762437)" fill="none" stroke-linejoin="round" d="   M441.021,323.775l1.857-4.438l1.051,3.113c-0.049,0.039-0.094,0.068-0.143,0.115C442.827,323.29,441.884,323.685,441.021,323.775z" stroke="#000000" stroke-width="0.25" g2gstroke="#312783" stroke-miterlimit="10"/>
<path stroke-linecap="round" orgstroke="#000000" orgfill="none" transform="translate(-295.5923495625341, 69.5511410735374) translate(13.523832986521029, -13.523832986521171) translate(-4.494822031104604, -1.9263522990448223) translate(185.48729538878888, 48.62288325725535) translate(724,-30) translate(-518.5915025634765, -83.33211865234375) translate(-15.321396814454829, -17.438988244094844) translate(20,20) matrix(1 0 0 1 665.538918645293 3.6188233207762437)" fill="none" stroke-linejoin="round" d="   M443.595,313.133l-1.688-5.454c1.346-1.019,2.652-1.386,3.768-1.193L443.595,313.133z" stroke="#000000" stroke-width="0.25" g2gstroke="#312783" stroke-miterlimit="10"/>
<path stroke-linecap="round" orgstroke="#000000" orgfill="none" transform="translate(-295.5923495625341, 69.5511410735374) translate(13.523832986521029, -13.523832986521171) translate(-4.494822031104604, -1.9263522990448223) translate(185.48729538878888, 48.62288325725535) translate(724,-30) translate(-518.5915025634765, -83.33211865234375) translate(-15.321396814454829, -17.438988244094844) translate(20,20) matrix(1 0 0 1 665.538918645293 3.6188233207762437)" fill="none" stroke-linejoin="round" d="   M437.106,316.045l2.557,7.627c-1.404-0.432-2.424-1.854-2.713-4.074C436.812,318.475,436.878,317.262,437.106,316.045z" stroke="#000000" stroke-width="0.25" g2gstroke="#312783" stroke-miterlimit="10"/>
<path stroke-linecap="round" orgstroke="#000000" orgfill="none" transform="translate(-295.5923495625341, 69.5511410735374) translate(13.523832986521029, -13.523832986521171) translate(-4.494822031104604, -1.9263522990448223) translate(185.48729538878888, 48.62288325725535) translate(724,-30) translate(-518.5915025634765, -83.33211865234375) translate(-15.321396814454829, -17.438988244094844) translate(20,20) matrix(1 0 0 1 665.538918645293 3.6188233207762437)" fill="none" stroke-linejoin="round" d="   M438.054,312.936c0.559-1.308,1.283-2.543,2.141-3.585l2.045,7.188l-1.65,4.431L438.054,312.936z" stroke="#000000" stroke-width="0.25" g2gstroke="#312783" stroke-miterlimit="10"/>
<path stroke-linecap="round" orgstroke="#000000" orgfill="none" transform="translate(-295.5923495625341, 69.5511410735374) translate(13.523832986521029, -13.523832986521171) translate(-4.494822031104604, -1.9263522990448223) translate(185.48729538878888, 48.62288325725535) translate(724,-30) translate(-518.5915025634765, -83.33211865234375) translate(-15.321396814454829, -17.438988244094844) translate(20,20) matrix(1 0 0 1 665.538918645293 3.6188233207762437)" fill="none" stroke-linejoin="round" d="   M447.417,305.154c-0.439-0.375-1.926-1.188-2.471-1.334c-1.031-0.278-2.229-0.128-3.514,0.521c-4.016,2.027-7.357,8.15-7.471,13.67   c-0.066,2.992,0.832,5.195,2.309,6.263c0.281,0.203,1.297,0.851,1.617,0.969l0.15,0.075c1.156,0.545,2.582,0.488,4.137-0.299   c4.014-2.027,7.354-8.15,7.471-13.668c0.059-2.841-0.75-4.969-2.094-6.09L447.417,305.154z" stroke="#000000" stroke-width="0.25" g2gstroke="#312783" stroke-miterlimit="10"/>
<path stroke-linecap="round" orgstroke="#000000" orgfill="none" transform="translate(-295.5923495625341, 69.5511410735374) translate(13.523832986521029, -13.523832986521171) translate(-4.494822031104604, -1.9263522990448223) translate(185.48729538878888, 48.62288325725535) translate(724,-30) translate(-518.5915025634765, -83.33211865234375) translate(-15.321396814454829, -17.438988244094844) translate(20,20) matrix(1 0 0 1 665.538918645293 3.6188233207762437)" fill="none" stroke-linejoin="round" d="M442.239013671875 316.53900146484375L444.1960144042969 315.906005859375" stroke="#000000" stroke-width="0.25" g2gstroke="#312783" stroke-miterlimit="10"/>
</g>
</g>
</g>
</g>
</g>
</g>
</g></svg>