<svg xmlns="http://www.w3.org/2000/svg" xmlns:xlink="http://www.w3.org/1999/xlink" xmlns:x="http://ns.adobe.com/Extensibility/1.0/" xmlns:graph="http://ns.adobe.com/Graphs/1.0/" xmlns:i="http://ns.adobe.com/AdobeIllustrator/10.0/" xmlns:etg="http://www.eurotaxglass.com/etg/evd/" etg:dataTimestamp="1541512339925" contentScriptType="text/ecmascript" zoomAndPan="magnify" contentStyleType="text/css" id="Layer_1" enable-background="new 0 0 1841.891 1595.279" version="1.1" xml:space="preserve" width="1841.891px" preserveAspectRatio="xMidYMid meet" viewBox="0 0 1841.891 1595.279" height="1595.279px" x="0px" y="0px"><g xmlns="http://www.w3.org/2000/svg" objecttype="PS" tooltip="#UNDEFINED" id="40">
<g onmouseover="notifyOwner(AGV_OBJECT_MOUSEOVER, '40(PS)')" transform="translate(-9.433746356535266E-6, 3.356933575560106E-7) translate(-35.71980609130861, -13.200809143066408) translate(44.708733184814434, 94.79042849731445) matrix(0.6117410612267968 0 0 0.6117410612267968 0.2921243287958965 0.477310974878083) translate(-92,-34) " onclick="clickZoom(evt); notifyOwner(AGV_OBJECT_MOUSECLICK, '40(PS)')" onmouseout="notifyOwner(AGV_OBJECT_MOUSEOUT, '40(PS)')" tooltip="#UNDEFINED" id="40-Graphic" objecttype="GRAPHIC">
<g zvalue="39">
<g zvalue="15">
<g>
<path stroke-linecap="round" orgstroke="#000000" orgfill="#ffffff" transform="translate(-235.70108919365452, -504.2457727831464) translate(-42.50347510049505, -293.66037342160246) translate(2.164297850831872, 0.360716308471865) translate(-7.214326169438891, 3.9678793931914242) rotate(2.6271308539401885 1554.6503067016602 1181.9759407043457) translate(-14.067936030406145, -14.42865233887801) translate(-42.60152094414889, -79.117110324848) translate(51.79207919675491, 86.15878595347976) matrix(1.1342189053733422 0 0 1.1342189053733422 -200.15644941198613 -153.0469243574408) translate(-36.78689737339596, -11.132876836685682) translate(511.21825132978734, 202.86438544832822) translate(465,675) translate(-3.2348632998946414E-6, 4.150390623181011E-6) translate(-5.075633422851581, -2.308101318359377)" fill="#ffffff" g2gfill="#BCBEC0" d="M650.677,314.893   c-18.043,12.455-40.213,25.979-57.104,35.395l-9.229,0.613c-0.938,0.49-1.84,0.957-2.701,1.402   c-8.17,4.182-13.178,8.846-21.271,10.104l-0.614-0.203l-0.438-0.191l-0.771-0.957l-1.52-5.439l-0.116-2.852l0.229-2.379   l0.188-0.646c7.689-1.199,12.247-5.357,20.087-9.492l0.896-0.67l0.258-0.813l0.111-2.498l1.172-3.563l1.979-3.096l0.304-2.979   l0.069-0.6l0.229-0.354l0.396-0.396c19.646-10.061,56.062-31.938,79.521-49.256l0.383-0.168l0.371,0.116l0.979,0.438l0.184,0.42   l-0.305,2.98l-1.979,3.096l-1.18,3.555l-0.063,1.521l0.521,0.502c2.498-1.897,4.813-3.724,6.896-5.466   c2.381-1.979,3.646-3.269,5.67-5.979l0.271-0.307l0.332,0.02l1.104,0.5l0.234,0.313l0.103,0.354l-0.229,2.381l0.121,2.854   l1.511,5.438l-0.271,0.563c-2.032,2.729-3.295,4.008-5.67,5.979c-3.875,3.23-8.521,6.771-13.67,10.477L650.677,314.893z" stroke="#000000" outline-element="true" stroke-width="0.5" g2gstroke="#312783"/>
<path orgstroke="#000000" orgfill="none" stroke-linecap="round" transform="translate(-235.70108919365452, -504.2457727831464) translate(-42.50347510049505, -293.66037342160246) translate(2.164297850831872, 0.360716308471865) translate(-7.214326169438891, 3.9678793931914242) rotate(2.6271308539401885 1554.6503067016602 1181.9759407043457) translate(-14.067936030406145, -14.42865233887801) translate(-42.60152094414889, -79.117110324848) translate(51.79207919675491, 86.15878595347976) matrix(1.1342189053733422 0 0 1.1342189053733422 -200.15644941198613 -153.0469243574408) translate(-36.78689737339596, -11.132876836685682) translate(511.21825132978734, 202.86438544832822) translate(465,675) translate(-3.2348632998946414E-6, 4.150390623181011E-6) translate(-5.075633422851581, -2.308101318359377)" fill="none" d="M613.773,317.323   c12.469-7.813,36.863-22.932,46.848-30.332" stroke="#000000" stroke-width="0.25" g2gstroke="#312783"/>
<path orgstroke="#000000" orgfill="none" stroke-linecap="round" transform="translate(-235.70108919365452, -504.2457727831464) translate(-42.50347510049505, -293.66037342160246) translate(2.164297850831872, 0.360716308471865) translate(-7.214326169438891, 3.9678793931914242) rotate(2.6271308539401885 1554.6503067016602 1181.9759407043457) translate(-14.067936030406145, -14.42865233887801) translate(-42.60152094414889, -79.117110324848) translate(51.79207919675491, 86.15878595347976) matrix(1.1342189053733422 0 0 1.1342189053733422 -200.15644941198613 -153.0469243574408) translate(-36.78689737339596, -11.132876836685682) translate(511.21825132978734, 202.86438544832822) translate(465,675) translate(-3.2348632998946414E-6, 4.150390623181011E-6) translate(-5.075633422851581, -2.308101318359377)" fill="none" d="M580.198,336.325   c8.748-4.475,20.813-11.291,33.568-19.002" stroke="#000000" stroke-width="0.25" g2gstroke="#312783"/>
<path orgstroke="#000000" orgfill="none" stroke-linecap="round" transform="translate(-235.70108919365452, -504.2457727831464) translate(-42.50347510049505, -293.66037342160246) translate(2.164297850831872, 0.360716308471865) translate(-7.214326169438891, 3.9678793931914242) rotate(2.6271308539401885 1554.6503067016602 1181.9759407043457) translate(-14.067936030406145, -14.42865233887801) translate(-42.60152094414889, -79.117110324848) translate(51.79207919675491, 86.15878595347976) matrix(1.1342189053733422 0 0 1.1342189053733422 -200.15644941198613 -153.0469243574408) translate(-36.78689737339596, -11.132876836685682) translate(511.21825132978734, 202.86438544832822) translate(465,675) translate(-3.2348632998946414E-6, 4.150390623181011E-6) translate(-5.075633422851581, -2.308101318359377)" fill="none" d="M614.976,313.645   c12.365-7.768,36.609-23.32,46.52-30.656" stroke="#000000" stroke-width="0.25" g2gstroke="#312783"/>
<path orgstroke="#000000" orgfill="none" stroke-linecap="round" transform="translate(-235.70108919365452, -504.2457727831464) translate(-42.50347510049505, -293.66037342160246) translate(2.164297850831872, 0.360716308471865) translate(-7.214326169438891, 3.9678793931914242) rotate(2.6271308539401885 1554.6503067016602 1181.9759407043457) translate(-14.067936030406145, -14.42865233887801) translate(-42.60152094414889, -79.117110324848) translate(51.79207919675491, 86.15878595347976) matrix(1.1342189053733422 0 0 1.1342189053733422 -200.15644941198613 -153.0469243574408) translate(-36.78689737339596, -11.132876836685682) translate(511.21825132978734, 202.86438544832822) translate(465,675) translate(-3.2348632998946414E-6, 4.150390623181011E-6) translate(-5.075633422851581, -2.308101318359377)" fill="none" d="M581.521,332.573   c8.721-4.463,20.729-11.248,33.455-18.93" stroke="#000000" stroke-width="0.25" g2gstroke="#312783"/>
<path orgstroke="#000000" orgfill="none" stroke-linecap="round" transform="translate(-235.70108919365452, -504.2457727831464) translate(-42.50347510049505, -293.66037342160246) translate(2.164297850831872, 0.360716308471865) translate(-7.214326169438891, 3.9678793931914242) rotate(2.6271308539401885 1554.6503067016602 1181.9759407043457) translate(-14.067936030406145, -14.42865233887801) translate(-42.60152094414889, -79.117110324848) translate(51.79207919675491, 86.15878595347976) matrix(1.1342189053733422 0 0 1.1342189053733422 -200.15644941198613 -153.0469243574408) translate(-36.78689737339596, -11.132876836685682) translate(511.21825132978734, 202.86438544832822) translate(465,675) translate(-3.2348632998946414E-6, 4.150390623181011E-6) translate(-5.075633422851581, -2.308101318359377)" fill="none" d="M583.323,329.743   c19.781-10.121,56.523-32.209,79.979-49.582" stroke="#000000" stroke-width="0.25" g2gstroke="#312783"/>
<path orgstroke="#000000" orgfill="none" stroke-linecap="round" transform="translate(-235.70108919365452, -504.2457727831464) translate(-42.50347510049505, -293.66037342160246) translate(2.164297850831872, 0.360716308471865) translate(-7.214326169438891, 3.9678793931914242) rotate(2.6271308539401885 1554.6503067016602 1181.9759407043457) translate(-14.067936030406145, -14.42865233887801) translate(-42.60152094414889, -79.117110324848) translate(51.79207919675491, 86.15878595347976) matrix(1.1342189053733422 0 0 1.1342189053733422 -200.15644941198613 -153.0469243574408) translate(-36.78689737339596, -11.132876836685682) translate(511.21825132978734, 202.86438544832822) translate(465,675) translate(-3.2348632998946414E-6, 4.150390623181011E-6) translate(-5.075633422851581, -2.308101318359377)" fill="none" d="M583.853,326.405   c19.779-10.123,56.521-32.213,79.973-49.584" stroke="#000000" stroke-width="0.25" g2gstroke="#312783"/>
<path orgstroke="#000000" orgfill="none" transform="translate(-235.70108919365452, -504.2457727831464) translate(-42.50347510049505, -293.66037342160246) translate(2.164297850831872, 0.360716308471865) translate(-7.214326169438891, 3.9678793931914242) rotate(2.6271308539401885 1554.6503067016602 1181.9759407043457) translate(-14.067936030406145, -14.42865233887801) translate(-42.60152094414889, -79.117110324848) translate(51.79207919675491, 86.15878595347976) matrix(1.1342189053733422 0 0 1.1342189053733422 -200.15644941198613 -153.0469243574408) translate(-36.78689737339596, -11.132876836685682) translate(511.21825132978734, 202.86438544832822) translate(465,675) translate(-3.2348632998946414E-6, 4.150390623181011E-6) translate(-5.075633422851581, -2.308101318359377)" fill="none" d="M580.0029907226562 340.9010009765625L580.197998046875 336.32501220703125L581.364990234375 332.7720031738281L583.3489990234375 329.6780090332031L583.6500244140625 326.697998046875" stroke="#000000" stroke-width="0.25" g2gstroke="#312783"/>
<path orgstroke="#000000" orgfill="none" transform="translate(-235.70108919365452, -504.2457727831464) translate(-42.50347510049505, -293.66037342160246) translate(2.164297850831872, 0.360716308471865) translate(-7.214326169438891, 3.9678793931914242) rotate(2.6271308539401885 1554.6503067016602 1181.9759407043457) translate(-14.067936030406145, -14.42865233887801) translate(-42.60152094414889, -79.117110324848) translate(51.79207919675491, 86.15878595347976) matrix(1.1342189053733422 0 0 1.1342189053733422 -200.15644941198613 -153.0469243574408) translate(-36.78689737339596, -11.132876836685682) translate(511.21825132978734, 202.86438544832822) translate(465,675) translate(-3.2348632998946414E-6, 4.150390623181011E-6) translate(-5.075633422851581, -2.308101318359377)" fill="none" d="M652.260986328125 292.44000244140625L653.7960205078125 289.2820129394531L654.031005859375 288.89300537109375L655.406005859375 285.7860107421875L655.697998046875 282.8110046386719" stroke="#000000" stroke-width="0.25" g2gstroke="#312783"/>
<path orgstroke="#000000" orgfill="none" transform="translate(-235.70108919365452, -504.2457727831464) translate(-42.50347510049505, -293.66037342160246) translate(2.164297850831872, 0.360716308471865) translate(-7.214326169438891, 3.9678793931914242) rotate(2.6271308539401885 1554.6503067016602 1181.9759407043457) translate(-14.067936030406145, -14.42865233887801) translate(-42.60152094414889, -79.117110324848) translate(51.79207919675491, 86.15878595347976) matrix(1.1342189053733422 0 0 1.1342189053733422 -200.15644941198613 -153.0469243574408) translate(-36.78689737339596, -11.132876836685682) translate(511.21825132978734, 202.86438544832822) translate(465,675) translate(-3.2348632998946414E-6, 4.150390623181011E-6) translate(-5.075633422851581, -2.308101318359377)" fill="none" d="M656.5070190429688 289.5360107421875L657.7340087890625 286.5429992675781L659.2219848632812 283.2799987792969L659.5189819335938 279.9580078125" stroke="#000000" stroke-width="0.25" g2gstroke="#312783"/>
<path orgstroke="#000000" orgfill="none" transform="translate(-235.70108919365452, -504.2457727831464) translate(-42.50347510049505, -293.66037342160246) translate(2.164297850831872, 0.360716308471865) translate(-7.214326169438891, 3.9678793931914242) rotate(2.6271308539401885 1554.6503067016602 1181.9759407043457) translate(-14.067936030406145, -14.42865233887801) translate(-42.60152094414889, -79.117110324848) translate(51.79207919675491, 86.15878595347976) matrix(1.1342189053733422 0 0 1.1342189053733422 -200.15644941198613 -153.0469243574408) translate(-36.78689737339596, -11.132876836685682) translate(511.21825132978734, 202.86438544832822) translate(465,675) translate(-3.2348632998946414E-6, 4.150390623181011E-6) translate(-5.075633422851581, -2.308101318359377)" fill="none" d="M660.614990234375 291.0379943847656L660.72998046875 288.6940002441406" stroke="#000000" stroke-width="0.25" g2gstroke="#312783"/>
<path orgstroke="#000000" orgfill="none" transform="translate(-235.70108919365452, -504.2457727831464) translate(-42.50347510049505, -293.66037342160246) translate(2.164297850831872, 0.360716308471865) translate(-7.214326169438891, 3.9678793931914242) rotate(2.6271308539401885 1554.6503067016602 1181.9759407043457) translate(-14.067936030406145, -14.42865233887801) translate(-42.60152094414889, -79.117110324848) translate(51.79207919675491, 86.15878595347976) matrix(1.1342189053733422 0 0 1.1342189053733422 -200.15644941198613 -153.0469243574408) translate(-36.78689737339596, -11.132876836685682) translate(511.21825132978734, 202.86438544832822) translate(465,675) translate(-3.2348632998946414E-6, 4.150390623181011E-6) translate(-5.075633422851581, -2.308101318359377)" fill="none" d="M559.941,362.323l-1.516-5.438l-0.121-2.854l0.229-2.379l0.191-0.646   c8.094-1.271,13.098-5.912,21.27-10.105c22.813-11.672,68.148-39.242,89.688-57.162c2.383-1.98,3.637-3.26,5.672-5.982" stroke="#000000" stroke-width="0.25" g2gstroke="#312783"/>
<path orgstroke="#000000" orgfill="none" transform="translate(-235.70108919365452, -504.2457727831464) translate(-42.50347510049505, -293.66037342160246) translate(2.164297850831872, 0.360716308471865) translate(-7.214326169438891, 3.9678793931914242) rotate(2.6271308539401885 1554.6503067016602 1181.9759407043457) translate(-14.067936030406145, -14.42865233887801) translate(-42.60152094414889, -79.117110324848) translate(51.79207919675491, 86.15878595347976) matrix(1.1342189053733422 0 0 1.1342189053733422 -200.15644941198613 -153.0469243574408) translate(-36.78689737339596, -11.132876836685682) translate(511.21825132978734, 202.86438544832822) translate(465,675) translate(-3.2348632998946414E-6, 4.150390623181011E-6) translate(-5.075633422851581, -2.308101318359377)" fill="none" d="M560.947998046875 351.1839904785156L560.7239990234375 353.56298828125L560.8489990234375 356.40899658203125L562.3569946289062 361.8559875488281" stroke="#000000" stroke-width="0.25" g2gstroke="#312783"/>
<path orgstroke="#000000" orgfill="none" transform="translate(-235.70108919365452, -504.2457727831464) translate(-42.50347510049505, -293.66037342160246) translate(2.164297850831872, 0.360716308471865) translate(-7.214326169438891, 3.9678793931914242) rotate(2.6271308539401885 1554.6503067016602 1181.9759407043457) translate(-14.067936030406145, -14.42865233887801) translate(-42.60152094414889, -79.117110324848) translate(51.79207919675491, 86.15878595347976) matrix(1.1342189053733422 0 0 1.1342189053733422 -200.15644941198613 -153.0469243574408) translate(-36.78689737339596, -11.132876836685682) translate(511.21825132978734, 202.86438544832822) translate(465,675) translate(-3.2348632998946414E-6, 4.150390623181011E-6) translate(-5.075633422851581, -2.308101318359377)" fill="none" d="M572.489990234375 345.40301513671875L572.2650146484375 347.7820129394531L572.3880004882812 350.62200927734375L573.8939819335938 356.0710144042969" stroke="#000000" stroke-width="0.25" g2gstroke="#312783"/>
<path orgstroke="#000000" orgfill="none" transform="translate(-235.70108919365452, -504.2457727831464) translate(-42.50347510049505, -293.66037342160246) translate(2.164297850831872, 0.360716308471865) translate(-7.214326169438891, 3.9678793931914242) rotate(2.6271308539401885 1554.6503067016602 1181.9759407043457) translate(-14.067936030406145, -14.42865233887801) translate(-42.60152094414889, -79.117110324848) translate(51.79207919675491, 86.15878595347976) matrix(1.1342189053733422 0 0 1.1342189053733422 -200.15644941198613 -153.0469243574408) translate(-36.78689737339596, -11.132876836685682) translate(511.21825132978734, 202.86438544832822) translate(465,675) translate(-3.2348632998946414E-6, 4.150390623181011E-6) translate(-5.075633422851581, -2.308101318359377)" fill="none" d="M666.5269775390625 286.58099365234375L666.2960205078125 288.9599914550781L666.406005859375 291.8030090332031L667.9290161132812 297.2489929199219" stroke="#000000" stroke-width="0.25" g2gstroke="#312783"/>
<path orgstroke="#000000" orgfill="none" transform="translate(-235.70108919365452, -504.2457727831464) translate(-42.50347510049505, -293.66037342160246) translate(2.164297850831872, 0.360716308471865) translate(-7.214326169438891, 3.9678793931914242) rotate(2.6271308539401885 1554.6503067016602 1181.9759407043457) translate(-14.067936030406145, -14.42865233887801) translate(-42.60152094414889, -79.117110324848) translate(51.79207919675491, 86.15878595347976) matrix(1.1342189053733422 0 0 1.1342189053733422 -200.15644941198613 -153.0469243574408) translate(-36.78689737339596, -11.132876836685682) translate(511.21825132978734, 202.86438544832822) translate(465,675) translate(-3.2348632998946414E-6, 4.150390623181011E-6) translate(-5.075633422851581, -2.308101318359377)" fill="none" d="M674.510986328125 278.7569885253906L674.281005859375 281.135986328125L674.406005859375 283.97698974609375L675.906005859375 289.42401123046875" stroke="#000000" stroke-width="0.25" g2gstroke="#312783"/>
<path orgstroke="#000000" orgfill="none" stroke-linecap="round" transform="translate(-235.70108919365452, -504.2457727831464) translate(-42.50347510049505, -293.66037342160246) translate(2.164297850831872, 0.360716308471865) translate(-7.214326169438891, 3.9678793931914242) rotate(2.6271308539401885 1554.6503067016602 1181.9759407043457) translate(-14.067936030406145, -14.42865233887801) translate(-42.60152094414889, -79.117110324848) translate(51.79207919675491, 86.15878595347976) matrix(1.1342189053733422 0 0 1.1342189053733422 -200.15644941198613 -153.0469243574408) translate(-36.78689737339596, -11.132876836685682) translate(511.21825132978734, 202.86438544832822) translate(465,675) translate(-3.2348632998946414E-6, 4.150390623181011E-6) translate(-5.075633422851581, -2.308101318359377)" fill="none" d="M563.929,358.077l-0.574,0.063l-0.231-0.396   l-0.464-4.313l0.08-0.408l0.146-0.365l0.354-0.213c2.271-0.975,4.563-2.139,6.849-3.354l0.265-0.104l0.146,0.082l0.188,0.234   l0.438,4.016l0.091,0.902l-0.104,0.328l-0.521,0.271l0.032-0.021c-2.266,1.211-4.521,2.348-6.771,3.309" stroke="#000000" stroke-width="0.25" g2gstroke="#312783"/>
<path orgstroke="#000000" orgfill="none" stroke-linecap="round" transform="translate(-235.70108919365452, -504.2457727831464) translate(-42.50347510049505, -293.66037342160246) translate(2.164297850831872, 0.360716308471865) translate(-7.214326169438891, 3.9678793931914242) rotate(2.6271308539401885 1554.6503067016602 1181.9759407043457) translate(-14.067936030406145, -14.42865233887801) translate(-42.60152094414889, -79.117110324848) translate(51.79207919675491, 86.15878595347976) matrix(1.1342189053733422 0 0 1.1342189053733422 -200.15644941198613 -153.0469243574408) translate(-36.78689737339596, -11.132876836685682) translate(511.21825132978734, 202.86438544832822) translate(465,675) translate(-3.2348632998946414E-6, 4.150390623181011E-6) translate(-5.075633422851581, -2.308101318359377)" fill="none" d="M673.732,281.977   c-0.229,0.428-0.705,0.752-1.07,0.729c-0.354-0.016-0.469-0.369-0.232-0.791c0.229-0.424,0.691-0.746,1.063-0.729   C673.849,281.206,673.948,281.553,673.732,281.977z" stroke="#000000" stroke-width="0.25" g2gstroke="#312783"/>
<path orgstroke="#000000" orgfill="none" stroke-linecap="round" transform="translate(-235.70108919365452, -504.2457727831464) translate(-42.50347510049505, -293.66037342160246) translate(2.164297850831872, 0.360716308471865) translate(-7.214326169438891, 3.9678793931914242) rotate(2.6271308539401885 1554.6503067016602 1181.9759407043457) translate(-14.067936030406145, -14.42865233887801) translate(-42.60152094414889, -79.117110324848) translate(51.79207919675491, 86.15878595347976) matrix(1.1342189053733422 0 0 1.1342189053733422 -200.15644941198613 -153.0469243574408) translate(-36.78689737339596, -11.132876836685682) translate(511.21825132978734, 202.86438544832822) translate(465,675) translate(-3.2348632998946414E-6, 4.150390623181011E-6) translate(-5.075633422851581, -2.308101318359377)" fill="none" d="M668.515,286.67   c-0.229,0.418-0.705,0.749-1.068,0.731c-0.364-0.021-0.471-0.371-0.244-0.791c0.229-0.424,0.703-0.75,1.066-0.734   C668.634,285.893,668.74,286.249,668.515,286.67z" stroke="#000000" stroke-width="0.25" g2gstroke="#312783"/>
<path orgstroke="#000000" orgfill="none" stroke-linecap="round" transform="translate(-235.70108919365452, -504.2457727831464) translate(-42.50347510049505, -293.66037342160246) translate(2.164297850831872, 0.360716308471865) translate(-7.214326169438891, 3.9678793931914242) rotate(2.6271308539401885 1554.6503067016602 1181.9759407043457) translate(-14.067936030406145, -14.42865233887801) translate(-42.60152094414889, -79.117110324848) translate(51.79207919675491, 86.15878595347976) matrix(1.1342189053733422 0 0 1.1342189053733422 -200.15644941198613 -153.0469243574408) translate(-36.78689737339596, -11.132876836685682) translate(511.21825132978734, 202.86438544832822) translate(465,675) translate(-3.2348632998946414E-6, 4.150390623181011E-6) translate(-5.075633422851581, -2.308101318359377)" fill="none" d="M669.439,295.058   c-0.229,0.423-0.703,0.744-1.068,0.729c-0.354-0.016-0.467-0.369-0.234-0.793c0.229-0.424,0.711-0.746,1.063-0.729   C669.556,294.284,669.656,294.635,669.439,295.058z" stroke="#000000" stroke-width="0.25" g2gstroke="#312783"/>
<path orgstroke="#000000" orgfill="none" stroke-linecap="round" transform="translate(-235.70108919365452, -504.2457727831464) translate(-42.50347510049505, -293.66037342160246) translate(2.164297850831872, 0.360716308471865) translate(-7.214326169438891, 3.9678793931914242) rotate(2.6271308539401885 1554.6503067016602 1181.9759407043457) translate(-14.067936030406145, -14.42865233887801) translate(-42.60152094414889, -79.117110324848) translate(51.79207919675491, 86.15878595347976) matrix(1.1342189053733422 0 0 1.1342189053733422 -200.15644941198613 -153.0469243574408) translate(-36.78689737339596, -11.132876836685682) translate(511.21825132978734, 202.86438544832822) translate(465,675) translate(-3.2348632998946414E-6, 4.150390623181011E-6) translate(-5.075633422851581, -2.308101318359377)" fill="none" d="M675.128,289.944   c-0.229,0.42-0.701,0.748-1.068,0.729c-0.359-0.018-0.471-0.372-0.244-0.792c0.229-0.429,0.707-0.749,1.068-0.729   C675.24,289.168,675.355,289.52,675.128,289.944z" stroke="#000000" stroke-width="0.25" g2gstroke="#312783"/>
<path orgstroke="#000000" orgfill="none" stroke-linecap="round" transform="translate(-235.70108919365452, -504.2457727831464) translate(-42.50347510049505, -293.66037342160246) translate(2.164297850831872, 0.360716308471865) translate(-7.214326169438891, 3.9678793931914242) rotate(2.6271308539401885 1554.6503067016602 1181.9759407043457) translate(-14.067936030406145, -14.42865233887801) translate(-42.60152094414889, -79.117110324848) translate(51.79207919675491, 86.15878595347976) matrix(1.1342189053733422 0 0 1.1342189053733422 -200.15644941198613 -153.0469243574408) translate(-36.78689737339596, -11.132876836685682) translate(511.21825132978734, 202.86438544832822) translate(465,675) translate(-3.2348632998946414E-6, 4.150390623181011E-6) translate(-5.075633422851581, -2.308101318359377)" fill="none" d="M571.398,347.434   c-0.229,0.428-0.707,0.752-1.07,0.729c-0.354-0.014-0.469-0.371-0.232-0.791c0.229-0.428,0.702-0.748,1.063-0.729   C571.519,346.655,571.615,347.016,571.398,347.434z" stroke="#000000" stroke-width="0.25" g2gstroke="#312783"/>
<path orgstroke="#000000" orgfill="none" stroke-linecap="round" transform="translate(-235.70108919365452, -504.2457727831464) translate(-42.50347510049505, -293.66037342160246) translate(2.164297850831872, 0.360716308471865) translate(-7.214326169438891, 3.9678793931914242) rotate(2.6271308539401885 1554.6503067016602 1181.9759407043457) translate(-14.067936030406145, -14.42865233887801) translate(-42.60152094414889, -79.117110324848) translate(51.79207919675491, 86.15878595347976) matrix(1.1342189053733422 0 0 1.1342189053733422 -200.15644941198613 -153.0469243574408) translate(-36.78689737339596, -11.132876836685682) translate(511.21825132978734, 202.86438544832822) translate(465,675) translate(-3.2348632998946414E-6, 4.150390623181011E-6) translate(-5.075633422851581, -2.308101318359377)" fill="none" d="M572.761,355.745   c-0.229,0.436-0.705,0.748-1.064,0.73c-0.354-0.021-0.471-0.367-0.242-0.789c0.229-0.428,0.703-0.75,1.064-0.732   C572.878,354.975,572.99,355.321,572.761,355.745z" stroke="#000000" stroke-width="0.25" g2gstroke="#312783"/>
<path orgstroke="#000000" orgfill="none" stroke-linecap="round" transform="translate(-235.70108919365452, -504.2457727831464) translate(-42.50347510049505, -293.66037342160246) translate(2.164297850831872, 0.360716308471865) translate(-7.214326169438891, 3.9678793931914242) rotate(2.6271308539401885 1554.6503067016602 1181.9759407043457) translate(-14.067936030406145, -14.42865233887801) translate(-42.60152094414889, -79.117110324848) translate(51.79207919675491, 86.15878595347976) matrix(1.1342189053733422 0 0 1.1342189053733422 -200.15644941198613 -153.0469243574408) translate(-36.78689737339596, -11.132876836685682) translate(511.21825132978734, 202.86438544832822) translate(465,675) translate(-3.2348632998946414E-6, 4.150390623181011E-6) translate(-5.075633422851581, -2.308101318359377)" fill="none" d="M609.697,323.177   c-0.533,0.936-1.655,1.662-2.512,1.627c-0.85-0.039-1.105-0.826-0.572-1.771c0.533-0.934,1.654-1.65,2.51-1.625   C609.974,321.454,610.234,322.241,609.697,323.177z" stroke="#000000" stroke-width="0.25" g2gstroke="#312783"/>
<path orgstroke="#000000" orgfill="none" stroke-linecap="round" transform="translate(-235.70108919365452, -504.2457727831464) translate(-42.50347510049505, -293.66037342160246) translate(2.164297850831872, 0.360716308471865) translate(-7.214326169438891, 3.9678793931914242) rotate(2.6271308539401885 1554.6503067016602 1181.9759407043457) translate(-14.067936030406145, -14.42865233887801) translate(-42.60152094414889, -79.117110324848) translate(51.79207919675491, 86.15878595347976) matrix(1.1342189053733422 0 0 1.1342189053733422 -200.15644941198613 -153.0469243574408) translate(-36.78689737339596, -11.132876836685682) translate(511.21825132978734, 202.86438544832822) translate(465,675) translate(-3.2348632998946414E-6, 4.150390623181011E-6) translate(-5.075633422851581, -2.308101318359377)" fill="none" d="M643.566,301.68   c-0.531,0.936-1.656,1.662-2.512,1.627c-0.854-0.039-1.104-0.826-0.572-1.764c0.533-0.938,1.656-1.66,2.512-1.625   C643.845,299.958,644.103,300.745,643.566,301.68z" stroke="#000000" stroke-width="0.25" g2gstroke="#312783"/>
<path orgstroke="#000000" orgfill="none" stroke-linecap="round" transform="translate(-235.70108919365452, -504.2457727831464) translate(-42.50347510049505, -293.66037342160246) translate(2.164297850831872, 0.360716308471865) translate(-7.214326169438891, 3.9678793931914242) rotate(2.6271308539401885 1554.6503067016602 1181.9759407043457) translate(-14.067936030406145, -14.42865233887801) translate(-42.60152094414889, -79.117110324848) translate(51.79207919675491, 86.15878595347976) matrix(1.1342189053733422 0 0 1.1342189053733422 -200.15644941198613 -153.0469243574408) translate(-36.78689737339596, -11.132876836685682) translate(511.21825132978734, 202.86438544832822) translate(465,675) translate(-3.2348632998946414E-6, 4.150390623181011E-6) translate(-5.075633422851581, -2.308101318359377)" fill="none" d="M564.519,359.766   c-0.229,0.426-0.705,0.746-1.07,0.729c-0.354-0.016-0.467-0.357-0.242-0.787c0.229-0.426,0.705-0.738,1.064-0.729   C564.638,358.987,564.74,359.348,564.519,359.766z" stroke="#000000" stroke-width="0.25" g2gstroke="#312783"/>
<path orgstroke="#000000" orgfill="none" stroke-linecap="round" transform="translate(-235.70108919365452, -504.2457727831464) translate(-42.50347510049505, -293.66037342160246) translate(2.164297850831872, 0.360716308471865) translate(-7.214326169438891, 3.9678793931914242) rotate(2.6271308539401885 1554.6503067016602 1181.9759407043457) translate(-14.067936030406145, -14.42865233887801) translate(-42.60152094414889, -79.117110324848) translate(51.79207919675491, 86.15878595347976) matrix(1.1342189053733422 0 0 1.1342189053733422 -200.15644941198613 -153.0469243574408) translate(-36.78689737339596, -11.132876836685682) translate(511.21825132978734, 202.86438544832822) translate(465,675) translate(-3.2348632998946414E-6, 4.150390623181011E-6) translate(-5.075633422851581, -2.308101318359377)" fill="none" d="M562.948,351.391   c-0.229,0.428-0.709,0.752-1.063,0.729c-0.359-0.016-0.479-0.354-0.246-0.793c0.229-0.422,0.709-0.75,1.063-0.729   C563.073,350.614,563.181,350.975,562.948,351.391z" stroke="#000000" stroke-width="0.25" g2gstroke="#312783"/>
<path orgstroke="#000000" orgfill="none" stroke-linecap="round" transform="translate(-235.70108919365452, -504.2457727831464) translate(-42.50347510049505, -293.66037342160246) translate(2.164297850831872, 0.360716308471865) translate(-7.214326169438891, 3.9678793931914242) rotate(2.6271308539401885 1554.6503067016602 1181.9759407043457) translate(-14.067936030406145, -14.42865233887801) translate(-42.60152094414889, -79.117110324848) translate(51.79207919675491, 86.15878595347976) matrix(1.1342189053733422 0 0 1.1342189053733422 -200.15644941198613 -153.0469243574408) translate(-36.78689737339596, -11.132876836685682) translate(511.21825132978734, 202.86438544832822) translate(465,675) translate(-3.2348632998946414E-6, 4.150390623181011E-6) translate(-5.075633422851581, -2.308101318359377)" fill="none" d="M673.948,288.599   c-1.244,1.388-2.543,2.688-3.801,3.728c-0.5,0.418-1.012,0.843-1.541,1.271l-0.236-0.271l-0.146-0.83l-0.463-3.646l0.063-0.441   l0.229-0.368c0.461-0.38,0.908-0.746,1.35-1.105c1.17-0.978,2.369-2.151,3.527-3.438l0.266-0.104l0.209,0.188l0.111,0.348   l0.422,3.826L673.948,288.599z" stroke="#000000" stroke-width="0.25" g2gstroke="#312783"/>
<path orgstroke="#000000" orgfill="none" stroke-linecap="round" transform="translate(-235.70108919365452, -504.2457727831464) translate(-42.50347510049505, -293.66037342160246) translate(2.164297850831872, 0.360716308471865) translate(-7.214326169438891, 3.9678793931914242) rotate(2.6271308539401885 1554.6503067016602 1181.9759407043457) translate(-14.067936030406145, -14.42865233887801) translate(-42.60152094414889, -79.117110324848) translate(51.79207919675491, 86.15878595347976) matrix(1.1342189053733422 0 0 1.1342189053733422 -200.15644941198613 -153.0469243574408) translate(-36.78689737339596, -11.132876836685682) translate(511.21825132978734, 202.86438544832822) translate(465,675) translate(-3.2348632998946414E-6, 4.150390623181011E-6) translate(-5.075633422851581, -2.308101318359377)" fill="none" d="M580.0130004882812 340.6940002441406L578.322998046875 339.5710144042969" stroke="#000000" stroke-width="0.25" g2gstroke="#312783"/>
<path orgstroke="#000000" orgfill="none" stroke-linecap="round" transform="translate(-235.70108919365452, -504.2457727831464) translate(-42.50347510049505, -293.66037342160246) translate(2.164297850831872, 0.360716308471865) translate(-7.214326169438891, 3.9678793931914242) rotate(2.6271308539401885 1554.6503067016602 1181.9759407043457) translate(-14.067936030406145, -14.42865233887801) translate(-42.60152094414889, -79.117110324848) translate(51.79207919675491, 86.15878595347976) matrix(1.1342189053733422 0 0 1.1342189053733422 -200.15644941198613 -153.0469243574408) translate(-36.78689737339596, -11.132876836685682) translate(511.21825132978734, 202.86438544832822) translate(465,675) translate(-3.2348632998946414E-6, 4.150390623181011E-6) translate(-5.075633422851581, -2.308101318359377)" fill="none" d="M559.0440063476562 350.85400390625L557.364990234375 349.7309875488281" stroke="#000000" stroke-width="0.25" g2gstroke="#312783"/>
<path orgstroke="#000000" orgfill="none" stroke-linecap="round" transform="translate(-235.70108919365452, -504.2457727831464) translate(-42.50347510049505, -293.66037342160246) translate(2.164297850831872, 0.360716308471865) translate(-7.214326169438891, 3.9678793931914242) rotate(2.6271308539401885 1554.6503067016602 1181.9759407043457) translate(-14.067936030406145, -14.42865233887801) translate(-42.60152094414889, -79.117110324848) translate(51.79207919675491, 86.15878595347976) matrix(1.1342189053733422 0 0 1.1342189053733422 -200.15644941198613 -153.0469243574408) translate(-36.78689737339596, -11.132876836685682) translate(511.21825132978734, 202.86438544832822) translate(465,675) translate(-3.2348632998946414E-6, 4.150390623181011E-6) translate(-5.075633422851581, -2.308101318359377)" fill="none" d="M583.697998046875 326.5159912109375L582.64599609375 325.6820068359375" stroke="#000000" stroke-width="0.25" g2gstroke="#312783"/>
<path orgstroke="#000000" orgfill="none" stroke-linecap="round" transform="translate(-235.70108919365452, -504.2457727831464) translate(-42.50347510049505, -293.66037342160246) translate(2.164297850831872, 0.360716308471865) translate(-7.214326169438891, 3.9678793931914242) rotate(2.6271308539401885 1554.6503067016602 1181.9759407043457) translate(-14.067936030406145, -14.42865233887801) translate(-42.60152094414889, -79.117110324848) translate(51.79207919675491, 86.15878595347976) matrix(1.1342189053733422 0 0 1.1342189053733422 -200.15644941198613 -153.0469243574408) translate(-36.78689737339596, -11.132876836685682) translate(511.21825132978734, 202.86438544832822) translate(465,675) translate(-3.2348632998946414E-6, 4.150390623181011E-6) translate(-5.075633422851581, -2.308101318359377)" fill="none" d="M579.169,341.329c0,0,0,5.854,0,6.834   c0,0.99,1.023,1.789,1.023,1.789l5.229,0.646" stroke="#000000" stroke-width="0.25" g2gstroke="#312783"/>
<path orgstroke="#000000" orgfill="none" stroke-linecap="round" transform="translate(-235.70108919365452, -504.2457727831464) translate(-42.50347510049505, -293.66037342160246) translate(2.164297850831872, 0.360716308471865) translate(-7.214326169438891, 3.9678793931914242) rotate(2.6271308539401885 1554.6503067016602 1181.9759407043457) translate(-14.067936030406145, -14.42865233887801) translate(-42.60152094414889, -79.117110324848) translate(51.79207919675491, 86.15878595347976) matrix(1.1342189053733422 0 0 1.1342189053733422 -200.15644941198613 -153.0469243574408) translate(-36.78689737339596, -11.132876836685682) translate(511.21825132978734, 202.86438544832822) translate(465,675) translate(-3.2348632998946414E-6, 4.150390623181011E-6) translate(-5.075633422851581, -2.308101318359377)" fill="none" d="M575.212,344.469v7.646   c0,0-0.451,1.18,1.17,0.686c1.623-0.494,3.877-2.643,4.857-2.063" stroke="#000000" stroke-width="0.25" g2gstroke="#312783"/>
<path orgstroke="#000000" orgfill="none" stroke-linecap="round" transform="translate(-235.70108919365452, -504.2457727831464) translate(-42.50347510049505, -293.66037342160246) translate(2.164297850831872, 0.360716308471865) translate(-7.214326169438891, 3.9678793931914242) rotate(2.6271308539401885 1554.6503067016602 1181.9759407043457) translate(-14.067936030406145, -14.42865233887801) translate(-42.60152094414889, -79.117110324848) translate(51.79207919675491, 86.15878595347976) matrix(1.1342189053733422 0 0 1.1342189053733422 -200.15644941198613 -153.0469243574408) translate(-36.78689737339596, -11.132876836685682) translate(511.21825132978734, 202.86438544832822) translate(465,675) translate(-3.2348632998946414E-6, 4.150390623181011E-6) translate(-5.075633422851581, -2.308101318359377)" fill="none" d="M583.853,340.694l-0.15,6.709   c0,0,0.88,2.291,1.918,2.896" stroke="#000000" stroke-width="0.25" g2gstroke="#312783"/>
<path orgstroke="#000000" orgfill="none" stroke-linecap="round" transform="translate(-235.70108919365452, -504.2457727831464) translate(-42.50347510049505, -293.66037342160246) translate(2.164297850831872, 0.360716308471865) translate(-7.214326169438891, 3.9678793931914242) rotate(2.6271308539401885 1554.6503067016602 1181.9759407043457) translate(-14.067936030406145, -14.42865233887801) translate(-42.60152094414889, -79.117110324848) translate(51.79207919675491, 86.15878595347976) matrix(1.1342189053733422 0 0 1.1342189053733422 -200.15644941198613 -153.0469243574408) translate(-36.78689737339596, -11.132876836685682) translate(511.21825132978734, 202.86438544832822) translate(465,675) translate(-3.2348632998946414E-6, 4.150390623181011E-6) translate(-5.075633422851581, -2.308101318359377)" fill="none" d="M589.962,337.094c0,0,0.844,5.971,1,7.375   c0.146,1.396,3.234,4.256,4.875,3.313c1.631-0.938,49.334-30.254,51.396-31.887c2.063-1.635,1.354-15.979,1.354-15.979" stroke="#000000" stroke-width="0.25" g2gstroke="#312783"/>
<path orgstroke="#000000" orgfill="none" stroke-linecap="round" transform="translate(-235.70108919365452, -504.2457727831464) translate(-42.50347510049505, -293.66037342160246) translate(2.164297850831872, 0.360716308471865) translate(-7.214326169438891, 3.9678793931914242) rotate(2.6271308539401885 1554.6503067016602 1181.9759407043457) translate(-14.067936030406145, -14.42865233887801) translate(-42.60152094414889, -79.117110324848) translate(51.79207919675491, 86.15878595347976) matrix(1.1342189053733422 0 0 1.1342189053733422 -200.15644941198613 -153.0469243574408) translate(-36.78689737339596, -11.132876836685682) translate(511.21825132978734, 202.86438544832822) translate(465,675) translate(-3.2348632998946414E-6, 4.150390623181011E-6) translate(-5.075633422851581, -2.308101318359377)" fill="none" d="M648.698,316.245   c1.293-3.729,1.08-17.15,1.08-17.15" stroke="#000000" stroke-width="0.25" g2gstroke="#312783"/>
<path orgstroke="#000000" orgfill="none" stroke-linecap="round" transform="translate(-235.70108919365452, -504.2457727831464) translate(-42.50347510049505, -293.66037342160246) translate(2.164297850831872, 0.360716308471865) translate(-7.214326169438891, 3.9678793931914242) rotate(2.6271308539401885 1554.6503067016602 1181.9759407043457) translate(-14.067936030406145, -14.42865233887801) translate(-42.60152094414889, -79.117110324848) translate(51.79207919675491, 86.15878595347976) matrix(1.1342189053733422 0 0 1.1342189053733422 -200.15644941198613 -153.0469243574408) translate(-36.78689737339596, -11.132876836685682) translate(511.21825132978734, 202.86438544832822) translate(465,675) translate(-3.2348632998946414E-6, 4.150390623181011E-6) translate(-5.075633422851581, -2.308101318359377)" fill="none" d="M657.462,293.598c0,0,0.736,6.063,0.551,8.014   c-0.197,1.947-0.273,2.729-0.273,2.729" stroke="#000000" stroke-width="0.25" g2gstroke="#312783"/>
<path orgstroke="#000000" orgfill="none" stroke-linecap="round" transform="translate(-235.70108919365452, -504.2457727831464) translate(-42.50347510049505, -293.66037342160246) translate(2.164297850831872, 0.360716308471865) translate(-7.214326169438891, 3.9678793931914242) rotate(2.6271308539401885 1554.6503067016602 1181.9759407043457) translate(-14.067936030406145, -14.42865233887801) translate(-42.60152094414889, -79.117110324848) translate(51.79207919675491, 86.15878595347976) matrix(1.1342189053733422 0 0 1.1342189053733422 -200.15644941198613 -153.0469243574408) translate(-36.78689737339596, -11.132876836685682) translate(511.21825132978734, 202.86438544832822) translate(465,675) translate(-3.2348632998946414E-6, 4.150390623181011E-6) translate(-5.075633422851581, -2.308101318359377)" fill="none" d="M604.656,328.116c0,0,12.691-4.223,14.591-4.758   c1.898-0.535,5.979-2.428,7.284-4.063c1.313-1.645,8.605-9.49,8.605-9.49s2.211-1.021,1.938,1.111   c-1.021,1.553-4.59,6.254-4.59,6.254s-0.75,1.021,0.75,0.668c1.406-0.336,5.854-1.313,7.688-1.523c2.76,0.805,0,2.801,0,2.801   s-10.354,3.213-11.652,3.967c-1.307,0.766-6.557,4.021-7.307,4.443s-10.078,9.58-11.324,10.539   c-2.604,1.188-1.902-1.615-1.902-1.615s5.457-6.438,6.582-7.313c1.125-1.5-0.834-1.021-0.834-1.021s-7.854,2.354-9.834,2.83   C601.88,330.958,604.656,328.116,604.656,328.116z" stroke="#000000" stroke-width="0.25" g2gstroke="#312783"/>
<path orgstroke="#000000" orgfill="none" stroke-linecap="round" transform="translate(-235.70108919365452, -504.2457727831464) translate(-42.50347510049505, -293.66037342160246) translate(2.164297850831872, 0.360716308471865) translate(-7.214326169438891, 3.9678793931914242) rotate(2.6271308539401885 1554.6503067016602 1181.9759407043457) translate(-14.067936030406145, -14.42865233887801) translate(-42.60152094414889, -79.117110324848) translate(51.79207919675491, 86.15878595347976) matrix(1.1342189053733422 0 0 1.1342189053733422 -200.15644941198613 -153.0469243574408) translate(-36.78689737339596, -11.132876836685682) translate(511.21825132978734, 202.86438544832822) translate(465,675) translate(-3.2348632998946414E-6, 4.150390623181011E-6) translate(-5.075633422851581, -2.308101318359377)" fill="none" d="M606.281,328.651   c7.313-1.063,22.354-5.188,28.938-17.5" stroke="#000000" stroke-width="0.25" g2gstroke="#312783"/>
<path orgstroke="#000000" orgfill="none" stroke-linecap="round" transform="translate(-235.70108919365452, -504.2457727831464) translate(-42.50347510049505, -293.66037342160246) translate(2.164297850831872, 0.360716308471865) translate(-7.214326169438891, 3.9678793931914242) rotate(2.6271308539401885 1554.6503067016602 1181.9759407043457) translate(-14.067936030406145, -14.42865233887801) translate(-42.60152094414889, -79.117110324848) translate(51.79207919675491, 86.15878595347976) matrix(1.1342189053733422 0 0 1.1342189053733422 -200.15644941198613 -153.0469243574408) translate(-36.78689737339596, -11.132876836685682) translate(511.21825132978734, 202.86438544832822) translate(465,675) translate(-3.2348632998946414E-6, 4.150390623181011E-6) translate(-5.075633422851581, -2.308101318359377)" fill="none" d="M611.281,336.094c0,0,11.4-14.982,28.605-17.688   " stroke="#000000" stroke-width="0.25" g2gstroke="#312783"/>
<path orgstroke="#000000" orgfill="none" stroke-linecap="round" transform="translate(-235.70108919365452, -504.2457727831464) translate(-42.50347510049505, -293.66037342160246) translate(2.164297850831872, 0.360716308471865) translate(-7.214326169438891, 3.9678793931914242) rotate(2.6271308539401885 1554.6503067016602 1181.9759407043457) translate(-14.067936030406145, -14.42865233887801) translate(-42.60152094414889, -79.117110324848) translate(51.79207919675491, 86.15878595347976) matrix(1.1342189053733422 0 0 1.1342189053733422 -200.15644941198613 -153.0469243574408) translate(-36.78689737339596, -11.132876836685682) translate(511.21825132978734, 202.86438544832822) translate(465,675) translate(-3.2348632998946414E-6, 4.150390623181011E-6) translate(-5.075633422851581, -2.308101318359377)" fill="none" d="M650.712,313.645c0,0,0.639-9.582,1.344-10.336   s2.771-2.939,3.031-3.396c0.26-0.441-0.23-4.891-0.23-4.891" stroke="#000000" stroke-width="0.25" g2gstroke="#312783"/>
<path orgstroke="#000000" orgfill="none" stroke-linecap="round" transform="translate(-235.70108919365452, -504.2457727831464) translate(-42.50347510049505, -293.66037342160246) translate(2.164297850831872, 0.360716308471865) translate(-7.214326169438891, 3.9678793931914242) rotate(2.6271308539401885 1554.6503067016602 1181.9759407043457) translate(-14.067936030406145, -14.42865233887801) translate(-42.60152094414889, -79.117110324848) translate(51.79207919675491, 86.15878595347976) matrix(1.1342189053733422 0 0 1.1342189053733422 -200.15644941198613 -153.0469243574408) translate(-36.78689737339596, -11.132876836685682) translate(511.21825132978734, 202.86438544832822) translate(465,675) translate(-3.2348632998946414E-6, 4.150390623181011E-6) translate(-5.075633422851581, -2.308101318359377)" fill="none" d="M598.837,332.573c0,0,1.747,7.541,1.891,8.326   c0.143,0.785,2.139,0.688,2.859,0.43c0.723-0.256,3.375-1.188,3.375-1.188" stroke="#000000" stroke-width="0.25" g2gstroke="#312783"/>
<path orgstroke="#000000" orgfill="none" stroke-linecap="round" transform="translate(-235.70108919365452, -504.2457727831464) translate(-42.50347510049505, -293.66037342160246) translate(2.164297850831872, 0.360716308471865) translate(-7.214326169438891, 3.9678793931914242) rotate(2.6271308539401885 1554.6503067016602 1181.9759407043457) translate(-14.067936030406145, -14.42865233887801) translate(-42.60152094414889, -79.117110324848) translate(51.79207919675491, 86.15878595347976) matrix(1.1342189053733422 0 0 1.1342189053733422 -200.15644941198613 -153.0469243574408) translate(-36.78689737339596, -11.132876836685682) translate(511.21825132978734, 202.86438544832822) translate(465,675) translate(-3.2348632998946414E-6, 4.150390623181011E-6) translate(-5.075633422851581, -2.308101318359377)" fill="none" d="M617.671,333.094c0,0,3.354-3.25,4.354-4.438   c1.004-1.188,5.359-3.42,7.238-4.18c1.879-0.762,7.391-2.99,7.391-2.99" stroke="#000000" stroke-width="0.25" g2gstroke="#312783"/>
<path orgstroke="#000000" orgfill="none" stroke-linecap="round" transform="translate(-235.70108919365452, -504.2457727831464) translate(-42.50347510049505, -293.66037342160246) translate(2.164297850831872, 0.360716308471865) translate(-7.214326169438891, 3.9678793931914242) rotate(2.6271308539401885 1554.6503067016602 1181.9759407043457) translate(-14.067936030406145, -14.42865233887801) translate(-42.60152094414889, -79.117110324848) translate(51.79207919675491, 86.15878595347976) matrix(1.1342189053733422 0 0 1.1342189053733422 -200.15644941198613 -153.0469243574408) translate(-36.78689737339596, -11.132876836685682) translate(511.21825132978734, 202.86438544832822) translate(465,675) translate(-3.2348632998946414E-6, 4.150390623181011E-6) translate(-5.075633422851581, -2.308101318359377)" fill="none" d="M645.601,309.518   c0,1.174-0.951,2.674-2.125,3.354c-1.176,0.688-2.129,0.275-2.129-0.896c0-1.176,0.953-2.678,2.129-3.355   C644.65,307.938,645.601,308.344,645.601,309.518z" stroke="#000000" stroke-width="0.25" g2gstroke="#312783"/>
<path orgstroke="#000000" orgfill="none" stroke-linecap="round" transform="translate(-235.70108919365452, -504.2457727831464) translate(-42.50347510049505, -293.66037342160246) translate(2.164297850831872, 0.360716308471865) translate(-7.214326169438891, 3.9678793931914242) rotate(2.6271308539401885 1554.6503067016602 1181.9759407043457) translate(-14.067936030406145, -14.42865233887801) translate(-42.60152094414889, -79.117110324848) translate(51.79207919675491, 86.15878595347976) matrix(1.1342189053733422 0 0 1.1342189053733422 -200.15644941198613 -153.0469243574408) translate(-36.78689737339596, -11.132876836685682) translate(511.21825132978734, 202.86438544832822) translate(465,675) translate(-3.2348632998946414E-6, 4.150390623181011E-6) translate(-5.075633422851581, -2.308101318359377)" fill="none" d="M644.886,308.518   c0.004,0.041,0.004,0.086,0.004,0.131c0,1.174-0.951,2.674-2.125,3.354c-0.439,0.254-0.854,0.354-1.189,0.314" stroke="#000000" stroke-width="0.25" g2gstroke="#312783"/>
</g>
</g>
</g>
</g>
</g></svg>