<svg xmlns="http://www.w3.org/2000/svg" xmlns:xlink="http://www.w3.org/1999/xlink" xmlns:x="http://ns.adobe.com/Extensibility/1.0/" xmlns:graph="http://ns.adobe.com/Graphs/1.0/" xmlns:i="http://ns.adobe.com/AdobeIllustrator/10.0/" xmlns:etg="http://www.eurotaxglass.com/etg/evd/" etg:dataTimestamp="1541512339925" contentScriptType="text/ecmascript" zoomAndPan="magnify" contentStyleType="text/css" id="Layer_1" enable-background="new 0 0 1841.891 1595.279" version="1.1" xml:space="preserve" width="1841.891px" preserveAspectRatio="xMidYMid meet" viewBox="0 0 1841.891 1595.279" height="1595.279px" x="0px" y="0px"><g xmlns="http://www.w3.org/2000/svg" objecttype="PS" tooltip="#UNDEFINED" id="5">
<g onmouseover="notifyOwner(AGV_OBJECT_MOUSEOVER, '5(PS)')" transform="translate(-9.433746356535266E-6, 3.356933575560106E-7) translate(-35.71980609130861, -13.200809143066408) translate(44.708733184814434, 94.79042849731445) matrix(0.6117410612267968 0 0 0.6117410612267968 0.2921243287958965 0.477310974878083) translate(-92,-34) " onclick="clickZoom(evt); notifyOwner(AGV_OBJECT_MOUSECLICK, '5(PS)')" onmouseout="notifyOwner(AGV_OBJECT_MOUSEOUT, '5(PS)')" tooltip="#UNDEFINED" id="5-Graphic" objecttype="GRAPHIC">
<g zvalue="4">
<g zvalue="8">
<g>
<path stroke-linecap="round" orgstroke="#000000" orgfill="#ffffff" transform="translate(-295.5923495625341, 69.5511410735374) translate(13.523832986521029, -13.523832986521171) translate(4.596977077266274, 15.104353253874535) translate(0.6567110110379417, -1.9701330331140525) translate(-14.792050684180822, -24.829513648446607) translate(185.48729538878888, 48.62288325725535) translate(724,-30) translate(-518.5915025634765, -83.33211865234375) translate(638.2568999355279, 71.4930618434276) translate(64.88523159790037, 2.6585086364746076) translate(-26.173913043478194, 17.04347826086945) translate(-4.012738853503151, 3.1210191082802226) translate(-104.77707006369394, -46.36942675159224)" fill="#ffffff" g2gfill="#ECC35D" d="M455.4389953613281 380.135009765625L456.6300048828125 381.1499938964844L456.79998779296875 381.739990234375L456.79998779296875 382.1650085449219L456.3760070800781 382.677001953125L455.6059875488281 382.927001953125L453.489990234375 383.2749938964844L452.8139953613281 383.6919860839844L452.0530090332031 385.7330017089844L452.0530090332031 385.7330017089844L451.281005859375 386.0669860839844L449.5090026855469 386.3179931640625L446.9670104980469 386.48699951171875L444.50799560546875 386.48699951171875L442.04998779296875 386.1499938964844L439.0849914550781 385.8999938964844L438.4809875488281 385.9830017089844L438.1470031738281 386.3179931640625L434.760986328125 391.99700927734375L434.50799560546875 392.9289855957031L434.50799560546875 393.8609924316406L435.9389953613281 399.37200927734375L436.114990234375 400.4830017089844L436.0220031738281 401.49200439453125L435.8559875488281 402.343994140625L435.2690124511719 403.1919860839844L434.6759948730469 403.781005859375L433.739990234375 404.2879943847656L433.1470031738281 404.4580078125L433.1470031738281 405.8999938964844L432.9809875488281 407.177001953125L432.5570068359375 408.4429931640625L431.8789978027344 409.5669860839844L431.5920104980469 409.6919860839844L431.30499267578125 409.6499938964844L429.68499755859375 408.739990234375L429.5220031738281 408.4830017089844L429.00799560546875 407.1629943847656L427.5639953613281 403.9429931640625L426.281005859375 400.9700012207031L425.0220031738281 398.177001953125L425.0220031738281 397.677001953125L426.8450012207031 393.385009765625L428.281005859375 390.2460021972656L429.96099853515625 387.3999938964844L431.18798828125 384.1109924316406L432.1860046386719 381.51300048828125L432.7720031738281 380.15899658203125L433.4809875488281 379.802001953125L434.54901123046875 379.3689880371094L438.71099853515625 380.41400146484375L442.10400390625 380.843994140625L445.9179992675781 381.010009765625L449.39300537109375 380.927001953125L452.781005859375 380.677001953125L454.9809875488281 380.2439880371094Z" stroke="#000000" outline-element="true" stroke-width="0.5" g2gstroke="#312783"/>
<path orgstroke="#000000" orgfill="none" transform="translate(-295.5923495625341, 69.5511410735374) translate(13.523832986521029, -13.523832986521171) translate(4.596977077266274, 15.104353253874535) translate(0.6567110110379417, -1.9701330331140525) translate(-14.792050684180822, -24.829513648446607) translate(185.48729538878888, 48.62288325725535) translate(724,-30) translate(-518.5915025634765, -83.33211865234375) translate(638.2568999355279, 71.4930618434276) translate(64.88523159790037, 2.6585086364746076) translate(-26.173913043478194, 17.04347826086945) translate(-4.012738853503151, 3.1210191082802226) translate(-104.77707006369394, -46.36942675159224)" fill="none" d="M428.8940124511719 403.9530029296875L427.614990234375 400.9830017089844L426.35198974609375 398.1919860839844L426.35198974609375 397.6919860839844L427.7929992675781 394.2909851074219L429.2309875488281 391.1549987792969L430.89801025390625 388.302001953125L432.135009765625 385.0249938964844L433.1340026855469 382.427001953125L433.7250061035156 381.0679931640625L434.4320068359375 380.7070007324219L435.489990234375 380.27801513671875L439.656005859375 381.3240051269531L443.04998779296875 381.7489929199219L446.8559875488281 381.9169921875L450.3380126953125 381.8320007324219L453.7279968261719 381.5790100097656L455.9330139160156 381.15399169921875" stroke="#000000" stroke-width="0.25" g2gstroke="#312783"/>
<path orgstroke="#000000" orgfill="none" transform="translate(-295.5923495625341, 69.5511410735374) translate(13.523832986521029, -13.523832986521171) translate(4.596977077266274, 15.104353253874535) translate(0.6567110110379417, -1.9701330331140525) translate(-14.792050684180822, -24.829513648446607) translate(185.48729538878888, 48.62288325725535) translate(724,-30) translate(-518.5915025634765, -83.33211865234375) translate(638.2568999355279, 71.4930618434276) translate(64.88523159790037, 2.6585086364746076) translate(-26.173913043478194, 17.04347826086945) translate(-4.012738853503151, 3.1210191082802226) translate(-104.77707006369394, -46.36942675159224)" fill="none" d="M431.30499267578125 409.6499938964844L430.3349914550781 407.177001953125L429.75 405.8659973144531" stroke="#000000" stroke-width="0.25" g2gstroke="#312783"/>
<path orgstroke="#000000" orgfill="none" transform="translate(-295.5923495625341, 69.5511410735374) translate(13.523832986521029, -13.523832986521171) translate(4.596977077266274, 15.104353253874535) translate(0.6567110110379417, -1.9701330331140525) translate(-14.792050684180822, -24.829513648446607) translate(185.48729538878888, 48.62288325725535) translate(724,-30) translate(-518.5915025634765, -83.33211865234375) translate(638.2568999355279, 71.4930618434276) translate(64.88523159790037, 2.6585086364746076) translate(-26.173913043478194, 17.04347826086945) translate(-4.012738853503151, 3.1210191082802226) translate(-104.77707006369394, -46.36942675159224)" fill="none" d="M433.1470031738281 404.4580078125L431.7950134277344 403.781005859375L430.8559875488281 403.0249938964844L430.1839904785156 402.177001953125L428.4809875488281 400.052001953125L427.89599609375 399.03399658203125" stroke="#000000" stroke-width="0.25" g2gstroke="#312783"/>
<path orgstroke="#000000" orgfill="none" transform="translate(-295.5923495625341, 69.5511410735374) translate(13.523832986521029, -13.523832986521171) translate(4.596977077266274, 15.104353253874535) translate(0.6567110110379417, -1.9701330331140525) translate(-14.792050684180822, -24.829513648446607) translate(185.48729538878888, 48.62288325725535) translate(724,-30) translate(-518.5915025634765, -83.33211865234375) translate(638.2568999355279, 71.4930618434276) translate(64.88523159790037, 2.6585086364746076) translate(-26.173913043478194, 17.04347826086945) translate(-4.012738853503151, 3.1210191082802226) translate(-104.77707006369394, -46.36942675159224)" fill="none" d="M427.51300048828125 400.7489929199219L427.89599609375 399.03399658203125L428.64801025390625 397.177001953125L429.6759948730469 395.135009765625" stroke="#000000" stroke-width="0.25" g2gstroke="#312783"/>
<path orgstroke="#000000" orgfill="none" transform="translate(-295.5923495625341, 69.5511410735374) translate(13.523832986521029, -13.523832986521171) translate(4.596977077266274, 15.104353253874535) translate(0.6567110110379417, -1.9701330331140525) translate(-14.792050684180822, -24.829513648446607) translate(185.48729538878888, 48.62288325725535) translate(724,-30) translate(-518.5915025634765, -83.33211865234375) translate(638.2568999355279, 71.4930618434276) translate(64.88523159790037, 2.6585086364746076) translate(-26.173913043478194, 17.04347826086945) translate(-4.012738853503151, 3.1210191082802226) translate(-104.77707006369394, -46.36942675159224)" fill="none" d="M433.614990234375 400.12298583984375L433.4809875488281 401.7449951171875L433.2309875488281 402.8450012207031L432.7690124511719 403.1080017089844L432.0639953613281 402.9049987792969L431.281005859375 401.468994140625L430.3529968261719 398.6090087890625L430.0979919433594 396.65899658203125L430.43798828125 395.385986328125L431.02301025390625 394.45599365234375L431.6260070800781 394.1159973144531L432.3869934082031 394.1159973144531L433.0639953613281 394.45599365234375L433.4809875488281 394.968994140625L433.822998046875 396.1510009765625L433.822998046875 397.510009765625L433.76300048828125 398.3269958496094" stroke="#000000" stroke-width="0.25" g2gstroke="#312783"/>
<path orgstroke="#000000" orgfill="none" transform="translate(-295.5923495625341, 69.5511410735374) translate(13.523832986521029, -13.523832986521171) translate(4.596977077266274, 15.104353253874535) translate(0.6567110110379417, -1.9701330331140525) translate(-14.792050684180822, -24.829513648446607) translate(185.48729538878888, 48.62288325725535) translate(724,-30) translate(-518.5915025634765, -83.33211865234375) translate(638.2568999355279, 71.4930618434276) translate(64.88523159790037, 2.6585086364746076) translate(-26.173913043478194, 17.04347826086945) translate(-4.012738853503151, 3.1210191082802226) translate(-104.77707006369394, -46.36942675159224)" fill="none" d="M430.89801025390625 388.302001953125L431.239990234375 390.5669860839844L432.9599914550781 391.635009765625L433.4679870605469 393.1080017089844" stroke="#000000" stroke-width="0.25" g2gstroke="#312783"/>
<path orgstroke="#000000" orgfill="none" transform="translate(-295.5923495625341, 69.5511410735374) translate(13.523832986521029, -13.523832986521171) translate(4.596977077266274, 15.104353253874535) translate(0.6567110110379417, -1.9701330331140525) translate(-14.792050684180822, -24.829513648446607) translate(185.48729538878888, 48.62288325725535) translate(724,-30) translate(-518.5915025634765, -83.33211865234375) translate(638.2568999355279, 71.4930618434276) translate(64.88523159790037, 2.6585086364746076) translate(-26.173913043478194, 17.04347826086945) translate(-4.012738853503151, 3.1210191082802226) translate(-104.77707006369394, -46.36942675159224)" fill="none" d="M432.9599914550781 391.635009765625L434.29400634765625 390.6919860839844" stroke="#000000" stroke-width="0.25" g2gstroke="#312783"/>
<path orgstroke="#000000" orgfill="none" transform="translate(-295.5923495625341, 69.5511410735374) translate(13.523832986521029, -13.523832986521171) translate(4.596977077266274, 15.104353253874535) translate(0.6567110110379417, -1.9701330331140525) translate(-14.792050684180822, -24.829513648446607) translate(185.48729538878888, 48.62288325725535) translate(724,-30) translate(-518.5915025634765, -83.33211865234375) translate(638.2568999355279, 71.4930618434276) translate(64.88523159790037, 2.6585086364746076) translate(-26.173913043478194, 17.04347826086945) translate(-4.012738853503151, 3.1210191082802226) translate(-104.77707006369394, -46.36942675159224)" fill="none" d="M433.0220031738281 383.1919860839844L433.5220031738281 385.6610107421875L435.7560119628906 386.7430114746094L438.33599853515625 386.135009765625" stroke="#000000" stroke-width="0.25" g2gstroke="#312783"/>
<path orgstroke="#000000" orgfill="none" transform="translate(-295.5923495625341, 69.5511410735374) translate(13.523832986521029, -13.523832986521171) translate(4.596977077266274, 15.104353253874535) translate(0.6567110110379417, -1.9701330331140525) translate(-14.792050684180822, -24.829513648446607) translate(185.48729538878888, 48.62288325725535) translate(724,-30) translate(-518.5915025634765, -83.33211865234375) translate(638.2568999355279, 71.4930618434276) translate(64.88523159790037, 2.6585086364746076) translate(-26.173913043478194, 17.04347826086945) translate(-4.012738853503151, 3.1210191082802226) translate(-104.77707006369394, -46.36942675159224)" fill="none" d="M442.3110046386719 381.656005859375L442.04998779296875 386.1499938964844" stroke="#000000" stroke-width="0.25" g2gstroke="#312783"/>
<path orgstroke="#000000" orgfill="none" transform="translate(-295.5923495625341, 69.5511410735374) translate(13.523832986521029, -13.523832986521171) translate(4.596977077266274, 15.104353253874535) translate(0.6567110110379417, -1.9701330331140525) translate(-14.792050684180822, -24.829513648446607) translate(185.48729538878888, 48.62288325725535) translate(724,-30) translate(-518.5915025634765, -83.33211865234375) translate(638.2568999355279, 71.4930618434276) translate(64.88523159790037, 2.6585086364746076) translate(-26.173913043478194, 17.04347826086945) translate(-4.012738853503151, 3.1210191082802226) translate(-104.77707006369394, -46.36942675159224)" fill="none" d="M446.218994140625 381.968994140625L445.9590148925781 386.468994140625" stroke="#000000" stroke-width="0.25" g2gstroke="#312783"/>
<path orgstroke="#000000" orgfill="none" transform="translate(-295.5923495625341, 69.5511410735374) translate(13.523832986521029, -13.523832986521171) translate(4.596977077266274, 15.104353253874535) translate(0.6567110110379417, -1.9701330331140525) translate(-14.792050684180822, -24.829513648446607) translate(185.48729538878888, 48.62288325725535) translate(724,-30) translate(-518.5915025634765, -83.33211865234375) translate(638.2568999355279, 71.4930618434276) translate(64.88523159790037, 2.6585086364746076) translate(-26.173913043478194, 17.04347826086945) translate(-4.012738853503151, 3.1210191082802226) translate(-104.77707006369394, -46.36942675159224)" fill="none" d="M449.7179870605469 381.968994140625L449.447998046875 386.468994140625" stroke="#000000" stroke-width="0.25" g2gstroke="#312783"/>
<path orgstroke="#000000" orgfill="none" transform="translate(-295.5923495625341, 69.5511410735374) translate(13.523832986521029, -13.523832986521171) translate(4.596977077266274, 15.104353253874535) translate(0.6567110110379417, -1.9701330331140525) translate(-14.792050684180822, -24.829513648446607) translate(185.48729538878888, 48.62288325725535) translate(724,-30) translate(-518.5915025634765, -83.33211865234375) translate(638.2568999355279, 71.4930618434276) translate(64.88523159790037, 2.6585086364746076) translate(-26.173913043478194, 17.04347826086945) translate(-4.012738853503151, 3.1210191082802226) translate(-104.77707006369394, -46.36942675159224)" fill="none" d="M440.678,383.469c-0.479,0.825-1.531,1.494-2.355,1.494   c-0.813,0-1.104-0.681-0.633-1.494c0.479-0.813,1.533-1.482,2.357-1.482C440.865,381.984,441.147,382.65,440.678,383.469z" stroke="#000000" stroke-width="0.25" g2gstroke="#312783"/>
<path orgstroke="#000000" orgfill="none" stroke-linecap="round" transform="translate(-295.5923495625341, 69.5511410735374) translate(13.523832986521029, -13.523832986521171) translate(4.596977077266274, 15.104353253874535) translate(0.6567110110379417, -1.9701330331140525) translate(-14.792050684180822, -24.829513648446607) translate(185.48729538878888, 48.62288325725535) translate(724,-30) translate(-518.5915025634765, -83.33211865234375) translate(638.2568999355279, 71.4930618434276) translate(64.88523159790037, 2.6585086364746076) translate(-26.173913043478194, 17.04347826086945) translate(-4.012738853503151, 3.1210191082802226) translate(-104.77707006369394, -46.36942675159224)" fill="none" d="M426.35198974609375 397.6919860839844L425.239990234375 397.15399169921875" stroke="#000000" stroke-width="0.25" g2gstroke="#312783"/>
<path orgstroke="#000000" orgfill="none" stroke-linecap="round" transform="translate(-295.5923495625341, 69.5511410735374) translate(13.523832986521029, -13.523832986521171) translate(4.596977077266274, 15.104353253874535) translate(0.6567110110379417, -1.9701330331140525) translate(-14.792050684180822, -24.829513648446607) translate(185.48729538878888, 48.62288325725535) translate(724,-30) translate(-518.5915025634765, -83.33211865234375) translate(638.2568999355279, 71.4930618434276) translate(64.88523159790037, 2.6585086364746076) translate(-26.173913043478194, 17.04347826086945) translate(-4.012738853503151, 3.1210191082802226) translate(-104.77707006369394, -46.36942675159224)" fill="none" d="M430.89801025390625 388.4419860839844L429.79901123046875 387.90899658203125" stroke="#000000" stroke-width="0.25" g2gstroke="#312783"/>
<path orgstroke="#000000" orgfill="none" stroke-linecap="round" transform="translate(-295.5923495625341, 69.5511410735374) translate(13.523832986521029, -13.523832986521171) translate(4.596977077266274, 15.104353253874535) translate(0.6567110110379417, -1.9701330331140525) translate(-14.792050684180822, -24.829513648446607) translate(185.48729538878888, 48.62288325725535) translate(724,-30) translate(-518.5915025634765, -83.33211865234375) translate(638.2568999355279, 71.4930618434276) translate(64.88523159790037, 2.6585086364746076) translate(-26.173913043478194, 17.04347826086945) translate(-4.012738853503151, 3.1210191082802226) translate(-104.77707006369394, -46.36942675159224)" fill="none" d="M433.697998046875 380.8169860839844L432.59600830078125 380.27801513671875" stroke="#000000" stroke-width="0.25" g2gstroke="#312783"/>
<path orgstroke="#000000" orgfill="none" stroke-linecap="round" transform="translate(-295.5923495625341, 69.5511410735374) translate(13.523832986521029, -13.523832986521171) translate(4.596977077266274, 15.104353253874535) translate(0.6567110110379417, -1.9701330331140525) translate(-14.792050684180822, -24.829513648446607) translate(185.48729538878888, 48.62288325725535) translate(724,-30) translate(-518.5915025634765, -83.33211865234375) translate(638.2568999355279, 71.4930618434276) translate(64.88523159790037, 2.6585086364746076) translate(-26.173913043478194, 17.04347826086945) translate(-4.012738853503151, 3.1210191082802226) translate(-104.77707006369394, -46.36942675159224)" fill="none" d="M435.2720031738281 380.1610107421875L434.1700134277344 379.635009765625" stroke="#000000" stroke-width="0.25" g2gstroke="#312783"/>
</g>
</g>
</g>
</g>
</g></svg>