<svg xmlns="http://www.w3.org/2000/svg" xmlns:xlink="http://www.w3.org/1999/xlink" xmlns:x="http://ns.adobe.com/Extensibility/1.0/" xmlns:graph="http://ns.adobe.com/Graphs/1.0/" xmlns:i="http://ns.adobe.com/AdobeIllustrator/10.0/" xmlns:etg="http://www.eurotaxglass.com/etg/evd/" etg:dataTimestamp="1541512339925" contentScriptType="text/ecmascript" zoomAndPan="magnify" contentStyleType="text/css" id="Layer_1" enable-background="new 0 0 1841.891 1595.279" version="1.1" xml:space="preserve" width="1841.891px" preserveAspectRatio="xMidYMid meet" viewBox="0 0 1841.891 1595.279" height="1595.279px" x="0px" y="0px"><g xmlns="http://www.w3.org/2000/svg" objecttype="PS" tooltip="#UNDEFINED" id="55">
<g onmouseover="notifyOwner(AGV_OBJECT_MOUSEOVER, '55(PS)')" transform="translate(-9.433746356535266E-6, 3.356933575560106E-7) translate(-35.71980609130861, -13.200809143066408) translate(44.708733184814434, 94.79042849731445) matrix(0.6117410612267968 0 0 0.6117410612267968 0.2921243287958965 0.477310974878083) translate(-92,-34) " onclick="clickZoom(evt); notifyOwner(AGV_OBJECT_MOUSECLICK, '55(PS)')" onmouseout="notifyOwner(AGV_OBJECT_MOUSEOUT, '55(PS)')" tooltip="#UNDEFINED" id="55-Graphic" objecttype="GRAPHIC">
<g zvalue="54">
<g zvalue="18">
<g>
<path orgstroke="#000000" orgfill="#ffffff" transform="translate(1.6666666666666288, 45.0) translate(5.0, 141.66666666666663) translate(0.0, -2.331987004449843) translate(3.4979805066747645, 1.1659935022249215) translate(0.0, 8.161954515574394) translate(-560.842874570186, 9.327948017799315) translate(138.75322676476537, -174.89902533373788) translate(-214.5428044093851, 58.29967511124602) translate(-127.75934877066777, -108.29125752942315) translate(-18.679611650485413, -6.825242718446589) translate(708,260) " fill="#ffffff" g2gfill="#ECC35D" d="M397.042,236.406   c2.354-0.714,5.096-0.534,8.009,0.693c9.549,4.021,17.454,17.749,17.454,30.563c0,7.211-2.5,12.451-6.396,14.841l-4.146,1.815   c-2.646,0.863-5.729,0.612-9.003-0.962c-9.323-4.458-16.729-17.957-16.729-30.231c0-7.67,2.896-13.212,7.331-15.333   L397.042,236.406z" stroke="#000000" outline-element="true" stroke-width="0.5" g2gstroke="#312783" stroke-miterlimit="10"/>
<path orgstroke="#000000" orgfill="none" stroke-linecap="round" transform="translate(1.6666666666666288, 45.0) translate(5.0, 141.66666666666663) translate(0.0, -2.331987004449843) translate(3.4979805066747645, 1.1659935022249215) translate(0.0, 8.161954515574394) translate(-560.842874570186, 9.327948017799315) translate(138.75322676476537, -174.89902533373788) translate(-214.5428044093851, 58.29967511124602) translate(-127.75934877066777, -108.29125752942315) translate(-18.679611650485413, -6.825242718446589) translate(708,260) " fill="none" d="M408.872,263.094   c0,3.767-2.648,5.708-5.854,4.354c-3.129-1.313-5.604-5.28-5.604-8.885c0-3.605,2.479-5.615,5.604-4.46   C406.22,255.295,408.872,259.326,408.872,263.094z" stroke="#000000" stroke-width="0.25" g2gstroke="#312783"/>
<path orgstroke="#000000" orgfill="none" stroke-linecap="round" transform="translate(1.6666666666666288, 45.0) translate(5.0, 141.66666666666663) translate(0.0, -2.331987004449843) translate(3.4979805066747645, 1.1659935022249215) translate(0.0, 8.161954515574394) translate(-560.842874570186, 9.327948017799315) translate(138.75322676476537, -174.89902533373788) translate(-214.5428044093851, 58.29967511124602) translate(-127.75934877066777, -108.29125752942315) translate(-18.679611650485413, -6.825242718446589) translate(708,260) " fill="none" d="M407.495,262.552   c0,2.854-2.021,4.34-4.454,3.313c-2.367-0.993-4.27-4.008-4.27-6.75c0-2.741,1.894-4.271,4.27-3.392   C405.48,256.622,407.495,259.688,407.495,262.552z" stroke="#000000" stroke-width="0.25" g2gstroke="#312783"/>
<path orgstroke="#000000" orgfill="none" stroke-linecap="round" transform="translate(1.6666666666666288, 45.0) translate(5.0, 141.66666666666663) translate(0.0, -2.331987004449843) translate(3.4979805066747645, 1.1659935022249215) translate(0.0, 8.161954515574394) translate(-560.842874570186, 9.327948017799315) translate(138.75322676476537, -174.89902533373788) translate(-214.5428044093851, 58.29967511124602) translate(-127.75934877066777, -108.29125752942315) translate(-18.679611650485413, -6.825242718446589) translate(708,260) " fill="none" d="M403.905,257.986   c1.197,1.126,2.038,2.906,2.038,4.591c0,2.321-1.591,3.524-3.504,2.695c-1.871-0.813-3.346-3.253-3.346-5.479   c0-2.226,1.475-3.458,3.346-2.75c0.127,0.045,0.251,0.104,0.377,0.17" stroke="#000000" stroke-width="0.25" g2gstroke="#312783"/>
<path orgstroke="#000000" orgfill="none" stroke-linecap="round" transform="translate(1.6666666666666288, 45.0) translate(5.0, 141.66666666666663) translate(0.0, -2.331987004449843) translate(3.4979805066747645, 1.1659935022249215) translate(0.0, 8.161954515574394) translate(-560.842874570186, 9.327948017799315) translate(138.75322676476537, -174.89902533373788) translate(-214.5428044093851, 58.29967511124602) translate(-127.75934877066777, -108.29125752942315) translate(-18.679611650485413, -6.825242718446589) translate(708,260) " fill="none" d="M418.159,267.825   c0,11.652-6.952,17.652-15.354,13.491c-8.188-4.056-14.688-16.326-14.688-27.48c0-11.146,6.503-17.354,14.688-13.799   C411.206,243.699,418.159,256.174,418.159,267.825z" stroke="#000000" stroke-width="0.25" g2gstroke="#312783"/>
<path orgstroke="#000000" orgfill="none" stroke-linecap="round" transform="translate(1.6666666666666288, 45.0) translate(5.0, 141.66666666666663) translate(0.0, -2.331987004449843) translate(3.4979805066747645, 1.1659935022249215) translate(0.0, 8.161954515574394) translate(-560.842874570186, 9.327948017799315) translate(138.75322676476537, -174.89902533373788) translate(-214.5428044093851, 58.29967511124602) translate(-127.75934877066777, -108.29125752942315) translate(-18.679611650485413, -6.825242718446589) translate(708,260) " fill="none" d="M414.302,248.364   c3.727,5.824,6.108,13.129,6.108,20.163c0,6.304-1.913,11.104-4.995,13.809" stroke="#000000" stroke-width="0.25" g2gstroke="#312783"/>
<path orgstroke="#000000" orgfill="none" stroke-linecap="round" transform="translate(1.6666666666666288, 45.0) translate(5.0, 141.66666666666663) translate(0.0, -2.331987004449843) translate(3.4979805066747645, 1.1659935022249215) translate(0.0, 8.161954515574394) translate(-560.842874570186, 9.327948017799315) translate(138.75322676476537, -174.89902533373788) translate(-214.5428044093851, 58.29967511124602) translate(-127.75934877066777, -108.29125752942315) translate(-18.679611650485413, -6.825242718446589) translate(708,260) " fill="none" d="M396.208,236.979   c2.054-0.327,4.336-0.034,6.745,0.979c3.69,1.563,7.146,4.579,10,8.438" stroke="#000000" stroke-width="0.25" g2gstroke="#312783"/>
<path orgstroke="#000000" orgfill="none" stroke-linecap="round" transform="translate(1.6666666666666288, 45.0) translate(5.0, 141.66666666666663) translate(0.0, -2.331987004449843) translate(3.4979805066747645, 1.1659935022249215) translate(0.0, 8.161954515574394) translate(-560.842874570186, 9.327948017799315) translate(138.75322676476537, -174.89902533373788) translate(-214.5428044093851, 58.29967511124602) translate(-127.75934877066777, -108.29125752942315) translate(-18.679611650485413, -6.825242718446589) translate(708,260) " fill="none" d="M410.955,261.473   c0.462,2.455-1.081,4.063-2.492,4.9" stroke="#000000" stroke-width="0.25" g2gstroke="#312783"/>
<path orgstroke="#000000" orgfill="none" stroke-linecap="round" transform="translate(1.6666666666666288, 45.0) translate(5.0, 141.66666666666663) translate(0.0, -2.331987004449843) translate(3.4979805066747645, 1.1659935022249215) translate(0.0, 8.161954515574394) translate(-560.842874570186, 9.327948017799315) translate(138.75322676476537, -174.89902533373788) translate(-214.5428044093851, 58.29967511124602) translate(-127.75934877066777, -108.29125752942315) translate(-18.679611650485413, -6.825242718446589) translate(708,260) " fill="none" d="M408.837,255.984   c0.866,1.164,1.46,2.507,1.766,3.849" stroke="#000000" stroke-width="0.25" g2gstroke="#312783"/>
<path orgstroke="#000000" orgfill="none" stroke-linecap="round" transform="translate(1.6666666666666288, 45.0) translate(5.0, 141.66666666666663) translate(0.0, -2.331987004449843) translate(3.4979805066747645, 1.1659935022249215) translate(0.0, 8.161954515574394) translate(-560.842874570186, 9.327948017799315) translate(138.75322676476537, -174.89902533373788) translate(-214.5428044093851, 58.29967511124602) translate(-127.75934877066777, -108.29125752942315) translate(-18.679611650485413, -6.825242718446589) translate(708,260) " fill="none" d="M404.808,252.788   c1.085,0.499,0.911,0.547,1.631,0.991" stroke="#000000" stroke-width="0.25" g2gstroke="#312783"/>
<path orgstroke="#000000" orgfill="none" stroke-linecap="round" transform="translate(1.6666666666666288, 45.0) translate(5.0, 141.66666666666663) translate(0.0, -2.331987004449843) translate(3.4979805066747645, 1.1659935022249215) translate(0.0, 8.161954515574394) translate(-560.842874570186, 9.327948017799315) translate(138.75322676476537, -174.89902533373788) translate(-214.5428044093851, 58.29967511124602) translate(-127.75934877066777, -108.29125752942315) translate(-18.679611650485413, -6.825242718446589) translate(708,260) " fill="none" d="M390.189,255.071   c-0.063-0.818-0.104-1.635-0.104-2.442c0-3.252,0.552-6.079,1.537-8.373" stroke="#000000" stroke-width="0.25" g2gstroke="#312783"/>
<path orgstroke="#000000" orgfill="none" stroke-linecap="round" transform="translate(1.6666666666666288, 45.0) translate(5.0, 141.66666666666663) translate(0.0, -2.331987004449843) translate(3.4979805066747645, 1.1659935022249215) translate(0.0, 8.161954515574394) translate(-560.842874570186, 9.327948017799315) translate(138.75322676476537, -174.89902533373788) translate(-214.5428044093851, 58.29967511124602) translate(-127.75934877066777, -108.29125752942315) translate(-18.679611650485413, -6.825242718446589) translate(708,260) " fill="none" d="M394.826,269.87   c-1.855-3.258-3.268-6.95-4.062-10.718" stroke="#000000" stroke-width="0.25" g2gstroke="#312783"/>
<path orgstroke="#000000" orgfill="none" stroke-linecap="round" transform="translate(1.6666666666666288, 45.0) translate(5.0, 141.66666666666663) translate(0.0, -2.331987004449843) translate(3.4979805066747645, 1.1659935022249215) translate(0.0, 8.161954515574394) translate(-560.842874570186, 9.327948017799315) translate(138.75322676476537, -174.89902533373788) translate(-214.5428044093851, 58.29967511124602) translate(-127.75934877066777, -108.29125752942315) translate(-18.679611650485413, -6.825242718446589) translate(708,260) " fill="none" d="M403.824,279.593   c-2.37-1.387-4.597-3.459-6.521-5.961" stroke="#000000" stroke-width="0.25" g2gstroke="#312783"/>
<path orgstroke="#000000" orgfill="none" stroke-linecap="round" transform="translate(1.6666666666666288, 45.0) translate(5.0, 141.66666666666663) translate(0.0, -2.331987004449843) translate(3.4979805066747645, 1.1659935022249215) translate(0.0, 8.161954515574394) translate(-560.842874570186, 9.327948017799315) translate(138.75322676476537, -174.89902533373788) translate(-214.5428044093851, 58.29967511124602) translate(-127.75934877066777, -108.29125752942315) translate(-18.679611650485413, -6.825242718446589) translate(708,260) " fill="none" d="M413.197,280.862   c-1.257,0.264-4.027,0.629-5.439,0.31" stroke="#000000" stroke-width="0.25" g2gstroke="#312783"/>
<path orgstroke="#000000" orgfill="none" stroke-linecap="round" transform="translate(1.6666666666666288, 45.0) translate(5.0, 141.66666666666663) translate(0.0, -2.331987004449843) translate(3.4979805066747645, 1.1659935022249215) translate(0.0, 8.161954515574394) translate(-560.842874570186, 9.327948017799315) translate(138.75322676476537, -174.89902533373788) translate(-214.5428044093851, 58.29967511124602) translate(-127.75934877066777, -108.29125752942315) translate(-18.679611650485413, -6.825242718446589) translate(708,260) " fill="none" d="M410.88299560546875 246.81900024414062L405.4200134277344 255.3979949951172" stroke="#000000" stroke-width="0.25" g2gstroke="#312783"/>
<path orgstroke="#000000" orgfill="none" stroke-linecap="round" transform="translate(1.6666666666666288, 45.0) translate(5.0, 141.66666666666663) translate(0.0, -2.331987004449843) translate(3.4979805066747645, 1.1659935022249215) translate(0.0, 8.161954515574394) translate(-560.842874570186, 9.327948017799315) translate(138.75322676476537, -174.89902533373788) translate(-214.5428044093851, 58.29967511124602) translate(-127.75934877066777, -108.29125752942315) translate(-18.679611650485413, -6.825242718446589) translate(708,260) " fill="none" d="M412.5260009765625 249.38600158691406L408.5050048828125 255.69200134277344" stroke="#000000" stroke-width="0.25" g2gstroke="#312783"/>
<path orgstroke="#000000" orgfill="none" stroke-linecap="round" transform="translate(1.6666666666666288, 45.0) translate(5.0, 141.66666666666663) translate(0.0, -2.331987004449843) translate(3.4979805066747645, 1.1659935022249215) translate(0.0, 8.161954515574394) translate(-560.842874570186, 9.327948017799315) translate(138.75322676476537, -174.89902533373788) translate(-214.5428044093851, 58.29967511124602) translate(-127.75934877066777, -108.29125752942315) translate(-18.679611650485413, -6.825242718446589) translate(708,260) " fill="none" d="M405.4200134277344 255.3979949951172L408.5050048828125 255.69200134277344" stroke="#000000" stroke-width="0.25" g2gstroke="#312783"/>
<path orgstroke="#000000" orgfill="none" stroke-linecap="round" transform="translate(1.6666666666666288, 45.0) translate(5.0, 141.66666666666663) translate(0.0, -2.331987004449843) translate(3.4979805066747645, 1.1659935022249215) translate(0.0, 8.161954515574394) translate(-560.842874570186, 9.327948017799315) translate(138.75322676476537, -174.89902533373788) translate(-214.5428044093851, 58.29967511124602) translate(-127.75934877066777, -108.29125752942315) translate(-18.679611650485413, -6.825242718446589) translate(708,260) " fill="none" d="M399.3009948730469 264.30999755859375L393.6340026855469 272.3739929199219" stroke="#000000" stroke-width="0.25" g2gstroke="#312783"/>
<path orgstroke="#000000" orgfill="none" stroke-linecap="round" transform="translate(1.6666666666666288, 45.0) translate(5.0, 141.66666666666663) translate(0.0, -2.331987004449843) translate(3.4979805066747645, 1.1659935022249215) translate(0.0, 8.161954515574394) translate(-560.842874570186, 9.327948017799315) translate(138.75322676476537, -174.89902533373788) translate(-214.5428044093851, 58.29967511124602) translate(-127.75934877066777, -108.29125752942315) translate(-18.679611650485413, -6.825242718446589) translate(708,260) " fill="none" d="M401.8030090332031 266.7950134277344L397.2229919433594 273.3190002441406" stroke="#000000" stroke-width="0.25" g2gstroke="#312783"/>
<path orgstroke="#000000" orgfill="none" stroke-linecap="round" transform="translate(1.6666666666666288, 45.0) translate(5.0, 141.66666666666663) translate(0.0, -2.331987004449843) translate(3.4979805066747645, 1.1659935022249215) translate(0.0, 8.161954515574394) translate(-560.842874570186, 9.327948017799315) translate(138.75322676476537, -174.89902533373788) translate(-214.5428044093851, 58.29967511124602) translate(-127.75934877066777, -108.29125752942315) translate(-18.679611650485413, -6.825242718446589) translate(708,260) " fill="none" d="M403.9580078125 267.8840026855469L403.9580078125 281.4209899902344" stroke="#000000" stroke-width="0.25" g2gstroke="#312783"/>
<path orgstroke="#000000" orgfill="none" stroke-linecap="round" transform="translate(1.6666666666666288, 45.0) translate(5.0, 141.66666666666663) translate(0.0, -2.331987004449843) translate(3.4979805066747645, 1.1659935022249215) translate(0.0, 8.161954515574394) translate(-560.842874570186, 9.327948017799315) translate(138.75322676476537, -174.89902533373788) translate(-214.5428044093851, 58.29967511124602) translate(-127.75934877066777, -108.29125752942315) translate(-18.679611650485413, -6.825242718446589) translate(708,260) " fill="none" d="M397.5329895019531 259.97198486328125L390.7749938964844 258.82000732421875" stroke="#000000" stroke-width="0.25" g2gstroke="#312783"/>
<path orgstroke="#000000" orgfill="none" stroke-linecap="round" transform="translate(1.6666666666666288, 45.0) translate(5.0, 141.66666666666663) translate(0.0, -2.331987004449843) translate(3.4979805066747645, 1.1659935022249215) translate(0.0, 8.161954515574394) translate(-560.842874570186, 9.327948017799315) translate(138.75322676476537, -174.89902533373788) translate(-214.5428044093851, 58.29967511124602) translate(-127.75934877066777, -108.29125752942315) translate(-18.679611650485413, -6.825242718446589) translate(708,260) " fill="none" d="M411.1780090332031 261.53900146484375L408.7799987792969 260.83599853515625" stroke="#000000" stroke-width="0.25" g2gstroke="#312783"/>
<path orgstroke="#000000" orgfill="none" stroke-linecap="round" transform="translate(1.6666666666666288, 45.0) translate(5.0, 141.66666666666663) translate(0.0, -2.331987004449843) translate(3.4979805066747645, 1.1659935022249215) translate(0.0, 8.161954515574394) translate(-560.842874570186, 9.327948017799315) translate(138.75322676476537, -174.89902533373788) translate(-214.5428044093851, 58.29967511124602) translate(-127.75934877066777, -108.29125752942315) translate(-18.679611650485413, -6.825242718446589) translate(708,260) " fill="none" d="M417.843994140625 263.4410095214844L411.1780090332031 261.53900146484375" stroke="#000000" stroke-width="0.25" g2gstroke="#312783"/>
<path orgstroke="#000000" orgfill="none" stroke-linecap="round" transform="translate(1.6666666666666288, 45.0) translate(5.0, 141.66666666666663) translate(0.0, -2.331987004449843) translate(3.4979805066747645, 1.1659935022249215) translate(0.0, 8.161954515574394) translate(-560.842874570186, 9.327948017799315) translate(138.75322676476537, -174.89902533373788) translate(-214.5428044093851, 58.29967511124602) translate(-127.75934877066777, -108.29125752942315) translate(-18.679611650485413, -6.825242718446589) translate(708,260) " fill="none" d="M407.3429870605469 267.04400634765625L414.5710144042969 279.5669860839844" stroke="#000000" stroke-width="0.25" g2gstroke="#312783"/>
<path orgstroke="#000000" orgfill="none" stroke-linecap="round" transform="translate(1.6666666666666288, 45.0) translate(5.0, 141.66666666666663) translate(0.0, -2.331987004449843) translate(3.4979805066747645, 1.1659935022249215) translate(0.0, 8.161954515574394) translate(-560.842874570186, 9.327948017799315) translate(138.75322676476537, -174.89902533373788) translate(-214.5428044093851, 58.29967511124602) translate(-127.75934877066777, -108.29125752942315) translate(-18.679611650485413, -6.825242718446589) translate(708,260) " fill="none" d="M393.8009948730469 240.3350067138672L400.8179931640625 252.86900329589844" stroke="#000000" stroke-width="0.25" g2gstroke="#312783"/>
<path orgstroke="#000000" orgfill="none" stroke-linecap="round" transform="translate(1.6666666666666288, 45.0) translate(5.0, 141.66666666666663) translate(0.0, -2.331987004449843) translate(3.4979805066747645, 1.1659935022249215) translate(0.0, 8.161954515574394) translate(-560.842874570186, 9.327948017799315) translate(138.75322676476537, -174.89902533373788) translate(-214.5428044093851, 58.29967511124602) translate(-127.75934877066777, -108.29125752942315) translate(-18.679611650485413, -6.825242718446589) translate(708,260) " fill="none" d="M391.218994140625 242.75399780273438L398.4100036621094 255.21299743652344" stroke="#000000" stroke-width="0.25" g2gstroke="#312783"/>
<path orgstroke="#000000" orgfill="none" stroke-linecap="round" transform="translate(1.6666666666666288, 45.0) translate(5.0, 141.66666666666663) translate(0.0, -2.331987004449843) translate(3.4979805066747645, 1.1659935022249215) translate(0.0, 8.161954515574394) translate(-560.842874570186, 9.327948017799315) translate(138.75322676476537, -174.89902533373788) translate(-214.5428044093851, 58.29967511124602) translate(-127.75934877066777, -108.29125752942315) translate(-18.679611650485413, -6.825242718446589) translate(708,260) " fill="none" d="M406.47900390625 267.8840026855469L407.5870056152344 281.10699462890625" stroke="#000000" stroke-width="0.25" g2gstroke="#312783"/>
<path orgstroke="#000000" orgfill="none" stroke-linecap="round" transform="translate(1.6666666666666288, 45.0) translate(5.0, 141.66666666666663) translate(0.0, -2.331987004449843) translate(3.4979805066747645, 1.1659935022249215) translate(0.0, 8.161954515574394) translate(-560.842874570186, 9.327948017799315) translate(138.75322676476537, -174.89902533373788) translate(-214.5428044093851, 58.29967511124602) translate(-127.75934877066777, -108.29125752942315) translate(-18.679611650485413, -6.825242718446589) translate(708,260) " fill="none" d="M409.22601318359375 265.8940124511719L416.5050048828125 276.489990234375" stroke="#000000" stroke-width="0.25" g2gstroke="#312783"/>
<path orgstroke="#000000" orgfill="none" stroke-linecap="round" transform="translate(1.6666666666666288, 45.0) translate(5.0, 141.66666666666663) translate(0.0, -2.331987004449843) translate(3.4979805066747645, 1.1659935022249215) translate(0.0, 8.161954515574394) translate(-560.842874570186, 9.327948017799315) translate(138.75322676476537, -174.89902533373788) translate(-214.5428044093851, 58.29967511124602) translate(-127.75934877066777, -108.29125752942315) translate(-18.679611650485413, -6.825242718446589) translate(708,260) " fill="none" d="M410.75299072265625 259.97198486328125L417.2879943847656 260.4639892578125" stroke="#000000" stroke-width="0.25" g2gstroke="#312783"/>
<path orgstroke="#000000" orgfill="none" stroke-linecap="round" transform="translate(1.6666666666666288, 45.0) translate(5.0, 141.66666666666663) translate(0.0, -2.331987004449843) translate(3.4979805066747645, 1.1659935022249215) translate(0.0, 8.161954515574394) translate(-560.842874570186, 9.327948017799315) translate(138.75322676476537, -174.89902533373788) translate(-214.5428044093851, 58.29967511124602) translate(-127.75934877066777, -108.29125752942315) translate(-18.679611650485413, -6.825242718446589) translate(708,260) " fill="none" d="M388.47100830078125 254.822998046875L397.27301025390625 257.5350036621094" stroke="#000000" stroke-width="0.25" g2gstroke="#312783"/>
<path orgstroke="#000000" orgfill="none" stroke-linecap="round" transform="translate(1.6666666666666288, 45.0) translate(5.0, 141.66666666666663) translate(0.0, -2.331987004449843) translate(3.4979805066747645, 1.1659935022249215) translate(0.0, 8.161954515574394) translate(-560.842874570186, 9.327948017799315) translate(138.75322676476537, -174.89902533373788) translate(-214.5428044093851, 58.29967511124602) translate(-127.75934877066777, -108.29125752942315) translate(-18.679611650485413, -6.825242718446589) translate(708,260) " fill="none" d="M410.4949951171875 260.0299987792969L408.5050048828125 260.4540100097656" stroke="#000000" stroke-width="0.25" g2gstroke="#312783"/>
<path orgstroke="#000000" orgfill="none" stroke-linecap="round" transform="translate(1.6666666666666288, 45.0) translate(5.0, 141.66666666666663) translate(0.0, -2.331987004449843) translate(3.4979805066747645, 1.1659935022249215) translate(0.0, 8.161954515574394) translate(-560.842874570186, 9.327948017799315) translate(138.75322676476537, -174.89902533373788) translate(-214.5428044093851, 58.29967511124602) translate(-127.75934877066777, -108.29125752942315) translate(-18.679611650485413, -6.825242718446589) translate(708,260) " fill="none" d="M410.75299072265625 259.97198486328125L410.4949951171875 260.0299987792969" stroke="#000000" stroke-width="0.25" g2gstroke="#312783"/>
<path orgstroke="#000000" orgfill="none" stroke-linecap="round" transform="translate(1.6666666666666288, 45.0) translate(5.0, 141.66666666666663) translate(0.0, -2.331987004449843) translate(3.4979805066747645, 1.1659935022249215) translate(0.0, 8.161954515574394) translate(-560.842874570186, 9.327948017799315) translate(138.75322676476537, -174.89902533373788) translate(-214.5428044093851, 58.29967511124602) translate(-127.75934877066777, -108.29125752942315) translate(-18.679611650485413, -6.825242718446589) translate(708,260) " fill="none" d="M394.7149963378906 273.9880065917969L394.7149963378906 273.9880065917969" stroke="#000000" stroke-width="0.25" g2gstroke="#312783"/>
<path orgstroke="#000000" orgfill="none" stroke-linecap="round" transform="translate(1.6666666666666288, 45.0) translate(5.0, 141.66666666666663) translate(0.0, -2.331987004449843) translate(3.4979805066747645, 1.1659935022249215) translate(0.0, 8.161954515574394) translate(-560.842874570186, 9.327948017799315) translate(138.75322676476537, -174.89902533373788) translate(-214.5428044093851, 58.29967511124602) translate(-127.75934877066777, -108.29125752942315) translate(-18.679611650485413, -6.825242718446589) translate(708,260) " fill="none" d="M397.0610046386719 273.3070068359375L393.9209899902344 272.3739929199219" stroke="#000000" stroke-width="0.25" g2gstroke="#312783"/>
<path orgstroke="#000000" orgfill="none" stroke-linecap="round" transform="translate(1.6666666666666288, 45.0) translate(5.0, 141.66666666666663) translate(0.0, -2.331987004449843) translate(3.4979805066747645, 1.1659935022249215) translate(0.0, 8.161954515574394) translate(-560.842874570186, 9.327948017799315) translate(138.75322676476537, -174.89902533373788) translate(-214.5428044093851, 58.29967511124602) translate(-127.75934877066777, -108.29125752942315) translate(-18.679611650485413, -6.825242718446589) translate(708,260) " fill="none" d="M407.55999755859375 280.86199951171875L403.9580078125 281.4209899902344" stroke="#000000" stroke-width="0.25" g2gstroke="#312783"/>
<path orgstroke="#000000" orgfill="none" stroke-linecap="round" transform="translate(1.6666666666666288, 45.0) translate(5.0, 141.66666666666663) translate(0.0, -2.331987004449843) translate(3.4979805066747645, 1.1659935022249215) translate(0.0, 8.161954515574394) translate(-560.842874570186, 9.327948017799315) translate(138.75322676476537, -174.89902533373788) translate(-214.5428044093851, 58.29967511124602) translate(-127.75934877066777, -108.29125752942315) translate(-18.679611650485413, -6.825242718446589) translate(708,260) " fill="none" d="M390.7749938964844 258.82000732421875L388.47100830078125 254.822998046875" stroke="#000000" stroke-width="0.25" g2gstroke="#312783"/>
<path orgstroke="#000000" orgfill="none" stroke-linecap="round" transform="translate(1.6666666666666288, 45.0) translate(5.0, 141.66666666666663) translate(0.0, -2.331987004449843) translate(3.4979805066747645, 1.1659935022249215) translate(0.0, 8.161954515574394) translate(-560.842874570186, 9.327948017799315) translate(138.75322676476537, -174.89902533373788) translate(-214.5428044093851, 58.29967511124602) translate(-127.75934877066777, -108.29125752942315) translate(-18.679611650485413, -6.825242718446589) translate(708,260) " fill="none" d="M399.7349853515625 253.85299682617188L400.8179931640625 252.86900329589844L401.6289978027344 252.7830047607422" stroke="#000000" stroke-width="0.25" g2gstroke="#312783"/>
<path orgstroke="#000000" orgfill="none" stroke-linecap="round" transform="translate(1.6666666666666288, 45.0) translate(5.0, 141.66666666666663) translate(0.0, -2.331987004449843) translate(3.4979805066747645, 1.1659935022249215) translate(0.0, 8.161954515574394) translate(-560.842874570186, 9.327948017799315) translate(138.75322676476537, -174.89902533373788) translate(-214.5428044093851, 58.29967511124602) translate(-127.75934877066777, -108.29125752942315) translate(-18.679611650485413, -6.825242718446589) translate(708,260) " fill="none" d="M401.72698974609375 253.58999633789062L404.8240051269531 252.6320037841797" stroke="#000000" stroke-width="0.25" g2gstroke="#312783"/>
<path orgstroke="#000000" orgfill="none" stroke-linecap="round" transform="translate(1.6666666666666288, 45.0) translate(5.0, 141.66666666666663) translate(0.0, -2.331987004449843) translate(3.4979805066747645, 1.1659935022249215) translate(0.0, 8.161954515574394) translate(-560.842874570186, 9.327948017799315) translate(138.75322676476537, -174.89902533373788) translate(-214.5428044093851, 58.29967511124602) translate(-127.75934877066777, -108.29125752942315) translate(-18.679611650485413, -6.825242718446589) translate(708,260) " fill="none" d="M401.72698974609375 253.58999633789062L402.2449951171875 239.80799865722656" stroke="#000000" stroke-width="0.25" g2gstroke="#312783"/>
<path orgstroke="#000000" orgfill="none" stroke-linecap="round" transform="translate(1.6666666666666288, 45.0) translate(5.0, 141.66666666666663) translate(0.0, -2.331987004449843) translate(3.4979805066747645, 1.1659935022249215) translate(0.0, 8.161954515574394) translate(-560.842874570186, 9.327948017799315) translate(138.75322676476537, -174.89902533373788) translate(-214.5428044093851, 58.29967511124602) translate(-127.75934877066777, -108.29125752942315) translate(-18.679611650485413, -6.825242718446589) translate(708,260) " fill="none" d="M404.8080139160156 252.78799438476562L405.625 241.63099670410156" stroke="#000000" stroke-width="0.25" g2gstroke="#312783"/>
<path orgstroke="#000000" orgfill="none" stroke-linecap="round" transform="translate(1.6666666666666288, 45.0) translate(5.0, 141.66666666666663) translate(0.0, -2.331987004449843) translate(3.4979805066747645, 1.1659935022249215) translate(0.0, 8.161954515574394) translate(-560.842874570186, 9.327948017799315) translate(138.75322676476537, -174.89902533373788) translate(-214.5428044093851, 58.29967511124602) translate(-127.75934877066777, -108.29125752942315) translate(-18.679611650485413, -6.825242718446589) translate(708,260) " fill="none" d="M405.2869873046875 252.69900512695312L406.2850036621094 252.28900146484375L406.625 252.218994140625L407.3810119628906 252.15199279785156" stroke="#000000" stroke-width="0.25" g2gstroke="#312783"/>
<path orgstroke="#000000" orgfill="none" stroke-linecap="round" transform="translate(1.6666666666666288, 45.0) translate(5.0, 141.66666666666663) translate(0.0, -2.331987004449843) translate(3.4979805066747645, 1.1659935022249215) translate(0.0, 8.161954515574394) translate(-560.842874570186, 9.327948017799315) translate(138.75322676476537, -174.89902533373788) translate(-214.5428044093851, 58.29967511124602) translate(-127.75934877066777, -108.29125752942315) translate(-18.679611650485413, -6.825242718446589) translate(708,260) " fill="none" d="M410.2569885253906 253.45199584960938L410.87298583984375 253.93099975585938L411.489013671875 254.8560028076172L411.99700927734375 255.98599243164062L412.5459899902344 257.5270080566406L412.7900085449219 258.7250061035156L412.7510070800781 259.614990234375L412.6830139160156 260.0249938964844" stroke="#000000" stroke-width="0.25" g2gstroke="#312783"/>
<path orgstroke="#000000" orgfill="none" stroke-linecap="round" transform="translate(1.6666666666666288, 45.0) translate(5.0, 141.66666666666663) translate(0.0, -2.331987004449843) translate(3.4979805066747645, 1.1659935022249215) translate(0.0, 8.161954515574394) translate(-560.842874570186, 9.327948017799315) translate(138.75322676476537, -174.89902533373788) translate(-214.5428044093851, 58.29967511124602) translate(-127.75934877066777, -108.29125752942315) translate(-18.679611650485413, -6.825242718446589) translate(708,260) " fill="none" d="M412.3789978027344 262.0469970703125L412.0669860839844 262.7300109863281L411.69500732421875 263.2080078125L411.28399658203125 263.51800537109375L410.94000244140625 263.6889953613281" stroke="#000000" stroke-width="0.25" g2gstroke="#312783"/>
</g>
</g>
</g>
</g>
</g></svg>