<svg xmlns="http://www.w3.org/2000/svg" xmlns:xlink="http://www.w3.org/1999/xlink" xmlns:x="http://ns.adobe.com/Extensibility/1.0/" xmlns:graph="http://ns.adobe.com/Graphs/1.0/" xmlns:i="http://ns.adobe.com/AdobeIllustrator/10.0/" xmlns:etg="http://www.eurotaxglass.com/etg/evd/" etg:dataTimestamp="1541512339925" contentScriptType="text/ecmascript" zoomAndPan="magnify" contentStyleType="text/css" id="Layer_1" enable-background="new 0 0 1841.891 1595.279" version="1.1" xml:space="preserve" width="1841.891px" preserveAspectRatio="xMidYMid meet" viewBox="0 0 1841.891 1595.279" height="1595.279px" x="0px" y="0px"><g xmlns="http://www.w3.org/2000/svg" objecttype="PS" tooltip="#UNDEFINED" id="64">
<g onmouseover="notifyOwner(AGV_OBJECT_MOUSEOVER, '64(PS)')" transform="translate(-9.433746356535266E-6, 3.356933575560106E-7) translate(-35.71980609130861, -13.200809143066408) translate(44.708733184814434, 94.79042849731445) matrix(0.6117410612267968 0 0 0.6117410612267968 0.2921243287958965 0.477310974878083) translate(-92,-34) " onclick="clickZoom(evt); notifyOwner(AGV_OBJECT_MOUSECLICK, '64(PS)')" onmouseout="notifyOwner(AGV_OBJECT_MOUSEOUT, '64(PS)')" tooltip="#UNDEFINED" id="64-Graphic" objecttype="GRAPHIC">
<g zvalue="65">
<g zvalue="42">
<g zvalue="21">
<g>
<path orgstroke="#000000" orgfill="#ffffff" transform="translate(1.6666666666666288, 45.0) translate(5.0, 141.66666666666663) translate(-3.0, -1.0) translate(-17.0, -1.0) translate(-65,-56) translate(-135.7864793701172, -15.95862927246094) translate(-23.810883895874042, -7.293701173693989E-6) translate(-637.1092790527343, 18.13041815948486) translate(2.253669326005138, -0.7512231086683414) translate(-21.78547015138338, -11.64395818436003) matrix(1.248462185165617 0 0 1.248462185165617 -347.9092960975816 -83.45627031342777) translate(19.531800825378014, -4.131727097676105) translate(4.507338652010276, -6.009784869347072) translate(3.380503989007593, -1.5024462173367965) translate(9.014677304020552, 6.009784869347072) translate(-8.82777467181677, 73.14441870934016) translate(21.25, 0.0) translate(670.0, -93.75) translate(12.5, 12.50006103515625)" fill="#ffffff" g2gfill="#ECC35D" d="M668.964,401.632   c-0.07,0.361-0.059,0.551,0.629,0.957c0.689,0.406,12.75,5.064,14.064,5.531c1.313,0.469,1.518,0.352,1.799,0.188l0.252-0.145   c0.184-0.105,0.328-0.162,0.418-0.424c1.939-5.713,4.717-11.334,8.047-16.523c0.35-0.557,1.094-1.746,1.607-2.551   c0.596-0.928,0.752-0.736,1.463-0.529c5.725,1.619,11.109,4.564,13.008,5.336c1.986,0.826,5.514,0.205,10.045,0.645   c4.527,0.441,9.404,2.348,12.945,3.535c1.076,0.352,2.037,0.271,2.873-0.105c0-0.023,1.826-1.018,1.826-1.018   c0.406-0.232,0.773-0.57,1.074-0.963c0.727-0.922,1.168-2.184,1.344-3.535c0.928-7.451-0.041-13.652-2.521-18.045v-0.023   c-0.221-0.365-0.428-0.738-0.654-1.074c-2.377-3.688-5.627-9.383-12.352-12.514v-0.016c-3.227-1.516-5.691-2.279-7.928-3.047   c-2.217-0.777-3.436-3.719-4.627-5.281h0.01c-0.191-0.273-0.533-0.574-1.1-0.947c-1.854-1.199-3.346-1.453-3.9-1.072l-0.93,0.758   c-0.219,0.211-0.168,0.605,0.227,1.125c0.775,1.021,1.244,2.238,1.482,2.982c0.191,0.561,0.109,0.703-0.533,1.275   c-1.854,1.49-4.035,3.164-4.674,3.639c-1.127,0.809-2.221,0.926-2.885,0.693c-0.695-0.225-2.584-0.855-3.389-1.125   c-0.275-0.1-0.443-0.074-0.605,0.027l0.01,0.012c0,0-0.947,0.816-0.965,0.816c-0.332,0.27-0.426,0.898-0.627,1.672   c-0.273,1.125-0.826,1.742-2.125,2.727c-6.041,4.625-12.939,13.586-16.289,18.838c-3.436,5.383-5.684,11.52-6.955,17.85   L668.964,401.632z" stroke="#000000" outline-element="true" stroke-width="0.5" g2gstroke="#312783" stroke-miterlimit="10"/>
<path stroke-linecap="round" orgstroke="#000000" orgfill="none" transform="translate(1.6666666666666288, 45.0) translate(5.0, 141.66666666666663) translate(-3.0, -1.0) translate(-17.0, -1.0) translate(-65,-56) translate(-135.7864793701172, -15.95862927246094) translate(-23.810883895874042, -7.293701173693989E-6) translate(-637.1092790527343, 18.13041815948486) translate(2.253669326005138, -0.7512231086683414) translate(-21.78547015138338, -11.64395818436003) matrix(1.248462185165617 0 0 1.248462185165617 -347.9092960975816 -83.45627031342777) translate(19.531800825378014, -4.131727097676105) translate(4.507338652010276, -6.009784869347072) translate(3.380503989007593, -1.5024462173367965) translate(9.014677304020552, 6.009784869347072) translate(-8.82777467181677, 73.14441870934016) translate(21.25, 0.0) translate(670.0, -93.75) translate(12.5, 12.50006103515625)" fill="none" d="M721.421,365.847   c0.305,0.293,0.176,0.643-0.299,0.777c-0.469,0.143-1.082,0.023-1.383-0.277c-0.316-0.277-0.174-0.633,0.301-0.773   C720.501,365.427,721.121,365.556,721.421,365.847z" stroke="#000000" stroke-width="0.25" g2gstroke="#312783" stroke-miterlimit="10"/>
<path stroke-linecap="round" orgstroke="#000000" orgfill="none" transform="translate(1.6666666666666288, 45.0) translate(5.0, 141.66666666666663) translate(-3.0, -1.0) translate(-17.0, -1.0) translate(-65,-56) translate(-135.7864793701172, -15.95862927246094) translate(-23.810883895874042, -7.293701173693989E-6) translate(-637.1092790527343, 18.13041815948486) translate(2.253669326005138, -0.7512231086683414) translate(-21.78547015138338, -11.64395818436003) matrix(1.248462185165617 0 0 1.248462185165617 -347.9092960975816 -83.45627031342777) translate(19.531800825378014, -4.131727097676105) translate(4.507338652010276, -6.009784869347072) translate(3.380503989007593, -1.5024462173367965) translate(9.014677304020552, 6.009784869347072) translate(-8.82777467181677, 73.14441870934016) translate(21.25, 0.0) translate(670.0, -93.75) translate(12.5, 12.50006103515625)" fill="none" d="M684.55,408.392   c2.035-6.27,5.074-12.436,8.838-17.99c0.434-0.629,1.309-1.896,1.742-2.527c6.08-8.891,13.967-16.152,22.1-19.443   c8.836-3.576,15.961-1.525,19.949,4.471" stroke="#000000" stroke-width="0.25" g2gstroke="#312783" stroke-miterlimit="10"/>
<path stroke-linecap="round" orgstroke="#000000" orgfill="none" transform="translate(1.6666666666666288, 45.0) translate(5.0, 141.66666666666663) translate(-3.0, -1.0) translate(-17.0, -1.0) translate(-65,-56) translate(-135.7864793701172, -15.95862927246094) translate(-23.810883895874042, -7.293701173693989E-6) translate(-637.1092790527343, 18.13041815948486) translate(2.253669326005138, -0.7512231086683414) translate(-21.78547015138338, -11.64395818436003) matrix(1.248462185165617 0 0 1.248462185165617 -347.9092960975816 -83.45627031342777) translate(19.531800825378014, -4.131727097676105) translate(4.507338652010276, -6.009784869347072) translate(3.380503989007593, -1.5024462173367965) translate(9.014677304020552, 6.009784869347072) translate(-8.82777467181677, 73.14441870934016) translate(21.25, 0.0) translate(670.0, -93.75) translate(12.5, 12.50006103515625)" fill="none" d="M731.169,364.845   c-4.055-2.592-9.506-2.928-15.84-0.357c-11.617,4.707-16.814,12.096-24.484,23.383c-3.914,5.742-7.273,12.572-9.512,19.375" stroke="#000000" stroke-width="0.25" g2gstroke="#312783" stroke-miterlimit="10"/>
<path stroke-linecap="round" orgstroke="#000000" orgfill="none" transform="translate(1.6666666666666288, 45.0) translate(5.0, 141.66666666666663) translate(-3.0, -1.0) translate(-17.0, -1.0) translate(-65,-56) translate(-135.7864793701172, -15.95862927246094) translate(-23.810883895874042, -7.293701173693989E-6) translate(-637.1092790527343, 18.13041815948486) translate(2.253669326005138, -0.7512231086683414) translate(-21.78547015138338, -11.64395818436003) matrix(1.248462185165617 0 0 1.248462185165617 -347.9092960975816 -83.45627031342777) translate(19.531800825378014, -4.131727097676105) translate(4.507338652010276, -6.009784869347072) translate(3.380503989007593, -1.5024462173367965) translate(9.014677304020552, 6.009784869347072) translate(-8.82777467181677, 73.14441870934016) translate(21.25, 0.0) translate(670.0, -93.75) translate(12.5, 12.50006103515625)" fill="none" d="M712.292,352.068   c0.377,0.576,0.148,1.025-0.354,1.582c-0.76,0.857-7.512,6.117-8.844,7.066c-1.318,0.945-2.598,1.088-3.4,0.801   c-0.811-0.277-3.025-0.988-3.973-1.328c-0.32-0.105-0.527-0.074-0.693,0.033" stroke="#000000" stroke-width="0.25" g2gstroke="#312783" stroke-miterlimit="10"/>
<path stroke-linecap="round" orgstroke="#000000" orgfill="none" transform="translate(1.6666666666666288, 45.0) translate(5.0, 141.66666666666663) translate(-3.0, -1.0) translate(-17.0, -1.0) translate(-65,-56) translate(-135.7864793701172, -15.95862927246094) translate(-23.810883895874042, -7.293701173693989E-6) translate(-637.1092790527343, 18.13041815948486) translate(2.253669326005138, -0.7512231086683414) translate(-21.78547015138338, -11.64395818436003) matrix(1.248462185165617 0 0 1.248462185165617 -347.9092960975816 -83.45627031342777) translate(19.531800825378014, -4.131727097676105) translate(4.507338652010276, -6.009784869347072) translate(3.380503989007593, -1.5024462173367965) translate(9.014677304020552, 6.009784869347072) translate(-8.82777467181677, 73.14441870934016) translate(21.25, 0.0) translate(670.0, -93.75) translate(12.5, 12.50006103515625)" fill="none" d="M708.263,355.611   c1.049-0.861,1.891-1.551,2.123-1.805c0.631-0.732,0.779-1.238-0.625-2.162c-1.662-1.078-3.004-1.268-3.396-0.844" stroke="#000000" stroke-width="0.25" g2gstroke="#312783" stroke-miterlimit="10"/>
<path stroke-linecap="round" orgstroke="#000000" orgfill="none" transform="translate(1.6666666666666288, 45.0) translate(5.0, 141.66666666666663) translate(-3.0, -1.0) translate(-17.0, -1.0) translate(-65,-56) translate(-135.7864793701172, -15.95862927246094) translate(-23.810883895874042, -7.293701173693989E-6) translate(-637.1092790527343, 18.13041815948486) translate(2.253669326005138, -0.7512231086683414) translate(-21.78547015138338, -11.64395818436003) matrix(1.248462185165617 0 0 1.248462185165617 -347.9092960975816 -83.45627031342777) translate(19.531800825378014, -4.131727097676105) translate(4.507338652010276, -6.009784869347072) translate(3.380503989007593, -1.5024462173367965) translate(9.014677304020552, 6.009784869347072) translate(-8.82777467181677, 73.14441870934016) translate(21.25, 0.0) translate(670.0, -93.75) translate(12.5, 12.50006103515625)" fill="none" d="M718.308,358.464   c-3.527-0.342-6.992-0.049-11.461,1.758c-9.127,3.682-17.982,12.385-24.238,22.773c-4.006,5.949-12.182,12.729-12.787,14.879" stroke="#000000" stroke-width="0.25" g2gstroke="#312783" stroke-miterlimit="10"/>
<path stroke-linecap="round" orgstroke="#000000" orgfill="none" transform="translate(1.6666666666666288, 45.0) translate(5.0, 141.66666666666663) translate(-3.0, -1.0) translate(-17.0, -1.0) translate(-65,-56) translate(-135.7864793701172, -15.95862927246094) translate(-23.810883895874042, -7.293701173693989E-6) translate(-637.1092790527343, 18.13041815948486) translate(2.253669326005138, -0.7512231086683414) translate(-21.78547015138338, -11.64395818436003) matrix(1.248462185165617 0 0 1.248462185165617 -347.9092960975816 -83.45627031342777) translate(19.531800825378014, -4.131727097676105) translate(4.507338652010276, -6.009784869347072) translate(3.380503989007593, -1.5024462173367965) translate(9.014677304020552, 6.009784869347072) translate(-8.82777467181677, 73.14441870934016) translate(21.25, 0.0) translate(670.0, -93.75) translate(12.5, 12.50006103515625)" fill="none" d="M718.308,358.464   c2.482,0.377,4.641,1.072,6.523,1.928" stroke="#000000" stroke-width="0.25" g2gstroke="#312783" stroke-miterlimit="10"/>
<path stroke-linecap="round" orgstroke="#000000" orgfill="none" transform="translate(1.6666666666666288, 45.0) translate(5.0, 141.66666666666663) translate(-3.0, -1.0) translate(-17.0, -1.0) translate(-65,-56) translate(-135.7864793701172, -15.95862927246094) translate(-23.810883895874042, -7.293701173693989E-6) translate(-637.1092790527343, 18.13041815948486) translate(2.253669326005138, -0.7512231086683414) translate(-21.78547015138338, -11.64395818436003) matrix(1.248462185165617 0 0 1.248462185165617 -347.9092960975816 -83.45627031342777) translate(19.531800825378014, -4.131727097676105) translate(4.507338652010276, -6.009784869347072) translate(3.380503989007593, -1.5024462173367965) translate(9.014677304020552, 6.009784869347072) translate(-8.82777467181677, 73.14441870934016) translate(21.25, 0.0) translate(670.0, -93.75) translate(12.5, 12.50006103515625)" fill="none" d="M696.294,387.878   c5.771-8.34,13.314-15.191,20.971-18.297c14.746-5.957,24.475,4.389,22.152,22.6c-0.275,2.121-1.443,4.486-3.299,5.359" stroke="#000000" stroke-width="0.25" g2gstroke="#312783" stroke-miterlimit="10"/>
<path stroke-linecap="round" orgstroke="#000000" orgfill="none" transform="translate(1.6666666666666288, 45.0) translate(5.0, 141.66666666666663) translate(-3.0, -1.0) translate(-17.0, -1.0) translate(-65,-56) translate(-135.7864793701172, -15.95862927246094) translate(-23.810883895874042, -7.293701173693989E-6) translate(-637.1092790527343, 18.13041815948486) translate(2.253669326005138, -0.7512231086683414) translate(-21.78547015138338, -11.64395818436003) matrix(1.248462185165617 0 0 1.248462185165617 -347.9092960975816 -83.45627031342777) translate(19.531800825378014, -4.131727097676105) translate(4.507338652010276, -6.009784869347072) translate(3.380503989007593, -1.5024462173367965) translate(9.014677304020552, 6.009784869347072) translate(-8.82777467181677, 73.14441870934016) translate(21.25, 0.0) translate(670.0, -93.75) translate(12.5, 12.50006103515625)" fill="none" d="M714.089,393.611   c0.25-8.885,0.369-17.73-2.178-21.275" stroke="#000000" stroke-width="0.25" g2gstroke="#312783" stroke-miterlimit="10"/>
<path stroke-linecap="round" orgstroke="#000000" orgfill="none" transform="translate(1.6666666666666288, 45.0) translate(5.0, 141.66666666666663) translate(-3.0, -1.0) translate(-17.0, -1.0) translate(-65,-56) translate(-135.7864793701172, -15.95862927246094) translate(-23.810883895874042, -7.293701173693989E-6) translate(-637.1092790527343, 18.13041815948486) translate(2.253669326005138, -0.7512231086683414) translate(-21.78547015138338, -11.64395818436003) matrix(1.248462185165617 0 0 1.248462185165617 -347.9092960975816 -83.45627031342777) translate(19.531800825378014, -4.131727097676105) translate(4.507338652010276, -6.009784869347072) translate(3.380503989007593, -1.5024462173367965) translate(9.014677304020552, 6.009784869347072) translate(-8.82777467181677, 73.14441870934016) translate(21.25, 0.0) translate(670.0, -93.75) translate(12.5, 12.50006103515625)" fill="none" d="M732.861,383.744   c1.322,0.441,2.396,2.08,3.525,2.586c1.135,0.502,3.385,1.449,3.385,1.449" stroke="#000000" stroke-width="0.25" g2gstroke="#312783" stroke-miterlimit="10"/>
<path stroke-linecap="round" orgstroke="#000000" orgfill="none" transform="translate(1.6666666666666288, 45.0) translate(5.0, 141.66666666666663) translate(-3.0, -1.0) translate(-17.0, -1.0) translate(-65,-56) translate(-135.7864793701172, -15.95862927246094) translate(-23.810883895874042, -7.293701173693989E-6) translate(-637.1092790527343, 18.13041815948486) translate(2.253669326005138, -0.7512231086683414) translate(-21.78547015138338, -11.64395818436003) matrix(1.248462185165617 0 0 1.248462185165617 -347.9092960975816 -83.45627031342777) translate(19.531800825378014, -4.131727097676105) translate(4.507338652010276, -6.009784869347072) translate(3.380503989007593, -1.5024462173367965) translate(9.014677304020552, 6.009784869347072) translate(-8.82777467181677, 73.14441870934016) translate(21.25, 0.0) translate(670.0, -93.75) translate(12.5, 12.50006103515625)" fill="none" d="M738.48,387.232   c-0.414-0.188-0.611-0.527-0.672-1.59c-0.07-1.074,0.209-1.617,0.672-1.578c0.477,0.023,1.162,0.127,1.162,0.127" stroke="#000000" stroke-width="0.25" g2gstroke="#312783" stroke-miterlimit="10"/>
<path stroke-linecap="round" orgstroke="#000000" orgfill="none" transform="translate(1.6666666666666288, 45.0) translate(5.0, 141.66666666666663) translate(-3.0, -1.0) translate(-17.0, -1.0) translate(-65,-56) translate(-135.7864793701172, -15.95862927246094) translate(-23.810883895874042, -7.293701173693989E-6) translate(-637.1092790527343, 18.13041815948486) translate(2.253669326005138, -0.7512231086683414) translate(-21.78547015138338, -11.64395818436003) matrix(1.248462185165617 0 0 1.248462185165617 -347.9092960975816 -83.45627031342777) translate(19.531800825378014, -4.131727097676105) translate(4.507338652010276, -6.009784869347072) translate(3.380503989007593, -1.5024462173367965) translate(9.014677304020552, 6.009784869347072) translate(-8.82777467181677, 73.14441870934016) translate(21.25, 0.0) translate(670.0, -93.75) translate(12.5, 12.50006103515625)" fill="none" d="M718.703,367.884   c0.568-0.184,0.646-0.623,0.219-1.217c-0.424-0.59-0.813-1.127-0.354-1.424c0.451-0.273,1.477-0.525,1.91-0.574   c0.439-0.055,0.736,0.07,1.43,0.766c0.678,0.691,1.158,1.377,1.746,1.326" stroke="#000000" stroke-width="0.25" g2gstroke="#312783" stroke-miterlimit="10"/>
<path stroke-linecap="round" orgstroke="#000000" orgfill="none" transform="translate(1.6666666666666288, 45.0) translate(5.0, 141.66666666666663) translate(-3.0, -1.0) translate(-17.0, -1.0) translate(-65,-56) translate(-135.7864793701172, -15.95862927246094) translate(-23.810883895874042, -7.293701173693989E-6) translate(-637.1092790527343, 18.13041815948486) translate(2.253669326005138, -0.7512231086683414) translate(-21.78547015138338, -11.64395818436003) matrix(1.248462185165617 0 0 1.248462185165617 -347.9092960975816 -83.45627031342777) translate(19.531800825378014, -4.131727097676105) translate(4.507338652010276, -6.009784869347072) translate(3.380503989007593, -1.5024462173367965) translate(9.014677304020552, 6.009784869347072) translate(-8.82777467181677, 73.14441870934016) translate(21.25, 0.0) translate(670.0, -93.75) translate(12.5, 12.50006103515625)" fill="none" d="M737.503,388.816   c0.064,0.424,0.396,0.895,0.729,1.025c0.354,0.148,0.578-0.094,0.525-0.525c-0.076-0.428-0.398-0.895-0.736-1.025   C737.669,388.158,737.433,388.382,737.503,388.816z" stroke="#000000" stroke-width="0.25" g2gstroke="#312783" stroke-miterlimit="10"/>
<path stroke-linecap="round" orgstroke="#000000" orgfill="none" transform="translate(1.6666666666666288, 45.0) translate(5.0, 141.66666666666663) translate(-3.0, -1.0) translate(-17.0, -1.0) translate(-65,-56) translate(-135.7864793701172, -15.95862927246094) translate(-23.810883895874042, -7.293701173693989E-6) translate(-637.1092790527343, 18.13041815948486) translate(2.253669326005138, -0.7512231086683414) translate(-21.78547015138338, -11.64395818436003) matrix(1.248462185165617 0 0 1.248462185165617 -347.9092960975816 -83.45627031342777) translate(19.531800825378014, -4.131727097676105) translate(4.507338652010276, -6.009784869347072) translate(3.380503989007593, -1.5024462173367965) translate(9.014677304020552, 6.009784869347072) translate(-8.82777467181677, 73.14441870934016) translate(21.25, 0.0) translate(670.0, -93.75) translate(12.5, 12.50006103515625)" fill="none" d="M735.583,394.685   c0.074,0.48,0.445,1.027,0.867,1.189c0.389,0.164,0.67-0.105,0.605-0.609c-0.076-0.477-0.443-1.025-0.867-1.193   C735.787,393.927,735.517,394.187,735.583,394.685z" stroke="#000000" stroke-width="0.25" g2gstroke="#312783" stroke-miterlimit="10"/>
<path stroke-linecap="round" orgstroke="#000000" orgfill="none" transform="translate(1.6666666666666288, 45.0) translate(5.0, 141.66666666666663) translate(-3.0, -1.0) translate(-17.0, -1.0) translate(-65,-56) translate(-135.7864793701172, -15.95862927246094) translate(-23.810883895874042, -7.293701173693989E-6) translate(-637.1092790527343, 18.13041815948486) translate(2.253669326005138, -0.7512231086683414) translate(-21.78547015138338, -11.64395818436003) matrix(1.248462185165617 0 0 1.248462185165617 -347.9092960975816 -83.45627031342777) translate(19.531800825378014, -4.131727097676105) translate(4.507338652010276, -6.009784869347072) translate(3.380503989007593, -1.5024462173367965) translate(9.014677304020552, 6.009784869347072) translate(-8.82777467181677, 73.14441870934016) translate(21.25, 0.0) translate(670.0, -93.75) translate(12.5, 12.50006103515625)" fill="none" d="M732.861,397.541   c0,0-0.441-13.195,0.314-16.158c0.758-2.955,0.828-6.363,0.914-6.719c0.094-0.355,0-3.471,0-3.471" stroke="#000000" stroke-width="0.25" g2gstroke="#312783" stroke-miterlimit="10"/>
<path stroke-linecap="round" orgstroke="#000000" orgfill="none" transform="translate(1.6666666666666288, 45.0) translate(5.0, 141.66666666666663) translate(-3.0, -1.0) translate(-17.0, -1.0) translate(-65,-56) translate(-135.7864793701172, -15.95862927246094) translate(-23.810883895874042, -7.293701173693989E-6) translate(-637.1092790527343, 18.13041815948486) translate(2.253669326005138, -0.7512231086683414) translate(-21.78547015138338, -11.64395818436003) matrix(1.248462185165617 0 0 1.248462185165617 -347.9092960975816 -83.45627031342777) translate(19.531800825378014, -4.131727097676105) translate(4.507338652010276, -6.009784869347072) translate(3.380503989007593, -1.5024462173367965) translate(9.014677304020552, 6.009784869347072) translate(-8.82777467181677, 73.14441870934016) translate(21.25, 0.0) translate(670.0, -93.75) translate(12.5, 12.50006103515625)" fill="none" d="M692.583,364.375   c0.523-0.443,0.582-0.6,3.336-0.264l0.102,0.014c0.375,0.051,3.369,0.141,4.145-0.305" stroke="#000000" stroke-width="0.25" g2gstroke="#312783" stroke-miterlimit="10"/>
<path stroke-linecap="round" orgstroke="#000000" orgfill="none" transform="translate(1.6666666666666288, 45.0) translate(5.0, 141.66666666666663) translate(-3.0, -1.0) translate(-17.0, -1.0) translate(-65,-56) translate(-135.7864793701172, -15.95862927246094) translate(-23.810883895874042, -7.293701173693989E-6) translate(-637.1092790527343, 18.13041815948486) translate(2.253669326005138, -0.7512231086683414) translate(-21.78547015138338, -11.64395818436003) matrix(1.248462185165617 0 0 1.248462185165617 -347.9092960975816 -83.45627031342777) translate(19.531800825378014, -4.131727097676105) translate(4.507338652010276, -6.009784869347072) translate(3.380503989007593, -1.5024462173367965) translate(9.014677304020552, 6.009784869347072) translate(-8.82777467181677, 73.14441870934016) translate(21.25, 0.0) translate(670.0, -93.75) translate(12.5, 12.50006103515625)" fill="none" d="M714.416,355.742   c0.029,0.627-1.354,2.826-2.945,3.051" stroke="#000000" stroke-width="0.25" g2gstroke="#312783" stroke-miterlimit="10"/>
<path stroke-linecap="round" orgstroke="#000000" orgfill="none" transform="translate(1.6666666666666288, 45.0) translate(5.0, 141.66666666666663) translate(-3.0, -1.0) translate(-17.0, -1.0) translate(-65,-56) translate(-135.7864793701172, -15.95862927246094) translate(-23.810883895874042, -7.293701173693989E-6) translate(-637.1092790527343, 18.13041815948486) translate(2.253669326005138, -0.7512231086683414) translate(-21.78547015138338, -11.64395818436003) matrix(1.248462185165617 0 0 1.248462185165617 -347.9092960975816 -83.45627031342777) translate(19.531800825378014, -4.131727097676105) translate(4.507338652010276, -6.009784869347072) translate(3.380503989007593, -1.5024462173367965) translate(9.014677304020552, 6.009784869347072) translate(-8.82777467181677, 73.14441870934016) translate(21.25, 0.0) translate(670.0, -93.75) translate(12.5, 12.50006103515625)" fill="none" d="M679.033,399.279   c0.859,0,1.553,1.055,1.553,2.354c0,1.297-0.693,2.355-1.553,2.355c-0.857,0-1.551-1.059-1.551-2.355   C677.482,400.333,678.175,399.279,679.033,399.279z" stroke="#000000" stroke-width="0.25" g2gstroke="#312783" stroke-miterlimit="10"/>
</g>
</g>
</g>
</g>
</g>
</g></svg>