<svg xmlns="http://www.w3.org/2000/svg" xmlns:xlink="http://www.w3.org/1999/xlink" xmlns:x="http://ns.adobe.com/Extensibility/1.0/" xmlns:graph="http://ns.adobe.com/Graphs/1.0/" xmlns:i="http://ns.adobe.com/AdobeIllustrator/10.0/" xmlns:etg="http://www.eurotaxglass.com/etg/evd/" etg:dataTimestamp="1541512339925" contentScriptType="text/ecmascript" zoomAndPan="magnify" contentStyleType="text/css" id="Layer_1" enable-background="new 0 0 1841.891 1595.279" version="1.1" xml:space="preserve" width="1841.891px" preserveAspectRatio="xMidYMid meet" viewBox="0 0 1841.891 1595.279" height="1595.279px" x="0px" y="0px"><g xmlns="http://www.w3.org/2000/svg" objecttype="PS" tooltip="#UNDEFINED" id="68">
<g onmouseover="notifyOwner(AGV_OBJECT_MOUSEOVER, '68(PS)')" transform="translate(-9.433746356535266E-6, 3.356933575560106E-7) translate(-35.71980609130861, -13.200809143066408) translate(44.708733184814434, 94.79042849731445) matrix(0.6117410612267968 0 0 0.6117410612267968 0.2921243287958965 0.477310974878083) translate(-92,-34) " onclick="clickZoom(evt); notifyOwner(AGV_OBJECT_MOUSECLICK, '68(PS)')" onmouseout="notifyOwner(AGV_OBJECT_MOUSEOUT, '68(PS)')" tooltip="#UNDEFINED" id="68-Graphic" objecttype="GRAPHIC">
<g zvalue="69">
<g zvalue="59">
<g zvalue="71">
<g>
<path orgstroke="#000000" orgfill="#ffffff" transform="translate(1.6666666666666288, 45.0) translate(5.0, 141.66666666666663) translate(-65,-56) translate(-135.7864793701172, -15.95862927246094) translate(-23.810883895874042, -7.293701173693989E-6) translate(-637.1092790527343, 18.13041815948486) translate(-8.82777467181677, 73.14441870934016) translate(21.25, 0.0) translate(670.0, -93.75) translate(12.5, 12.50006103515625)" fill="#ffffff" g2gfill="#464646" d="M481.226,348.55   c0.271,0.119,0.457,0.119,0.707,0.119s0.369-0.066,0.75-0.25c0.707-0.342,4.227-1.83,6.408-1.359l0.148,0.031   c0.494,0.107,0.986,0.254,1.473,0.441c3.672,1.41,6.031,4.758,6.371,8.439c0.047,0.512,0.023,1.027,0.023,1.547   c0,0.217,0.096,0.416,0.43,0.594c20.877,11.082,40.461,17.627,53.865,22.291h4.609c0.281,0,0.705,0.004,0.977-0.084   c11.969-3.883,37.096-11.514,52.762-14.605l0.223-0.012c3.119-2.467,43.012-33.986,60.141-45.512   c17.834-12,25.27-19.355,28.27-22.48c2.922-3.045,4.736-5.764,5.82-9.066c0.119-0.361,0.084-0.568,0.084-0.771v-0.904   c0-0.377-0.07-0.359-0.354-0.305c-3.543,0.686-7.494,0.771-9.805,0.672c-27.877-1.207-61.713-10.912-104.811-37.1   c-44.561-27.074-52.5-49.125-53.564-53.813c-0.307-1.355-0.49-2.615-0.559-3.824l-0.008-0.127c0.039-0.795,0.133-1.574,0.275-2.355   c0.033-0.18,0.066-0.4,0.066-0.613v-1.143c0-0.365-0.082-0.285-0.207-0.285c-4.564,1.816-7.244,4.27-11.172,7.441   c-13.658,11.025-62.166,52.137-77.719,73.033c-2.906,10.914-5.395,31.617-3.326,48.564c6.129,7.105,19.191,19.254,37.852,31.281   L481.226,348.55z" stroke="#000000" outline-element="true" stroke-width="0.5" g2gstroke="#312783" stroke-miterlimit="10"/>
<linearGradient transform="translate(1.6666666666666288, 45.0) translate(5.0, 141.66666666666663) translate(-65,-56) translate(-135.7864793701172, -15.95862927246094) translate(-23.810883895874042, -7.293701173693989E-6) translate(-637.1092790527343, 18.13041815948486) translate(-8.82777467181677, 73.14441870934016) translate(21.25, 0.0) translate(670.0, -93.75) translate(12.5, 12.50006103515625)" gradientTransform="matrix(1 0 0 1 174.375 122.4554)" x1="560.9066" x2="431.0238" y1="357.0775" gradientUnits="userSpaceOnUse" y2="180.4749" xmlns:xlink="http://www.w3.org/1999/xlink" xlink:type="simple" xlink:actuate="onLoad" id="66::SVGID_27_" xlink:show="other">
<stop stop-opacity="0.9" stop-color="#FFFFFF" offset="0.7467"/>
<stop stop-opacity="0.6" stop-color="#FFFFFF" offset="0.829"/>
<stop stop-opacity="0.28" stop-color="#FFFFFF" offset="0.9039"/>
</linearGradient>
<path fill="url(#66::SVGID_27_)" d="M704.31,286.729l-0.041,0.01c-1.039,3.35-2.896,6.07-5.84,9.141   c-3,3.129-10.438,10.479-28.27,22.479c-17.129,11.531-57.02,43.051-60.141,45.521l-0.219,0.01   c-18.939,3.74-51.701,14.1-58.33,16.459c0.66-0.609,22.189-20.17,53.77-37.91c32.5-18.25,63.25-33.619,94.5-55.25v-0.01   c1.4-0.109,2.85-0.289,4.24-0.559C704.201,286.578,704.291,286.559,704.31,286.729z" transform="translate(1.6666666666666288, 45.0) translate(5.0, 141.66666666666663) translate(-65,-56) translate(-135.7864793701172, -15.95862927246094) translate(-23.810883895874042, -7.293701173693989E-6) translate(-637.1092790527343, 18.13041815948486) translate(-8.82777467181677, 73.14441870934016) translate(21.25, 0.0) translate(670.0, -93.75) translate(12.5, 12.50006103515625)" orgfill="url(#66::SVGID_27_)"/>
<linearGradient transform="translate(1.6666666666666288, 45.0) translate(5.0, 141.66666666666663) translate(-65,-56) translate(-135.7864793701172, -15.95862927246094) translate(-23.810883895874042, -7.293701173693989E-6) translate(-637.1092790527343, 18.13041815948486) translate(-8.82777467181677, 73.14441870934016) translate(21.25, 0.0) translate(670.0, -93.75) translate(12.5, 12.50006103515625)" gradientTransform="matrix(1 0 0 1 174.375 122.4554)" x1="459.1357" x2="321.3347" y1="230.8652" gradientUnits="userSpaceOnUse" y2="119.9088" xmlns:xlink="http://www.w3.org/1999/xlink" xlink:type="simple" xlink:actuate="onLoad" id="66::SVGID_28_" xlink:show="other">
<stop stop-opacity="0.6" stop-color="#FFFFFF" offset="0.1911"/>
<stop stop-opacity="0.31" stop-color="#FFFFFF" offset="0.8756"/>
</linearGradient>
<path fill="url(#66::SVGID_28_)" d="M699.74,287.178v0.01c-31.25,21.632-62,37.001-94.5,55.251   c-31.58,17.738-53.109,37.301-53.77,37.908c-0.01,0.012-0.01,0.012-0.02,0.012c-13.41-4.66-32.99-11.209-53.871-22.289   c-0.33-0.182-0.432-0.381-0.432-0.59c0-0.521,0.029-1.041-0.02-1.553c-0.34-3.68-2.701-7.027-6.371-8.438   c-0.49-0.189-0.979-0.33-1.469-0.439c-0.07-0.01-0.131-0.031-0.201-0.041c-2.279-0.449-4.6-0.07-6.578,0.98   c-0.262,0.131-0.512,0.301-0.771,0.449c-0.17,0.102-0.311,0.119-0.43,0.078c-0.02,0-0.029,0-0.041-0.01l-0.26-0.148   c-18.66-12.029-31.729-24.182-37.859-31.289c14.529-30.411,47.16-74.642,92.061-126.011h0.01c-0.01,0.449-0.01,0.9,0.021,1.369   c0,0.041,0,0.09,0,0.131c0.068,1.209,0.26,2.469,0.561,3.82c1.061,4.689,9.01,26.74,53.561,53.809   c43.1,26.191,76.939,35.9,104.818,37.102C695.58,287.348,697.589,287.348,699.74,287.178z" transform="translate(1.6666666666666288, 45.0) translate(5.0, 141.66666666666663) translate(-65,-56) translate(-135.7864793701172, -15.95862927246094) translate(-23.810883895874042, -7.293701173693989E-6) translate(-637.1092790527343, 18.13041815948486) translate(-8.82777467181677, 73.14441870934016) translate(21.25, 0.0) translate(670.0, -93.75) translate(12.5, 12.50006103515625)" orgfill="url(#66::SVGID_28_)"/>
<linearGradient transform="translate(1.6666666666666288, 45.0) translate(5.0, 141.66666666666663) translate(-65,-56) translate(-135.7864793701172, -15.95862927246094) translate(-23.810883895874042, -7.293701173693989E-6) translate(-637.1092790527343, 18.13041815948486) translate(-8.82777467181677, 73.14441870934016) translate(21.25, 0.0) translate(670.0, -93.75) translate(12.5, 12.50006103515625)" gradientTransform="matrix(1 0 0 1 174.375 122.4554)" x1="394.0113" x2="306.152" y1="193.7505" gradientUnits="userSpaceOnUse" y2="123.0068" xmlns:xlink="http://www.w3.org/1999/xlink" xlink:type="simple" xlink:actuate="onLoad" id="66::SVGID_29_" xlink:show="other">
<stop stop-opacity="0.6" stop-color="#FFFFFF" offset="0.6533"/>
<stop stop-opacity="0.6" stop-color="#FFFFFF" offset="0.8112"/>
<stop stop-opacity="0.31" stop-color="#FFFFFF" offset="1"/>
</linearGradient>
<path fill="url(#66::SVGID_29_)" d="M535.22,191.059h-0.01c-44.9,51.369-77.529,95.6-92.061,126.011   c-2.061-16.939,0.42-37.651,3.33-48.562c15.551-20.9,64.061-62.01,77.721-73.029c3.93-3.18,6.609-5.631,11.17-7.439   c0.129,0,0.209-0.092,0.209,0.279v1.141c0,0.219-0.039,0.439-0.07,0.619c-0.139,0.779-0.24,1.561-0.27,2.35   C535.21,191.959,535.21,191.508,535.22,191.059z" transform="translate(1.6666666666666288, 45.0) translate(5.0, 141.66666666666663) translate(-65,-56) translate(-135.7864793701172, -15.95862927246094) translate(-23.810883895874042, -7.293701173693989E-6) translate(-637.1092790527343, 18.13041815948486) translate(-8.82777467181677, 73.14441870934016) translate(21.25, 0.0) translate(670.0, -93.75) translate(12.5, 12.50006103515625)" orgfill="url(#66::SVGID_29_)"/>
<path stroke-linecap="round" orgstroke="#000000" orgfill="none" transform="translate(1.6666666666666288, 45.0) translate(5.0, 141.66666666666663) translate(-65,-56) translate(-135.7864793701172, -15.95862927246094) translate(-23.810883895874042, -7.293701173693989E-6) translate(-637.1092790527343, 18.13041815948486) translate(-8.82777467181677, 73.14441870934016) translate(21.25, 0.0) translate(670.0, -93.75) translate(12.5, 12.50006103515625)" fill="none" stroke-linejoin="round" d="   M480.958,348.396c0.047,0.031,0.094,0.061,0.139,0.092c0.17,0.109,0.355,0.131,0.594-0.008c0.26-0.15,0.51-0.314,0.773-0.453   c2.037-1.076,4.428-1.445,6.775-0.936" stroke="#000000" stroke-width="0.25" g2gstroke="#312783" stroke-miterlimit="10"/>
<path stroke-linecap="round" orgstroke="#000000" orgfill="none" transform="translate(1.6666666666666288, 45.0) translate(5.0, 141.66666666666663) translate(-65,-56) translate(-135.7864793701172, -15.95862927246094) translate(-23.810883895874042, -7.293701173693989E-6) translate(-637.1092790527343, 18.13041815948486) translate(-8.82777467181677, 73.14441870934016) translate(21.25, 0.0) translate(670.0, -93.75) translate(12.5, 12.50006103515625)" fill="none" stroke-linejoin="round" d="   M551.402,380.404c6.596-2.352,39.396-12.736,58.348-16.477l0.223-0.012c3.119-2.467,43.012-33.986,60.141-45.512   c17.834-12,25.27-19.355,28.27-22.481c2.943-3.068,4.797-5.791,5.846-9.143" stroke="#000000" stroke-width="0.25" g2gstroke="#312783" stroke-miterlimit="10"/>
<path stroke-linecap="round" orgstroke="#000000" orgfill="none" transform="translate(1.6666666666666288, 45.0) translate(5.0, 141.66666666666663) translate(-65,-56) translate(-135.7864793701172, -15.95862927246094) translate(-23.810883895874042, -7.293701173693989E-6) translate(-637.1092790527343, 18.13041815948486) translate(-8.82777467181677, 73.14441870934016) translate(21.25, 0.0) translate(670.0, -93.75) translate(12.5, 12.50006103515625)" fill="none" stroke-linejoin="round" d="   M535.197,192.6c-0.086-1.523,0.018-2.965,0.295-4.408" stroke="#000000" stroke-width="0.25" g2gstroke="#312783" stroke-miterlimit="10"/>
<path stroke-linecap="round" orgstroke="#000000" orgfill="none" transform="translate(1.6666666666666288, 45.0) translate(5.0, 141.66666666666663) translate(-65,-56) translate(-135.7864793701172, -15.95862927246094) translate(-23.810883895874042, -7.293701173693989E-6) translate(-637.1092790527343, 18.13041815948486) translate(-8.82777467181677, 73.14441870934016) translate(21.25, 0.0) translate(670.0, -93.75) translate(12.5, 12.50006103515625)" fill="none" stroke-linejoin="round" d="   M481.226,348.55c0.271,0.119,0.457,0.119,0.707,0.119s0.369-0.066,0.75-0.25c0.707-0.342,4.227-1.83,6.408-1.359l0.148,0.031   c0.494,0.107,0.986,0.254,1.473,0.441c3.672,1.41,6.031,4.758,6.371,8.439c0.047,0.512,0.023,1.027,0.023,1.547   c0,0.217,0.096,0.416,0.43,0.594c20.877,11.082,40.461,17.627,53.865,22.291h4.609c0.281,0,0.705,0.004,0.977-0.084   c11.969-3.883,37.096-11.514,52.762-14.605l0.223-0.012c3.119-2.467,43.012-33.986,60.141-45.512   c17.834-12,25.27-19.355,28.27-22.48c2.922-3.045,4.736-5.764,5.82-9.066c0.119-0.361,0.084-0.568,0.084-0.771v-0.904   c0-0.377-0.07-0.359-0.354-0.305c-3.543,0.686-7.494,0.771-9.805,0.672c-27.877-1.207-61.713-10.912-104.811-37.1   c-44.561-27.074-52.5-49.125-53.564-53.813c-0.307-1.355-0.49-2.615-0.559-3.824l-0.008-0.127c0.039-0.795,0.133-1.574,0.275-2.355   c0.033-0.18,0.066-0.4,0.066-0.613v-1.143c0-0.365-0.082-0.285-0.207-0.285c-4.564,1.816-7.244,4.27-11.172,7.441   c-13.658,11.025-62.166,52.137-77.719,73.033c-2.906,10.914-5.395,31.617-3.326,48.564c6.129,7.105,19.191,19.254,37.852,31.281   L481.226,348.55z" stroke="#000000" stroke-width="0.25" g2gstroke="#312783" stroke-miterlimit="10"/>
</g>
</g>
</g>
</g>
</g>
</g></svg>