<svg xmlns="http://www.w3.org/2000/svg" xmlns:xlink="http://www.w3.org/1999/xlink" xmlns:x="http://ns.adobe.com/Extensibility/1.0/" xmlns:graph="http://ns.adobe.com/Graphs/1.0/" xmlns:i="http://ns.adobe.com/AdobeIllustrator/10.0/" xmlns:etg="http://www.eurotaxglass.com/etg/evd/" etg:dataTimestamp="1541512339925" contentScriptType="text/ecmascript" zoomAndPan="magnify" contentStyleType="text/css" id="Layer_1" enable-background="new 0 0 1841.891 1595.279" version="1.1" xml:space="preserve" width="1841.891px" preserveAspectRatio="xMidYMid meet" viewBox="0 0 1841.891 1595.279" height="1595.279px" x="0px" y="0px"><g xmlns="http://www.w3.org/2000/svg" objecttype="PS" tooltip="#UNDEFINED" id="82">
<g onmouseover="notifyOwner(AGV_OBJECT_MOUSEOVER, '82(PS)')" transform="translate(-9.433746356535266E-6, 3.356933575560106E-7) translate(-35.71980609130861, -13.200809143066408) translate(44.708733184814434, 94.79042849731445) matrix(0.6117410612267968 0 0 0.6117410612267968 0.2921243287958965 0.477310974878083) translate(-92,-34) " onclick="clickZoom(evt); notifyOwner(AGV_OBJECT_MOUSECLICK, '82(PS)')" onmouseout="notifyOwner(AGV_OBJECT_MOUSEOUT, '82(PS)')" tooltip="#UNDEFINED" id="82-Graphic" objecttype="GRAPHIC">
<g zvalue="83">
<g zvalue="32">
<g zvalue="1">
<g>
<path orgstroke="#000000" orgfill="#ffffff" transform="translate(1.6666666666666288, 45.0) translate(5.0, 141.66666666666663) translate(-1.1659935022249215, -6.995961013349529) translate(2.331987004449843, 3.4979805066747645) translate(-6.995961013349529, 0.0) translate(-318.31622610740294, -206.38084989381065) translate(279.8384405339806, 277.50645352953075) translate(-65,-56) translate(-135.7864793701172, -15.95862927246094) translate(-23.810883895874042, -7.293701173693989E-6) translate(-637.1092790527343, 18.13041815948486) translate(-3.3541126168383926, 1.341645046735266) translate(2.6832900934707595, 0.670822523367633) translate(-48.97004420583971, -139.5310848604745) translate(-98.61091093504683, 55.007446916148524) translate(151.60589028109257, 79.15705775738456) translate(-8.82777467181677, 73.14441870934016) translate(21.25, 0.0) translate(670.0, -93.75) translate(12.5, 12.50006103515625)" fill="#ffffff" g2gfill="#ECC35D" d="M337.832,425.63   c0,0.398-0.013,0.787-0.014,1.164c0.199,7.133,0.568,12.764,1.745,18.074c0.073,0.33,0.658-0.371,1.177,0.816   c0.732,1.676-0.5,1.955-0.41,2.289c1.273,4.777,3.029,8.258,6.006,12.055c4.658,5.941,9.287,10.092,15.252,14.199   c0.465,0.32,0.547-0.625,1.578-0.105c0.79,0.398,0.586,1.557,0.966,1.803c4.467,2.898,9.687,5.896,16.13,9.6   c0.701,0.4,1.393,0.811,2.088,1.221l0.211,0.125c1.298,0.768,2.635,1.559,3.957,2.266c15.195,8.115,27.266,14.158,37.938,18.697   c0.488,0.209,1.375-0.283,1.857-0.082c0.621,0.26,0.834,1.209,1.445,1.459c14.316,5.824,26.326,8.9,40.531,10.738   c0.219,0.027,0.301,0.039,0.561-0.109l1.125-0.646l0.117-0.055c0.264-0.102,0.57-0.104,0.941,0.111   c0.449,0.26,0.475,1.09,0.996,1.145c4.127,0.457,8.459,0.824,13.098,1.135c0.318,0.02,0.893,0.047,1.816,0.047   c3.424,0,9.377-0.402,15.285-1.025c0.361-0.037,0.393-0.041,0.393,0.281v0.729c0,0.203,0.074,0.33-0.273,0.531l-13.537,7.775   c-0.281,0.16-0.117,0.189,0.213,0.18c9.701-0.287,28.121-2.277,41.172-5.768c0.355-0.094,0.482-0.129,0.797,0.053l0.979,0.566   c0.27,0.154,0.17,0.359-0.023,0.568l-1.432,1.537c-0.225,0.242-0.287,0.291-0.617,0.357c-0.705,0.143-1.42,0.33-2.158,0.494   c-0.369,0.082-0.52,0.311-0.66,0.559l-1.352,2.145c-0.189,0.328-0.352,0.479-0.855,0.586c-0.846,0.18-1.703,0.355-2.57,0.525   c-0.119,0.023-0.223,0.031-0.305,0.018c0,0-0.662-0.299-0.818-0.393c-0.154-0.094-0.27-0.18-0.168-0.359   c0.025-0.043,0.043-0.102,0.076-0.16l0.916-1.455c0.188-0.318-0.004-0.283-0.25-0.236c-2.82,0.535-5.639,1.02-8.162,1.404   c-1.41,0.215-2.818,0.416-4.219,0.604c-0.516,0.049-0.768,0.436-0.977,0.795c-0.207,0.361-0.764,1.324-1.014,1.699   s-0.83,0.574-1.709,0.66c-9.188,0.896-17.443,1.564-21.209,1.314c-36.141-2.418-55.584-8.418-102.625-33.543   c-2.293-1.227-4.398-2.539-6.51-3.752c-17.436-10.012-27.039-15.525-36.805-27.982c-7.898-10.076-10.154-21.916-10.63-39.238   c-0.001-0.717-0.019-3.705,0-4.453l0.001-0.129c0.036-5.365,0.736-12.203,1.094-18.525c0.024-0.422,0.122-0.473,0.408-0.307   l0.697,0.404c0.3,0.172,0.3,0.404,0.3,0.883v3.08c0,0.293-0.009,0.688-0.034,1.117c-0.121,2.072-0.278,4.195-0.432,6.26   c-0.244,3.324-0.479,6.506-0.574,9.371l0.021,0.166c0.006,0.18,0.013,0.359,0.02,0.539c0.012,0.271,0.094,0.383,0.353,0.232   l7.382-4.24C337.817,425.048,337.832,425.222,337.832,425.63z" stroke="#000000" outline-element="true" stroke-width="0.5" g2gstroke="#312783" stroke-miterlimit="10"/>
<path stroke-linecap="round" orgstroke="#000000" orgfill="none" transform="translate(1.6666666666666288, 45.0) translate(5.0, 141.66666666666663) translate(-1.1659935022249215, -6.995961013349529) translate(2.331987004449843, 3.4979805066747645) translate(-6.995961013349529, 0.0) translate(-318.31622610740294, -206.38084989381065) translate(279.8384405339806, 277.50645352953075) translate(-65,-56) translate(-135.7864793701172, -15.95862927246094) translate(-23.810883895874042, -7.293701173693989E-6) translate(-637.1092790527343, 18.13041815948486) translate(-3.3541126168383926, 1.341645046735266) translate(2.6832900934707595, 0.670822523367633) translate(-48.97004420583971, -139.5310848604745) translate(-98.61091093504683, 55.007446916148524) translate(151.60589028109257, 79.15705775738456) translate(-8.82777467181677, 73.14441870934016) translate(21.25, 0.0) translate(670.0, -93.75) translate(12.5, 12.50006103515625)" fill="none" stroke-linejoin="round" d="   M330.381,408.484c-0.125,2.17-0.289,4.4-0.449,6.566c-0.318,4.322-0.619,8.406-0.617,11.859c0.02,0.674,0.04,1.342,0.064,2.002" stroke="#000000" stroke-width="0.25" g2gstroke="#312783" stroke-miterlimit="10"/>
<path stroke-linecap="round" orgstroke="#000000" orgfill="none" transform="translate(1.6666666666666288, 45.0) translate(5.0, 141.66666666666663) translate(-1.1659935022249215, -6.995961013349529) translate(2.331987004449843, 3.4979805066747645) translate(-6.995961013349529, 0.0) translate(-318.31622610740294, -206.38084989381065) translate(279.8384405339806, 277.50645352953075) translate(-65,-56) translate(-135.7864793701172, -15.95862927246094) translate(-23.810883895874042, -7.293701173693989E-6) translate(-637.1092790527343, 18.13041815948486) translate(-3.3541126168383926, 1.341645046735266) translate(2.6832900934707595, 0.670822523367633) translate(-48.97004420583971, -139.5310848604745) translate(-98.61091093504683, 55.007446916148524) translate(151.60589028109257, 79.15705775738456) translate(-8.82777467181677, 73.14441870934016) translate(21.25, 0.0) translate(670.0, -93.75) translate(12.5, 12.50006103515625)" fill="none" stroke-linejoin="round" d="   M327.898,426.462c0,0.15-0.001,0.301-0.001,0.449c0.476,17.322,2.731,29.162,10.63,39.238   c9.766,12.457,19.369,17.971,36.805,27.982c2.111,1.213,4.217,2.525,6.51,3.752c47.041,25.125,66.484,31.125,102.625,33.543   c7.391,0.494,32.082-1.863,47.666-6.256" stroke="#000000" stroke-width="0.25" g2gstroke="#312783" stroke-miterlimit="10"/>
<path stroke-linecap="round" orgstroke="#000000" orgfill="none" transform="translate(1.6666666666666288, 45.0) translate(5.0, 141.66666666666663) translate(-1.1659935022249215, -6.995961013349529) translate(2.331987004449843, 3.4979805066747645) translate(-6.995961013349529, 0.0) translate(-318.31622610740294, -206.38084989381065) translate(279.8384405339806, 277.50645352953075) translate(-65,-56) translate(-135.7864793701172, -15.95862927246094) translate(-23.810883895874042, -7.293701173693989E-6) translate(-637.1092790527343, 18.13041815948486) translate(-3.3541126168383926, 1.341645046735266) translate(2.6832900934707595, 0.670822523367633) translate(-48.97004420583971, -139.5310848604745) translate(-98.61091093504683, 55.007446916148524) translate(151.60589028109257, 79.15705775738456) translate(-8.82777467181677, 73.14441870934016) translate(21.25, 0.0) translate(670.0, -93.75) translate(12.5, 12.50006103515625)" fill="none" stroke-linejoin="round" d="   M521.996,529.039c0.316-0.061,0.635-0.121,0.949-0.184c0.281-0.055,0.406,0.055,0.262,0.307l-1.287,2.041   c-0.176,0.307-0.113,0.451,0.08,0.484" stroke="#000000" stroke-width="0.25" g2gstroke="#312783" stroke-miterlimit="10"/>
<path stroke-linecap="round" orgstroke="#000000" orgfill="none" transform="translate(1.6666666666666288, 45.0) translate(5.0, 141.66666666666663) translate(-1.1659935022249215, -6.995961013349529) translate(2.331987004449843, 3.4979805066747645) translate(-6.995961013349529, 0.0) translate(-318.31622610740294, -206.38084989381065) translate(279.8384405339806, 277.50645352953075) translate(-65,-56) translate(-135.7864793701172, -15.95862927246094) translate(-23.810883895874042, -7.293701173693989E-6) translate(-637.1092790527343, 18.13041815948486) translate(-3.3541126168383926, 1.341645046735266) translate(2.6832900934707595, 0.670822523367633) translate(-48.97004420583971, -139.5310848604745) translate(-98.61091093504683, 55.007446916148524) translate(151.60589028109257, 79.15705775738456) translate(-8.82777467181677, 73.14441870934016) translate(21.25, 0.0) translate(670.0, -93.75) translate(12.5, 12.50006103515625)" fill="none" stroke-linejoin="round" d="   M329.41,429.722c0.59,14.707,2.702,25.947,10.232,35.555c9.594,12.236,19.111,17.701,36.39,27.625   c0.736,0.424,1.467,0.854,2.204,1.291c1.375,0.813,2.795,1.65,4.273,2.441c46.208,24.682,65.284,30.92,102.053,33.379   c0.658,0.043,1.461,0.064,2.383,0.064c0.529,0,1.1-0.008,1.707-0.021" stroke="#000000" stroke-width="0.25" g2gstroke="#312783" stroke-miterlimit="10"/>
<path stroke-linecap="round" orgstroke="#000000" orgfill="none" transform="translate(1.6666666666666288, 45.0) translate(5.0, 141.66666666666663) translate(-1.1659935022249215, -6.995961013349529) translate(2.331987004449843, 3.4979805066747645) translate(-6.995961013349529, 0.0) translate(-318.31622610740294, -206.38084989381065) translate(279.8384405339806, 277.50645352953075) translate(-65,-56) translate(-135.7864793701172, -15.95862927246094) translate(-23.810883895874042, -7.293701173693989E-6) translate(-637.1092790527343, 18.13041815948486) translate(-3.3541126168383926, 1.341645046735266) translate(2.6832900934707595, 0.670822523367633) translate(-48.97004420583971, -139.5310848604745) translate(-98.61091093504683, 55.007446916148524) translate(151.60589028109257, 79.15705775738456) translate(-8.82777467181677, 73.14441870934016) translate(21.25, 0.0) translate(670.0, -93.75) translate(12.5, 12.50006103515625)" fill="none" stroke-linejoin="round" d="M502.5480041503906 520.5479736328125L485.97601318359375 530.0679931640625" stroke="#000000" stroke-width="0.25" g2gstroke="#312783" stroke-miterlimit="10"/>
<path stroke-linecap="round" orgstroke="#000000" orgfill="none" transform="translate(1.6666666666666288, 45.0) translate(5.0, 141.66666666666663) translate(-1.1659935022249215, -6.995961013349529) translate(2.331987004449843, 3.4979805066747645) translate(-6.995961013349529, 0.0) translate(-318.31622610740294, -206.38084989381065) translate(279.8384405339806, 277.50645352953075) translate(-65,-56) translate(-135.7864793701172, -15.95862927246094) translate(-23.810883895874042, -7.293701173693989E-6) translate(-637.1092790527343, 18.13041815948486) translate(-3.3541126168383926, 1.341645046735266) translate(2.6832900934707595, 0.670822523367633) translate(-48.97004420583971, -139.5310848604745) translate(-98.61091093504683, 55.007446916148524) translate(151.60589028109257, 79.15705775738456) translate(-8.82777467181677, 73.14441870934016) translate(21.25, 0.0) translate(670.0, -93.75) translate(12.5, 12.50006103515625)" fill="none" stroke-linejoin="round" d="M456.8450012207031 526.7340087890625L468.59100341796875 519.9860229492188" stroke="#000000" stroke-width="0.25" g2gstroke="#312783" stroke-miterlimit="10"/>
<path stroke-linecap="round" orgstroke="#000000" orgfill="none" transform="translate(1.6666666666666288, 45.0) translate(5.0, 141.66666666666663) translate(-1.1659935022249215, -6.995961013349529) translate(2.331987004449843, 3.4979805066747645) translate(-6.995961013349529, 0.0) translate(-318.31622610740294, -206.38084989381065) translate(279.8384405339806, 277.50645352953075) translate(-65,-56) translate(-135.7864793701172, -15.95862927246094) translate(-23.810883895874042, -7.293701173693989E-6) translate(-637.1092790527343, 18.13041815948486) translate(-3.3541126168383926, 1.341645046735266) translate(2.6832900934707595, 0.670822523367633) translate(-48.97004420583971, -139.5310848604745) translate(-98.61091093504683, 55.007446916148524) translate(151.60589028109257, 79.15705775738456) translate(-8.82777467181677, 73.14441870934016) translate(21.25, 0.0) translate(670.0, -93.75) translate(12.5, 12.50006103515625)" fill="none" stroke-linejoin="round" d="M471.8840026855469 520.3569946289062L459.8450012207031 527.2730102539062" stroke="#000000" stroke-width="0.25" g2gstroke="#312783" stroke-miterlimit="10"/>
<path stroke-linecap="round" orgstroke="#000000" orgfill="none" transform="translate(1.6666666666666288, 45.0) translate(5.0, 141.66666666666663) translate(-1.1659935022249215, -6.995961013349529) translate(2.331987004449843, 3.4979805066747645) translate(-6.995961013349529, 0.0) translate(-318.31622610740294, -206.38084989381065) translate(279.8384405339806, 277.50645352953075) translate(-65,-56) translate(-135.7864793701172, -15.95862927246094) translate(-23.810883895874042, -7.293701173693989E-6) translate(-637.1092790527343, 18.13041815948486) translate(-3.3541126168383926, 1.341645046735266) translate(2.6832900934707595, 0.670822523367633) translate(-48.97004420583971, -139.5310848604745) translate(-98.61091093504683, 55.007446916148524) translate(151.60589028109257, 79.15705775738456) translate(-8.82777467181677, 73.14441870934016) translate(21.25, 0.0) translate(670.0, -93.75) translate(12.5, 12.50006103515625)" fill="none" stroke-linejoin="round" d="M424.82598876953125 507.89599609375L415.6499938964844 513.166015625" stroke="#000000" stroke-width="0.25" g2gstroke="#312783" stroke-miterlimit="10"/>
<path stroke-linecap="round" orgstroke="#000000" orgfill="none" transform="translate(1.6666666666666288, 45.0) translate(5.0, 141.66666666666663) translate(-1.1659935022249215, -6.995961013349529) translate(2.331987004449843, 3.4979805066747645) translate(-6.995961013349529, 0.0) translate(-318.31622610740294, -206.38084989381065) translate(279.8384405339806, 277.50645352953075) translate(-65,-56) translate(-135.7864793701172, -15.95862927246094) translate(-23.810883895874042, -7.293701173693989E-6) translate(-637.1092790527343, 18.13041815948486) translate(-3.3541126168383926, 1.341645046735266) translate(2.6832900934707595, 0.670822523367633) translate(-48.97004420583971, -139.5310848604745) translate(-98.61091093504683, 55.007446916148524) translate(151.60589028109257, 79.15705775738456) translate(-8.82777467181677, 73.14441870934016) translate(21.25, 0.0) translate(670.0, -93.75) translate(12.5, 12.50006103515625)" fill="none" stroke-linejoin="round" d="M363.9320068359375 475.93499755859375L355.8949890136719 480.54998779296875" stroke="#000000" stroke-width="0.25" g2gstroke="#312783" stroke-miterlimit="10"/>
<path stroke-linecap="round" orgstroke="#000000" orgfill="none" transform="translate(1.6666666666666288, 45.0) translate(5.0, 141.66666666666663) translate(-1.1659935022249215, -6.995961013349529) translate(2.331987004449843, 3.4979805066747645) translate(-6.995961013349529, 0.0) translate(-318.31622610740294, -206.38084989381065) translate(279.8384405339806, 277.50645352953075) translate(-65,-56) translate(-135.7864793701172, -15.95862927246094) translate(-23.810883895874042, -7.293701173693989E-6) translate(-637.1092790527343, 18.13041815948486) translate(-3.3541126168383926, 1.341645046735266) translate(2.6832900934707595, 0.670822523367633) translate(-48.97004420583971, -139.5310848604745) translate(-98.61091093504683, 55.007446916148524) translate(151.60589028109257, 79.15705775738456) translate(-8.82777467181677, 73.14441870934016) translate(21.25, 0.0) translate(670.0, -93.75) translate(12.5, 12.50006103515625)" fill="none" stroke-linejoin="round" d="M362.010009765625 474.1969909667969L353.6499938964844 479" stroke="#000000" stroke-width="0.25" g2gstroke="#312783" stroke-miterlimit="10"/>
<path stroke-linecap="round" orgstroke="#000000" orgfill="none" transform="translate(1.6666666666666288, 45.0) translate(5.0, 141.66666666666663) translate(-1.1659935022249215, -6.995961013349529) translate(2.331987004449843, 3.4979805066747645) translate(-6.995961013349529, 0.0) translate(-318.31622610740294, -206.38084989381065) translate(279.8384405339806, 277.50645352953075) translate(-65,-56) translate(-135.7864793701172, -15.95862927246094) translate(-23.810883895874042, -7.293701173693989E-6) translate(-637.1092790527343, 18.13041815948486) translate(-3.3541126168383926, 1.341645046735266) translate(2.6832900934707595, 0.670822523367633) translate(-48.97004420583971, -139.5310848604745) translate(-98.61091093504683, 55.007446916148524) translate(151.60589028109257, 79.15705775738456) translate(-8.82777467181677, 73.14441870934016) translate(21.25, 0.0) translate(670.0, -93.75) translate(12.5, 12.50006103515625)" fill="none" stroke-linejoin="round" d="M340.3890075683594 447.87298583984375L332.760009765625 452.2550048828125" stroke="#000000" stroke-width="0.25" g2gstroke="#312783" stroke-miterlimit="10"/>
<path stroke-linecap="round" orgstroke="#000000" orgfill="none" transform="translate(1.6666666666666288, 45.0) translate(5.0, 141.66666666666663) translate(-1.1659935022249215, -6.995961013349529) translate(2.331987004449843, 3.4979805066747645) translate(-6.995961013349529, 0.0) translate(-318.31622610740294, -206.38084989381065) translate(279.8384405339806, 277.50645352953075) translate(-65,-56) translate(-135.7864793701172, -15.95862927246094) translate(-23.810883895874042, -7.293701173693989E-6) translate(-637.1092790527343, 18.13041815948486) translate(-3.3541126168383926, 1.341645046735266) translate(2.6832900934707595, 0.670822523367633) translate(-48.97004420583971, -139.5310848604745) translate(-98.61091093504683, 55.007446916148524) translate(151.60589028109257, 79.15705775738456) translate(-8.82777467181677, 73.14441870934016) translate(21.25, 0.0) translate(670.0, -93.75) translate(12.5, 12.50006103515625)" fill="none" stroke-linejoin="round" d="M339.6809997558594 444.9570007324219L331.92401123046875 449.4119873046875" stroke="#000000" stroke-width="0.25" g2gstroke="#312783" stroke-miterlimit="10"/>
<path stroke-linecap="round" orgstroke="#000000" orgfill="none" transform="translate(1.6666666666666288, 45.0) translate(5.0, 141.66666666666663) translate(-1.1659935022249215, -6.995961013349529) translate(2.331987004449843, 3.4979805066747645) translate(-6.995961013349529, 0.0) translate(-318.31622610740294, -206.38084989381065) translate(279.8384405339806, 277.50645352953075) translate(-65,-56) translate(-135.7864793701172, -15.95862927246094) translate(-23.810883895874042, -7.293701173693989E-6) translate(-637.1092790527343, 18.13041815948486) translate(-3.3541126168383926, 1.341645046735266) translate(2.6832900934707595, 0.670822523367633) translate(-48.97004420583971, -139.5310848604745) translate(-98.61091093504683, 55.007446916148524) translate(151.60589028109257, 79.15705775738456) translate(-8.82777467181677, 73.14441870934016) translate(21.25, 0.0) translate(670.0, -93.75) translate(12.5, 12.50006103515625)" fill="none" stroke-linejoin="round" d="M427.5050048828125 509.06201171875L418.24700927734375 514.3779907226562" stroke="#000000" stroke-width="0.25" g2gstroke="#312783" stroke-miterlimit="10"/>
</g>
</g>
</g>
</g>
</g>
</g></svg>