<svg xmlns="http://www.w3.org/2000/svg" xmlns:xlink="http://www.w3.org/1999/xlink" xmlns:x="http://ns.adobe.com/Extensibility/1.0/" xmlns:graph="http://ns.adobe.com/Graphs/1.0/" xmlns:i="http://ns.adobe.com/AdobeIllustrator/10.0/" xmlns:etg="http://www.eurotaxglass.com/etg/evd/" etg:dataTimestamp="1541512339925" contentScriptType="text/ecmascript" zoomAndPan="magnify" contentStyleType="text/css" id="Layer_1" enable-background="new 0 0 1841.891 1595.279" version="1.1" xml:space="preserve" width="1841.891px" preserveAspectRatio="xMidYMid meet" viewBox="0 0 1841.891 1595.279" height="1595.279px" x="0px" y="0px"><g xmlns="http://www.w3.org/2000/svg" objecttype="PS" tooltip="#UNDEFINED" id="84">
<g onmouseover="notifyOwner(AGV_OBJECT_MOUSEOVER, '84(PS)')" transform="translate(-9.433746356535266E-6, 3.356933575560106E-7) translate(-35.71980609130861, -13.200809143066408) translate(44.708733184814434, 94.79042849731445) matrix(0.6117410612267968 0 0 0.6117410612267968 0.2921243287958965 0.477310974878083) translate(-92,-34) " onclick="clickZoom(evt); notifyOwner(AGV_OBJECT_MOUSECLICK, '84(PS)')" onmouseout="notifyOwner(AGV_OBJECT_MOUSEOUT, '84(PS)')" tooltip="#UNDEFINED" id="84-Graphic" objecttype="GRAPHIC">
<g zvalue="85">
<g zvalue="46">
<g zvalue="38">
<g>
<path orgstroke="#000000" orgfill="#ffffff" transform="translate(1.6666666666666288, 45.0) translate(5.0, 141.66666666666663) translate(-1.1659935022249215, -6.995961013349529) translate(2.331987004449843, 3.4979805066747645) translate(-6.995961013349529, 0.0) translate(-318.31622610740294, -206.38084989381065) translate(279.8384405339806, 277.50645352953075) translate(-65,-56) translate(-135.7864793701172, -15.95862927246094) translate(-23.810883895874042, -7.293701173693989E-6) translate(-637.1092790527343, 18.13041815948486) translate(-8.82777467181677, 73.14441870934016) translate(21.25, 0.0) translate(670.0, -93.75) translate(12.5, 12.50006103515625)" fill="#ffffff" g2gfill="#ECC35D" d="M419.967,502.13   c-1.316,0.689-2.574,1.191-3.861,1.383c-2.961,0.441-5.85-0.389-8.186-1.387l-0.203-0.086   c-11.658-4.969-23.922-11.152-36.064-18.186c-20.068-11.633-31.773-18.773-43.107-31.438c-1.066-1.191-1.896-2.402-2.602-3.703   c-2.467-4.559-3.193-10.416-4.842-22.588c-0.117-0.863-0.684-5.35-0.877-6.797c-0.041-0.314,0.146-0.467,0.373-0.598l0.395-0.225   c0.219-0.125,0.414-0.053,0.592,0.129l1.186,1.223c0.928,0.926,1.939,1.887,3.029,2.877c0.172,0.154,0.256,0.172,0.49,0.104   c0.832-0.24,3.111-0.893,3.586-0.941c0.584-0.064,1.004-0.018,1.348,0.297c0.16,0.145,0.246,0.297,0.281,0.445l0.016,0.096   c0,0,0.002,1.213,0.006,1.42s-0.072,0.416-0.172,0.611c-0.117,0.232-0.648,1.217-0.797,1.473s-0.182,0.451,0.125,0.705   c4.336,3.568,9.461,7.393,15.092,11.354c0.289,0.203,0.299,0.213,0.703,0.1c1.016-0.289,2.695-0.76,3.094-0.803   c0.584-0.063,1.004-0.018,1.348,0.297c0.16,0.146,0.246,0.297,0.283,0.445l0.014,0.096c0,0,0.004,1.213,0.006,1.42   c0.004,0.205-0.07,0.414-0.17,0.611c-0.119,0.234-0.254,0.502-0.402,0.758c-0.148,0.258-0.188,0.301,0.123,0.512   c5.486,3.699,11.367,7.447,17.43,11.141c0.287,0.174,0.391,0.207,0.711,0.115c0.832-0.238,3.111-0.895,3.586-0.943   c0.584-0.063,1.004-0.016,1.348,0.297c0.16,0.146,0.246,0.297,0.281,0.447l0.016,0.094c0,0,0.002,1.213,0.006,1.42   s-0.072,0.416-0.172,0.613c-0.117,0.232-0.252,0.502-0.4,0.758s-0.121,0.342,0.188,0.523c6.922,4.074,13.998,8.021,20.973,11.621   c0.215,0.109,0.303,0.1,0.521,0.037c0.834-0.238,3.494-0.996,3.969-1.049c0.584-0.063,1.004-0.018,1.348,0.299   c0.16,0.145,0.246,0.295,0.283,0.443l0.014,0.098c0,0,0.004,1.211,0.006,1.418c0.004,0.207-0.07,0.416-0.17,0.611   c-0.086,0.168-0.18,0.354-0.277,0.537c-0.141,0.268,0,0.498,0.244,0.619c7.195,3.578,14.17,6.754,20.604,9.305   c0.473,0.189,0.777,0.092,1.043,0.016c0.832-0.238,4.148-1.199,4.623-1.25c0.584-0.064,1.004-0.02,1.348,0.297   c0.16,0.145,0.246,0.295,0.283,0.445l0.014,0.096c0,0,0.004,1.211,0.006,1.418c0.004,0.207-0.068,0.416-0.17,0.613   c-0.08,0.154-0.162,0.334-0.26,0.504c-0.162,0.277-0.002,0.436,0.322,0.547c0.111,0.039,0.219,0.076,0.326,0.113   c1.387,0.475,4.734,1.449,6.363,1.934c0.248,0.074,0.469,0.211,0.082,0.682c-1.477,1.797-9.189,11.631-12.336,14.516   C422.091,500.83,420.824,501.681,419.967,502.13z" stroke="#000000" outline-element="true" stroke-width="0.5" g2gstroke="#312783" stroke-miterlimit="10"/>
<path stroke-linecap="round" orgstroke="#000000" orgfill="none" transform="translate(1.6666666666666288, 45.0) translate(5.0, 141.66666666666663) translate(-1.1659935022249215, -6.995961013349529) translate(2.331987004449843, 3.4979805066747645) translate(-6.995961013349529, 0.0) translate(-318.31622610740294, -206.38084989381065) translate(279.8384405339806, 277.50645352953075) translate(-65,-56) translate(-135.7864793701172, -15.95862927246094) translate(-23.810883895874042, -7.293701173693989E-6) translate(-637.1092790527343, 18.13041815948486) translate(-8.82777467181677, 73.14441870934016) translate(21.25, 0.0) translate(670.0, -93.75) translate(12.5, 12.50006103515625)" fill="none" stroke-linejoin="round" d="   M324.785,427.996c22.057,19.494,73.613,49.508,104.57,59.637" stroke="#000000" stroke-width="0.25" g2gstroke="#312783" stroke-miterlimit="10"/>
<path stroke-linecap="round" orgstroke="#000000" orgfill="none" transform="translate(1.6666666666666288, 45.0) translate(5.0, 141.66666666666663) translate(-1.1659935022249215, -6.995961013349529) translate(2.331987004449843, 3.4979805066747645) translate(-6.995961013349529, 0.0) translate(-318.31622610740294, -206.38084989381065) translate(279.8384405339806, 277.50645352953075) translate(-65,-56) translate(-135.7864793701172, -15.95862927246094) translate(-23.810883895874042, -7.293701173693989E-6) translate(-637.1092790527343, 18.13041815948486) translate(-8.82777467181677, 73.14441870934016) translate(21.25, 0.0) translate(670.0, -93.75) translate(12.5, 12.50006103515625)" fill="none" stroke-linejoin="round" d="   M325.646,434.462c22.174,18.939,69.883,46.719,100.33,57.381" stroke="#000000" stroke-width="0.25" g2gstroke="#312783" stroke-miterlimit="10"/>
<path stroke-linecap="round" orgstroke="#000000" orgfill="none" transform="translate(1.6666666666666288, 45.0) translate(5.0, 141.66666666666663) translate(-1.1659935022249215, -6.995961013349529) translate(2.331987004449843, 3.4979805066747645) translate(-6.995961013349529, 0.0) translate(-318.31622610740294, -206.38084989381065) translate(279.8384405339806, 277.50645352953075) translate(-65,-56) translate(-135.7864793701172, -15.95862927246094) translate(-23.810883895874042, -7.293701173693989E-6) translate(-637.1092790527343, 18.13041815948486) translate(-8.82777467181677, 73.14441870934016) translate(21.25, 0.0) translate(670.0, -93.75) translate(12.5, 12.50006103515625)" fill="none" stroke-linejoin="round" d="   M326.803,441.134c22.156,18.27,65.947,43.77,95.601,54.789" stroke="#000000" stroke-width="0.25" g2gstroke="#312783" stroke-miterlimit="10"/>
<path stroke-linecap="round" orgstroke="#000000" orgfill="none" transform="translate(1.6666666666666288, 45.0) translate(5.0, 141.66666666666663) translate(-1.1659935022249215, -6.995961013349529) translate(2.331987004449843, 3.4979805066747645) translate(-6.995961013349529, 0.0) translate(-318.31622610740294, -206.38084989381065) translate(279.8384405339806, 277.50645352953075) translate(-65,-56) translate(-135.7864793701172, -15.95862927246094) translate(-23.810883895874042, -7.293701173693989E-6) translate(-637.1092790527343, 18.13041815948486) translate(-8.82777467181677, 73.14441870934016) translate(21.25, 0.0) translate(670.0, -93.75) translate(12.5, 12.50006103515625)" fill="none" stroke-linejoin="round" d="   M333.248,451.837c22.354,16.705,58.027,37.158,84.463,47.666" stroke="#000000" stroke-width="0.25" g2gstroke="#312783" stroke-miterlimit="10"/>
<path stroke-linecap="round" orgstroke="#000000" orgfill="none" transform="translate(1.6666666666666288, 45.0) translate(5.0, 141.66666666666663) translate(-1.1659935022249215, -6.995961013349529) translate(2.331987004449843, 3.4979805066747645) translate(-6.995961013349529, 0.0) translate(-318.31622610740294, -206.38084989381065) translate(279.8384405339806, 277.50645352953075) translate(-65,-56) translate(-135.7864793701172, -15.95862927246094) translate(-23.810883895874042, -7.293701173693989E-6) translate(-637.1092790527343, 18.13041815948486) translate(-8.82777467181677, 73.14441870934016) translate(21.25, 0.0) translate(670.0, -93.75) translate(12.5, 12.50006103515625)" fill="none" stroke-linejoin="round" d="   M431.787,486.437c-1.238,1.607-7.26,9.277-10.359,12.119c-4.74,4.348-10.104,3.113-13.99,1.455   c-11.189-4.77-23.025-10.645-34.594-17.348c-17.893-10.371-29.506-16.918-39.414-27.598c-9.262-9.98-8.57-10.807-11.057-29.172   c-0.113-0.826-0.322-2.66-0.465-3.773c-0.051-0.408,0.082-0.252,0.391,0.055c19.209,18.943,72.734,51.416,105.603,62.643   c0.916,0.313,2.41,0.779,3.768,1.182C432.085,486.123,431.9,486.289,431.787,486.437z" stroke="#000000" stroke-width="0.25" g2gstroke="#312783" stroke-miterlimit="10"/>
<path stroke-linecap="round" orgstroke="#000000" orgfill="none" transform="translate(1.6666666666666288, 45.0) translate(5.0, 141.66666666666663) translate(-1.1659935022249215, -6.995961013349529) translate(2.331987004449843, 3.4979805066747645) translate(-6.995961013349529, 0.0) translate(-318.31622610740294, -206.38084989381065) translate(279.8384405339806, 277.50645352953075) translate(-65,-56) translate(-135.7864793701172, -15.95862927246094) translate(-23.810883895874042, -7.293701173693989E-6) translate(-637.1092790527343, 18.13041815948486) translate(-8.82777467181677, 73.14441870934016) translate(21.25, 0.0) translate(670.0, -93.75) translate(12.5, 12.50006103515625)" fill="none" stroke-linejoin="round" d="   M330.375,426.691c-1.578-1.305-3.051-2.574-4.404-3.799" stroke="#000000" stroke-width="0.25" g2gstroke="#312783" stroke-miterlimit="10"/>
<path stroke-linecap="round" orgstroke="#000000" orgfill="none" transform="translate(1.6666666666666288, 45.0) translate(5.0, 141.66666666666663) translate(-1.1659935022249215, -6.995961013349529) translate(2.331987004449843, 3.4979805066747645) translate(-6.995961013349529, 0.0) translate(-318.31622610740294, -206.38084989381065) translate(279.8384405339806, 277.50645352953075) translate(-65,-56) translate(-135.7864793701172, -15.95862927246094) translate(-23.810883895874042, -7.293701173693989E-6) translate(-637.1092790527343, 18.13041815948486) translate(-8.82777467181677, 73.14441870934016) translate(21.25, 0.0) translate(670.0, -93.75) translate(12.5, 12.50006103515625)" fill="none" stroke-linejoin="round" d="   M350.848,441.785c-1.531-1.035-3.418-2.328-4.885-3.352" stroke="#000000" stroke-width="0.25" g2gstroke="#312783" stroke-miterlimit="10"/>
<path stroke-linecap="round" orgstroke="#000000" orgfill="none" transform="translate(1.6666666666666288, 45.0) translate(5.0, 141.66666666666663) translate(-1.1659935022249215, -6.995961013349529) translate(2.331987004449843, 3.4979805066747645) translate(-6.995961013349529, 0.0) translate(-318.31622610740294, -206.38084989381065) translate(279.8384405339806, 277.50645352953075) translate(-65,-56) translate(-135.7864793701172, -15.95862927246094) translate(-23.810883895874042, -7.293701173693989E-6) translate(-637.1092790527343, 18.13041815948486) translate(-8.82777467181677, 73.14441870934016) translate(21.25, 0.0) translate(670.0, -93.75) translate(12.5, 12.50006103515625)" fill="none" stroke-linejoin="round" d="   M373.764,456.199c-1.666-0.982-3.633-2.154-5.275-3.15" stroke="#000000" stroke-width="0.25" g2gstroke="#312783" stroke-miterlimit="10"/>
<path stroke-linecap="round" orgstroke="#000000" orgfill="none" transform="translate(1.6666666666666288, 45.0) translate(5.0, 141.66666666666663) translate(-1.1659935022249215, -6.995961013349529) translate(2.331987004449843, 3.4979805066747645) translate(-6.995961013349529, 0.0) translate(-318.31622610740294, -206.38084989381065) translate(279.8384405339806, 277.50645352953075) translate(-65,-56) translate(-135.7864793701172, -15.95862927246094) translate(-23.810883895874042, -7.293701173693989E-6) translate(-637.1092790527343, 18.13041815948486) translate(-8.82777467181677, 73.14441870934016) translate(21.25, 0.0) translate(670.0, -93.75) translate(12.5, 12.50006103515625)" fill="none" stroke-linejoin="round" d="   M401.043,471.019c-1.813-0.9-4.254-2.137-6.092-3.088" stroke="#000000" stroke-width="0.25" g2gstroke="#312783" stroke-miterlimit="10"/>
<path stroke-linecap="round" orgstroke="#000000" orgfill="none" transform="translate(1.6666666666666288, 45.0) translate(5.0, 141.66666666666663) translate(-1.1659935022249215, -6.995961013349529) translate(2.331987004449843, 3.4979805066747645) translate(-6.995961013349529, 0.0) translate(-318.31622610740294, -206.38084989381065) translate(279.8384405339806, 277.50645352953075) translate(-65,-56) translate(-135.7864793701172, -15.95862927246094) translate(-23.810883895874042, -7.293701173693989E-6) translate(-637.1092790527343, 18.13041815948486) translate(-8.82777467181677, 73.14441870934016) translate(21.25, 0.0) translate(670.0, -93.75) translate(12.5, 12.50006103515625)" fill="none" stroke-linejoin="round" d="   M434.648,485.607c0,0-9.223,11.85-12.691,15.029c-0.651,0.6-1.317,1.092-1.99,1.494" stroke="#000000" stroke-width="0.25" g2gstroke="#312783" stroke-miterlimit="10"/>
<path stroke-linecap="round" orgstroke="#000000" orgfill="none" transform="translate(1.6666666666666288, 45.0) translate(5.0, 141.66666666666663) translate(-1.1659935022249215, -6.995961013349529) translate(2.331987004449843, 3.4979805066747645) translate(-6.995961013349529, 0.0) translate(-318.31622610740294, -206.38084989381065) translate(279.8384405339806, 277.50645352953075) translate(-65,-56) translate(-135.7864793701172, -15.95862927246094) translate(-23.810883895874042, -7.293701173693989E-6) translate(-637.1092790527343, 18.13041815948486) translate(-8.82777467181677, 73.14441870934016) translate(21.25, 0.0) translate(670.0, -93.75) translate(12.5, 12.50006103515625)" fill="none" stroke-linejoin="round" d="   M428.812,482.937c-2.193-0.768-5.633-2.047-7.858-2.926" stroke="#000000" stroke-width="0.25" g2gstroke="#312783" stroke-miterlimit="10"/>
<path stroke-linecap="round" orgstroke="#000000" orgfill="none" transform="translate(1.6666666666666288, 45.0) translate(5.0, 141.66666666666663) translate(-1.1659935022249215, -6.995961013349529) translate(2.331987004449843, 3.4979805066747645) translate(-6.995961013349529, 0.0) translate(-318.31622610740294, -206.38084989381065) translate(279.8384405339806, 277.50645352953075) translate(-65,-56) translate(-135.7864793701172, -15.95862927246094) translate(-23.810883895874042, -7.293701173693989E-6) translate(-637.1092790527343, 18.13041815948486) translate(-8.82777467181677, 73.14441870934016) translate(21.25, 0.0) translate(670.0, -93.75) translate(12.5, 12.50006103515625)" fill="none" stroke-linejoin="round" d="   M323.131,422.98c0.309,2.234,0.742,5.582,0.977,7.369c1.834,13.996,1.982,15.139,10.154,23.945   c9.441,10.178,20.516,16.592,37.277,26.303l1.873,1.086c11.176,6.475,22.73,12.428,34.471,17.285   c3.764,1.559,9.174,2.342,12.689-1.125c2.88-2.838,8.974-10.188,10.306-12.051" stroke="#000000" stroke-width="0.25" g2gstroke="#312783" stroke-miterlimit="10"/>
<path stroke-linecap="round" orgstroke="#000000" orgfill="none" transform="translate(1.6666666666666288, 45.0) translate(5.0, 141.66666666666663) translate(-1.1659935022249215, -6.995961013349529) translate(2.331987004449843, 3.4979805066747645) translate(-6.995961013349529, 0.0) translate(-318.31622610740294, -206.38084989381065) translate(279.8384405339806, 277.50645352953075) translate(-65,-56) translate(-135.7864793701172, -15.95862927246094) translate(-23.810883895874042, -7.293701173693989E-6) translate(-637.1092790527343, 18.13041815948486) translate(-8.82777467181677, 73.14441870934016) translate(21.25, 0.0) translate(670.0, -93.75) translate(12.5, 12.50006103515625)" fill="none" stroke-linejoin="round" d="   M425.136,492.595c-30.505-10.957-77.306-38.338-99.204-57.004c-0.205-0.174-0.279-0.301-0.324-0.455   c-0.064-0.217-0.088-0.377-0.088-0.541c0-0.172,0.033-0.252,0.174-0.334l0.502-0.285c0.217-0.125,0.393-0.162,0.604,0.016   c22.225,18.855,69.477,46.393,99.827,57.086" stroke="#000000" stroke-width="0.25" g2gstroke="#312783" stroke-miterlimit="10"/>
<path stroke-linecap="round" orgstroke="#000000" orgfill="none" transform="translate(1.6666666666666288, 45.0) translate(5.0, 141.66666666666663) translate(-1.1659935022249215, -6.995961013349529) translate(2.331987004449843, 3.4979805066747645) translate(-6.995961013349529, 0.0) translate(-318.31622610740294, -206.38084989381065) translate(279.8384405339806, 277.50645352953075) translate(-65,-56) translate(-135.7864793701172, -15.95862927246094) translate(-23.810883895874042, -7.293701173693989E-6) translate(-637.1092790527343, 18.13041815948486) translate(-8.82777467181677, 73.14441870934016) translate(21.25, 0.0) translate(670.0, -93.75) translate(12.5, 12.50006103515625)" fill="none" stroke-linejoin="round" d="   M428.753,488.49c-31.13-10.443-82.056-40.18-103.802-59.473c-0.129-0.115-0.188-0.203-0.188-0.391   c-0.018-0.158-0.037-0.322-0.047-0.492c-0.014-0.213,0.064-0.264,0.223-0.355l0.459-0.264c0.217-0.125,0.426-0.09,0.594,0.057   c22.176,19.412,73.195,49.154,104.054,59.32" stroke="#000000" stroke-width="0.25" g2gstroke="#312783" stroke-miterlimit="10"/>
<path stroke-linecap="round" orgstroke="#000000" orgfill="none" transform="translate(1.6666666666666288, 45.0) translate(5.0, 141.66666666666663) translate(-1.1659935022249215, -6.995961013349529) translate(2.331987004449843, 3.4979805066747645) translate(-6.995961013349529, 0.0) translate(-318.31622610740294, -206.38084989381065) translate(279.8384405339806, 277.50645352953075) translate(-65,-56) translate(-135.7864793701172, -15.95862927246094) translate(-23.810883895874042, -7.293701173693989E-6) translate(-637.1092790527343, 18.13041815948486) translate(-8.82777467181677, 73.14441870934016) translate(21.25, 0.0) translate(670.0, -93.75) translate(12.5, 12.50006103515625)" fill="none" stroke-linejoin="round" d="   M421.691,496.699c-29.605-11.215-72.582-36.324-94.508-54.359c-0.227-0.186-0.289-0.416-0.289-0.416   c-0.059-0.211-0.117-0.426-0.174-0.645c-0.033-0.127-0.039-0.229,0.277-0.41l0.408-0.232c0.291-0.166,0.469-0.135,0.682,0.037   c22.217,18.166,65.533,43.422,95.043,54.441" stroke="#000000" stroke-width="0.25" g2gstroke="#312783" stroke-miterlimit="10"/>
<path stroke-linecap="round" orgstroke="#000000" orgfill="none" transform="translate(1.6666666666666288, 45.0) translate(5.0, 141.66666666666663) translate(-1.1659935022249215, -6.995961013349529) translate(2.331987004449843, 3.4979805066747645) translate(-6.995961013349529, 0.0) translate(-318.31622610740294, -206.38084989381065) translate(279.8384405339806, 277.50645352953075) translate(-65,-56) translate(-135.7864793701172, -15.95862927246094) translate(-23.810883895874042, -7.293701173693989E-6) translate(-637.1092790527343, 18.13041815948486) translate(-8.82777467181677, 73.14441870934016) translate(21.25, 0.0) translate(670.0, -93.75) translate(12.5, 12.50006103515625)" fill="none" stroke-linejoin="round" d="   M416.471,500.039c-25.33-10.301-58.521-29.252-80.508-45.275c-0.311-0.225-0.477-0.404-0.477-0.404   c-0.201-0.211-0.402-0.428-0.602-0.643c-0.549-0.592-1.061-1.145-1.539-1.672c-0.273-0.301-0.176-0.516,0.049-0.645l0.453-0.258   c0.133-0.076,0.322-0.104,0.563,0.074c22.365,16.672,58.516,37.229,84.834,47.689" stroke="#000000" stroke-width="0.25" g2gstroke="#312783" stroke-miterlimit="10"/>
<path stroke-linecap="round" orgstroke="#000000" orgfill="none" transform="translate(1.6666666666666288, 45.0) translate(5.0, 141.66666666666663) translate(-1.1659935022249215, -6.995961013349529) translate(2.331987004449843, 3.4979805066747645) translate(-6.995961013349529, 0.0) translate(-318.31622610740294, -206.38084989381065) translate(279.8384405339806, 277.50645352953075) translate(-65,-56) translate(-135.7864793701172, -15.95862927246094) translate(-23.810883895874042, -7.293701173693989E-6) translate(-637.1092790527343, 18.13041815948486) translate(-8.82777467181677, 73.14441870934016) translate(21.25, 0.0) translate(670.0, -93.75) translate(12.5, 12.50006103515625)" fill="none" stroke-linejoin="round" d="   M435.447,485.05l-0.531,0.311c-0.266,0.15-0.275,0.15-0.602,0.055c-1.609-0.479-5.012-1.471-6.414-1.949   c-33.07-11.293-87.145-44.189-106.043-63.078l-1.412-1.453" stroke="#000000" stroke-width="0.25" g2gstroke="#312783" stroke-miterlimit="10"/>
<path stroke-linecap="round" orgstroke="#000000" orgfill="none" transform="translate(1.6666666666666288, 45.0) translate(5.0, 141.66666666666663) translate(-1.1659935022249215, -6.995961013349529) translate(2.331987004449843, 3.4979805066747645) translate(-6.995961013349529, 0.0) translate(-318.31622610740294, -206.38084989381065) translate(279.8384405339806, 277.50645352953075) translate(-65,-56) translate(-135.7864793701172, -15.95862927246094) translate(-23.810883895874042, -7.293701173693989E-6) translate(-637.1092790527343, 18.13041815948486) translate(-8.82777467181677, 73.14441870934016) translate(21.25, 0.0) translate(670.0, -93.75) translate(12.5, 12.50006103515625)" fill="none" stroke-linejoin="round" d="   M325.67,427.439c-0.1-0.764-0.205-1.563-0.318-2.398" stroke="#000000" stroke-width="0.25" g2gstroke="#312783" stroke-miterlimit="10"/>
<path stroke-linecap="round" orgstroke="#000000" orgfill="none" transform="translate(1.6666666666666288, 45.0) translate(5.0, 141.66666666666663) translate(-1.1659935022249215, -6.995961013349529) translate(2.331987004449843, 3.4979805066747645) translate(-6.995961013349529, 0.0) translate(-318.31622610740294, -206.38084989381065) translate(279.8384405339806, 277.50645352953075) translate(-65,-56) translate(-135.7864793701172, -15.95862927246094) translate(-23.810883895874042, -7.293701173693989E-6) translate(-637.1092790527343, 18.13041815948486) translate(-8.82777467181677, 73.14441870934016) translate(21.25, 0.0) translate(670.0, -93.75) translate(12.5, 12.50006103515625)" fill="none" stroke-linejoin="round" d="   M326.531,433.873c-0.17-1.189-0.344-2.494-0.533-3.938" stroke="#000000" stroke-width="0.25" g2gstroke="#312783" stroke-miterlimit="10"/>
<path stroke-linecap="round" orgstroke="#000000" orgfill="none" transform="translate(1.6666666666666288, 45.0) translate(5.0, 141.66666666666663) translate(-1.1659935022249215, -6.995961013349529) translate(2.331987004449843, 3.4979805066747645) translate(-6.995961013349529, 0.0) translate(-318.31622610740294, -206.38084989381065) translate(279.8384405339806, 277.50645352953075) translate(-65,-56) translate(-135.7864793701172, -15.95862927246094) translate(-23.810883895874042, -7.293701173693989E-6) translate(-637.1092790527343, 18.13041815948486) translate(-8.82777467181677, 73.14441870934016) translate(21.25, 0.0) translate(670.0, -93.75) translate(12.5, 12.50006103515625)" fill="none" stroke-linejoin="round" d="   M327.773,440.527c-0.326-1.209-0.596-2.549-0.854-4.104" stroke="#000000" stroke-width="0.25" g2gstroke="#312783" stroke-miterlimit="10"/>
<path stroke-linecap="round" orgstroke="#000000" orgfill="none" transform="translate(1.6666666666666288, 45.0) translate(5.0, 141.66666666666663) translate(-1.1659935022249215, -6.995961013349529) translate(2.331987004449843, 3.4979805066747645) translate(-6.995961013349529, 0.0) translate(-318.31622610740294, -206.38084989381065) translate(279.8384405339806, 277.50645352953075) translate(-65,-56) translate(-135.7864793701172, -15.95862927246094) translate(-23.810883895874042, -7.293701173693989E-6) translate(-637.1092790527343, 18.13041815948486) translate(-8.82777467181677, 73.14441870934016) translate(21.25, 0.0) translate(670.0, -93.75) translate(12.5, 12.50006103515625)" fill="none" stroke-linejoin="round" d="   M334.096,451.083c-2.557-2.879-4.119-4.99-5.189-7.346" stroke="#000000" stroke-width="0.25" g2gstroke="#312783" stroke-miterlimit="10"/>
<path stroke-linecap="round" orgstroke="#000000" orgfill="none" transform="translate(1.6666666666666288, 45.0) translate(5.0, 141.66666666666663) translate(-1.1659935022249215, -6.995961013349529) translate(2.331987004449843, 3.4979805066747645) translate(-6.995961013349529, 0.0) translate(-318.31622610740294, -206.38084989381065) translate(279.8384405339806, 277.50645352953075) translate(-65,-56) translate(-135.7864793701172, -15.95862927246094) translate(-23.810883895874042, -7.293701173693989E-6) translate(-637.1092790527343, 18.13041815948486) translate(-8.82777467181677, 73.14441870934016) translate(21.25, 0.0) translate(670.0, -93.75) translate(12.5, 12.50006103515625)" fill="none" stroke-linejoin="round" d="   M416.33,499.98c-2.174-0.096-4.242-0.76-6.006-1.512c-11.191-4.771-23.025-10.645-34.596-17.348   c-14.637-8.486-25.072-14.41-33.811-22.133" stroke="#000000" stroke-width="0.25" g2gstroke="#312783" stroke-miterlimit="10"/>
<path stroke-linecap="round" orgstroke="#000000" orgfill="none" transform="translate(1.6666666666666288, 45.0) translate(5.0, 141.66666666666663) translate(-1.1659935022249215, -6.995961013349529) translate(2.331987004449843, 3.4979805066747645) translate(-6.995961013349529, 0.0) translate(-318.31622610740294, -206.38084989381065) translate(279.8384405339806, 277.50645352953075) translate(-65,-56) translate(-135.7864793701172, -15.95862927246094) translate(-23.810883895874042, -7.293701173693989E-6) translate(-637.1092790527343, 18.13041815948486) translate(-8.82777467181677, 73.14441870934016) translate(21.25, 0.0) translate(670.0, -93.75) translate(12.5, 12.50006103515625)" fill="none" stroke-linejoin="round" d="   M374.127,452.791c0.063,0.262-0.023,0.527-0.15,0.777c-0.408,0.811-1.104,2.004-1.104,2.004" stroke="#000000" stroke-width="0.25" g2gstroke="#312783" stroke-miterlimit="10"/>
<path orgstroke="#000000" orgfill="none" transform="translate(1.6666666666666288, 45.0) translate(5.0, 141.66666666666663) translate(-1.1659935022249215, -6.995961013349529) translate(2.331987004449843, 3.4979805066747645) translate(-6.995961013349529, 0.0) translate(-318.31622610740294, -206.38084989381065) translate(279.8384405339806, 277.50645352953075) translate(-65,-56) translate(-135.7864793701172, -15.95862927246094) translate(-23.810883895874042, -7.293701173693989E-6) translate(-637.1092790527343, 18.13041815948486) translate(-8.82777467181677, 73.14441870934016) translate(21.25, 0.0) translate(670.0, -93.75) translate(12.5, 12.50006103515625)" fill="none" d="M373.051,452.792   c0.217,0.162,0.154,0.391-0.141,0.506c-0.299,0.117-0.709,0.076-0.93-0.09c-0.215-0.162-0.154-0.391,0.141-0.506   C372.418,452.585,372.834,452.628,373.051,452.792z" stroke="#000000" stroke-width="0.25" g2gstroke="#312783" stroke-miterlimit="10"/>
<path stroke-linecap="round" orgstroke="#000000" orgfill="none" transform="translate(1.6666666666666288, 45.0) translate(5.0, 141.66666666666663) translate(-1.1659935022249215, -6.995961013349529) translate(2.331987004449843, 3.4979805066747645) translate(-6.995961013349529, 0.0) translate(-318.31622610740294, -206.38084989381065) translate(279.8384405339806, 277.50645352953075) translate(-65,-56) translate(-135.7864793701172, -15.95862927246094) translate(-23.810883895874042, -7.293701173693989E-6) translate(-637.1092790527343, 18.13041815948486) translate(-8.82777467181677, 73.14441870934016) translate(21.25, 0.0) translate(670.0, -93.75) translate(12.5, 12.50006103515625)" fill="none" stroke-linejoin="round" d="   M400.857,467.552c0.063,0.264-0.025,0.529-0.15,0.779c-0.336,0.666-0.867,1.594-1.045,1.9" stroke="#000000" stroke-width="0.25" g2gstroke="#312783" stroke-miterlimit="10"/>
<path orgstroke="#000000" orgfill="none" transform="translate(1.6666666666666288, 45.0) translate(5.0, 141.66666666666663) translate(-1.1659935022249215, -6.995961013349529) translate(2.331987004449843, 3.4979805066747645) translate(-6.995961013349529, 0.0) translate(-318.31622610740294, -206.38084989381065) translate(279.8384405339806, 277.50645352953075) translate(-65,-56) translate(-135.7864793701172, -15.95862927246094) translate(-23.810883895874042, -7.293701173693989E-6) translate(-637.1092790527343, 18.13041815948486) translate(-8.82777467181677, 73.14441870934016) translate(21.25, 0.0) translate(670.0, -93.75) translate(12.5, 12.50006103515625)" fill="none" d="M399.781,467.554   c0.215,0.164,0.152,0.393-0.143,0.506c-0.297,0.117-0.707,0.076-0.928-0.088c-0.217-0.164-0.156-0.391,0.141-0.508   C399.146,467.347,399.564,467.39,399.781,467.554z" stroke="#000000" stroke-width="0.25" g2gstroke="#312783" stroke-miterlimit="10"/>
<path stroke-linecap="round" orgstroke="#000000" orgfill="none" transform="translate(1.6666666666666288, 45.0) translate(5.0, 141.66666666666663) translate(-1.1659935022249215, -6.995961013349529) translate(2.331987004449843, 3.4979805066747645) translate(-6.995961013349529, 0.0) translate(-318.31622610740294, -206.38084989381065) translate(279.8384405339806, 277.50645352953075) translate(-65,-56) translate(-135.7864793701172, -15.95862927246094) translate(-23.810883895874042, -7.293701173693989E-6) translate(-637.1092790527343, 18.13041815948486) translate(-8.82777467181677, 73.14441870934016) translate(21.25, 0.0) translate(670.0, -93.75) translate(12.5, 12.50006103515625)" fill="none" stroke-linejoin="round" d="   M428.574,479.646c0.063,0.262-0.025,0.529-0.15,0.779c-0.408,0.809-1.104,2.002-1.104,2.002" stroke="#000000" stroke-width="0.25" g2gstroke="#312783" stroke-miterlimit="10"/>
<path orgstroke="#000000" orgfill="none" transform="translate(1.6666666666666288, 45.0) translate(5.0, 141.66666666666663) translate(-1.1659935022249215, -6.995961013349529) translate(2.331987004449843, 3.4979805066747645) translate(-6.995961013349529, 0.0) translate(-318.31622610740294, -206.38084989381065) translate(279.8384405339806, 277.50645352953075) translate(-65,-56) translate(-135.7864793701172, -15.95862927246094) translate(-23.810883895874042, -7.293701173693989E-6) translate(-637.1092790527343, 18.13041815948486) translate(-8.82777467181677, 73.14441870934016) translate(21.25, 0.0) translate(670.0, -93.75) translate(12.5, 12.50006103515625)" fill="none" d="M427.498,479.648   c0.215,0.164,0.152,0.391-0.143,0.506c-0.297,0.117-0.707,0.076-0.928-0.088c-0.217-0.164-0.156-0.391,0.141-0.508   C426.863,479.441,427.281,479.484,427.498,479.648z" stroke="#000000" stroke-width="0.25" g2gstroke="#312783" stroke-miterlimit="10"/>
<path stroke-linecap="round" orgstroke="#000000" orgfill="none" transform="translate(1.6666666666666288, 45.0) translate(5.0, 141.66666666666663) translate(-1.1659935022249215, -6.995961013349529) translate(2.331987004449843, 3.4979805066747645) translate(-6.995961013349529, 0.0) translate(-318.31622610740294, -206.38084989381065) translate(279.8384405339806, 277.50645352953075) translate(-65,-56) translate(-135.7864793701172, -15.95862927246094) translate(-23.810883895874042, -7.293701173693989E-6) translate(-637.1092790527343, 18.13041815948486) translate(-8.82777467181677, 73.14441870934016) translate(21.25, 0.0) translate(670.0, -93.75) translate(12.5, 12.50006103515625)" fill="none" stroke-linejoin="round" d="   M351.201,438.339c0.063,0.262-0.025,0.529-0.15,0.779c-0.408,0.809-1.104,2.002-1.104,2.002" stroke="#000000" stroke-width="0.25" g2gstroke="#312783" stroke-miterlimit="10"/>
<path orgstroke="#000000" orgfill="none" transform="translate(1.6666666666666288, 45.0) translate(5.0, 141.66666666666663) translate(-1.1659935022249215, -6.995961013349529) translate(2.331987004449843, 3.4979805066747645) translate(-6.995961013349529, 0.0) translate(-318.31622610740294, -206.38084989381065) translate(279.8384405339806, 277.50645352953075) translate(-65,-56) translate(-135.7864793701172, -15.95862927246094) translate(-23.810883895874042, -7.293701173693989E-6) translate(-637.1092790527343, 18.13041815948486) translate(-8.82777467181677, 73.14441870934016) translate(21.25, 0.0) translate(670.0, -93.75) translate(12.5, 12.50006103515625)" fill="none" d="M350.125,438.341   c0.215,0.164,0.152,0.393-0.143,0.506c-0.297,0.117-0.707,0.076-0.928-0.088c-0.217-0.164-0.156-0.391,0.141-0.508   C349.49,438.134,349.908,438.177,350.125,438.341z" stroke="#000000" stroke-width="0.25" g2gstroke="#312783" stroke-miterlimit="10"/>
<path stroke-linecap="round" orgstroke="#000000" orgfill="none" transform="translate(1.6666666666666288, 45.0) translate(5.0, 141.66666666666663) translate(-1.1659935022249215, -6.995961013349529) translate(2.331987004449843, 3.4979805066747645) translate(-6.995961013349529, 0.0) translate(-318.31622610740294, -206.38084989381065) translate(279.8384405339806, 277.50645352953075) translate(-65,-56) translate(-135.7864793701172, -15.95862927246094) translate(-23.810883895874042, -7.293701173693989E-6) translate(-637.1092790527343, 18.13041815948486) translate(-8.82777467181677, 73.14441870934016) translate(21.25, 0.0) translate(670.0, -93.75) translate(12.5, 12.50006103515625)" fill="none" stroke-linejoin="round" d="   M331.504,422.642c0.063,0.264-0.023,0.527-0.15,0.777c-0.408,0.813-1.527,2.74-1.527,2.74" stroke="#000000" stroke-width="0.25" g2gstroke="#312783" stroke-miterlimit="10"/>
<path orgstroke="#000000" orgfill="none" transform="translate(1.6666666666666288, 45.0) translate(5.0, 141.66666666666663) translate(-1.1659935022249215, -6.995961013349529) translate(2.331987004449843, 3.4979805066747645) translate(-6.995961013349529, 0.0) translate(-318.31622610740294, -206.38084989381065) translate(279.8384405339806, 277.50645352953075) translate(-65,-56) translate(-135.7864793701172, -15.95862927246094) translate(-23.810883895874042, -7.293701173693989E-6) translate(-637.1092790527343, 18.13041815948486) translate(-8.82777467181677, 73.14441870934016) translate(21.25, 0.0) translate(670.0, -93.75) translate(12.5, 12.50006103515625)" fill="none" d="M330.428,422.644   c0.217,0.162,0.154,0.393-0.141,0.508c-0.299,0.115-0.709,0.074-0.93-0.092c-0.215-0.16-0.154-0.391,0.141-0.506   C329.795,422.437,330.211,422.48,330.428,422.644z" stroke="#000000" stroke-width="0.25" g2gstroke="#312783" stroke-miterlimit="10"/>
</g>
</g>
</g>
</g>
</g>
</g></svg>