<svg xmlns="http://www.w3.org/2000/svg" xmlns:xlink="http://www.w3.org/1999/xlink" xmlns:etg="http://www.eurotaxglass.com/etg/evd/" etg:dataTimestamp="1539068912893" contentScriptType="text/ecmascript" zoomAndPan="magnify" contentStyleType="text/css" id="Layer_1" style="enable-background:new 0 0 841.891 595.279;" enable-background="new 0 0 1841.891 1595.279" version="1.1" xml:space="preserve" width="1841.891px" preserveAspectRatio="xMidYMid meet" viewBox="0 0 1841.891 1595.279" height="1595.279px" x="0px" y="0px"><g xmlns="http://www.w3.org/2000/svg" objecttype="PS" tooltip="#UNDEFINED" id="17">
<g onmouseover="notifyOwner(AGV_OBJECT_MOUSEOVER, '17(PS)')" transform="translate(32.51611243057249, -6.830272338867189) translate(33.7702661590576, 18.912113525390623)" onclick="clickZoom(evt); notifyOwner(AGV_OBJECT_MOUSECLICK, '17(PS)')" onmouseout="notifyOwner(AGV_OBJECT_MOUSEOUT, '17(PS)')" tooltip="#UNDEFINED" id="17-Graphic" objecttype="GRAPHIC">
<g>
	<polygon orgstroke="#000000" orgfill="#ffffff" points="251.128,380.789 250.759,384.691    249.865,387.638 248.935,389.344 248.107,390.062 234.922,395.969 234.579,396.028 234.36,395.934 233.891,395.623    233.807,395.393 233.86,395.184 235.494,393.12 236.934,390.844 236.796,390.519 236.266,389.059 235.766,387.309 235.391,384.684    235.016,382.684 234.766,380.059 234.766,379.309 235.141,378.809 242.766,375.434 243.391,375.184 244.392,375.559    248.417,379.45 249.089,379.135 249.837,379.26 250.671,379.802  " fill="#ffffff" g2gfill="#ECC35D" outline-element="true" stroke="#000000" stroke-width="0.5" g2gstroke="#312783" stroke-miterlimit="10"/>
	<polyline orgstroke="#000000" orgfill="none" points="238.183,389.824 237.629,391.492    236.328,393.66 234.641,395.934  " fill="none" stroke="#000000" stroke-width="0.25" g2gstroke="#312783" stroke-miterlimit="10"/>
	<polyline orgstroke="#000000" orgfill="none" points="243.288,382.857 239.585,384.636    239.041,384.896 238.79,385.427 238.79,385.742 238.641,387.179  " fill="none" stroke="#000000" stroke-width="0.25" g2gstroke="#312783" stroke-miterlimit="10"/>
	<polyline orgstroke="#000000" orgfill="none" points="250.331,379.677 249.923,379.677    246.112,381.51  " fill="none" stroke="#000000" stroke-width="0.25" g2gstroke="#312783" stroke-miterlimit="10"/>
	<polyline orgstroke="#000000" orgfill="none" points="251.128,380.789 250.943,380.322    250.808,379.995 250.671,379.802  " fill="none" stroke="#000000" stroke-width="0.25" g2gstroke="#312783" stroke-miterlimit="10"/>
	<polyline orgstroke="#000000" orgfill="none" points="248.227,379.552 238.751,384.096    238.207,384.357 237.956,384.885 237.956,385.202 237.616,388.478 236.934,390.532  " fill="none" stroke="#000000" stroke-width="0.25" g2gstroke="#312783" stroke-miterlimit="10"/>
	<polyline orgstroke="#000000" orgfill="none" points="236.016,379.248 236.495,380.094    239.37,383.719  " fill="none" stroke="#000000" stroke-width="0.25" g2gstroke="#312783" stroke-miterlimit="10"/>
	<polyline orgstroke="#000000" orgfill="none" points="235.043,379.248 235.522,380.451    238.397,384.076  " fill="none" stroke="#000000" stroke-width="0.25" g2gstroke="#312783" stroke-miterlimit="10"/>
	<polyline orgstroke="#000000" orgfill="none" points="240.397,377.324 242.644,376.344    243.269,376.094 244.269,376.469 247.692,379.802  " fill="none" stroke="#000000" stroke-width="0.25" g2gstroke="#312783" stroke-miterlimit="10"/>
	
		<line orgstroke="#000000" orgfill="none" fill="none" x1="236.016" x2="238.772" y1="379.248" y2="378.039" stroke="#000000" stroke-width="0.25" g2gstroke="#312783" stroke-miterlimit="10"/>
	<polyline orgstroke="#000000" orgfill="none" points="243.269,376.094 243.516,377.809    243.767,379.434 244.577,381.302  " fill="none" stroke="#000000" stroke-width="0.25" g2gstroke="#312783" stroke-miterlimit="10"/>
</g>
</g>
</g></svg>