<svg xmlns="http://www.w3.org/2000/svg" xmlns:xlink="http://www.w3.org/1999/xlink" xmlns:etg="http://www.eurotaxglass.com/etg/evd/" etg:dataTimestamp="1539068912893" contentScriptType="text/ecmascript" zoomAndPan="magnify" contentStyleType="text/css" id="Layer_1" style="enable-background:new 0 0 841.891 595.279;" enable-background="new 0 0 1841.891 1595.279" version="1.1" xml:space="preserve" width="1841.891px" preserveAspectRatio="xMidYMid meet" viewBox="0 0 1841.891 1595.279" height="1595.279px" x="0px" y="0px"><g xmlns="http://www.w3.org/2000/svg" objecttype="PS" tooltip="#UNDEFINED" id="2">
<g onmouseover="notifyOwner(AGV_OBJECT_MOUSEOVER, '2(PS)')" transform="translate(32.51611243057249, -6.830272338867189) translate(33.7702661590576, 18.912113525390623)" onclick="clickZoom(evt); notifyOwner(AGV_OBJECT_MOUSECLICK, '2(PS)')" onmouseout="notifyOwner(AGV_OBJECT_MOUSEOUT, '2(PS)')" tooltip="#UNDEFINED" id="2-Graphic" objecttype="GRAPHIC">
<g>
	<g>
		<g id="2::XMLID_9_">
			<g>
				<path orgstroke="#000000" orgfill="#ffffff" fill="#ffffff" g2gfill="#ECC35D" d="M398.558,219.892l0.24,3.521l-0.32,4.24      l-0.34,1.22l-3.021,3.54l-1.899,1.859l-0.431,2.479l-0.229,2.98l-0.33,4.489l0.729,3.811l-0.271,3.479l-0.43,2.479l-0.813,0.7      l-12.561,10.6l-2.529,0.32l-4.789,0.395l-12.229-0.643l-1.29,0.397l-0.05,0.731l-0.65,5.229l-1.05,0.681l-6.091,1.062      l-2.609,1.313l-0.59,1.211l-0.83,4.449l-0.84,1.188l-11.29,6.939l-1.36,1.396l0.33,2.271l0.32,2.52l0.1,5.281l-0.1,4.77      l-1.04,3.86l-1.42,2.349l-1.9,2.771l-3.81,3.199l-4.19,2.541l-7.3,4.391l-6.021,2.818l-5.649,1.84l-4.58,0.922l-1.05,0.67      l-12.431,5.359l-2.069,0.85l-9.53,0.061l-1.271,0.396l-9.359,1.063l-11.67,1.896l-4.391,1.689l-1.771,0.104l-13.29,0.029      l-2.449-0.689l-3.351,1.271l-19.86,10.811l-1.854,1.609l-0.354,1.229l0.11,2.021l-1.36,1.396l-16.159,11.854l-2.563,1.063      l-3.829,0.979l-2.53,0.063l-2.931-0.973l-1.229-0.352l-1.89-1.646l-0.12-1.76l0.91-49.819l-0.104-2.011l-1.176-0.83      l-6.091-2.459l-3.601-2.277l-2.979-3.723l-2.729-3.711l-0.92-1.316l-0.5-0.313l-0.569-0.25h-0.681h-1.189l-1.688-0.438      l-0.5-0.313l-0.37-0.438l0.104-0.688l0.521-2.148c31.29-54.987,148.891-113.5,194.92-119.79l2.381-0.199l0.521,0.039      l0.601,0.063l1.35,0.438l1.95,0.649l1.479,0.351l3.71,4.029l0.641,1.551l0.479,3.813l0.59,3.3l0.896,0.32l4.422,1.313      l3.658,1.279l3.37,2l2.189,0.9l2.188,0.67l3.813-0.479l3.721,0.521l3.479,1.67l2.028,1.738l3.29,3l3.13,3.484l2.521,3.854      l1.88,4.646L398.558,219.892z M391.488,220.632l-0.34-2.271l-0.938-3.12l-1.8-3.854l-1-1.854l-0.438-0.479l-0.561-0.063      l-10.189,4.261l-1.641,1.88l-0.649,1.96l0.813,2.569l0.841,2.313l2.605,5.475l1.574,3.563l0.729,0.285l1.21-0.574l8.646-5.516      l0.909-1.688L391.488,220.632z M310.818,290.522l-9.54-22.646l-1.33-3.76l-0.42-0.2l-19.811,10.646l-0.319,0.62l2.313,3.021      l2.26,3.438l3.311,6.26l2.313,6.188l2.229,7.682l0.688,0.42l17.58-10.602L310.818,290.522z M248.868,298.453l-0.33-2.281      l-0.779-3.063l-1.189-3.979l-0.896-2.57l-0.33-0.149l-0.779,0.63l-10,8.79l-6.181,6.73l-1.109,1.27l-0.431,1.31l-0.46,1.802      l-0.3,3.989l1.063,2.062l0.42,0.188l12.27-6.569l6.561-3.881l1.779-1.539L248.868,298.453z M218.788,326.742l-0.899-3.396      l-2.38-5.109l-2.601-5.459l-1.819-1.891h-0.563l-2.479,1.039l-9.146,6.381l-1.271,1.41l-0.2,2.75l1.16,2.039l1.813,2.646      l1.354,2.104l1.3,2.852l0.96,2.35l0.189,0.479l4.98-2.354l5.729-2.84l3.271-1.813L218.788,326.742z M195.318,338.302      l-0.52-3.289l-1.63-1.631l-5.854-2.189l-1.521,0.148l-5.518,3.352l-0.522,0.369l-0.521,0.371l0.063,19.459l2.646,1.479      l1.479,0.354l2.029-0.354l3.771-0.229l2.87-1.471l0.851-0.854l0.399-0.51l-0.489-1.92l1.771-3.631l0.646-1.961l-1.061-2.85      l-0.063-2.52L195.318,338.302z" outline-element="true" stroke="#000000" stroke-width="0.5" g2gstroke="#312783" stroke-miterlimit="10"/>
			</g>
		</g>
	</g>
	<path orgstroke="#000000" orgfill="none" fill="none" d="M247.638,219.383   c37.813-21.104,77.396-36.798,99.938-40.854" stroke="#000000" stroke-width="0.25" g2gstroke="#312783" stroke-miterlimit="10"/>
	<path orgstroke="#000000" orgfill="none" fill="none" d="M228.385,230.733   c3.376-2.104,6.796-4.167,10.243-6.188" stroke="#000000" stroke-width="0.25" g2gstroke="#312783" stroke-miterlimit="10"/>
	<path orgstroke="#000000" orgfill="none" fill="none" d="M156.93,295.365   c10.998-20.049,34.771-40.641,62.481-58.892" stroke="#000000" stroke-width="0.25" g2gstroke="#312783" stroke-miterlimit="10"/>
	<path orgstroke="#000000" orgfill="none" fill="none" d="M168.874,305.927   c29.271-54.898,143.097-108.438,188.458-113.889" stroke="#000000" stroke-width="0.25" g2gstroke="#312783" stroke-miterlimit="10"/>
	<path orgstroke="#000000" orgfill="none" fill="none" d="M308.027,209.521   c20.229-8.053,38.46-13.354,51.271-14.896" stroke="#000000" stroke-width="0.25" g2gstroke="#312783" stroke-miterlimit="10"/>
	<path orgstroke="#000000" orgfill="none" fill="none" d="M294.506,215.188   c1.407-0.62,2.813-1.229,4.213-1.826" stroke="#000000" stroke-width="0.25" g2gstroke="#312783" stroke-miterlimit="10"/>
	<path orgstroke="#000000" orgfill="none" fill="none" d="M171.32,307.617   c19.188-36.009,74.563-71.041,123.188-92.433" stroke="#000000" stroke-width="0.25" g2gstroke="#312783" stroke-miterlimit="10"/>
	<path orgstroke="#000000" orgfill="none" fill="none" d="M315.562,242.813   c-3.953-2.993-10.728-6.34-17.257-6.34c-23.841-1.691-87.594,33.604-87.594,33.604" stroke="#000000" stroke-width="0.25" g2gstroke="#312783" stroke-miterlimit="10"/>
	<path orgstroke="#000000" orgfill="none" fill="none" d="M175.702,309.187   c5.353-10.033,12.771-18.648,22.849-28.314" stroke="#000000" stroke-width="0.25" g2gstroke="#312783" stroke-miterlimit="10"/>
	<polyline orgstroke="#000000" orgfill="none" points="324.193,264.938 322.434,259.667    320.04,254.729 318.015,251.571 315.562,248.051  " fill="none" stroke="#000000" stroke-width="0.25" g2gstroke="#312783" stroke-miterlimit="10"/>
	<polyline orgstroke="#000000" orgfill="none" points="292.106,302.828 292.768,305.115    295.154,313.562 297.741,319.267 299.286,322.138 300.404,323.974 302.824,325.158 305.621,324.613 309.546,322.392    324.989,313.498 327.381,311.677 329.576,309.076 331.19,304.181 331.326,298.927 330.915,294.3 329.483,286.507 327.844,278.115    325.991,271.245  " fill="none" stroke="#000000" stroke-width="0.25" g2gstroke="#312783" stroke-miterlimit="10"/>
	<polyline orgstroke="#000000" orgfill="none" points="394.636,216.31 395.577,219.427    395.911,221.707 395.7,224.575 394.792,226.265 386.146,231.77 384.327,232.637 382.276,233.238 381.317,232.666 379.76,231.309     " fill="none" stroke="#000000" stroke-width="0.25" g2gstroke="#312783" stroke-miterlimit="10"/>
	<polyline orgstroke="#000000" orgfill="none" points="356.381,255.927 331.509,272.616    330.4,274.041 330.327,275.037  " fill="none" stroke="#000000" stroke-width="0.25" g2gstroke="#312783" stroke-miterlimit="10"/>
	
		<line orgstroke="#000000" orgfill="none" fill="none" x1="371.96" x2="359.908" y1="245.469" y2="253.557" stroke="#000000" stroke-width="0.25" g2gstroke="#312783" stroke-miterlimit="10"/>
	
		<line orgstroke="#000000" orgfill="none" fill="none" x1="398.489" x2="377.181" y1="227.663" y2="241.964" stroke="#000000" stroke-width="0.25" g2gstroke="#312783" stroke-miterlimit="10"/>
	
		<line orgstroke="#000000" orgfill="none" fill="none" x1="395.489" x2="329.756" y1="230.952" y2="275.998" stroke="#000000" stroke-width="0.25" g2gstroke="#312783" stroke-miterlimit="10"/>
	<polyline orgstroke="#000000" orgfill="none" points="384.824,238.27 384.279,250.433    383.135,252.354 373.481,260.917 372.216,261.075 361.402,261.533  " fill="none" stroke="#000000" stroke-width="0.25" g2gstroke="#312783" stroke-miterlimit="10"/>
	<polyline orgstroke="#000000" orgfill="none" points="375.944,258.091 374.679,258.248    363.866,258.705  " fill="none" stroke="#000000" stroke-width="0.25" g2gstroke="#312783" stroke-miterlimit="10"/>
	<polyline orgstroke="#000000" orgfill="none" points="391.028,234.015 390.267,240.596    389.706,244.815 390.769,247.4 390.89,249.163 389.969,254.862  " fill="none" stroke="#000000" stroke-width="0.25" g2gstroke="#312783" stroke-miterlimit="10"/>
	<polyline orgstroke="#000000" orgfill="none" points="383.971,244.394 354.644,264.795    353.86,265.24 351.829,265.591  " fill="none" stroke="#000000" stroke-width="0.25" g2gstroke="#312783" stroke-miterlimit="10"/>
	<polyline orgstroke="#000000" orgfill="none" points="377.771,243.501 377.554,246.428    378.249,247.231 379.413,247.564  " fill="none" stroke="#000000" stroke-width="0.25" g2gstroke="#312783" stroke-miterlimit="10"/>
	
		<line orgstroke="#000000" orgfill="none" fill="none" x1="377.554" x2="342.698" y1="246.428" y2="270.435" stroke="#000000" stroke-width="0.25" g2gstroke="#312783" stroke-miterlimit="10"/>
	<polyline orgstroke="#000000" orgfill="none" points="341.913,267.704 341.999,273.14    342.452,277.185 342.131,278.162 340.772,279.567 331.705,285.166  " fill="none" stroke="#000000" stroke-width="0.25" g2gstroke="#312783" stroke-miterlimit="10"/>
	<polyline orgstroke="#000000" orgfill="none" points="339.528,269.971 339.642,273.851    340.048,276.74 339.79,277.437 338.688,278.428 331.294,282.353  " fill="none" stroke="#000000" stroke-width="0.25" g2gstroke="#312783" stroke-miterlimit="10"/>
	
		<line orgstroke="#000000" orgfill="none" fill="none" x1="346.65" x2="332.411" y1="278.162" y2="287.601" stroke="#000000" stroke-width="0.25" g2gstroke="#312783" stroke-miterlimit="10"/>
	<polyline orgstroke="#000000" orgfill="none" points="314.093,252.834 312.551,250.918    308.108,247.927  " fill="none" stroke="#000000" stroke-width="0.25" g2gstroke="#312783" stroke-miterlimit="10"/>
	
		<line orgstroke="#000000" orgfill="none" fill="none" x1="311.822" x2="304.341" y1="250.428" y2="249.841" stroke="#000000" stroke-width="0.25" g2gstroke="#312783" stroke-miterlimit="10"/>
	
		<line orgstroke="#000000" orgfill="none" fill="none" x1="287.091" x2="288.47" y1="257.731" y2="265.55" stroke="#000000" stroke-width="0.25" g2gstroke="#312783" stroke-miterlimit="10"/>
	
		<line orgstroke="#000000" orgfill="none" fill="none" x1="283.626" x2="288.37" y1="259.717" y2="265.492" stroke="#000000" stroke-width="0.25" g2gstroke="#312783" stroke-miterlimit="10"/>
	<polyline orgstroke="#000000" orgfill="none" points="311.092,291.169 312.513,292.277    322.924,297.305  " fill="none" stroke="#000000" stroke-width="0.25" g2gstroke="#312783" stroke-miterlimit="10"/>
	<polyline orgstroke="#000000" orgfill="none" points="296.856,252.602 296.247,261.248    297.291,261.985  " fill="none" stroke="#000000" stroke-width="0.25" g2gstroke="#312783" stroke-miterlimit="10"/>
	
		<line orgstroke="#000000" orgfill="none" fill="none" x1="296.892" x2="296.856" y1="252.087" y2="252.602" stroke="#000000" stroke-width="0.25" g2gstroke="#312783" stroke-miterlimit="10"/>
	
		<line orgstroke="#000000" orgfill="none" fill="none" x1="296.247" x2="277.415" y1="261.248" y2="271.896" stroke="#000000" stroke-width="0.25" g2gstroke="#312783" stroke-miterlimit="10"/>
	<polyline orgstroke="#000000" orgfill="none" points="309.93,255.044 309.568,253.957    306.852,249.996  " fill="none" stroke="#000000" stroke-width="0.25" g2gstroke="#312783" stroke-miterlimit="10"/>
	<polyline orgstroke="#000000" orgfill="none" points="299.628,320.908 322.421,307.552    322.779,306.072 323.48,303.365 323.201,300.332 322.924,297.305 322.624,287.756 322.574,284.995 322.667,283.748    322.667,283.748 321.494,282.659 320.589,281.34 316.262,271.997 316.056,267.972 315.401,266.669 314.191,266.079    311.883,263.403 311.779,261.39 310.825,257.89  " fill="none" stroke="#000000" stroke-width="0.25" g2gstroke="#312783" stroke-miterlimit="10"/>
	
		<line orgstroke="#000000" orgfill="none" fill="none" x1="306.771" x2="311.883" y1="259.877" y2="263.403" stroke="#000000" stroke-width="0.25" g2gstroke="#312783" stroke-miterlimit="10"/>
	
		<line orgstroke="#000000" orgfill="none" fill="none" x1="296.827" x2="304.267" y1="253.021" y2="258.151" stroke="#000000" stroke-width="0.25" g2gstroke="#312783" stroke-miterlimit="10"/>
	
		<line orgstroke="#000000" orgfill="none" fill="none" x1="302.467" x2="306.326" y1="268.726" y2="270.765" stroke="#000000" stroke-width="0.25" g2gstroke="#312783" stroke-miterlimit="10"/>
	<polyline orgstroke="#000000" orgfill="none" points="181.714,311.98 202.123,296.936    203.194,296.012 204.053,294.571 204.374,293.591 204.254,291.828 202.656,289.705 201.113,286.834 199.857,284.297    199.522,281.201 201.081,277.462 203.913,274.757 208.874,272.052 214.899,269.8 221.186,267.832 228.698,266.765 237.936,266.733    248.428,267.254 256.619,268.359 266.306,269.574 269.491,270.561 271.972,271.777 273.333,272.849 274.203,274.666    274.343,276.182 274.371,279.191 275.434,281.777 280.132,292.901 280.964,295.219 281.277,297.748 280.688,298.957    279.366,299.865 275.158,302.566  " fill="none" stroke="#000000" stroke-width="0.25" g2gstroke="#312783" stroke-miterlimit="10"/>
	<polyline orgstroke="#000000" orgfill="none" points="202.522,297.467 210.38,300.552    216.698,303.277 222.194,306.941 226.055,311.236  " fill="none" stroke="#000000" stroke-width="0.25" g2gstroke="#312783" stroke-miterlimit="10"/>
	<polyline orgstroke="#000000" orgfill="none" points="259.571,275.93 252.542,280.593    245.831,285.991  " fill="none" stroke="#000000" stroke-width="0.25" g2gstroke="#312783" stroke-miterlimit="10"/>
	<polyline orgstroke="#000000" orgfill="none" points="270.915,271.493 267.12,272.141    263.999,273.664 262.085,274.644  " fill="none" stroke="#000000" stroke-width="0.25" g2gstroke="#312783" stroke-miterlimit="10"/>
	<polyline orgstroke="#000000" orgfill="none" points="250.341,283.271 260.636,277.346    264.262,275.773 266.675,274.782 268.466,274.714 269.942,275.241 270.934,276.224 271.157,277.45 270.998,279.612 271.337,281.81    272.509,284.068 276.749,294.575 276.933,296.594 276.671,297.91 273.587,301.197  " fill="none" stroke="#000000" stroke-width="0.25" g2gstroke="#312783" stroke-miterlimit="10"/>
	<polyline orgstroke="#000000" orgfill="none" points="297.488,329.529 295.355,327.865    293.701,326.49 291.64,323.828 290.079,321.207 288.183,316.306 286.094,310.638 285.031,308.052 283.737,305.199 282.6,303.615    281.39,303.025 280.412,302.699 273.163,302.427  " fill="none" stroke="#000000" stroke-width="0.25" g2gstroke="#312783" stroke-miterlimit="10"/>
	<polyline orgstroke="#000000" orgfill="none" points="227.361,313.385 228.415,315.427    229.729,319.244 230.442,320.885 231.598,322.019 233.462,322.431 235.146,321.677 237.25,320.326 237.999,320.385    238.241,323.908 237.419,324.853 234.567,326.15 229.628,328.539 222.28,333.013 216.288,336.08 210.047,339.135 205.107,341.529    202.522,342.594 201.774,342.533 200.261,342.677 198.82,341.818 197.544,338.719 196.749,335.9 195.049,331.761 193.237,329.119    191.409,326.73 188.849,324.033 185.79,321.302 183.489,319.094 181.126,317.117 181.119,315.533 180.874,313.177  " fill="none" stroke="#000000" stroke-width="0.25" g2gstroke="#312783" stroke-miterlimit="10"/>
	<polyline orgstroke="#000000" orgfill="none" points="197.435,328.351 199.829,332.658    201.023,335.719 202.578,341.851  " fill="none" stroke="#000000" stroke-width="0.25" g2gstroke="#312783" stroke-miterlimit="10"/>
	<polyline orgstroke="#000000" orgfill="none" points="191.137,320.197 193.714,322.638    195.39,325.219  " fill="none" stroke="#000000" stroke-width="0.25" g2gstroke="#312783" stroke-miterlimit="10"/>
	<polyline orgstroke="#000000" orgfill="none" points="181.834,313.742 185.616,315.529    188.098,317.219  " fill="none" stroke="#000000" stroke-width="0.25" g2gstroke="#312783" stroke-miterlimit="10"/>
	<polyline orgstroke="#000000" orgfill="none" points="221.93,322.867 222.661,324.435    223.563,327.844 222.951,329.01 219.684,330.82 213.96,333.658 207.987,336.474 205.813,337.07 204.746,336.238 204.746,336.238    204.355,335.283  " fill="none" stroke="#000000" stroke-width="0.25" g2gstroke="#312783" stroke-miterlimit="10"/>
	<polyline orgstroke="#000000" orgfill="none" points="211.391,310.65 212.407,310.478    214.153,310.609 215.344,311.449 217.672,313.871 219.587,317.885  " fill="none" stroke="#000000" stroke-width="0.25" g2gstroke="#312783" stroke-miterlimit="10"/>
	<polyline orgstroke="#000000" orgfill="none" points="251.186,284.253 254.248,293.753    255.099,295.823 255.809,296.375 257.786,296.771 275.939,295.351  " fill="none" stroke="#000000" stroke-width="0.25" g2gstroke="#312783" stroke-miterlimit="10"/>
	<polyline orgstroke="#000000" orgfill="none" points="247.344,285.392 249.038,289.61    250.203,294.207 250.981,297.273 251.314,299.554 250.614,302.26 248.829,303.802 242.277,307.685 228.291,315.177  " fill="none" stroke="#000000" stroke-width="0.25" g2gstroke="#312783" stroke-miterlimit="10"/>
	
		<line orgstroke="#000000" orgfill="none" fill="none" x1="204.057" x2="203.498" y1="341.957" y2="353.193" stroke="#000000" stroke-width="0.25" g2gstroke="#312783" stroke-miterlimit="10"/>
	<polyline orgstroke="#000000" orgfill="none" points="223.225,332.441 222.374,338.533    222.265,340.033 221.37,341.972 218.942,344.302 214.732,346.996  " fill="none" stroke="#000000" stroke-width="0.25" g2gstroke="#312783" stroke-miterlimit="10"/>
	<polyline orgstroke="#000000" orgfill="none" points="217.091,335.677 216.89,338.135    216.013,339.824 204.012,346.207  " fill="none" stroke="#000000" stroke-width="0.25" g2gstroke="#312783" stroke-miterlimit="10"/>
	<polyline orgstroke="#000000" orgfill="none" points="273.163,302.427 270.419,302.219    255.046,303.344 252.784,303.427 250.947,304.552 250.052,306.484 247.57,309.558 245.217,310.888 229.794,319.031  " fill="none" stroke="#000000" stroke-width="0.25" g2gstroke="#312783" stroke-miterlimit="10"/>
	<polyline orgstroke="#000000" orgfill="none" points="297.488,329.529 287.462,329.537    286.251,328.949 278.074,320.826 276.19,319.185 275.193,319.115 272.719,318.677 271.148,319.568 245.604,329.469  " fill="none" stroke="#000000" stroke-width="0.25" g2gstroke="#312783" stroke-miterlimit="10"/>
	<polyline orgstroke="#000000" orgfill="none" points="283.63,330.51 275.01,321.605    273.587,320.494 271.537,321.097 249.87,332.787 246.076,333.261  " fill="none" stroke="#000000" stroke-width="0.25" g2gstroke="#312783" stroke-miterlimit="10"/>
	
		<line orgstroke="#000000" orgfill="none" fill="none" x1="245.604" x2="244.771" y1="329.469" y2="341.574" stroke="#000000" stroke-width="0.25" g2gstroke="#312783" stroke-miterlimit="10"/>
	
		<line orgstroke="#000000" orgfill="none" fill="none" x1="249.87" x2="250.105" y1="332.787" y2="339.824" stroke="#000000" stroke-width="0.25" g2gstroke="#312783" stroke-miterlimit="10"/>
	
		<line orgstroke="#000000" orgfill="none" fill="none" x1="252.376" x2="278.69" y1="331.437" y2="332.908" stroke="#000000" stroke-width="0.25" g2gstroke="#312783" stroke-miterlimit="10"/>
	
		<line orgstroke="#000000" orgfill="none" fill="none" x1="283.63" x2="271.683" y1="330.51" y2="336.152" stroke="#000000" stroke-width="0.25" g2gstroke="#312783" stroke-miterlimit="10"/>
	<polyline orgstroke="#000000" orgfill="none" points="179.237,335.427 176.62,336.927    176.278,338.154 176.185,356.447 179.797,358.469 181.273,358.824 183.306,358.472 187.082,358.246 191.772,355.844    192.496,354.908  " fill="none" stroke="#000000" stroke-width="0.25" g2gstroke="#312783" stroke-miterlimit="10"/>
	
	<polyline orgstroke="#000000" orgfill="none" points="164.957,302.105 168.874,305.927    171.32,307.617 171.32,307.617 173.207,308.344 175.702,309.187 177.106,309.885 180.874,313.177  " fill="none" stroke="#000000" stroke-width="0.25" g2gstroke="#312783" stroke-miterlimit="10"/>
	<polyline orgstroke="#000000" orgfill="none" points="150.607,298.658 154.835,295.71    156.618,295.34 158.114,295.45 159.518,296.808 161.754,298.988  " fill="none" stroke="#000000" stroke-width="0.25" g2gstroke="#312783" stroke-miterlimit="10"/>
	<polyline orgstroke="#000000" orgfill="none" points="150.431,301.074 154.659,298.121    156.439,297.752 157.936,297.861 159.342,299.219 168.697,308.326 171.143,310.033 171.143,310.033 173.031,310.76    175.523,311.597 176.928,312.302 180.697,315.578  " fill="none" stroke="#000000" stroke-width="0.25" g2gstroke="#312783" stroke-miterlimit="10"/>
	<polyline orgstroke="#000000" orgfill="none" points="245.217,310.888 246.943,311.265    247.866,312.344 248.699,314.658 248.866,319.177 248.165,321.885 243.791,326.826 243.699,328.074 243.699,328.074    245.604,329.469  " fill="none" stroke="#000000" stroke-width="0.25" g2gstroke="#312783" stroke-miterlimit="10"/>
	<polyline orgstroke="#000000" orgfill="none" points="231.035,336.677 233.602,335.853    235.901,335.269 237.914,335.177 239.677,335.052 243.398,335.574  " fill="none" stroke="#000000" stroke-width="0.25" g2gstroke="#312783" stroke-miterlimit="10"/>
	<polyline orgstroke="#000000" orgfill="none" points="308.426,296.74 312.399,304.052    312.538,305.568 311.606,308.01 297.64,317.26  " fill="none" stroke="#000000" stroke-width="0.25" g2gstroke="#312783" stroke-miterlimit="10"/>
	<polyline orgstroke="#000000" orgfill="none" points="314.474,299.695 316.054,302.068    317.496,302.927 322.594,306.824  " fill="none" stroke="#000000" stroke-width="0.25" g2gstroke="#312783" stroke-miterlimit="10"/>
	<polyline orgstroke="#000000" orgfill="none" points="348.04,178.436 349.481,179.437    351.999,181.543 353.071,182.875 354.339,184.975 355.116,186.869 357.085,192.075  " fill="none" stroke="#000000" stroke-width="0.25" g2gstroke="#312783" stroke-miterlimit="10"/>
	
		<line orgstroke="#000000" orgfill="none" fill="none" x1="359.298" x2="363.596" y1="194.634" y2="194.263" stroke="#000000" stroke-width="0.25" g2gstroke="#312783" stroke-miterlimit="10"/>
	<path orgstroke="#000000" orgfill="none" fill="none" d="M247.857,337.646   c-0.479,0.359-1.016,0.461-1.286,0.203c-0.354-0.316-0.187-1.064,0.374-1.67c0.563-0.604,1.284-0.832,1.644-0.521   c0.229,0.211,0.229,0.605,0.052,1.029" stroke="#000000" stroke-width="0.25" g2gstroke="#312783" stroke-miterlimit="10"/>
	
		<line orgstroke="#000000" orgfill="none" fill="none" x1="391.196" x2="393.652" y1="225.707" y2="226.39" stroke="#000000" stroke-width="0.25" g2gstroke="#312783" stroke-miterlimit="10"/>
	
		<line orgstroke="#000000" orgfill="none" fill="none" x1="392.294" x2="395.408" y1="223.282" y2="224.096" stroke="#000000" stroke-width="0.25" g2gstroke="#312783" stroke-miterlimit="10"/>
	
		<line orgstroke="#000000" orgfill="none" fill="none" x1="237.999" x2="233.129" y1="320.385" y2="317.578" stroke="#000000" stroke-width="0.25" g2gstroke="#312783" stroke-miterlimit="10"/>
	
		<line orgstroke="#000000" orgfill="none" fill="none" x1="218.596" x2="221.053" y1="328.568" y2="329.246" stroke="#000000" stroke-width="0.25" g2gstroke="#312783" stroke-miterlimit="10"/>
	
		<line orgstroke="#000000" orgfill="none" fill="none" x1="219.402" x2="222.88" y1="326.701" y2="327.123" stroke="#000000" stroke-width="0.25" g2gstroke="#312783" stroke-miterlimit="10"/>
	
		<line orgstroke="#000000" orgfill="none" fill="none" x1="176.185" x2="179.302" y1="356.447" y2="354.89" stroke="#000000" stroke-width="0.25" g2gstroke="#312783" stroke-miterlimit="10"/>
	
		<line orgstroke="#000000" orgfill="none" fill="none" x1="339.899" x2="342.069" y1="277.141" y2="277.282" stroke="#000000" stroke-width="0.25" g2gstroke="#312783" stroke-miterlimit="10"/>
	<polyline orgstroke="#000000" orgfill="none" points="246.024,324.302 257.221,319.207    258.674,317.644 259.177,315.344 258.546,310.283  " fill="none" stroke="#000000" stroke-width="0.25" g2gstroke="#312783" stroke-miterlimit="10"/>
	<polyline orgstroke="#000000" orgfill="none" points="248.444,313.949 264.442,307.371    266.794,307.219 270.499,306.82 272.802,307.324 275.745,308.203 277.69,309.017 278.947,310.115 278.849,311.445 277.755,312.699    275.379,313.195 274.307,314.115 273.544,315.4 272.719,318.677  " fill="none" stroke="#000000" stroke-width="0.25" g2gstroke="#312783" stroke-miterlimit="10"/>
	<polyline orgstroke="#000000" orgfill="none" points="261.133,308.736 261.86,315.201    263.141,315.969 264.828,315.76 266.467,316.219 267.39,317.283 268.549,319.707  " fill="none" stroke="#000000" stroke-width="0.25" g2gstroke="#312783" stroke-miterlimit="10"/>
	<polyline orgstroke="#000000" orgfill="none" points="153.611,302.14 155.306,300.677    156.304,300.748 158.938,301.281 159.174,302.635 160.218,311.152  " fill="none" stroke="#000000" stroke-width="0.25" g2gstroke="#312783" stroke-miterlimit="10"/>
	<polyline orgstroke="#000000" orgfill="none" points="181.126,317.117 176.046,314.072    173.743,313.568 172.899,313.677 171.866,314.094 171.152,314.719 171.088,316.719  " fill="none" stroke="#000000" stroke-width="0.25" g2gstroke="#312783" stroke-miterlimit="10"/>
	<polyline orgstroke="#000000" orgfill="none" points="162.011,302.677 161.852,304.832    162.074,306.355 162.844,307.246 171.866,314.094  " fill="none" stroke="#000000" stroke-width="0.25" g2gstroke="#312783" stroke-miterlimit="10"/>
	<polyline orgstroke="#000000" orgfill="none" points="177.516,314.949 177.784,317.703    177.23,320.677 176.272,324.615 175.646,328.576 175.094,331.552 175.254,333.9 176.62,336.927  " fill="none" stroke="#000000" stroke-width="0.25" g2gstroke="#312783" stroke-miterlimit="10"/>
	<polyline orgstroke="#000000" orgfill="none" points="179.797,358.469 180.219,366.349    179.665,369.32 178.497,371.574 176.452,373.26  " fill="none" stroke="#000000" stroke-width="0.25" g2gstroke="#312783" stroke-miterlimit="10"/>
	
		<line orgstroke="#000000" orgfill="none" fill="none" x1="180.132" x2="187.082" y1="364.699" y2="358.246" stroke="#000000" stroke-width="0.25" g2gstroke="#312783" stroke-miterlimit="10"/>
	<polyline orgstroke="#000000" orgfill="none" points="195.267,345.818 197.546,348.908    198.348,351.64 198.201,353.635 197.009,356.222 189.415,364.017 185.561,366.408 182.473,367.517 179.976,367.658  " fill="none" stroke="#000000" stroke-width="0.25" g2gstroke="#312783" stroke-miterlimit="10"/>
	<polyline orgstroke="#000000" orgfill="none" points="150.607,298.658 150.411,299.066    150.304,299.39 150.324,299.683 150.786,300.824  " fill="none" stroke="#000000" stroke-width="0.25" g2gstroke="#312783" stroke-miterlimit="10"/>
	<path orgstroke="#000000" orgfill="none" fill="none" d="M272.203,264.991   c0.56-2.029,36.188-22.75,40.104-21.862c1.387,0.27,1.719,0.586,3.331,2.521c0,0,10.739,13.021,13.479,28.136l0.638,2.219   l2.979,14.013" stroke="#000000" stroke-width="0.25" g2gstroke="#312783" stroke-miterlimit="10"/>
	<path orgstroke="#000000" orgfill="none" fill="none" d="M272.556,266.963   c3.824-3.668,36.033-22.229,39.742-21.396c1.163,0.217,1.584,0.479,2.642,1.7" stroke="#000000" stroke-width="0.25" g2gstroke="#312783" stroke-miterlimit="10"/>
	<path orgstroke="#000000" orgfill="none" fill="none" d="M272.203,264.991   c-0.687,1.438,1.556,4.473,1.556,4.473s1.729,1.671,5.461,5.406" stroke="#000000" stroke-width="0.25" g2gstroke="#312783" stroke-miterlimit="10"/>
	
		<line orgstroke="#000000" orgfill="none" fill="none" x1="318.346" x2="278.264" y1="252.087" y2="273.916" stroke="#000000" stroke-width="0.25" g2gstroke="#312783" stroke-miterlimit="10"/>
	
		<line orgstroke="#000000" orgfill="none" fill="none" x1="316.666" x2="277.447" y1="251.709" y2="273.069" stroke="#000000" stroke-width="0.25" g2gstroke="#312783" stroke-miterlimit="10"/>
	
		<line orgstroke="#000000" orgfill="none" fill="none" x1="315.75" x2="299.528" y1="254.869" y2="263.917" stroke="#000000" stroke-width="0.25" g2gstroke="#312783" stroke-miterlimit="10"/>
	<polyline orgstroke="#000000" orgfill="none" points="316.835,251.571 318.223,251.895    318.873,253.021 318.533,253.316 315.75,254.869  " fill="none" stroke="#000000" stroke-width="0.25" g2gstroke="#312783" stroke-miterlimit="10"/>
	<path orgstroke="#000000" orgfill="none" fill="none" d="M316.666,251.387c0,0-4.064-5.027-7.247-4.459" stroke="#000000" stroke-width="0.25" g2gstroke="#312783" stroke-miterlimit="10"/>
	
		<line orgstroke="#000000" orgfill="none" fill="none" x1="270.552" x2="259.177" y1="268.726" y2="262.159" stroke="#000000" stroke-width="0.25" g2gstroke="#312783" stroke-miterlimit="10"/>
	<path orgstroke="#000000" orgfill="none" fill="none" d="M296.247,237.013c0,0,7.063-0.335,14.854,5.083" stroke="#000000" stroke-width="0.25" g2gstroke="#312783" stroke-miterlimit="10"/>
	<path orgstroke="#000000" orgfill="none" fill="none" d="M270.915,263.917c0,0-11.59-2.469-12.496-4.04" stroke="#000000" stroke-width="0.25" g2gstroke="#312783" stroke-miterlimit="10"/>
	<path orgstroke="#000000" orgfill="none" fill="none" d="M387.835,208.762l1.871-0.5   c0,0,0.934-0.035,1.313,0.764c0.396,0.799,2.021,3.986,2.021,3.986" stroke="#000000" stroke-width="0.25" g2gstroke="#312783" stroke-miterlimit="10"/>
</g>
</g>
</g></svg>