<svg xmlns="http://www.w3.org/2000/svg" xmlns:xlink="http://www.w3.org/1999/xlink" xmlns:etg="http://www.eurotaxglass.com/etg/evd/" etg:dataTimestamp="1539068912893" contentScriptType="text/ecmascript" zoomAndPan="magnify" contentStyleType="text/css" id="Layer_1" style="enable-background:new 0 0 841.891 595.279;" enable-background="new 0 0 1841.891 1595.279" version="1.1" xml:space="preserve" width="1841.891px" preserveAspectRatio="xMidYMid meet" viewBox="0 0 1841.891 1595.279" height="1595.279px" x="0px" y="0px"><g xmlns="http://www.w3.org/2000/svg" objecttype="PS" tooltip="#UNDEFINED" id="32">
<g onmouseover="notifyOwner(AGV_OBJECT_MOUSEOVER, '32(PS)')" transform="translate(32.51611243057249, -6.830272338867189) translate(33.7702661590576, 18.912113525390623) translate(7.718446601941707, 1.7152103559870966) translate(-18.86731391585755, -18.867313915857608) translate(79.75728155339795, -140.6472491909384) translate(-58.317152103559806, 175.8090614886729) translate(5.080974936044868, 34.96906279513246)" onclick="clickZoom(evt); notifyOwner(AGV_OBJECT_MOUSECLICK, '32(PS)')" onmouseout="notifyOwner(AGV_OBJECT_MOUSEOUT, '32(PS)')" tooltip="#UNDEFINED" id="32-Graphic" objecttype="GRAPHIC">
<g>
	<polygon orgstroke="#000000" orgfill="#ffffff" points="389.384,373.535 384.371,373.802    380.568,374.576 378.147,375.529 375.295,376.651 373.827,377.604 372.097,378.034 370.628,378.469 368.9,379.427 367.517,380.888    366.307,382.53 365.442,385.035 365.096,387.369 365.096,390.568 365.96,394.977 366.651,396.802 367.776,399.644 368.9,400.94    370.022,402.236 371.146,402.677 372.702,402.928 377.801,403.359 378.666,403.969 380.568,405.951 383.333,408.892    384.63,410.274 385.148,411.225 385.321,411.656 386.273,412.01 387.482,411.915 389.469,411.742 390.681,411.484 396.47,408.552    397.422,407.941 397.854,407.51 398.026,406.817 398.2,404.57 398.719,403.1 399.756,400.074 401.138,395.677 401.916,392.385    402.434,389.615 402.521,387.023 402.693,384.777 402.434,382.184 402.002,380.022 401.138,378.121 399.841,376.651    398.459,375.183 396.569,374.453 393.89,373.677  " fill="#ffffff" g2gfill="#ECC35D" outline-element="true" stroke="#000000" stroke-width="0.5" g2gstroke="#312783" stroke-miterlimit="10"/>
	<polyline orgstroke="#000000" orgfill="none" points="373.567,378.206 371.578,379.979    371.086,380.743 369.982,382.27 369.244,383.998 368.9,385.219 368.813,386.344 368.985,387.282 369.504,387.802 370.369,387.889    372.184,388.147 373.827,388.493 374.518,388.927 375.467,389.615 376.419,390.74 377.197,392.219 377.716,393.594 378.32,394.977    378.838,396.445 380.394,399.385 381.431,400.94 383.246,402.928 385.926,405.607 386.876,406.471 387.741,407.595    388.432,408.635 389.038,409.844 389.384,411.313  " fill="none" stroke="#000000" stroke-width="0.25" g2gstroke="#312783" stroke-miterlimit="10"/>
	<polyline orgstroke="#000000" orgfill="none" points="371.665,388.578 371.578,390.653    371.837,393.245 372.184,395.494 372.961,398.01 374.258,400.427 375.208,401.719 376.16,402.928  " fill="none" stroke="#000000" stroke-width="0.25" g2gstroke="#312783" stroke-miterlimit="10"/>
	<polyline orgstroke="#000000" orgfill="none" points="372.184,389.185 373.308,389.615    374.345,390.395 375.382,391.949  " fill="none" stroke="#000000" stroke-width="0.25" g2gstroke="#312783" stroke-miterlimit="10"/>
	<polyline orgstroke="#000000" orgfill="none" points="376.419,393.765 376.938,395.235    377.542,396.802 377.888,397.482  " fill="none" stroke="#000000" stroke-width="0.25" g2gstroke="#312783" stroke-miterlimit="10"/>
	<polyline orgstroke="#000000" orgfill="none" points="375.382,397.913 375.901,399.219    376.505,400.594 377.283,401.719 377.888,402.677  " fill="none" stroke="#000000" stroke-width="0.25" g2gstroke="#312783" stroke-miterlimit="10"/>
	<path orgstroke="#000000" orgfill="none" fill="none" d="M396,395.767   c-0.646,1.426-1.756,2.485-3.188,2.83c-2.854,0.688-5.887-1.729-6.771-5.398s0.709-7.206,3.563-7.895   c2.854-0.69,5.883,1.728,6.771,5.396" stroke="#000000" stroke-width="0.25" g2gstroke="#312783" stroke-miterlimit="10"/>
	<polyline orgstroke="#000000" orgfill="none" points="387.741,380.719 383.68,383.567    379.272,387.282  " fill="none" stroke="#000000" stroke-width="0.25" g2gstroke="#312783" stroke-miterlimit="10"/>
	<polyline orgstroke="#000000" orgfill="none" points="397.941,377.43 395.779,377.26    393.273,377.688 391.803,378.385 389.729,379.427  " fill="none" stroke="#000000" stroke-width="0.25" g2gstroke="#312783" stroke-miterlimit="10"/>
</g>
</g>
</g></svg>