<svg xmlns="http://www.w3.org/2000/svg" xmlns:xlink="http://www.w3.org/1999/xlink" xmlns:etg="http://www.eurotaxglass.com/etg/evd/" etg:dataTimestamp="1539068912893" contentScriptType="text/ecmascript" zoomAndPan="magnify" contentStyleType="text/css" id="Layer_1" enable-background="new 0 0 1841.891 1595.279" version="1.1" xml:space="preserve" width="1841.891px" preserveAspectRatio="xMidYMid meet" viewBox="0 0 1841.891 1595.279" height="1595.279px" x="0px" y="0px"><g xmlns="http://www.w3.org/2000/svg" objecttype="PS" tooltip="#UNDEFINED" id="34">
<g onmouseover="notifyOwner(AGV_OBJECT_MOUSEOVER, '34(PS)')" onclick="clickZoom(evt); notifyOwner(AGV_OBJECT_MOUSECLICK, '34(PS)')" onmouseout="notifyOwner(AGV_OBJECT_MOUSEOUT, '34(PS)')" tooltip="#UNDEFINED" id="34-Graphic" objecttype="GRAPHIC">
<g>
	<polygon orgstroke="#000000" orgfill="#ffffff" points="494.031,427.266 500.77,430.81    508.301,434.094 508.74,434.177 511.49,433.999 512.021,434.094 512.375,434.531 512.73,435.328 512.906,440.555 513.35,440.732    514.502,440.644 515.476,440.909 516.096,441.177 516.448,441.802 516.629,442.77 517.071,448.44 516.805,448.971 512.281,451.01    507.504,455.614 507.323,456.509 507.149,458.635 507.504,459.247 507.946,459.247 508.478,459.071 511.135,457.83    511.756,457.653 512.281,457.74 513.174,458.094 515.031,460.221 515.115,460.76 515.031,461.469 514.502,462.26 513.794,463.677    513.261,464.65 513.174,465.803 513.261,466.866 513.085,467.662 512.819,468.371 510.156,471.56 509.63,472.01 509.186,473.599    508.389,475.017 507.769,475.903 506.44,476.698 505.111,477.053 503.605,477.143 502.448,476.884 501.568,476.522 500.77,475.458    500.239,474.749 499.53,474.135 498.644,473.777 497.138,473.51 494.835,472.891 492.798,471.738 491.469,470.852 489.781,469.26    488.191,467.308 487.304,465.803 486.064,463.854 485.531,463.146 484.293,461.816 482.521,460.575 479.24,457.74 478.357,457.302    478.357,457.302 477.56,456.945 477.115,456.236 477.115,455.527 476.939,450.121 476.762,449.06 475.877,447.642 475.611,446.667    475.522,445.427 475.522,443.927 475.877,442.681 476.586,441.177 477.383,439.491 477.906,437.635 477.823,436.391    477.56,434.974 477.383,434.442 477.648,433.734 478.18,433.29 478.357,432.76 478.357,432.139 477.906,431.696 476.851,430.987    476.142,427.886 476.142,427.009 476.674,425.938 477.648,425.229 478.615,424.874 479.774,424.874 480.927,425.052    481.635,425.406 482.432,428.861 482.344,429.927 482.073,430.721 481.901,431.26 481.901,432.228 481.989,432.581    481.989,432.581 482.344,432.848 483.141,432.936 483.584,432.493 483.673,431.43 483.849,429.135 483.938,428.51 484.558,428.064    487.031,427.532 487.74,427.355  " fill="#ffffff" g2gfill="#ECF5E4" outline-element="true" stroke="#000000" stroke-width="0.5" g2gstroke="#312783" stroke-miterlimit="10"/>
	<polyline orgstroke="#000000" orgfill="none" points="489.156,427.332 496.156,431.43    496.962,431.607 501.302,431.43  " fill="none" stroke="#000000" stroke-width="0.25" g2gstroke="#312783" stroke-miterlimit="10"/>
	<polyline orgstroke="#000000" orgfill="none" points="499.176,431.516 508.655,435.51    509.186,435.682 509.448,435.682 510.339,435.594 512.198,435.151  " fill="none" stroke="#000000" stroke-width="0.25" g2gstroke="#312783" stroke-miterlimit="10"/>
	
		<line orgstroke="#000000" orgfill="none" fill="none" x1="483.584" x2="483.49" y1="432.493" y2="437.308" stroke="#000000" stroke-width="0.25" g2gstroke="#312783" stroke-miterlimit="10"/>
	<polyline orgstroke="#000000" orgfill="none" points="477.879,437.119 479.774,438.695    480.306,439.052 480.74,439.052 481.192,439.052 485.531,435.771 485.976,435.594 490.937,435.24 491.646,435.24 492.266,434.802     " fill="none" stroke="#000000" stroke-width="0.25" g2gstroke="#312783" stroke-miterlimit="10"/>
	
		<line orgstroke="#000000" orgfill="none" fill="none" x1="489.519" x2="483.849" y1="427.886" y2="435.594" stroke="#000000" stroke-width="0.25" g2gstroke="#312783" stroke-miterlimit="10"/>
	
		<line orgstroke="#000000" orgfill="none" fill="none" x1="484.293" x2="487.304" y1="428.773" y2="430.552" stroke="#000000" stroke-width="0.25" g2gstroke="#312783" stroke-miterlimit="10"/>
	<polyline orgstroke="#000000" orgfill="none" points="476.586,427.886 477.383,428.329    478.531,428.427 479.421,428.064 480.218,427.802 481.281,426.646  " fill="none" stroke="#000000" stroke-width="0.25" g2gstroke="#312783" stroke-miterlimit="10"/>
	<polyline orgstroke="#000000" orgfill="none" points="478.888,432.316 479.421,432.405    480.218,432.316 481.014,431.784  " fill="none" stroke="#000000" stroke-width="0.25" g2gstroke="#312783" stroke-miterlimit="10"/>
	<polyline orgstroke="#000000" orgfill="none" points="478.092,435.594 478.801,436.219    480.129,436.134 481.281,435.771 481.989,435.24 482.698,434.442 483.052,433.385  " fill="none" stroke="#000000" stroke-width="0.25" g2gstroke="#312783" stroke-miterlimit="10"/>
	<polyline orgstroke="#000000" orgfill="none" points="478.615,432.581 478.531,433.385    478.801,433.91 479.323,434.354 479.774,434.531 480.483,434.265 480.927,433.91 481.365,433.385 481.635,432.848  " fill="none" stroke="#000000" stroke-width="0.25" g2gstroke="#312783" stroke-miterlimit="10"/>
	<polyline orgstroke="#000000" orgfill="none" points="493.24,439.819 493.063,440.385    492.531,442.326 492.089,444.276 492,447.554  " fill="none" stroke="#000000" stroke-width="0.25" g2gstroke="#312783" stroke-miterlimit="10"/>
	<polyline orgstroke="#000000" orgfill="none" points="496.342,433.114 494.924,435.771    494.104,437.531  " fill="none" stroke="#000000" stroke-width="0.25" g2gstroke="#312783" stroke-miterlimit="10"/>
	<polyline orgstroke="#000000" orgfill="none" points="491.557,458.185 491.646,460.844    491.906,463.764 492.531,466.512 493.152,469.347  " fill="none" stroke="#000000" stroke-width="0.25" g2gstroke="#312783" stroke-miterlimit="10"/>
	<polyline orgstroke="#000000" orgfill="none" points="497.626,433.598 496.199,436.26    495.056,438.736 494.347,440.863 493.816,442.811 493.365,444.76 493.281,448.038  " fill="none" stroke="#000000" stroke-width="0.25" g2gstroke="#312783" stroke-miterlimit="10"/>
	<polyline orgstroke="#000000" orgfill="none" points="492.842,458.677 492.93,461.326    493.196,464.26 493.816,466.996 494.436,469.831  " fill="none" stroke="#000000" stroke-width="0.25" g2gstroke="#312783" stroke-miterlimit="10"/>
	<polyline orgstroke="#000000" orgfill="none" points="488.808,457.33 485.887,457.386    485.002,457.121 483.938,456.767 482.876,456.236 477.648,450.121  " fill="none" stroke="#000000" stroke-width="0.25" g2gstroke="#312783" stroke-miterlimit="10"/>
	<polyline orgstroke="#000000" orgfill="none" points="478.531,446.314 485.178,445.344    486.24,445.516 487.393,446.136 495.633,452.16 496.253,453.223 496.429,454.641 496.429,455.614 496.073,456.323 495.633,456.767    495.012,457.208 491.198,457.283  " fill="none" stroke="#000000" stroke-width="0.25" g2gstroke="#312783" stroke-miterlimit="10"/>
	<polyline orgstroke="#000000" orgfill="none" points="495.898,455.704 495.278,456.146    486.153,456.323 485.267,456.058 484.198,455.704 483.141,455.177 477.906,449.06  " fill="none" stroke="#000000" stroke-width="0.25" g2gstroke="#312783" stroke-miterlimit="10"/>
	
		<line orgstroke="#000000" orgfill="none" fill="none" x1="477.198" x2="480.483" y1="450.302" y2="458.362" stroke="#000000" stroke-width="0.25" g2gstroke="#312783" stroke-miterlimit="10"/>
	<polyline orgstroke="#000000" orgfill="none" points="503.334,448.26 502.808,449.68    502.099,452.247 501.74,455.082 501.479,458.185 501.479,461.552 501.834,464.031 502.448,466.866 503.251,470.143    504.225,472.094  " fill="none" stroke="#000000" stroke-width="0.25" g2gstroke="#312783" stroke-miterlimit="10"/>
	<polyline orgstroke="#000000" orgfill="none" points="506.615,442.239 505.111,444.719    504.344,446.112  " fill="none" stroke="#000000" stroke-width="0.25" g2gstroke="#312783" stroke-miterlimit="10"/>
	<polyline orgstroke="#000000" orgfill="none" points="507.769,442.239 506.263,444.719    504.845,447.287 503.96,449.68 503.251,452.247 502.897,455.082 502.631,458.185 502.631,461.552 502.985,464.031 503.605,466.866    504.403,470.143 505.378,472.094  " fill="none" stroke="#000000" stroke-width="0.25" g2gstroke="#312783" stroke-miterlimit="10"/>
	<polyline orgstroke="#000000" orgfill="none" points="499.973,473.953 500.77,473.244    501.923,472.623 503.694,472.269 505.732,472.269 507.149,472.623 509.01,473.068  " fill="none" stroke="#000000" stroke-width="0.25" g2gstroke="#312783" stroke-miterlimit="10"/>
	<polyline orgstroke="#000000" orgfill="none" points="507.238,459.247 507.406,460.488    507.769,461.283 508.301,462.082 508.74,462.791 509.098,463.677 509.098,465.719 508.566,466.777 507.858,468.017    507.769,468.638 507.68,469.612 508.031,470.594 508.301,470.852 509.63,472.01  " fill="none" stroke="#000000" stroke-width="0.25" g2gstroke="#312783" stroke-miterlimit="10"/>
	
		<line orgstroke="#000000" orgfill="none" fill="none" x1="514.768" x2="509.364" y1="460.398" y2="462.701" stroke="#000000" stroke-width="0.25" g2gstroke="#312783" stroke-miterlimit="10"/>
	
		<line orgstroke="#000000" orgfill="none" fill="none" x1="512.641" x2="508.031" y1="468.017" y2="468.816" stroke="#000000" stroke-width="0.25" g2gstroke="#312783" stroke-miterlimit="10"/>
	
		<line orgstroke="#000000" orgfill="none" fill="none" x1="509.532" x2="512.553" y1="464.827" y2="466.599" stroke="#000000" stroke-width="0.25" g2gstroke="#312783" stroke-miterlimit="10"/>
	<polyline orgstroke="#000000" orgfill="none" points="516.185,443.656 515.476,444.635    514.502,445.344 513.174,445.781  " fill="none" stroke="#000000" stroke-width="0.25" g2gstroke="#312783" stroke-miterlimit="10"/>
	<polyline orgstroke="#000000" orgfill="none" points="509.275,435.948 508.478,439.846    508.389,440.732 509.01,441.441 509.63,442.061 510.515,442.415 512.375,442.859  " fill="none" stroke="#000000" stroke-width="0.25" g2gstroke="#312783" stroke-miterlimit="10"/>
	
		<line orgstroke="#000000" orgfill="none" fill="none" x1="512.906" x2="512.465" y1="440.555" y2="450.653" stroke="#000000" stroke-width="0.25" g2gstroke="#312783" stroke-miterlimit="10"/>
	
		<line orgstroke="#000000" orgfill="none" fill="none" x1="489.254" x2="491.646" y1="435.062" y2="432.139" stroke="#000000" stroke-width="0.25" g2gstroke="#312783" stroke-miterlimit="10"/>
	<polyline orgstroke="#000000" orgfill="none" points="507.769,439.846 507.238,437.011    506.615,436.036 505.198,435.24 504.403,435.151 503.517,435.594 502.985,436.219 502.631,437.365 502.631,438.695    502.897,439.491 503.156,440.289 503.605,440.909 504.573,441.352 507.238,441.352  " fill="none" stroke="#000000" stroke-width="0.25" g2gstroke="#312783" stroke-miterlimit="10"/>
	<polyline orgstroke="#000000" orgfill="none" points="504.403,436.656 504.403,437.897    504.934,438.783 505.281,439.491 505.99,439.846  " fill="none" stroke="#000000" stroke-width="0.25" g2gstroke="#312783" stroke-miterlimit="10"/>
	<polyline orgstroke="#000000" orgfill="none" points="481.252,446.469 480.897,447.996    480.897,449.414 481.133,450.83 481.685,453.469  " fill="none" stroke="#000000" stroke-width="0.25" g2gstroke="#312783" stroke-miterlimit="10"/>
	<polyline orgstroke="#000000" orgfill="none" points="485.976,446.106 485.385,448.469    485.385,450.36 485.504,452.135 485.858,453.903 486.567,456.315  " fill="none" stroke="#000000" stroke-width="0.25" g2gstroke="#312783" stroke-miterlimit="10"/>
	<polyline orgstroke="#000000" orgfill="none" points="487.031,446.469 486.448,448.822    486.448,450.719 486.567,452.486 486.922,454.26 487.482,456.302  " fill="none" stroke="#000000" stroke-width="0.25" g2gstroke="#312783" stroke-miterlimit="10"/>
	<polyline orgstroke="#000000" orgfill="none" points="508.906,474.094 505.99,473.599    504.49,473.427 503.694,473.599 503.073,473.864 501.399,476.302  " fill="none" stroke="#000000" stroke-width="0.25" g2gstroke="#312783" stroke-miterlimit="10"/>
	<polyline orgstroke="#000000" orgfill="none" points="507.238,441.352 507.504,441.352    507.858,441.706 508.478,442.51 508.921,443.035 509.364,443.219 512.281,443.832  " fill="none" stroke="#000000" stroke-width="0.25" g2gstroke="#312783" stroke-miterlimit="10"/>
</g>
</g>
</g></svg>