<svg xmlns="http://www.w3.org/2000/svg" xmlns:xlink="http://www.w3.org/1999/xlink" xmlns:etg="http://www.eurotaxglass.com/etg/evd/" etg:dataTimestamp="1539068912893" contentScriptType="text/ecmascript" zoomAndPan="magnify" contentStyleType="text/css" id="Layer_1" style="enable-background:new 0 0 841.891 595.279;" enable-background="new 0 0 1841.891 1595.279" version="1.1" xml:space="preserve" width="1841.891px" preserveAspectRatio="xMidYMid meet" viewBox="0 0 1841.891 1595.279" height="1595.279px" x="0px" y="0px"><g xmlns="http://www.w3.org/2000/svg" objecttype="PS" tooltip="#UNDEFINED" id="4">
<g onmouseover="notifyOwner(AGV_OBJECT_MOUSEOVER, '4(PS)')" transform="translate(32.51611243057249, -6.830272338867189) translate(33.7702661590576, 18.912113525390623)" onclick="clickZoom(evt); notifyOwner(AGV_OBJECT_MOUSECLICK, '4(PS)')" onmouseout="notifyOwner(AGV_OBJECT_MOUSEOUT, '4(PS)')" tooltip="#UNDEFINED" id="4-Graphic" objecttype="GRAPHIC">
<g>
	<polygon orgstroke="#000000" orgfill="#ffffff" points="120.209,112.591 124.579,110.011    125.165,109.842 125.971,110.061 128.304,111.826 128.679,112.112 130.584,112.844 133.073,112.99 135.27,112.697 137.321,112.258    140.249,111.526 142.153,111.379 143.764,111.233 145.961,111.526 147.572,111.526 150.501,110.939 151.014,110.867    151.379,110.281 151.746,110.061 152.039,109.475 152.258,108.01 152.844,105.668 155.041,103.105 157.384,101.348    159.655,100.176 163.828,99.077 167.489,98.637 171.151,98.712 174.079,99.004 175.105,99.297 186.748,106.473 192.239,109.622    192.532,110.135 192.46,113.283 192.239,113.868 189.677,115.553 189.017,116.505 189.017,122.802 188.578,123.315    188.285,123.827 188.431,125.951 187.481,127.782 186.528,129.392 184.698,131.077 182.941,132.395 180.084,133.567    177.301,134.446 174.079,135.031 170.785,135.25 167.928,135.178 166.025,134.811 164.342,134.371 162.217,133.932    161.045,133.932 158.848,134.225 157.898,134.446 155.48,135.031 152.332,136.129 149.329,136.568 146.914,137.007 145.01,137.154    142.52,136.715 140.177,136.568 137.467,136.422 137.275,136.765 137.248,144.551 137.174,145.136 137.027,145.502    132.561,148.431 132.341,151.581 129.265,153.263 129.046,153.263 127.162,151.895 126.629,151.91 117.77,156.999 117.623,157.292    117.696,159.928 114.181,161.686 111.545,160.514 111.325,160.514 106.809,162.735 100.561,159.415 100.365,157.463 95.875,154.34    95.899,151.214 95.612,150.613 93.531,149.456 93.092,148.577 92.946,147.26 92.799,125.878 93.385,124.56 94.41,123.388    114.327,112.404 116.231,112.258 117.549,112.258 119.014,112.551  " fill="#ffffff" g2gfill="#ECC35D" outline-element="true" stroke="#000000" stroke-width="0.5" g2gstroke="#312783" stroke-miterlimit="10"/>
	<polyline orgstroke="#000000" orgfill="none" points="137.278,135.886 137.321,124.267    137.101,123.755 136.442,122.73 136.442,121.558 136.222,120.898 129.486,115.846  " fill="none" stroke="#000000" stroke-width="0.25" g2gstroke="#312783" stroke-miterlimit="10"/>
	<polyline orgstroke="#000000" orgfill="none" points="119.785,112.841 97.436,126.024    96.46,127.391 96.07,129.149 95.907,150.14  " fill="none" stroke="#000000" stroke-width="0.25" g2gstroke="#312783" stroke-miterlimit="10"/>
	<polyline orgstroke="#000000" orgfill="none" points="150.793,118.19 150.061,118.336    148.085,118.482 146.328,118.262 144.57,117.604 141.641,116.578 139.152,115.626 136.662,114.894 133.586,114.529    131.536,114.747 129.486,114.894 128.973,114.675 128.826,112.551  " fill="none" stroke="#000000" stroke-width="0.25" g2gstroke="#312783" stroke-miterlimit="10"/>
	<polyline orgstroke="#000000" orgfill="none" points="111.637,122.327 100.561,128.88    100.049,129.539 99.829,129.906 99.829,130.711 100.268,156.853  " fill="none" stroke="#000000" stroke-width="0.25" g2gstroke="#312783" stroke-miterlimit="10"/>
	
		<line orgstroke="#000000" orgfill="none" fill="none" x1="128.533" x2="115.79" y1="112.331" y2="119.871" stroke="#000000" stroke-width="0.25" g2gstroke="#312783" stroke-miterlimit="10"/>
	<polyline orgstroke="#000000" orgfill="none" points="135.152,133.056 135.179,125.462    134.959,124.949 134.3,123.925 134.3,122.753 134.081,122.094 126.825,116.608 126.19,116.725 102.465,130.638 102.245,131.296    102.245,131.589 102.611,131.81 106.859,135.031 107.225,135.324 107.298,135.91 107.518,151.873 107.811,152.385 109.934,155.534    110.52,155.534 111.252,155.242 120.029,150.282  " fill="none" stroke="#000000" stroke-width="0.25" g2gstroke="#312783" stroke-miterlimit="10"/>
	<polyline orgstroke="#000000" orgfill="none" points="125.752,147.047 134.88,141.891    135.121,141.547 135.142,135.692  " fill="none" stroke="#000000" stroke-width="0.25" g2gstroke="#312783" stroke-miterlimit="10"/>
	<polyline orgstroke="#000000" orgfill="none" points="105.144,147.685 105.247,153.41    105.614,153.924 107.151,157.438 107.225,157.95 107.079,162.272  " fill="none" stroke="#000000" stroke-width="0.25" g2gstroke="#312783" stroke-miterlimit="10"/>
	<polyline orgstroke="#000000" orgfill="none" points="100.049,132.175 100.342,132.907    100.707,133.421 104.589,136.129 104.955,136.643 104.955,137.228 105.065,143.305  " fill="none" stroke="#000000" stroke-width="0.25" g2gstroke="#312783" stroke-miterlimit="10"/>
	
		<line orgstroke="#000000" orgfill="none" fill="none" x1="111.618" x2="117.403" y1="160.221" y2="156.925" stroke="#000000" stroke-width="0.25" g2gstroke="#312783" stroke-miterlimit="10"/>
	
		<line orgstroke="#000000" orgfill="none" fill="none" x1="113.921" x2="114.108" y1="158.909" y2="161.465" stroke="#000000" stroke-width="0.25" g2gstroke="#312783" stroke-miterlimit="10"/>
	
		<line orgstroke="#000000" orgfill="none" fill="none" x1="127.289" x2="132.195" y1="151.655" y2="148.577" stroke="#000000" stroke-width="0.25" g2gstroke="#312783" stroke-miterlimit="10"/>
	
		<line orgstroke="#000000" orgfill="none" fill="none" x1="129.265" x2="129.178" y1="153.263" y2="150.469" stroke="#000000" stroke-width="0.25" g2gstroke="#312783" stroke-miterlimit="10"/>
	<polyline orgstroke="#000000" orgfill="none" points="151.307,117.75 152.405,117.457    153.136,116.725 153.943,115.992 154.308,115.773 155.115,115.846 157.898,117.165 164.706,121.338 165.438,121.777    165.732,122.436 166.025,123.388 166.099,128.221 165.438,128.588 164.706,128.807 164.342,129.246 164.195,130.345    163.828,131.81 163.828,132.689 163.681,133.346 162.73,133.567  " fill="none" stroke="#000000" stroke-width="0.25" g2gstroke="#312783" stroke-miterlimit="10"/>
	<polyline orgstroke="#000000" orgfill="none" points="164.054,130.106 161.418,130.619    158.562,131.571 155.56,132.083 151.24,132.962 147.652,133.035 144.357,133.108 140.696,132.595 137.23,131.644  " fill="none" stroke="#000000" stroke-width="0.25" g2gstroke="#312783" stroke-miterlimit="10"/>
	<polyline orgstroke="#000000" orgfill="none" points="164.188,128.972 161.552,129.484    158.697,130.437 155.694,130.948 151.375,131.827 147.786,131.901 144.491,131.973 140.83,131.462 137.364,130.509  " fill="none" stroke="#000000" stroke-width="0.25" g2gstroke="#312783" stroke-miterlimit="10"/>
	<polyline orgstroke="#000000" orgfill="none" points="165.292,122.363 163.388,122.436    161.852,122.656 159.069,122.876 155.994,122.583 153.429,122.29 150.282,121.558 148.232,121.045 145.742,120.24 143.106,119.433    141.055,119.215 138.273,119.069 137.174,119.287 135.563,119.508 134.758,119.58  " fill="none" stroke="#000000" stroke-width="0.25" g2gstroke="#312783" stroke-miterlimit="10"/>
	
		<line orgstroke="#000000" orgfill="none" fill="none" x1="151.307" x2="159.509" y1="117.75" y2="122.363" stroke="#000000" stroke-width="0.25" g2gstroke="#312783" stroke-miterlimit="10"/>
	<polyline orgstroke="#000000" orgfill="none" points="167.376,131.161 169.791,131.307    173.013,131.307 176.016,130.795 178.871,130.135 181.654,129.037 183.85,128.012 186.268,126.327 188.097,124.717  " fill="none" stroke="#000000" stroke-width="0.25" g2gstroke="#312783" stroke-miterlimit="10"/>
	<polyline orgstroke="#000000" orgfill="none" points="167.376,130.234 169.791,130.381    173.013,130.381 176.016,129.866 178.871,129.209 181.654,128.109 183.85,127.084 186.268,125.401 188.097,123.79  " fill="none" stroke="#000000" stroke-width="0.25" g2gstroke="#312783" stroke-miterlimit="10"/>
	<polyline orgstroke="#000000" orgfill="none" points="189.017,115.919 178.912,121.777    175.618,121.484  " fill="none" stroke="#000000" stroke-width="0.25" g2gstroke="#312783" stroke-miterlimit="10"/>
	<polyline orgstroke="#000000" orgfill="none" points="191.947,111.086 173.493,122.436    171.297,122.948 169.614,123.095 167.856,122.583 167.124,122.363 165.659,121.631  " fill="none" stroke="#000000" stroke-width="0.25" g2gstroke="#312783" stroke-miterlimit="10"/>
	
		<line orgstroke="#000000" orgfill="none" fill="none" x1="154.236" x2="151.454" y1="115.333" y2="113.21" stroke="#000000" stroke-width="0.25" g2gstroke="#312783" stroke-miterlimit="10"/>
	
		<line orgstroke="#000000" orgfill="none" fill="none" x1="160.555" x2="152.405" y1="115.268" y2="109.914" stroke="#000000" stroke-width="0.25" g2gstroke="#312783" stroke-miterlimit="10"/>
	<polyline orgstroke="#000000" orgfill="none" points="181.457,114.692 173.933,119.141    172.103,120.02 170.053,120.02 167.856,119.433 164.999,118.19  " fill="none" stroke="#000000" stroke-width="0.25" g2gstroke="#312783" stroke-miterlimit="10"/>
	
		<line orgstroke="#000000" orgfill="none" fill="none" x1="190.775" x2="185.777" y1="109.182" y2="112.137" stroke="#000000" stroke-width="0.25" g2gstroke="#312783" stroke-miterlimit="10"/>
	<polyline orgstroke="#000000" orgfill="none" points="174.007,99.223 172.396,99.516    152.99,108.889 152.625,109.182 152.479,109.549  " fill="none" stroke="#000000" stroke-width="0.25" g2gstroke="#312783" stroke-miterlimit="10"/>
	<polyline orgstroke="#000000" orgfill="none" points="156.798,109.549 173.128,101.64    173.64,101.64 174.593,101.713 185.063,108.231 185.503,108.889 185.577,109.549 185.356,110.061 184.991,110.354 172.396,117.604    171.224,118.043 170.492,118.043 169.614,117.677 157.165,110.281  " fill="none" stroke="#000000" stroke-width="0.25" g2gstroke="#312783" stroke-miterlimit="10"/>
	<polyline orgstroke="#000000" orgfill="none" points="151.454,113.21 150.551,112.501    150.354,112.062 150.404,111.623 150.793,110.939  " fill="none" stroke="#000000" stroke-width="0.25" g2gstroke="#312783" stroke-miterlimit="10"/>
	
		<line orgstroke="#000000" orgfill="none" fill="none" x1="150.647" x2="150.844" y1="112.941" y2="117.432" stroke="#000000" stroke-width="0.25" g2gstroke="#312783" stroke-miterlimit="10"/>
	<path orgstroke="#000000" orgfill="none" fill="none" d="M174.935,104.57   c3.457,0.896,5.881,2.996,5.881,5.443c0,3.262-4.312,5.896-9.629,5.896c-5.313,0-9.629-2.644-9.629-5.896   c0-3.271,4.313-5.907,9.629-5.907" stroke="#000000" stroke-width="0.25" g2gstroke="#312783" stroke-miterlimit="10"/>
	<path orgstroke="#000000" orgfill="none" fill="none" d="M162.018,111.133   c1.246-2.377,4.881-4.099,9.169-4.099c4.321,0,7.979,1.745,9.194,4.148" stroke="#000000" stroke-width="0.25" g2gstroke="#312783" stroke-miterlimit="10"/>
	<polyline orgstroke="#000000" orgfill="none" points="156.798,109.549 156.604,109.768    156.652,109.964 157.043,110.208  " fill="none" stroke="#000000" stroke-width="0.25" g2gstroke="#312783" stroke-miterlimit="10"/>
	
		<line orgstroke="#000000" orgfill="none" fill="none" x1="150.844" x2="150.793" y1="117.432" y2="118.19" stroke="#000000" stroke-width="0.25" g2gstroke="#312783" stroke-miterlimit="10"/>
	
		<line orgstroke="#000000" orgfill="none" fill="none" x1="126.825" x2="126.825" y1="116.608" y2="137.643" stroke="#000000" stroke-width="0.25" g2gstroke="#312783" stroke-miterlimit="10"/>
	
		<line orgstroke="#000000" orgfill="none" fill="none" x1="135.121" x2="126.825" y1="141.547" y2="137.643" stroke="#000000" stroke-width="0.25" g2gstroke="#312783" stroke-miterlimit="10"/>
	
		<line orgstroke="#000000" orgfill="none" fill="none" x1="126.825" x2="107.472" y1="137.643" y2="148.577" stroke="#000000" stroke-width="0.25" g2gstroke="#312783" stroke-miterlimit="10"/>
	
		<line orgstroke="#000000" orgfill="none" fill="none" x1="124.188" x2="124.188" y1="118.19" y2="137.226" stroke="#000000" stroke-width="0.25" g2gstroke="#312783" stroke-miterlimit="10"/>
	
		<line orgstroke="#000000" orgfill="none" fill="none" x1="124.188" x2="107.472" y1="137.226" y2="146.671" stroke="#000000" stroke-width="0.25" g2gstroke="#312783" stroke-miterlimit="10"/>
	<polyline orgstroke="#000000" orgfill="none" points="167.376,131.161 165.732,130.711    164.413,130.125  " fill="none" stroke="#000000" stroke-width="0.25" g2gstroke="#312783" stroke-miterlimit="10"/>
	<polyline orgstroke="#000000" orgfill="none" points="167.376,130.234 165.635,129.783    164.434,129.135  " fill="none" stroke="#000000" stroke-width="0.25" g2gstroke="#312783" stroke-miterlimit="10"/>
	<polyline orgstroke="#000000" orgfill="none" points="141.91,131.296 140.933,119.092    140.592,118.799 140.323,118.555 134.704,114.66  " fill="none" stroke="#000000" stroke-width="0.25" g2gstroke="#312783" stroke-miterlimit="10"/>
	<polyline orgstroke="#000000" orgfill="none" points="145.052,131.822 144.075,119.618    143.734,119.324 143.465,119.081 137.846,115.187  " fill="none" stroke="#000000" stroke-width="0.25" g2gstroke="#312783" stroke-miterlimit="10"/>
	<polyline orgstroke="#000000" orgfill="none" points="148.186,131.973 147.21,120.782    146.867,120.489 146.599,120.245 140.982,116.351  " fill="none" stroke="#000000" stroke-width="0.25" g2gstroke="#312783" stroke-miterlimit="10"/>
	<polyline orgstroke="#000000" orgfill="none" points="151.375,131.827 150.477,121.362    150.135,121.07 149.866,120.826 145.981,118.132  " fill="none" stroke="#000000" stroke-width="0.25" g2gstroke="#312783" stroke-miterlimit="10"/>
	<polyline orgstroke="#000000" orgfill="none" points="154.652,131.161 154.079,122.242    153.739,121.949 153.468,121.705 149.036,118.482  " fill="none" stroke="#000000" stroke-width="0.25" g2gstroke="#312783" stroke-miterlimit="10"/>
</g>
</g>
</g></svg>