<svg xmlns="http://www.w3.org/2000/svg" xmlns:xlink="http://www.w3.org/1999/xlink" xmlns:etg="http://www.eurotaxglass.com/etg/evd/" etg:dataTimestamp="1539068912893" contentScriptType="text/ecmascript" zoomAndPan="magnify" contentStyleType="text/css" id="Layer_1" style="enable-background:new 0 0 841.891 595.279;" enable-background="new 0 0 1841.891 1595.279" version="1.1" xml:space="preserve" width="1841.891px" preserveAspectRatio="xMidYMid meet" viewBox="0 0 1841.891 1595.279" height="1595.279px" x="0px" y="0px"><g xmlns="http://www.w3.org/2000/svg" objecttype="PS" tooltip="#UNDEFINED" id="6">
<g onmouseover="notifyOwner(AGV_OBJECT_MOUSEOVER, '6(PS)')" transform="translate(32.51611243057249, -6.830272338867189) translate(33.7702661590576, 18.912113525390623) translate(3.0, 0.0)" onclick="clickZoom(evt); notifyOwner(AGV_OBJECT_MOUSECLICK, '6(PS)')" onmouseout="notifyOwner(AGV_OBJECT_MOUSEOUT, '6(PS)')" tooltip="#UNDEFINED" id="6-Graphic" objecttype="GRAPHIC">
<g>
	<g id="6::XMLID_1_">
		<g>
			<path orgstroke="#000000" orgfill="#ffffff" fill="#ffffff" g2gfill="#ECF5E4" d="M725.359,421.722l1.313,1.785l-0.813,1.307     l-0.008,1.271l-0.188,7.708l-0.604,0.396l-0.64,0.229l-0.358-0.066l-1.027-0.446l-0.506,0.406l-1.729,0.813l-1.315,0.19     l-0.505,0.211L701,445.912l-0.119,0.979l-0.104,1.923l-0.769,0.604l-1.408-0.104l-1.432-0.308l-1.313-0.313l-1.223-1.104     l-0.313-0.521l-0.3-0.601l-0.104-3.245l-0.303-0.313l-1.219-0.719l-0.604-0.502l-0.396-1.118l-0.313-1.618l-0.603-6.088     l-0.212-3.021v-0.729l-0.506-0.313l-0.505-0.302h-0.313l-0.396,0.563l-0.063,0.521l-0.294,0.188l-0.454-0.173l-0.313-0.594     l-0.16-1.063l0.063-1.063l0.404-0.917v-0.505l-0.503-0.607l-2.146-1.623l-2.842-1.517l-3.14-1.438l-2.944-1.396l-3.757-1.843     l-6.28-3.024l-4.854-2.146l-2.541-1.313l-0.916-0.503l-0.707-0.608l-0.605-1.015v-1.729l0.203-1.22l0.813-1.021l16.021-10.229     l1.119-0.503l0.906-0.211h1.813l2.944,0.211l3.545,0.188l2.946,0.61l3.343,0.813l4.563,1.521l4.771,1.729l4.771,1.935     l0.697,0.604l0.813,1.021l0.197,0.396l4.063,1.82l1.218,0.604l0.402,0.813l0.716,1.824l0.813,0.604l0.396,0.199l0.401-0.199     l1.813-1.021l0.813-0.199l1.116,0.199l0.813,0.505l0.813,1.313l0.508,0.915l0.513,1.313l0.104,0.396l1.813,1.43l0.916,1.104     l1.104,1.319l0.608,1.62L725.359,421.722z M718.768,428.927l-0.054-0.454l-0.313-0.521l-1.158-0.704l-0.354-0.354l-0.154-0.251     l0.08-4.521l-0.33-0.253l-0.918-0.048l-0.965-0.604l-0.908-0.649l-0.967-0.771l-0.703-0.604l-0.771-1.16h-0.313l-11.57,6.945     l-0.219,0.373l0.041,0.688l0.313,1.11l0.396,1.014l4.011,8.772v0.396l-0.604,0.521l-0.359,0.512l-0.269,0.706l-0.271,0.966     l-0.229,0.794l0.082,0.354l11.586-6.678l0.146-0.447l0.104-1.566l0.146-0.399l0.25-0.398l0.354-0.354l0.703-0.521l0.604-0.501     l0.729-0.354l0.646-0.199l0.657-0.054l0.404-0.198l0.051-0.146L718.768,428.927z" outline-element="true" stroke="#000000" stroke-width="0.5" g2gstroke="#312783" stroke-miterlimit="10"/>
		</g>
	</g>
	<polyline orgstroke="#000000" orgfill="none" points="657.198,406.605 686.815,420.303    687.625,421.011 688.335,421.616 689.857,425.064  " fill="none" stroke="#000000" stroke-width="0.25" g2gstroke="#312783" stroke-miterlimit="10"/>
	<polyline orgstroke="#000000" orgfill="none" points="711.262,404.982 709.531,405.692    707.307,406.605 704.363,407.89 701.729,409.445 698.887,411.271 695.375,413.51 692.602,415.327 690.668,416.949 689.959,417.559    687.834,420.91  " fill="none" stroke="#000000" stroke-width="0.25" g2gstroke="#312783" stroke-miterlimit="10"/>
	
		<line orgstroke="#000000" orgfill="none" fill="none" x1="711.565" x2="690.065" y1="406.199" y2="419.094" stroke="#000000" stroke-width="0.25" g2gstroke="#312783" stroke-miterlimit="10"/>
	<polyline orgstroke="#000000" orgfill="none" points="705.171,402.143 702.531,402.243    701.318,402.243 700.198,401.94 698.984,401.737 697.865,402.143 682.148,411.574  " fill="none" stroke="#000000" stroke-width="0.25" g2gstroke="#312783" stroke-miterlimit="10"/>
	<polyline orgstroke="#000000" orgfill="none" points="672.729,394.76 676.365,394.739    679.918,395.145 683.065,395.652 686.712,396.677 690.365,397.681 694.319,398.802 697.773,400.013 699.293,400.427    700.403,400.635 701.729,400.824 703.947,400.394  " fill="none" stroke="#000000" stroke-width="0.25" g2gstroke="#312783" stroke-miterlimit="10"/>
	<polyline orgstroke="#000000" orgfill="none" points="684.38,414.72 683.875,413.719    683.365,412.894 682.448,411.778 680.527,410.97 663.488,405.094 662.169,404.385 661.153,403.677 660.444,402.853  " fill="none" stroke="#000000" stroke-width="0.25" g2gstroke="#312783" stroke-miterlimit="10"/>
	<polyline orgstroke="#000000" orgfill="none" points="689.959,417.559 682.357,413.807    677.186,411.885 672.109,410.155 666.732,408.344 661.865,406.402 660.24,405.802 659.637,405.389 659.025,404.78 658.671,403.729     " fill="none" stroke="#000000" stroke-width="0.25" g2gstroke="#312783" stroke-miterlimit="10"/>
	<polyline orgstroke="#000000" orgfill="none" points="698.031,400.094 693.209,402.853    688.44,405.595 683.365,408.844 680.834,410.661  " fill="none" stroke="#000000" stroke-width="0.25" g2gstroke="#312783" stroke-miterlimit="10"/>
	
		<line orgstroke="#000000" orgfill="none" fill="none" x1="669.273" x2="669.273" y1="412.185" y2="415.227" stroke="#000000" stroke-width="0.25" g2gstroke="#312783" stroke-miterlimit="10"/>
	<polyline orgstroke="#000000" orgfill="none" points="712.084,406.866 709.918,408.191    708.25,409.802 706.49,411.474 704.865,412.802 702.816,414.052 699.796,415.733 697.064,416.849 694.395,417.909 692.625,418.636    691.072,419.486  " fill="none" stroke="#000000" stroke-width="0.25" g2gstroke="#312783" stroke-miterlimit="10"/>
	<polyline orgstroke="#000000" orgfill="none" points="687.625,421.011 690.875,419.486    691.584,420.147 691.857,421.645  " fill="none" stroke="#000000" stroke-width="0.25" g2gstroke="#312783" stroke-miterlimit="10"/>
	
		<ellipse orgstroke="#000000" orgfill="none" transform="matrix(-0.8031 0.5958 -0.5958 -0.8031 1503.6833 351.9512)" fill="none" rx="2.026" cx="693.692" ry="3.374" cy="424.417" stroke="#000000" stroke-width="0.25" g2gstroke="#312783" stroke-miterlimit="10"/>
	<path orgstroke="#000000" orgfill="none" fill="none" d="M694.732,420.517   c0.769,0.224,1.545,0.776,2.146,1.587c0.646,0.888,0.956,1.895,0.894,2.732" stroke="#000000" stroke-width="0.25" g2gstroke="#312783" stroke-miterlimit="10"/>
	<path orgstroke="#000000" orgfill="none" fill="none" d="M713.807,408.469   c0.922-0.188,2.188,0.479,3.114,1.729c0.646,0.866,0.978,1.819,0.959,2.604" stroke="#000000" stroke-width="0.25" g2gstroke="#312783" stroke-miterlimit="10"/>
	<path orgstroke="#000000" orgfill="none" fill="none" d="M715.363,407.486   c0.926-0.186,2.197,0.488,3.119,1.729c0.646,0.854,0.979,1.813,0.959,2.598" stroke="#000000" stroke-width="0.25" g2gstroke="#312783" stroke-miterlimit="10"/>
	<path orgstroke="#000000" orgfill="none" fill="none" d="M695.375,420.136   c0.772-0.121,1.918,0.54,2.771,1.688c1.021,1.396,1.26,2.957,0.521,3.521" stroke="#000000" stroke-width="0.25" g2gstroke="#312783" stroke-miterlimit="10"/>
	<path orgstroke="#000000" orgfill="none" fill="none" d="M697.232,418.885   c0.785-0.122,1.918,0.54,2.771,1.688c1.021,1.392,1.269,2.957,0.521,3.507" stroke="#000000" stroke-width="0.25" g2gstroke="#312783" stroke-miterlimit="10"/>
	<path orgstroke="#000000" orgfill="none" fill="none" d="M699.1,417.76   c0.778-0.122,1.918,0.532,2.771,1.688c1.023,1.396,1.271,2.956,0.521,3.507" stroke="#000000" stroke-width="0.25" g2gstroke="#312783" stroke-miterlimit="10"/>
	<path orgstroke="#000000" orgfill="none" fill="none" d="M700.959,416.571   c0.771-0.122,1.918,0.54,2.771,1.689c1.022,1.387,1.26,2.957,0.521,3.507" stroke="#000000" stroke-width="0.25" g2gstroke="#312783" stroke-miterlimit="10"/>
	<path orgstroke="#000000" orgfill="none" fill="none" d="M702.906,415.388   c0.779-0.122,1.92,0.54,2.771,1.688c1.021,1.396,1.26,2.956,0.521,3.521" stroke="#000000" stroke-width="0.25" g2gstroke="#312783" stroke-miterlimit="10"/>
	<path orgstroke="#000000" orgfill="none" fill="none" d="M704.875,414.359   c0.774-0.121,1.919,0.54,2.771,1.69c1.021,1.387,1.26,2.957,0.521,3.507" stroke="#000000" stroke-width="0.25" g2gstroke="#312783" stroke-miterlimit="10"/>
	<path orgstroke="#000000" orgfill="none" fill="none" d="M706.637,413.095   c0.784-0.119,1.934,0.558,2.797,1.724c1.045,1.405,1.28,2.992,0.545,3.542" stroke="#000000" stroke-width="0.25" g2gstroke="#312783" stroke-miterlimit="10"/>
	<path orgstroke="#000000" orgfill="none" fill="none" d="M708.857,412.061   c0.783-0.121,1.918,0.541,2.771,1.688c1.021,1.396,1.267,2.957,0.521,3.521" stroke="#000000" stroke-width="0.25" g2gstroke="#312783" stroke-miterlimit="10"/>
	<path orgstroke="#000000" orgfill="none" fill="none" d="M710.49,411.064   c0.779-0.121,1.918,0.541,2.771,1.69c1.021,1.387,1.262,2.938,0.521,3.507" stroke="#000000" stroke-width="0.25" g2gstroke="#312783" stroke-miterlimit="10"/>
	<path orgstroke="#000000" orgfill="none" fill="none" d="M712.357,409.803   c0.785-0.122,1.918,0.541,2.771,1.688c1.021,1.396,1.26,2.956,0.521,3.521" stroke="#000000" stroke-width="0.25" g2gstroke="#312783" stroke-miterlimit="10"/>
	<path orgstroke="#000000" orgfill="none" fill="none" d="M713.294,409.222   c0.774-0.121,1.918,0.541,2.771,1.688c0.485,0.657,0.797,1.354,0.906,1.979" stroke="#000000" stroke-width="0.25" g2gstroke="#312783" stroke-miterlimit="10"/>
	
		<ellipse orgstroke="#000000" orgfill="none" transform="matrix(-0.8024 0.5968 -0.5968 -0.8024 1503.3597 351.0569)" fill="none" rx="1.016" cx="693.564" ry="1.686" cy="424.404" stroke="#000000" stroke-width="0.25" g2gstroke="#312783" stroke-miterlimit="10"/>
	
		<ellipse orgstroke="#000000" orgfill="none" transform="matrix(-0.8041 0.5944 -0.5944 -0.8041 1521.6201 391.0411)" fill="none" rx="1.015" cx="696.388" ry="1.687" cy="446.2" stroke="#000000" stroke-width="0.25" g2gstroke="#312783" stroke-miterlimit="10"/>
	<polyline orgstroke="#000000" orgfill="none" points="691.732,421.677 693.71,420.449    694.168,420.51 694.523,420.51 712.273,409.648 713.189,409.141 713.335,408.888 713.589,408.431  " fill="none" stroke="#000000" stroke-width="0.25" g2gstroke="#312783" stroke-miterlimit="10"/>
	
		<line orgstroke="#000000" orgfill="none" fill="none" x1="698.932" x2="697.818" y1="425.219" y2="425.885" stroke="#000000" stroke-width="0.25" g2gstroke="#312783" stroke-miterlimit="10"/>
	
		<line orgstroke="#000000" orgfill="none" fill="none" x1="716.944" x2="711.365" y1="414.427" y2="417.762" stroke="#000000" stroke-width="0.25" g2gstroke="#312783" stroke-miterlimit="10"/>
	
		<line orgstroke="#000000" orgfill="none" fill="none" x1="716.977" x2="716.818" y1="412.885" y2="421.741" stroke="#000000" stroke-width="0.25" g2gstroke="#312783" stroke-miterlimit="10"/>
	<polyline orgstroke="#000000" orgfill="none" points="718.625,429.434 718.815,431.099    718.564,431.605 714.148,434.242  " fill="none" stroke="#000000" stroke-width="0.25" g2gstroke="#312783" stroke-miterlimit="10"/>
	
		<line orgstroke="#000000" orgfill="none" fill="none" x1="717.878" x2="718.059" y1="412.802" y2="427.302" stroke="#000000" stroke-width="0.25" g2gstroke="#312783" stroke-miterlimit="10"/>
	<polyline orgstroke="#000000" orgfill="none" points="719.441,411.814 719.625,419.638    719.375,420.146 718.815,420.906 718.313,421.312  " fill="none" stroke="#000000" stroke-width="0.25" g2gstroke="#312783" stroke-miterlimit="10"/>
	<polyline orgstroke="#000000" orgfill="none" points="719.682,412.741 720.975,414.052    722.566,415.886 723.781,418.319 724.085,419.386  " fill="none" stroke="#000000" stroke-width="0.25" g2gstroke="#312783" stroke-miterlimit="10"/>
	<polyline orgstroke="#000000" orgfill="none" points="724.397,420.398 724.694,421.108    725.057,421.677  " fill="none" stroke="#000000" stroke-width="0.25" g2gstroke="#312783" stroke-miterlimit="10"/>
	<polyline orgstroke="#000000" orgfill="none" points="721.448,416.262 722.031,417.659    722.418,418.649 722.919,420.052 723.482,421.219 724.085,422.325 724.796,423.238 725.505,423.988  " fill="none" stroke="#000000" stroke-width="0.25" g2gstroke="#312783" stroke-miterlimit="10"/>
	<polyline orgstroke="#000000" orgfill="none" points="719.982,416.949 721.148,418.776    722.109,420.805 722.418,421.565 722.773,422.844 722.919,424.101 722.919,429.07  " fill="none" stroke="#000000" stroke-width="0.25" g2gstroke="#312783" stroke-miterlimit="10"/>
	<polyline orgstroke="#000000" orgfill="none" points="725.459,425.885 723.375,430.595    723.231,431.099 723.178,431.656 723.023,433.888  " fill="none" stroke="#000000" stroke-width="0.25" g2gstroke="#312783" stroke-miterlimit="10"/>
	<polyline orgstroke="#000000" orgfill="none" points="723.209,431.303 724.462,431.928    724.648,431.969 724.854,431.859 725.725,431.303  " fill="none" stroke="#000000" stroke-width="0.25" g2gstroke="#312783" stroke-miterlimit="10"/>
	<polyline orgstroke="#000000" orgfill="none" points="723.303,431.199 724.293,430.643    724.694,430.643 725.725,431.199  " fill="none" stroke="#000000" stroke-width="0.25" g2gstroke="#312783" stroke-miterlimit="10"/>
	
		<line orgstroke="#000000" orgfill="none" fill="none" x1="724.462" x2="725.505" y1="430.643" y2="426.18" stroke="#000000" stroke-width="0.25" g2gstroke="#312783" stroke-miterlimit="10"/>
	<polyline orgstroke="#000000" orgfill="none" points="718.918,431.353 719.479,431.303    720.084,431.656 720.645,432.063 720.99,432.722 721.044,433.344 720.99,433.888 720.943,434.192 719.225,435.219  " fill="none" stroke="#000000" stroke-width="0.25" g2gstroke="#312783" stroke-miterlimit="10"/>
	<polyline orgstroke="#000000" orgfill="none" points="719.682,419.992 719.875,422.635    719.625,423.035 719.319,423.552 719.066,424.201 719.115,424.811 719.225,425.317 719.823,427.144 720.587,427.095    721.25,427.553 722.268,428.469 722.566,429.02 722.919,429.428 723.303,430.852  " fill="none" stroke="#000000" stroke-width="0.25" g2gstroke="#312783" stroke-miterlimit="10"/>
	<polyline orgstroke="#000000" orgfill="none" points="719.823,427.144 720.188,428.41    720.898,429.177 721.607,430.186 722.156,430.946 722.418,431.555 722.615,432.22 723.043,433.636  " fill="none" stroke="#000000" stroke-width="0.25" g2gstroke="#312783" stroke-miterlimit="10"/>
	<polyline orgstroke="#000000" orgfill="none" points="718.964,431.199 720.084,430.344    720.13,429.886 720.188,428.41  " fill="none" stroke="#000000" stroke-width="0.25" g2gstroke="#312783" stroke-miterlimit="10"/>
	<polyline orgstroke="#000000" orgfill="none" points="720.084,430.344 720.74,430.595    721.25,430.946 721.811,431.353 722.21,432.063 722.522,432.823  " fill="none" stroke="#000000" stroke-width="0.25" g2gstroke="#312783" stroke-miterlimit="10"/>
	<polyline orgstroke="#000000" orgfill="none" points="697.766,425.561 697.818,425.885    698.023,426.991 698.178,427.854 698.781,429.428 698.984,429.844 699.796,431.199 702.897,437.845  " fill="none" stroke="#000000" stroke-width="0.25" g2gstroke="#312783" stroke-miterlimit="10"/>
	<polyline orgstroke="#000000" orgfill="none" points="701.982,441.481 700.962,444.892    700.863,445.602 700.857,445.976  " fill="none" stroke="#000000" stroke-width="0.25" g2gstroke="#312783" stroke-miterlimit="10"/>
	<polyline orgstroke="#000000" orgfill="none" points="696.023,426.76 695.898,427.803    696.044,429.07 696.448,430.136 697.21,431.555 698.375,433.025 699.143,433.989 699.543,434.952 699.948,435.764 700.057,436.524    700,449.405  " fill="none" stroke="#000000" stroke-width="0.25" g2gstroke="#312783" stroke-miterlimit="10"/>
	<polyline orgstroke="#000000" orgfill="none" points="690.27,429.124 691.436,429.933    692.145,430.186 692.803,430.136 693.253,429.653 693.253,429.177 692.856,428.469 691.781,427.553 691.277,427.095    690.418,426.802 689.046,426.434 688.294,426.473 687.541,426.76  " fill="none" stroke="#000000" stroke-width="0.25" g2gstroke="#312783" stroke-miterlimit="10"/>
	<polyline orgstroke="#000000" orgfill="none" points="692.49,430.344 692.9,440.48    693.059,440.937 693.512,441.302 693.791,443.095 694.066,443.27 697.21,444.594 697.773,444.639 697.919,444.282 697.773,432.677     " fill="none" stroke="#000000" stroke-width="0.25" g2gstroke="#312783" stroke-miterlimit="10"/>
	<polygon orgstroke="#000000" orgfill="none" points="694.022,432.51 694.115,438.025    694.225,438.386 696.194,439.345 696.398,439.241 696.607,438.939 696.698,433.72 696.557,433.219 696.1,432.853 694.479,432.346     " fill="none" stroke="#000000" stroke-width="0.25" g2gstroke="#312783" stroke-miterlimit="10"/>
	<polygon orgstroke="#000000" orgfill="none" points="694.647,440.025 696.773,440.989    696.979,441.395 697.073,442.865 696.819,443.118 694.615,442.094 694.44,441.76 694.398,440.23  " fill="none" stroke="#000000" stroke-width="0.25" g2gstroke="#312783" stroke-miterlimit="10"/>
	<polyline orgstroke="#000000" orgfill="none" points="697.773,444.639 698.178,444.689    698.434,445.095 698.482,445.602 698.584,449.304  " fill="none" stroke="#000000" stroke-width="0.25" g2gstroke="#312783" stroke-miterlimit="10"/>
	<polyline orgstroke="#000000" orgfill="none" points="658.113,408.16 659.194,409.648    661.357,409.385 662.573,411.068 664.607,411.068 666.098,412.69 667.714,412.556 669.273,413.719  " fill="none" stroke="#000000" stroke-width="0.25" g2gstroke="#312783" stroke-miterlimit="10"/>
	
		<line orgstroke="#000000" orgfill="none" fill="none" x1="685.69" x2="669.337" y1="396.386" y2="406.605" stroke="#000000" stroke-width="0.25" g2gstroke="#312783" stroke-miterlimit="10"/>
	
		<line orgstroke="#000000" orgfill="none" fill="none" x1="676.273" x2="686.918" y1="402.272" y2="406.136" stroke="#000000" stroke-width="0.25" g2gstroke="#312783" stroke-miterlimit="10"/>
	
		<line orgstroke="#000000" orgfill="none" fill="none" x1="680.19" x2="691.24" y1="399.821" y2="403.766" stroke="#000000" stroke-width="0.25" g2gstroke="#312783" stroke-miterlimit="10"/>
	<polyline orgstroke="#000000" orgfill="none" points="676.273,402.272 676.234,403.302    676.44,403.901 676.848,404.239 684.893,407.619  " fill="none" stroke="#000000" stroke-width="0.25" g2gstroke="#312783" stroke-miterlimit="10"/>
	
		<line orgstroke="#000000" orgfill="none" fill="none" x1="679.477" x2="674.686" y1="405.345" y2="408.701" stroke="#000000" stroke-width="0.25" g2gstroke="#312783" stroke-miterlimit="10"/>
	
		<line orgstroke="#000000" orgfill="none" fill="none" x1="685.698" x2="691.418" y1="401.533" y2="397.977" stroke="#000000" stroke-width="0.25" g2gstroke="#312783" stroke-miterlimit="10"/>
	<polyline orgstroke="#000000" orgfill="none" points="697.768,424.844 697.723,425.177    697.766,425.561  " fill="none" stroke="#000000" stroke-width="0.25" g2gstroke="#312783" stroke-miterlimit="10"/>
	<polyline orgstroke="#000000" orgfill="none" points="689.857,425.064 690.113,425.571    690.27,426.027 690.398,426.677  " fill="none" stroke="#000000" stroke-width="0.25" g2gstroke="#312783" stroke-miterlimit="10"/>
	<polyline orgstroke="#000000" orgfill="none" points="726.678,423.511 725.505,423.988    725.482,424.101 725.505,424.636 725.563,425.177 725.505,426.18  " fill="none" stroke="#000000" stroke-width="0.25" g2gstroke="#312783" stroke-miterlimit="10"/>
	
		<line orgstroke="#000000" orgfill="none" fill="none" x1="724.602" x2="724.484" y1="431.95" y2="434.386" stroke="#000000" stroke-width="0.25" g2gstroke="#312783" stroke-miterlimit="10"/>
</g>
</g>
</g></svg>