<svg xmlns="http://www.w3.org/2000/svg" xmlns:xlink="http://www.w3.org/1999/xlink" xmlns:etg="http://www.eurotaxglass.com/etg/evd/" etg:dataTimestamp="1539068912893" contentScriptType="text/ecmascript" zoomAndPan="magnify" contentStyleType="text/css" id="Layer_1" style="enable-background:new 0 0 841.891 595.279;" enable-background="new 0 0 1841.891 1595.279" version="1.1" xml:space="preserve" width="1841.891px" preserveAspectRatio="xMidYMid meet" viewBox="0 0 1841.891 1595.279" height="1595.279px" x="0px" y="0px"><g xmlns="http://www.w3.org/2000/svg" objecttype="PS" tooltip="#UNDEFINED" id="89">
<g onmouseover="notifyOwner(AGV_OBJECT_MOUSEOVER, '89(PS)')" transform="translate(32.51611243057249, -6.830272338867189) translate(33.7702661590576, 18.912113525390623) translate(-269.28802588996734, -103.77022653721673) translate(260.4448938321534, 1.0717896865520515) translate(20.0, 22.0) translate(10.0, 10.00006103515625)" onclick="clickZoom(evt); notifyOwner(AGV_OBJECT_MOUSECLICK, '89(PS)')" onmouseout="notifyOwner(AGV_OBJECT_MOUSEOUT, '89(PS)')" tooltip="#UNDEFINED" id="89-Graphic" objecttype="GRAPHIC">
<g zvalue="53">
<g>
<path stroke-linecap="round" orgstroke="#000000" orgfill="#ffffff" fill="#ffffff" g2gfill="#ECC35D" stroke-linejoin="round" d="   M367.295,481.098c1.397-0.426,4.9-1.321,6.131-1.036c1.387,0.318,5.219,3.992,5.432,4.951c0.213,0.957-0.055,2.555-0.641,3.301   c-0.586,0.744-3.992,3.662-4.498,3.588s-2.855-3.516-4.234-5.199c-0.885-1.09-1.796-2.06-2.461-2.734   C366.263,483.175,367.295,481.098,367.295,481.098z" stroke="#000000" outline-element="true" stroke-width="0.5" g2gstroke="#312783" stroke-miterlimit="10"/>
<path orgstroke="#000000" orgfill="none" stroke-linecap="round" fill="none" stroke-linejoin="round" d="   M373.692,491.351c-0.426-1.865-1.918-5.063-3.354-6.604c-0.983-1.056-2.234-2.295-3.021-2.968" stroke="#000000" stroke-width="0.25" g2gstroke="#312783" stroke-miterlimit="10"/>
<path orgstroke="#000000" orgfill="none" stroke-linecap="round" fill="none" stroke-linejoin="round" d="   M373.592,481.316c0.234-0.049,0.73-0.078,1.156,0.309c0.428,0.387,2.914,2.395,2.828,3.018c-0.09,0.619-2.717,2.135-3.531,2.412   c-0.807,0.266-1.18,0.479-1.457,0.021c-0.27-0.451-2.357-3.246-2.041-3.773C370.875,482.773,373.055,481.433,373.592,481.316z" stroke="#000000" stroke-width="0.25" g2gstroke="#312783" stroke-miterlimit="10"/>
<path orgstroke="#000000" orgfill="none" stroke-linecap="round" fill="none" stroke-linejoin="round" d="   M373.67,482.619c0.139-0.021,0.426-0.053,0.674,0.186c0.25,0.223,1.701,1.395,1.65,1.756c-0.047,0.365-1.578,1.248-2.059,1.408   c-0.477,0.152-0.688,0.275-0.852,0.018c-0.158-0.266-1.379-1.893-1.188-2.201C372.084,483.47,373.354,482.687,373.67,482.619z" stroke="#000000" stroke-width="0.25" g2gstroke="#312783" stroke-miterlimit="10"/>
</g>
</g>
</g>
</g></svg>