<svg xmlns="http://www.w3.org/2000/svg" xmlns:xlink="http://www.w3.org/1999/xlink" xmlns:etg="http://www.eurotaxglass.com/etg/evd/" etg:dataTimestamp="1539068912893" contentScriptType="text/ecmascript" zoomAndPan="magnify" contentStyleType="text/css" id="Layer_1" style="enable-background:new 0 0 841.891 595.279;" enable-background="new 0 0 1841.891 1595.279" version="1.1" xml:space="preserve" width="1841.891px" preserveAspectRatio="xMidYMid meet" viewBox="0 0 1841.891 1595.279" height="1595.279px" x="0px" y="0px"><g xmlns="http://www.w3.org/2000/svg" objecttype="PS" tooltip="#UNDEFINED" id="91">
<g onmouseover="notifyOwner(AGV_OBJECT_MOUSEOVER, '91(PS)')" transform="translate(32.51611243057249, -6.830272338867189) translate(33.7702661590576, 18.912113525390623) translate(-23.0, -9.0) translate(-35.29411764705878, 34.11764705882348) translate(5.882352941176468, 5.882413976332718)" onclick="clickZoom(evt); notifyOwner(AGV_OBJECT_MOUSECLICK, '91(PS)')" onmouseout="notifyOwner(AGV_OBJECT_MOUSEOUT, '91(PS)')" tooltip="#UNDEFINED" id="91-Graphic" objecttype="GRAPHIC">
<g zvalue="67">
<g>
<path orgstroke="#000000" orgfill="#ffffff" fill="#ffffff" g2gfill="#ECC35D" stroke-linejoin="round" d="M756.913,377.583   c-0.985,1.776-2.896,3.587-3.531,4.377c0,0-0.118,0.13,0.053,0.229l1.435,0.828c0,0,0.391,0.105,0.596-0.013l1.301-0.765   c0,0,0.084-0.044,0.149-0.123c0,0,2.549-3.006,3.986-5.815c0.367-0.717,0.355-1.091,0.135-1.251l-2.429-1.391   c-0.696-0.396-3.038,0.915-3.038,0.915l-9.835,5.555c0,0-10.368,6.1-12.416,8.06s-3.528,7.493-3.528,7.493   s-0.021,0.083,0.064,0.133l2.189,1.265c0,0,0.106,0.068,0.224,0.001l1.655-0.964c0,0,0.053-0.004,0.095-0.151   c0.215-0.754,1.056-3.92,2.74-5.533c1.852-1.772,11.656-7.542,11.656-7.542l8.03-5.107   C756.444,377.782,756.641,377.718,756.913,377.583L756.913,377.583z" stroke="#000000" outline-element="true" stroke-width="0.5" g2gstroke="#312783" stroke-miterlimit="10"/>
<path orgstroke="#000000" orgfill="none" fill="none" d="M761.036,375.05   c-0.645-0.469-3.075,0.892-3.075,0.892l-9.835,5.554c0,0-10.368,6.1-12.416,8.06c-2.047,1.961-3.528,7.494-3.528,7.494" stroke="#000000" stroke-width="0.25" g2gstroke="#312783" stroke-miterlimit="10"/>
<path orgstroke="#000000" orgfill="none" fill="none" d="M756.898,377.546   c1-0.495,2.672-1.465,1.651,0.531c-0.964,1.884-2.469,3.936-3.188,4.833" stroke="#000000" stroke-width="0.25" g2gstroke="#312783" stroke-miterlimit="10"/>
</g>
</g>
</g>
</g></svg>