<svg xmlns="http://www.w3.org/2000/svg" xmlns:xlink="http://www.w3.org/1999/xlink" xmlns:etg="http://www.eurotaxglass.com/etg/evd/" etg:dataTimestamp="1539068912893" contentScriptType="text/ecmascript" zoomAndPan="magnify" contentStyleType="text/css" id="Layer_1" enable-background="new 0 0 1841.891 1595.279" version="1.1" width="1841.891px" xml:space="preserve" preserveAspectRatio="xMidYMid meet" viewBox="0 0 1841.891 1595.279" height="1595.279px" x="0px" y="0px"><g xmlns="http://www.w3.org/2000/svg" objecttype="PS" tooltip="#UNDEFINED" id="10">
<g onmouseover="notifyOwner(AGV_OBJECT_MOUSEOVER, '10(PS)')" transform="translate(28.980023010253888, -45.94039501953125)" onclick="clickZoom(evt); notifyOwner(AGV_OBJECT_MOUSECLICK, '10(PS)')" onmouseout="notifyOwner(AGV_OBJECT_MOUSEOUT, '10(PS)')" tooltip="#UNDEFINED" id="10-Graphic" objecttype="GRAPHIC">
<g>
	<path orgstroke="#000000" orgfill="#ffffff" fill="#ffffff" g2gfill="#ECF5E4" d="M476.771,386.135l15.434-9.027l1.852-1.76   l8.593-5.027l2.527-0.797l12.405-7.26l2.832-0.715l13.371-7.822l1.369-1.74l21.721-12.705l3.388,0.354l1.606-0.945l0.242-2.393   l11.313-6.691l0.604-0.031l0.604,0.41l0.622,0.197c0.983,0.043,2.358-0.896,3.395-2.406c1.172-1.727,1.479-3.6,0.762-4.383   l-0.188-0.166l-2.756-1.867c-0.951-0.646-2.75,0.342-4.021,2.209c-0.604,0.898-0.979,1.838-1.104,2.646l-0.294,0.606l-11.263,6.584   l-2.104-0.77l-1.68,0.979l-1.183,2.691l-22.055,12.902l-1.929,0.352l-13.604,7.957l-1.225,1.492l-12.77,7.469l-1.886,1.979   l-8.395,4.904l-2.684,0.695l-14.48,8.475l-0.546-0.104c-0.737-0.377-1.767-0.609-2.894-0.609c-1.976,0-3.618,0.713-4.001,1.662   l-0.083,0.42v3.328c0,1.15,1.827,2.084,4.083,2.084c2.257,0,4.083-0.934,4.083-2.084L476.771,386.135z" outline-element="true" stroke="#000000" stroke-width="0.5" g2gstroke="#312783" stroke-miterlimit="10"/>
	<path orgstroke="#000000" orgfill="none" fill="none" d="M476.023,382.954   c0.281,0.283,0.44,0.604,0.44,0.941c0,1.15-1.828,2.084-4.083,2.084c-1.578,0-2.947-0.457-3.627-1.125" stroke="#000000" stroke-width="0.25" g2gstroke="#312783" stroke-miterlimit="10"/>
	
		<ellipse orgstroke="#000000" orgfill="none" fill="none" rx="1.982" cx="472.382" ry="1.016" cy="383.896" stroke="#000000" stroke-width="0.25" g2gstroke="#312783" stroke-miterlimit="10"/>
	
		<line orgstroke="#000000" orgfill="none" fill="none" x1="476.465" x2="476.465" y1="386.105" y2="383.896" stroke="#000000" stroke-width="0.25" g2gstroke="#312783" stroke-miterlimit="10"/>
	
		<line orgstroke="#000000" orgfill="none" fill="none" x1="476.465" x2="476.465" y1="387.225" y2="386.676" stroke="#000000" stroke-width="0.25" g2gstroke="#312783" stroke-miterlimit="10"/>
	<path orgstroke="#000000" orgfill="none" fill="none" d="M574.255,329.552   c-0.459-0.896-0.105-2.563,0.938-4.113c0.914-1.346,2.104-2.234,3.062-2.385" stroke="#000000" stroke-width="0.25" g2gstroke="#312783" stroke-miterlimit="10"/>
	
		<ellipse orgstroke="#000000" orgfill="none" transform="matrix(0.5619 -0.8272 0.8272 0.5619 -17.3755 620.3766)" fill="none" rx="1.989" cx="576.976" ry="1.016" cy="326.592" stroke="#000000" stroke-width="0.25" g2gstroke="#312783" stroke-miterlimit="10"/>
	<polyline orgstroke="#000000" orgfill="none" points="573.505,328.95 573.348,328.575    573.316,328.014 573.156,327.014 573.031,326.677 572.848,326.389 572.566,326.232 572.566,326.232 572.38,326.2 572.009,326.26    571.052,326.82  " fill="none" stroke="#000000" stroke-width="0.25" g2gstroke="#312783" stroke-miterlimit="10"/>
	<path orgstroke="#000000" orgfill="none" fill="none" d="M503.531,366.471   c0.24-0.117,0.578-0.08,0.953,0.137c0.729,0.418,1.313,1.344,1.313,2.068c0,0.299-0.104,0.516-0.271,0.639" stroke="#000000" stroke-width="0.25" g2gstroke="#312783" stroke-miterlimit="10"/>
	<path orgstroke="#000000" orgfill="none" fill="none" d="M490.281,374.221   c0.24-0.117,0.578-0.08,0.953,0.137c0.729,0.418,1.313,1.344,1.313,2.068c0,0.299-0.104,0.516-0.271,0.639" stroke="#000000" stroke-width="0.25" g2gstroke="#312783" stroke-miterlimit="10"/>
	<path orgstroke="#000000" orgfill="none" fill="none" d="M493.073,373.391   c0.154-0.074,0.373-0.051,0.617,0.09c0.468,0.27,0.854,0.869,0.854,1.338c0,0.193-0.064,0.332-0.182,0.412" stroke="#000000" stroke-width="0.25" g2gstroke="#312783" stroke-miterlimit="10"/>
	<path orgstroke="#000000" orgfill="none" fill="none" d="M501.214,368.598   c0.146-0.076,0.374-0.051,0.608,0.088c0.477,0.27,0.854,0.871,0.854,1.338c0,0.193-0.064,0.334-0.173,0.414" stroke="#000000" stroke-width="0.25" g2gstroke="#312783" stroke-miterlimit="10"/>
	<path orgstroke="#000000" orgfill="none" fill="none" d="M532.781,349.346   c0.238-0.117,0.577-0.08,0.953,0.137c0.729,0.418,1.313,1.344,1.313,2.068c0,0.299-0.104,0.516-0.271,0.639" stroke="#000000" stroke-width="0.25" g2gstroke="#312783" stroke-miterlimit="10"/>
	<path orgstroke="#000000" orgfill="none" fill="none" d="M554.814,336.445   c0.24-0.117,0.578-0.08,0.953,0.137c0.725,0.427,1.313,1.354,1.313,2.068c0,0.299-0.102,0.516-0.268,0.639" stroke="#000000" stroke-width="0.25" g2gstroke="#312783" stroke-miterlimit="10"/>
	<path orgstroke="#000000" orgfill="none" fill="none" d="M515.477,359.37   c0.239-0.106,0.577-0.069,0.953,0.146c0.725,0.418,1.311,1.344,1.311,2.063c0,0.308-0.1,0.521-0.267,0.646" stroke="#000000" stroke-width="0.25" g2gstroke="#312783" stroke-miterlimit="10"/>
	<path orgstroke="#000000" orgfill="none" fill="none" d="M517.625,357.508   c0.316-0.146,0.771-0.08,1.271,0.198c0.993,0.572,1.799,1.853,1.799,2.847c0,0.354-0.104,0.641-0.297,0.813" stroke="#000000" stroke-width="0.25" g2gstroke="#312783" stroke-miterlimit="10"/>
	<path orgstroke="#000000" orgfill="none" fill="none" d="M519.24,356.471   c0.325-0.146,0.774-0.08,1.271,0.207c0.993,0.572,1.798,1.842,1.798,2.836c0,0.365-0.108,0.643-0.295,0.813" stroke="#000000" stroke-width="0.25" g2gstroke="#312783" stroke-miterlimit="10"/>
	<path orgstroke="#000000" orgfill="none" fill="none" d="M520.979,355.532   c0.324-0.137,0.773-0.08,1.27,0.207c0.992,0.574,1.807,1.853,1.807,2.838c0,0.365-0.108,0.646-0.297,0.816" stroke="#000000" stroke-width="0.25" g2gstroke="#312783" stroke-miterlimit="10"/>
	<path orgstroke="#000000" orgfill="none" fill="none" d="M522.615,354.637   c0.326-0.146,0.774-0.08,1.271,0.207c0.993,0.563,1.798,1.842,1.798,2.836c0,0.365-0.109,0.643-0.296,0.813" stroke="#000000" stroke-width="0.25" g2gstroke="#312783" stroke-miterlimit="10"/>
	<path orgstroke="#000000" orgfill="none" fill="none" d="M526.27,352.448   c0.325-0.137,0.774-0.08,1.271,0.207c0.983,0.574,1.798,1.853,1.798,2.838c0,0.365-0.109,0.646-0.298,0.816" stroke="#000000" stroke-width="0.25" g2gstroke="#312783" stroke-miterlimit="10"/>
	<path orgstroke="#000000" orgfill="none" fill="none" d="M528.169,351.37   c0.316-0.137,0.771-0.069,1.271,0.207c0.992,0.574,1.799,1.853,1.799,2.839c0,0.364-0.104,0.646-0.298,0.815" stroke="#000000" stroke-width="0.25" g2gstroke="#312783" stroke-miterlimit="10"/>
	<path orgstroke="#000000" orgfill="none" fill="none" d="M529.698,350.389   c0.325-0.137,0.773-0.08,1.271,0.207c0.992,0.574,1.798,1.844,1.798,2.838c0,0.365-0.108,0.641-0.297,0.816" stroke="#000000" stroke-width="0.25" g2gstroke="#312783" stroke-miterlimit="10"/>
	<path orgstroke="#000000" orgfill="none" fill="none" d="M524.548,353.566   c0.316-0.137,0.771-0.08,1.271,0.207c0.991,0.574,1.798,1.844,1.798,2.838c0,0.365-0.104,0.646-0.297,0.816" stroke="#000000" stroke-width="0.25" g2gstroke="#312783" stroke-miterlimit="10"/>
	<path orgstroke="#000000" orgfill="none" fill="none" d="M530.888,349.844   c0.325-0.146,0.771-0.08,1.271,0.207c0.993,0.563,1.799,1.842,1.799,2.836c0,0.364-0.104,0.643-0.297,0.813" stroke="#000000" stroke-width="0.25" g2gstroke="#312783" stroke-miterlimit="10"/>
	<path orgstroke="#000000" orgfill="none" fill="none" d="M555.947,333.844   c0.482-0.205,1.152-0.119,1.896,0.307c1.479,0.854,2.678,2.744,2.678,4.229c0,0.545-0.164,0.946-0.441,1.217" stroke="#000000" stroke-width="0.25" g2gstroke="#312783" stroke-miterlimit="10"/>
	<path orgstroke="#000000" orgfill="none" fill="none" d="M557.343,332.938   c0.479-0.205,1.146-0.119,1.891,0.307c1.48,0.854,2.68,2.744,2.68,4.229c0,0.545-0.163,0.957-0.438,1.217" stroke="#000000" stroke-width="0.25" g2gstroke="#312783" stroke-miterlimit="10"/>
	
		<line orgstroke="#000000" orgfill="none" fill="none" x1="516.609" x2="504.658" y1="359.73" y2="366.727" stroke="#000000" stroke-width="0.25" g2gstroke="#312783" stroke-miterlimit="10"/>
	
		<line orgstroke="#000000" orgfill="none" fill="none" x1="517.625" x2="505.681" y1="360.863" y2="367.859" stroke="#000000" stroke-width="0.25" g2gstroke="#312783" stroke-miterlimit="10"/>
</g>
</g>
</g></svg>