<svg xmlns="http://www.w3.org/2000/svg" xmlns:xlink="http://www.w3.org/1999/xlink" xmlns:etg="http://www.eurotaxglass.com/etg/evd/" etg:dataTimestamp="1539068912893" contentScriptType="text/ecmascript" zoomAndPan="magnify" contentStyleType="text/css" id="Layer_1" enable-background="new 0 0 1841.891 1595.279" version="1.1" width="1841.891px" xml:space="preserve" preserveAspectRatio="xMidYMid meet" viewBox="0 0 1841.891 1595.279" height="1595.279px" x="0px" y="0px"><g xmlns="http://www.w3.org/2000/svg" objecttype="PS" tooltip="#UNDEFINED" id="12">
<g onmouseover="notifyOwner(AGV_OBJECT_MOUSEOVER, '12(PS)')" transform="translate(-7.667726550079465, -6.48807631160571) translate(28.980023010253888, -45.94039501953125)" onclick="clickZoom(evt); notifyOwner(AGV_OBJECT_MOUSECLICK, '12(PS)')" onmouseout="notifyOwner(AGV_OBJECT_MOUSEOUT, '12(PS)')" tooltip="#UNDEFINED" id="12-Graphic" objecttype="GRAPHIC">
<g>
	<path orgstroke="#000000" orgfill="#ffffff" fill="#ffffff" g2gfill="#ECF5E4" d="M231.967,316.82l0.008,1.25l0.277,1.482   l0.557,1.713l0.604,1.435l0.972,1.25l0.278,0.648l-0.055,8.609l0.146,0.363l1.574,1.352l0.509,0.139h0.646l0.563-0.139l0.88-0.324   l0.833-0.51l0.787-0.694l0.646-0.694l0.694-1.104l0.277-1.111l0.271-1.574l0.146-1.76l0.646-4.26l0.463-1.761l0.277-1.479   l0.557-1.205l2.13-6.203l0.833-2.035l0.646-3.428l0.271-2.313l-0.271-5.37l-0.092-0.648l-1.767-3.146l-0.092-0.833v-0.689   l-0.092-7.546l-0.188-0.604l-0.363-0.367l-0.833-0.273l-0.563-0.094l-0.715,0.395l-0.17,0.188l-0.053,0.176l-0.069,0.271   l-2.002,1.429l-0.604,0.142l-0.229-0.047l-0.277,0.047l-0.509,0.37l-0.187,0.229l-0.048,0.604l-0.145,8.657l-0.092,0.783   l-0.143,0.419l-0.229,0.465l-0.509,0.646l-0.511,0.784l-0.515,0.834l-0.354,0.521l-0.339,0.175   c-1.033-0.521-2.52-0.357-4.155,0.589c-3.14,1.813-5.674,5.813-5.674,8.946c0,1.264,0.409,2.188,1.104,2.729l3.813,2.106   L231.967,316.82z" outline-element="true" stroke="#000000" stroke-width="0.5" g2gstroke="#312783" stroke-miterlimit="10"/>
	<path orgstroke="#000000" orgfill="none" fill="none" d="M244.713,289.24   c0,0.745-0.604,1.693-1.347,2.123c-0.745,0.432-1.354,0.177-1.354-0.567c0-0.736,0.604-1.688,1.354-2.125   C244.111,288.239,244.713,288.497,244.713,289.24z" stroke="#000000" stroke-width="0.25" g2gstroke="#312783" stroke-miterlimit="10"/>
	<path orgstroke="#000000" orgfill="none" fill="none" d="M240.96,330.552   c0,0.744-0.604,1.688-1.354,2.123c-0.736,0.43-1.346,0.176-1.346-0.568s0.604-1.694,1.346-2.124   C240.358,329.552,240.96,329.807,240.96,330.552z" stroke="#000000" stroke-width="0.25" g2gstroke="#312783" stroke-miterlimit="10"/>
	<path orgstroke="#000000" orgfill="none" fill="none" d="M240.529,306.785   c0.701,0.293,1.142,1.016,1.142,2.072c0,2.063-1.613,4.665-3.646,5.945" stroke="#000000" stroke-width="0.25" g2gstroke="#312783" stroke-miterlimit="10"/>
	<path orgstroke="#000000" orgfill="none" fill="none" d="M233.971,303.734   c0.073-0.046,0.149-0.091,0.225-0.134c0.646-0.369,1.261-0.619,1.825-0.755" stroke="#000000" stroke-width="0.25" g2gstroke="#312783" stroke-miterlimit="10"/>
	<path orgstroke="#000000" orgfill="none" fill="none" d="M229.629,315.276   c-0.695-0.539-1.107-1.467-1.107-2.729c0-2.435,1.521-5.375,3.664-7.432" stroke="#000000" stroke-width="0.25" g2gstroke="#312783" stroke-miterlimit="10"/>
	
		<line orgstroke="#000000" orgfill="none" fill="none" x1="230.482" x2="234.333" y1="303.897" y2="306.135" stroke="#000000" stroke-width="0.25" g2gstroke="#312783" stroke-miterlimit="10"/>
	
		<line orgstroke="#000000" orgfill="none" fill="none" x1="232.036" x2="235.131" y1="302.765" y2="304.56" stroke="#000000" stroke-width="0.25" g2gstroke="#312783" stroke-miterlimit="10"/>
	<polyline orgstroke="#000000" orgfill="none" points="231.963,316.448 231.928,310.896    232.16,310.108 232.483,309.51 232.9,308.997 234.752,306.682 235.122,306.177 235.4,305.387 235.677,304.182 235.955,303.442    236.326,302.608 236.6,302.122  " fill="none" stroke="#000000" stroke-width="0.25" g2gstroke="#312783" stroke-miterlimit="10"/>
	<polyline orgstroke="#000000" orgfill="none" points="239.613,288.21 240.632,288.488    240.91,288.535 241.188,288.349 245.446,285.571  " fill="none" stroke="#000000" stroke-width="0.25" g2gstroke="#312783" stroke-miterlimit="10"/>
	<polyline orgstroke="#000000" orgfill="none" points="240.585,289.09 240.677,298.071    240.585,299.094 240.076,300.247 239.844,300.804 239.382,301.775 239.104,302.747 238.826,303.95 238.594,305.063    238.455,305.987 238.316,306.682 238.085,307.283 237.761,307.979 236.002,310.571 235.863,311.08 235.816,311.594    235.724,316.775 235.955,317.562 236.372,318.533 236.743,319.137 237.066,319.51 237.344,320.062 237.622,320.718    237.668,321.404 237.808,325.525 237.715,326.312 237.438,328.349 237.205,329.737 237.021,330.849 236.974,331.866    236.882,333.395 236.974,334.737  " fill="none" stroke="#000000" stroke-width="0.25" g2gstroke="#312783" stroke-miterlimit="10"/>
	<polyline orgstroke="#000000" orgfill="none" points="247.576,304.229 247.344,303.442    246.974,302.887 246.557,302.385 246.094,302.146 245.585,301.968 245.029,301.968 244.474,302.01 243.918,302.192 242.993,302.7    242.438,303.071 241.974,303.533 241.465,304.137 241.048,304.927 240.493,306.22 240.076,307.146 239.474,308.025    238.688,308.904 237.993,309.692 236.927,310.849 236.465,311.312  " fill="none" stroke="#000000" stroke-width="0.25" g2gstroke="#312783" stroke-miterlimit="10"/>
	<polyline orgstroke="#000000" orgfill="none" points="241.28,305.2 242.529,306.177    243.039,306.358 243.594,306.551 244.149,306.729 244.289,306.968 244.335,307.385 244.335,313.858 244.289,314.32 244.057,314.97    243.733,315.57 243.41,315.849 242.529,316.404 241.696,316.866 240.771,317.191 239.844,317.562 239.011,317.608 238.502,317.654    238.132,317.47 237.899,317.191 237.761,316.913 237.715,310.387  " fill="none" stroke="#000000" stroke-width="0.25" g2gstroke="#312783" stroke-miterlimit="10"/>
	<polyline orgstroke="#000000" orgfill="none" points="243.085,307.192 243.085,313.361    243.039,313.823 242.807,314.473 242.483,315.073 242.16,315.352 241.28,315.906 240.446,316.369 239.521,316.695 238.594,317.064    238.137,317.094  " fill="none" stroke="#000000" stroke-width="0.25" g2gstroke="#312783" stroke-miterlimit="10"/>
	<polyline orgstroke="#000000" orgfill="none" points="244.335,313.858 244.497,313.511    244.775,312.815 244.983,312.537 245.261,312.261 246.025,311.704 246.649,311.079 247.066,310.524 247.344,309.691  " fill="none" stroke="#000000" stroke-width="0.25" g2gstroke="#312783" stroke-miterlimit="10"/>
</g>
</g>
</g></svg>