<svg xmlns="http://www.w3.org/2000/svg" xmlns:xlink="http://www.w3.org/1999/xlink" xmlns:etg="http://www.eurotaxglass.com/etg/evd/" etg:dataTimestamp="1539068912893" contentScriptType="text/ecmascript" zoomAndPan="magnify" contentStyleType="text/css" id="Layer_1" enable-background="new 0 0 1841.891 1595.279" version="1.1" xml:space="preserve" width="1841.891px" preserveAspectRatio="xMidYMid meet" viewBox="0 0 1841.891 1595.279" height="1595.279px" x="0px" y="0px"><g xmlns="http://www.w3.org/2000/svg" objecttype="PS" tooltip="#UNDEFINED" id="152">
<g onmouseover="notifyOwner(AGV_OBJECT_MOUSEOVER, '152(PS)')" transform="translate(-1.0864257831144641E-5, 66.80804286193847) translate(-478.1112626953125, -9.244252822875978) translate(-287.9539357011647, 68.9637577099428) translate(15.72857631981151, 37.50660507031978) translate(59.0, -37.0) translate(572.0, -62.0) translate(10.0, 10.00006103515625)" onclick="clickZoom(evt); notifyOwner(AGV_OBJECT_MOUSECLICK, '152(PS)')" onmouseout="notifyOwner(AGV_OBJECT_MOUSEOUT, '152(PS)')" tooltip="#UNDEFINED" id="152-Graphic" objecttype="GRAPHIC">
<g zvalue="50">
<g>
<path orgstroke="#000000" orgfill="#ffffff" fill="#ffffff" g2gfill="#ECC35D" d="M806.795,318.756   c-0.176-0.643-0.551-2.025-1.045-3.611c-0.059-0.188-0.117-0.355-0.297-0.459c0,0-0.906-0.512-1.189-0.688   c-0.283-0.174-0.42-0.297-0.5-0.529c-0.332-0.977-0.672-1.902-0.801-2.285c-0.027-0.08-0.232-0.375-0.512-0.537   s-0.594-0.342-0.803-0.463s-0.486-0.1-0.594,0.029c-0.088,0.096-0.176,0.205-0.268,0.326c-3.727,4.873-8.84,10.096-9.52,10.834   c-2.838,3.076-5.785,5.996-8.824,8.779c-0.16,0.148-0.197,0.266,0.139,0.518c0.305,0.229,1.193,0.947,1.193,0.947   c0.141,0.082,0.102,0.26-0.07,0.414c-14.271,12.73-30.486,22.537-46.639,31.861l-1.059,0.611   c-16.676,9.629-34.547,18.627-50.533,25.219c-0.35,0.145-0.674,0.088-0.902-0.045l-1.238-0.715   c-0.188-0.107-0.293-0.111-0.516-0.021c-6.428,2.594-12.539,4.779-18.143,6.432c-3.389,1-6.932,1.918-10.533,2.727   c-5.84,1.281-9.373,2.746-11.982,6.172c-0.102,0.133-0.35,0.58-0.35,0.58c-0.111,0.184-0.031,0.43,0.154,0.537l0.771,0.443   c0.232,0.135,0.264,0.277,0.047,0.549c-1.688,2.105-3.611,4.92-6.176,8.816c-0.105,0.16-0.221,0.244-0.379,0.279l-0.371,0.086   c-0.59,0.139-1.176,0.275-1.754,0.406c-0.279,0.064-0.381,0.17-0.381,0.451v0.402c0,0.129,0.098,0.305,0.238,0.387l1.283,0.74   c0.178,0.104,0.412,0.123,0.799,0.035c0.568-0.131,1.145-0.262,1.725-0.398l0.32-0.1c0.887-0.182,1.586-1.344,1.896-1.816   c0.053-0.082,0.303-0.463,0.303-0.463c1.373-2.123,5.029-3.064,6.844-3.453c5.887-1.26,11.777-2.762,16.844-4.248   c14.711-4.318,32.352-11.879,52.342-21.801c2.031-1.008,3.26-0.486,4.141-0.994c2.135-1.092,4.26-2.188,6.365-3.313   c0.129-0.068,0.256-0.146,0.379-0.357c0.355-0.615,0.701-1.291,1.166-1.926c1.018-1.389,2.211-2.459,3.346-3.09l0.146-0.076   c0.465-0.221,0.877-0.135,1.486,0.084s1.266,0.406,1.578,0.5s0.445,0.223,1.229-0.219c2.979-1.674,5.955-3.43,8.865-5.113   c0.176-0.102,0.33-0.277,0.406-0.455c0.354-0.814,0.818-1.662,1.418-2.48c0.963-1.316,2.084-2.344,3.164-2.984l0.195-0.111   c0.627-0.305,1.191-0.145,1.629,0s1.156,0.375,1.563,0.486s0.672-0.002,1.18-0.324c0.742-0.473,1.602-1.025,2.336-1.502   c0.625-0.404,0.719-0.813,0.844-1.375c0.023-0.109,0.047-0.262,0.064-0.441c0.029-0.307,0.107-0.492,0.326-0.619   c19.057-12.438,35.865-24.682,45.193-38.553c0.709-1.055,2.725-1.967,3.295-3.047c0,0,0.164-0.283,0.195-0.371   C806.902,319.201,806.869,319.027,806.795,318.756z M798.914,322.801c0,0.203-0.105,0.914-0.131,1.09   c-0.113,0.76-0.074,0.637-0.496,1.121c-0.398,0.457-1.098,1.193-1.639,1.723c-0.244,0.24-0.277,0.158-0.244-0.049   c0.059-0.361,0.16-0.674,0.16-0.752c0-0.074-0.006-0.465-0.037-0.705c-0.012-0.096,0.014-0.281-0.15-0.377l-0.152-0.088   c-0.129-0.074-0.145-0.098-0.016-0.232c0.795-0.818,1.588-1.639,2.375-2.451c0.17-0.176,0.33-0.139,0.33,0.104   S798.914,322.686,798.914,322.801z" stroke="#000000" outline-element="true" stroke-width="0.5" g2gstroke="#312783" stroke-miterlimit="10"/>
<path orgstroke="#000000" orgfill="none" stroke-linecap="round" fill="none" stroke-linejoin="round" d="   M799.391,323.012c2.338-2.445,4.576-4.9,6.484-7.459" stroke="#000000" stroke-width="0.25" g2gstroke="#312783" stroke-miterlimit="10"/>
<path orgstroke="#000000" orgfill="none" stroke-linecap="round" fill="none" stroke-linejoin="round" d="   M643.83,407.086c8.217-1.414,17.17-3.592,24.436-5.725c19.191-5.633,45.152-17.887,69.621-32.014   c20.533-11.855,41.873-25.984,57.25-41.941c0.475-0.492,0.951-0.982,1.426-1.473" stroke="#000000" stroke-width="0.25" g2gstroke="#312783" stroke-miterlimit="10"/>
<path orgstroke="#000000" orgfill="none" stroke-linecap="round" fill="none" stroke-linejoin="round" d="   M635.516,418.033c0.887-0.182,1.586-1.271,1.896-1.744c3.203-4.869,5.402-8.111,7.4-10.369" stroke="#000000" stroke-width="0.25" g2gstroke="#312783" stroke-miterlimit="10"/>
<path orgstroke="#000000" orgfill="none" stroke-linecap="round" fill="none" stroke-linejoin="round" d="   M643.139,404.736c8.143-1.41,16.037-3.354,23.24-5.469c3.686-1.08,7.709-2.428,11.83-3.975c1.748-0.656,2.563-1.133,3.25-2.32   c0.604-1.045,1.273-2.682,1.426-3.064" stroke="#000000" stroke-width="0.25" g2gstroke="#312783" stroke-miterlimit="10"/>
<path orgstroke="#000000" orgfill="none" stroke-linecap="round" fill="none" stroke-linejoin="round" d="   M799.334,322.125c2.236-2.334,4.381-4.68,6.234-7.113" stroke="#000000" stroke-width="0.25" g2gstroke="#312783" stroke-miterlimit="10"/>
<path orgstroke="#000000" orgfill="none" stroke-linecap="round" fill="none" stroke-linejoin="round" d="   M786.447,331.885c0.129,0.002,0.256-0.055,0.406-0.193c2.254-2.078,4.428-4.176,6.488-6.316c3.711-3.852,7.518-7.59,10.531-11.576" stroke="#000000" stroke-width="0.25" g2gstroke="#312783" stroke-miterlimit="10"/>
<path orgstroke="#000000" orgfill="none" fill="none" d="M735.631,376.609   c-0.141-0.359-0.354-0.654-0.643-0.867c-0.791-0.578-1.996-0.426-3.275,0.283" stroke="#000000" stroke-width="0.25" g2gstroke="#312783" stroke-miterlimit="10"/>
<path orgstroke="#000000" orgfill="none" fill="none" d="M754.063,365.656   c-0.139-0.313-0.338-0.572-0.6-0.764c-0.828-0.605-2.111-0.41-3.457,0.389" stroke="#000000" stroke-width="0.25" g2gstroke="#312783" stroke-miterlimit="10"/>
<path orgstroke="#000000" orgfill="none" stroke-linecap="round" fill="none" stroke-linejoin="round" d="   M720.656,384.607c0.621-0.318,0.916-0.746,0.881-1.277c-0.023-0.338-0.01-0.84-0.01-1.25c0-1.031-0.311-1.664-1.785-0.896   c-18.67,9.711-36.99,17.779-51.477,22.031c-6.631,1.945-14.668,3.916-22.264,5.336c-0.805,0.15-1.584,0.602-2.111,1.305   c-1.465,1.949-2.348,3.434-3.746,5.568" stroke="#000000" stroke-width="0.25" g2gstroke="#312783" stroke-miterlimit="10"/>
<path orgstroke="#000000" orgfill="none" fill="none" d="M717.371,385.285   c0.621-0.318,0.916-0.715,0.881-1.246s0-1.469,0-1.813c0-0.07,0.004-0.166,0.014-0.275" stroke="#000000" stroke-width="0.25" g2gstroke="#312783" stroke-miterlimit="10"/>
<path orgstroke="#000000" orgfill="none" fill="none" d="M757.816,362.014   c0.066-0.754,0.133-2.061,0.133-2.393c0-0.469,0.039-1.172,0.553-1.5c0.248-0.158,0.748-0.465,0.994-0.625   c13.311-8.568,25.621-17.84,35.641-28.236c3.484-3.615,6.902-7.256,9.969-10.85c0.561-0.658,0.811-0.355,0.938,0.107   c0.229,0.813,0.414,1.5,0.414,1.5" stroke="#000000" stroke-width="0.25" g2gstroke="#312783" stroke-miterlimit="10"/>
<path orgstroke="#000000" orgfill="none" fill="none" d="M803.4080200195312 320.364990234375L803.9819946289062 322.14599609375" stroke="#000000" stroke-width="0.25" g2gstroke="#312783" stroke-miterlimit="10"/>
<path orgstroke="#000000" orgfill="none" stroke-linecap="round" fill="none" stroke-linejoin="round" d="   M633.867,416.123l1.041,0.6c0.35,0.201,0.484,0.191,0.727-0.119c0.279-0.361,0.521-0.721,0.666-0.941   c0.068-0.104,0.135-0.203,0.201-0.305" stroke="#000000" stroke-width="0.25" g2gstroke="#312783" stroke-miterlimit="10"/>
<path orgstroke="#000000" orgfill="none" stroke-linecap="round" fill="none" stroke-linejoin="round" d="   M684.805,390.975c0,0-0.771,1.957-1.459,3.145s-1.502,1.664-3.25,2.32c-4.121,1.547-8.145,2.895-11.83,3.975   c-7.119,2.09-14.914,4.008-22.953,5.42c-0.289,0.051-0.527-0.051-0.809-0.213l-1.008-0.58c-0.355-0.205-0.494-0.289-0.213-0.59   c3.15-3.359,5.855-4.414,11.359-5.615c3.516-0.787,6.977-1.678,10.287-2.648c5.43-1.594,11.348-3.695,17.572-6.191   c0.371-0.148,0.535-0.1,0.762,0.033l1.168,0.672c0.262,0.152,0.398,0.199,0.734,0.064c16.295-6.584,34.609-15.828,51.688-25.689   l1.059-0.611c16.637-9.604,33.342-19.709,47.912-33.01" stroke="#000000" stroke-width="0.25" g2gstroke="#312783" stroke-miterlimit="10"/>
<path orgstroke="#000000" orgfill="none" stroke-linecap="round" fill="none" stroke-linejoin="round" d="   M802.859,311.02c-0.123-0.148-0.381-0.313-0.576-0.076c-0.086,0.092-0.172,0.199-0.262,0.314   c-3.609,4.721-8.561,9.779-9.219,10.494c-2.758,2.99-5.621,5.824-8.574,8.529c-0.225,0.207-0.074,0.219,0.137,0.34l1.25,0.723   c0.209,0.111,0.342,0.207,0.512,0.322l1.738,1.172c0.281,0.162,0.492,0.207,0.783-0.063c2.252-2.078,4.426-4.176,6.488-6.316   c0.459-0.477,0.92-0.951,1.379-1.426" stroke="#000000" stroke-width="0.25" g2gstroke="#312783" stroke-miterlimit="10"/>
<path orgstroke="#000000" orgfill="none" stroke-linecap="round" fill="none" stroke-linejoin="round" d="   M782.365,330.447l1.645,0.947c0.166,0.098,0.189,0.215,0.014,0.367s-0.484,0.42-0.541,0.467" stroke="#000000" stroke-width="0.25" g2gstroke="#312783" stroke-miterlimit="10"/>
<path orgstroke="#000000" orgfill="none" fill="none" d="M796.432,326.531   c-0.01,0.076-0.078,0.516-0.084,0.59c-0.031,0.516,0.236,0.379,0.623,0.014c0.557-0.529,1.314-1.332,1.736-1.816   s0.383-0.361,0.496-1.121c0.025-0.176,0.131-0.887,0.131-1.09c0-0.15,0-0.545,0-0.826c0-0.215,0-0.301-0.174-0.402l-0.068-0.037   c-0.178-0.104-0.223-0.057-0.338,0.063l-0.4,0.414" stroke="#000000" stroke-width="0.25" g2gstroke="#312783" stroke-miterlimit="10"/>
</g>
</g>
</g>
</g></svg>