<svg xmlns="http://www.w3.org/2000/svg" xmlns:xlink="http://www.w3.org/1999/xlink" xmlns:etg="http://www.eurotaxglass.com/etg/evd/" etg:dataTimestamp="1539068912893" contentScriptType="text/ecmascript" zoomAndPan="magnify" contentStyleType="text/css" id="Layer_1" enable-background="new 0 0 1841.891 1595.279" version="1.1" width="1841.891px" xml:space="preserve" preserveAspectRatio="xMidYMid meet" viewBox="0 0 1841.891 1595.279" height="1595.279px" x="0px" y="0px"><g xmlns="http://www.w3.org/2000/svg" objecttype="PS" tooltip="#UNDEFINED" id="51">
<g onmouseover="notifyOwner(AGV_OBJECT_MOUSEOVER, '51(PS)')" transform="translate(-175.0, 43.0) translate(-24.0, 35.0) translate(102,56) " onclick="clickZoom(evt); notifyOwner(AGV_OBJECT_MOUSECLICK, '51(PS)')" onmouseout="notifyOwner(AGV_OBJECT_MOUSEOUT, '51(PS)')" tooltip="#UNDEFINED" id="51-Graphic" objecttype="GRAPHIC">
<g zvalue="32">
<g zvalue="19">
<g>
<path orgstroke="#000000" orgfill="#ffffff" transform="matrix(1 0 0 1 127 -174.99993896484375)" fill="#ffffff" g2gfill="#ECF5E4" d="M534.906,298.635l-0.668-0.313l-0.264-0.172   l-0.475-0.595l-0.264-0.488l-0.355-0.599l-0.283-0.514l-0.229-0.074l-0.123,0.006l-0.287,0.09l-0.41,0.093l-0.729,0.192   l-0.934-0.035l-0.688-0.202l-0.92-0.415l0.049,0.025c-1.219-0.66-1.994-2.046-2.076-4.024c-0.182-4.442,3.186-10.275,7.523-13.023   c2.502-1.586,4.77-1.798,6.295-0.842l0.588,0.452l0.576,0.785l0.35,0.599l0.033,0.23l0.172,0.082l0.225-0.008l1.021-0.212   l1.113-0.019l0.84,0.046l0.73,0.301l0.434,0.212l0.768,0.688c1.117,0.708,1.818,2.038,1.896,3.914   c0.186,4.443-3.189,10.283-7.521,13.033c-2.063,1.31-3.979,1.685-5.438,1.233L534.906,298.635z" stroke="#000000" outline-element="true" stroke-width="0.5" g2gstroke="#322F82" stroke-miterlimit="10"/>
<path orgstroke="#000000" orgfill="none" transform="matrix(1 0 0 1 127 -174.99993896484375)" fill="none" d="M537.394,284.551   c0.969-1.107,2.072-2.056,3.23-2.791c2.199-1.381,4.217-1.712,5.688-1.15" stroke="#000000" stroke-width="0.25" g2gstroke="#322F82" stroke-miterlimit="10"/>
<path orgstroke="#000000" orgfill="none" transform="matrix(1 0 0 1 127 -174.99993896484375)" fill="none" d="M534.558,288.775   c0.514-1.042,1.133-2.063,1.852-3.037" stroke="#000000" stroke-width="0.25" g2gstroke="#322F82" stroke-miterlimit="10"/>
<path orgstroke="#000000" orgfill="none" transform="matrix(1 0 0 1 127 -174.99993896484375)" fill="none" d="M535.175,298.796   c-1.215-0.661-1.994-2.042-2.074-4.015c-0.051-1.263,0.182-2.614,0.643-4.012" stroke="#000000" stroke-width="0.25" g2gstroke="#322F82" stroke-miterlimit="10"/>
<path orgstroke="#000000" orgfill="none" transform="matrix(1 0 0 1 127 -174.99993896484375)" fill="none" d="M534.406,298.11   c-1.201-0.662-1.992-2.042-2.072-4.031c-0.184-4.445,3.189-10.282,7.523-13.03c2.492-1.596,4.768-1.795,6.289-0.854" stroke="#000000" stroke-width="0.25" g2gstroke="#322F82" stroke-miterlimit="10"/>
<path orgstroke="#000000" orgfill="none" transform="matrix(1 0 0 1 127 -174.99993896484375)" fill="none" d="M530.878,282.489   c1.113-1.384,2.42-2.604,3.83-3.503c1.688-1.069,3.285-1.505,4.598-1.399" stroke="#000000" stroke-width="0.25" g2gstroke="#322F82" stroke-miterlimit="10"/>
<path orgstroke="#000000" orgfill="none" transform="matrix(1 0 0 1 127 -174.99993896484375)" fill="none" d="M528.691,285.916   c0.35-0.722,0.76-1.419,1.211-2.088" stroke="#000000" stroke-width="0.25" g2gstroke="#322F82" stroke-miterlimit="10"/>
<path orgstroke="#000000" orgfill="none" transform="matrix(1 0 0 1 127 -174.99993896484375)" fill="none" d="M529.253,296.047   c-1.217-0.659-1.994-2.042-2.076-4.015c-0.057-1.423,0.244-2.975,0.83-4.529" stroke="#000000" stroke-width="0.25" g2gstroke="#322F82" stroke-miterlimit="10"/>
<path orgstroke="#000000" orgfill="none" transform="matrix(1 0 0 1 127 -174.99993896484375)" fill="none" d="M531.341,293.975   c-0.883-0.486-1.441-1.484-1.5-2.907c-0.135-3.216,2.307-7.442,5.451-9.428c1.813-1.152,3.459-1.309,4.561-0.61" stroke="#000000" stroke-width="0.25" g2gstroke="#322F82" stroke-miterlimit="10"/>
<path orgstroke="#000000" orgfill="none" transform="matrix(1 0 0 1 127 -174.99993896484375)" fill="none" d="M531.72,294.036   c-0.488-0.545-0.771-1.341-0.816-2.351c-0.133-3.221,2.311-7.45,5.451-9.432c1.27-0.812,2.309-1.167,3.281-1.044" stroke="#000000" stroke-width="0.25" g2gstroke="#322F82" stroke-miterlimit="10"/>
<path orgstroke="#000000" orgfill="none" transform="matrix(1 0 0 1 127 -174.99993896484375)" fill="none" d="M532.408,294.591   c-0.258-0.146-0.484-0.333-0.689-0.555" stroke="#000000" stroke-width="0.25" g2gstroke="#322F82" stroke-miterlimit="10"/>
<path orgstroke="#000000" orgfill="none" transform="matrix(1 0 0 1 127 -174.99993896484375)" fill="none" d="M532.382,294.607   c-0.469-0.553-0.75-1.329-0.791-2.322c-0.131-3.222,2.299-7.447,5.443-9.431c0.604-0.379,0.75-0.51,1.313-0.667" stroke="#000000" stroke-width="0.25" g2gstroke="#322F82" stroke-miterlimit="10"/>
<path orgstroke="#000000" orgfill="none" transform="matrix(1 0 0 1 127 -174.99993896484375)" fill="none" d="M542.984,291.41   c-0.443,0.622-0.994,1.169-1.6,1.562c-1.525,0.979-2.832,0.489-2.896-1.097c-0.063-1.576,1.131-3.643,2.664-4.617   c1.537-0.983,2.836-0.495,2.9,1.094c0.027,0.599-0.139,1.291-0.438,1.951" stroke="#000000" stroke-width="0.25" g2gstroke="#322F82" stroke-miterlimit="10"/>
<path orgstroke="#000000" orgfill="none" transform="matrix(1 0 0 1 127 -174.99993896484375)" fill="none" d="M547.654,285.582   c0.154,3.812-2.734,8.812-6.453,11.17c-3.727,2.356-6.873,1.176-7.029-2.634c-0.158-3.805,2.736-8.808,6.461-11.163   C544.355,280.594,547.496,281.769,547.654,285.582z" stroke="#000000" stroke-width="0.25" g2gstroke="#322F82" stroke-miterlimit="10"/>
<path orgstroke="#000000" orgfill="none" transform="matrix(1 0 0 1 127 -174.99993896484375)" fill="none" d="M542.748,286.981   c0.064,0.18,0.102,0.398,0.113,0.643c0.063,1.587-1.133,3.64-2.668,4.629c-0.422,0.265-0.824,0.421-1.193,0.482" stroke="#000000" stroke-width="0.25" g2gstroke="#322F82" stroke-miterlimit="10"/>
<path orgstroke="#000000" orgfill="none" transform="matrix(1 0 0 1 127 -174.99993896484375)" fill="none" d="M531.3410034179688 293.9750061035156L532.4080200195312 294.59100341796875" stroke="#000000" stroke-width="0.25" stroke-miterlimit="10" g2gstroke="#322F82"/>
</g>
</g>
</g>
</g>
</g></svg>