<svg xmlns="http://www.w3.org/2000/svg" xmlns:xlink="http://www.w3.org/1999/xlink" xmlns:etg="http://www.eurotaxglass.com/etg/evd/" etg:dataTimestamp="1539068912893" contentScriptType="text/ecmascript" zoomAndPan="magnify" contentStyleType="text/css" id="Layer_1" enable-background="new 0 0 1841.891 1595.279" version="1.1" width="1841.891px" xml:space="preserve" preserveAspectRatio="xMidYMid meet" viewBox="0 0 1841.891 1595.279" height="1595.279px" x="0px" y="0px"><g xmlns="http://www.w3.org/2000/svg" objecttype="PS" tooltip="#UNDEFINED" id="6">
<g onmouseover="notifyOwner(AGV_OBJECT_MOUSEOVER, '6(PS)')" transform="translate(28.980023010253888, -45.94039501953125)" onclick="clickZoom(evt); notifyOwner(AGV_OBJECT_MOUSECLICK, '6(PS)')" onmouseout="notifyOwner(AGV_OBJECT_MOUSEOUT, '6(PS)')" tooltip="#UNDEFINED" id="6-Graphic" objecttype="GRAPHIC">
<g>
	<path orgstroke="#000000" orgfill="#ffffff" fill="#ffffff" g2gfill="#ECF5E4" d="M457.906,379.26l15.438-9.027l1.843-1.76   l8.593-5.027l2.527-0.797l12.414-7.26l2.832-0.715l13.371-7.822l1.36-1.74l21.729-12.705l3.379,0.354l1.616-0.945l0.232-2.393   l11.313-6.691l0.604-0.031l0.604,0.41l0.623,0.197c0.989,0.043,2.367-0.896,3.393-2.406c1.181-1.727,1.48-3.6,0.771-4.383   l-0.193-0.166l-2.754-1.867c-0.953-0.646-2.75,0.342-4.021,2.209c-0.604,0.898-0.979,1.838-1.104,2.646l-0.293,0.606l-11.256,6.584   l-2.112-0.77l-1.678,0.979l-1.175,2.691l-22.063,12.902l-1.929,0.352l-13.604,7.957l-1.225,1.492l-12.764,7.469l-1.889,1.979   l-8.396,4.903l-2.676,0.695l-14.488,8.475l-0.543-0.104c-0.74-0.377-1.761-0.609-2.888-0.609c-1.979,0-3.62,0.713-4.002,1.662   l-0.083,0.42v3.328c0,1.15,1.824,2.084,4.083,2.084c2.256,0,4.083-0.934,4.083-2.084L457.906,379.26z" outline-element="true" stroke="#000000" stroke-width="0.5" g2gstroke="#312783" stroke-miterlimit="10"/>
	<path orgstroke="#000000" orgfill="none" fill="none" d="M457.156,376.081   c0.282,0.283,0.441,0.604,0.441,0.941c0,1.15-1.828,2.084-4.083,2.084c-1.578,0-2.946-0.457-3.627-1.125" stroke="#000000" stroke-width="0.25" g2gstroke="#312783" stroke-miterlimit="10"/>
	
		<ellipse orgstroke="#000000" orgfill="none" fill="none" rx="1.991" cx="453.515" ry="1.016" cy="377.023" stroke="#000000" stroke-width="0.25" g2gstroke="#312783" stroke-miterlimit="10"/>
	
		<line orgstroke="#000000" orgfill="none" fill="none" x1="457.598" x2="457.598" y1="379.232" y2="377.023" stroke="#000000" stroke-width="0.25" g2gstroke="#312783" stroke-miterlimit="10"/>
	
		<line orgstroke="#000000" orgfill="none" fill="none" x1="457.598" x2="457.598" y1="380.352" y2="379.802" stroke="#000000" stroke-width="0.25" g2gstroke="#312783" stroke-miterlimit="10"/>
	<path orgstroke="#000000" orgfill="none" fill="none" d="M555.387,322.677   c-0.459-0.896-0.105-2.563,0.947-4.113c0.914-1.346,2.104-2.234,3.053-2.385" stroke="#000000" stroke-width="0.25" g2gstroke="#312783" stroke-miterlimit="10"/>
	
		<ellipse orgstroke="#000000" orgfill="none" transform="matrix(0.5616 -0.8274 0.8274 0.5616 -19.9808 601.9291)" fill="none" rx="1.99" cx="558.069" ry="1.015" cy="319.821" stroke="#000000" stroke-width="0.25" g2gstroke="#312783" stroke-miterlimit="10"/>
	<polyline orgstroke="#000000" orgfill="none" points="554.637,322.077 554.48,321.702    554.448,321.141 554.294,320.141 554.169,319.802 553.98,319.516 553.698,319.359 553.698,319.359 553.512,319.327    553.141,319.387 552.184,319.947  " fill="none" stroke="#000000" stroke-width="0.25" g2gstroke="#312783" stroke-miterlimit="10"/>
	<path orgstroke="#000000" orgfill="none" fill="none" d="M484.669,359.598   c0.229-0.117,0.569-0.08,0.944,0.137c0.729,0.418,1.313,1.344,1.313,2.068c0,0.299-0.104,0.516-0.271,0.639" stroke="#000000" stroke-width="0.25" g2gstroke="#312783" stroke-miterlimit="10"/>
	<path orgstroke="#000000" orgfill="none" fill="none" d="M471.419,367.348   c0.229-0.117,0.569-0.08,0.944,0.137c0.729,0.418,1.313,1.344,1.313,2.068c0,0.299-0.104,0.516-0.271,0.639" stroke="#000000" stroke-width="0.25" g2gstroke="#312783" stroke-miterlimit="10"/>
	<path orgstroke="#000000" orgfill="none" fill="none" d="M474.213,366.518   c0.146-0.074,0.374-0.051,0.607,0.09c0.478,0.271,0.854,0.869,0.854,1.338c0,0.193-0.063,0.332-0.173,0.412" stroke="#000000" stroke-width="0.25" g2gstroke="#312783" stroke-miterlimit="10"/>
	<path orgstroke="#000000" orgfill="none" fill="none" d="M482.347,361.725   c0.155-0.076,0.374-0.051,0.617,0.088c0.468,0.27,0.848,0.871,0.848,1.338c0,0.193-0.063,0.334-0.173,0.414" stroke="#000000" stroke-width="0.25" g2gstroke="#312783" stroke-miterlimit="10"/>
	<path orgstroke="#000000" orgfill="none" fill="none" d="M513.92,342.473   c0.229-0.117,0.568-0.08,0.944,0.137c0.729,0.418,1.313,1.344,1.313,2.068c0,0.299-0.104,0.516-0.271,0.639" stroke="#000000" stroke-width="0.25" g2gstroke="#312783" stroke-miterlimit="10"/>
	<path orgstroke="#000000" orgfill="none" fill="none" d="M535.948,329.572   c0.239-0.117,0.577-0.08,0.953,0.146c0.729,0.418,1.313,1.346,1.313,2.063c0,0.299-0.104,0.521-0.271,0.646" stroke="#000000" stroke-width="0.25" g2gstroke="#312783" stroke-miterlimit="10"/>
	<path orgstroke="#000000" orgfill="none" fill="none" d="M496.611,352.497   c0.238-0.106,0.576-0.069,0.952,0.146c0.724,0.418,1.313,1.344,1.313,2.063c0,0.308-0.102,0.521-0.269,0.646" stroke="#000000" stroke-width="0.25" g2gstroke="#312783" stroke-miterlimit="10"/>
	<path orgstroke="#000000" orgfill="none" fill="none" d="M498.76,350.635   c0.325-0.146,0.771-0.08,1.271,0.207c0.992,0.563,1.798,1.844,1.798,2.838c0,0.354-0.104,0.641-0.297,0.813" stroke="#000000" stroke-width="0.25" g2gstroke="#312783" stroke-miterlimit="10"/>
	<path orgstroke="#000000" orgfill="none" fill="none" d="M500.38,349.598   c0.316-0.139,0.771-0.08,1.27,0.207c0.993,0.572,1.798,1.842,1.798,2.836c0,0.365-0.104,0.643-0.295,0.813" stroke="#000000" stroke-width="0.25" g2gstroke="#312783" stroke-miterlimit="10"/>
	<path orgstroke="#000000" orgfill="none" fill="none" d="M502.112,348.659   c0.324-0.137,0.773-0.08,1.271,0.207c0.983,0.574,1.798,1.853,1.798,2.838c0,0.365-0.108,0.646-0.296,0.816" stroke="#000000" stroke-width="0.25" g2gstroke="#312783" stroke-miterlimit="10"/>
	<path orgstroke="#000000" orgfill="none" fill="none" d="M503.741,347.764   c0.326-0.139,0.774-0.08,1.271,0.207c0.993,0.572,1.798,1.842,1.798,2.836c0,0.365-0.104,0.643-0.296,0.813" stroke="#000000" stroke-width="0.25" g2gstroke="#312783" stroke-miterlimit="10"/>
	<path orgstroke="#000000" orgfill="none" fill="none" d="M507.403,345.575   c0.325-0.137,0.774-0.08,1.271,0.207c0.992,0.574,1.798,1.853,1.798,2.838c0,0.365-0.109,0.646-0.297,0.816" stroke="#000000" stroke-width="0.25" g2gstroke="#312783" stroke-miterlimit="10"/>
	<path orgstroke="#000000" orgfill="none" fill="none" d="M509.302,344.497   c0.325-0.137,0.771-0.069,1.271,0.207c0.992,0.574,1.799,1.853,1.799,2.847c0,0.356-0.104,0.643-0.298,0.813" stroke="#000000" stroke-width="0.25" g2gstroke="#312783" stroke-miterlimit="10"/>
	<path orgstroke="#000000" orgfill="none" fill="none" d="M510.836,343.516   c0.316-0.137,0.771-0.08,1.271,0.207c0.992,0.574,1.798,1.844,1.798,2.838c0,0.365-0.104,0.641-0.297,0.816" stroke="#000000" stroke-width="0.25" g2gstroke="#312783" stroke-miterlimit="10"/>
	<path orgstroke="#000000" orgfill="none" fill="none" d="M505.681,346.693   c0.325-0.137,0.771-0.08,1.271,0.207c0.991,0.574,1.807,1.844,1.807,2.838c0,0.365-0.109,0.646-0.306,0.816" stroke="#000000" stroke-width="0.25" g2gstroke="#312783" stroke-miterlimit="10"/>
	<path orgstroke="#000000" orgfill="none" fill="none" d="M512.021,342.969   c0.325-0.146,0.774-0.08,1.271,0.207c0.993,0.563,1.808,1.842,1.808,2.836c0,0.365-0.109,0.643-0.297,0.813" stroke="#000000" stroke-width="0.25" g2gstroke="#312783" stroke-miterlimit="10"/>
	<path orgstroke="#000000" orgfill="none" fill="none" d="M537.073,326.971   c0.483-0.205,1.152-0.119,1.896,0.307c1.479,0.854,2.678,2.744,2.678,4.229c0,0.545-0.163,0.954-0.438,1.217" stroke="#000000" stroke-width="0.25" g2gstroke="#312783" stroke-miterlimit="10"/>
	<path orgstroke="#000000" orgfill="none" fill="none" d="M538.477,326.064   c0.484-0.205,1.153-0.119,1.891,0.307c1.479,0.854,2.688,2.744,2.688,4.229c0,0.545-0.163,0.957-0.441,1.217" stroke="#000000" stroke-width="0.25" g2gstroke="#312783" stroke-miterlimit="10"/>
	
		<line orgstroke="#000000" orgfill="none" fill="none" x1="497.74" x2="485.801" y1="352.857" y2="359.854" stroke="#000000" stroke-width="0.25" g2gstroke="#312783" stroke-miterlimit="10"/>
	
		<line orgstroke="#000000" orgfill="none" fill="none" x1="498.76" x2="486.814" y1="353.99" y2="360.986" stroke="#000000" stroke-width="0.25" g2gstroke="#312783" stroke-miterlimit="10"/>
</g>
</g>
</g></svg>