<svg xmlns="http://www.w3.org/2000/svg" xmlns:xlink="http://www.w3.org/1999/xlink" xmlns:etg="http://www.eurotaxglass.com/etg/evd/" etg:dataTimestamp="1539068912893" contentScriptType="text/ecmascript" zoomAndPan="magnify" contentStyleType="text/css" id="Capa_1" enable-background="new 0 0 1841.891 1595.279" version="1.1" xml:space="preserve" width="1841.891px" preserveAspectRatio="xMidYMid meet" viewBox="0 0 1841.891 1595.279" height="1595.279px" x="0px" y="0px"><g xmlns="http://www.w3.org/2000/svg" objecttype="PS" tooltip="#UNDEFINED" id="63">
<g onmouseover="notifyOwner(AGV_OBJECT_MOUSEOVER, '63(PS)')" transform="translate(30.298809631347638, 36.772926666259764) translate(-479.3950177535271, 93.71631926008803) translate(470.0, -126.0) translate(10.0, 10.00006103515625)" onclick="clickZoom(evt); notifyOwner(AGV_OBJECT_MOUSECLICK, '63(PS)')" onmouseout="notifyOwner(AGV_OBJECT_MOUSEOUT, '63(PS)')" tooltip="#UNDEFINED" id="63-Graphic" objecttype="GRAPHIC">
<g zvalue="9">
<g>
<path orgstroke="#000000" orgfill="#ffffff" fill="#ffffff" g2gfill="#ECC35D" d="M204.312,392.306l0.619,8.336l0.885,9.996   l-0.077,1.016l-0.043,4.83l0.331,20.221c0,0,0.284,12.041,0.111,16.051c-0.053,1.238-0.409,3.699-0.46,4.938   c-0.139,3.293,0.227,6.754,0.349,10.045c0.055,1.482,0.295,4.018,2.653,5.309c1.009,0.555,2.28,1.293,3.381,1.912   c0.468,0.271,0.682,0.482,0.921,0.949c0.418,0.748,0.906,1.297,1.483,1.637c0.442,0.26,0.924,0.586,1.78,0.896l0.215,0.094   c0.287,0.09,0.595,0.135,0.924,0.135c0.686,0,1.968-0.162,3.183-0.859l109.999-63.273c7.768-4.369,9.429-6.896,9.87-19.936   c0.679-20.059,4.103-77.646,4.411-82.846c0.076-1.271,0.007-1.834-0.901-2.391L343,308.819c-0.423-0.244-1.101-0.275-1.469-0.063   l-130.772,71.035C206.01,382.533,203.949,387.425,204.312,392.306z" stroke="#000000" outline-element="true" stroke-width="0.5" g2gstroke="#312783" stroke-miterlimit="10"/>
<path orgstroke="#000000" orgfill="none" fill="none" d="M212.742,475.441   c-0.939-1.986-1.509-5.102-2.001-9.219l-4.926-55.584" stroke="#000000" stroke-width="0.25" g2gstroke="#312783" stroke-miterlimit="10"/>
<path orgstroke="#000000" orgfill="none" fill="none" d="M344.645,310.023   c-0.369-0.59-1.519-0.402-2.214,0l-129.971,70.6c-3.479,2.008-7.109,4.48-6.821,10.941l6.522,75.377   c0.805,6.713,1.809,10.816,4.299,11.594" stroke="#000000" stroke-width="0.25" g2gstroke="#312783" stroke-miterlimit="10"/>
<path orgstroke="#000000" orgfill="none" fill="none" d="M208.487,390.457c0,0,14.563-6.494,17.104-7.627   c2.542-1.135,6.212-1.234,8.207-0.506c1.995,0.727,28.105,10.303,34.073,12.438c5.967,2.135,15.058,1.367,19.896-0.5   c4.471-1.725,33.534-14.359,37.994-16.418c0.779-0.359,0.846,0.031,0.846,0.471c0,1.523,0,5.65,0,7.014   c0,3.584-1.808,6.311-4.995,8.15c0,0-21.273,11.889-29.692,13.682c-3.021,0.643-11.274,0.518-12.346,0.332   c-5.433-0.939-16.016-4.354-21.016-6.676c-4.725-2.191-15.873-9.654-20.439-12.754" stroke="#000000" stroke-width="0.25" g2gstroke="#312783" stroke-miterlimit="10"/>
<path orgstroke="#000000" orgfill="none" fill="none" d="M213.491,454.277c0,0,10.064-4.363,13.592-5.289   c8.563-2.254,13.168-1.754,17.41-0.758c2.184,0.514,7.855,4.342,7.855,4.342" stroke="#000000" stroke-width="0.25" g2gstroke="#312783" stroke-miterlimit="10"/>
<path orgstroke="#000000" orgfill="none" fill="none" d="M208.627,394.4c0,0,7.466,4.93,9.503,7.082   c5.836,6.158,7.402,11.688,7.958,16.158c0.636,5.119-2.779,15.273-4.476,20.146c-1.527,4.385-8.104,16.709-8.104,16.709" stroke="#000000" stroke-width="0.25" g2gstroke="#312783" stroke-miterlimit="10"/>
<path orgstroke="#000000" orgfill="none" fill="none" d="M319.509,353.816   c1.506-0.432,7.166-2.141,7.513-3.871c0.346-1.732,1.524-9.764,1.745-11.74c0.223-1.977-1.529-2.65-3.545-1.488l-82.897,40.467   c-2.729,1.465-1.66,2.865,1.422,3.662c0,0,7.255,2.035,9.699,1.73c5.552-0.689,60.272-26.33,65.657-28.6s12.06-0.73,11.631,7.031   l-1.559,28.248c-0.742,6.994-3.473,10.027-6.84,11.971l-55.857,28.895c-2.039,1.055-22.277,4.33-28.202,6.424   c-5.925,2.09-7.214,2.734-7.214,2.734l-6.465,2.736l-6.356,3.148" stroke="#000000" stroke-width="0.25" g2gstroke="#312783" stroke-miterlimit="10"/>
<path orgstroke="#000000" orgfill="none" fill="none" d="M214.729,468.58   c0.485,1.967,0.954,5.08,4.061,3.293l104.956-60.363c7.948-4.561,8.908-8.867,9.115-17.453l1.826-43.232l0.665-15.588l1.657-10.277   l2.984-9.285" stroke="#000000" stroke-width="0.25" g2gstroke="#312783" stroke-miterlimit="10"/>
<path orgstroke="#000000" orgfill="none" fill="none" d="M208.587,393.914l5.999,73.844   c1.221,7.83,4.865,8.555,10.823,5.127L328.37,413.67c8.688-4.998,9.114-9.596,9.114-13.014l4.559-87.188l-0.153-0.438l-0.156-0.156   l-0.402-0.125l-0.374,0.092L340.53,313l-125.539,68.195C208.487,384.73,207.785,387.076,208.587,393.914z" stroke="#000000" stroke-width="0.25" g2gstroke="#312783" stroke-miterlimit="10"/>
<path orgstroke="#000000" orgfill="none" fill="none" d="M218.103,445.24l19.66-10.258   c0,0,8.259-3.729,11.079-4.803c11.457-4.359,33.804-8.422,38.679-10.945" stroke="#000000" stroke-width="0.25" g2gstroke="#312783" stroke-miterlimit="10"/>
<path orgstroke="#000000" orgfill="none" fill="none" d="M326.491,377.8   c-0.416,1.637-2.184,7.832-7.804,10.053l-1.991,0.965l-5.333,2.479c-2.935,1.363-17.905,7.977-23.581,10.113   c0,0-5.734,1.773-8.224,1.807c-5.759,0.08-16.995-3.438-22.382-5.475c-6.634-2.508-25.119-13.178-25.119-13.178   c-3.665-1.924-6.613-1.668-8.879-0.66" stroke="#000000" stroke-width="0.25" g2gstroke="#312783" stroke-miterlimit="10"/>
<path orgstroke="#000000" orgfill="none" fill="none" d="M209.039,399.478   c3.396,1.035,14.929,6.682,16.982,17.666" stroke="#000000" stroke-width="0.25" g2gstroke="#312783" stroke-miterlimit="10"/>
</g>
</g>
</g>
</g></svg>