<svg xmlns="http://www.w3.org/2000/svg" xmlns:xlink="http://www.w3.org/1999/xlink" xmlns:etg="http://www.eurotaxglass.com/etg/evd/" etg:dataTimestamp="1539068912893" contentScriptType="text/ecmascript" zoomAndPan="magnify" contentStyleType="text/css" id="Capa_1" enable-background="new 0 0 1841.891 1595.279" version="1.1" xml:space="preserve" width="1841.891px" preserveAspectRatio="xMidYMid meet" viewBox="0 0 1841.891 1595.279" height="1595.279px" x="0px" y="0px"><g xmlns="http://www.w3.org/2000/svg" objecttype="PS" tooltip="#UNDEFINED" id="64">
<g onmouseover="notifyOwner(AGV_OBJECT_MOUSEOVER, '64(PS)')" transform="translate(33.34486065673826, 21.74257693481445) translate(-1.8744475718593776, 8.247569316181227) translate(-444.7702593608417, -91.23492499709573) translate(425.0, 51.0) translate(10.0, 10.00006103515625)" onclick="clickZoom(evt); notifyOwner(AGV_OBJECT_MOUSECLICK, '64(PS)')" onmouseout="notifyOwner(AGV_OBJECT_MOUSEOUT, '64(PS)')" tooltip="#UNDEFINED" id="64-Graphic" objecttype="GRAPHIC">
<g zvalue="28">
<g>
<path orgstroke="#000000" orgfill="#ffffff" fill="#ffffff" g2gfill="#BCBEC0" d="M431.721,313.785   c0.41-0.182,0.992-0.141,1.301,0.088c0.133,0.096,0.197,0.211,0.193,0.324l0.01,0.203c0.244-0.031,0.754-0.113,1.072-0.297   l3.146-1.803c0,0,0.551-0.43,1.031-0.154l0.164,0.092c0,0,0.318,0.203,0.318,0.732v5.982c0,0-0.016,1.074-0.857,1.564l-2.027,1.17   c0,0-3.865,2.389-6.063,2.201c-0.598-0.049-0.518-0.793-0.518-0.793v-0.891v-0.297c-2.604-2.412-3.172-2.494-4.391-2.834   c-0.953-0.188-1.125-0.084-1.641,0.23c-0.51,0.297-3.402,2.002-3.402,2.002c-0.561,0.322-1.08,0.139-1.08,0.139l-0.238-0.139   c-0.412-0.256-0.387-0.793-0.387-0.793v-6.283c0-0.764,0.623-1.195,0.623-1.195l6.992-4.076c0,0,0.582-0.453,1.123-0.135   c0.047,0.029,0.094,0.055,0.135,0.078c0.201,0.115,0.381,0.258,0.6,0.918c0.266,0.998,1.262,3.023,3.648,4.139L431.721,313.785z" stroke="#000000" outline-element="true" stroke-width="0.5" g2gstroke="#312783" stroke-miterlimit="10"/>
<path orgstroke="#000000" orgfill="none" fill="none" d="M427.543,309.256l-7.418,4.33   c0,0-0.719,0.443-0.719,1.297v6.609" stroke="#000000" stroke-width="0.25" g2gstroke="#312783" stroke-miterlimit="10"/>
<path orgstroke="#000000" orgfill="none" fill="none" d="M419.61700439453125 314.125L418.5509948730469 313.510009765625" stroke="#000000" stroke-width="0.25" g2gstroke="#312783" stroke-miterlimit="10"/>
<path orgstroke="#000000" orgfill="none" fill="none" d="M429.662,321.57   c0.678,0.234,1.664,0.09,2.59-0.209c0.432-0.125,0.447-0.707,0.447-0.707v-1.674c0-0.529-0.559-0.434-0.559-0.434   c-0.795,0.242-1.574,0.346-2.221,0.264c-0.379-0.045-0.43-0.596-0.43-0.596v-1.434c0-0.787,0.504-1.094,0.504-1.094l0.693-0.447   c0.607-0.406-0.383-1-0.383-1c-2.266-1.539-4.289-1.994-5.357-2.133c0,0-0.801-0.008-0.801,0.838l0.059,6.045" stroke="#000000" stroke-width="0.25" g2gstroke="#312783" stroke-miterlimit="10"/>
<path orgstroke="#000000" orgfill="none" fill="none" d="M429.641,316.096   c2.074,0.789,6.344-2.121,6.344-2.121" stroke="#000000" stroke-width="0.25" g2gstroke="#312783" stroke-miterlimit="10"/>
<path orgstroke="#000000" orgfill="none" fill="none" d="M429.488,322.205   c0-0.666,0.549-1.084,0.549-1.084l0.947-0.547c0,0,0.307-0.176,0.777,0.094l0.793,0.453" stroke="#000000" stroke-width="0.25" g2gstroke="#312783" stroke-miterlimit="10"/>
<path orgstroke="#000000" orgfill="none" fill="none" d="M431.2909851074219 320.5199890136719L431.2909851074219 318.77301025390625" stroke="#000000" stroke-width="0.25" g2gstroke="#312783" stroke-miterlimit="10"/>
<path orgstroke="#000000" orgfill="none" fill="none" d="M435.9859924316406 313.9750061035156L438.7659912109375 312.3710021972656" stroke="#000000" stroke-width="0.25" g2gstroke="#312783" stroke-miterlimit="10"/>
<path orgstroke="#000000" orgfill="none" fill="none" d="M435.9859924316406 313.9750061035156L435.9859924316406 321.6839904785156" stroke="#000000" stroke-width="0.25" g2gstroke="#312783" stroke-miterlimit="10"/>
<path orgstroke="#000000" orgfill="none" fill="none" d="M431.365,314.252l-0.018,0.816   c0.006,0.111,0.064,0.221,0.193,0.311c0.311,0.232,0.893,0.27,1.303,0.09c0.232-0.098,0.354-0.25,0.365-0.402l0.016-0.869" stroke="#000000" stroke-width="0.25" g2gstroke="#312783" stroke-miterlimit="10"/>
<path orgstroke="#000000" orgfill="none" fill="none" d="M433.215,314.197   c-0.006,0.158-0.131,0.311-0.365,0.416c-0.41,0.178-0.992,0.141-1.303-0.088c-0.311-0.232-0.234-0.561,0.174-0.74" stroke="#000000" stroke-width="0.25" g2gstroke="#312783" stroke-miterlimit="10"/>
<path orgstroke="#000000" orgfill="none" fill="none" d="M430.6860046386719 315.239990234375L431.35400390625 314.85400390625" stroke="#000000" stroke-width="0.25" g2gstroke="#312783" stroke-miterlimit="10"/>
</g>
</g>
</g>
</g></svg>