<svg xmlns="http://www.w3.org/2000/svg" xmlns:xlink="http://www.w3.org/1999/xlink" xmlns:etg="http://www.eurotaxglass.com/etg/evd/" etg:dataTimestamp="1539068912893" contentScriptType="text/ecmascript" zoomAndPan="magnify" contentStyleType="text/css" id="Capa_1" enable-background="new 0 0 1841.891 1595.279" version="1.1" xml:space="preserve" width="1841.891px" preserveAspectRatio="xMidYMid meet" viewBox="0 0 1841.891 1595.279" height="1595.279px" x="0px" y="0px"><g xmlns="http://www.w3.org/2000/svg" objecttype="PS" tooltip="#UNDEFINED" id="86">
<g onmouseover="notifyOwner(AGV_OBJECT_MOUSEOVER, '86(PS)')" transform="translate(30.298809631347638, 36.772926666259764) translate(-637.0022509266453, -53.86035292387896) translate(-145.08306226765808, -12.468075663626848) translate(-2.0502859988102955, 0.0) translate(4.100571997620364, -2.0502859988101534) translate(268.5874658441305, 130.53487525757998) translate(3.1519322071260376, -3.151932207126052) translate(470.0, -126.0) translate(10.0, 10.00006103515625)" onclick="clickZoom(evt); notifyOwner(AGV_OBJECT_MOUSECLICK, '86(PS)')" onmouseout="notifyOwner(AGV_OBJECT_MOUSEOUT, '86(PS)')" tooltip="#UNDEFINED" id="86-Graphic" objecttype="GRAPHIC">
<g zvalue="32">
<g>
<g>
<path stroke-linecap="round" orgstroke="#000000" orgfill="#ffffff" fill="#ffffff" g2gfill="#ECC35D" stroke-linejoin="round" d="    M597.408,225.969c-0.01-0.086-0.018-0.188-0.035-0.322c-0.09-0.752-3.625-27.436-5.75-40.186    c-1.736-10.416-7.264-29.246-9.229-35.793c-0.059-0.195-0.199-0.283-0.389-0.428l-0.309-0.178    c-0.248-0.145-0.422-0.117-0.852,0.152c-2.354,1.482-4.422,2.832-6.742,4.344c-0.295,0.191-0.266,0.314-0.221,0.514    c0.793,3.52,7.777,35.768,9.018,81.012c0.01,0.32,0.064,0.348,0.258,0.461l0.324,0.186c0.178,0.104,0.445,0.148,0.627,0.021    c4.092-2.859,12.867-9.037,12.996-9.121C597.404,226.434,597.441,226.291,597.408,225.969z" stroke="#000000" outline-element="true" stroke-width="0.5" g2gstroke="#312783" stroke-miterlimit="10"/>
<path orgstroke="#000000" orgfill="none" stroke-linecap="round" fill="none" stroke-linejoin="round" d="    M574.673,154.313c0,0,7.76,33.387,9.096,81.512" stroke="#000000" stroke-width="0.25" g2gstroke="#312783" stroke-miterlimit="10"/>
<path orgstroke="#000000" orgfill="none" stroke-linecap="round" fill="none" stroke-linejoin="round" d="    M573.937,153.824l0.438,0.252c0.184,0.105,0.385,0.076,0.563-0.039c2.416-1.566,4.838-3.123,7.258-4.652" stroke="#000000" stroke-width="0.25" g2gstroke="#312783" stroke-miterlimit="10"/>
</g>
</g>
</g>
</g>
</g></svg>