<svg xmlns="http://www.w3.org/2000/svg" xmlns:xlink="http://www.w3.org/1999/xlink" xmlns:etg="http://www.eurotaxglass.com/etg/evd/" etg:dataTimestamp="1539068912893" contentScriptType="text/ecmascript" zoomAndPan="magnify" contentStyleType="text/css" id="Layer_1" enable-background="new 0 0 1841.891 1595.279" version="1.1" width="1841.891px" xml:space="preserve" preserveAspectRatio="xMidYMid meet" viewBox="0 0 1841.891 1595.279" height="1595.279px" x="0px" y="0px"><g xmlns="http://www.w3.org/2000/svg" objecttype="PS" tooltip="#UNDEFINED" id="9">
<g onmouseover="notifyOwner(AGV_OBJECT_MOUSEOVER, '9(PS)')" transform="translate(28.980023010253888, -45.94039501953125)" onclick="clickZoom(evt); notifyOwner(AGV_OBJECT_MOUSECLICK, '9(PS)')" onmouseout="notifyOwner(AGV_OBJECT_MOUSEOUT, '9(PS)')" tooltip="#UNDEFINED" id="9-Graphic" objecttype="GRAPHIC">
<g>
	<path orgstroke="#000000" orgfill="#ffffff" fill="#ffffff" g2gfill="#ECC35D" d="M530.865,290.89l17.48,10.063l1.125,0.25   l1.688,0.064h1.563l1.313-0.375l21-12.125l0.396-0.667l0.479-1.021c0.125-0.25,0.875-2.25-0.5-8.375s-8.813-14.688-8.813-14.688   l-2.75-6l-0.75-3l-0.75-4.25v-2.813v-3.375l-0.188-0.438l-0.5-0.375l-0.625-0.813l-0.063-0.563l-0.063-1.188l0.188-0.938   l3.875-12.688l0.125-2.375l-0.063-1.375l-0.438-1.56l-0.563-1.188l-0.75-1.063l-1-1.063l-1.5-1l-1.563-0.5l-2-0.25l-2.125,0.063   l-1.688,0.313l-1.563,0.688l-1.125,0.813l-1.123,1.063l-1,1.563l-0.625,1.5l-0.063,3.563l3.477,12.594l0.398,0.846l0.063,0.469   l-0.031,0.625l-0.188,0.602l-0.352,0.719l-0.563,1l-0.375,0.471l-0.063,0.529l-0.063,3.813l-0.5,1.095l-2.041,5.333l-1.664,3.164   l-0.75,2.5l-0.668,3.167l-0.666,3.667l-0.25,2.417l-1.584,1.583c-11.666,8.249-11.5,17.084-11.5,17.084L530.865,290.89z" outline-element="true" stroke="#000000" stroke-width="0.5" g2gstroke="#312783" stroke-miterlimit="10"/>
	
		<ellipse orgstroke="#000000" orgfill="none" fill="none" rx="7.666" cx="556.365" ry="4.442" cy="221.98" stroke="#000000" stroke-width="0.25" g2gstroke="#312783" stroke-miterlimit="10"/>
	<path orgstroke="#000000" orgfill="none" fill="none" d="M562.091,244.294   c0,1.832-2.563,3.315-5.729,3.315s-5.727-1.483-5.727-3.315" stroke="#000000" stroke-width="0.25" g2gstroke="#312783" stroke-miterlimit="10"/>
	<path orgstroke="#000000" orgfill="none" fill="none" d="M560.74,240.299   c0,1.063-1.896,1.927-4.248,1.927c-2.346,0-4.248-0.859-4.248-1.927" stroke="#000000" stroke-width="0.25" g2gstroke="#312783" stroke-miterlimit="10"/>
	<path orgstroke="#000000" orgfill="none" fill="none" d="M562.091,247.231   c0,1.832-2.563,3.313-5.729,3.313s-5.727-1.479-5.727-3.313" stroke="#000000" stroke-width="0.25" g2gstroke="#312783" stroke-miterlimit="10"/>
	<path orgstroke="#000000" orgfill="none" fill="none" d="M543.764,270.396c0,0-2,6.954,1.332,9.621   c3.334,2.667-0.248,3.795,0.334,5.317" stroke="#000000" stroke-width="0.25" g2gstroke="#312783" stroke-miterlimit="10"/>
	<path orgstroke="#000000" orgfill="none" fill="none" d="M556.365,251.62c0,0-2.102,27.396,1.398,29.396   s-3.334,12.103-3.334,12.103" stroke="#000000" stroke-width="0.25" g2gstroke="#312783" stroke-miterlimit="10"/>
	<path orgstroke="#000000" orgfill="none" fill="none" d="M559.096,253.184c0,0,0.5,19.256,9,20.878   s4.5,6.955,4.5,7.122" stroke="#000000" stroke-width="0.25" g2gstroke="#312783" stroke-miterlimit="10"/>
</g>
</g>
</g></svg>