<svg xmlns="http://www.w3.org/2000/svg" xmlns:xlink="http://www.w3.org/1999/xlink" xmlns:etg="http://www.eurotaxglass.com/etg/evd/" etg:dataTimestamp="1539068912893" contentScriptType="text/ecmascript" zoomAndPan="magnify" contentStyleType="text/css" id="Capa_1" enable-background="new 0 0 1841.891 1595.279" version="1.1" xml:space="preserve" width="1841.891px" preserveAspectRatio="xMidYMid meet" viewBox="0 0 1841.891 1595.279" height="1595.279px" x="0px" y="0px"><g xmlns="http://www.w3.org/2000/svg" objecttype="PS" tooltip="#UNDEFINED" id="98">
<g onmouseover="notifyOwner(AGV_OBJECT_MOUSEOVER, '98(PS)')" transform="translate(30.298809631347638, 36.772926666259764) translate(114.99710157319319, -78.19802906977134) translate(-640.3948482772679, -146.58193525295815) translate(481.0, 219.0) translate(10.0, 10.00006103515625)" onclick="clickZoom(evt); notifyOwner(AGV_OBJECT_MOUSECLICK, '98(PS)')" onmouseout="notifyOwner(AGV_OBJECT_MOUSEOUT, '98(PS)')" tooltip="#UNDEFINED" id="98-Graphic" objecttype="GRAPHIC">
<g zvalue="10">
<g>
<path orgstroke="#000000" orgfill="#ffffff" fill="#ffffff" g2gfill="#ECC35D" d="M314.276,278.148l0.627,1.816   c0.15,0.723,0.078,1.109-0.732,1.26l-6.058,1.125l-17.861,3.115l-13.382,2.662l-8.731,1.932c-0.567,0.127-0.711,0.043-1.163-0.123   c-0.116-0.043-0.455-0.201-0.455-0.201c-0.339-0.195-0.483-0.439-0.563-0.883l-0.995-5.947c-0.112-1.279-0.047-2.021,1.657-2.283   c0,0,13.417-2.215,17.917-2.75c2.421-0.289,25.45-2.246,26.272-2.246s1.678,0.395,2.121,0.738   C313.632,276.906,314.01,277.375,314.276,278.148z" stroke="#000000" outline-element="true" stroke-width="0.5" g2gstroke="#312783" stroke-miterlimit="10"/>
<path orgstroke="#000000" orgfill="none" fill="none" d="M267.45,290.058l-0.901-6.01   c-0.12-0.955-0.382-1.852,1.804-2.301c0,0,13.313-2.199,17.778-2.73c2.42-0.287,21.251-2.004,25.11-2.174   c0.843-0.037,2.455,0.025,2.82,0.795" stroke="#000000" stroke-width="0.25" g2gstroke="#312783" stroke-miterlimit="10"/>
<path orgstroke="#000000" orgfill="none" fill="none" d="M264.9330139160156 281.4739990234375L266.677001953125 282.5559997558594" stroke="#000000" stroke-width="0.25" g2gstroke="#312783" stroke-miterlimit="10"/>
</g>
</g>
</g>
</g></svg>