<svg xmlns="http://www.w3.org/2000/svg" xmlns:xlink="http://www.w3.org/1999/xlink" xmlns:etg="http://www.eurotaxglass.com/etg/evd/" etg:dataTimestamp="1539068912893" contentScriptType="text/ecmascript" zoomAndPan="magnify" contentStyleType="text/css" id="Layer_1" enable-background="new 0 0 1841.891 1595.279" version="1.1" xml:space="preserve" width="1841.891px" preserveAspectRatio="xMidYMid meet" viewBox="0 0 1841.891 1595.279" height="1595.279px" x="0px" y="0px"><g xmlns="http://www.w3.org/2000/svg" objecttype="PS" tooltip="#UNDEFINED" id="19">
<g onmouseover="notifyOwner(AGV_OBJECT_MOUSEOVER, '19(PS)')" transform="translate(-143.57946337890627, -7.293701173693989E-6) translate(-466.70543994140627, -17.177077911376955) translate(603.0029653669735, 15.486432497386161) matrix(1.3317465906905697 0 0 1.3317465906905697 -66.7244414459619 -70.13844320122216) translate(13.0, 66.0) translate(-50,-46) " onclick="clickZoom(evt); notifyOwner(AGV_OBJECT_MOUSECLICK, '19(PS)')" onmouseout="notifyOwner(AGV_OBJECT_MOUSEOUT, '19(PS)')" tooltip="#UNDEFINED" id="19-Graphic" objecttype="GRAPHIC">
<g zvalue="5">
<g zvalue="47">
<g zvalue="41">
<g zvalue="52">
<g zvalue="55">
<g>
<path orgstroke="#000000" orgfill="#ffffff" transform="rotate(1.6302415296054564 391.44986724853516 108.1886100769043) translate(4.0, 23.0) translate(64.0, -4.0) translate(-35,10) translate(-28.0, 4.0) translate(-1,10) translate(-10.0, -3.0) translate(-18.0, 11.0) translate(-50,-124) translate(3.0, 1.0) translate(-62.96474140167237, 20.74165814208982) translate(221.0, -24.0) matrix(0.7748348693986583 0 0 0.7748348693986583 41.861807374831436 57.24688420672892) translate(10.0, 10.0)" fill="#ffffff" g2gfill="#ECF5E4" stroke-linejoin="round" d="M241.967,136.338   c0.007,0.1,0.075,0.208,0.259,0.313l115.146,66.457c0,0,0.806,0.57,1.281,0.302l56.854-32.086c0.187-0.101,0.233-0.228,0.219-0.347   l0.002-1.982c-0.014-0.207-0.221-0.396-0.221-0.396L300.41,102.172c-0.177-0.103-0.583,0-0.583,0l-57.563,31.756   c0,0-0.284,0.165-0.298,0.38V136.338z" stroke="#000000" outline-element="true" stroke-width="0.5" g2gstroke="#312783" stroke-miterlimit="10"/>
<path orgstroke="#000000" orgfill="none" transform="rotate(1.6302415296054564 391.44986724853516 108.1886100769043) translate(4.0, 23.0) translate(64.0, -4.0) translate(-35,10) translate(-28.0, 4.0) translate(-1,10) translate(-10.0, -3.0) translate(-18.0, 11.0) translate(-50,-124) translate(3.0, 1.0) translate(-62.96474140167237, 20.74165814208982) translate(221.0, -24.0) matrix(0.7748348693986583 0 0 0.7748348693986583 41.861807374831436 57.24688420672892) translate(10.0, 10.0)" fill="none" stroke-linejoin="round" d="M241.967,134.308   c-0.007,0.107,0.056,0.228,0.259,0.344l115.146,66.457c0,0,0.806,0.57,1.281,0.302l56.854-32.086   c0.177-0.097,0.228-0.216,0.221-0.329" stroke="#000000" stroke-width="0.25" g2gstroke="#312783" stroke-miterlimit="10"/>
<path orgstroke="#000000" orgfill="none" transform="rotate(1.6302415296054564 391.44986724853516 108.1886100769043) translate(4.0, 23.0) translate(64.0, -4.0) translate(-35,10) translate(-28.0, 4.0) translate(-1,10) translate(-10.0, -3.0) translate(-18.0, 11.0) translate(-50,-124) translate(3.0, 1.0) translate(-62.96474140167237, 20.74165814208982) translate(221.0, -24.0) matrix(0.7748348693986583 0 0 0.7748348693986583 41.861807374831436 57.24688420672892) translate(10.0, 10.0)" fill="none" d="M399.899,162.073l9.964,5.927   c0,0,0.797,0.535,0.225,0.846l-51.475,29.358c-0.698,0.379-1.57-0.026-1.57-0.026l-10.01-5.952c-0.775-0.461,0.022-0.93,0.022-0.93   l51.373-29.304C398.429,161.992,399.232,161.676,399.899,162.073z" stroke="#000000" stroke-width="0.25" g2gstroke="#312783" stroke-miterlimit="10"/>
<path orgstroke="#000000" orgfill="none" transform="rotate(1.6302415296054564 391.44986724853516 108.1886100769043) translate(4.0, 23.0) translate(64.0, -4.0) translate(-35,10) translate(-28.0, 4.0) translate(-1,10) translate(-10.0, -3.0) translate(-18.0, 11.0) translate(-50,-124) translate(3.0, 1.0) translate(-62.96474140167237, 20.74165814208982) translate(221.0, -24.0) matrix(0.7748348693986583 0 0 0.7748348693986583 41.861807374831436 57.24688420672892) translate(10.0, 10.0)" fill="none" d="M348.005,131.85l9.964,5.927   c0,0,0.797,0.535,0.225,0.846l-51.475,29.358c-0.698,0.379-1.57-0.026-1.57-0.026l-10.01-5.952c-0.775-0.461,0.022-0.93,0.022-0.93   l51.373-29.304C346.534,131.769,347.338,131.454,348.005,131.85z" stroke="#000000" stroke-width="0.25" g2gstroke="#312783" stroke-miterlimit="10"/>
<path orgstroke="#000000" orgfill="none" transform="rotate(1.6302415296054564 391.44986724853516 108.1886100769043) translate(4.0, 23.0) translate(64.0, -4.0) translate(-35,10) translate(-28.0, 4.0) translate(-1,10) translate(-10.0, -3.0) translate(-18.0, 11.0) translate(-50,-124) translate(3.0, 1.0) translate(-62.96474140167237, 20.74165814208982) translate(221.0, -24.0) matrix(0.7748348693986583 0 0 0.7748348693986583 41.861807374831436 57.24688420672892) translate(10.0, 10.0)" fill="none" d="M301.552,105.11l9.964,5.927   c0,0,0.797,0.535,0.225,0.846l-51.475,29.358c-0.698,0.379-1.57-0.026-1.57-0.026l-10.01-5.952c-0.775-0.461,0.022-0.93,0.022-0.93   l51.373-29.304C300.081,105.029,300.885,104.713,301.552,105.11z" stroke="#000000" stroke-width="0.25" g2gstroke="#312783" stroke-miterlimit="10"/>
</g>
</g>
</g>
</g>
</g>
</g>
</g>
</g></svg>