<svg xmlns="http://www.w3.org/2000/svg" xmlns:xlink="http://www.w3.org/1999/xlink" xmlns:etg="http://www.eurotaxglass.com/etg/evd/" etg:dataTimestamp="1539068912893" contentScriptType="text/ecmascript" zoomAndPan="magnify" contentStyleType="text/css" id="Layer_1" enable-background="new 0 0 1841.891 1595.279" version="1.1" xml:space="preserve" width="1841.891px" preserveAspectRatio="xMidYMid meet" viewBox="0 0 1841.891 1595.279" height="1595.279px" x="0px" y="0px"><g xmlns="http://www.w3.org/2000/svg" objecttype="PS" tooltip="#UNDEFINED" id="20">
<g onmouseover="notifyOwner(AGV_OBJECT_MOUSEOVER, '20(PS)')" transform="translate(-143.57946337890627, -7.293701173693989E-6) translate(-466.70543994140627, -17.177077911376955) translate(154.67932866319848, 57.62563224707395) translate(117.80001831054688, 25.54591464996338) translate(-46.0, -1.0) translate(513.0, -23.0) translate(10.0, 10.00006103515625)" onclick="clickZoom(evt); notifyOwner(AGV_OBJECT_MOUSECLICK, '20(PS)')" onmouseout="notifyOwner(AGV_OBJECT_MOUSEOUT, '20(PS)')" tooltip="#UNDEFINED" id="20-Graphic" objecttype="GRAPHIC">
<g zvalue="0">
<g>
<path orgstroke="#000000" orgfill="#ffffff" fill="#ffffff" g2gfill="#464646" d="M399.8,72.1c-0.4-0.3-0.8-0.6-1.2-0.9   c-0.2-0.1-0.3-0.2-0.3-0.3s0-0.3-0.2-0.5c-21.3-15.4-88.7-55.9-114.4-67c-0.3-0.1-0.6-0.1-0.6-0.1c-1.2,0.3-2.4,0.7-3.6,1.1   c-44,15.3-102.8,47.7-127.8,61.3C135.6,74.5,89,101.4,64,118.1c-4.2,2.8-8,5.6-11.6,8.4c-0.2,0.1-0.2,0.4-0.4,0.6   c-0.5,0.4-1,0.6-1.4,0.9c-0.2,0.2-0.3,0.3-0.3,0.5v0.4c0,0.2,0,0.3,0.2,0.4c0.8,0.7,2.3,2,3,2.6c29.5,25.7,89.7,60.7,141.9,82.3   c1.1,0.5,1.9-0.1,2.3-0.7c0.1-0.1,0.5-0.7,0.5-0.7c2.5-3.2,4.9-6,7.7-9c8-8.7,38.4-36.3,76.6-61.4c25.4-16.7,61.4-38.6,87.7-53.2   c11.4-6.3,19.7-10.7,26.2-13.9c0.8-0.4,2.4-1.3,3.3-1.8c0.2-0.1,0.3-0.3,0.3-0.5v-0.4C400,72.3,400,72.2,399.8,72.1z M243.6,141.3   c-0.2,1.5-1.6,3-3.8,4.6c-11.9,8.7-22.4,17.2-31.1,24.5c-6,5.1-17.3,7-29.4-0.4c-12.1-7.4-63.2-36.9-72.8-41.7   c-5.2-2.6-8.6-5.8-8.8-9.1c0-0.2,0-0.5,0-0.7c0.4-2.1,2-4.1,4.8-5.9c12.8-8.2,26.8-16.4,38.6-23.1c3.5-2,10.8-5,19-0.6   c8.3,4.3,69,37.8,76.8,44.1c4,3.2,6.6,5.6,6.8,7.9C243.6,141.1,243.6,141.2,243.6,141.3z" stroke="#000000" outline-element="true" stroke-width="0.5" g2gstroke="#312783" stroke-miterlimit="10"/>
<linearGradient gradientTransform="matrix(1 0 0 -1 0 595.28)" x1="278.3781" x2="156.2152" y1="417.7627" gradientUnits="userSpaceOnUse" y2="598.8765" xmlns:xlink="http://www.w3.org/1999/xlink" xlink:type="simple" xlink:actuate="onLoad" id="11::SVGID_1_" xlink:show="other">
<stop stop-opacity="0.89" stop-color="#FFFFFF" offset="0"/>
<stop stop-opacity="0.39" stop-color="#FFFFFF" offset="0.52"/>
<stop stop-opacity="0.31" stop-color="#FFFFFF" offset="0.8711"/>
</linearGradient>
<path fill="url(#11::SVGID_1_)" d="M196.2,210.9c-0.1,0-0.2,0-0.3-0.1c-53-21.9-113.4-57.4-141.9-82.5c-0.5-0.5-1.2-1.1-1.7-1.6   l-0.1-0.1c0.1-0.1,0.1-0.2,0.2-0.3c3.6-2.7,7.4-5.5,11.6-8.4c25-16.7,71.6-43.6,87.6-52.4c25-13.6,83.8-46,127.8-61.3   c1.2-0.4,2.4-0.8,3.6-1.1c0,0,0.3-0.1,0.5,0.1c25.7,11.1,93.1,51.5,114.4,67c0.1,0.1,0.2,0.1,0.2,0.2c-0.8,0.5-1.6,0.9-2.4,1.3   c-7.4,3.6-16.3,8.4-26.3,14c-24.4,13.6-60.5,35.3-87.8,53.3c-39.3,25.9-69.3,53.4-76.9,61.7c-3,3.3-5.5,6.2-7.8,9.1   c-0.1,0.2-0.4,0.5-0.6,0.7C196.4,210.9,196.3,210.9,196.2,210.9z M243.6,141.3c0.7-2.8-1.7-5.7-6.8-9.8   c-7.8-6.3-68.5-39.8-76.8-44.1s-15.5-1.3-19,0.6c-11.8,6.7-25.8,14.8-38.6,23c-3.8,2.4-5.3,5.3-4.8,8.1c0.2,3.3,3.6,6.5,8.8,9.1   c9.7,4.8,60.7,34.3,72.8,41.7c12.1,7.4,23.3,5.5,29.4,0.4c8.7-7.3,19.2-15.8,31.1-24.5C241.9,144.3,243.3,142.9,243.6,141.3z" orgfill="url(#11::SVGID_1_)"/>
<linearGradient gradientTransform="matrix(1 0 0 -1 0 595.28)" x1="50.335" x2="399.975" y1="453.1194" gradientUnits="userSpaceOnUse" y2="453.1194" xmlns:xlink="http://www.w3.org/1999/xlink" xlink:type="simple" xlink:actuate="onLoad" id="11::SVGID_2_" xlink:show="other">
<stop stop-opacity="0.2" stop-color="#FFFFFF" offset="0"/>
<stop stop-opacity="0.2" stop-color="#FFFFFF" offset="1"/>
</linearGradient>
<path fill="url(#11::SVGID_2_)" d="M400,72.4c-0.8,0.5-2.6,1.5-3.5,2c-6.5,3.2-14.9,7.6-26.2,13.9c-26.3,14.6-62.3,36.5-87.7,53.2   c-38.2,25.2-68.6,52.7-76.6,61.4c-2.8,3-5.2,5.9-7.7,9c0,0-0.5,0.5-0.6,0.7c-0.4,0.6-1.2,1.1-2.3,0.7   C143.2,191.7,83,156.7,53.5,131c-0.7-0.6-2.4-2.1-3.2-2.8c0.1-0.1,0.1-0.2,0.2-0.3c0.4-0.3,0.9-0.5,1.4-0.9   c0.1-0.1,0.1-0.1,0.2-0.2v0.8c0,0.2,0.1,0.3,0.3,0.5c27.9,25.1,89.5,61.5,143.5,83.9c0.1,0.1,0.2,0.1,0.3,0.1   c0.1,0,0.2-0.1,0.3-0.3c0.2-0.2,0.4-0.6,0.6-0.7c2.3-2.9,4.8-5.8,7.8-9.1c7.6-8.3,37.6-35.8,76.9-61.7c27.3-18,63.4-39.7,87.8-53.3   c10-5.5,18.9-10.4,26.3-13.9c0.8-0.4,1.5-0.8,2.3-1.3c0.1-0.1,0.2-0.1,0.2-0.3v-0.6c0,0.1,0.1,0.2,0.3,0.3c0.4,0.3,0.9,0.6,1.2,0.9   C399.9,72.1,400,72.2,400,72.4z" orgfill="url(#11::SVGID_2_)"/>
<path orgstroke="#000000" orgfill="none" fill="none" d="M398.3,70.6c-0.8,0.5-1.6,0.9-2.4,1.3   c-7.4,3.6-16.3,8.4-26.3,14c-24.4,13.6-60.5,35.3-87.8,53.3c-39.3,25.9-69.3,53.4-76.9,61.7c-3,3.3-5.5,6.2-7.8,9.1   c-0.2,0.2-0.4,0.5-0.6,0.7c-0.2,0.3-0.3,0.3-0.6,0.2c-53-21.9-113.4-57.4-141.9-82.5c-0.5-0.5-1.2-1.1-1.7-1.6" stroke="#000000" stroke-width="0.25" g2gstroke="#312783" stroke-miterlimit="10"/>
<path orgstroke="#000000" orgfill="none" fill="none" d="M400,72.3c-0.8,0.5-2.6,1.5-3.5,2   c-6.5,3.2-14.9,7.6-26.2,13.9c-26.3,14.6-62.3,36.5-87.7,53.2c-38.2,25.2-68.6,52.7-76.6,61.4c-2.8,3-5.2,5.9-7.7,9   c0,0-0.4,0.5-0.5,0.7c-0.4,0.6-1.2,1.1-2.3,0.7C143.3,191.7,83.1,156.7,53.5,131c-0.7-0.7-2.5-2.2-3.2-2.8" stroke="#000000" stroke-width="0.25" g2gstroke="#312783" stroke-miterlimit="10"/>
<path orgstroke="#000000" orgfill="none" fill="none" d="M97.6,119.3c-0.4-2.8,1.1-5.7,4.8-8.1   c12.8-8.2,26.8-16.4,38.6-23.1c3.5-2,10.8-5,19-0.6c8.3,4.3,69,37.8,76.8,44.1c5.1,4.1,7.4,7,6.8,9.8" stroke="#000000" stroke-width="0.25" g2gstroke="#312783" stroke-miterlimit="10"/>
<path orgstroke="#000000" orgfill="none" fill="none" d="M196.1999969482422 210.8000030517578L196.1999969482422 212.10000610351562" stroke="#000000" stroke-width="0.25" g2gstroke="#312783" stroke-miterlimit="10"/>
<path orgstroke="#000000" orgfill="none" fill="none" d="M52.1,126.9v0.8c0,0.2,0.1,0.3,0.3,0.5   c27.9,25.1,89.5,61.5,143.5,83.8c0.3,0.1,0.4,0.1,0.6-0.2c0.2-0.2,0.4-0.6,0.6-0.7c2.3-2.9,4.8-5.8,7.8-9.1   c7.6-8.3,37.6-35.8,76.9-61.7c27.3-18,63.4-39.7,87.8-53.3c10-5.5,18.9-10.4,26.3-14c0.8-0.4,1.5-0.8,2.3-1.2   c0.1-0.1,0.2-0.2,0.2-0.3v-0.6" stroke="#000000" stroke-width="0.25" g2gstroke="#312783" stroke-miterlimit="10"/>
<path orgstroke="#000000" orgfill="none" fill="none" d="M399.8,72.1c-0.4-0.3-0.8-0.6-1.2-0.9   c-0.2-0.1-0.3-0.2-0.3-0.3s0-0.3-0.2-0.5c-21.3-15.4-88.7-55.9-114.4-67c-0.3-0.1-0.6-0.1-0.6-0.1c-1.2,0.3-2.4,0.7-3.6,1.1   c-44,15.3-102.8,47.7-127.8,61.3C135.6,74.5,89,101.4,64,118.1c-4.2,2.8-8,5.6-11.6,8.4c-0.2,0.1-0.2,0.4-0.4,0.6   c-0.5,0.4-1,0.6-1.4,0.9c-0.2,0.2-0.3,0.3-0.3,0.5v0.4c0,0.2,0,0.3,0.2,0.4c0.8,0.7,2.3,2,3,2.6c29.5,25.7,89.7,60.7,141.9,82.3   c1.1,0.5,1.9-0.1,2.3-0.7c0.1-0.1,0.5-0.7,0.5-0.7c2.5-3.2,4.9-6,7.7-9c8-8.7,38.4-36.3,76.6-61.4c25.4-16.7,61.4-38.6,87.7-53.2   c11.4-6.3,19.7-10.7,26.2-13.9c0.8-0.4,2.4-1.3,3.3-1.8c0.2-0.1,0.3-0.3,0.3-0.5v-0.4C400,72.3,400,72.2,399.8,72.1z M243.6,141.3   c-0.2,1.5-1.6,3-3.8,4.6c-11.9,8.7-22.4,17.2-31.1,24.5c-6,5.1-17.3,7-29.4-0.4c-12.1-7.4-63.2-36.9-72.8-41.7   c-5.2-2.6-8.6-5.8-8.8-9.1c0-0.2,0-0.5,0-0.7c0.4-2.1,2-4.1,4.8-5.9c12.8-8.2,26.8-16.4,38.6-23.1c3.5-2,10.8-5,19-0.6   c8.3,4.3,69,37.8,76.8,44.1c4,3.2,6.6,5.6,6.8,7.9C243.6,141.1,243.6,141.2,243.6,141.3z" stroke="#000000" stroke-width="0.25" g2gstroke="#312783" stroke-miterlimit="10"/>
</g>
</g>
</g>
</g></svg>