<svg xmlns="http://www.w3.org/2000/svg" xmlns:xlink="http://www.w3.org/1999/xlink" xmlns:etg="http://www.eurotaxglass.com/etg/evd/" etg:dataTimestamp="1539068912893" contentScriptType="text/ecmascript" zoomAndPan="magnify" contentStyleType="text/css" id="Layer_1" enable-background="new 0 0 1841.891 1595.279" version="1.1" xml:space="preserve" width="1841.891px" preserveAspectRatio="xMidYMid meet" viewBox="0 0 1841.891 1595.279" height="1595.279px" x="0px" y="0px"><g xmlns="http://www.w3.org/2000/svg" objecttype="PS" tooltip="#UNDEFINED" id="27">
<g onmouseover="notifyOwner(AGV_OBJECT_MOUSEOVER, '27(PS)')" transform="translate(-143.57946337890627, -7.293701173693989E-6) translate(-466.70543994140627, -17.177077911376955) translate(-46.0, -1.0) translate(513.0, -23.0) translate(10.0, 10.00006103515625)" onclick="clickZoom(evt); notifyOwner(AGV_OBJECT_MOUSECLICK, '27(PS)')" onmouseout="notifyOwner(AGV_OBJECT_MOUSEOUT, '27(PS)')" tooltip="#UNDEFINED" id="27-Graphic" objecttype="GRAPHIC">
<g zvalue="7">
<g>
<path stroke-linecap="round" orgstroke="#000000" orgfill="#ffffff" fill="#ffffff" g2gfill="#BCBEC0" stroke-linejoin="round" d="M745.6,262.4   l-0.4-0.2c-0.2-0.1-0.3-0.1-0.5,0c-0.3,0.1-0.6,0.1-0.8,0.1c-0.1,0-0.3,0-0.4-0.2c-0.1-0.3-0.2-0.4-0.2-0.8c0-2,0.5-18.9,0.5-20.8   s0-3.3-0.2-4s-1.1-3.5-1.2-5.3c-0.1-1.8,0.4-2.6,0.6-3.3c0.2-0.6,0.2-0.9,0-2.7c-0.4-3.9-2.4-9.2-8.4-15.9   c-10.1-11.2-42.9-39.1-48.1-43.6c-0.2-0.2-0.4-0.1-0.6,0c-0.7,0.4-1.4,0.8-2.1,1.1c-7.4,3.6-16.3,8.4-26.3,14   c-24.4,13.6-60.5,35.3-87.8,53.3c-39.3,25.9-69.3,53.4-76.9,61.7c-7.6,8.3-12.4,15.2-17.1,21.6s-28.7,44.9-34.3,54.7   c-4.7,8.2-14.8,25.8-19.7,33.9c-0.1,0.2-0.2,0.3-0.2,0.6v0.6c0,0.4-0.1,0.5-0.2,0.7c-1.1,1.9-7.2,11.4-7.7,11.9   c0,0.1-0.1,0.2-0.1,0.5s0,0.9,0,1s0.2,0.5,0.5,0.7c1.3,0.7,3.5,2,3.9,2.4c0.8,0.6,1.1,1.4,1.3,2.2c0.1,0.5,1.4,21.9,5.2,43.5   c1.7,9.4,3.1,17.6,4.1,23.7c0,0.3,0.1,0.3-0.3,0.5l-0.3,0.1c-0.2,0.1-0.2,0.4-0.2,0.7c0.9,5.2,1.4,8.3,1.4,8.6   c0,0.3,0.1,0.6,0.2,0.7c0.1,0.2,0.3,0.4,0.5,0.5l2,1.2l0.1,0c0.3,0.1,0.7-0.1,1.3-0.4c1.1-0.5,2.7-1.3,2.7-1.3   c0.3-0.1,0.6,0.4,0.9,1.5c0.5,2.2,3.3,12.8,3.3,12.8c0.1,0.3,0,0.4-0.3,0.5c-2.1,1.2-3.7,2.2-5,3c-0.3,0.2-0.3,0.3-0.4,0.6   c-0.1,0.5-0.2,1-0.2,1.5c-0.2,1.3-0.5,2.7-0.7,4.1c-0.1,0.3,0.1,0.4,0.2,0.5l0.4,0.2c0.2,0.1,0.4,0.1,0.6,0l21.2-12.5L650,402.6   l6.5-3.8c3.2-1.9,5.8-5.8,7.7-11.5c0.1-0.4,0.3-0.9,0.4-1.4c0-0.1,0.1-0.3,0.3-0.4l0.8-0.4c0.3-0.2,0.4-0.3,0.5-0.7   c0.7-3,1.2-6.4,2-10.3c5.8-27.4,29-59,50.6-68.6c7.9-3.5,14.9-4.6,20.8-3.5c0.2,0,0.3-0.1,0.3-0.1c0.3-0.7,1.6-3.6,2-4.5   c0.4-0.8,0.5-1.5,0.5-2.3c0.1-1.9,0.6-9.5,1.1-14.6c0.5-5,1.2-12.3,2.5-17.6C745.8,262.6,745.8,262.5,745.6,262.4z M578.9,362.2   c-0.5,4.3-1.9,12.1-3.7,18c-1.8,5.7-5.1,15-6.3,25c-1.1,10.1-2.4,27-16.7,35.5c0,0-82.1,49.4-106.2,63.8c-0.3,0.2-0.4,0.2-0.5-0.4   c-0.1-1.2-0.1-2.7,0-4.6c0.2-3.8-2.5-54.9-2.8-58.2s-1.3-6.1-2.2-8.7s-1.8-7.1-1.8-9.3c0-2,0-8.1,0-13.3c0-0.3,0.1-0.4,0.2-0.6   l0.4-0.4c0.2-0.2,0.2-0.3,0.2-0.6c0.1-0.9,0.5-2.5,1.4-6.3c0.6-2.6,3.3-9.2,6.9-17.1l0.2-0.3c5.4-11.8,32.7-58.2,43.8-72.2   c11.1-14,17.8-19.7,34.9-32.8c7.6-5.8,25.6-18.6,28.5-20.7c0.9-0.7,2.3-0.7,3.6-0.2c0,0,0.1,0,0.1,0.1c2.6,1.5,4.6,5.2,5.5,8.7   c3.9,14.4,9,47.2,9.7,56.8c0.7,9.6,3.9,10.4,4.6,19.5C579.6,353.1,579.3,357.9,578.9,362.2z M685.6,292.3   c-2.3,7.1-6.6,13.5-11,21.3l-0.9,1.5c-10.4,18.4-16,30.8-21.1,41.7c-2.5,5.4-4.9,10.6-7.5,15.7c-0.7,1.3-1.2,2.9-1.8,4.7   c-1.5,4.7-3.4,10.5-8.6,13.6c-1.9,1.2-13.2,7.9-21.4,12.8l-8.5,5.1c-1.8,1.1-3.4,1.7-4.8,1.7c-0.6,0-0.8-0.2-1-0.8   c-0.1-0.2-0.3-0.7-0.3-0.9c-0.4-1.3-0.7-2.6-1-4c-0.4-2-0.4-2.9-0.3-4.2c0.2-1.2-0.5-2.6-0.2-5.2c0.3-2.6,3.6-32.4,3.6-34.1   c-0.1-11.5-0.4-18.4-1.2-25.1c-0.1-1.3-0.5-2.5-0.9-3.7l-0.2-0.5c-0.4-4.4-1.8-13.3-4.8-26.8c-3.1-13.5-14.6-46.3-15.2-48.2   c-0.6-1.9-0.5-4.5,0.3-7.2c0.9-2.8,2.5-7.4,8.8-11.4c16.6-10.7,54.7-30.1,74-38.1c1-0.4,1.8-0.7,2.4-0.5c0.3,0.1,1,0.7,1.2,0.9   c1.9,2.2,16.5,23.1,16.5,23.1c1.4,2,3.5,4.5,3.5,8.1c0.2,9.1,1,19,1.2,20.2c0.6,3.9-0.8,8.2-0.6,16.5   C686.1,277.7,689.3,280.4,685.6,292.3z" stroke="#000000" outline-element="true" stroke-width="0.5" g2gstroke="#312783"/>
<path orgstroke="#000000" orgfill="none" stroke-linecap="round" fill="none" stroke-linejoin="round" d="   M703.6,267.2c17-11.9,31.2-22,35.4-25.4c1.8-1.4,3.4-2.7,4.8-4" stroke="#000000" stroke-width="0.25" g2gstroke="#312783" stroke-miterlimit="10"/>
<path orgstroke="#000000" orgfill="none" stroke-linecap="round" fill="none" stroke-linejoin="round" d="   M421.8,406.3c3.3-1.1,13.3-0.3,17.7,2.6" stroke="#000000" stroke-width="0.25" g2gstroke="#312783" stroke-miterlimit="10"/>
<path orgstroke="#000000" orgfill="none" stroke-linecap="round" fill="none" stroke-linejoin="round" d="   M421.7,407.7c3-1.1,12.5-0.4,17.2,2.2" stroke="#000000" stroke-width="0.25" g2gstroke="#312783" stroke-miterlimit="10"/>
<path orgstroke="#000000" orgfill="none" stroke-linecap="round" fill="none" stroke-linejoin="round" d="   M698.3,294.3c3.8-2.9,7.6-5.5,11.6-7.7c7.9-4.4,16.4-5.6,24-5.6c2.8,0,5.6,0.2,8.2,0.8c0.4,0.1,0.8,0.2,1.1,0.3" stroke="#000000" stroke-width="0.25" g2gstroke="#312783" stroke-miterlimit="10"/>
<path orgstroke="#000000" orgfill="none" stroke-linecap="round" fill="none" stroke-linejoin="round" d="   M656.3,378.4c1.2-0.1,2.5-0.2,3.8-0.2" stroke="#000000" stroke-width="0.25" g2gstroke="#312783" stroke-miterlimit="10"/>
<path orgstroke="#000000" orgfill="none" stroke-linecap="round" fill="none" stroke-linejoin="round" d="   M654.4,384c1-0.7,1.9-1.4,2.8-2.1c2.7-2.1,4.4-4.1,4.9-6.9c5.7-30.1,30.5-64.1,54.3-74.7c6.6-2.9,12.8-4.4,18.6-4.4   c2.5,0,4.8,0.3,7.1,0.8" stroke="#000000" stroke-width="0.25" g2gstroke="#312783" stroke-miterlimit="10"/>
<path orgstroke="#000000" orgfill="none" stroke-linecap="round" fill="none" stroke-linejoin="round" d="   M743.5,262.1c0.4,0.6,1.3,0.8,2.3,0.5" stroke="#000000" stroke-width="0.25" g2gstroke="#312783" stroke-miterlimit="10"/>
<path orgstroke="#000000" orgfill="none" stroke-linecap="round" fill="none" stroke-linejoin="round" d="   M438.9,409.8c0,0-6.6,4.7-6,13.7c0.7,9.8,1.5,16.9,1.5,16.9" stroke="#000000" stroke-width="0.25" g2gstroke="#312783" stroke-miterlimit="10"/>
<path orgstroke="#000000" orgfill="none" fill="none" d="M436.1,504.7c0.1,0,0.1-0.1,0.2-0.1c1-0.5,1.4-0.5,1.8,1.2   c0.5,2.2,3.3,12.8,3.3,12.8" stroke="#000000" stroke-width="0.25" g2gstroke="#312783"/>
<path orgstroke="#000000" orgfill="none" fill="none" d="M413.7,420.1c-0.1,0.4,0,0.8,0.8,1.1c0.9,0.4,4.1,2.3,4.6,2.7   c0.8,0.6,1.1,1.5,1.3,2.4c0.1,0.5,1.4,21.9,5.2,43.5c3.5,19.9,5.9,34.5,6,35.2c0.1,0.8,0.3,1.2,0.6,1.3" stroke="#000000" stroke-width="0.25" g2gstroke="#312783"/>
<path orgstroke="#000000" orgfill="none" stroke-linecap="round" fill="none" stroke-linejoin="round" d="   M435.9,523.1c-0.1,0.6-0.2,1.3-0.3,1.9c-0.2,1.4-0.5,2.8-0.8,4.3" stroke="#000000" stroke-width="0.25" g2gstroke="#312783" stroke-miterlimit="10"/>
<path orgstroke="#000000" orgfill="none" fill="none" d="M430.1000061035156 495.6000061035156L445.1000061035156 487.1000061035156" stroke="#000000" stroke-width="0.25" g2gstroke="#312783" stroke-miterlimit="10"/>
<path orgstroke="#000000" orgfill="none" fill="none" d="M424 458.5L443.20001220703125 447.6000061035156" stroke="#000000" stroke-width="0.25" g2gstroke="#312783" stroke-miterlimit="10"/>
<path orgstroke="#000000" orgfill="none" fill="none" d="M422.3999938964844 447.29998779296875L441.79998779296875 436.29998779296875" stroke="#000000" stroke-width="0.25" g2gstroke="#312783" stroke-miterlimit="10"/>
<path orgstroke="#000000" orgfill="none" fill="none" d="M420.8999938964844 432.8999938964844L432.8999938964844 426" stroke="#000000" stroke-width="0.25" g2gstroke="#312783" stroke-miterlimit="10"/>
<path orgstroke="#000000" orgfill="none" fill="none" d="M441.2,471.2c0.1,1.2-0.7,2.8-1.7,3.5c-0.9,0.6-1.8,0.3-2-0.7   c0-0.1,0-0.2,0-0.3l-1-12.2c0-0.1,0-0.2,0-0.2c0,0,0,0.1,0,0.1l0.9,11.2c0.1,0.9,0.7,1.2,1.5,0.7c0.7-0.5,1.3-1.6,1.2-2.6   l-0.9-11.4c-0.1-0.8-0.8-1-1.5-0.5c-0.5,0.4-1,1-1.1,1.7c0.2-1,0.8-2,1.6-2.5c0.9-0.6,1.8-0.3,2,0.7L441.2,471.2z" stroke="#000000" stroke-width="0.25" g2gstroke="#312783"/>
<path orgstroke="#000000" orgfill="none" fill="none" d="M436.6,460.5c0,0-0.1,0.5-0.1,0.7" stroke="#000000" stroke-width="0.25" g2gstroke="#312783"/>
<path orgstroke="#000000" orgfill="none" fill="none" d="M434.7,476.9c0.2,1.3-0.5,3.1-1.6,3.9c-1.1,0.8-2.1,0.4-2.2-0.9   c-0.2-1.3,0.6-3.1,1.6-3.9C433.6,475.2,434.6,475.6,434.7,476.9z" stroke="#000000" stroke-width="0.25" g2gstroke="#312783"/>
<path orgstroke="#000000" orgfill="none" fill="none" d="M434,477.5c0.1,0.8-0.3,1.9-1,2.4c-0.6,0.5-1.3,0.2-1.4-0.6   c-0.1-0.8,0.3-1.9,1-2.4C433.3,476.4,433.9,476.7,434,477.5z" stroke="#000000" stroke-width="0.25" g2gstroke="#312783"/>
<path orgstroke="#000000" orgfill="none" fill="none" d="M436.1,499.6c0.1,0.6-0.2,1.4-0.7,1.7c-0.5,0.4-0.9,0.2-1-0.4   c-0.1-0.6,0.2-1.4,0.7-1.7C435.5,498.9,436,499,436.1,499.6z" stroke="#000000" stroke-width="0.25" g2gstroke="#312783"/>
<path orgstroke="#000000" orgfill="none" fill="none" d="M435.2,499.1c0,0.6-0.3,1.3-0.7,1.6c0,0-0.1,0.1-0.1,0.1" stroke="#000000" stroke-width="0.25" g2gstroke="#312783"/>
<path orgstroke="#000000" orgfill="none" fill="none" d="M441.1,493.9c0.1,0.6-0.2,1.4-0.7,1.7c-0.5,0.4-0.9,0.2-1-0.4   c-0.1-0.6,0.2-1.4,0.7-1.7C440.5,493.1,441,493.3,441.1,493.9z" stroke="#000000" stroke-width="0.25" g2gstroke="#312783"/>
<path orgstroke="#000000" orgfill="none" fill="none" d="M440.2,493.4c0,0.6-0.3,1.3-0.7,1.6c0,0-0.1,0.1-0.1,0.1" stroke="#000000" stroke-width="0.25" g2gstroke="#312783"/>
<path orgstroke="#000000" orgfill="none" fill="none" d="M440,442.9c0.1,0.8-0.3,1.8-0.9,2.3c-0.6,0.5-1.2,0.2-1.3-0.5   c-0.1-0.8,0.3-1.8,0.9-2.3C439.3,441.9,439.9,442.1,440,442.9z" stroke="#000000" stroke-width="0.25" g2gstroke="#312783"/>
<path orgstroke="#000000" orgfill="none" fill="none" d="M438.9,442.2c0,0.8-0.4,1.7-0.9,2.1c-0.1,0-0.1,0.1-0.2,0.1" stroke="#000000" stroke-width="0.25" g2gstroke="#312783"/>
<path orgstroke="#000000" orgfill="none" fill="none" d="M436.9,446.6c0.1,0.6-0.2,1.4-0.7,1.8c-0.5,0.4-1,0.2-1-0.4   c-0.1-0.6,0.3-1.4,0.7-1.8C436.4,445.8,436.8,446,436.9,446.6z" stroke="#000000" stroke-width="0.25" g2gstroke="#312783"/>
<path orgstroke="#000000" orgfill="none" fill="none" d="M436,446.1c0,0.6-0.3,1.4-0.8,1.7c0,0-0.1,0.1-0.1,0.1" stroke="#000000" stroke-width="0.25" g2gstroke="#312783"/>
<path orgstroke="#000000" orgfill="none" fill="none" d="M430.8,430.9c0.1,0.6-0.2,1.4-0.7,1.8c-0.5,0.4-1,0.2-1-0.4   c-0.1-0.6,0.3-1.4,0.7-1.8C430.3,430.1,430.7,430.3,430.8,430.9z" stroke="#000000" stroke-width="0.25" g2gstroke="#312783"/>
<path orgstroke="#000000" orgfill="none" fill="none" d="M429.9,430.4c0,0.6-0.3,1.4-0.8,1.7c0,0-0.1,0.1-0.1,0.1" stroke="#000000" stroke-width="0.25" g2gstroke="#312783"/>
<path orgstroke="#000000" orgfill="none" fill="none" d="M436.9,417.9c0.1,0.6-0.2,1.4-0.7,1.8c-0.5,0.4-1,0.2-1-0.4   c-0.1-0.6,0.3-1.4,0.7-1.8C436.4,417.1,436.8,417.3,436.9,417.9z" stroke="#000000" stroke-width="0.25" g2gstroke="#312783"/>
<path orgstroke="#000000" orgfill="none" fill="none" d="M436,417.4c0,0.6-0.3,1.4-0.8,1.7c0,0-0.1,0.1-0.1,0.1" stroke="#000000" stroke-width="0.25" g2gstroke="#312783"/>
<path orgstroke="#000000" orgfill="none" fill="none" d="M427.9,494.9l0.6,0.3c0.3,0.1,0.4,0,0.3-0.3c0-0.2-0.2-1.5-0.2-1.5" stroke="#000000" stroke-width="0.25" g2gstroke="#312783"/>
<path orgstroke="#000000" orgfill="none" stroke-linecap="round" fill="none" stroke-linejoin="round" d="   M434.9,522.7c0,0,0.4,0.2,0.6,0.4c0.2,0.1,0.5,0.1,0.7-0.1c23.5-14.1,219.3-131.7,229.8-138.3" stroke="#000000" stroke-width="0.25" g2gstroke="#312783" stroke-miterlimit="10"/>
<path orgstroke="#000000" orgfill="none" stroke-linecap="round" fill="none" stroke-linejoin="round" d="   M447.9,385.2c4.1-9.1,9.5-19.9,14.5-28.6c9.4-16.3,17.6-30.7,28.7-44.7c11.1-14,17.8-19.7,34.9-32.8c17-13,45.9-33.6,72.1-48.3   c21.9-12.3,48.8-26.3,67.5-33.8c2.1-0.9,5.2-0.1,7.6,2.7c2.1,2.3,12.6,16.9,19.5,27.1c1.4,2.1,3.6,5.1,4.1,9.3s0.5,13.6,0.5,15.1   c0.2,0.8,0.3,2.6,0.9,3.9c0.6,1.4,3.6,7.3,4.1,8.2c0.2,0.4,0.5,0.8,0.8,1.6c0.7,1.9,0.7,3,0.6,4.7c-1.7,21.5-8.3,32.7-18.4,50.6   c-15.7,27.8-20.8,42.3-28.5,57.3c-2.3,4.4-3.1,14.7-10.9,19.5" stroke="#000000" stroke-width="0.25" g2gstroke="#312783" stroke-miterlimit="10"/>
<path orgstroke="#000000" orgfill="none" stroke-linecap="round" fill="none" stroke-linejoin="round" d="   M670.2,197.4c0.7,0.4,1.3,1,1.9,1.7c2.1,2.3,12.6,16.9,19.5,27.1c1.4,2.1,3.6,5.1,4.1,9.3s0.5,13.6,0.5,15.1   c0.2,0.8,0.3,2.6,0.9,3.9c0.6,1.4,3.6,7.3,4.1,8.2c0.2,0.4,0.5,0.8,0.8,1.6c0.7,1.9,0.7,3,0.6,4.7c-1.7,21.5-8.3,32.7-18.4,50.6   c-15.7,27.8-20.8,42.3-28.5,57.3c-2.3,4.4-3.1,14.7-10.9,19.5l-0.6,0.3c-53,31.9-186.2,112.1-203.7,122.6" stroke="#000000" stroke-width="0.25" g2gstroke="#312783" stroke-miterlimit="10"/>
<path orgstroke="#000000" orgfill="none" fill="none" d="M599.2,409.8c1.9,5.2,5.4,9,13.3,4.4c3.1-1.8,27-16.1,29.9-17.9   c7.9-4.8,8.9-14.7,11.1-19.2c7.7-15,12.8-29.5,28.5-57.3c10.1-17.9,16.7-29.1,18.4-50.6c0.1-1.8,0.1-2.8-0.6-4.7   c-0.3-0.8-0.6-1.2-0.8-1.6c-0.4-0.9-3.4-6.8-4.1-8.2c-0.6-1.3-0.7-3.1-0.9-3.9c0-1.5,0-10.9-0.5-15.1s-2.7-7.2-4.1-9.3   c-7-10.2-17.4-24.7-19.5-27.1c-0.6-0.7-1.2-1.3-1.9-1.7c-0.8-0.4-2.5-0.7-3-0.5" stroke="#000000" stroke-width="0.25" g2gstroke="#312783"/>
<path orgstroke="#000000" orgfill="none" fill="none" d="M600.8,413.1c1.7,0,3.8-0.6,6.3-2c3.1-1.8,27-16.1,29.9-17.9   c7.9-4.8,8.9-14.7,11.1-19.2c7.7-15,12.8-29.5,28.5-57.3c10.1-17.9,16.7-29.1,18.4-50.6c0.1-1.8,0.1-2.8-0.6-4.7   c-0.3-0.8-0.6-1.2-0.8-1.6c-0.4-0.9-3.4-6.8-4.1-8.2c-0.6-1.3-0.8-3.1-0.9-3.9c-0.2-1.5,0-10.9-0.5-15.1s-2.7-7.2-4.1-9.3   c-7-10.2-14.4-20.6-16.5-23c-0.6-0.7-1.2-1.3-1.9-1.7c-0.8-0.4-2.5-0.7-3-0.5" stroke="#000000" stroke-width="0.25" g2gstroke="#312783"/>
<path orgstroke="#000000" orgfill="none" fill="none" d="M560.7,254.2c5.2,2.1,8.2,3.7,12.1,18.1s9,47.2,9.7,56.8   c0.7,9.6,4,7.8,4.7,16.9c0.8,9.1,1.3,16.7,0.8,21c-0.5,4.3-2.8,12-4.6,17.9c-1.8,5.7-5.2,15-6.3,25c-1.1,10.1-3.5,27.6-17.8,36.2   c-41,24.6-84.6,50.8-108.4,65.1c-2.6,1.5-4.3,0.8-4.6-1.7c-0.1-1.2-0.6-2.7-0.8-5.5" stroke="#000000" stroke-width="0.25" g2gstroke="#312783"/>
<path orgstroke="#000000" orgfill="none" fill="none" d="M556.7,257c6.1,0.5,8.8,6,10.5,12.4c3.9,14.4,9,47.2,9.7,56.8   c0.7,9.6,3.9,10.4,4.6,19.5c0.8,9.1,0.5,13.9,0,18.2c-0.5,4.3-1.9,12.1-3.7,18c-1.8,5.7-5.2,15-6.3,25c-1.1,10.1-2.4,27-16.7,35.5   c0,0-87.9,52.9-108.7,65.4" stroke="#000000" stroke-width="0.25" g2gstroke="#312783"/>
<path orgstroke="#000000" orgfill="none" fill="none" d="M558.9,258.9c0.2,0.1,0.3,0.1,0.5,0.2c2.7,1.5,5.2,5.4,6.3,9.1   c3.9,14.4,9,47.2,9.7,56.8c0.7,9.6,3.9,10.4,4.6,19.5c0.8,9.1,0.5,13.9,0,18.2c-0.5,4.3-1.9,12.1-3.7,18c-1.8,5.7-5.2,15-6.3,25   c-1.1,10.1-2.4,27-16.7,35.5c0,0-83.7,50.3-107.5,64.6" stroke="#000000" stroke-width="0.25" g2gstroke="#312783"/>
<path orgstroke="#000000" orgfill="none" fill="none" d="M598.7,332.3c-0.9-2.6-2.1-5.1-2.5-7.7c-0.5-3.1-1.1-6.3-1.7-9.9   c-2.5-15.2-15.7-53.8-16.9-57c-1.2-3.2-1.4-5.1,0-9.6c1.4-4.5,4.2-7.5,8.5-10.2" stroke="#000000" stroke-width="0.25" g2gstroke="#312783"/>
<path orgstroke="#000000" orgfill="none" fill="none" d="M587.7999877929688 368.29998779296875L600.7999877929688 360.79998779296875" stroke="#000000" stroke-width="0.25" g2gstroke="#312783"/>
<path orgstroke="#000000" orgfill="none" fill="none" d="M586 340.5L599 333" stroke="#000000" stroke-width="0.25" g2gstroke="#312783"/>
<path orgstroke="#000000" orgfill="none" fill="none" d="M583.5999755859375 334.6000061035156L596.5999755859375 327.1000061035156" stroke="#000000" stroke-width="0.25" g2gstroke="#312783"/>
<path orgstroke="#000000" orgfill="none" fill="none" d="M579.5 306.3999938964844L590.9000244140625 299.79998779296875" stroke="#000000" stroke-width="0.25" g2gstroke="#312783"/>
<path orgstroke="#000000" orgfill="none" fill="none" d="M590.8,342.8c0.5-0.4,0.9-1.2,0.8-1.9c-0.1-0.6-0.6-0.8-1.1-0.4   c-0.5,0.4-0.8,1.2-0.8,1.9C589.8,343,590.3,343.2,590.8,342.8z" stroke="#000000" stroke-width="0.25" g2gstroke="#312783"/>
<path orgstroke="#000000" orgfill="none" fill="none" d="M596.1,344.2c0.5-0.4,0.9-1.2,0.8-1.9c-0.1-0.6-0.6-0.8-1.1-0.4   c-0.5,0.4-0.8,1.2-0.8,1.9C595.1,344.4,595.5,344.6,596.1,344.2z" stroke="#000000" stroke-width="0.25" g2gstroke="#312783"/>
<path orgstroke="#000000" orgfill="none" fill="none" d="M589.8,392.4c0.5-0.4,0.9-1.2,0.8-1.9c-0.1-0.6-0.6-0.8-1.1-0.4   c-0.5,0.4-0.8,1.2-0.8,1.9C588.8,392.6,589.3,392.8,589.8,392.4z" stroke="#000000" stroke-width="0.25" g2gstroke="#312783"/>
<path orgstroke="#000000" orgfill="none" fill="none" d="M594.2,385.4c0.5-0.4,0.9-1.2,0.8-1.9c-0.1-0.6-0.6-0.8-1.1-0.4   c-0.5,0.4-0.8,1.2-0.8,1.9C593.2,385.6,593.7,385.8,594.2,385.4z" stroke="#000000" stroke-width="0.25" g2gstroke="#312783"/>
<path orgstroke="#000000" orgfill="none" fill="none" d="M595.4,347.5c0.3,3.5,0.4,7.3,0.5,12.1l0,0.5c0,1.2-0.7,2.4-1.6,2.9   c-0.9,0.6-2.6,0.3-2.6-1l0-0.4c-0.1-4.7-0.3-8.5-0.5-12l0-0.5c-0.1-1.2,0.5-2.4,1.6-3.1c1.2-0.7,2.4-0.4,2.5,1L595.4,347.5z" stroke="#000000" stroke-width="0.25" g2gstroke="#312783"/>
<path orgstroke="#000000" orgfill="none" fill="none" d="M593.7,345.7c0.1,0.2,0.1,0.4,0.1,0.6l0,0.5c0.3,3.5,0.4,7.3,0.5,12.1   l0,0.5c0,1.2-0.7,2.4-1.6,2.9c-0.3,0.2-0.6,0.3-0.9,0.3" stroke="#000000" stroke-width="0.25" g2gstroke="#312783"/>
<path orgstroke="#000000" orgfill="none" fill="none" d="M588,366.6c0,0-4.5-4.5-4.7-10.4c-0.2-5.9,2.6-4.9,4.3-4.3" stroke="#000000" stroke-width="0.25" g2gstroke="#312783"/>
<path orgstroke="#000000" orgfill="none" fill="none" d="M585.6,355.7c-0.4-0.3-0.7-1.1-0.7-1.6c0.1-0.5,0.5-0.7,0.9-0.4   c0.4,0.3,0.7,1,0.7,1.6C586.4,355.9,586,356,585.6,355.7z" stroke="#000000" stroke-width="0.25" g2gstroke="#312783"/>
<path orgstroke="#000000" orgfill="none" fill="none" d="M585.3,360.6c-0.4-0.3-0.7-1.1-0.7-1.6s0.5-0.7,0.9-0.4   c0.4,0.3,0.7,1,0.7,1.6C586.1,360.8,585.7,360.9,585.3,360.6z" stroke="#000000" stroke-width="0.25" g2gstroke="#312783"/>
<path orgstroke="#000000" orgfill="none" fill="none" d="M580.3,416.3c-1,0.5-1.4,1.9-1.6,3.5c-0.2,1.6-1.3,8.8-3.4,12.8   c-2.1,4-1.3,4.5,2.6,2.1c4-2.4,20.8-12.1,22.5-13.1c1.7-1,2.1-2.9,0.5-4.5c-1.6-1.6-4.1-5.3-4.6-6.9c-0.5-1.6-2-1.5-3.5-0.7   C591.5,410.1,581.2,415.7,580.3,416.3z" stroke="#000000" stroke-width="0.25" g2gstroke="#312783"/>
<path orgstroke="#000000" orgfill="none" fill="none" d="M590.6,366.7c0.3,5.4-3.7,19.6-4.6,23.6c-1,4-3.6,9.7-3.7,12.3   c0,2.7,2,4.1,5,2.7c2.9-1.4,10.3-5.6,10.3-5.6" stroke="#000000" stroke-width="0.25" g2gstroke="#312783"/>
<path orgstroke="#000000" orgfill="none" fill="none" d="M585,393.5c-0.8,2.9-1.7,5.6-1.7,7.1c0,2.7,1.9,2.8,4.8,1.3   c2.1-1.1,9.2-4.7,9.2-4.7" stroke="#000000" stroke-width="0.25" g2gstroke="#312783"/>
<path orgstroke="#000000" orgfill="none" fill="none" d="M685.5,305.6c0.6,0.1,0.9,0.9,0.7,1.8c-0.2,0.9-0.8,1.5-1.4,1.4   c-0.6-0.1-0.9-0.9-0.7-1.8C684.3,306.1,684.9,305.5,685.5,305.6z" stroke="#000000" stroke-width="0.25" g2gstroke="#312783"/>
<path orgstroke="#000000" orgfill="none" fill="none" d="M682.4,311.2c0.6,0.1,0.9,0.9,0.7,1.8c-0.2,0.9-0.8,1.5-1.4,1.4   c-0.6-0.1-0.9-0.9-0.7-1.8C681.3,311.7,681.9,311.1,682.4,311.2z" stroke="#000000" stroke-width="0.25" g2gstroke="#312783"/>
<path orgstroke="#000000" orgfill="none" fill="none" d="M664.1,199.6c0.5,0.1,0.9,0.2,1.2,0.5c0.4,0.3,0.8,0.7,1.1,1.1   c1.9,2.2,16.5,23.1,16.5,23.1c1.4,2,3.5,4.5,3.5,8.1c0.2,9.1,1,19,1.2,20.2c0.6,3.9-0.8,8.2-0.6,16.5c0.2,9.4,3.3,12.1-0.4,23.9   c-2.3,7.1-6.6,13.5-11,21.3l-0.9,1.5c-10.4,18.4-16,30.8-21.1,41.7c-2.5,5.4-4.9,10.6-7.5,15.7c-0.7,1.3-1.2,2.9-1.8,4.7   c-1.5,4.7-3.4,10.5-8.6,13.6c-1.9,1.2-13.2,7.9-21.4,12.8l-8.5,5.1c-2,1.2-3.8,1.7-5.2,1.8c-0.8,0.1-1.4-0.6-1.6-1.1" stroke="#000000" stroke-width="0.25" g2gstroke="#312783"/>
<g>
<g>
<g>
<ellipse orgstroke="#000000" orgfill="#FAFAFA" fill="#FAFAFA" rx="5.3" cx="528.9" cy="373.8" ry="7.8" stroke="#000000" outline-element="true" stroke-width="0.5" g2gstroke="#312783"/>
</g>
<g>
<path d="M527.1,377v-7.2h0.9v6.3h3.5v0.8L527.1,377L527.1,377z"/>
</g>
</g>
<path fill="#F39200" d="M600.8,361.1c0,0.7-0.6,6.6-1.3,13.4c0,0.1,0,0.1,0,0.2    c0,0,0,0.1,0,0.1s0,0.1,0,0.1c0,0.3-0.1,0.6-0.5,0.8c-0.5,0.3-9.8,5.7-10.3,5.9c-0.5,0.3-0.7,0.6-0.7,1c-0.1,0.4-0.4,0.7-0.7,0.8    c-0.3,0.2-2.6,1.5-3.1,1.7c-0.5,0.2-0.9,0.1-1.4-0.1c-0.5-0.3-4-2.3-4.4-2.6c-0.4-0.3-1,0.1-1.1,0.2c-0.2,0.1-0.6,0.3-1,0.5    c-0.5,0.2-0.8,0-1.1-0.3c-0.1-0.1-0.3-0.3-0.6-0.4c0.3-0.8,0.5-1.6,0.8-2.4c1.8-5.9,3.2-13.7,3.7-18c0.5-4.3,0.8-9.1,0-18.2    c-0.8-9.1-3.9-10-4.6-19.5c-0.7-9.3-5.5-40.8-9.4-55.7c0.1,0,0.2,0,0.3,0.1c0.4,0.2,0.7,0.4,1,0.2c0.4-0.2,0.4-0.2,0.5-0.3    c0.1-0.1,0.4-0.3,0.8-0.1c0.4,0.2,3.9,2.2,4.4,2.5c0.5,0.3,0.8,0.3,1.2,0.1c0.4-0.2,6.7-3.8,7.1-4c0.4-0.3,0.5-0.4,0.4-0.8    s-0.1-0.6,0.1-0.7c0.2-0.1,0.6-0.5,0.5-0.9c3.8,11,10.3,30.5,12.5,40.2c3.1,13.5,4.4,22.4,4.8,26.8l0.2,0.5    c0.4,1.2,0.7,2.4,0.9,3.7C600.4,342.7,600.7,349.6,600.8,361.1z" enable-background="new    " opacity="0.5" orgfill="#F39200"/>
<path orgstroke="#000000" orgfill="none" stroke-linecap="round" fill="none" stroke-linejoin="round" d="M561.7,270.4c0,0,2.5-1.5,2.7-1.6    c0.2-0.1,0.3-0.2,0.8,0s0.7,0.4,1,0.2s0.4-0.2,0.5-0.3c0.1-0.1,0.4-0.3,0.8-0.1s3.9,2.2,4.4,2.5c0.5,0.3,0.8,0.3,1.2,0.1    s6.7-3.8,7.1-4c0.4-0.3,0.5-0.4,0.4-0.8s-0.1-0.6,0.1-0.7c0.2-0.1,0.6-0.5,0.5-0.9s-0.2-0.7,0.2-0.9s3.1-1.8,3.1-1.8" stroke="#000000" g2gstroke="#312783"/>
<g>
<path fill="#F39200" d="M638.7,400.4c0.3,0.2,0.7,0.3,0.6,0.8c-0.1,0.5-1.6,8-1.7,8.3     c-0.1,0.5-0.6,0.7-1,0.9c-0.1,0-0.2,0.1-0.2,0.2c0,0,0,0,0,0l-145,85.4c0.1-0.2,0.2-0.4,0.3-0.5c0.3-0.2,0.8-0.4,0.9-0.9     c0.1-0.3,1.1-5.1,1.1-5.6c0-0.5-0.4-0.6-0.6-0.8c-0.3-0.2-0.5-0.6-0.5-0.8s0-0.3,0-0.7c0-0.4-0.2-0.7-0.5-0.9     c-0.4-0.2-3.8-2.2-4.3-2.5c-0.2-0.1-0.3-0.6-0.3-0.8s0-0.5,0-1c0-0.5-0.4-0.6-0.8-0.9c-0.1-0.1-0.3-0.2-0.3-0.4     c30.9-18.6,65.6-39.4,65.6-39.4c14.3-8.6,15.6-25.5,16.7-35.5c1-8.8,3.7-16.9,5.5-22.7c0.3,0,0.5,0.2,0.6,0.4     c0.3,0.3,0.7,0.4,1.1,0.3c0.4-0.2,0.9-0.4,1-0.5c0.2-0.1,0.7-0.5,1.1-0.2c0.4,0.3,4,2.3,4.4,2.6c0.5,0.3,0.9,0.4,1.4,0.1     c0.5-0.2,2.8-1.5,3.1-1.7c0.3-0.2,0.6-0.4,0.7-0.8c0.1-0.4,0.3-0.7,0.7-1c0.5-0.3,9.8-5.6,10.3-5.9c0.4-0.2,0.5-0.5,0.5-0.8     c-0.9,8.8-2,18.9-2.2,20.4c-0.3,2.6,0.4,4.1,0.2,5.2c-0.2,1.3-0.2,2.3,0.3,4.2c0.3,1.4,0.6,2.7,1,4c0.1,0.2,0.2,0.7,0.3,0.9     c0.2,0.5,0.5,0.8,1.1,0.8c1.3,0,2.9-0.7,4.8-1.7l8.5-5.1c6.3-3.7,14.3-8.5,18.6-11.1c0.1,0.1,0.1,0.2,0.2,0.2     c0.4,0.2,0.8,0.4,0.8,0.9c0,0.5,0,0.8,0,1s0,0.7,0.2,0.8c0.5,0.3,4,2.3,4.4,2.5c0.3,0.2,0.5,0.5,0.5,0.9c0,0.4,0,0.5,0,0.7     S638.4,400.2,638.7,400.4z" enable-background="new    " opacity="0.5" orgfill="#F39200"/>
<path orgstroke="#000000" orgfill="none" stroke-linecap="round" fill="none" stroke-linejoin="round" d="M486.4,477.4c0,0,0,1.7,0,2s0,0.9,0.4,1.1     c0.4,0.2,0.8,0.4,0.8,0.9s0,0.8,0,1s0.1,0.7,0.3,0.8c0.5,0.3,4,2.3,4.3,2.5s0.6,0.5,0.6,0.9s0,0.5,0,0.7s0.2,0.6,0.5,0.8     s0.7,0.3,0.6,0.8c0,0.5-1,5.3-1.1,5.6c-0.1,0.5-0.6,0.7-0.9,0.9c-0.3,0.2-0.4,0.9-0.4,1.3s-0.3,3.5-0.3,3.5" stroke="#000000" g2gstroke="#312783"/>
<path orgstroke="#000000" orgfill="none" stroke-linecap="round" fill="none" stroke-linejoin="round" d="M631.9,389.6c0,0,0,1.7,0,2s0,0.9,0.4,1.1     c0.4,0.2,0.8,0.4,0.8,0.9s0,0.8,0,1s0,0.7,0.2,0.8c0.5,0.3,4,2.3,4.4,2.5s0.6,0.5,0.6,0.9s0,0.5,0,0.7s0.2,0.6,0.5,0.8     s0.7,0.3,0.6,0.8c0,0.5-1.6,8-1.7,8.3c-0.1,0.5-0.6,0.7-0.9,0.9c-0.3,0.2-0.4,0.9-0.4,1.3s-0.3,3.5-0.3,3.5" stroke="#000000" g2gstroke="#312783"/>
<path orgstroke="#000000" orgfill="none" stroke-linecap="round" fill="none" stroke-linejoin="round" d="M570.3,384.7c0,0,2.8-1.6,3.4-2     s1.1-0.1,1.3,0.2s0.7,0.4,1.1,0.3s0.9-0.4,1-0.5c0.2-0.1,0.7-0.5,1.1-0.2s4,2.3,4.4,2.6s0.9,0.4,1.4,0.2s2.8-1.5,3.1-1.7     s0.6-0.4,0.7-0.8s0.3-0.7,0.7-1s9.8-5.6,10.3-5.9c0.5-0.3,0.5-0.6,0.6-1c0-0.4,0.1-0.9,0.7-1.3s3.2-1.8,3.2-1.8" stroke="#000000" g2gstroke="#312783"/>
<g>
<g>
<ellipse orgstroke="#000000" orgfill="#FAFAFA" fill="#FAFAFA" rx="5.3" cx="585.7" cy="413.1" ry="7.8" stroke="#000000" outline-element="true" stroke-width="0.5" g2gstroke="#312783"/>
</g>
<g>
<path d="M582.3,412.8c0-1.2,0.3-2.1,1-2.8c0.6-0.7,1.5-1,2.5-1c0.7,0,1.3,0.2,1.8,0.5c0.5,0.3,0.9,0.8,1.2,1.3       c0.3,0.6,0.4,1.2,0.4,1.9c0,0.7-0.1,1.4-0.4,1.9s-0.7,1-1.2,1.3s-1.1,0.4-1.7,0.4c-0.7,0-1.3-0.2-1.8-0.5       c-0.5-0.3-0.9-0.8-1.2-1.3S582.3,413.4,582.3,412.8z M583.3,412.8c0,0.9,0.2,1.5,0.7,2c0.5,0.5,1,0.7,1.7,0.7       c0.7,0,1.3-0.3,1.8-0.8c0.5-0.5,0.7-1.2,0.7-2.1c0-0.6-0.1-1.1-0.3-1.5c-0.2-0.4-0.5-0.8-0.9-1c-0.4-0.2-0.8-0.4-1.3-0.4       c-0.7,0-1.2,0.2-1.7,0.7C583.5,410.9,583.3,411.7,583.3,412.8z"/>
</g>
</g>
</g>
<g>
<g>
<ellipse orgstroke="#000000" orgfill="#FAFAFA" fill="#FAFAFA" rx="5.3" cx="588.8" cy="334.6" ry="7.8" stroke="#000000" outline-element="true" stroke-width="0.5" g2gstroke="#312783"/>
</g>
</g>
<path orgstroke="#000000" orgfill="none" fill="none" d="M583.5 334.6000061035156L547 334.6000061035156L547 413.1000061035156L580.4000244140625 413.1000061035156" stroke="#000000" outline-element="true" stroke-width="0.5" g2gstroke="#312783"/>
<path orgstroke="#000000" orgfill="none" fill="none" d="M547 373.79998779296875L534.2000122070312 373.79998779296875" stroke="#000000" outline-element="true" stroke-width="0.5" g2gstroke="#312783"/>
</g>
</g>
</g>
</g>
</g></svg>