<svg xmlns="http://www.w3.org/2000/svg" xmlns:xlink="http://www.w3.org/1999/xlink" xmlns:etg="http://www.eurotaxglass.com/etg/evd/" etg:dataTimestamp="1539068912893" contentScriptType="text/ecmascript" zoomAndPan="magnify" contentStyleType="text/css" id="Capa_1" enable-background="new 0 0 1841.891 1595.279" version="1.1" xml:space="preserve" width="1841.891px" preserveAspectRatio="xMidYMid meet" viewBox="0 0 1841.891 1595.279" height="1595.279px" x="0px" y="0px"><g xmlns="http://www.w3.org/2000/svg" objecttype="PS" tooltip="#UNDEFINED" id="56">
<g onmouseover="notifyOwner(AGV_OBJECT_MOUSEOVER, '56(PS)')" transform="translate(30.298809631347638, 36.772926666259764) translate(-637.0022509266453, -53.86035292387896) translate(-145.08306226765808, -12.468075663626848) translate(280.2057531707213, 171.5405952337831) translate(470.0, -126.0) translate(10.0, 10.00006103515625)" onclick="clickZoom(evt); notifyOwner(AGV_OBJECT_MOUSECLICK, '56(PS)')" onmouseout="notifyOwner(AGV_OBJECT_MOUSEOUT, '56(PS)')" tooltip="#UNDEFINED" id="56-Graphic" objecttype="GRAPHIC">
<g zvalue="2">
<g>
<path stroke-linecap="round" orgstroke="#000000" orgfill="#ffffff" fill="#ffffff" g2gfill="#ECC35D" stroke-linejoin="round" d="   M532.791,209.582c0.189,0.154,0.428,0.328,0.643,0.918c0.061,0.164,0.111,0.352,0.156,0.559c0.072,0.328,0.057,0.344-0.178,0.508   c-23.689,16.584-73.576,53.469-117.638,77.961c-0.341,0.189-0.595,0.232-0.844,0.088l-0.435-0.25   c-0.25-0.145-0.29-0.316-0.29-0.527v-1.563c0-0.258,0.078-0.398,0.368-0.561c29.106-16.17,44.1-26.477,116.057-76.986l0.826-0.578   c0.139-0.08,0.287-0.172,0.545-0.023L532.791,209.582z" stroke="#000000" outline-element="true" stroke-width="0.5" g2gstroke="#312783" stroke-miterlimit="10"/>
<path orgstroke="#000000" orgfill="none" stroke-linecap="round" fill="none" stroke-linejoin="round" d="M415.35198974609375 287.489990234375L415.35198974609375 289.62701416015625" stroke="#000000" stroke-width="0.25" g2gstroke="#312783" stroke-miterlimit="10"/>
<path orgstroke="#000000" orgfill="none" stroke-linecap="round" fill="none" stroke-linejoin="round" d="   M414.423,286.957l0.655,0.377c0.273,0.156,0.387,0.094,0.584-0.018c29.062-16.258,44.095-26.477,116.037-76.975l1.09-0.764" stroke="#000000" stroke-width="0.25" g2gstroke="#312783" stroke-miterlimit="10"/>
</g>
</g>
</g>
</g></svg>