<svg xmlns="http://www.w3.org/2000/svg" xmlns:xlink="http://www.w3.org/1999/xlink" xmlns:etg="http://www.eurotaxglass.com/etg/evd/" etg:dataTimestamp="1539068912893" contentScriptType="text/ecmascript" zoomAndPan="magnify" contentStyleType="text/css" id="Capa_1" enable-background="new 0 0 1841.891 1595.279" version="1.1" xml:space="preserve" width="1841.891px" preserveAspectRatio="xMidYMid meet" viewBox="0 0 1841.891 1595.279" height="1595.279px" x="0px" y="0px"><g xmlns="http://www.w3.org/2000/svg" objecttype="PS" tooltip="#UNDEFINED" id="99">
<g onmouseover="notifyOwner(AGV_OBJECT_MOUSEOVER, '99(PS)')" transform="translate(30.298809631347638, 36.772926666259764) translate(-637.0022509266453, -53.86035292387896) translate(-5.777216720457091, -184.87093505462855) translate(319.019013472206, 104.61337779445716) translate(-163.9004747705552, -125.02664421600048) translate(481.0, 219.0) translate(10.0, 10.00006103515625)" onclick="clickZoom(evt); notifyOwner(AGV_OBJECT_MOUSECLICK, '99(PS)')" onmouseout="notifyOwner(AGV_OBJECT_MOUSEOUT, '99(PS)')" tooltip="#UNDEFINED" id="99-Graphic" objecttype="GRAPHIC">
<g zvalue="11">
<g>
<path orgstroke="#000000" orgfill="#ffffff" fill="#ffffff" g2gfill="#ECC35D" d="M414.832,286.666   c-5.529,3.049-11.887,6.695-16.107,9.055c-0.906,0.508-1.768,0.52-2.727-0.033l-3.89-1.945c-1.019-0.59-1.696-1.627-1.557-2.824   c0,0,1-7.986,1.85-10.518c0.34-1.014,2.896-5.586,4.091-7.305c0.909-1.309,5.263-6.738,6.915-9.059   c1.938-2.725,7.305-11.201,7.305-11.201l2.033-3.422c0.21-0.365,0.615-0.477,1.007-0.25l0.305,0.176   c0.438,0.254,0.609,0.449,0.609,1.004c0.326,11.621,1.831,23.232,1.087,34.936C415.753,285.833,415.384,286.347,414.832,286.666z" stroke="#000000" outline-element="true" stroke-width="0.5" g2gstroke="#312783" stroke-miterlimit="10"/>
<path orgstroke="#000000" orgfill="none" stroke-linecap="round" fill="none" d="M398.139,295.945   c-0.58,0-0.754-0.668-0.781-0.98c-0.402-4.453,0.153-9.203,1.308-13.318c0.419-1.635,1.613-4.994,2.598-7.133   c3.749-8.15,8.604-16.152,12.741-23.967c0.23-0.434,0.587-0.994,0.623-0.643" stroke="#000000" stroke-width="0.25" g2gstroke="#312783"/>
<path orgstroke="#000000" orgfill="none" fill="none" d="M409.188,269.253c0,0-2.252,1.479-2.691,1.82   c-0.33,0.258-0.844,0.785-0.989,1.475s-0.823,3.977-1.656,7.303s0.166,3.729,0.975,3.221c0.809-0.51,4.606-2.916,4.967-3.123   c0.36-0.209,0.682-0.729,0.682-1.461c0-0.734,0.186-8.086,0.186-8.086C410.659,269.333,410.009,268.699,409.188,269.253z" stroke="#000000" stroke-width="0.25" g2gstroke="#312783"/>
<path orgstroke="#000000" orgfill="none" fill="none" d="M403.577,282.447c0,0,4.507-2.826,4.961-3.09   c0.454-0.262,0.671-0.914,0.683-1.461s0.194-8.768,0.194-8.768" stroke="#000000" stroke-width="0.25" g2gstroke="#312783"/>
<path orgstroke="#000000" orgfill="none" stroke-linecap="round" fill="none" d="M413.874,265.705   c0.386,6.379,0.668,12.514,0.225,18.939c0,0.58-0.11,0.93-0.716,1.234c-4.758,2.443-14.146,7.553-14.146,7.553   c-0.688,0.396-0.93,0.133-0.949-0.701c-0.496-13.67,7.762-25.418,14.222-37.301c0.335-0.578,0.707-0.725,0.756,0.152   C413.405,258.138,413.721,263.175,413.874,265.705z" stroke="#000000" stroke-width="0.25" g2gstroke="#312783"/>
<path orgstroke="#000000" orgfill="none" stroke-linecap="round" fill="none" d="M411.952,256.646   c0.52,8.885,1.268,18.369,0.669,27.318c0,0.525-0.167,0.848-0.717,1.166c-5.026,2.607-13.639,7.156-13.639,7.156" stroke="#000000" stroke-width="0.25" g2gstroke="#312783"/>
<path orgstroke="#000000" orgfill="none" stroke-linecap="round" fill="none" d="M412.403,284.718c0,0-0.854-0.4-1.74-0.223   c-1.796,0.357-5.186,1.811-6.939,2.338c-1.28,0.383-5.25,1.008-5.25,1.008" stroke="#000000" stroke-width="0.25" g2gstroke="#312783"/>
<path orgstroke="#000000" orgfill="none" stroke-linecap="round" fill="none" d="M413.9320068359375 285.4230041503906L412.5639953613281 284.6300048828125" stroke="#000000" stroke-width="0.25" g2gstroke="#312783"/>
</g>
</g>
</g>
</g></svg>