<svg xmlns="http://www.w3.org/2000/svg" xmlns:xlink="http://www.w3.org/1999/xlink" xmlns:etg="http://www.eurotaxglass.com/etg/evd/" etg:dataTimestamp="1539068912893" contentScriptType="text/ecmascript" zoomAndPan="magnify" contentStyleType="text/css" id="Layer_1" enable-background="new 0 0 1841.891 1595.279" version="1.1" xml:space="preserve" width="1841.891px" preserveAspectRatio="xMidYMid meet" viewBox="0 0 1841.891 1595.279" height="1595.279px" x="0px" y="0px"><g xmlns="http://www.w3.org/2000/svg" objecttype="PS" tooltip="#UNDEFINED" id="103">
<g onmouseover="notifyOwner(AGV_OBJECT_MOUSEOVER, '103(PS)')" transform="translate(-1.0864257831144641E-5, 66.80804286193847) translate(-478.1112626953125, -9.244252822875978) translate(59.0, -37.0) translate(572.0, -62.0) translate(10.0, 10.00006103515625)" onclick="clickZoom(evt); notifyOwner(AGV_OBJECT_MOUSECLICK, '103(PS)')" onmouseout="notifyOwner(AGV_OBJECT_MOUSEOUT, '103(PS)')" tooltip="#UNDEFINED" id="103-Graphic" objecttype="GRAPHIC">
<g zvalue="1">
<g>
<path stroke-linecap="round" orgstroke="#000000" orgfill="#ffffff" fill="#ffffff" g2gfill="#BCBEC0" stroke-linejoin="round" d="M207.463,307.244   c-0.186-4.682-8.207-47.1-9.227-55.721c-1.02-8.623-2.091-19.279,0.156-23.844c0.868-1.764,1.832-3.086,2.529-3.949   c0.141-0.174,0.179-0.297,0.179-0.512v-0.338c0-0.15-0.093-0.338-0.234-0.416c-3.151-1.738-6.68-3.844-10.372-5.977   c-31.617-18.256-88.978-50.762-121.598-67.75l-0.878-0.457c-3.211-1.658-5.308,0.09-6.766,2.84   c-1.292,2.438-2.02,5.998,1.083,8.152c0.319,0.221,0.238,0.295,0.322,0.496c0.494,1.178,1.429,2.295,3.104,3.17   c32.6,17.045,61.904,37.707,74.021,45.439c4.819,3.076,8.032,5.85,10.168,8.301l0.14,0.229c1.644,2.752,1.919,4.965,1.919,6.596   c0,3.4,0,21.281,0,30.654l-0.001,1.166c-0.376,7.594-6.501,13.434-11.523,19.699c0,0-10.55,12.779-17.05,17.727   c-4.287,3.262-5.643,4.313-7.386,6.356c-3.597,4.217-19.273,31.025-33.263,48.885l-0.172,0.219   c-2.456,3.045-5.258,6.01-7.499,8.244c-1.458,1.451-2.755,2.631-3.673,3.744c-0.22,0.268-0.184,0.268-0.508,0.221   c-2.499-0.359-3.513-0.92-4.557-1.512c-3.127-1.775-9.222-5.301-12.505-7.105c-0.161-0.09-0.406-0.057-0.588,0.049l-0.506,0.291   c-0.257,0.148-0.3,0.35-0.3,0.521l0.048,0.807c0,0.203-0.012,0.404-0.301,0.57l-4.64,2.73c-0.231,0.135-0.33,0.33-0.33,0.488v0.342   c0,0.141-0.032,0.271-0.266,0.406l-0.307,0.176c-0.198,0.115-0.278,0.289-0.294,0.557c-0.046,0.816-0.145,2.66-0.145,3.428   c0,2.252,0.362,3.174,2.569,4.439c16.293,9.338,30.56,17.813,34.319,20.053l0.17,0.078c0.415,0.156,1.063,0.184,2.094-0.033   c0.475-0.102,1.403-0.447,2.059-0.691c0.2-0.074,0.309-0.234,0.309-0.459v-0.426c0-0.209-0.104-0.525-0.322-0.656   c-0.791-0.477-2.259-1.148-4.13-2.23c-0.287-0.166-0.354-0.178-0.381-0.385c-0.126-0.955-0.204-1.793-0.276-2.988   c-0.01-0.16-0.026-0.256,0.132-0.162l0.138,0.078c0.11,0.064,0.269,0.047,0.429-0.045l0.554-0.318   c0.166-0.098,0.248-0.246,0.237-0.469c-0.704-14.588,3.185-25.252,11.086-30.059c0.11-0.066,0.333-0.193,0.445-0.256   c6.436-3.516,15.285-3.305,25.829,0.984c12.517,5.096,25.257,15.641,35.568,28.719c0.2,0.254,0.307,0.18,0.536,0.047l0.179-0.104   c0.21-0.121,0.338-0.168,0.586-0.025l27.937,16.127c0.177,0.102,0.335,0.115,0.525,0.006l0.375-0.217   c0.189-0.109,0.255-0.225,0.255-0.432v-25.117c0-0.451-0.053-0.637-0.253-1.014c-2.314-4.359-4.922-8.615-7.812-12.645   c-0.195-0.273-0.08-0.422,0.053-0.596c0.335-0.438,1.131-1.213,1.569-1.688c0.194-0.209,0.242-0.32,0.006-0.531   c-0.21-0.186-0.374-0.402-0.535-0.605c-1.999-2.527-2.029-4.795-1.058-7.016c1.299-2.967,9.583-14.432,11.032-15.949   c0.242-0.254,0.53-0.504,0.855-0.748l0.188-0.107c2.183-1.268,5.341-2.217,8.206-2.254c0.224-0.004,0.222,0,0.482-0.113   l0.625-0.361c0.097-0.055,0.268-0.188,0.352-0.273c0.945-0.979,3.307-3.422,4.289-6.258   C206.511,314.453,207.649,311.928,207.463,307.244z M171.594,332.563c-0.615,0.518-1.27,0.998-1.957,1.426l-0.089,0.055   c-1.318,0.658-2.851,1.15-4.325,1.289c-1.444,0.137-2.983,0.088-4.383-0.322c-6.54-1.924-9.591-9.762-6.769-17.529   c0.428-1.176,1.033-2.291,1.749-3.314c0.367-0.523,1.326-1.703,2.876-2.768l0.068-0.037c0.15-0.084,0.305-0.166,0.464-0.246   c0.955-0.482,3.344-1.297,5.47-1.631c1.567-0.248,3.188-0.18,4.721,0.266c0.864,0.252,1.768,0.596,2.557,1.033   c1.446,0.799,2.743,1.945,3.628,3.344c0.938,1.482,1.639,3.238,1.925,4.973c0.161,0.977,0.249,1.994,0.091,2.977   c-0.165,1.01-0.537,1.982-0.88,2.943C175.739,327.828,173.873,330.645,171.594,332.563z M178.958,369.375   c0.478,0.277,0.862,0.885,0.862,1.359v13.232c0,0.279-0.114,0.447-0.379,0.295l-5.001-2.887c-0.478-0.275-0.863-0.883-0.863-1.359   v-13.441c0-0.205,0.071-0.266,0.364-0.098L178.958,369.375z" stroke="#000000" outline-element="true" stroke-width="0.5" g2gstroke="#312783"/>
<path orgstroke="#000000" orgfill="none" stroke-linecap="round" fill="none" stroke-linejoin="round" d="   M200.036,324.379c0.899-0.924,3.351-3.422,4.356-6.328c1.043-3.014,2.181-5.539,1.995-10.223c-0.186-4.682-8.207-47.1-9.227-55.721   c-1.02-8.623-1.875-19.863,0.372-24.428c1.401-2.846,3.033-4.561,3.461-4.982" stroke="#000000" stroke-width="0.25" g2gstroke="#312783" stroke-miterlimit="10"/>
<path orgstroke="#000000" orgfill="none" stroke-linecap="round" fill="none" stroke-linejoin="round" d="   M176.971,324.371c3.963,1.818,6.855,3.115,8.415,3.76c1.118,0.463,2.186,0.891,3.203,1.291" stroke="#000000" stroke-width="0.25" g2gstroke="#312783" stroke-miterlimit="10"/>
<path orgstroke="#000000" orgfill="none" stroke-linecap="round" fill="none" stroke-linejoin="round" d="   M118.365,296.75c13.444,6.397,26.144,12.42,36.863,17.469" stroke="#000000" stroke-width="0.25" g2gstroke="#312783" stroke-miterlimit="10"/>
<path orgstroke="#000000" orgfill="none" stroke-linecap="round" fill="none" stroke-linejoin="round" d="   M75.767,364.377c-0.456-1.475-1.302-3.299-2.399-5.129" stroke="#000000" stroke-width="0.25" g2gstroke="#312783" stroke-miterlimit="10"/>
<path orgstroke="#000000" orgfill="none" stroke-linecap="round" fill="none" stroke-linejoin="round" d="   M173.982,359.26c-12.17-14.719-25.175-25.992-41.556-32.176c-10.202-3.852-22.139-5.381-34.046-1.107" stroke="#000000" stroke-width="0.25" g2gstroke="#312783" stroke-miterlimit="10"/>
<path orgstroke="#000000" orgfill="none" stroke-linecap="round" fill="none" stroke-linejoin="round" d="   M70.15,362.658l3.823,2.236c1.947,1.125,3.3,0.758,3.894-1.619c1.495-5.992,3.747-11.133,7.231-15.15   c5.189-5.982,12.451-9.145,21.001-9.145c5.468,0,11.429,1.297,17.715,3.855c13.676,5.563,27.001,16.643,37.737,30.262" stroke="#000000" stroke-width="0.25" g2gstroke="#312783" stroke-miterlimit="10"/>
<path orgstroke="#000000" orgfill="none" stroke-linecap="round" fill="none" stroke-linejoin="round" d="   M169.637,333.988c-1.647,1.025-3.485,1.744-5.424,1.926c-1.444,0.137-2.983,0.09-4.383-0.322c-6.54-1.922-9.591-9.762-6.769-17.529   c0.428-1.176,1.033-2.289,1.749-3.313c0.444-0.635,1.786-2.184,3.954-3.389" stroke="#000000" stroke-width="0.25" g2gstroke="#312783" stroke-miterlimit="10"/>
<path orgstroke="#000000" orgfill="none" stroke-linecap="round" fill="none" stroke-linejoin="round" d="   M46.456,358.434c0,0,10.054,5.703,11.374,6.465c1.32,0.764,7.043,4.232,10.186,0.541c1.837-2.156,3.059-4.436,6.166-7.531   c2.702-2.691,5.615-6.1,8.605-9.918" stroke="#000000" stroke-width="0.25" g2gstroke="#312783" stroke-miterlimit="10"/>
<path orgstroke="#000000" orgfill="none" stroke-linecap="round" fill="none" stroke-linejoin="round" d="   M47.215,357.799c0,0,11.938,6.781,12.695,7.219s3.996,2.422,7.169,1.268" stroke="#000000" stroke-width="0.25" g2gstroke="#312783" stroke-miterlimit="10"/>
<path orgstroke="#000000" orgfill="none" stroke-linecap="round" fill="none" stroke-linejoin="round" d="   M47.39,356.979c0,0,11.316,6.426,12.465,7.09c1.148,0.662,5.603,3.35,8.745-0.342c0.938-1.1,2.104-2.607,3.082-3.811" stroke="#000000" stroke-width="0.25" g2gstroke="#312783" stroke-miterlimit="10"/>
<path orgstroke="#000000" orgfill="none" stroke-linecap="round" fill="none" stroke-linejoin="round" d="   M52.48,353.848c0,0,9.189,5.199,12.465,7.09c1.065,0.615,1.937,1.186,4.673,1.557" stroke="#000000" stroke-width="0.25" g2gstroke="#312783" stroke-miterlimit="10"/>
<path orgstroke="#000000" orgfill="none" stroke-linecap="round" fill="none" stroke-linejoin="round" d="   M52.6,352.463c0,0,9.101,5.268,12.465,7.09c1.265,0.684,2.67,1.828,5.542,1.549" stroke="#000000" stroke-width="0.25" g2gstroke="#312783" stroke-miterlimit="10"/>
<path orgstroke="#000000" orgfill="none" stroke-linecap="round" fill="none" stroke-linejoin="round" d="   M150.09,216.908c-1.858-3.113-5.466-6.916-12.405-11.344c-12.116-7.732-41.421-28.395-74.021-45.439   c-0.417-0.219-0.789-0.449-1.12-0.695" stroke="#000000" stroke-width="0.25" g2gstroke="#312783" stroke-miterlimit="10"/>
<path orgstroke="#000000" orgfill="none" stroke-linecap="round" fill="none" stroke-linejoin="round" d="M82.62999725341797 378.6109924316406L62.27899932861328 366.8630065917969" stroke="#000000" stroke-width="0.25" g2gstroke="#312783" stroke-miterlimit="10"/>
<path orgstroke="#000000" orgfill="none" stroke-linecap="round" fill="none" stroke-linejoin="round" d="   M82.895,381.557c0.087,0.621,0.275,1.912,0.417,2.785c0.115,0.709,0.284,1.465,2.936,0.904c0.357-0.074,0.877-0.25,1.383-0.439" stroke="#000000" stroke-width="0.25" g2gstroke="#312783" stroke-miterlimit="10"/>
<path orgstroke="#000000" orgfill="none" stroke-linecap="round" fill="none" stroke-linejoin="round" d="   M83.305,386.736c-0.653-0.248-0.729-0.813-0.799-1.246c-0.397-2.449-0.662-5.182-0.781-7.34" stroke="#000000" stroke-width="0.25" g2gstroke="#312783" stroke-miterlimit="10"/>
<path orgstroke="#000000" orgfill="none" stroke-linecap="round" fill="none" d="M186.58099365234375 367.593994140625L187.3070068359375 367.17401123046875" stroke="#000000" stroke-width="0.25" g2gstroke="#312783" stroke-miterlimit="10"/>
<path orgstroke="#000000" orgfill="none" stroke-linecap="round" fill="none" stroke-linejoin="round" d="   M95.677,347.637c-8.775,4.586-13.383,15.535-12.524,31.107" stroke="#000000" stroke-width="0.25" g2gstroke="#312783" stroke-miterlimit="10"/>
<path orgstroke="#000000" orgfill="none" stroke-linecap="round" fill="none" d="M191.514,326.727   c-0.755,0.438-1.394,0.914-1.862,1.404c-1.449,1.518-9.733,12.982-11.032,15.949c-1.056,2.412-1.791,5.365,0.904,8.078" stroke="#000000" stroke-width="0.25" g2gstroke="#312783" stroke-miterlimit="10"/>
<path orgstroke="#000000" orgfill="none" stroke-linecap="round" fill="none" stroke-linejoin="round" d="   M186.581,393.402v-25.268c0-0.451-0.053-0.637-0.253-1.014c-2.306-4.342-4.921-8.566-7.777-12.6" stroke="#000000" stroke-width="0.25" g2gstroke="#312783" stroke-miterlimit="10"/>
<path orgstroke="#000000" orgfill="none" stroke-linecap="round" fill="none" stroke-linejoin="round" d="   M158,377.162l0.106-0.061c0.222-0.129,0.283-0.164,0.436-0.326c0.818-0.865,2.899-3.064,3.397-3.607   c0.625-0.68,2.018-2.086,3.547-3.615c1.247-1.248,8.357-9.197,12.817-14.73c0.13-0.16,0.277-0.404,0.526-0.58   c0.214-0.15,0.633-0.463,0.573-0.387" stroke="#000000" stroke-width="0.25" g2gstroke="#312783" stroke-miterlimit="10"/>
<path orgstroke="#000000" orgfill="none" stroke-linecap="round" fill="none" stroke-linejoin="round" d="   M179.82,383.762v0.879c0,0.475-0.385,0.641-0.862,0.363l-5.31-3.064c-0.478-0.277-0.863-0.885-0.863-1.361v-13.904   c0-0.475,0.386-0.641,0.863-0.365l0.729,0.42" stroke="#000000" stroke-width="0.25" g2gstroke="#312783" stroke-miterlimit="10"/>
<path orgstroke="#000000" orgfill="none" fill="none" d="M170.319,367.459   c0.066,0.471,0.43,0.977,0.811,1.129c0.381,0.154,0.638-0.102,0.571-0.572c-0.066-0.469-0.429-0.975-0.811-1.129   C170.509,366.73,170.252,366.988,170.319,367.459z" stroke="#000000" stroke-width="0.25" g2gstroke="#312783" stroke-miterlimit="10"/>
<path orgstroke="#000000" orgfill="none" fill="none" d="M170.319,373.082   c0.066,0.471,0.43,0.977,0.811,1.131s0.638-0.102,0.571-0.572s-0.429-0.977-0.811-1.131   C170.509,372.355,170.252,372.613,170.319,373.082z" stroke="#000000" stroke-width="0.25" g2gstroke="#312783" stroke-miterlimit="10"/>
<path orgstroke="#000000" orgfill="none" fill="none" d="M170.319,378.707   c0.066,0.471,0.43,0.977,0.811,1.129c0.381,0.154,0.638-0.102,0.571-0.572c-0.066-0.469-0.429-0.975-0.811-1.129   C170.509,377.979,170.252,378.236,170.319,378.707z" stroke="#000000" stroke-width="0.25" g2gstroke="#312783" stroke-miterlimit="10"/>
<path orgstroke="#000000" orgfill="none" fill="none" d="M181.491,373.848   c0.066,0.471,0.43,0.977,0.811,1.129c0.381,0.154,0.638-0.102,0.571-0.572c-0.066-0.469-0.429-0.975-0.811-1.129   C181.681,373.119,181.424,373.377,181.491,373.848z" stroke="#000000" stroke-width="0.25" g2gstroke="#312783" stroke-miterlimit="10"/>
<path orgstroke="#000000" orgfill="none" fill="none" d="M181.491,379.471   c0.066,0.471,0.43,0.977,0.811,1.131s0.638-0.102,0.571-0.572s-0.429-0.977-0.811-1.131   C181.681,378.744,181.424,379.002,181.491,379.471z" stroke="#000000" stroke-width="0.25" g2gstroke="#312783" stroke-miterlimit="10"/>
<path orgstroke="#000000" orgfill="none" fill="none" d="M181.491,385.096   c0.066,0.471,0.43,0.977,0.811,1.129c0.381,0.154,0.638-0.102,0.571-0.572c-0.066-0.469-0.429-0.975-0.811-1.129   C181.681,384.367,181.424,384.625,181.491,385.096z" stroke="#000000" stroke-width="0.25" g2gstroke="#312783" stroke-miterlimit="10"/>
<path orgstroke="#000000" orgfill="none" stroke-linecap="round" fill="none" stroke-linejoin="round" d="M173.03399658203125 381.32598876953125L173.80999755859375 380.8710021972656" stroke="#000000" stroke-width="0.25" g2gstroke="#312783" stroke-miterlimit="10"/>
<path orgstroke="#000000" orgfill="none" stroke-linecap="round" fill="none" stroke-linejoin="round" d="   M177.695,347.508c0.027,0.766,0.295,2.301,2.627,4.225" stroke="#000000" stroke-width="0.25" g2gstroke="#312783" stroke-miterlimit="10"/>
<path orgstroke="#000000" orgfill="none" stroke-linecap="round" fill="none" stroke-linejoin="round" d="   M177.695,347.508c0.027,0.766,0.295,2.301,2.627,4.225" stroke="#000000" stroke-width="0.25" g2gstroke="#312783" stroke-miterlimit="10"/>
<path orgstroke="#000000" orgfill="none" stroke-linecap="round" fill="none" stroke-linejoin="round" d="   M157.265,377.617c0,0,3.109-3.281,3.732-3.961c0.625-0.68,2.018-2.086,3.547-3.615c1.3-1.301,8.632-9.441,12.98-14.93   c0.77-0.971,1.768-2.33,1.979-2.611c0.163-0.217,0.388-0.377,0.613-0.549c0,0,0.221-0.168,0.441-0.295l0.577-0.334" stroke="#000000" stroke-width="0.25" g2gstroke="#312783" stroke-miterlimit="10"/>
<g>
<g>
<path fill="#F39200" d="M82.815,378.652c-0.16-0.1-0.15,0-0.141,0.16     c0.08,1.189,0.15,2.029,0.28,2.99c0.03,0.199,0.09,0.221,0.38,0.381c1.87,1.078,3.34,1.76,4.13,2.229     c0.221,0.131,0.32,0.451,0.32,0.66v0.42c0,0.23-0.11,0.391-0.31,0.461c-0.65,0.25-1.58,0.59-2.051,0.689     c-1.029,0.221-1.68,0.189-2.1,0.041l-0.17-0.08c-3.04-1.811-12.96-7.711-25.271-14.83c-0.01,0-0.02-0.012-0.029-0.021     c-0.061-0.039-0.12-0.08-0.19-0.119c-0.31-0.18-0.5-0.41-0.5-0.939c0-0.531,0-5.281,0-5.75c0-0.471,0.14-0.641,0.39-0.83     c0.25-0.191,0.36-0.371,0.36-0.67c0-0.301,0.09-0.67,0.351-0.9c0.26-0.221,4.06-2.41,4.319-2.57c0.26-0.15,0.47-0.369,0.47-0.699     s0-0.48,0-0.691c0-0.209,0.021-0.299,0.271-0.469s0.51-0.32,0.69-0.42c0.06-0.031,0.109-0.07,0.159-0.111     c0.841,0.48,1.591,0.91,2.23,1.271c1.04,0.59,2.05,1.148,4.55,1.51c0.33,0.049,0.29,0.049,0.51-0.221     c0.92-1.109,2.21-2.289,3.67-3.75c2.24-2.23,5.051-5.199,7.5-8.24l0.17-0.219c7.33-9.361,15.131-21.191,21.41-30.922     c-0.26,0.602,0.04,0.99,0.48,1.57c0.56,0.75,1.92,3.07,2.53,4.441c0.22,0.51,1.04,2.148,1.229,3.59     c0.18,1.439,0.87,10.279,1,11.379c0.12,1.1,0.12,2.121,0.12,2.93c0,0.82,0,2.99,0,3.691c0,0.6-0.56,0.629-1.09,0.609     c-4.92-0.391-9.22,0.41-12.79,2.359c-0.11,0.061-0.33,0.191-0.44,0.25c-7.899,4.811-11.79,15.471-11.09,30.061     c0.01,0.23-0.07,0.369-0.229,0.471l-0.561,0.32c-0.16,0.09-0.32,0.109-0.43,0.039L82.815,378.652z" enable-background="new    " opacity="0.5" orgfill="#F39200"/>
<path orgstroke="#000000" orgfill="none" stroke-linecap="round" fill="none" d="M101.08,311.803     c0,0,1.813,1.641,3.375,3.043c0.593,0.531,0.432,1.242,0.129,1.605c-0.799,0.955-0.445,1.385,0.117,2.135s1.921,3.07,2.525,4.438     c0.227,0.512,1.041,2.154,1.229,3.592s0.879,10.273,1,11.375s0.121,2.125,0.121,2.938s0,2.986,0,3.688s-0.75,0.631-1.34,0.594     s-0.656,0.563-0.656,0.938s0,3.656,0,3.656" stroke="#000000" g2gstroke="#312783" stroke-miterlimit="10"/>
<g>
<g>
<ellipse orgstroke="#000000" orgfill="#FAFAFA" fill="#FAFAFA" rx="5.252" cx="74.594" cy="367.326" ry="7.75" stroke="#000000" outline-element="true" stroke-width="0.5" g2gstroke="#312783"/>
</g>
<g>
<path d="M72.314,368.426l0.854-0.117c0.023,0.547,0.125,0.922,0.308,1.123c0.183,0.203,0.435,0.303,0.757,0.303       c0.238,0,0.443-0.055,0.615-0.162c0.172-0.109,0.291-0.258,0.356-0.445s0.098-0.486,0.098-0.896V363.3h0.947v4.879       c0,0.6-0.072,1.063-0.218,1.391c-0.145,0.33-0.374,0.58-0.688,0.752c-0.314,0.174-0.684,0.26-1.106,0.26       c-0.628,0-1.109-0.182-1.442-0.543C72.461,369.676,72.301,369.139,72.314,368.426z"/>
</g>
</g>
<path orgstroke="#000000" orgfill="none" stroke-linecap="round" fill="none" d="M58.236,376.021c0,0,0-2.629,0-3.34     s-0.248-0.863-0.563-1.045s-0.499-0.412-0.499-0.943s0-5.277,0-5.75s0.141-0.641,0.391-0.828s0.359-0.375,0.359-0.672     s0.084-0.672,0.347-0.898s4.058-2.416,4.319-2.568s0.475-0.377,0.475-0.705s0-0.479,0-0.688s0.016-0.297,0.266-0.469     s0.512-0.322,0.688-0.426c0.177-0.102,0.343-0.201,0.343-0.527s0-3.371,0-3.371" stroke="#000000" g2gstroke="#312783" stroke-miterlimit="10"/>
</g>
<g>
<path fill="#F39200" d="M157.094,377.283c-10.31-13.08-23.05-23.621-35.569-28.721     c-4.7-1.92-9.07-3.02-13.04-3.34c0.53,0.02,1.09-0.01,1.09-0.609c0-0.701,0-2.871,0-3.691c0-0.809,0-1.83-0.12-2.93     c-0.13-1.1-0.82-9.939-1-11.379c-0.189-1.441-1.01-3.08-1.229-3.59c-0.61-1.371-1.971-3.691-2.53-4.441     c-0.44-0.58-0.74-0.969-0.48-1.57c0.12-0.189,0.24-0.379,0.36-0.559l0.01-0.01c0.05-0.061,0.101-0.141,0.141-0.221     c5.449-8.471,9.689-15.23,11.35-17.17c1.74-2.051,3.09-3.1,7.38-6.36c6.5-4.951,17.05-17.73,17.05-17.73     c5.021-6.26,11.15-12.1,11.53-19.701v-1.158c0-7.111,0-19.111,0-25.98c0.1,0.279,0.31,0.561,0.69,0.799     c1.159,0.75,41.92,24.441,44.04,25.512c1.06,0.529,1.27,0.34,1.609,0c0.08-0.08,0.17-0.16,0.26-0.211     c1.9,12.551,8.681,48.661,8.851,52.971c0.189,4.68-0.95,7.199-1.99,10.219c-0.99,2.83-3.35,5.281-4.29,6.25     c-0.09,0.09-0.26,0.221-0.36,0.281l-0.619,0.359c-0.261,0.109-0.261,0.109-0.48,0.109c-2.87,0.041-6.03,0.99-8.21,2.26     l-0.19,0.102c-0.319,0.25-0.609,0.5-0.85,0.75c-1.45,1.52-9.74,12.979-11.04,15.949c-0.97,2.221-1.063,4.428,0.937,6.957     c0.16,0.201,0.33,0.42,0.54,0.609c0.229,0.211,0.205,0.51-0.236,0.982c-0.411,0.441-0.88,0.852-1.22,1.291     c-0.131,0.18-0.25,0.32-0.051,0.6c2.891,4.031,5.5,8.281,7.811,12.641c0.2,0.381,0.25,0.561,0.25,1.02v25.111     c0,0.209-0.061,0.328-0.25,0.439l-0.38,0.209c-0.19,0.111-0.34,0.102-0.521-0.01l-27.939-16.119c-0.25-0.141-0.37-0.1-0.58,0.02     l-0.181,0.109C157.405,377.463,157.294,377.533,157.094,377.283z M179.844,383.912v-13.229c0-0.48-0.39-1.092-0.869-1.361     l-5.011-2.9c-0.3-0.17-0.37-0.109-0.37,0.09v13.451c0,0.471,0.391,1.08,0.87,1.359l5,2.881     C179.725,384.363,179.844,384.193,179.844,383.912z M177.645,322.023c0.149-0.99,0.069-2-0.091-2.98     c-0.289-1.73-0.989-3.49-1.93-4.971c-0.88-1.4-2.18-2.549-3.63-3.35c-0.79-0.43-1.69-0.779-2.55-1.029     c-1.54-0.441-3.16-0.51-4.72-0.271c-2.131,0.34-4.521,1.15-5.471,1.641c-0.16,0.08-0.319,0.16-0.47,0.24l-0.07,0.039     c-1.55,1.061-2.51,2.24-2.87,2.771c-0.72,1.02-1.319,2.129-1.75,3.309c-2.819,7.771,0.23,15.611,6.771,17.531     c1.4,0.41,2.939,0.459,4.38,0.32c1.47-0.141,3.01-0.631,4.33-1.291l0.08-0.049c0.689-0.432,1.35-0.91,1.96-1.432     c2.28-1.91,4.15-4.729,5.15-7.539C177.105,324.002,177.475,323.033,177.645,322.023z" enable-background="new    " opacity="0.5" orgfill="#F39200"/>
<g>
<g>
<ellipse orgstroke="#000000" orgfill="#FAFAFA" fill="#FAFAFA" rx="5.252" cx="166.83" cy="271.902" ry="7.75" stroke="#000000" outline-element="true" stroke-width="0.5" g2gstroke="#312783"/>
</g>
<g>
<path d="M166.357,275.093v-7.158h0.947v7.158H166.357z"/>
</g>
</g>
<path orgstroke="#000000" orgfill="none" stroke-linecap="round" fill="none" d="M101.08,311.803     c0,0,1.813,1.641,3.375,3.043c0.593,0.531,0.432,1.242,0.129,1.605c-0.799,0.955-0.445,1.385,0.117,2.135s1.921,3.07,2.525,4.438     c0.227,0.512,1.041,2.154,1.229,3.592s0.879,10.273,1,11.375s0.121,2.125,0.121,2.938s0,2.986,0,3.688s-0.75,0.631-1.34,0.594     s-0.656,0.563-0.656,0.938s0,3.656,0,3.656" stroke="#000000" g2gstroke="#312783" stroke-miterlimit="10"/>
<path orgstroke="#000000" orgfill="none" stroke-linecap="round" fill="none" d="M147.6,223.302c0,0,3.502,2.02,3.756,2.168     c0.254,0.146,0.68,0.582,0.68,1.123s-0.478,1.584,0.689,2.334s41.924,24.436,44.041,25.504c1.062,0.535,1.271,0.336,1.61,0     c0.34-0.338,0.737-0.555,1.758-0.088c1.09,0.5,3.986,1.984,3.986,1.984" stroke="#000000" g2gstroke="#312783" stroke-miterlimit="10"/>
</g>
<path orgstroke="#000000" orgfill="none" stroke-linecap="round" fill="none" d="M74.59400177001953 359.57598876953125L74.59400177001953 305.3240051269531" stroke="#000000" stroke-width="0.75" g2gstroke="#312783" stroke-miterlimit="10"/>
<path orgstroke="#000000" orgfill="none" stroke-linecap="round" fill="none" d="M74.59400177001953 289.8240051269531L74.59400177001953 271.9020080566406L161.5780029296875 271.9020080566406" stroke="#000000" stroke-width="0.75" g2gstroke="#312783" stroke-miterlimit="10"/>
<g>
<g>
<ellipse orgstroke="#000000" orgfill="#FAFAFA" fill="#FAFAFA" rx="5.252" cx="74.594" cy="297.574" ry="7.75" stroke="#000000" outline-element="true" stroke-width="0.5" g2gstroke="#312783"/>
</g>
<g>
<path d="M72.01,300.766v-7.159h0.947v3.549l3.555-3.549h1.284l-3.003,2.9l3.135,4.258h-1.25l-2.549-3.624l-1.172,1.143v2.481      H72.01V300.766z"/>
</g>
</g>
</g>
</g>
</g>
</g>
</g></svg>