<svg xmlns="http://www.w3.org/2000/svg" xmlns:xlink="http://www.w3.org/1999/xlink" xmlns:etg="http://www.eurotaxglass.com/etg/evd/" etg:dataTimestamp="1539068912893" contentScriptType="text/ecmascript" zoomAndPan="magnify" contentStyleType="text/css" id="Layer_1" enable-background="new 0 0 1841.891 1595.279" version="1.1" width="1841.891px" xml:space="preserve" preserveAspectRatio="xMidYMid meet" viewBox="0 0 1841.891 1595.279" height="1595.279px" x="0px" y="0px"><g xmlns="http://www.w3.org/2000/svg" objecttype="PS" tooltip="#UNDEFINED" id="11">
<g onmouseover="notifyOwner(AGV_OBJECT_MOUSEOVER, '11(PS)')" onclick="clickZoom(evt); notifyOwner(AGV_OBJECT_MOUSECLICK, '11(PS)')" onmouseout="notifyOwner(AGV_OBJECT_MOUSEOUT, '11(PS)')" tooltip="#UNDEFINED" id="11-Graphic" objecttype="GRAPHIC">
<g>
	<polygon orgstroke="#000000" orgfill="#ffffff" points="431.901,252.741 428.108,255.834    426.26,257.887 425.438,260.147 425.028,262.407 425.233,264.462 425.848,266.31 427.073,267.543 428.313,268.775 428.725,270.009    428.93,272.268 428.93,277.814 429.948,283.566 430.985,288.702 431.805,293.016 432.217,298.768 432.422,314.995 432.627,325.061    433.031,329.177 433.448,331.429 434.477,333.278 435.906,334.51 437.559,336.565 438.584,338.01 440.229,342.112 441.127,343.01    442.977,343.552 444.473,343.01 445.569,342.052 446.186,340.885 446.186,339.579 445.776,338.414 445.364,337.181    443.926,334.927 441.865,332.662 440.434,330.608 439.198,329.581 438.584,299.385 438.379,296.714 437.969,292.4 437.352,288.702    436.973,285.417 436.778,284.916 436.323,284.388 437.321,284.629 438.174,284.524 438.86,284.182 439.924,283.601 440.608,282.78    441.088,281.82 441.186,280.86 441.115,279.802 440.709,278.911 439.133,275.349 438.106,273.706 436.051,270.214 435.641,269.734    435.092,268.844 434.948,267.954 435.092,267.201 435.504,266.515 436.656,265.009 437.073,264.462 437.422,264.462    437.823,264.392 438.106,264.12 441.942,260.9 442.073,260.422 442.073,260.079 442.418,259.531 444.817,257.613 446.803,255.764    449.336,253.437 451.528,251.109 453.239,249.054 453.717,248.233 454.608,247.753 456.252,247.274 459.881,246.042    462.209,245.288 464.948,244.398 467.209,243.439 468.989,242.07 470.906,240.152 471.448,239.88 472.139,239.536 474.115,237.276    474.194,236.66 473.713,235.427 472.891,234.469 471.522,233.305 470.358,232.62 469.399,232.415 468.508,232.415 467.756,232.552    467.276,232.894 465.49,234.675 465.155,235.291 465.221,235.976 465.084,236.455 464.531,237.004 463.305,237.62 460.906,238.372    458.922,238.92 456.656,239.88 454.473,240.768 453.031,241.317 451.528,242.139 450.02,243.508 447.487,246.178 444.817,249.671    444.336,250.219 444.063,250.082 443.926,249.807 444.131,249.26 444.473,248.302 444.885,246.59 445.022,245.562 445.364,243.849    445.776,243.233 446.656,242.481 447.899,241.933 448.781,241.385 449.336,241.317 449.883,241.043 451.801,239.605    452.073,238.441 451.733,236.798 451.323,235.838 450.225,234.744 449.268,234.058 448.781,233.784 448.031,233.51 447.418,233.51    447.008,233.51 446.528,233.717 444.678,234.811 444.678,234.811 444.406,235.221 444.268,235.633 444.268,235.633    443.553,236.209 441.865,237.551 440.434,239.194 438.99,242.275 438.781,244.33 438.781,246.178 438.418,247.054 437.596,247.299    432.053,251.823  " fill="#ffffff" g2gfill="#ECC35D" outline-element="true" stroke="#000000" stroke-width="0.5" g2gstroke="#312783" stroke-miterlimit="10"/>
	<polyline orgstroke="#000000" orgfill="none" points="   444.885,235.291 446.186,235.702 447.073,236.387 447.76,237.345 448.309,238.303 448.856,239.469 448.99,240.152 448.99,241.112     " fill="none" stroke-linejoin="round" stroke="#000000" stroke-width="0.25" g2gstroke="#312783" stroke-miterlimit="10"/>
	<polyline orgstroke="#000000" orgfill="none" points="   443.926,236.209 445.227,236.62 446.115,237.303 446.803,238.263 447.35,239.221 447.899,240.385 448.031,241.07 448.031,242.028     " fill="none" stroke-linejoin="round" stroke="#000000" stroke-width="0.25" g2gstroke="#312783" stroke-miterlimit="10"/>
	<polyline orgstroke="#000000" orgfill="none" points="   465.323,234.974 467.612,235.018 468.651,235.437 469.573,236.176 470.356,236.95 471.198,237.923 471.516,238.548    471.776,239.469  " fill="none" stroke-linejoin="round" stroke="#000000" stroke-width="0.25" g2gstroke="#312783" stroke-miterlimit="10"/>
	<polyline orgstroke="#000000" orgfill="none" points="   465.073,236.209 466.448,236.252 467.489,236.671 468.406,237.409 469.192,238.184 470.031,239.157 470.354,239.781    470.612,240.701  " fill="none" stroke-linejoin="round" stroke="#000000" stroke-width="0.25" g2gstroke="#312783" stroke-miterlimit="10"/>
	
		<line orgstroke="#000000" orgfill="none" fill="none" x1="437.531" x2="437.694" y1="259.952" y2="263.776" stroke-linejoin="round" stroke="#000000" stroke-width="0.25" g2gstroke="#312783" stroke-miterlimit="10"/>
	<polyline orgstroke="#000000" orgfill="none" points="   432.969,251.725 433.93,251.589 434.887,251.794 435.365,252.135 436.051,252.821 436.737,253.574 437.073,254.532    437.352,255.492 437.44,257.473  " fill="none" stroke-linejoin="round" stroke="#000000" stroke-width="0.25" g2gstroke="#312783" stroke-miterlimit="10"/>
	<polyline orgstroke="#000000" orgfill="none" points="   432.053,252.993 433.01,252.855 433.969,253.06 434.448,253.404 435.135,254.088 435.819,254.842 436.156,255.799 436.434,256.758    436.778,265.043  " fill="none" stroke-linejoin="round" stroke="#000000" stroke-width="0.25" g2gstroke="#312783" stroke-miterlimit="10"/>
	<polyline orgstroke="#000000" orgfill="none" points="   437.596,247.822 438.553,247.685 439.512,247.891 439.99,248.233 440.678,248.918 441.362,249.671 441.698,250.629    441.977,251.589 442.321,259.873  " fill="none" stroke-linejoin="round" stroke="#000000" stroke-width="0.25" g2gstroke="#312783" stroke-miterlimit="10"/>
	<polyline orgstroke="#000000" orgfill="none" points="436.115,257.203 433.99,258.846    433.174,259.531 432.49,260.284 432.073,260.9 431.942,261.927 431.942,262.613 432.149,263.571 432.559,264.392 434.948,267.954     " fill="none" stroke="#000000" stroke-width="0.25" g2gstroke="#312783" stroke-miterlimit="10"/>
	
		<line orgstroke="#000000" orgfill="none" fill="none" x1="443.858" x2="442.213" y1="250.287" y2="252.205" stroke="#000000" stroke-width="0.25" g2gstroke="#312783" stroke-miterlimit="10"/>
	<polyline orgstroke="#000000" orgfill="none" points="436.323,284.388 435.156,283.841    434.34,283.087 433.781,282.403 433.518,281.648 433.24,278.636 433.031,276.993 432.698,275.829 432.073,274.664 430.906,272.885    429.752,271.309 428.656,269.815  " fill="none" stroke="#000000" stroke-width="0.25" g2gstroke="#312783" stroke-miterlimit="10"/>
	<polyline orgstroke="#000000" orgfill="none" points="433.723,281.306 433.93,280.279    434.545,279.253 435.434,278.636 436.737,278.295 437.694,278.295 438.448,278.43 439.133,278.772 439.74,279.183 440.502,280.143     " fill="none" stroke="#000000" stroke-width="0.25" g2gstroke="#312783" stroke-miterlimit="10"/>
	<polyline orgstroke="#000000" orgfill="none" points="433.383,278.842 433.588,277.814    434.198,276.787 435.096,276.171 436.397,275.829 437.356,275.829 438.108,275.966 438.793,276.307 439.406,276.719    440.156,277.677  " fill="none" stroke="#000000" stroke-width="0.25" g2gstroke="#312783" stroke-miterlimit="10"/>
	<polyline orgstroke="#000000" orgfill="none" points="441.442,338.677 440.897,339.236    440.434,340.479 440.434,341.471  " fill="none" stroke="#000000" stroke-width="0.25" g2gstroke="#312783" stroke-miterlimit="10"/>
	<polyline orgstroke="#000000" orgfill="none" points="445.524,338.802 444.781,338.237    443.446,338.01 442.594,338.079 442.448,338.137  " fill="none" stroke="#000000" stroke-width="0.25" g2gstroke="#312783" stroke-miterlimit="10"/>
	<polyline orgstroke="#000000" orgfill="none" points="444.99,337.104 443.721,336.488    442.459,336.328 441.49,336.677 440.74,337.014 439.924,337.844 439.651,338.594 439.446,339.614  " fill="none" stroke="#000000" stroke-width="0.25" g2gstroke="#312783" stroke-miterlimit="10"/>
	<path orgstroke="#000000" orgfill="none" fill="none" stroke-linejoin="round" d="M438.781,282.953   c-0.396,0.294-0.915,0.468-1.473,0.468c-1.293,0-2.344-0.938-2.344-2.104c0-1.168,1.051-2.112,2.344-2.112   c1.297,0,2.346,0.944,2.346,2.112" stroke="#000000" stroke-width="0.25" g2gstroke="#312783" stroke-miterlimit="10"/>
	<path orgstroke="#000000" orgfill="none" fill="none" stroke-linejoin="round" d="M444.26,341.648   c-0.283,0.205-0.646,0.33-1.041,0.33c-0.918,0-1.664-0.671-1.664-1.499s0.746-1.491,1.664-1.491s1.66,0.663,1.66,1.491" stroke="#000000" stroke-width="0.25" g2gstroke="#312783" stroke-miterlimit="10"/>
	
		<line orgstroke="#000000" orgfill="none" fill="none" x1="439.198" x2="438.174" y1="329.581" y2="328.865" stroke-linejoin="round" stroke="#000000" stroke-width="0.25" g2gstroke="#312783" stroke-miterlimit="10"/>
	
		<line orgstroke="#000000" orgfill="none" fill="none" x1="453.897" x2="452.508" y1="248.139" y2="248.438" stroke-linejoin="round" stroke="#000000" stroke-width="0.25" g2gstroke="#312783" stroke-miterlimit="10"/>
</g>
</g>
</g></svg>