<svg xmlns="http://www.w3.org/2000/svg" xmlns:xlink="http://www.w3.org/1999/xlink" xmlns:etg="http://www.eurotaxglass.com/etg/evd/" etg:dataTimestamp="1539068912893" contentScriptType="text/ecmascript" zoomAndPan="magnify" contentStyleType="text/css" id="Capa_1" enable-background="new 0 0 1841.891 1595.279" version="1.1" xml:space="preserve" width="1841.891px" preserveAspectRatio="xMidYMid meet" viewBox="0 0 1841.891 1595.279" height="1595.279px" x="0px" y="0px"><g xmlns="http://www.w3.org/2000/svg" objecttype="PS" tooltip="#UNDEFINED" id="114">
<g onmouseover="notifyOwner(AGV_OBJECT_MOUSEOVER, '114(PS)')" transform="translate(30.298809631347638, 36.772926666259764) translate(-637.0022509266453, -53.86035292387896) translate(-85.68454822790818, -41.032037179561655) translate(-13.275070852211229, 25.946729392958105) translate(539.5276378078531, -260.69612751219796) translate(-316.2438647816483, 57.78542379731107) translate(481.0, 219.0) translate(10.0, 10.00006103515625)" onclick="clickZoom(evt); notifyOwner(AGV_OBJECT_MOUSECLICK, '114(PS)')" onmouseout="notifyOwner(AGV_OBJECT_MOUSEOUT, '114(PS)')" tooltip="#UNDEFINED" id="114-Graphic" objecttype="GRAPHIC">
<g zvalue="26">
<g>
<path orgstroke="#000000" orgfill="#ffffff" fill="#ffffff" g2gfill="#ECF5E4" d="M563.48,256.859   c0.05-0.021,0.101-0.051,0.151-0.082l2.941-1.785c0.551-0.328,0.645-0.715,0.835-0.971c0.39-0.525,0.837-1.184,1.142-1.932   c1.096-2.711,5.522-5.465,8.919-5.822c3.021-0.316,5.913-3.059,7.051-4.693c0.217-0.307,0.192-0.609,0.192-0.867v-3.646   c0-0.234-0.004-0.49-0.399-0.789l-1.57-0.898c-0.406-0.232-0.716-0.043-0.819,0.148c-0.265,0.486-0.794,1.117-1.493,1.766   c-0.317,0.307-0.45,0.348-0.452-0.141v-1.561c0-0.182-0.012-0.475-0.235-0.6l-1.555-0.887c-0.143-0.082-0.33-0.1-0.466-0.006   l-6.731,3.852c-0.197,0.111-0.301,0.367-0.301,0.51v4.246c0,0.07-0.018,0.162-0.099,0.217c-2.489,1.693-4.788,4.074-5.168,4.75   c-0.674,1.195-0.453,2.043-1.248,2.756l-1.537,1.078c-0.516,0.359-2.472,0.262-3.479,0.979c-0.714,0.51-0.038,1.494-0.335,1.699   l-0.461,0.324c-0.848,0.514-1.42,1.582-1.403,2.438l0,0c0.005,0.215,0.022,0.418,0.142,0.531c0.406,0.393,2.071,1.182,2.071,1.182   l0.077,0.043c0.33,0.154,0.833,0.068,1.377-0.254l2.002-1.252C562.891,257.039,563.25,256.988,563.48,256.859z" stroke="#000000" outline-element="true" stroke-width="0.5" g2gstroke="#312783" stroke-miterlimit="10"/>
<path orgstroke="#000000" orgfill="none" fill="none" d="M571.60400390625 243.27499389648438L571.60400390625 238.6439971923828" stroke="#000000" stroke-width="0.25" g2gstroke="#312783" stroke-miterlimit="10"/>
<path orgstroke="#000000" orgfill="none" fill="none" d="M570.69,238.152l0.643,0.367   c0.101,0.061,0.274,0.109,0.514-0.041c1.229-0.775,2.479-1.381,3.559-1.498c0.311-0.029,1.223,0.213,1.547,0.129   c1.219-0.307,2.172-1.043,2.964-1.932" stroke="#000000" stroke-width="0.25" g2gstroke="#312783" stroke-miterlimit="10"/>
<path orgstroke="#000000" orgfill="none" fill="none" d="M579.979,237.634v1.939   c0,0.168-0.043,0.316-0.141,0.424c-0.783,0.848-1.706,1.555-2.882,1.85c-0.321,0.078-1.229-0.164-1.546-0.129   c-1.079,0.117-2.322,0.711-3.549,1.488c-0.167,0.109-0.404,0.076-0.52-0.002l-0.65-0.367" stroke="#000000" stroke-width="0.25" g2gstroke="#312783" stroke-miterlimit="10"/>
<path orgstroke="#000000" orgfill="none" fill="none" d="M562.865,256.859c0,0-0.558-0.305-0.716-0.443   c-0.094-0.076-0.121-0.227-0.127-0.4l0,0c-0.012-0.547,0.418-1.262,0.965-1.592l2.937-1.785c0.311-0.184,0.583-0.215,0.77-0.098   l0.552,0.309" stroke="#000000" stroke-width="0.25" g2gstroke="#312783" stroke-miterlimit="10"/>
<path orgstroke="#000000" orgfill="none" fill="none" d="M563.093,256.941   c-0.267-0.02-0.447-0.215-0.453-0.563l0,0c-0.013-0.545,0.418-1.26,0.963-1.594l2.939-1.783c0.549-0.328,0.992-0.15,1.007,0.402   l0,0c0.005,0.215-0.06,0.455-0.165,0.691" stroke="#000000" stroke-width="0.25" g2gstroke="#312783" stroke-miterlimit="10"/>
<path orgstroke="#000000" orgfill="none" fill="none" d="M559.257,258.697   c-0.231-0.107-0.375-0.336-0.382-0.689l0,0c-0.021-0.855,0.622-1.887,1.422-2.486l7.1-5.303c0.796-0.713,0.576-1.563,1.25-2.758   c0.585-1.031,4.353-4.834,7.749-5.189c3.312-0.352,7.158-3.705,8.24-5.637" stroke="#000000" stroke-width="0.25" g2gstroke="#312783" stroke-miterlimit="10"/>
<path orgstroke="#000000" orgfill="none" fill="none" d="M567.77197265625 249.76300048828125L567.77197265625 253.54400634765625" stroke="#000000" stroke-width="0.25" g2gstroke="#312783" stroke-miterlimit="10"/>
<path orgstroke="#000000" orgfill="none" fill="none" d="M566.896,253.796   c0.01,0.404-0.309,0.928-0.705,1.168l-2.161,1.311c-0.403,0.242-0.732,0.111-0.739-0.295l0,0c-0.008-0.406,0.309-0.928,0.705-1.166   l2.164-1.313C566.557,253.263,566.887,253.39,566.896,253.796L566.896,253.796z" stroke="#000000" stroke-width="0.25" g2gstroke="#312783" stroke-miterlimit="10"/>
<path orgstroke="#000000" orgfill="none" fill="none" d="M566.464,253.386   c0.018,0.053,0.022,0.113,0.024,0.176l0,0c0.011,0.404-0.306,0.928-0.705,1.168l-2.161,1.309c-0.108,0.068-0.216,0.104-0.31,0.119" stroke="#000000" stroke-width="0.25" g2gstroke="#312783" stroke-miterlimit="10"/>
<path orgstroke="#000000" orgfill="none" fill="none" d="M572.56298828125 243.82000732421875L572.56298828125 248.0800018310547" stroke="#000000" stroke-width="0.25" g2gstroke="#312783" stroke-miterlimit="10"/>
<path orgstroke="#000000" orgfill="none" fill="none" d="M577.822021484375 241.98199462890625L577.822021484375 246.24200439453125" stroke="#000000" stroke-width="0.25" g2gstroke="#312783" stroke-miterlimit="10"/>
<path orgstroke="#000000" orgfill="none" fill="none" d="M578.64,243.695c0-0.412,0.199-1.047,0.69-1.449   c0.493-0.396,2.84-1.82,3.324-2.209c0.62-0.5,0.771-0.785,1.061-0.658c0.655,0.285,0.705,1.082,0.355,1.643   c-0.494,0.783-2.903,3.105-3.71,3.455C579.621,244.804,578.64,244.919,578.64,243.695z" stroke="#000000" stroke-width="0.25" g2gstroke="#312783" stroke-miterlimit="10"/>
<path orgstroke="#000000" orgfill="none" fill="none" d="M583.535,239.353   c0.274,0.369,0.235,0.926-0.024,1.348c-0.494,0.781-2.903,3.104-3.712,3.451c-0.322,0.143-0.691,0.244-1.003,0.217" stroke="#000000" stroke-width="0.25" g2gstroke="#312783" stroke-miterlimit="10"/>
<path orgstroke="#000000" orgfill="none" fill="none" d="M574.809,239.492   c-0.082,0.594-0.546,1.24-1.027,1.436c-0.484,0.197-0.809-0.129-0.726-0.729c0.082-0.596,0.549-1.242,1.028-1.438   C574.569,238.568,574.893,238.896,574.809,239.492z" stroke="#000000" stroke-width="0.25" g2gstroke="#312783" stroke-miterlimit="10"/>
<path orgstroke="#000000" orgfill="none" fill="none" d="M576.0399780273438 237.04600524902344L576.0399780273438 241.7830047607422" stroke="#000000" stroke-width="0.25" g2gstroke="#312783" stroke-miterlimit="10"/>
<path orgstroke="#000000" orgfill="none" fill="none" d="M577.0540161132812 237.08700561523438L577.0540161132812 241.85899353027344" stroke="#000000" stroke-width="0.25" g2gstroke="#312783" stroke-miterlimit="10"/>
</g>
</g>
</g>
</g></svg>