<svg xmlns="http://www.w3.org/2000/svg" xmlns:xlink="http://www.w3.org/1999/xlink" xmlns:etg="http://www.eurotaxglass.com/etg/evd/" etg:dataTimestamp="1539068912893" contentScriptType="text/ecmascript" zoomAndPan="magnify" contentStyleType="text/css" id="Layer_1" enable-background="new 0 0 1841.891 1595.279" version="1.1" xml:space="preserve" width="1841.891px" preserveAspectRatio="xMidYMid meet" viewBox="0 0 1841.891 1595.279" height="1595.279px" x="0px" y="0px"><g xmlns="http://www.w3.org/2000/svg" objecttype="PS" tooltip="#UNDEFINED" id="128">
<g onmouseover="notifyOwner(AGV_OBJECT_MOUSEOVER, '128(PS)')" transform="translate(-1.0864257831144641E-5, 66.80804286193847) translate(-478.1112626953125, -9.244252822875978) translate(59.0, -37.0) translate(572.0, -62.0) translate(10.0, 10.00006103515625)" onclick="clickZoom(evt); notifyOwner(AGV_OBJECT_MOUSECLICK, '128(PS)')" onmouseout="notifyOwner(AGV_OBJECT_MOUSEOUT, '128(PS)')" tooltip="#UNDEFINED" id="128-Graphic" objecttype="GRAPHIC">
<g zvalue="26">
<g>
<path stroke-linecap="round" orgstroke="#000000" orgfill="#ffffff" fill="#ffffff" g2gfill="#ECF5E4" d="M381.316,240.679l-59.873-9.055   c-0.194-0.002-0.588-0.156-0.887-0.455c-0.109-0.072-0.279-0.227-0.641-0.313c0,0-0.462-0.174-0.518-0.371   c0,0-0.516-1.246-0.469-1.676c0.006-0.059,0.106-0.201,0.106-0.201c0.083-0.107,0.147-0.137,0.317-0.094l0.317,0.082l0.407,0.135   l28.408,3.578l0.137-0.092c1.465-0.904,2.738,0.232,3.334,0.279c0.443,0.033,0.41-0.141,1.197-0.076   c0.79,0.063,1.535,0.838,1.755,0.877l27.134,4.809c0,0,0.074-0.057,0.104-0.064c0.109-0.025,0.447,0.035,0.447,0.035   c0.214,0.064,0.323,0.23,0.382,0.434l0.27,0.967c0.059,0.328-0.025,0.496-0.129,0.631l-0.075,0.107   c-0.123,0.16-0.344-0.064-0.65,0.088c-0.041,0.021-0.167,0.094-0.167,0.094l-0.226,0.197   C381.88,240.642,381.718,240.74,381.316,240.679z" stroke="#000000" outline-element="true" stroke-width="0.5" g2gstroke="#312783"/>
<path orgstroke="#000000" orgfill="none" stroke-linecap="round" fill="none" d="M355.333,234.779   c0,0,0.227,2.004-0.377,1.912" stroke="#000000" stroke-width="0.25" g2gstroke="#312783" stroke-miterlimit="10"/>
<path orgstroke="#000000" orgfill="none" stroke-linecap="round" fill="none" d="M382.04998779296875 240.15199279785156L355.34100341796875 236.11099243164062" stroke="#000000" stroke-width="0.25" g2gstroke="#312783" stroke-miterlimit="10"/>
<path orgstroke="#000000" orgfill="none" stroke-linecap="round" fill="none" d="M354.8080139160156 233.2689971923828L355.4289855957031 234.85299682617188" stroke="#000000" stroke-width="0.25" g2gstroke="#312783" stroke-miterlimit="10"/>
<path orgstroke="#000000" orgfill="none" stroke-linecap="round" fill="none" d="M351.93499755859375 232.59300231933594L352.5150146484375 234.04200744628906" stroke="#000000" stroke-width="0.25" g2gstroke="#312783" stroke-miterlimit="10"/>
<path orgstroke="#000000" orgfill="none" stroke-linecap="round" fill="none" d="M348.42999267578125 232.30599975585938L349.0509948730469 233.88999938964844" stroke="#000000" stroke-width="0.25" g2gstroke="#312783" stroke-miterlimit="10"/>
<path orgstroke="#000000" orgfill="none" stroke-linecap="round" fill="none" d="M382.1709899902344 238.1580047607422L382.60699462890625 239.68299865722656L382.3059997558594 240.15199279785156" stroke="#000000" stroke-width="0.25" g2gstroke="#312783" stroke-miterlimit="10"/>
<path orgstroke="#000000" orgfill="none" stroke-linecap="round" fill="none" d="M383.156005859375 239.7790069580078L382.6659851074219 239.68099975585938" stroke="#000000" stroke-width="0.25" g2gstroke="#312783" stroke-miterlimit="10"/>
<path orgstroke="#000000" orgfill="none" stroke-linecap="round" fill="none" d="M349.181,235.152   l-27.538-4.166l-0.135-0.02c-0.279-0.041-1.001-0.197-0.967-0.398l0.066-0.266l-0.483-1.561" stroke="#000000" stroke-width="0.25" g2gstroke="#312783" stroke-miterlimit="10"/>
<path orgstroke="#000000" orgfill="none" stroke-linecap="round" fill="none" d="M319.281005859375 228.58900451660156L319.8340148925781 230.1320037841797L319.82598876953125 230.29600524902344L319.6619873046875 230.68699645996094" stroke="#000000" stroke-width="0.25" g2gstroke="#312783" stroke-miterlimit="10"/>
<path orgstroke="#000000" orgfill="none" stroke-linecap="round" fill="none" d="M319.84100341796875 230.19900512695312L320.5780029296875 230.36700439453125" stroke="#000000" stroke-width="0.25" g2gstroke="#312783" stroke-miterlimit="10"/>
<path orgstroke="#000000" orgfill="none" stroke-linecap="round" fill="none" d="M382.607,239.683   l-26.883-4.76l-0.306-0.053c-0.222-0.041-0.968-0.814-1.757-0.879c-0.785-0.063-0.75,0.109-1.193,0.076   c-0.586-0.047-1.813-1.131-3.234-0.34c0,0-0.254,0.145-0.426,0.117l-0.172-0.025l-27.98-3.504" stroke="#000000" stroke-width="0.25" g2gstroke="#312783" stroke-miterlimit="10"/>
<path orgstroke="#000000" orgfill="none" stroke-linecap="round" fill="none" d="M349.888,235.927   c-0.289-0.047-0.623-0.061-0.678-0.518c-0.054-0.455-0.07-0.707-0.07-0.707l-0.091-0.82" stroke="#000000" stroke-width="0.25" g2gstroke="#312783" stroke-miterlimit="10"/>
</g>
</g>
</g>
</g></svg>