<svg xmlns="http://www.w3.org/2000/svg" xmlns:xlink="http://www.w3.org/1999/xlink" xmlns:etg="http://www.eurotaxglass.com/etg/evd/" etg:dataTimestamp="1539068912893" contentScriptType="text/ecmascript" zoomAndPan="magnify" contentStyleType="text/css" id="Layer_1" enable-background="new 0 0 1841.891 1595.279" version="1.1" width="1841.891px" xml:space="preserve" preserveAspectRatio="xMidYMid meet" viewBox="0 0 1841.891 1595.279" height="1595.279px" x="0px" y="0px"><g xmlns="http://www.w3.org/2000/svg" objecttype="PS" tooltip="#UNDEFINED" id="14">
<g onmouseover="notifyOwner(AGV_OBJECT_MOUSEOVER, '14(PS)')" onclick="clickZoom(evt); notifyOwner(AGV_OBJECT_MOUSECLICK, '14(PS)')" onmouseout="notifyOwner(AGV_OBJECT_MOUSEOUT, '14(PS)')" tooltip="#UNDEFINED" id="14-Graphic" objecttype="GRAPHIC">
<g>
	<path orgstroke="#000000" orgfill="#ffffff" fill="#ffffff" g2gfill="#ECC35D" d="M305.198,185.279   c0-1.934,2.765-3.495,6.148-3.495c3.396,0,6.152,1.563,6.152,3.495v1.957c0,1.931-2.756,3.497-6.152,3.497   c-3.394,0-6.148-1.566-6.148-3.497l0.021-2.237" outline-element="true" stroke="#000000" stroke-width="0.5" g2gstroke="#312783" stroke-miterlimit="10"/>
	<path orgstroke="#000000" stroke-linecap="round" orgfill="none" fill="none" d="M309.071,188.392   c-2.103-0.52-3.568-1.69-3.568-3.067" stroke="#000000" stroke-width="0.25" g2gstroke="#312783"/>
	<path orgstroke="#000000" stroke-linecap="round" orgfill="none" fill="none" d="M317.209,185.324   c0,1.69-2.229,3.087-5.104,3.299" stroke="#000000" stroke-width="0.25" g2gstroke="#312783"/>
	
		<ellipse orgstroke="#000000" orgfill="none" stroke-linecap="round" fill="none" rx="4.207" cx="311.35" ry="2.302" cy="185.185" stroke="#000000" stroke-width="0.25" g2gstroke="#312783"/>
	
		<line orgstroke="#000000" orgfill="none" stroke-linecap="round" fill="none" x1="307.639" x2="312.728" y1="186.258" y2="183.014" stroke="#000000" stroke-width="0.25" g2gstroke="#312783"/>
	
		<line orgstroke="#000000" orgfill="none" stroke-linecap="round" fill="none" x1="309.312" x2="314.298" y1="187.19" y2="183.544" stroke="#000000" stroke-width="0.25" g2gstroke="#312783"/>
	
		<line orgstroke="#000000" orgfill="none" stroke-linecap="round" fill="none" x1="311.805" x2="314.298" y1="187.19" y2="185.367" stroke="#000000" stroke-width="0.25" g2gstroke="#312783"/>
	<polyline orgstroke="#000000" stroke-linecap="round" orgfill="none" points="314.125,183.672 314.298,185.367    315.02,185.803  " fill="none" stroke="#000000" stroke-width="0.25" g2gstroke="#312783"/>
</g>
</g>
</g></svg>