<svg xmlns="http://www.w3.org/2000/svg" xmlns:xlink="http://www.w3.org/1999/xlink" xmlns:etg="http://www.eurotaxglass.com/etg/evd/" etg:dataTimestamp="1539068912893" contentScriptType="text/ecmascript" zoomAndPan="magnify" contentStyleType="text/css" id="Layer_1" enable-background="new 0 0 1841.891 1595.279" version="1.1" width="1841.891px" xml:space="preserve" preserveAspectRatio="xMidYMid meet" viewBox="0 0 1841.891 1595.279" height="1595.279px" x="0px" y="0px"><g xmlns="http://www.w3.org/2000/svg" objecttype="PS" tooltip="#UNDEFINED" id="18">
<g onmouseover="notifyOwner(AGV_OBJECT_MOUSEOVER, '18(PS)')" transform="translate(44.0, -46.0)" onclick="clickZoom(evt); notifyOwner(AGV_OBJECT_MOUSECLICK, '18(PS)')" onmouseout="notifyOwner(AGV_OBJECT_MOUSEOUT, '18(PS)')" tooltip="#UNDEFINED" id="18-Graphic" objecttype="GRAPHIC">
<g>
	<polygon orgstroke="#000000" orgfill="#ffffff" points="424.396,177.231 423.638,177.363    423.156,177.642 421.52,178.251 420.533,178.827 418.94,175.983 420.893,174.898 422.343,174.273 422.753,173.666 423.156,173.057    423.475,172.631 426.862,171.102 427.944,171.251 428.448,171.464 429.639,171.661 430.698,171.414 433.073,170.691    434.569,170.231 436.592,169.556 438.159,169.277 440.281,169.344 442.115,169.623 444.115,170.166 446.7,171.479 450.616,173.534    456.573,176.953 459.656,178.876 462.887,181.127 466.573,184.135 470.406,187.355 473.225,189.886 476.573,192.844    479.928,196.394 481.906,198.595 483.018,199.55 484.376,199.961 485.485,200.091 486.781,200.026 487.794,199.483    488.899,198.794 489.44,198.185 489.182,197.282 489.592,196.461 490.76,195.162 492.115,194.274 493.635,193.174 495.883,192.022    497.74,191.201 500.615,190.166 503.346,189.492 506.696,188.999 510.069,188.67 511.906,188.589 514.03,188.589 514.655,188.589    515.262,188.802 515.735,189.064 516.49,189.213 517.24,189.279 517.727,189.064 518.612,188.243 518.948,187.568 519.573,185.646    519.99,183.658 520.602,182.014 520.946,180.518 521.358,179.632 522.115,178.595 522.719,177.988 523.348,177.642    523.616,177.166 523.694,175.243 524.031,174.701 525.813,173.731 526.698,173.452 527.391,173.452 528.471,174.208    529.985,175.719 530.526,177.084 530.807,178.053 530.865,178.94 530.526,179.55 528.741,180.717 527.737,180.929 526.635,180.717    526.225,180.717 525.464,180.847 525.055,180.996 524.86,181.406 524.516,182.425 523.281,185.383 523.067,186.946    522.309,188.999 521.282,190.708 519.99,192.154 517.865,193.256 516.49,193.798 515.604,193.995 515.128,194.341 514.906,194.816    514.44,194.816 513.139,194.898 510.891,194.751 507.737,194.816 505.323,194.965 504.031,194.965 502.674,195.244    500.741,195.851 499.301,196.394 498.069,197.496 496.698,198.794 494.522,200.717 493.823,201.191 493.008,201.39 492.469,201.47    492.057,201.47 491.432,201.602 490.891,201.882 490.001,202.491 488.282,203.461 487.323,203.855 486.024,204.346    484.781,204.414 483.364,204.346 482.393,204.135 481.092,203.461 479.794,202.213 477.395,199.829 474.93,196.607    472.325,194.209 470.281,192.154 467.531,189.821 463.364,186.469 460.419,184.003 458.075,182.294 455.147,180.371    450.906,177.988 446.794,175.786 443.919,174.355 442.063,173.599 440.225,172.91 438.835,172.779 437.069,172.975    435.426,173.386 433.49,174.077 431.031,175.308 430.774,175.44 430.559,175.786 430.149,176.064 426.924,177.495 426.157,177.56    425.692,177.428 424.865,177.231  " fill="#ffffff" g2gfill="#ECF5E4" outline-element="true" stroke="#000000" stroke-width="0.5" g2gstroke="#312783" stroke-miterlimit="10"/>
	<path orgstroke="#000000" orgfill="#ffffff" fill="#ffffff" g2gfill="#ECF5E4" d="M409.542,196.542l-0.143-1.922l-0.146-1.364   l-0.354-1.229v-0.969l-0.127-0.895l-0.348-0.604l-1.495-0.756l-1.578-0.479l-1.567-0.479l-1.309,0.132l-1.385,0.134l-1.355,0.756   l-0.604,1.021l-0.345,1.313v1.646l0.258,2.729l0.351,2.528l0.624,0.493l0.266,0.266l0.403,0.563l0.089,1.902l0.479,0.411   l0.953-0.677l0.346-0.754l0.13-0.479l3.286-1.984l0.692-0.408l0.888,0.189l0.688,0.218h0.762l0.264-0.408L409.542,196.542z    M425.975,204.135l-2.053-2.664l-1.862-2.2l-2.246-1.986l-2.336-2.12l-2.396-1.771l-1.646-1.167l-0.473-0.14l-0.271-0.063   l-0.271,0.411l0.13,0.542l0.146,4.521l-0.085,0.895l-0.476,0.969l-4.521,4.242l-0.406,0.263l-0.604,0.146l-2.612,0.273   l-0.731,0.063l-1.794,0.891l-0.479,0.479l-0.408,0.479l-0.134,2.94l-0.146,1.029l-0.891,0.762l-1.171,0.674l-1.146,0.146   l-0.979-0.063l-0.758-0.083l-2.054-1.436l-0.539-0.132l-0.608,0.193l-0.688,0.063l-0.821-0.348l-2.938-1.907v-0.562l-0.275-0.344   l-1.229-1.307l-0.542-1.018l-0.274-1.305v-0.974l1.104-1.229l1.362-0.27h1.771l1.646,0.133l2.205,0.688l0.816-0.275l0.264-0.409   l0.146-2.188l-0.409-1.104l-0.408-1.361l-0.277-6.313l0.949-2.599l1.229-1.922l1.387-1.364l1.899-1.229l1.926-0.542l1.928-0.276   l2.599,0.276l1.928,0.542l1.897,0.815l1.104,0.543l0.604,0.215l0.22-0.215l-0.063-0.409l0.063-1.086l0.539-0.891l0.976-1.034   l1.71-1.854l1.577-1.445l2.089-1.313l0.807-0.46l1.602,2.851l-0.65,0.375l-1.771,1.512l-1.71,1.515l-1.381,1.361l-0.677,1.232   l0.063,0.888v0.688l0.265,0.623l1.924,1.086l1.986,1.577l1.986,1.576l2.313,2.058l1.791,1.646l1.771,1.923l2.06,2.188l1.356,2.188   l1.386,2.333l1.575,2.528l1.3,3.287l1.229,3.563l0.265,1.168l0.82,0.479l0.278,0.604l0.063,3.354l-0.197,0.757l0.269,1.924   l1.104,2.118l0.688,2.333l-0.063,1.496l-0.146,0.97l-0.758,0.821l-0.951,0.479h-0.36l-0.479-0.146l-0.276,0.688l-1.146,1.299   l-0.827,0.41l-1.229,0.461l-1.443,0.032l-0.951-0.146l-0.411-1.021l-0.214-0.897l-0.408-2.529l0.146-1.229l0.268-1.164l0.757-1.146   l0.818-1.034l1.104-0.41h0.818l0.604,0.133l0.214-0.194l0.192-1.84l-1.084-1.104l-0.757-0.063l-0.625-0.479l-0.817-0.758   l-0.135-0.688l-0.479-2.055l0.268-0.604l-0.136-0.903l-0.349-1.429l-0.891-2.532l-1.3-3.021L425.975,204.135z" outline-element="true" stroke="#000000" stroke-width="0.5" g2gstroke="#312783" stroke-miterlimit="10"/>
	<polyline orgstroke="#000000" orgfill="none" points="402.323,200.81 403.172,201.124    403.787,201.535 404.13,202.151 404.13,202.767 404.062,203.932  " fill="none" stroke="#000000" stroke-width="0.25" g2gstroke="#312783" stroke-miterlimit="10"/>
	<polyline orgstroke="#000000" orgfill="none" points="403.048,199.607 404.062,199.961    404.679,200.714 405.09,201.469 405.226,202.219 405.156,202.905 405.156,203.862  " fill="none" stroke="#000000" stroke-width="0.25" g2gstroke="#312783" stroke-miterlimit="10"/>
	<polyline orgstroke="#000000" orgfill="none" points="408.238,197.838 409.06,198.522    409.677,199.413 409.882,200.096 410.195,201.169  " fill="none" stroke="#000000" stroke-width="0.25" g2gstroke="#312783" stroke-miterlimit="10"/>
	<polyline orgstroke="#000000" orgfill="none" points="395.091,199.55 395.776,200.029    396.94,200.165 398.105,200.029 398.993,199.755 399.68,199.413 400.091,199.003  " fill="none" stroke="#000000" stroke-width="0.25" g2gstroke="#312783" stroke-miterlimit="10"/>
	<polyline orgstroke="#000000" orgfill="none" points="394.818,198.18 396.117,198.727    397.009,198.727 398.173,198.592 398.789,198.18 399.339,197.624  " fill="none" stroke="#000000" stroke-width="0.25" g2gstroke="#312783" stroke-miterlimit="10"/>
	<polyline orgstroke="#000000" orgfill="none" points="394.749,201.673 394.749,202.561    394.954,203.384 395.502,203.795 396.117,204.067 396.734,204.478 396.94,204.888 396.94,206.122 397.077,207.287 396.94,207.904    396.804,208.247 396.392,208.176 394.954,207.492 394.954,206.876 394.544,206.26 391.668,204.616 390.915,204.272    390.024,204.272 389.683,204.206 389.066,204 388.655,203.657 388.655,203.316 390.571,203.726 391.599,204.137 392.695,204.683    393.447,205.027 394.749,205.371 395.64,205.371 396.667,205.232  " fill="none" stroke="#000000" stroke-width="0.25" g2gstroke="#312783" stroke-miterlimit="10"/>
	<polyline orgstroke="#000000" orgfill="none" points="394.818,207.219 393.928,207.287    393.036,207.631 392.831,208.247 392.626,208.998 392.764,210.024  " fill="none" stroke="#000000" stroke-width="0.25" g2gstroke="#312783" stroke-miterlimit="10"/>
	<polyline orgstroke="#000000" orgfill="none" points="393.928,206.122 392.695,206.327    392.215,206.876 391.737,207.698 391.463,208.382 391.325,209.684 391.463,210.301  " fill="none" stroke="#000000" stroke-width="0.25" g2gstroke="#312783" stroke-miterlimit="10"/>
	<polyline orgstroke="#000000" orgfill="none" points="389.37,204.104 388.655,204.683    388.176,205.3 387.97,205.917 387.695,207.219  " fill="none" stroke="#000000" stroke-width="0.25" g2gstroke="#312783" stroke-miterlimit="10"/>
	<polyline orgstroke="#000000" orgfill="none" points="430.424,215.436 431.52,215.915    432.534,215.915 434.115,215.776 435.217,215.436 435.905,215.161 436.448,214.615  " fill="none" stroke="#000000" stroke-width="0.25" g2gstroke="#312783" stroke-miterlimit="10"/>
	<polyline orgstroke="#000000" orgfill="none" points="430.626,214.476 431.784,214.75    432.741,214.681 433.645,214.615 434.6,214.41 434.944,214.133 435.281,213.588  " fill="none" stroke="#000000" stroke-width="0.25" g2gstroke="#312783" stroke-miterlimit="10"/>
	<polyline orgstroke="#000000" orgfill="none" points="433.156,219.679 433.85,219.817    434.739,219.751 435.281,219.474 435.905,219.202 436.52,218.517  " fill="none" stroke="#000000" stroke-width="0.25" g2gstroke="#312783" stroke-miterlimit="10"/>
	<polyline orgstroke="#000000" orgfill="none" points="433.906,222.967 434.6,223.72    434.944,224.405 435.281,225.298 435.281,225.844 435.012,226.324 434.531,226.459 433.85,226.53 433.156,226.53 432.534,226.94    432.406,227.556 432.406,228.241 432.948,228.856 433.645,229.13 435.012,229.406 435.905,229.335  " fill="none" stroke="#000000" stroke-width="0.25" g2gstroke="#312783" stroke-miterlimit="10"/>
	<polyline orgstroke="#000000" orgfill="none" points="434.99,224.56 433.573,224.68    432.479,225.226 431.862,225.708 431.656,226.459 431.656,228.512 431.656,229.951 431.969,230.674 432.198,231.134    432.563,231.829  " fill="none" stroke="#000000" stroke-width="0.25" g2gstroke="#312783" stroke-miterlimit="10"/>
	<polyline orgstroke="#000000" orgfill="none" points="411.044,184.689 412.004,185.446    412.963,185.991 414.401,186.883  " fill="none" stroke="#000000" stroke-width="0.25" g2gstroke="#312783" stroke-miterlimit="10"/>
	<polyline orgstroke="#000000" orgfill="none" points="408.924,189.964 410.361,190.717    412.414,192.017  " fill="none" stroke="#000000" stroke-width="0.25" g2gstroke="#312783" stroke-miterlimit="10"/>
	<polyline orgstroke="#000000" orgfill="none" points="422.892,174.077 423.44,174.35    423.918,174.967 424.194,175.65 424.323,176.2 424.399,177.226  " fill="none" stroke="#000000" stroke-width="0.25" g2gstroke="#312783" stroke-miterlimit="10"/>
	<polyline orgstroke="#000000" orgfill="none" points="423.713,172.774 424.605,173.529    425.151,174.35 425.633,175.24 425.905,175.995 426.032,177.295  " fill="none" stroke="#000000" stroke-width="0.25" g2gstroke="#312783" stroke-miterlimit="10"/>
	<polyline orgstroke="#000000" orgfill="none" points="429.053,171.748 429.809,172.364    430.281,173.255 430.49,174.282 430.626,175.24  " fill="none" stroke="#000000" stroke-width="0.25" g2gstroke="#312783" stroke-miterlimit="10"/>
	<polyline orgstroke="#000000" orgfill="none" points="489.448,198.18 489.823,198.832    490.073,199.395 490.532,200.011 491.001,200.423 492.237,201.469  " fill="none" stroke="#000000" stroke-width="0.25" g2gstroke="#312783" stroke-miterlimit="10"/>
	<polyline orgstroke="#000000" orgfill="none" points="492.803,194.157 493.156,194.876    493.615,195.851 494.19,196.674 494.856,197.342 495.823,197.854 496.95,198.316  " fill="none" stroke="#000000" stroke-width="0.25" g2gstroke="#312783" stroke-miterlimit="10"/>
	<polyline orgstroke="#000000" orgfill="none" points="506.926,189.226 507.028,191.178    507.073,192.925 507.182,194.723  " fill="none" stroke="#000000" stroke-width="0.25" g2gstroke="#312783" stroke-miterlimit="10"/>
	<polyline orgstroke="#000000" orgfill="none" points="514.573,188.815 514.115,190.151    514.012,191.847 514.115,193.336 514.625,194.825  " fill="none" stroke="#000000" stroke-width="0.25" g2gstroke="#312783" stroke-miterlimit="10"/>
	<polyline orgstroke="#000000" orgfill="none" points="515.615,189.004 515.24,190.46    515.194,192 515.194,192.77 515.61,194.003  " fill="none" stroke="#000000" stroke-width="0.25" g2gstroke="#312783" stroke-miterlimit="10"/>
	<polyline orgstroke="#000000" orgfill="none" points="523.926,177.774 524.532,178.441    525.106,179.213 525.569,179.982 525.889,180.779  " fill="none" stroke="#000000" stroke-width="0.25" g2gstroke="#312783" stroke-miterlimit="10"/>
	<polyline orgstroke="#000000" orgfill="none" points="524.128,175.103 524.948,175.669    525.981,176.645 526.698,177.363 527.315,178.34 527.776,179.263 528.342,180.65  " fill="none" stroke="#000000" stroke-width="0.25" g2gstroke="#312783" stroke-miterlimit="10"/>
	<polyline orgstroke="#000000" orgfill="none" points="400.909,201.807 400.772,202.561    400.294,203.177 400.226,203.521 400.361,204.137 400.433,206.192  " fill="none" stroke="#000000" stroke-width="0.25" g2gstroke="#312783" stroke-miterlimit="10"/>
	<polyline orgstroke="#000000" orgfill="none" points="396.734,204.478 397.418,204.549    398.308,204.549 398.993,204.411 399.884,203.862  " fill="none" stroke="#000000" stroke-width="0.25" g2gstroke="#312783" stroke-miterlimit="10"/>
</g>
</g>
</g></svg>