<svg xmlns="http://www.w3.org/2000/svg" xmlns:xlink="http://www.w3.org/1999/xlink" xmlns:etg="http://www.eurotaxglass.com/etg/evd/" etg:dataTimestamp="1539068912893" contentScriptType="text/ecmascript" zoomAndPan="magnify" contentStyleType="text/css" id="Layer_1" enable-background="new 0 0 1841.891 1595.279" version="1.1" width="1841.891px" xml:space="preserve" preserveAspectRatio="xMidYMid meet" viewBox="0 0 1841.891 1595.279" height="1595.279px" x="0px" y="0px"><g xmlns="http://www.w3.org/2000/svg" objecttype="PS" tooltip="#UNDEFINED" id="20">
<g onmouseover="notifyOwner(AGV_OBJECT_MOUSEOVER, '20(PS)')" transform="translate(44.0, -46.0)" onclick="clickZoom(evt); notifyOwner(AGV_OBJECT_MOUSECLICK, '20(PS)')" onmouseout="notifyOwner(AGV_OBJECT_MOUSEOUT, '20(PS)')" tooltip="#UNDEFINED" id="20-Graphic" objecttype="GRAPHIC">
<g>
	<polygon orgstroke="#000000" orgfill="#ffffff" points="559.531,267.809 563.131,269.527    568.61,271.17 583.401,273.362 587.781,275.006 589.975,276.649 591.615,280.758 592.987,285.139 594.629,289.248 595.178,291.713    594.356,294.177 593.531,295.549 587.781,298.559 585.317,299.108 582.305,298.287 579.018,297.19 576.278,297.19 573.266,297.738    571.615,298.832 569.156,301.302 567.514,303.219 566.967,307.052 566.692,310.61 566.406,314.992 565.865,317.457    565.393,318.927 563.948,319.927 562.309,320.195 560.94,319.927 556.823,317.73 556.823,316.635 557.106,313.348 557.379,312.527    559.297,311.705 560.115,311.156 560.94,309.512 561.487,305.135 562.031,298.832 561.762,293.631 560.393,290.069    559.022,287.879 557.379,285.961 553.615,283.05 551.354,282.127 550.778,278.365 550.258,275.279 551.627,272.541    553.819,269.254 555.188,268.432 557.379,267.884  " fill="#ffffff" g2gfill="#ECF5E4" outline-element="true" stroke="#000000" stroke-width="0.5" g2gstroke="#312783" stroke-miterlimit="10"/>
	<polyline orgstroke="#000000" orgfill="none" points="557.198,313.052 561.281,314.658    562.323,316.039 562.323,316.86 562.063,320.147  " fill="none" stroke="#000000" stroke-width="0.25" g2gstroke="#312783" stroke-miterlimit="10"/>
	<polyline orgstroke="#000000" orgfill="none" points="562.178,314.934 562.793,314.594    563.547,314.052 563.821,313.094 564.026,311.852 564.094,310.691 564.094,308.844 564.301,306.719 564.711,303.912    565.115,301.789 566.219,299.052 566.971,297.472 568.406,295.486 569.573,293.98 571.559,292.268  " fill="none" stroke="#000000" stroke-width="0.25" g2gstroke="#312783" stroke-miterlimit="10"/>
	<polyline orgstroke="#000000" orgfill="none" points="553.684,272.342 557.793,274.806    562.518,276.45 568.885,277.682 572.172,277.888 575.254,278.505 578.129,279.121 580.389,280.558 582.239,282.202    583.676,284.051 584.698,285.9 585.936,288.776 586.346,291.241 586.553,294.117 585.936,296.582  " fill="none" stroke="#000000" stroke-width="0.25" g2gstroke="#312783" stroke-miterlimit="10"/>
	<polyline orgstroke="#000000" orgfill="none" points="551.825,276.04 556.149,278.916    562.106,281.586 565.805,282.818 569.297,283.64  " fill="none" stroke="#000000" stroke-width="0.25" g2gstroke="#312783" stroke-miterlimit="10"/>
	<polyline orgstroke="#000000" orgfill="none" points="569.502,285.284 569.297,283.64    570.53,282.202 571.762,281.586 574.022,281.175 575.45,281.586 576.692,282.818 577.102,284.462 576.897,286.31 576.073,287.954    575.254,288.57 573.817,289.597  " fill="none" stroke="#000000" stroke-width="0.25" g2gstroke="#312783" stroke-miterlimit="10"/>
	<polyline orgstroke="#000000" orgfill="none" points="576.865,283.544 578.336,285.078    578.948,286.927 578.948,288.776 579.156,290.42 579.569,292.268 580.389,293.501 581.615,294.938 583.881,295.349  " fill="none" stroke="#000000" stroke-width="0.25" g2gstroke="#312783" stroke-miterlimit="10"/>
	<path orgstroke="#000000" orgfill="none" fill="none" d="M560.774,317.26   c0,0.674-0.547,0.896-1.219,0.517c-0.672-0.39-1.219-1.25-1.219-1.922c0-0.675,0.547-0.904,1.219-0.516   C560.227,315.722,560.774,316.594,560.774,317.26z" stroke="#000000" stroke-width="0.25" g2gstroke="#312783" stroke-miterlimit="10"/>
	<path orgstroke="#000000" orgfill="none" fill="none" d="M564.922,290.388   c-0.146-0.351-0.23-0.688-0.23-0.999c0-0.981,0.793-1.316,1.775-0.752c0.979,0.563,1.771,1.813,1.771,2.801   c0,0.979-0.793,1.313-1.771,0.75c-0.332-0.193-0.646-0.464-0.908-0.775" stroke="#000000" stroke-width="0.25" g2gstroke="#312783" stroke-miterlimit="10"/>
	<path orgstroke="#000000" orgfill="none" fill="none" d="M581.547,290.91   c-0.185-0.342-0.281-0.699-0.281-1.021c0-0.813,0.65-1.084,1.463-0.618c0.807,0.467,1.465,1.499,1.465,2.307   c0,0.813-0.646,1.083-1.465,0.616c-0.221-0.129-0.43-0.297-0.615-0.491" stroke="#000000" stroke-width="0.25" g2gstroke="#312783" stroke-miterlimit="10"/>
	<path orgstroke="#000000" orgfill="none" fill="none" d="M571.963,285.51   c-0.236-0.43-0.381-0.864-0.381-1.271c0-0.893,0.725-1.199,1.606-0.684c0.896,0.514,1.617,1.651,1.617,2.55   c0,0.893-0.724,1.199-1.617,0.683c-0.244-0.144-0.479-0.334-0.688-0.554" stroke="#000000" stroke-width="0.25" g2gstroke="#312783" stroke-miterlimit="10"/>
	
		<line orgstroke="#000000" orgfill="none" fill="none" x1="570.115" x2="573.405" y1="276.04" y2="273.369" stroke="#000000" stroke-width="0.25" g2gstroke="#312783" stroke-miterlimit="10"/>
	
		<line orgstroke="#000000" orgfill="none" fill="none" x1="560.668" x2="562.313" y1="311.782" y2="312.604" stroke="#000000" stroke-width="0.25" g2gstroke="#312783" stroke-miterlimit="10"/>
	<polyline orgstroke="#000000" orgfill="none" points="556.281,279.258 556.281,282.339    556.354,282.544 556.836,282.818 562.383,285.284 562.793,285.078 563.067,284.873 563.198,284.393 563.299,281.985  " fill="none" stroke="#000000" stroke-width="0.25" g2gstroke="#312783" stroke-miterlimit="10"/>
	
		<line orgstroke="#000000" orgfill="none" fill="none" x1="559.656" x2="559.406" y1="280.491" y2="283.965" stroke="#000000" stroke-width="0.25" g2gstroke="#312783" stroke-miterlimit="10"/>
	<polyline orgstroke="#000000" orgfill="none" points="564.094,287.818 565.258,287.202    566.969,287.063 568.406,287.202 569.639,287.818 570.323,288.639 570.6,290.009 570.461,290.83 570.256,291.652 569.573,292.543     " fill="none" stroke="#000000" stroke-width="0.25" g2gstroke="#312783" stroke-miterlimit="10"/>
	<polyline orgstroke="#000000" orgfill="none" points="573.198,292.885 575.049,293.296    576.073,293.296 576.897,293.296 577.719,292.679 578.336,292.268 578.531,291.446 578.531,290.625  " fill="none" stroke="#000000" stroke-width="0.25" g2gstroke="#312783" stroke-miterlimit="10"/>
</g>
</g>
</g></svg>