<svg xmlns="http://www.w3.org/2000/svg" xmlns:xlink="http://www.w3.org/1999/xlink" xmlns:etg="http://www.eurotaxglass.com/etg/evd/" etg:dataTimestamp="1539068912893" contentScriptType="text/ecmascript" zoomAndPan="magnify" contentStyleType="text/css" id="Layer_1" enable-background="new 0 0 1841.891 1595.279" version="1.1" width="1841.891px" xml:space="preserve" preserveAspectRatio="xMidYMid meet" viewBox="0 0 1841.891 1595.279" height="1595.279px" x="0px" y="0px"><g xmlns="http://www.w3.org/2000/svg" objecttype="PS" tooltip="#UNDEFINED" id="23">
<g onmouseover="notifyOwner(AGV_OBJECT_MOUSEOVER, '23(PS)')" onclick="clickZoom(evt); notifyOwner(AGV_OBJECT_MOUSECLICK, '23(PS)')" onmouseout="notifyOwner(AGV_OBJECT_MOUSEOUT, '23(PS)')" tooltip="#UNDEFINED" id="23-Graphic" objecttype="GRAPHIC">
<g>
	<polygon orgstroke="#000000" orgfill="#ffffff" points="326.095,368.878 328.584,374.094    329.256,375.461 330.16,376.442 331.625,377.642 335.854,379.639 340.811,382.637 342.991,383.851 344.533,384.952    345.819,386.169 346.767,387.596 347.157,389.708 347.335,391.489 347.095,392.672 346.25,394.097 345.38,395.26 343.73,396.682    341.708,397.952 340.422,398.528 339.998,398.754 339.49,399.071 337.317,401.527 336.112,402.002 334.524,402.25 333.344,402.102    331.835,401.354 330.641,400.129 329.973,398.851 329.915,397.342 330.144,396.059 330.837,394.916 331.396,394.235    332.425,393.771 334.997,392.623 335.699,392.461 336.319,392.399 339.396,390.927 339.496,390.117 338.856,389.996    335.812,388.24 331.462,385.898 328.04,383.91 325.754,382.533 324.574,381.479 323.209,380.029 321.612,377.831 320.354,375.1    319.61,373.021 319.609,372.121 319.893,371.374 320.445,370.602 321.785,369.671 322.708,369.036 323.922,368.644    325.076,368.529  " fill="#ffffff" g2gfill="#ECC35D" outline-element="true" stroke="#000000" stroke-width="0.5" g2gstroke="#312783" stroke-miterlimit="10"/>
	<polyline orgstroke="#000000" orgfill="none" points="320.206,373.84 320.65,373.057    321.327,372.268 321.91,371.722 322.635,371.248 323.388,370.872 324.184,370.607 324.787,370.445 325.396,370.303    326.512,370.205  " fill="none" stroke="#000000" stroke-width="0.25" g2gstroke="#312783" stroke-miterlimit="10"/>
	<polyline orgstroke="#000000" orgfill="none" points="321.135,375.908 321.575,375.131    322.251,374.334 322.839,373.796 323.561,373.312 324.313,372.935 325.11,372.673 325.716,372.511 326.323,372.367 327.439,372.28     " fill="none" stroke="#000000" stroke-width="0.25" g2gstroke="#312783" stroke-miterlimit="10"/>
	<polyline orgstroke="#000000" orgfill="none" points="337.064,397.633 337.177,398.771    337.046,399.766 336.895,400.499 336.718,400.97 336.382,401.626  " fill="none" stroke="#000000" stroke-width="0.25" g2gstroke="#312783" stroke-miterlimit="10"/>
	<polyline orgstroke="#000000" orgfill="none" points="332.177,394.029 333.178,393.75    333.821,393.908 334.659,394.229 335.485,394.862 335.922,395.435  " fill="none" stroke="#000000" stroke-width="0.25" g2gstroke="#312783" stroke-miterlimit="10"/>
	<polyline orgstroke="#000000" orgfill="none" points="334.327,392.885 335.33,392.609    335.971,392.772 336.809,393.084 337.635,393.718 338.302,394.594 338.796,395.485 339.197,396.317 339.326,397.617    339.197,398.623 339.047,399.354 338.867,399.82 338.64,400.27  " fill="none" stroke="#000000" stroke-width="0.25" g2gstroke="#312783" stroke-miterlimit="10"/>
	<polyline orgstroke="#000000" orgfill="none" points="339.68,389.944 340.078,389.905    340.855,389.619 341.236,389.38  " fill="none" stroke="#000000" stroke-width="0.25" g2gstroke="#312783" stroke-miterlimit="10"/>
	<path orgstroke="#000000" orgfill="none" fill="none" d="M331.764,399.137   c-0.864-1.275-0.842-2.806,0.079-3.501c0.967-0.723,2.535-0.252,3.523,1.048c0.98,1.302,0.992,2.941,0.035,3.667   c-0.642,0.484-1.557,0.435-2.386-0.047" stroke="#000000" stroke-width="0.25" g2gstroke="#312783" stroke-miterlimit="10"/>
</g>
</g>
</g></svg>