<svg xmlns="http://www.w3.org/2000/svg" xmlns:xlink="http://www.w3.org/1999/xlink" xmlns:etg="http://www.eurotaxglass.com/etg/evd/" etg:dataTimestamp="1539068912893" contentScriptType="text/ecmascript" zoomAndPan="magnify" contentStyleType="text/css" id="Layer_1" enable-background="new 0 0 1841.891 1595.279" version="1.1" width="1841.891px" xml:space="preserve" preserveAspectRatio="xMidYMid meet" viewBox="0 0 1841.891 1595.279" height="1595.279px" x="0px" y="0px"><g xmlns="http://www.w3.org/2000/svg" objecttype="PS" tooltip="#UNDEFINED" id="25">
<g onmouseover="notifyOwner(AGV_OBJECT_MOUSEOVER, '25(PS)')" transform="translate(6.319053904619807, 4.595675566996249) translate(1.0, 0.0) translate(-67.0, -102.0)" onclick="clickZoom(evt); notifyOwner(AGV_OBJECT_MOUSECLICK, '25(PS)')" onmouseout="notifyOwner(AGV_OBJECT_MOUSEOUT, '25(PS)')" tooltip="#UNDEFINED" id="25-Graphic" objecttype="GRAPHIC">
<g>
	<g id="12::Manguito_superior_lateral_radiador1">
		<path orgstroke="#000000" orgfill="#ffffff" fill="#ffffff" g2gfill="#ECC35D" d="M529.394,355.184    c0,0.754-0.262,1.446-0.695,1.993h-0.002l-0.02,0.843c0,0,0.063,0.362,0.717,0.362h7.861c2.551,0.009,4.604,2.634,6.104,5.353    c0.896,1.607,0.912,5.029,0.912,5.029l-0.074,16.006c0,0,0.646,1.818,0.646,2.289c-0.002,0.137-0.063,0.387-0.134,0.676    c0.425,0.365,0.64,0.789,0.646,1.212v1.511c-0.002,0,1.275,0.479,1.275,0.479v1.354l-1.447-0.619l0.008,0.007    c-0.176,0.329-0.479,0.646-0.938,0.896c-0.229,0.129-0.479,0.238-0.729,0.328l0.607,3.843v-0.001    c0.688,0.398,0.951,0.854,0.957,1.369v1.242h0.006l3.059,1.858c0.188-0.155,0.381-0.303,0.58-0.409    c0.688-0.396,1.314-0.457,1.785-0.232l-0.004,0.002l1.225,0.771l-0.006-0.011c0.377,0.313,0.604,0.852,0.604,1.574    c0,0.188-0.021,0.369-0.041,0.563l-0.015,0.006c4.931,3.373,7.17,7.266,7.17,12.479v19.283c0,0.735,0.166,4.084,1.313,3.438    c1.146-0.648,2.891-1.605,4.313-2.525l-0.004-0.004c0.365-0.18,0.855-0.135,1.396,0.177c1.133,0.653,2.049,2.237,2.049,3.538    c0,0.461-0.114,0.824-0.313,1.072l-0.005-0.002c-2.393,2.02-5.387,4.633-8.503,4.633c-3.354,0-5.796-2.18-5.796-4.594    c0-0.976,0-5.729,0-5.729v-19.278c0-3.367-0.686-5.971-4.014-8.628l0.002-0.008c-0.067,0.053-0.144,0.097-0.211,0.138    c-0.69,0.396-1.324,0.457-1.795,0.228l0.004-0.002l-1.235-0.783h-0.005c-0.354-0.311-0.563-0.838-0.563-1.547    c0-0.104,0.007-0.211,0.017-0.313l0.002-0.025c-0.123,0.56-0.56,1.098-1.297,1.521c-0.114,0.063-0.234,0.13-0.354,0.188    l-0.013-0.02v0.224c0.119,0.058,0.234,0.115,0.354,0.183c0.896,0.521,1.352,1.194,1.354,1.871v6.104    c0.006,0.551-0.274,1.099-0.854,1.563l-0.003-0.005v9.084c0,0-0.5,4.087-1.224,5.22c-1.401,2.229-4.604,4.787-7.11,5.613    c-1.157,0.385-5.354,0.415-6.563,0.228c-1.203-0.188-4.601-1.578-6.699-2.478l0.006,0.002c-1.389,1.459-2.594,2.038-3.313,1.691    l-0.043-0.031l-4.188-2.046l-0.003,0.001c-0.372-0.24-0.598-0.766-0.605-1.577c-4.289-0.741-10.938-1.376-15.187-1.597    c-1.172-0.063-2.636-0.862-3.598-1.771c-1.053-0.987-4.764-5.262-4.764-5.262v-2.455c0,0-7.479-9.832-9.813-13.228    c-2.213-3.226-2.017-5.315-2.017-5.315l-0.005-13.559l0.021,0.036l-3.313,1.903l0.067-0.028c-0.592,0.337-1.396,0.278-2.308-0.232    c-1.805-1.04-3.265-3.563-3.266-5.627c0-0.981,0.326-1.688,0.864-2.042l0.003,0.003l10.078-5.77c0,0,7.028-3.938,7.028,2.319    v25.834c0,1.815,6.594,8.406,6.594,8.406l1.025,3.01c0,0,4.891,4.957,6.888,5.475c5.114,1.306,14.732,1.652,14.732,1.652    l0.005,0.004c0.413-0.629,0.854-1.229,1.313-1.771c1.623-1.935,3.065-2.737,3.896-2.356l0.002,0.019l4.104,2.008l-0.073-0.038    c0.505,0.163,0.813,0.719,0.834,1.678c0.021,1.179-0.368,2.748-1.049,4.396c1.291,0.892,2.896,1.95,3.431,2.125    c0.775,0.252,2.562,0.393,3.275,0c1.169-0.632,2.899-4.439,2.899-4.439v-9.721h-0.002c-0.188-0.296-0.287-0.604-0.293-0.916    v-6.385l0.021,0.016c0.1-0.595,0.532-1.169,1.313-1.622c0.115-0.063,0.237-0.131,0.365-0.188v-0.197l0.005,0.001    c-0.12-0.059-0.234-0.116-0.354-0.188c-0.896-0.521-1.354-1.196-1.354-1.884l0.015-2.021h-0.002    c0.063-0.545,0.409-1.078,1.058-1.521v-2.979c-0.008-0.522,0.337-1.05,1.021-1.446l0.53-3.781h-0.004    c-0.248-0.088-0.479-0.188-0.695-0.313c-0.737-0.429-1.109-0.982-1.12-1.545v-2.052c-0.015-0.434,0.192-0.857,0.618-1.229    l0.021-0.009c-0.063-0.245-0.107-0.457-0.111-0.577c-0.009-0.515,0.62-2.38,0.62-2.38l-0.089-15.877    c-0.135-1.813,0.394-3.521-1.42-4.979c-1.37-1.101-2.375-1.094-4.438-1.055h-5.711c-2.242-0.021-3.598-1.343-3.598-3.297    c0,0,0-1.026,0-2.448h-0.005c-0.407-0.537-0.646-1.208-0.646-1.938v-2.32c0-1.771,1.435-3.195,3.19-3.195    c1.771,0,3.195,1.438,3.195,3.195v2.316h0.01V355.2h0.008v-0.007h0.011v-0.009H529.394L529.394,355.184z" outline-element="true" stroke="#000000" stroke-width="0.5" g2gstroke="#312783" stroke-miterlimit="10"/>
		<path orgstroke="#000000" orgfill="none" fill="none" d="M475.435,381.364    c0.579-0.268,1.335-0.213,2.177,0.271c1.803,1.04,3.262,3.561,3.262,5.627c0,1.188-0.354,1.76-1.314,2.313" stroke="#000000" stroke-width="0.25" g2gstroke="#312783" stroke-miterlimit="10"/>
		<path orgstroke="#000000" orgfill="none" fill="none" d="M473.9,382.242    c0.579-0.267,1.128-0.104,1.972,0.376c1.811,1.04,3.27,3.563,3.27,5.626c0,1.192-0.367,1.979-1.123,2.229" stroke="#000000" stroke-width="0.25" g2gstroke="#312783" stroke-miterlimit="10"/>
		<path orgstroke="#000000" orgfill="none" fill="none" d="M476.698,380.641    c0.604-0.399,1.291-0.383,2.241,0.166c1.803,1.041,3.262,3.561,3.262,5.627c0,1.099-0.146,1.703-0.979,2.185" stroke="#000000" stroke-width="0.25" g2gstroke="#312783" stroke-miterlimit="10"/>
		<path orgstroke="#000000" orgfill="none" fill="none" d="M480.397,378.508    c0.591-0.344,1.406-0.283,2.309,0.229c1.811,1.039,3.27,3.563,3.27,5.625c0,1.164-0.313,1.785-1.188,2.205" stroke="#000000" stroke-width="0.25" g2gstroke="#312783" stroke-miterlimit="10"/>
		<path orgstroke="#000000" orgfill="none" fill="none" d="M472.265,383.177    c0.596-0.396,1.448-0.363,2.396,0.182c1.811,1.041,3.27,3.563,3.27,5.627c0,1.033-0.364,1.758-0.955,2.095" stroke="#000000" stroke-width="0.25" g2gstroke="#312783" stroke-miterlimit="10"/>
		<path orgstroke="#000000" orgfill="none" fill="none" d="M546.156,408.973    c0.008,0.682-0.438,1.363-1.336,1.883c-1.789,1.033-4.703,1.027-6.504-0.013c-1.014-0.584-1.459-1.372-1.338-2.144" stroke="#000000" stroke-width="0.25" g2gstroke="#312783" stroke-miterlimit="10"/>
		<path orgstroke="#000000" orgfill="none" fill="none" d="M544.462,406.719    c-1.688,0.786-4.109,0.771-5.803-0.021" stroke="#000000" stroke-width="0.25" g2gstroke="#312783" stroke-miterlimit="10"/>
		<path orgstroke="#000000" orgfill="none" fill="none" d="M546.156,404.639    c0.002,0.121-0.012,0.243-0.037,0.364" stroke="#000000" stroke-width="0.25" g2gstroke="#312783" stroke-miterlimit="10"/>
		<path orgstroke="#000000" orgfill="none" fill="none" d="M545.613,404.079    c-0.205,0.229-0.471,0.436-0.789,0.611c-1.791,1.033-4.703,1.027-6.504-0.013c-0.979-0.565-1.434-1.323-1.35-2.063" stroke="#000000" stroke-width="0.25" g2gstroke="#312783" stroke-miterlimit="10"/>
		<path orgstroke="#000000" orgfill="none" fill="none" d="M545.296,416.639    c-0.146,0.113-0.309,0.221-0.479,0.322c-1.791,1.023-4.703,1.021-6.504-0.021c-0.486-0.271-0.842-0.604-1.063-0.955" stroke="#000000" stroke-width="0.25" g2gstroke="#312783" stroke-miterlimit="10"/>
		<path orgstroke="#000000" orgfill="none" fill="none" d="M544.125,427.367    c-1.563,0.903-4.11,0.899-5.688-0.011c-0.396-0.227-0.688-0.488-0.887-0.769" stroke="#000000" stroke-width="0.25" g2gstroke="#312783" stroke-miterlimit="10"/>
		<path orgstroke="#000000" orgfill="none" fill="none" d="M489.377,390.469    c0.008,0.684-0.438,1.355-1.346,1.885c-1.779,1.032-4.693,1.027-6.502-0.013c-0.957-0.561-1.398-1.282-1.354-2.003" stroke="#000000" stroke-width="0.25" g2gstroke="#312783" stroke-miterlimit="10"/>
		<path orgstroke="#000000" orgfill="none" fill="none" d="M489.377,392.973    c0.008,0.684-0.438,1.365-1.346,1.885c-1.779,1.033-4.693,1.027-6.502-0.012c-0.957-0.552-1.398-1.283-1.354-2.004" stroke="#000000" stroke-width="0.25" g2gstroke="#312783" stroke-miterlimit="10"/>
		<path orgstroke="#000000" orgfill="none" fill="none" d="M489.377,400.065    c0.008,0.684-0.438,1.365-1.346,1.885c-1.779,1.033-4.693,1.027-6.502-0.012c-0.957-0.551-1.398-1.283-1.354-2.004" stroke="#000000" stroke-width="0.25" g2gstroke="#312783" stroke-miterlimit="10"/>
		<path orgstroke="#000000" orgfill="none" fill="none" d="M489.377,405.19    c0.008,0.683-0.438,1.365-1.346,1.884c-0.822,0.481-1.9,0.737-3.004,0.771" stroke="#000000" stroke-width="0.25" g2gstroke="#312783" stroke-miterlimit="10"/>
		<path orgstroke="#000000" orgfill="none" fill="none" d="M495.969,413.977    c0.007,0.684-0.438,1.365-1.336,1.885c-0.834,0.48-1.911,0.736-3.006,0.771" stroke="#000000" stroke-width="0.25" g2gstroke="#312783" stroke-miterlimit="10"/>
		<path orgstroke="#000000" orgfill="none" fill="none" d="M496.99,416.987    c0.018,0.688-0.438,1.365-1.336,1.884c-0.832,0.481-1.9,0.737-3.004,0.771" stroke="#000000" stroke-width="0.25" g2gstroke="#312783" stroke-miterlimit="10"/>
		<path orgstroke="#000000" orgfill="none" fill="none" d="M489.055,386.832    c-0.229,0.324-0.563,0.636-1.021,0.896c-1.342,0.771-3.313,0.967-4.979,0.574" stroke="#000000" stroke-width="0.25" g2gstroke="#312783" stroke-miterlimit="10"/>
		<path orgstroke="#000000" orgfill="none" fill="none" d="M522.991,355.184    c0-1.766,1.438-3.197,3.195-3.197c1.764,0,3.195,1.438,3.195,3.197" stroke="#000000" stroke-width="0.25" g2gstroke="#312783" stroke-miterlimit="10"/>
		<path orgstroke="#000000" orgfill="none" fill="none" d="M543.335,402.616    c-0.148-0.164-0.234-0.415-0.234-0.73c0-0.857,0.604-1.904,1.354-2.339c0.264-0.146,0.557-0.205,0.646-0.188" stroke="#000000" stroke-width="0.25" g2gstroke="#312783" stroke-miterlimit="10"/>
		<path orgstroke="#000000" orgfill="none" fill="none" d="M501.9,427.844    c0.364-1.119,0.959-2.354,1.651-3.334c0.332-0.479,0.646-0.839,0.938-1.101" stroke="#000000" stroke-width="0.25" g2gstroke="#312783" stroke-miterlimit="10"/>
		<path orgstroke="#000000" orgfill="none" fill="none" d="M501.597,430.399    c-0.038-0.114-0.063-0.254-0.073-0.42c-0.02-0.332,0.023-0.735,0.117-1.181" stroke="#000000" stroke-width="0.25" g2gstroke="#312783" stroke-miterlimit="10"/>
		<path orgstroke="#000000" orgfill="none" fill="none" d="M520.392,435.999    c-0.433-0.208-0.692-0.741-0.716-1.633c-0.063-2.563,1.896-7.04,4.392-10.001c1.563-1.851,2.947-2.669,3.787-2.396" stroke="#000000" stroke-width="0.25" g2gstroke="#312783" stroke-miterlimit="10"/>
		<path orgstroke="#000000" orgfill="none" fill="none" d="M515.545,432.344    c-0.061-2.091,1.236-5.453,3.066-8.229" stroke="#000000" stroke-width="0.25" g2gstroke="#312783" stroke-miterlimit="10"/>
		
			<line orgstroke="#000000" orgfill="none" fill="none" x1="480.198" x2="484.777" y1="389.201" y2="386.565" stroke="#000000" stroke-width="0.25" g2gstroke="#312783" stroke-miterlimit="10"/>
		<path orgstroke="#000000" orgfill="none" fill="none" d="M476.855,388.367    c0,1.396-0.979,1.952-2.196,1.253c-1.215-0.691-2.188-2.396-2.188-3.791c0-1.393,0.979-1.943,2.188-1.252    C475.865,385.276,476.855,386.975,476.855,388.367z" stroke="#000000" stroke-width="0.25" g2gstroke="#312783" stroke-miterlimit="10"/>
		<path orgstroke="#000000" orgfill="none" fill="none" d="M492.906,421.052l3.063,0.25l2.967,2.548    c0,0-1.938,1.16-1.607,4.493" stroke="#000000" stroke-width="0.25" g2gstroke="#312783" stroke-miterlimit="10"/>
		<path orgstroke="#000000" orgfill="none" fill="none" d="M522,433.571    c-0.247-0.079-0.397-0.354-0.409-0.828c-0.031-1.266,0.938-3.475,2.166-4.936c0.92-1.093,1.723-1.457,2.082-1.043" stroke="#000000" stroke-width="0.25" g2gstroke="#312783" stroke-miterlimit="10"/>
		<path orgstroke="#000000" orgfill="none" fill="none" d="M544.448,408.971    c0.015,0.43-0.271,0.854-0.84,1.187c-1.127,0.649-2.961,0.647-4.098-0.007c-0.563-0.326-0.854-0.752-0.854-1.178" stroke="#000000" stroke-width="0.25" g2gstroke="#312783" stroke-miterlimit="10"/>
		<path orgstroke="#000000" orgfill="none" fill="none" d="M559.46,415.955    c0.006,0.411-0.271,0.821-0.813,1.144c-1.078,0.622-2.832,0.618-3.916-0.017c-0.541-0.312-0.813-0.72-0.813-1.127" stroke="#000000" stroke-width="0.25" g2gstroke="#312783" stroke-miterlimit="10"/>
		<path orgstroke="#000000" orgfill="none" fill="none" d="M559.46,435.24    c0.006,0.411-0.271,0.821-0.813,1.134c-1.078,0.622-2.832,0.619-3.916-0.007c-0.541-0.312-0.813-0.72-0.813-1.127" stroke="#000000" stroke-width="0.25" g2gstroke="#312783" stroke-miterlimit="10"/>
		<path orgstroke="#000000" orgfill="none" fill="none" d="M544.841,403.578    c-0.172,0.247-0.438,0.479-0.771,0.686c-1.377,0.794-3.615,0.791-5-0.019c-0.688-0.396-1.037-0.918-1.043-1.438" stroke="#000000" stroke-width="0.25" g2gstroke="#312783" stroke-miterlimit="10"/>
		<path orgstroke="#000000" orgfill="none" fill="none" d="M545.093,398.11    c0.006,0.524-0.336,1.05-1.023,1.447c-1.377,0.795-3.615,0.791-5-0.009c-0.688-0.397-1.037-0.918-1.043-1.438" stroke="#000000" stroke-width="0.25" g2gstroke="#312783" stroke-miterlimit="10"/>
		<path orgstroke="#000000" orgfill="none" fill="none" d="M544.24,397.444    c0.011,0.399-0.256,0.798-0.771,1.104c-1.047,0.604-2.75,0.602-3.812-0.017c-0.563-0.32-0.834-0.771-0.786-1.191" stroke="#000000" stroke-width="0.25" g2gstroke="#312783" stroke-miterlimit="10"/>
		<path orgstroke="#000000" orgfill="none" fill="none" d="M543.529,392.899    c-1.209,0.418-2.74,0.414-3.938-0.019" stroke="#000000" stroke-width="0.25" g2gstroke="#312783" stroke-miterlimit="10"/>
		<path orgstroke="#000000" orgfill="none" fill="none" d="M545.359,388.946    c0.006,0.563-0.361,1.127-1.104,1.563c-1.479,0.853-3.895,0.851-5.371-0.02c-0.73-0.423-1.104-0.974-1.121-1.521" stroke="#000000" stroke-width="0.25" g2gstroke="#312783" stroke-miterlimit="10"/>
		<path orgstroke="#000000" orgfill="none" fill="none" d="M527.644,428.036    c-0.994-0.688-1.807-1.271-1.807-1.271" stroke="#000000" stroke-width="0.25" g2gstroke="#312783" stroke-miterlimit="10"/>
		<path orgstroke="#000000" orgfill="none" fill="none" d="M521.95,433.552c0,0,0.727,0.313,1.744,0.754" stroke="#000000" stroke-width="0.25" g2gstroke="#312783" stroke-miterlimit="10"/>
		
			<line orgstroke="#000000" orgfill="none" fill="none" x1="546.156" x2="546.156" y1="404.639" y2="404.43" stroke="#000000" stroke-width="0.25" g2gstroke="#312783" stroke-miterlimit="10"/>
		
			<line orgstroke="#000000" orgfill="none" fill="none" x1="538.656" x2="538.656" y1="408.971" y2="406.897" stroke="#000000" stroke-width="0.25" g2gstroke="#312783" stroke-miterlimit="10"/>
		
			<line orgstroke="#000000" orgfill="none" fill="none" x1="544.448" x2="544.448" y1="408.971" y2="406.927" stroke="#000000" stroke-width="0.25" g2gstroke="#312783" stroke-miterlimit="10"/>
		
			<line orgstroke="#000000" orgfill="none" fill="none" x1="538.027" x2="538.027" y1="402.807" y2="401.094" stroke="#000000" stroke-width="0.25" g2gstroke="#312783" stroke-miterlimit="10"/>
		
			<line orgstroke="#000000" orgfill="none" fill="none" x1="546.156" x2="543.337" y1="404.43" y2="402.616" stroke="#000000" stroke-width="0.25" g2gstroke="#312783" stroke-miterlimit="10"/>
		
			<line orgstroke="#000000" orgfill="none" fill="none" x1="538.988" x2="538.875" y1="396.653" y2="397.344" stroke="#000000" stroke-width="0.25" g2gstroke="#312783" stroke-miterlimit="10"/>
		
			<line orgstroke="#000000" orgfill="none" fill="none" x1="544.136" x2="544.24" y1="396.743" y2="397.444" stroke="#000000" stroke-width="0.25" g2gstroke="#312783" stroke-miterlimit="10"/>
		
			<line orgstroke="#000000" orgfill="none" fill="none" x1="540.573" x2="540.115" y1="393.364" y2="398.289" stroke="#000000" stroke-width="0.25" g2gstroke="#312783" stroke-miterlimit="10"/>
		
			<line orgstroke="#000000" orgfill="none" fill="none" x1="540.218" x2="539.585" y1="393.364" y2="397.969" stroke="#000000" stroke-width="0.25" g2gstroke="#312783" stroke-miterlimit="10"/>
		<path orgstroke="#000000" orgfill="none" fill="none" d="M544.2,389.367    c-0.111,0.266-0.354,0.501-0.695,0.702c-1.064,0.615-2.813,0.613-3.875-0.006c-0.313-0.182-0.539-0.396-0.671-0.625" stroke="#000000" stroke-width="0.25" g2gstroke="#312783" stroke-miterlimit="10"/>
		<path orgstroke="#000000" orgfill="none" fill="none" d="M544.198,384.766    c0.246,0.528,0.021,1.115-0.691,1.527c-1.064,0.605-2.813,0.604-3.875-0.017c-0.725-0.411-0.957-0.992-0.729-1.521" stroke="#000000" stroke-width="0.25" g2gstroke="#312783" stroke-miterlimit="10"/>
		<path orgstroke="#000000" orgfill="none" fill="none" d="M544.3,368.891    c0.008,0.408-0.259,0.813-0.795,1.127c-1.064,0.615-2.813,0.613-3.877-0.006c-0.537-0.313-0.813-0.716-0.813-1.121" stroke="#000000" stroke-width="0.25" g2gstroke="#312783" stroke-miterlimit="10"/>
		
			<line orgstroke="#000000" orgfill="none" fill="none" x1="544.937" x2="544.937" y1="390.302" y2="391.557" stroke="#000000" stroke-width="0.25" g2gstroke="#312783" stroke-miterlimit="10"/>
		
			<line orgstroke="#000000" orgfill="none" fill="none" x1="544.937" x2="545.359" y1="390.302" y2="390.468" stroke="#000000" stroke-width="0.25" g2gstroke="#312783" stroke-miterlimit="10"/>
		
			<line orgstroke="#000000" orgfill="none" fill="none" x1="544.937" x2="545.187" y1="391.557" y2="391.666" stroke="#000000" stroke-width="0.25" g2gstroke="#312783" stroke-miterlimit="10"/>
		<path orgstroke="#000000" orgfill="none" fill="none" d="M538.962,389.436c0,0-0.371-1.002-0.563-1.709" stroke="#000000" stroke-width="0.25" g2gstroke="#312783" stroke-miterlimit="10"/>
		<path orgstroke="#000000" orgfill="none" fill="none" d="M544.198,389.366c0,0,0.32-0.926,0.518-1.631" stroke="#000000" stroke-width="0.25" g2gstroke="#312783" stroke-miterlimit="10"/>
		<path orgstroke="#000000" orgfill="none" fill="none" d="M523.656,355.184    c0-1.402,1.146-2.541,2.541-2.541c1.402,0,2.543,1.138,2.543,2.541" stroke="#000000" stroke-width="0.25" g2gstroke="#312783" stroke-miterlimit="10"/>
		<path orgstroke="#000000" orgfill="none" fill="none" d="M523.853,358.155    c0.387-0.913,1.289-1.555,2.344-1.555c0.877,0,1.648,0.444,2.105,1.121" stroke="#000000" stroke-width="0.25" g2gstroke="#312783" stroke-miterlimit="10"/>
		<path orgstroke="#000000" orgfill="none" fill="none" d="M528.99,358.703c0,0-2.375,0.875-1.594,3.655" stroke="#000000" stroke-width="0.25" g2gstroke="#312783" stroke-miterlimit="10"/>
		<path orgstroke="#000000" orgfill="none" fill="none" d="M546.115,405.032    c0.113-1.369,0.947-2.91,2.041-3.813" stroke="#000000" stroke-width="0.25" g2gstroke="#312783" stroke-miterlimit="10"/>
		<path orgstroke="#000000" orgfill="none" fill="none" d="M547.906,407.682    c-0.518-0.254-0.84-0.854-0.84-1.729c0-1.67,1.178-3.708,2.635-4.547c0.816-0.474,1.561-0.468,2.035-0.074" stroke="#000000" stroke-width="0.25" g2gstroke="#312783" stroke-miterlimit="10"/>
		<path orgstroke="#000000" orgfill="none" fill="none" d="M563.845,443.639    c0.102-0.22,0.146-0.49,0.146-0.813c0-1.299-0.916-2.884-2.049-3.528c-0.34-0.195-0.658-0.286-0.938-0.281" stroke="#000000" stroke-width="0.25" g2gstroke="#312783" stroke-miterlimit="10"/>
		<path orgstroke="#000000" orgfill="none" fill="none" stroke-linejoin="round" d="M552.294,403.473    c-0.434-0.289-0.865-0.574-1.328-0.857l0.004-0.004c-0.289-0.271-0.75-0.297-1.271,0.003c-0.875,0.504-1.58,1.729-1.58,2.729    c0,0.505,0.188,0.854,0.477,1.019" stroke="#000000" stroke-width="0.25" g2gstroke="#312783" stroke-miterlimit="10"/>
		<path orgstroke="#000000" orgfill="none" fill="none" d="M549.906,407.328    c-0.396-0.313-0.84-0.642-1.313-0.966" stroke="#000000" stroke-width="0.25" g2gstroke="#312783" stroke-miterlimit="10"/>
		<path orgstroke="#000000" orgfill="none" fill="none" stroke-linejoin="round" d="M523.656,357.121    c0-0.593,0-1.253,0-1.937" stroke="#000000" stroke-width="0.25" g2gstroke="#312783" stroke-miterlimit="10"/>
		
			<line orgstroke="#000000" orgfill="none" fill="none" x1="528.74" x2="528.697" y1="355.184" y2="357.177" stroke-linejoin="round" stroke="#000000" stroke-width="0.25" g2gstroke="#312783" stroke-miterlimit="10"/>
	</g>
</g>
</g>
</g></svg>