<svg xmlns="http://www.w3.org/2000/svg" xmlns:xlink="http://www.w3.org/1999/xlink" xmlns:etg="http://www.eurotaxglass.com/etg/evd/" etg:dataTimestamp="1539068912893" contentScriptType="text/ecmascript" zoomAndPan="magnify" contentStyleType="text/css" id="Layer_1" enable-background="new 0 0 1841.891 1595.279" version="1.1" width="1841.891px" xml:space="preserve" preserveAspectRatio="xMidYMid meet" viewBox="0 0 1841.891 1595.279" height="1595.279px" x="0px" y="0px"><g xmlns="http://www.w3.org/2000/svg" objecttype="PS" tooltip="#UNDEFINED" id="4">
<g onmouseover="notifyOwner(AGV_OBJECT_MOUSEOVER, '4(PS)')" onclick="clickZoom(evt); notifyOwner(AGV_OBJECT_MOUSECLICK, '4(PS)')" onmouseout="notifyOwner(AGV_OBJECT_MOUSEOUT, '4(PS)')" tooltip="#UNDEFINED" id="4-Graphic" objecttype="GRAPHIC">
<g>
	<path orgstroke="#000000" orgfill="#ffffff" stroke-linecap="round" fill="#ffffff" g2gfill="#ECF5E4" d="M297.463,230.677l-1.162,0.271l-1.371,0.617   l-1.71,0.683l-0.822,0.616l-0.606,1.027l-0.481,1.021l-0.205,2.123l-0.206,22.872l-0.063,17.461l-0.354,2.262l-0.479,1.37   l-0.481,1.714l-0.206,1.573l0.206,2.123l0.206,1.162l0.896,0.961l0.479,0.344l0.276,0.55l0.063,0.817v1.104l0.276,0.684   l0.889,0.139l0.751-0.146l0.239-0.534l0.241-1.955l0.239-0.217l1.27-0.499l0.546-0.271l0.667-0.056   c26.773,16.166,55.521,35.871,82.28,51.833l0.853,0.508l0.229,1.709l0.613,0.729l1.021,0.514l0.616,0.616l0.411,2.054v0.727   l0.206,0.816l0.72,0.313l1.025,0.104l0.607-0.516l0.206-0.821v-1.646l0.313-0.409l1.748-0.41l0.514-0.411l0.515-0.719l0.438-0.982   c0.688-0.421,1.396-0.843,2.156-1.132c0.563-0.793,0.643-1.729,0.63-2.682c0-0.464,0-0.934,0-1.396   c1.938-0.854,4.065-1.813,6.014-3.044l1.348-0.848l0.753-0.616l0.146-1.097l-0.205-1.309l-0.616-1.304l-0.756-0.813l-0.957-0.557   l-0.821,0.146l-1.161,0.271l-1.396,0.703c-0.806,0.402-1.521,0.877-2.035,1.37c-0.261-1.313-0.349-2.676-0.354-4.056l0.027-1.988   c0-2.716,0-5.439,0-8.148l-0.045-12.521c-0.02-2.352,0.17-4.729,0.045-7.037c1.697-0.735,3.333-1.646,4.944-2.626l2.297-1.229   l0.344-0.341l0.24-0.445l-0.063-0.89l-0.033-0.616l-0.348-1.023l-0.348-0.895l-0.438-0.753l-0.82-0.547l-0.753-0.271l-0.377,0.066   l-0.751,0.41l-0.396,0.236l-2.527,1.143l-0.504,0.188l-0.313-0.028l-0.155-0.313c0.037-2.499,0.239-5.101-1.546-7.099   c-30.204-16.676-59.813-34.366-90.271-50.597c-0.313,0-0.604-0.005-0.914,0.015L297.463,230.677z" outline-element="true" stroke="#000000" stroke-width="0.5" g2gstroke="#312783"/>
	<path orgstroke="#000000" stroke-linecap="round" orgfill="none" fill="none" d="M295.734,287.983   c-0.453-0.274-0.915-0.548-1.358-0.817c-0.942-17.625-0.146-35.545-0.406-53.271" stroke="#000000" stroke-width="0.25" g2gstroke="#312783"/>
	<path orgstroke="#000000" stroke-linecap="round" orgfill="none" fill="none" d="M386.702,343.574   c-0.104,0.07-0.206,0.146-0.313,0.218c-0.641,0.143-1.269,0.229-2.157-0.298c-1.231-0.72-2.479-1.438-3.729-2.188" stroke="#000000" stroke-width="0.25" g2gstroke="#312783"/>
	<path orgstroke="#000000" stroke-linecap="round" orgfill="none" fill="none" d="M386.702,343.574   c0.589-0.216,1.146-0.509,1.688-0.813" stroke="#000000" stroke-width="0.25" g2gstroke="#312783"/>
	<path orgstroke="#000000" stroke-linecap="round" orgfill="none" fill="none" d="M389.167,337.719   c-0.604,1.388-0.035,3.184-1.232,4.313" stroke="#000000" stroke-width="0.25" g2gstroke="#312783"/>
	<path orgstroke="#000000" stroke-linecap="round" orgfill="none" fill="none" d="M391.646,337.279   c-4.062,0.855-5.479-5.308-1.229-6.163" stroke="#000000" stroke-width="0.25" g2gstroke="#312783"/>
	<path orgstroke="#000000" stroke-linecap="round" orgfill="none" fill="none" d="M302.348,238.503   c-2.792-1.544-5.588-3.083-8.389-4.623" stroke="#000000" stroke-width="0.25" g2gstroke="#312783"/>
	<path orgstroke="#000000" stroke-linecap="round" orgfill="none" fill="none" d="M311.346,243.5   c-0.775-0.434-1.544-0.854-2.32-1.293" stroke="#000000" stroke-width="0.25" g2gstroke="#312783"/>
	<path orgstroke="#000000" stroke-linecap="round" orgfill="none" fill="none" d="M386.702,343.574   c-0.072-0.104-0.147-0.206-0.229-0.31c-0.171-12.126-0.097-28.383-0.097-41.903c0-5.65,0.727-10.854-0.993-15.717   c-23.865-13.694-47.83-27.491-71.879-40.938" stroke="#000000" stroke-width="0.25" g2gstroke="#312783"/>
	<path orgstroke="#000000" stroke-linecap="round" orgfill="none" fill="none" d="M391.95,330.19   c-0.521,0.354-1.027,0.536-1.541,0.926" stroke="#000000" stroke-width="0.25" g2gstroke="#312783"/>
	<path orgstroke="#000000" stroke-linecap="round" orgfill="none" fill="none" d="M391.632,288.777   c-5.174,2.292-4.87,8.15,0,7.652" stroke="#000000" stroke-width="0.25" g2gstroke="#312783"/>
	<path orgstroke="#000000" stroke-linecap="round" orgfill="none" fill="none" d="M371.267,280.817   c3.802,2.197,7.586,4.413,11.439,6.505c0.413,0.353,0.604,0.771,0.854,1.173c0.165,17.001,0.024,34.021,0.07,51.024" stroke="#000000" stroke-width="0.25" g2gstroke="#312783"/>
	<path orgstroke="#000000" stroke-linecap="round" orgfill="none" fill="none" d="M383.632,339.516   c-28.941-17.879-57.966-35.776-86.801-53.788c0.008-15.545-0.491-31.479,0.246-46.813c15.608,8.496,31.373,17.278,46.729,26.248" stroke="#000000" stroke-width="0.25" g2gstroke="#312783"/>
	<polyline orgstroke="#000000" stroke-linecap="round" orgfill="none" points="395.861,328.26 396.682,328.677    397.57,329.491 398.121,330.449 398.391,331.76 398.464,332.777 398.316,333.826  " fill="none" stroke="#000000" stroke-width="0.25" g2gstroke="#312783"/>
	<polyline orgstroke="#000000" stroke-linecap="round" orgfill="none" points="395.849,287.135 396.992,287.661    397.541,288.552 398.019,289.851 398.328,290.937 398.396,292.098 398.122,292.886  " fill="none" stroke="#000000" stroke-width="0.25" g2gstroke="#312783"/>
	<polyline orgstroke="#000000" stroke-linecap="round" orgfill="none" points="386.066,285.252 387.029,284.841    388.398,285.115 389.084,285.526 389.494,286.347 389.494,287.989 388.673,289.362 388.261,290.321 387.71,292.098  " fill="none" stroke="#000000" stroke-width="0.25" g2gstroke="#312783"/>
	<polyline orgstroke="#000000" stroke-linecap="round" orgfill="none" points="291.37,289.427 292.327,289.774    292.67,289.911 293.354,289.5  " fill="none" stroke="#000000" stroke-width="0.25" g2gstroke="#312783"/>
	<polyline orgstroke="#000000" stroke-linecap="round" orgfill="none" points="289.703,282.057 290.411,281.76    291.221,282.059 291.643,282.992 292.121,284.841 292.398,286.347 292.738,288.129 292.738,289.427  " fill="none" stroke="#000000" stroke-width="0.25" g2gstroke="#312783"/>
	<path orgstroke="#000000" stroke-linecap="round" orgfill="none" fill="none" d="M298.307,230.759   c-1.236,0.688-3.186,1.937-4.256,2.815c-0.035,0.104-0.063,0.207-0.095,0.308" stroke="#000000" stroke-width="0.25" g2gstroke="#312783"/>
	<polyline orgstroke="#000000" stroke-linecap="round" orgfill="none" points="382.476,344.277 383.298,344.893    384.325,345.303 385.655,344.996  " fill="none" stroke="#000000" stroke-width="0.25" g2gstroke="#312783"/>
	<polyline orgstroke="#000000" stroke-linecap="round" orgfill="none" points="293.882,233.602 293.37,233.552    292.855,233.602 292.398,233.808 291.883,234.219 291.412,234.679  " fill="none" stroke="#000000" stroke-width="0.25" g2gstroke="#312783"/>
	
		<line orgstroke="#000000" orgfill="none" stroke-linecap="round" fill="none" x1="343.132" x2="371.267" y1="264.928" y2="280.817" stroke="#000000" stroke-width="0.25" g2gstroke="#312783"/>
	
		<line orgstroke="#000000" orgfill="none" stroke-linecap="round" fill="none" x1="350.524" x2="380.217" y1="272.481" y2="289.532" stroke="#000000" stroke-width="0.25" g2gstroke="#312783"/>
	
		<line orgstroke="#000000" orgfill="none" stroke-linecap="round" fill="none" x1="329.782" x2="344.139" y1="260.566" y2="268.814" stroke="#000000" stroke-width="0.25" g2gstroke="#312783"/>
	
		<line orgstroke="#000000" orgfill="none" stroke-linecap="round" fill="none" x1="354.215" x2="380.217" y1="278.216" y2="293.147" stroke="#000000" stroke-width="0.25" g2gstroke="#312783"/>
	
		<line orgstroke="#000000" orgfill="none" stroke-linecap="round" fill="none" x1="347.911" x2="354.215" y1="274.594" y2="278.216" stroke="#000000" stroke-width="0.25" g2gstroke="#312783"/>
	
		<line orgstroke="#000000" orgfill="none" stroke-linecap="round" fill="none" x1="331.837" x2="347.911" y1="265.362" y2="274.594" stroke="#000000" stroke-width="0.25" g2gstroke="#312783"/>
	
		<line orgstroke="#000000" orgfill="none" stroke-linecap="round" fill="none" x1="351.532" x2="380.217" y1="280.324" y2="296.798" stroke="#000000" stroke-width="0.25" g2gstroke="#312783"/>
	
	
		<line orgstroke="#000000" orgfill="none" stroke-linecap="round" fill="none" x1="332.014" x2="346.205" y1="269.114" y2="277.265" stroke="#000000" stroke-width="0.25" g2gstroke="#312783"/>
	
		<line orgstroke="#000000" orgfill="none" stroke-linecap="round" fill="none" x1="333.292" x2="380.217" y1="273.461" y2="300.413" stroke="#000000" stroke-width="0.25" g2gstroke="#312783"/>
	
		<line orgstroke="#000000" orgfill="none" stroke-linecap="round" fill="none" x1="352.498" x2="380.217" y1="288.639" y2="304.558" stroke="#000000" stroke-width="0.25" g2gstroke="#312783"/>
	
	
		<line orgstroke="#000000" orgfill="none" stroke-linecap="round" fill="none" x1="334.751" x2="346.615" y1="278.445" y2="285.26" stroke="#000000" stroke-width="0.25" g2gstroke="#312783"/>
	
		<line orgstroke="#000000" orgfill="none" stroke-linecap="round" fill="none" x1="366.737" x2="380.217" y1="300.434" y2="308.177" stroke="#000000" stroke-width="0.25" g2gstroke="#312783"/>
	
	
		<line orgstroke="#000000" orgfill="none" stroke-linecap="round" fill="none" x1="336.151" x2="363.082" y1="282.867" y2="298.344" stroke="#000000" stroke-width="0.25" g2gstroke="#312783"/>
	
		<line orgstroke="#000000" orgfill="none" stroke-linecap="round" fill="none" x1="357.167" x2="380.217" y1="298.594" y2="311.827" stroke="#000000" stroke-width="0.25" g2gstroke="#312783"/>
	
	
		<line orgstroke="#000000" orgfill="none" stroke-linecap="round" fill="none" x1="336.796" x2="351.652" y1="286.886" y2="295.419" stroke="#000000" stroke-width="0.25" g2gstroke="#312783"/>
	
		<line orgstroke="#000000" orgfill="none" stroke-linecap="round" fill="none" x1="354.122" x2="380.217" y1="300.74" y2="316.03" stroke="#000000" stroke-width="0.25" g2gstroke="#312783"/>
	
		<line orgstroke="#000000" orgfill="none" stroke-linecap="round" fill="none" x1="351.949" x2="354.122" y1="299.469" y2="300.74" stroke="#000000" stroke-width="0.25" g2gstroke="#312783"/>
	
		<line orgstroke="#000000" orgfill="none" stroke-linecap="round" fill="none" x1="338.266" x2="351.949" y1="291.446" y2="299.469" stroke="#000000" stroke-width="0.25" g2gstroke="#312783"/>
	
		<line orgstroke="#000000" orgfill="none" stroke-linecap="round" fill="none" x1="362.829" x2="379.698" y1="309.572" y2="319.522" stroke="#000000" stroke-width="0.25" g2gstroke="#312783"/>
	
	
		<line orgstroke="#000000" orgfill="none" stroke-linecap="round" fill="none" x1="339.296" x2="358.067" y1="295.688" y2="306.762" stroke="#000000" stroke-width="0.25" g2gstroke="#312783"/>
	
		<line orgstroke="#000000" orgfill="none" stroke-linecap="round" fill="none" x1="353.22" x2="379.698" y1="307.699" y2="323.528" stroke="#000000" stroke-width="0.25" g2gstroke="#312783"/>
	
	
		<line orgstroke="#000000" orgfill="none" stroke-linecap="round" fill="none" x1="340.444" x2="348.842" y1="300.065" y2="305.08" stroke="#000000" stroke-width="0.25" g2gstroke="#312783"/>
	
		<line orgstroke="#000000" orgfill="none" stroke-linecap="round" fill="none" x1="358.175" x2="379.698" y1="314.454" y2="327.431" stroke="#000000" stroke-width="0.25" g2gstroke="#312783"/>
	
	
		<line orgstroke="#000000" orgfill="none" stroke-linecap="round" fill="none" x1="340.782" x2="353.427" y1="303.972" y2="311.594" stroke="#000000" stroke-width="0.25" g2gstroke="#312783"/>
	
		<line orgstroke="#000000" orgfill="none" stroke-linecap="round" fill="none" x1="358.319" x2="379.698" y1="318.738" y2="332.053" stroke="#000000" stroke-width="0.25" g2gstroke="#312783"/>
	
	
		<line orgstroke="#000000" orgfill="none" stroke-linecap="round" fill="none" x1="342.671" x2="353.729" y1="308.983" y2="315.885" stroke="#000000" stroke-width="0.25" g2gstroke="#312783"/>
	
		<line orgstroke="#000000" orgfill="none" stroke-linecap="round" fill="none" x1="388.264" x2="388.228" y1="318.943" y2="331.951" stroke="#000000" stroke-width="0.25" g2gstroke="#312783"/>
	
		<line orgstroke="#000000" orgfill="none" stroke-linecap="round" fill="none" x1="388.281" x2="388.278" y1="314.151" y2="316.205" stroke="#000000" stroke-width="0.25" g2gstroke="#312783"/>
	
		<line orgstroke="#000000" orgfill="none" stroke-linecap="round" fill="none" x1="388.299" x2="388.287" y1="306.76" y2="311.275" stroke="#000000" stroke-width="0.25" g2gstroke="#312783"/>
	
		<line orgstroke="#000000" orgfill="none" stroke-linecap="round" fill="none" x1="388.326" x2="388.299" y1="295.695" y2="306.76" stroke="#000000" stroke-width="0.25" g2gstroke="#312783"/>
</g>
</g>
</g></svg>