<svg xmlns="http://www.w3.org/2000/svg" xmlns:xlink="http://www.w3.org/1999/xlink" xmlns:etg="http://www.eurotaxglass.com/etg/evd/" etg:dataTimestamp="1539068912893" contentScriptType="text/ecmascript" zoomAndPan="magnify" contentStyleType="text/css" id="Capa_1" enable-background="new 0 0 1841.891 1595.279" version="1.1" xml:space="preserve" width="1841.891px" preserveAspectRatio="xMidYMid meet" viewBox="0 0 1841.891 1595.279" height="1595.279px" x="0px" y="0px"><g xmlns="http://www.w3.org/2000/svg" objecttype="PS" tooltip="#UNDEFINED" id="42">
<g onmouseover="notifyOwner(AGV_OBJECT_MOUSEOVER, '42(PS)')" transform="translate(33.34486065673826, 21.74257693481445) translate(-1.0084051388752187, 1.6806752314587072) translate(-444.7702593608417, -91.23492499709573) translate(425.0, 51.0) translate(10.0, 10.00006103515625)" onclick="clickZoom(evt); notifyOwner(AGV_OBJECT_MOUSECLICK, '42(PS)')" onmouseout="notifyOwner(AGV_OBJECT_MOUSEOUT, '42(PS)')" tooltip="#UNDEFINED" id="42-Graphic" objecttype="GRAPHIC">
<g zvalue="6">
<g>
<path orgstroke="#000000" orgfill="#ffffff" fill="#ffffff" g2gfill="#ECF5E4" d="M585.453,238.416l0.947-0.557   c0.244-0.143,0.6-0.49,0.721-1.045c0.455-2.084,1.023-5.225,1.441-7.604c0.029-0.201,0.027-0.406,0.309-0.566   c0.172-0.098,0.328-0.365,0.365-0.586c0.123-0.709,0.211-1.25,0.256-1.516l0.012-0.154c-0.01-0.402-0.305-0.959-1.137-1.441   c-0.141-0.082-0.283-0.322-0.283-0.539c0-1.641,0.107-3.094,0.107-3.961c0-0.488-0.232-0.898-0.486-1.039l-0.744-0.43   c-0.131-0.076-0.438-0.162-0.783-0.076c-1.428,0.363-4.299,0.084-5.213,0.654c-1.02,0.639-0.936,2.031-2.014,3.027   c-1.082,0.996-3.746,0.545-4.008,0.699l-0.203,0.123l-5.928,3.449c-0.365,0.207-0.496,0.623-0.496,0.875c0,1.289,0,2.678,0,3.404   c0,0.805,3.564,4.406,3.775,5.725c0.209,1.311,0.166,1.654,0,2.455c-0.164,0.795-0.848,2.082-1.359,2.672   c-0.508,0.592-0.43,1.396,0.916,2.723c0.838,0.824,1.395,1.314,1.93,1.654l0.18,0.113l1.615,0.75l0.178,0.08   c0.605,0.195,1.488-0.146,2.223-0.455c1.484-0.949,1.912-2.143,2.713-2.646c1.1-0.68,4.477-0.324,4.477-1.506l0.02-0.217   c0,0,0.053-1.834,0.053-3.309C585.02,238.893,585.072,238.637,585.453,238.416z" stroke="#000000" outline-element="true" stroke-width="0.5" g2gstroke="#312783" stroke-miterlimit="10"/>
<path orgstroke="#000000" orgfill="none" stroke-linecap="round" fill="none" d="M573.842,237.773   c2.592-3.313,8.576-4.988,8.576-4.988" stroke="#000000" stroke-width="0.25" g2gstroke="#312783" stroke-miterlimit="10"/>
<path orgstroke="#000000" orgfill="none" stroke-linecap="round" fill="none" d="M569.924,228.088   c0,1.398,0,3.006,0,3.816c0,0.809,3.557,4.406,3.77,5.721c0.209,1.313,0.146,1.656,0,2.459c-0.141,0.797-0.848,2.08-1.355,2.668   c-0.508,0.596-0.426,1.398,0.918,2.727c0.928,0.916,1.514,1.418,2.115,1.77c0.057,0.025,0.113,0.059,0.174,0.076" stroke="#000000" stroke-width="0.25" g2gstroke="#312783" stroke-miterlimit="10"/>
<path orgstroke="#000000" orgfill="none" stroke-linecap="round" fill="none" d="M568.57,227.311   l0.92,0.529c0.215,0.127,0.568,0.172,0.875-0.012l5.98-3.473l0.205-0.121c0.266-0.152,2.926,0.291,4.006-0.699   c1.082-1,0.998-2.395,2.014-3.031c0.938-0.59,3.93-0.197,5.309-0.688" stroke="#000000" stroke-width="0.25" g2gstroke="#312783" stroke-miterlimit="10"/>
<path orgstroke="#000000" orgfill="none" stroke-linecap="round" fill="none" d="M583.3419799804688 229.281005859375L584.5759887695312 229.99600219726562" stroke="#000000" stroke-width="0.25" g2gstroke="#312783" stroke-miterlimit="10"/>
<path orgstroke="#000000" orgfill="none" stroke-linecap="round" fill="none" d="M575.1500244140625 223.32200622558594L576.551025390625 224.12899780273438" stroke="#000000" stroke-width="0.25" g2gstroke="#312783" stroke-miterlimit="10"/>
<path orgstroke="#000000" orgfill="none" stroke-linecap="round" fill="none" d="M580.6409912109375 219.8159942626953L582.0349731445312 220.625" stroke="#000000" stroke-width="0.25" g2gstroke="#312783" stroke-miterlimit="10"/>
<path orgstroke="#000000" orgfill="none" stroke-linecap="round" fill="none" d="M589.5,226.396   c0.004,0.24-0.092,0.434-0.244,0.523c-0.428,0.248-4.434,2.203-4.801,3.416c-0.373,1.211-1.838,7.736-1.695,9.014   c0.051,0.473,0.094,0.775,0.18,0.951" stroke="#000000" stroke-width="0.25" g2gstroke="#312783" stroke-miterlimit="10"/>
<path orgstroke="#000000" orgfill="none" stroke-linecap="round" fill="none" d="M587.941,226.582   c0.045-0.594,0.104-1.578,0.135-2.162" stroke="#000000" stroke-width="0.25" g2gstroke="#312783" stroke-miterlimit="10"/>
<path orgstroke="#000000" orgfill="none" stroke-linecap="round" fill="none" d="M587.992,225.354   c0.334,0.182,0.764,0.803,0.334,1.053c-0.426,0.248-4.832,1.873-5.195,3.088c-0.365,1.211-1.73,7.912-1.592,9.184   c0.078,0.734,0.098,0.973,0.375,1.15l0.771,0.445c0.172,0.096,0.457,0.178,0.598,0.096l0.385-0.23   c0.133-0.078,0.234-0.129,0.234-0.387c0-0.848,0.082-3.633,1.537-8.438c0.227-0.75,2.029-1.836,3.316-2.592" stroke="#000000" stroke-width="0.25" g2gstroke="#312783" stroke-miterlimit="10"/>
<path orgstroke="#000000" orgfill="none" stroke-linecap="round" fill="none" d="M584.0120239257812 239.25599670410156L585.6190185546875 238.31399536132812" stroke="#000000" stroke-width="0.25" g2gstroke="#312783" stroke-miterlimit="10"/>
<path orgstroke="#000000" orgfill="none" stroke-linecap="round" fill="none" d="M587.115,222.143   l-1.563-1.002c-0.191-0.115-0.449-0.125-0.752-0.006c-0.732,0.297-1.434,1.271-1.561,2.184c-0.078,0.512,0.051,0.893,0.301,1.074   l1.666,1.051" stroke="#000000" stroke-width="0.25" g2gstroke="#312783" stroke-miterlimit="10"/>
<path orgstroke="#000000" orgfill="none" stroke-linecap="round" fill="none" d="M587.492,223.254   c-0.129,0.904-0.822,1.883-1.564,2.184c-0.736,0.301-1.229-0.195-1.104-1.105c0.129-0.902,0.826-1.879,1.564-2.182   C587.131,221.857,587.619,222.35,587.492,223.254z" stroke="#000000" stroke-width="0.25" g2gstroke="#312783" stroke-miterlimit="10"/>
<path orgstroke="#000000" orgfill="none" stroke-linecap="round" fill="none" d="M579.809,228.518   l-1.725-1.109c-0.158-0.086-0.369-0.098-0.611-0.002c-0.598,0.242-1.168,1.045-1.273,1.781c-0.064,0.418,0.041,0.727,0.25,0.875   l1.816,1.154" stroke="#000000" stroke-width="0.25" g2gstroke="#312783" stroke-miterlimit="10"/>
<path orgstroke="#000000" orgfill="none" stroke-linecap="round" fill="none" d="M580.117,229.424   c-0.1,0.744-0.668,1.535-1.27,1.777c-0.598,0.238-1.002-0.164-0.898-0.898c0.107-0.746,0.676-1.537,1.277-1.777   C579.822,228.279,580.227,228.688,580.117,229.424z" stroke="#000000" stroke-width="0.25" g2gstroke="#312783" stroke-miterlimit="10"/>
<path orgstroke="#000000" orgfill="none" stroke-linecap="round" fill="none" d="M578.652,226.553   l-1.568-0.98c-0.266-0.158-0.621-0.176-1.035-0.01c-1.008,0.404-1.977,1.75-2.146,3c-0.104,0.703,0.078,1.223,0.422,1.473   l1.707,1.053" stroke="#000000" stroke-width="0.25" g2gstroke="#312783" stroke-miterlimit="10"/>
<path orgstroke="#000000" orgfill="none" stroke-linecap="round" fill="none" d="M577.561,230.775   c-0.176,0.127-0.357,0.23-0.539,0.309c-1.014,0.408-1.689-0.271-1.516-1.518c0.178-1.25,1.143-2.588,2.146-2.998   c1.016-0.41,1.695,0.271,1.518,1.514" stroke="#000000" stroke-width="0.25" g2gstroke="#312783" stroke-miterlimit="10"/>
<path orgstroke="#000000" orgfill="none" stroke-linecap="round" fill="none" d="M577.994,246.705   c0-1.35,0-3.848,0-4.738c0-0.893,0.039-1.801,0.648-2.818c0.617-1.016,1.209-1.824,1.674-2.033   c0.465-0.213,1.313-0.697,1.313-0.697" stroke="#000000" stroke-width="0.25" g2gstroke="#312783" stroke-miterlimit="10"/>
<path orgstroke="#000000" orgfill="none" stroke-linecap="round" fill="none" d="M580.4730224609375 244.2169952392578L580.4730224609375 239.65199279785156" stroke="#000000" stroke-width="0.25" g2gstroke="#312783" stroke-miterlimit="10"/>
</g>
</g>
</g>
</g></svg>