<svg xmlns="http://www.w3.org/2000/svg" xmlns:xlink="http://www.w3.org/1999/xlink" xmlns:etg="http://www.eurotaxglass.com/etg/evd/" etg:dataTimestamp="1539068912893" contentScriptType="text/ecmascript" zoomAndPan="magnify" contentStyleType="text/css" id="Layer_1" enable-background="new 0 0 1841.891 1595.279" version="1.1" width="1841.891px" xml:space="preserve" preserveAspectRatio="xMidYMid meet" viewBox="0 0 1841.891 1595.279" height="1595.279px" x="0px" y="0px"><g xmlns="http://www.w3.org/2000/svg" objecttype="PS" tooltip="#UNDEFINED" id="5">
<g onmouseover="notifyOwner(AGV_OBJECT_MOUSEOVER, '5(PS)')" onclick="clickZoom(evt); notifyOwner(AGV_OBJECT_MOUSECLICK, '5(PS)')" onmouseout="notifyOwner(AGV_OBJECT_MOUSEOUT, '5(PS)')" tooltip="#UNDEFINED" id="5-Graphic" objecttype="GRAPHIC">
<g>
	<path orgstroke="#000000" orgfill="#ffffff" stroke-linecap="round" fill="#ffffff" g2gfill="#ECF5E4" d="M358.563,331.01   c-0.31-0.815-1.627-1.438-3.219-1.438c-1.679,0-3.068,0.688-3.263,1.574l-0.026,0.215v48.926l0.04,0.296   c0.258,0.854,1.615,1.495,3.249,1.495c1.608,0,2.947-0.629,3.232-1.467l0.054-0.324V331.36" outline-element="true" stroke="#000000" stroke-width="0.5" g2gstroke="#312783"/>
	<path orgstroke="#000000" stroke-linecap="round" orgfill="none" fill="none" d="M358.577,373.726   c-0.286,0.833-1.621,1.462-3.232,1.462c-1.627,0-2.983-0.646-3.248-1.495" stroke="#000000" stroke-width="0.25" g2gstroke="#312783"/>
	<path orgstroke="#000000" stroke-linecap="round" orgfill="none" fill="none" d="M358.369,332.055   c-0.501,0.646-1.685,1.095-3.03,1.095c-1.361,0-2.531-0.445-3.033-1.095" stroke="#000000" stroke-width="0.25" g2gstroke="#312783"/>
</g>
</g>
</g></svg>