<svg xmlns="http://www.w3.org/2000/svg" xmlns:xlink="http://www.w3.org/1999/xlink" xmlns:etg="http://www.eurotaxglass.com/etg/evd/" etg:dataTimestamp="1539068912893" contentScriptType="text/ecmascript" zoomAndPan="magnify" contentStyleType="text/css" id="Layer_1" enable-background="new 0 0 1841.891 1595.279" version="1.1" width="1841.891px" xml:space="preserve" preserveAspectRatio="xMidYMid meet" viewBox="0 0 1841.891 1595.279" height="1595.279px" x="0px" y="0px"><g xmlns="http://www.w3.org/2000/svg" objecttype="PS" tooltip="#UNDEFINED" id="6">
<g onmouseover="notifyOwner(AGV_OBJECT_MOUSEOVER, '6(PS)')" onclick="clickZoom(evt); notifyOwner(AGV_OBJECT_MOUSECLICK, '6(PS)')" onmouseout="notifyOwner(AGV_OBJECT_MOUSEOUT, '6(PS)')" tooltip="#UNDEFINED" id="6-Graphic" objecttype="GRAPHIC">
<g>
	<path orgstroke="#000000" orgfill="#ffffff" stroke-linecap="round" fill="#ffffff" g2gfill="#ECF5E4" d="M243.235,266.726l-2.313,0.721l-1.854,0.821   l-1.021,1.438l-0.821,1.854l0.205,2.67l1.233,2.671l1.849,2.671l1.229,3.081v11.71l-0.764,3.508l-1.913,3.479l-0.777,1.415   l-0.181,2.372l1.162,1.958l0.797,0.452l3.521,2.013l0.479,0.58c0.039,0.963,0.104,1.924,0.146,2.886   c0.449,0.271,0.915,0.545,1.367,0.819l2.558,1.543c26.277,15.967,54.363,35.165,80.552,50.784l0.473,0.271l1.193,0.714   c1.249,0.738,2.491,1.479,3.73,2.188c0.883,0.514,1.515,0.426,2.159,0.291c0.103-0.072,0.202-0.146,0.308-0.216   c0.59-0.21,1.149-0.507,1.691-0.819l0.981-0.58c0.526-0.31,1.063-0.604,1.646-0.823c0.475-0.663,0.604-1.428,0.626-2.225   l0.552-0.609c0.968-0.229,1.68-0.721,1.87-1.313l0.047-0.313v-7.646l0.563-0.582l2.732,0.545l1.714,0.344l0.546-0.146l0.76-0.41   l0.063-0.822l0.071-3.354l-0.146-0.479l-0.27-0.342l-5.895-1.302l-0.146-0.348v-19.55l0.287-0.604l0.411-0.067l2.737,0.548   l1.712,0.351l0.552-0.146l0.751-0.411l0.067-0.815l0.063-3.354l-0.139-0.479l-0.271-0.349l-5.891-1.3l-0.286-0.313v-7.894   l-0.02-0.181c-0.104-0.586-0.743-1.093-1.646-1.372l-0.723-0.217l-0.583-0.07l-0.648-0.069l-0.479,0.036l-0.41-0.137l-0.165-0.302   c-0.216-0.992-0.612-1.938-1.357-2.771c-29.803-16.455-59.021-33.899-89.053-49.951l-1.853-0.968l-0.409-0.077l-0.362,0.048   l-0.623,0.354c-0.652,0.438-1.271,0.888-1.741,1.267c-0.028,0.104-0.062,0.207-0.096,0.313c0.033,2.111,0.048,4.234,0.055,6.359   L243.235,266.726z" outline-element="true" stroke="#000000" stroke-width="0.5" g2gstroke="#312783"/>
	<path orgstroke="#000000" stroke-linecap="round" orgfill="none" fill="none" d="M252.192,264.365   c-2.792-1.545-5.588-3.083-8.387-4.623" stroke="#000000" stroke-width="0.25" g2gstroke="#312783"/>
	<path orgstroke="#000000" stroke-linecap="round" orgfill="none" fill="none" d="M261.193,269.363   c-0.771-0.438-1.545-0.863-2.313-1.294" stroke="#000000" stroke-width="0.25" g2gstroke="#312783"/>
	<path orgstroke="#000000" stroke-linecap="round" orgfill="none" fill="none" d="M336.542,369.432   c-0.071-0.104-0.146-0.206-0.215-0.313c-0.183-12.125-0.104-28.385-0.104-41.896c0-5.651,0.729-10.854-0.995-15.719   c-23.854-13.694-47.829-27.504-71.877-40.938" stroke="#000000" stroke-width="0.25" g2gstroke="#312783"/>
	<path orgstroke="#000000" stroke-linecap="round" orgfill="none" fill="none" d="M321.113,306.68   c3.811,2.197,7.599,4.412,11.439,6.505c0.414,0.353,0.604,0.769,0.855,1.173c0.172,17.001,0.021,34.021,0.063,51.024" stroke="#000000" stroke-width="0.25" g2gstroke="#312783"/>
	<path orgstroke="#000000" stroke-linecap="round" orgfill="none" fill="none" d="M333.472,365.385   c-28.937-17.879-57.964-35.777-86.796-53.794c0.011-15.554-0.491-31.475,0.247-46.813c15.616,8.496,31.37,17.277,46.729,26.247" stroke="#000000" stroke-width="0.25" g2gstroke="#312783"/>
	
		<line orgstroke="#000000" orgfill="none" stroke-linecap="round" fill="none" x1="292.978" x2="321.113" y1="290.79" y2="306.68" stroke="#000000" stroke-width="0.25" g2gstroke="#312783"/>
	
		<line orgstroke="#000000" orgfill="none" stroke-linecap="round" fill="none" x1="300.369" x2="330.056" y1="298.344" y2="315.395" stroke="#000000" stroke-width="0.25" g2gstroke="#312783"/>
	
		<line orgstroke="#000000" orgfill="none" stroke-linecap="round" fill="none" x1="279.629" x2="293.985" y1="286.429" y2="294.674" stroke="#000000" stroke-width="0.25" g2gstroke="#312783"/>
	
		<line orgstroke="#000000" orgfill="none" stroke-linecap="round" fill="none" x1="304.06" x2="330.056" y1="304.079" y2="319.01" stroke="#000000" stroke-width="0.25" g2gstroke="#312783"/>
	
		<line orgstroke="#000000" orgfill="none" stroke-linecap="round" fill="none" x1="297.756" x2="304.06" y1="300.469" y2="304.079" stroke="#000000" stroke-width="0.25" g2gstroke="#312783"/>
	
		<line orgstroke="#000000" orgfill="none" stroke-linecap="round" fill="none" x1="281.683" x2="297.756" y1="291.223" y2="300.469" stroke="#000000" stroke-width="0.25" g2gstroke="#312783"/>
	
		<line orgstroke="#000000" orgfill="none" stroke-linecap="round" fill="none" x1="301.377" x2="330.056" y1="306.187" y2="322.659" stroke="#000000" stroke-width="0.25" g2gstroke="#312783"/>
	
	
		<line orgstroke="#000000" orgfill="none" stroke-linecap="round" fill="none" x1="281.858" x2="296.052" y1="294.977" y2="303.135" stroke="#000000" stroke-width="0.25" g2gstroke="#312783"/>
	
		<line orgstroke="#000000" orgfill="none" stroke-linecap="round" fill="none" x1="283.133" x2="330.056" y1="299.322" y2="326.276" stroke="#000000" stroke-width="0.25" g2gstroke="#312783"/>
	
		<line orgstroke="#000000" orgfill="none" stroke-linecap="round" fill="none" x1="302.343" x2="330.056" y1="314.51" y2="330.415" stroke="#000000" stroke-width="0.25" g2gstroke="#312783"/>
	
	
		<line orgstroke="#000000" orgfill="none" stroke-linecap="round" fill="none" x1="284.596" x2="296.46" y1="304.306" y2="311.123" stroke="#000000" stroke-width="0.25" g2gstroke="#312783"/>
	
		<line orgstroke="#000000" orgfill="none" stroke-linecap="round" fill="none" x1="316.583" x2="330.056" y1="326.302" y2="334.034" stroke="#000000" stroke-width="0.25" g2gstroke="#312783"/>
	
	
		<line orgstroke="#000000" orgfill="none" stroke-linecap="round" fill="none" x1="285.997" x2="312.924" y1="308.729" y2="324.199" stroke="#000000" stroke-width="0.25" g2gstroke="#312783"/>
	
		<line orgstroke="#000000" orgfill="none" stroke-linecap="round" fill="none" x1="307.013" x2="330.056" y1="324.448" y2="337.692" stroke="#000000" stroke-width="0.25" g2gstroke="#312783"/>
	
	
		<line orgstroke="#000000" orgfill="none" stroke-linecap="round" fill="none" x1="286.639" x2="301.494" y1="312.747" y2="321.282" stroke="#000000" stroke-width="0.25" g2gstroke="#312783"/>
	
		<line orgstroke="#000000" orgfill="none" stroke-linecap="round" fill="none" x1="303.968" x2="330.056" y1="326.605" y2="341.895" stroke="#000000" stroke-width="0.25" g2gstroke="#312783"/>
	
		<line orgstroke="#000000" orgfill="none" stroke-linecap="round" fill="none" x1="301.794" x2="303.968" y1="325.326" y2="326.605" stroke="#000000" stroke-width="0.25" g2gstroke="#312783"/>
	
		<line orgstroke="#000000" orgfill="none" stroke-linecap="round" fill="none" x1="288.111" x2="301.794" y1="317.309" y2="325.326" stroke="#000000" stroke-width="0.25" g2gstroke="#312783"/>
	
		<line orgstroke="#000000" orgfill="none" stroke-linecap="round" fill="none" x1="312.672" x2="329.543" y1="335.437" y2="345.387" stroke="#000000" stroke-width="0.25" g2gstroke="#312783"/>
	
	
		<line orgstroke="#000000" orgfill="none" stroke-linecap="round" fill="none" x1="289.144" x2="307.914" y1="321.552" y2="332.635" stroke="#000000" stroke-width="0.25" g2gstroke="#312783"/>
	
		<line orgstroke="#000000" orgfill="none" stroke-linecap="round" fill="none" x1="303.06" x2="329.543" y1="333.557" y2="349.386" stroke="#000000" stroke-width="0.25" g2gstroke="#312783"/>
	
	
		<line orgstroke="#000000" orgfill="none" stroke-linecap="round" fill="none" x1="290.29" x2="298.682" y1="325.927" y2="330.943" stroke="#000000" stroke-width="0.25" g2gstroke="#312783"/>
	
		<line orgstroke="#000000" orgfill="none" stroke-linecap="round" fill="none" x1="308.021" x2="329.543" y1="340.319" y2="353.29" stroke="#000000" stroke-width="0.25" g2gstroke="#312783"/>
	
	
		<line orgstroke="#000000" orgfill="none" stroke-linecap="round" fill="none" x1="290.627" x2="303.269" y1="329.844" y2="337.453" stroke="#000000" stroke-width="0.25" g2gstroke="#312783"/>
	
		<line orgstroke="#000000" orgfill="none" stroke-linecap="round" fill="none" x1="308.166" x2="329.543" y1="344.602" y2="357.927" stroke="#000000" stroke-width="0.25" g2gstroke="#312783"/>
	
	
		<line orgstroke="#000000" orgfill="none" stroke-linecap="round" fill="none" x1="292.513" x2="303.576" y1="334.846" y2="341.741" stroke="#000000" stroke-width="0.25" g2gstroke="#312783"/>
	<path orgstroke="#000000" stroke-linecap="round" orgfill="none" fill="none" d="M341.447,364.495   c-0.233,0.036-0.509,0.06-0.771,0.06c-1.666,0-3.046-0.688-3.253-1.563" stroke="#000000" stroke-width="0.25" g2gstroke="#312783"/>
	<path orgstroke="#000000" stroke-linecap="round" orgfill="none" fill="none" d="M343.559,314.702   c-0.563,0.561-1.637,0.935-2.884,0.935c-1.813,0-3.287-0.807-3.287-1.795c0-0.986,1.473-1.789,3.287-1.789   c0.061,0,0.122,0,0.18,0.002" stroke="#000000" stroke-width="0.25" g2gstroke="#312783"/>
	
		<line orgstroke="#000000" orgfill="none" stroke-linecap="round" fill="none" x1="337.388" x2="337.388" y1="355.405" y2="362.76" stroke="#000000" stroke-width="0.25" g2gstroke="#312783"/>
	
		<line orgstroke="#000000" orgfill="none" stroke-linecap="round" fill="none" x1="337.388" x2="337.388" y1="328.873" y2="348.76" stroke="#000000" stroke-width="0.25" g2gstroke="#312783"/>
	
		<line orgstroke="#000000" orgfill="none" stroke-linecap="round" fill="none" x1="337.388" x2="337.388" y1="313.844" y2="322.024" stroke="#000000" stroke-width="0.25" g2gstroke="#312783"/>
	<polyline orgstroke="#000000" stroke-linecap="round" orgfill="none" points="337.54,322.642 338.362,323.326    339.456,323.532 340.894,323.532 341.854,323.395 342.47,323.19 343.703,322.437  " fill="none" stroke="#000000" stroke-width="0.25" g2gstroke="#312783"/>
	<polyline orgstroke="#000000" stroke-linecap="round" orgfill="none" points="336.316,323.19 337.469,324.011    338.978,324.427 340.211,324.635 341.854,324.427 343.36,324.081 344.249,323.532 344.659,323.469 347.401,324.011    349.112,324.353  " fill="none" stroke="#000000" stroke-width="0.25" g2gstroke="#312783"/>
	<polyline orgstroke="#000000" stroke-linecap="round" orgfill="none" points="337.469,328.539 338.978,328.95    340.211,329.155 341.854,328.95 343.36,328.608 343.806,328.332  " fill="none" stroke="#000000" stroke-width="0.25" g2gstroke="#312783"/>
	
		<line orgstroke="#000000" orgfill="none" stroke-linecap="round" fill="none" x1="336.316" x2="337.469" y1="327.719" y2="328.539" stroke="#000000" stroke-width="0.25" g2gstroke="#312783"/>
	<polyline orgstroke="#000000" stroke-linecap="round" orgfill="none" points="349.112,328.885 349.112,324.353    349.112,324.353 350.285,323.517  " fill="none" stroke="#000000" stroke-width="0.25" g2gstroke="#312783"/>
	
		<ellipse orgstroke="#000000" orgfill="none" stroke-linecap="round" transform="matrix(0.661 0.7503 -0.7503 0.661 362.2451 -149.4897)" fill="none" rx="1.438" cx="346.587" cy="326.21" ry="1.017" stroke="#000000" stroke-width="0.25" g2gstroke="#312783"/>
	<polyline orgstroke="#000000" stroke-linecap="round" orgfill="none" points="337.396,349.177 338.218,349.853    339.315,350.059 340.753,350.059 341.71,349.927 342.326,349.719 343.559,348.969  " fill="none" stroke="#000000" stroke-width="0.25" g2gstroke="#312783"/>
	<polyline orgstroke="#000000" stroke-linecap="round" orgfill="none" points="336.176,349.719 337.328,350.539    338.834,350.95 340.066,351.155 341.71,350.95 343.219,350.608 344.108,350.059 344.518,349.992 347.257,350.539 348.97,350.885     " fill="none" stroke="#000000" stroke-width="0.25" g2gstroke="#312783"/>
	<polyline orgstroke="#000000" stroke-linecap="round" orgfill="none" points="337.328,355.066 338.834,355.477    340.066,355.682 341.71,355.477 343.219,355.135 343.714,354.829  " fill="none" stroke="#000000" stroke-width="0.25" g2gstroke="#312783"/>
	
		<line orgstroke="#000000" orgfill="none" stroke-linecap="round" fill="none" x1="336.176" x2="337.328" y1="354.245" y2="355.066" stroke="#000000" stroke-width="0.25" g2gstroke="#312783"/>
	<polyline orgstroke="#000000" stroke-linecap="round" orgfill="none" points="348.97,355.408 348.97,350.885    348.97,350.885 350.145,350.052  " fill="none" stroke="#000000" stroke-width="0.25" g2gstroke="#312783"/>
	
		<ellipse orgstroke="#000000" orgfill="none" stroke-linecap="round" transform="matrix(0.6622 0.7493 -0.7493 0.6622 381.2747 -140.3261)" fill="none" rx="1.44" cx="346.275" cy="352.715" ry="1.02" stroke="#000000" stroke-width="0.25" g2gstroke="#312783"/>
	<path orgstroke="#000000" stroke-linecap="round" orgfill="none" fill="none" d="M243.861,266.729   c0.029,14.271-0.396,28.643,0.188,42.833" stroke="#000000" stroke-width="0.25" g2gstroke="#312783"/>
	<polyline orgstroke="#000000" stroke-linecap="round" orgfill="none" points="243.058,296.843 242.846,297.813    241.026,301.116 240.277,302.469 240.123,304.72 241.223,306.578 241.983,307.018 243.812,308.06  " fill="none" stroke="#000000" stroke-width="0.25" g2gstroke="#312783"/>
	
	<polyline orgstroke="#000000" stroke-linecap="round" orgfill="none" points="243.398,299.532 242.795,300.633    242.045,301.976 241.886,304.233 242.99,306.094 243.751,306.529  " fill="none" stroke="#000000" stroke-width="0.25" g2gstroke="#312783"/>
	<polyline orgstroke="#000000" stroke-linecap="round" orgfill="none" points="243.348,268.069 242.816,268.233    241.061,269.013 240.086,270.381 239.304,272.136 239.502,274.674 240.67,277.211 242.426,279.747 243.212,281.716  " fill="none" stroke="#000000" stroke-width="0.25" g2gstroke="#312783"/>
</g>
</g>
</g></svg>