<svg xmlns="http://www.w3.org/2000/svg" xmlns:xlink="http://www.w3.org/1999/xlink" xmlns:etg="http://www.eurotaxglass.com/etg/evd/" etg:dataTimestamp="1539068912893" contentScriptType="text/ecmascript" zoomAndPan="magnify" contentStyleType="text/css" id="Capa_1" enable-background="new 0 0 1841.891 1595.279" version="1.1" xml:space="preserve" width="1841.891px" preserveAspectRatio="xMidYMid meet" viewBox="0 0 1841.891 1595.279" height="1595.279px" x="0px" y="0px"><g xmlns="http://www.w3.org/2000/svg" objecttype="PS" tooltip="#UNDEFINED" id="90">
<g onmouseover="notifyOwner(AGV_OBJECT_MOUSEOVER, '90(PS)')" transform="translate(30.298809631347638, 36.772926666259764) translate(-637.0022509266453, -53.86035292387896) translate(-92.3220836540138, 7.240947737569684) translate(539.5276378078531, -260.69612751219796) translate(-316.2438647816483, 57.78542379731107) translate(481.0, 219.0) translate(10.0, 10.00006103515625)" onclick="clickZoom(evt); notifyOwner(AGV_OBJECT_MOUSECLICK, '90(PS)')" onmouseout="notifyOwner(AGV_OBJECT_MOUSEOUT, '90(PS)')" tooltip="#UNDEFINED" id="90-Graphic" objecttype="GRAPHIC">
<g zvalue="2">
<g>
<path orgstroke="#000000" orgfill="#ffffff" fill="#ffffff" g2gfill="#ECF5E4" d="M621.106,190.408l-1.839,0.877   c-0.348,0.201-0.672,0.654-1.277,1.012c-3.167,1.566-7.102,3.719-7.57,3.988c-0.494,0.285-1.871,1.816-1.871,1.816   c-0.405,0.406-0.886,0.742-1.35,0.629c-0.463-0.113-0.542-0.17-1.023,0.166c-13.328,8.811-3.943,10.074-18.163,7.805   c-8.13-1.301-11.088-1.836-12.642-1.689c-1.274,0.119-2.893,1.574-3.069,1.676c-0.178,0.102-0.18,0.396-0.471,0.563   c-0.291,0.168-0.884,0.576-1.857,1.066c-5.622,2.756-8.993,4.215-10.176,4.725c-0.603,0.26-0.713,0.25-1.107,0.203   c-0.392-0.047-0.672-0.027-0.93,0.096l-0.772,0.367c-0.345,0.164-0.317,0.408-0.528,0.498c-0.484,0.207-0.668-0.057-0.877-0.418   c-0.114-0.199-0.237-0.488,0.288-0.746c0.526-0.258,0.509,0.213,0.765,0.064l0.891-0.459c0.396-0.182,0.684-0.846,1.123-1.039   c1.146-0.498,4.809-2.119,10.378-4.852c0.973-0.477,1.714-0.971,1.888-1.07c0.174-0.102,0.48,0.002,0.804-0.221   s1.782-1.557,3.034-1.654c1.508-0.119,4.416,0.439,12.521,1.727c14.252,2.277,4.781,1.002,18.266-7.875   c0.522-0.299,0.459-0.537,0.522-0.967s0.695-0.686,1.254-0.854c0,0,1.856-0.449,2.419-0.773c0.533-0.307,4.662-2.58,7.822-4.129   c0.422-0.244,1.006,0.064,1.517-0.23l1.494-0.703c0.313-0.182,0.838-0.445,0.735-0.834c-0.102-0.391-0.152-0.633,0.133-0.797   s0.563,0.236,0.697,0.643C622.27,189.425,621.962,190.001,621.106,190.408z" stroke="#000000" outline-element="true" stroke-width="0.5" g2gstroke="#312783" stroke-miterlimit="10"/>
<path orgstroke="#000000" orgfill="none" fill="none" d="M605.897,197.363   c0.414,0.053,1.054,0.686,0.76,1.197" stroke="#000000" stroke-width="0.25" g2gstroke="#312783" stroke-miterlimit="10"/>
<path orgstroke="#000000" orgfill="none" fill="none" d="M609.442,195.269   c0.414,0.053,1.054,0.688,0.76,1.197" stroke="#000000" stroke-width="0.25" g2gstroke="#312783" stroke-miterlimit="10"/>
<path orgstroke="#000000" orgfill="none" fill="none" d="M559.246,213.169   c0.021-0.621-0.291-1.209-0.966-1.408" stroke="#000000" stroke-width="0.25" g2gstroke="#312783" stroke-miterlimit="10"/>
<path orgstroke="#000000" orgfill="none" fill="none" d="M557.998,212.58c0,0,0.337,0.223,0.199,0.461" stroke="#000000" stroke-width="0.25" g2gstroke="#312783" stroke-miterlimit="10"/>
<path orgstroke="#000000" orgfill="none" fill="none" d="M570.828,205.738   c0.087-0.053,0.626,0.055,0.891,0.479s0.346,0.879,0.166,0.994" stroke="#000000" stroke-width="0.25" g2gstroke="#312783" stroke-miterlimit="10"/>
<path orgstroke="#000000" orgfill="none" fill="none" d="M571.719,205.464   c0.132-0.076,0.378,0.184,0.538,0.461s0.175,0.537,0.045,0.762" stroke="#000000" stroke-width="0.25" g2gstroke="#312783" stroke-miterlimit="10"/>
<path orgstroke="#000000" orgfill="none" fill="none" d="M606.392,196.244   c0.836,0.223,1.641,1.354,1.383,2.424" stroke="#000000" stroke-width="0.25" g2gstroke="#312783" stroke-miterlimit="10"/>
<path orgstroke="#000000" orgfill="none" fill="none" d="M617.894,190.81   c0.29,0.125,0.81,0.59,0.702,1.129" stroke="#000000" stroke-width="0.25" g2gstroke="#312783" stroke-miterlimit="10"/>
</g>
</g>
</g>
</g></svg>