<svg xmlns="http://www.w3.org/2000/svg" xmlns:xlink="http://www.w3.org/1999/xlink" xmlns:etg="http://www.eurotaxglass.com/etg/evd/" etg:dataTimestamp="1539068912893" contentScriptType="text/ecmascript" zoomAndPan="magnify" contentStyleType="text/css" id="Capa_1" enable-background="new 0 0 1841.891 1595.279" version="1.1" xml:space="preserve" width="1841.891px" preserveAspectRatio="xMidYMid meet" viewBox="0 0 1841.891 1595.279" height="1595.279px" x="0px" y="0px"><g xmlns="http://www.w3.org/2000/svg" objecttype="PS" tooltip="#UNDEFINED" id="97">
<g onmouseover="notifyOwner(AGV_OBJECT_MOUSEOVER, '97(PS)')" transform="translate(30.298809631347638, 36.772926666259764) translate(114.99710157319319, -78.19802906977134) translate(-640.3948482772679, -146.58193525295815) translate(481.0, 219.0) translate(10.0, 10.00006103515625)" onclick="clickZoom(evt); notifyOwner(AGV_OBJECT_MOUSECLICK, '97(PS)')" onmouseout="notifyOwner(AGV_OBJECT_MOUSEOUT, '97(PS)')" tooltip="#UNDEFINED" id="97-Graphic" objecttype="GRAPHIC">
<g zvalue="9">
<g>
<path orgstroke="#000000" orgfill="#ffffff" fill="#ffffff" g2gfill="#ECC35D" d="M218.788,316.516l2.187-1.16l0.23-0.059   l0.305,0.078c0,0,23.791,9.164,26.507,10.211c2.716,1.045,9.441,0.395,10.804-0.195c1.362-0.588,36.422-16.824,36.422-16.824   c0.695-0.322,1.094-0.229,1.79,0.197c0.271,0.166,0.875,0.666,1.135,0.924c0.62,0.613,0.91,1.055,0.91,1.863l0.071,4.441   c0,0.854-0.123,1.568-0.808,1.963c-2.302,1.33-30.422,15.316-32.208,15.869c-4.841,1.5-9.593,0.83-14.301-0.811   c-2.777-0.967-11.587-4.551-13.307-5.123l-0.299-0.125l-0.171-0.141l-0.129-0.287l-0.15-0.834l-0.192-0.188l-0.555-0.217   l-0.068-0.061c0,0-12.573-5.736-12.876-5.912c-0.303-0.174-0.304-0.203-0.546-0.027c-0.431,0.311-1.419,0.873-1.976,1.283   c-0.483,0.357-0.627,0.367-1.298-0.021c0,0-0.431-0.244-0.75-0.428c-0.319-0.186-0.638-0.563-0.687-0.857   c-0.034-0.211-0.573-1.658-0.711-2.334C217.995,317.137,218.229,316.813,218.788,316.516z" stroke="#000000" outline-element="true" stroke-width="0.5" g2gstroke="#312783" stroke-miterlimit="10"/>
<path orgstroke="#000000" orgfill="none" fill="none" d="M221.414,315.209c0,0,0.51,2.254,0.682,2.947   c0.096,0.385,0.14,0.971,0.62,1.248s0.966,0.607,0.966,0.607" stroke="#000000" stroke-width="0.25" g2gstroke="#312783" stroke-miterlimit="10"/>
<path orgstroke="#000000" orgfill="none" fill="none" d="M223.474,320.289   c0.51-0.959,0.382-1.23,0.25-1.84c-0.088-0.408,0.179-0.834,1.044-0.516c3.332,1.23,11.751,4.496,12.446,4.799c0.462,0.199,0,0,0,0   c0.375,0.217,0.572,0.428,0.626,0.771c0.054,0.342,0.146,0.697,0.442,0.85c0.657,0.34,10.014,3.732,10.663,3.953   c2.612,0.893,7.798,1.199,10.803-0.189s38.704-17.752,38.704-17.752" stroke="#000000" stroke-width="0.25" g2gstroke="#312783" stroke-miterlimit="10"/>
<path orgstroke="#000000" orgfill="none" fill="none" d="M237.927001953125 323.89801025390625L237.9600067138672 327.3949890136719" stroke="#000000" stroke-width="0.25" g2gstroke="#312783" stroke-miterlimit="10"/>
<path orgstroke="#000000" orgfill="none" fill="none" d="M222.2480010986328 318.77899169921875L219.1719970703125 320.6579895019531" stroke="#000000" stroke-width="0.25" g2gstroke="#312783" stroke-miterlimit="10"/>
</g>
</g>
</g>
</g></svg>