<svg xmlns="http://www.w3.org/2000/svg" xmlns:xlink="http://www.w3.org/1999/xlink" xmlns:etg="http://www.eurotaxglass.com/etg/evd/" etg:dataTimestamp="1539068912893" contentScriptType="text/ecmascript" zoomAndPan="magnify" contentStyleType="text/css" id="Layer_1" enable-background="new 0 0 1841.891 1595.279" version="1.1" width="1841.891px" xml:space="preserve" preserveAspectRatio="xMidYMid meet" viewBox="0 0 1841.891 1595.279" height="1595.279px" x="0px" y="0px"><g xmlns="http://www.w3.org/2000/svg" objecttype="PS" tooltip="#UNDEFINED" id="10">
<g onmouseover="notifyOwner(AGV_OBJECT_MOUSEOVER, '10(PS)')" transform="translate(-4.0000032348633, -8.791041992187502) translate(67.47015438842772, -31.428020141601564)" onclick="clickZoom(evt); notifyOwner(AGV_OBJECT_MOUSECLICK, '10(PS)')" onmouseout="notifyOwner(AGV_OBJECT_MOUSEOUT, '10(PS)')" tooltip="#UNDEFINED" id="10-Graphic" objecttype="GRAPHIC">
<g>
	<g id="8::Juego_de_pastillas_de_freno">
		<path orgstroke="#000000" orgfill="#ffffff" fill="#ffffff" g2gfill="#ECF5E4" stroke-linejoin="round" d="M525.656,489.69    c0.521,0.366,1.75,0.256,2.49,0.441c0.404,0.102,1.104,0.344,1.707,0.438v0.547l1.681,0.896l0.003,0.521    c0,0,0.291,0.843,0.521,1.004l1.561,0.813c0.521,0.366,1.75,0.256,2.49,0.438c0.625,0.156,1.964,0.653,2.541,0.406    c1.008-0.431,1.408-2.989,2.078-3.854c0.56-0.729,1.697-1.448,2.146-2.036c0.198-0.267,0.536-1.189,0.536-1.189l-0.021-19.833    l-1.563-0.81c0,0-0.729-0.081-1.349-0.229c-0.6-0.438-1.288-0.979-1.896-1.211l0.104,0.042l-2.137-0.969v0.003    c-0.145-0.008-0.271,0.009-0.39,0.063c-0.279,0.112-0.521,0.379-0.732,0.721l0.003,0.002l-0.003-2.271l-1.563-0.811    c0,0-0.729-0.083-1.35-0.225h-0.001c-0.566-0.424-1.209-0.92-1.787-1.17l-0.006-0.004l-2.145-0.97v0.003    c-0.137-0.01-0.265,0.012-0.382,0.063c-1.287,0.536-1.668,3.917-2.659,4.896c-0.419,0.416-2.089,1.104-2.089,1.104l0.121,21.362    c0,0,0.292,0.844,0.521,1.007L525.656,489.69z" outline-element="true" stroke="#000000" stroke-width="0.5" g2gstroke="#312783" stroke-miterlimit="10"/>
		<path orgstroke="#000000" orgfill="none" fill="none" stroke-linejoin="round" d="M540.476,467.246    c0.347,0.264,0.661,0.483,0.917,0.607c0.531,0.259,1.994,0.424,1.994,0.424" stroke="#000000" stroke-width="0.25" g2gstroke="#312783" stroke-miterlimit="10"/>
		<path orgstroke="#000000" orgfill="none" fill="none" stroke-linejoin="round" d="M533.615,494.345    c-0.229-0.165-0.521-1.004-0.521-1.004l-0.121-21.366c0,0,1.67-0.688,2.089-1.104c0.993-0.979,1.373-4.355,2.659-4.896    c0.246-0.104,0.541-0.063,0.854,0.058" stroke="#000000" stroke-width="0.25" g2gstroke="#312783" stroke-miterlimit="10"/>
		<path orgstroke="#000000" orgfill="none" fill="none" stroke-linejoin="round" d="M531.531,492.01    l-0.119-20.837c0,0,1.673-0.688,2.097-1.104c0.771-0.763,1.174-2.979,1.92-4.176" stroke="#000000" stroke-width="0.25" g2gstroke="#312783" stroke-miterlimit="10"/>
		
			<line orgstroke="#000000" orgfill="none" fill="none" x1="527.698" x2="526.231" y1="489.286" y2="488.721" stroke-linejoin="round" stroke="#000000" stroke-width="0.25" g2gstroke="#312783" stroke-miterlimit="10"/>
		
			<line orgstroke="#000000" orgfill="none" fill="none" x1="527.698" x2="526.231" y1="469.988" y2="469.26" stroke-linejoin="round" stroke="#000000" stroke-width="0.25" g2gstroke="#312783" stroke-miterlimit="10"/>
		
			<line orgstroke="#000000" orgfill="none" fill="none" x1="534.849" x2="533.562" y1="465.76" y2="464.863" stroke-linejoin="round" stroke="#000000" stroke-width="0.25" g2gstroke="#312783" stroke-miterlimit="10"/>
		
			<line orgstroke="#000000" orgfill="none" fill="none" x1="529.854" x2="534.075" y1="471.571" y2="469.135" stroke-linejoin="round" stroke="#000000" stroke-width="0.25" g2gstroke="#312783" stroke-miterlimit="10"/>
		
			<line orgstroke="#000000" orgfill="none" fill="none" x1="526.231" x2="533.562" y1="469.094" y2="464.863" stroke-linejoin="round" stroke="#000000" stroke-width="0.25" g2gstroke="#312783" stroke-miterlimit="10"/>
		
			<line orgstroke="#000000" orgfill="none" fill="none" x1="527.519" x2="534.849" y1="469.988" y2="465.76" stroke-linejoin="round" stroke="#000000" stroke-width="0.25" g2gstroke="#312783" stroke-miterlimit="10"/>
		
			<line orgstroke="#000000" orgfill="none" fill="none" x1="532.976" x2="531.408" y1="471.975" y2="471.174" stroke-linejoin="round" stroke="#000000" stroke-width="0.25" g2gstroke="#312783" stroke-miterlimit="10"/>
		
			<line orgstroke="#000000" orgfill="none" fill="none" x1="531.408" x2="529.854" y1="472.385" y2="471.571" stroke-linejoin="round" stroke="#000000" stroke-width="0.25" g2gstroke="#312783" stroke-miterlimit="10"/>
		<path orgstroke="#000000" orgfill="none" fill="none" stroke-linejoin="round" d="M536.185,484.609    c-0.946,0.546-1.715-0.034-1.714-1.294c0-1.264,0.768-2.729,1.714-3.273c0.945-0.547,1.714,0.031,1.714,1.3    C537.896,482.597,537.131,484.063,536.185,484.609z" stroke="#000000" stroke-width="0.25" g2gstroke="#312783" stroke-miterlimit="10"/>
		
			<line orgstroke="#000000" orgfill="none" fill="none" x1="526.231" x2="526.231" y1="488.721" y2="469.177" stroke-linejoin="round" stroke="#000000" stroke-width="0.25" g2gstroke="#312783" stroke-miterlimit="10"/>
		<path orgstroke="#000000" orgfill="none" fill="none" stroke-linejoin="round" d="M532.511,462.594    c0.347,0.258,0.663,0.479,0.918,0.604c0.532,0.267,1.995,0.429,1.995,0.429" stroke="#000000" stroke-width="0.25" g2gstroke="#312783" stroke-miterlimit="10"/>
		<path orgstroke="#000000" orgfill="none" fill="none" stroke-linejoin="round" d="M525.656,489.69    c-0.229-0.164-0.521-1.004-0.521-1.004l-0.122-21.365c0,0,1.67-0.688,2.09-1.103c0.992-0.979,1.373-4.362,2.659-4.896    c0.271-0.106,0.604-0.055,0.965,0.104" stroke="#000000" stroke-width="0.25" g2gstroke="#312783" stroke-miterlimit="10"/>
		
			<line orgstroke="#000000" orgfill="none" fill="none" x1="525.013" x2="523.448" y1="467.321" y2="466.513" stroke-linejoin="round" stroke="#000000" stroke-width="0.25" g2gstroke="#312783" stroke-miterlimit="10"/>
		
			<line orgstroke="#000000" orgfill="none" fill="none" x1="534.849" x2="534.849" y1="465.76" y2="467.113" stroke-linejoin="round" stroke="#000000" stroke-width="0.25" g2gstroke="#312783" stroke-miterlimit="10"/>
		
			<line orgstroke="#000000" orgfill="none" fill="none" x1="527.698" x2="527.698" y1="469.988" y2="489.286" stroke-linejoin="round" stroke="#000000" stroke-width="0.25" g2gstroke="#312783" stroke-miterlimit="10"/>
		
			<line orgstroke="#000000" orgfill="none" fill="none" x1="527.698" x2="529.854" y1="489.286" y2="488.038" stroke-linejoin="round" stroke="#000000" stroke-width="0.25" g2gstroke="#312783" stroke-miterlimit="10"/>
		
			<line orgstroke="#000000" orgfill="none" fill="none" x1="529.854" x2="529.854" y1="490.568" y2="471.571" stroke-linejoin="round" stroke="#000000" stroke-width="0.25" g2gstroke="#312783" stroke-miterlimit="10"/>
	</g>
</g>
</g>
</g></svg>