<svg xmlns="http://www.w3.org/2000/svg" xmlns:xlink="http://www.w3.org/1999/xlink" xmlns:etg="http://www.eurotaxglass.com/etg/evd/" etg:dataTimestamp="1539068912893" contentScriptType="text/ecmascript" zoomAndPan="magnify" contentStyleType="text/css" id="Layer_1" enable-background="new 0 0 1841.891 1595.279" version="1.1" width="1841.891px" xml:space="preserve" preserveAspectRatio="xMidYMid meet" viewBox="0 0 1841.891 1595.279" height="1595.279px" x="0px" y="0px"><g xmlns="http://www.w3.org/2000/svg" objecttype="PS" tooltip="#UNDEFINED" id="13">
<g onmouseover="notifyOwner(AGV_OBJECT_MOUSEOVER, '13(PS)')" transform="translate(-4.0000032348633, -8.791041992187502) translate(67.47015438842772, -31.428020141601564)" onclick="clickZoom(evt); notifyOwner(AGV_OBJECT_MOUSECLICK, '13(PS)')" onmouseout="notifyOwner(AGV_OBJECT_MOUSEOUT, '13(PS)')" tooltip="#UNDEFINED" id="13-Graphic" objecttype="GRAPHIC">
<g>
	<g id="11::Pinza_de_freno">
		<path orgstroke="#000000" orgfill="#ffffff" fill="#ffffff" g2gfill="#ECF5E4" stroke-linejoin="round" d="M496.24,498.311    v3.943c0,0,0.348-0.015,0.656-0.019v0.019v4.165c0,0,0.464,0.968,2.754,1.396c0.969,0.183,1.444-0.854,1.444-0.854    s7.796,3.933,10.452,4.919c2.649,0.98,3.829-1.479,4.473-2.104c0.646-0.629,2.656-3.216,3.495-4.893    c0.839-1.685-0.354-2.865-1.328-2.586c-0.979,0.272-2.167,1.049-2.167,1.049s-0.069-1.119-0.111-1.679    c-0.041-0.563,1.789-4.759,2.771-5.598c0.979-0.838,0.77-1.412,0.77-1.412s0-1.872,0-2.773c0-0.908-1.538-1.538-2.122-1.935    c-0.584-0.391-0.674-3.313-0.702-4.613c-0.023-1.313,0.601-2.604,0.601-2.604l0.002,0.001c0.396-0.64,0.646-1.378,0.646-2.039    c0-0.81-0.375-1.304-0.936-1.374v0.002l-1.021-0.268l-1.641-1.003c-0.799-0.409-1.64,0.036-1.64,0.036l-8.098,4.672    c0,0-2.141-0.028-2.141-0.027v-1.907c0-0.547-0.192-0.931-0.506-1.104l0.043,0.021l-2.178-1.379l-0.002-0.002    c-0.31-0.127-0.697-0.08-1.134,0.169l-2.386-0.157l-1.328-2.431h-1.048v-0.979c0,0,0.604,0,0.546-0.909    c-0.058-0.908-1.563-1.747-2.48-1.677c-0.929,0.063-1.747,0.979-1.728,2.097c0.027,1.118,1.728,3.215,1.728,3.215l0.815,4.132    c0,0-2.543,0.561-2.543,1.495c0,1.158,1.728,0.828,1.728,0.828v2.639c-1.619,0.008-4.488-0.021-4.488-0.021    s-0.909,0.088-1.398,0.508c-0.481,0.419-0.838,1.473-0.838,1.473s-0.629,0.834-1.258,0.414c-0.63-0.42-3.216-2.726-3.984-3.075    c-0.77-0.35-1.321,0.216-0.839,0.771c0.489,0.56,6.854,6.011,6.854,6.011c-0.21,0.771-0.49,4.563-0.49,4.563    s0.979,1.653,1.748,1.589c0.769-0.07,1.887,0.002,1.887,0.002l2.027-1.749c0,0,0.35,0.559,1.468,0.698    c1.118,0.139,2.521-0.146,2.865,0c0.175,0.063,0.433,0.123,0.696,0.297L496.24,498.311z" outline-element="true" stroke="#000000" stroke-width="0.5" g2gstroke="#312783" stroke-miterlimit="10"/>
		<path orgstroke="#000000" orgfill="none" fill="none" stroke-linejoin="round" d="M502.399,480.826    c0,1.101-0.773,2.435-1.727,2.979c-0.954,0.551-1.729,0.104-1.729-0.985s0.773-2.427,1.729-2.978    c0.477-0.275,0.901-0.31,1.221-0.125" stroke="#000000" stroke-width="0.25" g2gstroke="#312783" stroke-miterlimit="10"/>
		<path orgstroke="#000000" orgfill="none" fill="none" stroke-linejoin="round" d="M496.899,481.512    c0-1.094,0.773-2.428,1.727-2.979" stroke="#000000" stroke-width="0.25" g2gstroke="#312783" stroke-miterlimit="10"/>
		<path orgstroke="#000000" orgfill="none" fill="none" stroke-linejoin="round" d="M500.674,482.992    c-0.563,0.324-1.021,0.064-1.021-0.581c0-0.645,0.457-1.433,1.021-1.757c0.563-0.324,1.02-0.063,1.02,0.581    C501.693,481.885,501.235,482.674,500.674,482.992z" stroke="#000000" stroke-width="0.25" g2gstroke="#312783" stroke-miterlimit="10"/>
		<path orgstroke="#000000" orgfill="none" fill="none" stroke-linejoin="round" d="M515.906,482.992    c-0.563,0.324-1.019,0.064-1.019-0.581c0-0.645,0.456-1.433,1.019-1.757c0.563-0.324,1.021-0.063,1.021,0.581    C516.931,481.885,516.474,482.674,515.906,482.992z" stroke="#000000" stroke-width="0.25" g2gstroke="#312783" stroke-miterlimit="10"/>
		
			<line orgstroke="#000000" orgfill="none" fill="none" x1="496.899" x2="496.899" y1="481.512" y2="489.155" stroke-linejoin="round" stroke="#000000" stroke-width="0.25" g2gstroke="#312783" stroke-miterlimit="10"/>
		<path orgstroke="#000000" orgfill="none" fill="none" stroke-linejoin="round" d="M498.946,482.82v3.749    c0,0,0.135,1.258,1.406,1.677c1.271,0.421,9.283,2.438,13.979,5.731c0,0,1.056,0.684,1.04,2.063l-0.077,13.033" stroke="#000000" stroke-width="0.25" g2gstroke="#312783" stroke-miterlimit="10"/>
		<path orgstroke="#000000" orgfill="none" fill="none" stroke-linejoin="round" d="M500.674,506.488    c-0.521-0.979-1.806-1.807-2.334-2.465c-0.314-0.386-0.908-1.74-0.908-1.77c0-0.02-0.256-0.021-0.531-0.019" stroke="#000000" stroke-width="0.25" g2gstroke="#312783" stroke-miterlimit="10"/>
		<path orgstroke="#000000" orgfill="none" fill="none" stroke-linejoin="round" d="M496.899,490.692    c0,0,1.623,2.167,2.754,2.307c1.133,0.146,4.906-0.063,6.938,0.979" stroke="#000000" stroke-width="0.25" g2gstroke="#312783" stroke-miterlimit="10"/>
		<path orgstroke="#000000" orgfill="none" fill="none" stroke-linejoin="round" d="M509.803,493.139    c0,0-1.505,0.699-1.451,2.027c0.054,1.321,1.382,2.796,2.569,2.796c1.187,0,1.678-0.979,1.678-0.979s0.288-0.938-0.869-2.321    C510.571,493.279,509.803,493.139,509.803,493.139z" stroke="#000000" stroke-width="0.25" g2gstroke="#312783" stroke-miterlimit="10"/>
		<path orgstroke="#000000" orgfill="none" fill="none" stroke-linejoin="round" d="M496.899,483.135    c0,0-4.57,3.23-4.85,5.604c-0.28,2.371,0,8.032,0,8.032" stroke="#000000" stroke-width="0.25" g2gstroke="#312783" stroke-miterlimit="10"/>
		
			<line orgstroke="#000000" orgfill="none" fill="none" x1="505.381" x2="513.472" y1="485.069" y2="480.397" stroke-linejoin="round" stroke="#000000" stroke-width="0.25" g2gstroke="#312783" stroke-miterlimit="10"/>
		
			<line orgstroke="#000000" orgfill="none" fill="none" x1="515.381" x2="517.323" y1="491.076" y2="489.952" stroke-linejoin="round" stroke="#000000" stroke-width="0.25" g2gstroke="#312783" stroke-miterlimit="10"/>
		<path orgstroke="#000000" orgfill="none" fill="none" stroke-linejoin="round" d="M517.22,482.734    c-0.354,0.563-0.812,1.042-1.313,1.332c-1.079,0.623-1.954,0.125-1.954-1.114c0-1.231,0.875-2.748,1.954-3.371    c0.374-0.216,0.729-0.297,1.021-0.26" stroke="#000000" stroke-width="0.25" g2gstroke="#312783" stroke-miterlimit="10"/>
		
			<line orgstroke="#000000" orgfill="none" fill="none" x1="502.399" x2="502.399" y1="482.733" y2="483.135" stroke-linejoin="round" stroke="#000000" stroke-width="0.25" g2gstroke="#312783" stroke-miterlimit="10"/>
		
			<line orgstroke="#000000" orgfill="none" fill="none" x1="502.399" x2="507.392" y1="483.135" y2="486.533" stroke-linejoin="round" stroke="#000000" stroke-width="0.25" g2gstroke="#312783" stroke-miterlimit="10"/>
		<path orgstroke="#000000" orgfill="none" fill="none" stroke-linejoin="round" d="M513.951,483.493    c0,0-0.974-1.515-0.974-2.667" stroke="#000000" stroke-width="0.25" g2gstroke="#312783" stroke-miterlimit="10"/>
		<path orgstroke="#000000" orgfill="none" fill="none" stroke-linejoin="round" d="M516.633,479.323    c-1.835-0.268-2.681,0.581-2.681,0.581" stroke="#000000" stroke-width="0.25" g2gstroke="#312783" stroke-miterlimit="10"/>
		
			<line orgstroke="#000000" orgfill="none" fill="none" x1="504.896" x2="513.299" y1="487.894" y2="483.319" stroke-linejoin="round" stroke="#000000" stroke-width="0.25" g2gstroke="#312783" stroke-miterlimit="10"/>
		
			<line orgstroke="#000000" orgfill="none" fill="none" x1="504.896" x2="515.381" y1="487.894" y2="493.139" stroke-linejoin="round" stroke="#000000" stroke-width="0.25" g2gstroke="#312783" stroke-miterlimit="10"/>
		
			<line orgstroke="#000000" orgfill="none" fill="none" x1="510.886" x2="516.931" y1="488.352" y2="492.341" stroke-linejoin="round" stroke="#000000" stroke-width="0.25" g2gstroke="#312783" stroke-miterlimit="10"/>
		
			<line orgstroke="#000000" orgfill="none" fill="none" x1="518.952" x2="516.268" y1="491.636" y2="493.594" stroke-linejoin="round" stroke="#000000" stroke-width="0.25" g2gstroke="#312783" stroke-miterlimit="10"/>
		
			<line orgstroke="#000000" orgfill="none" fill="none" x1="499.654" x2="499.654" y1="507.188" y2="505.269" stroke-linejoin="round" stroke="#000000" stroke-width="0.25" g2gstroke="#312783" stroke-miterlimit="10"/>
		<path orgstroke="#000000" orgfill="none" fill="none" stroke-linejoin="round" d="M496.173,498.26    c0.264,0.175,0.525,0.472,0.728,1.023c0.396,1.119,1.203,3.146,2.754,3.642c1.551,0.482,8.332,2.586,9.869,2.377    c1.537-0.21,3.354-1.55,1.258-3.047c-2.097-1.496-6.908-4.714-8.381-4.714c-1.475,0-3.5,0.484-4.479-1.326    c-0.979-1.816-1.021-4.333-1.021-4.333" stroke="#000000" stroke-width="0.25" g2gstroke="#312783" stroke-miterlimit="10"/>
		<path orgstroke="#000000" orgfill="none" fill="none" stroke-linejoin="round" d="M493.006,486.761    c-0.019,0.017-0.451,0.021-1.079,0.021" stroke="#000000" stroke-width="0.25" g2gstroke="#312783" stroke-miterlimit="10"/>
		<path orgstroke="#000000" orgfill="none" fill="none" stroke-linejoin="round" d="M491.927,491.885    c0,0-1.413,1.049-2.112-0.244s-1.258-2.051-1.328-2.896" stroke="#000000" stroke-width="0.25" g2gstroke="#312783" stroke-miterlimit="10"/>
		
			<line orgstroke="#000000" orgfill="none" fill="none" x1="491.631" x2="486.599" y1="487.894" y2="487.894" stroke-linejoin="round" stroke="#000000" stroke-width="0.25" g2gstroke="#312783" stroke-miterlimit="10"/>
		
			<line orgstroke="#000000" orgfill="none" fill="none" x1="489.114" x2="487.856" y1="499.012" y2="497.427" stroke-linejoin="round" stroke="#000000" stroke-width="0.25" g2gstroke="#312783" stroke-miterlimit="10"/>
		
			<line orgstroke="#000000" orgfill="none" fill="none" x1="487.856" x2="485.479" y1="497.427" y2="497.427" stroke-linejoin="round" stroke="#000000" stroke-width="0.25" g2gstroke="#312783" stroke-miterlimit="10"/>
		
			<line orgstroke="#000000" orgfill="none" fill="none" x1="487.856" x2="490.576" y1="497.427" y2="494.66" stroke-linejoin="round" stroke="#000000" stroke-width="0.25" g2gstroke="#312783" stroke-miterlimit="10"/>
		
			<line orgstroke="#000000" orgfill="none" fill="none" x1="490.576" x2="491.02" y1="494.66" y2="492.263" stroke-linejoin="round" stroke="#000000" stroke-width="0.25" g2gstroke="#312783" stroke-miterlimit="10"/>
		
			<line orgstroke="#000000" orgfill="none" fill="none" x1="487.856" x2="489.604" y1="496.563" y2="494.66" stroke-linejoin="round" stroke="#000000" stroke-width="0.25" g2gstroke="#312783" stroke-miterlimit="10"/>
		
			<line orgstroke="#000000" orgfill="none" fill="none" x1="489.604" x2="489.604" y1="494.66" y2="492.263" stroke-linejoin="round" stroke="#000000" stroke-width="0.25" g2gstroke="#312783" stroke-miterlimit="10"/>
		
			<line orgstroke="#000000" orgfill="none" fill="none" x1="485.97" x2="487.856" y1="492.859" y2="492.263" stroke-linejoin="round" stroke="#000000" stroke-width="0.25" g2gstroke="#312783" stroke-miterlimit="10"/>
		
			<line orgstroke="#000000" orgfill="none" fill="none" x1="487.856" x2="489.604" y1="492.263" y2="492.263" stroke-linejoin="round" stroke="#000000" stroke-width="0.25" g2gstroke="#312783" stroke-miterlimit="10"/>
		
			<line orgstroke="#000000" orgfill="none" fill="none" x1="491.927" x2="495.783" y1="477.692" y2="479.58" stroke-linejoin="round" stroke="#000000" stroke-width="0.25" g2gstroke="#312783" stroke-miterlimit="10"/>
		
			<line orgstroke="#000000" orgfill="none" fill="none" x1="495.783" x2="494.926" y1="481.979" y2="482.733" stroke-linejoin="round" stroke="#000000" stroke-width="0.25" g2gstroke="#312783" stroke-miterlimit="10"/>
		
			<ellipse orgstroke="#000000" stroke="#000000" transform="matrix(-0.322 -0.9467 0.9467 -0.322 201.1622 1093.4264)" stroke-miterlimit="10" orgfill="none" fill="none" stroke-width="0.25" stroke-linejoin="round" cx="492.105" rx="1.166" g2gstroke="#312783" ry="0.468" cy="474.683"/>
		
			<line orgstroke="#000000" orgfill="none" fill="none" x1="492.099" x2="494.407" y1="492.263" y2="493.978" stroke-linejoin="round" stroke="#000000" stroke-width="0.25" g2gstroke="#312783" stroke-miterlimit="10"/>
		
			<line orgstroke="#000000" orgfill="none" fill="none" x1="494.146" x2="494.407" y1="492.615" y2="493.978" stroke-linejoin="round" stroke="#000000" stroke-width="0.25" g2gstroke="#312783" stroke-miterlimit="10"/>
		
			<line orgstroke="#000000" orgfill="none" fill="none" x1="494.407" x2="496.24" y1="493.978" y2="496.04" stroke-linejoin="round" stroke="#000000" stroke-width="0.25" g2gstroke="#312783" stroke-miterlimit="10"/>
		
			<line orgstroke="#000000" orgfill="none" fill="none" x1="493.857" x2="493.256" y1="494.66" y2="497.427" stroke-linejoin="round" stroke="#000000" stroke-width="0.25" g2gstroke="#312783" stroke-miterlimit="10"/>
		<path orgstroke="#000000" orgfill="none" fill="none" stroke-linejoin="round" d="M510.886,503.273    c0,0,0,0.876-1.152,0.918c-1.102,0.039-8.907-2.036-9.976-2.521c-1.067-0.489-2.557-3.285-2.856-3.704    c-0.308-0.421-2.488-0.541-2.488-0.541" stroke="#000000" stroke-width="0.25" g2gstroke="#312783" stroke-miterlimit="10"/>
		
			<line orgstroke="#000000" orgfill="none" fill="none" x1="483.448" x2="484.642" y1="490.692" y2="491.076" stroke-linejoin="round" stroke="#000000" stroke-width="0.25" g2gstroke="#312783" stroke-miterlimit="10"/>
		
			<line orgstroke="#000000" orgfill="none" fill="none" x1="484.642" x2="485.479" y1="491.076" y2="490.692" stroke-linejoin="round" stroke="#000000" stroke-width="0.25" g2gstroke="#312783" stroke-miterlimit="10"/>
		<path orgstroke="#000000" orgfill="none" fill="none" stroke-linejoin="round" d="M508.127,509.073    c0,0,1.301-0.629,2.358,0c0.396,0.231,1.238,1.328,1.238,1.328" stroke="#000000" stroke-width="0.25" g2gstroke="#312783" stroke-miterlimit="10"/>
		
			<line orgstroke="#000000" orgfill="none" fill="none" x1="512.631" x2="512.631" y1="511.102" y2="504.191" stroke-linejoin="round" stroke="#000000" stroke-width="0.25" g2gstroke="#312783" stroke-miterlimit="10"/>
	</g>
</g>
</g>
</g></svg>