<svg xmlns="http://www.w3.org/2000/svg" xmlns:xlink="http://www.w3.org/1999/xlink" xmlns:etg="http://www.eurotaxglass.com/etg/evd/" etg:dataTimestamp="1539068912893" contentScriptType="text/ecmascript" zoomAndPan="magnify" contentStyleType="text/css" id="Layer_1" enable-background="new 0 0 1841.891 1595.279" version="1.1" width="1841.891px" xml:space="preserve" preserveAspectRatio="xMidYMid meet" viewBox="0 0 1841.891 1595.279" height="1595.279px" x="0px" y="0px"><g xmlns="http://www.w3.org/2000/svg" objecttype="PS" tooltip="#UNDEFINED" id="16">
<g onmouseover="notifyOwner(AGV_OBJECT_MOUSEOVER, '16(PS)')" transform="translate(-4.0000032348633, -8.791041992187502) translate(67.47015438842772, -31.428020141601564)" onclick="clickZoom(evt); notifyOwner(AGV_OBJECT_MOUSECLICK, '16(PS)')" onmouseout="notifyOwner(AGV_OBJECT_MOUSEOUT, '16(PS)')" tooltip="#UNDEFINED" id="16-Graphic" objecttype="GRAPHIC">
<g>
	<g id="14::Anclaje_lateral_barra_estabilizadora">
		<path orgstroke="#000000" orgfill="#ffffff" fill="#ffffff" g2gfill="#ECF5E4" stroke-linejoin="round" d="M441.615,208.262    l-6.625-3.825c0-1.248,0-3.273,0-4.523c0-0.625,0.152-1.132,0.443-1.409l0.016-0.011l1.439-0.868l-0.004-0.004    c0.274-0.18,0.664-0.181,1.135,0.063c1,0.521,4.758,2.605,6.039,3.438c0.77,0.497,1.043,0.958,1.145,1.438l0.063-0.014    l5.533,3.229l-0.009-0.002c1.078,0.707,1.894,2.004,1.894,3.998c0,3.976-2.813,8.821-6.277,10.822    c-0.389,0.227-1.141,0.374-1.141,1.604c0,1.05,0,2.343,0,2.343c0-0.697,0.021,1.6-0.711,1.854l-1.08,0.625v0.003    c-0.127,0.03-0.275,0.002-0.451-0.11c-1.281-0.83-5.039-2.921-6.039-3.438c-0.469-0.243-1.717-1.002-1.717-2.356    c0-1.249,0-5.688,0-6.937c0.479-0.084,1.645-0.237,2.188-0.557C439.268,212.578,440.85,210.458,441.615,208.262z" outline-element="true" stroke="#000000" stroke-width="0.5" g2gstroke="#312783" stroke-miterlimit="10"/>
		<path orgstroke="#000000" orgfill="none" fill="none" stroke-linejoin="round" d="M446.395,208.057    c2.572-1.484,4.658-0.296,4.658,2.649c0,2.951-2.086,6.547-4.658,8.033c-0.541,0.313-1.699,0.467-2.188,0.551" stroke="#000000" stroke-width="0.25" g2gstroke="#312783" stroke-miterlimit="10"/>
		<path orgstroke="#000000" orgfill="none" fill="none" stroke-linejoin="round" d="M448.734,208.233    c0.07,0.336,0.109,0.708,0.109,1.112c0,2.945-2.086,6.547-4.658,8.027c-0.256,0.147-0.65,0.267-1.051,0.354" stroke="#000000" stroke-width="0.25" g2gstroke="#312783" stroke-miterlimit="10"/>
		<path orgstroke="#000000" orgfill="none" fill="none" stroke-linejoin="round" d="M443.852,210.163    c-0.818,1.999-2.291,3.864-3.967,4.833c-0.271,0.153-0.688,0.271-1.101,0.354" stroke="#000000" stroke-width="0.25" g2gstroke="#312783" stroke-miterlimit="10"/>
		
			<line orgstroke="#000000" orgfill="none" fill="none" x1="443.945" x2="441.615" y1="209.607" y2="208.262" stroke-linejoin="round" stroke="#000000" stroke-width="0.25" g2gstroke="#312783" stroke-miterlimit="10"/>
		
			<line orgstroke="#000000" orgfill="none" fill="none" x1="444.212" x2="435.259" y1="219.295" y2="214.183" stroke-linejoin="round" stroke="#000000" stroke-width="0.25" g2gstroke="#312783" stroke-miterlimit="10"/>
		<path orgstroke="#000000" orgfill="none" fill="none" stroke-linejoin="round" d="M435.434,198.503    c0.293-0.272,0.725-0.329,1.271-0.043c1,0.521,4.765,2.61,6.039,3.44c1.229,0.796,1.197,1.499,1.197,2.332s0,5.374,0,5.374" stroke="#000000" stroke-width="0.25" g2gstroke="#312783" stroke-miterlimit="10"/>
		<path orgstroke="#000000" orgfill="none" fill="none" stroke-linejoin="round" d="M444.212,219.295    c0,0.833,0,5.874,0,5.874c0-0.715,0.021,1.669-0.744,1.857" stroke="#000000" stroke-width="0.25" g2gstroke="#312783" stroke-miterlimit="10"/>
		<path orgstroke="#000000" orgfill="none" fill="none" stroke-linejoin="round" d="M446.846,205.505    c1.131-0.563,2.713-0.526,3.938,0.274" stroke="#000000" stroke-width="0.25" g2gstroke="#312783" stroke-miterlimit="10"/>
		
			<line orgstroke="#000000" orgfill="none" fill="none" x1="443.945" x2="446.395" y1="209.607" y2="208.057" stroke-linejoin="round" stroke="#000000" stroke-width="0.25" g2gstroke="#312783" stroke-miterlimit="10"/>
		<path orgstroke="#000000" orgfill="none" fill="none" stroke-linejoin="round" d="M445.198,202.562    c0.063,0.288,0.062,0.583,0.062,0.896c0,0.46,0,1.32,0,2c0,0.758,0.688,0.57,0.688,0.57l0.896-0.524" stroke="#000000" stroke-width="0.25" g2gstroke="#312783" stroke-miterlimit="10"/>
		<path orgstroke="#000000" orgfill="none" fill="none" stroke-linejoin="round" d="M440.992,203.818    c0.008,0.971-0.688,1.359-1.522,0.873c-0.853-0.487-1.531-1.672-1.531-2.646c0-0.971,0.688-1.354,1.531-0.873    C440.311,201.665,440.992,202.846,440.992,203.818z" stroke="#000000" stroke-width="0.25" g2gstroke="#312783" stroke-miterlimit="10"/>
		<path orgstroke="#000000" orgfill="none" fill="none" stroke-linejoin="round" d="M440.992,222.567    c0.008,0.971-0.688,1.354-1.522,0.873c-0.853-0.487-1.531-1.672-1.531-2.646c0-0.971,0.688-1.354,1.531-0.873" stroke="#000000" stroke-width="0.25" g2gstroke="#312783" stroke-miterlimit="10"/>
		<path orgstroke="#000000" orgfill="none" fill="none" stroke-linejoin="round" d="M439.469,219.926    c0.848,0.488,1.522,1.676,1.522,2.646" stroke="#000000" stroke-width="0.25" g2gstroke="#312783" stroke-miterlimit="10"/>
		<path orgstroke="#000000" orgfill="none" fill="none" stroke-linejoin="round" d="M440.99,203.745    c-0.145,0.01-0.313-0.033-0.494-0.138c-0.563-0.322-1.014-1.104-1.014-1.747c0-0.244,0.063-0.438,0.178-0.557" stroke="#000000" stroke-width="0.25" g2gstroke="#312783" stroke-miterlimit="10"/>
		<path orgstroke="#000000" orgfill="none" fill="none" stroke-linejoin="round" d="M440.99,222.616    c-0.146,0.001-0.313-0.049-0.5-0.152c-0.604-0.354-1.104-1.208-1.104-1.903c0-0.247,0.063-0.44,0.166-0.574" stroke="#000000" stroke-width="0.25" g2gstroke="#312783" stroke-miterlimit="10"/>
	</g>
</g>
</g>
</g></svg>