<svg xmlns="http://www.w3.org/2000/svg" xmlns:xlink="http://www.w3.org/1999/xlink" xmlns:etg="http://www.eurotaxglass.com/etg/evd/" etg:dataTimestamp="1539068912893" contentScriptType="text/ecmascript" zoomAndPan="magnify" contentStyleType="text/css" id="Layer_1" enable-background="new 0 0 1841.891 1595.279" version="1.1" width="1841.891px" xml:space="preserve" preserveAspectRatio="xMidYMid meet" viewBox="0 0 1841.891 1595.279" height="1595.279px" x="0px" y="0px"><g xmlns="http://www.w3.org/2000/svg" objecttype="PS" tooltip="#UNDEFINED" id="20">
<g onmouseover="notifyOwner(AGV_OBJECT_MOUSEOVER, '20(PS)')" transform="translate(-4.0000032348633, -8.791041992187502) translate(67.47015438842772, -31.428020141601564)" onclick="clickZoom(evt); notifyOwner(AGV_OBJECT_MOUSECLICK, '20(PS)')" onmouseout="notifyOwner(AGV_OBJECT_MOUSEOUT, '20(PS)')" tooltip="#UNDEFINED" id="20-Graphic" objecttype="GRAPHIC">
<g>
	<path orgstroke="#000000" orgfill="#ffffff" fill="#ffffff" g2gfill="#ECF5E4" stroke-linejoin="round" d="M477.031,434.327   c0,0,0-3.461,0-4.64c0-1.177,0.543-5.796,1.772-7.46l0.002,0.001c0.513-0.83,0.833-1.792,0.833-2.651   c0.089-1.729-1.063-2.146-2.023-2.018c-9.848,1.444-17.521,8.795-17.521,8.795c-0.271,0.031-0.585,0.116-0.944,0.271   c-1.021,0.428-6.944,2.985-12.104,6.492c-5.161,3.512-6.767,4.605-8.787,4.633c-2.028,0.021-2.284-1.16-2.284-1.16l0.01-0.043   c0.048-0.297,0.071-0.597,0.071-0.873c0-0.748-0.174-1.354-0.479-1.78l-0.002,0.001c0.037-0.318,0.061-0.634,0.061-0.943   c0-2.162-0.911-3.549-2.315-3.925l0.007-0.015c-1.029-0.584-2.455-0.496-4.021,0.412c-0.165,0.096-0.328,0.19-0.488,0.306   l0.051,0.048l-5.563-3.146l0.001-0.001c-0.656-0.438-1.603-0.399-2.639,0.203c-0.465,0.27-0.911,0.625-1.318,1.047l-0.528-0.316   c-0.252-0.143-0.601-0.119-0.979,0.1c-0.771,0.443-1.395,1.521-1.395,2.397c0,0.44,0.155,0.75,0.407,0.894l0.506,0.281   c-0.188,0.611-0.295,1.229-0.295,1.813c0,1.122,0.395,1.915,1.022,2.295l-0.001,0.007l5.44,3.146L423,440.635   c1.604,2.396,5.049,5.854,5.852,6.76c0.586,0.658,2.96,2.271,6.789,2.26c3.188,0.111,6.229-0.724,6.229-0.724   s16.72-6.537,19.096-6.757c4.979-0.463,13.438-3.273,13.438-3.273C475.851,438.051,477.031,436.009,477.031,434.327z" outline-element="true" stroke="#000000" stroke-width="0.5" g2gstroke="#312783" stroke-miterlimit="10"/>
	<path orgstroke="#000000" orgfill="none" fill="none" stroke-linejoin="round" d="M435.98,436.552   c-0.338,2.08-1.79,4.334-3.531,5.336c-1.981,1.146-3.598,0.229-3.598-2.063c0-2.278,1.609-5.063,3.598-6.212   c1.34-0.768,2.506-0.604,3.125,0.275" stroke="#000000" stroke-width="0.25" g2gstroke="#312783" stroke-miterlimit="10"/>
	<path orgstroke="#000000" orgfill="none" fill="none" stroke-linejoin="round" d="M477.085,422.105   c-0.512,0.291-0.913,0.058-0.913-0.52c0-0.583,0.401-1.285,0.913-1.576c0.504-0.291,0.906-0.063,0.906,0.521   C477.992,421.109,477.59,421.815,477.085,422.105z" stroke="#000000" stroke-width="0.25" g2gstroke="#312783" stroke-miterlimit="10"/>
	<path orgstroke="#000000" orgfill="none" fill="none" stroke-linejoin="round" d="M474.39,436.9   c-0.505,0.294-0.913,0.063-0.913-0.521s0.408-1.284,0.913-1.575c0.502-0.292,0.912-0.063,0.912,0.521   C475.303,435.904,474.894,436.609,474.39,436.9z" stroke="#000000" stroke-width="0.25" g2gstroke="#312783" stroke-miterlimit="10"/>
	<path orgstroke="#000000" orgfill="none" fill="none" stroke-linejoin="round" d="M473.477,424.072   c-0.505,0.291-0.913,0.063-0.913-0.521s0.408-1.284,0.913-1.575c0.504-0.291,0.912-0.058,0.912,0.521   C474.39,423.075,473.981,423.781,473.477,424.072z" stroke="#000000" stroke-width="0.25" g2gstroke="#312783" stroke-miterlimit="10"/>
	<path orgstroke="#000000" orgfill="none" fill="none" stroke-linejoin="round" d="M477.452,419.887   c0.104,0.104,0.158,0.271,0.158,0.5c0,0.578-0.408,1.283-0.911,1.574c-0.129,0.065-0.243,0.106-0.354,0.123" stroke="#000000" stroke-width="0.25" g2gstroke="#312783" stroke-miterlimit="10"/>
	<path orgstroke="#000000" orgfill="none" fill="none" stroke-linejoin="round" d="M474.766,434.681   c0.1,0.104,0.158,0.28,0.158,0.501c0,0.58-0.408,1.283-0.912,1.574c-0.127,0.065-0.246,0.106-0.356,0.123" stroke="#000000" stroke-width="0.25" g2gstroke="#312783" stroke-miterlimit="10"/>
	<path orgstroke="#000000" orgfill="none" fill="none" stroke-linejoin="round" d="M473.852,421.854   c0.1,0.11,0.157,0.276,0.157,0.498c0,0.579-0.409,1.283-0.913,1.575c-0.126,0.065-0.246,0.105-0.355,0.123" stroke="#000000" stroke-width="0.25" g2gstroke="#312783" stroke-miterlimit="10"/>
	<path orgstroke="#000000" orgfill="none" fill="none" stroke-linejoin="round" d="M423.568,438.305   c-0.407-0.438-0.574-1.029-0.574-1.907c0-2.284,1.609-5.063,3.604-6.212c0.851-0.49,1.633-0.604,2.249-0.396" stroke="#000000" stroke-width="0.25" g2gstroke="#312783" stroke-miterlimit="10"/>
	<path orgstroke="#000000" orgfill="none" fill="none" stroke-linejoin="round" d="M417.347,431.232   c0.378-1.225,1.097-2.438,1.987-3.354" stroke="#000000" stroke-width="0.25" g2gstroke="#312783" stroke-miterlimit="10"/>
	<path orgstroke="#000000" orgfill="none" fill="none" stroke-linejoin="round" d="M423.904,436.947   c0.717-2.813,2.615-5.681,4.899-7.221" stroke="#000000" stroke-width="0.25" g2gstroke="#312783" stroke-miterlimit="10"/>
	<path orgstroke="#000000" orgfill="none" fill="none" stroke-linejoin="round" d="M427.274,440.561   c-0.584-0.398-0.938-1.17-0.938-2.243c0-2.284,1.604-5.063,3.598-6.214c0.979-0.563,1.869-0.627,2.516-0.276" stroke="#000000" stroke-width="0.25" g2gstroke="#312783" stroke-miterlimit="10"/>
	<path orgstroke="#000000" orgfill="none" fill="none" stroke-linejoin="round" d="M424.601,437.02   c0.81-2.943,2.893-5.908,5.334-7.316c1.266-0.729,2.436-0.932,3.383-0.678" stroke="#000000" stroke-width="0.25" g2gstroke="#312783" stroke-miterlimit="10"/>
	
		<line orgstroke="#000000" orgfill="none" fill="none" x1="432.448" x2="435.214" y1="431.83" y2="433.51" stroke-linejoin="round" stroke="#000000" stroke-width="0.25" g2gstroke="#312783" stroke-miterlimit="10"/>
	
		<line orgstroke="#000000" orgfill="none" fill="none" x1="427.277" x2="429.935" y1="440.559" y2="442.159" stroke-linejoin="round" stroke="#000000" stroke-width="0.25" g2gstroke="#312783" stroke-miterlimit="10"/>
	<path orgstroke="#000000" orgfill="none" fill="none" stroke-linejoin="round" d="M435.631,449.641   c-2.106-0.071-4.28-0.553-5.695-1.954c-3.56-3.522-6.34-6.513-6.34-6.513" stroke="#000000" stroke-width="0.25" g2gstroke="#312783" stroke-miterlimit="10"/>
	<path orgstroke="#000000" orgfill="none" fill="none" stroke-linejoin="round" d="M461.115,426.368   c-1.384,1.313,8.322-7.234,17.401-8.565" stroke="#000000" stroke-width="0.25" g2gstroke="#312783" stroke-miterlimit="10"/>
	<path orgstroke="#000000" orgfill="none" fill="none" stroke-linejoin="round" d="M460.094,426.359   c1.471-0.184,1.67,1.146,0.592,1.842c-1.878,1.224-6.821,4.601-9.771,6.479c-2.943,1.885-7.006,4.061-7.928,4.57   c-0.922,0.509-2.021,0.813-4.056,0.756c-2.029-0.063-3.759-1.118-3.759-1.118" stroke="#000000" stroke-width="0.25" g2gstroke="#312783" stroke-miterlimit="10"/>
	<path orgstroke="#000000" orgfill="none" fill="none" stroke-linejoin="round" d="M430.927,442.443   c1.063,1.42,2.021,3.092,5.387,3.092s8.089-1.416,11.121-3.147c3.031-1.738,16.633-8.43,19.5-9.712   c2.869-1.286,2.541-2.706-0.409-1.833c-2.949,0.872-9.177,4.217-11.39,5.252c-2.212,1.025-11.478,5.733-13.273,6.295   c-1.802,0.555-5.869,0.993-6.688,0.771c-0.819-0.22-1.974-1.796-1.974-1.796" stroke="#000000" stroke-width="0.25" g2gstroke="#312783" stroke-miterlimit="10"/>
	
		<line orgstroke="#000000" orgfill="none" fill="none" x1="423.904" x2="423.522" y1="436.947" y2="438.49" stroke-linejoin="round" stroke="#000000" stroke-width="0.25" g2gstroke="#312783" stroke-miterlimit="10"/>
	
		<line orgstroke="#000000" orgfill="none" fill="none" x1="424.601" x2="423.597" y1="437.02" y2="441.177" stroke-linejoin="round" stroke="#000000" stroke-width="0.25" g2gstroke="#312783" stroke-miterlimit="10"/>
	
		<line orgstroke="#000000" orgfill="none" fill="none" x1="423.597" x2="422.99" y1="441.177" y2="440.62" stroke-linejoin="round" stroke="#000000" stroke-width="0.25" g2gstroke="#312783" stroke-miterlimit="10"/>
</g>
</g>
</g></svg>