<svg xmlns="http://www.w3.org/2000/svg" xmlns:xlink="http://www.w3.org/1999/xlink" xmlns:etg="http://www.eurotaxglass.com/etg/evd/" etg:dataTimestamp="1539068912893" contentScriptType="text/ecmascript" zoomAndPan="magnify" contentStyleType="text/css" id="Layer_1" enable-background="new 0 0 1841.891 1595.279" version="1.1" width="1841.891px" xml:space="preserve" preserveAspectRatio="xMidYMid meet" viewBox="0 0 1841.891 1595.279" height="1595.279px" x="0px" y="0px"><g xmlns="http://www.w3.org/2000/svg" objecttype="PS" tooltip="#UNDEFINED" id="21">
<g onmouseover="notifyOwner(AGV_OBJECT_MOUSEOVER, '21(PS)')" transform="translate(-4.0000032348633, -8.791041992187502) translate(67.47015438842772, -31.428020141601564)" onclick="clickZoom(evt); notifyOwner(AGV_OBJECT_MOUSECLICK, '21(PS)')" onmouseout="notifyOwner(AGV_OBJECT_MOUSEOUT, '21(PS)')" tooltip="#UNDEFINED" id="21-Graphic" objecttype="GRAPHIC">
<g>
	<g id="19::Brazo_superior_suspension">
		<path orgstroke="#000000" orgfill="#ffffff" fill="#ffffff" g2gfill="#ECF5E4" stroke-linejoin="round" d="M443.49,370.81    c-0.918-0.398-1.979-1.156-3.303-2.256c-2.253-1.881-8.714-7.688-9.63-9.063c-0.917-1.376-1.49-6.48-1.49-6.48l0.001,0.001    c0.636-0.448,1.022-1.302,1.022-2.482c0-2.546-1.804-5.646-4.021-6.93c-1.104-0.641-2.112-0.706-2.842-0.292l0.02-0.015    l-9.152,5.465l-0.054,0.007c-0.729,0.415-1.186,1.309-1.186,2.581c0,0.27,0.021,0.546,0.063,0.826l-0.004-0.015    c-0.39,0.271-0.621,0.771-0.621,1.479c0,1.506,1.063,3.342,2.377,4.101c0.656,0.378,1.251,0.417,1.682,0.171l-0.017,0.015    c0.178,0.13,0.354,0.247,0.54,0.354c1.104,0.64,2.111,0.704,2.842,0.29l-0.031,0.016l2.536-1.506    c0.396,3.813,0.548,6.189,3.548,9.725c3.382,3.977,7.361,7.729,12.332,11.148c3.446,2.375,5.99,2.94,7.631,2.33l-0.117,0.077    c0,0,2.204-0.87,2.602-1.512c1.229-1.994,4.146-6.923,4.146-6.923c0.438,0.104,0.95,0.395,1.651,0.724    c1.878,0.883,5.515,3.541,5.515,3.541l0,0c-0.032,0.218-0.049,0.451-0.049,0.695c0,2.545,1.799,5.646,4.021,6.929    c1.146,0.659,2.177,0.708,2.901,0.256v-0.002l9.539-5.729c0.759-0.396,1.229-1.305,1.229-2.604c0-0.422-0.055-0.857-0.145-1.297    c0.119-0.255,0.188-0.573,0.188-0.947c0-1.506-1.063-3.342-2.375-4.1c-0.46-0.271-0.896-0.363-1.254-0.314l-0.001,0.002    c-0.146-0.1-0.284-0.188-0.437-0.271c-1.114-0.646-2.127-0.706-2.854-0.283c0,0-5.73,3.449-5.731,3.449    c0,0-9.974-7.021-11.704-7.788c-1.121-0.503-5.242,1.559-5.974,2.711c-1.113,1.757-2.15,2.771-3.396,3.926L443.49,370.81    L443.49,370.81z" outline-element="true" stroke="#000000" stroke-width="0.5" g2gstroke="#312783" stroke-miterlimit="10"/>
		<path orgstroke="#000000" orgfill="none" fill="none" stroke-linejoin="round" d="M418.918,345.883    c0.729-0.414,1.729-0.354,2.841,0.286c2.221,1.277,4.017,4.387,4.017,6.934c0,1.325-0.486,2.238-1.267,2.629" stroke="#000000" stroke-width="0.25" g2gstroke="#312783" stroke-miterlimit="10"/>
		<path orgstroke="#000000" orgfill="none" fill="none" stroke-linejoin="round" d="M418.427,346.114    c0.729-0.414,1.731-0.351,2.84,0.29c2.219,1.281,4.018,4.384,4.018,6.937c0,1.319-0.48,2.231-1.268,2.629" stroke="#000000" stroke-width="0.25" g2gstroke="#312783" stroke-miterlimit="10"/>
		<path orgstroke="#000000" orgfill="none" fill="none" stroke-linejoin="round" d="M414.042,348.765    c0.725-0.414,1.729-0.354,2.838,0.29c2.22,1.282,4.019,4.385,4.019,6.931c0,1.273-0.443,2.166-1.177,2.581" stroke="#000000" stroke-width="0.25" g2gstroke="#312783" stroke-miterlimit="10"/>
		<path orgstroke="#000000" orgfill="none" fill="none" stroke-linejoin="round" d="M459.527,376.188    c0.305-2.029,1.963-2.755,3.969-1.596c2.226,1.273,4.021,4.384,4.021,6.929c0,1.235-0.424,2.112-1.113,2.545" stroke="#000000" stroke-width="0.25" g2gstroke="#312783" stroke-miterlimit="10"/>
		
			<line orgstroke="#000000" orgfill="none" fill="none" x1="416.343" x2="418.673" y1="357.927" y2="356.489" stroke-linejoin="round" stroke="#000000" stroke-width="0.25" g2gstroke="#312783" stroke-miterlimit="10"/>
		<path orgstroke="#000000" orgfill="none" fill="none" d="M424.754,355.576c0,0,0.567,5.111,1.486,6.487    c0.915,1.375,7.373,7.175,9.637,9.056c3.215,2.688,4.93,3.325,6.646,1.728c1.719-1.605,2.292-2.064,3.897-4.128    c1.604-2.063,2.752-1.264,3.896-0.688c1.146,0.57,9.91,6.606,9.91,6.606" stroke="#000000" stroke-width="0.25" g2gstroke="#312783" stroke-miterlimit="10"/>
		<path orgstroke="#000000" orgfill="none" fill="none" d="M425.776,355.398c0,0,0.574,5.11,1.494,6.486    c0.914,1.375,7.372,7.175,9.63,9.056c3.215,2.683,3.873,2.406,5.593,0.801c0.354-0.328,0.688-0.632,1.003-0.928" stroke="#000000" stroke-width="0.25" g2gstroke="#312783" stroke-miterlimit="10"/>
		<path orgstroke="#000000" orgfill="none" fill="none" stroke-linejoin="round" d="M464.951,371.742    c0.729-0.425,1.737-0.356,2.854,0.281c2.219,1.281,4.018,4.383,4.018,6.931c0,1.309-0.472,2.205-1.229,2.609" stroke="#000000" stroke-width="0.25" g2gstroke="#312783" stroke-miterlimit="10"/>
		<path orgstroke="#000000" orgfill="none" fill="none" stroke-linejoin="round" d="M465.423,371.493    c0.729-0.423,1.73-0.355,2.854,0.282c2.22,1.281,4.021,4.382,4.021,6.929c0,1.312-0.479,2.208-1.23,2.611" stroke="#000000" stroke-width="0.25" g2gstroke="#312783" stroke-miterlimit="10"/>
		<path orgstroke="#000000" orgfill="none" fill="none" stroke-linejoin="round" d="M473.576,369.073    c1.66,1.162,3.021,3.313,3.446,5.36" stroke="#000000" stroke-width="0.25" g2gstroke="#312783" stroke-miterlimit="10"/>
		
			<line orgstroke="#000000" orgfill="none" fill="none" x1="422.228" x2="429.07" y1="357.075" y2="353.011" stroke-linejoin="round" stroke="#000000" stroke-width="0.25" g2gstroke="#312783" stroke-miterlimit="10"/>
		
			<line orgstroke="#000000" orgfill="none" fill="none" x1="427.493" x2="430.094" y1="360.967" y2="359.449" stroke-linejoin="round" stroke="#000000" stroke-width="0.25" g2gstroke="#312783" stroke-miterlimit="10"/>
		
			<line orgstroke="#000000" orgfill="none" fill="none" x1="427.025" x2="429.383" y1="359.269" y2="357.896" stroke-linejoin="round" stroke="#000000" stroke-width="0.25" g2gstroke="#312783" stroke-miterlimit="10"/>
		
			<line orgstroke="#000000" orgfill="none" fill="none" x1="450.238" x2="452.594" y1="366.219" y2="364.844" stroke-linejoin="round" stroke="#000000" stroke-width="0.25" g2gstroke="#312783" stroke-miterlimit="10"/>
		
			<line orgstroke="#000000" orgfill="none" fill="none" x1="460.43" x2="464.565" y1="374.454" y2="371.969" stroke-linejoin="round" stroke="#000000" stroke-width="0.25" g2gstroke="#312783" stroke-miterlimit="10"/>
		<path orgstroke="#000000" orgfill="none" fill="none" stroke-linejoin="round" d="M446.425,367.531    c0.191-0.252,1.078-2.002,3.452-0.938c0.8,0.354,9.943,6.508,9.943,6.508" stroke="#000000" stroke-width="0.25" g2gstroke="#312783" stroke-miterlimit="10"/>
		<path orgstroke="#000000" orgfill="none" fill="none" stroke-linejoin="round" d="M466.64,381.366    c0,2.156-1.523,3.028-3.407,1.938c-1.881-1.083-3.407-3.714-3.407-5.875c0-2.159,1.526-3.029,3.407-1.942    C465.114,376.575,466.64,379.205,466.64,381.366z" stroke="#000000" stroke-width="0.25" g2gstroke="#312783" stroke-miterlimit="10"/>
		<g>
			
				<line orgstroke="#000000" orgfill="none" fill="none" x1="412.864" x2="415.009" y1="352.206" y2="350.907" stroke-linejoin="round" stroke="#000000" stroke-width="0.25" g2gstroke="#312783" stroke-miterlimit="10"/>
			<path orgstroke="#000000" orgfill="none" fill="none" stroke-linejoin="round" d="M415.007,350.906     c0.437-0.39,1.113-0.408,1.875,0.031c1.313,0.759,2.377,2.595,2.377,4.102c0,0.688-0.221,1.188-0.585,1.453" stroke="#000000" stroke-width="0.25" g2gstroke="#312783" stroke-miterlimit="10"/>
		</g>
		<path orgstroke="#000000" orgfill="none" fill="none" stroke-linejoin="round" d="M452.362,371.927    c-0.729-0.188-1.229,0.105-1.993,1.497c-1.215,2.209-1.767,3.196-2.979,5.413c-0.376,0.678-0.923,1.179-1.647,1.44" stroke="#000000" stroke-width="0.25" g2gstroke="#312783" stroke-miterlimit="10"/>
		<path orgstroke="#000000" orgfill="none" fill="none" stroke-linejoin="round" d="M412.919,352.163    c0.434-0.297,1.062-0.271,1.76,0.123c1.313,0.766,2.374,2.602,2.374,4.104c0,0.754-0.267,1.282-0.694,1.521" stroke="#000000" stroke-width="0.25" g2gstroke="#312783" stroke-miterlimit="10"/>
		
		<path orgstroke="#000000" orgfill="none" fill="none" stroke-linejoin="round" d="M415.792,355.658    c0,0.706-0.5,0.991-1.111,0.643c-0.618-0.355-1.114-1.224-1.114-1.93c0-0.707,0.499-0.984,1.114-0.636    C415.292,354.094,415.792,354.952,415.792,355.658z" stroke="#000000" stroke-width="0.25" g2gstroke="#312783" stroke-miterlimit="10"/>
	</g>
</g>
</g>
</g></svg>