<svg xmlns="http://www.w3.org/2000/svg" xmlns:xlink="http://www.w3.org/1999/xlink" xmlns:etg="http://www.eurotaxglass.com/etg/evd/" etg:dataTimestamp="1539068912893" contentScriptType="text/ecmascript" zoomAndPan="magnify" contentStyleType="text/css" id="Layer_1" enable-background="new 0 0 1841.891 1595.279" version="1.1" width="1841.891px" xml:space="preserve" preserveAspectRatio="xMidYMid meet" viewBox="0 0 1841.891 1595.279" height="1595.279px" x="0px" y="0px"><g xmlns="http://www.w3.org/2000/svg" objecttype="PS" tooltip="#UNDEFINED" id="31">
<g onmouseover="notifyOwner(AGV_OBJECT_MOUSEOVER, '31(PS)')" transform="translate(-4.0000032348633, -8.791041992187502) translate(67.47015438842772, -31.428020141601564)" onclick="clickZoom(evt); notifyOwner(AGV_OBJECT_MOUSECLICK, '31(PS)')" onmouseout="notifyOwner(AGV_OBJECT_MOUSEOUT, '31(PS)')" tooltip="#UNDEFINED" id="31-Graphic" objecttype="GRAPHIC">
<g>
	<g id="29::Tirante_transversal">
		<path orgstroke="#000000" orgfill="#ffffff" fill="#ffffff" g2gfill="#ECF5E4" stroke-linejoin="round" d="M433.689,410.385    c-5.357-7.02-7.711-6.685-9.691-9.157c-1.979-2.479-17.093-20.438-19.676-23.67c-2.583-3.232-1.046-3.88-6.172-9.526l0.003,0.005    c-0.688-0.896-1.504-1.646-2.378-2.153c-1.229-0.713-2.348-0.78-3.149-0.32l0.013-0.011l-1.593,0.84v-0.001    c-0.561,0.396-0.938,1.071-1.067,1.996c-0.191,0.427-0.302,0.95-0.302,1.567c0,0.193,0.014,0.396,0.034,0.599l-3.731,2.054    c-0.396,0.272-0.644,0.809-0.644,1.543c0,1.572,1.105,3.49,2.479,4.282c0.738,0.426,1.402,0.438,1.855,0.106l0.001,0.007    l3.521-2.004l-0.014-0.021c2.599,2.247,7.049,4.854,8.618,6.891c2.824,3.656,14.847,19.146,16.475,21.004    c1.627,1.859,5.541,7.047,6.161,8.361l-3.156,1.717c-0.438,0.263-0.71,0.813-0.71,1.592c0,1.572,1.112,3.489,2.483,4.276    c0.647,0.377,1.248,0.43,1.688,0.217l0.169-0.094l3.521-2.002l-0.017-0.021c0.154,0.108,0.313,0.218,0.479,0.311    c0.751,0.431,1.454,0.601,2.054,0.527l0.002,0.007c0.771,0.171,1.457,0.055,1.984-0.313l-0.546,0.271l1.868-0.937    c0.76-0.479,1.225-1.448,1.225-2.813c0-1.675-0.702-3.566-1.785-5.127" outline-element="true" stroke="#000000" stroke-width="0.5" g2gstroke="#312783" stroke-miterlimit="10"/>
		<path orgstroke="#000000" orgfill="none" fill="none" stroke-linejoin="round" d="M389.971,368.373    c0.598-1.313,2.021-1.651,3.683-0.692c2.201,1.271,3.986,4.35,3.986,6.874c0,2.521-1.785,3.544-3.986,2.271    c-0.166-0.095-0.317-0.193-0.479-0.31" stroke="#000000" stroke-width="0.25" g2gstroke="#312783" stroke-miterlimit="10"/>
		<path orgstroke="#000000" orgfill="none" fill="none" stroke-linejoin="round" d="M391.882,369.28    c0.452-0.283,1.063-0.29,1.771,0.117c1.371,0.79,2.482,2.706,2.482,4.28c0,0.785-0.273,1.332-0.72,1.59" stroke="#000000" stroke-width="0.25" g2gstroke="#312783" stroke-miterlimit="10"/>
		<path orgstroke="#000000" orgfill="none" fill="none" stroke-linejoin="round" d="M390.939,369.821    c0.453-0.311,1.108-0.293,1.837,0.129c1.372,0.792,2.482,2.708,2.482,4.282c0,0.813-0.246,1.292-0.721,1.536" stroke="#000000" stroke-width="0.25" g2gstroke="#312783" stroke-miterlimit="10"/>
		<path orgstroke="#000000" orgfill="none" fill="none" stroke-linejoin="round" d="M390.134,370.288    c0.451-0.262,1.074-0.292,1.769,0.106c1.371,0.792,2.481,2.71,2.481,4.282c0,0.817-0.304,1.391-0.79,1.629" stroke="#000000" stroke-width="0.25" g2gstroke="#312783" stroke-miterlimit="10"/>
		<path orgstroke="#000000" orgfill="none" fill="none" stroke-linejoin="round" d="M385.971,372.595    c0.453-0.313,1.11-0.296,1.842,0.126c1.372,0.791,2.482,2.709,2.482,4.282c0,0.727-0.239,1.252-0.629,1.523" stroke="#000000" stroke-width="0.25" g2gstroke="#312783" stroke-miterlimit="10"/>
		
			<line orgstroke="#000000" orgfill="none" fill="none" x1="393.191" x2="395.418" y1="376.535" y2="375.272" stroke-linejoin="round" stroke="#000000" stroke-width="0.25" g2gstroke="#312783" stroke-miterlimit="10"/>
		
			<line orgstroke="#000000" orgfill="none" fill="none" x1="389.701" x2="391.882" y1="370.54" y2="369.28" stroke-linejoin="round" stroke="#000000" stroke-width="0.25" g2gstroke="#312783" stroke-miterlimit="10"/>
		<path orgstroke="#000000" orgfill="none" fill="none" stroke-linejoin="round" d="M388.984,376.247    c0,0.744-0.521,1.043-1.175,0.675c-0.646-0.382-1.173-1.279-1.173-2.026c0-0.745,0.524-1.043,1.173-0.669    C388.459,374.6,388.984,375.51,388.984,376.247z" stroke="#000000" stroke-width="0.25" g2gstroke="#312783" stroke-miterlimit="10"/>
		<path orgstroke="#000000" orgfill="none" fill="none" stroke-linejoin="round" d="M391.039,366.384    c0.813-0.595,2.012-0.566,3.345,0.191c0.616,0.355,1.201,0.84,1.738,1.407" stroke="#000000" stroke-width="0.25" g2gstroke="#312783" stroke-miterlimit="10"/>
		<path orgstroke="#000000" orgfill="none" fill="none" stroke-linejoin="round" d="M424.935,412.478    c-0.021-0.196-0.03-0.398-0.03-0.589c0-2.525,1.783-3.547,3.984-2.272c2.201,1.271,3.986,4.354,3.986,6.874    c0,1.663-0.775,2.673-1.938,2.809" stroke="#000000" stroke-width="0.25" g2gstroke="#312783" stroke-miterlimit="10"/>
		<path orgstroke="#000000" orgfill="none" fill="none" stroke-linejoin="round" d="M427.115,411.22    c0.452-0.283,1.065-0.295,1.771,0.116c1.372,0.792,2.479,2.709,2.479,4.275c0,0.782-0.271,1.333-0.719,1.598" stroke="#000000" stroke-width="0.25" g2gstroke="#312783" stroke-miterlimit="10"/>
		<path orgstroke="#000000" orgfill="none" fill="none" stroke-linejoin="round" d="M426.175,411.761    c0.452-0.313,1.104-0.297,1.838,0.128c1.369,0.788,2.479,2.705,2.479,4.279c0,0.813-0.233,1.28-0.713,1.53" stroke="#000000" stroke-width="0.25" g2gstroke="#312783" stroke-miterlimit="10"/>
		<path orgstroke="#000000" orgfill="none" fill="none" stroke-linejoin="round" d="M425.502,412.151    c0.444-0.261,0.938-0.219,1.632,0.188c1.373,0.792,2.479,2.708,2.479,4.275c0,0.823-0.305,1.392-0.792,1.629" stroke="#000000" stroke-width="0.25" g2gstroke="#312783" stroke-miterlimit="10"/>
		<path orgstroke="#000000" orgfill="none" fill="none" stroke-linejoin="round" d="M421.275,414.488    c0.452-0.265,1.076-0.229,1.771,0.171c1.364,0.792,2.479,2.708,2.479,4.282c0,0.823-0.305,1.387-0.791,1.629" stroke="#000000" stroke-width="0.25" g2gstroke="#312783" stroke-miterlimit="10"/>
		
			<line orgstroke="#000000" orgfill="none" fill="none" x1="428.427" x2="430.652" y1="418.476" y2="417.216" stroke-linejoin="round" stroke="#000000" stroke-width="0.25" g2gstroke="#312783" stroke-miterlimit="10"/>
		
			<line orgstroke="#000000" orgfill="none" fill="none" x1="424.432" x2="427.115" y1="412.77" y2="411.22" stroke-linejoin="round" stroke="#000000" stroke-width="0.25" g2gstroke="#312783" stroke-miterlimit="10"/>
		<path orgstroke="#000000" orgfill="none" fill="none" stroke-linejoin="round" d="M424.219,418.185    c0,0.744-0.525,1.048-1.174,0.67c-0.648-0.374-1.182-1.278-1.182-2.023c0-0.737,0.529-1.043,1.182-0.669    C423.693,416.536,424.219,417.442,424.219,418.185z" stroke="#000000" stroke-width="0.25" g2gstroke="#312783" stroke-miterlimit="10"/>
		<path orgstroke="#000000" orgfill="none" fill="none" stroke-linejoin="round" d="M425.199,410.312    c0.326-2.268,2.188-3.088,4.411-1.796c2.466,1.423,4.463,4.87,4.463,7.698c0,1.313-0.435,2.271-1.146,2.768" stroke="#000000" stroke-width="0.25" g2gstroke="#312783" stroke-miterlimit="10"/>
		<path orgstroke="#000000" orgfill="none" fill="none" stroke-linejoin="round" d="M396.119,367.985    c5.127,5.647,3.604,6.339,6.188,9.569c2.582,3.229,17.695,21.188,19.677,23.668c1.979,2.479,4.572,2.338,9.927,9.353" stroke="#000000" stroke-width="0.25" g2gstroke="#312783" stroke-miterlimit="10"/>
		<path orgstroke="#000000" orgfill="none" fill="none" stroke-linejoin="round" d="M400.947,376.987    c0.388,0.896,0.771,1.752,1.749,2.981c2.583,3.229,17.696,21.186,19.678,23.665c0.563,0.707,3.222,2.478,3.9,2.963" stroke="#000000" stroke-width="0.25" g2gstroke="#312783" stroke-miterlimit="10"/>
		<path orgstroke="#000000" orgfill="none" fill="none" stroke-linejoin="round" d="M400.239,377.437    c0.386,0.892,0.771,1.75,1.747,2.977c2.583,3.231,17.699,21.188,19.677,23.665c0.564,0.71,3.184,3.146,3.863,3.629" stroke="#000000" stroke-width="0.25" g2gstroke="#312783" stroke-miterlimit="10"/>
	</g>
</g>
</g>
</g></svg>