<svg xmlns="http://www.w3.org/2000/svg" xmlns:xlink="http://www.w3.org/1999/xlink" xmlns:etg="http://www.eurotaxglass.com/etg/evd/" etg:dataTimestamp="1539068912893" contentScriptType="text/ecmascript" zoomAndPan="magnify" contentStyleType="text/css" id="Layer_1" enable-background="new 0 0 1841.891 1595.279" version="1.1" width="1841.891px" xml:space="preserve" preserveAspectRatio="xMidYMid meet" viewBox="0 0 1841.891 1595.279" height="1595.279px" x="0px" y="0px"><g xmlns="http://www.w3.org/2000/svg" objecttype="PS" tooltip="#UNDEFINED" id="4">
<g onmouseover="notifyOwner(AGV_OBJECT_MOUSEOVER, '4(PS)')" transform="translate(-4.0000032348633, -8.791041992187502) translate(67.47015438842772, -31.428020141601564)" onclick="clickZoom(evt); notifyOwner(AGV_OBJECT_MOUSECLICK, '4(PS)')" onmouseout="notifyOwner(AGV_OBJECT_MOUSEOUT, '4(PS)')" tooltip="#UNDEFINED" id="4-Graphic" objecttype="GRAPHIC">
<g>
	<g id="3::Proteccion_de_disco">
		<g id="3::XMLID_2_">
			<g>
				<path orgstroke="#000000" orgfill="#ffffff" fill="#ffffff" g2gfill="#ECF5E4" d="M568.764,416.72      c-4.014,4.669-6.771,11.038-6.771,16.561c0,1.883,0.316,3.492,0.896,4.799h0.004c3.653-0.638,10.908-3.432,13.567-5.229      c2.081-1.411,2.468-3.802,2.653-5.129c0.19-1.332-0.188-8.361-0.658-11.518c-0.104-0.686-0.383-1.098-0.645-1.404      c-0.895-0.35-1.936,0.228-1.936,0.228L568.764,416.72z M589.406,398.971c3.48,2.438,5.604,7.099,5.604,13.55      c0,13.88-9.813,30.796-21.911,37.781c-7.239,4.183-13.666,3.854-17.652-0.063c-0.818-0.692-1.55-1.54-2.183-2.508      c-0.625-0.968-1.154-2.07-1.566-3.294c0,0,0.396-0.36,0.833-0.801c0.443-0.439,0.938-0.968,1.12-1.298      c0.629-1.104-0.097-2.794,0.464-4.656c0.286-0.95,0.585-1.704,0.772-1.9c0.987-1.021,2.472-2.271,2.939-3.227      c0.479-0.95-0.049-4.903-0.015-5.188c0.083-0.655-0.203-1.028-0.616-1.415c0,0-1.188-0.587-1.311-0.646l-0.567-0.519      c-0.924-0.531-0.153-5.442-0.153-5.442c4.013-8.278,10.304-15.754,17.364-19.837C579.283,395.613,585.39,395.77,589.406,398.971      z" outline-element="true" stroke="#000000" stroke-width="0.5" g2gstroke="#312783" stroke-miterlimit="10"/>
			</g>
		</g>
		<path orgstroke="#000000" orgfill="none" fill="none" stroke-linejoin="round" d="M558.855,417.189    c1.799-3.121,3.942-6.049,6.324-8.6" stroke="#000000" stroke-width="0.25" g2gstroke="#312783" stroke-miterlimit="10"/>
		<path orgstroke="#000000" orgfill="none" fill="none" stroke-linejoin="round" d="M567.117,406.644    c1.893-1.763,3.896-3.284,5.979-4.485c11.066-6.394,20.052-1.271,20.052,11.438s-8.979,28.188-20.052,34.584    c-5.537,3.196-10.549,3.517-14.184,1.439" stroke="#000000" stroke-width="0.25" g2gstroke="#312783" stroke-miterlimit="10"/>
		<path orgstroke="#000000" orgfill="none" fill="none" stroke-linejoin="round" d="M564.005,415.019    c2.938-4.048,6.512-7.487,10.358-9.712c10.027-5.789,18.157-1.154,18.157,10.352c0,11.507-8.129,25.526-18.157,31.317    c-4.04,2.33-7.771,2.973-10.786,2.153" stroke="#000000" stroke-width="0.25" g2gstroke="#312783" stroke-miterlimit="10"/>
		<path orgstroke="#000000" orgfill="none" fill="none" stroke-linejoin="round" d="M568.765,416.719    c1.682-1.954,3.587-3.608,5.604-4.772c6.832-3.946,12.372-0.787,12.372,7.054c0,7.846-5.54,17.396-12.372,21.346    c-5.188,2.998-9.643,1.891-11.475-2.264" stroke="#000000" stroke-width="0.25" g2gstroke="#312783" stroke-miterlimit="10"/>
		<path orgstroke="#000000" orgfill="none" fill="none" stroke-linejoin="round" d="M574.365,442.365    c-7.81,4.518-14.143,0.9-14.143-8.062c0.001-8.962,6.333-19.883,14.143-24.396c7.813-4.51,14.146-0.896,14.146,8.063    S582.179,437.858,574.365,442.365z" stroke="#000000" stroke-width="0.25" g2gstroke="#312783" stroke-miterlimit="10"/>
		<path orgstroke="#000000" orgfill="none" fill="none" stroke-linejoin="round" d="M555.732,419.865    c0,0,0.419,4.771,1.347,5.301c0.25,0.146,2.96,0.979,2.742,2.729c-0.035,0.283,0.488,4.234,0.014,5.185    c-0.476,0.95-1.946,2.201-2.939,3.23c-0.188,0.194-0.487,0.95-0.771,1.896c-0.56,1.86,0.162,3.563-0.465,4.654    c-0.38,0.666-3.021,3.11-3.021,3.11" stroke="#000000" stroke-width="0.25" g2gstroke="#312783" stroke-miterlimit="10"/>
		<path orgstroke="#000000" orgfill="none" fill="none" stroke-linejoin="round" d="M557.212,425.938    c0.648,0.407,1.273,1.033,1.166,1.952c-0.035,0.284,0.481,4.229,0.014,5.186c-0.479,0.95-1.954,2.201-2.945,3.23    c-0.188,0.194-0.487,0.95-0.771,1.896c-0.563,1.86,0.163,3.563-0.463,4.654c-0.388,0.666-1.957,2.104-1.957,2.104" stroke="#000000" stroke-width="0.25" g2gstroke="#312783" stroke-miterlimit="10"/>
		<path orgstroke="#000000" orgfill="none" fill="none" stroke-linejoin="round" d="M555.732,419.865    c0,0-0.775,4.912,0.151,5.445" stroke="#000000" stroke-width="0.25" g2gstroke="#312783" stroke-miterlimit="10"/>
		<path orgstroke="#000000" orgfill="none" fill="none" stroke-linejoin="round" d="M555.732,419.865    c0,0,6.711-2.824,8.272-4.846" stroke="#000000" stroke-width="0.25" g2gstroke="#312783" stroke-miterlimit="10"/>
		
			<line orgstroke="#000000" orgfill="none" fill="none" x1="567.117" x2="568.765" y1="406.644" y2="408.381" stroke-linejoin="round" stroke="#000000" stroke-width="0.25" g2gstroke="#312783" stroke-miterlimit="10"/>
		<path orgstroke="#000000" orgfill="none" fill="none" stroke-linejoin="round" d="M577.823,414.802    c0.537,0.207,1.023,0.733,1.201,1.923c0.477,3.146,0.855,10.182,0.665,11.512c-0.189,1.33-0.578,3.718-2.66,5.131    c-2.66,1.808-10.269,4.521-13.922,5.156" stroke="#000000" stroke-width="0.25" g2gstroke="#312783" stroke-miterlimit="10"/>
		<path orgstroke="#000000" orgfill="none" fill="none" stroke-linejoin="round" d="M555.44,450.242    c-1.372-1.348-2.458-3.122-3.188-5.275" stroke="#000000" stroke-width="0.25" g2gstroke="#312783" stroke-miterlimit="10"/>
		<path orgstroke="#000000" orgfill="none" fill="none" stroke-linejoin="round" d="M580.448,418.26    c0,0,1.9-2.188,2.091-2.477c0.189-0.278,1.995-1.709,2.476,0c0.476,1.71,0.476,5.984,0.476,5.984" stroke="#000000" stroke-width="0.25" g2gstroke="#312783" stroke-miterlimit="10"/>
		<path orgstroke="#000000" orgfill="none" fill="none" stroke-linejoin="round" d="M577.885,413.41    c0,0,2.938,1.289,3.229,1.546c0.285,0.265,3.967-5.595,3.967-5.595l-0.729-1.392" stroke="#000000" stroke-width="0.25" g2gstroke="#312783" stroke-miterlimit="10"/>
		<polyline orgstroke="#000000" orgfill="none" points="    575.604,406.644 578.93,406.096 576.74,411.985   " fill="none" stroke-linejoin="round" stroke="#000000" stroke-width="0.25" g2gstroke="#312783" stroke-miterlimit="10"/>
		<path orgstroke="#000000" orgfill="none" fill="none" stroke-linejoin="round" d="M579.738,408.381    c0,0,1.757,0.381,2.138,0.658c0.385,0.285-1.063,2.945-1.063,2.945" stroke="#000000" stroke-width="0.25" g2gstroke="#312783" stroke-miterlimit="10"/>
		<path orgstroke="#000000" orgfill="none" fill="none" stroke-linejoin="round" d="M565.819,444.965    c0,0,2.376,0.771,5.13,0c2.755-0.771,6.938-3.619,6.938-3.619l-1.146-3.704" stroke="#000000" stroke-width="0.25" g2gstroke="#312783" stroke-miterlimit="10"/>
		<path orgstroke="#000000" orgfill="none" fill="none" stroke-linejoin="round" d="M589.38,423.386    c0,0-1.044,4.271-1.812,5.889c-0.76,1.616-3.04,5.229-3.04,5.229l-3.052-2.095" stroke="#000000" stroke-width="0.25" g2gstroke="#312783" stroke-miterlimit="10"/>
		<path orgstroke="#000000" orgfill="none" fill="none" stroke-linejoin="round" d="M590.139,421.105    c0,0,1.615-4.75,1.141-8.17c-0.476-3.42-3.801-6.84-3.801-6.84" stroke="#000000" stroke-width="0.25" g2gstroke="#312783" stroke-miterlimit="10"/>
		
			<ellipse orgstroke="#000000" orgfill="none" fill="none" stroke-linejoin="round" rx="0.792" cx="568.736" ry="0.713" cy="439.583" stroke="#000000" stroke-width="0.25" g2gstroke="#312783" stroke-miterlimit="10"/>
		
			<ellipse orgstroke="#000000" orgfill="none" fill="none" stroke-linejoin="round" rx="0.651" cx="565.819" ry="0.597" cy="414.958" stroke="#000000" stroke-width="0.25" g2gstroke="#312783" stroke-miterlimit="10"/>
		<polyline orgstroke="#000000" orgfill="none" points="    560.228,444.309 565.819,440.302 567.117,438.034   " fill="none" stroke-linejoin="round" stroke="#000000" stroke-width="0.25" g2gstroke="#312783" stroke-miterlimit="10"/>
		
			<line orgstroke="#000000" orgfill="none" fill="none" x1="578.93" x2="582.968" y1="440.302" y2="435.865" stroke-linejoin="round" stroke="#000000" stroke-width="0.25" g2gstroke="#312783" stroke-miterlimit="10"/>
		
			<line orgstroke="#000000" orgfill="none" fill="none" x1="552.254" x2="551.689" y1="444.967" y2="444.477" stroke-linejoin="round" stroke="#000000" stroke-width="0.25" g2gstroke="#312783" stroke-miterlimit="10"/>
		<path orgstroke="#000000" orgfill="none" fill="none" stroke-linejoin="round" d="M589.406,398.97    c-4.011-2.814-9.832-2.688-16.312,1.061c-7.07,4.081-13.358,11.563-17.363,19.835l-0.564-0.516" stroke="#000000" stroke-width="0.25" g2gstroke="#312783" stroke-miterlimit="10"/>
	</g>
</g>
</g>
</g></svg>