<svg xmlns="http://www.w3.org/2000/svg" xmlns:xlink="http://www.w3.org/1999/xlink" xmlns:etg="http://www.eurotaxglass.com/etg/evd/" etg:dataTimestamp="1539068912893" contentScriptType="text/ecmascript" zoomAndPan="magnify" contentStyleType="text/css" id="Layer_1" enable-background="new 0 0 1841.891 1595.279" version="1.1" width="1841.891px" xml:space="preserve" preserveAspectRatio="xMidYMid meet" viewBox="0 0 1841.891 1595.279" height="1595.279px" x="0px" y="0px"><g xmlns="http://www.w3.org/2000/svg" objecttype="PS" tooltip="#UNDEFINED" id="40">
<g onmouseover="notifyOwner(AGV_OBJECT_MOUSEOVER, '40(PS)')" transform="translate(67.47015438842772, -31.428020141601564) translate(-82.0, -7.0) translate(73.0, 0.0) translate(-13.0, -12.0) translate(20,20) " onclick="clickZoom(evt); notifyOwner(AGV_OBJECT_MOUSECLICK, '40(PS)')" onmouseout="notifyOwner(AGV_OBJECT_MOUSEOUT, '40(PS)')" tooltip="#UNDEFINED" id="40-Graphic" objecttype="GRAPHIC">
<g zvalue="14">
<g>
<g id="34::Amortiguador_activo">
<path orgstroke="#000000" orgfill="#ffffff" fill="#ffffff" g2gfill="#ECF5E4" stroke-linejoin="round" d="M488.506,307.011    l8.381,4.799l-0.001,0.001c0.75,0.528,1.842,0.506,3.053-0.196c2.266-1.307,4.101-4.473,4.099-7.064    c0-1.204-0.395-2.073-1.043-2.53l-0.002,0.005l-3.054-1.804v-0.004c0.124-0.063,0.244-0.125,0.36-0.192    c0.999-0.576,1.827-2.036,1.827-2.036s0-1.868,0-4.973l5.394-3.04c0.78-0.443,1.263-1.402,1.263-2.771    c0-2.727-1.928-6.054-4.307-7.426c-0.866-0.5-1.676-0.674-2.35-0.558c0-19.406,0-46.898-0.008-46.898    c-0.011-0.928-0.629-1.85-1.853-2.559c-0.575-0.333-1.235-0.595-1.939-0.771h0.009c0.021-2.188,0.028-4.896-0.063-6.188    c-0.173-2.364-1.367-9.563-1.367-9.563c-0.021-0.142-0.128-0.271-0.313-0.385c-0.42-0.242-1.104-0.243-1.521-0.002    c-0.212,0.121-0.313,0.279-0.312,0.438c0,0-1.191,7.104-1.363,9.494c-0.093,1.288-0.083,3.987-0.058,6.187    c-0.716,0.177-1.385,0.432-1.962,0.768c-1.229,0.708-1.841,1.646-1.826,2.571v65.122c0.005,0.373,0.104,0.744,0.31,1.104    l0.003,0.006c-1.5,1.563-2.555,3.854-2.557,5.829c0,1.302,0.458,2.212,1.201,2.635L488.506,307.011z" stroke="#000000" outline-element="true" stroke-width="0.5" g2gstroke="#312783" stroke-miterlimit="10"/>
<path orgstroke="#000000" orgfill="none" fill="none" d="M498.279,232.317    c0.006,0.362-0.229,0.727-0.709,1c-0.95,0.547-2.494,0.546-3.448-0.008c-0.478-0.273-0.717-0.641-0.719-0.994" stroke="#000000" stroke-width="0.25" g2gstroke="#312783" stroke-miterlimit="10"/>
<path orgstroke="#000000" orgfill="none" fill="none" d="M498.264,222.81    c0.074,0.401-0.157,0.828-0.695,1.136c-0.949,0.55-2.494,0.547-3.447-0.006c-0.541-0.313-0.771-0.734-0.709-1.145" stroke="#000000" stroke-width="0.25" g2gstroke="#312783" stroke-miterlimit="10"/>
<path orgstroke="#000000" orgfill="none" fill="none" d="M496.906,213.247    c0.03,0.179-0.066,0.359-0.308,0.495c-0.419,0.243-1.104,0.243-1.521-0.003c-0.211-0.121-0.313-0.28-0.313-0.439" stroke="#000000" stroke-width="0.25" g2gstroke="#312783" stroke-miterlimit="10"/>
<path orgstroke="#000000" orgfill="none" fill="none" stroke-linejoin="round" d="M489.865,298.552    c0.299,0.524,0.814,1.023,1.547,1.453c2.351,1.354,6.065,1.424,8.528,0.2" stroke="#000000" stroke-width="0.25" g2gstroke="#312783" stroke-miterlimit="10"/>
<path orgstroke="#000000" orgfill="none" fill="none" d="M502.118,232.32    c0.019,0.933-0.598,1.864-1.819,2.575c-2.447,1.413-6.433,1.399-8.894-0.021c-1.227-0.706-1.845-1.633-1.854-2.559" stroke="#000000" stroke-width="0.25" g2gstroke="#312783" stroke-miterlimit="10"/>
<path orgstroke="#000000" orgfill="none" fill="none" d="M502.116,235.891    c0.038,0.952-0.563,1.901-1.817,2.632c-2.447,1.412-6.433,1.405-8.893-0.021c-1.266-0.729-1.884-1.688-1.854-2.645" stroke="#000000" stroke-width="0.25" g2gstroke="#312783" stroke-miterlimit="10"/>
<path orgstroke="#000000" orgfill="none" fill="none" d="M502.115,294.174    c0.102,0.991-0.511,1.999-1.813,2.759c-2.447,1.412-6.433,1.398-8.893-0.021c-1.146-0.663-1.766-1.521-1.846-2.386" stroke="#000000" stroke-width="0.25" g2gstroke="#312783" stroke-miterlimit="10"/>
<path orgstroke="#000000" orgfill="none" fill="none" d="M493.399,232.315c0,0-0.034-1.488-0.056-3.337" stroke="#000000" stroke-width="0.25" g2gstroke="#312783" stroke-miterlimit="10"/>
<path orgstroke="#000000" orgfill="none" fill="none" d="M498.337,228.997    c-0.022,1.838-0.063,3.317-0.063,3.317" stroke="#000000" stroke-width="0.25" g2gstroke="#312783" stroke-miterlimit="10"/>
<path orgstroke="#000000" orgfill="none" fill="none" stroke-linejoin="round" d="M502.126,279.221    c0,5.521,0,10.393,0,13.78" stroke="#000000" stroke-width="0.25" g2gstroke="#312783" stroke-miterlimit="10"/>
<path orgstroke="#000000" orgfill="none" fill="none" d="M496.885,311.81    c-0.649-0.457-1.044-1.329-1.044-2.533c0-2.595,1.834-5.761,4.097-7.063c1.216-0.701,2.306-0.729,3.056-0.195" stroke="#000000" stroke-width="0.25" g2gstroke="#312783" stroke-miterlimit="10"/>
<path orgstroke="#000000" orgfill="none" fill="none" d="M499.939,309.196    c-1.101,0.637-1.994,0.127-1.994-1.136c0-1.262,0.896-2.802,1.994-3.438c1.101-0.636,1.993-0.127,1.993,1.142    C501.933,307.022,501.034,308.563,499.939,309.196z" stroke="#000000" stroke-width="0.25" g2gstroke="#312783" stroke-miterlimit="10"/>
<path orgstroke="#000000" orgfill="none" fill="none" d="M505.281,291.228    c0.822-0.434,1.273-1.438,1.273-2.85c0-2.729-1.928-6.055-4.31-7.425" stroke="#000000" stroke-width="0.25" g2gstroke="#312783" stroke-miterlimit="10"/>
</g>
</g>
</g>
</g>
</g></svg>