<svg xmlns="http://www.w3.org/2000/svg" xmlns:xlink="http://www.w3.org/1999/xlink" xmlns:etg="http://www.eurotaxglass.com/etg/evd/" etg:dataTimestamp="1539068912893" contentScriptType="text/ecmascript" zoomAndPan="magnify" contentStyleType="text/css" id="Layer_1" enable-background="new 0 0 1841.891 1595.279" version="1.1" width="1841.891px" xml:space="preserve" preserveAspectRatio="xMidYMid meet" viewBox="0 0 1841.891 1595.279" height="1595.279px" x="0px" y="0px"><g xmlns="http://www.w3.org/2000/svg" objecttype="PS" tooltip="#UNDEFINED" id="45">
<g onmouseover="notifyOwner(AGV_OBJECT_MOUSEOVER, '45(PS)')" transform="translate(67.47015438842772, -31.428020141601564) translate(-49.0, -114.0) translate(-10,147) " onclick="clickZoom(evt); notifyOwner(AGV_OBJECT_MOUSECLICK, '45(PS)')" onmouseout="notifyOwner(AGV_OBJECT_MOUSEOUT, '45(PS)')" tooltip="#UNDEFINED" id="45-Graphic" objecttype="GRAPHIC">
<g zvalue="54" transform="translate(45,-27) ">
<g zvalue="20">
<g>
<g id="38::Sensor_de_nivel">
<path orgstroke="#000000" orgfill="#ffffff" fill="#ffffff" g2gfill="#ECF5E4" stroke-linejoin="round" d="M581.464,156.007    l-6.861,3.929l0.514,3.521l2.918-1.616l-0.014,0.015c0.314-0.188,0.75-0.152,1.229,0.125c0.231,0.138,0.47,0.318,0.677,0.547    l0.021,0.044l0.406-0.237l-0.004-0.002c0.367-0.167,0.854-0.117,1.383,0.189c1.146,0.651,2.068,2.256,2.068,3.563    c0,0.063-0.004,0.11-0.006,0.163l-0.003-0.001c0.147,0.038,0.313,0.104,0.479,0.201c0.961,0.554,1.74,1.896,1.74,3.001    c0,0.602-0.232,1.007-0.604,1.161l0.199-0.121l-3.24,1.906l0.111-0.066l0.65,0.673l0.01-0.009    c1.174,0.931,2.188,1.726,2.773,2.188l-0.029,0.045l1.157-1.563c0.347-0.557,0.843-1.064,1.416-0.666    c1.072,0.758,1.584,1.75,1.584,3.063c0,0.646-0.229,1.104-0.596,1.313l-0.104,0.146l0.146,5.438v0.164    c0-0.604,0.195-1.047,0.521-1.271v0.001l0.957-0.521c0.358-0.146,0.831-0.091,1.348,0.205c1.146,0.659,2.063,2.256,2.063,3.566    v2.021l1.464,0.479c0,0,0.977,0.589,1.274,1.957c0.306,1.359,0.455,2.271,0,2.817c-0.455,0.551-1.098,0.819-1.646,0.188    c-0.546-0.645-1.264-1.233-1.854-1.372v-0.001c-0.413,0.01-0.943-0.068-0.943-0.068l-5.646-3.474l-0.479-0.01v0.01    c0,0,0.217,2.09-1.304,2.146c-1.521,0.063-3.682,0.276-4.438,0.229c-0.76-0.048-1.938-1.015-1.459-2.43    c0.486-1.414,1.813-2.854,1.813-2.854c0.021-0.166,0.063-0.313,0.116-0.436c0.607-1.342,2.938-5.798,2.938-5.798l-0.002,0.004    c-0.186-0.09-0.369-0.219-0.563-0.396c-0.265-0.229-2.521-1.933-4.938-3.771c0,0-0.64,0.011-1.216,0    c-0.575-0.019-1.216,0.282-1.577,0.979c-0.365,0.7-2.521,1.461-4.443,1.692c-1.924,0.229-0.143-1.146,0.88-1.817    c1.021-0.674-0.195-2.76-0.231-3.216c-0.035-0.455-1.664-2.063-2.246-2.912c-0.578-0.847-0.759-2.688-0.759-2.688l-2.231-10.849    l6.572-3.833l-1.697-5.928l0.791-0.462l7.959,4.596L581.464,156.007z" stroke="#000000" outline-element="true" stroke-width="0.5" g2gstroke="#312783" stroke-miterlimit="10"/>
<path orgstroke="#000000" orgfill="none" fill="none" d="M575.276,150.253    c0,0.688-0.484,0.962-1.08,0.617c-0.6-0.345-1.082-1.18-1.082-1.865c0-0.685,0.484-0.961,1.082-0.607    C574.791,148.733,575.276,149.568,575.276,150.253z" stroke="#000000" stroke-width="0.25" g2gstroke="#312783" stroke-miterlimit="10"/>
<path orgstroke="#000000" orgfill="none" fill="none" d="M579.317,152.181    c0,0.685-0.484,0.963-1.082,0.608c-0.598-0.344-1.08-1.179-1.08-1.855c0-0.688,0.482-0.963,1.08-0.618    C578.823,150.661,579.317,151.497,579.317,152.181z" stroke="#000000" stroke-width="0.25" g2gstroke="#312783" stroke-miterlimit="10"/>
<path orgstroke="#000000" orgfill="none" fill="none" d="M575.192,150.685    c-0.113-0.021-0.234-0.064-0.359-0.146c-0.598-0.344-1.072-1.179-1.072-1.855c0-0.17,0.021-0.314,0.081-0.438" stroke="#000000" stroke-width="0.25" g2gstroke="#312783" stroke-miterlimit="10"/>
<path orgstroke="#000000" orgfill="none" fill="none" d="M579.233,152.614    c-0.113-0.02-0.234-0.064-0.359-0.138c-0.598-0.354-1.082-1.188-1.082-1.865c0-0.17,0.029-0.314,0.084-0.431" stroke="#000000" stroke-width="0.25" g2gstroke="#312783" stroke-miterlimit="10"/>
<path orgstroke="#000000" orgfill="none" fill="none" d="M575.276,169.555    c0,0.686-0.484,0.963-1.08,0.609c-0.6-0.345-1.082-1.18-1.082-1.856c0-0.688,0.484-0.961,1.082-0.616    C574.791,168.036,575.276,168.871,575.276,169.555z" stroke="#000000" stroke-width="0.25" g2gstroke="#312783" stroke-miterlimit="10"/>
<path orgstroke="#000000" orgfill="none" fill="none" d="M585.115,177.059    c0,0.626-0.438,0.878-0.98,0.563c-0.545-0.313-0.988-1.078-0.988-1.704s0.443-0.879,0.988-0.563    C584.678,175.669,585.115,176.432,585.115,177.059z" stroke="#000000" stroke-width="0.25" g2gstroke="#312783" stroke-miterlimit="10"/>
<path orgstroke="#000000" orgfill="none" fill="none" d="M583.048,186.095    c0,0.42-0.298,0.591-0.666,0.378c-0.367-0.212-0.664-0.729-0.664-1.149s0.297-0.591,0.664-0.379    C582.75,185.159,583.048,185.672,583.048,186.095z" stroke="#000000" stroke-width="0.25" g2gstroke="#312783" stroke-miterlimit="10"/>
<path orgstroke="#000000" orgfill="none" fill="none" d="M592.656,184.946    c0,0.684-0.479,0.961-1.082,0.615c-0.598-0.343-1.073-1.188-1.073-1.864c0-0.687,0.479-0.961,1.073-0.617    C592.178,183.425,592.656,184.26,592.656,184.946z" stroke="#000000" stroke-width="0.25" g2gstroke="#312783" stroke-miterlimit="10"/>
<path orgstroke="#000000" orgfill="none" fill="none" d="M592.615,185.267    c-0.086-0.025-0.18-0.063-0.271-0.118c-0.604-0.345-1.082-1.18-1.082-1.865c0-0.121,0.018-0.228,0.045-0.322" stroke="#000000" stroke-width="0.25" g2gstroke="#312783" stroke-miterlimit="10"/>
<path orgstroke="#000000" orgfill="none" fill="none" d="M590.041,181.849    c0.378-0.271,0.929-0.254,1.532,0.1c1.146,0.659,2.066,2.256,2.066,3.566" stroke="#000000" stroke-width="0.25" g2gstroke="#312783" stroke-miterlimit="10"/>
<path orgstroke="#000000" orgfill="none" fill="none" d="M587.059,173.662    c0.449-0.664,0.965-0.597,1.371-0.173c0.914,0.95,1.271,1.615,1.271,2.924c0,0.481-0.125,0.856-0.34,1.105" stroke="#000000" stroke-width="0.25" g2gstroke="#312783" stroke-miterlimit="10"/>
<path orgstroke="#000000" orgfill="none" fill="none" d="M583.115,166.283    c0.191-0.087,0.432-0.104,0.688-0.042" stroke="#000000" stroke-width="0.25" g2gstroke="#312783" stroke-miterlimit="10"/>
<path orgstroke="#000000" orgfill="none" fill="none" d="M579.739990234375 150.39199829101562L571.781005859375 145.7969970703125" stroke="#000000" stroke-width="0.25" g2gstroke="#312783" stroke-miterlimit="10"/>
<path orgstroke="#000000" orgfill="none" fill="none" d="M575.3170166015625 152.71200561523438L573.4810180664062 151.72500610351562" stroke="#000000" stroke-width="0.25" g2gstroke="#312783" stroke-miterlimit="10"/>
<path orgstroke="#000000" orgfill="none" fill="none" d="M580.4849853515625 155.49200439453125L577.3049926757812 153.7830047607422" stroke="#000000" stroke-width="0.25" g2gstroke="#312783" stroke-miterlimit="10"/>
<path orgstroke="#000000" orgfill="none" fill="none" d="M568.5869750976562 156.5019989013672L566.906005859375 155.55599975585938" stroke="#000000" stroke-width="0.25" g2gstroke="#312783" stroke-miterlimit="10"/>
<path orgstroke="#000000" orgfill="none" fill="none" d="M573.75 159.41299438476562L570.375 157.45199584960938" stroke="#000000" stroke-width="0.25" g2gstroke="#312783" stroke-miterlimit="10"/>
<path orgstroke="#000000" orgfill="none" fill="none" d="M579.739990234375 150.39199829101562L580.531005859375 149.92999267578125" stroke="#000000" stroke-width="0.25" g2gstroke="#312783" stroke-miterlimit="10"/>
<path orgstroke="#000000" orgfill="none" fill="none" d="M573.75 159.41299438476562L580.4849853515625 155.49200439453125" stroke="#000000" stroke-width="0.25" g2gstroke="#312783" stroke-miterlimit="10"/>
<path orgstroke="#000000" orgfill="none" fill="none" d="M579.739990234375 150.39199829101562L580.4849853515625 155.49200439453125" stroke="#000000" stroke-width="0.25" g2gstroke="#312783" stroke-miterlimit="10"/>
<path orgstroke="#000000" orgfill="none" fill="none" d="M568.139,156.753l2.736,10.948    c0,0,0.313,1.333,1.508,1.389" stroke="#000000" stroke-width="0.25" g2gstroke="#312783" stroke-miterlimit="10"/>
<path orgstroke="#000000" orgfill="none" fill="none" d="M572.14501953125 167.2030029296875L569.6430053710938 157.45199584960938" stroke="#000000" stroke-width="0.25" g2gstroke="#312783" stroke-miterlimit="10"/>
<path orgstroke="#000000" orgfill="none" fill="none" d="M569.6430053710938 157.45199584960938L576.739990234375 153.38999938964844" stroke="#000000" stroke-width="0.25" g2gstroke="#312783" stroke-miterlimit="10"/>
<path orgstroke="#000000" orgfill="none" fill="none" d="M568.1389770507812 156.7530059814453L575.4749755859375 152.625" stroke="#000000" stroke-width="0.25" g2gstroke="#312783" stroke-miterlimit="10"/>
<path orgstroke="#000000" orgfill="none" fill="none" d="M570.375 157.45199584960938L577.302001953125 153.77999877929688" stroke="#000000" stroke-width="0.25" g2gstroke="#312783" stroke-miterlimit="10"/>
<path orgstroke="#000000" orgfill="none" fill="none" d="M570.375 157.45199584960938L572.6320190429688 166.8350067138672" stroke="#000000" stroke-width="0.25" g2gstroke="#312783" stroke-miterlimit="10"/>
<path orgstroke="#000000" orgfill="none" fill="none" d="M569.6430053710938 157.45199584960938L568.1389770507812 156.7530059814453" stroke="#000000" stroke-width="0.25" g2gstroke="#312783" stroke-miterlimit="10"/>
<path orgstroke="#000000" orgfill="none" fill="none" d="M569.1409912109375 166.39999389648438L570.656005859375 166.8350067138672" stroke="#000000" stroke-width="0.25" g2gstroke="#312783" stroke-miterlimit="10"/>
<path orgstroke="#000000" orgfill="none" fill="none" d="M575.4749755859375 152.625L576.1799926757812 148.76100158691406" stroke="#000000" stroke-width="0.25" g2gstroke="#312783" stroke-miterlimit="10"/>
<path orgstroke="#000000" orgfill="none" fill="none" d="M576.1799926757812 148.76100158691406L576.739990234375 153.38999938964844" stroke="#000000" stroke-width="0.25" g2gstroke="#312783" stroke-miterlimit="10"/>
<path orgstroke="#000000" orgfill="none" fill="none" d="M576.1799926757812 148.76100158691406L577.302001953125 153.77999877929688" stroke="#000000" stroke-width="0.25" g2gstroke="#312783" stroke-miterlimit="10"/>
<path orgstroke="#000000" orgfill="none" fill="none" d="M573.75 159.41299438476562L574.6019897460938 163.968994140625" stroke="#000000" stroke-width="0.25" g2gstroke="#312783" stroke-miterlimit="10"/>
<path orgstroke="#000000" orgfill="none" fill="none" d="M584.24,178.526    c1.588,0.757,2.604-1.567,1.326-2.771" stroke="#000000" stroke-width="0.25" g2gstroke="#312783" stroke-miterlimit="10"/>
<path orgstroke="#000000" orgfill="none" fill="none" d="M585.255,175.53c0,0-8.557-6.71-10.652-8.602    c-2.104-1.896-3.012,1.396-1.971,2.552c0.547,0.604,3.426,2.834,6.104,4.883" stroke="#000000" stroke-width="0.25" g2gstroke="#312783" stroke-miterlimit="10"/>
<path orgstroke="#000000" orgfill="none" fill="none" d="M586.116,178.465    c0.959-0.316,1.352-1.929,0.357-2.854" stroke="#000000" stroke-width="0.25" g2gstroke="#312783" stroke-miterlimit="10"/>
<path orgstroke="#000000" orgfill="none" fill="none" d="M583.155,172.987    c-2.746-2.175-6.389-5.085-7.639-6.21c-0.518-0.464-0.961-0.616-1.32-0.563" stroke="#000000" stroke-width="0.25" g2gstroke="#312783" stroke-miterlimit="10"/>
<path orgstroke="#000000" orgfill="none" fill="none" d="M586.483,175.608c0,0-0.203-0.156-0.551-0.43" stroke="#000000" stroke-width="0.25" g2gstroke="#312783" stroke-miterlimit="10"/>
<path orgstroke="#000000" orgfill="none" fill="none" d="M573.1920166015625 166.35499572753906L574.1939697265625 166.2169952392578" stroke="#000000" stroke-width="0.25" g2gstroke="#312783" stroke-miterlimit="10"/>
<path orgstroke="#000000" orgfill="none" fill="none" d="M584.989990234375 178.6750030517578L586.1160278320312 178.46499633789062" stroke="#000000" stroke-width="0.25" g2gstroke="#312783" stroke-miterlimit="10"/>
<path orgstroke="#000000" orgfill="none" fill="none" d="M575.114990234375 163.45700073242188L574.56298828125 163.76300048828125" stroke="#000000" stroke-width="0.25" g2gstroke="#312783" stroke-miterlimit="10"/>
<path orgstroke="#000000" orgfill="none" fill="none" d="M579.947998046875 162.56300354003906L575.7369995117188 165.01800537109375" stroke="#000000" stroke-width="0.25" g2gstroke="#312783" stroke-miterlimit="10"/>
<path orgstroke="#000000" orgfill="none" fill="none" d="M583.1160278320312 166.28500366210938L578.9730224609375 168.68800354003906" stroke="#000000" stroke-width="0.25" g2gstroke="#312783" stroke-miterlimit="10"/>
<path orgstroke="#000000" orgfill="none" fill="none" d="M580.9810180664062 162.72999572753906L576.572998046875 165.23500061035156" stroke="#000000" stroke-width="0.25" g2gstroke="#312783" stroke-miterlimit="10"/>
<path orgstroke="#000000" orgfill="none" fill="none" d="M578.260009765625 162.12600708007812L575.4749755859375 163.71299743652344" stroke="#000000" stroke-width="0.25" g2gstroke="#312783" stroke-miterlimit="10"/>
<path orgstroke="#000000" orgfill="none" fill="none" d="M583.6859741210938 166.92799377441406L579.6690063476562 169.0919952392578" stroke="#000000" stroke-width="0.25" g2gstroke="#312783" stroke-miterlimit="10"/>
<path orgstroke="#000000" orgfill="none" fill="none" d="M581.19,184.755    c-0.238,1.653,1.045,5.055,2.496,1.746c1.6-3.632,4.924-9.337,4.924-9.337" stroke="#000000" stroke-width="0.25" g2gstroke="#312783" stroke-miterlimit="10"/>
<path orgstroke="#000000" orgfill="none" fill="none" d="M583.657,187.605    c0.314-0.131,0.658-0.538,1.02-1.344c1.6-3.64,4.789-8.892,4.789-8.892" stroke="#000000" stroke-width="0.25" g2gstroke="#312783" stroke-miterlimit="10"/>
<path orgstroke="#000000" orgfill="none" fill="none" d="M582.6099853515625 187.89199829101562L583.656982421875 187.60499572753906" stroke="#000000" stroke-width="0.25" g2gstroke="#312783" stroke-miterlimit="10"/>
<path orgstroke="#000000" orgfill="none" fill="none" d="M589.5159912109375 184.72900390625L586.2999877929688 182.96200561523438" stroke="#000000" stroke-width="0.25" g2gstroke="#312783" stroke-miterlimit="10"/>
<path orgstroke="#000000" orgfill="none" fill="none" d="M589.5159912109375 183.98800659179688L586.5910034179688 182.41600036621094" stroke="#000000" stroke-width="0.25" g2gstroke="#312783" stroke-miterlimit="10"/>
<path orgstroke="#000000" orgfill="none" fill="none" d="M593.6489868164062 185.51400756835938L593.6489868164062 188.947998046875" stroke="#000000" stroke-width="0.25" g2gstroke="#312783" stroke-miterlimit="10"/>
<path orgstroke="#000000" orgfill="none" fill="none" d="M593.6489868164062 188.947998046875L592.697998046875 191.12600708007812" stroke="#000000" stroke-width="0.25" g2gstroke="#312783" stroke-miterlimit="10"/>
<path orgstroke="#000000" orgfill="none" fill="none" d="M593.649,191.197    c0.168-0.006,0.316-0.025,0.402-0.07c0.504-0.268,0.975-1.457,1.063-2.021c0.049-0.316-0.174-1.013-0.426-1.213    c-0.203-0.163-1.041-0.119-1.041-0.119" stroke="#000000" stroke-width="0.25" g2gstroke="#312783" stroke-miterlimit="10"/>
<path orgstroke="#000000" orgfill="none" fill="none" d="M586.572998046875 187.64199829101562L584.989990234375 187.60499572753906" stroke="#000000" stroke-width="0.25" g2gstroke="#312783" stroke-miterlimit="10"/>
<path orgstroke="#000000" orgfill="none" fill="none" d="M584.989990234375 187.60499572753906L584.375 186.85499572753906" stroke="#000000" stroke-width="0.25" g2gstroke="#312783" stroke-miterlimit="10"/>
<path orgstroke="#000000" orgfill="none" fill="none" d="M594.406005859375 187.1320037841797L594.406005859375 187.77200317382812" stroke="#000000" stroke-width="0.25" g2gstroke="#312783" stroke-miterlimit="10"/>
<path orgstroke="#000000" orgfill="none" fill="none" d="M589.5159912109375 183.1269989013672L589.5159912109375 184.72900390625" stroke="#000000" stroke-width="0.25" g2gstroke="#312783" stroke-miterlimit="10"/>
<path orgstroke="#000000" orgfill="none" fill="none" d="M587.184,174.11    c0.471-0.448,1.455,0.388,1.57,2.563" stroke="#000000" stroke-width="0.25" g2gstroke="#312783" stroke-miterlimit="10"/>
<path orgstroke="#000000" orgfill="none" fill="none" d="M589.0689697265625 178.6750030517578L589.0689697265625 183.20199584960938" stroke="#000000" stroke-width="0.25" g2gstroke="#312783" stroke-miterlimit="10"/>
<path orgstroke="#000000" orgfill="none" fill="none" d="M570.375,167.203l0.646,1.896    c0,0,1.912,3.854,2.398,4.887c0.479,1.033,2.254,1.479,1.432-0.243l2.865-0.152" stroke="#000000" stroke-width="0.25" g2gstroke="#312783" stroke-miterlimit="10"/>
<path orgstroke="#000000" orgfill="none" fill="none" d="M582.489990234375 172.3249969482422L577.5590209960938 167.2030029296875L574.8579711914062 163.968994140625L572.0070190429688 164.23699951171875" stroke="#000000" stroke-width="0.25" g2gstroke="#312783" stroke-miterlimit="10"/>
<path orgstroke="#000000" orgfill="none" fill="none" d="M580.602,188.65    c0,0.727,0.852,0.944,1.076,0.966c0.434,0.042,1.438,0.006,1.396-0.667c-0.021-0.455-0.479-0.609-1.229-0.725    C580.99,188.094,580.602,188.176,580.602,188.65z" stroke="#000000" stroke-width="0.25" g2gstroke="#312783" stroke-miterlimit="10"/>
</g>
</g>
</g>
</g>
</g>
</g></svg>