<svg xmlns="http://www.w3.org/2000/svg" xmlns:xlink="http://www.w3.org/1999/xlink" xmlns:etg="http://www.eurotaxglass.com/etg/evd/" etg:dataTimestamp="1539068912893" contentScriptType="text/ecmascript" zoomAndPan="magnify" contentStyleType="text/css" id="Layer_1" enable-background="new 0 0 1841.891 1595.279" version="1.1" xml:space="preserve" width="1841.891px" preserveAspectRatio="xMidYMid meet" viewBox="0 0 1841.891 1595.279" height="1595.279px" x="0px" y="0px"><g xmlns="http://www.w3.org/2000/svg" objecttype="PS" tooltip="#UNDEFINED" id="48">
<g onmouseover="notifyOwner(AGV_OBJECT_MOUSEOVER, '48(PS)')" onclick="clickZoom(evt); notifyOwner(AGV_OBJECT_MOUSECLICK, '48(PS)')" onmouseout="notifyOwner(AGV_OBJECT_MOUSEOUT, '48(PS)')" tooltip="#UNDEFINED" id="48-Graphic" objecttype="GRAPHIC">
<g>
	<path orgstroke="#000000" orgfill="#ffffff" fill="#ffffff" g2gfill="#ECF5E4" d="M273.335,253.376l-0.729,0.994l-0.633,0.907   l-0.18,0.542l0.27,0.634l0.543,0.814l0.815,0.724l0.363,0.725l0.813,0.729l32.354,19.295l5.217,1.888l1.393,0.83l1.271,1.979   l8.896,5.306l0.453-0.182l0.271-0.272l0.063-2.021l-0.117-0.281c-1.554-1.884-2.255-3.76-1.776-5.25l1.871-3.375   c0.597-0.911,1.692-1.494,3.143-1.75l0.319-0.303l0.021-0.325l0.315-0.953l0.453-0.771l0.5-0.5l0.896-0.444l1.041-0.316   l1.402-0.228l0.906-0.048l1.354,0.146c0.823,0.021,1.729,0.146,2.671,0.368l0.467-0.192c0.533-0.349,1.454-0.414,2.521-0.188   l0.276-0.188l1.167-2.436l0.254-0.239c0.405-0.2,1.185-0.109,1.964,0.268c0.856,0.414,1.445,1.049,1.441,1.519l-0.045,0.208   l-1.133,2.316l-0.016,0.479c0.868,0.756,1.368,1.575,1.308,2.229l0.065,0.438c0.464,0.404,0.876,0.816,1.234,1.229l0.515,0.646   l0.979,1.371l0.448,0.995l0.229,0.854l0.14,0.771l-0.046,0.949l-0.229,0.898l-0.271,0.544l-0.5,0.543L348,285.475l-0.151,0.453   c0.479,1.172,0.539,2.271,0.104,3.188H348l-1.826,3.516l-1.086,1.186l-1.813,0.725l-1.443,0.09l-0.64,0.095l-0.271,0.094   l0.089,0.355l0.363,0.541l3.724,2l0.621,0.631l0.363,0.771l0.313,0.729l0.686,4.61l0.182,0.592l0.361,0.315l3.802,0.724   l0.091,0.229l0.044,0.771l-0.091,0.271l-4.297,2.176c-3.036-2.086-8.227,2.479-8.93,5.547l-6.604,4.1l-0.499,0.354h-0.313   l-4.118-2.439l-0.361-0.813v-1.271l0.188-0.813l0.636-1.182l0.544-1.726l0.453-8.328v-0.634l-0.271-0.357l-0.634,0.186   l-0.634,0.359l-0.453-0.093l-5.069-2.809l-0.354-0.544v-1.813l-0.167-0.146l-14.021-8.338l-0.293,0.104   c-0.792,4.483-4.345,9.938-8.603,12.397c-1.618,0.938-3.144,1.37-4.438,1.354l-0.437,0.136l-2.775,1.63l-2.836,1.088l-1.207,0.422   l-8.509,5.249l-0.482,0.063l-0.479-0.063l-9.604-5.492l-0.182-0.301v-1.389l-0.119-0.604l-2.656-2.414l-0.479-0.664l-0.242-0.774   l-0.059-1.026l0.11-0.663l4.052-3.261l0.421-0.188l0.777-0.121l0.905,0.121l2.172,1.329h0.904l0.604-0.061l0.361-0.311l0.363-0.544   l0.846-2.104l-0.167-0.363l-8.891-5.444c-0.668-0.853-1.046-2.048-1.046-3.552c0-1.081,0.189-2.229,0.554-3.393l-0.119-0.197   l-1.809,0.348h-2.446l-1.809-0.271l-1.45-0.815l-1.9-1.539l-1.992-1.811l-0.544-0.997l-0.354-1.085l-0.453-0.905l-1.992-1.719   l-0.36-0.636l-0.182-0.903l0.091-2.082l0.188-0.905l0,0l0.623-0.813l2.979-2.896l1.358-0.634l0.542-0.544l0.091-0.453l-0.905-0.091   l-3.521-1.271l-3.713-2.979l-0.201-0.146c-0.406-0.515-0.634-1.229-0.634-2.146c0-2.922,2.361-6.658,5.295-8.345   c1.088-0.637,2.102-0.894,2.938-0.813l0.479,0.029l4.521,2.354l0.453,0.544l1.449,2.626l0.544,0.271l0.633-0.088l1.476-0.479   l3.495-3.209l0.456-0.274c0.562-0.321,1.372-0.257,2.285,0.271c1.668,0.962,3.021,3.094,3.021,4.757   c0,0.274-0.036,0.521-0.105,0.731L273.335,253.376z" outline-element="true" stroke="#000000" stroke-width="0.5" g2gstroke="#312783" stroke-miterlimit="10"/>
	<path orgstroke="#000000" orgfill="#F1E3BB" fill="#F1E3BB" d="M345.869,276.49l0.441,0.415l0.535,0.549   l0.479,0.563l0.358,0.482l0.505,0.701l0.512,0.834l0.282,0.646l0.191,0.768l0.162,0.814l-0.023,0.724l-0.108,0.682l-0.313,0.771   l-0.408,0.619l-0.354,0.329l-0.354,0.266l-0.377,0.281l-2.813,2.09c-1.945,1.137-5.901,0.729-9.874-1.188   c-4.542-2.188-7.521-5.592-7.051-7.896l0.097-1.42l0.136-1.493l0.029-0.354l0.146-0.963l0.479-1.099l0.468-0.761l0.663-0.312   l1.166-0.439l1.208-0.247l1.081-0.116l1.438,0.095l1.319,0.022l1.643,0.378l0.119,0.188l-0.839,1.535l-0.091,0.317   c-0.13,1.043,1.2,2.532,3.206,3.5c2.02,0.975,4.021,1.087,4.75,0.313l0.141-0.187l0.867-1.66" stroke="#000000" stroke-width="0.25" g2gstroke="#312783" stroke-miterlimit="10"/>
	<polyline orgstroke="#000000" orgfill="none" points="272.067,270.322 274.603,270.121    275.597,270.755 306.26,288.59  " fill="none" stroke="#000000" stroke-width="0.25" g2gstroke="#312783" stroke-miterlimit="10"/>
	<path orgstroke="#000000" orgfill="none" fill="none" d="M248.836,257.68   c-0.404-0.521-0.633-1.236-0.633-2.146c0-2.922,2.361-6.66,5.293-8.346c1.089-0.63,2.103-0.886,2.938-0.813" stroke="#000000" stroke-width="0.25" g2gstroke="#312783" stroke-miterlimit="10"/>
	<path orgstroke="#000000" orgfill="none" fill="none" d="M251.294,259.622   c-0.429-0.548-0.671-1.313-0.671-2.284c0-3.104,2.518-7.086,5.628-8.881c1.158-0.67,2.229-0.938,3.131-0.854" stroke="#000000" stroke-width="0.25" g2gstroke="#312783" stroke-miterlimit="10"/>
	<path orgstroke="#000000" orgfill="none" fill="none" d="M254.352,260.66   c-0.368-0.468-0.577-1.127-0.577-1.956c0-2.665,2.161-6.071,4.825-7.604c0.993-0.573,1.917-0.813,2.688-0.734" stroke="#000000" stroke-width="0.25" g2gstroke="#312783" stroke-miterlimit="10"/>
	<path orgstroke="#000000" orgfill="none" fill="none" d="M255.581,261.369   c-0.37-0.469-0.578-1.129-0.578-1.958c0-2.666,2.158-6.071,4.823-7.604c0.987-0.575,1.917-0.813,2.683-0.736" stroke="#000000" stroke-width="0.25" g2gstroke="#312783" stroke-miterlimit="10"/>
	<path orgstroke="#000000" orgfill="none" fill="none" d="M258.982,261.726   c-0.232-0.313-0.378-0.739-0.378-1.284c0-1.75,1.419-3.985,3.168-4.996c0.651-0.376,1.255-0.528,1.759-0.483" stroke="#000000" stroke-width="0.25" g2gstroke="#312783" stroke-miterlimit="10"/>
	<path orgstroke="#000000" orgfill="none" fill="none" d="M328.739,301.9   c-0.512-0.318-0.815-0.93-0.815-1.793c0-1.95,1.583-4.446,3.534-5.572c1.107-0.646,2.104-0.703,2.759-0.267" stroke="#000000" stroke-width="0.25" g2gstroke="#312783" stroke-miterlimit="10"/>
	<polyline orgstroke="#000000" orgfill="none" points="255.547,261.297 258.127,261.794    259.123,261.975 259.667,262.246 261.386,263.332  " fill="none" stroke="#000000" stroke-width="0.25" g2gstroke="#312783" stroke-miterlimit="10"/>
	<polyline orgstroke="#000000" orgfill="none" points="264.916,255.367 264.101,256.997    263.379,258.264 262.562,260.074 261.839,261.885 261.386,263.332 261.476,264.51 261.839,265.506 262.239,266.049 262.743,266.5    263.247,266.863 263.828,267.058 264.367,267.17 264.916,267.246 265.508,267.198 266.136,267.058 266.817,266.863    267.179,266.773 267.632,266.863 268.899,267.678 269.464,267.678  " fill="none" stroke="#000000" stroke-width="0.25" g2gstroke="#312783" stroke-miterlimit="10"/>
	<polyline orgstroke="#000000" orgfill="none" points="267.088,266.23 267.088,264.6    267.269,263.513 267.451,262.79  " fill="none" stroke="#000000" stroke-width="0.25" g2gstroke="#312783" stroke-miterlimit="10"/>
	
		<line orgstroke="#000000" orgfill="none" fill="none" x1="273.154" x2="271.797" y1="258.173" y2="259.26" stroke="#000000" stroke-width="0.25" g2gstroke="#312783" stroke-miterlimit="10"/>
	<polyline orgstroke="#000000" orgfill="none" points="263.868,257.405 264.374,258.446    265.097,259.169 266.184,259.713 266.998,259.893 268.085,259.893 269.08,259.713 270.075,259.26 271.163,257.991 271.435,257.449    271.342,256.726 271.435,256.364 271.797,255.82  " fill="none" stroke="#000000" stroke-width="0.25" g2gstroke="#312783" stroke-miterlimit="10"/>
	<polyline orgstroke="#000000" orgfill="none" points="259.413,262.122 259.031,263.966    259.1,264.849 259.393,265.867 260.177,267.097 261.114,268.131 262.292,268.946 263.241,269.309 264.213,269.467 265.375,269.367    266.199,269.172 266.799,268.974 267.75,268.583 268.899,267.678  " fill="none" stroke="#000000" stroke-width="0.25" g2gstroke="#312783" stroke-miterlimit="10"/>
	<polyline orgstroke="#000000" orgfill="none" points="257.04,261.885 256.68,264.057    256.769,264.918 257.187,265.962 257.686,266.598 258.037,267.044 258.579,267.949 258.788,268.783 258.942,269.397    259.299,269.972 259.811,270.397 260.571,270.847 261.785,271.317 262.834,271.481 264.573,271.542 266.093,271.389    267.269,270.937 268.266,270.394 269.172,269.397 269.623,267.678  " fill="none" stroke="#000000" stroke-width="0.25" g2gstroke="#312783" stroke-miterlimit="10"/>
	<polyline orgstroke="#000000" orgfill="none" points="250.89,265.329 250.885,266.5    251.337,267.134 252.425,267.949 254.053,269.218 255.412,270.575 256.225,271.662 257.132,272.837 258.037,273.742    258.942,274.468 260.21,274.739 262.562,275.01 263.921,274.921 265.642,274.558 266.599,274.365  " fill="none" stroke="#000000" stroke-width="0.25" g2gstroke="#312783" stroke-miterlimit="10"/>
	<polyline orgstroke="#000000" orgfill="none" points="252.504,263.743 252.5,264.915    252.952,265.548 254.038,266.363 255.667,267.631 257.026,268.988 257.84,270.074 258.745,271.252 259.652,272.156 260.556,272.88    261.823,273.152 264.177,273.424 265.534,273.333 267.254,272.971 268.351,272.751  " fill="none" stroke="#000000" stroke-width="0.25" g2gstroke="#312783" stroke-miterlimit="10"/>
	<polyline orgstroke="#000000" orgfill="none" points="250.109,267.774 250.104,268.946    250.558,269.579 251.643,270.394 253.272,271.662 254.63,273.019 255.446,274.105 256.351,275.283 257.255,276.187    258.161,276.911 259.428,277.184 261.782,277.455 263.139,277.364 264.86,277.002 265.76,276.823  " fill="none" stroke="#000000" stroke-width="0.25" g2gstroke="#312783" stroke-miterlimit="10"/>
	<path orgstroke="#000000" orgfill="none" fill="none" d="M347.374,289.934   c-2.188,2.186-8.03,1.835-13.91-1.003c-6.381-3.08-10.446-7.951-9.254-11.021" stroke="#000000" stroke-width="0.25" g2gstroke="#312783" stroke-miterlimit="10"/>
	<path orgstroke="#000000" orgfill="none" fill="none" d="M346.009,292.407   c-2.043,2.374-8.04,2.079-14.07-0.831c-3.131-1.512-5.705-3.455-7.373-5.404" stroke="#000000" stroke-width="0.25" g2gstroke="#312783" stroke-miterlimit="10"/>
	<path orgstroke="#000000" orgfill="none" fill="none" d="M347.271,277.948   c1.229,1.516,1.712,3.021,1.161,4.162c-1.103,2.291-5.977,2.229-10.877-0.136c-4.904-2.367-7.983-6.146-6.875-8.438   c0.497-1.028,1.758-1.586,3.438-1.668" stroke="#000000" stroke-width="0.25" g2gstroke="#312783" stroke-miterlimit="10"/>
	<path orgstroke="#000000" orgfill="none" fill="none" d="M345.427,276.995   c0.831,1.045,1.154,2.081,0.773,2.868c-0.772,1.604-4.188,1.56-7.619-0.098c-3.438-1.657-5.591-4.308-4.816-5.904   c0.454-0.945,1.822-1.318,3.564-1.131" stroke="#000000" stroke-width="0.25" g2gstroke="#312783" stroke-miterlimit="10"/>
	<path orgstroke="#000000" orgfill="none" fill="none" d="M345.262,276.789   c-0.848,0.573-2.693,0.405-4.545-0.49c-2.221-1.063-3.616-2.773-3.116-3.813c0.056-0.114,0.131-0.215,0.229-0.303" stroke="#000000" stroke-width="0.25" g2gstroke="#312783" stroke-miterlimit="10"/>
	<path orgstroke="#000000" orgfill="none" fill="none" d="M345.74,276.006   c-0.012,0.125-0.044,0.244-0.098,0.356c-0.082,0.17-0.21,0.313-0.379,0.428" stroke="#000000" stroke-width="0.25" g2gstroke="#312783" stroke-miterlimit="10"/>
	<path orgstroke="#000000" orgfill="none" fill="none" d="M343.941,274.354   c-0.273,0.396-1.227,0.367-2.18-0.093c-0.933-0.45-1.542-1.15-1.433-1.622" stroke="#000000" stroke-width="0.25" g2gstroke="#312783" stroke-miterlimit="10"/>
	<path orgstroke="#000000" orgfill="none" fill="none" d="M345.3,271.227   c-0.417,0.183-1.178,0.089-1.939-0.279c-0.776-0.378-1.338-0.933-1.434-1.38" stroke="#000000" stroke-width="0.25" g2gstroke="#312783" stroke-miterlimit="10"/>
	<path orgstroke="#000000" orgfill="none" fill="none" d="M340.259,309.367   c-2.786,1.521-5.015,0.517-5.015-2.304c0-2.871,2.32-6.543,5.193-8.203c2.872-1.657,5.201-0.674,5.201,2.2   c0,0.18-0.008,0.362-0.021,0.546" stroke="#000000" stroke-width="0.25" g2gstroke="#312783" stroke-miterlimit="10"/>
	<path orgstroke="#000000" orgfill="none" fill="none" d="M343.65,297.054   c-0.954-0.136-2.119,0.145-3.376,0.863c-2.602,1.512-4.805,4.479-5.553,7.271l-0.121,0.444l0.174,7.354l-0.271,0.815l-3.077,3.26   l-0.271,0.452l-0.091,1.628" stroke="#000000" stroke-width="0.25" g2gstroke="#312783" stroke-miterlimit="10"/>
	<path orgstroke="#000000" orgfill="none" fill="none" d="M342.684,296.552   c-0.953-0.138-2.117,0.146-3.374,0.863c-2.601,1.511-4.803,4.479-5.555,7.271l-0.118,0.444l0.171,7.354l-0.271,0.815l-3.079,3.258   l-0.271,0.453l-0.061,1.091" stroke="#000000" stroke-width="0.25" g2gstroke="#312783" stroke-miterlimit="10"/>
	<path orgstroke="#000000" orgfill="none" fill="none" d="M340.01,294.741   c-1.061-0.497-2.555-0.324-4.211,0.631c-2.604,1.502-4.805,4.479-5.554,7.271l-0.117,0.438l0.171,7.361l-0.271,0.815l-3.069,3.259   l-0.271,0.452l-0.091,1.629" stroke="#000000" stroke-width="0.25" g2gstroke="#312783" stroke-miterlimit="10"/>
	<path orgstroke="#000000" orgfill="none" fill="none" d="M340.805,294.989   c-1.044-0.388-2.46-0.183-4.016,0.714c-2.604,1.503-4.812,4.479-5.563,7.271l-0.109,0.438l0.172,7.362l-0.271,0.815l-3.077,3.259   l-0.271,0.452l-0.078,1.396" stroke="#000000" stroke-width="0.25" g2gstroke="#312783" stroke-miterlimit="10"/>
	<path orgstroke="#000000" orgfill="none" fill="none" d="M292.886,302.614   c-2.403-0.173-3.995-1.967-3.995-5.048c0-4.744,3.771-10.782,8.474-13.653" stroke="#000000" stroke-width="0.25" g2gstroke="#312783" stroke-miterlimit="10"/>
	<path orgstroke="#000000" orgfill="none" fill="none" d="M288.429,300.263   c-1.275-0.787-2.043-2.313-2.043-4.446c0-4.746,3.77-10.782,8.476-13.654" stroke="#000000" stroke-width="0.25" g2gstroke="#312783" stroke-miterlimit="10"/>
	<path orgstroke="#000000" orgfill="none" fill="none" d="M286.285,299.448   c-1.275-0.786-2.042-2.306-2.042-4.446c0-4.744,3.768-10.773,8.474-13.646" stroke="#000000" stroke-width="0.25" g2gstroke="#312783" stroke-miterlimit="10"/>
	<path orgstroke="#000000" orgfill="none" fill="none" d="M269.011,288.785   c-1.276-0.786-2.043-2.306-2.043-4.445c0-4.747,3.767-10.774,8.475-13.646" stroke="#000000" stroke-width="0.25" g2gstroke="#312783" stroke-miterlimit="10"/>
	<path orgstroke="#000000" orgfill="none" fill="none" d="M265.24,279.574   c1.163-3.469,3.735-7.018,6.827-9.252" stroke="#000000" stroke-width="0.25" g2gstroke="#312783" stroke-miterlimit="10"/>
	
		<line orgstroke="#000000" orgfill="none" fill="none" x1="326.033" x2="321.105" y1="287.675" y2="296.793" stroke="#000000" stroke-width="0.25" g2gstroke="#312783" stroke-miterlimit="10"/>
	<polyline orgstroke="#000000" orgfill="none" points="326.783,288.396 321.916,297.482    321.735,299.656  " fill="none" stroke="#000000" stroke-width="0.25" g2gstroke="#312783" stroke-miterlimit="10"/>
	<polyline orgstroke="#000000" orgfill="none" points="331.21,291.265 326.538,300.013    326.357,302.185  " fill="none" stroke="#000000" stroke-width="0.25" g2gstroke="#312783" stroke-miterlimit="10"/>
	<polyline orgstroke="#000000" orgfill="none" points="330.002,290.546 325.393,299.327    325.212,301.509  " fill="none" stroke="#000000" stroke-width="0.25" g2gstroke="#312783" stroke-miterlimit="10"/>
	
		<line orgstroke="#000000" orgfill="none" fill="none" x1="274.787" x2="290.187" y1="292.489" y2="301.916" stroke="#000000" stroke-width="0.25" g2gstroke="#312783" stroke-miterlimit="10"/>
	<polyline orgstroke="#000000" orgfill="none" points="276.971,311.218 276.909,304.269    277.031,303.969 281.678,300.89 284.213,298.596  " fill="none" stroke="#000000" stroke-width="0.25" g2gstroke="#312783" stroke-miterlimit="10"/>
	<polyline orgstroke="#000000" orgfill="none" points="274.784,310.124 274.723,303.183    274.844,302.885 279.491,299.804 282.026,297.51  " fill="none" stroke="#000000" stroke-width="0.25" g2gstroke="#312783" stroke-miterlimit="10"/>
	<polyline orgstroke="#000000" orgfill="none" points="271.601,295.7 267.436,298.657    266.771,299.385 266.712,302.942  " fill="none" stroke="#000000" stroke-width="0.25" g2gstroke="#312783" stroke-miterlimit="10"/>
	<polyline orgstroke="#000000" orgfill="none" points="267.254,298.356 266.108,297.813    265.445,297.571 264.782,297.51 263.755,297.691  " fill="none" stroke="#000000" stroke-width="0.25" g2gstroke="#312783" stroke-miterlimit="10"/>
	
		<line orgstroke="#000000" orgfill="none" fill="none" x1="273.32" x2="279.869" y1="295.463" y2="299.441" stroke="#000000" stroke-width="0.25" g2gstroke="#312783" stroke-miterlimit="10"/>
	
		<line orgstroke="#000000" orgfill="none" fill="none" x1="267.436" x2="274.195" y1="299.139" y2="302.885" stroke="#000000" stroke-width="0.25" g2gstroke="#312783" stroke-miterlimit="10"/>
	<polyline orgstroke="#000000" orgfill="none" points="280.954,301.735 280.832,303.606    280.832,304.391 281.256,304.994 281.678,305.356 282.343,305.415 283.187,304.934 284.755,303.969 285.299,303.727    285.662,303.727 285.903,304.029 286.385,305.415  " fill="none" stroke="#000000" stroke-width="0.25" g2gstroke="#312783" stroke-miterlimit="10"/>
	
		<line orgstroke="#000000" orgfill="none" fill="none" x1="289.262" x2="285.662" y1="304.677" y2="300.89" stroke="#000000" stroke-width="0.25" g2gstroke="#312783" stroke-miterlimit="10"/>
	<polyline orgstroke="#000000" orgfill="none" points="287.108,300.166 285.54,300.226    285.177,300.469 284.996,300.77 284.877,301.434 285.118,302.036 285.48,303.552  " fill="none" stroke="#000000" stroke-width="0.25" g2gstroke="#312783" stroke-miterlimit="10"/>
	<polyline orgstroke="#000000" orgfill="none" points="261.846,251.077 263.106,254.19    263.528,254.614 264.843,255.512  " fill="none" stroke="#000000" stroke-width="0.25" g2gstroke="#312783" stroke-miterlimit="10"/>
	<path orgstroke="#000000" orgfill="none" fill="none" d="M267.269,248.329   c0.563-0.321,1.375-0.257,2.287,0.271c1.667,0.962,3.021,3.092,3.021,4.759c0,0.271-0.038,0.517-0.105,0.729" stroke="#000000" stroke-width="0.25" g2gstroke="#312783" stroke-miterlimit="10"/>
	<polyline orgstroke="#000000" orgfill="none" points="271.193,256.484 271.13,254.855    271.011,253.888  " fill="none" stroke="#000000" stroke-width="0.25" g2gstroke="#312783" stroke-miterlimit="10"/>
	<polyline orgstroke="#000000" orgfill="none" points="264.311,250.63 264.071,251.234    263.95,252.017 263.95,252.983 264.13,253.768 264.555,254.432 264.735,254.914 264.843,255.512  " fill="none" stroke="#000000" stroke-width="0.25" g2gstroke="#312783" stroke-miterlimit="10"/>
	<polyline orgstroke="#000000" orgfill="none" points="268.114,250.811 269.2,250.752    269.743,250.932 270.53,251.293 271.011,251.776 271.311,252.502 271.616,253.587  " fill="none" stroke="#000000" stroke-width="0.25" g2gstroke="#312783" stroke-miterlimit="10"/>
	<polyline orgstroke="#000000" orgfill="none" points="269.623,267.678 269.875,267.544    270.031,267.361 272.927,267.768 273.425,267.904 273.698,268.085 274.603,270.121  " fill="none" stroke="#000000" stroke-width="0.25" g2gstroke="#312783" stroke-miterlimit="10"/>
	
		<line orgstroke="#000000" orgfill="none" fill="none" x1="270.031" x2="270.348" y1="267.949" y2="271.481" stroke="#000000" stroke-width="0.25" g2gstroke="#312783" stroke-miterlimit="10"/>
	
		<line orgstroke="#000000" orgfill="none" fill="none" x1="275.146" x2="276.594" y1="303.26" y2="304.156" stroke="#000000" stroke-width="0.25" g2gstroke="#312783" stroke-miterlimit="10"/>
	<polyline orgstroke="#000000" orgfill="none" points="281.481,301.532 282.115,302.982    282.115,303.433 282.115,305.154  " fill="none" stroke="#000000" stroke-width="0.25" g2gstroke="#312783" stroke-miterlimit="10"/>
	<polyline orgstroke="#000000" orgfill="none" points="283.609,300.136 284.243,301.594    284.243,302.036 284.243,303.76  " fill="none" stroke="#000000" stroke-width="0.25" g2gstroke="#312783" stroke-miterlimit="10"/>
	
		<line orgstroke="#000000" orgfill="none" fill="none" x1="284.155" x2="282.386" y1="301.385" y2="302.718" stroke="#000000" stroke-width="0.25" g2gstroke="#312783" stroke-miterlimit="10"/>
	
		<line orgstroke="#000000" orgfill="none" fill="none" x1="322.493" x2="324.846" y1="297.789" y2="298.996" stroke="#000000" stroke-width="0.25" g2gstroke="#312783" stroke-miterlimit="10"/>
	
		<line orgstroke="#000000" orgfill="none" fill="none" x1="334.208" x2="335.84" y1="294.268" y2="295.211" stroke="#000000" stroke-width="0.25" g2gstroke="#312783" stroke-miterlimit="10"/>
	<line orgstroke="#000000" orgfill="none" fill="none" x1="328.739" x2="330.1" y1="301.9" y2="302.684" stroke="#000000" stroke-width="0.25" g2gstroke="#312783" stroke-miterlimit="10"/>
	<path orgstroke="#000000" orgfill="none" fill="none" d="M338.005,308.01   c-0.514-0.317-0.825-0.938-0.825-1.791c0-1.95,1.585-4.448,3.536-5.572c1.117-0.646,2.112-0.701,2.759-0.267" stroke="#000000" stroke-width="0.25" g2gstroke="#312783" stroke-miterlimit="10"/>
	<path orgstroke="#000000" orgfill="none" fill="none" d="M333.609,304.541   c-0.223-0.323-0.346-0.771-0.346-1.315c0-1.949,1.582-4.445,3.532-5.57c1.117-0.646,2.114-0.703,2.76-0.271" stroke="#000000" stroke-width="0.25" g2gstroke="#312783" stroke-miterlimit="10"/>
	
		<line orgstroke="#000000" orgfill="none" fill="none" x1="343.474" x2="345.066" y1="300.384" y2="301.386" stroke="#000000" stroke-width="0.25" g2gstroke="#312783" stroke-miterlimit="10"/>
	
		<line orgstroke="#000000" orgfill="none" fill="none" x1="338.005" x2="339.9" y1="308.01" y2="309.011" stroke="#000000" stroke-width="0.25" g2gstroke="#312783" stroke-miterlimit="10"/>
	<path orgstroke="#000000" orgfill="none" fill="none" d="M342.952,308.322   c-0.166,0.119-0.335,0.23-0.514,0.328c-1.92,1.109-3.473,0.451-3.473-1.466c0-1.918,1.553-4.371,3.473-5.479   c1.918-1.104,3.479-0.441,3.479,1.478c0,0.313-0.042,0.641-0.121,0.973" stroke="#000000" stroke-width="0.25" g2gstroke="#312783" stroke-miterlimit="10"/>
	<path orgstroke="#000000" orgfill="none" fill="none" d="M341.45,307.315   c-0.268-0.159-0.415-0.469-0.415-0.905c0-0.979,0.8-2.248,1.778-2.813c0.565-0.326,1.07-0.354,1.397-0.146" stroke="#000000" stroke-width="0.25" g2gstroke="#312783" stroke-miterlimit="10"/>
	
		<line orgstroke="#000000" orgfill="none" fill="none" x1="344.219" x2="346.37" y1="303.456" y2="304.745" stroke="#000000" stroke-width="0.25" g2gstroke="#312783" stroke-miterlimit="10"/>
	
		<line orgstroke="#000000" orgfill="none" fill="none" x1="341.45" x2="343.679" y1="307.315" y2="308.635" stroke="#000000" stroke-width="0.25" g2gstroke="#312783" stroke-miterlimit="10"/>
	<path orgstroke="#000000" orgfill="none" fill="none" d="M346.78,305.707   c0,0.979-0.779,2.221-1.758,2.772c-0.97,0.56-1.756,0.226-1.756-0.743c0-0.971,0.786-2.211,1.756-2.77   C345.992,304.406,346.78,304.737,346.78,305.707z" stroke="#000000" stroke-width="0.25" g2gstroke="#312783" stroke-miterlimit="10"/>
	
		<line orgstroke="#000000" orgfill="none" fill="none" x1="327.592" x2="330.129" y1="316.707" y2="318.113" stroke="#000000" stroke-width="0.25" g2gstroke="#312783" stroke-miterlimit="10"/>
	
		<line orgstroke="#000000" orgfill="none" fill="none" x1="327.666" x2="333.688" y1="316.707" y2="311.802" stroke="#000000" stroke-width="0.25" g2gstroke="#312783" stroke-miterlimit="10"/>
	
		<line orgstroke="#000000" orgfill="none" fill="none" x1="340.641" x2="340.403" y1="271.982" y2="272.48" stroke="#000000" stroke-width="0.25" g2gstroke="#312783" stroke-miterlimit="10"/>
	
		<line orgstroke="#000000" orgfill="none" fill="none" x1="344.28" x2="343.938" y1="273.651" y2="274.352" stroke="#000000" stroke-width="0.25" g2gstroke="#312783" stroke-miterlimit="10"/>
	<polyline orgstroke="#000000" orgfill="none" points="296.283,292.435 297.051,296.373    297.097,296.735 297.051,297.096 295.822,301.849  " fill="none" stroke="#000000" stroke-width="0.25" g2gstroke="#312783" stroke-miterlimit="10"/>
	<polyline orgstroke="#000000" orgfill="none" points="298.99,300.177 300.221,295.42    300.265,295.057 300.221,294.696 299.45,290.756 299.264,290.587 299.078,290.399 298.715,290.399 298.354,290.519    296.482,291.606 296.06,292.089 295.879,292.632 295.819,302.166  " fill="none" stroke="#000000" stroke-width="0.25" g2gstroke="#312783" stroke-miterlimit="10"/>
	
		<line orgstroke="#000000" orgfill="none" fill="none" x1="297.504" x2="299.857" y1="296.69" y2="295.558" stroke="#000000" stroke-width="0.25" g2gstroke="#312783" stroke-miterlimit="10"/>
	<polyline orgstroke="#000000" orgfill="none" points="264.843,255.512 265.233,255.548    265.911,255.504  " fill="none" stroke="#000000" stroke-width="0.25" g2gstroke="#312783" stroke-miterlimit="10"/>
	<path orgstroke="#000000" orgfill="none" fill="none" d="M306.712,278.795   c-0.647-0.435-1.646-0.378-2.761,0.271c-0.245,0.14-0.482,0.302-0.711,0.479l0.091,0.229l7.728,4.415l0.512-0.021   c0.148-0.104,0.309-0.202,0.455-0.292c1.117-0.644,2.113-0.695,2.769-0.264" stroke="#000000" stroke-width="0.25" g2gstroke="#312783" stroke-miterlimit="10"/>
	
		<ellipse orgstroke="#000000" orgfill="none" fill="none" rx="1.6" cx="310.087" ry="0.711" cy="281.453" stroke="#000000" stroke-width="0.25" g2gstroke="#312783" stroke-miterlimit="10"/>
</g>
</g>
</g></svg>