<svg xmlns="http://www.w3.org/2000/svg" xmlns:xlink="http://www.w3.org/1999/xlink" xmlns:etg="http://www.eurotaxglass.com/etg/evd/" etg:dataTimestamp="1539068912893" contentScriptType="text/ecmascript" zoomAndPan="magnify" contentStyleType="text/css" id="Layer_1" enable-background="new 0 0 1841.891 1595.279" version="1.1" width="1841.891px" xml:space="preserve" preserveAspectRatio="xMidYMid meet" viewBox="0 0 1841.891 1595.279" height="1595.279px" x="0px" y="0px"><g xmlns="http://www.w3.org/2000/svg" objecttype="PS" tooltip="#UNDEFINED" id="5">
<g onmouseover="notifyOwner(AGV_OBJECT_MOUSEOVER, '5(PS)')" transform="translate(0.0, 47.0) translate(-4.0000032348633, -8.791041992187502) translate(67.47015438842772, -31.428020141601564)" onclick="clickZoom(evt); notifyOwner(AGV_OBJECT_MOUSECLICK, '5(PS)')" onmouseout="notifyOwner(AGV_OBJECT_MOUSEOUT, '5(PS)')" tooltip="#UNDEFINED" id="5-Graphic" objecttype="GRAPHIC">
<g>
	<g id="4::Cable_lateral_de_freno_de_mano_1">
		<path orgstroke="#000000" orgfill="#ffffff" fill="#ffffff" g2gfill="#ECC35D" stroke-linejoin="round" d="M215.957,406.811    c1.043-0.421,3.814-2.261,3.814-2.261c0.62-0.188,0.939-0.031,1.368-0.088c1.261-0.166,2.979-0.705,6.107-2.313    c9.021-4.62,16.229-4.201,20.877-3.394c3.896,0.676,23.878,6.936,28.022,9.006l0.016-0.021c0.344-0.175,0.652-0.209,0.911-0.126    h-0.003l1.72,0.707l-0.003-0.002c0.277,0.135,0.472,0.438,0.517,0.867c12.539,6.725,28.257,14.636,39.509,14.199    c2.915-0.116,6.729,0.201,10.056-0.443c4.05-0.787,7.879-2.77,8.688-3.219l3.632-0.813l-0.033,0.02    c0.413-0.151,0.787-0.151,1.096-0.021v0.004l3.764,1.188l-0.007-0.002c0.51,0.188,0.835,0.729,0.835,1.551    c0,1.455-1.026,3.229-2.297,3.96c-0.521,0.301-1,0.379-1.39,0.269l0.009-0.004l-3.754-1.188l-3.177-0.854    c-0.665-0.389-3.396,1.562-6.852,2.398c-4.118,1.006-9.147,0.977-11.424,0.855c-9.792-0.52-28.688-8.767-40.269-14.892    c-0.377,0.219-0.724,0.271-0.998,0.182l0,0l-1.771-0.729l0,0c-0.271-0.152-0.446-0.468-0.477-0.916    c-8.026-4.063-23.659-8.813-33.45-9.586c-3.396-0.271-9.361,1.975-13.146,3.777c-1.357,0.646-2.185,1.313-4.688,3.021    c-0.313,0.208-0.497,0.665-0.821,0.821c0,0-2.729,1.805-3.771,2.226v0.002c-0.313,0.248-0.798,0.248-1.333-0.063    c-0.967-0.563-1.753-1.91-1.753-3.021c0-0.523,0.183-0.901,0.473-1.099v0.002H215.957L215.957,406.811z" outline-element="true" stroke="#000000" stroke-width="0.5" g2gstroke="#312783" stroke-miterlimit="10"/>
		<path orgstroke="#000000" orgfill="none" fill="none" d="M343.155,425.867    c-0.553-0.161-0.904-0.717-0.904-1.575c0-1.449,1.021-3.229,2.295-3.96c0.555-0.314,1.063-0.389,1.46-0.235" stroke="#000000" stroke-width="0.25" g2gstroke="#312783" stroke-miterlimit="10"/>
		<path orgstroke="#000000" orgfill="none" fill="none" d="M339.407,424.677    c-0.593-0.145-0.976-0.704-0.976-1.593c0-1.454,1.026-3.229,2.295-3.958c0.146-0.085,0.288-0.152,0.425-0.2" stroke="#000000" stroke-width="0.25" g2gstroke="#312783" stroke-miterlimit="10"/>
		<path orgstroke="#000000" orgfill="none" fill="none" d="M336.233,423.822    c-0.417-0.095-0.688-0.495-0.688-1.124c0-1.023,0.729-2.285,1.627-2.803c0.131-0.076,0.262-0.132,0.387-0.17" stroke="#000000" stroke-width="0.25" g2gstroke="#312783" stroke-miterlimit="10"/>
		<path orgstroke="#000000" orgfill="none" fill="none" d="M277.08,407.615    c0.375,0.123,0.609,0.52,0.611,1.106c0,1.021-0.726,2.281-1.622,2.8c-0.443,0.258-0.853,0.285-1.146,0.119" stroke="#000000" stroke-width="0.25" g2gstroke="#312783" stroke-miterlimit="10"/>
		<path orgstroke="#000000" orgfill="none" fill="none" d="M279.311,409.188    c0.007,0.063,0.008,0.131,0.008,0.201c0,1.029-0.729,2.283-1.625,2.801" stroke="#000000" stroke-width="0.25" g2gstroke="#312783" stroke-miterlimit="10"/>
		<path orgstroke="#000000" orgfill="none" fill="none" d="M215.957,406.809    c0.315-0.213,0.772-0.195,1.286,0.099c0.968,0.563,1.753,1.911,1.753,3.023c0,0.497-0.158,0.854-0.419,1.062" stroke="#000000" stroke-width="0.25" g2gstroke="#312783" stroke-miterlimit="10"/>
		<path orgstroke="#000000" orgfill="none" fill="none" d="M219.776,404.552    c0.318-0.204,0.771-0.188,1.274,0.104c0.969,0.563,1.752,1.914,1.752,3.024c0,0.52-0.172,0.896-0.456,1.09" stroke="#000000" stroke-width="0.25" g2gstroke="#312783" stroke-miterlimit="10"/>
		<path orgstroke="#000000" orgfill="none" fill="none" d="M275.221,411.155c0,0-0.284-0.159-0.769-0.428" stroke="#000000" stroke-width="0.25" g2gstroke="#312783" stroke-miterlimit="10"/>
		<path orgstroke="#000000" orgfill="none" fill="none" d="M276.984,408.198c0,0-0.309-0.161-0.82-0.435" stroke="#000000" stroke-width="0.25" g2gstroke="#312783" stroke-miterlimit="10"/>
		<path orgstroke="#000000" orgfill="none" fill="none" d="M276.984,408.198    c0.191,0.146,0.313,0.396,0.313,0.757c0,0.772-0.546,1.722-1.222,2.106c-0.335,0.192-0.638,0.211-0.854,0.094" stroke="#000000" stroke-width="0.25" g2gstroke="#312783" stroke-miterlimit="10"/>
		<path orgstroke="#000000" orgfill="none" fill="none" d="M218.37,409.568    c0,0.714-0.504,1.003-1.127,0.646c-0.624-0.358-1.134-1.229-1.134-1.945c0-0.714,0.512-1.001,1.134-0.641    C217.866,407.983,218.37,408.854,218.37,409.568z" stroke="#000000" stroke-width="0.25" g2gstroke="#312783" stroke-miterlimit="10"/>
		<path orgstroke="#000000" orgfill="none" fill="none" d="M344.541,424.552    c-0.768,0.438-1.381,0.088-1.381-0.788c0-0.875,0.613-1.94,1.381-2.382c0.765-0.44,1.38-0.087,1.38,0.788    S345.305,424.111,344.541,424.552z" stroke="#000000" stroke-width="0.25" g2gstroke="#312783" stroke-miterlimit="10"/>
	</g>
</g>
</g>
</g></svg>