<svg xmlns="http://www.w3.org/2000/svg" xmlns:xlink="http://www.w3.org/1999/xlink" xmlns:etg="http://www.eurotaxglass.com/etg/evd/" etg:dataTimestamp="1539068912893" contentScriptType="text/ecmascript" zoomAndPan="magnify" contentStyleType="text/css" id="Layer_1" enable-background="new 0 0 1841.891 1595.279" version="1.1" xml:space="preserve" width="1841.891px" preserveAspectRatio="xMidYMid meet" viewBox="0 0 1841.891 1595.279" height="1595.279px" x="0px" y="0px"><g xmlns="http://www.w3.org/2000/svg" objecttype="PS" tooltip="#UNDEFINED" id="65">
<g onmouseover="notifyOwner(AGV_OBJECT_MOUSEOVER, '65(PS)')" transform="translate(-7.0, 76.0) translate(3,-85) " onclick="clickZoom(evt); notifyOwner(AGV_OBJECT_MOUSECLICK, '65(PS)')" onmouseout="notifyOwner(AGV_OBJECT_MOUSEOUT, '65(PS)')" tooltip="#UNDEFINED" id="65-Graphic" objecttype="GRAPHIC">
<g zvalue="53">
<g zvalue="28">
<g>
<path orgstroke="#000000" stroke="#000000" d="   M553.467,434.161c0.08,2.074-1.531,4.146-4.66,5.521c-3.301,1.438-7.487,1.771-11.129,1.092l0.054-2.572   c-2.144-0.395-4.103-1.145-5.582-2.229c-1.687-1.236-2.476-2.715-2.429-4.185l0.011-4.301c-0.168-2.123,1.448-4.271,4.668-5.674   c5.211-2.287,12.663-1.789,16.643,1.133c1.567,1.16,2.36,2.521,2.426,3.894L553.467,434.161L553.467,434.161z" stroke-linecap="round" outline-element="true" transform="translate(-6.0, 0.0) translate(-24.0, -19.0) translate(-3.5855761684508707, 15.776535141183786) translate(129.79785729792144, 25.816148412846246) translate(-100.39613271662431, 0.0) matrix(1.1635235481101653 0 0 1.1635235481101653 -34.530416501580426 -53.12338526114381) translate(-325.5703160953388, -101.83036318400468) translate(7.171152336901736, 7.171213372057986) " stroke-miterlimit="10" orgfill="#ffffff" fill="#ffffff" stroke-width="0.5" g2gfill="#ECC35D" stroke-linejoin="round" g2gstroke="#312783"/>
<path stroke-linecap="round" orgstroke="#000000" orgfill="none" transform="translate(-6.0, 0.0) translate(-24.0, -19.0) translate(-3.5855761684508707, 15.776535141183786) translate(129.79785729792144, 25.816148412846246) translate(-100.39613271662431, 0.0) matrix(1.1635235481101653 0 0 1.1635235481101653 -34.530416501580426 -53.12338526114381) translate(-325.5703160953388, -101.83036318400468) translate(7.171152336901736, 7.171213372057986) " fill="none" stroke-linejoin="round" d="   M540.373,425.682c0.887-0.394,2.152-0.305,2.825,0.188c0.677,0.498,0.504,1.22-0.379,1.604c-0.886,0.389-2.151,0.301-2.827-0.193   C539.318,426.784,539.488,426.067,540.373,425.682z" stroke="#000000" stroke-width="0.25" g2gstroke="#312783" stroke-miterlimit="10"/>
<path stroke-linecap="round" orgstroke="#000000" orgfill="none" transform="translate(-6.0, 0.0) translate(-24.0, -19.0) translate(-3.5855761684508707, 15.776535141183786) translate(129.79785729792144, 25.816148412846246) translate(-100.39613271662431, 0.0) matrix(1.1635235481101653 0 0 1.1635235481101653 -34.530416501580426 -53.12338526114381) translate(-325.5703160953388, -101.83036318400468) translate(7.171152336901736, 7.171213372057986) " fill="none" stroke-linejoin="round" d="   M535.279,421.944c4.572-2.01,11.118-1.563,14.61,0.994c3.484,2.574,2.604,6.283-1.965,8.271   c-4.586,2.015-11.129,1.563-14.623-0.991C529.814,427.657,530.693,423.94,535.279,421.944z" stroke="#000000" stroke-width="0.25" g2gstroke="#312783" stroke-miterlimit="10"/>
<path stroke-linecap="round" orgstroke="#000000" orgfill="none" transform="translate(-6.0, 0.0) translate(-24.0, -19.0) translate(-3.5855761684508707, 15.776535141183786) translate(129.79785729792144, 25.816148412846246) translate(-100.39613271662431, 0.0) matrix(1.1635235481101653 0 0 1.1635235481101653 -34.530416501580426 -53.12338526114381) translate(-325.5703160953388, -101.83036318400468) translate(7.171152336901736, 7.171213372057986) " fill="none" stroke-linejoin="round" d="   M553.44,427.473c-0.229,1.858-1.813,3.664-4.633,4.891c-5.225,2.293-12.68,1.783-16.657-1.131   c-1.332-0.979-2.104-2.104-2.347-3.254" stroke="#000000" stroke-width="0.25" g2gstroke="#312783" stroke-miterlimit="10"/>
<path stroke-linecap="round" orgstroke="#000000" orgfill="none" transform="translate(-6.0, 0.0) translate(-24.0, -19.0) translate(-3.5855761684508707, 15.776535141183786) translate(129.79785729792144, 25.816148412846246) translate(-100.39613271662431, 0.0) matrix(1.1635235481101653 0 0 1.1635235481101653 -34.530416501580426 -53.12338526114381) translate(-325.5703160953388, -101.83036318400468) translate(7.171152336901736, 7.171213372057986) " fill="none" stroke-linejoin="round" d="   M534.542,425.438l0.09,2.279c0,0,2.037-0.029,2.287,0.131c0.248,0.158,4.096,1.969,4.209,2.262   c0.113,0.295,0.611,1.494,0.611,1.494l2.782-0.385c0,0-0.928-1.449,0-2.314c0.928-0.854,3.976-2.27,3.938-2.645   c-0.035-0.373-0.11-0.748-1.106-1.271c-0.998-0.52-1.632-0.854-2.354-1.223c-0.726-0.363-1.606-1.176-3.012-0.479   c-1.402,0.697-3.031,1.813-4.006,1.939C537.006,425.377,534.542,425.438,534.542,425.438z" stroke="#000000" stroke-width="0.25" g2gstroke="#312783" stroke-miterlimit="10"/>
</g>
</g>
</g>
</g>
</g></svg>