<svg xmlns="http://www.w3.org/2000/svg" xmlns:xlink="http://www.w3.org/1999/xlink" xmlns:etg="http://www.eurotaxglass.com/etg/evd/" etg:dataTimestamp="1539068912893" contentScriptType="text/ecmascript" zoomAndPan="magnify" contentStyleType="text/css" id="Layer_1" enable-background="new 0 0 1841.891 1595.279" version="1.1" xml:space="preserve" width="1841.891px" preserveAspectRatio="xMidYMid meet" viewBox="0 0 1841.891 1595.279" height="1595.279px" x="0px" y="0px"><g xmlns="http://www.w3.org/2000/svg" objecttype="PS" tooltip="#UNDEFINED" id="66">
<g onmouseover="notifyOwner(AGV_OBJECT_MOUSEOVER, '66(PS)')" transform="translate(-5.1388455538221365, 4.282371294851799) translate(-61.04651162790702, -113.95348837209303) translate(-263.0, -99.0) translate(279.0, 187.0) translate(45,26) " onclick="clickZoom(evt); notifyOwner(AGV_OBJECT_MOUSECLICK, '66(PS)')" onmouseout="notifyOwner(AGV_OBJECT_MOUSEOUT, '66(PS)')" tooltip="#UNDEFINED" id="66-Graphic" objecttype="GRAPHIC">
<g zvalue="4">
<g>
<path orgstroke="#000000" orgfill="#ffffff" fill="#ffffff" g2gfill="#ECF5E4" stroke-linejoin="round" d="M402.553,222.238   l0.243,0.914l0.021,0.687l-0.177,0.953l-0.396,0.895l-0.808,1.174l-0.797,0.854l-0.997,0.43l-1.595,0.192l-1.417-0.354   l-3.481,0.438l-3.065-0.507l-1.593,0.237l-2.146-0.271l-1.472-1.194l-1.354-0.295l-1.896-1.415l-1.999,0.352h-1.24l-1.595-0.708   l-1.669-1.085c-1.21-0.768-1.938-2.229-1.938-4.281c0-4.688,3.801-10.688,8.491-13.396c2.23-1.289,3.863-1.837,5.466-1.607   l1.697,0.883l0.354,0.182l1.24,1.063l1.08,1.604l0.235,1.402l1.534,0.646l0.711,0.889l1.623,0.72l1.553,1.3l0.905,1.479   l1.396,2.063l0.708,1.597l1.063,1.063l0.523,1.236l0.184,1.166l0.635,0.739" stroke="#000000" outline-element="true" stroke-width="0.5" g2gstroke="#312783" stroke-miterlimit="10"/>
<path orgstroke="#000000" orgfill="#F1E3BB" fill="#F1E3BB" d="M391.2699890136719 209.3730010986328L390.3479919433594 208.86000061035156L389.0780029296875 208.65199279785156L387.7430114746094 208.822998046875L386.79901123046875 209.13099670410156L385.6809997558594 209.66600036621094L384.8869934082031 210.1510009765625L383.9339904785156 210.8560028076172L382.9540100097656 211.7259979248047L382.1319885253906 212.58700561523438L381.4150085449219 213.4550018310547L380.8550109863281 214.2259979248047L380.2929992675781 215.13400268554688L379.8030090332031 215.99600219726562L379.4159851074219 216.82000732421875L379.02801513671875 217.82000732421875L378.77899169921875 218.64500427246094L378.57501220703125 219.6179962158203L378.4739990234375 220.71600341796875L378.5060119628906 221.56700134277344L378.6570129394531 222.39700317382812L378.9849853515625 223.23899841308594L379.3160095214844 223.8159942626953L379.8420104980469 224.2790069580078L380.3869934082031 224.6199951171875L381.6260070800781 224.97000122070312L383.5260009765625 226.38499450683594L384.6600036621094 226.5399932861328L386.3429870605469 227.8820037841797L388.489990234375 228.15199279785156L390.08099365234375 227.9149932861328L393.0379943847656 228.40199279785156L396.6369934082031 227.97999572753906L398.0539855957031 228.33399963378906L399.64898681640625 228.13400268554688L400.6109924316406 227.6529998779297L401.44500732421875 226.85000610351562L402.1780090332031 225.76600646972656L402.5050048828125 225.1199951171875L402.7510070800781 224.56900024414062L402.8760070800781 223.80299377441406L402.76800537109375 222.96499633789062L402.2669982910156 221.9929962158203L401.8330078125 221.625L401.864990234375 221.2899932861328L401.7749938964844 220.36099243164062L401.36199951171875 219.39500427246094L401.20098876953125 218.85499572753906L400.3559875488281 218.23399353027344L399.60198974609375 216.7550048828125L399.34100341796875 216.26800537109375L398.6260070800781 215.2169952392578L397.8179931640625 213.98300170898438L397.16900634765625 212.91900634765625L395.6210021972656 211.62100219726562L393.9939880371094 210.9029998779297L393.2860107421875 210.01400756835938L391.75201416015625 209.37600708007812Z" stroke="#000000" stroke-width="0.25" g2gstroke="#312783" stroke-miterlimit="10"/>
<path orgstroke="#000000" orgfill="none" fill="none" d="M380.387,224.62   c-1.186-0.579-1.916-1.854-1.916-3.729c0-3.902,3.163-8.896,7.063-11.146c2.354-1.364,4.441-1.414,5.729-0.374" stroke="#000000" stroke-width="0.25" g2gstroke="#312783" stroke-miterlimit="10"/>
<path orgstroke="#000000" orgfill="none" fill="none" d="M382.425,225.38   c-1.171-0.563-1.888-1.833-1.888-3.679c0-3.847,3.108-8.765,6.966-10.987c2.325-1.344,4.388-1.392,5.646-0.36" stroke="#000000" stroke-width="0.25" g2gstroke="#312783" stroke-miterlimit="10"/>
<path orgstroke="#000000" orgfill="none" fill="none" d="M384.66,226.54   c-1.153-0.562-1.862-1.807-1.862-3.625c0-3.792,3.073-8.64,6.866-10.83c2.295-1.326,4.317-1.375,5.564-0.356" stroke="#000000" stroke-width="0.25" g2gstroke="#312783" stroke-miterlimit="10"/>
<path orgstroke="#000000" orgfill="none" fill="none" d="M386.26,227.483   c-1.149-0.563-1.852-1.798-1.852-3.607c0-3.771,3.059-8.599,6.833-10.771c2.275-1.319,4.305-1.366,5.545-0.361" stroke="#000000" stroke-width="0.25" g2gstroke="#312783" stroke-miterlimit="10"/>
<path orgstroke="#000000" orgfill="none" fill="none" d="M388.617,227.653   c-1.031-0.501-1.664-1.615-1.664-3.242c0-3.392,2.748-7.727,6.139-9.684c2.051-1.188,3.868-1.229,4.983-0.324" stroke="#000000" stroke-width="0.25" g2gstroke="#312783" stroke-miterlimit="10"/>
<path orgstroke="#000000" orgfill="none" fill="none" d="M391.159,228.006   c-0.889-0.428-1.417-1.377-1.417-2.763c0-2.891,2.342-6.583,5.229-8.251c1.748-1.009,3.295-1.046,4.245-0.277" stroke="#000000" stroke-width="0.25" g2gstroke="#312783" stroke-miterlimit="10"/>
<path orgstroke="#000000" orgfill="none" fill="none" d="M393.813,228.422   c-0.76-0.361-1.225-1.188-1.225-2.387c0-2.497,2.021-5.688,4.52-7.129c1.519-0.873,2.854-0.904,3.668-0.239" stroke="#000000" stroke-width="0.25" g2gstroke="#312783" stroke-miterlimit="10"/>
<path orgstroke="#000000" orgfill="none" fill="none" d="M397.179,227.915   c-0.49-0.229-0.789-0.767-0.789-1.538c0-1.604,1.304-3.667,2.913-4.597c0.976-0.563,1.837-0.583,2.366-0.155" stroke="#000000" stroke-width="0.25" g2gstroke="#312783" stroke-miterlimit="10"/>
<path orgstroke="#000000" orgfill="none" fill="none" d="M377.853,224.97   c-1.38-0.722-2.222-2.237-2.222-4.443c0-4.691,3.801-10.688,8.49-13.396c2.258-1.304,4.311-1.604,5.832-1.049" stroke="#000000" stroke-width="0.25" g2gstroke="#312783" stroke-miterlimit="10"/>
<path orgstroke="#000000" orgfill="none" fill="none" d="M401.378,223.914   c0,0.836-0.688,1.908-1.521,2.396c-0.839,0.479-1.518,0.188-1.518-0.646c0-0.84,0.679-1.912,1.518-2.393   C400.697,222.789,401.378,223.077,401.378,223.914z" stroke="#000000" stroke-width="0.25" g2gstroke="#312783" stroke-miterlimit="10"/>
</g>
</g>
</g>
</g></svg>