<?xml version="1.0" encoding="UTF-8" standalone="no"?>
<svg xmlns="http://www.w3.org/2000/svg" xmlns:xlink="http://www.w3.org/1999/xlink" xmlns:etg="http://www.eurotaxglass.com/etg/evd/" etg:dataTimestamp="1539068912893" contentScriptType="text/ecmascript" zoomAndPan="magnify" contentStyleType="text/css" id="Layer_1" enable-background="new 0 0 1841.891 1595.279" version="1.1" xml:space="preserve" width="1841.891px" preserveAspectRatio="xMidYMid meet" viewBox="0 0 1841.891 1595.279" height="1595.279px" x="0px" y="0px">
<g objectType="MGG" id="713500110405">
<g objectType="PS" toolTip="#UNDEFINED" id="18">
<g onmouseover="notifyOwner(AGV_OBJECT_MOUSEOVER, '18(PS)')" transform="translate(-143.57946337890627, -7.293701173693989E-6) translate(-466.70543994140627, -17.177077911376955) translate(603.0029653669735, 15.486432497386161) matrix(1.3317465906905697 0 0 1.3317465906905697 -66.7244414459619 -70.13844320122216) translate(40.0, -8.0) translate(13.0, 66.0) translate(-50,-46) " onclick="clickZoom(evt); notifyOwner(AGV_OBJECT_MOUSECLICK, '18(PS)')" onmouseout="notifyOwner(AGV_OBJECT_MOUSEOUT, '18(PS)')" toolTip="#UNDEFINED" id="18-Graphic" objectType="GRAPHIC">
<g zValue="6">
<g zValue="4">
<g zValue="40">
<g zValue="53">
<g zValue="56">
<g>
<path orgstroke="#000000" orgfill="#ffffff" transform="rotate(1.3492220778050008 260.3612060546875 162.4145278930664) translate(-19.0, 8.0) translate(64.0, -4.0) translate(-35,10) translate(-8.0, 9.0) translate(59,-22) translate(-27.0, 57.0) translate(-90,-32) matrix(0.7748348712921143 0 0 0.7748348712921143 118.64541673660278 -17.263110637664795)" fill="#ffffff" g2gfill="#ECF5E4" stroke-linejoin="round" d="M175.917,176.91   c0,0,37.154,37.045,116.667,67.334l41.609-22.559c0.187-0.102,0.233-0.229,0.219-0.35v-1.998c-0.025-0.199-0.219-0.377-0.219-0.377   l-115.097-66.428c-0.177-0.104-0.583,0-0.583,0l-42.597,22.377V176.91z" stroke="#000000" outline-element="true" stroke-width="0.5" g2gstroke="#312783" stroke-miterlimit="10"/>
<path orgstroke="#000000" orgfill="none" transform="rotate(1.3492220778050008 260.3612060546875 162.4145278930664) translate(-19.0, 8.0) translate(64.0, -4.0) translate(-35,10) translate(-8.0, 9.0) translate(59,-22) translate(-27.0, 57.0) translate(-90,-32) matrix(0.7748348712921143 0 0 0.7748348712921143 118.64541673660278 -17.263110637664795)" fill="none" stroke-linejoin="round" d="M334.412,219.337   c0.015,0.119-0.032,0.246-0.219,0.348l-41.609,22.559c-79.513-30.289-116.667-67.334-116.667-67.334" stroke="#000000" stroke-width="0.25" g2gstroke="#312783" stroke-miterlimit="10"/>
<path orgstroke="#000000" orgfill="none" transform="rotate(1.3492220778050008 260.3612060546875 162.4145278930664) translate(-19.0, 8.0) translate(64.0, -4.0) translate(-35,10) translate(-8.0, 9.0) translate(59,-22) translate(-27.0, 57.0) translate(-90,-32) matrix(0.7748348712921143 0 0 0.7748348712921143 118.64541673660278 -17.263110637664795)" fill="none" d="M320.583,212.66l9.964,5.926   c0,0,0.797,0.535,0.225,0.846l-37.072,20.1c-0.698,0.379-1.57-0.025-1.57-0.025l-10.01-5.953c-0.775-0.461,0.022-0.93,0.022-0.93   l36.971-20.045C319.112,212.578,319.916,212.263,320.583,212.66z" stroke="#000000" stroke-width="0.25" g2gstroke="#312783" stroke-miterlimit="10"/>
<path orgstroke="#000000" orgfill="none" transform="rotate(1.3492220778050008 260.3612060546875 162.4145278930664) translate(-19.0, 8.0) translate(64.0, -4.0) translate(-35,10) translate(-8.0, 9.0) translate(59,-22) translate(-27.0, 57.0) translate(-90,-32) matrix(0.7748348712921143 0 0 0.7748348712921143 118.64541673660278 -17.263110637664795)" fill="none" d="M268.264,182.572l9.964,5.926   c0,0,0.797,0.535,0.225,0.846l-37.072,20.1c-0.698,0.379-1.57-0.025-1.57-0.025l-10.01-5.953c-0.775-0.461,0.022-0.93,0.022-0.93   l36.971-20.045C266.793,182.49,267.597,182.175,268.264,182.572z" stroke="#000000" stroke-width="0.25" g2gstroke="#312783" stroke-miterlimit="10"/>
<path orgstroke="#000000" orgfill="none" transform="rotate(1.3492220778050008 260.3612060546875 162.4145278930664) translate(-19.0, 8.0) translate(64.0, -4.0) translate(-35,10) translate(-8.0, 9.0) translate(59,-22) translate(-27.0, 57.0) translate(-90,-32) matrix(0.7748348712921143 0 0 0.7748348712921143 118.64541673660278 -17.263110637664795)" fill="none" d="M219.931,154.4l9.964,5.926   c0,0,0.797,0.535,0.225,0.846l-37.072,20.1c-0.698,0.379-1.57-0.025-1.57-0.025l-10.01-5.953c-0.775-0.461,0.022-0.93,0.022-0.93   l36.971-20.045C218.46,154.318,219.264,154.003,219.931,154.4z" stroke="#000000" stroke-width="0.25" g2gstroke="#312783" stroke-miterlimit="10"/>
</g>
</g>
</g>
</g>
</g>
</g>
</g>
</g>
<g objectType="PS" toolTip="#UNDEFINED" id="19">
<g onmouseover="notifyOwner(AGV_OBJECT_MOUSEOVER, '19(PS)')" transform="translate(-143.57946337890627, -7.293701173693989E-6) translate(-466.70543994140627, -17.177077911376955) translate(603.0029653669735, 15.486432497386161) matrix(1.3317465906905697 0 0 1.3317465906905697 -66.7244414459619 -70.13844320122216) translate(13.0, 66.0) translate(-50,-46) " onclick="clickZoom(evt); notifyOwner(AGV_OBJECT_MOUSECLICK, '19(PS)')" onmouseout="notifyOwner(AGV_OBJECT_MOUSEOUT, '19(PS)')" toolTip="#UNDEFINED" id="19-Graphic" objectType="GRAPHIC">
<g zValue="5">
<g zValue="47">
<g zValue="41">
<g zValue="52">
<g zValue="55">
<g>
<path orgstroke="#000000" orgfill="#ffffff" transform="rotate(1.6302415296054564 391.44986724853516 108.1886100769043) translate(4.0, 23.0) translate(64.0, -4.0) translate(-35,10) translate(-28.0, 4.0) translate(-1,10) translate(-10.0, -3.0) translate(-18.0, 11.0) translate(-50,-124) translate(3.0, 1.0) translate(-62.96474140167237, 20.74165814208982) translate(221.0, -24.0) matrix(0.7748348693986583 0 0 0.7748348693986583 41.861807374831436 57.24688420672892) translate(10.0, 10.0)" fill="#ffffff" g2gfill="#ECF5E4" stroke-linejoin="round" d="M241.967,136.338   c0.007,0.1,0.075,0.208,0.259,0.313l115.146,66.457c0,0,0.806,0.57,1.281,0.302l56.854-32.086c0.187-0.101,0.233-0.228,0.219-0.347   l0.002-1.982c-0.014-0.207-0.221-0.396-0.221-0.396L300.41,102.172c-0.177-0.103-0.583,0-0.583,0l-57.563,31.756   c0,0-0.284,0.165-0.298,0.38V136.338z" stroke="#000000" outline-element="true" stroke-width="0.5" g2gstroke="#312783" stroke-miterlimit="10"/>
<path orgstroke="#000000" orgfill="none" transform="rotate(1.6302415296054564 391.44986724853516 108.1886100769043) translate(4.0, 23.0) translate(64.0, -4.0) translate(-35,10) translate(-28.0, 4.0) translate(-1,10) translate(-10.0, -3.0) translate(-18.0, 11.0) translate(-50,-124) translate(3.0, 1.0) translate(-62.96474140167237, 20.74165814208982) translate(221.0, -24.0) matrix(0.7748348693986583 0 0 0.7748348693986583 41.861807374831436 57.24688420672892) translate(10.0, 10.0)" fill="none" stroke-linejoin="round" d="M241.967,134.308   c-0.007,0.107,0.056,0.228,0.259,0.344l115.146,66.457c0,0,0.806,0.57,1.281,0.302l56.854-32.086   c0.177-0.097,0.228-0.216,0.221-0.329" stroke="#000000" stroke-width="0.25" g2gstroke="#312783" stroke-miterlimit="10"/>
<path orgstroke="#000000" orgfill="none" transform="rotate(1.6302415296054564 391.44986724853516 108.1886100769043) translate(4.0, 23.0) translate(64.0, -4.0) translate(-35,10) translate(-28.0, 4.0) translate(-1,10) translate(-10.0, -3.0) translate(-18.0, 11.0) translate(-50,-124) translate(3.0, 1.0) translate(-62.96474140167237, 20.74165814208982) translate(221.0, -24.0) matrix(0.7748348693986583 0 0 0.7748348693986583 41.861807374831436 57.24688420672892) translate(10.0, 10.0)" fill="none" d="M399.899,162.073l9.964,5.927   c0,0,0.797,0.535,0.225,0.846l-51.475,29.358c-0.698,0.379-1.57-0.026-1.57-0.026l-10.01-5.952c-0.775-0.461,0.022-0.93,0.022-0.93   l51.373-29.304C398.429,161.992,399.232,161.676,399.899,162.073z" stroke="#000000" stroke-width="0.25" g2gstroke="#312783" stroke-miterlimit="10"/>
<path orgstroke="#000000" orgfill="none" transform="rotate(1.6302415296054564 391.44986724853516 108.1886100769043) translate(4.0, 23.0) translate(64.0, -4.0) translate(-35,10) translate(-28.0, 4.0) translate(-1,10) translate(-10.0, -3.0) translate(-18.0, 11.0) translate(-50,-124) translate(3.0, 1.0) translate(-62.96474140167237, 20.74165814208982) translate(221.0, -24.0) matrix(0.7748348693986583 0 0 0.7748348693986583 41.861807374831436 57.24688420672892) translate(10.0, 10.0)" fill="none" d="M348.005,131.85l9.964,5.927   c0,0,0.797,0.535,0.225,0.846l-51.475,29.358c-0.698,0.379-1.57-0.026-1.57-0.026l-10.01-5.952c-0.775-0.461,0.022-0.93,0.022-0.93   l51.373-29.304C346.534,131.769,347.338,131.454,348.005,131.85z" stroke="#000000" stroke-width="0.25" g2gstroke="#312783" stroke-miterlimit="10"/>
<path orgstroke="#000000" orgfill="none" transform="rotate(1.6302415296054564 391.44986724853516 108.1886100769043) translate(4.0, 23.0) translate(64.0, -4.0) translate(-35,10) translate(-28.0, 4.0) translate(-1,10) translate(-10.0, -3.0) translate(-18.0, 11.0) translate(-50,-124) translate(3.0, 1.0) translate(-62.96474140167237, 20.74165814208982) translate(221.0, -24.0) matrix(0.7748348693986583 0 0 0.7748348693986583 41.861807374831436 57.24688420672892) translate(10.0, 10.0)" fill="none" d="M301.552,105.11l9.964,5.927   c0,0,0.797,0.535,0.225,0.846l-51.475,29.358c-0.698,0.379-1.57-0.026-1.57-0.026l-10.01-5.952c-0.775-0.461,0.022-0.93,0.022-0.93   l51.373-29.304C300.081,105.029,300.885,104.713,301.552,105.11z" stroke="#000000" stroke-width="0.25" g2gstroke="#312783" stroke-miterlimit="10"/>
</g>
</g>
</g>
</g>
</g>
</g>
</g>
</g>
<g objectType="PS" toolTip="#UNDEFINED" id="13">
<g id="13-Graphic" etg:pictogramId="GEN015" onmouseover="notifyOwner(AGV_OBJECT_MOUSEOVER, '13(PS)')" transform="translate(-2.810548782348633, 0.0) translate(-143.57946337890627, -7.293701173693989E-6) translate(-466.70543994140627, -17.177077911376955) translate(586.5486308385006, 75.49635842475749) translate(0.0, -0.9999923706054688) translate(2.0, 0.0) translate(0.5327072143554688, -0.07836151123046875) translate(-129.32975329589846, -55.90883221435547) translate(0.0, 0.0) translate(0.0, 0.0) translate(-22.354118019525288, 193.73568950255225) matrix(58 0 0 58 371.02301025 109.38200378)" onclick="clickZoom(evt); notifyOwner(AGV_OBJECT_MOUSECLICK, '13(PS)')" toolTip="#UNDEFINED" objectType="GRAPHIC" onmouseout="notifyOwner(AGV_OBJECT_MOUSEOUT, '13(PS)')"/>
</g>
<g objectType="PS" toolTip="#UNDEFINED" id="16">
<g id="16-Graphic" etg:pictogramId="GEN015" onmouseover="notifyOwner(AGV_OBJECT_MOUSEOVER, '16(PS)')" transform="translate(-2.810548782348633, 0.0) translate(-143.57946337890627, -7.293701173693989E-6) translate(-466.70543994140627, -17.177077911376955) translate(586.5486308385006, 75.49635842475749) translate(0.0, 0.9999923706054688) translate(0.0, 0.0) translate(2.0, 12.0) translate(0.0, -14.0) translate(0.0, 0.0) translate(-0.5327072143554688, 0.07836151123046875) translate(1.0, 0.0) translate(-129.32975329589846, -55.90883221435547) translate(0.0, -23.70748257637024) translate(-11.4853595495224, 0.0) translate(38.0, -92.0) translate(-26,116) matrix(58 0 0 58 348.21966553 302.66845703)" onclick="clickZoom(evt); notifyOwner(AGV_OBJECT_MOUSECLICK, '16(PS)')" toolTip="#UNDEFINED" objectType="GRAPHIC" onmouseout="notifyOwner(AGV_OBJECT_MOUSEOUT, '16(PS)')"/>
</g>
<g objectType="PS" toolTip="#UNDEFINED" id="17">
<g id="17-Graphic" etg:pictogramId="GEN027" onmouseover="notifyOwner(AGV_OBJECT_MOUSEOVER, '17(PS)')" transform="translate(-2.891725540161133, 0.0) translate(-143.57946337890627, -7.293701173693989E-6) translate(-466.70543994140627, -17.177077911376955) translate(586.5486308385006, 75.49635842475749) translate(0.00549626350402832, 0.0) translate(0.0, -8.0) translate(2.0, 12.0) translate(0.0, -14.0) translate(1.2099334001541138, 0.0) translate(44.0, 2.0) translate(-79,-22) matrix(58 0 0 58 253.73765111 341.51159757)" onclick="clickZoom(evt); notifyOwner(AGV_OBJECT_MOUSECLICK, '17(PS)')" toolTip="#UNDEFINED" objectType="GRAPHIC" onmouseout="notifyOwner(AGV_OBJECT_MOUSEOUT, '17(PS)')"/>
</g>
<g objectType="PS" toolTip="#UNDEFINED" id="21">
<g onmouseover="notifyOwner(AGV_OBJECT_MOUSEOVER, '21(PS)')" transform="translate(-143.57946337890627, -7.293701173693989E-6) translate(-466.70543994140627, -17.177077911376955) translate(154.67932866319848, 57.62563224707395) translate(-117.80001831054688, -25.636605262756348) translate(-46.0, -1.0) translate(513.0, -23.0) translate(10.0, 10.00006103515625)" onclick="clickZoom(evt); notifyOwner(AGV_OBJECT_MOUSECLICK, '21(PS)')" onmouseout="notifyOwner(AGV_OBJECT_MOUSEOUT, '21(PS)')" toolTip="#UNDEFINED" id="21-Graphic" objectType="GRAPHIC">
<g zValue="1">
<g>
<path orgstroke="#000000" orgfill="#ffffff" fill="#ffffff" g2gfill="#464646" d="M634.2,122.3c0.4,0.3,0.8,0.6,1.2,0.9   c0.2,0.1,0.2,0.3,0.2,0.6v0.4c0,0.2-0.1,0.4-0.3,0.5c-0.9,0.5-2.4,1.4-3.3,1.8c-6.6,3.2-14.9,7.6-26.2,13.9   c-26.3,14.6-62.3,36.5-87.7,53.2c-38.2,25.2-68.6,52.7-76.6,61.4c-2.8,3-5.2,5.9-7.7,9c0,0-0.4,0.5-0.5,0.7   c-0.4,0.6-1.2,1.1-2.3,0.7c-52.1-21.6-112.3-56.6-141.9-82.3c-0.7-0.6-2.2-1.9-3-2.6c-0.2-0.2-0.2-0.3-0.2-0.4v-0.4   c0-0.2,0.1-0.4,0.3-0.5c0.4-0.3,0.9-0.5,1.4-0.9c0.2-0.2,0.2-0.4,0.4-0.6c3.6-2.7,7.4-5.5,11.6-8.4c25-16.7,71.6-43.6,87.6-52.3   c25-13.6,83.8-46,127.8-61.3c1.2-0.4,2.4-0.8,3.6-1.1c0,0,0.3-0.1,0.5,0.1c25.7,11.1,93.1,51.5,114.4,67c0.2,0.2,0.2,0.3,0.2,0.5   S634,122.2,634.2,122.3z" stroke="#000000" outline-element="true" stroke-width="0.5" g2gstroke="#312783" stroke-miterlimit="10"/>
<linearGradient gradientTransform="matrix(1 0 0 -1 0 595.28)" x1="513.9794" x2="391.8166" y1="366.5951" gradientUnits="userSpaceOnUse" y2="547.7089" xlink:type="simple" xlink:actuate="onLoad" id="5::SVGID_3_" xlink:show="other">
<stop stop-opacity="0.89" stop-color="#FFFFFF" offset="0"/>
<stop stop-opacity="0.39" stop-color="#FFFFFF" offset="0.52"/>
<stop stop-opacity="0.31" stop-color="#FFFFFF" offset="0.8711"/>
</linearGradient>
<path fill="url(#5::SVGID_3_)" d="M431.8,262.1c-0.1,0-0.2,0-0.3-0.1c-53-21.9-113.4-57.4-141.9-82.5c-0.5-0.5-1.2-1.1-1.7-1.6   l-0.1-0.1c0.1-0.1,0.1-0.2,0.2-0.3c3.6-2.7,7.4-5.5,11.6-8.4c25-16.7,71.6-43.6,87.6-52.3c25-13.6,83.8-46,127.8-61.3   c1.2-0.4,2.4-0.8,3.6-1.1c0,0,0.3,0,0.6,0.1c25.7,11.1,93.1,51.5,114.4,67c0.1,0.1,0.2,0.2,0.2,0.2c-0.8,0.5-1.6,0.9-2.4,1.3   c-7.4,3.6-16.3,8.4-26.3,14c-24.4,13.6-60.5,35.3-87.8,53.3c-39.3,25.9-69.3,53.4-76.9,61.7c-3,3.3-5.5,6.2-7.8,9.1   c-0.1,0.2-0.4,0.5-0.6,0.7C432,262,431.9,262.1,431.8,262.1z" orgfill="url(#5::SVGID_3_)"/>
<linearGradient gradientTransform="matrix(1 0 0 -1 0 595.28)" x1="285.9359" x2="635.5739" y1="401.9508" gradientUnits="userSpaceOnUse" y2="401.9508" xlink:type="simple" xlink:actuate="onLoad" id="5::SVGID_4_" xlink:show="other">
<stop stop-opacity="0.2" stop-color="#FFFFFF" offset="0"/>
<stop stop-opacity="0.2" stop-color="#FFFFFF" offset="1"/>
</linearGradient>
<path fill="url(#5::SVGID_4_)" d="M631.4,124.2c0.8-0.4,1.5-0.8,2.3-1.3c0.1-0.1,0.2-0.1,0.2-0.3V122c0,0.1,0.1,0.2,0.3,0.3   c0.4,0.3,0.8,0.6,1.2,0.9c0.1,0.1,0.2,0.2,0.2,0.3c-0.8,0.5-2.6,1.5-3.5,2c-6.6,3.2-14.9,7.6-26.2,13.9   c-26.3,14.6-62.3,36.5-87.7,53.2c-38.2,25.2-68.6,52.7-76.6,61.4c-2.8,3-5.2,5.9-7.7,9c0,0-0.4,0.5-0.5,0.7   c-0.4,0.6-1.2,1.1-2.3,0.7c-52.1-21.6-112.3-56.6-141.9-82.3c-0.7-0.6-2.4-2.1-3.2-2.8c0-0.1,0.1-0.2,0.2-0.3   c0.4-0.3,0.9-0.5,1.4-0.9c0.1-0.1,0.1-0.1,0.2-0.2v0.8c0,0.2,0.1,0.4,0.3,0.5c27.9,25.1,89.5,61.5,143.5,83.9   c0.1,0,0.2,0.1,0.3,0.1c0.1,0,0.2-0.1,0.3-0.3c0.2-0.2,0.4-0.5,0.6-0.7c2.3-2.9,4.8-5.8,7.8-9.1c7.6-8.3,37.6-35.8,76.9-61.7   c27.3-18,63.4-39.7,87.8-53.3C615.1,132.6,624,127.8,631.4,124.2z" orgfill="url(#5::SVGID_4_)"/>
<path orgstroke="#000000" orgfill="none" fill="none" d="M633.9,121.7c-0.8,0.5-1.6,0.9-2.4,1.3   c-7.4,3.6-16.3,8.4-26.3,14c-24.4,13.6-60.5,35.3-87.8,53.3c-39.3,25.9-69.3,53.4-76.9,61.7c-3,3.3-5.5,6.2-7.8,9.1   c-0.2,0.2-0.4,0.5-0.6,0.7c-0.2,0.3-0.3,0.3-0.6,0.2c-53-21.9-113.4-57.4-141.9-82.5c-0.5-0.5-1.2-1.1-1.7-1.6" stroke="#000000" stroke-width="0.25" g2gstroke="#312783" stroke-miterlimit="10"/>
<path orgstroke="#000000" orgfill="none" fill="none" d="M635.6,123.5c-0.8,0.5-2.6,1.5-3.5,2   c-6.6,3.2-14.9,7.6-26.2,13.9c-26.3,14.6-62.3,36.5-87.7,53.2c-38.2,25.2-68.6,52.7-76.6,61.4c-2.8,3-5.2,5.9-7.7,9   c0,0-0.4,0.5-0.5,0.7c-0.4,0.6-1.2,1.1-2.3,0.7c-52.1-21.6-112.3-56.6-141.9-82.3c-0.7-0.7-2.5-2.2-3.2-2.8" stroke="#000000" stroke-width="0.25" g2gstroke="#312783" stroke-miterlimit="10"/>
<path orgstroke="#000000" orgfill="none" fill="none" d="M431.79998779296875 262L431.79998779296875 263.20001220703125" stroke="#000000" stroke-width="0.25" g2gstroke="#312783" stroke-miterlimit="10"/>
<path orgstroke="#000000" orgfill="none" fill="none" d="M287.7,178v0.8c0,0.2,0.1,0.3,0.3,0.5   c27.9,25.1,89.5,61.5,143.5,83.8c0.3,0.1,0.4,0.1,0.6-0.2c0.2-0.2,0.4-0.6,0.6-0.7c2.3-2.9,4.7-5.8,7.8-9.1   c7.6-8.3,37.6-35.8,76.9-61.7c27.3-18,63.4-39.7,87.8-53.3c10-5.5,18.9-10.4,26.3-14c0.8-0.4,1.5-0.8,2.3-1.2   c0.1-0.1,0.2-0.2,0.2-0.3V122" stroke="#000000" stroke-width="0.25" g2gstroke="#312783" stroke-miterlimit="10"/>
<path orgstroke="#000000" orgfill="none" fill="none" d="M634.2,122.3c0.4,0.3,0.8,0.6,1.2,0.9   c0.2,0.1,0.2,0.3,0.2,0.6v0.4c0,0.2-0.1,0.4-0.3,0.5c-0.9,0.5-2.4,1.4-3.3,1.8c-6.6,3.2-14.9,7.6-26.2,13.9   c-26.3,14.6-62.3,36.5-87.7,53.2c-38.2,25.2-68.6,52.7-76.6,61.4c-2.8,3-5.2,5.9-7.7,9c0,0-0.4,0.5-0.5,0.7   c-0.4,0.6-1.2,1.1-2.3,0.7c-52.1-21.6-112.3-56.6-141.9-82.3c-0.7-0.6-2.2-1.9-3-2.6c-0.2-0.2-0.2-0.3-0.2-0.4v-0.4   c0-0.2,0.1-0.4,0.3-0.5c0.4-0.3,0.9-0.5,1.4-0.9c0.2-0.2,0.2-0.4,0.4-0.6c3.6-2.7,7.4-5.5,11.6-8.4c25-16.7,71.6-43.6,87.6-52.3   c25-13.6,83.8-46,127.8-61.3c1.2-0.4,2.4-0.8,3.6-1.1c0,0,0.3-0.1,0.5,0.1c25.7,11.1,93.1,51.5,114.4,67c0.2,0.2,0.2,0.3,0.2,0.5   S634,122.2,634.2,122.3z" stroke="#000000" stroke-width="0.25" g2gstroke="#312783" stroke-miterlimit="10"/>
</g>
</g>
</g>
</g>
<g objectType="PS" toolTip="#UNDEFINED" id="27">
<g onmouseover="notifyOwner(AGV_OBJECT_MOUSEOVER, '27(PS)')" transform="translate(-143.57946337890627, -7.293701173693989E-6) translate(-466.70543994140627, -17.177077911376955) translate(-46.0, -1.0) translate(513.0, -23.0) translate(10.0, 10.00006103515625)" onclick="clickZoom(evt); notifyOwner(AGV_OBJECT_MOUSECLICK, '27(PS)')" onmouseout="notifyOwner(AGV_OBJECT_MOUSEOUT, '27(PS)')" toolTip="#UNDEFINED" id="27-Graphic" objectType="GRAPHIC">
<g zValue="7">
<g>
<path stroke-linecap="round" orgstroke="#000000" orgfill="#ffffff" fill="#ffffff" g2gfill="#BCBEC0" stroke-linejoin="round" d="M745.6,262.4   l-0.4-0.2c-0.2-0.1-0.3-0.1-0.5,0c-0.3,0.1-0.6,0.1-0.8,0.1c-0.1,0-0.3,0-0.4-0.2c-0.1-0.3-0.2-0.4-0.2-0.8c0-2,0.5-18.9,0.5-20.8   s0-3.3-0.2-4s-1.1-3.5-1.2-5.3c-0.1-1.8,0.4-2.6,0.6-3.3c0.2-0.6,0.2-0.9,0-2.7c-0.4-3.9-2.4-9.2-8.4-15.9   c-10.1-11.2-42.9-39.1-48.1-43.6c-0.2-0.2-0.4-0.1-0.6,0c-0.7,0.4-1.4,0.8-2.1,1.1c-7.4,3.6-16.3,8.4-26.3,14   c-24.4,13.6-60.5,35.3-87.8,53.3c-39.3,25.9-69.3,53.4-76.9,61.7c-7.6,8.3-12.4,15.2-17.1,21.6s-28.7,44.9-34.3,54.7   c-4.7,8.2-14.8,25.8-19.7,33.9c-0.1,0.2-0.2,0.3-0.2,0.6v0.6c0,0.4-0.1,0.5-0.2,0.7c-1.1,1.9-7.2,11.4-7.7,11.9   c0,0.1-0.1,0.2-0.1,0.5s0,0.9,0,1s0.2,0.5,0.5,0.7c1.3,0.7,3.5,2,3.9,2.4c0.8,0.6,1.1,1.4,1.3,2.2c0.1,0.5,1.4,21.9,5.2,43.5   c1.7,9.4,3.1,17.6,4.1,23.7c0,0.3,0.1,0.3-0.3,0.5l-0.3,0.1c-0.2,0.1-0.2,0.4-0.2,0.7c0.9,5.2,1.4,8.3,1.4,8.6   c0,0.3,0.1,0.6,0.2,0.7c0.1,0.2,0.3,0.4,0.5,0.5l2,1.2l0.1,0c0.3,0.1,0.7-0.1,1.3-0.4c1.1-0.5,2.7-1.3,2.7-1.3   c0.3-0.1,0.6,0.4,0.9,1.5c0.5,2.2,3.3,12.8,3.3,12.8c0.1,0.3,0,0.4-0.3,0.5c-2.1,1.2-3.7,2.2-5,3c-0.3,0.2-0.3,0.3-0.4,0.6   c-0.1,0.5-0.2,1-0.2,1.5c-0.2,1.3-0.5,2.7-0.7,4.1c-0.1,0.3,0.1,0.4,0.2,0.5l0.4,0.2c0.2,0.1,0.4,0.1,0.6,0l21.2-12.5L650,402.6   l6.5-3.8c3.2-1.9,5.8-5.8,7.7-11.5c0.1-0.4,0.3-0.9,0.4-1.4c0-0.1,0.1-0.3,0.3-0.4l0.8-0.4c0.3-0.2,0.4-0.3,0.5-0.7   c0.7-3,1.2-6.4,2-10.3c5.8-27.4,29-59,50.6-68.6c7.9-3.5,14.9-4.6,20.8-3.5c0.2,0,0.3-0.1,0.3-0.1c0.3-0.7,1.6-3.6,2-4.5   c0.4-0.8,0.5-1.5,0.5-2.3c0.1-1.9,0.6-9.5,1.1-14.6c0.5-5,1.2-12.3,2.5-17.6C745.8,262.6,745.8,262.5,745.6,262.4z M578.9,362.2   c-0.5,4.3-1.9,12.1-3.7,18c-1.8,5.7-5.1,15-6.3,25c-1.1,10.1-2.4,27-16.7,35.5c0,0-82.1,49.4-106.2,63.8c-0.3,0.2-0.4,0.2-0.5-0.4   c-0.1-1.2-0.1-2.7,0-4.6c0.2-3.8-2.5-54.9-2.8-58.2s-1.3-6.1-2.2-8.7s-1.8-7.1-1.8-9.3c0-2,0-8.1,0-13.3c0-0.3,0.1-0.4,0.2-0.6   l0.4-0.4c0.2-0.2,0.2-0.3,0.2-0.6c0.1-0.9,0.5-2.5,1.4-6.3c0.6-2.6,3.3-9.2,6.9-17.1l0.2-0.3c5.4-11.8,32.7-58.2,43.8-72.2   c11.1-14,17.8-19.7,34.9-32.8c7.6-5.8,25.6-18.6,28.5-20.7c0.9-0.7,2.3-0.7,3.6-0.2c0,0,0.1,0,0.1,0.1c2.6,1.5,4.6,5.2,5.5,8.7   c3.9,14.4,9,47.2,9.7,56.8c0.7,9.6,3.9,10.4,4.6,19.5C579.6,353.1,579.3,357.9,578.9,362.2z M685.6,292.3   c-2.3,7.1-6.6,13.5-11,21.3l-0.9,1.5c-10.4,18.4-16,30.8-21.1,41.7c-2.5,5.4-4.9,10.6-7.5,15.7c-0.7,1.3-1.2,2.9-1.8,4.7   c-1.5,4.7-3.4,10.5-8.6,13.6c-1.9,1.2-13.2,7.9-21.4,12.8l-8.5,5.1c-1.8,1.1-3.4,1.7-4.8,1.7c-0.6,0-0.8-0.2-1-0.8   c-0.1-0.2-0.3-0.7-0.3-0.9c-0.4-1.3-0.7-2.6-1-4c-0.4-2-0.4-2.9-0.3-4.2c0.2-1.2-0.5-2.6-0.2-5.2c0.3-2.6,3.6-32.4,3.6-34.1   c-0.1-11.5-0.4-18.4-1.2-25.1c-0.1-1.3-0.5-2.5-0.9-3.7l-0.2-0.5c-0.4-4.4-1.8-13.3-4.8-26.8c-3.1-13.5-14.6-46.3-15.2-48.2   c-0.6-1.9-0.5-4.5,0.3-7.2c0.9-2.8,2.5-7.4,8.8-11.4c16.6-10.7,54.7-30.1,74-38.1c1-0.4,1.8-0.7,2.4-0.5c0.3,0.1,1,0.7,1.2,0.9   c1.9,2.2,16.5,23.1,16.5,23.1c1.4,2,3.5,4.5,3.5,8.1c0.2,9.1,1,19,1.2,20.2c0.6,3.9-0.8,8.2-0.6,16.5   C686.1,277.7,689.3,280.4,685.6,292.3z" stroke="#000000" outline-element="true" stroke-width="0.5" g2gstroke="#312783"/>
<path orgstroke="#000000" orgfill="none" stroke-linecap="round" fill="none" stroke-linejoin="round" d="   M703.6,267.2c17-11.9,31.2-22,35.4-25.4c1.8-1.4,3.4-2.7,4.8-4" stroke="#000000" stroke-width="0.25" g2gstroke="#312783" stroke-miterlimit="10"/>
<path orgstroke="#000000" orgfill="none" stroke-linecap="round" fill="none" stroke-linejoin="round" d="   M421.8,406.3c3.3-1.1,13.3-0.3,17.7,2.6" stroke="#000000" stroke-width="0.25" g2gstroke="#312783" stroke-miterlimit="10"/>
<path orgstroke="#000000" orgfill="none" stroke-linecap="round" fill="none" stroke-linejoin="round" d="   M421.7,407.7c3-1.1,12.5-0.4,17.2,2.2" stroke="#000000" stroke-width="0.25" g2gstroke="#312783" stroke-miterlimit="10"/>
<path orgstroke="#000000" orgfill="none" stroke-linecap="round" fill="none" stroke-linejoin="round" d="   M698.3,294.3c3.8-2.9,7.6-5.5,11.6-7.7c7.9-4.4,16.4-5.6,24-5.6c2.8,0,5.6,0.2,8.2,0.8c0.4,0.1,0.8,0.2,1.1,0.3" stroke="#000000" stroke-width="0.25" g2gstroke="#312783" stroke-miterlimit="10"/>
<path orgstroke="#000000" orgfill="none" stroke-linecap="round" fill="none" stroke-linejoin="round" d="   M656.3,378.4c1.2-0.1,2.5-0.2,3.8-0.2" stroke="#000000" stroke-width="0.25" g2gstroke="#312783" stroke-miterlimit="10"/>
<path orgstroke="#000000" orgfill="none" stroke-linecap="round" fill="none" stroke-linejoin="round" d="   M654.4,384c1-0.7,1.9-1.4,2.8-2.1c2.7-2.1,4.4-4.1,4.9-6.9c5.7-30.1,30.5-64.1,54.3-74.7c6.6-2.9,12.8-4.4,18.6-4.4   c2.5,0,4.8,0.3,7.1,0.8" stroke="#000000" stroke-width="0.25" g2gstroke="#312783" stroke-miterlimit="10"/>
<path orgstroke="#000000" orgfill="none" stroke-linecap="round" fill="none" stroke-linejoin="round" d="   M743.5,262.1c0.4,0.6,1.3,0.8,2.3,0.5" stroke="#000000" stroke-width="0.25" g2gstroke="#312783" stroke-miterlimit="10"/>
<path orgstroke="#000000" orgfill="none" stroke-linecap="round" fill="none" stroke-linejoin="round" d="   M438.9,409.8c0,0-6.6,4.7-6,13.7c0.7,9.8,1.5,16.9,1.5,16.9" stroke="#000000" stroke-width="0.25" g2gstroke="#312783" stroke-miterlimit="10"/>
<path orgstroke="#000000" orgfill="none" fill="none" d="M436.1,504.7c0.1,0,0.1-0.1,0.2-0.1c1-0.5,1.4-0.5,1.8,1.2   c0.5,2.2,3.3,12.8,3.3,12.8" stroke="#000000" stroke-width="0.25" g2gstroke="#312783"/>
<path orgstroke="#000000" orgfill="none" fill="none" d="M413.7,420.1c-0.1,0.4,0,0.8,0.8,1.1c0.9,0.4,4.1,2.3,4.6,2.7   c0.8,0.6,1.1,1.5,1.3,2.4c0.1,0.5,1.4,21.9,5.2,43.5c3.5,19.9,5.9,34.5,6,35.2c0.1,0.8,0.3,1.2,0.6,1.3" stroke="#000000" stroke-width="0.25" g2gstroke="#312783"/>
<path orgstroke="#000000" orgfill="none" stroke-linecap="round" fill="none" stroke-linejoin="round" d="   M435.9,523.1c-0.1,0.6-0.2,1.3-0.3,1.9c-0.2,1.4-0.5,2.8-0.8,4.3" stroke="#000000" stroke-width="0.25" g2gstroke="#312783" stroke-miterlimit="10"/>
<path orgstroke="#000000" orgfill="none" fill="none" d="M430.1000061035156 495.6000061035156L445.1000061035156 487.1000061035156" stroke="#000000" stroke-width="0.25" g2gstroke="#312783" stroke-miterlimit="10"/>
<path orgstroke="#000000" orgfill="none" fill="none" d="M424 458.5L443.20001220703125 447.6000061035156" stroke="#000000" stroke-width="0.25" g2gstroke="#312783" stroke-miterlimit="10"/>
<path orgstroke="#000000" orgfill="none" fill="none" d="M422.3999938964844 447.29998779296875L441.79998779296875 436.29998779296875" stroke="#000000" stroke-width="0.25" g2gstroke="#312783" stroke-miterlimit="10"/>
<path orgstroke="#000000" orgfill="none" fill="none" d="M420.8999938964844 432.8999938964844L432.8999938964844 426" stroke="#000000" stroke-width="0.25" g2gstroke="#312783" stroke-miterlimit="10"/>
<path orgstroke="#000000" orgfill="none" fill="none" d="M441.2,471.2c0.1,1.2-0.7,2.8-1.7,3.5c-0.9,0.6-1.8,0.3-2-0.7   c0-0.1,0-0.2,0-0.3l-1-12.2c0-0.1,0-0.2,0-0.2c0,0,0,0.1,0,0.1l0.9,11.2c0.1,0.9,0.7,1.2,1.5,0.7c0.7-0.5,1.3-1.6,1.2-2.6   l-0.9-11.4c-0.1-0.8-0.8-1-1.5-0.5c-0.5,0.4-1,1-1.1,1.7c0.2-1,0.8-2,1.6-2.5c0.9-0.6,1.8-0.3,2,0.7L441.2,471.2z" stroke="#000000" stroke-width="0.25" g2gstroke="#312783"/>
<path orgstroke="#000000" orgfill="none" fill="none" d="M436.6,460.5c0,0-0.1,0.5-0.1,0.7" stroke="#000000" stroke-width="0.25" g2gstroke="#312783"/>
<path orgstroke="#000000" orgfill="none" fill="none" d="M434.7,476.9c0.2,1.3-0.5,3.1-1.6,3.9c-1.1,0.8-2.1,0.4-2.2-0.9   c-0.2-1.3,0.6-3.1,1.6-3.9C433.6,475.2,434.6,475.6,434.7,476.9z" stroke="#000000" stroke-width="0.25" g2gstroke="#312783"/>
<path orgstroke="#000000" orgfill="none" fill="none" d="M434,477.5c0.1,0.8-0.3,1.9-1,2.4c-0.6,0.5-1.3,0.2-1.4-0.6   c-0.1-0.8,0.3-1.9,1-2.4C433.3,476.4,433.9,476.7,434,477.5z" stroke="#000000" stroke-width="0.25" g2gstroke="#312783"/>
<path orgstroke="#000000" orgfill="none" fill="none" d="M436.1,499.6c0.1,0.6-0.2,1.4-0.7,1.7c-0.5,0.4-0.9,0.2-1-0.4   c-0.1-0.6,0.2-1.4,0.7-1.7C435.5,498.9,436,499,436.1,499.6z" stroke="#000000" stroke-width="0.25" g2gstroke="#312783"/>
<path orgstroke="#000000" orgfill="none" fill="none" d="M435.2,499.1c0,0.6-0.3,1.3-0.7,1.6c0,0-0.1,0.1-0.1,0.1" stroke="#000000" stroke-width="0.25" g2gstroke="#312783"/>
<path orgstroke="#000000" orgfill="none" fill="none" d="M441.1,493.9c0.1,0.6-0.2,1.4-0.7,1.7c-0.5,0.4-0.9,0.2-1-0.4   c-0.1-0.6,0.2-1.4,0.7-1.7C440.5,493.1,441,493.3,441.1,493.9z" stroke="#000000" stroke-width="0.25" g2gstroke="#312783"/>
<path orgstroke="#000000" orgfill="none" fill="none" d="M440.2,493.4c0,0.6-0.3,1.3-0.7,1.6c0,0-0.1,0.1-0.1,0.1" stroke="#000000" stroke-width="0.25" g2gstroke="#312783"/>
<path orgstroke="#000000" orgfill="none" fill="none" d="M440,442.9c0.1,0.8-0.3,1.8-0.9,2.3c-0.6,0.5-1.2,0.2-1.3-0.5   c-0.1-0.8,0.3-1.8,0.9-2.3C439.3,441.9,439.9,442.1,440,442.9z" stroke="#000000" stroke-width="0.25" g2gstroke="#312783"/>
<path orgstroke="#000000" orgfill="none" fill="none" d="M438.9,442.2c0,0.8-0.4,1.7-0.9,2.1c-0.1,0-0.1,0.1-0.2,0.1" stroke="#000000" stroke-width="0.25" g2gstroke="#312783"/>
<path orgstroke="#000000" orgfill="none" fill="none" d="M436.9,446.6c0.1,0.6-0.2,1.4-0.7,1.8c-0.5,0.4-1,0.2-1-0.4   c-0.1-0.6,0.3-1.4,0.7-1.8C436.4,445.8,436.8,446,436.9,446.6z" stroke="#000000" stroke-width="0.25" g2gstroke="#312783"/>
<path orgstroke="#000000" orgfill="none" fill="none" d="M436,446.1c0,0.6-0.3,1.4-0.8,1.7c0,0-0.1,0.1-0.1,0.1" stroke="#000000" stroke-width="0.25" g2gstroke="#312783"/>
<path orgstroke="#000000" orgfill="none" fill="none" d="M430.8,430.9c0.1,0.6-0.2,1.4-0.7,1.8c-0.5,0.4-1,0.2-1-0.4   c-0.1-0.6,0.3-1.4,0.7-1.8C430.3,430.1,430.7,430.3,430.8,430.9z" stroke="#000000" stroke-width="0.25" g2gstroke="#312783"/>
<path orgstroke="#000000" orgfill="none" fill="none" d="M429.9,430.4c0,0.6-0.3,1.4-0.8,1.7c0,0-0.1,0.1-0.1,0.1" stroke="#000000" stroke-width="0.25" g2gstroke="#312783"/>
<path orgstroke="#000000" orgfill="none" fill="none" d="M436.9,417.9c0.1,0.6-0.2,1.4-0.7,1.8c-0.5,0.4-1,0.2-1-0.4   c-0.1-0.6,0.3-1.4,0.7-1.8C436.4,417.1,436.8,417.3,436.9,417.9z" stroke="#000000" stroke-width="0.25" g2gstroke="#312783"/>
<path orgstroke="#000000" orgfill="none" fill="none" d="M436,417.4c0,0.6-0.3,1.4-0.8,1.7c0,0-0.1,0.1-0.1,0.1" stroke="#000000" stroke-width="0.25" g2gstroke="#312783"/>
<path orgstroke="#000000" orgfill="none" fill="none" d="M427.9,494.9l0.6,0.3c0.3,0.1,0.4,0,0.3-0.3c0-0.2-0.2-1.5-0.2-1.5" stroke="#000000" stroke-width="0.25" g2gstroke="#312783"/>
<path orgstroke="#000000" orgfill="none" stroke-linecap="round" fill="none" stroke-linejoin="round" d="   M434.9,522.7c0,0,0.4,0.2,0.6,0.4c0.2,0.1,0.5,0.1,0.7-0.1c23.5-14.1,219.3-131.7,229.8-138.3" stroke="#000000" stroke-width="0.25" g2gstroke="#312783" stroke-miterlimit="10"/>
<path orgstroke="#000000" orgfill="none" stroke-linecap="round" fill="none" stroke-linejoin="round" d="   M447.9,385.2c4.1-9.1,9.5-19.9,14.5-28.6c9.4-16.3,17.6-30.7,28.7-44.7c11.1-14,17.8-19.7,34.9-32.8c17-13,45.9-33.6,72.1-48.3   c21.9-12.3,48.8-26.3,67.5-33.8c2.1-0.9,5.2-0.1,7.6,2.7c2.1,2.3,12.6,16.9,19.5,27.1c1.4,2.1,3.6,5.1,4.1,9.3s0.5,13.6,0.5,15.1   c0.2,0.8,0.3,2.6,0.9,3.9c0.6,1.4,3.6,7.3,4.1,8.2c0.2,0.4,0.5,0.8,0.8,1.6c0.7,1.9,0.7,3,0.6,4.7c-1.7,21.5-8.3,32.7-18.4,50.6   c-15.7,27.8-20.8,42.3-28.5,57.3c-2.3,4.4-3.1,14.7-10.9,19.5" stroke="#000000" stroke-width="0.25" g2gstroke="#312783" stroke-miterlimit="10"/>
<path orgstroke="#000000" orgfill="none" stroke-linecap="round" fill="none" stroke-linejoin="round" d="   M670.2,197.4c0.7,0.4,1.3,1,1.9,1.7c2.1,2.3,12.6,16.9,19.5,27.1c1.4,2.1,3.6,5.1,4.1,9.3s0.5,13.6,0.5,15.1   c0.2,0.8,0.3,2.6,0.9,3.9c0.6,1.4,3.6,7.3,4.1,8.2c0.2,0.4,0.5,0.8,0.8,1.6c0.7,1.9,0.7,3,0.6,4.7c-1.7,21.5-8.3,32.7-18.4,50.6   c-15.7,27.8-20.8,42.3-28.5,57.3c-2.3,4.4-3.1,14.7-10.9,19.5l-0.6,0.3c-53,31.9-186.2,112.1-203.7,122.6" stroke="#000000" stroke-width="0.25" g2gstroke="#312783" stroke-miterlimit="10"/>
<path orgstroke="#000000" orgfill="none" fill="none" d="M599.2,409.8c1.9,5.2,5.4,9,13.3,4.4c3.1-1.8,27-16.1,29.9-17.9   c7.9-4.8,8.9-14.7,11.1-19.2c7.7-15,12.8-29.5,28.5-57.3c10.1-17.9,16.7-29.1,18.4-50.6c0.1-1.8,0.1-2.8-0.6-4.7   c-0.3-0.8-0.6-1.2-0.8-1.6c-0.4-0.9-3.4-6.8-4.1-8.2c-0.6-1.3-0.7-3.1-0.9-3.9c0-1.5,0-10.9-0.5-15.1s-2.7-7.2-4.1-9.3   c-7-10.2-17.4-24.7-19.5-27.1c-0.6-0.7-1.2-1.3-1.9-1.7c-0.8-0.4-2.5-0.7-3-0.5" stroke="#000000" stroke-width="0.25" g2gstroke="#312783"/>
<path orgstroke="#000000" orgfill="none" fill="none" d="M600.8,413.1c1.7,0,3.8-0.6,6.3-2c3.1-1.8,27-16.1,29.9-17.9   c7.9-4.8,8.9-14.7,11.1-19.2c7.7-15,12.8-29.5,28.5-57.3c10.1-17.9,16.7-29.1,18.4-50.6c0.1-1.8,0.1-2.8-0.6-4.7   c-0.3-0.8-0.6-1.2-0.8-1.6c-0.4-0.9-3.4-6.8-4.1-8.2c-0.6-1.3-0.8-3.1-0.9-3.9c-0.2-1.5,0-10.9-0.5-15.1s-2.7-7.2-4.1-9.3   c-7-10.2-14.4-20.6-16.5-23c-0.6-0.7-1.2-1.3-1.9-1.7c-0.8-0.4-2.5-0.7-3-0.5" stroke="#000000" stroke-width="0.25" g2gstroke="#312783"/>
<path orgstroke="#000000" orgfill="none" fill="none" d="M560.7,254.2c5.2,2.1,8.2,3.7,12.1,18.1s9,47.2,9.7,56.8   c0.7,9.6,4,7.8,4.7,16.9c0.8,9.1,1.3,16.7,0.8,21c-0.5,4.3-2.8,12-4.6,17.9c-1.8,5.7-5.2,15-6.3,25c-1.1,10.1-3.5,27.6-17.8,36.2   c-41,24.6-84.6,50.8-108.4,65.1c-2.6,1.5-4.3,0.8-4.6-1.7c-0.1-1.2-0.6-2.7-0.8-5.5" stroke="#000000" stroke-width="0.25" g2gstroke="#312783"/>
<path orgstroke="#000000" orgfill="none" fill="none" d="M556.7,257c6.1,0.5,8.8,6,10.5,12.4c3.9,14.4,9,47.2,9.7,56.8   c0.7,9.6,3.9,10.4,4.6,19.5c0.8,9.1,0.5,13.9,0,18.2c-0.5,4.3-1.9,12.1-3.7,18c-1.8,5.7-5.2,15-6.3,25c-1.1,10.1-2.4,27-16.7,35.5   c0,0-87.9,52.9-108.7,65.4" stroke="#000000" stroke-width="0.25" g2gstroke="#312783"/>
<path orgstroke="#000000" orgfill="none" fill="none" d="M558.9,258.9c0.2,0.1,0.3,0.1,0.5,0.2c2.7,1.5,5.2,5.4,6.3,9.1   c3.9,14.4,9,47.2,9.7,56.8c0.7,9.6,3.9,10.4,4.6,19.5c0.8,9.1,0.5,13.9,0,18.2c-0.5,4.3-1.9,12.1-3.7,18c-1.8,5.7-5.2,15-6.3,25   c-1.1,10.1-2.4,27-16.7,35.5c0,0-83.7,50.3-107.5,64.6" stroke="#000000" stroke-width="0.25" g2gstroke="#312783"/>
<path orgstroke="#000000" orgfill="none" fill="none" d="M598.7,332.3c-0.9-2.6-2.1-5.1-2.5-7.7c-0.5-3.1-1.1-6.3-1.7-9.9   c-2.5-15.2-15.7-53.8-16.9-57c-1.2-3.2-1.4-5.1,0-9.6c1.4-4.5,4.2-7.5,8.5-10.2" stroke="#000000" stroke-width="0.25" g2gstroke="#312783"/>
<path orgstroke="#000000" orgfill="none" fill="none" d="M587.7999877929688 368.29998779296875L600.7999877929688 360.79998779296875" stroke="#000000" stroke-width="0.25" g2gstroke="#312783"/>
<path orgstroke="#000000" orgfill="none" fill="none" d="M586 340.5L599 333" stroke="#000000" stroke-width="0.25" g2gstroke="#312783"/>
<path orgstroke="#000000" orgfill="none" fill="none" d="M583.5999755859375 334.6000061035156L596.5999755859375 327.1000061035156" stroke="#000000" stroke-width="0.25" g2gstroke="#312783"/>
<path orgstroke="#000000" orgfill="none" fill="none" d="M579.5 306.3999938964844L590.9000244140625 299.79998779296875" stroke="#000000" stroke-width="0.25" g2gstroke="#312783"/>
<path orgstroke="#000000" orgfill="none" fill="none" d="M590.8,342.8c0.5-0.4,0.9-1.2,0.8-1.9c-0.1-0.6-0.6-0.8-1.1-0.4   c-0.5,0.4-0.8,1.2-0.8,1.9C589.8,343,590.3,343.2,590.8,342.8z" stroke="#000000" stroke-width="0.25" g2gstroke="#312783"/>
<path orgstroke="#000000" orgfill="none" fill="none" d="M596.1,344.2c0.5-0.4,0.9-1.2,0.8-1.9c-0.1-0.6-0.6-0.8-1.1-0.4   c-0.5,0.4-0.8,1.2-0.8,1.9C595.1,344.4,595.5,344.6,596.1,344.2z" stroke="#000000" stroke-width="0.25" g2gstroke="#312783"/>
<path orgstroke="#000000" orgfill="none" fill="none" d="M589.8,392.4c0.5-0.4,0.9-1.2,0.8-1.9c-0.1-0.6-0.6-0.8-1.1-0.4   c-0.5,0.4-0.8,1.2-0.8,1.9C588.8,392.6,589.3,392.8,589.8,392.4z" stroke="#000000" stroke-width="0.25" g2gstroke="#312783"/>
<path orgstroke="#000000" orgfill="none" fill="none" d="M594.2,385.4c0.5-0.4,0.9-1.2,0.8-1.9c-0.1-0.6-0.6-0.8-1.1-0.4   c-0.5,0.4-0.8,1.2-0.8,1.9C593.2,385.6,593.7,385.8,594.2,385.4z" stroke="#000000" stroke-width="0.25" g2gstroke="#312783"/>
<path orgstroke="#000000" orgfill="none" fill="none" d="M595.4,347.5c0.3,3.5,0.4,7.3,0.5,12.1l0,0.5c0,1.2-0.7,2.4-1.6,2.9   c-0.9,0.6-2.6,0.3-2.6-1l0-0.4c-0.1-4.7-0.3-8.5-0.5-12l0-0.5c-0.1-1.2,0.5-2.4,1.6-3.1c1.2-0.7,2.4-0.4,2.5,1L595.4,347.5z" stroke="#000000" stroke-width="0.25" g2gstroke="#312783"/>
<path orgstroke="#000000" orgfill="none" fill="none" d="M593.7,345.7c0.1,0.2,0.1,0.4,0.1,0.6l0,0.5c0.3,3.5,0.4,7.3,0.5,12.1   l0,0.5c0,1.2-0.7,2.4-1.6,2.9c-0.3,0.2-0.6,0.3-0.9,0.3" stroke="#000000" stroke-width="0.25" g2gstroke="#312783"/>
<path orgstroke="#000000" orgfill="none" fill="none" d="M588,366.6c0,0-4.5-4.5-4.7-10.4c-0.2-5.9,2.6-4.9,4.3-4.3" stroke="#000000" stroke-width="0.25" g2gstroke="#312783"/>
<path orgstroke="#000000" orgfill="none" fill="none" d="M585.6,355.7c-0.4-0.3-0.7-1.1-0.7-1.6c0.1-0.5,0.5-0.7,0.9-0.4   c0.4,0.3,0.7,1,0.7,1.6C586.4,355.9,586,356,585.6,355.7z" stroke="#000000" stroke-width="0.25" g2gstroke="#312783"/>
<path orgstroke="#000000" orgfill="none" fill="none" d="M585.3,360.6c-0.4-0.3-0.7-1.1-0.7-1.6s0.5-0.7,0.9-0.4   c0.4,0.3,0.7,1,0.7,1.6C586.1,360.8,585.7,360.9,585.3,360.6z" stroke="#000000" stroke-width="0.25" g2gstroke="#312783"/>
<path orgstroke="#000000" orgfill="none" fill="none" d="M580.3,416.3c-1,0.5-1.4,1.9-1.6,3.5c-0.2,1.6-1.3,8.8-3.4,12.8   c-2.1,4-1.3,4.5,2.6,2.1c4-2.4,20.8-12.1,22.5-13.1c1.7-1,2.1-2.9,0.5-4.5c-1.6-1.6-4.1-5.3-4.6-6.9c-0.5-1.6-2-1.5-3.5-0.7   C591.5,410.1,581.2,415.7,580.3,416.3z" stroke="#000000" stroke-width="0.25" g2gstroke="#312783"/>
<path orgstroke="#000000" orgfill="none" fill="none" d="M590.6,366.7c0.3,5.4-3.7,19.6-4.6,23.6c-1,4-3.6,9.7-3.7,12.3   c0,2.7,2,4.1,5,2.7c2.9-1.4,10.3-5.6,10.3-5.6" stroke="#000000" stroke-width="0.25" g2gstroke="#312783"/>
<path orgstroke="#000000" orgfill="none" fill="none" d="M585,393.5c-0.8,2.9-1.7,5.6-1.7,7.1c0,2.7,1.9,2.8,4.8,1.3   c2.1-1.1,9.2-4.7,9.2-4.7" stroke="#000000" stroke-width="0.25" g2gstroke="#312783"/>
<path orgstroke="#000000" orgfill="none" fill="none" d="M685.5,305.6c0.6,0.1,0.9,0.9,0.7,1.8c-0.2,0.9-0.8,1.5-1.4,1.4   c-0.6-0.1-0.9-0.9-0.7-1.8C684.3,306.1,684.9,305.5,685.5,305.6z" stroke="#000000" stroke-width="0.25" g2gstroke="#312783"/>
<path orgstroke="#000000" orgfill="none" fill="none" d="M682.4,311.2c0.6,0.1,0.9,0.9,0.7,1.8c-0.2,0.9-0.8,1.5-1.4,1.4   c-0.6-0.1-0.9-0.9-0.7-1.8C681.3,311.7,681.9,311.1,682.4,311.2z" stroke="#000000" stroke-width="0.25" g2gstroke="#312783"/>
<path orgstroke="#000000" orgfill="none" fill="none" d="M664.1,199.6c0.5,0.1,0.9,0.2,1.2,0.5c0.4,0.3,0.8,0.7,1.1,1.1   c1.9,2.2,16.5,23.1,16.5,23.1c1.4,2,3.5,4.5,3.5,8.1c0.2,9.1,1,19,1.2,20.2c0.6,3.9-0.8,8.2-0.6,16.5c0.2,9.4,3.3,12.1-0.4,23.9   c-2.3,7.1-6.6,13.5-11,21.3l-0.9,1.5c-10.4,18.4-16,30.8-21.1,41.7c-2.5,5.4-4.9,10.6-7.5,15.7c-0.7,1.3-1.2,2.9-1.8,4.7   c-1.5,4.7-3.4,10.5-8.6,13.6c-1.9,1.2-13.2,7.9-21.4,12.8l-8.5,5.1c-2,1.2-3.8,1.7-5.2,1.8c-0.8,0.1-1.4-0.6-1.6-1.1" stroke="#000000" stroke-width="0.25" g2gstroke="#312783"/>
<g>
<g>
<g>
<ellipse orgstroke="#000000" orgfill="#FAFAFA" fill="#FAFAFA" rx="5.3" cx="528.9" cy="373.8" ry="7.8" stroke="#000000" outline-element="true" stroke-width="0.5" g2gstroke="#312783"/>
</g>
<g>
<path d="M527.1,377v-7.2h0.9v6.3h3.5v0.8L527.1,377L527.1,377z"/>
</g>
</g>
<path fill="#F39200" d="M600.8,361.1c0,0.7-0.6,6.6-1.3,13.4c0,0.1,0,0.1,0,0.2    c0,0,0,0.1,0,0.1s0,0.1,0,0.1c0,0.3-0.1,0.6-0.5,0.8c-0.5,0.3-9.8,5.7-10.3,5.9c-0.5,0.3-0.7,0.6-0.7,1c-0.1,0.4-0.4,0.7-0.7,0.8    c-0.3,0.2-2.6,1.5-3.1,1.7c-0.5,0.2-0.9,0.1-1.4-0.1c-0.5-0.3-4-2.3-4.4-2.6c-0.4-0.3-1,0.1-1.1,0.2c-0.2,0.1-0.6,0.3-1,0.5    c-0.5,0.2-0.8,0-1.1-0.3c-0.1-0.1-0.3-0.3-0.6-0.4c0.3-0.8,0.5-1.6,0.8-2.4c1.8-5.9,3.2-13.7,3.7-18c0.5-4.3,0.8-9.1,0-18.2    c-0.8-9.1-3.9-10-4.6-19.5c-0.7-9.3-5.5-40.8-9.4-55.7c0.1,0,0.2,0,0.3,0.1c0.4,0.2,0.7,0.4,1,0.2c0.4-0.2,0.4-0.2,0.5-0.3    c0.1-0.1,0.4-0.3,0.8-0.1c0.4,0.2,3.9,2.2,4.4,2.5c0.5,0.3,0.8,0.3,1.2,0.1c0.4-0.2,6.7-3.8,7.1-4c0.4-0.3,0.5-0.4,0.4-0.8    s-0.1-0.6,0.1-0.7c0.2-0.1,0.6-0.5,0.5-0.9c3.8,11,10.3,30.5,12.5,40.2c3.1,13.5,4.4,22.4,4.8,26.8l0.2,0.5    c0.4,1.2,0.7,2.4,0.9,3.7C600.4,342.7,600.7,349.6,600.8,361.1z" enable-background="new    " opacity="0.5" orgfill="#F39200"/>
<path orgstroke="#000000" orgfill="none" stroke-linecap="round" fill="none" stroke-linejoin="round" d="M561.7,270.4c0,0,2.5-1.5,2.7-1.6    c0.2-0.1,0.3-0.2,0.8,0s0.7,0.4,1,0.2s0.4-0.2,0.5-0.3c0.1-0.1,0.4-0.3,0.8-0.1s3.9,2.2,4.4,2.5c0.5,0.3,0.8,0.3,1.2,0.1    s6.7-3.8,7.1-4c0.4-0.3,0.5-0.4,0.4-0.8s-0.1-0.6,0.1-0.7c0.2-0.1,0.6-0.5,0.5-0.9s-0.2-0.7,0.2-0.9s3.1-1.8,3.1-1.8" stroke="#000000" g2gstroke="#312783"/>
<g>
<path fill="#F39200" d="M638.7,400.4c0.3,0.2,0.7,0.3,0.6,0.8c-0.1,0.5-1.6,8-1.7,8.3     c-0.1,0.5-0.6,0.7-1,0.9c-0.1,0-0.2,0.1-0.2,0.2c0,0,0,0,0,0l-145,85.4c0.1-0.2,0.2-0.4,0.3-0.5c0.3-0.2,0.8-0.4,0.9-0.9     c0.1-0.3,1.1-5.1,1.1-5.6c0-0.5-0.4-0.6-0.6-0.8c-0.3-0.2-0.5-0.6-0.5-0.8s0-0.3,0-0.7c0-0.4-0.2-0.7-0.5-0.9     c-0.4-0.2-3.8-2.2-4.3-2.5c-0.2-0.1-0.3-0.6-0.3-0.8s0-0.5,0-1c0-0.5-0.4-0.6-0.8-0.9c-0.1-0.1-0.3-0.2-0.3-0.4     c30.9-18.6,65.6-39.4,65.6-39.4c14.3-8.6,15.6-25.5,16.7-35.5c1-8.8,3.7-16.9,5.5-22.7c0.3,0,0.5,0.2,0.6,0.4     c0.3,0.3,0.7,0.4,1.1,0.3c0.4-0.2,0.9-0.4,1-0.5c0.2-0.1,0.7-0.5,1.1-0.2c0.4,0.3,4,2.3,4.4,2.6c0.5,0.3,0.9,0.4,1.4,0.1     c0.5-0.2,2.8-1.5,3.1-1.7c0.3-0.2,0.6-0.4,0.7-0.8c0.1-0.4,0.3-0.7,0.7-1c0.5-0.3,9.8-5.6,10.3-5.9c0.4-0.2,0.5-0.5,0.5-0.8     c-0.9,8.8-2,18.9-2.2,20.4c-0.3,2.6,0.4,4.1,0.2,5.2c-0.2,1.3-0.2,2.3,0.3,4.2c0.3,1.4,0.6,2.7,1,4c0.1,0.2,0.2,0.7,0.3,0.9     c0.2,0.5,0.5,0.8,1.1,0.8c1.3,0,2.9-0.7,4.8-1.7l8.5-5.1c6.3-3.7,14.3-8.5,18.6-11.1c0.1,0.1,0.1,0.2,0.2,0.2     c0.4,0.2,0.8,0.4,0.8,0.9c0,0.5,0,0.8,0,1s0,0.7,0.2,0.8c0.5,0.3,4,2.3,4.4,2.5c0.3,0.2,0.5,0.5,0.5,0.9c0,0.4,0,0.5,0,0.7     S638.4,400.2,638.7,400.4z" enable-background="new    " opacity="0.5" orgfill="#F39200"/>
<path orgstroke="#000000" orgfill="none" stroke-linecap="round" fill="none" stroke-linejoin="round" d="M486.4,477.4c0,0,0,1.7,0,2s0,0.9,0.4,1.1     c0.4,0.2,0.8,0.4,0.8,0.9s0,0.8,0,1s0.1,0.7,0.3,0.8c0.5,0.3,4,2.3,4.3,2.5s0.6,0.5,0.6,0.9s0,0.5,0,0.7s0.2,0.6,0.5,0.8     s0.7,0.3,0.6,0.8c0,0.5-1,5.3-1.1,5.6c-0.1,0.5-0.6,0.7-0.9,0.9c-0.3,0.2-0.4,0.9-0.4,1.3s-0.3,3.5-0.3,3.5" stroke="#000000" g2gstroke="#312783"/>
<path orgstroke="#000000" orgfill="none" stroke-linecap="round" fill="none" stroke-linejoin="round" d="M631.9,389.6c0,0,0,1.7,0,2s0,0.9,0.4,1.1     c0.4,0.2,0.8,0.4,0.8,0.9s0,0.8,0,1s0,0.7,0.2,0.8c0.5,0.3,4,2.3,4.4,2.5s0.6,0.5,0.6,0.9s0,0.5,0,0.7s0.2,0.6,0.5,0.8     s0.7,0.3,0.6,0.8c0,0.5-1.6,8-1.7,8.3c-0.1,0.5-0.6,0.7-0.9,0.9c-0.3,0.2-0.4,0.9-0.4,1.3s-0.3,3.5-0.3,3.5" stroke="#000000" g2gstroke="#312783"/>
<path orgstroke="#000000" orgfill="none" stroke-linecap="round" fill="none" stroke-linejoin="round" d="M570.3,384.7c0,0,2.8-1.6,3.4-2     s1.1-0.1,1.3,0.2s0.7,0.4,1.1,0.3s0.9-0.4,1-0.5c0.2-0.1,0.7-0.5,1.1-0.2s4,2.3,4.4,2.6s0.9,0.4,1.4,0.2s2.8-1.5,3.1-1.7     s0.6-0.4,0.7-0.8s0.3-0.7,0.7-1s9.8-5.6,10.3-5.9c0.5-0.3,0.5-0.6,0.6-1c0-0.4,0.1-0.9,0.7-1.3s3.2-1.8,3.2-1.8" stroke="#000000" g2gstroke="#312783"/>
<g>
<g>
<ellipse orgstroke="#000000" orgfill="#FAFAFA" fill="#FAFAFA" rx="5.3" cx="585.7" cy="413.1" ry="7.8" stroke="#000000" outline-element="true" stroke-width="0.5" g2gstroke="#312783"/>
</g>
<g>
<path d="M582.3,412.8c0-1.2,0.3-2.1,1-2.8c0.6-0.7,1.5-1,2.5-1c0.7,0,1.3,0.2,1.8,0.5c0.5,0.3,0.9,0.8,1.2,1.3       c0.3,0.6,0.4,1.2,0.4,1.9c0,0.7-0.1,1.4-0.4,1.9s-0.7,1-1.2,1.3s-1.1,0.4-1.7,0.4c-0.7,0-1.3-0.2-1.8-0.5       c-0.5-0.3-0.9-0.8-1.2-1.3S582.3,413.4,582.3,412.8z M583.3,412.8c0,0.9,0.2,1.5,0.7,2c0.5,0.5,1,0.7,1.7,0.7       c0.7,0,1.3-0.3,1.8-0.8c0.5-0.5,0.7-1.2,0.7-2.1c0-0.6-0.1-1.1-0.3-1.5c-0.2-0.4-0.5-0.8-0.9-1c-0.4-0.2-0.8-0.4-1.3-0.4       c-0.7,0-1.2,0.2-1.7,0.7C583.5,410.9,583.3,411.7,583.3,412.8z"/>
</g>
</g>
</g>
<g>
<g>
<ellipse orgstroke="#000000" orgfill="#FAFAFA" fill="#FAFAFA" rx="5.3" cx="588.8" cy="334.6" ry="7.8" stroke="#000000" outline-element="true" stroke-width="0.5" g2gstroke="#312783"/>
</g>
</g>
<path orgstroke="#000000" orgfill="none" fill="none" d="M583.5 334.6000061035156L547 334.6000061035156L547 413.1000061035156L580.4000244140625 413.1000061035156" stroke="#000000" outline-element="true" stroke-width="0.5" g2gstroke="#312783"/>
<path orgstroke="#000000" orgfill="none" fill="none" d="M547 373.79998779296875L534.2000122070312 373.79998779296875" stroke="#000000" outline-element="true" stroke-width="0.5" g2gstroke="#312783"/>
</g>
</g>
</g>
</g>
</g>
<g objectType="PS" toolTip="#UNDEFINED" id="28">
<g onmouseover="notifyOwner(AGV_OBJECT_MOUSEOVER, '28(PS)')" transform="translate(-143.57946337890627, -7.293701173693989E-6) translate(-466.70543994140627, -17.177077911376955) translate(-46.0, -1.0) translate(513.0, -23.0) translate(10.0, 10.00006103515625)" onclick="clickZoom(evt); notifyOwner(AGV_OBJECT_MOUSECLICK, '28(PS)')" onmouseout="notifyOwner(AGV_OBJECT_MOUSEOUT, '28(PS)')" toolTip="#UNDEFINED" id="28-Graphic" objectType="GRAPHIC">
<g zValue="8">
<g>
<path orgstroke="#000000" orgfill="#ffffff" fill="#ffffff" g2gfill="#ECC35D" d="M554.8,575.3c-0.2,0.9-0.5,3.1-0.7,4.1   c-0.1,0.3-0.1,0.4-0.4,0.5l-2.5,1.4c-0.2,0.1-0.3,0.2-0.3,0.4v0.4c0,0.3,0.1,0.4,0.5,0.4c0.7,0,1.6,0,2.3-0.4   c56-32.8,223.8-131.7,223.8-131.7c3.2-1.9,5.8-5.8,7.7-11.5c0.2-0.5,0.3-1,0.4-1.5c0.1-0.3,0.1-0.4-0.1-0.5l-0.3-0.2   c-0.2-0.1-0.4-0.1-0.5,0c-12.6,7.9-206.9,124.6-229.8,138.3C554.8,575,554.8,575.1,554.8,575.3z" stroke="#000000" outline-element="true" stroke-width="0.5" g2gstroke="#312783" stroke-miterlimit="10"/>
<path orgstroke="#000000" orgfill="none" stroke-linecap="round" fill="none" stroke-linejoin="round" d="   M565.9,574.2c5.2-4.1,17.3-12.9,40.4-26.4c33.1-19.3,137.2-82.3,152.2-91.3c7.1-4.3,14.2-6.6,17.6-6.4" stroke="#000000" stroke-width="0.25" g2gstroke="#312783" stroke-miterlimit="10"/>
<path orgstroke="#000000" orgfill="none" fill="none" d="M553.8,582.1c0.5-0.3,0.8-0.7,1-1.3   c0,0,0.8-4.6,0.9-5.3" stroke="#000000" stroke-width="0.25" g2gstroke="#312783" stroke-miterlimit="10"/>
<path orgstroke="#000000" orgfill="none" fill="none" d="M551,581.5c1.1,0.3,2.7,0.3,3-1.5   c0,0,0.1-0.7,0.2-0.9" stroke="#000000" stroke-width="0.25" g2gstroke="#312783" stroke-miterlimit="10"/>
<path orgstroke="#000000" orgfill="none" stroke-linecap="round" fill="none" stroke-linejoin="round" d="   M554.9,575.1l0.5,0.3c0.3,0.1,0.4,0.1,0.6,0c23.3-14,217.7-130.7,229.7-138.2" stroke="#000000" stroke-width="0.25" g2gstroke="#312783" stroke-miterlimit="10"/>
</g>
</g>
</g>
</g>
<g objectType="PS" toolTip="#UNDEFINED" id="30">
<g onmouseover="notifyOwner(AGV_OBJECT_MOUSEOVER, '30(PS)')" transform="translate(-143.57946337890627, -7.293701173693989E-6) translate(-466.70543994140627, -17.177077911376955) translate(-10.109760043346341, -7.076832030342416) translate(-46.0, -1.0) translate(513.0, -23.0) translate(10.0, 10.00006103515625)" onclick="clickZoom(evt); notifyOwner(AGV_OBJECT_MOUSECLICK, '30(PS)')" onmouseout="notifyOwner(AGV_OBJECT_MOUSEOUT, '30(PS)')" toolTip="#UNDEFINED" id="30-Graphic" objectType="GRAPHIC">
<g zValue="10">
<g>
<path orgstroke="#000000" orgfill="#ffffff" fill="#ffffff" g2gfill="#ECC35D" d="M595.5,577.7c-0.3,0.2-10.7,5.4-15,7.3   c-0.4,0.2-0.5,0.3-0.5,0.7v0.6c0,0.2,0.1,0.4,0.3,0.5c1.1,0.4,2.6,0.6,3.6,0.4c0.8-0.2,1.7-0.4,2.7-0.9l0.1-0.1   c25.3-11.1,82.5-45.6,105.7-58.7c21.9-12.5,73.3-45.1,80.1-49.5l0.2-0.2c2.4-1.6,2.9-2.5,3.4-3.3c0.2-0.3,0-1,0-1.2   c-0.1-0.4-0.5-0.7-0.8-0.8c-1.2-0.4-2.6-0.7-7.1,2c-2.9,1.7-45.8,27.6-70.7,42.6c-23.6,14.2-89.2,52.4-93.9,55.2   c-1.7,1-4.6,3-7.7,5.3C595.9,577.4,595.8,577.5,595.5,577.7z" stroke="#000000" outline-element="true" stroke-width="0.5" g2gstroke="#312783" stroke-miterlimit="10"/>
<path orgstroke="#000000" orgfill="none" stroke-linecap="round" fill="none" stroke-linejoin="round" d="   M586.5,586.2c1-0.5,2.2-1.1,3.5-2.1c3.8-2.7,10.7-7.9,17.4-11.8s71.4-41.5,95.4-56.2s62.9-38.2,66.1-40c3.2-1.8,5.4-2.6,7.4-2.1" stroke="#000000" stroke-width="0.25" g2gstroke="#312783" stroke-miterlimit="10"/>
<path orgstroke="#000000" orgfill="none" stroke-linecap="round" fill="none" stroke-linejoin="round" d="   M595.9,577.4c-3.6,2.6-7.5,5.5-10.3,7.6l-0.2,0.2c-1.8,1.3-4,0.4-5.3,0.1" stroke="#000000" stroke-width="0.25" g2gstroke="#312783" stroke-miterlimit="10"/>
</g>
</g>
</g>
</g>
<g objectType="PS" toolTip="#UNDEFINED" id="31">
<g onmouseover="notifyOwner(AGV_OBJECT_MOUSEOVER, '31(PS)')" transform="translate(-143.57946337890627, -7.293701173693989E-6) translate(-466.70543994140627, -17.177077911376955) translate(-46.0, -1.0) translate(513.0, -23.0) translate(10.0, 10.00006103515625)" onclick="clickZoom(evt); notifyOwner(AGV_OBJECT_MOUSECLICK, '31(PS)')" onmouseout="notifyOwner(AGV_OBJECT_MOUSEOUT, '31(PS)')" toolTip="#UNDEFINED" id="31-Graphic" objectType="GRAPHIC">
<g zValue="11">
<g>
<path orgstroke="#000000" orgfill="#ffffff" fill="#ffffff" g2gfill="#ECC35D" d="M725.3,447c0.2,0.3,0.4,0.7,0.4,0.9c0,0.2,0.1,0.5-0.2,0.9   c-0.5,0.5-4.1,3.8-4.9,4.5c-0.8,0.8-2.8,0.2-3.7-0.3c-0.3-0.2-1.3-0.6-1.3-0.6c-0.4-0.3-0.9-0.2-1.1,0.2l-0.9,1   c-0.3,0.3-0.4,0.4-0.9,0.3c-0.1,0-0.6-0.1-0.7-0.1c-0.4-0.1-0.4-0.1-0.6-0.5l-0.2-0.4c-0.2-0.4-0.1-0.6,0.2-0.9   c0.3-0.3,0.5-0.5,0.5-0.5c0.5-0.5,0.7-0.8,0.2-1.1c0,0-3.8-1.8-5.1-2.5c-0.6-0.3-1.2-0.9-1.5-1.6c-0.1-0.3-0.2-0.7-0.3-0.8   c-0.2-0.5-0.2-1.1-0.1-1.3c0.1-0.2,0.1-0.3-0.1-0.9c0,0-1.2-3.4-1.4-4.5c-0.1-0.6-0.1-1.9-0.1-2.5c0-0.6,0.5-1.1,1.1-0.7   c0.4,0.2,1,0.6,1.3,0.7c0.4,0.3,4,3.1,5.1,3.9c0.6,0.4,1.5,0.5,1.5,0.5l0.6,0.1l0.8,0.2l9.9,4.3C724.4,445.9,725,446.5,725.3,447z" stroke="#000000" outline-element="true" stroke-width="0.5" g2gstroke="#312783"/>
<path orgstroke="#000000" orgfill="none" fill="none" d="M705.4000244140625 445.1000061035156L714.7000122070312 449.3999938964844" stroke="#000000" stroke-width="0.25" g2gstroke="#312783"/>
<path orgstroke="#000000" orgfill="none" fill="none" d="M720,449.6c-1.8-0.3-4.1,0.3-5.2,1.2c-0.8,0.7-2.2,2.1-2.2,2.1" stroke="#000000" stroke-width="0.25" g2gstroke="#312783"/>
<path orgstroke="#000000" orgfill="none" fill="none" d="M716.7,448.9c0,0-5.1-2.4-8-3.6c-0.6-0.3-0.4-0.4,0.1-0.8l4.4-3.5" stroke="#000000" stroke-width="0.25" g2gstroke="#312783"/>
<path orgstroke="#000000" orgfill="none" fill="none" d="M715.8,446l0.1-2.3c0-0.6,0-1.7-0.5-1.9" stroke="#000000" stroke-width="0.25" g2gstroke="#312783"/>
<path orgstroke="#000000" orgfill="none" fill="none" d="M712.7,444.5l0-1.3c0-0.5,0.7-2.2,2.2-1.6" stroke="#000000" stroke-width="0.25" g2gstroke="#312783"/>
<path orgstroke="#000000" orgfill="none" fill="none" d="M719.1,447.5l0.1-1.7c0-0.6,0.3-2.2,1.8-1.6" stroke="#000000" stroke-width="0.25" g2gstroke="#312783"/>
<path orgstroke="#000000" orgfill="none" fill="none" d="M721.5,448.7l-9.4-4.4c-0.2-0.1-0.3-0.2-0.1-0.4l0.7-0.5" stroke="#000000" stroke-width="0.25" g2gstroke="#312783"/>
<path orgstroke="#000000" orgfill="none" fill="none" d="M714.7000122070312 445.3999938964844L712.7000122070312 447" stroke="#000000" stroke-width="0.25" g2gstroke="#312783"/>
<path orgstroke="#000000" orgfill="none" fill="none" d="M714 446L721 449.29998779296875" stroke="#000000" stroke-width="0.25" g2gstroke="#312783"/>
<path orgstroke="#000000" orgfill="none" fill="none" d="M711.4,452.4l0.6,0.2c0.3,0.1,0.6,0.3,0.7,0.6l0.3,0.6" stroke="#000000" stroke-width="0.25" g2gstroke="#312783"/>
<path orgstroke="#000000" orgfill="none" fill="none" d="M720.1,450c0,0,0-0.3-0.1-0.4c-0.2-0.3-0.9-0.6-0.9-0.6   c-0.3-0.2-0.7-0.2-1.1-0.2c-1.3,0.1-3.7,0.5-4.4,1.2c-0.3,0.3-0.8,0.7-1.2,1.1" stroke="#000000" stroke-width="0.25" g2gstroke="#312783"/>
<path orgstroke="#000000" orgfill="none" fill="none" d="M717.3,450.7c0,0,1.3,0.6,1.8,0.8c0.8,0.2,1,0.1,1.6-0.4   c0.8-0.7,3.2-2.9,4-3.6c0.4-0.4,0.1-1.2-0.1-1.4" stroke="#000000" stroke-width="0.25" g2gstroke="#312783"/>
<path orgstroke="#000000" orgfill="none" fill="none" d="M705.4,436.4c-0.2-0.1-0.3,0.3-0.2,0.9c0.1,0.6,0.2,2.1,0.6,3.2   s1.1,3.5,1.1,3.5" stroke="#000000" stroke-width="0.25" g2gstroke="#312783"/>
<path orgstroke="#000000" orgfill="none" fill="none" d="M705.2,443.6c0.1,0.5,0.4,0.4,0.8,0.5c0.4,0.1,0.7,0,1.2-0.3l4.5-3.2" stroke="#000000" stroke-width="0.25" g2gstroke="#312783"/>
<path orgstroke="#000000" orgfill="none" fill="none" d="M724.3,446c0,0-3.5,3.4-4,3.8c-0.3,0.3-0.7,0.1-1.1,0.1   c-2,0.1-4,1.9-4.6,2.5" stroke="#000000" stroke-width="0.25" g2gstroke="#312783"/>
<path orgstroke="#000000" orgfill="none" fill="none" d="M715.1,443.4c0,0.5-0.3,0.9-0.7,0.9c-0.4,0-0.7-0.4-0.7-0.9   c0-0.5,0.3-0.9,0.7-0.9C714.8,442.5,715.1,442.9,715.1,443.4z" stroke="#000000" stroke-width="0.25" g2gstroke="#312783"/>
<path orgstroke="#000000" orgfill="none" fill="none" d="M721.5,446.2c0,0.5-0.3,0.9-0.7,0.9c-0.4,0-0.7-0.4-0.7-0.9   c0-0.5,0.3-0.9,0.7-0.9C721.2,445.4,721.5,445.8,721.5,446.2z" stroke="#000000" stroke-width="0.25" g2gstroke="#312783"/>
<path orgstroke="#000000" orgfill="none" fill="none" d="M722.4,444.9c0.3,0.2,0.3,0.8,0.3,1.4s0,1.3,0,1.3" stroke="#000000" stroke-width="0.25" g2gstroke="#312783"/>
</g>
</g>
</g>
</g>
<g objectType="PS" toolTip="#UNDEFINED" id="33">
<g onmouseover="notifyOwner(AGV_OBJECT_MOUSEOVER, '33(PS)')" transform="translate(-143.57946337890627, -7.293701173693989E-6) translate(-466.70543994140627, -17.177077911376955) translate(-4.839510155433231, -12.58272640412622) translate(-46.0, -1.0) translate(513.0, -23.0) translate(10.0, 10.00006103515625)" onclick="clickZoom(evt); notifyOwner(AGV_OBJECT_MOUSECLICK, '33(PS)')" onmouseout="notifyOwner(AGV_OBJECT_MOUSEOUT, '33(PS)')" toolTip="#UNDEFINED" id="33-Graphic" objectType="GRAPHIC">
<g zValue="13">
<g>
<path stroke-linecap="round" orgstroke="#000000" orgfill="#ffffff" fill="#ffffff" g2gfill="#BCBEC0" stroke-linejoin="round" d="M680.9,467.6   c-0.3-0.2-0.5-0.6-0.5-0.8s0-0.3,0-0.7s-0.2-0.7-0.6-0.9s-3.9-2.2-4.4-2.5c-0.2-0.1-0.2-0.5-0.2-0.8s0-0.5,0-1s-0.4-0.6-0.8-0.9   l-0.2-0.1c-0.2-0.1-0.5-0.1-0.7,0c-0.8,0.4-10.7,6.4-10.7,6.4c-1.8,1.1-3.4,1.7-4.8,1.7c-0.6,0-0.8-0.2-1-0.8   c-0.1-0.2-0.3-0.7-0.3-0.9c-0.4-1.3-0.7-2.6-1-4c-0.4-2-0.4-2.9-0.3-4.2c0.2-1.2-0.5-2.6-0.2-5.2c0.3-2.6,3.6-32.4,3.6-34.1   c-0.1-11.5-0.4-18.4-1.2-25.1c-0.1-1.3-0.5-2.5-0.9-3.7l-0.2-0.5c-0.4-4.4-1.8-13.3-4.8-26.8c-3.1-13.5-14.6-46.3-15.2-48.2   c-0.6-1.9-0.5-4.5,0.3-7.2c0.9-2.8,2.5-7.4,8.8-11.4c2.2-1.4,4.7-2.9,7.5-4.6l0.4-0.2c0.5-0.3,0-1,0.2-1.1s1-0.4,1-1.2   c0-0.5-1.1-4.2-2-5.6c-0.8-1.2-2.6-3.2-4-4.1c-0.3-0.2-0.7-0.3-1.2,0.1c-6.9,4.3-13.6,8.6-19.8,12.7   c-39.3,25.9-69.3,53.4-76.9,61.7c-7.6,8.3-12.4,15.2-17.1,21.6s-28.7,44.9-34.3,54.7c-4.7,8.2-14.8,25.8-19.7,33.9   c-0.1,0.2-0.2,0.3-0.2,0.6v0.6c0,0.4-0.1,0.5-0.2,0.7c-1.1,1.9-7.2,11.4-7.7,11.9c0,0.1-0.1,0.2-0.1,0.5s0,0.9,0,1s0.2,0.5,0.5,0.7   c1.3,0.7,3.5,2,3.9,2.4c0.8,0.6,1.1,1.4,1.3,2.2c0.1,0.5,1.4,21.9,5.2,43.5c1.7,9.4,3.1,17.6,4.1,23.7c0,0.3,0.1,0.3-0.3,0.5   l-0.3,0.1c-0.2,0.1-0.2,0.4-0.2,0.7c0.9,5.2,1.4,8.3,1.4,8.6c0,0.3,0.1,0.6,0.2,0.7c0.1,0.2,0.3,0.4,0.5,0.5l2,1.2l0.1,0   c0.3,0.1,0.7-0.1,1.3-0.4c1.1-0.5,2.7-1.3,2.7-1.3c0.3-0.1,0.6,0.4,0.9,1.5c0.5,2.2,3.3,12.8,3.3,12.8c0.1,0.3,0,0.4-0.3,0.5   c-2.1,1.2-3.7,2.2-5,3c-0.3,0.2-0.3,0.3-0.4,0.6c-0.1,0.5-0.2,1-0.2,1.5c-0.2,1.3-0.5,2.7-0.7,4.1c-0.1,0.3,0.1,0.4,0.2,0.5   l0.4,0.2c0.2,0.1,0.4,0.1,0.6,0l21.2-12.5L679.4,477c0.3-0.2,0.5-0.3,0.6-0.7c0.4-1.6,1.5-7.5,1.6-7.9   C681.6,467.9,681.2,467.8,680.9,467.6z M636.8,419.8c-0.5,4.3-1.9,12.1-3.7,18c-1.8,5.7-5.1,15-6.3,25c-1.1,10.1-2.4,27-16.7,35.5   c0,0-82.1,49.4-106.2,63.8c-0.3,0.2-0.4,0.2-0.5-0.4c-0.1-1.2-0.1-2.7,0-4.6c0.2-3.8-2.5-54.9-2.8-58.2s-1.3-6.1-2.2-8.7   s-1.8-7.1-1.8-9.3c0-2,0-8.1,0-13.3c0-0.3,0.1-0.4,0.2-0.6l0.4-0.4c0.2-0.2,0.2-0.3,0.2-0.6c0.1-0.9,0.5-2.5,1.4-6.3   c0.6-2.6,3.3-9.2,6.9-17.1l0.2-0.3c5.4-11.8,32.7-58.2,43.8-72.2c11.1-14,17.8-19.7,34.9-32.8c7.6-5.8,25.6-18.6,28.5-20.7   c0.9-0.7,2.3-0.7,3.6-0.2c0,0,0.1,0,0.1,0.1c2.6,1.5,4.6,5.2,5.5,8.7c3.9,14.4,9,47.2,9.7,56.8c0.7,9.6,3.9,10.4,4.6,19.5   C637.6,410.7,637.3,415.5,636.8,419.8z" stroke="#000000" outline-element="true" stroke-width="0.5" g2gstroke="#312783"/>
<path orgstroke="#000000" orgfill="none" stroke-linecap="round" fill="none" stroke-linejoin="round" d="   M505.8,442.8c4.1-9.1,9.5-19.9,14.5-28.6c9.4-16.3,17.6-30.7,28.7-44.7c11.1-14,17.8-19.7,34.9-32.8c16.6-12.7,44.7-32.7,70.4-47.3   " stroke="#000000" stroke-width="0.25" g2gstroke="#312783" stroke-miterlimit="10"/>
<path orgstroke="#000000" orgfill="none" stroke-linecap="round" fill="none" stroke-linejoin="round" d="   M479.7,463.9c3.3-1.1,13.3-0.3,17.7,2.6" stroke="#000000" stroke-width="0.25" g2gstroke="#312783" stroke-miterlimit="10"/>
<path orgstroke="#000000" orgfill="none" stroke-linecap="round" fill="none" stroke-linejoin="round" d="   M479.6,465.2c3-1.1,12.5-0.4,17.2,2.2" stroke="#000000" stroke-width="0.25" g2gstroke="#312783" stroke-miterlimit="10"/>
<path orgstroke="#000000" orgfill="none" stroke-linecap="round" fill="none" stroke-linejoin="round" d="   M496.8,467.4c0,0-6.6,4.7-6,13.7c0.7,9.8,1.5,16.9,1.5,16.9" stroke="#000000" stroke-width="0.25" g2gstroke="#312783" stroke-miterlimit="10"/>
<path orgstroke="#000000" orgfill="none" fill="none" d="M494,562.3c0.1,0,0.1-0.1,0.2-0.1c1-0.5,1.4-0.5,1.8,1.2   c0.5,2.2,3.3,12.8,3.3,12.8" stroke="#000000" stroke-width="0.25" g2gstroke="#312783"/>
<path orgstroke="#000000" orgfill="none" fill="none" d="M471.7,477.7c-0.1,0.4,0,0.8,0.8,1.1c0.9,0.4,4.1,2.3,4.6,2.7   c0.8,0.6,1.1,1.5,1.3,2.4c0.1,0.5,1.4,21.9,5.2,43.5c3.5,19.9,5.9,34.5,6,35.2c0.1,0.8,0.3,1.2,0.6,1.3" stroke="#000000" stroke-width="0.25" g2gstroke="#312783"/>
<path orgstroke="#000000" orgfill="none" stroke-linecap="round" fill="none" stroke-linejoin="round" d="   M493.8,580.7c-0.1,0.6-0.2,1.3-0.3,1.9c-0.2,1.4-0.5,2.8-0.8,4.3" stroke="#000000" stroke-width="0.25" g2gstroke="#312783" stroke-miterlimit="10"/>
<path orgstroke="#000000" orgfill="none" fill="none" d="M488 553.2000122070312L503 544.7000122070312" stroke="#000000" stroke-width="0.25" g2gstroke="#312783" stroke-miterlimit="10"/>
<path orgstroke="#000000" orgfill="none" fill="none" d="M481.8999938964844 516.0999755859375L501.1000061035156 505.20001220703125" stroke="#000000" stroke-width="0.25" g2gstroke="#312783" stroke-miterlimit="10"/>
<path orgstroke="#000000" orgfill="none" fill="none" d="M480.29998779296875 504.8999938964844L499.70001220703125 493.79998779296875" stroke="#000000" stroke-width="0.25" g2gstroke="#312783" stroke-miterlimit="10"/>
<path orgstroke="#000000" orgfill="none" fill="none" d="M478.79998779296875 490.3999938964844L490.79998779296875 483.6000061035156" stroke="#000000" stroke-width="0.25" g2gstroke="#312783" stroke-miterlimit="10"/>
<path orgstroke="#000000" orgfill="none" fill="none" d="M499.1,528.8c0.1,1.2-0.7,2.8-1.7,3.5c-0.9,0.6-1.8,0.3-2-0.7   c0-0.1,0-0.2,0-0.3l-1-12.2c0-0.1,0-0.2,0-0.2c0,0,0,0.1,0,0.1l0.9,11.2c0.1,0.9,0.7,1.2,1.5,0.7c0.7-0.5,1.3-1.7,1.2-2.6   l-0.9-11.4c-0.1-0.8-0.8-1-1.5-0.5c-0.5,0.4-1,1-1.1,1.7c0.2-1,0.8-2,1.6-2.5c0.9-0.6,1.8-0.3,2,0.7L499.1,528.8z" stroke="#000000" stroke-width="0.25" g2gstroke="#312783"/>
<path orgstroke="#000000" orgfill="none" fill="none" d="M494.6,518.1c0,0-0.1,0.5-0.1,0.7" stroke="#000000" stroke-width="0.25" g2gstroke="#312783"/>
<path orgstroke="#000000" orgfill="none" fill="none" d="M492.7,534.5c0.2,1.3-0.5,3.1-1.6,3.9c-1.1,0.8-2.1,0.4-2.2-0.9   c-0.2-1.3,0.6-3.1,1.6-3.9C491.5,532.8,492.5,533.2,492.7,534.5z" stroke="#000000" stroke-width="0.25" g2gstroke="#312783"/>
<path orgstroke="#000000" orgfill="none" fill="none" d="M491.9,535.1c0.1,0.8-0.3,1.9-1,2.4c-0.6,0.5-1.3,0.2-1.4-0.6   c-0.1-0.8,0.3-1.9,1-2.4C491.2,534,491.8,534.3,491.9,535.1z" stroke="#000000" stroke-width="0.25" g2gstroke="#312783"/>
<path orgstroke="#000000" orgfill="none" fill="none" d="M494,557.2c0.1,0.6-0.2,1.4-0.7,1.7c-0.5,0.4-0.9,0.2-1-0.4   c-0.1-0.6,0.2-1.4,0.7-1.7C493.5,556.4,493.9,556.6,494,557.2z" stroke="#000000" stroke-width="0.25" g2gstroke="#312783"/>
<path orgstroke="#000000" orgfill="none" fill="none" d="M493.1,556.7c0,0.6-0.3,1.3-0.7,1.6c0,0-0.1,0.1-0.1,0.1" stroke="#000000" stroke-width="0.25" g2gstroke="#312783"/>
<path orgstroke="#000000" orgfill="none" fill="none" d="M499,551.5c0.1,0.6-0.2,1.4-0.7,1.7c-0.5,0.4-0.9,0.2-1-0.4   c-0.1-0.6,0.2-1.4,0.7-1.7C498.5,550.7,498.9,550.9,499,551.5z" stroke="#000000" stroke-width="0.25" g2gstroke="#312783"/>
<path orgstroke="#000000" orgfill="none" fill="none" d="M498.1,551c0,0.6-0.3,1.3-0.7,1.6c0,0-0.1,0.1-0.1,0.1" stroke="#000000" stroke-width="0.25" g2gstroke="#312783"/>
<path orgstroke="#000000" orgfill="none" fill="none" d="M497.9,500.5c0.1,0.8-0.3,1.8-0.9,2.3c-0.6,0.5-1.2,0.2-1.3-0.5   c-0.1-0.8,0.3-1.8,0.9-2.3C497.2,499.5,497.8,499.7,497.9,500.5z" stroke="#000000" stroke-width="0.25" g2gstroke="#312783"/>
<path orgstroke="#000000" orgfill="none" fill="none" d="M496.8,499.8c0,0.8-0.4,1.7-0.9,2.1c-0.1,0-0.1,0.1-0.2,0.1" stroke="#000000" stroke-width="0.25" g2gstroke="#312783"/>
<path orgstroke="#000000" orgfill="none" fill="none" d="M494.8,504.2c0.1,0.6-0.2,1.4-0.7,1.8c-0.5,0.4-1,0.2-1-0.4   c-0.1-0.6,0.3-1.4,0.7-1.8C494.3,503.4,494.8,503.6,494.8,504.2z" stroke="#000000" stroke-width="0.25" g2gstroke="#312783"/>
<path orgstroke="#000000" orgfill="none" fill="none" d="M493.9,503.7c0,0.6-0.3,1.4-0.8,1.7c0,0-0.1,0.1-0.1,0.1" stroke="#000000" stroke-width="0.25" g2gstroke="#312783"/>
<path orgstroke="#000000" orgfill="none" fill="none" d="M488.7,488.5c0.1,0.6-0.2,1.4-0.7,1.8c-0.5,0.4-1,0.2-1-0.4   c-0.1-0.6,0.3-1.4,0.7-1.8C488.2,487.7,488.7,487.8,488.7,488.5z" stroke="#000000" stroke-width="0.25" g2gstroke="#312783"/>
<path orgstroke="#000000" orgfill="none" fill="none" d="M487.8,487.9c0,0.6-0.3,1.4-0.8,1.7c0,0-0.1,0.1-0.1,0.1" stroke="#000000" stroke-width="0.25" g2gstroke="#312783"/>
<path orgstroke="#000000" orgfill="none" fill="none" d="M494.8,475.5c0.1,0.6-0.2,1.4-0.7,1.8c-0.5,0.4-1,0.2-1-0.4   c-0.1-0.6,0.3-1.4,0.7-1.8C494.3,474.7,494.8,474.9,494.8,475.5z" stroke="#000000" stroke-width="0.25" g2gstroke="#312783"/>
<path orgstroke="#000000" orgfill="none" fill="none" d="M493.9,475c0,0.6-0.3,1.4-0.8,1.7c0,0-0.1,0.1-0.1,0.1" stroke="#000000" stroke-width="0.25" g2gstroke="#312783"/>
<path orgstroke="#000000" orgfill="none" fill="none" d="M485.8,552.5l0.6,0.3c0.3,0.2,0.4,0,0.3-0.3c0-0.2-0.2-1.5-0.2-1.5" stroke="#000000" stroke-width="0.25" g2gstroke="#312783"/>
<path orgstroke="#000000" orgfill="none" stroke-linecap="round" fill="none" stroke-linejoin="round" d="   M492.8,580.3c0,0,0.4,0.2,0.6,0.4c0.2,0.1,0.5,0.1,0.7-0.1c17.1-10.3,125.5-75.4,187.3-112.6" stroke="#000000" stroke-width="0.25" g2gstroke="#312783" stroke-miterlimit="10"/>
<path orgstroke="#000000" orgfill="none" stroke-linecap="round" fill="none" stroke-linejoin="round" d="   M680.5,467.3c-61,36.7-166.7,100.3-182.2,109.6" stroke="#000000" stroke-width="0.25" g2gstroke="#312783" stroke-miterlimit="10"/>
<path orgstroke="#000000" orgfill="none" fill="none" d="M657.1,467.4c1.9,5.2,5.4,9,13.3,4.4c1.2-0.7,5.2-3.1,10-6" stroke="#000000" stroke-width="0.25" g2gstroke="#312783"/>
<path orgstroke="#000000" orgfill="none" fill="none" d="M658.7,470.7c1.7,0,3.8-0.6,6.3-2c1.2-0.7,5.4-3.2,10.3-6.2" stroke="#000000" stroke-width="0.25" g2gstroke="#312783"/>
<path orgstroke="#000000" orgfill="none" fill="none" d="M618.6,311.8c5.2,2.1,8.2,3.7,12.1,18.1s9,47.2,9.7,56.8   c0.7,9.6,4,7.8,4.7,16.9c0.8,9.1,1.3,16.7,0.8,21c-0.5,4.3-2.8,12-4.6,17.9c-1.8,5.7-5.2,15-6.3,25c-1.1,10.1-3.5,27.6-17.8,36.2   c-41,24.6-84.6,50.8-108.4,65.1c-2.6,1.5-4.3,0.8-4.6-1.7c-0.1-1.2-0.6-2.7-0.8-5.5" stroke="#000000" stroke-width="0.25" g2gstroke="#312783"/>
<path orgstroke="#000000" orgfill="none" fill="none" d="M614.6,314.5c6.1,0.5,8.8,6,10.5,12.4c3.9,14.4,9,47.2,9.7,56.8   c0.7,9.6,3.9,10.4,4.6,19.5c0.8,9.1,0.5,13.9,0,18.2c-0.5,4.3-1.9,12.1-3.7,18c-1.8,5.7-5.2,15-6.3,25c-1.1,10.1-2.4,27-16.7,35.5   c0,0-87.9,52.9-108.7,65.4" stroke="#000000" stroke-width="0.25" g2gstroke="#312783"/>
<path orgstroke="#000000" orgfill="none" fill="none" d="M616.9,316.5c0.2,0.1,0.3,0.1,0.5,0.2c2.7,1.5,5.2,5.4,6.3,9.1   c3.9,14.4,9,47.2,9.7,56.8c0.7,9.6,3.9,10.4,4.6,19.5c0.8,9.1,0.5,13.9,0,18.2c-0.5,4.3-1.9,12.1-3.7,18c-1.8,5.7-5.2,15-6.3,25   c-1.1,10.1-2.4,27-16.7,35.5c0,0-83.7,50.3-107.5,64.6" stroke="#000000" stroke-width="0.25" g2gstroke="#312783"/>
<path orgstroke="#000000" orgfill="none" fill="none" d="M656.6,389.9c-0.9-2.6-2.1-5.1-2.5-7.7c-0.5-3.1-1.1-6.3-1.7-9.9   c-2.5-15.2-15.7-53.8-16.9-57c-1.2-3.2-1.4-5.1,0-9.6c1.4-4.5,4.2-7.5,8.5-10.2" stroke="#000000" stroke-width="0.25" g2gstroke="#312783"/>
<path orgstroke="#000000" orgfill="none" fill="none" d="M645.7999877929688 425.8999938964844L658.7999877929688 418.3999938964844" stroke="#000000" stroke-width="0.25" g2gstroke="#312783"/>
<path orgstroke="#000000" orgfill="none" fill="none" d="M643.9000244140625 398.1000061035156L656.9000244140625 390.6000061035156" stroke="#000000" stroke-width="0.25" g2gstroke="#312783"/>
<path orgstroke="#000000" orgfill="none" fill="none" d="M641.5 392.20001220703125L654.5 384.6000061035156" stroke="#000000" stroke-width="0.25" g2gstroke="#312783"/>
<path orgstroke="#000000" orgfill="none" fill="none" d="M637.4000244140625 364L648.9000244140625 357.3999938964844" stroke="#000000" stroke-width="0.25" g2gstroke="#312783"/>
<path orgstroke="#000000" orgfill="none" fill="none" d="M648.7,400.4c0.5-0.4,0.9-1.2,0.8-1.9c-0.1-0.6-0.6-0.8-1.1-0.4   c-0.5,0.4-0.8,1.2-0.8,1.9C647.7,400.6,648.2,400.8,648.7,400.4z" stroke="#000000" stroke-width="0.25" g2gstroke="#312783"/>
<path orgstroke="#000000" orgfill="none" fill="none" d="M654,401.8c0.5-0.4,0.9-1.2,0.8-1.9c-0.1-0.6-0.6-0.8-1.1-0.4   c-0.5,0.4-0.8,1.2-0.8,1.9C653,402,653.5,402.2,654,401.8z" stroke="#000000" stroke-width="0.25" g2gstroke="#312783"/>
<path orgstroke="#000000" orgfill="none" fill="none" d="M647.8,449.9c0.5-0.4,0.9-1.2,0.8-1.9c-0.1-0.6-0.6-0.8-1.1-0.4   c-0.5,0.4-0.8,1.2-0.8,1.9C646.8,450.1,647.3,450.3,647.8,449.9z" stroke="#000000" stroke-width="0.25" g2gstroke="#312783"/>
<path orgstroke="#000000" orgfill="none" fill="none" d="M652.1,443c0.5-0.4,0.9-1.2,0.8-1.9c-0.1-0.6-0.6-0.8-1.1-0.4   c-0.5,0.4-0.8,1.2-0.8,1.9C651.1,443.2,651.6,443.4,652.1,443z" stroke="#000000" stroke-width="0.25" g2gstroke="#312783"/>
<path orgstroke="#000000" orgfill="none" fill="none" d="M653.3,405.1c0.3,3.5,0.4,7.3,0.5,12.1l0,0.5c0,1.2-0.7,2.4-1.6,2.9   c-0.9,0.6-2.6,0.3-2.6-1l0-0.4c-0.1-4.7-0.3-8.5-0.5-12l0-0.5c-0.1-1.2,0.5-2.4,1.6-3.1c1.2-0.7,2.4-0.4,2.5,1L653.3,405.1z" stroke="#000000" stroke-width="0.25" g2gstroke="#312783"/>
<path orgstroke="#000000" orgfill="none" fill="none" d="M651.7,403.2c0.1,0.2,0.1,0.4,0.1,0.6l0,0.5c0.3,3.5,0.4,7.3,0.5,12.1   l0,0.5c0,1.2-0.7,2.4-1.6,2.9c-0.3,0.2-0.6,0.3-0.9,0.3" stroke="#000000" stroke-width="0.25" g2gstroke="#312783"/>
<path orgstroke="#000000" orgfill="none" fill="none" d="M646,424.2c0,0-4.5-4.5-4.7-10.4c-0.2-5.9,2.6-4.9,4.3-4.3" stroke="#000000" stroke-width="0.25" g2gstroke="#312783"/>
<path orgstroke="#000000" orgfill="none" fill="none" d="M643.5,413.3c-0.4-0.3-0.7-1.1-0.7-1.6c0.1-0.5,0.5-0.7,0.9-0.4   c0.4,0.3,0.7,1,0.7,1.6C644.3,413.5,643.9,413.6,643.5,413.3z" stroke="#000000" stroke-width="0.25" g2gstroke="#312783"/>
<path orgstroke="#000000" orgfill="none" fill="none" d="M643.2,418.2c-0.4-0.3-0.7-1.1-0.7-1.6s0.5-0.7,0.9-0.4   c0.4,0.3,0.7,1,0.7,1.6C644.1,418.3,643.7,418.5,643.2,418.2z" stroke="#000000" stroke-width="0.25" g2gstroke="#312783"/>
<path orgstroke="#000000" orgfill="none" fill="none" d="M638.2,473.9c-1,0.5-1.4,1.9-1.6,3.5c-0.2,1.6-1.3,8.8-3.4,12.8   c-2.1,4-1.3,4.5,2.6,2.1c4-2.4,20.8-12.1,22.5-13.1c1.7-1,2.1-2.9,0.5-4.5c-1.6-1.6-4.1-5.3-4.6-6.9c-0.5-1.6-2-1.5-3.5-0.7   C649.4,467.7,639.2,473.3,638.2,473.9z" stroke="#000000" stroke-width="0.25" g2gstroke="#312783"/>
<path orgstroke="#000000" orgfill="none" fill="none" d="M648.5,424.2c0.3,5.4-3.7,19.6-4.6,23.6c-1,4-3.6,9.7-3.7,12.3   c0,2.7,2,4.1,5,2.7c2.9-1.4,10.3-5.6,10.3-5.6" stroke="#000000" stroke-width="0.25" g2gstroke="#312783"/>
<path orgstroke="#000000" orgfill="none" fill="none" d="M642.9,451.1c-0.8,2.9-1.7,5.6-1.7,7.1c0,2.7,1.9,2.8,4.8,1.3   c2.1-1.1,9.2-4.7,9.2-4.7" stroke="#000000" stroke-width="0.25" g2gstroke="#312783"/>
<path orgstroke="#000000" orgfill="none" fill="none" d="M675.1,460.3c-0.9,0.5-1.8,1.1-2.7,1.6l-8.5,5.1c-2,1.2-3.8,1.7-5.2,1.8   c-0.8,0.1-1.4-0.6-1.6-1.1" stroke="#000000" stroke-width="0.25" g2gstroke="#312783"/>
<g>
<g>
<g>
<ellipse orgstroke="#000000" orgfill="#FAFAFA" fill="#FAFAFA" rx="5.3" cx="440.3" cy="458.8" ry="7.8" stroke="#000000" outline-element="true" stroke-width="0.5" g2gstroke="#312783"/>
</g>
<g>
<path d="M440.6,459.6v-0.8l3,0v2.7c-0.5,0.4-0.9,0.6-1.4,0.8c-0.5,0.2-1,0.3-1.5,0.3c-0.7,0-1.3-0.1-1.9-0.4      c-0.6-0.3-1-0.7-1.3-1.3c-0.3-0.6-0.4-1.2-0.4-1.9c0-0.7,0.1-1.3,0.4-1.9c0.3-0.6,0.7-1.1,1.3-1.3c0.5-0.3,1.2-0.4,1.9-0.4      c0.5,0,1,0.1,1.4,0.3c0.4,0.2,0.7,0.4,1,0.7c0.2,0.3,0.4,0.7,0.5,1.2l-0.9,0.2c-0.1-0.4-0.2-0.6-0.4-0.9      c-0.2-0.2-0.4-0.4-0.7-0.5c-0.3-0.1-0.6-0.2-1-0.2c-0.4,0-0.8,0.1-1.1,0.2c-0.3,0.1-0.6,0.3-0.8,0.5c-0.2,0.2-0.3,0.5-0.5,0.7      c-0.2,0.4-0.3,0.9-0.3,1.4c0,0.6,0.1,1.2,0.3,1.6s0.5,0.7,1,1c0.4,0.2,0.9,0.3,1.3,0.3c0.4,0,0.8-0.1,1.2-0.2      c0.4-0.2,0.7-0.3,0.9-0.5v-1.3L440.6,459.6L440.6,459.6z"/>
</g>
</g>
<path orgstroke="#000000" orgfill="none" fill="none" d="M462.6000061035156 458.79998779296875L445.6000061035156 458.79998779296875" stroke="#000000" stroke-width="0.75" g2gstroke="#312783"/>
<g>
<path fill="#F39200" d="M509.4,431.6c0.9,1,0.7,1.3,0.6,1.7c-0.2,0.3,0.2,0.7,0,1.1     c0,0,0,0.1-0.1,0.1c-1.7,3.3-4.3,8.6-4.3,8.6c-3.5,8-6,13.6-6.6,16.2c-0.9,3.8-1.4,5.8-1.6,6.7c0,0.3,0,0.4-0.2,0.6l-0.4,0.4     c-0.1,0.2-0.2,0.3-0.2,0.6c0,5.2,0,10.9,0,12.9c0,2.1,0.9,6.7,1.7,9.3c0.8,2.6,1.9,5.5,2.1,8.8c0.2,3.3,3,54.4,2.9,58.3     c-0.1,1.9-0.1,3.6-0.1,4.8c0,0.6,0.3,0.6,0.7,0.4c4.2-2.6,14.3-8.3,19.5-11.6c0.1,0.1,0.2,0.2,0.3,0.3c0.4,0.3,0.4,0.1,0.4,0.5     c0,0.4,0,0.9,0,1.1s-0.1,0.5,0.2,0.8c0.3,0.3,3.8,2.3,4.2,2.5c0.4,0.2,0.6,0.5,0.6,0.7s0,0.6,0,0.9c0,0.2,0,0.4,0.3,0.6     c0.3,0.2,0.8,0.5,0.7,1.2c-0.1,0.6-0.6,5.3-0.7,5.8c-0.1,0.5-0.4,0.7-0.7,0.9c0,0-0.1,0.1-0.1,0.1c-0.1,0-0.1,0.1-0.1,0.1     c-5.7,3.4-14.9,8.3-14.9,8.3L493,586.8c-0.2,0.1-0.4,0.2-0.6,0l-0.4-0.2c-0.2-0.1-0.3-0.2-0.2-0.5c0.3-1.4,0.5-2.7,0.7-4.1     c0.1-0.5,0.2-1,0.2-1.5c0-0.3,0.1-0.4,0.4-0.6c1.2-0.7,2.8-1.8,4.8-3c0.2-0.1,0.3-0.2,0.3-0.5c0,0-2.7-10.6-3.3-12.8     c-0.3-1.1-0.6-1.7-0.9-1.5c0,0-1.8,0.9-2.9,1.4c-0.6,0.3-1,0.4-1.3,0.4l-0.1,0l-2-1.2c-0.2-0.1-0.5-0.4-0.5-0.5     c-0.1-0.2-0.1-0.4-0.2-0.8c-0.1-0.3-0.5-3.4-1.4-8.6c-0.1-0.3-0.1-0.5,0.2-0.7l0.2-0.1c0.4-0.2,0.3-0.2,0.3-0.5     c-1-6.2-2.5-14.5-4.1-23.9c-3.7-21.7-5.2-42.8-5.3-43.2c-0.2-0.9-0.5-1.6-1.3-2.2c-0.4-0.4-2.5-1.7-3.8-2.4     c-0.4-0.2-0.5-0.5-0.5-0.7c0-0.2,0-0.8,0-1c0-0.3,0.1-0.4,0.1-0.5c0.5-0.5,6.6-10,7.7-12c0.1-0.2,0.2-0.4,0.2-0.7v-0.6     c0-0.3,0-0.4,0.1-0.6c4.8-8.1,15.4-25.9,19.9-34.2c0.3-0.5,0.6-1,0.9-1.6c0,0,0-0.1,0.1-0.1c0.3-0.5,0.8-0.7,1.6-0.4     C503,427.5,508.5,430.6,509.4,431.6z" enable-background="new    " opacity="0.5" orgfill="#F39200"/>
<path orgstroke="#000000" orgfill="none" stroke-linecap="round" fill="none" stroke-linejoin="round" d="M495.7,425.7     c0,0,3.6,2.1,3.9,2.2s0.7,0.2,1-0.4s0.8-0.7,1.6-0.4s6.3,3.4,7.2,4.4s0.7,1.3,0.6,1.7c-0.2,0.4,0.1,0.5-0.2,1.1s0.4,1.3,1.2,2.1     s3.8,2.7,3.8,2.7" stroke="#000000" g2gstroke="#312783" stroke-miterlimit="10"/>
<g>
<g>
<ellipse orgstroke="#000000" orgfill="#FAFAFA" fill="#FAFAFA" rx="5.3" cx="491.5" cy="516.2" ry="7.8" stroke="#000000" outline-element="true" stroke-width="0.5" g2gstroke="#312783"/>
</g>
<g>
<path d="M489,519.4v-7.2h5.2v0.8H490v2.2h4v0.8h-4v2.4h4.4v0.8L489,519.4L489,519.4z"/>
</g>
</g>
<path orgstroke="#000000" orgfill="none" stroke-linecap="round" fill="none" stroke-linejoin="round" d="M523,546.7     c0,0,0,2.4,0,2.8s0,0.7,0.5,1s0.7,0.4,0.7,0.8s0,0.9,0,1.1s-0.1,0.5,0.2,0.8s3.8,2.3,4.2,2.5c0.4,0.2,0.6,0.5,0.6,0.7     s0,0.6,0,0.8s0,0.5,0.3,0.6s0.8,0.5,0.7,1.2s-0.6,5.1-0.7,5.6c-0.1,0.5-0.5,1-0.9,1.2s-0.5,0.3-0.6,0.7s-0.6,2.7-0.6,2.7" stroke="#000000" g2gstroke="#312783" stroke-miterlimit="10"/>
</g>
<path orgstroke="#000000" orgfill="none" fill="none" d="M486.29998779296875 516.2000122070312L462.6000061035156 516.2000122070312L462.6000061035156 401.3999938964844L516 401.3999938964844" stroke="#000000" stroke-width="0.75" g2gstroke="#312783"/>
<g>
<path fill="#F39200" d="M509.4,431.6c-0.9-1-6.4-4.1-7.2-4.4     c-0.8-0.3-1.3-0.1-1.6,0.4c6.8-12,28.4-45.9,32.7-52.1c2.9-4.1,6.4-8.7,10.1-13.4c0.4-0.4,0.9-0.6,1.6-0.2     c0.8,0.4,4.8,3.5,5.3,4.1c0.5,0.6,0.5,1,0.2,1.3c-0.3,0.3-0.1,0.6,0.2,0.8c0.2,0.2,0,0.6-0.1,0.8c0,0.1-0.1,0.1-0.1,0.1     c0,0-0.1,0.1-0.1,0.1c-0.3,0.4-0.6,0.8-0.9,1.2c-9.2,11.8-29.8,46.3-39.6,63.7c0.2-0.4,0-0.6,0.1-0.9     C510.1,432.9,510.3,432.6,509.4,431.6z" enable-background="new    " opacity="0.5" orgfill="#F39200"/>
<path orgstroke="#000000" orgfill="none" stroke-linecap="round" fill="none" stroke-linejoin="round" d="M540.3,360.6     c0,0,1.8,1.4,2.1,1.6s0.6,0.4,1,0c0.4-0.4,0.9-0.7,1.7-0.3s4.8,3.5,5.3,4.1s0.5,1,0.2,1.3c-0.3,0.3-0.1,0.6,0.2,0.8     s-0.1,0.7-0.2,0.9s-0.1,0.4,0.1,0.6s3.9,2.6,3.9,2.6" stroke="#000000" g2gstroke="#312783" stroke-miterlimit="10"/>
<g>
<g>
<ellipse orgstroke="#000000" orgfill="#FAFAFA" fill="#FAFAFA" rx="5.3" cx="521.3" cy="401.4" ry="7.8" stroke="#000000" outline-element="true" stroke-width="0.5" g2gstroke="#312783"/>
</g>
<g>
<path d="M519.2,404.6v-7.2h4.8v0.8h-3.9v2.2h3.4v0.8h-3.4v3.3L519.2,404.6L519.2,404.6z"/>
</g>
</g>
<path orgstroke="#000000" orgfill="none" stroke-linecap="round" fill="none" stroke-linejoin="round" d="M495.7,425.7     c0,0,3.6,2.1,3.9,2.2s0.7,0.2,1-0.4s0.8-0.7,1.6-0.4s6.3,3.4,7.2,4.4s0.7,1.3,0.6,1.7c-0.2,0.4,0.1,0.5-0.2,1.1s0.4,1.3,1.2,2.1     s3.8,2.7,3.8,2.7" stroke="#000000" g2gstroke="#312783" stroke-miterlimit="10"/>
</g>
</g>
<g>
<path fill="#F39200" d="M605.4,503c0,0.4,0,0.9,0,1.1s-0.1,0.5,0.2,0.8    c0.3,0.3,3.8,2.3,4.2,2.5c0.4,0.2,0.6,0.5,0.6,0.7s0,0.6,0,0.9c0,0.2,0,0.5,0.3,0.6c0.3,0.2,0.8,0.5,0.7,1.2    c-0.1,0.6-0.7,5.5-0.8,6c-0.1,0.5-0.5,1-0.9,1.2c-0.1,0.1-0.2,0.1-0.3,0.2l-80.6,47.5c0.3-0.2,0.6-0.6,0.7-1.1    c0.1-0.5,0.6-5,0.7-5.6c0.1-0.6-0.4-1-0.7-1.2c-0.3-0.2-0.3-0.4-0.3-0.7c0-0.2,0-0.6,0-0.8s-0.3-0.5-0.6-0.7    c-0.4-0.2-3.9-2.3-4.2-2.5c-0.3-0.3-0.2-0.6-0.2-0.8s0-0.7,0-1.1c0-0.4-0.3-0.5-0.7-0.8l0,0c26.6-16,66.1-39.7,80.8-48.6    c0.1,0.1,0.2,0.3,0.3,0.4C605.1,502.5,605.4,502.6,605.4,503z" enable-background="new    " opacity="0.5" orgfill="#F39200"/>
<path orgstroke="#000000" orgfill="none" stroke-linecap="round" fill="none" stroke-linejoin="round" d="M523,546.7    c0,0,0,2.4,0,2.8s0,0.7,0.5,1s0.7,0.4,0.7,0.8s0,0.9,0,1.1s-0.1,0.5,0.2,0.8s3.8,2.3,4.2,2.5c0.4,0.2,0.6,0.5,0.6,0.7s0,0.6,0,0.8    s0,0.5,0.3,0.6s0.8,0.5,0.7,1.2s-0.6,5.1-0.7,5.6c-0.1,0.5-0.5,1-0.9,1.2s-0.5,0.3-0.6,0.7s-0.6,2.7-0.6,2.7" stroke="#000000" g2gstroke="#312783" stroke-miterlimit="10"/>
<path orgstroke="#000000" orgfill="none" stroke-linecap="round" fill="none" stroke-linejoin="round" d="M604.2,498.5    c0,0,0,2.4,0,2.8s0,0.7,0.5,1s0.7,0.4,0.7,0.8s0,0.9,0,1.1s-0.1,0.5,0.2,0.8s3.8,2.3,4.2,2.5c0.4,0.2,0.6,0.5,0.6,0.7s0,0.6,0,0.8    s0,0.5,0.3,0.6s0.8,0.5,0.7,1.2s-0.7,5.5-0.8,6c-0.1,0.5-0.5,1-0.9,1.2s-0.5,0.3-0.6,0.7s-0.6,2.7-0.6,2.7" stroke="#000000" g2gstroke="#312783" stroke-miterlimit="10"/>
<g>
<g>
<ellipse orgstroke="#000000" orgfill="#FAFAFA" fill="#FAFAFA" rx="5.3" cx="567.4" cy="533.2" ry="7.8" stroke="#000000" outline-element="true" stroke-width="0.5" g2gstroke="#312783"/>
</g>
<g>
<path d="M564.6,536.4v-7.2h0.9v2.9h3.7v-2.9h0.9v7.2h-0.9V533h-3.7v3.4H564.6z"/>
</g>
</g>
</g>
<g>
<path fill="#F39200" d="M610.5,516.9c0.1-0.5,0.7-5.4,0.8-6c0.1-0.6-0.4-1-0.7-1.2    c-0.3-0.2-0.3-0.4-0.3-0.6c0-0.2,0-0.6,0-0.9s-0.3-0.5-0.6-0.7c-0.4-0.2-3.9-2.3-4.2-2.5c-0.3-0.3-0.2-0.6-0.2-0.8s0-0.7,0-1.1    c0-0.4-0.3-0.5-0.7-0.8c-0.2-0.1-0.3-0.2-0.3-0.4c3.7-2.2,5.9-3.5,5.9-3.5c14.3-8.6,15.6-25.5,16.7-35.5c1.1-10.1,4.5-19.4,6.3-25    c1.8-5.9,3.2-13.7,3.7-18c0.5-4.3,0.8-9.1,0-18.2c-0.8-9.1-3.9-10-4.6-19.5c-0.7-9.3-5.5-40.9-9.4-55.7c0.1,0,0.2,0,0.3,0.1    c0.4,0.2,0.7,0.4,1,0.2c0.4-0.2,0.4-0.2,0.5-0.3c0.1-0.1,0.4-0.3,0.8-0.1c0.4,0.2,3.9,2.2,4.4,2.5c0.5,0.3,0.8,0.3,1.2,0.1    s6.7-3.8,7.1-4c0.4-0.3,0.5-0.4,0.3-0.8s-0.1-0.6,0.1-0.7c0.2-0.1,0.6-0.5,0.5-0.8c3.8,11,10.3,30.5,12.5,40.1    c3.1,13.5,4.4,22.4,4.8,26.8l0.2,0.5c0.4,1.2,0.7,2.4,0.9,3.7c0.8,6.7,1.1,13.6,1.3,25.1c0,1.7-3.3,31.5-3.6,34.1    c-0.3,2.6,0.4,4.1,0.2,5.2c-0.2,1.3-0.2,2.3,0.3,4.2c0.3,1.4,0.6,2.7,1,4c0.1,0.2,0.2,0.7,0.3,0.9c0.2,0.5,0.5,0.8,1,0.8    c1.4,0,3-0.7,4.8-1.7c0,0,9.9-5.9,10.7-6.4c0.2-0.1,0.6-0.1,0.7,0l0.2,0.1c0.4,0.2,0.8,0.4,0.8,0.9c0,0.5,0,0.8,0,1s0,0.7,0.2,0.8    c0.5,0.3,4,2.3,4.4,2.5c0.3,0.2,0.6,0.5,0.6,0.9c0,0.4,0,0.5,0,0.7s0.2,0.6,0.5,0.8c0.3,0.2,0.7,0.3,0.6,0.8    c0,0.5-1.2,6.3-1.6,7.9c-0.1,0.5-0.2,0.5-0.6,0.7l-70,41.3c0.1-0.1,0.2-0.1,0.3-0.2C610,517.9,610.4,517.4,610.5,516.9z" enable-background="new    " opacity="0.5" orgfill="#F39200"/>
<g>
<g>
<ellipse orgstroke="#000000" orgfill="#FAFAFA" fill="#FAFAFA" rx="5.3" cx="646.1" cy="424.9" ry="7.8" stroke="#000000" outline-element="true" stroke-width="0.5" g2gstroke="#312783"/>
</g>
<g>
<path d="M643.7,428.1v-7.2h2.7c0.5,0,0.8,0,1.1,0.1c0.4,0.1,0.6,0.2,0.9,0.3s0.4,0.4,0.6,0.7c0.1,0.3,0.2,0.6,0.2,1      c0,0.6-0.2,1.1-0.6,1.5c-0.4,0.4-1.1,0.6-2.1,0.6h-1.8v2.9L643.7,428.1L643.7,428.1z M644.6,424.3h1.9c0.6,0,1-0.1,1.3-0.3      c0.3-0.2,0.4-0.5,0.4-1c0-0.3-0.1-0.6-0.2-0.8c-0.2-0.2-0.4-0.4-0.6-0.4c-0.2,0-0.5-0.1-0.9-0.1h-1.8L644.6,424.3L644.6,424.3z"/>
</g>
</g>
<path orgstroke="#000000" orgfill="none" stroke-linecap="round" fill="none" stroke-linejoin="round" d="M604.2,498.5    c0,0,0,2.4,0,2.8s0,0.7,0.5,1s0.7,0.4,0.7,0.8s0,0.9,0,1.1s-0.1,0.5,0.2,0.8s3.8,2.3,4.2,2.5c0.4,0.2,0.6,0.5,0.6,0.7s0,0.6,0,0.8    s0,0.5,0.3,0.6s0.8,0.5,0.7,1.2s-0.7,5.5-0.8,6c-0.1,0.5-0.5,1-0.9,1.2s-0.5,0.3-0.6,0.7s-0.6,2.7-0.6,2.7" stroke="#000000" g2gstroke="#312783" stroke-miterlimit="10"/>
<path orgstroke="#000000" orgfill="none" stroke-linecap="round" fill="none" stroke-linejoin="round" d="M619.7,327.9c0,0,2.5-1.5,2.7-1.6    c0.2-0.1,0.3-0.2,0.8,0s0.7,0.4,1,0.2s0.4-0.2,0.5-0.3c0.1-0.1,0.4-0.3,0.8-0.1s3.9,2.2,4.4,2.5c0.5,0.3,0.8,0.3,1.2,0.1    s6.7-3.8,7.1-4c0.4-0.3,0.5-0.4,0.4-0.8s-0.1-0.6,0.1-0.7c0.2-0.1,0.6-0.5,0.5-0.9s-0.2-0.7,0.2-0.9s3.1-1.8,3.1-1.8" stroke="#000000" g2gstroke="#312783"/>
</g>
</g>
</g>
</g>
</g>
<g objectType="PS" toolTip="#UNDEFINED" id="20">
<g onmouseover="notifyOwner(AGV_OBJECT_MOUSEOVER, '20(PS)')" transform="translate(-143.57946337890627, -7.293701173693989E-6) translate(-466.70543994140627, -17.177077911376955) translate(154.67932866319848, 57.62563224707395) translate(117.80001831054688, 25.54591464996338) translate(-46.0, -1.0) translate(513.0, -23.0) translate(10.0, 10.00006103515625)" onclick="clickZoom(evt); notifyOwner(AGV_OBJECT_MOUSECLICK, '20(PS)')" onmouseout="notifyOwner(AGV_OBJECT_MOUSEOUT, '20(PS)')" toolTip="#UNDEFINED" id="20-Graphic" objectType="GRAPHIC">
<g zValue="0">
<g>
<path orgstroke="#000000" orgfill="#ffffff" fill="#ffffff" g2gfill="#464646" d="M399.8,72.1c-0.4-0.3-0.8-0.6-1.2-0.9   c-0.2-0.1-0.3-0.2-0.3-0.3s0-0.3-0.2-0.5c-21.3-15.4-88.7-55.9-114.4-67c-0.3-0.1-0.6-0.1-0.6-0.1c-1.2,0.3-2.4,0.7-3.6,1.1   c-44,15.3-102.8,47.7-127.8,61.3C135.6,74.5,89,101.4,64,118.1c-4.2,2.8-8,5.6-11.6,8.4c-0.2,0.1-0.2,0.4-0.4,0.6   c-0.5,0.4-1,0.6-1.4,0.9c-0.2,0.2-0.3,0.3-0.3,0.5v0.4c0,0.2,0,0.3,0.2,0.4c0.8,0.7,2.3,2,3,2.6c29.5,25.7,89.7,60.7,141.9,82.3   c1.1,0.5,1.9-0.1,2.3-0.7c0.1-0.1,0.5-0.7,0.5-0.7c2.5-3.2,4.9-6,7.7-9c8-8.7,38.4-36.3,76.6-61.4c25.4-16.7,61.4-38.6,87.7-53.2   c11.4-6.3,19.7-10.7,26.2-13.9c0.8-0.4,2.4-1.3,3.3-1.8c0.2-0.1,0.3-0.3,0.3-0.5v-0.4C400,72.3,400,72.2,399.8,72.1z M243.6,141.3   c-0.2,1.5-1.6,3-3.8,4.6c-11.9,8.7-22.4,17.2-31.1,24.5c-6,5.1-17.3,7-29.4-0.4c-12.1-7.4-63.2-36.9-72.8-41.7   c-5.2-2.6-8.6-5.8-8.8-9.1c0-0.2,0-0.5,0-0.7c0.4-2.1,2-4.1,4.8-5.9c12.8-8.2,26.8-16.4,38.6-23.1c3.5-2,10.8-5,19-0.6   c8.3,4.3,69,37.8,76.8,44.1c4,3.2,6.6,5.6,6.8,7.9C243.6,141.1,243.6,141.2,243.6,141.3z" stroke="#000000" outline-element="true" stroke-width="0.5" g2gstroke="#312783" stroke-miterlimit="10"/>
<linearGradient gradientTransform="matrix(1 0 0 -1 0 595.28)" x1="278.3781" x2="156.2152" y1="417.7627" gradientUnits="userSpaceOnUse" y2="598.8765" xlink:type="simple" xlink:actuate="onLoad" id="11::SVGID_1_" xlink:show="other">
<stop stop-opacity="0.89" stop-color="#FFFFFF" offset="0"/>
<stop stop-opacity="0.39" stop-color="#FFFFFF" offset="0.52"/>
<stop stop-opacity="0.31" stop-color="#FFFFFF" offset="0.8711"/>
</linearGradient>
<path fill="url(#11::SVGID_1_)" d="M196.2,210.9c-0.1,0-0.2,0-0.3-0.1c-53-21.9-113.4-57.4-141.9-82.5c-0.5-0.5-1.2-1.1-1.7-1.6   l-0.1-0.1c0.1-0.1,0.1-0.2,0.2-0.3c3.6-2.7,7.4-5.5,11.6-8.4c25-16.7,71.6-43.6,87.6-52.4c25-13.6,83.8-46,127.8-61.3   c1.2-0.4,2.4-0.8,3.6-1.1c0,0,0.3-0.1,0.5,0.1c25.7,11.1,93.1,51.5,114.4,67c0.1,0.1,0.2,0.1,0.2,0.2c-0.8,0.5-1.6,0.9-2.4,1.3   c-7.4,3.6-16.3,8.4-26.3,14c-24.4,13.6-60.5,35.3-87.8,53.3c-39.3,25.9-69.3,53.4-76.9,61.7c-3,3.3-5.5,6.2-7.8,9.1   c-0.1,0.2-0.4,0.5-0.6,0.7C196.4,210.9,196.3,210.9,196.2,210.9z M243.6,141.3c0.7-2.8-1.7-5.7-6.8-9.8   c-7.8-6.3-68.5-39.8-76.8-44.1s-15.5-1.3-19,0.6c-11.8,6.7-25.8,14.8-38.6,23c-3.8,2.4-5.3,5.3-4.8,8.1c0.2,3.3,3.6,6.5,8.8,9.1   c9.7,4.8,60.7,34.3,72.8,41.7c12.1,7.4,23.3,5.5,29.4,0.4c8.7-7.3,19.2-15.8,31.1-24.5C241.9,144.3,243.3,142.9,243.6,141.3z" orgfill="url(#11::SVGID_1_)"/>
<linearGradient gradientTransform="matrix(1 0 0 -1 0 595.28)" x1="50.335" x2="399.975" y1="453.1194" gradientUnits="userSpaceOnUse" y2="453.1194" xlink:type="simple" xlink:actuate="onLoad" id="11::SVGID_2_" xlink:show="other">
<stop stop-opacity="0.2" stop-color="#FFFFFF" offset="0"/>
<stop stop-opacity="0.2" stop-color="#FFFFFF" offset="1"/>
</linearGradient>
<path fill="url(#11::SVGID_2_)" d="M400,72.4c-0.8,0.5-2.6,1.5-3.5,2c-6.5,3.2-14.9,7.6-26.2,13.9c-26.3,14.6-62.3,36.5-87.7,53.2   c-38.2,25.2-68.6,52.7-76.6,61.4c-2.8,3-5.2,5.9-7.7,9c0,0-0.5,0.5-0.6,0.7c-0.4,0.6-1.2,1.1-2.3,0.7   C143.2,191.7,83,156.7,53.5,131c-0.7-0.6-2.4-2.1-3.2-2.8c0.1-0.1,0.1-0.2,0.2-0.3c0.4-0.3,0.9-0.5,1.4-0.9   c0.1-0.1,0.1-0.1,0.2-0.2v0.8c0,0.2,0.1,0.3,0.3,0.5c27.9,25.1,89.5,61.5,143.5,83.9c0.1,0.1,0.2,0.1,0.3,0.1   c0.1,0,0.2-0.1,0.3-0.3c0.2-0.2,0.4-0.6,0.6-0.7c2.3-2.9,4.8-5.8,7.8-9.1c7.6-8.3,37.6-35.8,76.9-61.7c27.3-18,63.4-39.7,87.8-53.3   c10-5.5,18.9-10.4,26.3-13.9c0.8-0.4,1.5-0.8,2.3-1.3c0.1-0.1,0.2-0.1,0.2-0.3v-0.6c0,0.1,0.1,0.2,0.3,0.3c0.4,0.3,0.9,0.6,1.2,0.9   C399.9,72.1,400,72.2,400,72.4z" orgfill="url(#11::SVGID_2_)"/>
<path orgstroke="#000000" orgfill="none" fill="none" d="M398.3,70.6c-0.8,0.5-1.6,0.9-2.4,1.3   c-7.4,3.6-16.3,8.4-26.3,14c-24.4,13.6-60.5,35.3-87.8,53.3c-39.3,25.9-69.3,53.4-76.9,61.7c-3,3.3-5.5,6.2-7.8,9.1   c-0.2,0.2-0.4,0.5-0.6,0.7c-0.2,0.3-0.3,0.3-0.6,0.2c-53-21.9-113.4-57.4-141.9-82.5c-0.5-0.5-1.2-1.1-1.7-1.6" stroke="#000000" stroke-width="0.25" g2gstroke="#312783" stroke-miterlimit="10"/>
<path orgstroke="#000000" orgfill="none" fill="none" d="M400,72.3c-0.8,0.5-2.6,1.5-3.5,2   c-6.5,3.2-14.9,7.6-26.2,13.9c-26.3,14.6-62.3,36.5-87.7,53.2c-38.2,25.2-68.6,52.7-76.6,61.4c-2.8,3-5.2,5.9-7.7,9   c0,0-0.4,0.5-0.5,0.7c-0.4,0.6-1.2,1.1-2.3,0.7C143.3,191.7,83.1,156.7,53.5,131c-0.7-0.7-2.5-2.2-3.2-2.8" stroke="#000000" stroke-width="0.25" g2gstroke="#312783" stroke-miterlimit="10"/>
<path orgstroke="#000000" orgfill="none" fill="none" d="M97.6,119.3c-0.4-2.8,1.1-5.7,4.8-8.1   c12.8-8.2,26.8-16.4,38.6-23.1c3.5-2,10.8-5,19-0.6c8.3,4.3,69,37.8,76.8,44.1c5.1,4.1,7.4,7,6.8,9.8" stroke="#000000" stroke-width="0.25" g2gstroke="#312783" stroke-miterlimit="10"/>
<path orgstroke="#000000" orgfill="none" fill="none" d="M196.1999969482422 210.8000030517578L196.1999969482422 212.10000610351562" stroke="#000000" stroke-width="0.25" g2gstroke="#312783" stroke-miterlimit="10"/>
<path orgstroke="#000000" orgfill="none" fill="none" d="M52.1,126.9v0.8c0,0.2,0.1,0.3,0.3,0.5   c27.9,25.1,89.5,61.5,143.5,83.8c0.3,0.1,0.4,0.1,0.6-0.2c0.2-0.2,0.4-0.6,0.6-0.7c2.3-2.9,4.8-5.8,7.8-9.1   c7.6-8.3,37.6-35.8,76.9-61.7c27.3-18,63.4-39.7,87.8-53.3c10-5.5,18.9-10.4,26.3-14c0.8-0.4,1.5-0.8,2.3-1.2   c0.1-0.1,0.2-0.2,0.2-0.3v-0.6" stroke="#000000" stroke-width="0.25" g2gstroke="#312783" stroke-miterlimit="10"/>
<path orgstroke="#000000" orgfill="none" fill="none" d="M399.8,72.1c-0.4-0.3-0.8-0.6-1.2-0.9   c-0.2-0.1-0.3-0.2-0.3-0.3s0-0.3-0.2-0.5c-21.3-15.4-88.7-55.9-114.4-67c-0.3-0.1-0.6-0.1-0.6-0.1c-1.2,0.3-2.4,0.7-3.6,1.1   c-44,15.3-102.8,47.7-127.8,61.3C135.6,74.5,89,101.4,64,118.1c-4.2,2.8-8,5.6-11.6,8.4c-0.2,0.1-0.2,0.4-0.4,0.6   c-0.5,0.4-1,0.6-1.4,0.9c-0.2,0.2-0.3,0.3-0.3,0.5v0.4c0,0.2,0,0.3,0.2,0.4c0.8,0.7,2.3,2,3,2.6c29.5,25.7,89.7,60.7,141.9,82.3   c1.1,0.5,1.9-0.1,2.3-0.7c0.1-0.1,0.5-0.7,0.5-0.7c2.5-3.2,4.9-6,7.7-9c8-8.7,38.4-36.3,76.6-61.4c25.4-16.7,61.4-38.6,87.7-53.2   c11.4-6.3,19.7-10.7,26.2-13.9c0.8-0.4,2.4-1.3,3.3-1.8c0.2-0.1,0.3-0.3,0.3-0.5v-0.4C400,72.3,400,72.2,399.8,72.1z M243.6,141.3   c-0.2,1.5-1.6,3-3.8,4.6c-11.9,8.7-22.4,17.2-31.1,24.5c-6,5.1-17.3,7-29.4-0.4c-12.1-7.4-63.2-36.9-72.8-41.7   c-5.2-2.6-8.6-5.8-8.8-9.1c0-0.2,0-0.5,0-0.7c0.4-2.1,2-4.1,4.8-5.9c12.8-8.2,26.8-16.4,38.6-23.1c3.5-2,10.8-5,19-0.6   c8.3,4.3,69,37.8,76.8,44.1c4,3.2,6.6,5.6,6.8,7.9C243.6,141.1,243.6,141.2,243.6,141.3z" stroke="#000000" stroke-width="0.25" g2gstroke="#312783" stroke-miterlimit="10"/>
</g>
</g>
</g>
</g>
<g objectType="PS" toolTip="#UNDEFINED" id="22">
<g onmouseover="notifyOwner(AGV_OBJECT_MOUSEOVER, '22(PS)')" transform="translate(-143.57946337890627, -7.293701173693989E-6) translate(-466.70543994140627, -17.177077911376955) translate(35.384160151712194, 33.36220814304281) translate(-46.0, -1.0) translate(513.0, -23.0) translate(10.0, 10.00006103515625)" onclick="clickZoom(evt); notifyOwner(AGV_OBJECT_MOUSECLICK, '22(PS)')" onmouseout="notifyOwner(AGV_OBJECT_MOUSEOUT, '22(PS)')" toolTip="#UNDEFINED" id="22-Graphic" objectType="GRAPHIC">
<g zValue="2">
<g>
<path stroke-linecap="round" orgstroke="#000000" orgfill="#ffffff" fill="#ffffff" g2gfill="#ECF5E4" d="M546.2,94.8c0.7,1,1.8,1.9,3.3,1.8   c1.2-0.1,2.8-0.7,4.3-1.2c2.8-0.9,5.8-2,8.6-3.4c1.6-0.8,3.2-1.5,4.3-2.8c0.4-0.6,0.5-0.9,0.5-1.8l0-1.5c0,0-0.1-1.3-1.2-2.5   c-0.8-0.8-2.1-1.7-2.8-2.2c-0.8-0.5-0.4-1.4-0.3-2c0.1-0.5,1.2-3.7,1.1-4.3c-0.1-0.3-0.4-0.5-0.7-0.7c-0.4-0.3-0.8-0.2-1.1,0.1   c-1.1,1-7.4,7.6-9.8,10.1c-0.5,0.4-0.9,0.9-1.4,1.2c-0.8,0.5-2,1.2-2.7,1.7c-1.7,1.1-2.7,2.3-2.7,3.7c0,0.8,0,1.5,0,2.1   C545.8,93.4,545.9,94.2,546.2,94.8z" stroke="#000000" outline-element="true" stroke-width="0.5" g2gstroke="#312783"/>
<path orgstroke="#000000" orgfill="none" stroke-linecap="round" fill="none" d="M545.8,90.4c-0.2,2.3,2.7,4.2,4.4,4   c1.2-0.2,5.2-1.6,5.2-1.6c2.3-0.8,4.7-1.8,7-2.9c1.6-0.8,3.4-1.8,4.2-3c0.4-0.6,0.7-1.1,0.4-2.1" stroke="#000000" stroke-width="0.25" g2gstroke="#312783"/>
<path orgstroke="#000000" orgfill="none" stroke-linecap="round" fill="none" d="M552,89.1c2-3.7,10.1-11.3,12.1-14.5" stroke="#000000" stroke-width="0.25" g2gstroke="#312783"/>
<path orgstroke="#000000" orgfill="none" stroke-linecap="round" fill="none" d="M563.1,79.2c0,0-0.4,1.8-0.5,2.4   s-0.1,0.9,0.1,1.3c0.4,0.7,1.1,1.1,1.3,1.9c0.2,0.6,0.1,1.4-0.4,2c-0.3,0.3-1.4,0.7-2.2,1.1c-2.3,1.1-5.7,2.5-8.2,3.6   c-0.6,0.3-1.5,0.8-2,0.9c-1.3,0.2-3.2-1.2-2.9-2.4c0-1.5,1.3-1.7,2.1-2.8c0.6-0.8,1.2-1.7,1.9-2.5" stroke="#000000" stroke-width="0.25" g2gstroke="#312783"/>
<path orgstroke="#000000" orgfill="none" stroke-linecap="round" fill="none" d="M550.4,87.3c-0.4,0.8,0.1,1.2,0.7,1.5   c0.6,0.3,1.4,0.4,2.1,0c2.9-1.7,5.6-3.1,8.5-4.8c0.4-0.2,0.9-0.8,0.9-1.5" stroke="#000000" stroke-width="0.25" g2gstroke="#312783"/>
</g>
</g>
</g>
</g>
<g objectType="PS" toolTip="#UNDEFINED" id="24">
<g onmouseover="notifyOwner(AGV_OBJECT_MOUSEOVER, '24(PS)')" transform="translate(-143.57946337890627, -7.293701173693989E-6) translate(-466.70543994140627, -17.177077911376955) translate(273.62497758954316, 82.93009855631209) translate(-46.0, -1.0) translate(513.0, -23.0) translate(10.0, 10.00006103515625)" onclick="clickZoom(evt); notifyOwner(AGV_OBJECT_MOUSECLICK, '24(PS)')" onmouseout="notifyOwner(AGV_OBJECT_MOUSEOUT, '24(PS)')" toolTip="#UNDEFINED" id="24-Graphic" objectType="GRAPHIC">
<g zValue="4">
<g>
<path stroke-linecap="round" orgstroke="#000000" orgfill="#ffffff" fill="#ffffff" g2gfill="#ECC35D" d="M243.7,133.2   c0-2.7-2.2-5.4-6.9-9.1c-7.8-6.3-68.5-39.8-76.8-44.1c-8.3-4.3-15.5-1.3-19,0.6c-11.8,6.7-25.7,14.8-38.6,23.1   c-3.3,2.1-4.9,4.6-4.9,7.1l0,1.7c0.1,3.5,3.3,7.1,8.9,9.8c9.7,4.8,60.7,34.3,72.8,41.7c12.1,7.4,23.3,5.5,29.4,0.4   c8.7-7.3,19.2-15.7,31.1-24.5c2.5-1.9,3.8-3.6,3.9-5.3C243.7,134.2,243.7,133.5,243.7,133.2z M241.8,133.8c-0.4,0.9-1.4,2-3,3.2   c-10.5,7.7-21,15.9-31.2,24.5c-3.1,2.6-7.5,4.1-12.2,4.1c-4.9,0-10.2-1.6-15.1-4.7c-11.5-7.1-62.9-36.8-73-41.7   c-4.5-2.2-7.6-4.9-7.9-7.6c0-0.1,0-0.3,0-0.4c0.2-2.1,2.4-3.7,4-4.8c10.8-6.9,23.7-14.7,38.5-23c2.1-1.2,5.5-2.6,9.4-2.6   c2.7,0,5.4,0.7,8,2c9.8,5.2,69,37.9,76.5,43.9c2.5,2,5.2,4.5,6,6.5C241.9,133.5,241.9,133.6,241.8,133.8z" stroke="#000000" outline-element="true" stroke-width="0.5" g2gstroke="#312783" stroke-miterlimit="10"/>
<path orgstroke="#000000" orgfill="none" fill="none" d="M97.6,110.8c0,3.6,3.2,7.3,8.9,10.1   c9.7,4.8,60.8,34.3,72.8,41.7c12.1,7.4,23.3,5.5,29.4,0.4c8.7-7.3,19.2-15.7,31.1-24.5c2.5-1.8,3.7-3.5,3.9-5.2" stroke="#000000" stroke-width="0.25" g2gstroke="#312783" stroke-miterlimit="10"/>
<path orgstroke="#000000" orgfill="none" fill="none" d="M99.3,111.5c0-0.2,0-0.3,0-0.5   c-0.2-2.6,2.2-4.7,4.1-5.9c10.8-6.9,23.7-14.7,38.5-23c2.1-1.2,5.5-2.6,9.4-2.6c2.7,0,5.4,0.7,8,2c9.8,5.2,69,37.9,76.5,43.9   c2.9,2.4,6.3,5.3,6.2,7.5c0,0.3-0.1,0.5-0.2,0.8" stroke="#000000" stroke-width="0.25" g2gstroke="#312783" stroke-miterlimit="10"/>
</g>
</g>
</g>
</g>
<g objectType="PS" toolTip="#UNDEFINED" id="25">
<g onmouseover="notifyOwner(AGV_OBJECT_MOUSEOVER, '25(PS)')" transform="translate(-143.57946337890627, -7.293701173693989E-6) translate(-466.70543994140627, -17.177077911376955) translate(272.2945482009392, 80.26923977910421) translate(-46.0, -1.0) translate(513.0, -23.0) translate(10.0, 10.00006103515625)" onclick="clickZoom(evt); notifyOwner(AGV_OBJECT_MOUSECLICK, '25(PS)')" onmouseout="notifyOwner(AGV_OBJECT_MOUSEOUT, '25(PS)')" toolTip="#UNDEFINED" id="25-Graphic" objectType="GRAPHIC">
<g zValue="5">
<g>
<path orgstroke="#000000" orgfill="none" fill="none" d="M99.3,104.6c0.1-2.4,1.7-4.8,4.9-6.8   c12.8-8.2,26.8-16.4,38.6-23.1c3.5-2,10.8-5,19-0.6c8.3,4.3,69,37.8,76.8,44.1c4.4,3.6,6.8,6.2,6.9,8.7" stroke="#000000" stroke-width="0.25" g2gstroke="#312783" stroke-miterlimit="10"/>
<path orgstroke="#000000" orgfill="#ffffff" enable-background="new    " fill="#ffffff" g2gfill="#0096C8" opacity="0.6" d="   M245.4,126.9c0,1.9-1.2,3.6-3.9,5.6c-11.9,8.7-22.4,17.2-31.1,24.5c-6,5.1-17.3,7-29.4-0.4c-12.1-7.4-63.2-36.9-72.8-41.7   c-5.9-2.9-9-6.6-8.9-10.3c0-0.4,0-1.2,0-1.6c0-2.5,1.6-4.9,4.9-7c12.8-8.2,26.8-16.4,38.6-23.1c3.5-2,10.8-5,19-0.6   c8.3,4.3,69,37.8,76.8,44.1c4.5,3.6,6.9,6.3,6.9,8.8C245.4,125.6,245.4,126.5,245.4,126.9z" stroke="#000000" outline-element="true" stroke-width="0.5" g2gstroke="#312783" stroke-miterlimit="10"/>
<linearGradient gradientTransform="matrix(1 0 0 -1 0 595.28)" x1="43.2285" x2="301.4288" y1="480.3494" gradientUnits="userSpaceOnUse" y2="480.3494" xlink:type="simple" xlink:actuate="onLoad" id="14::SVGID_5_" xlink:show="other">
<stop stop-opacity="0.18" stop-color="#FFFFFF" offset="8.480000e-002"/>
<stop stop-opacity="0.39" stop-color="#FFFFFF" offset="0.2846"/>
<stop stop-opacity="0.64" stop-color="#FFFFFF" offset="0.4055"/>
<stop stop-opacity="0.21" stop-color="#FFFFFF" offset="0.6061"/>
<stop stop-opacity="0.5101" stop-color="#FFFFFF" offset="0.7147"/>
<stop stop-opacity="0.65" stop-color="#FFFFFF" offset="0.779"/>
<stop stop-opacity="0.16" stop-color="#FFFFFF" offset="0.9302"/>
<stop stop-opacity="0.19" stop-color="#FFFFFF" offset="0.9879"/>
</linearGradient>
<path fill="url(#14::SVGID_5_)" d="M238.5,116.4c-7.8-6.3-68.5-39.8-76.8-44.1   c-8.3-4.3-15.5-1.3-19,0.6C130.9,79.6,117,87.8,104.2,96c-8.2,5.2-5.7,12.4,4,17.2c9.7,4.8,60.8,34.3,72.8,41.7   c12.1,7.4,23.3,5.5,29.4,0.4c8.7-7.3,19.2-15.7,31.1-24.5C247.8,126.1,246.3,122.7,238.5,116.4z" enable-background="new    " opacity="0.8" orgfill="url(#14::SVGID_5_)"/>
<path orgstroke="#000000" orgfill="none" fill="none" d="M245.4,125.2c0,1.8-1.2,3.6-3.9,5.6   c-11.9,8.7-22.4,17.2-31.1,24.5c-6,5.1-17.3,7-29.4-0.4c-12.1-7.4-63.2-36.9-72.8-41.7c-5.8-2.8-9-6.5-8.9-10.2" stroke="#000000" stroke-width="0.25" g2gstroke="#312783" stroke-miterlimit="10"/>
<path orgstroke="#000000" orgfill="none" fill="none" d="M245.4,126.9c0,1.9-1.2,3.6-3.9,5.6   c-11.9,8.7-22.4,17.2-31.1,24.5c-6,5.1-17.3,7-29.4-0.4c-12.1-7.4-63.2-36.9-72.8-41.7c-5.9-2.9-9-6.6-8.9-10.3c0-0.4,0-1.2,0-1.6   c0-2.5,1.6-4.9,4.9-7c12.8-8.2,26.8-16.4,38.6-23.1c3.5-2,10.8-5,19-0.6c8.3,4.3,69,37.8,76.8,44.1c4.5,3.6,6.9,6.3,6.9,8.8   C245.4,125.6,245.4,126.5,245.4,126.9z" stroke="#000000" stroke-width="0.25" g2gstroke="#312783" stroke-miterlimit="10"/>
</g>
</g>
</g>
</g>
<g objectType="PS" toolTip="#UNDEFINED" id="23">
<g onmouseover="notifyOwner(AGV_OBJECT_MOUSEOVER, '23(PS)')" transform="translate(-143.57946337890627, -7.293701173693989E-6) translate(-466.70543994140627, -17.177077911376955) translate(282.93798330977074, 56.32151078423334) translate(-46.0, -1.0) translate(513.0, -23.0) translate(10.0, 10.00006103515625)" onclick="clickZoom(evt); notifyOwner(AGV_OBJECT_MOUSECLICK, '23(PS)')" onmouseout="notifyOwner(AGV_OBJECT_MOUSEOUT, '23(PS)')" toolTip="#UNDEFINED" id="23-Graphic" objectType="GRAPHIC">
<g zValue="3">
<g>
<path orgstroke="#000000" orgfill="#ffffff" fill="#ffffff" g2gfill="#ECC35D" d="M177.3,175c-11.5-6.4-75.9-41.7-82.3-45.2   c-0.1,0-0.1-0.1-0.2-0.1c-4.3-2.5-4.9-4.3-5.1-5.2c-0.1-0.5-0.1-0.9,0-1.3l1.4-3.4c0.2-0.4,0.5-0.8,0.5-0.8c0.6-1,1.5-2,2.7-2.8   c1.4-1.1,8-4.9,8.6-5.3c0.6-0.4,1,0.8,1.5,0.5c0.1-0.1,6.2-3.4,6.4-3.5c0.2-0.1,0.4-0.1,0.7,0.1c0.3,0.2,0.5,0.4,0.5,0.9   c0,0.5-0.3,0.7-0.3,0.7c-5.2,2.8-11.2,6.2-14.7,8.4c-1.2,0.7-3.2,2-3.8,3.1c0,0-0.3,0.5,0,1c0.3,0.5,1.6,1.8,4.3,3.3   c7.2,4,84.6,46.5,84.6,46.5s6.9,4.7,16.9-1.3c1.4-0.8,3.7-2.3,4.1-2.5c0.4-0.3,1,0.2,1.4,0.3c0.2,0.1,0.4,0.1,0.6-0.1   c0.2-0.1,4.7-3,6.7-4.4c0,0,0.3-0.2,0.6,0c0.3,0.2,0.5,0.3,0.5,0.9c0,0.5-0.3,0.7-0.3,0.7c-4.6,3-10.6,6.8-15.7,9.9   c-10,6-17.4,1-17.4,1s-0.7-0.4-2-1.1L177.3,175z" stroke="#000000" outline-element="true" stroke-width="0.5" g2gstroke="#312783" stroke-miterlimit="10"/>
<path orgstroke="#000000" orgfill="none" stroke-linecap="round" fill="none" stroke-linejoin="round" d="M212.6,164.3   c-2,1.3-6.3,4.1-6.7,4.4c-0.4,0.2-1.4-0.6-1.7-0.4c-0.3,0.2-3.9,2.4-5.6,3.5c-10,6-17.4,1.1-17.4,1.1s-77.4-42.5-84.6-46.5   c-4.5-2.5-4.9-4.4-5.3-5.3c-0.1-0.4-0.1-1-0.1-1.4" stroke="#000000" stroke-width="0.25" g2gstroke="#312783"/>
<path orgstroke="#000000" orgfill="none" stroke-linecap="round" fill="none" stroke-linejoin="round" d="M93.2,121.8   c-0.4-0.5-0.7-1.3-0.7-1.5c0-0.4,0.1-0.9,0.6-1.8c0.5-0.9,2.8-2.4,3.9-3.2c1.8-1.1,6.5-3.8,6.7-4c0.5-0.3,1.3,0.5,1.4,0.5   c0.1-0.1,4.4-2.5,6.6-3.6" stroke="#000000" stroke-width="0.25" g2gstroke="#312783"/>
</g>
</g>
</g>
</g>
<g objectType="PS" toolTip="#UNDEFINED" id="34">
<g id="34-Graphic" etg:pictogramId="GEN007" onmouseover="notifyOwner(AGV_OBJECT_MOUSEOVER, '34(PS)')" transform="translate(0.0, 0.0) translate(1.0, -1.0) translate(-4.0, 0.0) translate(-21.0, -3.0) translate(-746.0, 235.0) matrix(58 0 0 58 964 207)" onclick="clickZoom(evt); notifyOwner(AGV_OBJECT_MOUSECLICK, '34(PS)')" toolTip="#UNDEFINED" objectType="GRAPHIC" onmouseout="notifyOwner(AGV_OBJECT_MOUSEOUT, '34(PS)')"/>
</g>
</g>
</svg>
