<?xml version="1.0" encoding="UTF-8" standalone="no"?>
<svg xmlns="http://www.w3.org/2000/svg" xmlns:xlink="http://www.w3.org/1999/xlink" xmlns:etg="http://www.eurotaxglass.com/etg/evd/" etg:dataTimestamp="1539068912893" contentScriptType="text/ecmascript" zoomAndPan="magnify" contentStyleType="text/css" id="Layer_1" enable-background="new 0 0 1841.891 1595.279" version="1.1" width="1841.891px" xml:space="preserve" preserveAspectRatio="xMidYMid meet" viewBox="0 0 1841.891 1595.279" height="1595.279px" x="0px" y="0px">
<g objectType="MGG" id="713500112252">
<g objectType="PS" toolTip="#UNDEFINED" id="1">
<g onmouseover="notifyOwner(AGV_OBJECT_MOUSEOVER, '1(PS)')" transform="translate(69.96339093017576, -0.4401051025390643) translate(36,-132) " onclick="clickZoom(evt); notifyOwner(AGV_OBJECT_MOUSECLICK, '1(PS)')" onmouseout="notifyOwner(AGV_OBJECT_MOUSEOUT, '1(PS)')" toolTip="#UNDEFINED" id="1-Graphic" objectType="GRAPHIC">
<g zValue="11">
<g zValue="11">
<g>
<g id="0::XMLID_6_">
<g>
<path orgstroke="#000000" orgfill="#ffffff" transform="translate(119.4590917663574, 53.34608493041992) translate(-120,-64) " fill="#ffffff" g2gfill="#ECC35D" d="M247.455,416.219l0.313,0.05l0.26,0.03     l0.25-0.04l0.312-0.04c0.979,0.063,3.227-5.91,5.596-15.018L254,401.179c-1.88-0.28-3.8-0.42-5.761-0.42     c-2.104,0-4.17,0.17-6.189,0.482l-0.17-0.02C244.245,410.317,246.476,416.286,247.455,416.219z M275.605,467.302     c-7.159-6.029-12.42-9.598-13.17-8.978l-0.29,0.146l-0.229,0.13l-0.181,0.181l-0.221,0.21c-0.847,0.515,0.773,6.67,4.104,15.477     l0.109-0.04c3.62-1.829,6.92-4.21,9.775-7.021L275.605,467.302z M282.755,421.719c-7.88,5.06-12.84,9.02-12.47,9.92l0.05,0.319     l0.05,0.25l0.11,0.229l0.14,0.28c0.23,0.95,6.61,1.22,16,0.646l-0.02-0.12c-0.671-4.05-1.972-7.88-3.78-11.396L282.755,421.719z      M248.236,390.528c27.141,0,49.131,22,49.131,49.13s-21.99,49.13-49.131,49.13c-27.131,0-49.119-22-49.119-49.13     S221.105,390.528,248.236,390.528z M286.925,443.786l-0.113-0.1c-8.53-0.69-18.7,0.59-18.75,1.52l-0.33,1.638     c-0.517,0.77,6.892,7.854,14.142,12.391l0.068-0.12C284.596,454.51,286.335,449.326,286.925,443.786z M276.906,413.348     l-0.08-0.08c-3.54-3.83-7.83-6.94-12.65-9.11l-0.14,0.097c-3.301,7.896-5.24,17.96-4.38,18.283l1.22,0.646     C261.455,423.897,270.415,418.929,276.906,413.348z M255.726,477.844l0.102-0.16c-1.87-8.354-6.11-17.688-7.011-17.449     l-1.341,0.18c-0.896-0.25-5.318,8.99-7.38,17.307l0.13,0.021c2.591,0.55,5.271,0.829,8.011,0.829     C250.795,478.558,253.306,478.308,255.726,477.844z M236.495,422.536c0.858-0.329-1.08-10.39-4.38-18.29l-0.142,0.063     c-4.739,2.188-8.977,5.3-12.46,9.109l0.011,0.188c6.471,5.602,15.42,10.58,16.011,9.86L236.495,422.536z M230.455,474.318     c3.521-8.71,5.279-14.84,4.449-15.354l-0.221-0.229l-0.188-0.181l-0.229-0.12l-0.271-0.149c-0.74-0.641-6.102,2.83-13.42,8.729     l0.108,0.104c2.813,2.83,6.08,5.229,9.67,7.097L230.455,474.318z M214.455,458.688c7.358-4.37,14.91-11.3,14.41-12.081     l-0.562-1.12c-0.04-0.93-10.216-2.22-18.74-1.55l0.021,0.16c0.604,5.24,2.229,10.16,4.7,14.55L214.455,458.688z M226.076,432.018     c0.369-0.9-4.61-4.891-12.521-9.99l-0.097,0.18c-1.773,3.53-3.023,7.388-3.653,11.438l-0.069,0.09     c9.381,0.58,15.75,0.32,15.989-0.63l0.142-0.28l0.108-0.238l0.04-0.25L226.076,432.018z" stroke="#000000" outline-element="true" stroke-width="0.5" g2gstroke="#312783" stroke-miterlimit="10"/>
</g>
<g>
<path orgstroke="#000000" orgfill="none" transform="translate(119.4590917663574, 53.34608493041992) translate(-120,-64) " fill="none" d="M297.366,439.657c0,27.13-21.99,49.13-49.131,49.13     c-27.131,0-49.119-22-49.119-49.13s21.988-49.13,49.119-49.13C275.375,390.528,297.366,412.528,297.366,439.657z" stroke="#000000" outline-element="true" stroke-width="0.5" g2gstroke="#312783"/>
<path orgstroke="#000000" orgfill="none" transform="translate(119.4590917663574, 53.34608493041992) translate(-120,-64) " fill="none" d="M254.175,401.206c-2.363,9.104-4.604,15.08-5.59,15.018l-0.311,0.04     l-0.25,0.04l-0.261-0.03l-0.313-0.05c-0.979,0.063-3.21-5.9-5.58-14.99l0.17,0.021c2.021-0.318,4.09-0.488,6.189-0.488     c1.96,0,3.88,0.14,5.761,0.42" stroke="#000000" outline-element="true" stroke-width="0.5" g2gstroke="#312783"/>
<path orgstroke="#000000" orgfill="none" transform="translate(119.4590917663574, 53.34608493041992) translate(-120,-64) " fill="none" d="M282.806,421.687c-0.021,0.01-0.03,0.02-0.057,0.03     c-7.88,5.06-12.84,9.02-12.47,9.92l0.05,0.313l0.051,0.25l0.109,0.23l0.141,0.28c0.229,0.944,6.609,1.22,16,0.646l-0.021-0.12     c-0.671-4.05-1.972-7.88-3.78-11.396" stroke="#000000" outline-element="true" stroke-width="0.5" g2gstroke="#312783"/>
<path orgstroke="#000000" orgfill="none" transform="translate(119.4590917663574, 53.34608493041992) translate(-120,-64) " fill="none" d="M260.875,423.179c0.58,0.72,9.54-4.25,16.029-9.83l-0.079-0.08     c-3.54-3.83-7.83-6.94-12.65-9.11l-0.14,0.097c-3.301,7.896-5.24,17.96-4.381,18.29L260.875,423.179z" stroke="#000000" outline-element="true" stroke-width="0.5" g2gstroke="#312783"/>
<path orgstroke="#000000" orgfill="none" transform="translate(119.4590917663574, 53.34608493041992) translate(-120,-64) " fill="none" d="M275.656,467.344c-0.021-0.018-0.03-0.03-0.052-0.04     c-7.159-6.029-12.42-9.598-13.17-8.978l-0.289,0.146l-0.229,0.13l-0.181,0.181l-0.221,0.21c-0.847,0.515,0.773,6.67,4.104,15.477     l0.109-0.04c3.62-1.829,6.92-4.21,9.774-7.021" stroke="#000000" outline-element="true" stroke-width="0.5" g2gstroke="#312783"/>
<path orgstroke="#000000" orgfill="none" transform="translate(119.4590917663574, 53.34608493041992) translate(-120,-64) " fill="none" d="M267.726,446.844c-0.517,0.77,6.892,7.854,14.142,12.391l0.068-0.12     c2.66-4.601,4.396-9.779,4.983-15.316l-0.113-0.104c-8.529-0.688-18.7,0.59-18.75,1.521L267.726,446.844z" stroke="#000000" outline-element="true" stroke-width="0.5" g2gstroke="#312783"/>
<path orgstroke="#000000" orgfill="none" transform="translate(119.4590917663574, 53.34608493041992) translate(-120,-64) " fill="none" d="M220.576,467.01c7.318-5.899,12.68-9.37,13.42-8.729l0.271,0.149     l0.229,0.12l0.188,0.181l0.222,0.229c0.829,0.521-0.932,6.646-4.45,15.355l-0.102-0.105c-3.59-1.857-6.854-4.265-9.67-7.095" stroke="#000000" outline-element="true" stroke-width="0.5" g2gstroke="#312783"/>
<path orgstroke="#000000" orgfill="none" transform="translate(119.4590917663574, 53.34608493041992) translate(-120,-64) " fill="none" d="M247.476,460.407c-0.896-0.25-5.318,8.99-7.38,17.3l0.13,0.021     c2.591,0.55,5.271,0.829,8.011,0.829c2.561,0,5.069-0.25,7.489-0.72l0.102-0.16c-1.87-8.354-6.11-17.688-7.011-17.449     L247.476,460.407z" stroke="#000000" outline-element="true" stroke-width="0.5" g2gstroke="#312783"/>
<path orgstroke="#000000" orgfill="none" transform="translate(119.4590917663574, 53.34608493041992) translate(-120,-64) " fill="none" d="M213.556,422.028c7.903,5.104,12.892,9.09,12.521,9.99l-0.062,0.31     l-0.04,0.25l-0.108,0.24l-0.142,0.28c-0.239,0.95-6.608,1.21-15.989,0.63l0.069-0.09c0.63-4.05,1.88-7.9,3.653-11.438" stroke="#000000" outline-element="true" stroke-width="0.5" g2gstroke="#312783"/>
<path orgstroke="#000000" orgfill="none" transform="translate(119.4590917663574, 53.34608493041992) translate(-120,-64) " fill="none" d="M228.306,445.488c-0.04-0.93-10.21-2.22-18.739-1.55l0.021,0.16     c0.604,5.24,2.229,10.16,4.7,14.55l0.17,0.04c7.358-4.37,14.91-11.3,14.41-12.081L228.306,445.488z" stroke="#000000" outline-element="true" stroke-width="0.5" g2gstroke="#312783"/>
<path orgstroke="#000000" orgfill="none" transform="translate(119.4590917663574, 53.34608493041992) translate(-120,-64) " fill="none" d="M235.535,423.469c-0.591,0.72-9.54-4.261-16.011-9.86l-0.011-0.188     c3.483-3.813,7.72-6.921,12.46-9.109l0.142-0.063c3.3,7.896,5.238,17.962,4.38,18.29L235.535,423.469z" stroke="#000000" outline-element="true" stroke-width="0.5" g2gstroke="#312783"/>
</g>
</g>
<ellipse orgstroke="#000000" orgfill="none" transform="translate(119.4590917663574, 53.34608493041992) translate(-120,-64) " fill="none" rx="6.565" cx="248.269" ry="6.565" cy="439.67" stroke="#000000" stroke-width="0.25" g2gstroke="#312783"/>
<ellipse orgstroke="#000000" orgfill="none" transform="translate(119.4590917663574, 53.34608493041992) translate(-120,-64) " fill="none" rx="7.86" cx="248.268" ry="7.86" cy="439.669" stroke="#000000" stroke-width="0.25" g2gstroke="#312783"/>
<ellipse orgstroke="#000000" orgfill="none" transform="translate(119.4590917663574, 53.34608493041992) translate(-120,-64) " fill="none" rx="46.875" cx="248.24" ry="46.875" cy="439.657" stroke="#000000" stroke-width="0.25" g2gstroke="#312783"/>
<ellipse orgstroke="#000000" orgfill="none" transform="translate(119.4590917663574, 53.34608493041992) translate(-120,-64) " fill="none" rx="44.042" cx="248.24" ry="44.042" cy="439.657" stroke="#000000" stroke-width="0.25" g2gstroke="#312783"/>
<path orgstroke="#000000" orgfill="none" transform="translate(119.4590917663574, 53.34608493041992) translate(-120,-64) " fill="none" d="M238.432,396.719c3.52,14.067,7.469,24.335,8.937,24.234l0.356,0.06   l0.297,0.023l0.289-0.042l0.354-0.041c1.467,0.101,5.417-10.167,8.938-24.234" stroke="#000000" stroke-width="0.25" g2gstroke="#312783"/>
<path orgstroke="#000000" orgfill="none" transform="translate(119.4590917663574, 53.34608493041992) translate(-120,-64) " fill="none" d="M254.17300415039062 401.20599365234375L257.5989990234375 396.718994140625" stroke="#000000" stroke-width="0.25" g2gstroke="#312783"/>
<path orgstroke="#000000" orgfill="none" transform="translate(119.4590917663574, 53.34608493041992) translate(-120,-64) " fill="none" d="M241.87399291992188 401.22698974609375L238.4320068359375 396.718994140625" stroke="#000000" stroke-width="0.25" g2gstroke="#312783"/>
<path orgstroke="#000000" orgfill="none" transform="translate(119.4590917663574, 53.34608493041992) translate(-120,-64) " fill="none" d="M232.11599731445312 398.6610107421875L244.6280059814453 432.3810119628906" stroke="#000000" stroke-width="0.25" g2gstroke="#312783"/>
<path orgstroke="#000000" orgfill="none" transform="translate(119.4590917663574, 53.34608493041992) translate(-120,-64) " fill="none" d="M263.7380065917969 398.427001953125L251.48800659179688 432.093994140625" stroke="#000000" stroke-width="0.25" g2gstroke="#312783"/>
<path orgstroke="#000000" orgfill="none" transform="translate(119.4590917663574, 53.34608493041992) translate(-120,-64) " fill="none" d="M232.11599731445312 404.2449951171875L232.11599731445312 398.6610107421875" stroke="#000000" stroke-width="0.25" g2gstroke="#312783"/>
<path orgstroke="#000000" orgfill="none" transform="translate(119.4590917663574, 53.34608493041992) translate(-120,-64) " fill="none" d="M264.0350036621094 404.2449951171875L263.7380065917969 398.427001953125" stroke="#000000" stroke-width="0.25" g2gstroke="#312783"/>
<path orgstroke="#000000" orgfill="none" transform="translate(119.4590917663574, 53.34608493041992) translate(-120,-64) " fill="none" d="M236.56900024414062 422.64300537109375L244.0780029296875 432.697998046875" stroke="#000000" stroke-width="0.25" g2gstroke="#312783"/>
<path orgstroke="#000000" orgfill="none" transform="translate(119.4590917663574, 53.34608493041992) translate(-120,-64) " fill="none" d="M259.6600036621094 422.5360107421875L252.16700744628906 432.3479919433594" stroke="#000000" stroke-width="0.25" g2gstroke="#312783"/>
<path orgstroke="#000000" orgfill="none" transform="translate(119.4590917663574, 53.34608493041992) translate(-120,-64) " fill="none" d="M286.025,417.013c-12.29,7.71-20.817,14.646-20.274,16.014l0.063,0.357   l0.063,0.292l0.13,0.261l0.147,0.324c0.365,1.423,11.347,1.996,25.816,0.974" stroke="#000000" stroke-width="0.25" g2gstroke="#312783"/>
<path orgstroke="#000000" orgfill="none" transform="translate(119.4590917663574, 53.34608493041992) translate(-120,-64) " fill="none" d="M282.8009948730469 421.68499755859375L286.0249938964844 417.01300048828125" stroke="#000000" stroke-width="0.25" g2gstroke="#312783"/>
<path orgstroke="#000000" orgfill="none" transform="translate(119.4590917663574, 53.34608493041992) translate(-120,-64) " fill="none" d="M282.2120056152344 411.61199951171875L254.13400268554688 433.8900146484375" stroke="#000000" stroke-width="0.25" g2gstroke="#312783"/>
<path orgstroke="#000000" orgfill="none" transform="translate(119.4590917663574, 53.34608493041992) translate(-120,-64) " fill="none" d="M292.25 441.6000061035156L256.3169860839844 440.3949890136719" stroke="#000000" stroke-width="0.25" g2gstroke="#312783"/>
<path orgstroke="#000000" orgfill="none" transform="translate(119.4590917663574, 53.34608493041992) translate(-120,-64) " fill="none" d="M276.90301513671875 413.3450012207031L282.2120056152344 411.61199951171875" stroke="#000000" stroke-width="0.25" g2gstroke="#312783"/>
<path orgstroke="#000000" orgfill="none" transform="translate(119.4590917663574, 53.34608493041992) translate(-120,-64) " fill="none" d="M286.8039855957031 443.6889953613281L292.25 441.6000061035156" stroke="#000000" stroke-width="0.25" g2gstroke="#312783"/>
<path orgstroke="#000000" orgfill="none" transform="translate(119.4590917663574, 53.34608493041992) translate(-120,-64) " fill="none" d="M260.8710021972656 423.1780090332031L253.58299255371094 433.51800537109375" stroke="#000000" stroke-width="0.25" g2gstroke="#312783"/>
<path orgstroke="#000000" orgfill="none" transform="translate(119.4590917663574, 53.34608493041992) translate(-120,-64) " fill="none" d="M268.0580139160156 445.2030029296875L256.3330078125 441.0989990234375" stroke="#000000" stroke-width="0.25" g2gstroke="#312783"/>
<path orgstroke="#000000" orgfill="none" transform="translate(119.4590917663574, 53.34608493041992) translate(-120,-64) " fill="none" d="M281.072,469.029c-11.009-9.451-20.161-15.54-21.307-14.616   l-0.322,0.166l-0.261,0.146l-0.211,0.202l-0.271,0.229c-1.251,0.771,1.457,11.436,6.729,24.945" stroke="#000000" stroke-width="0.25" g2gstroke="#312783"/>
<path orgstroke="#000000" orgfill="none" transform="translate(119.4590917663574, 53.34608493041992) translate(-120,-64) " fill="none" d="M275.65301513671875 467.3420104980469L281.0719909667969 469.02899169921875" stroke="#000000" stroke-width="0.25" g2gstroke="#312783"/>
<path orgstroke="#000000" orgfill="none" transform="translate(119.4590917663574, 53.34608493041992) translate(-120,-64) " fill="none" d="M285.0979919433594 463.7850036621094L255.5279998779297 443.60101318359375" stroke="#000000" stroke-width="0.25" g2gstroke="#312783"/>
<path orgstroke="#000000" orgfill="none" transform="translate(119.4590917663574, 53.34608493041992) translate(-120,-64) " fill="none" d="M259.43499755859375 482.2650146484375L249.94000244140625 447.6189880371094" stroke="#000000" stroke-width="0.25" g2gstroke="#312783"/>
<path orgstroke="#000000" orgfill="none" transform="translate(119.4590917663574, 53.34608493041992) translate(-120,-64) " fill="none" d="M281.8689880371094 459.22900390625L285.0979919433594 463.7850036621094" stroke="#000000" stroke-width="0.25" g2gstroke="#312783"/>
<path orgstroke="#000000" orgfill="none" transform="translate(119.4590917663574, 53.34608493041992) translate(-120,-64) " fill="none" d="M255.82400512695312 477.6830139160156L259.43499755859375 482.2650146484375" stroke="#000000" stroke-width="0.25" g2gstroke="#312783"/>
<path orgstroke="#000000" orgfill="none" transform="translate(119.4590917663574, 53.34608493041992) translate(-120,-64) " fill="none" d="M267.72601318359375 446.8399963378906L255.73800659179688 442.9590148925781" stroke="#000000" stroke-width="0.25" g2gstroke="#312783"/>
<path orgstroke="#000000" orgfill="none" transform="translate(119.4590917663574, 53.34608493041992) translate(-120,-64) " fill="none" d="M248.82000732421875 460.22900390625L249.26499938964844 447.77301025390625" stroke="#000000" stroke-width="0.25" g2gstroke="#312783"/>
<path orgstroke="#000000" orgfill="none" transform="translate(119.4590917663574, 53.34608493041992) translate(-120,-64) " fill="none" d="M230.536,479.993c5.563-13.396,8.498-23.995,7.271-24.795l-0.265-0.254   l-0.219-0.203l-0.259-0.138l-0.313-0.178c-1.123-0.949-10.402,4.938-21.611,14.146" stroke="#000000" stroke-width="0.25" g2gstroke="#312783"/>
<path orgstroke="#000000" orgfill="none" transform="translate(119.4590917663574, 53.34608493041992) translate(-120,-64) " fill="none" d="M230.4600067138672 474.3179931640625L230.53599548339844 479.9930114746094" stroke="#000000" stroke-width="0.25" g2gstroke="#312783"/>
<path orgstroke="#000000" orgfill="none" transform="translate(119.4590917663574, 53.34608493041992) translate(-120,-64) " fill="none" d="M236.77000427246094 482.1910095214844L246.7949981689453 447.69500732421875" stroke="#000000" stroke-width="0.25" g2gstroke="#312783"/>
<path orgstroke="#000000" orgfill="none" transform="translate(119.4590917663574, 53.34608493041992) translate(-120,-64) " fill="none" d="M211.22799682617188 463.552001953125L241.27099609375 443.7070007324219" stroke="#000000" stroke-width="0.25" g2gstroke="#312783"/>
<path orgstroke="#000000" orgfill="none" transform="translate(119.4590917663574, 53.34608493041992) translate(-120,-64) " fill="none" d="M240.09800720214844 477.7040100097656L236.77000427246094 482.1910095214844" stroke="#000000" stroke-width="0.25" g2gstroke="#312783"/>
<path orgstroke="#000000" orgfill="none" transform="translate(119.4590917663574, 53.34608493041992) translate(-120,-64) " fill="none" d="M214.4600067138672 458.69000244140625L211.22799682617188 463.552001953125" stroke="#000000" stroke-width="0.25" g2gstroke="#312783"/>
<path orgstroke="#000000" orgfill="none" transform="translate(119.4590917663574, 53.34608493041992) translate(-120,-64) " fill="none" d="M247.47900390625 460.4070129394531L247.43899536132812 447.64801025390625" stroke="#000000" stroke-width="0.25" g2gstroke="#312783"/>
<path orgstroke="#000000" orgfill="none" transform="translate(119.4590917663574, 53.34608493041992) translate(-120,-64) " fill="none" d="M228.8699951171875 446.6050109863281L240.97300720214844 443.11700439453125" stroke="#000000" stroke-width="0.25" g2gstroke="#312783"/>
<path orgstroke="#000000" orgfill="none" transform="translate(119.4590917663574, 53.34608493041992) translate(-120,-64) " fill="none" d="M204.378,435.594c14.477,1.045,25.451,0.484,25.82-0.938l0.158-0.326   l0.123-0.271l0.052-0.288l0.069-0.348c0.546-1.365-7.978-8.318-20.248-16.047" stroke="#000000" stroke-width="0.25" g2gstroke="#312783"/>
<path orgstroke="#000000" orgfill="none" transform="translate(119.4590917663574, 53.34608493041992) translate(-120,-64) " fill="none" d="M209.74099731445312 433.7239990234375L204.3780059814453 435.593994140625" stroke="#000000" stroke-width="0.25" g2gstroke="#312783"/>
<path orgstroke="#000000" orgfill="none" transform="translate(119.4590917663574, 53.34608493041992) translate(-120,-64) " fill="none" d="M204.26100158691406 442.1960144042969L240.3509979248047 440.8139953613281" stroke="#000000" stroke-width="0.25" g2gstroke="#312783"/>
<path orgstroke="#000000" orgfill="none" transform="translate(119.4590917663574, 53.34608493041992) translate(-120,-64) " fill="none" d="M213.89199829101562 412.0740051269531L242.125 434.260009765625" stroke="#000000" stroke-width="0.25" g2gstroke="#312783"/>
<path orgstroke="#000000" orgfill="none" transform="translate(119.4590917663574, 53.34608493041992) translate(-120,-64) " fill="none" d="M209.5679931640625 443.93798828125L204.26100158691406 442.1960144042969" stroke="#000000" stroke-width="0.25" g2gstroke="#312783"/>
<path orgstroke="#000000" orgfill="none" transform="translate(119.4590917663574, 53.34608493041992) translate(-120,-64) " fill="none" d="M219.52000427246094 413.6090087890625L213.89199829101562 412.0740051269531" stroke="#000000" stroke-width="0.25" g2gstroke="#312783"/>
<path orgstroke="#000000" orgfill="none" transform="translate(119.4590917663574, 53.34608493041992) translate(-120,-64) " fill="none" d="M228.30999755859375 445.4840087890625L240.4320068359375 441.4129943847656" stroke="#000000" stroke-width="0.25" g2gstroke="#312783"/>
<path orgstroke="#000000" orgfill="none" transform="translate(119.4590917663574, 53.34608493041992) translate(-120,-64) " fill="none" d="M235.53599548339844 423.47100830078125L242.66600036621094 433.864013671875" stroke="#000000" stroke-width="0.25" g2gstroke="#312783"/>
<path orgstroke="#000000" orgfill="none" transform="translate(119.4590917663574, 53.34608493041992) translate(-120,-64) " fill="none" d="M286.6340026855469 433.3699951171875L291.9700012207031 435.2330017089844" stroke="#000000" stroke-width="0.25" g2gstroke="#312783"/>
<path orgstroke="#000000" orgfill="none" transform="translate(119.4590917663574, 53.34608493041992) translate(-120,-64) " fill="none" d="M265.62799072265625 474.4670104980469L265.4320068359375 480.1090087890625" stroke="#000000" stroke-width="0.25" g2gstroke="#312783"/>
<path orgstroke="#000000" orgfill="none" transform="translate(119.4590917663574, 53.34608493041992) translate(-120,-64) " fill="none" d="M220.5709991455078 467.010009765625L215.14199829101562 468.57501220703125" stroke="#000000" stroke-width="0.25" g2gstroke="#312783"/>
<path orgstroke="#000000" orgfill="none" transform="translate(119.4590917663574, 53.34608493041992) translate(-120,-64) " fill="none" d="M213.55799865722656 422.031005859375L210.35400390625 417.3819885253906" stroke="#000000" stroke-width="0.25" g2gstroke="#312783"/>
</g>
</g>
</g>
</g>
</g>
<g objectType="PS" toolTip="#UNDEFINED" id="2">
<g onmouseover="notifyOwner(AGV_OBJECT_MOUSEOVER, '2(PS)')" transform="translate(69.96339093017576, -0.4401051025390643) translate(36,-132) " onclick="clickZoom(evt); notifyOwner(AGV_OBJECT_MOUSECLICK, '2(PS)')" onmouseout="notifyOwner(AGV_OBJECT_MOUSEOUT, '2(PS)')" toolTip="#UNDEFINED" id="2-Graphic" objectType="GRAPHIC">
<g zValue="8">
<g zValue="8">
<g>
<g id="1::XMLID_25_">
<g>
<path orgstroke="#000000" orgfill="#ffffff" transform="translate(119.4590917663574, 53.34608493041992) translate(-120,-64) " fill="#ffffff" g2gfill="#ECC35D" d="M382.1,391.28     c27.521,0,49.83,22.313,49.83,49.83s-22.313,49.83-49.83,49.83c-27.521,0-49.83-22.312-49.83-49.83     C332.27,413.597,354.579,391.28,382.1,391.28z M419.901,454.209c1.896-5.482,2.522-11.104,2.061-16.55l-0.24-0.104     c-9.983,3.59-17.604,5.192-19.033,9.329l-0.53,1.523c-1.45,4.188,3.688,10.25,9.393,19.45l0.289,0.03     C415.312,464.03,418.087,459.419,419.901,454.209z M416.61,421.346l0.121-0.268c-2.604-4.5-6.121-8.563-10.531-11.89     c-4.64-3.5-9.79-5.84-15.104-7.07l-0.188,0.2c0.354,10.61-0.471,18.354,3.021,20.99l1.29,0.97     C398.749,426.95,406.11,423.941,416.61,421.346z M398.409,477.641l0.03-0.262c-6.671-8.267-10.681-14.938-15.051-14.938h-1.62     c-4.43,0-8.479,6.84-15.3,15.25l0.061,0.28c4.791,2.02,10.051,3.14,15.569,3.14C387.909,481.11,393.43,479.869,398.409,477.641z      M373.15,402.351l-0.221-0.19c-5.063,1.19-9.96,3.396-14.436,6.65c-4.688,3.43-8.407,7.68-11.121,12.42l0.137,0.229     c10.26,2.74,17.438,5.768,20.97,3.188l1.311-0.95C373.36,421.07,372.6,413.159,373.15,402.351z M352.788,468.013     c5.767-8.938,10.83-14.83,9.461-18.98l-0.51-1.54c-1.392-4.2-9.16-5.896-19.281-9.729l-0.233,0.14     c-0.42,5.18,0.17,10.53,1.896,15.771c1.83,5.521,4.739,10.363,8.42,14.396L352.788,468.013z" stroke="#000000" outline-element="true" stroke-width="0.5" g2gstroke="#312783" stroke-miterlimit="10"/>
</g>
<g>
<ellipse orgstroke="#000000" stroke="#000000" outline-element="true" transform="translate(119.4590917663574, 53.34608493041992) translate(-120,-64) " stroke-miterlimit="10" orgfill="none" fill="none" stroke-width="0.5" cx="382.1" rx="49.83" g2gstroke="#312783" ry="49.83" cy="441.11"/>
<path orgstroke="#000000" orgfill="none" transform="translate(119.4590917663574, 53.34608493041992) translate(-120,-64) " fill="none" d="M366.47,477.691     c6.813-8.41,10.87-15.25,15.3-15.25h1.62c4.37,0,8.38,6.68,15.051,14.938l-0.03,0.269c-4.979,2.229-10.5,3.47-16.311,3.47     c-5.521,0-10.778-1.12-15.569-3.14L366.47,477.691z" stroke="#000000" outline-element="true" stroke-width="0.5" g2gstroke="#312783" stroke-miterlimit="10"/>
<path orgstroke="#000000" orgfill="none" transform="translate(119.4590917663574, 53.34608493041992) translate(-120,-64) " fill="none" d="M411.54,467.86     c-5.701-9.2-10.843-15.27-9.393-19.45l0.523-1.523c1.437-4.137,9.057-5.739,19.04-9.329l0.24,0.104     c0.471,5.44-0.16,11.063-2.061,16.55c-1.813,5.211-4.596,9.82-8.07,13.688L411.54,467.86z" stroke="#000000" outline-element="true" stroke-width="0.5" g2gstroke="#312783" stroke-miterlimit="10"/>
<path orgstroke="#000000" orgfill="none" transform="translate(119.4590917663574, 53.34608493041992) translate(-120,-64) " fill="none" d="M416.61,421.346     c-10.5,2.6-17.858,5.604-21.391,2.938l-1.29-0.97c-3.49-2.646-2.67-10.38-3.021-20.99l0.188-0.2     c5.313,1.23,10.471,3.57,15.104,7.07c4.411,3.32,7.933,7.39,10.53,11.89L416.61,421.346z" stroke="#000000" outline-element="true" stroke-width="0.5" g2gstroke="#312783" stroke-miterlimit="10"/>
<path orgstroke="#000000" orgfill="none" transform="translate(119.4590917663574, 53.34608493041992) translate(-120,-64) " fill="none" d="M373.15,402.351     c-0.551,10.81,0.21,18.72-3.36,21.34l-1.311,0.95c-3.529,2.58-10.71-0.44-20.97-3.188l-0.137-0.229     c2.717-4.74,6.437-8.99,11.121-12.42c4.476-3.261,9.369-5.46,14.436-6.65L373.15,402.351z" stroke="#000000" outline-element="true" stroke-width="0.5" g2gstroke="#312783" stroke-miterlimit="10"/>
<path orgstroke="#000000" orgfill="none" transform="translate(119.4590917663574, 53.34608493041992) translate(-120,-64) " fill="none" d="M342.458,437.763     c10.121,3.83,17.896,5.522,19.281,9.729l0.51,1.54c1.369,4.15-3.694,10.05-9.461,18.98l-0.25,0.06     c-3.68-4.03-6.59-8.88-8.42-14.396c-1.729-5.239-2.313-10.596-1.896-15.771L342.458,437.763z" stroke="#000000" outline-element="true" stroke-width="0.5" g2gstroke="#312783" stroke-miterlimit="10"/>
</g>
</g>
<path orgstroke="#000000" orgfill="none" transform="translate(119.4590917663574, 53.34608493041992) translate(-120,-64) " fill="none" d="M406.602,482.388   c-10.376-12.334-18.696-30.94-23.321-30.94H381.6c-4.625,0-13.125,18.916-23.5,31.25" stroke="#000000" stroke-width="0.25" g2gstroke="#312783" stroke-miterlimit="10"/>
<path orgstroke="#000000" orgfill="none" transform="translate(119.4590917663574, 53.34608493041992) translate(-120,-64) " fill="none" d="M340.609,420.097   c6.421-12.65,18.455-21.978,32.826-24.686" stroke="#000000" stroke-width="0.25" g2gstroke="#312783" stroke-miterlimit="10"/>
<path orgstroke="#000000" orgfill="none" transform="translate(119.4590917663574, 53.34608493041992) translate(-120,-64) " fill="none" d="M349.314,474.085   c-8.47-8.423-13.714-20.087-13.714-32.976c0-2.121,0.144-4.209,0.417-6.255" stroke="#000000" stroke-width="0.25" g2gstroke="#312783" stroke-miterlimit="10"/>
<path orgstroke="#000000" orgfill="none" transform="translate(119.4590917663574, 53.34608493041992) translate(-120,-64) " fill="none" d="M403.113,482.604   c-6.312,3.202-13.45,5.007-21.014,5.007c-7.309,0-14.212-1.684-20.36-4.684" stroke="#000000" stroke-width="0.25" g2gstroke="#312783" stroke-miterlimit="10"/>
<path orgstroke="#000000" orgfill="none" transform="translate(119.4590917663574, 53.34608493041992) translate(-120,-64) " fill="none" d="M428.17,434.791   c0.279,2.066,0.433,4.183,0.433,6.318c0,12.833-5.197,24.451-13.604,32.865" stroke="#000000" stroke-width="0.25" g2gstroke="#312783" stroke-miterlimit="10"/>
<path orgstroke="#000000" orgfill="none" transform="translate(119.4590917663574, 53.34608493041992) translate(-120,-64) " fill="none" d="M390.684,395.401   c14.361,2.682,26.404,11.97,32.854,24.592" stroke="#000000" stroke-width="0.25" g2gstroke="#312783" stroke-miterlimit="10"/>
<path orgstroke="#000000" orgfill="none" transform="translate(119.4590917663574, 53.34608493041992) translate(-120,-64) " fill="none" d="M421.92,437.327   c0.117,1.245,0.183,2.507,0.183,3.782c0,10.418-3.982,19.905-10.515,27.023" stroke="#000000" stroke-width="0.25" g2gstroke="#312783" stroke-miterlimit="10"/>
<path orgstroke="#000000" orgfill="none" transform="translate(119.4590917663574, 53.34608493041992) translate(-120,-64) " fill="none" d="M390.82,402.064   c11.174,2.483,20.587,9.641,26.083,19.314" stroke="#000000" stroke-width="0.25" g2gstroke="#312783" stroke-miterlimit="10"/>
<path orgstroke="#000000" orgfill="none" transform="translate(119.4590917663574, 53.34608493041992) translate(-120,-64) " fill="none" d="M347.206,421.535   c5.473-9.722,14.877-16.928,26.063-19.441" stroke="#000000" stroke-width="0.25" g2gstroke="#312783" stroke-miterlimit="10"/>
<path orgstroke="#000000" orgfill="none" transform="translate(119.4590917663574, 53.34608493041992) translate(-120,-64) " fill="none" d="M352.727,468.263   c-6.596-7.131-10.627-16.671-10.627-27.152c0-1.236,0.058-2.459,0.166-3.667" stroke="#000000" stroke-width="0.25" g2gstroke="#312783" stroke-miterlimit="10"/>
<path orgstroke="#000000" orgfill="none" transform="translate(119.4590917663574, 53.34608493041992) translate(-120,-64) " fill="none" d="M366.469,477.689   c-1.396,1.722-2.91,3.51-4.563,5.318" stroke="#000000" stroke-width="0.25" g2gstroke="#312783" stroke-miterlimit="10"/>
<path orgstroke="#000000" orgfill="none" transform="translate(119.4590917663574, 53.34608493041992) translate(-120,-64) " fill="none" d="M403.035,482.769   c-1.754-1.916-3.131-3.57-4.597-5.387" stroke="#000000" stroke-width="0.25" g2gstroke="#312783" stroke-miterlimit="10"/>
<path orgstroke="#000000" orgfill="none" transform="translate(119.4590917663574, 53.34608493041992) translate(-120,-64) " fill="none" d="M429.124,431.537   c-15.053,5.771-35.354,7.479-36.875,11.849l-0.551,1.587c-1.515,4.362,13.577,18.595,21.834,32.436" stroke="#000000" stroke-width="0.25" g2gstroke="#312783" stroke-miterlimit="10"/>
<path orgstroke="#000000" orgfill="none" transform="translate(119.4590917663574, 53.34608493041992) translate(-120,-64) " fill="none" d="M411.544,467.857   c1.17,1.883,2.363,3.897,3.529,6.055" stroke="#000000" stroke-width="0.25" g2gstroke="#312783" stroke-miterlimit="10"/>
<path orgstroke="#000000" orgfill="none" transform="translate(119.4590917663574, 53.34608493041992) translate(-120,-64) " fill="none" d="M428.202,435.017   c-2.385,1.029-4.285,1.741-6.479,2.531" stroke="#000000" stroke-width="0.25" g2gstroke="#312783" stroke-miterlimit="10"/>
<path orgstroke="#000000" orgfill="none" transform="translate(119.4590917663574, 53.34608493041992) translate(-120,-64) " fill="none" d="M387.457,393.446   c0.854,16.095-3.765,35.919-0.067,38.707l1.341,1.012c3.688,2.786,21.875-7.188,37.586-10.774" stroke="#000000" stroke-width="0.25" g2gstroke="#312783" stroke-miterlimit="10"/>
<path orgstroke="#000000" orgfill="none" transform="translate(119.4590917663574, 53.34608493041992) translate(-120,-64) " fill="none" d="M416.615,421.334   c2.152-0.525,4.438-1.048,6.85-1.487" stroke="#000000" stroke-width="0.25" g2gstroke="#312783" stroke-miterlimit="10"/>
<path orgstroke="#000000" orgfill="none" transform="translate(119.4590917663574, 53.34608493041992) translate(-120,-64) " fill="none" d="M390.5,395.318   c0.245,2.586,0.344,4.666,0.413,6.999" stroke="#000000" stroke-width="0.25" g2gstroke="#312783" stroke-miterlimit="10"/>
<path orgstroke="#000000" orgfill="none" transform="translate(119.4590917663574, 53.34608493041992) translate(-120,-64) " fill="none" d="M338.036,422.138   c15.652,3.84,33.278,14.054,37.021,11.326l1.354-0.99c3.732-2.729-0.562-23.021,0.541-39.104" stroke="#000000" stroke-width="0.25" g2gstroke="#312783" stroke-miterlimit="10"/>
<path orgstroke="#000000" orgfill="none" transform="translate(119.4590917663574, 53.34608493041992) translate(-120,-64) " fill="none" d="M373.16,402.082   c0.111-2.134,0.275-4.38,0.535-6.719" stroke="#000000" stroke-width="0.25" g2gstroke="#312783" stroke-miterlimit="10"/>
<path orgstroke="#000000" orgfill="none" transform="translate(119.4590917663574, 53.34608493041992) translate(-120,-64) " fill="none" d="M373.146,402.354   c0.005-0.09,0.01-0.18,0.016-0.271" stroke="#000000" stroke-width="0.25" g2gstroke="#312783" stroke-miterlimit="10"/>
<path orgstroke="#000000" orgfill="none" transform="translate(119.4590917663574, 53.34608493041992) translate(-120,-64) " fill="none" d="M340.737,419.847   c2.547,0.513,4.521,1.012,6.773,1.606" stroke="#000000" stroke-width="0.25" g2gstroke="#312783" stroke-miterlimit="10"/>
<path orgstroke="#000000" orgfill="none" transform="translate(119.4590917663574, 53.34608493041992) translate(-120,-64) " fill="none" d="M350.567,477.281   c8.451-13.724,23.545-27.416,22.094-31.807l-0.522-1.596c-1.453-4.396-22.082-6.521-37.056-12.497" stroke="#000000" stroke-width="0.25" g2gstroke="#312783" stroke-miterlimit="10"/>
<path orgstroke="#000000" orgfill="none" transform="translate(119.4590917663574, 53.34608493041992) translate(-120,-64) " fill="none" d="M342.464,437.76   c-2.074-0.784-4.247-1.659-6.484-2.663" stroke="#000000" stroke-width="0.25" g2gstroke="#312783" stroke-miterlimit="10"/>
<path orgstroke="#000000" orgfill="none" transform="translate(119.4590917663574, 53.34608493041992) translate(-120,-64) " fill="none" d="M349.186,473.956   c1.224-2.184,2.265-3.854,3.47-5.729" stroke="#000000" stroke-width="0.25" g2gstroke="#312783" stroke-miterlimit="10"/>
<path orgstroke="#000000" orgfill="none" transform="translate(119.4590917663574, 53.34608493041992) translate(-120,-64) " fill="none" d="M373.6960144042969 395.364013671875L375.4110107421875 394.0169982910156L376.2250061035156 393.5539855957031L376.95098876953125 393.37298583984375L379.5360107421875 393.1099853515625L381.7860107421875 392.9849853515625L384.3190002441406 393.1099853515625L386.6610107421875 393.3280029296875L387.7250061035156 393.4849853515625L388.5060119628906 393.7349853515625L390.5 395.3599853515625" stroke="#000000" stroke-width="0.25" g2gstroke="#312783" stroke-miterlimit="10"/>
<path orgstroke="#000000" orgfill="none" transform="translate(119.4590917663574, 53.34608493041992) translate(-120,-64) " fill="none" d="M423.4620056152344 419.84600830078125L425.1099853515625 420.79400634765625L425.7950134277344 421.4330139160156L426.1719970703125 422.07501220703125L427.1960144042969 424.47198486328125L427.98199462890625 426.5790100097656L428.6099853515625 429.03399658203125L429.0880126953125 431.343994140625L429.25299072265625 432.3999938964844L429.2489929199219 433.22198486328125L428.2019958496094 435.0169982910156" stroke="#000000" stroke-width="0.25" g2gstroke="#312783" stroke-miterlimit="10"/>
<path orgstroke="#000000" orgfill="none" transform="translate(119.4590917663574, 53.34608493041992) translate(-120,-64) " fill="none" d="M415.15301513671875 473.8179931640625L415.0830078125 475.38800048828125L414.6990051269531 476.239013671875L414.2099914550781 476.80499267578125L412.27099609375 478.5320129394531L410.5190124511719 479.95001220703125L408.39300537109375 481.3299865722656L406.364013671875 482.52398681640625L405.4100036621094 483.0199890136719L404.62799072265625 483.27398681640625L402.9330139160156 482.6940002441406" stroke="#000000" stroke-width="0.25" g2gstroke="#312783" stroke-miterlimit="10"/>
<path orgstroke="#000000" orgfill="none" transform="translate(119.4590917663574, 53.34608493041992) translate(-120,-64) " fill="none" d="M349.197998046875 474.031005859375L349.1860046386719 473.95599365234375" stroke="#000000" stroke-width="0.25" g2gstroke="#312783" stroke-miterlimit="10"/>
<path orgstroke="#000000" orgfill="none" transform="translate(119.4590917663574, 53.34608493041992) translate(-120,-64) " fill="none" d="M361.9700012207031 483.0379943847656L360.3269958496094 483.4010009765625L359.3940124511719 483.3160095214844L358.70098876953125 483.0350036621094L356.4389953613281 481.7619934082031L354.531005859375 480.5580139160156L352.5360107421875 478.99200439453125L350.7510070800781 477.4570007324219L349.9750061035156 476.72100830078125L349.48199462890625 476.0610046386719L349.197998046875 474.031005859375" stroke="#000000" stroke-width="0.25" g2gstroke="#312783" stroke-miterlimit="10"/>
<path orgstroke="#000000" orgfill="none" transform="translate(119.4590917663574, 53.34608493041992) translate(-120,-64) " fill="none" d="M335.9800109863281 435.09698486328125L335.13299560546875 433.5849914550781L334.92401123046875 432.677001953125L334.9739990234375 431.92999267578125L335.4859924316406 429.375L336.0299987792969 427.1910095214844L336.8970031738281 424.8089904785156L337.79998779296875 422.63800048828125L338.26300048828125 421.66400146484375L338.73199462890625 420.99200439453125L340.73699951171875 419.84698486328125" stroke="#000000" stroke-width="0.25" g2gstroke="#312783" stroke-miterlimit="10"/>
<ellipse orgstroke="#000000" orgfill="none" transform="translate(119.4590917663574, 53.34608493041992) translate(-120,-64) " fill="none" rx="3.517" cx="382.456" ry="3.366" cy="455.534" stroke="#000000" stroke-width="0.25" g2gstroke="#312783"/>
<ellipse orgstroke="#000000" orgfill="none" transform="translate(119.4590917663574, 53.34608493041992) translate(-120,-64) " fill="none" rx="3.517" cx="368.455" ry="3.366" cy="446.085" stroke="#000000" stroke-width="0.25" g2gstroke="#312783"/>
<ellipse orgstroke="#000000" orgfill="none" transform="translate(119.4590917663574, 53.34608493041992) translate(-120,-64) " fill="none" rx="3.515" cx="373.149" ry="3.366" cy="429.743" stroke="#000000" stroke-width="0.25" g2gstroke="#312783"/>
<ellipse orgstroke="#000000" orgfill="none" transform="translate(119.4590917663574, 53.34608493041992) translate(-120,-64) " fill="none" rx="3.515" cx="390.684" ry="3.366" cy="429.326" stroke="#000000" stroke-width="0.25" g2gstroke="#312783"/>
<ellipse orgstroke="#000000" orgfill="none" transform="translate(119.4590917663574, 53.34608493041992) translate(-120,-64) " fill="none" rx="3.515" cx="396.017" ry="3.366" cy="445.243" stroke="#000000" stroke-width="0.25" g2gstroke="#312783"/>
<ellipse orgstroke="#000000" orgfill="none" transform="translate(119.4590917663574, 53.34608493041992) translate(-120,-64) " fill="none" rx="7.07" cx="382.127" ry="7.07" cy="440.858" stroke="#000000" stroke-width="0.25" g2gstroke="#312783"/>
</g>
</g>
</g>
</g>
</g>
</g>
</svg>
