<svg xmlns="http://www.w3.org/2000/svg" xmlns:xlink="http://www.w3.org/1999/xlink" xmlns:etg="http://www.eurotaxglass.com/etg/evd/" etg:dataTimestamp="1539068912893" contentScriptType="text/ecmascript" zoomAndPan="magnify" contentStyleType="text/css" id="Layer_1" enable-background="new 0 0 1841.891 1595.279" version="1.1" width="1841.891px" xml:space="preserve" preserveAspectRatio="xMidYMid meet" viewBox="0 0 1841.891 1595.279" height="1595.279px" x="0px" y="0px"><g xmlns="http://www.w3.org/2000/svg" objecttype="PS" tooltip="#UNDEFINED" id="2">
<g onmouseover="notifyOwner(AGV_OBJECT_MOUSEOVER, '2(PS)')" transform="translate(4.0, 9.0) translate(-19.0, -8.0) translate(-11.0, -16.0) translate(-219.0, -75.0) translate(247.0, 92.0)" onclick="clickZoom(evt); notifyOwner(AGV_OBJECT_MOUSECLICK, '2(PS)')" onmouseout="notifyOwner(AGV_OBJECT_MOUSEOUT, '2(PS)')" tooltip="#UNDEFINED" id="2-Graphic" objecttype="GRAPHIC">
<g>
	<path orgstroke="#000000" orgfill="#ffffff" fill="#ffffff" g2gfill="#ECF5E4" d="M360.006,381.865l-10.563-0.96l-1.251,0.342   l-1.479,0.569l-13.634,6.705l-0.723,2.486l-2.132,1.043l-0.758-0.604l0,0l-7.877,4.396l-0.605,0.604v1.211l-2.424,1.817   l-1.514,0.153h-1.214l-1.362-0.607l-41.056-23.936l-0.908-0.766l-0.605-1.211v-1.971l0.008-0.406l-0.251-0.534l-1.301-0.771   l-3.858-6.592l-0.455-1.363l-0.455-2.955l0.229-2.045v-3.863l0,0l-0.904-2.955l-2.729-2.386l-1.813-1.603l-1.276-1.854   l-0.201-2.793l0.342-1.866l1.141-2.338l2.271-3.063l-1.363-8.862l-0.905-3.408l-1.141-2.5l-1.59-2.954l-0.909-2.045l0.229-2.272   l1.136-2.949l1.363-2.051l1.813-4.545l-0.228-2.727l-0.455-2.272l-2.953-5.227l-0.909-1.817l0.229-2.046l0.683-2.271l0.686-1.141   l0.452-1.813v-2.045l-0.452-1.818l0.228-1.363l0.909-1.137l35.904-24.089l1.359-0.687l1.141-0.449l1.359,0.227l36.358,11.591   l1.591,0.454l1.137,1.363l0.687,2.045v7.044l0.682,0.228l1.363-1.358l1.814-1.364l2.047-0.682l2.047-0.454l1.359-0.229l2.045-0.683   l2.5-1.817v-0.909l0.455-1.59l1.362-0.909l1.137-0.229l1.362,0.455h1.138l2.5-2.272l0,0l2.5-0.907l21.588,0.229l2.048,0.454   l1.593,0.455l2.499,1.358l3.183,2.05l11.135,9.999l1.143,1.359l8.828,15.923l-0.153,1.063l2.188,3.944l1.106,0.666l0.756,1.354   l1.137,2.272l0.229,1.59l-0.454,0.91l-3.637,3.181l-0.229,0.688l-1.59,1.813l-0.682,1.818l-0.456,1.358l-0.229,0.687l0.454,13.181   l-0.454,2.5l-1.592,4.317v2.271l-0.229,2.046l-4.547,8.642l-11.358,13.18l-11.591,10.682l-1.141,0.688l-0.906-0.229l-0.983,0.428   l-1.051,0.342c-2.438,2.813-5.268,5.254-8.279,6.995c-3.285,1.896-6.345,2.706-8.919,2.541L360.006,381.865z" outline-element="true" stroke="#000000" stroke-width="0.5" g2gstroke="#312783" stroke-miterlimit="10"/>
	
		<line orgstroke="#000000" orgfill="none" fill="none" x1="272.204" x2="271.92" y1="345.467" y2="369.718" stroke="#000000" stroke-width="0.25" g2gstroke="#312783" stroke-miterlimit="10"/>
	<polyline orgstroke="#000000" orgfill="none" points="296.296,289.939 293.267,288.274    292.66,288.274 290.842,289.484 290.54,290.848 283.116,295.242 281.297,295.242 277.965,297.06 277.662,297.969 277.662,317.207    269.95,323.457  " fill="none" stroke="#000000" stroke-width="0.25" g2gstroke="#312783" stroke-miterlimit="10"/>
	<polyline orgstroke="#000000" orgfill="none" points="278.776,296.817 311.144,316.148    311.447,317.058 312.053,342.51 315.083,346.302 315.234,371.141 317.657,376.298 317.657,397.654  " fill="none" stroke="#000000" stroke-width="0.25" g2gstroke="#312783" stroke-miterlimit="10"/>
	<polyline orgstroke="#000000" orgfill="none" points="282.406,295.002 314.772,314.34    315.076,315.242 315.681,340.693 318.712,344.482 318.863,369.326 321.285,374.479 321.285,395.844  " fill="none" stroke="#000000" stroke-width="0.25" g2gstroke="#312783" stroke-miterlimit="10"/>
	<polyline orgstroke="#000000" orgfill="none" points="291.431,289.666 323.798,308.995    324.102,309.904 324.708,335.356 327.738,339.146 327.889,363.99 330.313,369.143 330.313,391.76  " fill="none" stroke="#000000" stroke-width="0.25" g2gstroke="#312783" stroke-miterlimit="10"/>
	<polyline orgstroke="#000000" orgfill="none" points="289.944,290.539 322.312,309.868    322.615,310.778 323.221,336.229 326.251,340.019 326.402,364.863 328.826,370.015 328.826,391.382  " fill="none" stroke="#000000" stroke-width="0.25" g2gstroke="#312783" stroke-miterlimit="10"/>
	<polyline orgstroke="#000000" orgfill="none" points="293.382,288.03 325.747,307.362    326.05,308.271 326.656,333.726 329.686,337.51 329.837,362.356 332.262,367.51 332.262,390.881  " fill="none" stroke="#000000" stroke-width="0.25" g2gstroke="#312783" stroke-miterlimit="10"/>
	<path orgstroke="#000000" orgfill="none" fill="none" d="M304.183,354.975   c0,1.967-1.596,2.638-3.561,1.506c-1.965-1.137-3.563-3.65-3.563-5.617c0-1.968,1.594-2.639,3.563-1.507   C302.588,350.492,304.183,353.01,304.183,354.975z" stroke="#000000" stroke-width="0.25" g2gstroke="#312783" stroke-miterlimit="10"/>
	<path orgstroke="#000000" orgfill="none" fill="none" d="M309.858,318.536   c0,0.813-0.649,1.083-1.462,0.617c-0.808-0.466-1.461-1.496-1.461-2.305c0-0.813,0.653-1.083,1.461-0.617   C309.204,316.697,309.858,317.73,309.858,318.536z" stroke="#000000" stroke-width="0.25" g2gstroke="#312783" stroke-miterlimit="10"/>
	<path orgstroke="#000000" orgfill="none" fill="none" d="M282.955,303.081   c0,0.813-0.654,1.083-1.461,0.618c-0.812-0.466-1.467-1.497-1.467-2.305s0.655-1.083,1.467-0.618   C282.301,301.241,282.955,302.277,282.955,303.081z" stroke="#000000" stroke-width="0.25" g2gstroke="#312783" stroke-miterlimit="10"/>
	<path orgstroke="#000000" orgfill="none" fill="none" d="M277.102,354.698   c0,0.81-0.654,1.082-1.462,0.617c-0.808-0.466-1.461-1.499-1.461-2.306c0-0.813,0.653-1.083,1.461-0.619   C276.447,352.856,277.102,353.892,277.102,354.698z" stroke="#000000" stroke-width="0.25" g2gstroke="#312783" stroke-miterlimit="10"/>
	<path orgstroke="#000000" orgfill="none" fill="none" d="M277.989,372.729   c0,0.807-0.649,1.082-1.461,0.617c-0.807-0.465-1.462-1.499-1.462-2.312c0-0.807,0.655-1.083,1.462-0.612   C277.335,370.887,277.989,371.927,277.989,372.729z" stroke="#000000" stroke-width="0.25" g2gstroke="#312783" stroke-miterlimit="10"/>
	<path orgstroke="#000000" orgfill="none" fill="none" d="M295.814,384.089   c0,0.806-0.649,1.084-1.462,0.613c-0.808-0.467-1.461-1.499-1.461-2.306c0-0.81,0.653-1.084,1.461-0.619   C295.16,382.243,295.814,383.277,295.814,384.089z" stroke="#000000" stroke-width="0.25" g2gstroke="#312783" stroke-miterlimit="10"/>
	<path orgstroke="#000000" orgfill="none" fill="none" d="M315.744,394.438   c0,0.807-0.654,1.083-1.461,0.617c-0.813-0.464-1.467-1.496-1.467-2.304c0-0.813,0.654-1.083,1.467-0.618   C315.09,392.598,315.744,393.635,315.744,394.438z" stroke="#000000" stroke-width="0.25" g2gstroke="#312783" stroke-miterlimit="10"/>
	<path orgstroke="#000000" orgfill="none" fill="none" d="M315.744,378.302   c0,0.807-0.654,1.083-1.461,0.618c-0.813-0.471-1.467-1.498-1.467-2.31c0-0.81,0.654-1.083,1.467-0.619   C315.09,376.465,315.744,377.492,315.744,378.302z" stroke="#000000" stroke-width="0.25" g2gstroke="#312783" stroke-miterlimit="10"/>
	<path orgstroke="#000000" orgfill="none" fill="none" d="M313.132,349.108   c0,0.809-0.653,1.083-1.461,0.618c-0.813-0.466-1.461-1.499-1.461-2.307c0-0.812,0.649-1.082,1.461-0.618   C312.478,347.268,313.132,348.303,313.132,349.108z" stroke="#000000" stroke-width="0.25" g2gstroke="#312783" stroke-miterlimit="10"/>
	<path orgstroke="#000000" orgfill="none" fill="none" d="M282.405,313.332   c2.354-1.72,6.063-1.563,10.239,0.85c7.111,4.103,12.878,13.205,12.878,20.313c0,2.946-0.984,5.088-2.649,6.3" stroke="#000000" stroke-width="0.25" g2gstroke="#312783" stroke-miterlimit="10"/>
	<path orgstroke="#000000" orgfill="none" fill="none" d="M288.146,342.564   c0,5.969-4.841,8.015-10.813,4.567c-5.968-3.442-10.813-11.083-10.813-17.061c0-5.964,4.847-8.008,10.813-4.563   C283.306,328.955,288.146,336.596,288.146,342.564z" stroke="#000000" stroke-width="0.25" g2gstroke="#312783" stroke-miterlimit="10"/>
	<path orgstroke="#000000" orgfill="none" fill="none" d="M280.524,341.762   c0,3.509-2.841,4.704-6.346,2.682c-3.504-2.021-6.346-6.505-6.346-10.01s2.842-4.703,6.346-2.684   C277.681,333.772,280.524,338.26,280.524,341.762z" stroke="#000000" stroke-width="0.25" g2gstroke="#312783" stroke-miterlimit="10"/>
	
		<line orgstroke="#000000" orgfill="none" fill="none" x1="277.662" x2="282.405" y1="317.207" y2="313.332" stroke="#000000" stroke-width="0.25" g2gstroke="#312783" stroke-miterlimit="10"/>
	
		<line orgstroke="#000000" orgfill="none" fill="none" x1="285.086" x2="302.868" y1="348.267" y2="340.788" stroke="#000000" stroke-width="0.25" g2gstroke="#312783" stroke-miterlimit="10"/>
	<polyline orgstroke="#000000" orgfill="none" points="280.524,350.233 280.524,371.552    281.141,372.329 309.858,389.26 311.263,388.676 311.263,372.437 309.105,367.853 308.971,345.741 306.272,342.372    305.735,319.722 305.466,318.912 282.405,305.27 281.213,305.687 281.213,313.994  " fill="none" stroke="#000000" stroke-width="0.25" g2gstroke="#312783" stroke-miterlimit="10"/>
	<polyline orgstroke="#000000" orgfill="none" points="301.011,292.587 330.583,276.031    332.855,275.122 333.537,275.122 335.81,274.894 337.173,275.349 338.309,275.349 339.091,274.697  " fill="none" stroke="#000000" stroke-width="0.25" g2gstroke="#312783" stroke-miterlimit="10"/>
	<polyline orgstroke="#000000" orgfill="none" points="359.958,264.015 360.974,263.646    382.563,263.873 384.607,264.327 386.198,264.782 388.698,266.146 391.879,268.191 403.015,278.189 404.15,279.553 416.877,302.51    418.013,304.777 418.125,305.556  " fill="none" stroke="#000000" stroke-width="0.25" g2gstroke="#312783" stroke-miterlimit="10"/>
	<polyline orgstroke="#000000" orgfill="none" points="374.441,296.029 375.805,293.529    377.168,291.483 378.647,289.779 380.577,287.961 382.738,286.371 385.011,284.894 387.056,283.984 388.758,283.644    390.805,283.644 392.964,283.871 394.667,284.438 396.484,285.234 397.848,286.371 398.757,287.393 400.009,289.097    400.919,290.688 401.827,292.62 402.394,294.438 402.736,296.482 402.736,298.868 402.62,302.392 402.054,304.662 401.256,306.822    400.575,308.527 400.237,309.552 400.237,310.346 400.575,311.367 401.256,312.276 401.601,313.186 401.938,314.552    401.827,315.911 401.601,322.161 401.256,326.82 401.031,329.888 400.691,333.07 400.009,336.364 399.211,339.552 397.282,343.182    395.691,345.344 393.304,348.183 391.375,350.228 388.758,352.05  " fill="none" stroke="#000000" stroke-width="0.25" g2gstroke="#312783" stroke-miterlimit="10"/>
	<polyline orgstroke="#000000" orgfill="none" points="397.922,307.892 397.58,308.911    397.58,309.714 397.922,310.73 398.604,311.64 398.943,312.552 399.285,313.91 399.171,315.275 398.943,321.526 398.604,326.183    398.375,329.258 398.036,332.435 397.354,335.729 396.558,338.91 394.627,342.552 393.036,344.705 390.648,347.551    388.717,349.594  " fill="none" stroke="#000000" stroke-width="0.25" g2gstroke="#312783" stroke-miterlimit="10"/>
	<path orgstroke="#000000" orgfill="none" fill="none" d="M385.553,354.651   c0-7.613-6.174-10.221-13.782-5.826c-7.607,4.396-13.782,14.132-13.782,21.743c0,7.61,6.176,10.213,13.782,5.82   C379.383,371.994,385.553,362.263,385.553,354.651z" stroke="#000000" stroke-width="0.25" g2gstroke="#312783" stroke-miterlimit="10"/>
	<path orgstroke="#000000" orgfill="none" fill="none" d="M380.56,371.688   c4.577-5.584,7.607-12.472,7.607-18.316c0-9.136-7.407-12.268-16.542-6.987c-9.142,5.269-16.544,16.962-16.544,26.096   c0,5.118,2.321,8.353,5.979,9.273" stroke="#000000" stroke-width="0.25" g2gstroke="#312783" stroke-miterlimit="10"/>
	<path orgstroke="#000000" orgfill="none" fill="none" d="M387.852,348.3   c-0.91-8.906-8.854-11.694-18.521-6.112c-10.274,5.934-18.609,19.084-18.609,29.361c0,4.313,1.473,7.439,3.943,9.178" stroke="#000000" stroke-width="0.25" g2gstroke="#312783" stroke-miterlimit="10"/>
	<path orgstroke="#000000" orgfill="none" fill="none" d="M346.605,379.764   c0.242,0.469,0.517,0.907,0.809,1.313" stroke="#000000" stroke-width="0.25" g2gstroke="#312783" stroke-miterlimit="10"/>
	<path orgstroke="#000000" orgfill="none" fill="none" d="M353.851,349.557   c-5.355,7.164-8.826,15.612-8.826,22.859c0,0.838,0.046,1.635,0.144,2.395" stroke="#000000" stroke-width="0.25" g2gstroke="#312783" stroke-miterlimit="10"/>
	<path orgstroke="#000000" orgfill="none" fill="none" d="M377.852,333.819   c-2.503,0.104-5.296,0.83-8.257,2.238" stroke="#000000" stroke-width="0.25" g2gstroke="#312783" stroke-miterlimit="10"/>
	<path orgstroke="#000000" orgfill="none" fill="none" d="M377.259,359.439   c0-3.031-2.458-4.069-5.489-2.32c-3.023,1.75-5.482,5.628-5.482,8.658s2.459,4.065,5.482,2.317   C374.802,366.346,377.259,362.471,377.259,359.439z" stroke="#000000" stroke-width="0.25" g2gstroke="#312783" stroke-miterlimit="10"/>
	<path orgstroke="#000000" orgfill="none" fill="none" d="M366.28,337.177   c0-3.029-2.457-4.068-5.483-2.318c-3.029,1.749-5.487,5.626-5.487,8.657c0,3.03,2.458,4.063,5.487,2.313   C363.823,344.079,366.28,340.204,366.28,337.177z" stroke="#000000" stroke-width="0.25" g2gstroke="#312783" stroke-miterlimit="10"/>
	<path orgstroke="#000000" orgfill="none" fill="none" d="M379.055,314.802   c0-2.779-2.256-3.733-5.037-2.128c-2.781,1.604-5.035,5.162-5.035,7.938c0,2.777,2.254,3.732,5.035,2.126   C376.798,321.14,379.055,317.582,379.055,314.802z" stroke="#000000" stroke-width="0.25" g2gstroke="#312783" stroke-miterlimit="10"/>
	<path orgstroke="#000000" orgfill="none" fill="none" d="M380.675,313.719   c0-3.675-2.98-4.938-6.657-2.816s-6.654,6.825-6.654,10.5c0,3.674,2.979,4.938,6.654,2.813   C377.694,322.094,380.675,317.393,380.675,313.719z" stroke="#000000" stroke-width="0.25" g2gstroke="#312783" stroke-miterlimit="10"/>
	<path orgstroke="#000000" orgfill="none" fill="none" d="M382.164,320.678   c1.938-3.604,3.098-7.399,3.098-10.8c0-8.102-6.565-10.871-14.66-6.198c-0.249,0.145-0.494,0.292-0.739,0.438" stroke="#000000" stroke-width="0.25" g2gstroke="#312783" stroke-miterlimit="10"/>
	<path orgstroke="#000000" orgfill="none" fill="none" d="M377.348,308.927   c-1.216-0.869-3.123-0.783-5.266,0.455c-3.681,2.115-6.657,6.817-6.657,10.499c0,1.511,0.503,2.607,1.354,3.234" stroke="#000000" stroke-width="0.25" g2gstroke="#312783" stroke-miterlimit="10"/>
	<path orgstroke="#000000" orgfill="none" fill="none" d="M368.93,335.26c0-4.617-3.743-6.199-8.361-3.534   c-4.613,2.664-8.355,8.571-8.355,13.188c0,4.615,3.743,6.197,8.355,3.533C365.187,345.778,368.93,339.88,368.93,335.26z" stroke="#000000" stroke-width="0.25" g2gstroke="#312783" stroke-miterlimit="10"/>
	<path orgstroke="#000000" orgfill="none" fill="none" d="M350.87,333.06   c-2.111,2.735-3.484,6.008-3.484,8.804c0,1.73,0.526,3.036,1.425,3.854" stroke="#000000" stroke-width="0.25" g2gstroke="#312783" stroke-miterlimit="10"/>
	<path orgstroke="#000000" orgfill="none" fill="none" d="M354.282,329.648   c-0.134,0.096-0.26,0.195-0.386,0.299" stroke="#000000" stroke-width="0.25" g2gstroke="#312783" stroke-miterlimit="10"/>
	<path orgstroke="#000000" orgfill="none" fill="none" d="M355.746,328.677   c-0.501,0.289-0.989,0.608-1.463,0.973" stroke="#000000" stroke-width="0.25" g2gstroke="#312783" stroke-miterlimit="10"/>
	<path orgstroke="#000000" orgfill="none" fill="none" d="M362.181,327.985   c-0.488-0.306-1.059-0.499-1.688-0.572" stroke="#000000" stroke-width="0.25" g2gstroke="#312783" stroke-miterlimit="10"/>
	
		<line orgstroke="#000000" orgfill="none" fill="none" x1="362.181" x2="367.225" y1="327.985" y2="331.183" stroke="#000000" stroke-width="0.25" g2gstroke="#312783" stroke-miterlimit="10"/>
	
		<line orgstroke="#000000" orgfill="none" fill="none" x1="348.811" x2="353.729" y1="345.717" y2="348.841" stroke="#000000" stroke-width="0.25" g2gstroke="#312783" stroke-miterlimit="10"/>
	<path orgstroke="#000000" orgfill="none" fill="none" d="M384.306,296.504   c0-1.067-0.867-1.438-1.938-0.816c-1.072,0.621-1.938,1.984-1.938,3.059s0.869,1.438,1.938,0.819   C383.438,298.941,384.306,297.573,384.306,296.504z" stroke="#000000" stroke-width="0.25" g2gstroke="#312783" stroke-miterlimit="10"/>
	<path orgstroke="#000000" orgfill="none" fill="none" d="M399.708,289.227   c0-1.96-1.587-2.629-3.544-1.502c-1.958,1.133-3.546,3.636-3.546,5.593c0,1.959,1.587,2.631,3.546,1.499   C398.12,293.687,399.708,291.184,399.708,289.227z" stroke="#000000" stroke-width="0.25" g2gstroke="#312783" stroke-miterlimit="10"/>
	<path orgstroke="#000000" orgfill="none" fill="none" d="M401.607,294.931   c0-1.959-1.587-2.636-3.544-1.501c-1.958,1.132-3.546,3.635-3.546,5.592c0,1.958,1.587,2.629,3.546,1.497   C400.02,299.391,401.607,296.888,401.607,294.931z" stroke="#000000" stroke-width="0.25" g2gstroke="#312783" stroke-miterlimit="10"/>
	<path orgstroke="#000000" orgfill="none" fill="none" d="M402.151,301.613   c0-1.959-1.589-2.631-3.546-1.501c-1.957,1.132-3.544,3.635-3.544,5.592c0,1.96,1.587,2.636,3.544,1.499   C400.562,306.073,402.151,303.57,402.151,301.613z" stroke="#000000" stroke-width="0.25" g2gstroke="#312783" stroke-miterlimit="10"/>
	<path orgstroke="#000000" orgfill="none" fill="none" d="M393.802,277.065   c0-1.316-1.064-1.771-2.382-1.01c-1.314,0.76-2.381,2.438-2.381,3.756c0,1.313,1.063,1.768,2.381,1.007   C392.738,280.061,393.802,278.379,393.802,277.065z" stroke="#000000" stroke-width="0.25" g2gstroke="#312783" stroke-miterlimit="10"/>
	<path orgstroke="#000000" orgfill="none" fill="none" d="M385.912,295.576   c0-1.962-1.587-2.633-3.544-1.504c-1.958,1.134-3.55,3.638-3.55,5.594c0,1.96,1.592,2.637,3.55,1.497   C384.325,300.036,385.912,297.534,385.912,295.576z" stroke="#000000" stroke-width="0.25" g2gstroke="#312783" stroke-miterlimit="10"/>
	<path orgstroke="#000000" orgfill="none" fill="none" d="M392.911,298.448   c0-1.072-0.87-1.439-1.939-0.821c-1.07,0.619-1.938,1.988-1.938,3.062s0.865,1.438,1.938,0.82   C392.042,300.886,392.911,299.517,392.911,298.448z" stroke="#000000" stroke-width="0.25" g2gstroke="#312783" stroke-miterlimit="10"/>
	<path orgstroke="#000000" orgfill="none" fill="none" d="M394.515,297.52   c0-1.961-1.587-2.631-3.544-1.503c-1.958,1.133-3.547,3.637-3.547,5.593c0,1.96,1.588,2.629,3.547,1.497   C392.928,301.979,394.515,299.477,394.515,297.52z" stroke="#000000" stroke-width="0.25" g2gstroke="#312783" stroke-miterlimit="10"/>
	<path orgstroke="#000000" orgfill="none" fill="none" d="M383.05,292.49   c-0.65-0.407-1.632-0.341-2.729,0.292c-1.956,1.132-3.542,3.635-3.542,5.594c0,0.731,0.229,1.285,0.604,1.634" stroke="#000000" stroke-width="0.25" g2gstroke="#312783" stroke-miterlimit="10"/>
	
		<line orgstroke="#000000" orgfill="none" fill="none" x1="383.05" x2="385.19" y1="292.49" y2="293.846" stroke="#000000" stroke-width="0.25" g2gstroke="#312783" stroke-miterlimit="10"/>
	
		<line orgstroke="#000000" orgfill="none" fill="none" x1="377.382" x2="379.468" y1="300.01" y2="301.331" stroke="#000000" stroke-width="0.25" g2gstroke="#312783" stroke-miterlimit="10"/>
	<path orgstroke="#000000" orgfill="none" fill="none" d="M346.856,377.742   c0-1.96-1.589-2.631-3.545-1.502c-1.958,1.133-3.545,3.642-3.545,5.599c0,1.961,1.587,2.63,3.545,1.492   C345.269,382.202,346.856,379.699,346.856,377.742z" stroke="#000000" stroke-width="0.25" g2gstroke="#312783" stroke-miterlimit="10"/>
	<path orgstroke="#000000" orgfill="none" fill="none" d="M343.994,374.657   c-0.651-0.402-1.636-0.341-2.729,0.293c-1.958,1.131-3.545,3.64-3.545,5.6c0,0.729,0.224,1.279,0.605,1.629" stroke="#000000" stroke-width="0.25" g2gstroke="#312783" stroke-miterlimit="10"/>
	
		<line orgstroke="#000000" orgfill="none" fill="none" x1="343.994" x2="346.133" y1="374.657" y2="376.015" stroke="#000000" stroke-width="0.25" g2gstroke="#312783" stroke-miterlimit="10"/>
	
		<line orgstroke="#000000" orgfill="none" fill="none" x1="338.323" x2="340.41" y1="382.177" y2="383.498" stroke="#000000" stroke-width="0.25" g2gstroke="#312783" stroke-miterlimit="10"/>
	<path orgstroke="#000000" orgfill="none" fill="none" d="M347.08,361.077c0-2.855-2.318-3.842-5.18-2.188   c-2.854,1.646-5.177,5.306-5.177,8.163c0,2.854,2.315,3.838,5.177,2.186C344.761,367.594,347.08,363.933,347.08,361.077z" stroke="#000000" stroke-width="0.25" g2gstroke="#312783" stroke-miterlimit="10"/>
	<path orgstroke="#000000" orgfill="none" fill="none" d="M332.614,369.537   c1.125,0.854,2.821,0.927,4.771,0.068" stroke="#000000" stroke-width="0.25" g2gstroke="#312783" stroke-miterlimit="10"/>
	<path orgstroke="#000000" orgfill="none" fill="none" d="M345.615,357.715   c0-3.99-3.229-5.358-7.218-3.063c-3.484,2.021-6.396,6.173-7.068,9.854" stroke="#000000" stroke-width="0.25" g2gstroke="#312783" stroke-miterlimit="10"/>
	<path orgstroke="#000000" orgfill="none" fill="none" d="M342.902,356.573   c-0.945-0.598-2.384-0.497-3.98,0.434c-2.856,1.646-5.176,5.305-5.176,8.161c0,1.066,0.323,1.874,0.884,2.383" stroke="#000000" stroke-width="0.25" g2gstroke="#312783" stroke-miterlimit="10"/>
	
		<line orgstroke="#000000" orgfill="none" fill="none" x1="342.902" x2="346.025" y1="356.573" y2="358.553" stroke="#000000" stroke-width="0.25" g2gstroke="#312783" stroke-miterlimit="10"/>
	
		<line orgstroke="#000000" orgfill="none" fill="none" x1="334.625" x2="337.667" y1="367.551" y2="369.479" stroke="#000000" stroke-width="0.25" g2gstroke="#312783" stroke-miterlimit="10"/>
	<polyline orgstroke="#000000" orgfill="none" points="353.592,349.094 337.515,354.771    337.06,354.658 337.06,354.658 336.833,354.261 336.151,351.703 336.491,351.136 337.515,350.397 347.742,345.228  " fill="none" stroke="#000000" stroke-width="0.25" g2gstroke="#312783" stroke-miterlimit="10"/>
	
		<line orgstroke="#000000" orgfill="none" fill="none" x1="336.775" x2="352.5" y1="353.123" y2="346.932" stroke="#000000" stroke-width="0.25" g2gstroke="#312783" stroke-miterlimit="10"/>
	
		<line orgstroke="#000000" orgfill="none" fill="none" x1="355.58" x2="345.524" y1="335.683" y2="320.969" stroke="#000000" stroke-width="0.25" g2gstroke="#312783" stroke-miterlimit="10"/>
	<polyline orgstroke="#000000" orgfill="none" points="355.58,335.683 351.072,332.802    345.184,324.435 345.07,324.206 345.184,320.855 345.354,320.685 347.115,320.4 347.57,320.515 356.944,334.034  " fill="none" stroke="#000000" stroke-width="0.25" g2gstroke="#312783" stroke-miterlimit="10"/>
	
		<line orgstroke="#000000" orgfill="none" fill="none" x1="360.068" x2="362.265" y1="327.52" y2="330.854" stroke="#000000" stroke-width="0.25" g2gstroke="#312783" stroke-miterlimit="10"/>
	<polyline orgstroke="#000000" orgfill="none" points="355.88,328.616 352.208,320.116    352.322,319.719 354.481,319.207 354.708,319.383 360.068,327.52  " fill="none" stroke="#000000" stroke-width="0.25" g2gstroke="#312783" stroke-miterlimit="10"/>
	<polyline orgstroke="#000000" orgfill="none" points="360.105,332.052 355.923,328.719    355.88,328.616  " fill="none" stroke="#000000" stroke-width="0.25" g2gstroke="#312783" stroke-miterlimit="10"/>
	
		<line orgstroke="#000000" orgfill="none" fill="none" x1="352.322" x2="360.105" y1="319.719" y2="332.052" stroke="#000000" stroke-width="0.25" g2gstroke="#312783" stroke-miterlimit="10"/>
	<polyline orgstroke="#000000" orgfill="none" points="363.912,328.758 366.184,324.206    366.337,323.828 366.715,323.828 368.079,324.59 368.229,325.039 366.863,330.953  " fill="none" stroke="#000000" stroke-width="0.25" g2gstroke="#312783" stroke-miterlimit="10"/>
	
		<line orgstroke="#000000" orgfill="none" fill="none" x1="366.337" x2="365.125" y1="323.828" y2="330.192" stroke="#000000" stroke-width="0.25" g2gstroke="#312783" stroke-miterlimit="10"/>
	<polyline orgstroke="#000000" orgfill="none" points="319.22,261.146 316.835,259.441    316.153,259.214 315.472,259.214 300.586,260.123 298.768,260.578 297.404,261.032 296.269,261.714 294.792,262.509    293.656,263.418 292.52,264.441 278.847,279.289 277.521,281.03 276.725,282.507 276.238,284.013 276.158,285.348 276.385,286.257    276.84,287.052 277.521,287.621 278.43,288.075 289.824,291.271  " fill="none" stroke="#000000" stroke-width="0.25" g2gstroke="#312783" stroke-miterlimit="10"/>
	<polyline orgstroke="#000000" orgfill="none" points="300.87,290.461 318.994,266.259    319.675,264.555 319.79,263.078 319.563,262.282 319.22,261.146  " fill="none" stroke="#000000" stroke-width="0.25" g2gstroke="#312783" stroke-miterlimit="10"/>
	<polyline orgstroke="#000000" orgfill="none" points="318.857,260.887 303.313,261.6    302.064,261.828 300.813,262.055 299.223,262.85 298.086,263.646 296.723,264.555 281.952,280.235 279.793,282.394    279.339,283.303 278.998,284.779 279.112,286.029 279.225,287.052 279.641,287.886 280.271,288.851  " fill="none" stroke="#000000" stroke-width="0.25" g2gstroke="#312783" stroke-miterlimit="10"/>
	<path orgstroke="#000000" orgfill="none" fill="none" d="M317.459,263.675   c0,0.943-0.771,2.15-1.709,2.693c-0.943,0.547-1.709,0.222-1.709-0.722c0-0.944,0.766-2.149,1.709-2.695   C316.693,262.408,317.459,262.731,317.459,263.675z" stroke="#000000" stroke-width="0.25" g2gstroke="#312783" stroke-miterlimit="10"/>
	<path orgstroke="#000000" orgfill="none" fill="none" d="M337.973,294.015c0,0.94-0.766,2.147-1.709,2.69   c-0.944,0.544-1.709,0.227-1.709-0.724c0-0.941,0.765-2.149,1.709-2.694C337.208,292.749,337.973,293.073,337.973,294.015z" stroke="#000000" stroke-width="0.25" g2gstroke="#312783" stroke-miterlimit="10"/>
	<path orgstroke="#000000" orgfill="none" fill="none" d="M347.895,274.818   c0,0.938-0.768,2.146-1.71,2.695c-0.938,0.545-1.709,0.222-1.709-0.728c0-0.938,0.771-2.146,1.709-2.696   C347.127,273.55,347.895,273.872,347.895,274.818z" stroke="#000000" stroke-width="0.25" g2gstroke="#312783" stroke-miterlimit="10"/>
	<path orgstroke="#000000" orgfill="none" fill="none" d="M331.485,298.109   c0,0.944-0.765,2.151-1.709,2.695c-0.938,0.544-1.708,0.221-1.708-0.722c0-0.944,0.77-2.151,1.708-2.696   C330.72,296.844,331.485,297.167,331.485,298.109z" stroke="#000000" stroke-width="0.25" g2gstroke="#312783" stroke-miterlimit="10"/>
	<path orgstroke="#000000" orgfill="none" fill="none" d="M284.89,283.313c0,0.94-0.767,2.147-1.709,2.69   c-0.942,0.546-1.708,0.227-1.708-0.723c0-0.941,0.766-2.148,1.708-2.695C284.124,282.046,284.89,282.371,284.89,283.313z" stroke="#000000" stroke-width="0.25" g2gstroke="#312783" stroke-miterlimit="10"/>
	<path orgstroke="#000000" orgfill="none" fill="none" d="M266.22,341.519   c0,0.721-0.589,1.647-1.313,2.066c-0.729,0.417-1.313,0.169-1.313-0.561c0-0.723,0.587-1.646,1.313-2.064   C265.632,340.551,266.22,340.798,266.22,341.519z" stroke="#000000" stroke-width="0.25" g2gstroke="#312783" stroke-miterlimit="10"/>
	<path orgstroke="#000000" orgfill="none" fill="none" d="M264.908,313.239   c0,0.728-0.593,1.649-1.313,2.066c-0.725,0.419-1.312,0.17-1.312-0.554c0-0.729,0.587-1.65,1.312-2.071   C264.32,312.267,264.908,312.514,264.908,313.239z" stroke="#000000" stroke-width="0.25" g2gstroke="#312783" stroke-miterlimit="10"/>
	<path orgstroke="#000000" orgfill="none" fill="none" d="M264.457,289.38   c0,0.727-0.587,1.648-1.313,2.067c-0.725,0.419-1.312,0.17-1.312-0.555c0-0.728,0.587-1.648,1.312-2.071   C263.873,288.407,264.457,288.655,264.457,289.38z" stroke="#000000" stroke-width="0.25" g2gstroke="#312783" stroke-miterlimit="10"/>
	<path orgstroke="#000000" orgfill="none" fill="none" d="M270.421,281.358   c0,0.724-0.588,1.646-1.313,2.063c-0.723,0.417-1.312,0.173-1.312-0.556c0-0.724,0.587-1.646,1.312-2.07   C269.833,280.387,270.421,280.634,270.421,281.358z" stroke="#000000" stroke-width="0.25" g2gstroke="#312783" stroke-miterlimit="10"/>
	<path orgstroke="#000000" orgfill="none" fill="none" d="M309.803,270.239   c0,5.673-4.599,12.925-10.269,16.199c-5.679,3.271-10.272,1.333-10.272-4.341c0-5.677,4.599-12.931,10.272-16.202   C305.206,262.623,309.803,264.567,309.803,270.239z" stroke="#000000" stroke-width="0.25" g2gstroke="#312783" stroke-miterlimit="10"/>
	<path orgstroke="#000000" orgfill="none" fill="none" d="M281.355,275.686   c0.522-5.481,4.899-12.06,10.226-15.126c3.383-1.955,6.385-2.049,8.256-0.604" stroke="#000000" stroke-width="0.25" g2gstroke="#312783" stroke-miterlimit="10"/>
	<path orgstroke="#000000" orgfill="none" fill="none" d="M305.875,264.668   c0.79,0.998,1.234,2.408,1.234,4.185c0,5.674-4.597,12.926-10.268,16.195c-2.027,1.177-3.917,1.679-5.511,1.581" stroke="#000000" stroke-width="0.25" g2gstroke="#312783" stroke-miterlimit="10"/>
	<polyline orgstroke="#000000" orgfill="none" points="300.87,290.461 300.056,290.953    299.146,291.105  " fill="none" stroke="#000000" stroke-width="0.25" g2gstroke="#312783" stroke-miterlimit="10"/>
	<polyline orgstroke="#000000" orgfill="none" points="302.291,253.079 301.268,253.079    299.792,253.76 264.681,276.372  " fill="none" stroke="#000000" stroke-width="0.25" g2gstroke="#312783" stroke-miterlimit="10"/>
	<polyline orgstroke="#000000" orgfill="none" points="262.502,287.791 261.48,288.473    260.912,289.609 260.798,291.427 261.252,292.676 264.32,298.59  " fill="none" stroke="#000000" stroke-width="0.25" g2gstroke="#312783" stroke-miterlimit="10"/>
	<polyline orgstroke="#000000" orgfill="none" points="267.068,279.553 267.977,278.758    269.341,278.076 270.362,278.076 271.044,278.189 272.407,278.985 273.658,280.348 274.794,281.939 275.477,282.621    276.525,283.127  " fill="none" stroke="#000000" stroke-width="0.25" g2gstroke="#312783" stroke-miterlimit="10"/>
	<polyline orgstroke="#000000" orgfill="none" points="266.044,283.644 266.499,284.894    267.408,285.802 268.771,286.598 270.135,286.825 271.498,287.28 272.976,288.302  " fill="none" stroke="#000000" stroke-width="0.25" g2gstroke="#312783" stroke-miterlimit="10"/>
	<polyline orgstroke="#000000" orgfill="none" points="268.771,287.506 267.522,287.506    266.386,287.961 265.817,288.529 265.136,289.893 265.136,291.483 265.362,294.21 265.136,295.915 265.023,297.165    264.908,298.868  " fill="none" stroke="#000000" stroke-width="0.25" g2gstroke="#312783" stroke-miterlimit="10"/>
	
		<line orgstroke="#000000" orgfill="none" fill="none" x1="261.272" x2="277.662" y1="302.163" y2="312.845" stroke="#000000" stroke-width="0.25" g2gstroke="#312783" stroke-miterlimit="10"/>
	<polyline orgstroke="#000000" orgfill="none" points="260.363,306.027 264.454,309.095    265.023,309.776 265.477,310.802 265.932,318.64 265.817,319.775 265.136,320.457 262.409,321.821 260.49,321.967  " fill="none" stroke="#000000" stroke-width="0.25" g2gstroke="#312783" stroke-miterlimit="10"/>
	<polyline orgstroke="#000000" orgfill="none" points="264.227,309.552 262.296,311.367    261.045,313.412 261.045,314.662 261.387,316.258 262.636,319.552 263.317,320.571 264.272,320.89  " fill="none" stroke="#000000" stroke-width="0.25" g2gstroke="#312783" stroke-miterlimit="10"/>
	<polyline orgstroke="#000000" orgfill="none" points="262.636,333.757 266.499,335.006    267.068,335.455 266.726,337.506 266.614,338.302 266.614,338.865 267.068,341.137 268.204,343.756 269.567,345.228    272.185,346.932  " fill="none" stroke="#000000" stroke-width="0.25" g2gstroke="#312783" stroke-miterlimit="10"/>
	<polyline orgstroke="#000000" orgfill="none" points="267.068,335.455 263.432,338.448    262.181,340.788 262.181,343.069 263.659,345.228 265.392,346.577 266.726,347.728 268.089,349.094  " fill="none" stroke="#000000" stroke-width="0.25" g2gstroke="#312783" stroke-miterlimit="10"/>
	
		<line orgstroke="#000000" orgfill="none" fill="none" x1="264.908" x2="268.544" y1="349.657" y2="351.136" stroke="#000000" stroke-width="0.25" g2gstroke="#312783" stroke-miterlimit="10"/>
	<polyline orgstroke="#000000" orgfill="none" points="266.044,361.477 266.954,362.498    268.886,363.181 269.795,363.406 271.726,363.066  " fill="none" stroke="#000000" stroke-width="0.25" g2gstroke="#312783" stroke-miterlimit="10"/>
	<polyline orgstroke="#000000" orgfill="none" points="258.772,282.848 260.59,283.303    261.954,283.984 262.75,284.779 263.999,285.802 264.908,286.598 265.817,287.052  " fill="none" stroke="#000000" stroke-width="0.25" g2gstroke="#312783" stroke-miterlimit="10"/>
	<polyline orgstroke="#000000" orgfill="none" points="285.36,293.415 277.749,288.302    276.952,288.302 274.794,288.984 274.34,289.552 274.453,292.051  " fill="none" stroke="#000000" stroke-width="0.25" g2gstroke="#312783" stroke-miterlimit="10"/>
	
		<line orgstroke="#000000" orgfill="none" fill="none" x1="274.794" x2="282.748" y1="289.666" y2="295.207" stroke="#000000" stroke-width="0.25" g2gstroke="#312783" stroke-miterlimit="10"/>
	<polyline orgstroke="#000000" orgfill="none" points="279.567,295.801 275.589,292.506    274.794,292.165 273.885,292.392 271.726,294.097 271.386,295.006 271.158,295.801 271.727,308.978  " fill="none" stroke="#000000" stroke-width="0.25" g2gstroke="#312783" stroke-miterlimit="10"/>
	
		<line orgstroke="#000000" orgfill="none" fill="none" x1="271.953" x2="277.662" y1="294.666" y2="299.097" stroke="#000000" stroke-width="0.25" g2gstroke="#312783" stroke-miterlimit="10"/>
	<polyline orgstroke="#000000" orgfill="none" points="264.341,277.053 265.362,276.712    266.499,276.712 267.75,277.053 271.044,278.189  " fill="none" stroke="#000000" stroke-width="0.25" g2gstroke="#312783" stroke-miterlimit="10"/>
	
		<line orgstroke="#000000" orgfill="none" fill="none" x1="314.819" x2="322.407" y1="314.4" y2="310.157" stroke="#000000" stroke-width="0.25" g2gstroke="#312783" stroke-miterlimit="10"/>
	
		<line orgstroke="#000000" orgfill="none" fill="none" x1="318.542" x2="326.13" y1="344.323" y2="340.082" stroke="#000000" stroke-width="0.25" g2gstroke="#312783" stroke-miterlimit="10"/>
	
		<line orgstroke="#000000" orgfill="none" fill="none" x1="321.073" x2="328.661" y1="374.325" y2="370.09" stroke="#000000" stroke-width="0.25" g2gstroke="#312783" stroke-miterlimit="10"/>
	
		<line orgstroke="#000000" orgfill="none" fill="none" x1="318.58" x2="326.171" y1="369.115" y2="364.872" stroke="#000000" stroke-width="0.25" g2gstroke="#312783" stroke-miterlimit="10"/>
	
		<line orgstroke="#000000" orgfill="none" fill="none" x1="315.465" x2="323.053" y1="340.571" y2="336.329" stroke="#000000" stroke-width="0.25" g2gstroke="#312783" stroke-miterlimit="10"/>
	
		<line orgstroke="#000000" orgfill="none" fill="none" x1="311.263" x2="314.461" y1="316.01" y2="314.147" stroke="#000000" stroke-width="0.25" g2gstroke="#312783" stroke-miterlimit="10"/>
	
		<line orgstroke="#000000" orgfill="none" fill="none" x1="312.265" x2="315.465" y1="342.199" y2="340.344" stroke="#000000" stroke-width="0.25" g2gstroke="#312783" stroke-miterlimit="10"/>
	
		<line orgstroke="#000000" orgfill="none" fill="none" x1="315.101" x2="318.301" y1="346.156" y2="344.302" stroke="#000000" stroke-width="0.25" g2gstroke="#312783" stroke-miterlimit="10"/>
	
		<line orgstroke="#000000" orgfill="none" fill="none" x1="315.101" x2="318.301" y1="370.803" y2="368.945" stroke="#000000" stroke-width="0.25" g2gstroke="#312783" stroke-miterlimit="10"/>
	
		<line orgstroke="#000000" orgfill="none" fill="none" x1="317.659" x2="320.858" y1="376.184" y2="374.325" stroke="#000000" stroke-width="0.25" g2gstroke="#312783" stroke-miterlimit="10"/>
	
		<line orgstroke="#000000" orgfill="none" fill="none" x1="323.54" x2="326.071" y1="309.144" y2="307.677" stroke="#000000" stroke-width="0.25" g2gstroke="#312783" stroke-miterlimit="10"/>
	
		<line orgstroke="#000000" orgfill="none" fill="none" x1="324.66" x2="326.987" y1="335.291" y2="333.939" stroke="#000000" stroke-width="0.25" g2gstroke="#312783" stroke-miterlimit="10"/>
	
		<line orgstroke="#000000" orgfill="none" fill="none" x1="327.703" x2="329.776" y1="339.024" y2="337.821" stroke="#000000" stroke-width="0.25" g2gstroke="#312783" stroke-miterlimit="10"/>
	
		<line orgstroke="#000000" orgfill="none" fill="none" x1="327.754" x2="330.09" y1="363.802" y2="362.441" stroke="#000000" stroke-width="0.25" g2gstroke="#312783" stroke-miterlimit="10"/>
	
		<line orgstroke="#000000" orgfill="none" fill="none" x1="330.09" x2="332.262" y1="369.116" y2="367.853" stroke="#000000" stroke-width="0.25" g2gstroke="#312783" stroke-miterlimit="10"/>
	
		<line orgstroke="#000000" orgfill="none" fill="none" x1="373.305" x2="374.181" y1="356.198" y2="347.646" stroke="#000000" stroke-width="0.25" g2gstroke="#312783" stroke-miterlimit="10"/>
	
		<line orgstroke="#000000" orgfill="none" fill="none" x1="374.785" x2="376.602" y1="356.271" y2="347.272" stroke="#000000" stroke-width="0.25" g2gstroke="#312783" stroke-miterlimit="10"/>
	
		<line orgstroke="#000000" orgfill="none" fill="none" x1="377.259" x2="385.428" y1="359.439" y2="356.573" stroke="#000000" stroke-width="0.25" g2gstroke="#312783" stroke-miterlimit="10"/>
	
		<line orgstroke="#000000" orgfill="none" fill="none" x1="377.259" x2="384.512" y1="360.8" y2="360.515" stroke="#000000" stroke-width="0.25" g2gstroke="#312783" stroke-miterlimit="10"/>
	
		<line orgstroke="#000000" orgfill="none" fill="none" x1="376.83" x2="382.802" y1="362.441" y2="364.506" stroke="#000000" stroke-width="0.25" g2gstroke="#312783" stroke-miterlimit="10"/>
	
		<line orgstroke="#000000" orgfill="none" fill="none" x1="375.768" x2="381.195" y1="364.063" y2="367.221" stroke="#000000" stroke-width="0.25" g2gstroke="#312783" stroke-miterlimit="10"/>
	
		<line orgstroke="#000000" orgfill="none" fill="none" x1="374.785" x2="379.245" y1="365.641" y2="369.872" stroke="#000000" stroke-width="0.25" g2gstroke="#312783" stroke-miterlimit="10"/>
	
		<line orgstroke="#000000" orgfill="none" fill="none" x1="373.744" x2="377.561" y1="366.995" y2="371.773" stroke="#000000" stroke-width="0.25" g2gstroke="#312783" stroke-miterlimit="10"/>
	
		<line orgstroke="#000000" orgfill="none" fill="none" x1="372.161" x2="374.785" y1="367.853" y2="374.318" stroke="#000000" stroke-width="0.25" g2gstroke="#312783" stroke-miterlimit="10"/>
	
		<line orgstroke="#000000" orgfill="none" fill="none" x1="371.376" x2="372.779" y1="368.484" y2="375.768" stroke="#000000" stroke-width="0.25" g2gstroke="#312783" stroke-miterlimit="10"/>
	
		<line orgstroke="#000000" orgfill="none" fill="none" x1="370.239" x2="369.331" y1="368.947" y2="377.453" stroke="#000000" stroke-width="0.25" g2gstroke="#312783" stroke-miterlimit="10"/>
	
		<line orgstroke="#000000" orgfill="none" fill="none" x1="368.533" x2="367.225" y1="368.947" y2="378.243" stroke="#000000" stroke-width="0.25" g2gstroke="#312783" stroke-miterlimit="10"/>
	
		<line orgstroke="#000000" orgfill="none" fill="none" x1="367.225" x2="363.195" y1="368.306" y2="378.243" stroke="#000000" stroke-width="0.25" g2gstroke="#312783" stroke-miterlimit="10"/>
	
		<line orgstroke="#000000" orgfill="none" fill="none" x1="366.42" x2="359.662" y1="366.912" y2="376.184" stroke="#000000" stroke-width="0.25" g2gstroke="#312783" stroke-miterlimit="10"/>
	
		<line orgstroke="#000000" orgfill="none" fill="none" x1="366.071" x2="358.029" y1="365.641" y2="371.552" stroke="#000000" stroke-width="0.25" g2gstroke="#312783" stroke-miterlimit="10"/>
	
		<line orgstroke="#000000" orgfill="none" fill="none" x1="366.353" x2="358.649" y1="364.872" y2="366.995" stroke="#000000" stroke-width="0.25" g2gstroke="#312783" stroke-miterlimit="10"/>
	
		<line orgstroke="#000000" orgfill="none" fill="none" x1="367.021" x2="360.006" y1="362.606" y2="362.224" stroke="#000000" stroke-width="0.25" g2gstroke="#312783" stroke-miterlimit="10"/>
	
		<line orgstroke="#000000" orgfill="none" fill="none" x1="367.676" x2="362.265" y1="361.324" y2="358.553" stroke="#000000" stroke-width="0.25" g2gstroke="#312783" stroke-miterlimit="10"/>
	
		<line orgstroke="#000000" orgfill="none" fill="none" x1="368.618" x2="364.704" y1="359.938" y2="355.344" stroke="#000000" stroke-width="0.25" g2gstroke="#312783" stroke-miterlimit="10"/>
	
		<line orgstroke="#000000" orgfill="none" fill="none" x1="369.592" x2="367.021" y1="358.826" y2="352.408" stroke="#000000" stroke-width="0.25" g2gstroke="#312783" stroke-miterlimit="10"/>
	
		<line orgstroke="#000000" orgfill="none" fill="none" x1="370.971" x2="369.331" y1="357.639" y2="350.661" stroke="#000000" stroke-width="0.25" g2gstroke="#312783" stroke-miterlimit="10"/>
	
		<line orgstroke="#000000" orgfill="none" fill="none" x1="372.077" x2="371.771" y1="356.953" y2="349.094" stroke="#000000" stroke-width="0.25" g2gstroke="#312783" stroke-miterlimit="10"/>
	
		<line orgstroke="#000000" orgfill="none" fill="none" x1="375.652" x2="379.599" y1="356.271" y2="346.932" stroke="#000000" stroke-width="0.25" g2gstroke="#312783" stroke-miterlimit="10"/>
	
		<line orgstroke="#000000" orgfill="none" fill="none" x1="376.602" x2="383.155" y1="356.953" y2="348.267" stroke="#000000" stroke-width="0.25" g2gstroke="#312783" stroke-miterlimit="10"/>
	
		<line orgstroke="#000000" orgfill="none" fill="none" x1="377.259" x2="384.512" y1="357.639" y2="350.661" stroke="#000000" stroke-width="0.25" g2gstroke="#312783" stroke-miterlimit="10"/>
	
		<line orgstroke="#000000" orgfill="none" fill="none" x1="377.259" x2="385.26" y1="358.826" y2="354.15" stroke="#000000" stroke-width="0.25" g2gstroke="#312783" stroke-miterlimit="10"/>
	
		<line orgstroke="#000000" orgfill="none" fill="none" x1="385.26" x2="382.802" y1="354.15" y2="352.731" stroke="#000000" stroke-width="0.25" g2gstroke="#312783" stroke-miterlimit="10"/>
	
		<line orgstroke="#000000" orgfill="none" fill="none" x1="384.512" x2="380.956" y1="360.515" y2="358.553" stroke="#000000" stroke-width="0.25" g2gstroke="#312783" stroke-miterlimit="10"/>
	
		<line orgstroke="#000000" orgfill="none" fill="none" x1="374.785" x2="372.396" y1="373.975" y2="372.549" stroke="#000000" stroke-width="0.25" g2gstroke="#312783" stroke-miterlimit="10"/>
	
		<line orgstroke="#000000" orgfill="none" fill="none" x1="379.05" x2="374.441" y1="369.537" y2="367.103" stroke="#000000" stroke-width="0.25" g2gstroke="#312783" stroke-miterlimit="10"/>
	
		<line orgstroke="#000000" orgfill="none" fill="none" x1="369.331" x2="366.071" y1="358.528" y2="356.799" stroke="#000000" stroke-width="0.25" g2gstroke="#312783" stroke-miterlimit="10"/>
	
		<line orgstroke="#000000" orgfill="none" fill="none" x1="372.077" x2="370.971" y1="356.953" y2="356.271" stroke="#000000" stroke-width="0.25" g2gstroke="#312783" stroke-miterlimit="10"/>
	
		<line orgstroke="#000000" orgfill="none" fill="none" x1="369.331" x2="367.878" y1="377.453" y2="376.617" stroke="#000000" stroke-width="0.25" g2gstroke="#312783" stroke-miterlimit="10"/>
	
		<line orgstroke="#000000" orgfill="none" fill="none" x1="363.195" x2="359.868" y1="378.243" y2="376.426" stroke="#000000" stroke-width="0.25" g2gstroke="#312783" stroke-miterlimit="10"/>
	
		<line orgstroke="#000000" orgfill="none" fill="none" x1="367.021" x2="361.53" y1="362.606" y2="359.532" stroke="#000000" stroke-width="0.25" g2gstroke="#312783" stroke-miterlimit="10"/>
	
		<line orgstroke="#000000" orgfill="none" fill="none" x1="377.348" x2="379.525" y1="308.927" y2="310.646" stroke="#000000" stroke-width="0.25" g2gstroke="#312783" stroke-miterlimit="10"/>
	
		<line orgstroke="#000000" orgfill="none" fill="none" x1="366.777" x2="368.499" y1="323.116" y2="324.469" stroke="#000000" stroke-width="0.25" g2gstroke="#312783" stroke-miterlimit="10"/>
	<polyline orgstroke="#000000" orgfill="none" points="369.862,304.123 368.155,305.725    364.366,308.905 363.003,309.663 361.943,309.663 360.883,308.905 359.822,306.937 358.458,306.027 357.398,306.178    356.186,306.785 355.429,307.694 355.125,309.513 355.276,310.881 355.125,312.092 354.52,313.148 352.702,313.905 344.369,315.88    343.005,316.635 342.096,317.39 341.34,318.758 340.431,321.783 365.948,316.983  " fill="none" stroke="#000000" stroke-width="0.25" g2gstroke="#312783" stroke-miterlimit="10"/>
	<polyline orgstroke="#000000" orgfill="none" points="355.811,304.645 354.751,304.802    353.539,305.402 352.78,306.311 352.479,308.134 352.629,309.492 352.479,310.704 351.871,311.765 350.054,312.523    341.722,314.491 340.358,315.256 339.449,316.01 338.691,317.369 337.782,320.4  " fill="none" stroke="#000000" stroke-width="0.25" g2gstroke="#312783" stroke-miterlimit="10"/>
	<polyline orgstroke="#000000" orgfill="none" points="367.214,302.74 365.506,304.344    361.72,307.523 360.937,307.964  " fill="none" stroke="#000000" stroke-width="0.25" g2gstroke="#312783" stroke-miterlimit="10"/>
	
		<line orgstroke="#000000" orgfill="none" fill="none" x1="355.811" x2="358.458" y1="304.645" y2="306.027" stroke="#000000" stroke-width="0.25" g2gstroke="#312783" stroke-miterlimit="10"/>
	
		<line orgstroke="#000000" orgfill="none" fill="none" x1="337.782" x2="340.431" y1="320.4" y2="321.783" stroke="#000000" stroke-width="0.25" g2gstroke="#312783" stroke-miterlimit="10"/>
	<polyline orgstroke="#000000" orgfill="none" points="332.098,276.031 329.371,286.484    328.765,288.453 327.856,289.969 312.092,299.205  " fill="none" stroke="#000000" stroke-width="0.25" g2gstroke="#312783" stroke-miterlimit="10"/>
	<polyline orgstroke="#000000" orgfill="none" points="337.173,275.349 341.794,277.698    342.399,278.607 343.158,284.212 343.309,285.726 342.551,293.151  " fill="none" stroke="#000000" stroke-width="0.25" g2gstroke="#312783" stroke-miterlimit="10"/>
	<polyline orgstroke="#000000" orgfill="none" points="332.098,276.031 333.613,277.849    335.886,278 338.006,278.303 338.915,278.909 339.369,280.121 340.431,284.969 340.431,285.575 339.824,290.726  " fill="none" stroke="#000000" stroke-width="0.25" g2gstroke="#312783" stroke-miterlimit="10"/>
	<polygon orgstroke="#000000" orgfill="none" points="343.005,294.21 340.431,291.634    338.764,290.575 336.642,290.726 334.068,291.18 331.341,292.392 325.433,297.695 324.069,299.663 323.766,301.331    323.917,302.847 325.129,304.513 327.25,305.27 330.128,304.969 332.855,304.215 339.977,300.271 341.642,299.059 342.399,297.543    342.854,296.332  " fill="none" stroke="#000000" stroke-width="0.25" g2gstroke="#312783" stroke-miterlimit="10"/>
	<polyline orgstroke="#000000" orgfill="none" points="334.788,288.851 332.667,289.001    330.09,289.456 327.363,290.669 321.455,295.97 320.091,297.94 319.79,299.605 319.94,301.121  " fill="none" stroke="#000000" stroke-width="0.25" g2gstroke="#312783" stroke-miterlimit="10"/>
	<polygon orgstroke="#000000" orgfill="none" points="340.896,295.025 338.885,293.014    337.586,292.187 335.929,292.306 333.919,292.66 331.79,293.604 327.176,297.745 326.113,299.281 325.876,300.582 325.996,301.767    326.942,303.068 328.597,303.658 330.845,303.427 332.972,302.828 338.531,299.76 339.831,298.811 340.423,297.626 340.775,296.68     " fill="none" stroke="#000000" stroke-width="0.25" g2gstroke="#312783" stroke-miterlimit="10"/>
	<polyline orgstroke="#000000" orgfill="none" points="327.274,302.49 328.941,302.315    331.07,301.724 336.628,298.65 337.929,297.702 338.521,296.521 338.875,295.574 338.963,294.324  " fill="none" stroke="#000000" stroke-width="0.25" g2gstroke="#312783" stroke-miterlimit="10"/>
	
		<line orgstroke="#000000" orgfill="none" fill="none" x1="334.788" x2="338.764" y1="288.851" y2="290.575" stroke="#000000" stroke-width="0.25" g2gstroke="#312783" stroke-miterlimit="10"/>
	
		<line orgstroke="#000000" orgfill="none" fill="none" x1="320.28" x2="325.129" y1="301.121" y2="304.513" stroke="#000000" stroke-width="0.25" g2gstroke="#312783" stroke-miterlimit="10"/>
	<polyline orgstroke="#000000" orgfill="none" points="326.947,311.259 334.271,310.31    337.475,309.135 341.368,307.476 343.882,305.594 345.716,303.469 348.461,301.104 352.582,298.51 355.784,297.799 361.279,298.51    364.711,299.219 367.459,299.45 369.748,298.979 372.037,298.51 373.411,297.326 374.785,295.437  " fill="none" stroke="#000000" stroke-width="0.25" g2gstroke="#312783" stroke-miterlimit="10"/>
	<polyline orgstroke="#000000" orgfill="none" points="372.641,294.711 374.005,292.212    375.368,290.166 376.844,288.461 378.777,286.644 380.934,285.053 383.206,283.576  " fill="none" stroke="#000000" stroke-width="0.25" g2gstroke="#312783" stroke-miterlimit="10"/>
	<polyline orgstroke="#000000" orgfill="none" points="326.487,309.764 332.472,308.991    335.675,307.813 339.565,306.159 342.083,304.271 343.914,302.146 346.661,299.786 350.781,297.189 353.986,296.481    359.481,297.189 362.913,297.897 365.657,298.134 367.949,297.661 370.236,297.189 371.61,296.009 372.98,294.122  " fill="none" stroke="#000000" stroke-width="0.25" g2gstroke="#312783" stroke-miterlimit="10"/>
	<polyline orgstroke="#000000" orgfill="none" points="333.613,277.849 331.265,287.621    330.09,289.456  " fill="none" stroke="#000000" stroke-width="0.25" g2gstroke="#312783" stroke-miterlimit="10"/>
	
		<line orgstroke="#000000" orgfill="none" fill="none" x1="337.437" x2="335.155" y1="278.223" y2="289.009" stroke="#000000" stroke-width="0.25" g2gstroke="#312783" stroke-miterlimit="10"/>
	<polyline orgstroke="#000000" orgfill="none" points="340.809,276.485 340.809,276.485    343.309,274.212 345.354,273.076 348.309,272.395 351.49,271.713 353.08,271.031 354.217,270.122  " fill="none" stroke="#000000" stroke-width="0.25" g2gstroke="#312783" stroke-miterlimit="10"/>
	<polyline orgstroke="#000000" orgfill="none" points="352.904,266.532 356.489,267.85    356.944,268.986 357.625,274.894 357.398,276.031 355.125,277.167 350.808,277.621 348.081,278.985 345.582,280.348    342.97,282.834  " fill="none" stroke="#000000" stroke-width="0.25" g2gstroke="#312783" stroke-miterlimit="10"/>
	<polyline orgstroke="#000000" orgfill="none" points="357.398,276.031 361.943,276.712    366.261,277.849 370.125,279.439 373.76,282.167 375.578,283.757 377.396,286.938  " fill="none" stroke="#000000" stroke-width="0.25" g2gstroke="#312783" stroke-miterlimit="10"/>
	<polyline orgstroke="#000000" orgfill="none" points="356.489,267.85 363.988,273.531    367.17,276.031 370.125,278.758 375.578,283.757  " fill="none" stroke="#000000" stroke-width="0.25" g2gstroke="#312783" stroke-miterlimit="10"/>
	<polyline orgstroke="#000000" orgfill="none" points="383.206,283.576 384.895,281.485    385.35,279.212 387.168,276.258 388.531,274.667 390.123,273.758 392.168,273.304 394.667,273.304 396.94,273.985 398.916,274.509     " fill="none" stroke="#000000" stroke-width="0.25" g2gstroke="#312783" stroke-miterlimit="10"/>
	<polyline orgstroke="#000000" orgfill="none" points="379.669,275.59 379.841,274.731    381.659,271.777 383.022,270.186 384.613,269.277 386.658,268.822 389.158,268.822 391.429,269.504 393.407,270.028  " fill="none" stroke="#000000" stroke-width="0.25" g2gstroke="#312783" stroke-miterlimit="10"/>
	<polyline orgstroke="#000000" orgfill="none" points="359.958,264.015 358.307,264.441    357.853,266.259 357.439,268.571  " fill="none" stroke="#000000" stroke-width="0.25" g2gstroke="#312783" stroke-miterlimit="10"/>
	<polyline orgstroke="#000000" orgfill="none" points="360.807,265.577 367.397,268.077    373.305,270.577 376.032,272.395 379.669,275.59 382.85,279.439 384.513,281.958  " fill="none" stroke="#000000" stroke-width="0.25" g2gstroke="#312783" stroke-miterlimit="10"/>
	<polyline orgstroke="#000000" orgfill="none" points="382.164,320.678 380.351,323.525    379.441,325.57 378.759,328.07 378.305,330.344 378.532,332.615 379.214,335.115 380.577,337.388 382.396,338.979 383.986,340.114    385.933,342.802  " fill="none" stroke="#000000" stroke-width="0.25" g2gstroke="#312783" stroke-miterlimit="10"/>
	
		<line orgstroke="#000000" orgfill="none" fill="none" x1="392.136" x2="397.892" y1="349.415" y2="357.884" stroke="#000000" stroke-width="0.25" g2gstroke="#312783" stroke-miterlimit="10"/>
	
		<line orgstroke="#000000" orgfill="none" fill="none" x1="390.46" x2="396.104" y1="350.86" y2="359.951" stroke="#000000" stroke-width="0.25" g2gstroke="#312783" stroke-miterlimit="10"/>
	
		<line orgstroke="#000000" orgfill="none" fill="none" x1="398.688" x2="408.359" y1="340.532" y2="344.688" stroke="#000000" stroke-width="0.25" g2gstroke="#312783" stroke-miterlimit="10"/>
	
		<line orgstroke="#000000" orgfill="none" fill="none" x1="397.548" x2="406.219" y1="342.678" y2="348.222" stroke="#000000" stroke-width="0.25" g2gstroke="#312783" stroke-miterlimit="10"/>
	
		<line orgstroke="#000000" orgfill="none" fill="none" x1="400.788" x2="411.711" y1="332.138" y2="334.434" stroke="#000000" stroke-width="0.25" g2gstroke="#312783" stroke-miterlimit="10"/>
	
		<line orgstroke="#000000" orgfill="none" fill="none" x1="401.101" x2="412.621" y1="328.943" y2="330.57" stroke="#000000" stroke-width="0.25" g2gstroke="#312783" stroke-miterlimit="10"/>
	<polyline orgstroke="#000000" orgfill="none" points="413.302,314.436 408.53,317.162    405.575,318.526 403.53,319.89 402.166,321.025 401.601,322.161  " fill="none" stroke="#000000" stroke-width="0.25" g2gstroke="#312783" stroke-miterlimit="10"/>
	<polyline orgstroke="#000000" orgfill="none" points="411.312,317.642 409.716,318.215    408.283,319.078 406.996,320.823 406.691,322.906 407.008,324.566 407.143,325.854 408.532,327.895  " fill="none" stroke="#000000" stroke-width="0.25" g2gstroke="#312783" stroke-miterlimit="10"/>
	<polyline orgstroke="#000000" orgfill="none" points="408.532,327.895 409.305,328.312    410.689,328.758 411.39,328.758 411.54,328.095 411.711,326.391 411.879,325.089 411.312,317.642  " fill="none" stroke="#000000" stroke-width="0.25" g2gstroke="#312783" stroke-miterlimit="10"/>
	<polyline orgstroke="#000000" orgfill="none" points="384.962,307.096 386.94,308.759    388.303,310.802 389.213,313.072 389.44,316.707 389.213,322.389 388.531,327.844 387.622,332.615 386.258,336.704    384.439,340.738  " fill="none" stroke="#000000" stroke-width="0.25" g2gstroke="#312783" stroke-miterlimit="10"/>
	<polyline orgstroke="#000000" orgfill="none" points="319.675,264.555 319.675,266.941    320.888,269.971 322.402,271.79 324.825,273.607 327.552,274.517 334.581,275.017  " fill="none" stroke="#000000" stroke-width="0.25" g2gstroke="#312783" stroke-miterlimit="10"/>
	<polyline orgstroke="#000000" orgfill="none" points="318.462,276.334 319.979,278.152    322.098,279.363 324.093,279.665  " fill="none" stroke="#000000" stroke-width="0.25" g2gstroke="#312783" stroke-miterlimit="10"/>
	<polyline orgstroke="#000000" orgfill="none" points="315.13,280.576 315.888,281.485    316.57,282.167 317.781,282.924  " fill="none" stroke="#000000" stroke-width="0.25" g2gstroke="#312783" stroke-miterlimit="10"/>
	<polyline orgstroke="#000000" orgfill="none" points="398.304,283.644 402.054,281.257    402.964,281.03 403.53,281.03 404.211,281.144 405.142,281.344 407.167,285.688 407.055,286.371 406.485,287.052 402.964,288.87     " fill="none" stroke="#000000" stroke-width="0.25" g2gstroke="#312783" stroke-miterlimit="10"/>
	<polyline orgstroke="#000000" orgfill="none" points="406.168,287.215 407.508,287.734    408.19,287.961 409.018,288.329 413.19,296.71 409.782,298.527 407.736,299.438 404.893,301.368 403.53,302.617 402.62,303.981    401.622,305.844  " fill="none" stroke="#000000" stroke-width="0.25" g2gstroke="#312783" stroke-miterlimit="10"/>
	<polyline orgstroke="#000000" orgfill="none" points="415.573,307.617 412.393,307.277    409.666,307.51 407.62,308.302 404.553,309.323  " fill="none" stroke="#000000" stroke-width="0.25" g2gstroke="#312783" stroke-miterlimit="10"/>
	
		<line orgstroke="#000000" orgfill="none" fill="none" x1="411.386" x2="416.825" y1="297.672" y2="307.391" stroke="#000000" stroke-width="0.25" g2gstroke="#312783" stroke-miterlimit="10"/>
	<polyline orgstroke="#000000" orgfill="none" points="327.174,316.258 333.083,330.115    335.81,332.16 335.81,332.16 337.855,332.844 338.764,334.434 339.446,336.479 339.673,338.523 338.991,339.888 337.627,341.023    329.731,344.658  " fill="none" stroke="#000000" stroke-width="0.25" g2gstroke="#312783" stroke-miterlimit="10"/>
	
		<line orgstroke="#000000" orgfill="none" fill="none" x1="335.81" x2="328.182" y1="332.16" y2="335.631" stroke="#000000" stroke-width="0.25" g2gstroke="#312783" stroke-miterlimit="10"/>
	
		<line orgstroke="#000000" orgfill="none" fill="none" x1="397.759" x2="389.42" y1="308.381" y2="317.224" stroke="#000000" stroke-width="0.25" g2gstroke="#312783" stroke-miterlimit="10"/>
	<polyline orgstroke="#000000" orgfill="none" points="398.757,316.481 392.546,320.571    392.09,321.635 391.788,323.448 391.334,328.758 390.577,332.089 389.971,334.813 389.971,336.177 390.425,337.539    394.036,343.348  " fill="none" stroke="#000000" stroke-width="0.25" g2gstroke="#312783" stroke-miterlimit="10"/>
	<polyline orgstroke="#000000" orgfill="none" points="399.055,318.454 394.667,321.783    394.062,322.994 393.909,326.025 393.757,327.389 394.363,328.448 398,329.66  " fill="none" stroke="#000000" stroke-width="0.25" g2gstroke="#312783" stroke-miterlimit="10"/>
	<polyline orgstroke="#000000" orgfill="none" points="397.698,331.327 394.817,330.57    393.909,330.721 393.304,331.479 391.94,335.269 392.244,336.327 395.241,341.386  " fill="none" stroke="#000000" stroke-width="0.25" g2gstroke="#312783" stroke-miterlimit="10"/>
	<polyline orgstroke="#000000" orgfill="none" points="301.604,264.911 303.313,267.623    304.222,269.213 303.995,270.577 299.225,275.654 299.533,276.169 299.45,277.621 298.768,283.757  " fill="none" stroke="#000000" stroke-width="0.25" g2gstroke="#312783" stroke-miterlimit="10"/>
	
		<line orgstroke="#000000" orgfill="none" fill="none" x1="299.225" x2="293.26" y1="275.654" y2="271.66" stroke="#000000" stroke-width="0.25" g2gstroke="#312783" stroke-miterlimit="10"/>
	
		<line orgstroke="#000000" orgfill="none" fill="none" x1="299.45" x2="290.296" y1="277.621" y2="277.005" stroke="#000000" stroke-width="0.25" g2gstroke="#312783" stroke-miterlimit="10"/>
	<polyline orgstroke="#000000" orgfill="none" points="299.145,280.366 296.041,281.257    294.451,282.621 293.087,283.984 292.178,286.029  " fill="none" stroke="#000000" stroke-width="0.25" g2gstroke="#312783" stroke-miterlimit="10"/>
	
		<line orgstroke="#000000" orgfill="none" fill="none" x1="297.115" x2="281.494" y1="317.56" y2="328.616" stroke="#000000" stroke-width="0.25" g2gstroke="#312783" stroke-miterlimit="10"/>
	
		<line orgstroke="#000000" orgfill="none" fill="none" x1="281.494" x2="277.336" y1="328.616" y2="333.757" stroke="#000000" stroke-width="0.25" g2gstroke="#312783" stroke-miterlimit="10"/>
	
		<line orgstroke="#000000" orgfill="none" fill="none" x1="301.908" x2="285.36" y1="323.457" y2="333.06" stroke="#000000" stroke-width="0.25" g2gstroke="#312783" stroke-miterlimit="10"/>
	
		<line orgstroke="#000000" orgfill="none" fill="none" x1="279.414" x2="285.36" y1="337.551" y2="333.06" stroke="#000000" stroke-width="0.25" g2gstroke="#312783" stroke-miterlimit="10"/>
	
		<line orgstroke="#000000" orgfill="none" fill="none" x1="304.828" x2="287.281" y1="329.912" y2="337.821" stroke="#000000" stroke-width="0.25" g2gstroke="#312783" stroke-miterlimit="10"/>
	
		<line orgstroke="#000000" orgfill="none" fill="none" x1="287.281" x2="280.163" y1="337.821" y2="339.452" stroke="#000000" stroke-width="0.25" g2gstroke="#312783" stroke-miterlimit="10"/>
	
		<line orgstroke="#000000" orgfill="none" fill="none" x1="286.042" x2="286.042" y1="350.028" y2="372.549" stroke="#000000" stroke-width="0.25" g2gstroke="#312783" stroke-miterlimit="10"/>
	
		<line orgstroke="#000000" orgfill="none" fill="none" x1="292.405" x2="292.405" y1="347.646" y2="377.034" stroke="#000000" stroke-width="0.25" g2gstroke="#312783" stroke-miterlimit="10"/>
	
		<line orgstroke="#000000" orgfill="none" fill="none" x1="298.768" x2="298.768" y1="357.592" y2="380.427" stroke="#000000" stroke-width="0.25" g2gstroke="#312783" stroke-miterlimit="10"/>
	
		<line orgstroke="#000000" orgfill="none" fill="none" x1="304.183" x2="304.183" y1="358.748" y2="383.885" stroke="#000000" stroke-width="0.25" g2gstroke="#312783" stroke-miterlimit="10"/>
	
		<line orgstroke="#000000" orgfill="none" fill="none" x1="304.183" x2="304.183" y1="344.688" y2="349.204" stroke="#000000" stroke-width="0.25" g2gstroke="#312783" stroke-miterlimit="10"/>
	<polyline orgstroke="#000000" orgfill="none" points="269.377,352.844 269.226,358.3    269.226,359.657 269.984,362.535  " fill="none" stroke="#000000" stroke-width="0.25" g2gstroke="#312783" stroke-miterlimit="10"/>
</g>
</g>
</g></svg>