<svg xmlns="http://www.w3.org/2000/svg" xmlns:xlink="http://www.w3.org/1999/xlink" xmlns:etg="http://www.eurotaxglass.com/etg/evd/" etg:dataTimestamp="1539068912893" contentScriptType="text/ecmascript" zoomAndPan="magnify" contentStyleType="text/css" id="Layer_1" enable-background="new 0 0 1841.891 1595.279" version="1.1" width="1841.891px" xml:space="preserve" preserveAspectRatio="xMidYMid meet" viewBox="0 0 1841.891 1595.279" height="1595.279px" x="0px" y="0px"><g xmlns="http://www.w3.org/2000/svg" objecttype="PS" tooltip="#UNDEFINED" id="31">
<g onmouseover="notifyOwner(AGV_OBJECT_MOUSEOVER, '31(PS)')" transform="translate(17.97138314785377, 7.987281399046083) translate(30.45151033386327, 33.44674085850559) translate(44.0, -46.0)" onclick="clickZoom(evt); notifyOwner(AGV_OBJECT_MOUSECLICK, '31(PS)')" onmouseout="notifyOwner(AGV_OBJECT_MOUSEOUT, '31(PS)')" tooltip="#UNDEFINED" id="31-Graphic" objecttype="GRAPHIC">
<g>
	<path orgstroke="#000000" orgfill="#ffffff" fill="#ffffff" g2gfill="#ECF5E4" stroke-linejoin="round" d="M448.222,272.926   l1.637,2.327l0.335,0.081l1.991-1.257l-0.129-0.786l-1.272-2.303l0.04-0.278c0.062-0.1,0.115-0.202,0.165-0.306   c0.08-0.168,0.225-0.664,0.27-0.82l-0.149-0.898l-0.849-1.243l-0.232-0.326c-0.054-0.071-0.116-0.135-0.186-0.189v-0.002   c0.051-0.41-0.021-0.767-0.198-1.033l0,0l-0.584-0.84c-0.173-0.235-0.438-0.396-0.778-0.467l0.001-0.001l-0.893-1.281   c-0.243-0.268-0.637-0.401-1.148-0.366c-0.206,0.017-0.42,0.061-0.636,0.128l-0.23-0.134l-0.229-0.263   c-1.701-0.253-1.802,1.209-1.802,1.209l0.15,0.396v0.192c-0.301,0.33-0.555,0.692-0.733,1.069   c-0.354,0.736-0.355,1.372-0.072,1.779l0.776,1.127l0,0c-0.058,0.436,0.022,0.81,0.224,1.085l0.53,0.759l0.007,0.013   c0.191,0.274,0.505,0.456,0.92,0.514l0.116,0.229l1.041,1.527l-0.008,0.004c0.236,0.312,0.651,0.479,1.212,0.439   c0.242-0.021,0.5-0.077,0.758-0.169" outline-element="true" stroke="#000000" stroke-width="0.5" g2gstroke="#312783" stroke-miterlimit="10"/>
	<path orgstroke="#000000" orgfill="none" fill="none" d="M442.94,267.68   c-0.281-0.405-0.278-1.04,0.071-1.771c0.644-1.338,2.205-2.506,3.48-2.598c0.563-0.044,0.974,0.124,1.213,0.437" stroke="#000000" stroke-width="0.25" g2gstroke="#312783" stroke-miterlimit="10"/>
	<path orgstroke="#000000" orgfill="none" fill="none" d="M449.809,266.895   c0.013,0.016,0.027,0.024,0.043,0.035" stroke="#000000" stroke-width="0.25" g2gstroke="#312783" stroke-miterlimit="10"/>
	<path orgstroke="#000000" orgfill="none" fill="none" d="M445.148,270.811   c-0.146-0.397-0.092-0.935,0.198-1.535c0.643-1.338,2.202-2.501,3.481-2.598c0.404-0.034,0.738,0.046,0.979,0.215" stroke="#000000" stroke-width="0.25" g2gstroke="#312783" stroke-miterlimit="10"/>
	<path orgstroke="#000000" orgfill="none" fill="none" d="M445.259,271.037   c-0.05-0.064-0.081-0.145-0.115-0.229" stroke="#000000" stroke-width="0.25" g2gstroke="#312783" stroke-miterlimit="10"/>
	<path orgstroke="#000000" orgfill="none" fill="none" d="M446.307,272.567   c-0.302-0.405-0.31-1.052,0.054-1.804c0.643-1.335,2.202-2.502,3.479-2.603c0.37-0.028,0.678,0.036,0.911,0.174" stroke="#000000" stroke-width="0.25" g2gstroke="#312783" stroke-miterlimit="10"/>
	<path orgstroke="#000000" orgfill="none" fill="none" d="M447.885,272.381   c-0.121-0.166-0.334-0.552-0.187-0.861c0.27-0.559,1.367-1.239,1.898-1.279c0.264-0.02,0.449,0.071,0.54,0.24" stroke="#000000" stroke-width="0.25" g2gstroke="#312783" stroke-miterlimit="10"/>
	<path orgstroke="#000000" orgfill="none" fill="none" d="M448.781,271.538   c0.278-0.358,0.692-0.646,1.077-0.733" stroke="#000000" stroke-width="0.25" g2gstroke="#312783" stroke-miterlimit="10"/>
	<path orgstroke="#000000" orgfill="none" fill="none" d="M443.469,268.443   c0.037-0.288,0.134-0.606,0.294-0.94c0.727-1.513,2.492-2.83,3.938-2.94c0.213-0.021,0.412-0.003,0.588,0.026" stroke="#000000" stroke-width="0.25" g2gstroke="#312783" stroke-miterlimit="10"/>
	<path orgstroke="#000000" orgfill="none" fill="none" d="M444.226,270.297   c-0.325-0.459-0.324-1.181,0.078-2.019c0.727-1.514,2.492-2.83,3.94-2.941c0.666-0.051,1.149,0.166,1.404,0.557" stroke="#000000" stroke-width="0.25" g2gstroke="#312783" stroke-miterlimit="10"/>
	
		<line orgstroke="#000000" orgfill="none" fill="none" x1="450.356" x2="450.138" y1="270.783" y2="270.473" stroke="#000000" stroke-width="0.25" g2gstroke="#312783" stroke-miterlimit="10"/>
	
		<line orgstroke="#000000" orgfill="none" fill="none" x1="448.199" x2="447.885" y1="272.746" y2="272.381" stroke="#000000" stroke-width="0.25" g2gstroke="#312783" stroke-miterlimit="10"/>
	<path orgstroke="#000000" orgfill="none" fill="none" d="M445.282,263.178   c-0.563,0.233-1.13,0.619-1.604,1.091" stroke="#000000" stroke-width="0.25" g2gstroke="#312783" stroke-miterlimit="10"/>
	<polyline orgstroke="#000000" orgfill="none" points="   451.973,273.355 450.214,274.513 449.968,275.167  " fill="none" stroke-linejoin="round" stroke="#000000" stroke-width="0.25" g2gstroke="#312783" stroke-miterlimit="10"/>
	<polyline orgstroke="#000000" orgfill="none" points="   450.544,270.986 448.561,272.104 448.222,272.926  " fill="none" stroke-linejoin="round" stroke="#000000" stroke-width="0.25" g2gstroke="#312783" stroke-miterlimit="10"/>
	
		<line orgstroke="#000000" orgfill="none" fill="none" x1="450.149" x2="448.613" y1="274.482" y2="272.169" stroke-linejoin="round" stroke="#000000" stroke-width="0.25" g2gstroke="#312783" stroke-miterlimit="10"/>
</g>
</g>
</g></svg>