<svg xmlns="http://www.w3.org/2000/svg" xmlns:xlink="http://www.w3.org/1999/xlink" xmlns:etg="http://www.eurotaxglass.com/etg/evd/" etg:dataTimestamp="1539068912893" contentScriptType="text/ecmascript" zoomAndPan="magnify" contentStyleType="text/css" id="Capa_1" enable-background="new 0 0 1841.891 1595.279" version="1.1" xml:space="preserve" width="1841.891px" preserveAspectRatio="xMidYMid meet" viewBox="0 0 1841.891 1595.279" height="1595.279px" x="0px" y="0px"><g xmlns="http://www.w3.org/2000/svg" objecttype="PS" tooltip="#UNDEFINED" id="32">
<g onmouseover="notifyOwner(AGV_OBJECT_MOUSEOVER, '32(PS)')" transform="translate(33.34486065673826, 21.74257693481445) translate(55.0, 22.0) translate(-273.0, -71.0) translate(214.0, 24.0) translate(49,48) " onclick="clickZoom(evt); notifyOwner(AGV_OBJECT_MOUSECLICK, '32(PS)')" onmouseout="notifyOwner(AGV_OBJECT_MOUSEOUT, '32(PS)')" tooltip="#UNDEFINED" id="32-Graphic" objecttype="GRAPHIC">
<g zvalue="21">
<g>
<g id="5::XMLID_1_">
<g>
<path orgstroke="#000000" orgfill="#ffffff" fill="#ffffff" g2gfill="#ECF5E4" d="M337.862,296.316v2.006l-16.474,29.026     l-1.569,3.138l-5.479,18.043l-1.569,2.354l-4.032,5.475l0.053,0.581l4.563,2.134l0.784,0.604l0.377,1.38l-1.569,3.719     l-0.578,0.58l-7.574-3.044l-0.603,0.221l-2.396,3.271l-0.778,3.141l-0.729,12.314l-0.5,1.271l-50.559,29.563l-3.063,0.604     l-0.104-0.063l-1.302-0.396l-1.004-0.551l-1.443-1.083l-0.879-0.879l-0.688-0.83l-0.785-3.139v-44.119V347.7l1.563-8.629     l2.354-3.138l9.414-6.277l1.771-4.347l2.104-15.609l0.479-0.688l68.533-38.563l0.486-0.078l0.521,0.078l0.708,0.111l1.729,0.479     l0.938,0.436l0.563,0.354l0.25,0.285l0.188,0.313L337.862,296.316z M272.547,387.031c2.479-4.91,2.244-9.163-0.171-11.343     l-0.488-0.548c-0.752-0.236-1.584-0.377-2.525-0.377c-6.229,0-14.184,5.771-17.771,12.896c-2.919,5.79-2.063,10.688,1.71,12.319     l0.973-0.063c0.171,0,0.354,0,0.521,0C261,399.913,268.952,394.155,272.547,387.031z" stroke="#000000" outline-element="true" stroke-width="0.5" g2gstroke="#312783" stroke-miterlimit="10"/>
</g>
</g>
<path orgstroke="#000000" orgfill="none" fill="none" d="M320.1130065917969 324.552001953125L334.9930114746094 298.322998046875L334.9930114746094 296.322998046875L329.7749938964844 276.4590148925781L329.1369934082031 275.6789855957031L328.5 275.5220031738281L328.0249938964844 275.5220031738281L326.989990234375 275.6000061035156L325.2640075683594 276.4590148925781L261.875 312.1159973144531L261.5010070800781 312.7019958496094L259.40301513671875 328.35101318359375L257.635009765625 332.6889953613281L248.2209930419922 338.968994140625L245.8679962158203 342.1029968261719L244.2989959716797 350.73199462890625L244.2989959716797 405.177001953125" stroke="#000000" stroke-width="0.25" g2gstroke="#312783" stroke-miterlimit="10"/>
<path orgstroke="#000000" orgfill="none" fill="none" d="M268.244,395.16   c-3.693,3.271-8.112,5.396-11.896,5.396c-0.979,0-1.854-0.146-2.629-0.412" stroke="#000000" stroke-width="0.25" g2gstroke="#312783" stroke-miterlimit="10"/>
<path orgstroke="#000000" orgfill="none" fill="none" d="M272.222,375.266   c3.927,1.544,4.869,6.511,1.898,12.396c-0.563,1.114-1.234,2.198-1.986,3.233" stroke="#000000" stroke-width="0.25" g2gstroke="#312783" stroke-miterlimit="10"/>
<path orgstroke="#000000" orgfill="none" fill="none" d="M266.782,351.234   c-1.313,2.57-4.186,4.654-6.415,4.654c-2.247,0-3.021-2.084-1.729-4.654c1.294-2.574,4.167-4.658,6.416-4.658   C267.309,346.575,268.078,348.658,266.782,351.234z" stroke="#000000" stroke-width="0.25" g2gstroke="#312783" stroke-miterlimit="10"/>
<path orgstroke="#000000" orgfill="none" fill="none" d="M265.794,347.532   c0.097,0.771-0.092,1.708-0.605,2.729c-1.297,2.563-4.169,4.646-6.415,4.646" stroke="#000000" stroke-width="0.25" g2gstroke="#312783" stroke-miterlimit="10"/>
<path orgstroke="#000000" orgfill="none" fill="none" d="M279.674,313.386   c-0.795,1.577-2.563,2.854-3.939,2.854s-1.852-1.271-1.056-2.854c0.795-1.58,2.563-2.86,3.939-2.86   C280,310.524,280.472,311.806,279.674,313.386z" stroke="#000000" stroke-width="0.25" g2gstroke="#312783" stroke-miterlimit="10"/>
<path orgstroke="#000000" orgfill="none" fill="none" d="M279.071,311.114   c0.063,0.479-0.057,1.049-0.356,1.674c-0.812,1.581-2.563,2.859-3.939,2.859" stroke="#000000" stroke-width="0.25" g2gstroke="#312783" stroke-miterlimit="10"/>
<path orgstroke="#000000" orgfill="none" fill="none" d="M313.821,333.162   c-0.797,1.578-2.563,2.856-3.938,2.856s-1.854-1.278-1.054-2.856c0.793-1.581,2.559-2.854,3.938-2.854   C314.144,330.304,314.615,331.582,313.821,333.162z" stroke="#000000" stroke-width="0.25" g2gstroke="#312783" stroke-miterlimit="10"/>
<path orgstroke="#000000" orgfill="none" fill="none" d="M313.212,330.893   c0.059,0.47-0.063,1.048-0.37,1.671c-0.797,1.582-2.563,2.86-3.941,2.86" stroke="#000000" stroke-width="0.25" g2gstroke="#312783" stroke-miterlimit="10"/>
<path orgstroke="#000000" orgfill="none" fill="none" d="M328.564,285.012   c-0.796,1.563-2.561,2.854-3.938,2.854s-1.854-1.281-1.063-2.854c0.796-1.58,2.563-2.86,3.939-2.86   C328.89,282.151,329.361,283.433,328.564,285.012z" stroke="#000000" stroke-width="0.25" g2gstroke="#312783" stroke-miterlimit="10"/>
<path orgstroke="#000000" orgfill="none" fill="none" d="M327.956,282.741   c0.06,0.469-0.063,1.048-0.372,1.673c-0.793,1.58-2.563,2.859-3.938,2.859" stroke="#000000" stroke-width="0.25" g2gstroke="#312783" stroke-miterlimit="10"/>
<path orgstroke="#000000" orgfill="none" fill="none" d="M302.401,360.062   c-0.354,0.715-1.161,1.296-1.771,1.296c-0.625,0-0.854-0.581-0.481-1.296s1.161-1.296,1.788-1.296   C302.549,358.766,302.762,359.347,302.401,360.062z" stroke="#000000" stroke-width="0.25" g2gstroke="#312783" stroke-miterlimit="10"/>
<path orgstroke="#000000" orgfill="none" fill="none" d="M301.918,358.765   c0.021,0.212-0.028,0.474-0.168,0.759c-0.36,0.716-1.162,1.293-1.785,1.293" stroke="#000000" stroke-width="0.25" g2gstroke="#312783" stroke-miterlimit="10"/>
<path orgstroke="#000000" orgfill="none" fill="none" d="M318.299,323.344   c-0.358,0.716-1.161,1.297-1.785,1.297c-0.625,0-0.838-0.581-0.479-1.297c0.354-0.729,1.146-1.313,1.771-1.313   C318.446,322.039,318.662,322.618,318.299,323.344z" stroke="#000000" stroke-width="0.25" g2gstroke="#312783" stroke-miterlimit="10"/>
<path orgstroke="#000000" orgfill="none" fill="none" d="M317.816,322.039   c0.027,0.229-0.021,0.479-0.168,0.771c-0.354,0.714-1.162,1.295-1.786,1.295" stroke="#000000" stroke-width="0.25" g2gstroke="#312783" stroke-miterlimit="10"/>
<path orgstroke="#000000" orgfill="none" fill="none" d="M319.607,310.524   c-0.354,0.715-1.161,1.296-1.787,1.296s-0.839-0.581-0.479-1.296s1.159-1.296,1.787-1.296   C319.752,309.229,319.969,309.809,319.607,310.524z" stroke="#000000" stroke-width="0.25" g2gstroke="#312783" stroke-miterlimit="10"/>
<path orgstroke="#000000" orgfill="none" fill="none" d="M319.123,309.229   c0.021,0.217-0.028,0.478-0.17,0.759c-0.358,0.716-1.158,1.297-1.784,1.297" stroke="#000000" stroke-width="0.25" g2gstroke="#312783" stroke-miterlimit="10"/>
<path orgstroke="#000000" orgfill="none" fill="none" d="M323.006,314.177   c-0.358,0.715-1.161,1.296-1.785,1.296c-0.625,0-0.837-0.581-0.479-1.296c0.354-0.729,1.146-1.3,1.771-1.3   C323.153,312.874,323.369,313.455,323.006,314.177z" stroke="#000000" stroke-width="0.25" g2gstroke="#312783" stroke-miterlimit="10"/>
<path orgstroke="#000000" orgfill="none" fill="none" d="M322.523,312.873   c0.028,0.229-0.021,0.479-0.168,0.771c-0.354,0.715-1.161,1.295-1.785,1.295" stroke="#000000" stroke-width="0.25" g2gstroke="#312783" stroke-miterlimit="10"/>
<path orgstroke="#000000" orgfill="none" fill="none" d="M264.508,328.594   c-0.361,0.713-1.161,1.294-1.786,1.294c-0.624,0-0.839-0.581-0.478-1.294c0.354-0.729,1.146-1.312,1.771-1.312   S264.868,327.868,264.508,328.594z" stroke="#000000" stroke-width="0.25" g2gstroke="#312783" stroke-miterlimit="10"/>
<path orgstroke="#000000" orgfill="none" fill="none" d="M264.024,327.29   c0.026,0.229-0.021,0.479-0.17,0.771c-0.354,0.716-1.159,1.297-1.783,1.297" stroke="#000000" stroke-width="0.25" g2gstroke="#312783" stroke-miterlimit="10"/>
<path orgstroke="#000000" orgfill="none" fill="none" d="M247.399,372.928   c-0.354,0.716-1.161,1.294-1.786,1.294c-0.624,0-0.84-0.578-0.479-1.294c0.359-0.716,1.16-1.296,1.785-1.296   C247.544,371.635,247.759,372.219,247.399,372.928z" stroke="#000000" stroke-width="0.25" g2gstroke="#312783" stroke-miterlimit="10"/>
<path orgstroke="#000000" orgfill="none" fill="none" d="M246.913,371.635   c0.021,0.213-0.026,0.475-0.169,0.756c-0.36,0.716-1.16,1.296-1.785,1.296" stroke="#000000" stroke-width="0.25" g2gstroke="#312783" stroke-miterlimit="10"/>
<path orgstroke="#000000" orgfill="none" fill="none" d="M265.928,314.927   c-0.361,0.716-1.161,1.294-1.784,1.294c-0.625,0-0.839-0.578-0.479-1.294c0.354-0.716,1.16-1.295,1.786-1.295   C266.074,313.635,266.291,314.219,265.928,314.927z" stroke="#000000" stroke-width="0.25" g2gstroke="#312783" stroke-miterlimit="10"/>
<path orgstroke="#000000" orgfill="none" fill="none" d="M265.445,313.635   c0.026,0.214-0.021,0.476-0.17,0.757c-0.354,0.715-1.16,1.296-1.771,1.296" stroke="#000000" stroke-width="0.25" g2gstroke="#312783" stroke-miterlimit="10"/>
<path orgstroke="#000000" orgfill="none" fill="none" d="M303.709,291.814   c-0.362,0.714-1.161,1.295-1.786,1.295c-0.627,0-0.84-0.581-0.48-1.295c0.36-0.716,1.159-1.297,1.787-1.297   C303.854,290.515,304.07,291.098,303.709,291.814z" stroke="#000000" stroke-width="0.25" g2gstroke="#312783" stroke-miterlimit="10"/>
<path orgstroke="#000000" orgfill="none" fill="none" d="M303.225,290.515   c0.026,0.213-0.027,0.475-0.17,0.758c-0.359,0.716-1.158,1.294-1.784,1.294" stroke="#000000" stroke-width="0.25" g2gstroke="#312783" stroke-miterlimit="10"/>
<path orgstroke="#000000" orgfill="none" fill="none" d="M293.281,297.696   c-0.354,0.716-1.146,1.297-1.771,1.297c-0.622,0-0.854-0.581-0.479-1.297c0.358-0.714,1.16-1.295,1.786-1.295   C293.428,296.4,293.643,296.982,293.281,297.696z" stroke="#000000" stroke-width="0.25" g2gstroke="#312783" stroke-miterlimit="10"/>
<path orgstroke="#000000" orgfill="none" fill="none" d="M292.797,296.4   c0.021,0.213-0.028,0.474-0.169,0.758c-0.359,0.715-1.159,1.294-1.784,1.294" stroke="#000000" stroke-width="0.25" g2gstroke="#312783" stroke-miterlimit="10"/>
<path orgstroke="#000000" orgfill="none" fill="none" d="M275.825,387.885   c-4.188,8.262-13.439,14.95-20.688,14.95c-7.241,0-9.722-6.692-5.54-14.95c4.188-8.271,13.44-14.954,20.688-14.954   C277.525,372.928,280.005,379.622,275.825,387.885z" stroke="#000000" stroke-width="0.25" g2gstroke="#312783" stroke-miterlimit="10"/>
<path orgstroke="#000000" orgfill="none" fill="none" d="M285.432,363.657   c-1.713,3.396-5.505,6.127-8.472,6.127s-3.983-2.731-2.271-6.127c1.711-3.385,5.505-6.127,8.479-6.127   C286.129,357.531,287.149,360.272,285.432,363.657z" stroke="#000000" stroke-width="0.25" g2gstroke="#312783" stroke-miterlimit="10"/>
<path orgstroke="#000000" orgfill="none" fill="none" d="M325.2950134277344 314.177001953125L312.1549987792969 322.60400390625L310.1940002441406 324.3680114746094L308.82000732421875 326.3299865722656L307.8399963378906 328.2900085449219L292.739990234375 370.06500244140625L292.1499938964844 371.635009765625L292.1499938964844 373.39801025390625L292.1499938964844 377.5169982910156L292.1499938964844 379.281005859375L291.3659973144531 379.677001953125L284.697998046875 383.802001953125L284.1099853515625 384.385009765625L283.7179870605469 385.5580139160156L283.1289978027344 385.760009765625L281.7560119628906 385.760009765625L280.3840026855469 385.1650085449219L279.2070007324219 385.1650085449219L277.63800048828125 385.36199951171875" stroke="#000000" stroke-width="0.25" g2gstroke="#312783" stroke-miterlimit="10"/>
<path orgstroke="#000000" orgfill="none" fill="none" d="M281.364013671875 311.427001953125L281.55999755859375 313.58099365234375L281.364013671875 315.739990234375L280.3840026855469 317.70001220703125L268.02801513671875 345.7449951171875" stroke="#000000" stroke-width="0.25" g2gstroke="#312783" stroke-miterlimit="10"/>
<path orgstroke="#000000" orgfill="none" fill="none" d="M269.4010009765625 349.864013671875L275.677001953125 360.06201171875" stroke="#000000" stroke-width="0.25" g2gstroke="#312783" stroke-miterlimit="10"/>
<path orgstroke="#000000" orgfill="none" fill="none" d="M270.9700012207031 346.5299987792969L280.3840026855469 356.7279968261719L281.1679992675781 356.7279968261719L281.7560119628906 356.7279968261719L282.5409851074219 355.74700927734375L283.32501220703125 355.552001953125L285.2869873046875 355.1600036621094L286.65899658203125 355.74700927734375L287.83599853515625 356.531005859375L288.42498779296875 357.1199951171875L289.01300048828125 357.1199951171875L297.8179931640625 356.010009765625" stroke="#000000" stroke-width="0.25" g2gstroke="#312783" stroke-miterlimit="10"/>
<path orgstroke="#000000" orgfill="none" fill="none" d="M274.6960144042969 332.40899658203125L277.04998779296875 334.3699951171875L280.3840026855469 335.7430114746094L283.7179870605469 336.52801513671875L286.8550109863281 336.3320007324219L290.77801513671875 335.552001953125L294.11199951171875 334.177001953125L297.25 331.6239929199219L300.1910095214844 328.0950012207031L319.2149963378906 299.6570129394531L319.8030090332031 299.07000732421875L320.7829895019531 298.87298583984375L321.7650146484375 299.468994140625L326.6669921875 303.7760009765625L327.64898681640625 305.5409851074219L327.843994140625 306.9129943847656L327.2560119628906 309.2669982910156L326.2749938964844 312.01300048828125" stroke="#000000" stroke-width="0.25" g2gstroke="#312783" stroke-miterlimit="10"/>
<path orgstroke="#000000" orgfill="none" fill="none" d="M258.614990234375 347.510986328125L259.98699951171875 345.7449951171875L262.34100341796875 344.37298583984375L265.08599853515625 343.593994140625L266.0660095214844 343.1969909667969L278.22601318359375 316.3269958496094" stroke="#000000" stroke-width="0.25" g2gstroke="#312783" stroke-miterlimit="10"/>
<path orgstroke="#000000" orgfill="none" fill="none" d="M280.97100830078125 318.885009765625L282.9330139160156 319.8580017089844L284.697998046875 319.8580017089844L287.24798583984375 319.2699890136719L290.19000244140625 317.8970031738281L292.93499755859375 316.135009765625L298.62298583984375 311.427001953125L302.7409973144531 306.718994140625L306.8599853515625 301.0299987792969L308.4280090332031 297.1080017089844" stroke="#000000" stroke-width="0.25" g2gstroke="#312783" stroke-miterlimit="10"/>
<path orgstroke="#000000" orgfill="none" fill="none" d="M275.677001953125 309.85699462890625L278.22601318359375 308.8739929199219L280.7760009765625 308.2869873046875L282.73699951171875 308.093994140625L294.89599609375 301.427001953125L295.87701416015625 300.4429931640625L296.8580017089844 298.677001953125L297.4460144042969 297.6960144042969L298.8190002441406 297.6960144042969L300.1910095214844 297.8919982910156L301.56500244140625 297.6960144042969L302.93701171875 297.1080017089844L317.2539978027344 288.2820129394531L318.62701416015625 287.69500732421875L319.8030090332031 287.4989929199219L320.9800109863281 287.4989929199219L321.5679931640625 288.2820129394531L322.3529968261719 290.0480041503906L323.5299987792969 291.2239990234375L324.7070007324219 291.8139953613281L326.2749938964844 291.8139953613281L327.64898681640625 291.2239990234375L329.6090087890625 289.85101318359375L331.5710144042969 286.7139892578125" stroke="#000000" stroke-width="0.25" g2gstroke="#312783" stroke-miterlimit="10"/>
<path orgstroke="#000000" orgfill="none" fill="none" d="M314.3240051269531 348.531005859375L312.9389953613281 348.4909973144531L311.7619934082031 349.2770080566406L310.7820129394531 350.0610046386719L306.2720031738281 357.3169860839844L306.07501220703125 358.4939880371094L306.30499267578125 359.6440124511719" stroke="#000000" stroke-width="0.25" g2gstroke="#312783" stroke-miterlimit="10"/>
<path orgstroke="#000000" orgfill="none" fill="none" d="M241.3679962158203 374.5740051269531L241.3679962158203 406.5820007324219L241.9149932861328 408.76300048828125" stroke="#000000" stroke-width="0.25" g2gstroke="#312783" stroke-miterlimit="10"/>
<path orgstroke="#000000" orgfill="none" fill="none" d="M241.3679962158203 370.65399169921875L241.3679962158203 374.5740051269531" stroke="#000000" stroke-width="0.25" g2gstroke="#312783" stroke-miterlimit="10"/>
<path orgstroke="#000000" orgfill="none" fill="none" d="M281.5320129394531 297.2090148925781L259.0660095214844 309.8479919433594L258.5690002441406 310.5320129394531L256.47198486328125 326.14801025390625L254.70399475097656 330.4880065917969L245.2899932861328 336.7640075683594L242.93699645996094 339.9020080566406L241.3679962158203 348.531005859375L241.3679962158203 364.385009765625" stroke="#000000" stroke-width="0.25" g2gstroke="#312783" stroke-miterlimit="10"/>
<path orgstroke="#000000" orgfill="none" fill="none" d="M327.63299560546875 271.27899169921875L288.27301025390625 293.4169921875" stroke="#000000" stroke-width="0.25" g2gstroke="#312783" stroke-miterlimit="10"/>
<path orgstroke="#000000" orgfill="none" fill="none" d="M292.1499938964844 371.635009765625L291.593994140625 370.385009765625L290.94000244140625 369.72698974609375L290.0220031738281 369.72698974609375L288.97601318359375 369.989013671875L288.4519958496094 370.385009765625L288.0580139160156 371.0369873046875L287.7950134277344 372.218994140625L287.9280090332031 373.656005859375L287.9280090332031 381.260009765625" stroke="#000000" stroke-width="0.25" g2gstroke="#312783" stroke-miterlimit="10"/>
<path orgstroke="#000000" orgfill="none" fill="none" d="M257.43701171875 335.35101318359375L255.86900329589844 337.9010009765625L254.49600219726562 341.635009765625L254.10299682617188 343.7829895019531L253.71200561523438 346.927001953125L253.51499938964844 350.260009765625L254.3000030517578 352.4129943847656L255.281005859375 353.7860107421875L256.4570007324219 354.5710144042969L257.6340026855469 354.968994140625" stroke="#000000" stroke-width="0.25" g2gstroke="#312783" stroke-miterlimit="10"/>
<path orgstroke="#000000" orgfill="none" fill="none" d="M245.08200073242188 365.9460144042969L246.06300354003906 368.10400390625L248.41600036621094 370.06500244140625L249.59300231933594 372.0249938964844L249.78900146484375 373.9880065917969L248.80799865722656 376.5369873046875L247.23899841308594 378.8900146484375L246.4550018310547 380.468994140625L245.4739990234375 382.81201171875" stroke="#000000" stroke-width="0.25" g2gstroke="#312783" stroke-miterlimit="10"/>
<path orgstroke="#000000" orgfill="none" fill="none" d="M274.8919982910156 392.031005859375L277.2460021972656 390.656005859375L279.2070007324219 389.8710021972656L281.9530029296875 389.4809875488281L284.50201416015625 389.093994140625L287.24798583984375 387.9110107421875L292.739990234375 384.77398681640625" stroke="#000000" stroke-width="0.25" g2gstroke="#312783" stroke-miterlimit="10"/>
<path orgstroke="#000000" orgfill="none" fill="none" d="M314.5090026855469 361.0409851074219L307.52398681640625 357.9830017089844" stroke="#000000" stroke-width="0.25" g2gstroke="#312783" stroke-miterlimit="10"/>
<path orgstroke="#000000" orgfill="none" fill="none" d="M308.2040100097656 357.0639953613281L304.7699890136719 361.7229919433594" stroke="#000000" stroke-width="0.25" g2gstroke="#312783" stroke-miterlimit="10"/>
<path orgstroke="#000000" orgfill="none" fill="none" d="M241.9149932861328 408.76300048828125L242.63999938964844 409.8500061035156L243.81500244140625 411.093994140625" stroke="#000000" stroke-width="0.25" g2gstroke="#312783" stroke-miterlimit="10"/>
</g>
</g>
</g>
</g></svg>