<svg xmlns="http://www.w3.org/2000/svg" xmlns:xlink="http://www.w3.org/1999/xlink" xmlns:etg="http://www.eurotaxglass.com/etg/evd/" etg:dataTimestamp="1539068912893" contentScriptType="text/ecmascript" zoomAndPan="magnify" contentStyleType="text/css" id="Layer_1" enable-background="new 0 0 1841.891 1595.279" version="1.1" width="1841.891px" xml:space="preserve" preserveAspectRatio="xMidYMid meet" viewBox="0 0 1841.891 1595.279" height="1595.279px" x="0px" y="0px"><g xmlns="http://www.w3.org/2000/svg" objecttype="PS" tooltip="#UNDEFINED" id="33">
<g onmouseover="notifyOwner(AGV_OBJECT_MOUSEOVER, '33(PS)')" onclick="clickZoom(evt); notifyOwner(AGV_OBJECT_MOUSECLICK, '33(PS)')" onmouseout="notifyOwner(AGV_OBJECT_MOUSEOUT, '33(PS)')" tooltip="#UNDEFINED" id="33-Graphic" objecttype="GRAPHIC">
<g>
	<path orgstroke="#000000" orgfill="#ffffff" fill="#ffffff" g2gfill="#ECC35D" d="M239.993,280.278   c-4.618,1.421-8.261,2.14-14.133,3.742l-1.536,0.5c-0.567,0.331-1.001,1.052-1.178,2.092c-0.365,2.165,0.527,4.902,1.993,6.112   c0.54,0.445,1.084,0.624,1.574,0.561l2.398-0.641c4.229-1.612,9.159-3.14,14.158-4.725c0,0,3.393-1.455,4.237-2.612   c13.535-12.79,27.542-26.616,13.808-34.926c-2.356-1.53-13.747-8.395-13.747-8.395l-0.529-0.299   c-0.502-0.222-1.132-0.161-1.812,0.236c-1.643,0.957-2.51,2.668-2.499,4.863c0.002,0.961,0.262,1.694,0.687,2.134l0.405,0.311   c11.822,6.717,18.926,8.7,11.48,17.052c-5.834,6.875-10.842,10.576-14.067,13.57L239.993,280.278z" outline-element="true" stroke="#000000" stroke-width="0.5" g2gstroke="#312783" stroke-miterlimit="10"/>
	<path orgstroke="#000000" orgfill="none" fill="none" d="M224.094,287.398   c-0.235,1.388,0.34,3.149,1.283,3.927c0.94,0.779,1.896,0.28,2.129-1.11c0.234-1.392-0.34-3.15-1.282-3.928   C225.281,285.507,224.328,286.005,224.094,287.398z" stroke="#000000" stroke-width="0.25" g2gstroke="#312783" stroke-miterlimit="10"/>
	<path orgstroke="#000000" orgfill="none" fill="none" d="M227.389,293.018   c0.512-0.358,0.9-1.049,1.063-2.021c0.365-2.164-0.527-4.9-1.996-6.111c-0.458-0.379-0.919-0.562-1.345-0.572" stroke="#000000" stroke-width="0.25" g2gstroke="#312783" stroke-miterlimit="10"/>
	<path orgstroke="#000000" orgfill="none" fill="none" d="M231.104,292.035   c0.51-0.36,0.895-1.049,1.06-2.017c0.365-2.165-0.528-4.902-1.997-6.115c-0.316-0.262-1.047-0.643-1.356-0.725" stroke="#000000" stroke-width="0.25" g2gstroke="#312783" stroke-miterlimit="10"/>
	<path orgstroke="#000000" orgfill="none" fill="none" d="M245.998,250.451   c-0.426-0.44-0.916-1.265-0.918-2.225c-0.011-2.195,0.856-3.906,2.5-4.862c0.681-0.396,1.607-0.315,2.113-0.091" stroke="#000000" stroke-width="0.25" g2gstroke="#312783" stroke-miterlimit="10"/>
</g>
</g>
</g></svg>