<svg xmlns="http://www.w3.org/2000/svg" xmlns:xlink="http://www.w3.org/1999/xlink" xmlns:etg="http://www.eurotaxglass.com/etg/evd/" etg:dataTimestamp="1539068912893" contentScriptType="text/ecmascript" zoomAndPan="magnify" contentStyleType="text/css" id="Capa_1" enable-background="new 0 0 1841.891 1595.279" version="1.1" xml:space="preserve" width="1841.891px" preserveAspectRatio="xMidYMid meet" viewBox="0 0 1841.891 1595.279" height="1595.279px" x="0px" y="0px"><g xmlns="http://www.w3.org/2000/svg" objecttype="PS" tooltip="#UNDEFINED" id="39">
<g onmouseover="notifyOwner(AGV_OBJECT_MOUSEOVER, '39(PS)')" transform="translate(33.34486065673826, 21.74257693481445) translate(144.2281553398058, -48.902912621359235) translate(-602.0, 11.0) translate(18.0, 41.0) translate(425.0, 51.0) translate(10.0, 10.00006103515625)" onclick="clickZoom(evt); notifyOwner(AGV_OBJECT_MOUSECLICK, '39(PS)')" onmouseout="notifyOwner(AGV_OBJECT_MOUSEOUT, '39(PS)')" tooltip="#UNDEFINED" id="39-Graphic" objecttype="GRAPHIC">
<g zvalue="3">
<g>
<path orgstroke="#000000" orgfill="#ffffff" fill="#ffffff" g2gfill="#ECC35D" d="M254.646,298.369   c0.182-0.084,0.365-0.184,0.553-0.299c2.143-1.314,3.83-4.145,3.773-6.32c-0.018-0.516-0.125-0.955-0.316-1.295   c0,0-0.18-0.398-0.643-0.879c-0.461-0.48-1.67-1.162-1.67-1.162c-1.094-0.455-1.748-0.395-2.932,0.338   c-2.137,1.313-3.83,4.146-3.77,6.32c0.008,0.238,0.012,0.313,0.08,0.66c0.076,0.348,0.139,0.502-0.119,0.922   c-0.154,0.266-3.814,6.32-4.553,7.551c-0.748,1.238-0.576,0.584-1.002-0.629c-0.311-0.918-1.475-1.045-2.695-0.295   c-1.543,0.947-2.762,2.986-2.721,4.555c0.023,0.848,0.408,1.391,1.004,1.549c0,0,1.551,0.396,2.008,0.449   c0.455,0.053,1.01,0.355,1.469,0.709s1.035,0.791,1.035,0.791c0.344,0.146,0.822,0.074,1.338-0.24   c0.375-0.232,0.725-0.564,1.012-0.938l0.17-0.236c0,0,7.094-10.643,7.393-11.047C254.348,298.473,254.646,298.369,254.646,298.369z   " stroke="#000000" outline-element="true" stroke-width="0.5" g2gstroke="#312783" stroke-miterlimit="10"/>
<path orgstroke="#000000" orgfill="none" fill="none" d="M257.621,293.9   c0.186-0.512,0.285-1.02,0.277-1.488c-0.041-1.57-1.336-2.076-2.879-1.131c-1.545,0.949-2.764,2.996-2.719,4.561   c0.037,1.57,1.332,2.078,2.879,1.129c0.213-0.131,0.42-0.283,0.619-0.453" stroke="#000000" stroke-width="0.25" g2gstroke="#312783" stroke-miterlimit="10"/>
<path orgstroke="#000000" orgfill="none" fill="none" d="M252.633,296.721   c0.455,0.047,1.02-0.105,1.613-0.473c0.211-0.129,0.416-0.281,0.615-0.449" stroke="#000000" stroke-width="0.25" g2gstroke="#312783" stroke-miterlimit="10"/>
<path orgstroke="#000000" orgfill="none" fill="none" d="M256.691,293.178   c0.186-0.514,0.287-1.02,0.273-1.488c-0.006-0.277-0.053-0.52-0.135-0.732" stroke="#000000" stroke-width="0.25" g2gstroke="#312783" stroke-miterlimit="10"/>
<path orgstroke="#000000" orgfill="none" fill="none" d="M256.707,296.33   c0.615-0.379,1.102-1.186,1.084-1.814c-0.018-0.623-0.525-0.824-1.141-0.447c-0.619,0.379-1.098,1.188-1.088,1.816   C255.582,296.506,256.092,296.709,256.707,296.33z" stroke="#000000" stroke-width="0.25" g2gstroke="#312783" stroke-miterlimit="10"/>
<path orgstroke="#000000" orgfill="none" fill="none" d="M255.861,296.459l-2.014-1.441l-0.072-0.074   c-0.125-0.105-0.201-0.281-0.207-0.521c-0.02-0.625,0.469-1.438,1.086-1.814c0.338-0.209,0.645-0.24,0.854-0.123l0.221,0.168   l1.797,1.287" stroke="#000000" stroke-width="0.25" g2gstroke="#312783" stroke-miterlimit="10"/>
<path orgstroke="#000000" orgfill="none" fill="none" d="M244.42,304.867   c-0.225,0.064-0.744,0.291-0.994,0.445c-1.225,0.744-2.186,2.361-2.154,3.598c0.01,0.354,0.1,0.641,0.252,0.852" stroke="#000000" stroke-width="0.25" g2gstroke="#312783" stroke-miterlimit="10"/>
<path orgstroke="#000000" orgfill="none" fill="none" d="M254.139,298.57   c-1.643,0.533-2.879-0.254-2.922-2.061c-0.063-2.176,1.627-5.004,3.77-6.318c1.121-0.693,2.146-0.826,2.877-0.488" stroke="#000000" stroke-width="0.25" g2gstroke="#312783" stroke-miterlimit="10"/>
<path orgstroke="#000000" orgfill="none" fill="none" d="M243.75,303.334   c-0.51-0.156-1.176-0.031-1.904,0.414c-1.543,0.947-2.76,2.986-2.719,4.555c0.008,0.379,0.09,0.684,0.223,0.93" stroke="#000000" stroke-width="0.25" g2gstroke="#312783" stroke-miterlimit="10"/>
<path orgstroke="#000000" orgfill="none" fill="none" d="M251.23,297.57c0,0-6.326,9.869-7.207,11.229   s-0.129,2.363-0.129,2.363" stroke="#000000" stroke-width="0.25" g2gstroke="#312783" stroke-miterlimit="10"/>
<path orgstroke="#000000" orgfill="none" fill="none" d="M242.658,310.246   c-0.143-0.176-0.244-0.547-0.254-0.857c-0.006-0.383,0.09-0.791,0.27-1.197l0.184-0.363c0,0,0.949-1.627,1.848-3.111" stroke="#000000" stroke-width="0.25" g2gstroke="#312783" stroke-miterlimit="10"/>
<path orgstroke="#000000" orgfill="none" fill="none" d="M251.7209930419922 298.0840148925781L249.74200439453125 295.8810119628906" stroke="#000000" stroke-width="0.25" g2gstroke="#312783" stroke-miterlimit="10"/>
</g>
</g>
</g>
</g></svg>