<svg xmlns="http://www.w3.org/2000/svg" xmlns:xlink="http://www.w3.org/1999/xlink" xmlns:etg="http://www.eurotaxglass.com/etg/evd/" etg:dataTimestamp="1539068912893" contentScriptType="text/ecmascript" zoomAndPan="magnify" contentStyleType="text/css" id="Layer_1" enable-background="new 0 0 1841.891 1595.279" version="1.1" width="1841.891px" xml:space="preserve" preserveAspectRatio="xMidYMid meet" viewBox="0 0 1841.891 1595.279" height="1595.279px" x="0px" y="0px"><g xmlns="http://www.w3.org/2000/svg" objecttype="PS" tooltip="#UNDEFINED" id="5">
<g onmouseover="notifyOwner(AGV_OBJECT_MOUSEOVER, '5(PS)')" onclick="clickZoom(evt); notifyOwner(AGV_OBJECT_MOUSECLICK, '5(PS)')" onmouseout="notifyOwner(AGV_OBJECT_MOUSEOUT, '5(PS)')" tooltip="#UNDEFINED" id="5-Graphic" objecttype="GRAPHIC">
<g>
	<polygon orgstroke="#000000" orgfill="#ffffff" points="521.618,158.03 520.118,158.613    518.368,159.697 516.868,160.697 515.618,162.03 514.952,163.197 514.868,163.863 514.791,164.947 514.952,168.113    515.452,168.947 516.618,170.28 518.702,171.363 520.868,172.28 522.702,173.113 524.041,174.197 525.118,175.28 525.791,176.363    526.618,177.863 527.202,179.863 527.368,181.447 527.291,182.78 527.118,183.447 526.618,183.863 519.368,186.78 518.118,187.613    517.041,188.363 516.202,189.363 516.118,190.363 515.952,191.697 516.618,198.03 517.041,199.614 517.618,200.197    518.702,200.864 529.791,206.697 531.868,207.614 533.791,208.28 535.541,208.614 537.618,208.53 539.118,208.364 556.541,202.78    559.041,201.78 561.452,200.697 564.041,199.364 565.952,198.114 566.618,197.197 567.202,196.03 567.118,194.78 565.868,190.697    565.202,189.863 564.291,189.113 559.368,185.53 556.368,184.03 553.952,182.947 551.702,182.113 550.291,181.697 548.868,181.53    542.452,181.78 541.291,181.53 540.202,181.28 538.791,180.53 537.791,179.613 537.291,179.113 537.118,178.197 535.952,164.78    535.541,163.28 534.952,162.113 533.952,161.197 532.868,160.03 530.541,158.863 528.618,158.03 526.702,157.53 525.202,157.447    523.291,157.697  " fill="#ffffff" g2gfill="#ECC35D" outline-element="true" stroke="#000000" stroke-width="0.5" g2gstroke="#312783" stroke-miterlimit="10"/>
	<polyline orgstroke="#000000" orgfill="none" points="533.24,160.425 531.041,160.447    529.791,160.78 528.291,161.613 526.868,162.53 524.702,163.863 523.791,164.197 522.541,164.697 520.702,165.03 519.541,164.78    518.452,164.447 517.541,163.947 517.118,163.53 516.702,162.863  " fill="none" stroke="#000000" stroke-width="0.25" g2gstroke="#312783" stroke-miterlimit="10"/>
	<polyline orgstroke="#000000" orgfill="none" points="519.452,167.53 520.041,167.78    520.791,168.363 521.291,169.53 521.868,171.53  " fill="none" stroke="#000000" stroke-width="0.25" g2gstroke="#312783" stroke-miterlimit="10"/>
	<polyline orgstroke="#000000" orgfill="none" points="534.952,162.78 532.202,162.863    529.702,163.613 527.868,164.613 526.791,165.363 525.368,166.447 524.567,167.116 523.952,168.363 523.952,169.28    524.118,170.447 524.368,171.78 525.041,172.447 526.452,173.03 527.618,173.53 529.041,174.197 529.868,175.03 530.618,176.03    531.041,176.947 531.202,177.863  " fill="none" stroke="#000000" stroke-width="0.25" g2gstroke="#312783" stroke-miterlimit="10"/>
	<polyline orgstroke="#000000" orgfill="none" points="535.041,164.613 533.791,164.197    532.291,164.363 530.952,165.03 529.291,166.113 527.868,166.863 527.118,167.53 526.618,168.28 526.452,168.947 526.452,169.613    526.541,170.863 526.952,171.613 527.618,172.03 529.041,172.78 530.118,173.53 530.702,174.03  " fill="none" stroke="#000000" stroke-width="0.25" g2gstroke="#312783" stroke-miterlimit="10"/>
	<polyline orgstroke="#000000" orgfill="none" points="526.909,178.853 528.118,179.197    529.618,179.447 530.791,179.447 532.118,179.03 533.368,178.363 534.868,177.363 536.368,175.613  " fill="none" stroke="#000000" stroke-width="0.25" g2gstroke="#312783" stroke-miterlimit="10"/>
	<polyline orgstroke="#000000" orgfill="none" points="527.491,179.852 528.702,180.196    530.202,180.446 531.368,180.446 532.702,180.03 533.952,179.363 535.452,178.363 536.952,176.613  " fill="none" stroke="#000000" stroke-width="0.25" g2gstroke="#312783" stroke-miterlimit="10"/>
	<polyline orgstroke="#000000" orgfill="none" points="531.452,181.447 531.702,183.53    531.702,185.447 531.202,187.03 530.618,188.613 530.368,189.613 530.368,190.78  " fill="none" stroke="#000000" stroke-width="0.25" g2gstroke="#312783" stroke-miterlimit="10"/>
	<polyline orgstroke="#000000" orgfill="none" points="524.452,185.197 523.368,186.113    522.452,187.613 522.041,188.447 521.952,189.28 521.868,190.113 522.202,191.03 522.868,191.78 525.202,193.113 528.541,194.363    529.868,194.53 531.202,194.447 532.452,194.447 534.202,193.947 538.118,192.363 540.952,191.197 543.202,190.53 546.541,190.113    549.618,189.78 554.118,189.447 559.291,189.113 560.291,188.78 560.868,188.28 560.952,187.78 560.618,187.03 559.575,185.681     " fill="none" stroke="#000000" stroke-width="0.25" g2gstroke="#312783" stroke-miterlimit="10"/>
	<polyline orgstroke="#000000" orgfill="none" points="533.041,199.197 538.868,196.53    543.041,194.863 547.202,193.197 550.791,192.28 554.868,191.78 560.952,191.363 565.118,191.113  " fill="none" stroke="#000000" stroke-width="0.25" g2gstroke="#312783" stroke-miterlimit="10"/>
	<polyline orgstroke="#000000" orgfill="none" points="516.452,190.363 516.618,191.197    517.291,192.03 522.618,195.53 526.952,197.864 531.291,199.864 533.118,200.364 535.041,200.614 536.368,200.78 538.618,200.614    540.202,200.447 545.952,199.364 550.702,198.114 556.041,196.364 559.868,194.78 563.291,193.197 565.868,191.363  " fill="none" stroke="#000000" stroke-width="0.25" g2gstroke="#312783" stroke-miterlimit="10"/>
	
		<line orgstroke="#000000" orgfill="none" fill="none" x1="534.202" x2="534.291" y1="202.864" y2="205.947" stroke="#000000" stroke-width="0.25" g2gstroke="#312783" stroke-miterlimit="10"/>
	
		<line orgstroke="#000000" orgfill="none" fill="none" x1="539.791" x2="539.952" y1="202.53" y2="205.447" stroke="#000000" stroke-width="0.25" g2gstroke="#312783" stroke-miterlimit="10"/>
	
		<line orgstroke="#000000" orgfill="none" fill="none" x1="536.952" x2="534.291" y1="196.447" y2="194.697" stroke="#000000" stroke-width="0.25" g2gstroke="#312783" stroke-miterlimit="10"/>
	
		<line orgstroke="#000000" orgfill="none" fill="none" x1="540.198" x2="537.531" y1="194.924" y2="193.174" stroke="#000000" stroke-width="0.25" g2gstroke="#312783" stroke-miterlimit="10"/>
	
		<line orgstroke="#000000" orgfill="none" fill="none" x1="543.827" x2="541.166" y1="193.668" y2="191.918" stroke="#000000" stroke-width="0.25" g2gstroke="#312783" stroke-miterlimit="10"/>
	
		<line orgstroke="#000000" orgfill="none" fill="none" x1="547.815" x2="545.149" y1="192.53" y2="190.78" stroke="#000000" stroke-width="0.25" g2gstroke="#312783" stroke-miterlimit="10"/>
	
		<line orgstroke="#000000" orgfill="none" fill="none" x1="551.743" x2="549.077" y1="191.988" y2="190.238" stroke="#000000" stroke-width="0.25" g2gstroke="#312783" stroke-miterlimit="10"/>
	
		<line orgstroke="#000000" orgfill="none" fill="none" x1="555.68" x2="553.012" y1="191.655" y2="189.905" stroke="#000000" stroke-width="0.25" g2gstroke="#312783" stroke-miterlimit="10"/>
	
		<line orgstroke="#000000" orgfill="none" fill="none" x1="559.733" x2="557.065" y1="191.417" y2="189.667" stroke="#000000" stroke-width="0.25" g2gstroke="#312783" stroke-miterlimit="10"/>
	<polyline orgstroke="#000000" orgfill="none" points="558.118,186.572 555.243,186.197    552.493,185.822 550.368,185.697 547.368,185.822 544.118,186.322 542.618,186.322 541.868,186.197 540.743,185.697    540.118,185.072  " fill="none" stroke="#000000" stroke-width="0.25" g2gstroke="#312783" stroke-miterlimit="10"/>
</g>
</g>
</g></svg>