<svg xmlns="http://www.w3.org/2000/svg" xmlns:xlink="http://www.w3.org/1999/xlink" xmlns:etg="http://www.eurotaxglass.com/etg/evd/" etg:dataTimestamp="1539068912893" contentScriptType="text/ecmascript" zoomAndPan="magnify" contentStyleType="text/css" id="Capa_1" enable-background="new 0 0 1841.891 1595.279" version="1.1" xml:space="preserve" width="1841.891px" preserveAspectRatio="xMidYMid meet" viewBox="0 0 1841.891 1595.279" height="1595.279px" x="0px" y="0px"><g xmlns="http://www.w3.org/2000/svg" objecttype="PS" tooltip="#UNDEFINED" id="61">
<g onmouseover="notifyOwner(AGV_OBJECT_MOUSEOVER, '61(PS)')" transform="translate(33.34486065673826, 21.74257693481445) translate(0.0, 0.10615803400497725) translate(-9.129590924428271, -8.06801058437847) translate(-444.7702593608417, -91.23492499709573) translate(425.0, 51.0) translate(10.0, 10.00006103515625)" onclick="clickZoom(evt); notifyOwner(AGV_OBJECT_MOUSECLICK, '61(PS)')" onmouseout="notifyOwner(AGV_OBJECT_MOUSEOUT, '61(PS)')" tooltip="#UNDEFINED" id="61-Graphic" objecttype="GRAPHIC">
<g zvalue="25">
<g>
<path orgstroke="#000000" orgfill="#ffffff" fill="#ffffff" g2gfill="#ECF5E4" d="M530.121,266.127   c0.049-0.021,0.098-0.047,0.146-0.078l2.824-1.713c0.527-0.314,0.617-0.686,0.801-0.932c0.373-0.504,0.803-1.137,1.096-1.855   c1.051-2.602,5.301-5.244,8.559-5.588c2.9-0.303,5.676-2.934,6.768-4.504c0.209-0.293,0.186-0.586,0.186-0.832v-3.5   c0-0.225-0.004-0.471-0.385-0.758l-1.506-0.861c-0.391-0.225-0.688-0.041-0.787,0.143c-0.254,0.467-0.762,1.072-1.434,1.695   c-0.305,0.293-0.432,0.334-0.434-0.135v-1.498c0-0.174-0.01-0.455-0.225-0.576l-1.492-0.852c-0.137-0.078-0.318-0.094-0.449-0.006   l-6.459,3.697c-0.189,0.107-0.289,0.354-0.289,0.49v4.074c0,0.068-0.016,0.156-0.094,0.207c-2.391,1.627-4.596,3.912-4.961,4.561   c-0.646,1.146-0.434,1.959-1.197,2.645l-1.475,1.035c-0.496,0.344-2.373,0.25-3.34,0.938c-0.686,0.49-0.037,1.434-0.322,1.631   l-0.441,0.313c-0.814,0.492-1.363,1.518-1.348,2.34l0,0c0.006,0.205,0.021,0.4,0.135,0.508c0.393,0.377,1.988,1.135,1.988,1.135   l0.076,0.043c0.316,0.146,0.799,0.063,1.32-0.246l1.922-1.201C529.557,266.299,529.9,266.25,530.121,266.127z" stroke="#000000" outline-element="true" stroke-width="0.5" g2gstroke="#312783" stroke-miterlimit="10"/>
<path orgstroke="#000000" orgfill="none" fill="none" d="M537.9180297851562 253.08999633789062L537.9180297851562 248.64500427246094" stroke="#000000" stroke-width="0.25" g2gstroke="#312783" stroke-miterlimit="10"/>
<path orgstroke="#000000" orgfill="none" fill="none" d="M537.043,248.174l0.617,0.352   c0.096,0.059,0.262,0.105,0.492-0.039c1.18-0.744,2.379-1.324,3.414-1.438c0.299-0.029,1.174,0.205,1.486,0.123   c1.168-0.293,2.084-1,2.844-1.854" stroke="#000000" stroke-width="0.25" g2gstroke="#312783" stroke-miterlimit="10"/>
<path orgstroke="#000000" orgfill="none" fill="none" d="M545.957,247.678v1.861   c0,0.16-0.041,0.303-0.135,0.406c-0.752,0.814-1.637,1.492-2.766,1.773c-0.309,0.076-1.18-0.156-1.484-0.123   c-1.035,0.113-2.229,0.682-3.404,1.43c-0.162,0.104-0.389,0.072-0.5-0.002l-0.623-0.354" stroke="#000000" stroke-width="0.25" g2gstroke="#312783" stroke-miterlimit="10"/>
<path orgstroke="#000000" orgfill="none" fill="none" d="M529.531,266.127c0,0-0.533-0.293-0.686-0.426   c-0.092-0.072-0.117-0.217-0.123-0.383l0,0c-0.01-0.525,0.4-1.211,0.926-1.529l2.818-1.713c0.299-0.176,0.561-0.207,0.738-0.092   l0.529,0.295" stroke="#000000" stroke-width="0.25" g2gstroke="#312783" stroke-miterlimit="10"/>
<path orgstroke="#000000" orgfill="none" fill="none" d="M529.75,266.207   c-0.256-0.02-0.43-0.207-0.434-0.541l0,0c-0.014-0.523,0.4-1.209,0.924-1.529l2.82-1.711c0.527-0.316,0.953-0.146,0.967,0.387l0,0   c0.004,0.205-0.059,0.436-0.158,0.662" stroke="#000000" stroke-width="0.25" g2gstroke="#312783" stroke-miterlimit="10"/>
<path orgstroke="#000000" orgfill="none" fill="none" d="M526.068,267.891   c-0.221-0.104-0.359-0.322-0.365-0.662l0,0c-0.021-0.82,0.598-1.811,1.363-2.385l6.813-5.09c0.766-0.686,0.555-1.5,1.201-2.646   c0.563-0.99,4.178-4.639,7.438-4.982c3.178-0.336,6.869-3.555,7.908-5.408" stroke="#000000" stroke-width="0.25" g2gstroke="#312783" stroke-miterlimit="10"/>
<path orgstroke="#000000" orgfill="none" fill="none" d="M534.2420043945312 259.3160095214844L534.2420043945312 262.94500732421875" stroke="#000000" stroke-width="0.25" g2gstroke="#312783" stroke-miterlimit="10"/>
<path orgstroke="#000000" orgfill="none" fill="none" d="M533.4,263.188   c0.01,0.389-0.297,0.891-0.678,1.121l-2.074,1.258c-0.387,0.232-0.701,0.107-0.709-0.283l0,0c-0.008-0.389,0.297-0.891,0.678-1.119   l2.076-1.258C533.074,262.676,533.391,262.799,533.4,263.188L533.4,263.188z" stroke="#000000" stroke-width="0.25" g2gstroke="#312783" stroke-miterlimit="10"/>
<path orgstroke="#000000" orgfill="none" fill="none" d="M532.986,262.795   c0.016,0.051,0.021,0.107,0.023,0.17l0,0c0.008,0.387-0.295,0.889-0.678,1.119l-2.074,1.256c-0.104,0.066-0.207,0.1-0.297,0.115" stroke="#000000" stroke-width="0.25" g2gstroke="#312783" stroke-miterlimit="10"/>
<path orgstroke="#000000" orgfill="none" fill="none" d="M538.8400268554688 253.61300659179688L538.8400268554688 257.70098876953125" stroke="#000000" stroke-width="0.25" g2gstroke="#312783" stroke-miterlimit="10"/>
<path orgstroke="#000000" orgfill="none" fill="none" d="M543.8870239257812 251.85000610351562L543.8870239257812 255.93800354003906" stroke="#000000" stroke-width="0.25" g2gstroke="#312783" stroke-miterlimit="10"/>
<path orgstroke="#000000" orgfill="none" fill="none" d="M544.672,253.492   c0-0.395,0.191-1.004,0.662-1.391c0.475-0.381,2.727-1.746,3.189-2.119c0.596-0.48,0.742-0.754,1.02-0.631   c0.627,0.271,0.676,1.037,0.34,1.576c-0.475,0.75-2.785,2.98-3.561,3.314C545.613,254.559,544.672,254.668,544.672,253.492z" stroke="#000000" stroke-width="0.25" g2gstroke="#312783" stroke-miterlimit="10"/>
<path orgstroke="#000000" orgfill="none" fill="none" d="M549.369,249.326   c0.264,0.354,0.227,0.889-0.023,1.293c-0.475,0.75-2.785,2.979-3.563,3.313c-0.309,0.137-0.662,0.234-0.961,0.207" stroke="#000000" stroke-width="0.25" g2gstroke="#312783" stroke-miterlimit="10"/>
<path orgstroke="#000000" orgfill="none" fill="none" d="M540.994,249.459   c-0.078,0.57-0.523,1.189-0.986,1.377c-0.463,0.189-0.777-0.123-0.695-0.699c0.078-0.57,0.525-1.191,0.986-1.377   C540.764,248.574,541.074,248.889,540.994,249.459z" stroke="#000000" stroke-width="0.25" g2gstroke="#312783" stroke-miterlimit="10"/>
<path orgstroke="#000000" orgfill="none" fill="none" d="M542.176025390625 247.11099243164062L542.176025390625 251.6580047607422" stroke="#000000" stroke-width="0.25" g2gstroke="#312783" stroke-miterlimit="10"/>
<path orgstroke="#000000" orgfill="none" fill="none" d="M543.1500244140625 247.15199279785156L543.1500244140625 251.72999572753906" stroke="#000000" stroke-width="0.25" g2gstroke="#312783" stroke-miterlimit="10"/>
</g>
</g>
</g>
</g></svg>