<svg xmlns="http://www.w3.org/2000/svg" xmlns:xlink="http://www.w3.org/1999/xlink" xmlns:etg="http://www.eurotaxglass.com/etg/evd/" etg:dataTimestamp="1539068912893" contentScriptType="text/ecmascript" zoomAndPan="magnify" contentStyleType="text/css" id="Layer_1" enable-background="new 0 0 1841.891 1595.279" version="1.1" xml:space="preserve" width="1841.891px" preserveAspectRatio="xMidYMid meet" viewBox="0 0 1841.891 1595.279" height="1595.279px" x="0px" y="0px"><g xmlns="http://www.w3.org/2000/svg" objecttype="PS" tooltip="#UNDEFINED" id="10">
<g onmouseover="notifyOwner(AGV_OBJECT_MOUSEOVER, '10(PS)')" onclick="clickZoom(evt); notifyOwner(AGV_OBJECT_MOUSECLICK, '10(PS)')" onmouseout="notifyOwner(AGV_OBJECT_MOUSEOUT, '10(PS)')" tooltip="#UNDEFINED" id="10-Graphic" objecttype="GRAPHIC">
<g>
	<path orgstroke="#000000" orgfill="#ffffff" fill="#ffffff" g2gfill="#ECF5E4" stroke-linejoin="round" d="M180.417,205.865   v-3.493l-0.007-0.131c-0.14-1.221-2.082-2.188-4.473-2.188c-2.469,0-4.471,1.029-4.471,2.313v5.646l2.063,4.565v4.688   c0,0.93,0.688,1.704,2.481,1.704c1.791,0,2.54-0.731,2.54-1.661v-4.688l0.615-0.843l4.688,2.67   c0.376,0.162,0.896,0.094,1.474-0.238c1.146-0.654,2.079-2.13,2.079-3.271c0-0.573-0.234-0.958-0.609-1.117l-0.146-0.083   l-5.784-3.283L180.417,205.865z" outline-element="true" stroke="#000000" stroke-width="0.5" g2gstroke="#312783" stroke-miterlimit="10"/>
	<path orgstroke="#000000" orgfill="none" fill="none" d="M180.066,203.277   c-0.678,0.833-2.267,1.417-4.12,1.417c-2.018,0-3.723-0.692-4.271-1.647" stroke="#000000" stroke-width="0.25" g2gstroke="#312783" stroke-miterlimit="10"/>
	<path orgstroke="#000000" orgfill="none" fill="none" d="M176.027,210.187   c-2.018,0-3.725-0.692-4.271-1.648" stroke="#000000" stroke-width="0.25" g2gstroke="#312783" stroke-miterlimit="10"/>
	<path orgstroke="#000000" orgfill="none" fill="none" d="M178.567,215.505   c0,0.938-0.746,1.661-2.54,1.661s-2.48-0.771-2.48-1.706" stroke="#000000" stroke-width="0.25" g2gstroke="#312783" stroke-miterlimit="10"/>
	
	<path orgstroke="#000000" orgfill="none" fill="none" d="M178.567,212.531   c0,0.929-0.746,1.658-2.54,1.658s-2.48-0.771-2.48-1.701" stroke="#000000" stroke-width="0.25" g2gstroke="#312783" stroke-miterlimit="10"/>
	
		<ellipse orgstroke="#000000" orgfill="none" fill="none" rx="2.354" cx="175.816" ry="1.283" cy="202.373" stroke="#000000" stroke-width="0.25" g2gstroke="#312783" stroke-miterlimit="10"/>
	<path orgstroke="#000000" orgfill="none" fill="none" d="M183.263,213.339   c0-1.146,0.932-2.607,2.079-3.271c0.287-0.165,0.561-0.271,0.808-0.311" stroke="#000000" stroke-width="0.25" g2gstroke="#312783" stroke-miterlimit="10"/>
	<path orgstroke="#000000" orgfill="none" fill="none" d="M182.286,212.761   c0-1.15,0.933-2.618,2.081-3.279c0.276-0.165,0.561-0.271,0.809-0.303" stroke="#000000" stroke-width="0.25" g2gstroke="#312783" stroke-miterlimit="10"/>
	<path orgstroke="#000000" orgfill="none" fill="none" d="M181.298,212.122   c0-1.146,0.932-2.616,2.079-3.271c0.288-0.166,0.56-0.271,0.809-0.313" stroke="#000000" stroke-width="0.25" g2gstroke="#312783" stroke-miterlimit="10"/>
	<path orgstroke="#000000" orgfill="none" fill="none" d="M179.88,205.802l-0.521-0.266l-0.419-0.13   l-0.257-0.031l-0.394-0.03c-0.249,0.03-0.523,0.138-0.813,0.303c-1.146,0.663-2.076,2.705-2.076,3.852l0.313,0.318l3.366,1.916" stroke="#000000" stroke-width="0.25" g2gstroke="#312783" stroke-miterlimit="10"/>
</g>
</g>
</g></svg>