<svg xmlns="http://www.w3.org/2000/svg" xmlns:xlink="http://www.w3.org/1999/xlink" xmlns:etg="http://www.eurotaxglass.com/etg/evd/" etg:dataTimestamp="1539068912893" contentScriptType="text/ecmascript" zoomAndPan="magnify" contentStyleType="text/css" id="Capa_1" enable-background="new 0 0 1841.891 1595.279" version="1.1" xml:space="preserve" width="1841.891px" preserveAspectRatio="xMidYMid meet" viewBox="0 0 1841.891 1595.279" height="1595.279px" x="0px" y="0px"><g xmlns="http://www.w3.org/2000/svg" objecttype="PS" tooltip="#UNDEFINED" id="109">
<g onmouseover="notifyOwner(AGV_OBJECT_MOUSEOVER, '109(PS)')" transform="translate(30.298809631347638, 36.772926666259764) translate(-637.0022509266453, -53.86035292387896) translate(-85.68454822790818, -41.032037179561655) translate(-13.275070852211229, 25.946729392958105) translate(539.5276378078531, -260.69612751219796) translate(-316.2438647816483, 57.78542379731107) translate(481.0, 219.0) translate(10.0, 10.00006103515625)" onclick="clickZoom(evt); notifyOwner(AGV_OBJECT_MOUSECLICK, '109(PS)')" onmouseout="notifyOwner(AGV_OBJECT_MOUSEOUT, '109(PS)')" tooltip="#UNDEFINED" id="109-Graphic" objecttype="GRAPHIC">
<g zvalue="21">
<g>
<path stroke-linecap="round" orgstroke="#000000" orgfill="#ffffff" fill="#ffffff" g2gfill="#ECC35D" stroke-linejoin="round" d="M569.165,258.212   c-0.691,0.4-2.576,1.584-3.886,2.969c-0.953,0.996-1.418,2.412-1.37,2.896c0.023,0.24,0.101,0.396,0.216,0.504   c0,0,0.704,0.432,1.87-0.174c1.168-0.605,2.107-1.078,2.989-1.6c0.618-0.367,1.043-0.488,1.223-1.377   c0.074-0.365,0.038-2.633,0.021-2.916C570.196,258.017,569.749,257.871,569.165,258.212z M568.991,261.244   c-0.075,0.479-0.216,0.557-0.508,0.729c-0.392,0.232-1.775,1.016-2.141,1.225c-0.362,0.209-0.91,0.389-0.91-0.186   c0-0.578,0.284-0.91,0.597-1.242c0.508-0.529,1.955-1.463,2.23-1.637h-0.007c0.395-0.229,0.79-0.283,0.79,0.092   C569.043,260.476,569.016,261.093,568.991,261.244z" stroke="#000000" outline-element="true" stroke-width="0.5" g2gstroke="#312783"/>
</g>
</g>
</g>
</g></svg>