<svg xmlns="http://www.w3.org/2000/svg" xmlns:xlink="http://www.w3.org/1999/xlink" xmlns:etg="http://www.eurotaxglass.com/etg/evd/" etg:dataTimestamp="1539068912893" contentScriptType="text/ecmascript" zoomAndPan="magnify" contentStyleType="text/css" id="Layer_1" enable-background="new 0 0 1841.891 1595.279" version="1.1" xml:space="preserve" width="1841.891px" preserveAspectRatio="xMidYMid meet" viewBox="0 0 1841.891 1595.279" height="1595.279px" x="0px" y="0px"><g xmlns="http://www.w3.org/2000/svg" objecttype="PS" tooltip="#UNDEFINED" id="12">
<g onmouseover="notifyOwner(AGV_OBJECT_MOUSEOVER, '12(PS)')" onclick="clickZoom(evt); notifyOwner(AGV_OBJECT_MOUSECLICK, '12(PS)')" onmouseout="notifyOwner(AGV_OBJECT_MOUSEOUT, '12(PS)')" tooltip="#UNDEFINED" id="12-Graphic" objecttype="GRAPHIC">
<g>
	<path orgstroke="#000000" orgfill="#ffffff" fill="#ffffff" g2gfill="#ECF5E4" d="M355.871,154.239l-24.313,30.699l-1.337,3.221   l-4.933,6.23l-0.896,0.192l-0.771,0.456l-0.281,0.421l-0.967,1.392l-0.289,0.763l-0.008,0.484l0.038,0.561l-0.212,0.736   l-2.393,3.929v0.561l0.188,0.309l-0.094,0.542l-1.592,1.87v0.647l2.342,3.743l0.563,0.374l9.165,0.563l0.28-0.477l-0.28-0.647   l-2.619-5.058l0.125-0.612l1.324-1.679l0.277-0.457l0.354-0.35l0.556-0.514l1.138-1.498l0.255-0.583l0.044-0.665l0.046-0.286   l0.16-0.535l4.763-6.01l3.505-2.799l24.382-30.794l0.439-0.071l9.613,5.601l0.529-0.149l26.467-22.029l0.438,0.222l-0.003,0.731   l0.185,0.467l0.278,0.094l1.044,0.524l0.703-0.048l0.472-0.099l-0.053,0.055l3.797-3.188l0.525,0.244   c0.234,0.771,0.54,1.411,0.931,1.743l2.104,0.982l1.685,0.215l0.771-0.215l3.576-2.456l1.332-0.487l1.331-0.146l2.033-0.486   l3.646-1.479l1.337-0.842l0.207,0.211l1.335,1.021l0.843,0.146l1.4,0.07l5.611-4.033l0.142-0.354l-0.353-0.352l-8.907-4.563   l-0.563-0.146l-3.754,0.481h-0.706l-0.349,0.493l-0.146,0.698l-0.03,4.287l-0.253,0.437l-1.643,0.552l-1.545,0.349l-0.979-0.065   l-1.546-0.211l-0.563,0.066l-2.104,1.192l-0.214-0.113V137.9v-0.875l0.281-0.493l0.173-0.182l2.179-1.823l0.606-0.61l0.515-0.842   l0.047-4.583l-0.047-0.656l-0.145-0.373l-0.354-0.228l-1.083-0.598l-0.317-0.068L415,126.644l-0.423,0.212l-0.315,0.175   l-1.972,1.744l-0.659,0.675l-0.314,0.146l-0.205-0.066l-0.063-0.21l-0.037-0.28l0.4-0.604l0.253-0.397l0,0l0.271-0.604l0.146-0.375   l0.091-0.521v-0.748l-0.184-0.274l-0.328-0.428l-0.329-0.322l-0.422-0.604l-0.229-0.892l-0.05-1.073l-0.048-0.748l0.099-0.519   l0.09-0.746l0.33-0.396l0.278-0.596v-4.738l0.386-0.592l3.625-3.146c0.468-0.316,0.75-0.917,0.75-1.729   c0-0.072-0.002-0.146-0.005-0.221l0.26-0.566l2.83-2.35c0.398-0.209,0.646-0.652,0.646-1.292c0-1.364-1.104-3.109-2.478-3.896   c-0.854-0.494-1.604-0.495-2.051-0.094l-2.81,2.35l-0.635,0.194c-0.933-0.337-1.724-0.231-2.219,0.255l-3.503,2.953l-0.788,0.125   l-2.009-1.146l-0.592,0.027l-7.438,6.173l-0.553,0.089l-3.367-1.938l-0.598,0.1l-5.616,5.104l-1.554,0.555L364.2,133.065   l-2.815,0.68L346.089,146.7l-0.222,0.271l-0.036,0.659l0.14,0.281l0.658,0.393l9.015,5.253L355.871,154.239z" outline-element="true" stroke="#000000" stroke-width="0.5" g2gstroke="#312783" stroke-miterlimit="10"/>
	
		<line orgstroke="#000000" orgfill="none" fill="none" x1="368.84" x2="387.054" y1="159.454" y2="144.03" stroke="#000000" stroke-width="0.25" g2gstroke="#312783" stroke-miterlimit="10"/>
	<polyline orgstroke="#000000" orgfill="none" points="368.84,151.107 377.878,143.454    381.064,142.461 400.411,125.114 401.13,123.588 406.336,118.919  " fill="none" stroke="#000000" stroke-width="0.25" g2gstroke="#312783" stroke-miterlimit="10"/>
	
		<line orgstroke="#000000" orgfill="none" fill="none" x1="380.081" x2="392.764" y1="141.386" y2="130.014" stroke="#000000" stroke-width="0.25" g2gstroke="#312783" stroke-miterlimit="10"/>
	
		<line orgstroke="#000000" orgfill="none" fill="none" x1="366.001" x2="378.648" y1="133.341" y2="121.867" stroke="#000000" stroke-width="0.25" g2gstroke="#312783" stroke-miterlimit="10"/>
	<polyline orgstroke="#000000" orgfill="none" points="346.462,146.645 374.289,162.86    374.822,162.699 401.558,140.06  " fill="none" stroke="#000000" stroke-width="0.25" g2gstroke="#312783" stroke-miterlimit="10"/>
	
		<line orgstroke="#000000" orgfill="none" fill="none" x1="356.169" x2="364.464" y1="153.849" y2="158.68" stroke="#000000" stroke-width="0.25" g2gstroke="#312783" stroke-miterlimit="10"/>
	
		<line orgstroke="#000000" orgfill="none" fill="none" x1="368.637" x2="368.637" y1="159.454" y2="151.107" stroke="#000000" stroke-width="0.25" g2gstroke="#312783" stroke-miterlimit="10"/>
	
		<line orgstroke="#000000" orgfill="none" fill="none" x1="352.362" x2="352.362" y1="149.985" y2="141.639" stroke="#000000" stroke-width="0.25" g2gstroke="#312783" stroke-miterlimit="10"/>
	
		<line orgstroke="#000000" orgfill="none" fill="none" x1="368.637" x2="352.666" y1="151.107" y2="141.884" stroke="#000000" stroke-width="0.25" g2gstroke="#312783" stroke-miterlimit="10"/>
	<polyline orgstroke="#000000" orgfill="none" points="   366.466,158.256 366.466,151.885 354.28,144.85 354.047,144.661 354.047,151.03  " fill="none" stroke-linejoin="round" stroke="#000000" stroke-width="0.25" g2gstroke="#312783" stroke-miterlimit="10"/>
	
		<line orgstroke="#000000" orgfill="none" fill="none" x1="377.547" x2="361.483" y1="143.419" y2="134.016" stroke="#000000" stroke-width="0.25" g2gstroke="#312783" stroke-miterlimit="10"/>
	
		<line orgstroke="#000000" orgfill="none" fill="none" x1="380.78" x2="364.716" y1="142.424" y2="133.026" stroke="#000000" stroke-width="0.25" g2gstroke="#312783" stroke-miterlimit="10"/>
	
		<line orgstroke="#000000" orgfill="none" fill="none" x1="394.006" x2="377.942" y1="130.301" y2="120.899" stroke="#000000" stroke-width="0.25" g2gstroke="#312783" stroke-miterlimit="10"/>
	
		<line orgstroke="#000000" orgfill="none" fill="none" x1="400.069" x2="384.005" y1="125.07" y2="115.669" stroke="#000000" stroke-width="0.25" g2gstroke="#312783" stroke-miterlimit="10"/>
	
		<line orgstroke="#000000" orgfill="none" fill="none" x1="401.199" x2="385.434" y1="123.729" y2="114.637" stroke="#000000" stroke-width="0.25" g2gstroke="#312783" stroke-miterlimit="10"/>
	
		<line orgstroke="#000000" orgfill="none" fill="none" x1="400.233" x2="400.233" y1="125.272" y2="130.555" stroke="#000000" stroke-width="0.25" g2gstroke="#312783" stroke-miterlimit="10"/>
	
		<line orgstroke="#000000" orgfill="none" fill="none" x1="401.13" x2="401.13" y1="123.588" y2="129.994" stroke="#000000" stroke-width="0.25" g2gstroke="#312783" stroke-miterlimit="10"/>
	<polyline orgstroke="#000000" orgfill="none" points="402.625,130.005 406.716,126.538    406.843,126.336 406.843,118.912 406.716,118.45 395.288,111.856  " fill="none" stroke="#000000" stroke-width="0.25" g2gstroke="#312783" stroke-miterlimit="10"/>
	
		<line orgstroke="#000000" orgfill="none" fill="none" x1="371.163" x2="384.331" y1="136.419" y2="125.18" stroke="#000000" stroke-width="0.25" g2gstroke="#312783" stroke-miterlimit="10"/>
	
		<line orgstroke="#000000" orgfill="none" fill="none" x1="354.047" x2="358.111" y1="151.03" y2="147.562" stroke="#000000" stroke-width="0.25" g2gstroke="#312783" stroke-miterlimit="10"/>
	
		<line orgstroke="#000000" orgfill="none" fill="none" x1="374.574" x2="374.574" y1="162.893" y2="164.347" stroke="#000000" stroke-width="0.25" g2gstroke="#312783" stroke-miterlimit="10"/>
	<line orgstroke="#000000" orgfill="none" fill="none" x1="403.664" x2="411.1" y1="116.4" y2="110.227" stroke="#000000" stroke-width="0.25" g2gstroke="#312783" stroke-miterlimit="10"/>
	
		<line orgstroke="#000000" orgfill="none" fill="none" x1="407.152" x2="411.1" y1="123.059" y2="119.781" stroke="#000000" stroke-width="0.25" g2gstroke="#312783" stroke-miterlimit="10"/>
	<polyline orgstroke="#000000" orgfill="none" points="411.38,113.814 411.38,110.227    411.193,109.746 406.233,106.917  " fill="none" stroke="#000000" stroke-width="0.25" g2gstroke="#312783" stroke-miterlimit="10"/>
	<path orgstroke="#000000" orgfill="none" fill="none" d="M412.794,103.552   c1.553,0.965,2.848,2.792,3.229,4.465" stroke="#000000" stroke-width="0.25" g2gstroke="#312783" stroke-miterlimit="10"/>
	
		<line orgstroke="#000000" orgfill="none" fill="none" x1="411.131" x2="416.123" y1="131.707" y2="127.521" stroke="#000000" stroke-width="0.25" g2gstroke="#312783" stroke-miterlimit="10"/>
	<polyline orgstroke="#000000" orgfill="none" points="404.104,144.309 403.824,144.214    403.638,143.747 403.685,138.838 403.824,138.276 404.104,137.76 404.528,137.248 407.799,134.501  " fill="none" stroke="#000000" stroke-width="0.25" g2gstroke="#312783" stroke-miterlimit="10"/>
	<polyline orgstroke="#000000" orgfill="none" points="401.906,141.558 401.939,138.364    402.077,137.802 402.357,137.287 402.781,136.775 411.002,129.878  " fill="none" stroke="#000000" stroke-width="0.25" g2gstroke="#312783" stroke-miterlimit="10"/>
	<path orgstroke="#000000" orgfill="none" fill="none" d="M407.937,139.266l-1.63,1.465   c-0.624,0.284-1.104,0.035-1.104-0.607c0-0.688,0.561-1.581,1.256-1.979l1.248-1.104" stroke="#000000" stroke-width="0.25" g2gstroke="#312783" stroke-miterlimit="10"/>
	<path orgstroke="#000000" orgfill="none" fill="none" d="M412.802,132.548l2.114-1.857   c0.449-0.071,0.764,0.188,0.764,0.712c0,0.592-0.407,1.313-0.955,1.771l-0.68,0.612" stroke="#000000" stroke-width="0.25" g2gstroke="#312783" stroke-miterlimit="10"/>
	<polyline orgstroke="#000000" orgfill="none" points="387.528,143.631 391.925,145.802    393.047,146.082 393.992,146.082 394.712,145.745 395.012,145.102 395.012,145.102 394.873,142.996 394.873,141.873    395.293,140.893 395.997,140.332 396.838,140.052 397.96,140.052 401.42,140.297  " fill="none" stroke="#000000" stroke-width="0.25" g2gstroke="#312783" stroke-miterlimit="10"/>
	<polyline orgstroke="#000000" orgfill="none" points="387.377,141.952 391.774,144.122    392.895,144.404 393.844,144.404 394.561,144.066 394.86,143.421 394.86,143.421 394.722,141.317 394.722,140.193 395.14,139.211    395.845,138.651 396.686,138.37 397.809,138.37 401.269,138.618  " fill="none" stroke="#000000" stroke-width="0.25" g2gstroke="#312783" stroke-miterlimit="10"/>
	<polyline orgstroke="#000000" orgfill="none" points="387.528,143.631 387.377,141.952    387.504,141.698 387.754,141.382 400.233,130.798  " fill="none" stroke="#000000" stroke-width="0.25" g2gstroke="#312783" stroke-miterlimit="10"/>
	<polyline orgstroke="#000000" orgfill="none" points="400.126,130.89 401.13,130.555    402.015,130.522 406.891,131.866 407.264,132.334 407.32,132.421  " fill="none" stroke="#000000" stroke-width="0.25" g2gstroke="#312783" stroke-miterlimit="10"/>
	<path orgstroke="#000000" orgfill="none" fill="none" d="M413.494,134.277   c0-1.065-0.863-1.431-1.936-0.814c-1.063,0.615-1.927,1.979-1.927,3.042c0,0,0.281,7.271,2.245,7.558" stroke="#000000" stroke-width="0.25" g2gstroke="#312783" stroke-miterlimit="10"/>
	<path orgstroke="#000000" orgfill="none" fill="none" d="M411.319,132.489   c-0.349-0.149-0.833-0.085-1.354,0.221c-1.066,0.617-1.938,1.979-1.938,3.043c0,0,0.104,2.749,0.646,4.938" stroke="#000000" stroke-width="0.25" g2gstroke="#312783" stroke-miterlimit="10"/>
	
		<line orgstroke="#000000" orgfill="none" fill="none" x1="413.494" x2="413.494" y1="134.277" y2="143.634" stroke="#000000" stroke-width="0.25" g2gstroke="#312783" stroke-miterlimit="10"/>
	
		<line orgstroke="#000000" orgfill="none" fill="none" x1="413.774" x2="418.059" y1="142.373" y2="139.495" stroke="#000000" stroke-width="0.25" g2gstroke="#312783" stroke-miterlimit="10"/>
	
		<line orgstroke="#000000" orgfill="none" fill="none" x1="422.729" x2="424.437" y1="136.348" y2="135.777" stroke="#000000" stroke-width="0.25" g2gstroke="#312783" stroke-miterlimit="10"/>
	
		<line orgstroke="#000000" orgfill="none" fill="none" x1="411.319" x2="413.068" y1="132.489" y2="133.315" stroke="#000000" stroke-width="0.25" g2gstroke="#312783" stroke-miterlimit="10"/>
	<polyline orgstroke="#000000" orgfill="none" points="416.298,137.603 418.263,139.073    420.44,139.287  " fill="none" stroke="#000000" stroke-width="0.25" g2gstroke="#312783" stroke-miterlimit="10"/>
	<polyline orgstroke="#000000" orgfill="none" points="420.824,138.846 421.448,138.143    422.365,137.794 426.015,136.952  " fill="none" stroke="#000000" stroke-width="0.25" g2gstroke="#312783" stroke-miterlimit="10"/>
	<polyline orgstroke="#000000" orgfill="none" points="422.965,131.217 430.611,135.146    431.448,135.566 436.502,135.146  " fill="none" stroke="#000000" stroke-width="0.25" g2gstroke="#312783" stroke-miterlimit="10"/>
	
		<line orgstroke="#000000" orgfill="none" fill="none" x1="431.384" x2="431.314" y1="136.268" y2="138.232" stroke="#000000" stroke-width="0.25" g2gstroke="#312783" stroke-miterlimit="10"/>
	<polyline orgstroke="#000000" orgfill="none" points="424.437,135.777 425.698,135.358    426.4,135.497 426.823,135.706 427.945,137.603  " fill="none" stroke="#000000" stroke-width="0.25" g2gstroke="#312783" stroke-miterlimit="10"/>
	<path orgstroke="#000000" orgfill="none" fill="none" d="M412.583,135.189   c0,0.562-0.455,1.271-1.021,1.604c-0.561,0.324-1.018,0.133-1.018-0.43c0-0.563,0.457-1.278,1.018-1.603   C412.129,134.438,412.583,134.627,412.583,135.189z" stroke="#000000" stroke-width="0.25" g2gstroke="#312783" stroke-miterlimit="10"/>
	<path orgstroke="#000000" orgfill="none" fill="none" d="M407.76,117.978   c0-0.563,0.454-1.279,1.016-1.604c0.563-0.327,1.021-0.134,1.021,0.436" stroke="#000000" stroke-width="0.25" g2gstroke="#312783" stroke-miterlimit="10"/>
	<path orgstroke="#000000" orgfill="none" fill="none" d="M386.039,142.344   c0,0.561-0.456,1.271-1.021,1.604c-0.561,0.324-1.017,0.133-1.017-0.431c0-0.564,0.456-1.28,1.017-1.604   C385.583,141.59,386.039,141.781,386.039,142.344z" stroke="#000000" stroke-width="0.25" g2gstroke="#312783" stroke-miterlimit="10"/>
	
		<line orgstroke="#000000" orgfill="none" fill="none" x1="411.849" x2="406.141" y1="125.974" y2="131.21" stroke="#000000" stroke-width="0.25" g2gstroke="#312783" stroke-miterlimit="10"/>
	<path orgstroke="#000000" orgfill="none" fill="none" d="M331.56,184.938c0,0,0.881,5.891,7.826,5.343" stroke="#000000" stroke-width="0.25" g2gstroke="#312783" stroke-miterlimit="10"/>
	<path orgstroke="#000000" orgfill="none" fill="none" d="M349.215,162.893c0,0,0.417,2.795,3.711,2.537" stroke="#000000" stroke-width="0.25" g2gstroke="#312783" stroke-miterlimit="10"/>
	<path orgstroke="#000000" orgfill="none" fill="none" d="M330.604,186.694c0,0,0.795,5.325,7.074,4.833" stroke="#000000" stroke-width="0.25" g2gstroke="#312783" stroke-miterlimit="10"/>
	<path orgstroke="#000000" orgfill="none" fill="none" d="M331.555,199.4   c0.037,0.465-0.058,0.892-0.298,1.248c-0.866,1.26-3.295,1.096-5.432-0.367c-2.144-1.462-3.18-3.667-2.313-4.93   c0.216-0.315,0.53-0.542,0.911-0.688" stroke="#000000" stroke-width="0.25" g2gstroke="#312783" stroke-miterlimit="10"/>
	<path orgstroke="#000000" orgfill="none" fill="none" d="M330.122,202.146   c-0.864,1.261-3.292,1.097-5.438-0.365c-2.138-1.462-3.168-3.667-2.305-4.93" stroke="#000000" stroke-width="0.25" g2gstroke="#312783" stroke-miterlimit="10"/>
	
	<path orgstroke="#000000" orgfill="none" fill="none" d="M330.48,199.592   c-0.646,0.953-2.48,0.83-4.104-0.271c-1.613-1.104-2.396-2.771-1.74-3.729" stroke="#000000" stroke-width="0.25" g2gstroke="#312783" stroke-miterlimit="10"/>
	<polyline orgstroke="#000000" orgfill="none" points="319.968,204.614 321.661,207.416    322.361,207.834 325.424,207.955 325.705,207.532 327.333,205.481  " fill="none" stroke="#000000" stroke-width="0.25" g2gstroke="#312783" stroke-miterlimit="10"/>
	
		<line orgstroke="#000000" orgfill="none" fill="none" x1="322.414" x2="325.08" y1="206.926" y2="203.136" stroke="#000000" stroke-width="0.25" g2gstroke="#312783" stroke-miterlimit="10"/>
	
		<line orgstroke="#000000" orgfill="none" fill="none" x1="325.61" x2="329.727" y1="208.469" y2="211.366" stroke="#000000" stroke-width="0.25" g2gstroke="#312783" stroke-miterlimit="10"/>
	
		<line orgstroke="#000000" orgfill="none" fill="none" x1="322.337" x2="320.934" y1="208.376" y2="210.525" stroke="#000000" stroke-width="0.25" g2gstroke="#312783" stroke-miterlimit="10"/>
	<polyline orgstroke="#000000" orgfill="none" points="358.396,144.892 361.128,142.504    361.764,142.297 362.182,142.297 362.811,142.577 364.569,143.627 364.849,143.98 364.988,144.26 364.92,144.679 364.776,145.173    362.631,147.641  " fill="none" stroke="#000000" stroke-width="0.25" g2gstroke="#312783" stroke-miterlimit="10"/>
	
		<ellipse orgstroke="#000000" orgfill="none" fill="none" rx="1.646" cx="366.001" ry="1.12" cy="141.171" stroke="#000000" stroke-width="0.25" g2gstroke="#312783" stroke-miterlimit="10"/>
	<path orgstroke="#000000" orgfill="none" fill="none" d="M388.219,121.486   c0.906,0,1.645,0.502,1.645,1.12c0,0.619-0.73,1.121-1.645,1.121s-1.649-0.501-1.649-1.121   C386.57,121.988,387.306,121.486,388.219,121.486z" stroke="#000000" stroke-width="0.25" g2gstroke="#312783" stroke-miterlimit="10"/>
	
		<ellipse orgstroke="#000000" orgfill="none" fill="none" rx="1.648" cx="374.759" ry="1.12" cy="158.682" stroke="#000000" stroke-width="0.25" g2gstroke="#312783" stroke-miterlimit="10"/>
	<path orgstroke="#000000" orgfill="none" fill="none" d="M352.025,147.169   c-0.128,0.022-0.267,0.032-0.396,0.032c-0.911,0-1.646-0.501-1.646-1.12s0.736-1.122,1.646-1.122c0.188,0,0.375,0.024,0.548,0.064" stroke="#000000" stroke-width="0.25" g2gstroke="#312783" stroke-miterlimit="10"/>
	
		<ellipse orgstroke="#000000" orgfill="none" fill="none" rx="1.646" cx="387.054" ry="1.119" cy="148.442" stroke="#000000" stroke-width="0.25" g2gstroke="#312783" stroke-miterlimit="10"/>
	
		<ellipse orgstroke="#000000" orgfill="none" fill="none" rx="0.752" cx="393.804" ry="0.512" cy="128.576" stroke="#000000" stroke-width="0.25" g2gstroke="#312783" stroke-miterlimit="10"/>
	
		<ellipse orgstroke="#000000" orgfill="none" fill="none" rx="0.752" cx="392.3" ry="0.512" cy="142.424" stroke="#000000" stroke-width="0.25" g2gstroke="#312783" stroke-miterlimit="10"/>
	<path orgstroke="#000000" orgfill="none" fill="none" d="M397.606,124.667   c0.415,0,0.753,0.23,0.753,0.521c0,0.274-0.338,0.511-0.753,0.511c-0.413,0-0.75-0.229-0.75-0.511   C396.856,124.898,397.194,124.667,397.606,124.667z" stroke="#000000" stroke-width="0.25" g2gstroke="#312783" stroke-miterlimit="10"/>
	
		<ellipse orgstroke="#000000" orgfill="none" fill="none" rx="0.938" cx="407.835" ry="0.641" cy="110.203" stroke="#000000" stroke-width="0.25" g2gstroke="#312783" stroke-miterlimit="10"/>
	<path orgstroke="#000000" orgfill="none" fill="none" d="M384.005,116.88c0.414,0,0.75,0.231,0.75,0.521   c0,0.272-0.335,0.511-0.75,0.511c-0.417,0-0.754-0.229-0.754-0.511C383.251,117.111,383.588,116.88,384.005,116.88z" stroke="#000000" stroke-width="0.25" g2gstroke="#312783" stroke-miterlimit="10"/>
	<path orgstroke="#000000" orgfill="none" fill="none" d="M380.489,120.177   c0.417,0,0.763,0.229,0.763,0.513s-0.347,0.511-0.763,0.511c-0.404,0-0.75-0.228-0.75-0.511   C379.739,120.408,380.076,120.177,380.489,120.177z" stroke="#000000" stroke-width="0.25" g2gstroke="#312783" stroke-miterlimit="10"/>
	
		<line orgstroke="#000000" orgfill="none" fill="none" x1="409.793" x2="409.793" y1="116.803" y2="120.69" stroke="#000000" stroke-width="0.25" g2gstroke="#312783" stroke-miterlimit="10"/>
	
		<line orgstroke="#000000" orgfill="none" fill="none" x1="407.76" x2="407.76" y1="117.978" y2="122.232" stroke="#000000" stroke-width="0.25" g2gstroke="#312783" stroke-miterlimit="10"/>
	
		<line orgstroke="#000000" orgfill="none" fill="none" x1="352.925" x2="360.255" y1="165.43" y2="156.558" stroke="#000000" stroke-width="0.25" g2gstroke="#312783" stroke-miterlimit="10"/>
</g>
</g>
</g></svg>