<svg xmlns="http://www.w3.org/2000/svg" xmlns:xlink="http://www.w3.org/1999/xlink" xmlns:etg="http://www.eurotaxglass.com/etg/evd/" etg:dataTimestamp="1539068912893" contentScriptType="text/ecmascript" zoomAndPan="magnify" contentStyleType="text/css" id="Layer_1" enable-background="new 0 0 1841.891 1595.279" version="1.1" xml:space="preserve" width="1841.891px" preserveAspectRatio="xMidYMid meet" viewBox="0 0 1841.891 1595.279" height="1595.279px" x="0px" y="0px"><g xmlns="http://www.w3.org/2000/svg" objecttype="PS" tooltip="#UNDEFINED" id="16">
<g onmouseover="notifyOwner(AGV_OBJECT_MOUSEOVER, '16(PS)')" onclick="clickZoom(evt); notifyOwner(AGV_OBJECT_MOUSECLICK, '16(PS)')" onmouseout="notifyOwner(AGV_OBJECT_MOUSEOUT, '16(PS)')" tooltip="#UNDEFINED" id="16-Graphic" objecttype="GRAPHIC">
<g>
	<path orgstroke="#000000" orgfill="#ffffff" fill="#ffffff" g2gfill="#ECF5E4" d="M565.128,149.288   c0.854,0.955,1.394,2.051,1.502,3.249c0.017,0.188,0.021,0.368,0.02,0.551l-0.097,2.356l-0.371,1.421l-0.509,1.421l-0.574,1.531   l-0.708,1.276l-1.049,1.271l-0.439,0.255h-0.576l-0.529-0.146l-0.238-0.254l-0.237-0.438v-0.438l0.312-0.655l0.846-1.229   l-0.072-0.104c-2.546,1.7-6.045,2.938-9.974,3.354c-8.279,0.866-15.341-2.271-15.771-7.022c-0.116-1.324,0.29-2.642,1.123-3.854   l0.041-0.324c-0.952-0.984-1.539-2.145-1.647-3.409c-0.13-1.419,0.354-2.813,1.308-4.104l0.036-0.445   c-0.922-0.979-1.484-2.105-1.601-3.351c-0.132-1.417,0.354-2.815,1.302-4.104l0.053-0.479c-0.732-0.896-1.188-1.904-1.285-2.998   c-0.141-1.563,0.451-3.095,1.604-4.483l0.278-0.313l0.055-0.165l-0.157-0.194l0.019,0.026c-0.636-0.846-1.021-1.773-1.107-2.778   c-0.43-4.75,5.938-9.303,14.217-10.17c3.137-0.328,6.095-0.082,8.582,0.604l0.057-0.179l-0.723-0.696l-1.42-0.875l-0.932-0.387   c-1.167-2.182,1.396-2.479,1.396-2.479l1.254,0.676l1.822,1.204l1.521,1.24l1.315,1.271l1.109,1.602l0.813,1.57l0.542,1.394   l0.345,1.479l0.095,1.176c-0.036,1.479-0.723,2.932-1.896,4.229l0.063,0.293c0.646,0.846,1.036,1.789,1.135,2.806   c0.137,1.482-0.396,2.947-1.438,4.285l0.063,0.276c0.748,0.896,1.209,1.921,1.312,3.021c0.132,1.455-0.377,2.896-1.379,4.208   l-0.035,0.271c0.965,0.998,1.558,2.148,1.671,3.427c0.116,1.321-0.288,2.626-1.114,3.843L565.128,149.288z" outline-element="true" stroke="#000000" stroke-width="0.5" g2gstroke="#312783" stroke-miterlimit="10"/>
	<path orgstroke="#000000" orgfill="none" fill="none" d="M558.547,145.891   c1.378,0.31,2.633,0.749,3.724,1.3" stroke="#000000" stroke-width="0.25" g2gstroke="#312783" stroke-miterlimit="10"/>
	<path orgstroke="#000000" orgfill="none" fill="none" d="M540.259,149.308   c1.091-0.815,2.395-1.54,3.853-2.146" stroke="#000000" stroke-width="0.25" g2gstroke="#312783" stroke-miterlimit="10"/>
	<path orgstroke="#000000" orgfill="none" fill="none" d="M563.274,151.471   c0.17,0.362,0.276,0.761,0.313,1.167c0.313,3.54-4.78,6.972-11.396,7.665c-6.604,0.688-12.229-1.616-12.547-5.158   c-0.048-0.542,0.029-1.084,0.221-1.611" stroke="#000000" stroke-width="0.25" g2gstroke="#312783" stroke-miterlimit="10"/>
	<path orgstroke="#000000" orgfill="none" fill="none" d="M541.973,150.817   c2.063-1.673,5.322-2.943,9.068-3.336c3.815-0.401,7.313,0.203,9.644,1.472" stroke="#000000" stroke-width="0.25" g2gstroke="#312783" stroke-miterlimit="10"/>
	<path orgstroke="#000000" orgfill="none" fill="none" d="M564.895,148.98   c-2.212,3.063-7.112,5.521-12.971,6.141c-5.963,0.625-11.292-0.833-13.977-3.471" stroke="#000000" stroke-width="0.25" g2gstroke="#312783" stroke-miterlimit="10"/>
	<path orgstroke="#000000" orgfill="none" fill="none" d="M558.379,138.381   c1.1,0.271,2.108,0.617,3.021,1.042" stroke="#000000" stroke-width="0.25" g2gstroke="#312783" stroke-miterlimit="10"/>
	<path orgstroke="#000000" orgfill="none" fill="none" d="M540,141.551   c1.014-0.725,2.188-1.365,3.506-1.922" stroke="#000000" stroke-width="0.25" g2gstroke="#312783" stroke-miterlimit="10"/>
	<path orgstroke="#000000" orgfill="none" fill="none" d="M562.684,143.684   c0.229,0.431,0.371,0.888,0.415,1.368c0.317,3.542-4.782,6.973-11.396,7.666c-6.604,0.688-12.229-1.616-12.547-5.159   c-0.063-0.695,0.085-1.396,0.411-2.063" stroke="#000000" stroke-width="0.25" g2gstroke="#312783" stroke-miterlimit="10"/>
	<path orgstroke="#000000" orgfill="none" fill="none" d="M541.795,142.988   c2.063-1.552,5.188-2.72,8.757-3.093c3.829-0.401,7.323,0.205,9.646,1.473" stroke="#000000" stroke-width="0.25" g2gstroke="#312783" stroke-miterlimit="10"/>
	<path orgstroke="#000000" orgfill="none" fill="none" d="M539.781,133.617   c0.063-0.04,0.113-0.078,0.169-0.117" stroke="#000000" stroke-width="0.25" g2gstroke="#312783" stroke-miterlimit="10"/>
	<path orgstroke="#000000" orgfill="none" fill="none" d="M564.308,141.503   c-2.349,2.867-7.058,5.127-12.639,5.712c-5.896,0.618-11.162-0.799-13.871-3.378" stroke="#000000" stroke-width="0.25" g2gstroke="#312783" stroke-miterlimit="10"/>
	<path orgstroke="#000000" orgfill="none" fill="none" d="M558.633,130.604   c1.212,0.332,2.313,0.767,3.271,1.292" stroke="#000000" stroke-width="0.25" g2gstroke="#312783" stroke-miterlimit="10"/>
	<path orgstroke="#000000" orgfill="none" fill="none" d="M539.948,133.499   c1.104-0.759,2.393-1.429,3.813-1.979" stroke="#000000" stroke-width="0.25" g2gstroke="#312783" stroke-miterlimit="10"/>
	<path orgstroke="#000000" orgfill="none" fill="none" d="M562.573,136.086   c0.146,0.338,0.232,0.693,0.271,1.063c0.313,3.541-4.781,6.972-11.396,7.665c-6.604,0.688-12.227-1.616-12.547-5.158   c-0.058-0.632,0.063-1.262,0.327-1.875" stroke="#000000" stroke-width="0.25" g2gstroke="#312783" stroke-miterlimit="10"/>
	<path orgstroke="#000000" orgfill="none" fill="none" d="M541.39,135.195   c2.072-1.609,5.259-2.826,8.908-3.208c3.981-0.419,7.623,0.258,9.938,1.641" stroke="#000000" stroke-width="0.25" g2gstroke="#312783" stroke-miterlimit="10"/>
	<path orgstroke="#000000" orgfill="none" fill="none" d="M564.402,133.881   c-2.336,2.892-7.063,5.16-12.665,5.746c-6.073,0.646-11.486-0.887-14.114-3.618" stroke="#000000" stroke-width="0.25" g2gstroke="#312783" stroke-miterlimit="10"/>
	<path orgstroke="#000000" orgfill="none" fill="none" d="M540.516,125.583   c2.518-1.598,5.894-2.76,9.669-3.147c4.818-0.514,9.222,0.351,12.146,2.088" stroke="#000000" stroke-width="0.25" g2gstroke="#312783" stroke-miterlimit="10"/>
	<path orgstroke="#000000" orgfill="none" fill="none" d="M537.281,135.637   c-0.012-0.021-0.021-0.029-0.026-0.043" stroke="#000000" stroke-width="0.25" g2gstroke="#312783" stroke-miterlimit="10"/>
	<path orgstroke="#000000" orgfill="none" fill="none" d="M562.634,128.473   c0.146,0.347,0.231,0.709,0.271,1.085c0.318,3.542-4.773,6.974-11.39,7.666c-4.217,0.438-8.027-0.337-10.319-1.877" stroke="#000000" stroke-width="0.25" g2gstroke="#312783" stroke-miterlimit="10"/>
	<path orgstroke="#000000" orgfill="none" fill="none" d="M542.055,127.175   c2.063-1.393,4.995-2.428,8.308-2.771c4.111-0.431,7.839,0.3,10.148,1.766" stroke="#000000" stroke-width="0.25" g2gstroke="#312783" stroke-miterlimit="10"/>
	<path orgstroke="#000000" orgfill="none" fill="none" d="M541.198,135.346   c-1.301-0.874-2.104-1.996-2.229-3.28c-0.076-0.854,0.159-1.693,0.646-2.494" stroke="#000000" stroke-width="0.25" g2gstroke="#312783" stroke-miterlimit="10"/>
	<path orgstroke="#000000" orgfill="none" fill="none" d="M564.59,126.536   c-2.479,2.614-6.941,4.636-12.184,5.188c-6.262,0.647-11.818-0.984-14.349-3.878" stroke="#000000" stroke-width="0.25" g2gstroke="#312783" stroke-miterlimit="10"/>
	<path orgstroke="#000000" orgfill="none" fill="none" d="M563.589,121.652   c0.313,3.541-4.781,6.973-11.396,7.665c-6.604,0.693-12.229-1.616-12.547-5.158s4.779-6.973,11.396-7.667   C557.651,115.801,563.27,118.111,563.589,121.652z" stroke="#000000" stroke-width="0.25" g2gstroke="#312783" stroke-miterlimit="10"/>
	<polyline orgstroke="#000000" orgfill="none" points="563.531,121.282 563.135,119.606    562.267,117.975 560.806,116.222 559.646,115.098  " fill="none" stroke="#000000" stroke-width="0.25" g2gstroke="#312783" stroke-miterlimit="10"/>
	<path orgstroke="#000000" orgfill="none" fill="none" d="M562.698,159.143   c2.205-1.563,3.628-3.46,3.904-5.454" stroke="#000000" stroke-width="0.25" g2gstroke="#312783" stroke-miterlimit="10"/>
</g>
</g>
</g></svg>