<svg xmlns="http://www.w3.org/2000/svg" xmlns:xlink="http://www.w3.org/1999/xlink" xmlns:etg="http://www.eurotaxglass.com/etg/evd/" etg:dataTimestamp="1539068912893" contentScriptType="text/ecmascript" zoomAndPan="magnify" contentStyleType="text/css" id="Layer_1" enable-background="new 0 0 1841.891 1595.279" version="1.1" xml:space="preserve" width="1841.891px" preserveAspectRatio="xMidYMid meet" viewBox="0 0 1841.891 1595.279" height="1595.279px" x="0px" y="0px"><g xmlns="http://www.w3.org/2000/svg" objecttype="PS" tooltip="#UNDEFINED" id="23">
<g onmouseover="notifyOwner(AGV_OBJECT_MOUSEOVER, '23(PS)')" onclick="clickZoom(evt); notifyOwner(AGV_OBJECT_MOUSECLICK, '23(PS)')" onmouseout="notifyOwner(AGV_OBJECT_MOUSEOUT, '23(PS)')" tooltip="#UNDEFINED" id="23-Graphic" objecttype="GRAPHIC">
<g>
	<path orgstroke="#000000" orgfill="#ffffff" fill="#ffffff" g2gfill="#ECF5E4" d="M699.459,179.089   c2.029-1.734,3.229-4.604,3.229-8.433c0-2.311-0.436-4.771-1.229-7.26l0.171-0.688l2.152-1.525   c0.951-0.813,1.518-2.153,1.518-3.938c0-0.474-0.039-0.956-0.113-1.449l0.113-0.68l4.509-2.606c0.585-0.497,0.924-1.313,0.924-2.4   c0-1.094-0.339-2.299-0.916-3.463l0.296-0.771l7.604-4.413l0.46-0.568l0.143-0.521l-0.231-0.524l-0.388-0.564l-0.714-0.436   l-0.811-0.146l-0.38,0.104l-7.583,4.401l-0.938,0.044c-0.521-0.489-1.101-0.92-1.688-1.263c-1.479-0.854-2.812-0.997-3.737-0.55   l-3.909,2.257l-1.198,0.19c-2.354-1.315-4.469-1.531-5.975-0.813l-2.634,1.015l-0.814-0.122c-0.854-0.626-1.748-1.193-2.646-1.719   c-5.157-2.979-9.813-3.499-13.104-1.921l-6.171,3.286l-0.833,0.801l-0.879,0.862l-0.666,0.88l-0.728,1.329l-0.563,1.18l-0.146,0.57   l-0.44,0.635c-2.427,1.388-3.893,4.179-3.893,8.164c0,8.762,7.1,19.963,15.854,25.021c5.3,3.063,9.988,3.178,12.867,0.854   l0.709-0.083l0.764,0.047l0.901,0.146h1.146l1.285-0.188l1.188-0.396l6.228-3.405L699.459,179.089z" outline-element="true" stroke="#000000" stroke-width="0.5" g2gstroke="#312783" stroke-miterlimit="10"/>
	<path orgstroke="#000000" orgfill="none" fill="none" d="M661.923,149.487   c2.859-1.208,6.829-0.692,11.202,1.835c8.763,5.056,15.856,16.258,15.856,25.022c0,3.027-0.854,5.382-2.334,6.938" stroke="#000000" stroke-width="0.25" g2gstroke="#312783" stroke-miterlimit="10"/>
	<path orgstroke="#000000" orgfill="none" fill="none" d="M679.656,175.347   c0,5.621-4.556,7.551-10.18,4.302c-5.624-3.247-10.182-10.438-10.182-16.063c0-5.621,4.556-7.549,10.182-4.302   C675.106,162.532,679.656,169.722,679.656,175.347z" stroke="#000000" stroke-width="0.25" g2gstroke="#312783" stroke-miterlimit="10"/>
	<path orgstroke="#000000" orgfill="none" fill="none" d="M674.234,172.211   c0,2.621-2.128,3.521-4.752,2.017c-2.625-1.521-4.752-4.87-4.752-7.496c0-2.623,2.127-3.522,4.752-2.015   C672.106,166.234,674.234,169.588,674.234,172.211z" stroke="#000000" stroke-width="0.25" g2gstroke="#312783" stroke-miterlimit="10"/>
	<path orgstroke="#000000" orgfill="none" fill="none" d="M675.392,175.064   c0.197-0.16,0.513-0.151,0.87,0.055c0.589,0.343,1.063,1.098,1.063,1.69c0,0.214-0.063,0.376-0.174,0.479" stroke="#000000" stroke-width="0.25" g2gstroke="#312783" stroke-miterlimit="10"/>
	<path orgstroke="#000000" orgfill="none" fill="none" d="M673.344,178.969c0,0.59-0.479,0.791-1.07,0.443   c-0.59-0.339-1.068-1.098-1.068-1.688s0.479-0.791,1.068-0.451C672.865,177.621,673.344,178.378,673.344,178.969z" stroke="#000000" stroke-width="0.25" g2gstroke="#312783" stroke-miterlimit="10"/>
	<path orgstroke="#000000" orgfill="none" fill="none" d="M673.02,176.375   c0.143,0.021,0.3,0.065,0.469,0.163c0.59,0.338,1.069,1.096,1.069,1.688c0,0.146-0.031,0.27-0.082,0.358" stroke="#000000" stroke-width="0.25" g2gstroke="#312783" stroke-miterlimit="10"/>
	<path orgstroke="#000000" orgfill="none" fill="none" d="M674.365,175.638   c0.146,0.014,0.308,0.063,0.47,0.165c0.596,0.341,1.066,1.096,1.066,1.687c0,0.146-0.028,0.271-0.083,0.367" stroke="#000000" stroke-width="0.25" g2gstroke="#312783" stroke-miterlimit="10"/>
	<path orgstroke="#000000" orgfill="none" fill="none" d="M673.781,173.097   c-0.554-0.102-1.149-0.318-1.795-0.688c-2.624-1.516-4.75-4.87-4.75-7.494c0-0.174,0.018-0.338,0.028-0.497" stroke="#000000" stroke-width="0.25" g2gstroke="#312783" stroke-miterlimit="10"/>
	<path orgstroke="#000000" orgfill="none" fill="none" d="M663.564,148.532   c2.892-1.387,6.988-0.932,11.526,1.692c8.763,5.057,15.856,16.258,15.856,25.021c0,3.37-1.051,5.888-2.846,7.423" stroke="#000000" stroke-width="0.25" g2gstroke="#312783" stroke-miterlimit="10"/>
	<path orgstroke="#000000" orgfill="none" fill="none" d="M662.017,148.196   c2.209-6.178,9.106-7.632,17.277-2.915c9.942,5.746,18.016,18.467,18.016,28.418c0,3.181-0.824,5.694-2.271,7.453" stroke="#000000" stroke-width="0.25" g2gstroke="#312783" stroke-miterlimit="10"/>
	<path orgstroke="#000000" orgfill="none" fill="none" d="M670.261,141.07   c3.287-1.577,7.936-1.059,13.092,1.917c9.951,5.746,18.018,18.47,18.018,28.422c0,3.826-1.188,6.688-3.229,8.431" stroke="#000000" stroke-width="0.25" g2gstroke="#312783" stroke-miterlimit="10"/>
	<path orgstroke="#000000" orgfill="none" fill="none" d="M687.948,144.428   c5.979,4.543,10.91,11.437,13.271,18.216" stroke="#000000" stroke-width="0.25" g2gstroke="#312783" stroke-miterlimit="10"/>
	<path orgstroke="#000000" orgfill="none" fill="none" d="M688.791,144.285   c1.526-0.735,3.698-0.495,6.109,0.896c4.648,2.686,8.413,8.627,8.413,13.271c0,1.788-0.558,3.126-1.509,3.939" stroke="#000000" stroke-width="0.25" g2gstroke="#312783" stroke-miterlimit="10"/>
	<path orgstroke="#000000" orgfill="none" fill="none" d="M697.509,144.347   c3.563,2.314,6.515,6.505,7.468,10.38" stroke="#000000" stroke-width="0.25" g2gstroke="#312783" stroke-miterlimit="10"/>
	<path orgstroke="#000000" orgfill="none" fill="none" d="M707.92,143.88   c0.675,0.698,1.271,1.492,1.752,2.321" stroke="#000000" stroke-width="0.25" g2gstroke="#312783" stroke-miterlimit="10"/>
	
	
	
	
	
		<line orgstroke="#000000" orgfill="none" fill="none" x1="677.156" x2="673.113" y1="177.29" y2="179.49" stroke="#000000" stroke-width="0.25" g2gstroke="#312783" stroke-miterlimit="10"/>
	
		<line orgstroke="#000000" orgfill="none" fill="none" x1="675.392" x2="671.554" y1="175.064" y2="177.116" stroke="#000000" stroke-width="0.25" g2gstroke="#312783" stroke-miterlimit="10"/>
	<path orgstroke="#000000" orgfill="none" fill="none" d="M663.139,161.429   c0.195-0.156,0.513-0.151,0.869,0.057c0.59,0.341,1.063,1.097,1.063,1.688c0,0.225-0.063,0.387-0.175,0.484" stroke="#000000" stroke-width="0.25" g2gstroke="#312783" stroke-miterlimit="10"/>
	<path orgstroke="#000000" orgfill="none" fill="none" d="M661.095,165.337   c0,0.599-0.482,0.792-1.072,0.453c-0.591-0.342-1.071-1.096-1.071-1.688c0-0.588,0.48-0.792,1.071-0.45   C660.613,163.991,661.095,164.745,661.095,165.337z" stroke="#000000" stroke-width="0.25" g2gstroke="#312783" stroke-miterlimit="10"/>
	<path orgstroke="#000000" orgfill="none" fill="none" d="M660.768,162.741   c0.143,0.014,0.302,0.067,0.468,0.162c0.593,0.341,1.071,1.098,1.071,1.688c0,0.146-0.03,0.271-0.083,0.368" stroke="#000000" stroke-width="0.25" g2gstroke="#312783" stroke-miterlimit="10"/>
	<path orgstroke="#000000" orgfill="none" fill="none" d="M662.115,162.005   c0.146,0.021,0.299,0.067,0.467,0.165c0.602,0.338,1.07,1.104,1.07,1.688c0,0.146-0.029,0.27-0.083,0.368" stroke="#000000" stroke-width="0.25" g2gstroke="#312783" stroke-miterlimit="10"/>
	
		<line orgstroke="#000000" orgfill="none" fill="none" x1="664.904" x2="660.86" y1="163.658" y2="165.86" stroke="#000000" stroke-width="0.25" g2gstroke="#312783" stroke-miterlimit="10"/>
	
		<line orgstroke="#000000" orgfill="none" fill="none" x1="663.139" x2="659.301" y1="161.429" y2="163.484" stroke="#000000" stroke-width="0.25" g2gstroke="#312783" stroke-miterlimit="10"/>
</g>
</g>
</g></svg>