<svg xmlns="http://www.w3.org/2000/svg" xmlns:xlink="http://www.w3.org/1999/xlink" xmlns:etg="http://www.eurotaxglass.com/etg/evd/" etg:dataTimestamp="1539068912893" contentScriptType="text/ecmascript" zoomAndPan="magnify" contentStyleType="text/css" id="Layer_1" enable-background="new 0 0 1841.891 1595.279" version="1.1" xml:space="preserve" width="1841.891px" preserveAspectRatio="xMidYMid meet" viewBox="0 0 1841.891 1595.279" height="1595.279px" x="0px" y="0px"><g xmlns="http://www.w3.org/2000/svg" objecttype="PS" tooltip="#UNDEFINED" id="26">
<g onmouseover="notifyOwner(AGV_OBJECT_MOUSEOVER, '26(PS)')" onclick="clickZoom(evt); notifyOwner(AGV_OBJECT_MOUSECLICK, '26(PS)')" onmouseout="notifyOwner(AGV_OBJECT_MOUSEOUT, '26(PS)')" tooltip="#UNDEFINED" id="26-Graphic" objecttype="GRAPHIC">
<g>
	<g>
		<path orgstroke="#000000" orgfill="#ffffff" fill="#ffffff" g2gfill="#ECF5E4" d="M496.151,284.963    c1.076-1.811,4.323-3.125,8.164-3.125c3.759,0,6.953,1.271,8.094,3.021l0.188,0.325l0.646,0.729l4.607,2.469l3.457,2.214    l2.089,1.415l3.528,3.022l2.815,3.125l3.271,4.284l2.478,3.882l2.478,3.778l2.87-0.756l1.014-0.504l0.503-0.604l0.604-0.806    l1.109-0.604l1.286-0.302l1.285,0.097l1.261,0.407l0.502,0.502l0.506,0.503l0.604,0.504l1.211,0.705l0,0l1.211-0.302l1.209,0.101    l0.809,0.201l0.705,0.404l0.813,0.729l0.093,1.188v3.729l-0.495,1.021l-0.613,0.604l-1.151,0.396l-1.611,0.251l-1.464-0.251    l-0.493,1.401l-0.814,1.219l-0.505,0.807l0.104,0.809l0.218,0.604l0.338,1.063l0.896,1.366c0.601,0.991,0.931,2.278,0.931,3.839    c0,3.783-1.964,8.247-4.929,11.862l-0.194,0.367l-0.074,3.781l-0.199,0.807l-0.604,1.105l-1.61,1.213l-3.228,2.218l-1.615,1.007    l-2.313,0.604h-1.813l-0.808,0.604l-0.906,1.009l-1.313,1.514l-3.021,4.229l-0.812,0.706l-1.407,0.604l-1.916,0.196h-1.61    l-1.012-0.305l-2.115-1.31l-0.706-1.214l-0.399-1.608l0.104-1.313l0.303-1.312l1.613-3.328l1.01-1.714l0.808-6.55l-0.604-2.118    l-0.495-0.708l-0.209-0.3l-1.01-0.704l-2.618-1.412l-2.623-1.612l-0.807-0.604l-0.308-0.907l0.198-2.925l0.104-1.313l0.396-0.9    l1.012-1.211l1.214-1.61v-1.211l-0.202-0.604l-0.604-1.608l-1.21-2.819l-1.813-3.524l-3.229-4.336l-3.021-3.934l-3.528-4.23    l-2.923-2.82l-2.116-2.224l-1.615-1.41l-0.706-0.198l-1.511,0.198l-1.514-0.604l-1.109-0.704l-0.396-0.908l-0.307-3.428    l0.104-0.907l0.506-0.604l2.521-1.813l1.538-1.025l0.575-1L496.151,284.963z" outline-element="true" stroke="#000000" stroke-width="0.5" g2gstroke="#312783" stroke-miterlimit="10"/>
		<polyline orgstroke="#000000" orgfill="none" points="512.812,302.469 514.172,304.021     517.044,308.105 521.177,313.735 523.059,316.077   " fill="none" stroke="#000000" stroke-width="0.25" g2gstroke="#312783" stroke-miterlimit="10"/>
		
			<line orgstroke="#000000" orgfill="none" fill="none" x1="520.383" x2="517.041" y1="321.681" y2="324.661" stroke="#000000" stroke-width="0.25" g2gstroke="#312783" stroke-miterlimit="10"/>
		<polyline orgstroke="#000000" orgfill="none" points="536.594,310.37 534.365,306.972     531.896,303.094 528.627,298.808 525.805,295.682 522.277,292.658 520.19,291.243 516.733,289.03 512.858,287.264   " fill="none" stroke="#000000" stroke-width="0.25" g2gstroke="#312783" stroke-miterlimit="10"/>
		<polyline orgstroke="#000000" orgfill="none" points="523.4,341.667 523.615,342.411     522.806,348.969 521.799,350.678 520.187,354.01 519.885,355.316 519.781,356.635 520.187,358.24 520.891,359.448     521.531,359.849   " fill="none" stroke="#000000" stroke-width="0.25" g2gstroke="#312783" stroke-miterlimit="10"/>
		<polyline orgstroke="#000000" orgfill="none" points="538.311,310.651 539.421,312.565     540.823,315.187 542.041,317.51 542.448,319.052   " fill="none" stroke="#000000" stroke-width="0.25" g2gstroke="#312783" stroke-miterlimit="10"/>
		<polyline orgstroke="#000000" orgfill="none" points="512.858,287.768 512.809,294.924     514.61,296.185 517.24,298.26 519.698,300.231 522.384,302.889 524.803,305.811 527.115,308.533 529.031,311.26 530.549,313.473     531.558,315.992   " fill="none" stroke="#000000" stroke-width="0.25" g2gstroke="#312783" stroke-miterlimit="10"/>
		<path orgstroke="#000000" orgfill="none" fill="none" d="M545.197,338.645    c-1.417,1.846-3.158,3.457-5.042,4.546c-4.751,2.741-8.597,1.114-8.597-3.635c0-4.748,3.849-10.819,8.597-13.563    s8.604-1.104,8.604,3.643c0,2.275-0.896,4.874-2.354,7.253" stroke="#000000" stroke-width="0.25" g2gstroke="#312783" stroke-miterlimit="10"/>
		<path orgstroke="#000000" orgfill="none" fill="none" d="M545.321,340.996    c-1.531,1.73-3.292,3.229-5.165,4.313c-5.918,3.419-10.715,1.388-10.715-4.528c0-5.918,4.797-13.479,10.715-16.896    c3.691-2.141,6.947-2.146,8.873-0.417" stroke="#000000" stroke-width="0.25" g2gstroke="#312783" stroke-miterlimit="10"/>
		<path orgstroke="#000000" orgfill="none" fill="none" d="M521.49,338.532    c-0.021-0.515,0.018-1.062,0.095-1.64c0.445-3.245,2.431-6.791,5.182-9.745" stroke="#000000" stroke-width="0.25" g2gstroke="#312783" stroke-miterlimit="10"/>
		<polyline orgstroke="#000000" orgfill="none" points="523.09,323.152 518.698,326.476     517.898,327.533 516.891,328.743 516.689,329.449 516.486,330.51 516.031,334.389 516.031,335.052 516.323,335.853   " fill="none" stroke="#000000" stroke-width="0.25" g2gstroke="#312783" stroke-miterlimit="10"/>
		<polyline orgstroke="#000000" orgfill="none" points="524.77,315.821 524.903,316.748     525.006,317.76 525.006,318.917 524.601,320.984 524.444,321.353   " fill="none" stroke="#000000" stroke-width="0.25" g2gstroke="#312783" stroke-miterlimit="10"/>
		
			<line orgstroke="#000000" orgfill="none" fill="none" x1="531.823" x2="523.434" y1="346.138" y2="341.346" stroke="#000000" stroke-width="0.25" g2gstroke="#312783" stroke-miterlimit="10"/>
		<polyline orgstroke="#000000" orgfill="none" points="542.448,319.052 542.898,319.73     548.942,323.226   " fill="none" stroke="#000000" stroke-width="0.25" g2gstroke="#312783" stroke-miterlimit="10"/>
		<polyline orgstroke="#000000" orgfill="none" points="543.028,320.052 542.221,320.052     541.717,320.151 541.156,320.302 540.508,320.51 540.156,320.704 539.709,320.761 531.154,316.195 530.147,316.302     528.836,316.999 526.315,318.469   " fill="none" stroke="#000000" stroke-width="0.25" g2gstroke="#312783" stroke-miterlimit="10"/>
		<polyline orgstroke="#000000" orgfill="none" points="536.594,310.37 538.109,313.177     539.168,315.344 539.722,317.201 539.924,318.312 539.924,319.973   " fill="none" stroke="#000000" stroke-width="0.25" g2gstroke="#312783" stroke-miterlimit="10"/>
		<polyline orgstroke="#000000" orgfill="none" points="555.346,311.609 555.094,312.313     554.188,312.817 552.726,312.969 551.768,312.917 550.962,312.767 550.104,312.615 549.551,312.615 548.391,313.271     541.73,316.908   " fill="none" stroke="#000000" stroke-width="0.25" g2gstroke="#312783" stroke-miterlimit="10"/>
		<polyline orgstroke="#000000" orgfill="none" points="542.142,308.887 542.544,309.541     543.603,310.052 545.418,310.247 547.073,309.995 547.888,309.594 548.342,308.985 548.543,308.181   " fill="none" stroke="#000000" stroke-width="0.25" g2gstroke="#312783" stroke-miterlimit="10"/>
		<polyline orgstroke="#000000" orgfill="none" points="550.356,309.541 549.698,309.691     549.047,310.095 548.74,310.701 548.74,311.355 549.047,311.969 549.5,312.364   " fill="none" stroke="#000000" stroke-width="0.25" g2gstroke="#312783" stroke-miterlimit="10"/>
		
			<line orgstroke="#000000" orgfill="none" fill="none" x1="539.615" x2="546.628" y1="311.76" y2="310.498" stroke="#000000" stroke-width="0.25" g2gstroke="#312783" stroke-miterlimit="10"/>
		
			<line orgstroke="#000000" orgfill="none" fill="none" x1="541.386" x2="547.781" y1="314.733" y2="310.802" stroke="#000000" stroke-width="0.25" g2gstroke="#312783" stroke-miterlimit="10"/>
		
			<line orgstroke="#000000" orgfill="none" fill="none" x1="549.802" x2="550.054" y1="313.271" y2="316.552" stroke="#000000" stroke-width="0.25" g2gstroke="#312783" stroke-miterlimit="10"/>
		
			<ellipse orgstroke="#000000" orgfill="none" fill="none" rx="1.764" cx="545.509" ry="1.033" cy="308.328" stroke="#000000" stroke-width="0.25" g2gstroke="#312783" stroke-miterlimit="10"/>
		
			<ellipse orgstroke="#000000" orgfill="none" fill="none" rx="1.938" cx="552.298" ry="0.997" cy="310.952" stroke="#000000" stroke-width="0.25" g2gstroke="#312783" stroke-miterlimit="10"/>
		<polyline orgstroke="#000000" orgfill="none" points="523.059,316.077 523.404,316.874     523.365,317.781 523.065,318.765 522.345,319.708 521.74,320.51 520.383,321.681   " fill="none" stroke="#000000" stroke-width="0.25" g2gstroke="#312783" stroke-miterlimit="10"/>
		
			<ellipse orgstroke="#000000" orgfill="none" fill="none" rx="6.554" cx="504.501" ry="3.402" cy="286.232" stroke="#000000" stroke-width="0.25" g2gstroke="#312783" stroke-miterlimit="10"/>
		<path orgstroke="#000000" orgfill="none" fill="none" d="M512.558,285.104    c0.195,0.374,0.3,0.764,0.3,1.17c0,2.449-3.825,4.435-8.544,4.435s-8.543-1.979-8.543-4.437c0-0.302,0.061-0.604,0.17-0.883" stroke="#000000" stroke-width="0.25" g2gstroke="#312783" stroke-miterlimit="10"/>
		<path orgstroke="#000000" orgfill="none" fill="none" d="M512.636,295.181    c-0.573,0.729-1.521,1.375-2.711,1.852" stroke="#000000" stroke-width="0.25" g2gstroke="#312783" stroke-miterlimit="10"/>
		<polyline orgstroke="#000000" orgfill="none" points="500.192,290.37 501.214,290.844     502.878,291.75 505.346,293.311 506.709,294.37 508.071,295.63 510.691,297.947 512.603,299.932 512.948,300.331 515.573,303.344     518.448,307.427 522.586,313.052 525.105,316.195 525.863,317.26 526.315,318.469 526.467,319.521 526.767,321.486     526.767,326.98   " fill="none" stroke="#000000" stroke-width="0.25" g2gstroke="#312783" stroke-miterlimit="10"/>
		<polyline orgstroke="#000000" orgfill="none" points="499.065,290.962 499.657,291.239     501.323,292.147 503.8,293.71 505.156,294.768 506.52,296.027 509.142,298.346 511.054,300.331   " fill="none" stroke="#000000" stroke-width="0.25" g2gstroke="#312783" stroke-miterlimit="10"/>
		<polyline orgstroke="#000000" orgfill="none" points="499.065,290.962 498.24,290.439     497.385,289.632 496.629,288.676 496.125,287.868 495.781,286.555   " fill="none" stroke="#000000" stroke-width="0.25" g2gstroke="#312783" stroke-miterlimit="10"/>
		<polyline orgstroke="#000000" orgfill="none" points="491.084,289.783 491.031,290.237     491.236,290.59 493.504,291.901 494.156,291.851 495.115,291.649 496.224,291.347 497.182,291.093 497.888,291.145     498.797,291.245 499.755,291.549   " fill="none" stroke="#000000" stroke-width="0.25" g2gstroke="#312783" stroke-miterlimit="10"/>
		
			<line orgstroke="#000000" orgfill="none" fill="none" x1="495.771" x2="497.133" y1="296.084" y2="291.497" stroke="#000000" stroke-width="0.25" g2gstroke="#312783" stroke-miterlimit="10"/>
		
			<line orgstroke="#000000" orgfill="none" fill="none" x1="493.504" x2="493.805" y1="292.202" y2="296.185" stroke="#000000" stroke-width="0.25" g2gstroke="#312783" stroke-miterlimit="10"/>
		
			<ellipse orgstroke="#000000" orgfill="none" fill="none" rx="1.287" cx="494.365" ry="0.649" cy="290.06" stroke="#000000" stroke-width="0.25" g2gstroke="#312783" stroke-miterlimit="10"/>
		<path orgstroke="#000000" orgfill="none" fill="none" d="M522.181,329.535    c0,1.061-0.854,2.4-1.907,3.018c-1.052,0.604-1.907,0.247-1.907-0.813c0-1.056,0.855-2.396,1.907-3.011    C521.323,328.12,522.181,328.481,522.181,329.535z" stroke="#000000" stroke-width="0.25" g2gstroke="#312783" stroke-miterlimit="10"/>
		<path orgstroke="#000000" orgfill="none" fill="none" d="M526.906,353.385    c0,1.052-0.854,2.396-1.898,3.008c-1.063,0.604-1.909,0.248-1.909-0.807c0-1.063,0.854-2.4,1.909-3.019    C526.059,351.969,526.906,352.328,526.906,353.385z" stroke="#000000" stroke-width="0.25" g2gstroke="#312783" stroke-miterlimit="10"/>
	</g>
</g>
</g>
</g></svg>