<svg xmlns="http://www.w3.org/2000/svg" xmlns:xlink="http://www.w3.org/1999/xlink" xmlns:etg="http://www.eurotaxglass.com/etg/evd/" etg:dataTimestamp="1539068912893" contentScriptType="text/ecmascript" zoomAndPan="magnify" contentStyleType="text/css" id="Layer_1" enable-background="new 0 0 1841.891 1595.279" version="1.1" xml:space="preserve" width="1841.891px" preserveAspectRatio="xMidYMid meet" viewBox="0 0 1841.891 1595.279" height="1595.279px" x="0px" y="0px"><g xmlns="http://www.w3.org/2000/svg" objecttype="PS" tooltip="#UNDEFINED" id="28">
<g onmouseover="notifyOwner(AGV_OBJECT_MOUSEOVER, '28(PS)')" onclick="clickZoom(evt); notifyOwner(AGV_OBJECT_MOUSECLICK, '28(PS)')" onmouseout="notifyOwner(AGV_OBJECT_MOUSEOUT, '28(PS)')" tooltip="#UNDEFINED" id="28-Graphic" objecttype="GRAPHIC">
<g>
	<path orgstroke="#000000" orgfill="#ffffff" fill="#ffffff" g2gfill="#ECF5E4" d="M435.021,350.531l-1.977,2.438l-1.438,1.842   l-1.391,2.104l-1.657,2.563l-1.354,2.031l-0.898,1.507l-0.3,1.43l-0.198,1.174l0.021,0.872l0.102,0.498l1.016,2.822l0.903,1.521   l1.806,2.538l1.979,2.316l1.749,1.919l3.57,3.611l2.032,1.75l0.271,0.203l2.399,1.957l2.861,1.947l2.557,1.58l2.334,1.438   l2.709,1.505l2.188,1.052l1.506,0.453l1.805,0.602l0.604,0.453l0.146,0.525v3.086l0.379,0.603l0.688,0.604l0.146,1.656   l-0.299,0.829l-0.451,0.751l-0.753,0.602l-0.521,0.302l-1.136,0.229l-1.054-0.073l-1.729-0.227l-1.436-0.45l-0.896-0.527   l-0.753-0.302l-1.062-0.151l-0.752,0.076l-0.896,0.301l-0.828,0.308l-0.229,0.277l-0.138,0.363l0.033-0.063l0.334,0.659   l0.896,1.278l0.686,1.505l0.146,1.729l0.036,0.585l0.038,1.852l-0.302,0.826l-0.604,0.451l-0.979,0.302l-1.58,0.151l-1.729-0.229   l-0.823-0.302l-0.686-0.299l-0.751-0.604l-0.604-0.226l-2.105-0.073l-0.451-0.226l-1.055-0.686l-2.709-2.335l-2.258-2.333   l-2.032-1.881l-2.03-1.729l-3.312-2.266l-2.858-1.952l-5.345-3.53l-4.738-3.395l-4.591-2.778l-4.356-3.02l-2.988-2.048   l-0.965-0.646l-3.729-2.271l-2.854-1.281l-2.938-0.977l-4.063-1.058l-5.48-1.979l-1.242-0.562l-1.163-0.785l-0.858-0.755   c-1.999-1.938-3.414-4.689-3.414-6.972c0-1.146,0.354-1.994,0.97-2.515l0.212-0.163l2.135-1.133l0.279-0.153l0.34-0.124l0.441-0.09   l0.477-0.021l0.563,0.062l0.471,0.104l0.72,0.154l0.329,0.084l1.08-0.813l0.112-0.313l0.059-0.364l0.063-0.255l0.171-0.563   l0.142-0.343l0.423-0.479l0.28-0.313l2.373-1.357c0.98-0.631,2.479-0.532,4.146,0.438c1.563,0.896,2.971,2.382,3.944,4.018   l0.396,0.523l0.528,0.248l1.302,0.278l1.127,0.19l1.44-0.135l0.906-0.446l0.979-0.966l1.064-1.131l2.822-3.838l2.089-3.33   l1.918-3.052l1.581-2.313l2.597-3.162l2.097-2.146l1.918-1.861l1.688-1.242l0.422-0.251l0.816-0.418l-0.031-0.362l-0.604-0.354   l-0.313-0.558v-6.461l0.369-0.605l3.688-1.604h0.862l9.479,0.366l0.607,0.246l2.708,1.354l0.739,0.245l1.105-0.492l2.7-1.479   l1.23-0.368h2.585l0.616,0.245l12.059,9.229l0.739,0.734l0.493,0.86v9.848l-0.125,0.613l-7.753,4.434l-0.613,0.37l-0.986-0.246   l-5.969-3.512l-0.98-0.364l-0.856-0.097l-0.694,0.065l-1.17,0.247l-0.722,0.234h-0.955l-0.646-0.095l-0.655-0.329L435.021,350.531z   " outline-element="true" stroke="#000000" stroke-width="0.5" g2gstroke="#312783" stroke-miterlimit="10"/>
	<polyline orgstroke="#000000" orgfill="none" points="429.567,335.302 430.115,334.498    431.108,333.698 432.091,333.391 433.137,333.391 434.677,333.637 435.844,334.26 436.766,334.867 437.936,335.975    439.474,337.636 440.823,338.621 442.24,339.606 448.459,343.114 448.698,343.427 448.766,343.977 448.948,354.067  " fill="none" stroke="#000000" stroke-width="0.25" g2gstroke="#312783" stroke-miterlimit="10"/>
	<polyline orgstroke="#000000" orgfill="none" points="418.49,330.437 418.614,330.928    419.105,331.552 426.198,335.635  " fill="none" stroke="#000000" stroke-width="0.25" g2gstroke="#312783" stroke-miterlimit="10"/>
	<polyline orgstroke="#000000" orgfill="none" points="448.823,342.928 449.566,342.868    450.305,342.683 456.644,339.177 456.768,338.929 456.698,338.498  " fill="none" stroke="#000000" stroke-width="0.25" g2gstroke="#312783" stroke-miterlimit="10"/>
	
		<line orgstroke="#000000" orgfill="none" fill="none" x1="442.058" x2="448.573" y1="337.451" y2="334.01" stroke="#000000" stroke-width="0.25" g2gstroke="#312783" stroke-miterlimit="10"/>
	
		<line orgstroke="#000000" orgfill="none" fill="none" x1="432.028" x2="435.844" y1="333.146" y2="330.991" stroke="#000000" stroke-width="0.25" g2gstroke="#312783" stroke-miterlimit="10"/>
	<polygon orgstroke="#000000" orgfill="none" points="443.282,342.01 446.736,344.469    447.104,344.969 447.281,345.575 447.168,351.427 447.046,351.789 446.677,351.852 446.182,351.677 443.228,349.945    442.983,349.698 442.858,349.205 442.858,342.56 442.923,342.192  " fill="none" stroke="#000000" stroke-width="0.25" g2gstroke="#312783" stroke-miterlimit="10"/>
	
		<line orgstroke="#000000" orgfill="none" fill="none" x1="443.406" x2="446.92" y1="349.33" y2="347.114" stroke="#000000" stroke-width="0.25" g2gstroke="#312783" stroke-miterlimit="10"/>
	
		<ellipse orgstroke="#000000" orgfill="none" fill="none" rx="1.691" cx="424.184" ry="0.938" cy="331.13" stroke="#000000" stroke-width="0.25" g2gstroke="#312783" stroke-miterlimit="10"/>
	
		<ellipse orgstroke="#000000" orgfill="none" fill="none" rx="1.691" cx="432.976" ry="0.938" cy="331.13" stroke="#000000" stroke-width="0.25" g2gstroke="#312783" stroke-miterlimit="10"/>
	
		<ellipse orgstroke="#000000" orgfill="none" fill="none" rx="2.154" cx="449.814" ry="1.23" cy="339.729" stroke="#000000" stroke-width="0.25" g2gstroke="#312783" stroke-miterlimit="10"/>
	<path orgstroke="#000000" orgfill="none" fill="none" d="M435.276,350.219l0.365-0.45l2.332-2.446   l0.813-0.841" stroke="#000000" stroke-width="0.25" g2gstroke="#312783" stroke-miterlimit="10"/>
	<polyline orgstroke="#000000" orgfill="none" points="390.601,360.184 392.906,361.72    393.026,361.777  " fill="none" stroke="#000000" stroke-width="0.25" g2gstroke="#312783" stroke-miterlimit="10"/>
	<path orgstroke="#000000" orgfill="none" fill="none" d="M375.862,362.455   c0.804-0.009,1.728,0.268,2.705,0.829c2.961,1.709,5.362,5.491,5.362,8.453c0,2.409-1.593,3.528-3.783,2.94" stroke="#000000" stroke-width="0.25" g2gstroke="#312783" stroke-miterlimit="10"/>
	<path orgstroke="#000000" orgfill="none" fill="none" d="M376.525,361.74   c0.983-0.621,2.477-0.52,4.131,0.44c2.968,1.709,5.361,5.491,5.361,8.452c0,1.104-0.339,1.938-0.916,2.467" stroke="#000000" stroke-width="0.25" g2gstroke="#312783" stroke-miterlimit="10"/>
	<path orgstroke="#000000" orgfill="none" fill="none" d="M384.343,357.406   c0.656-0.12,1.427-0.021,2.269,0.302" stroke="#000000" stroke-width="0.25" g2gstroke="#312783" stroke-miterlimit="10"/>
	<path orgstroke="#000000" orgfill="none" fill="none" d="M381.462,370.192   c0,1.681-1.363,2.258-3.046,1.287c-1.688-0.972-3.048-3.125-3.048-4.806c0-1.688,1.357-2.271,3.048-1.29   C380.099,366.355,381.462,368.51,381.462,370.192z" stroke="#000000" stroke-width="0.25" g2gstroke="#312783" stroke-miterlimit="10"/>
	<path orgstroke="#000000" orgfill="none" fill="none" d="M379.559,369.094   c0,0.632-0.511,0.849-1.143,0.479c-0.63-0.361-1.146-1.17-1.146-1.801c0-0.63,0.521-0.848,1.146-0.48   C379.047,367.653,379.559,368.458,379.559,369.094z" stroke="#000000" stroke-width="0.25" g2gstroke="#312783" stroke-miterlimit="10"/>
	<path orgstroke="#000000" orgfill="none" fill="none" d="M382.401,360.074   c0.542-0.521,1.487-0.543,2.565,0.079c1.683,0.979,3.046,3.122,3.046,4.813c0,0.313-0.05,0.6-0.14,0.838" stroke="#000000" stroke-width="0.25" g2gstroke="#312783" stroke-miterlimit="10"/>
	<polyline orgstroke="#000000" orgfill="none" points="381.716,362.684 384.32,364.555    387.406,367.188 391.544,370.124 396.663,373.435 404.186,378.927 409.454,382.844 414.271,386.01 418.711,388.719    423.376,391.722 426.461,393.76 428.642,395.561 431.198,397.741 433.46,399.849 434.888,401.51 437.072,404.365 438.573,406.243    438.879,406.772 438.948,407.373 439.027,410.844  " fill="none" stroke="#000000" stroke-width="0.25" g2gstroke="#312783" stroke-miterlimit="10"/>
	<polyline orgstroke="#000000" orgfill="none" points="382.637,362.095 385.374,364.061    388.458,366.695 392.598,369.635 397.715,372.942 405.24,378.435 410.508,382.348 415.325,385.51 419.765,388.219 424.43,391.228    427.513,393.26 429.698,395.067 432.256,397.247 434.511,399.356 435.943,401.01 438.125,403.87 439.632,405.76 439.929,406.279    440.009,406.885 440.198,409.865  " fill="none" stroke="#000000" stroke-width="0.25" g2gstroke="#312783" stroke-miterlimit="10"/>
	<polyline orgstroke="#000000" orgfill="none" points="439.24,345.302 439.027,341.075    438.653,339.573 437.599,337.915 436.395,336.787 435.115,336.187 433.384,335.734 432.757,335.727 431.503,335.809    429.47,335.809 427.281,335.927 423.979,336.448 422.281,336.787 420.029,337.651 419.267,338.04  " fill="none" stroke="#000000" stroke-width="0.25" g2gstroke="#312783" stroke-miterlimit="10"/>
	<polyline orgstroke="#000000" orgfill="none" points="437.975,339.195 437.975,339.871    437.365,340.852 436.17,341.98 434.891,343.333 433.156,345.219 431.385,347.385 429.925,349.51 428.72,351.469 427.441,353.643    426.688,355.526 426.011,358.094 425.781,360.49 425.814,365.112  " fill="none" stroke="#000000" stroke-width="0.25" g2gstroke="#312783" stroke-miterlimit="10"/>
	<polyline orgstroke="#000000" orgfill="none" points="448.805,409.677 448.812,409.76    448.509,410.583 447.906,411.034 446.928,411.344 445.348,411.486 443.615,411.26 442.782,410.958 442.112,410.659    441.361,410.056 440.758,409.83 440.311,409.817  " fill="none" stroke="#000000" stroke-width="0.25" g2gstroke="#312783" stroke-miterlimit="10"/>
	<polyline orgstroke="#000000" orgfill="none" points="459.27,400.727 458.819,401.477    458.068,402.08 457.531,402.385 456.406,402.606 455.358,402.531 453.625,402.306 452.198,401.855 451.296,401.327    450.532,401.027 449.489,400.885 448.736,400.95 447.834,401.26 447.006,401.553 446.698,401.929 446.554,402.606 446.554,402.952     " fill="none" stroke="#000000" stroke-width="0.25" g2gstroke="#312783" stroke-miterlimit="10"/>
	<polyline orgstroke="#000000" orgfill="none" points="425.627,372.161 426.572,374.788    427.474,376.313 429.281,378.853 431.258,381.166 433.007,383.093 436.584,386.698 438.615,388.447 438.881,388.649    441.281,390.605 444.146,392.561 446.698,394.142 449.032,395.572 451.74,397.076 453.929,398.135 455.434,398.583 456.74,399.02     " fill="none" stroke="#000000" stroke-width="0.25" g2gstroke="#312783" stroke-miterlimit="10"/>
	<polyline orgstroke="#000000" orgfill="none" points="431.474,336.014 432.115,336.406    433.808,337.903 434.603,339.145 435.029,339.993 434.99,341.219 434.591,342.19 433.964,343.01 432.356,344.487 430.908,346.052    428.98,348.347 427.806,350.185  " fill="none" stroke="#000000" stroke-width="0.25" g2gstroke="#312783" stroke-miterlimit="10"/>
	<polyline orgstroke="#000000" orgfill="none" points="386.612,357.719 388.252,358.594    389.352,359.353 390.601,360.184  " fill="none" stroke="#000000" stroke-width="0.25" g2gstroke="#312783" stroke-miterlimit="10"/>
	
		<line orgstroke="#000000" orgfill="none" fill="none" x1="389.776" x2="391.732" y1="360.762" y2="362.066" stroke="#000000" stroke-width="0.25" g2gstroke="#312783" stroke-miterlimit="10"/>
	<path orgstroke="#000000" orgfill="none" fill="none" d="M381.462,360.302   c0.326-2.088,2.082-2.896,4.327-2.019" stroke="#000000" stroke-width="0.25" g2gstroke="#312783" stroke-miterlimit="10"/>
	<polyline orgstroke="#000000" orgfill="none" points="418.196,340.077 417.778,340.328    416.085,341.572 414.165,343.433 412.074,345.577 409.479,348.739 407.9,351.052 405.98,354.1 403.894,357.43 401.91,360.124    400.838,361.554 400.218,362.094 399.06,363.022 397.65,363.531 396.465,363.643 395.335,363.473 394.121,363.193 392.936,362.767    391.732,362.066 389.776,360.762 388.528,359.933 387.426,359.177 385.789,358.287  " fill="none" stroke="#000000" stroke-width="0.25" g2gstroke="#312783" stroke-miterlimit="10"/>
	<polyline orgstroke="#000000" orgfill="none" points="382.637,362.095 382.289,361.941    381.835,361.788 381.404,361.734 380.953,361.677 380.594,361.697 380.142,361.759  " fill="none" stroke="#000000" stroke-width="0.25" g2gstroke="#312783" stroke-miterlimit="10"/>
	
		<line orgstroke="#000000" orgfill="none" fill="none" x1="376.623" x2="377.49" y1="372.514" y2="373.268" stroke="#000000" stroke-width="0.25" g2gstroke="#312783" stroke-miterlimit="10"/>
	
		<line orgstroke="#000000" orgfill="none" fill="none" x1="385.099" x2="382.643" y1="373.101" y2="374.476" stroke="#000000" stroke-width="0.25" g2gstroke="#312783" stroke-miterlimit="10"/>
	<polyline orgstroke="#000000" orgfill="none" points="425.025,367.635 424.812,366.733    424.631,365.201 424.49,363.362 424.573,359.519 424.875,357.117 425.625,354.581 426.434,352.721 427.823,350.156  " fill="none" stroke="#000000" stroke-width="0.25" g2gstroke="#312783" stroke-miterlimit="10"/>
	<polyline orgstroke="#000000" orgfill="none" points="457.531,398.677 457.531,396.183    457.39,395.658 456.781,395.207 454.983,394.604 453.477,394.153 451.296,393.099 448.587,391.595 446.252,390.164    443.696,388.593 440.834,386.635 438.427,384.677 438.156,384.469 436.133,382.72 432.552,379.108 430.804,377.189    428.823,374.873 427.021,372.343 426.115,370.809 425.174,368.182 425.025,367.635  " fill="none" stroke="#000000" stroke-width="0.25" g2gstroke="#312783" stroke-miterlimit="10"/>
	<polyline orgstroke="#000000" orgfill="none" points="456.74,399.02 457.126,399.02    457.362,398.915 458.401,398.322  " fill="none" stroke="#000000" stroke-width="0.25" g2gstroke="#312783" stroke-miterlimit="10"/>
	
		<line orgstroke="#000000" orgfill="none" fill="none" x1="457.073" x2="458.151" y1="395.406" y2="394.641" stroke="#000000" stroke-width="0.25" g2gstroke="#312783" stroke-miterlimit="10"/>
	
		<line orgstroke="#000000" orgfill="none" fill="none" x1="439.073" x2="439.611" y1="406.65" y2="406.344" stroke="#000000" stroke-width="0.25" g2gstroke="#312783" stroke-miterlimit="10"/>
	
		<line orgstroke="#000000" orgfill="none" fill="none" x1="381.224" x2="382.401" y1="360.935" y2="360.074" stroke="#000000" stroke-width="0.25" g2gstroke="#312783" stroke-miterlimit="10"/>
	<polyline orgstroke="#000000" orgfill="none" points="418.196,340.077 419.35,339.91    420.029,340.137 420.818,340.7 425.558,343.861 426.237,344.094 427.252,343.976 430.187,342.394 430.638,342.177 431.428,342.177    432.896,342.846  " fill="none" stroke="#000000" stroke-width="0.25" g2gstroke="#312783" stroke-miterlimit="10"/>
	<polyline orgstroke="#000000" orgfill="none" points="427.426,349.392 426.698,349.473    426.023,349.246 421.281,346.094 420.491,345.522 419.815,345.302 418.659,345.469 418.196,345.573 417.778,345.825    416.085,347.067 414.165,348.928 412.074,351.074 409.479,354.235 407.9,356.552 405.98,359.597 403.894,362.927 401.91,365.621    400.838,367.052 400.218,367.594 399.06,368.517 397.65,369.026 396.465,369.14 395.335,368.969 394.121,368.689 392.936,368.262    391.732,367.562 389.776,366.26 388.528,365.429 388.193,365.196  " fill="none" stroke="#000000" stroke-width="0.25" g2gstroke="#312783" stroke-miterlimit="10"/>
	
		<line orgstroke="#000000" orgfill="none" fill="none" x1="408.063" x2="424.317" y1="356.955" y2="354.927" stroke="#000000" stroke-width="0.25" g2gstroke="#312783" stroke-miterlimit="10"/>
	
		<line orgstroke="#000000" orgfill="none" fill="none" x1="407.273" x2="423.528" y1="358.988" y2="356.955" stroke="#000000" stroke-width="0.25" g2gstroke="#312783" stroke-miterlimit="10"/>
	
		<line orgstroke="#000000" orgfill="none" fill="none" x1="397.837" x2="398.113" y1="368.958" y2="373.232" stroke="#000000" stroke-width="0.25" g2gstroke="#312783" stroke-miterlimit="10"/>
	
		<line orgstroke="#000000" orgfill="none" fill="none" x1="399.644" x2="399.92" y1="368.094" y2="374.51" stroke="#000000" stroke-width="0.25" g2gstroke="#312783" stroke-miterlimit="10"/>
	
		<ellipse orgstroke="#000000" orgfill="none" fill="none" rx="5.619" cx="415.989" ry="2.887" cy="370.661" stroke="#000000" stroke-width="0.25" g2gstroke="#312783" stroke-miterlimit="10"/>
	
		<ellipse orgstroke="#000000" orgfill="none" fill="none" rx="1.572" cx="445.157" ry="0.809" cy="409.134" stroke="#000000" stroke-width="0.25" g2gstroke="#312783" stroke-miterlimit="10"/>
	
		<ellipse orgstroke="#000000" orgfill="none" fill="none" rx="1.563" cx="456.002" ry="0.809" cy="400.727" stroke="#000000" stroke-width="0.25" g2gstroke="#312783" stroke-miterlimit="10"/>
	
		<ellipse orgstroke="#000000" orgfill="none" fill="none" rx="1.574" cx="442.516" ry="0.809" cy="399.482" stroke="#000000" stroke-width="0.25" g2gstroke="#312783" stroke-miterlimit="10"/>
	
		<ellipse orgstroke="#000000" orgfill="none" fill="none" rx="1.563" cx="415.96" ry="0.809" cy="380.124" stroke="#000000" stroke-width="0.25" g2gstroke="#312783" stroke-miterlimit="10"/>
	
		<ellipse orgstroke="#000000" orgfill="none" fill="none" rx="1.573" cx="420.235" ry="0.809" cy="377.724" stroke="#000000" stroke-width="0.25" g2gstroke="#312783" stroke-miterlimit="10"/>
	<path orgstroke="#000000" orgfill="none" fill="none" d="M410.805,371.19   c0.847-1.04,2.849-1.773,5.184-1.773c2.277,0,4.239,0.696,5.122,1.698" stroke="#000000" stroke-width="0.25" g2gstroke="#312783" stroke-miterlimit="10"/>
	
		<line orgstroke="#000000" orgfill="none" fill="none" x1="432.632" x2="442.74" y1="397.6" y2="391.607" stroke="#000000" stroke-width="0.25" g2gstroke="#312783" stroke-miterlimit="10"/>
	
		<line orgstroke="#000000" orgfill="none" fill="none" x1="431.258" x2="441.07" y1="396.161" y2="390.433" stroke="#000000" stroke-width="0.25" g2gstroke="#312783" stroke-miterlimit="10"/>
	<polyline orgstroke="#000000" orgfill="none" points="425.627,372.161 424.99,369.598    424.573,367.039 424.468,365.609  " fill="none" stroke="#000000" stroke-width="0.25" g2gstroke="#312783" stroke-miterlimit="10"/>
	<polyline orgstroke="#000000" orgfill="none" points="421.798,339.802 425.257,337.094    426.313,336.486  " fill="none" stroke="#000000" stroke-width="0.25" g2gstroke="#312783" stroke-miterlimit="10"/>
	
		<line orgstroke="#000000" orgfill="none" fill="none" x1="419.238" x2="419.238" y1="341.452" y2="344.161" stroke="#000000" stroke-width="0.25" g2gstroke="#312783" stroke-miterlimit="10"/>
	<polyline orgstroke="#000000" orgfill="none" points="439.24,345.302 439.027,345.927    438.793,346.48  " fill="none" stroke="#000000" stroke-width="0.25" g2gstroke="#312783" stroke-miterlimit="10"/>
</g>
</g>
</g></svg>