<svg xmlns="http://www.w3.org/2000/svg" xmlns:xlink="http://www.w3.org/1999/xlink" xmlns:etg="http://www.eurotaxglass.com/etg/evd/" etg:dataTimestamp="1539068912893" contentScriptType="text/ecmascript" zoomAndPan="magnify" contentStyleType="text/css" id="Layer_1" enable-background="new 0 0 1841.891 1595.279" version="1.1" xml:space="preserve" width="1841.891px" preserveAspectRatio="xMidYMid meet" viewBox="0 0 1841.891 1595.279" height="1595.279px" x="0px" y="0px"><g xmlns="http://www.w3.org/2000/svg" objecttype="PS" tooltip="#UNDEFINED" id="31">
<g onmouseover="notifyOwner(AGV_OBJECT_MOUSEOVER, '31(PS)')" onclick="clickZoom(evt); notifyOwner(AGV_OBJECT_MOUSECLICK, '31(PS)')" onmouseout="notifyOwner(AGV_OBJECT_MOUSEOUT, '31(PS)')" tooltip="#UNDEFINED" id="31-Graphic" objecttype="GRAPHIC">
<g>
	<path orgstroke="#000000" orgfill="#ffffff" fill="#ffffff" g2gfill="#ECF5E4" d="M347.655,433.611h-0.974l-0.338,0.174   l-3.411,2.688l-0.327,0.646l-0.164,0.733v2.763l0.229,0.46l1.381,0.813l0.651,0.161l0.729-0.161l4.958-2.355l0.36-0.546   l0.643-1.417l0.133-0.438l0.202-0.329l0.271-0.27l0.911-0.979l0.646-0.828l0.531-0.944l0.229-0.938l0.186-0.895l-0.119-0.938   l-0.354-0.947l-0.589-0.767l-0.828-0.682l-6.337-4.563l-3.543-3.325l-3.353-4.152l-2.425-4.146l-1.119-3.53l-0.742-8.313   l-0.748-9.144l-2.237-12.46l-1.526-5.48l-2.063-4.229l-2.865-3.389l-3.978-3.521l-1.396-0.883l-0.015-0.282l0.979-0.576   l0.091-0.396l-0.044-1.151l-0.186-0.266l-3.721-2.171l-0.266,0.089l-0.576,0.266l-0.354,0.044l-0.396-0.088l-2.396-1.563   c-0.463-0.149-1.063-0.062-1.729,0.326l-0.521-0.049l-54.382-34.604l-4.636-2.943l-0.051-0.273l0.825-0.487l0.09-0.396   l-0.044-1.146l-0.186-0.271l-3.721-2.171l-0.268,0.091l-0.574,0.271l-0.354,0.044l-0.396-0.089l-2.396-1.566   c-0.418-0.139-0.956-0.066-1.548,0.229l-0.623-0.084l-0.8-0.515l0,0l-3.159-1.86l-3.342-1.035l-3.9-0.623l-2.971,0.208   l-5.446,1.104l-33.15,8.793l-4.48,0.063l-4.704-0.562l-3.221-0.828l-3.96-1.661l-6.188-3.319l-4.458-2.764l-1.021-0.323   l-0.621-0.092l-0.977,0.178l-0.804,0.18l-1.595,0.802l-1.147,0.525l-0.711,0.271l-0.937,0.244h-0.979l-0.336,0.177l-3.411,2.683   l-0.322,0.647l-0.164,0.729v2.771l0.227,0.459l1.389,0.812l0.646,0.163l0.732-0.163l4.957-2.354l0.354-0.546l0.646-1.419   l0.134-0.44l0.199-0.333l0.267-0.26l0.854-0.332h0.801l0.62,0.177l1.19,0.97l4.458,2.763l6.188,3.317l3.96,1.66l3.221,0.827   l4.704,0.563l4.479-0.063l33.153-8.79l5.448-1.107l2.971-0.203l3.897,0.619l3.344,1.035l1.479,0.872l0.297,0.385   c0,0.104,0.008,0.199,0.019,0.293v0.638v2.34l-0.088,0.55l-0.295,0.354l-1.979,1.569l-0.242,0.423l-0.113,1.187l0.177,0.354   l3.188,1.894l0.474,0.063l0.474-0.119l3.278-2.691l0.177-0.293v-0.415l1.993-1.608l0.343-0.101l60.563,38.479l0.331,0.429   c0.004,0.063,0.009,0.143,0.018,0.204v0.639v2.34l-0.088,0.549l-0.293,0.354l-1.979,1.564l-0.232,0.428l-0.119,1.181l0.177,0.354   l3.189,1.894l0.474,0.062l0.473-0.112l3.275-2.692l0.177-0.296v-0.413l1.993-1.61l0.34,0.059l1.423,0.9l3.961,3.516l2.857,3.392   l2.052,4.222l1.528,5.479l2.229,12.447l0.745,9.128l0.739,8.302l1.113,3.525l2.414,4.146l3.344,4.146l3.525,3.315l6.313,4.563   l0.053,0.049l0.318,0.373v0.297l-0.177,0.477l-0.413,0.411l-0.531,0.478L347.655,433.611z" outline-element="true" stroke="#000000" stroke-width="0.5" g2gstroke="#312783" stroke-miterlimit="10"/>
	<path orgstroke="#000000" orgfill="none" fill="none" d="M316.014,364.219l-1.271-0.897L316.014,364.219z   " stroke="#000000" stroke-width="0.25" g2gstroke="#312783" stroke-miterlimit="10"/>
	
	<path orgstroke="#000000" orgfill="none" fill="none" d="M349.374,437.154   c0,1.008-0.819,2.301-1.827,2.88c-1.01,0.584-1.83,0.237-1.83-0.771s0.819-2.301,1.83-2.883   C348.555,435.802,349.374,436.141,349.374,437.154z" stroke="#000000" stroke-width="0.25" g2gstroke="#312783" stroke-miterlimit="10"/>
	<path orgstroke="#000000" orgfill="none" fill="none" d="M347.855,436.456   c-0.105,0.975-0.883,2.104-1.813,2.646c-0.028,0.017-0.063,0.033-0.088,0.048" stroke="#000000" stroke-width="0.25" g2gstroke="#312783" stroke-miterlimit="10"/>
	<path orgstroke="#000000" orgfill="none" fill="none" d="M314.744,363.316   c-0.229-0.157-0.354-0.442-0.354-0.836c0-0.946,0.771-2.156,1.714-2.702c0.548-0.313,1.035-0.34,1.354-0.121l0.083,0.069   l2.478,1.575" stroke="#000000" stroke-width="0.25" g2gstroke="#312783" stroke-miterlimit="10"/>
	<polyline orgstroke="#000000" orgfill="none" points="348.112,434.74 344.701,437.427    344.375,438.071 344.211,438.802 344.211,441.564  " fill="none" stroke="#000000" stroke-width="0.25" g2gstroke="#312783" stroke-miterlimit="10"/>
	<polyline orgstroke="#000000" orgfill="none" points="348.112,434.74 350.39,434.654    350.795,434.815 351.362,435.469 351.526,436.196 351.362,437.497 350.634,438.968  " fill="none" stroke="#000000" stroke-width="0.25" g2gstroke="#312783" stroke-miterlimit="10"/>
	<polyline orgstroke="#000000" orgfill="none" points="349.538,433.306 350.365,433.364    351.133,433.719 351.725,434.135  " fill="none" stroke="#000000" stroke-width="0.25" g2gstroke="#312783" stroke-miterlimit="10"/>
	
		<line orgstroke="#000000" orgfill="none" fill="none" x1="346.609" x2="347.805" y1="434.009" y2="434.599" stroke="#000000" stroke-width="0.25" g2gstroke="#312783" stroke-miterlimit="10"/>
	
		<line orgstroke="#000000" orgfill="none" fill="none" x1="343.154" x2="344.438" y1="436.814" y2="437.366" stroke="#000000" stroke-width="0.25" g2gstroke="#312783" stroke-miterlimit="10"/>
	<path orgstroke="#000000" orgfill="none" fill="none" d="M157.022,314.574c0,1.02-0.813,2.31-1.827,2.882   c-1.009,0.584-1.82,0.238-1.82-0.771c0-1.008,0.813-2.3,1.82-2.882C156.204,313.219,157.022,313.564,157.022,314.574z" stroke="#000000" stroke-width="0.25" g2gstroke="#312783" stroke-miterlimit="10"/>
	<path orgstroke="#000000" orgfill="none" fill="none" d="M155.484,313.915   c-0.163,0.938-0.896,2.011-1.792,2.521c-0.023,0.02-0.063,0.036-0.098,0.053" stroke="#000000" stroke-width="0.25" g2gstroke="#312783" stroke-miterlimit="10"/>
	<polyline orgstroke="#000000" orgfill="none" points="155.763,312.163 152.348,314.846    152.025,315.493 151.863,316.225 151.863,318.988  " fill="none" stroke="#000000" stroke-width="0.25" g2gstroke="#312783" stroke-miterlimit="10"/>
	<polyline orgstroke="#000000" orgfill="none" points="155.763,312.163 158.038,312.077    158.444,312.24 159.013,312.889 159.175,313.619 159.013,314.927 158.282,316.385  " fill="none" stroke="#000000" stroke-width="0.25" g2gstroke="#312783" stroke-miterlimit="10"/>
	<polyline orgstroke="#000000" orgfill="none" points="157.188,310.729 158.015,310.787    158.782,311.142 159.374,311.557  " fill="none" stroke="#000000" stroke-width="0.25" g2gstroke="#312783" stroke-miterlimit="10"/>
	
		<line orgstroke="#000000" orgfill="none" fill="none" x1="154.258" x2="155.454" y1="311.427" y2="312.022" stroke="#000000" stroke-width="0.25" g2gstroke="#312783" stroke-miterlimit="10"/>
	
		<line orgstroke="#000000" orgfill="none" fill="none" x1="150.804" x2="152.088" y1="314.237" y2="314.79" stroke="#000000" stroke-width="0.25" g2gstroke="#312783" stroke-miterlimit="10"/>
	<path orgstroke="#000000" orgfill="none" fill="none" d="M310.24,367.79l1.979-1.563l0.293-0.354   l0.088-0.548v-2.002v-0.127V362.7c-0.011-0.094-0.017-0.188-0.017-0.293c0-1.485,1.174-3.375,2.622-4.208   c1.332-0.767,2.428-0.388,2.6,0.828" stroke="#000000" stroke-width="0.25" g2gstroke="#312783" stroke-miterlimit="10"/>
	<path orgstroke="#000000" orgfill="none" fill="none" d="M309.066,359.557   c0.152-1.315,1.104-2.835,2.312-3.663" stroke="#000000" stroke-width="0.25" g2gstroke="#312783" stroke-miterlimit="10"/>
	
		<line orgstroke="#000000" orgfill="none" fill="none" x1="306.812" x2="309.824" y1="365.969" y2="367.79" stroke="#000000" stroke-width="0.25" g2gstroke="#312783" stroke-miterlimit="10"/>
	
		<line orgstroke="#000000" orgfill="none" fill="none" x1="309.171" x2="312.183" y1="363.723" y2="365.553" stroke="#000000" stroke-width="0.25" g2gstroke="#312783" stroke-miterlimit="10"/>
	<polyline orgstroke="#000000" orgfill="none" points="310.24,367.79 310.032,368.15    309.974,369.536  " fill="none" stroke="#000000" stroke-width="0.25" g2gstroke="#312783" stroke-miterlimit="10"/>
	
		<ellipse orgstroke="#000000" orgfill="none" fill="none" rx="1.085" cx="309.592" ry="0.721" cy="365.865" stroke="#000000" stroke-width="0.25" g2gstroke="#312783" stroke-miterlimit="10"/>
	<path orgstroke="#000000" orgfill="none" fill="none" d="M317.731,358.117   c0.418,0.104,0.729,0.368,0.729,0.688c0,0.188-0.122,0.376-0.318,0.507" stroke="#000000" stroke-width="0.25" g2gstroke="#312783" stroke-miterlimit="10"/>
	
		<line orgstroke="#000000" orgfill="none" fill="none" x1="317.806" x2="317.828" y1="359.025" y2="359.734" stroke="#000000" stroke-width="0.25" g2gstroke="#312783" stroke-miterlimit="10"/>
	
		<line orgstroke="#000000" orgfill="none" fill="none" x1="315.663" x2="317.224" y1="356.858" y2="358.009" stroke="#000000" stroke-width="0.25" g2gstroke="#312783" stroke-miterlimit="10"/>
	
		<line orgstroke="#000000" orgfill="none" fill="none" x1="321.017" x2="318.802" y1="359.025" y2="360.265" stroke="#000000" stroke-width="0.25" g2gstroke="#312783" stroke-miterlimit="10"/>
	<path orgstroke="#000000" orgfill="none" fill="none" d="M247.93,321.056l-1.291-0.82l-0.229-0.196   c-0.229-0.151-0.354-0.438-0.354-0.839c0-0.938,0.771-2.146,1.714-2.69c0.547-0.318,1.033-0.349,1.345-0.122l0.387,0.188   l2.263,1.438" stroke="#000000" stroke-width="0.25" g2gstroke="#312783" stroke-miterlimit="10"/>
	<path orgstroke="#000000" orgfill="none" fill="none" d="M244.264,319.909v-0.493   c-0.011-0.091-0.018-0.188-0.018-0.29c0-1.48,1.174-3.375,2.623-4.211c1.33-0.767,2.428-0.388,2.6,0.83" stroke="#000000" stroke-width="0.25" g2gstroke="#312783" stroke-miterlimit="10"/>
	<polyline orgstroke="#000000" orgfill="none" points="241.903,324.513 243.881,322.941    244.176,322.594 244.264,322.041 244.264,320.039  " fill="none" stroke="#000000" stroke-width="0.25" g2gstroke="#312783" stroke-miterlimit="10"/>
	<path orgstroke="#000000" orgfill="none" fill="none" d="M240.735,316.233   c0.183-1.329,1.151-2.854,2.367-3.662" stroke="#000000" stroke-width="0.25" g2gstroke="#312783" stroke-miterlimit="10"/>
	
		<line orgstroke="#000000" orgfill="none" fill="none" x1="238.478" x2="241.49" y1="322.684" y2="324.513" stroke="#000000" stroke-width="0.25" g2gstroke="#312783" stroke-miterlimit="10"/>
	
		<line orgstroke="#000000" orgfill="none" fill="none" x1="240.834" x2="243.846" y1="320.447" y2="322.277" stroke="#000000" stroke-width="0.25" g2gstroke="#312783" stroke-miterlimit="10"/>
	<polyline orgstroke="#000000" orgfill="none" points="241.903,324.513 241.695,324.87    241.637,326.26  " fill="none" stroke="#000000" stroke-width="0.25" g2gstroke="#312783" stroke-miterlimit="10"/>
	
		<ellipse orgstroke="#000000" orgfill="none" fill="none" rx="1.086" cx="241.255" ry="0.72" cy="322.586" stroke="#000000" stroke-width="0.25" g2gstroke="#312783" stroke-miterlimit="10"/>
	<path orgstroke="#000000" orgfill="none" fill="none" d="M249.394,314.844   c0.418,0.1,0.72,0.356,0.72,0.679c0,0.199-0.113,0.379-0.313,0.509" stroke="#000000" stroke-width="0.25" g2gstroke="#312783" stroke-miterlimit="10"/>
	
		<line orgstroke="#000000" orgfill="none" fill="none" x1="249.469" x2="249.491" y1="315.745" y2="316.457" stroke="#000000" stroke-width="0.25" g2gstroke="#312783" stroke-miterlimit="10"/>
	
		<line orgstroke="#000000" orgfill="none" fill="none" x1="247.326" x2="248.887" y1="313.58" y2="314.724" stroke="#000000" stroke-width="0.25" g2gstroke="#312783" stroke-miterlimit="10"/>
	
		<line orgstroke="#000000" orgfill="none" fill="none" x1="252.68" x2="250.466" y1="315.748" y2="316.989" stroke="#000000" stroke-width="0.25" g2gstroke="#312783" stroke-miterlimit="10"/>
	<polyline orgstroke="#000000" orgfill="none" points="314.373,363.26 314.395,364.186    314.462,364.429 314.638,364.451 314.838,364.385 314.993,364.302 315.392,364.031  " fill="none" stroke="#000000" stroke-width="0.25" g2gstroke="#312783" stroke-miterlimit="10"/>
	
		<line orgstroke="#000000" orgfill="none" fill="none" x1="309.797" x2="311.745" y1="359.778" y2="360.969" stroke="#000000" stroke-width="0.25" g2gstroke="#312783" stroke-miterlimit="10"/>
	
		<line orgstroke="#000000" orgfill="none" fill="none" x1="241.374" x2="243.788" y1="316.08" y2="317.387" stroke="#000000" stroke-width="0.25" g2gstroke="#312783" stroke-miterlimit="10"/>
	<polyline orgstroke="#000000" orgfill="none" points="246.069,319.979 246.092,320.688    246.158,320.997 246.269,321.135 246.512,321.153 246.734,320.997 247.066,320.732  " fill="none" stroke="#000000" stroke-width="0.25" g2gstroke="#312783" stroke-miterlimit="10"/>
</g>
</g>
</g></svg>