<svg xmlns="http://www.w3.org/2000/svg" xmlns:xlink="http://www.w3.org/1999/xlink" xmlns:etg="http://www.eurotaxglass.com/etg/evd/" etg:dataTimestamp="1539068912893" contentScriptType="text/ecmascript" zoomAndPan="magnify" contentStyleType="text/css" id="Layer_1" enable-background="new 0 0 1841.891 1595.279" version="1.1" xml:space="preserve" width="1841.891px" preserveAspectRatio="xMidYMid meet" viewBox="0 0 1841.891 1595.279" height="1595.279px" x="0px" y="0px"><g xmlns="http://www.w3.org/2000/svg" objecttype="PS" tooltip="#UNDEFINED" id="36">
<g onmouseover="notifyOwner(AGV_OBJECT_MOUSEOVER, '36(PS)')" onclick="clickZoom(evt); notifyOwner(AGV_OBJECT_MOUSECLICK, '36(PS)')" onmouseout="notifyOwner(AGV_OBJECT_MOUSEOUT, '36(PS)')" tooltip="#UNDEFINED" id="36-Graphic" objecttype="GRAPHIC">
<g>
	<polygon orgstroke="#000000" orgfill="#ffffff" points="587.24,399.635 586.269,399.897    585.823,400.344 585.029,401.226 582.814,404.326 582.016,405.035 581.308,406.187 577.321,413.54 576.879,414.759    576.524,415.932 575.815,419.219 575.195,422.931 574.841,426.562 574.752,429.219 574.656,430.468 574.841,430.904    575.365,431.081 575.815,431.346 575.99,431.79 575.726,432.232 574.486,433.031 573.865,433.302 573.689,433.649 573.689,434.358    573.6,437.282 573.65,437.635 574.309,437.991 574.656,437.991 574.929,437.282 575.726,436.573 576.781,436.307 578.65,436.135    579.181,436.042 579.802,435.865 580.156,435.333 580.422,434.979 581.041,434.802 582.194,434.802 583.073,434.01    583.781,433.207 584.142,432.054 584.49,430.814 585.029,429.76 585.823,427.979 587.155,425.853 588.306,424.436 589.365,423.469    589.99,422.4 590.344,421.513 590.256,419.828 590.521,416.818 590.875,414.515 591.406,412.927 592.198,411.51 593.445,409.111    594.154,407.694 594.323,406.541 594.42,405.567 594.154,404.681 593.711,403.972 593.091,403.352 590.166,402.112    589.459,402.024 588.306,401.846 588.041,401.491 587.948,400.695 587.775,399.986  " fill="#ffffff" g2gfill="#ECF5E4" outline-element="true" stroke="#000000" stroke-width="0.5" g2gstroke="#312783" stroke-miterlimit="10"/>
	<polygon orgstroke="#000000" orgfill="#ffffff" points="577.233,398.219 577.055,397.51    576.346,396.802 576.259,396.443 576.346,395.91 576.698,395.29 576.698,395.29 576.967,394.76 576.967,394.052 576.524,393.43    575.726,392.899 574.22,392.367 573.069,392.013 572.006,392.101 571.563,392.013 571.385,391.658 571.474,391.038    571.385,390.684 570.677,390.329 569.88,390.329 569.525,390.329 569.074,390.684 568.196,391.481 567.222,392.552    566.602,393.519 566.425,394.316 566.425,394.76 566.69,395.201 567.222,395.201 567.754,395.385 568.196,395.734 568.196,396.094    567.93,397.063 567.045,398.219 566.07,399.809 565.008,401.58 563.944,403.706 562.834,405.719 561.818,408.667 561.02,411.06    560.4,413.983 560.135,415.844 559.949,417.261 559.949,420.892 559.865,421.691 557.654,423.108 557.031,423.552 556.679,423.993    556.503,424.702 556.503,427.361 556.679,427.802 557.823,428.069 558.363,427.802 558.806,427.183 559.072,426.739    559.514,426.385 560.135,426.207 560.573,426.031 561.818,426.12 562.349,426.12 563.323,425.766 563.944,425.322 564.564,424.702    564.919,424.081 565.273,423.64 565.716,423.372 566.948,423.018 568.551,422.309 569.969,421.246 571.385,419.475 573.156,417.35    574.22,415.052 574.573,413.806 575.281,412.034 575.638,410.262 575.815,408.667 576.346,406.719 577.406,404.77 577.941,403.706    577.941,402.469  " fill="#ffffff" g2gfill="#ECF5E4" outline-element="true" stroke="#000000" stroke-width="0.5" g2gstroke="#312783" stroke-miterlimit="10"/>
	<polyline orgstroke="#000000" orgfill="none" points="568.066,408.653 567.31,410.802    566.07,414.344 565.531,417.177 565.361,419.652 565.008,423.196  " fill="none" stroke="#000000" stroke-width="0.25" g2gstroke="#312783" stroke-miterlimit="10"/>
	<polyline orgstroke="#000000" orgfill="none" points="571.24,401.241 569.614,404.947    568.99,406.365  " fill="none" stroke="#000000" stroke-width="0.25" g2gstroke="#312783" stroke-miterlimit="10"/>
	<polyline orgstroke="#000000" orgfill="none" points="576.524,397.51 573.689,398.391    572.625,399.277  " fill="none" stroke="#000000" stroke-width="0.25" g2gstroke="#312783" stroke-miterlimit="10"/>
	<polyline orgstroke="#000000" orgfill="none" points="564.739,404.51 564.982,404.061    566.046,401.935 567.108,400.163 568.074,398.569 568.969,397.416 569.437,395.822  " fill="none" stroke="#000000" stroke-width="0.25" g2gstroke="#312783" stroke-miterlimit="10"/>
	<polyline orgstroke="#000000" orgfill="none" points="562.594,409.811 562.856,409.022    563.678,406.635  " fill="none" stroke="#000000" stroke-width="0.25" g2gstroke="#312783" stroke-miterlimit="10"/>
	<polyline orgstroke="#000000" orgfill="none" points="560.99,420.635 560.99,417.615    561.173,416.198 561.438,414.344 561.924,412.055  " fill="none" stroke="#000000" stroke-width="0.25" g2gstroke="#312783" stroke-miterlimit="10"/>
	<polyline orgstroke="#000000" orgfill="none" points="561.978,421.012 561.978,418.009    562.156,416.582 562.422,414.721 563.041,411.802 563.839,409.406 564.855,406.457 565.966,404.445 567.028,402.319    568.092,400.552 569.066,398.951 569.686,398.148  " fill="none" stroke="#000000" stroke-width="0.25" g2gstroke="#312783" stroke-miterlimit="10"/>
	<polyline orgstroke="#000000" orgfill="none" points="570.765,390.684 569.437,391.747    568.463,392.635 567.93,393.344 567.488,394.139 567.222,395.201  " fill="none" stroke="#000000" stroke-width="0.25" g2gstroke="#312783" stroke-miterlimit="10"/>
	<polyline orgstroke="#000000" orgfill="none" points="568.463,395.734 569.074,395.556    569.437,395.645 569.88,395.91 570.145,396.265 570.5,396.354 571.563,395.91 572.36,395.734 573.511,395.645 574.398,395.822    575.195,396.094 576.259,396.443  " fill="none" stroke="#000000" stroke-width="0.25" g2gstroke="#312783" stroke-miterlimit="10"/>
	<polyline orgstroke="#000000" orgfill="none" points="557.541,428.01 557.654,424.702    557.823,424.348 558.097,423.993 560.047,422.931 560.489,422.487 560.844,422.052  " fill="none" stroke="#000000" stroke-width="0.25" g2gstroke="#312783" stroke-miterlimit="10"/>
	<polyline orgstroke="#000000" orgfill="none" points="570.546,396.392 570.896,396.511    571.865,396.953 572.573,397.485 573.689,398.391  " fill="none" stroke="#000000" stroke-width="0.25" g2gstroke="#312783" stroke-miterlimit="10"/>
	<polyline orgstroke="#000000" orgfill="none" points="588.22,404.683 587.421,405.656    585.649,407.968 583.49,411.494 581.774,414.532 580.802,416.909 579.89,420.01 579.392,422.236 579.094,424.348 578.739,427.892    578.561,430.904 578.561,432.853 578.65,434.01 579.094,434.534 579.625,434.889 580.156,434.979  " fill="none" stroke="#000000" stroke-width="0.25" g2gstroke="#312783" stroke-miterlimit="10"/>
	<polyline orgstroke="#000000" orgfill="none" points="592.8,403.228 590.781,403.264    589.635,403.618 589.181,403.865  " fill="none" stroke="#000000" stroke-width="0.25" g2gstroke="#312783" stroke-miterlimit="10"/>
	<polyline orgstroke="#000000" orgfill="none" points="577.712,423.719 577.531,424.747    577.185,428.385 577.097,431.035 577.031,431.884  " fill="none" stroke="#000000" stroke-width="0.25" g2gstroke="#312783" stroke-miterlimit="10"/>
	<polyline orgstroke="#000000" orgfill="none" points="581.015,412.865 579.666,415.357    579.223,416.566 578.865,417.747 578.156,421.026 578.109,421.344  " fill="none" stroke="#000000" stroke-width="0.25" g2gstroke="#312783" stroke-miterlimit="10"/>
	
		<line orgstroke="#000000" orgfill="none" fill="none" x1="582.549" x2="581.656" y1="410.042" y2="411.685" stroke="#000000" stroke-width="0.25" g2gstroke="#312783" stroke-miterlimit="10"/>
	<polyline orgstroke="#000000" orgfill="none" points="582.92,404.469 584.804,405.142    584.893,405.761 584.49,406.719 584.156,407.177 583.653,408.01 583.24,408.76  " fill="none" stroke="#000000" stroke-width="0.25" g2gstroke="#312783" stroke-miterlimit="10"/>
	<polyline orgstroke="#000000" orgfill="none" points="582.738,404.395 585.591,405.515    585.68,406.135 585.323,406.932 584.99,407.389 584.483,408.219 580.49,415.57 580.053,416.781 579.698,417.969 578.99,421.24    578.365,424.969 578.016,428.594 577.937,430.951  " fill="none" stroke="#000000" stroke-width="0.25" g2gstroke="#312783" stroke-miterlimit="10"/>
	<polyline orgstroke="#000000" orgfill="none" points="560.99,420.635 560.99,421.203    561.02,421.578 560.948,421.823 560.844,422.052  " fill="none" stroke="#000000" stroke-width="0.25" g2gstroke="#312783" stroke-miterlimit="10"/>
	<polyline orgstroke="#000000" orgfill="none" points="561.978,421.012 561.928,421.645    561.885,422.199 561.885,422.487 561.906,422.802 562.106,423.041 562.349,423.219 562.859,423.35 564.21,423.469 564.653,423.469    565.198,423.306  " fill="none" stroke="#000000" stroke-width="0.25" g2gstroke="#312783" stroke-miterlimit="10"/>
	<polyline orgstroke="#000000" orgfill="none" points="569.686,398.148 570.073,397.683    570.212,397.469 570.389,397.107 570.406,396.863 570.5,396.354  " fill="none" stroke="#000000" stroke-width="0.25" g2gstroke="#312783" stroke-miterlimit="10"/>
	<polyline orgstroke="#000000" orgfill="none" points="577.937,430.951 577.897,431.219    577.321,431.744 576.781,431.927 576.48,431.744 575.848,431.433  " fill="none" stroke="#000000" stroke-width="0.25" g2gstroke="#312783" stroke-miterlimit="10"/>
	<polyline orgstroke="#000000" orgfill="none" points="585.76,401.802 584.94,402.909    584.32,403.706 583.877,404.51  " fill="none" stroke="#000000" stroke-width="0.25" g2gstroke="#312783" stroke-miterlimit="10"/>
	<polyline orgstroke="#000000" orgfill="none" points="587.51,400.26 586.977,400.344    586.615,400.695 586.18,401.226  " fill="none" stroke="#000000" stroke-width="0.25" g2gstroke="#312783" stroke-miterlimit="10"/>
	<polyline orgstroke="#000000" orgfill="none" points="588.041,401.491 586.889,402.555    585.823,403.53 585.198,404.51 584.735,405.179  " fill="none" stroke="#000000" stroke-width="0.25" g2gstroke="#312783" stroke-miterlimit="10"/>
	<polyline orgstroke="#000000" orgfill="none" points="574.698,437.955 574.865,433.992    575.045,433.728 576.195,432.929 576.638,432.488 576.99,432.009  " fill="none" stroke="#000000" stroke-width="0.25" g2gstroke="#312783" stroke-miterlimit="10"/>
	
		<line orgstroke="#000000" orgfill="none" fill="none" x1="574.073" x2="574.781" y1="433.443" y2="433.946" stroke="#000000" stroke-width="0.25" g2gstroke="#312783" stroke-miterlimit="10"/>
	
		<line orgstroke="#000000" orgfill="none" fill="none" x1="556.974" x2="557.74" y1="423.846" y2="424.229" stroke="#000000" stroke-width="0.25" g2gstroke="#312783" stroke-miterlimit="10"/>
</g>
</g>
</g></svg>