<svg xmlns="http://www.w3.org/2000/svg" xmlns:xlink="http://www.w3.org/1999/xlink" xmlns:etg="http://www.eurotaxglass.com/etg/evd/" etg:dataTimestamp="1539068912893" contentScriptType="text/ecmascript" zoomAndPan="magnify" contentStyleType="text/css" id="Layer_1" enable-background="new 0 0 1841.891 1595.279" version="1.1" xml:space="preserve" width="1841.891px" preserveAspectRatio="xMidYMid meet" viewBox="0 0 1841.891 1595.279" height="1595.279px" x="0px" y="0px"><g xmlns="http://www.w3.org/2000/svg" objecttype="PS" tooltip="#UNDEFINED" id="46">
<g onmouseover="notifyOwner(AGV_OBJECT_MOUSEOVER, '46(PS)')" transform="translate(-1.0, -3.0)" onclick="clickZoom(evt); notifyOwner(AGV_OBJECT_MOUSECLICK, '46(PS)')" onmouseout="notifyOwner(AGV_OBJECT_MOUSEOUT, '46(PS)')" tooltip="#UNDEFINED" id="46-Graphic" objecttype="GRAPHIC">
<g>
	<path orgstroke="#000000" orgfill="#ffffff" fill="#ffffff" g2gfill="#ECF5E4" stroke-linejoin="round" d="M168.792,345.982   c-0.269-1.209-1.947-2.292-4.094-2.563c-2.18-0.274-4.105,0.393-4.629,1.521l-21.438,1.478l0.012-0.012   c-0.645-0.309-1.398-0.528-2.229-0.642c-2.452-0.309-4.581,0.57-4.757,1.965l-9.121,5.065v-0.003   c-2.117-0.063-3.836,0.771-3.994,2.021c0,0-0.707,3.423-0.707,3.422c-1.889,0.071-3.358,0.872-3.508,2.022l-0.769,6.828   c-0.184,1.393,1.669,2.771,4.113,3.083l5.604,1.188l5.847,3.313l7.888,2.175l20.921,12.938l0.688,2.021l3.738,2.079l4.228,0.532   l3.224,2.552l-0.507,4.019l11.468,7.024l23.585,13.92l7.604,3.717l14.502,3.736l6.294,4.825l3.423,4.872l1.104,7.271l6.354,0.799   l5.528-0.896l2.521,1.114l2.24-0.116l1.604-1.261l0.408-0.858l10.014-4.868l3.114-0.563l2.021-1.354l0.814-4.7l5.015-8.162   l2.415-1.687l0.896-7.123c0.125-0.994-0.771-1.979-2.188-2.572l-0.004,0.002l3.49-7.806l2.584-0.646l0.832-1.188l0.877-6.979   c0.176-1.396-1.67-2.771-4.122-3.083c-1.657-0.207-3.167,0.126-4.026,0.801l0.001,0.006l-82.671-52.271l0.496-3.946   c0.176-1.396-1.669-2.771-4.123-3.082s-4.582,0.568-4.757,1.972l-17.813,8.188" outline-element="true" stroke="#000000" stroke-width="0.5" g2gstroke="#312783" stroke-miterlimit="10"/>
	<path orgstroke="#000000" orgfill="#F1E3BB" fill="#F1E3BB" d="M232.961,381.052l-0.643,7.449   c-0.563,4.463-7.375,7.271-15.219,6.29c-7.854-0.986-13.749-5.399-13.188-9.862l0.729-8.113l-0.083,0.663   c0.562-4.461,7.375-7.271,15.219-6.29C227.622,372.177,233.524,376.591,232.961,381.052z" stroke="#000000" stroke-width="0.25" g2gstroke="#312783" stroke-miterlimit="10"/>
	<path orgstroke="#000000" orgfill="none" fill="none" d="M285.819,397.486   c-0.175,1.396-2.305,2.274-4.756,1.975c-2.453-0.313-4.298-1.688-4.123-3.083c0.058-0.452,0.319-0.854,0.729-1.179" stroke="#000000" stroke-width="0.25" g2gstroke="#312783" stroke-miterlimit="10"/>
	<path orgstroke="#000000" orgfill="none" fill="none" d="M195.496,338.984   c-0.175,1.396-2.305,2.274-4.758,1.975c-2.452-0.313-4.296-1.688-4.122-3.092" stroke="#000000" stroke-width="0.25" g2gstroke="#312783" stroke-miterlimit="10"/>
	
		<ellipse orgstroke="#000000" orgfill="none" transform="matrix(-0.9922 -0.1245 0.1245 -0.9922 335.8231 711.8129)" fill="none" rx="4.474" cx="190.159" ry="2.545" cy="345.41" stroke="#000000" stroke-width="0.25" g2gstroke="#312783" stroke-miterlimit="10"/>
	
		<ellipse orgstroke="#000000" orgfill="none" transform="matrix(-0.9922 -0.1245 0.1245 -0.9922 338.7213 698.1059)" fill="none" rx="2.197" cx="191.169" ry="1.251" cy="338.471" stroke="#000000" stroke-width="0.25" g2gstroke="#312783" stroke-miterlimit="10"/>
	
		<ellipse orgstroke="#000000" orgfill="none" transform="matrix(-0.9922 -0.1244 0.1244 -0.9922 314.7271 720.5922)" fill="none" rx="2.198" cx="179.865" ry="1.249" cy="350.469" stroke="#000000" stroke-width="0.25" g2gstroke="#312783" stroke-miterlimit="10"/>
	
		<ellipse orgstroke="#000000" orgfill="none" transform="matrix(-0.9922 -0.1249 0.1249 -0.9922 511.0143 825.9031)" fill="none" rx="2.198" cx="281.388" ry="1.251" cy="396.938" stroke="#000000" stroke-width="0.25" g2gstroke="#312783" stroke-miterlimit="10"/>
	<path orgstroke="#000000" orgfill="none" fill="none" d="M168.791,345.981   c0.04,0.173,0.048,0.345,0.026,0.521c-0.175,1.394-2.304,2.271-4.757,1.967c-2.452-0.309-4.297-1.688-4.122-3.083   c0.019-0.156,0.062-0.303,0.128-0.444" stroke="#000000" stroke-width="0.25" g2gstroke="#312783" stroke-miterlimit="10"/>
	
		<ellipse orgstroke="#000000" orgfill="none" transform="matrix(-0.9922 -0.1246 0.1246 -0.9922 284.5378 709.8066)" fill="none" rx="2.195" cx="164.458" ry="1.247" cy="346.009" stroke="#000000" stroke-width="0.25" g2gstroke="#312783" stroke-miterlimit="10"/>
	
		<ellipse orgstroke="#000000" orgfill="none" transform="matrix(-0.9922 -0.1249 0.1249 -0.9922 235.4899 729.9534)" fill="none" rx="4.476" cx="140.626" ry="2.546" cy="357.595" stroke="#000000" stroke-width="0.25" g2gstroke="#312783" stroke-miterlimit="10"/>
	
		<ellipse orgstroke="#000000" orgfill="none" transform="matrix(-0.9922 -0.1244 0.1244 -0.9922 235.8465 730.0312)" fill="none" rx="2.198" cx="140.719" ry="1.251" cy="357.651" stroke="#000000" stroke-width="0.25" g2gstroke="#312783" stroke-miterlimit="10"/>
	<path orgstroke="#000000" orgfill="none" fill="none" d="M138.636,346.407   c1.233,0.604,2.009,1.521,1.893,2.44c-0.175,1.394-2.304,2.275-4.757,1.967c-2.452-0.308-4.297-1.688-4.122-3.084" stroke="#000000" stroke-width="0.25" g2gstroke="#312783" stroke-miterlimit="10"/>
	<path orgstroke="#000000" orgfill="none" fill="none" d="M136.329,347.11   c1.205,0.15,2.11,0.829,2.024,1.521c-0.086,0.684-1.131,1.106-2.336,0.965c-1.204-0.152-2.111-0.829-2.025-1.513   C134.078,347.39,135.125,346.962,136.329,347.11z" stroke="#000000" stroke-width="0.25" g2gstroke="#312783" stroke-miterlimit="10"/>
	<path orgstroke="#000000" orgfill="none" fill="none" d="M122.531,352.795   c0.25,0.006,0.505,0.021,0.764,0.059c2.452,0.313,4.306,1.688,4.122,3.081c-0.176,1.396-2.305,2.276-4.757,1.968   c-2.454-0.309-4.298-1.688-4.122-3.085" stroke="#000000" stroke-width="0.25" g2gstroke="#312783" stroke-miterlimit="10"/>
	
		<ellipse orgstroke="#000000" orgfill="none" transform="matrix(-0.9921 -0.1251 0.1251 -0.9921 200.6332 723.4719)" fill="none" rx="2.198" cx="123.028" ry="1.25" cy="355.438" stroke="#000000" stroke-width="0.25" g2gstroke="#312783" stroke-miterlimit="10"/>
	<path orgstroke="#000000" orgfill="none" fill="none" d="M117.83,358.238   c0.4-0.016,0.819,0.003,1.249,0.063c2.453,0.309,4.298,1.688,4.123,3.082c-0.175,1.396-2.305,2.271-4.757,1.966   c-2.452-0.309-4.297-1.688-4.122-3.082" stroke="#000000" stroke-width="0.25" g2gstroke="#312783" stroke-miterlimit="10"/>
	
		<ellipse orgstroke="#000000" orgfill="none" transform="matrix(-0.9921 -0.1251 0.1251 -0.9921 191.6512 733.8865)" fill="none" rx="2.198" cx="118.864" ry="1.25" cy="360.927" stroke="#000000" stroke-width="0.25" g2gstroke="#312783" stroke-miterlimit="10"/>
	<path orgstroke="#000000" orgfill="none" fill="none" d="M280.22,416.678   c-0.185,1.395-2.313,2.274-4.766,1.965c-2.446-0.309-4.298-1.687-4.122-3.082c0.184-1.395,2.312-2.271,4.766-1.966   c0.709,0.089,1.356,0.266,1.938,0.511" stroke="#000000" stroke-width="0.25" g2gstroke="#312783" stroke-miterlimit="10"/>
	
		<ellipse orgstroke="#000000" orgfill="none" transform="matrix(-0.9922 -0.1249 0.1249 -0.9922 497.6298 863.6188)" fill="none" rx="2.2" cx="275.895" ry="1.252" cy="416.205" stroke="#000000" stroke-width="0.25" g2gstroke="#312783" stroke-miterlimit="10"/>
	
		<ellipse orgstroke="#000000" orgfill="none" transform="matrix(-0.9921 -0.1251 0.1251 -0.9921 479.8595 891.1811)" fill="none" rx="4.477" cx="267.913" ry="2.542" cy="430.523" stroke="#000000" stroke-width="0.25" g2gstroke="#312783" stroke-miterlimit="10"/>
	
		<ellipse orgstroke="#000000" orgfill="none" transform="matrix(-0.9921 -0.1251 0.1251 -0.9921 480.0927 891.3951)" fill="none" rx="2.197" cx="268.035" ry="1.25" cy="430.623" stroke="#000000" stroke-width="0.25" g2gstroke="#312783" stroke-miterlimit="10"/>
	
		<ellipse orgstroke="#000000" orgfill="none" transform="matrix(-0.9922 -0.1244 0.1244 -0.9922 448.463 902.4854)" fill="none" rx="4.475" cx="252.405" ry="2.542" cy="437.243" stroke="#000000" stroke-width="0.25" g2gstroke="#312783" stroke-miterlimit="10"/>
	
		<ellipse orgstroke="#000000" orgfill="none" transform="matrix(-0.9922 -0.1244 0.1244 -0.9922 448.4987 902.7628)" fill="none" rx="2.198" cx="252.439" ry="1.249" cy="437.377" stroke="#000000" stroke-width="0.25" g2gstroke="#312783" stroke-miterlimit="10"/>
	
		<ellipse orgstroke="#000000" orgfill="none" transform="matrix(-0.9922 -0.1246 0.1246 -0.9922 427.2794 901.1584)" fill="none" rx="4.474" cx="241.826" ry="2.545" cy="437.215" stroke="#000000" stroke-width="0.25" g2gstroke="#312783" stroke-miterlimit="10"/>
	
		<ellipse orgstroke="#000000" orgfill="none" transform="matrix(-0.9921 -0.1255 0.1255 -0.9921 426.9948 901.3758)" fill="none" rx="2.198" cx="241.893" ry="1.251" cy="437.237" stroke="#000000" stroke-width="0.25" g2gstroke="#312783" stroke-miterlimit="10"/>
	
		<ellipse orgstroke="#000000" orgfill="none" transform="matrix(-0.9922 -0.1246 0.1246 -0.9922 450.0482 882.9491)" fill="none" rx="4.474" cx="252.644" ry="2.543" cy="427.396" stroke="#000000" stroke-width="0.25" g2gstroke="#312783" stroke-miterlimit="10"/>
	
		<ellipse orgstroke="#000000" orgfill="none" transform="matrix(-0.9921 -0.1253 0.1253 -0.9921 449.9995 883.2401)" fill="none" rx="2.197" cx="252.787" ry="1.25" cy="427.463" stroke="#000000" stroke-width="0.25" g2gstroke="#312783" stroke-miterlimit="10"/>
	<path orgstroke="#000000" orgfill="none" fill="none" d="M233.18,391.259   c-0.608,4.836-7.991,7.889-16.495,6.813c-8.502-1.063-14.899-5.854-14.291-10.688" stroke="#000000" stroke-width="0.25" g2gstroke="#312783" stroke-miterlimit="10"/>
	
		<line orgstroke="#000000" orgfill="none" fill="none" x1="186.114" x2="173.234" y1="346.112" y2="346.629" stroke="#000000" stroke-width="0.25" g2gstroke="#312783" stroke-miterlimit="10"/>
	
		<line orgstroke="#000000" orgfill="none" fill="none" x1="118.625" x2="120.605" y1="358.238" y2="357.338" stroke="#000000" stroke-width="0.25" g2gstroke="#312783" stroke-miterlimit="10"/>
	
	
		<line orgstroke="#000000" orgfill="none" fill="none" x1="120.482" x2="121.111" y1="369.087" y2="364.087" stroke="#000000" stroke-width="0.25" g2gstroke="#312783" stroke-miterlimit="10"/>
	
		<line orgstroke="#000000" orgfill="none" fill="none" x1="160.036" x2="158.614" y1="376.739" y2="388.051" stroke="#000000" stroke-width="0.25" g2gstroke="#312783" stroke-miterlimit="10"/>
	
		<line orgstroke="#000000" orgfill="none" fill="none" x1="158.614" x2="162.788" y1="388.051" y2="390.4" stroke="#000000" stroke-width="0.25" g2gstroke="#312783" stroke-miterlimit="10"/>
	
		<line orgstroke="#000000" orgfill="none" fill="none" x1="162.788" x2="162.549" y1="390.4" y2="392.303" stroke="#000000" stroke-width="0.25" g2gstroke="#312783" stroke-miterlimit="10"/>
	
		<line orgstroke="#000000" orgfill="none" fill="none" x1="164.135" x2="165.882" y1="392.504" y2="378.607" stroke="#000000" stroke-width="0.25" g2gstroke="#312783" stroke-miterlimit="10"/>
	
		<line orgstroke="#000000" orgfill="none" fill="none" x1="165.882" x2="164.211" y1="378.607" y2="379.091" stroke="#000000" stroke-width="0.25" g2gstroke="#312783" stroke-miterlimit="10"/>
	
		<line orgstroke="#000000" orgfill="none" fill="none" x1="164.211" x2="163.38" y1="379.091" y2="385.695" stroke="#000000" stroke-width="0.25" g2gstroke="#312783" stroke-miterlimit="10"/>
	
		<line orgstroke="#000000" orgfill="none" fill="none" x1="164.211" x2="160.036" y1="379.091" y2="376.739" stroke="#000000" stroke-width="0.25" g2gstroke="#312783" stroke-miterlimit="10"/>
	
		<line orgstroke="#000000" orgfill="none" fill="none" x1="174.564" x2="173.141" y1="387.004" y2="398.305" stroke="#000000" stroke-width="0.25" g2gstroke="#312783" stroke-miterlimit="10"/>
	
		<line orgstroke="#000000" orgfill="none" fill="none" x1="173.141" x2="177.315" y1="398.305" y2="400.655" stroke="#000000" stroke-width="0.25" g2gstroke="#312783" stroke-miterlimit="10"/>
	
		<line orgstroke="#000000" orgfill="none" fill="none" x1="178.66" x2="180.416" y1="402.757" y2="388.796" stroke="#000000" stroke-width="0.25" g2gstroke="#312783" stroke-miterlimit="10"/>
	
		<line orgstroke="#000000" orgfill="none" fill="none" x1="180.416" x2="178.738" y1="388.796" y2="389.345" stroke="#000000" stroke-width="0.25" g2gstroke="#312783" stroke-miterlimit="10"/>
	
		<line orgstroke="#000000" orgfill="none" fill="none" x1="178.738" x2="177.54" y1="389.345" y2="398.857" stroke="#000000" stroke-width="0.25" g2gstroke="#312783" stroke-miterlimit="10"/>
	
		<line orgstroke="#000000" orgfill="none" fill="none" x1="178.738" x2="174.564" y1="389.345" y2="387.004" stroke="#000000" stroke-width="0.25" g2gstroke="#312783" stroke-miterlimit="10"/>
	
		<line orgstroke="#000000" orgfill="none" fill="none" x1="160.036" x2="161.73" y1="376.739" y2="376.143" stroke="#000000" stroke-width="0.25" g2gstroke="#312783" stroke-miterlimit="10"/>
	
		<line orgstroke="#000000" orgfill="none" fill="none" x1="174.564" x2="176.337" y1="387.004" y2="386.42" stroke="#000000" stroke-width="0.25" g2gstroke="#312783" stroke-miterlimit="10"/>
	
		<ellipse orgstroke="#000000" orgfill="none" transform="matrix(0.2003 0.9797 -0.9797 0.2003 503.3521 146.947)" fill="none" rx="1.519" cx="161.666" ry="1.036" cy="381.795" stroke="#000000" stroke-width="0.25" g2gstroke="#312783" stroke-miterlimit="10"/>
	<path orgstroke="#000000" orgfill="none" fill="none" d="M175.537,391.42   c-0.169-0.821,0.149-1.583,0.71-1.697c0.563-0.115,1.153,0.458,1.321,1.28c0.169,0.813-0.149,1.581-0.709,1.688   C176.297,392.811,175.706,392.237,175.537,391.42z" stroke="#000000" stroke-width="0.25" g2gstroke="#312783" stroke-miterlimit="10"/>
	
		<line orgstroke="#000000" orgfill="none" fill="none" x1="122.039" x2="127.193" y1="362.824" y2="365.094" stroke="#000000" stroke-width="0.25" g2gstroke="#312783" stroke-miterlimit="10"/>
	
		<line orgstroke="#000000" orgfill="none" fill="none" x1="127.193" x2="145.862" y1="365.094" y2="368.589" stroke="#000000" stroke-width="0.25" g2gstroke="#312783" stroke-miterlimit="10"/>
	
		<line orgstroke="#000000" orgfill="none" fill="none" x1="145.862" x2="157.738" y1="368.589" y2="373.767" stroke="#000000" stroke-width="0.25" g2gstroke="#312783" stroke-miterlimit="10"/>
	
		<line orgstroke="#000000" orgfill="none" fill="none" x1="157.738" x2="166.485" y1="373.767" y2="378.088" stroke="#000000" stroke-width="0.25" g2gstroke="#312783" stroke-miterlimit="10"/>
	
		<line orgstroke="#000000" orgfill="none" fill="none" x1="166.485" x2="174.74" y1="378.088" y2="380.42" stroke="#000000" stroke-width="0.25" g2gstroke="#312783" stroke-miterlimit="10"/>
	
		<line orgstroke="#000000" orgfill="none" fill="none" x1="174.74" x2="183.847" y1="380.42" y2="387.362" stroke="#000000" stroke-width="0.25" g2gstroke="#312783" stroke-miterlimit="10"/>
	
		<line orgstroke="#000000" orgfill="none" fill="none" x1="146.551" x2="154.309" y1="363.107" y2="371.492" stroke="#000000" stroke-width="0.25" g2gstroke="#312783" stroke-miterlimit="10"/>
	
		<line orgstroke="#000000" orgfill="none" fill="none" x1="158.489" x2="174.849" y1="372.018" y2="364.734" stroke="#000000" stroke-width="0.25" g2gstroke="#312783" stroke-miterlimit="10"/>
	
		<line orgstroke="#000000" orgfill="none" fill="none" x1="174.384" x2="182.897" y1="364.677" y2="356.275" stroke="#000000" stroke-width="0.25" g2gstroke="#312783" stroke-miterlimit="10"/>
	
		<line orgstroke="#000000" orgfill="none" fill="none" x1="182.897" x2="185.844" y1="356.275" y2="354.599" stroke="#000000" stroke-width="0.25" g2gstroke="#312783" stroke-miterlimit="10"/>
	
		<line orgstroke="#000000" orgfill="none" fill="none" x1="185.844" x2="192.482" y1="354.599" y2="356.693" stroke="#000000" stroke-width="0.25" g2gstroke="#312783" stroke-miterlimit="10"/>
	
		<line orgstroke="#000000" orgfill="none" fill="none" x1="187.857" x2="181.912" y1="355.482" y2="364.099" stroke="#000000" stroke-width="0.25" g2gstroke="#312783" stroke-miterlimit="10"/>
	
		<line orgstroke="#000000" orgfill="none" fill="none" x1="181.912" x2="160.448" y1="364.099" y2="373.466" stroke="#000000" stroke-width="0.25" g2gstroke="#312783" stroke-miterlimit="10"/>
	
		<line orgstroke="#000000" orgfill="none" fill="none" x1="122.885" x2="136.651" y1="362.13" y2="358.407" stroke="#000000" stroke-width="0.25" g2gstroke="#312783" stroke-miterlimit="10"/>
	
		<line orgstroke="#000000" orgfill="none" fill="none" x1="122.824" x2="136.183" y1="360.129" y2="357.033" stroke="#000000" stroke-width="0.25" g2gstroke="#312783" stroke-miterlimit="10"/>
	
		<line orgstroke="#000000" orgfill="none" fill="none" x1="137.977" x2="137.004" y1="355.315" y2="350.504" stroke="#000000" stroke-width="0.25" g2gstroke="#312783" stroke-miterlimit="10"/>
	
		<line orgstroke="#000000" orgfill="none" fill="none" x1="139.765" x2="138.568" y1="354.922" y2="350.628" stroke="#000000" stroke-width="0.25" g2gstroke="#312783" stroke-miterlimit="10"/>
	
		<line orgstroke="#000000" orgfill="none" fill="none" x1="125.907" x2="133.108" y1="353.7" y2="349.933" stroke="#000000" stroke-width="0.25" g2gstroke="#312783" stroke-miterlimit="10"/>
	
		<line orgstroke="#000000" orgfill="none" fill="none" x1="143.164" x2="160.407" y1="355.714" y2="346.758" stroke="#000000" stroke-width="0.25" g2gstroke="#312783" stroke-miterlimit="10"/>
	
		<line orgstroke="#000000" orgfill="none" fill="none" x1="144.77" x2="161.491" y1="356.17" y2="348.143" stroke="#000000" stroke-width="0.25" g2gstroke="#312783" stroke-miterlimit="10"/>
	
		<line orgstroke="#000000" orgfill="none" fill="none" x1="142.623" x2="156.904" y1="347.902" y2="346.637" stroke="#000000" stroke-width="0.25" g2gstroke="#312783" stroke-miterlimit="10"/>
	
		<line orgstroke="#000000" orgfill="none" fill="none" x1="171.565" x2="181.759" y1="354.771" y2="355.004" stroke="#000000" stroke-width="0.25" g2gstroke="#312783" stroke-miterlimit="10"/>
	
		<line orgstroke="#000000" orgfill="none" fill="none" x1="171.899" x2="174.384" y1="357.235" y2="364.677" stroke="#000000" stroke-width="0.25" g2gstroke="#312783" stroke-miterlimit="10"/>
	
		<ellipse orgstroke="#000000" orgfill="none" transform="matrix(-0.9922 -0.1247 0.1247 -0.9922 219.4833 723.6683)" fill="none" rx="1.918" cx="132.395" ry="0.983" cy="354.964" stroke="#000000" stroke-width="0.25" g2gstroke="#312783" stroke-miterlimit="10"/>
	
		<line orgstroke="#000000" orgfill="none" fill="none" x1="193.525" x2="207.161" y1="348.399" y2="356.777" stroke="#000000" stroke-width="0.25" g2gstroke="#312783" stroke-miterlimit="10"/>
	
		<line orgstroke="#000000" orgfill="none" fill="none" x1="192.482" x2="203.504" y1="356.693" y2="363.602" stroke="#000000" stroke-width="0.25" g2gstroke="#312783" stroke-miterlimit="10"/>
	
		<line orgstroke="#000000" orgfill="none" fill="none" x1="184.526" x2="201.989" y1="365.087" y2="375.648" stroke="#000000" stroke-width="0.25" g2gstroke="#312783" stroke-miterlimit="10"/>
	<path orgstroke="#000000" orgfill="none" fill="none" d="M179.049,372.504   c-1.065-0.604-1.716-1.443-1.604-2.293c0.175-1.396,2.305-2.274,4.757-1.976c0.876,0.11,1.675,0.356,2.332,0.694" stroke="#000000" stroke-width="0.25" g2gstroke="#312783" stroke-miterlimit="10"/>
	<path orgstroke="#000000" orgfill="none" fill="none" d="M191.973,374.385   c0.771,0.565,1.218,1.271,1.128,1.986c-0.176,1.396-2.313,2.271-4.757,1.968c-1.102-0.146-2.064-0.486-2.79-0.954" stroke="#000000" stroke-width="0.25" g2gstroke="#312783" stroke-miterlimit="10"/>
	
		<line orgstroke="#000000" orgfill="none" fill="none" x1="184.526" x2="191.975" y1="368.93" y2="374.388" stroke="#000000" stroke-width="0.25" g2gstroke="#312783" stroke-miterlimit="10"/>
	
		<line orgstroke="#000000" orgfill="none" fill="none" x1="185.557" x2="179.052" y1="377.382" y2="372.502" stroke="#000000" stroke-width="0.25" g2gstroke="#312783" stroke-miterlimit="10"/>
	<path orgstroke="#000000" orgfill="none" fill="none" d="M178.262,371.938   c0.72-0.919,2.465-1.427,4.417-1.181c0.877,0.111,1.675,0.354,2.333,0.688" stroke="#000000" stroke-width="0.25" g2gstroke="#312783" stroke-miterlimit="10"/>
	
		<line orgstroke="#000000" orgfill="none" fill="none" x1="185.007" x2="192.457" y1="371.45" y2="376.908" stroke="#000000" stroke-width="0.25" g2gstroke="#312783" stroke-miterlimit="10"/>
	
		<line orgstroke="#000000" orgfill="none" fill="none" x1="196.405" x2="207.919" y1="345.339" y2="353.053" stroke="#000000" stroke-width="0.25" g2gstroke="#312783" stroke-miterlimit="10"/>
	
		<line orgstroke="#000000" orgfill="none" fill="none" x1="183.847" x2="189.559" y1="387.362" y2="386.196" stroke="#000000" stroke-width="0.25" g2gstroke="#312783" stroke-miterlimit="10"/>
	
		<line orgstroke="#000000" orgfill="none" fill="none" x1="189.559" x2="202.342" y1="386.196" y2="387.805" stroke="#000000" stroke-width="0.25" g2gstroke="#312783" stroke-miterlimit="10"/>
	
		<line orgstroke="#000000" orgfill="none" fill="none" x1="200.358" x2="213.725" y1="397.058" y2="403.897" stroke="#000000" stroke-width="0.25" g2gstroke="#312783" stroke-miterlimit="10"/>
	
		<line orgstroke="#000000" orgfill="none" fill="none" x1="213.725" x2="212.791" y1="403.897" y2="411.317" stroke="#000000" stroke-width="0.25" g2gstroke="#312783" stroke-miterlimit="10"/>
	
		<line orgstroke="#000000" orgfill="none" fill="none" x1="212.791" x2="199.456" y1="411.317" y2="404.225" stroke="#000000" stroke-width="0.25" g2gstroke="#312783" stroke-miterlimit="10"/>
	
		<line orgstroke="#000000" orgfill="none" fill="none" x1="199.456" x2="200.358" y1="404.225" y2="397.058" stroke="#000000" stroke-width="0.25" g2gstroke="#312783" stroke-miterlimit="10"/>
	
		<line orgstroke="#000000" orgfill="none" fill="none" x1="190.332" x2="206.28" y1="408.071" y2="417.506" stroke="#000000" stroke-width="0.25" g2gstroke="#312783" stroke-miterlimit="10"/>
	
		<line orgstroke="#000000" orgfill="none" fill="none" x1="179.61" x2="186.219" y1="401.73" y2="405.639" stroke="#000000" stroke-width="0.25" g2gstroke="#312783" stroke-miterlimit="10"/>
	
		<line orgstroke="#000000" orgfill="none" fill="none" x1="206.28" x2="205.871" y1="417.506" y2="420.754" stroke="#000000" stroke-width="0.25" g2gstroke="#312783" stroke-miterlimit="10"/>
	
		<line orgstroke="#000000" orgfill="none" fill="none" x1="205.871" x2="209.847" y1="420.754" y2="418.697" stroke="#000000" stroke-width="0.25" g2gstroke="#312783" stroke-miterlimit="10"/>
	
		<line orgstroke="#000000" orgfill="none" fill="none" x1="209.847" x2="226.682" y1="418.697" y2="427.505" stroke="#000000" stroke-width="0.25" g2gstroke="#312783" stroke-miterlimit="10"/>
	
		<line orgstroke="#000000" orgfill="none" fill="none" x1="226.682" x2="229.818" y1="427.505" y2="427.899" stroke="#000000" stroke-width="0.25" g2gstroke="#312783" stroke-miterlimit="10"/>
	
		<line orgstroke="#000000" orgfill="none" fill="none" x1="229.818" x2="234.492" y1="427.899" y2="430.398" stroke="#000000" stroke-width="0.25" g2gstroke="#312783" stroke-miterlimit="10"/>
	
		<line orgstroke="#000000" orgfill="none" fill="none" x1="234.492" x2="238.042" y1="430.398" y2="435.55" stroke="#000000" stroke-width="0.25" g2gstroke="#312783" stroke-miterlimit="10"/>
	
		<line orgstroke="#000000" orgfill="none" fill="none" x1="209.847" x2="210.253" y1="418.697" y2="415.462" stroke="#000000" stroke-width="0.25" g2gstroke="#312783" stroke-miterlimit="10"/>
	
		<line orgstroke="#000000" orgfill="none" fill="none" x1="206.28" x2="210.253" y1="417.506" y2="415.462" stroke="#000000" stroke-width="0.25" g2gstroke="#312783" stroke-miterlimit="10"/>
	
		<line orgstroke="#000000" orgfill="none" fill="none" x1="210.253" x2="227.101" y1="415.462" y2="424.174" stroke="#000000" stroke-width="0.25" g2gstroke="#312783" stroke-miterlimit="10"/>
	
		<line orgstroke="#000000" orgfill="none" fill="none" x1="227.101" x2="226.682" y1="424.174" y2="427.505" stroke="#000000" stroke-width="0.25" g2gstroke="#312783" stroke-miterlimit="10"/>
	
		<line orgstroke="#000000" orgfill="none" fill="none" x1="206.859" x2="214.577" y1="412.907" y2="414.837" stroke="#000000" stroke-width="0.25" g2gstroke="#312783" stroke-miterlimit="10"/>
	
		<line orgstroke="#000000" orgfill="none" fill="none" x1="214.577" x2="223.63" y1="414.837" y2="419.687" stroke="#000000" stroke-width="0.25" g2gstroke="#312783" stroke-miterlimit="10"/>
	
		<line orgstroke="#000000" orgfill="none" fill="none" x1="223.63" x2="229.713" y1="419.687" y2="424.504" stroke="#000000" stroke-width="0.25" g2gstroke="#312783" stroke-miterlimit="10"/>
	
		<line orgstroke="#000000" orgfill="none" fill="none" x1="229.713" x2="229.397" y1="424.504" y2="427.026" stroke="#000000" stroke-width="0.25" g2gstroke="#312783" stroke-miterlimit="10"/>
	
		<line orgstroke="#000000" orgfill="none" fill="none" x1="237.054" x2="237.812" y1="434.111" y2="428.087" stroke="#000000" stroke-width="0.25" g2gstroke="#312783" stroke-miterlimit="10"/>
	
		<line orgstroke="#000000" orgfill="none" fill="none" x1="237.812" x2="227.381" y1="428.087" y2="416.443" stroke="#000000" stroke-width="0.25" g2gstroke="#312783" stroke-miterlimit="10"/>
	
		<line orgstroke="#000000" orgfill="none" fill="none" x1="227.381" x2="222.772" y1="416.443" y2="413.847" stroke="#000000" stroke-width="0.25" g2gstroke="#312783" stroke-miterlimit="10"/>
	
		<line orgstroke="#000000" orgfill="none" fill="none" x1="222.772" x2="215.165" y1="413.847" y2="407.845" stroke="#000000" stroke-width="0.25" g2gstroke="#312783" stroke-miterlimit="10"/>
	
		<line orgstroke="#000000" orgfill="none" fill="none" x1="215.165" x2="214.291" y1="407.845" y2="414.799" stroke="#000000" stroke-width="0.25" g2gstroke="#312783" stroke-miterlimit="10"/>
	
		<line orgstroke="#000000" orgfill="none" fill="none" x1="215.165" x2="216.91" y1="407.845" y2="406.421" stroke="#000000" stroke-width="0.25" g2gstroke="#312783" stroke-miterlimit="10"/>
	
		<line orgstroke="#000000" orgfill="none" fill="none" x1="216.91" x2="221.301" y1="406.421" y2="406.973" stroke="#000000" stroke-width="0.25" g2gstroke="#312783" stroke-miterlimit="10"/>
	
		<line orgstroke="#000000" orgfill="none" fill="none" x1="221.301" x2="223.697" y1="406.973" y2="406.489" stroke="#000000" stroke-width="0.25" g2gstroke="#312783" stroke-miterlimit="10"/>
	
		<line orgstroke="#000000" orgfill="none" fill="none" x1="224.699" x2="225.666" y1="405.277" y2="399.274" stroke="#000000" stroke-width="0.25" g2gstroke="#312783" stroke-miterlimit="10"/>
	
		<line orgstroke="#000000" orgfill="none" fill="none" x1="217.815" x2="223.084" y1="407.682" y2="411.362" stroke="#000000" stroke-width="0.25" g2gstroke="#312783" stroke-miterlimit="10"/>
	
		<line orgstroke="#000000" orgfill="none" fill="none" x1="223.084" x2="229.754" y1="411.362" y2="415.732" stroke="#000000" stroke-width="0.25" g2gstroke="#312783" stroke-miterlimit="10"/>
	
		<line orgstroke="#000000" orgfill="none" fill="none" x1="229.754" x2="240.786" y1="415.732" y2="428.462" stroke="#000000" stroke-width="0.25" g2gstroke="#312783" stroke-miterlimit="10"/>
	
		<line orgstroke="#000000" orgfill="none" fill="none" x1="240.786" x2="239.949" y1="428.462" y2="435.127" stroke="#000000" stroke-width="0.25" g2gstroke="#312783" stroke-miterlimit="10"/>
	
		<line orgstroke="#000000" orgfill="none" fill="none" x1="237.812" x2="240.786" y1="428.087" y2="428.462" stroke="#000000" stroke-width="0.25" g2gstroke="#312783" stroke-miterlimit="10"/>
	
		<line orgstroke="#000000" orgfill="none" fill="none" x1="228.295" x2="232.206" y1="398.64" y2="408.9" stroke="#000000" stroke-width="0.25" g2gstroke="#312783" stroke-miterlimit="10"/>
	
		<line orgstroke="#000000" orgfill="none" fill="none" x1="232.206" x2="231.941" y1="408.9" y2="411.016" stroke="#000000" stroke-width="0.25" g2gstroke="#312783" stroke-miterlimit="10"/>
	
		<line orgstroke="#000000" orgfill="none" fill="none" x1="231.941" x2="240.993" y1="411.016" y2="422.614" stroke="#000000" stroke-width="0.25" g2gstroke="#312783" stroke-miterlimit="10"/>
	
		<line orgstroke="#000000" orgfill="none" fill="none" x1="240.993" x2="246.427" y1="422.614" y2="425.847" stroke="#000000" stroke-width="0.25" g2gstroke="#312783" stroke-miterlimit="10"/>
	
		<line orgstroke="#000000" orgfill="none" fill="none" x1="246.427" x2="249.447" y1="425.847" y2="424.951" stroke="#000000" stroke-width="0.25" g2gstroke="#312783" stroke-miterlimit="10"/>
	
		<line orgstroke="#000000" orgfill="none" fill="none" x1="227.101" x2="230.906" y1="399.064" y2="409.337" stroke="#000000" stroke-width="0.25" g2gstroke="#312783" stroke-miterlimit="10"/>
	
		<line orgstroke="#000000" orgfill="none" fill="none" x1="230.906" x2="230.635" y1="409.337" y2="411.504" stroke="#000000" stroke-width="0.25" g2gstroke="#312783" stroke-miterlimit="10"/>
	
		<line orgstroke="#000000" orgfill="none" fill="none" x1="230.635" x2="240.104" y1="411.504" y2="423.775" stroke="#000000" stroke-width="0.25" g2gstroke="#312783" stroke-miterlimit="10"/>
	
		<line orgstroke="#000000" orgfill="none" fill="none" x1="240.104" x2="246.255" y1="423.775" y2="427.212" stroke="#000000" stroke-width="0.25" g2gstroke="#312783" stroke-miterlimit="10"/>
	
		<line orgstroke="#000000" orgfill="none" fill="none" x1="246.255" x2="248.198" y1="427.212" y2="426.826" stroke="#000000" stroke-width="0.25" g2gstroke="#312783" stroke-miterlimit="10"/>
	
		<line orgstroke="#000000" orgfill="none" fill="none" x1="246.255" x2="245.795" y1="427.212" y2="430.863" stroke="#000000" stroke-width="0.25" g2gstroke="#312783" stroke-miterlimit="10"/>
	
		<line orgstroke="#000000" orgfill="none" fill="none" x1="240.104" x2="239.643" y1="423.775" y2="427.441" stroke="#000000" stroke-width="0.25" g2gstroke="#312783" stroke-miterlimit="10"/>
	
		<line orgstroke="#000000" orgfill="none" fill="none" x1="227.773" x2="227.101" y1="398.573" y2="399.064" stroke="#000000" stroke-width="0.25" g2gstroke="#312783" stroke-miterlimit="10"/>
	
		<line orgstroke="#000000" orgfill="none" fill="none" x1="233.18" x2="231.95" y1="391.259" y2="401.031" stroke="#000000" stroke-width="0.25" g2gstroke="#312783" stroke-miterlimit="10"/>
	
		<line orgstroke="#000000" orgfill="none" fill="none" x1="190.478" x2="191.409" y1="408.045" y2="401.516" stroke="#000000" stroke-width="0.25" g2gstroke="#312783" stroke-miterlimit="10"/>
	
		<line orgstroke="#000000" orgfill="none" fill="none" x1="191.409" x2="187.036" y1="401.516" y2="399.14" stroke="#000000" stroke-width="0.25" g2gstroke="#312783" stroke-miterlimit="10"/>
	
		<line orgstroke="#000000" orgfill="none" fill="none" x1="187.036" x2="186.219" y1="399.14" y2="405.639" stroke="#000000" stroke-width="0.25" g2gstroke="#312783" stroke-miterlimit="10"/>
	<path orgstroke="#000000" orgfill="none" fill="none" d="M187.036,399.14c0,0-0.298,3.483,4.373,2.376" stroke="#000000" stroke-width="0.25" g2gstroke="#312783" stroke-miterlimit="10"/>
	<path orgstroke="#000000" orgfill="none" fill="none" d="M186.219,405.639c0,0-0.563,3.542,4.104,2.433" stroke="#000000" stroke-width="0.25" g2gstroke="#312783" stroke-miterlimit="10"/>
	
		<line orgstroke="#000000" orgfill="none" fill="none" x1="205.871" x2="179.196" y1="420.754" y2="405.025" stroke="#000000" stroke-width="0.25" g2gstroke="#312783" stroke-miterlimit="10"/>
	
		<line orgstroke="#000000" orgfill="none" fill="none" x1="227.101" x2="229.713" y1="424.174" y2="424.504" stroke="#000000" stroke-width="0.25" g2gstroke="#312783" stroke-miterlimit="10"/>
	
		<line orgstroke="#000000" orgfill="none" fill="none" x1="206.859" x2="207.199" y1="412.907" y2="410.192" stroke="#000000" stroke-width="0.25" g2gstroke="#312783" stroke-miterlimit="10"/>
	
		<line orgstroke="#000000" orgfill="none" fill="none" x1="260.648" x2="275.747" y1="390.089" y2="399.488" stroke="#000000" stroke-width="0.25" g2gstroke="#312783" stroke-miterlimit="10"/>
	
		<line orgstroke="#000000" orgfill="none" fill="none" x1="235.973" x2="256.536" y1="374.735" y2="387.531" stroke="#000000" stroke-width="0.25" g2gstroke="#312783" stroke-miterlimit="10"/>
	
		<line orgstroke="#000000" orgfill="none" fill="none" x1="237.376" x2="256.536" y1="397.344" y2="387.531" stroke="#000000" stroke-width="0.25" g2gstroke="#312783" stroke-miterlimit="10"/>
	
		<line orgstroke="#000000" orgfill="none" fill="none" x1="231.496" x2="235.131" y1="401.885" y2="402.13" stroke="#000000" stroke-width="0.25" g2gstroke="#312783" stroke-miterlimit="10"/>
	
		<line orgstroke="#000000" orgfill="none" fill="none" x1="235.131" x2="260.648" y1="402.13" y2="390.09" stroke="#000000" stroke-width="0.25" g2gstroke="#312783" stroke-miterlimit="10"/>
	
		<line orgstroke="#000000" orgfill="none" fill="none" x1="234.985" x2="240.734" y1="382.594" y2="386.695" stroke="#000000" stroke-width="0.25" g2gstroke="#312783" stroke-miterlimit="10"/>
	
		<line orgstroke="#000000" orgfill="none" fill="none" x1="240.734" x2="234.088" y1="386.695" y2="389.72" stroke="#000000" stroke-width="0.25" g2gstroke="#312783" stroke-miterlimit="10"/>
	
		<line orgstroke="#000000" orgfill="none" fill="none" x1="266.638" x2="274.699" y1="389.728" y2="394.836" stroke="#000000" stroke-width="0.25" g2gstroke="#312783" stroke-miterlimit="10"/>
	
		<line orgstroke="#000000" orgfill="none" fill="none" x1="246.205" x2="262.895" y1="376.806" y2="387.359" stroke="#000000" stroke-width="0.25" g2gstroke="#312783" stroke-miterlimit="10"/>
	
		<line orgstroke="#000000" orgfill="none" fill="none" x1="236.486" x2="243.263" y1="370.658" y2="374.944" stroke="#000000" stroke-width="0.25" g2gstroke="#312783" stroke-miterlimit="10"/>
	
		<line orgstroke="#000000" orgfill="none" fill="none" x1="276.939" x2="276.202" y1="396.378" y2="402.226" stroke="#000000" stroke-width="0.25" g2gstroke="#312783" stroke-miterlimit="10"/>
	
		<line orgstroke="#000000" orgfill="none" fill="none" x1="274.565" x2="279.851" y1="413.402" y2="402.093" stroke="#000000" stroke-width="0.25" g2gstroke="#312783" stroke-miterlimit="10"/>
	
		<line orgstroke="#000000" orgfill="none" fill="none" x1="281.698" x2="281.063" y1="401.19" y2="406.252" stroke="#000000" stroke-width="0.25" g2gstroke="#312783" stroke-miterlimit="10"/>
	
		<line orgstroke="#000000" orgfill="none" fill="none" x1="271.607" x2="254.459" y1="416.649" y2="425.212" stroke="#000000" stroke-width="0.25" g2gstroke="#312783" stroke-miterlimit="10"/>
	
		<line orgstroke="#000000" orgfill="none" fill="none" x1="256.529" x2="273.408" y1="426.48" y2="418.087" stroke="#000000" stroke-width="0.25" g2gstroke="#312783" stroke-miterlimit="10"/>
	
		<line orgstroke="#000000" orgfill="none" fill="none" x1="242.923" x2="248.947" y1="434.85" y2="428.925" stroke="#000000" stroke-width="0.25" g2gstroke="#312783" stroke-miterlimit="10"/>
	
		<line orgstroke="#000000" orgfill="none" fill="none" x1="245.053" x2="250.718" y1="435.76" y2="429.712" stroke="#000000" stroke-width="0.25" g2gstroke="#312783" stroke-miterlimit="10"/>
	
		<line orgstroke="#000000" orgfill="none" fill="none" x1="269.733" x2="275.463" y1="428.342" y2="418.642" stroke="#000000" stroke-width="0.25" g2gstroke="#312783" stroke-miterlimit="10"/>
	
		<line orgstroke="#000000" orgfill="none" fill="none" x1="277.469" x2="271.086" y1="418.594" y2="429.004" stroke="#000000" stroke-width="0.25" g2gstroke="#312783" stroke-miterlimit="10"/>
	
		<line orgstroke="#000000" orgfill="none" fill="none" x1="257.002" x2="265.284" y1="436.586" y2="432.359" stroke="#000000" stroke-width="0.25" g2gstroke="#312783" stroke-miterlimit="10"/>
	
		<line orgstroke="#000000" orgfill="none" fill="none" x1="256.848" x2="266.867" y1="437.81" y2="432.92" stroke="#000000" stroke-width="0.25" g2gstroke="#312783" stroke-miterlimit="10"/>
	
		<line orgstroke="#000000" orgfill="none" fill="none" x1="271.895" x2="272.341" y1="433.649" y2="431.073" stroke="#000000" stroke-width="0.25" g2gstroke="#312783" stroke-miterlimit="10"/>
	
		<line orgstroke="#000000" orgfill="none" fill="none" x1="244.566" x2="243.859" y1="440.642" y2="445.259" stroke="#000000" stroke-width="0.25" g2gstroke="#312783" stroke-miterlimit="10"/>
	
		<line orgstroke="#000000" orgfill="none" fill="none" x1="249.836" x2="249.282" y1="440.805" y2="445.212" stroke="#000000" stroke-width="0.25" g2gstroke="#312783" stroke-miterlimit="10"/>
	
		<line orgstroke="#000000" orgfill="none" fill="none" x1="256.229" x2="255.721" y1="440.357" y2="444.397" stroke="#000000" stroke-width="0.25" g2gstroke="#312783" stroke-miterlimit="10"/>
	
		<line orgstroke="#000000" orgfill="none" fill="none" x1="266.593" x2="266.061" y1="435.087" y2="439.322" stroke="#000000" stroke-width="0.25" g2gstroke="#312783" stroke-miterlimit="10"/>
	
		<line orgstroke="#000000" orgfill="none" fill="none" x1="249.518" x2="267.414" y1="424.394" y2="415.429" stroke="#000000" stroke-width="0.25" g2gstroke="#312783" stroke-miterlimit="10"/>
	<path orgstroke="#000000" orgfill="none" fill="none" d="M267.414,415.429c0,0-2.245-6.543-17.077-9.133   c-7.671-1.34-18.131,2.604-18.131,2.604" stroke="#000000" stroke-width="0.25" g2gstroke="#312783" stroke-miterlimit="10"/>
	<path orgstroke="#000000" orgfill="none" fill="none" d="M267.414,415.429c0,0-1.559-2.032-11.437-3.972   c-7.646-1.501-20.229,4.438-20.229,4.438" stroke="#000000" stroke-width="0.25" g2gstroke="#312783" stroke-miterlimit="10"/>
	
		<ellipse orgstroke="#000000" orgfill="none" transform="matrix(-0.9921 -0.1256 0.1256 -0.9921 473.9304 881.511)" fill="none" rx="1.684" cx="264.748" ry="1.001" cy="425.819" stroke="#000000" stroke-width="0.25" g2gstroke="#312783" stroke-miterlimit="10"/>
	
		<ellipse orgstroke="#000000" orgfill="none" transform="matrix(-0.9923 -0.1239 0.1239 -0.9923 457.1811 893.8586)" fill="none" rx="1.715" cx="256.376" ry="1.11" cy="432.718" stroke="#000000" stroke-width="0.25" g2gstroke="#312783" stroke-miterlimit="10"/>
	
		<line orgstroke="#000000" orgfill="none" fill="none" x1="202.342" x2="203.73" y1="387.805" y2="384.061" stroke="#000000" stroke-width="0.25" g2gstroke="#312783" stroke-miterlimit="10"/>
	
		<line orgstroke="#000000" orgfill="none" fill="none" x1="233.18" x2="232.32" y1="391.259" y2="388.504" stroke="#000000" stroke-width="0.25" g2gstroke="#312783" stroke-miterlimit="10"/>
	
		<line orgstroke="#000000" orgfill="none" fill="none" x1="209.361" x2="234.025" y1="357.557" y2="373.783" stroke="#000000" stroke-width="0.25" g2gstroke="#312783" stroke-miterlimit="10"/>
	
		<line orgstroke="#000000" orgfill="none" fill="none" x1="205.26" x2="212.694" y1="364.597" y2="369.802" stroke="#000000" stroke-width="0.25" g2gstroke="#312783" stroke-miterlimit="10"/>
	<path orgstroke="#000000" orgfill="none" fill="none" d="M232.961,381.052   c-0.561,4.463-7.373,7.278-15.217,6.291c-7.845-0.987-13.748-5.401-13.187-9.864" stroke="#000000" stroke-width="0.25" g2gstroke="#312783" stroke-miterlimit="10"/>
	
		<ellipse orgstroke="#000000" orgfill="none" transform="matrix(-0.9922 -0.1248 0.1248 -0.9922 388.9913 783.316)" fill="none" rx="7.035" cx="219.03" ry="3.999" cy="379.474" stroke="#000000" stroke-width="0.25" g2gstroke="#312783" stroke-miterlimit="10"/>
	
		<line orgstroke="#000000" orgfill="none" fill="none" x1="213.152" x2="205.806" y1="376.336" y2="375.402" stroke="#000000" stroke-width="0.25" g2gstroke="#312783" stroke-miterlimit="10"/>
	
		<line orgstroke="#000000" orgfill="none" fill="none" x1="211.426" x2="205.339" y1="379.879" y2="379.11" stroke="#000000" stroke-width="0.25" g2gstroke="#312783" stroke-miterlimit="10"/>
	
		<line orgstroke="#000000" orgfill="none" fill="none" x1="225.438" x2="232.208" y1="377.879" y2="378.724" stroke="#000000" stroke-width="0.25" g2gstroke="#312783" stroke-miterlimit="10"/>
	
		<line orgstroke="#000000" orgfill="none" fill="none" x1="226.384" x2="232.025" y1="381.759" y2="382.469" stroke="#000000" stroke-width="0.25" g2gstroke="#312783" stroke-miterlimit="10"/>
</g>
</g>
</g></svg>