<svg xmlns="http://www.w3.org/2000/svg" xmlns:xlink="http://www.w3.org/1999/xlink" xmlns:etg="http://www.eurotaxglass.com/etg/evd/" etg:dataTimestamp="1539068912893" contentScriptType="text/ecmascript" zoomAndPan="magnify" contentStyleType="text/css" id="Layer_1" enable-background="new 0 0 1841.891 1595.279" version="1.1" xml:space="preserve" width="1841.891px" preserveAspectRatio="xMidYMid meet" viewBox="0 0 1841.891 1595.279" height="1595.279px" x="0px" y="0px"><g xmlns="http://www.w3.org/2000/svg" objecttype="PS" tooltip="#UNDEFINED" id="51">
<g onmouseover="notifyOwner(AGV_OBJECT_MOUSEOVER, '51(PS)')" onclick="clickZoom(evt); notifyOwner(AGV_OBJECT_MOUSECLICK, '51(PS)')" onmouseout="notifyOwner(AGV_OBJECT_MOUSEOUT, '51(PS)')" tooltip="#UNDEFINED" id="51-Graphic" objecttype="GRAPHIC">
<g>
	<g id="43::XMLID_2_">
		<g>
			<path orgstroke="#000000" orgfill="#ffffff" fill="#ffffff" g2gfill="#ECC35D" d="M660.097,173.147     c0-0.217,0.033-0.428,0.08-0.599l0.295-0.277c0.373,0.021,0.813,0.146,1.25,0.4c1.517,0.864,2.742,2.761,2.742,4.243     c0,0.268-0.033,0.483-0.104,0.681l-0.396,0.198c-0.345-0.049-0.722-0.173-1.111-0.396     C661.344,176.54,660.097,174.635,660.097,173.147z M657.608,173.032c0,2.229,1.839,5.084,4.128,6.38     c1.178,0.67,2.25,0.785,3.001,0.416l1.346-0.634c0.529-0.391,0.848-1.063,0.848-1.979c0-2.229-1.854-5.087-4.125-6.373     c-1.145-0.642-2.167-0.771-2.917-0.46l-1.267,0.563C657.988,171.302,657.608,172.015,657.608,173.032z" outline-element="true" stroke="#000000" stroke-width="0.5" g2gstroke="#312783" stroke-miterlimit="10"/>
		</g>
	</g>
	<path orgstroke="#000000" orgfill="none" fill="none" d="M665.549,176.011   c-0.604-1.824-2.096-3.704-3.813-4.685c-1.016-0.569-1.938-0.736-2.646-0.563" stroke="#000000" stroke-width="0.25" g2gstroke="#312783" stroke-miterlimit="10"/>
	<path orgstroke="#000000" orgfill="none" fill="none" d="M665.222,179.483   c0.396-0.401,0.624-1.014,0.624-1.784c0-0.188-0.017-0.375-0.04-0.566" stroke="#000000" stroke-width="0.25" g2gstroke="#312783" stroke-miterlimit="10"/>
	<path orgstroke="#000000" orgfill="none" fill="none" d="M660.055,172.286   c-0.65,0.121-1.087,0.646-1.087,1.521c0,1.481,1.232,3.396,2.756,4.241c1.104,0.625,2.057,0.526,2.481-0.135" stroke="#000000" stroke-width="0.25" g2gstroke="#312783" stroke-miterlimit="10"/>
</g>
</g>
</g></svg>