<svg xmlns="http://www.w3.org/2000/svg" xmlns:xlink="http://www.w3.org/1999/xlink" xmlns:etg="http://www.eurotaxglass.com/etg/evd/" etg:dataTimestamp="1539068912893" contentScriptType="text/ecmascript" zoomAndPan="magnify" contentStyleType="text/css" id="Layer_1" enable-background="new 0 0 1841.891 1595.279" version="1.1" xml:space="preserve" width="1841.891px" preserveAspectRatio="xMidYMid meet" viewBox="0 0 1841.891 1595.279" height="1595.279px" x="0px" y="0px"><g xmlns="http://www.w3.org/2000/svg" objecttype="PS" tooltip="#UNDEFINED" id="57">
<g onmouseover="notifyOwner(AGV_OBJECT_MOUSEOVER, '57(PS)')" transform="translate(-6.0, -12.0) translate(10.0, 10.00006103515625)" onclick="clickZoom(evt); notifyOwner(AGV_OBJECT_MOUSECLICK, '57(PS)')" onmouseout="notifyOwner(AGV_OBJECT_MOUSEOUT, '57(PS)')" tooltip="#UNDEFINED" id="57-Graphic" objecttype="GRAPHIC">
<g zvalue="12">
<g>
<path orgstroke="#000000" orgfill="#ffffff" fill="#ffffff" g2gfill="#ECF5E4" d="M408.831,157.556   c-0.542-2.189-0.646-4.938-0.646-4.938c0-1.063,0.871-2.426,1.938-3.043c0.521-0.306,1.007-0.37,1.354-0.221l1.749,0.826   l0.19,0.173c0.149,0.188,0.235,0.454,0.235,0.789v3.402c0,0,0.097,0.797,0.579,0.523l1.702-0.965l0.563-0.066l1.546,0.211   l0.979,0.065l1.545-0.349l1.642-0.551l0.254-0.437l0.03-4.287l0.146-0.698l0.349-0.493h0.706l3.754-0.482l0.563,0.146l8.906,4.562   l0.354,0.352l-0.142,0.354l-5.611,4.033l-1.4-0.07l-0.843-0.145l-1.335-1.021l-0.207-0.211l-1.337,0.842l-3.646,1.478l-2.032,0.487   l-1.331,0.146l-1.332,0.488l-3.576,2.456l-0.771,0.214l-1.684-0.214l-2.104-0.983c-0.34-0.288-0.613-0.808-0.833-1.443   L408.831,157.556z" stroke="#000000" outline-element="true" stroke-width="0.5" g2gstroke="#312783" stroke-miterlimit="10"/>
<path orgstroke="#000000" orgfill="none" fill="none" d="M412.573,150.033   c-0.258,0.022-0.548,0.118-0.854,0.295c-1.063,0.615-1.927,1.979-1.927,3.042c0,0,0.28,7.271,2.244,7.557" stroke="#000000" stroke-width="0.25" g2gstroke="#312783" stroke-miterlimit="10"/>
<path orgstroke="#000000" orgfill="none" fill="none" d="M413.65399169921875 155.23199462890625L413.65399169921875 160.49899291992188" stroke="#000000" stroke-width="0.25" g2gstroke="#312783" stroke-miterlimit="10"/>
<path orgstroke="#000000" orgfill="none" fill="none" d="M413.9330139160156 159.23800659179688L418.2179870605469 156.36000061035156" stroke="#000000" stroke-width="0.25" g2gstroke="#312783" stroke-miterlimit="10"/>
<path orgstroke="#000000" orgfill="none" fill="none" d="M422.88800048828125 153.21400451660156L424.59600830078125 152.64199829101562" stroke="#000000" stroke-width="0.25" g2gstroke="#312783" stroke-miterlimit="10"/>
<path orgstroke="#000000" orgfill="none" fill="none" d="M416.45599365234375 154.468994140625L418.4219970703125 155.93800354003906L420.5989990234375 156.15199279785156" stroke="#000000" stroke-width="0.25" g2gstroke="#312783" stroke-miterlimit="10"/>
<path orgstroke="#000000" orgfill="none" fill="none" d="M420.9840087890625 155.71200561523438L421.6080017089844 155.00900268554688L422.52398681640625 154.65899658203125L426.17401123046875 153.81700134277344" stroke="#000000" stroke-width="0.25" g2gstroke="#312783" stroke-miterlimit="10"/>
<path orgstroke="#000000" orgfill="none" fill="none" d="M423.12298583984375 148.08200073242188L430.7699890136719 152.01100158691406L431.60699462890625 152.43099975585938L436.6600036621094 152.01100158691406" stroke="#000000" stroke-width="0.25" g2gstroke="#312783" stroke-miterlimit="10"/>
<path orgstroke="#000000" orgfill="none" fill="none" d="M431.5429992675781 153.13400268554688L431.4729919433594 155.0970001220703" stroke="#000000" stroke-width="0.25" g2gstroke="#312783" stroke-miterlimit="10"/>
<path orgstroke="#000000" orgfill="none" fill="none" d="M424.59600830078125 152.64199829101562L425.85699462890625 152.22300720214844L426.5589904785156 152.36199951171875L426.98199462890625 152.5709991455078L428.10400390625 154.468994140625" stroke="#000000" stroke-width="0.25" g2gstroke="#312783" stroke-miterlimit="10"/>
<path orgstroke="#000000" orgfill="none" fill="none" d="M412.741,152.054   c0,0.562-0.455,1.271-1.021,1.604c-0.562,0.324-1.019,0.133-1.019-0.43s0.457-1.278,1.019-1.603   C412.287,151.303,412.741,151.492,412.741,152.054z" stroke="#000000" stroke-width="0.25" g2gstroke="#312783" stroke-miterlimit="10"/>
</g>
</g>
</g>
</g></svg>