<svg xmlns="http://www.w3.org/2000/svg" xmlns:xlink="http://www.w3.org/1999/xlink" xmlns:etg="http://www.eurotaxglass.com/etg/evd/" etg:dataTimestamp="1539068912893" contentScriptType="text/ecmascript" zoomAndPan="magnify" contentStyleType="text/css" id="Layer_1" enable-background="new 0 0 1841.891 1595.279" version="1.1" xml:space="preserve" width="1841.891px" preserveAspectRatio="xMidYMid meet" viewBox="0 0 1841.891 1595.279" height="1595.279px" x="0px" y="0px"><g xmlns="http://www.w3.org/2000/svg" objecttype="PS" tooltip="#UNDEFINED" id="59">
<g onmouseover="notifyOwner(AGV_OBJECT_MOUSEOVER, '59(PS)')" transform="translate(-16.0, -18.0) translate(20,20) " onclick="clickZoom(evt); notifyOwner(AGV_OBJECT_MOUSECLICK, '59(PS)')" onmouseout="notifyOwner(AGV_OBJECT_MOUSEOUT, '59(PS)')" tooltip="#UNDEFINED" id="59-Graphic" objecttype="GRAPHIC">
<g zvalue="17">
<g>
<path orgstroke="#000000" orgfill="#ffffff" fill="#ffffff" g2gfill="#ECF5E4" d="M524.939,213.985   c0-3.981-6.538-7.281-15.087-7.879l-0.123-0.244v-7.659v-0.197c0-1.008-1.217-1.891-3.028-2.362l-0.185-0.125v-0.854l-0.001-0.051   c-0.026-0.439-0.408-0.833-1-1.107l-0.138-0.229v-3.739l-0.015-0.086c-0.085-0.486-0.857-0.867-1.813-0.867   c-0.979,0-1.771,0.398-1.821,0.898l-0.004,0.056v3.76l-0.188,0.229c-0.587,0.281-0.944,0.688-0.944,1.135v0.813l-0.153,0.149   c-1.83,0.479-3.063,1.364-3.063,2.379v0.197v8.896l-0.175,0.229c-4.843,1.428-8.025,3.877-8.025,6.659v3.678   c0,1.423,0.833,2.757,2.296,3.915l0.092,0.247l-4.261,2.821l-0.375,0.626v1.063l0.25,0.941l0.563,1l0.689,0.625l1.377,0.753h0.563   l1.065-0.188l0.813-0.438l4.892-3.206l0.252,0.161v45.896c0,1.523,2.767,2.759,6.178,2.759c3.412,0,6.178-1.229,6.178-2.759   v-40.264v-0.227l6.063-6.655l0.32-0.191c5.277-1.39,8.819-3.947,8.819-6.879v-3.678L524.939,213.985L524.939,213.985   L524.939,213.985z" stroke="#000000" outline-element="true" stroke-width="0.5" g2gstroke="#312783" stroke-miterlimit="10"/>
<path orgstroke="#000000" orgfill="none" fill="none" d="M509.531,198.699   c-0.688,1.188-3.104,2.063-5.979,2.063c-2.905,0-5.348-0.896-6.002-2.104" stroke="#000000" stroke-width="0.25" g2gstroke="#312783" stroke-miterlimit="10"/>
<path orgstroke="#000000" orgfill="none" fill="none" d="M509.729,227.714   c0,1.522-2.766,2.766-6.177,2.766c-3.412,0-6.188-1.235-6.188-2.766" stroke="#000000" stroke-width="0.25" g2gstroke="#312783" stroke-miterlimit="10"/>
<path orgstroke="#000000" orgfill="none" fill="none" d="M509.729,211.004   c0,1.522-2.766,2.754-6.177,2.754c-3.412,0-6.188-1.229-6.188-2.754" stroke="#000000" stroke-width="0.25" g2gstroke="#312783" stroke-miterlimit="10"/>
<path orgstroke="#000000" orgfill="none" fill="none" d="M497.375,211.228   c-1.764,0.709-1.482,2.074-1.482,2.074c0,1.888,3.431,3.416,7.66,3.416c4.229,0,7.661-1.528,7.661-3.416   c0,0,0.385-1.273-1.433-2.477" stroke="#000000" stroke-width="0.25" g2gstroke="#312783" stroke-miterlimit="10"/>
<path orgstroke="#000000" orgfill="none" fill="none" d="M524.885,214.625   c-0.731,4.105-8.438,7.336-17.832,7.336c-9.261,0-16.879-3.14-17.794-7.15" stroke="#000000" stroke-width="0.25" g2gstroke="#312783" stroke-miterlimit="10"/>
<path orgstroke="#000000" orgfill="none" fill="none" d="M509.941,206.926   c7.674,0.603,13.502,3.518,13.502,7.021c0,3.935-7.338,7.126-16.388,7.126c-9.052,0-16.387-3.192-16.387-7.126   c0-2.323,2.558-4.387,6.514-5.688" stroke="#000000" stroke-width="0.25" g2gstroke="#312783" stroke-miterlimit="10"/>
<path orgstroke="#000000" orgfill="none" fill="none" d="M515.446,224.71   c-2.504,0.602-5.354,0.938-8.393,0.938c-6.466,0-12.127-1.528-15.271-3.82" stroke="#000000" stroke-width="0.25" g2gstroke="#312783" stroke-miterlimit="10"/>
<path orgstroke="#000000" orgfill="none" fill="none" d="M510.312,210.927   c4.514,0.851,7.681,2.843,7.681,5.166c0,1.571-1.464,3.005-3.813,4.021" stroke="#000000" stroke-width="0.25" g2gstroke="#312783" stroke-miterlimit="10"/>
<path orgstroke="#000000" orgfill="none" fill="none" d="M493.24,217.512   c-0.267-0.454-0.397-0.938-0.397-1.428c0-1.354,1.077-2.598,2.871-3.563" stroke="#000000" stroke-width="0.25" g2gstroke="#312783" stroke-miterlimit="10"/>
<path orgstroke="#000000" orgfill="none" fill="none" d="M497.375 211.1020050048828L497.375 207.38499450683594" stroke="#000000" stroke-width="0.25" g2gstroke="#312783" stroke-miterlimit="10"/>
<path orgstroke="#000000" orgfill="none" fill="none" d="M497.375 219.49200439453125L497.375 215.5260009765625" stroke="#000000" stroke-width="0.25" g2gstroke="#312783" stroke-miterlimit="10"/>
<path orgstroke="#000000" orgfill="none" fill="none" d="M497.375 225.6490020751953L497.375 224.6269989013672" stroke="#000000" stroke-width="0.25" g2gstroke="#312783" stroke-miterlimit="10"/>
<path orgstroke="#000000" orgfill="none" fill="none" d="M509.72900390625 210.7270050048828L509.72900390625 206.23899841308594" stroke="#000000" stroke-width="0.25" g2gstroke="#312783" stroke-miterlimit="10"/>
<path orgstroke="#000000" orgfill="none" fill="none" d="M509.72900390625 220.70399475097656L509.72900390625 215.48500061035156" stroke="#000000" stroke-width="0.25" g2gstroke="#312783" stroke-miterlimit="10"/>
<path orgstroke="#000000" orgfill="none" fill="none" d="M509.72900390625 231.0749969482422L509.72900390625 225.79299926757812" stroke="#000000" stroke-width="0.25" g2gstroke="#312783" stroke-miterlimit="10"/>
<path orgstroke="#000000" orgfill="none" fill="none" d="M506.516,197.594   c0,0.854-1.326,1.547-2.964,1.547c-1.646,0-2.965-0.69-2.965-1.547" stroke="#000000" stroke-width="0.25" g2gstroke="#312783" stroke-miterlimit="10"/>
<path orgstroke="#000000" orgfill="none" fill="none" d="M506.364,195.157   c-0.395,0.612-1.503,1.055-2.813,1.055c-1.272,0-2.357-0.418-2.777-1.006" stroke="#000000" stroke-width="0.25" g2gstroke="#312783" stroke-miterlimit="10"/>
<path orgstroke="#000000" orgfill="none" fill="none" d="M505.379,194.46   c0,0.525-0.818,0.952-1.826,0.952c-1.007,0-1.824-0.427-1.824-0.952" stroke="#000000" stroke-width="0.25" g2gstroke="#312783" stroke-miterlimit="10"/>
<path orgstroke="#000000" orgfill="none" fill="none" d="M505.235,189.909   c-0.277,0.341-0.927,0.581-1.685,0.581c-0.787,0-1.457-0.26-1.714-0.624" stroke="#000000" stroke-width="0.25" g2gstroke="#312783" stroke-miterlimit="10"/>
<path orgstroke="#000000" orgfill="none" fill="none" d="M509.52099609375 242.052001953125L508.6470031738281 241.61500549316406L508.0840148925781 241.61500549316406L507.322998046875 241.86599731445312L506.5159912109375 242.42799377441406L506.072998046875 242.8679962158203L505.572998046875 243.6820068359375L505.322998046875 244.36900329589844L505.1390075683594 245.18600463867188L505.1390075683594 251.82200622558594L505.2650146484375 252.50900268554688L505.447998046875 253.072998046875L505.947998046875 253.44900512695312L506.5159912109375 253.69900512695312L507.322998046875 253.57400512695312L508.0199890136719 253.197998046875L508.52099609375 252.50900268554688L509.0849914550781 251.63400268554688L509.3970031738281 250.19400024414062" stroke="#000000" stroke-width="0.25" g2gstroke="#312783" stroke-miterlimit="10"/>
<path orgstroke="#000000" orgfill="none" fill="none" d="M497.5010070800781 230.73699951171875L498.25299072265625 231.23599243164062L499.2550048828125 231.91099548339844L500.19500732421875 232.55299377441406L500.9460144042969 233.11500549316406L501.0710144042969 233.61599731445312L501.1340026855469 236.49600219726562L501.0710144042969 236.8719940185547L500.7569885253906 237.12100219726562L500.3819885253906 237.18499755859375L499.8179931640625 237.05999755859375L497.2510070800781 235.0590057373047" stroke="#000000" stroke-width="0.25" g2gstroke="#312783" stroke-miterlimit="10"/>
<path orgstroke="#000000" orgfill="none" fill="none" d="M497.56500244140625 261.2130126953125L502.635009765625 263.0260009765625L503.072998046875 263.27801513671875L503.2619934082031 263.6520080566406L503.322998046875 268.47698974609375L503.072998046875 268.9110107421875L502.447998046875 269.0360107421875L501.4460144042969 269.0360107421875L500.3190002441406 268.7869873046875L499.3169860839844 268.47698974609375L498.5039978027344 267.97601318359375L497.5010070800781 267.28399658203125" stroke="#000000" stroke-width="0.25" g2gstroke="#312783" stroke-miterlimit="10"/>
<path orgstroke="#000000" orgfill="none" fill="none" d="M502.9700012207031 268.83099365234375L497.5840148925781 267.0790100097656" stroke="#000000" stroke-width="0.25" g2gstroke="#312783" stroke-miterlimit="10"/>
<path orgstroke="#000000" orgfill="none" fill="none" d="M500.5880126953125 195.7830047607422L500.5880126953125 197.593994140625" stroke="#000000" stroke-width="0.25" g2gstroke="#312783" stroke-miterlimit="10"/>
<path orgstroke="#000000" orgfill="none" fill="none" d="M506.5159912109375 195.74000549316406L506.5159912109375 197.593994140625" stroke="#000000" stroke-width="0.25" g2gstroke="#312783" stroke-miterlimit="10"/>
<path orgstroke="#000000" orgfill="none" fill="none" d="M501.72698974609375 193.5500030517578L501.72698974609375 194.4600067138672" stroke="#000000" stroke-width="0.25" g2gstroke="#312783" stroke-miterlimit="10"/>
<path orgstroke="#000000" orgfill="none" fill="none" d="M505.3789978027344 193.5500030517578L505.3789978027344 194.4600067138672" stroke="#000000" stroke-width="0.25" g2gstroke="#312783" stroke-miterlimit="10"/>
<ellipse orgstroke="#000000" orgfill="none" transform="matrix(-0.7117 0.7024 -0.7024 -0.7117 997.3048 44.9075)" fill="none" rx="1.363" cx="489.438" cy="227.081" ry="2.04" stroke="#000000" stroke-width="0.25" g2gstroke="#312783" stroke-miterlimit="10"/>
<path orgstroke="#000000" orgfill="none" fill="none" d="M487.983,224.627c0,0,4.039-0.816,4.039,3.901" stroke="#000000" stroke-width="0.25" g2gstroke="#312783" stroke-miterlimit="10"/>
</g>
</g>
</g>
</g></svg>