<svg xmlns="http://www.w3.org/2000/svg" xmlns:xlink="http://www.w3.org/1999/xlink" xmlns:etg="http://www.eurotaxglass.com/etg/evd/" etg:dataTimestamp="1539068912893" contentScriptType="text/ecmascript" zoomAndPan="magnify" contentStyleType="text/css" id="Layer_1" enable-background="new 0 0 1841.891 1595.279" version="1.1" xml:space="preserve" width="1841.891px" preserveAspectRatio="xMidYMid meet" viewBox="0 0 1841.891 1595.279" height="1595.279px" x="0px" y="0px"><g xmlns="http://www.w3.org/2000/svg" objecttype="PS" tooltip="#UNDEFINED" id="70">
<g onmouseover="notifyOwner(AGV_OBJECT_MOUSEOVER, '70(PS)')" transform="translate(24.552262090483623, -10.56318252730108) translate(-22.553822152886084, 14.845553822152851) translate(-1.0, -5.0) translate(5.02325439453125, 4.97674560546875) translate(-10.0, 3.0) translate(-61.04651162790702, -113.95348837209303) translate(-263.0, -99.0) translate(279.0, 187.0) translate(45,26) " onclick="clickZoom(evt); notifyOwner(AGV_OBJECT_MOUSECLICK, '70(PS)')" onmouseout="notifyOwner(AGV_OBJECT_MOUSEOUT, '70(PS)')" tooltip="#UNDEFINED" id="70-Graphic" objecttype="GRAPHIC">
<g zvalue="41">
<g>
<path orgstroke="#000000" orgfill="#ffffff" fill="#ffffff" g2gfill="#ECF5E4" d="M448.195,288.936   c0.59,0.418,1.51,0.375,2.547-0.229c1.78-1.021,3.229-3.303,3.229-5.083c0-0.89-0.36-1.479-0.944-1.729l-2.287-1.435l-3.896-2.472   l-0.354-1.793l-2.464-1.621l-0.54-1.135l-1.213-1.311l-0.547-1.18l-1.078-1.229l-0.83-1.34l-0.905-1.907l-1.521-0.947l-0.732-0.975   l-2.504-1.395l-0.917-0.592l-2.719-0.502l-2.365,0.063l-1.914-0.479l-2.098,0.09l-1.184-0.354l-8.563-0.531l-1.595-0.532   l-10.666-6.022l-0.501-0.893l-1.285-0.12l-33.62-19.005l0.181-1.063l-0.526-1.239l-1.063-1.063l-0.708-1.598l-1.396-2.062   l-0.906-1.482l-1.548-1.298l-1.624-0.722l-0.711-0.893l-1.534-0.641l-0.231-1.409l-1.083-1.604l-1.237-1.063l-0.354-0.174   l-5.865-2.922c-1.518-0.531-3.549-0.22-5.775,1.063c-4.688,2.708-8.489,8.707-8.489,13.396c0,2.055,0.729,3.518,1.938,4.281   l2.571,1.513l3.572,2.146l1.597,0.709h1.238l1.999-0.354l1.896,1.415l1.351,0.297l1.471,1.198l2.146,0.271l1.594-0.232l3.073,0.505   l3.479-0.438l1.417,0.354l32.868,18.762l0.532,0.905l1.062,0.005l11.782,6.729l1.063,1.238l2.958,4.021l0.729,2.234l1.271,1.224   l1.098,1.651l1.29,1.136l1.339,2.843l2.187,1.123l0.708,0.914l3.298,1.188l2.323-0.271l1.854,0.396l2.313-0.217l1.839-0.443   l1.464,0.22l1.24-0.305l1.62-0.097l1.796,0.998l2.131-0.05L448.195,288.936z" stroke="#000000" outline-element="true" stroke-width="0.5" g2gstroke="#312783" stroke-miterlimit="10"/>
<path orgstroke="#000000" orgfill="#F1E3BB" fill="#F1E3BB" d="M414.5190124511719 260.885986328125L422.947998046875 261.40899658203125L424.2640075683594 261.89599609375L426.22698974609375 261.67498779296875L428.239990234375 262.1510009765625L430.3240051269531 262.0929870605469L431.9259948730469 262.3380126953125L433.14801025390625 262.5740051269531L434.1419982910156 263.1809997558594L436.14898681640625 264.2950134277344L437.2969970703125 265.43701171875L438.9020080566406 266.4880065917969L439.8059997558594 268.39801025390625L440.4599914550781 269.4530029296875L441.7139892578125 270.97100830078125L442.260986328125 272.1470031738281L443.4739990234375 273.4549865722656L444.1340026855469 274.6669921875L444.8370056152344 275.12799072265625L444.3999938964844 275.47698974609375L443.96600341796875 275.3139953613281L443.239990234375 275.260009765625L442.2200012207031 275.5010070800781L441.4679870605469 275.8630065917969L440.9200134277344 276.2040100097656L440.489990234375 276.5429992675781L440.031005859375 276.86700439453125L439.6029968261719 277.4079895019531L439.156005859375 277.93499755859375L438.6789855957031 278.6289978027344L438.34698486328125 279.1919860839844L437.9700012207031 279.9960021972656L437.6449890136719 281.0320129394531L437.531005859375 281.739013671875L437.5950012207031 282.4049987792969L437.6579895019531 283.0669860839844L437.9179992675781 283.5840148925781L438.31201171875 284.0010070800781L438.010009765625 284.4679870605469L436.3869934082031 284.55999755859375L435.1499938964844 284.7460021972656L433.6820068359375 284.64599609375L431.843994140625 285.0920104980469L429.531005859375 285.3080139160156L427.6839904785156 284.9119873046875L425.3580017089844 285.18701171875L422.06298828125 284.0010070800781L421.35400390625 283.0849914550781L419.16900634765625 281.9620056152344L417.8299865722656 279.1199951171875L416.5369873046875 277.9880065917969L415.4429931640625 276.3340148925781L414.1780090332031 275.11199951171875L413.3590087890625 272.7590026855469L410.48699951171875 268.85101318359375L409.42401123046875 267.6109924316406L409.5360107421875 267.34100341796875L409.2560119628906 266.2550048828125L409.42401123046875 265.18499755859375L409.6910095214844 264.4209899902344L410.1700134277344 263.60699462890625L410.697998046875 262.90399169921875L411.26800537109375 262.322998046875L411.81201171875 261.88800048828125L412.4070129394531 261.531005859375L413.6759948730469 261.18798828125Z" stroke="#000000" stroke-width="0.25" g2gstroke="#312783" stroke-miterlimit="10"/>
<path orgstroke="#000000" orgfill="#F1E3BB" fill="#F1E3BB" d="M356.3949890136719 222.24899291992188L355.4729919433594 221.73599243164062L354.2030029296875 221.5279998779297L352.8680114746094 221.69900512695312L351.92401123046875 222.0070037841797L350.8059997558594 222.54299926757812L350.0119934082031 223.02699279785156L349.0589904785156 223.73199462890625L348.0790100097656 224.6020050048828L347.2569885253906 225.46299743652344L346.5400085449219 226.33099365234375L345.9800109863281 227.1020050048828L345.4179992675781 228.00999450683594L344.9280090332031 228.8730010986328L344.5409851074219 229.69700622558594L344.15301513671875 230.6959991455078L343.90399169921875 231.52099609375L343.70001220703125 232.49400329589844L343.5989990234375 233.5919952392578L343.6310119628906 234.4429931640625L343.7820129394531 235.2729949951172L344.1099853515625 236.11500549316406L344.4410095214844 236.69200134277344L344.9670104980469 237.15499877929688L345.5119934082031 237.49600219726562L346.7510070800781 237.8459930419922L348.6510009765625 239.26100158691406L349.7850036621094 239.41600036621094L351.4679870605469 240.75799560546875L353.614990234375 241.0279998779297L355.20599365234375 240.79100036621094L358.1629943847656 241.2779998779297L361.7619934082031 240.8560028076172L361.98199462890625 240.5449981689453L361.5849914550781 239.70399475097656L361.5639953613281 238.69000244140625L361.80499267578125 237.8000030517578L362.1159973144531 237.0469970703125L362.6659851074219 236.26600646972656L363.2359924316406 235.5989990234375L363.9639892578125 234.96099853515625L364.4280090332031 234.65499877929688L365.24200439453125 234.3000030517578L365.97100830078125 234.2050018310547L366.5889892578125 234.16600036621094L366.8999938964844 233.23699951171875L366.48699951171875 232.27099609375L366.32598876953125 231.7310028076172L365.4809875488281 231.11000061035156L364.72698974609375 229.63099670410156L364.46600341796875 229.1439971923828L363.7510070800781 228.093994140625L362.9429931640625 226.85899353027344L362.29400634765625 225.79600524902344L360.7460021972656 224.4969940185547L359.1189880371094 223.7790069580078L358.4110107421875 222.88999938964844L356.87701416015625 222.2519989013672Z" stroke="#000000" stroke-width="0.25" g2gstroke="#312783" stroke-miterlimit="10"/>
<path orgstroke="#000000" orgfill="none" fill="none" d="M345.512,237.496   c-1.186-0.579-1.916-1.862-1.916-3.729c0-3.902,3.162-8.896,7.063-11.146c2.354-1.354,4.443-1.413,5.729-0.374" stroke="#000000" stroke-width="0.25" g2gstroke="#312783" stroke-miterlimit="10"/>
<path orgstroke="#000000" orgfill="none" fill="none" d="M347.55,238.257   c-1.171-0.563-1.888-1.833-1.888-3.681c0-3.847,3.107-8.765,6.966-10.987c2.325-1.343,4.388-1.391,5.646-0.361" stroke="#000000" stroke-width="0.25" g2gstroke="#312783" stroke-miterlimit="10"/>
<path orgstroke="#000000" orgfill="none" fill="none" d="M349.785,239.416   c-1.153-0.561-1.862-1.805-1.862-3.625c0-3.793,3.073-8.641,6.866-10.831c2.295-1.327,4.317-1.376,5.567-0.358" stroke="#000000" stroke-width="0.25" g2gstroke="#312783" stroke-miterlimit="10"/>
<path orgstroke="#000000" orgfill="none" fill="none" d="M351.385,240.359   c-1.15-0.563-1.854-1.798-1.854-3.607c0-3.771,3.063-8.598,6.831-10.771c2.284-1.32,4.313-1.366,5.557-0.361" stroke="#000000" stroke-width="0.25" g2gstroke="#312783" stroke-miterlimit="10"/>
<path orgstroke="#000000" orgfill="none" fill="none" d="M353.742,240.53   c-1.031-0.501-1.664-1.616-1.664-3.242c0-3.391,2.748-7.727,6.139-9.684c2.051-1.188,3.868-1.229,4.986-0.324" stroke="#000000" stroke-width="0.25" g2gstroke="#312783" stroke-miterlimit="10"/>
<path orgstroke="#000000" orgfill="none" fill="none" d="M356.284,240.882   c-0.889-0.428-1.417-1.377-1.417-2.763c0-2.89,2.341-6.583,5.229-8.25c1.75-1.009,3.297-1.046,4.247-0.277" stroke="#000000" stroke-width="0.25" g2gstroke="#312783" stroke-miterlimit="10"/>
<path orgstroke="#000000" orgfill="none" fill="none" d="M358.938,241.298   c-0.757-0.361-1.222-1.188-1.222-2.386c0-2.498,2.021-5.688,4.518-7.129c1.52-0.874,2.854-0.904,3.668-0.24" stroke="#000000" stroke-width="0.25" g2gstroke="#312783" stroke-miterlimit="10"/>
<path orgstroke="#000000" orgfill="none" fill="none" d="M362.304,240.791   c-0.49-0.229-0.789-0.767-0.789-1.538c0-1.604,1.304-3.667,2.913-4.597c0.976-0.563,1.837-0.583,2.366-0.155" stroke="#000000" stroke-width="0.25" g2gstroke="#312783" stroke-miterlimit="10"/>
<path orgstroke="#000000" orgfill="none" fill="none" d="M363.473,241.298   c-0.491-0.229-0.791-0.767-0.791-1.529c0-1.61,1.304-3.667,2.914-4.604c0.976-0.561,1.837-0.583,2.366-0.146" stroke="#000000" stroke-width="0.25" g2gstroke="#312783" stroke-miterlimit="10"/>
<path orgstroke="#000000" orgfill="none" fill="none" d="M396.019,259.749   c-0.178-0.271-0.271-0.64-0.271-1.088c0-1.61,1.304-3.667,2.904-4.597c0.65-0.375,1.26-0.506,1.737-0.438" stroke="#000000" stroke-width="0.25" g2gstroke="#312783" stroke-miterlimit="10"/>
<path orgstroke="#000000" orgfill="none" fill="none" d="M397.62,260.631   c-0.187-0.271-0.277-0.64-0.277-1.088c0-1.604,1.304-3.667,2.913-4.597c0.646-0.375,1.251-0.507,1.736-0.429" stroke="#000000" stroke-width="0.25" g2gstroke="#312783" stroke-miterlimit="10"/>
<path orgstroke="#000000" orgfill="none" fill="none" d="M408.551,266.601   c-0.179-0.274-0.277-0.646-0.277-1.088c0-1.61,1.313-3.667,2.912-4.604c0.651-0.375,1.251-0.507,1.736-0.429" stroke="#000000" stroke-width="0.25" g2gstroke="#312783" stroke-miterlimit="10"/>
<path orgstroke="#000000" orgfill="none" fill="none" d="M409.536,267.341   c-0.188-0.271-0.28-0.64-0.28-1.085c0-1.604,1.307-3.667,2.916-4.597c0.646-0.375,1.251-0.51,1.736-0.429" stroke="#000000" stroke-width="0.25" g2gstroke="#312783" stroke-miterlimit="10"/>
<path orgstroke="#000000" orgfill="none" fill="none" d="M342.978,237.846   c-1.38-0.721-2.222-2.237-2.222-4.443c0-4.692,3.801-10.688,8.49-13.396c2.26-1.304,4.311-1.604,5.832-1.049" stroke="#000000" stroke-width="0.25" g2gstroke="#312783" stroke-miterlimit="10"/>
<path orgstroke="#000000" orgfill="none" fill="none" d="M340.908,236.486   c-1.39-0.713-2.229-2.237-2.229-4.446c0-4.688,3.802-10.685,8.489-13.393c2.259-1.313,4.311-1.61,5.832-1.049" stroke="#000000" stroke-width="0.25" g2gstroke="#312783" stroke-miterlimit="10"/>
<path orgstroke="#000000" orgfill="none" fill="none" d="M447.698,288.31   c-0.116-0.271-0.179-0.585-0.179-0.958c0-1.78,1.445-4.063,3.223-5.083c0.542-0.313,1.061-0.479,1.502-0.496" stroke="#000000" stroke-width="0.25" g2gstroke="#312783" stroke-miterlimit="10"/>
<path orgstroke="#000000" orgfill="none" fill="none" d="M441.837,285.297   c-0.375-0.273-0.363-1.184-0.363-1.854c0-1.65,1.34-3.761,2.985-4.712c0.968-0.563,1.817-0.603,2.365-0.198" stroke="#000000" stroke-width="0.25" g2gstroke="#312783" stroke-miterlimit="10"/>
<path orgstroke="#000000" orgfill="none" fill="none" d="M439.948,285.049   c-0.487-0.364-0.79-1.021-0.79-1.904c0-2.188,1.771-4.976,3.945-6.229c1.274-0.732,2.411-0.785,3.134-0.26" stroke="#000000" stroke-width="0.25" g2gstroke="#312783" stroke-miterlimit="10"/>
<path orgstroke="#000000" orgfill="none" fill="none" d="M438.312,284.001   c-0.496-0.373-0.79-1.021-0.79-1.913c0-2.18,1.767-4.967,3.945-6.228c1.271-0.737,2.414-0.785,3.134-0.26" stroke="#000000" stroke-width="0.25" g2gstroke="#312783" stroke-miterlimit="10"/>
<path orgstroke="#000000" orgfill="none" fill="none" d="M453.432,284.596c0,1.184-0.96,2.69-2.146,3.383   c-1.184,0.68-2.145,0.271-2.145-0.908c0-1.184,0.961-2.697,2.145-3.38C452.472,283.007,453.432,283.413,453.432,284.596z" stroke="#000000" stroke-width="0.25" g2gstroke="#312783" stroke-miterlimit="10"/>
<path orgstroke="#000000" orgfill="none" fill="none" d="M419.508,281.813   c-0.95-0.855-1.506-2.233-1.506-4.063c0-4.87,3.939-11.102,8.813-13.907c2.438-1.397,4.639-1.688,6.235-1.018" stroke="#000000" stroke-width="0.25" g2gstroke="#312783" stroke-miterlimit="10"/>
<path orgstroke="#000000" orgfill="none" fill="none" d="M421.448,282.736   c-0.941-0.858-1.506-2.233-1.506-4.063c0-4.861,3.949-11.102,8.82-13.9c2.434-1.404,4.638-1.69,6.229-1.021" stroke="#000000" stroke-width="0.25" g2gstroke="#312783" stroke-miterlimit="10"/>
<path orgstroke="#000000" orgfill="none" fill="none" d="M423.098,283.767   c-0.952-0.855-1.507-2.233-1.507-4.063c0-4.873,3.94-11.102,8.813-13.91c2.438-1.396,4.646-1.688,6.234-1.016" stroke="#000000" stroke-width="0.25" g2gstroke="#312783" stroke-miterlimit="10"/>
<path orgstroke="#000000" orgfill="none" fill="none" d="M425.358,285.187   c-0.953-0.855-1.507-2.23-1.507-4.063c0-4.873,3.947-11.102,8.818-13.901c2.435-1.403,4.517-1.479,6.104-0.809" stroke="#000000" stroke-width="0.25" g2gstroke="#312783" stroke-miterlimit="10"/>
<path orgstroke="#000000" orgfill="none" fill="none" d="M416.737,277.534   c-0.768-0.692-1.217-1.802-1.217-3.276c0-3.927,3.188-8.944,7.114-11.221c1.966-1.132,3.744-1.362,5.021-0.819" stroke="#000000" stroke-width="0.25" g2gstroke="#312783" stroke-miterlimit="10"/>
<path orgstroke="#000000" orgfill="none" fill="none" d="M428.447,285.049   c-0.768-0.688-0.783-2.548-0.783-4.021c0-3.93,3.188-8.956,7.115-11.22c1.963-1.132,3.742-1.362,5.027-0.82" stroke="#000000" stroke-width="0.25" g2gstroke="#312783" stroke-miterlimit="10"/>
<path orgstroke="#000000" orgfill="none" fill="none" d="M414.826,275.253   c-0.686-0.604-1.068-1.583-1.068-2.879c0-3.455,2.8-7.873,6.254-9.864c1.727-0.988,3.289-1.19,4.419-0.721" stroke="#000000" stroke-width="0.25" g2gstroke="#312783" stroke-miterlimit="10"/>
<path orgstroke="#000000" orgfill="none" fill="none" d="M431.74,284.887   c-0.674-0.607-0.94-2.082-0.94-3.376c0-3.455,2.803-7.874,6.254-9.864c1.728-0.997,3.29-1.199,4.422-0.729" stroke="#000000" stroke-width="0.25" g2gstroke="#312783" stroke-miterlimit="10"/>
<path orgstroke="#000000" orgfill="none" fill="none" d="M435.15,284.746   c-0.556-0.5-0.622-1.743-0.622-2.806c0-2.829,2.295-6.449,5.123-8.077c1.415-0.817,2.696-0.983,3.623-0.591" stroke="#000000" stroke-width="0.25" g2gstroke="#312783" stroke-miterlimit="10"/>
<path orgstroke="#000000" orgfill="none" fill="none" d="M450.4429931640625 282.2279968261719L444.60101318359375 278.9079895019531" stroke="#000000" stroke-width="0.25" g2gstroke="#312783" stroke-miterlimit="10"/>
<path orgstroke="#000000" orgfill="none" fill="none" d="M449.114990234375 283.3590087890625L443.2749938964844 280.0409851074219" stroke="#000000" stroke-width="0.25" g2gstroke="#312783" stroke-miterlimit="10"/>
<path orgstroke="#000000" orgfill="none" fill="none" d="M448.19500732421875 284.8869934082031L442.3529968261719 281.5679931640625" stroke="#000000" stroke-width="0.25" g2gstroke="#312783" stroke-miterlimit="10"/>
<path orgstroke="#000000" orgfill="none" fill="none" d="M447.5199890136719 286.406005859375L441.67999267578125 283.08599853515625" stroke="#000000" stroke-width="0.25" g2gstroke="#312783" stroke-miterlimit="10"/>
</g>
</g>
</g>
</g></svg>