<svg xmlns="http://www.w3.org/2000/svg" xmlns:xlink="http://www.w3.org/1999/xlink" xmlns:etg="http://www.eurotaxglass.com/etg/evd/" etg:dataTimestamp="1539068912893" contentScriptType="text/ecmascript" zoomAndPan="magnify" contentStyleType="text/css" id="Layer_1" enable-background="new 0 0 1841.891 1595.279" version="1.1" xml:space="preserve" width="1841.891px" preserveAspectRatio="xMidYMid meet" viewBox="0 0 1841.891 1595.279" height="1595.279px" x="0px" y="0px"><g xmlns="http://www.w3.org/2000/svg" objecttype="PS" tooltip="#UNDEFINED" id="8">
<g onmouseover="notifyOwner(AGV_OBJECT_MOUSEOVER, '8(PS)')" onclick="clickZoom(evt); notifyOwner(AGV_OBJECT_MOUSECLICK, '8(PS)')" onmouseout="notifyOwner(AGV_OBJECT_MOUSEOUT, '8(PS)')" tooltip="#UNDEFINED" id="8-Graphic" objecttype="GRAPHIC">
<g>
	<path orgstroke="#000000" orgfill="#ffffff" fill="#ffffff" g2gfill="#ECF5E4" d="M244.698,249.954   c0.331,0.033,0.729-0.063,1.156-0.313c1.146-0.661,2.072-2.122,2.072-3.271c0-0.333-0.079-0.604-0.22-0.804l-0.086-0.354   c0.046-0.254,0.063-0.491,0.063-0.729c0-0.927-0.352-1.565-0.929-1.867l-0.173-0.158l-1.09-0.644l-5.019-1.664l-17.313-10.087   l-0.493,0.021l-0.46-0.267l-0.285-0.479l-8.939-5.197h-0.813l-0.609-0.354l-0.296-0.646l-9.938-5.789l-1.827-0.198l-7.729-4.396   l-1.109-0.214l-0.951,0.438l-0.819,0.789l-0.663,0.994l-0.313,0.998l0.095,0.939l0.475,0.569l0.542,0.501l6.707,3.9l1.116,1.5   l9.814,5.718l0.583-0.104l0.6,0.354l0.213,0.562l9.326,5.438l0.612-0.022l0.518,0.303l0.292,0.551l17.188,10.011l4.021,3.632   l1.193,0.702l0.208,0.12c0.646,0.385,1.625,0.308,2.708-0.32c0.054-0.03,0.104-0.063,0.149-0.093L244.698,249.954z" outline-element="true" stroke="#000000" stroke-width="0.5" g2gstroke="#312783" stroke-miterlimit="10"/>
	<path orgstroke="#000000" orgfill="none" fill="none" d="M196.995,222.83   c0-1.688,1.372-3.847,3.057-4.821c0.423-0.234,0.825-0.392,1.19-0.438" stroke="#000000" stroke-width="0.25" g2gstroke="#312783" stroke-miterlimit="10"/>
	<path orgstroke="#000000" orgfill="none" fill="none" d="M206.92,228.643   c0-1.688,1.369-3.854,3.055-4.818c0.423-0.244,0.824-0.391,1.19-0.446" stroke="#000000" stroke-width="0.25" g2gstroke="#312783" stroke-miterlimit="10"/>
	<path orgstroke="#000000" orgfill="none" fill="none" d="M208.44,229.608c0-1.69,1.369-3.845,3.063-4.82   c0.419-0.245,0.813-0.392,1.188-0.447" stroke="#000000" stroke-width="0.25" g2gstroke="#312783" stroke-miterlimit="10"/>
	<path orgstroke="#000000" orgfill="none" fill="none" d="M207.5,228.964c0-1.626,1.313-3.706,2.938-4.646   c0.406-0.232,0.793-0.371,1.146-0.426" stroke="#000000" stroke-width="0.25" g2gstroke="#312783" stroke-miterlimit="10"/>
	<path orgstroke="#000000" orgfill="none" fill="none" d="M218.198,235.081   c0-1.625,1.318-3.704,2.943-4.643c0.406-0.234,0.794-0.375,1.146-0.438" stroke="#000000" stroke-width="0.25" g2gstroke="#312783" stroke-miterlimit="10"/>
	<path orgstroke="#000000" orgfill="none" fill="none" d="M217.631,234.876   c0-1.688,1.369-3.846,3.055-4.814c0.424-0.241,0.824-0.396,1.19-0.444" stroke="#000000" stroke-width="0.25" g2gstroke="#312783" stroke-miterlimit="10"/>
	<path orgstroke="#000000" orgfill="none" fill="none" d="M218.929,235.732   c0-1.689,1.369-3.844,3.055-4.821c0.422-0.241,0.822-0.389,1.189-0.444" stroke="#000000" stroke-width="0.25" g2gstroke="#312783" stroke-miterlimit="10"/>
	<path orgstroke="#000000" orgfill="none" fill="none" d="M235.763,245.481   c0-1.688,1.368-3.843,3.055-4.82c0.421-0.242,0.824-0.389,1.188-0.444" stroke="#000000" stroke-width="0.25" g2gstroke="#312783" stroke-miterlimit="10"/>
	<path orgstroke="#000000" orgfill="none" fill="none" d="M195.808,221.61   c0.252-1.58,1.505-3.397,3.012-4.266c0.121-0.071,0.242-0.142,0.363-0.188" stroke="#000000" stroke-width="0.25" g2gstroke="#312783" stroke-miterlimit="10"/>
	<path orgstroke="#000000" orgfill="none" fill="none" d="M188.606,217.245   c0.252-1.581,1.505-3.396,3.021-4.265c0.121-0.073,0.233-0.134,0.354-0.189" stroke="#000000" stroke-width="0.25" g2gstroke="#312783" stroke-miterlimit="10"/>
	<path orgstroke="#000000" orgfill="none" fill="none" d="M189.397,217.781   c0.25-1.58,1.503-3.394,3.021-4.265c0.123-0.07,0.232-0.142,0.354-0.188" stroke="#000000" stroke-width="0.25" g2gstroke="#312783" stroke-miterlimit="10"/>
	<path orgstroke="#000000" orgfill="none" fill="none" d="M190.172,218.264   c0.252-1.581,1.503-3.396,3.012-4.271c0.123-0.063,0.242-0.133,0.361-0.188" stroke="#000000" stroke-width="0.25" g2gstroke="#312783" stroke-miterlimit="10"/>
	<path orgstroke="#000000" orgfill="none" fill="none" d="M239.859,249.458   c-0.388-0.348-0.604-0.896-0.604-1.643c0-1.971,1.597-4.491,3.563-5.628c1.026-0.604,1.953-0.693,2.605-0.374" stroke="#000000" stroke-width="0.25" g2gstroke="#312783" stroke-miterlimit="10"/>
	<path orgstroke="#000000" orgfill="none" fill="none" d="M240.824,249.823   c-0.182-0.323-0.271-0.731-0.271-1.217c0-1.979,1.596-4.489,3.567-5.628c0.733-0.437,1.427-0.604,1.997-0.542" stroke="#000000" stroke-width="0.25" g2gstroke="#312783" stroke-miterlimit="10"/>
	<path orgstroke="#000000" orgfill="none" fill="none" d="M242.829,248.839   c-0.313-0.183-0.493-0.545-0.493-1.056c0-1.143,0.926-2.604,2.063-3.267c0.623-0.357,1.188-0.407,1.563-0.192" stroke="#000000" stroke-width="0.25" g2gstroke="#312783" stroke-miterlimit="10"/>
	<path orgstroke="#000000" orgfill="none" fill="none" d="M244.254,249.806   c-0.293-0.189-0.466-0.545-0.466-1.04c0-1.146,0.925-2.606,2.063-3.271c0.588-0.341,1.123-0.396,1.5-0.223" stroke="#000000" stroke-width="0.25" g2gstroke="#312783" stroke-miterlimit="10"/>
	
		<line orgstroke="#000000" orgfill="none" fill="none" x1="245.964" x2="247.445" y1="244.323" y2="245.18" stroke="#000000" stroke-width="0.25" g2gstroke="#312783" stroke-miterlimit="10"/>
	
		<line orgstroke="#000000" orgfill="none" fill="none" x1="242.829" x2="244.254" y1="248.839" y2="249.806" stroke="#000000" stroke-width="0.25" g2gstroke="#312783" stroke-miterlimit="10"/>
	<path orgstroke="#000000" orgfill="none" fill="none" d="M247.267,246.74c0,0.718-0.585,1.64-1.304,2.057   c-0.72,0.414-1.313,0.169-1.313-0.552c0-0.723,0.596-1.642,1.313-2.057S247.267,246.019,247.267,246.74z" stroke="#000000" stroke-width="0.25" g2gstroke="#312783" stroke-miterlimit="10"/>
</g>
</g>
</g></svg>