<svg xmlns="http://www.w3.org/2000/svg" xmlns:xlink="http://www.w3.org/1999/xlink" xmlns:etg="http://www.eurotaxglass.com/etg/evd/" etg:dataTimestamp="1539068912893" contentScriptType="text/ecmascript" zoomAndPan="magnify" contentStyleType="text/css" id="Layer_1" enable-background="new 0 0 1841.891 1595.279" version="1.1" xml:space="preserve" width="1841.891px" preserveAspectRatio="xMidYMid meet" viewBox="0 0 1841.891 1595.279" height="1595.279px" x="0px" y="0px"><g xmlns="http://www.w3.org/2000/svg" objecttype="PS" tooltip="#UNDEFINED" id="9">
<g onmouseover="notifyOwner(AGV_OBJECT_MOUSEOVER, '9(PS)')" onclick="clickZoom(evt); notifyOwner(AGV_OBJECT_MOUSECLICK, '9(PS)')" onmouseout="notifyOwner(AGV_OBJECT_MOUSEOUT, '9(PS)')" tooltip="#UNDEFINED" id="9-Graphic" objecttype="GRAPHIC">
<g>
	<path orgstroke="#000000" orgfill="#ffffff" fill="#ffffff" g2gfill="#ECC35D" d="M211.927,203.372l4.352,0.982l1.897,1.104   l21.941,12.667l0.197,0.146c0.476,0.501,0.733,1.572,0.733,2.539c0,0.175-0.012,0.35-0.028,0.521l-0.06,0.529   c0.125,0.287,0.194,0.634,0.194,1.036c0,1.919-1.56,4.375-3.479,5.479c-0.554,0.32-1.077,0.495-1.541,0.534l-0.537,0.146   c-1.333,0.688-2.521,0.771-3.392,0.358l-0.468-0.146l-23.229-13.406l-0.498-0.521l-2.569-2.699l-1.658-1.55   c-0.104-0.313-0.153-0.667-0.153-1.063c0-2.456,1.993-5.592,4.445-7.011c0.556-0.32,1.083-0.525,1.565-0.621L211.927,203.372z" outline-element="true" stroke="#000000" stroke-width="0.5" g2gstroke="#312783" stroke-miterlimit="10"/>
	<path orgstroke="#000000" orgfill="none" fill="none" d="M208.524,215.868   c-0.747-0.474-1.188-1.376-1.188-2.643c0-2.896,2.349-6.604,5.245-8.271c1.438-0.839,2.757-1.008,3.707-0.604" stroke="#000000" stroke-width="0.25" g2gstroke="#312783" stroke-miterlimit="10"/>
	<path orgstroke="#000000" orgfill="none" fill="none" d="M209.8,216.6   c-0.591-0.503-0.939-1.34-0.939-2.454c0-2.896,2.354-6.595,5.243-8.271c1.377-0.795,2.629-0.979,3.565-0.65" stroke="#000000" stroke-width="0.25" g2gstroke="#312783" stroke-miterlimit="10"/>
	<path orgstroke="#000000" orgfill="none" fill="none" d="M211.473,217.501   c-0.591-0.505-0.938-1.339-0.938-2.455c0-2.895,2.351-6.595,5.234-8.268c1.378-0.793,2.641-0.985,3.565-0.659" stroke="#000000" stroke-width="0.25" g2gstroke="#312783" stroke-miterlimit="10"/>
	<path orgstroke="#000000" orgfill="none" fill="none" d="M213.353,218.667   c-0.591-0.509-0.938-1.34-0.938-2.454c0-2.896,2.349-6.597,5.245-8.27c1.376-0.792,2.63-0.987,3.563-0.659" stroke="#000000" stroke-width="0.25" g2gstroke="#312783" stroke-miterlimit="10"/>
	<path orgstroke="#000000" orgfill="none" fill="none" d="M215.234,219.707   c-0.593-0.506-0.938-1.342-0.938-2.454c0-2.896,2.349-6.599,5.246-8.267c1.374-0.8,2.629-0.992,3.563-0.665" stroke="#000000" stroke-width="0.25" g2gstroke="#312783" stroke-miterlimit="10"/>
	<path orgstroke="#000000" orgfill="none" fill="none" d="M217.064,220.9   c-0.589-0.51-0.938-1.344-0.938-2.455c0-2.897,2.349-6.599,5.244-8.271c1.379-0.798,2.631-0.981,3.563-0.655" stroke="#000000" stroke-width="0.25" g2gstroke="#312783" stroke-miterlimit="10"/>
	<path orgstroke="#000000" orgfill="none" fill="none" d="M219.158,222.148   c-0.601-0.507-0.939-1.337-0.939-2.453c0-2.899,2.349-6.601,5.243-8.271c1.376-0.795,2.631-0.979,3.563-0.652" stroke="#000000" stroke-width="0.25" g2gstroke="#312783" stroke-miterlimit="10"/>
	<path orgstroke="#000000" orgfill="none" fill="none" d="M221.013,223.084   c-0.592-0.506-0.943-1.338-0.943-2.456c0-2.896,2.354-6.599,5.245-8.268c1.376-0.795,2.629-0.987,3.565-0.66" stroke="#000000" stroke-width="0.25" g2gstroke="#312783" stroke-miterlimit="10"/>
	<path orgstroke="#000000" orgfill="none" fill="none" d="M222.955,224.251   c-0.6-0.508-0.939-1.342-0.939-2.457c0-2.892,2.354-6.599,5.244-8.27c1.377-0.794,2.629-0.987,3.565-0.659" stroke="#000000" stroke-width="0.25" g2gstroke="#312783" stroke-miterlimit="10"/>
	<path orgstroke="#000000" orgfill="none" fill="none" d="M224.94,225.321   c-0.592-0.509-0.938-1.338-0.938-2.454c0-2.896,2.351-6.599,5.243-8.269c1.379-0.807,2.632-0.991,3.563-0.661" stroke="#000000" stroke-width="0.25" g2gstroke="#312783" stroke-miterlimit="10"/>
	<path orgstroke="#000000" orgfill="none" fill="none" d="M226.886,226.494   c-0.594-0.506-0.942-1.338-0.942-2.451c0-2.896,2.354-6.597,5.243-8.27c1.377-0.795,2.632-0.986,3.567-0.659" stroke="#000000" stroke-width="0.25" g2gstroke="#312783" stroke-miterlimit="10"/>
	<path orgstroke="#000000" orgfill="none" fill="none" d="M228.983,227.767   c-0.593-0.519-0.938-1.339-0.938-2.455c0-2.896,2.354-6.604,5.247-8.271c1.378-0.796,2.631-0.992,3.563-0.664" stroke="#000000" stroke-width="0.25" g2gstroke="#312783" stroke-miterlimit="10"/>
	<path orgstroke="#000000" orgfill="none" fill="none" d="M231.49,228.863   c-0.433-0.498-0.676-1.222-0.676-2.141c0-2.828,2.29-6.438,5.116-8.069c1.354-0.778,2.575-0.966,3.487-0.64" stroke="#000000" stroke-width="0.25" g2gstroke="#312783" stroke-miterlimit="10"/>
	<path orgstroke="#000000" orgfill="none" fill="none" d="M233.526,227.767   c-0.56-0.294-0.896-0.919-0.896-1.818c0-1.919,1.554-4.374,3.473-5.483c1.035-0.594,1.96-0.677,2.604-0.332" stroke="#000000" stroke-width="0.25" g2gstroke="#312783" stroke-miterlimit="10"/>
	<path orgstroke="#000000" orgfill="none" fill="none" d="M235.735,228.911   c-0.919-0.092-1.519-0.799-1.519-1.994c0-1.919,1.55-4.374,3.472-5.479c1.33-0.771,2.483-0.688,3.071,0.063" stroke="#000000" stroke-width="0.25" g2gstroke="#312783" stroke-miterlimit="10"/>
	<path orgstroke="#000000" orgfill="none" fill="none" d="M205.056,211.71   c-0.071-0.271-0.108-0.579-0.108-0.917c0-2.454,1.99-5.592,4.44-7.01c0.49-0.282,0.958-0.476,1.396-0.584" stroke="#000000" stroke-width="0.25" g2gstroke="#312783" stroke-miterlimit="10"/>
	<path orgstroke="#000000" orgfill="none" fill="none" d="M240.11,223.62c0,1.229-0.996,2.799-2.225,3.507   c-1.227,0.707-2.222,0.285-2.222-0.938c0-1.229,0.995-2.797,2.222-3.508C239.114,221.973,240.11,222.392,240.11,223.62z" stroke="#000000" stroke-width="0.25" g2gstroke="#312783" stroke-miterlimit="10"/>
	<path orgstroke="#000000" orgfill="none" fill="none" d="M238.653,222.635   c0.003,0.054,0.003,0.104,0.003,0.171c0,1.229-0.985,2.799-2.22,3.507c-0.188,0.104-0.37,0.188-0.548,0.247" stroke="#000000" stroke-width="0.25" g2gstroke="#312783" stroke-miterlimit="10"/>
	
		<line orgstroke="#000000" orgfill="none" fill="none" x1="238.698" x2="240.759" y1="220.135" y2="221.323" stroke="#000000" stroke-width="0.25" g2gstroke="#312783" stroke-miterlimit="10"/>
	
		<line orgstroke="#000000" orgfill="none" fill="none" x1="233.526" x2="235.398" y1="227.767" y2="228.844" stroke="#000000" stroke-width="0.25" g2gstroke="#312783" stroke-miterlimit="10"/>
</g>
</g>
</g></svg>