<svg xmlns="http://www.w3.org/2000/svg" xmlns:xlink="http://www.w3.org/1999/xlink" xmlns:etg="http://www.eurotaxglass.com/etg/evd/" etg:dataTimestamp="1539068912893" contentScriptType="text/ecmascript" zoomAndPan="magnify" contentStyleType="text/css" id="Layer_1" enable-background="new 0 0 1841.891 1595.279" version="1.1" width="1841.891px" xml:space="preserve" preserveAspectRatio="xMidYMid meet" viewBox="0 0 1841.891 1595.279" height="1595.279px" x="0px" y="0px"><g xmlns="http://www.w3.org/2000/svg" objecttype="PS" tooltip="#UNDEFINED" id="100">
<g onmouseover="notifyOwner(AGV_OBJECT_MOUSEOVER, '100(PS)')" transform="translate(-7.039858285876619, -15.644129524170353) translate(-34.0, -36.0) translate(-192,267) " onclick="clickZoom(evt); notifyOwner(AGV_OBJECT_MOUSECLICK, '100(PS)')" onmouseout="notifyOwner(AGV_OBJECT_MOUSEOUT, '100(PS)')" tooltip="#UNDEFINED" id="100-Graphic" objecttype="GRAPHIC">
<g zvalue="107">
<g zvalue="2">
<g>
<path orgstroke="#000000" stroke="#000000" d="   M638.847,297.208L638.847,297.208c-0.19,0.712-0.776,1.437-1.396,1.657c-0.308,0.117-0.563,0.091-0.755-0.045h-0.003l-1.925-1.021   l0,0c-0.318-0.104-0.491-0.509-0.414-1.021c0.066-0.439,0.299-0.896,0.61-1.256l0.003,0.003v-0.862   c-0.212,0.119-0.362,0.065-0.456-0.248l0.001,0.002l-2.104-1.134v6.938c0,0.975-0.469,1.722-1.1,2.036h-0.011l-2.238,1.207   l-0.096,0.055c-1.532,0.76-4.104-0.597-4.769-4.188c-0.229-1.271-1.957-2.935-1.957-2.935v-0.021l-18.211-9.771l0.005-0.004   l-2.022,1.096l-0.06,0.021c-0.312,0.152-0.683,0.261-1.113,0.229c-0.733-0.032-2.896-0.89-2.896-3.854l0.002-0.031v-16.396   l-10.551-5.688v-0.033h-0.014c-0.606-0.308-1.063-0.848-1.319-1.58l-0.008-0.021l0.063,0.188c-0.664,0.117-1.266,0.063-1.771-0.138   l-0.101-0.032l-1.475-0.793l-0.139-0.101c-1.018-0.688-1.507-2.104-1.228-4.01c0.518-3.396,3.313-7.04,6.258-8.149   c1.048-0.396,1.971-0.416,2.697-0.13l0.118,0.05l1.476,0.793L592,248.06c0.479,0.298,0.854,0.754,1.084,1.345v-0.003   c0.716-0.127,1.354-0.055,1.88,0.188l0.009-0.021l4.744,2.563l1.807-0.979l-0.272,0.159c1.392-0.961,3.632-0.02,4.515,3.09   c0.263-0.146,0.533-0.299,0.817-0.446c1.423-0.771,2.816-1.285,3.737-1.222v0.01l15.79,8.593l0.104,0.008   c1.316-0.37,2.313-0.354,3.118-0.021l0.002,0.001c2.202-0.849,2.798-0.462,2.69,1.063h0.025c0.813,0.016,1.358,0.327,1.891,0.827   l0.024-0.018c1.914-0.711,2.451-0.308,2.323,0.964l0.024-0.003c0.927,0.022,1.419,0.552,1.933,1.47l0.021-0.021   c2.25-0.922,2.867-0.553,2.73,0.802l0,0c1.038,0.021,1.543,0.647,2.111,1.77v-0.001c1.692-0.537,2.164-0.088,2.07,1.271l0,0   c0.688,0.007,1.185,0.229,1.634,0.583l2.108-1.137h-0.002c0.271-0.54,0.729-1.021,1.216-1.197c0.321-0.123,0.599-0.089,0.777,0.063   l1.55,0.829l0,0l0,0l0.423,0.229l-0.003,0.01c0.272,0.146,0.424,0.479,0.354,0.958c-0.076,0.521-0.384,1.059-0.771,1.438   l0.002-0.006V287.7l0.051,0.027l0.819,0.431l0.055,0.045c0.229,0.153,0.349,0.479,0.277,0.906c-0.112,0.768-0.747,1.591-1.41,1.842   c-0.24,0.089-0.451,0.094-0.618,0.024l-0.002,0.004l-0.64-0.354l-12.188,6.572" stroke-linecap="round" outline-element="true" transform="matrix(1 0 0 1 29 -31.99993896484375)" stroke-miterlimit="10" orgfill="#ffffff" fill="#ffffff" stroke-width="0.5" g2gfill="#ECF5E4" stroke-linejoin="round" g2gstroke="#312783"/>
<path stroke-linecap="round" orgstroke="#000000" orgfill="none" transform="matrix(1 0 0 1 29 -31.99993896484375)" fill="none" stroke-linejoin="round" d="   M646.865,270.039l-10.339,5.577c-0.179-0.121-0.435-0.14-0.729-0.028c-0.688,0.255-1.32,1.104-1.439,1.874   c-0.064,0.438,0.05,0.771,0.283,0.922l0.33,0.184v0.001v16.102" stroke="#000000" stroke-width="0.25" g2gstroke="#312783" stroke-miterlimit="10"/>
<path stroke-linecap="round" orgstroke="#000000" orgfill="none" transform="matrix(1 0 0 1 29 -31.99993896484375)" fill="none" stroke-linejoin="round" d="   M599.74,252.142l-0.354,0.188l0.004,0.008c-0.86,0.438-1.479,1.494-1.438,3.149v12.178" stroke="#000000" stroke-width="0.25" g2gstroke="#312783" stroke-miterlimit="10"/>
<path stroke-linecap="round" orgstroke="#000000" orgfill="none" transform="matrix(1 0 0 1 29 -31.99993896484375)" fill="none" stroke-linejoin="round" d="   M632.419,293.28v-22.877c0-2.962-1.646-3.881-2.896-3.854c-0.438,0.021-0.793,0.098-1.079,0.203l-2.293,1.229l-18.229-9.811   c0,0-1.725-1.646-1.949-2.918c-0.051-0.294-0.116-0.563-0.192-0.836" stroke="#000000" stroke-width="0.25" g2gstroke="#312783" stroke-miterlimit="10"/>
<path stroke-linecap="round" orgstroke="#000000" orgfill="none" transform="matrix(1 0 0 1 29 -31.99993896484375)" fill="none" stroke-linejoin="round" d="M638.6119995117188 276.7569885253906L651.0599975585938 270.0409851074219" stroke="#000000" stroke-width="0.25" g2gstroke="#312783" stroke-miterlimit="10"/>
<path stroke-linecap="round" orgstroke="#000000" orgfill="none" transform="matrix(1 0 0 1 29 -31.99993896484375)" fill="none" stroke-linejoin="round" d="M651.031005859375 290.6210021972656L651.2979736328125 290.4809875488281" stroke="#000000" stroke-width="0.25" g2gstroke="#312783" stroke-miterlimit="10"/>
<path stroke-linecap="round" orgstroke="#000000" orgfill="none" transform="matrix(1 0 0 1 29 -31.99993896484375)" fill="none" stroke-linejoin="round" d="M605.8040161132812 259.3819885253906L607.9650268554688 258.2149963378906" stroke="#000000" stroke-width="0.25" g2gstroke="#312783" stroke-miterlimit="10"/>
<path stroke-linecap="round" orgstroke="#000000" orgfill="none" transform="matrix(1 0 0 1 29 -31.99993896484375)" fill="none" stroke-linejoin="round" d="M621.614990234375 262.97698974609375L623.156005859375 262.1470031738281" stroke="#000000" stroke-width="0.25" g2gstroke="#312783" stroke-miterlimit="10"/>
<path stroke-linecap="round" orgstroke="#000000" orgfill="none" transform="matrix(1 0 0 1 29 -31.99993896484375)" fill="none" stroke-linejoin="round" d="M637.0579833984375 296.6619873046875L637.0579833984375 279.62200927734375" stroke="#000000" stroke-width="0.25" g2gstroke="#312783" stroke-miterlimit="10"/>
<path stroke-linecap="round" orgstroke="#000000" orgfill="none" transform="matrix(1 0 0 1 29 -31.99993896484375)" fill="none" stroke-linejoin="round" d="M652.5170288085938 288.2539978027344L652.5170288085938 287.6910095214844" stroke="#000000" stroke-width="0.25" g2gstroke="#312783" stroke-miterlimit="10"/>
<path stroke-linecap="round" orgstroke="#000000" orgfill="none" transform="matrix(1 0 0 1 29 -31.99993896484375)" fill="none" stroke-linejoin="round" d="   M605.823,259.382c0,0-1.726-1.664-1.959-2.937c-0.646-3.59-2.939-4.864-4.479-4.104" stroke="#000000" stroke-width="0.25" g2gstroke="#312783" stroke-miterlimit="10"/>
<path stroke-linecap="round" orgstroke="#000000" orgfill="none" transform="matrix(1 0 0 1 29 -31.99993896484375)" fill="none" stroke-linejoin="round" d="M624.5980224609375 263.4540100097656L623.6719970703125 262.9549865722656" stroke="#000000" stroke-width="0.25" g2gstroke="#312783" stroke-miterlimit="10"/>
<path stroke-linecap="round" orgstroke="#000000" orgfill="none" transform="matrix(1 0 0 1 29 -31.99993896484375)" fill="none" stroke-linejoin="round" d="M641.9190063476562 272.68798828125L639.458984375 271.3609924316406" stroke="#000000" stroke-width="0.25" g2gstroke="#312783" stroke-miterlimit="10"/>
<path stroke-linecap="round" orgstroke="#000000" orgfill="none" transform="matrix(1 0 0 1 29 -31.99993896484375)" fill="none" stroke-linejoin="round" d="M623.822998046875 264.385986328125L622.364990234375 263.5979919433594" stroke="#000000" stroke-width="0.25" g2gstroke="#312783" stroke-miterlimit="10"/>
<path stroke-linecap="round" orgstroke="#000000" orgfill="none" transform="matrix(1 0 0 1 29 -31.99993896484375)" fill="none" stroke-linejoin="round" d="M640.6309814453125 273.343994140625L638.4849853515625 272.1860046386719" stroke="#000000" stroke-width="0.25" g2gstroke="#312783" stroke-miterlimit="10"/>
<path stroke-linecap="round" orgstroke="#000000" orgfill="none" transform="matrix(1 0 0 1 29 -31.99993896484375)" fill="none" stroke-linejoin="round" d="M637.0579833984375 296.6319885253906L634.989990234375 295.5169982910156" stroke="#000000" stroke-width="0.25" g2gstroke="#312783" stroke-miterlimit="10"/>
<path stroke-linecap="round" orgstroke="#000000" orgfill="none" transform="matrix(1 0 0 1 29 -31.99993896484375)" fill="none" stroke-linejoin="round" d="M636.6370239257812 279.4440002441406L634.9730224609375 278.5570068359375" stroke="#000000" stroke-width="0.25" g2gstroke="#312783" stroke-miterlimit="10"/>
<path stroke-linecap="round" orgstroke="#000000" orgfill="none" transform="matrix(1 0 0 1 29 -31.99993896484375)" fill="none" stroke-linejoin="round" d="M638.4409790039062 276.65301513671875L636.3770141601562 275.5400085449219" stroke="#000000" stroke-width="0.25" g2gstroke="#312783" stroke-miterlimit="10"/>
<path stroke-linecap="round" orgstroke="#000000" orgfill="none" transform="matrix(1 0 0 1 29 -31.99993896484375)" fill="none" stroke-linejoin="round" d="M651.031005859375 270.0140075683594L648.9760131835938 268.9020080566406" stroke="#000000" stroke-width="0.25" g2gstroke="#312783" stroke-miterlimit="10"/>
<path stroke-linecap="round" orgstroke="#000000" orgfill="none" transform="matrix(1 0 0 1 29 -31.99993896484375)" fill="none" stroke-linejoin="round" d="   M637.058,279.624c-0.445-0.016-0.705-0.41-0.613-1.021c0.115-0.779,0.76-1.618,1.438-1.873c0.296-0.112,0.55-0.093,0.729,0.021" stroke="#000000" stroke-width="0.25" g2gstroke="#312783" stroke-miterlimit="10"/>
<path stroke-linecap="round" orgstroke="#000000" orgfill="none" transform="matrix(1 0 0 1 29 -31.99993896484375)" fill="none" stroke-linejoin="round" d="   M651.06,270.04c0.271-0.539,0.733-1.015,1.213-1.198c0.261-0.099,0.487-0.095,0.663-0.01" stroke="#000000" stroke-width="0.25" g2gstroke="#312783" stroke-miterlimit="10"/>
<path stroke-linecap="round" orgstroke="#000000" orgfill="none" transform="matrix(1 0 0 1 29 -31.99993896484375)" fill="none" stroke-linejoin="round" d="   M636.698,298.818c-0.219-0.162-0.313-0.479-0.258-0.903c0.064-0.438,0.299-0.895,0.607-1.257" stroke="#000000" stroke-width="0.25" g2gstroke="#312783" stroke-miterlimit="10"/>
<path stroke-linecap="round" orgstroke="#000000" orgfill="none" transform="matrix(1 0 0 1 29 -31.99993896484375)" fill="none" stroke-linejoin="round" d="   M599.309,254.175c0.139,0.933,0.896,1.914,1.699,2.227c0.797,0.301,1.334-0.2,1.188-1.123c-0.14-0.921-0.896-1.912-1.688-2.214   C599.698,252.753,599.17,253.254,599.309,254.175z" stroke="#000000" stroke-width="0.25" g2gstroke="#312783" stroke-miterlimit="10"/>
<path stroke-linecap="round" orgstroke="#000000" orgfill="none" transform="matrix(1 0 0 1 29 -31.99993896484375)" fill="none" stroke-linejoin="round" d="   M628.975,303.511c0.629-0.313,1.099-1.063,1.099-2.035" stroke="#000000" stroke-width="0.25" g2gstroke="#312783" stroke-miterlimit="10"/>
<path stroke-linecap="round" orgstroke="#000000" orgfill="none" transform="matrix(1 0 0 1 29 -31.99993896484375)" fill="none" stroke-linejoin="round" d="   M628.781,301.595c-0.141-0.922-0.896-1.914-1.698-2.216c-0.798-0.313-1.335,0.189-1.188,1.109c0.138,0.932,0.896,1.912,1.698,2.227   C628.382,303.016,628.918,302.516,628.781,301.595z" stroke="#000000" stroke-width="0.25" g2gstroke="#312783" stroke-miterlimit="10"/>
<path stroke-linecap="round" orgstroke="#000000" orgfill="none" transform="matrix(1 0 0 1 29 -31.99993896484375)" fill="none" stroke-linejoin="round" d="   M626.232,269.842c0.138,0.933,0.899,1.912,1.698,2.225c0.8,0.302,1.336-0.199,1.195-1.121c-0.146-0.921-0.896-1.912-1.696-2.214   C626.629,268.419,626.092,268.921,626.232,269.842z" stroke="#000000" stroke-width="0.25" g2gstroke="#312783" stroke-miterlimit="10"/>
<path stroke-linecap="round" orgstroke="#000000" orgfill="none" transform="matrix(1 0 0 1 29 -31.99993896484375)" fill="none" stroke-linejoin="round" d="   M623.656,262.98c0.021,0.188-0.14,0.389-0.458,0.511c-0.501,0.19-1.208,0.125-1.578-0.146" stroke="#000000" stroke-width="0.25" g2gstroke="#312783" stroke-miterlimit="10"/>
<path stroke-linecap="round" orgstroke="#000000" orgfill="none" transform="matrix(1 0 0 1 29 -31.99993896484375)" fill="none" stroke-linejoin="round" d="   M623.156,262.146c0.106,0.04,0.2,0.086,0.281,0.146c0.368,0.271,0.261,0.646-0.242,0.831c-0.501,0.19-1.209,0.125-1.579-0.145" stroke="#000000" stroke-width="0.25" g2gstroke="#312783" stroke-miterlimit="10"/>
<path stroke-linecap="round" orgstroke="#000000" orgfill="none" transform="matrix(1 0 0 1 29 -31.99993896484375)" fill="none" stroke-linejoin="round" d="   M626.24,261.351c-0.768,0.217-1.646,0.563-2.668,1.063" stroke="#000000" stroke-width="0.25" g2gstroke="#312783" stroke-miterlimit="10"/>
<path stroke-linecap="round" orgstroke="#000000" orgfill="none" transform="matrix(1 0 0 1 29 -31.99993896484375)" fill="none" stroke-linejoin="round" d="   M638.312,265.62c-1.021,0.419-2.378,1.105-4.155,2.088l-1.297,0.688c-0.227,0.119-0.443,0.229-0.656,0.352" stroke="#000000" stroke-width="0.25" g2gstroke="#312783" stroke-miterlimit="10"/>
<path stroke-linecap="round" orgstroke="#000000" orgfill="none" transform="matrix(1 0 0 1 29 -31.99993896484375)" fill="none" stroke-linejoin="round" d="   M641.045,266.422c-1.106-0.015-2.82,0.683-5.89,2.236l-0.965,0.503c-0.646,0.354-1.246,0.688-1.787,1.013" stroke="#000000" stroke-width="0.25" g2gstroke="#312783" stroke-miterlimit="10"/>
<path stroke-linecap="round" orgstroke="#000000" orgfill="none" transform="matrix(1 0 0 1 29 -31.99993896484375)" fill="none" stroke-linejoin="round" d="   M634.972,279.275c-0.438,1.072-0.578,2.271-0.578,3.748v9.854c0,0.771,0.038,1.254,0.122,1.537" stroke="#000000" stroke-width="0.25" g2gstroke="#312783" stroke-miterlimit="10"/>
<path stroke-linecap="round" orgstroke="#000000" orgfill="none" transform="matrix(1 0 0 1 29 -31.99993896484375)" fill="none" stroke-linejoin="round" d="   M634.003,263.212c-1.063,0.396-2.539,1.129-4.564,2.247l-1.298,0.688c-0.996,0.521-1.858,1.021-2.6,1.502" stroke="#000000" stroke-width="0.25" g2gstroke="#312783" stroke-miterlimit="10"/>
<path stroke-linecap="round" orgstroke="#000000" orgfill="none" transform="matrix(1 0 0 1 29 -31.99993896484375)" fill="none" stroke-linejoin="round" d="   M636.357,264.172c-1.104-0.021-2.821,0.658-5.909,2.236l-0.367,0.194" stroke="#000000" stroke-width="0.25" g2gstroke="#312783" stroke-miterlimit="10"/>
<path stroke-linecap="round" orgstroke="#000000" orgfill="none" transform="matrix(1 0 0 1 29 -31.99993896484375)" fill="none" stroke-linejoin="round" d="M623.656005859375 262.6669921875L623.656005859375 263.0360107421875" stroke="#000000" stroke-width="0.25" g2gstroke="#312783" stroke-miterlimit="10"/>
<path stroke-linecap="round" orgstroke="#000000" orgfill="none" transform="matrix(1 0 0 1 29 -31.99993896484375)" fill="none" stroke-linejoin="round" d="   M636.99,271.138c-2.03,1.065-3.52,2.021-4.57,2.979" stroke="#000000" stroke-width="0.25" g2gstroke="#312783" stroke-miterlimit="10"/>
<path stroke-linecap="round" orgstroke="#000000" orgfill="none" transform="matrix(1 0 0 1 29 -31.99993896484375)" fill="none" stroke-linejoin="round" d="   M643.156,268.18c-1.093,0.347-2.688,1.104-4.979,2.294" stroke="#000000" stroke-width="0.25" g2gstroke="#312783" stroke-miterlimit="10"/>
<path stroke-linecap="round" orgstroke="#000000" orgfill="none" transform="matrix(1 0 0 1 29 -31.99993896484375)" fill="none" stroke-linejoin="round" d="   M638.18,272.186c-3.192,1.711-4.889,3.043-5.764,4.622" stroke="#000000" stroke-width="0.25" g2gstroke="#312783" stroke-miterlimit="10"/>
<path stroke-linecap="round" orgstroke="#000000" orgfill="none" transform="matrix(1 0 0 1 29 -31.99993896484375)" fill="none" stroke-linejoin="round" d="   M645.233,269.456c-1.153-0.013-2.847,0.568-5.773,2.063" stroke="#000000" stroke-width="0.25" g2gstroke="#312783" stroke-miterlimit="10"/>
<path stroke-linecap="round" orgstroke="#000000" orgfill="none" transform="matrix(1 0 0 1 29 -31.99993896484375)" fill="none" stroke-linejoin="round" d="   M639.448,271.513c0.021,0.21-0.146,0.423-0.5,0.555c-0.549,0.207-1.313,0.136-1.72-0.158c-0.164-0.119-0.242-0.257-0.239-0.392" stroke="#000000" stroke-width="0.25" g2gstroke="#312783" stroke-miterlimit="10"/>
<path stroke-linecap="round" orgstroke="#000000" orgfill="none" transform="matrix(1 0 0 1 29 -31.99993896484375)" fill="none" stroke-linejoin="round" d="   M639.217,270.763c0.396,0.293,0.285,0.688-0.271,0.896c-0.549,0.208-1.313,0.146-1.72-0.157c-0.396-0.296-0.286-0.689,0.263-0.897   C638.046,270.398,638.816,270.469,639.217,270.763z" stroke="#000000" stroke-width="0.25" g2gstroke="#312783" stroke-miterlimit="10"/>
<path stroke-linecap="round" orgstroke="#000000" orgfill="none" transform="matrix(1 0 0 1 29 -31.99993896484375)" fill="none" stroke-linejoin="round" d="M636.989990234375 271.13800048828125L636.989990234375 271.57598876953125" stroke="#000000" stroke-width="0.25" g2gstroke="#312783" stroke-miterlimit="10"/>
<path stroke-linecap="round" orgstroke="#000000" orgfill="none" transform="matrix(1 0 0 1 29 -31.99993896484375)" fill="none" stroke-linejoin="round" d="M639.447998046875 271.1709899902344L639.447998046875 271.57598876953125" stroke="#000000" stroke-width="0.25" g2gstroke="#312783" stroke-miterlimit="10"/>
<path stroke-linecap="round" orgstroke="#000000" orgfill="none" transform="matrix(1 0 0 1 29 -31.99993896484375)" fill="none" stroke-linejoin="round" d="   M619.416,264.386c0.354-0.346,1.555-1.063,2.977-1.824c1.421-0.771,2.824-1.29,3.743-1.217" stroke="#000000" stroke-width="0.25" g2gstroke="#312783" stroke-miterlimit="10"/>
<path stroke-linecap="round" orgstroke="#000000" orgfill="none" transform="matrix(1 0 0 1 29 -31.99993896484375)" fill="none" stroke-linejoin="round" d="M628.3920288085938 266.78399658203125L625.2999877929688 265.1159973144531" stroke="#000000" stroke-width="0.25" g2gstroke="#312783" stroke-miterlimit="10"/>
<path stroke-linecap="round" orgstroke="#000000" orgfill="none" transform="matrix(1 0 0 1 29 -31.99993896484375)" fill="none" stroke-linejoin="round" d="M636.9719848632812 271.4110107421875L632.2340087890625 268.8559875488281" stroke="#000000" stroke-width="0.25" g2gstroke="#312783" stroke-miterlimit="10"/>
<path stroke-linecap="round" orgstroke="#000000" orgfill="none" transform="matrix(1 0 0 1 29 -31.99993896484375)" fill="none" stroke-linejoin="round" d="M637.9310302734375 270.50201416015625L626.281005859375 264.2200012207031" stroke="#000000" stroke-width="0.25" g2gstroke="#312783" stroke-miterlimit="10"/>
<path stroke-linecap="round" orgstroke="#000000" orgfill="none" transform="matrix(1 0 0 1 29 -31.99993896484375)" fill="none" stroke-linejoin="round" d="   M623.823,264.072c-0.909,0.481-1.709,0.936-2.409,1.377" stroke="#000000" stroke-width="0.25" g2gstroke="#312783" stroke-miterlimit="10"/>
<path stroke-linecap="round" orgstroke="#000000" orgfill="none" transform="matrix(1 0 0 1 29 -31.99993896484375)" fill="none" stroke-linejoin="round" d="   M621.615,263.41c-0.72,0.379-1.358,0.743-1.955,1.097" stroke="#000000" stroke-width="0.25" g2gstroke="#312783" stroke-miterlimit="10"/>
<path stroke-linecap="round" orgstroke="#000000" orgfill="none" transform="matrix(1 0 0 1 29 -31.99993896484375)" fill="none" stroke-linejoin="round" d="   M629.361,261.335c-1.052,0.407-2.472,1.104-4.354,2.075" stroke="#000000" stroke-width="0.25" g2gstroke="#312783" stroke-miterlimit="10"/>
<path stroke-linecap="round" orgstroke="#000000" orgfill="none" transform="matrix(1 0 0 1 29 -31.99993896484375)" fill="none" stroke-linejoin="round" d="   M625.006,265.121c-0.768,0.405-1.438,0.79-2.027,1.161" stroke="#000000" stroke-width="0.25" g2gstroke="#312783" stroke-miterlimit="10"/>
<path stroke-linecap="round" orgstroke="#000000" orgfill="none" transform="matrix(1 0 0 1 29 -31.99993896484375)" fill="none" stroke-linejoin="round" d="   M632.086,262.391c-1.155-0.021-2.854,0.558-5.813,2.059" stroke="#000000" stroke-width="0.25" g2gstroke="#312783" stroke-miterlimit="10"/>
<path stroke-linecap="round" orgstroke="#000000" orgfill="none" transform="matrix(1 0 0 1 29 -31.99993896484375)" fill="none" stroke-linejoin="round" d="   M626.281,264.447c0.024,0.213-0.146,0.425-0.499,0.559c-0.548,0.205-1.313,0.144-1.719-0.151c-0.164-0.118-0.244-0.266-0.241-0.396   " stroke="#000000" stroke-width="0.25" g2gstroke="#312783" stroke-miterlimit="10"/>
<path stroke-linecap="round" orgstroke="#000000" orgfill="none" transform="matrix(1 0 0 1 29 -31.99993896484375)" fill="none" stroke-linejoin="round" d="   M626.043,263.698c0.396,0.294,0.276,0.699-0.27,0.906c-0.55,0.207-1.313,0.136-1.722-0.159c-0.404-0.293-0.286-0.698,0.263-0.907   C624.865,263.333,625.641,263.404,626.043,263.698z" stroke="#000000" stroke-width="0.25" g2gstroke="#312783" stroke-miterlimit="10"/>
<path stroke-linecap="round" orgstroke="#000000" orgfill="none" transform="matrix(1 0 0 1 29 -31.99993896484375)" fill="none" stroke-linejoin="round" d="M623.822998046875 264.0719909667969L623.822998046875 264.5090026855469" stroke="#000000" stroke-width="0.25" g2gstroke="#312783" stroke-miterlimit="10"/>
<path stroke-linecap="round" orgstroke="#000000" orgfill="none" transform="matrix(1 0 0 1 29 -31.99993896484375)" fill="none" stroke-linejoin="round" d="M626.281005859375 264.1059875488281L626.281005859375 264.5090026855469" stroke="#000000" stroke-width="0.25" g2gstroke="#312783" stroke-miterlimit="10"/>
<path stroke-linecap="round" orgstroke="#000000" orgfill="none" transform="matrix(1 0 0 1 29 -31.99993896484375)" fill="none" stroke-linejoin="round" d="   M584.362,260.401c-1.327-0.529-2.021-2.074-1.699-4.257c0.521-3.396,3.313-7.042,6.268-8.152c1.251-0.473,2.318-0.411,3.104,0.075" stroke="#000000" stroke-width="0.25" g2gstroke="#312783" stroke-miterlimit="10"/>
<path stroke-linecap="round" orgstroke="#000000" orgfill="none" transform="matrix(1 0 0 1 29 -31.99993896484375)" fill="none" stroke-linejoin="round" d="   M586.13,260.539c-0.289-0.721-0.376-1.641-0.226-2.717c0.521-3.39,3.313-7.04,6.265-8.151c0.318-0.125,0.643-0.21,0.938-0.262" stroke="#000000" stroke-width="0.25" g2gstroke="#312783" stroke-miterlimit="10"/>
<path stroke-linecap="round" orgstroke="#000000" orgfill="none" transform="matrix(1 0 0 1 29 -31.99993896484375)" fill="none" stroke-linejoin="round" d="   M587.404,261.986c-0.563-0.289-1.008-0.783-1.271-1.447" stroke="#000000" stroke-width="0.25" g2gstroke="#312783" stroke-miterlimit="10"/>
<path stroke-linecap="round" orgstroke="#000000" orgfill="none" transform="matrix(1 0 0 1 29 -31.99993896484375)" fill="none" stroke-linejoin="round" d="   M585.859,258.302c-1.019-0.246-1.582-1.313-1.348-2.856c0.335-2.215,2.164-4.599,4.086-5.325c0.938-0.354,1.729-0.248,2.256,0.216" stroke="#000000" stroke-width="0.25" g2gstroke="#312783" stroke-miterlimit="10"/>
<path stroke-linecap="round" orgstroke="#000000" orgfill="none" transform="matrix(1 0 0 1 29 -31.99993896484375)" fill="none" stroke-linejoin="round" d="   M650.711,282.087c-0.563,3.704-3.612,7.688-6.824,8.901c-3.215,1.214-5.365-0.809-4.813-4.51c0.563-3.701,3.614-7.688,6.825-8.896   C649.115,276.367,651.27,278.388,650.711,282.087z" stroke="#000000" stroke-width="0.25" g2gstroke="#312783" stroke-miterlimit="10"/>
<path stroke-linecap="round" orgstroke="#000000" orgfill="none" transform="matrix(1 0 0 1 29 -31.99993896484375)" fill="none" stroke-linejoin="round" d="   M648.14,277.26c0.618,0.846,0.872,2.107,0.635,3.688c-0.555,3.702-3.611,7.688-6.823,8.899c-0.803,0.305-1.541,0.397-2.186,0.325" stroke="#000000" stroke-width="0.25" g2gstroke="#312783" stroke-miterlimit="10"/>
<path stroke-linecap="round" orgstroke="#000000" orgfill="none" transform="matrix(1 0 0 1 29 -31.99993896484375)" fill="none" stroke-linejoin="round" d="   M638.311,277.931c-0.064,0.429-0.417,0.889-0.788,1.021c-0.372,0.146-0.621-0.094-0.557-0.521c0.063-0.435,0.418-0.896,0.79-1.029   C638.127,277.27,638.375,277.503,638.311,277.931z" stroke="#000000" stroke-width="0.25" g2gstroke="#312783" stroke-miterlimit="10"/>
<path stroke-linecap="round" orgstroke="#000000" orgfill="none" transform="matrix(1 0 0 1 29 -31.99993896484375)" fill="none" stroke-linejoin="round" d="   M652.856,269.785c-0.064,0.429-0.418,0.89-0.789,1.03c-0.372,0.14-0.62-0.093-0.557-0.522c0.063-0.428,0.417-0.89,0.79-1.021   C652.67,269.125,652.92,269.359,652.856,269.785z" stroke="#000000" stroke-width="0.25" g2gstroke="#312783" stroke-miterlimit="10"/>
<path stroke-linecap="round" orgstroke="#000000" orgfill="none" transform="matrix(1 0 0 1 29 -31.99993896484375)" fill="none" stroke-linejoin="round" d="   M653.188,289.301c-0.064,0.438-0.418,0.896-0.789,1.031c-0.372,0.146-0.62-0.095-0.555-0.521c0.063-0.437,0.416-0.896,0.788-1.027   C653.004,288.64,653.252,288.875,653.188,289.301z" stroke="#000000" stroke-width="0.25" g2gstroke="#312783" stroke-miterlimit="10"/>
<path stroke-linecap="round" orgstroke="#000000" orgfill="none" transform="matrix(1 0 0 1 29 -31.99993896484375)" fill="none" stroke-linejoin="round" d="   M638.311,297.194c-0.064,0.429-0.417,0.888-0.788,1.027c-0.372,0.141-0.621-0.104-0.557-0.521c0.063-0.429,0.418-0.889,0.79-1.029   C638.128,296.531,638.375,296.764,638.311,297.194z" stroke="#000000" stroke-width="0.25" g2gstroke="#312783" stroke-miterlimit="10"/>
<path stroke-linecap="round" orgstroke="#000000" orgfill="none" transform="matrix(1 0 0 1 29 -31.99993896484375)" fill="none" stroke-linejoin="round" d="   M651.692,290.967c-0.188-0.065-0.321-0.237-0.371-0.479" stroke="#000000" stroke-width="0.25" g2gstroke="#312783" stroke-miterlimit="10"/>
<path stroke-linecap="round" orgstroke="#000000" orgfill="none" transform="matrix(1 0 0 1 29 -31.99993896484375)" fill="none" stroke-linejoin="round" d="   M652.523,288.264c0.067-0.039,0.135-0.069,0.204-0.104c0.289-0.104,0.537-0.092,0.715,0.026" stroke="#000000" stroke-width="0.25" g2gstroke="#312783" stroke-miterlimit="10"/>
<path stroke-linecap="round" orgstroke="#000000" orgfill="none" transform="matrix(1 0 0 1 29 -31.99993896484375)" fill="none" stroke-linejoin="round" d="   M630.073,301.456v-29.809c0-2.964-2.159-3.822-2.895-3.854c-1.813-0.076-2.405,1.776-2.405,1.776l-19.007-10.204" stroke="#000000" stroke-width="0.25" g2gstroke="#312783" stroke-miterlimit="10"/>
<path stroke-linecap="round" orgstroke="#000000" orgfill="none" transform="matrix(1 0 0 1 29 -31.99993896484375)" fill="none" stroke-linejoin="round" d="   M601.795,285.893c-0.146-0.92-0.898-1.912-1.697-2.214c-0.8-0.311-1.338,0.189-1.197,1.122c0.139,0.919,0.898,1.901,1.698,2.214   C601.397,287.317,601.932,286.815,601.795,285.893z" stroke="#000000" stroke-width="0.25" g2gstroke="#312783" stroke-miterlimit="10"/>
<path stroke-linecap="round" orgstroke="#000000" orgfill="none" transform="matrix(1 0 0 1 29 -31.99993896484375)" fill="none" stroke-linejoin="round" d="   M601.965,287.708c0.938-0.479,1.286-1.54,1.286-1.54l0.794,0.438" stroke="#000000" stroke-width="0.25" g2gstroke="#312783" stroke-miterlimit="10"/>
<path stroke-linecap="round" orgstroke="#000000" orgfill="none" transform="matrix(1 0 0 1 29 -31.99993896484375)" fill="none" stroke-linejoin="round" d="M621.614990234375 262.97698974609375L621.614990234375 263.4100036621094" stroke="#000000" stroke-width="0.25" g2gstroke="#312783" stroke-miterlimit="10"/>
<path stroke-linecap="round" orgstroke="#000000" orgfill="none" transform="matrix(1 0 0 1 29 -31.99993896484375)" fill="none" stroke-linejoin="round" d="   M603.982,282.164l17.706,9.621c1.936,1.042,3.096,1.196,3.096-1.577v-13.021c0-1.358-0.099-2.217-1.213-2.817l-18.683-10.146   c-1.493-0.813-2.28-0.449-2.28,1.258v12.521C602.61,280.375,602.74,281.495,603.982,282.164z" stroke="#000000" stroke-width="0.25" g2gstroke="#312783" stroke-miterlimit="10"/>
<path stroke-linecap="round" orgstroke="#000000" orgfill="none" transform="matrix(1 0 0 1 29 -31.99993896484375)" fill="none" stroke-linejoin="round" d="   M605.507,264.553v12.304c0,2.367,0.131,3.487,1.37,4.155l17.707,9.611c0.063,0.034,0.112,0.066,0.184,0.104" stroke="#000000" stroke-width="0.25" g2gstroke="#312783" stroke-miterlimit="10"/>
</g>
</g>
</g>
</g>
</g></svg>