<svg xmlns="http://www.w3.org/2000/svg" xmlns:xlink="http://www.w3.org/1999/xlink" xmlns:etg="http://www.eurotaxglass.com/etg/evd/" etg:dataTimestamp="1539068912893" contentScriptType="text/ecmascript" zoomAndPan="magnify" contentStyleType="text/css" id="Layer_1" enable-background="new 0 0 1841.891 1595.279" version="1.1" width="1841.891px" xml:space="preserve" preserveAspectRatio="xMidYMid meet" viewBox="0 0 1841.891 1595.279" height="1595.279px" x="0px" y="0px"><g xmlns="http://www.w3.org/2000/svg" objecttype="PS" tooltip="#UNDEFINED" id="13">
<g onmouseover="notifyOwner(AGV_OBJECT_MOUSEOVER, '13(PS)')" transform="translate(-68.32613696289064, 39.172626831054686) translate(-22.05254011048038, 11.813860773471674)" onclick="clickZoom(evt); notifyOwner(AGV_OBJECT_MOUSECLICK, '13(PS)')" onmouseout="notifyOwner(AGV_OBJECT_MOUSEOUT, '13(PS)')" tooltip="#UNDEFINED" id="13-Graphic" objecttype="GRAPHIC">
<g>
	<path orgstroke="#000000" orgfill="#ffffff" fill="#ffffff" g2gfill="#ECF5E4" d="M338.132,324.68   c0.123-0.893,0.38-2.229,1.172-3.128c0,0,0.836-0.957,0.937-0.957l26.762-15.659c0.411-0.24,1.596-0.375,1.596-0.375   c0.091,0.008,0.186,0.026,0.284,0.057c2.192,0.682,8.61,4.387,8.61,4.387s1.928,1.819,2.005,3.474s0,12.821,0,12.821   s-0.02,0.693,0.885,1.533s2.552,1.791,2.552,1.791l0.126,0.219v0.844c0,0,0.026,0.305-0.262,0.473l-2.739,1.603l-3.591-0.931   l-17.978,10.437l0.396,2.8l-3.272,1.987c-0.362,0.209-0.983,0.194-0.983,0.194l-1.3-0.78c0,0-1.446-0.835-2.24-1.572   c-0.794-0.737-0.777-1.346-0.777-1.346s-0.011-7.768-0.004-10.499l-0.392-0.299l-10.621,6.132l-0.375,0.084l-0.701-0.405   c0,0-3.903-2.502-4.309-3.689s-0.063-1.156-1.625-2.406s-2.75-2.031-2.75-2.031l-0.25-0.813v-6.313l0.125-0.625l1.094-0.75h0.281   l6.828,3.942L338.132,324.68z" outline-element="true" stroke="#000000" stroke-width="0.5" g2gstroke="#312783" stroke-miterlimit="10"/>
	<path orgstroke="#000000" orgfill="none" fill="none" stroke-linejoin="round" d="M340.253,321.06   c0.124-0.002,0.254,0.018,0.392,0.061c2.192,0.682,8.61,4.387,8.61,4.387s1.928,1.819,2.005,3.474s0,12.821,0,12.821   s-0.02,0.693,0.885,1.533c0.685,0.637,1.797,1.337,2.296,1.639c0,0,0.471,0.185,0.739,0.028l3.108-1.818" stroke="#000000" stroke-width="0.25" g2gstroke="#312783" stroke-miterlimit="10"/>
	<path orgstroke="#000000" orgfill="none" fill="none" stroke-linejoin="round" d="M338.882,337.634   v-10.016c0,0,0.191-5.738,2.116-5.14c1.924,0.599,7.558,3.851,7.558,3.851s1.795,1.295,1.76,4.967c0,0.038-0.001,0.081-0.001,0.13" stroke="#000000" stroke-width="0.25" g2gstroke="#312783" stroke-miterlimit="10"/>
	
		<line orgstroke="#000000" orgfill="none" fill="none" x1="351.853" x2="378.879" y1="328.439" y2="312.627" stroke-linejoin="round" stroke="#000000" stroke-width="0.25" g2gstroke="#312783" stroke-miterlimit="10"/>
	
		<line orgstroke="#000000" orgfill="none" fill="none" x1="350.393" x2="377.418" y1="325.532" y2="309.719" stroke-linejoin="round" stroke="#000000" stroke-width="0.25" g2gstroke="#312783" stroke-miterlimit="10"/>
	
		<line orgstroke="#000000" orgfill="none" fill="none" x1="351.853" x2="378.879" y1="341.926" y2="326.113" stroke-linejoin="round" stroke="#000000" stroke-width="0.25" g2gstroke="#312783" stroke-miterlimit="10"/>
	<polyline orgstroke="#000000" orgfill="none" points="   358.449,341.163 358.305,340.142 376.469,329.514 380.06,330.445 382.799,328.843  " fill="none" stroke-linejoin="round" stroke="#000000" stroke-width="0.25" g2gstroke="#312783" stroke-miterlimit="10"/>
	
		<ellipse orgstroke="#000000" orgfill="none" fill="none" stroke-linejoin="round" rx="1.563" cx="355.195" ry="0.813" cy="342.738" stroke="#000000" stroke-width="0.25" g2gstroke="#312783" stroke-miterlimit="10"/>
	
		<ellipse orgstroke="#000000" orgfill="none" fill="none" stroke-linejoin="round" rx="1.563" cx="348.031" ry="0.813" cy="322.434" stroke="#000000" stroke-width="0.25" g2gstroke="#312783" stroke-miterlimit="10"/>
	
		<ellipse orgstroke="#000000" orgfill="none" fill="none" stroke-linejoin="round" rx="1.563" cx="370.796" ry="0.813" cy="308.258" stroke="#000000" stroke-width="0.25" g2gstroke="#312783" stroke-miterlimit="10"/>
	
		<ellipse orgstroke="#000000" orgfill="none" fill="none" stroke-linejoin="round" rx="1.563" cx="379.549" ry="0.813" cy="328.624" stroke="#000000" stroke-width="0.25" g2gstroke="#312783" stroke-miterlimit="10"/>
	
		<line orgstroke="#000000" orgfill="none" fill="none" x1="376.476" x2="376.476" y1="329.655" y2="330.561" stroke-linejoin="round" stroke="#000000" stroke-width="0.25" g2gstroke="#312783" stroke-miterlimit="10"/>
	<path orgstroke="#000000" orgfill="none" fill="none" stroke-linejoin="round" d="M329.976,321.999   l7.438,4.188c0,0,0.572,0.438,0.572,0.781v9.781" stroke="#000000" stroke-width="0.25" g2gstroke="#312783" stroke-miterlimit="10"/>
	<path orgstroke="#000000" orgfill="none" fill="none" stroke-linejoin="round" d="M331.757,326.159   c0,0.362-0.294,0.486-0.656,0.277s-0.656-0.673-0.656-1.035s0.294-0.486,0.656-0.277S331.757,325.797,331.757,326.159z" stroke="#000000" stroke-width="0.25" g2gstroke="#312783" stroke-miterlimit="10"/>
	
		<line orgstroke="#000000" orgfill="none" fill="none" x1="332.57" x2="332.57" y1="324.218" y2="331.218" stroke-linejoin="round" stroke="#000000" stroke-width="0.25" g2gstroke="#312783" stroke-miterlimit="10"/>
	
		<line orgstroke="#000000" orgfill="none" fill="none" x1="338.132" x2="337.986" y1="325.022" y2="326.468" stroke-linejoin="round" stroke="#000000" stroke-width="0.25" g2gstroke="#312783" stroke-miterlimit="10"/>
</g>
</g>
</g></svg>