<svg xmlns="http://www.w3.org/2000/svg" xmlns:xlink="http://www.w3.org/1999/xlink" xmlns:etg="http://www.eurotaxglass.com/etg/evd/" etg:dataTimestamp="1539068912893" contentScriptType="text/ecmascript" zoomAndPan="magnify" contentStyleType="text/css" id="Layer_1" enable-background="new 0 0 1841.891 1595.279" version="1.1" width="1841.891px" xml:space="preserve" preserveAspectRatio="xMidYMid meet" viewBox="0 0 1841.891 1595.279" height="1595.279px" x="0px" y="0px"><g xmlns="http://www.w3.org/2000/svg" objecttype="PS" tooltip="#UNDEFINED" id="16">
<g onmouseover="notifyOwner(AGV_OBJECT_MOUSEOVER, '16(PS)')" transform="translate(-68.32613696289064, 39.172626831054686) translate(8.0, -19.0) translate(-4.0, 15.0) translate(-3.0, 5.0) translate(15.0, -19.0) translate(3.0, -6.0) translate(-9.0, 13.0) translate(3.1503628729257684, -6.300725745851537) translate(2.756567513810012, 1.181386077347156) translate(-35.047786961299266, -3.937953591157168) translate(20,20) " onclick="clickZoom(evt); notifyOwner(AGV_OBJECT_MOUSECLICK, '16(PS)')" onmouseout="notifyOwner(AGV_OBJECT_MOUSEOUT, '16(PS)')" tooltip="#UNDEFINED" id="16-Graphic" objecttype="GRAPHIC">
<g zvalue="5">
<g>
<path orgstroke="#000000" orgfill="#ffffff" fill="#ffffff" g2gfill="#ECC35D" stroke-linejoin="round" d="M471.2510070800781 327.468994140625L475.5150146484375 325.0249938964844L476.0580139160156 324.8429870605469L476.87298583984375 324.8429870605469L477.85699462890625 324.9599914550781L481.6919860839844 327.0369873046875L482.4779968261719 328.1919860839844L483.8630065917969 328.9410095214844L485.26800537109375 328.9679870605469L489.17999267578125 331.0889892578125L489.75201416015625 331.46099853515625L489.9339904785156 331.8240051269531L490.20098876953125 332.0950012207031L490.02398681640625 333.72698974609375L489.9339904785156 334.09100341796875L486.21600341796875 336.718994140625L485.6700134277344 336.80999755859375L485.1440124511719 336.5509948730469L480.5270080566406 334.04901123046875L479.8810119628906 333.0790100097656L478.9289855957031 332.5660095214844L477.61199951171875 332.47198486328125L474.2980041503906 330.6759948730469L473.447998046875 330.79901123046875L456.8370056152344 353.4960021972656L456.31500244140625 353.760986328125L454.0220031738281 354.5830078125L452.7539978027344 354.9219970703125L451.6449890136719 354.9219970703125L450.19500732421875 354.197998046875L448.85400390625 353.614013671875L377.3080139160156 322.4590148925781L375.8559875488281 321.489013671875L375.1310119628906 319.5539855957031L368.8429870605469 276.9949951171875L368.1180114746094 275.302001953125L366.6669921875 273.6080017089844L363.9079895019531 271.92401123046875L363.2539978027344 270.8380126953125L362.23199462890625 270.2120056152344L361.0400085449219 270.17401123046875L359.06201171875 268.9639892578125L358.89300537109375 268.2539978027344L359.2560119628906 266.5320129394531L359.52801513671875 266.07598876953125L362.9729919433594 263.8070068359375L363.4259948730469 263.5369873046875L364.06201171875 263.5369873046875L364.5920104980469 263.85400390625L365.7090148925781 264.5379943847656L366.1889953613281 265.489013671875L367.1910095214844 266.10198974609375L368.7239990234375 266.3800048828125L373.697998046875 269.4169921875L375.1499938964844 271.1080017089844L375.875 272.8009948730469L382.16400146484375 315.364990234375L382.8900146484375 317.29901123046875L384.3399963378906 318.26300048828125L454.22698974609375 348.73699951171875L454.447998046875 348.8479919433594L455.5450134277344 348.62799072265625L470.4729919433594 328.3169860839844Z" stroke="#000000" outline-element="true" stroke-width="0.5" g2gstroke="#312783" stroke-miterlimit="10"/>
<path orgstroke="#000000" orgfill="none" fill="none" stroke-linejoin="round" d="M471.12799072265625 327.86199951171875L471.5849914550781 327.6319885253906L472.7959899902344 327.385009765625L477.7359924316406 330.0669860839844L479.40399169921875 330.197998046875L480.6440124511719 330.8680114746094L480.97198486328125 331.82000732421875L484.40301513671875 333.67498779296875" stroke="#000000" stroke-width="0.25" g2gstroke="#312783" stroke-miterlimit="10"/>
<path orgstroke="#000000" orgfill="none" fill="none" stroke-linejoin="round" d="M359.8179931640625 266.4389953613281L361.3210144042969 267.3590087890625L362.4620056152344 267.531005859375L363.5270080566406 268.17999267578125L364.0450134277344 269.0199890136719L368.92498779296875 272.00201416015625L370.375 273.6929931640625L371.10101318359375 275.385009765625L377.3909912109375 317.947998046875L378.1159973144531 319.885009765625L379.5669860839844 320.85101318359375L449.447998046875 351.322998046875L450.90399169921875 352.0459899902344L452.5979919433594 351.802001953125L453.5639953613281 351.322998046875L455.2330017089844 349.052001953125" stroke="#000000" stroke-width="0.25" g2gstroke="#312783" stroke-miterlimit="10"/>
<path orgstroke="#000000" orgfill="none" fill="none" stroke-linejoin="round" d="M454.5669860839844 353.8370056152344L471.3630065917969 330.989013671875L472.322998046875 330.5050048828125L473.5320129394531 330.2590026855469L473.7300109863281 330.364990234375" stroke="#000000" stroke-width="0.25" g2gstroke="#312783" stroke-miterlimit="10"/>
<path orgstroke="#000000" orgfill="none" fill="none" stroke-linejoin="round" d="M484.30499267578125 333.6210021972656L485.4880065917969 334.09100341796875L485.760986328125 334.17999267578125L486.125 333.90899658203125L489.75201416015625 331.46099853515625" stroke="#000000" stroke-width="0.25" g2gstroke="#312783" stroke-miterlimit="10"/>
<path orgstroke="#000000" orgfill="none" fill="none" stroke-linejoin="round" d="M485.4880065917969 334.09100341796875L485.6700134277344 336.80999755859375" stroke="#000000" stroke-width="0.25" g2gstroke="#312783" stroke-miterlimit="10"/>
<path orgstroke="#000000" orgfill="none" fill="none" stroke-linejoin="round" d="M379.114990234375 318.82501220703125L381.7749938964844 317.37200927734375" stroke="#000000" stroke-width="0.25" g2gstroke="#312783" stroke-miterlimit="10"/>
<ellipse orgstroke="#000000" orgfill="none" fill="none" stroke-linejoin="round" rx="1.391" cx="391.051" cy="323.302" ry="0.848" stroke="#000000" stroke-width="0.25" g2gstroke="#312783" stroke-miterlimit="10"/>
<ellipse orgstroke="#000000" orgfill="none" fill="none" stroke-linejoin="round" rx="1.39" cx="437.133" cy="343.764" ry="0.847" stroke="#000000" stroke-width="0.25" g2gstroke="#312783" stroke-miterlimit="10"/>
<path orgstroke="#000000" orgfill="none" fill="none" stroke-linejoin="round" d="M477.7359924316406 330.0669860839844L477.7359924316406 332.364013671875" stroke="#000000" stroke-width="0.25" g2gstroke="#312783" stroke-miterlimit="10"/>
<path orgstroke="#000000" orgfill="none" fill="none" stroke-linejoin="round" d="M479.2330017089844 330.3710021972656L479.2330017089844 332.364013671875" stroke="#000000" stroke-width="0.25" g2gstroke="#312783" stroke-miterlimit="10"/>
<path orgstroke="#000000" orgfill="none" fill="none" stroke-linejoin="round" d="M480.97198486328125 331.82000732421875L480.97198486328125 334.04901123046875" stroke="#000000" stroke-width="0.25" g2gstroke="#312783" stroke-miterlimit="10"/>
<path orgstroke="#000000" orgfill="none" fill="none" stroke-linejoin="round" d="M361.3210144042969 267.3590087890625L361.1600036621094 269.97601318359375" stroke="#000000" stroke-width="0.25" g2gstroke="#312783" stroke-miterlimit="10"/>
<path orgstroke="#000000" orgfill="none" fill="none" stroke-linejoin="round" d="M362.4620056152344 267.531005859375L362.23199462890625 270.2120056152344" stroke="#000000" stroke-width="0.25" g2gstroke="#312783" stroke-miterlimit="10"/>
<path orgstroke="#000000" orgfill="none" fill="none" stroke-linejoin="round" d="M364.28399658203125 269.1679992675781L364.0159912109375 271.8370056152344" stroke="#000000" stroke-width="0.25" g2gstroke="#312783" stroke-miterlimit="10"/>
</g>
</g>
</g>
</g></svg>