<svg xmlns="http://www.w3.org/2000/svg" xmlns:xlink="http://www.w3.org/1999/xlink" xmlns:etg="http://www.eurotaxglass.com/etg/evd/" etg:dataTimestamp="1539068912893" contentScriptType="text/ecmascript" zoomAndPan="magnify" contentStyleType="text/css" id="Layer_1" enable-background="new 0 0 1841.891 1595.279" version="1.1" width="1841.891px" xml:space="preserve" preserveAspectRatio="xMidYMid meet" viewBox="0 0 1841.891 1595.279" height="1595.279px" x="0px" y="0px"><g xmlns="http://www.w3.org/2000/svg" objecttype="PS" tooltip="#UNDEFINED" id="22">
<g onmouseover="notifyOwner(AGV_OBJECT_MOUSEOVER, '22(PS)')" transform="translate(-92.0, 6.0) translate(-210.0, 81.0) translate(224,-140) " onclick="clickZoom(evt); notifyOwner(AGV_OBJECT_MOUSECLICK, '22(PS)')" onmouseout="notifyOwner(AGV_OBJECT_MOUSEOUT, '22(PS)')" tooltip="#UNDEFINED" id="22-Graphic" objecttype="GRAPHIC">
<g zvalue="16">
<g zvalue="13">
<g zvalue="15">
<g zvalue="15">
<g zvalue="14">
<g zvalue="13">
<g zvalue="19">
<g zvalue="9">
<g>
<path orgstroke="#000000" stroke="#000000" d="   M479.307,188.653c0.266,0.185,0.635,0.217,1.066,0.051c1.006-0.391,1.983-1.719,2.182-2.96c0.125-0.81-0.117-1.381-0.58-1.572   c-1.324-0.549-2.49-0.111-2.49-0.111c-7.172-2.907-10.971-2.634-15.065,1.088c-1.179,1.062-2.187,0.96-4.179,0.657   c-2.178-0.339-4.889-0.76-8.284,1.203c-5.396,3.119-23.32,20.842-31.935,29.357l-2.266,2.239   c-5.588,5.502-16.527,10.949-19.748,12.481c-0.371,0.174-1.488,0.713-1.535,1.907c-0.051,1.306,1.25,2.059,1.877,2.421l7.553,4.36   l-14.709,8.495c-0.666,0.378-1.039,0.441-1.809,0l-8.324-4.807c-1.291-0.743-2.226-0.432-2.666-0.171   c-0.44,0.252-1.174,0.901-1.174,2.39v4.132c0,0-1.353,0.753-1.353,2.402c0,0.313,0.174,0.645,0.534,0.923   c0.896,0.699,2.612,0.868,3.827,0.378c0.773-0.316,1.123-0.811,1.117-1.314c-0.042-1.915-1.187-2.389-1.187-2.389l0.012-3.483   l7.755,4.479c0.887,0.512,1.686,0.702,2.387,0.702c0.971,0,1.758-0.361,2.357-0.702l15.358-8.871   c1.019-0.587,1.529-1.314,1.529-2.167c0-0.843-0.516-1.571-1.529-2.153l-7.637-4.411c4.771-2.335,14.127-7.286,19.424-12.501   l2.271-2.239c7.86-7.773,26.271-25.977,31.342-28.901c2.502-1.445,4.375-1.159,6.367-0.849c2.031,0.314,4.332,0.677,6.6-1.389   c3.799-3.446,8.847-1.783,11.498-0.738C477.893,186.579,477.881,188.054,479.307,188.653z" stroke-linecap="round" outline-element="true" transform="translate(-1,14) translate(-16.0, -5.0) translate(124.0, 71.0) translate(-48,29) translate(-57.0, -10.0) translate(155.0, -192.0) translate(-78,120) translate(41.98552066802978, 33.60310452270505) translate(-18.0, -18.0) translate(12,5) translate(-8.0, 15.0) translate(20.0, -39.0) translate(20,20) translate(-150,-71) matrix(0.07571145750710397 -0.9971297684866047 0.9971297684866047 0.07571145750710397 243.8176305876724 636.1486510460251)" stroke-miterlimit="10" orgfill="#ffffff" fill="#ffffff" stroke-width="0.5" g2gfill="#ECF5E4" stroke-linejoin="round" g2gstroke="#312783"/>
<path orgstroke="#000000" orgfill="none" transform="translate(-1,14) translate(-16.0, -5.0) translate(124.0, 71.0) translate(-48,29) translate(-57.0, -10.0) translate(155.0, -192.0) translate(-78,120) translate(41.98552066802978, 33.60310452270505) translate(-18.0, -18.0) translate(12,5) translate(-8.0, 15.0) translate(20.0, -39.0) translate(20,20) translate(-150,-71) matrix(0.07571145750710397 -0.9971297684866047 0.9971297684866047 0.07571145750710397 243.8176305876724 636.1486510460251)" fill="none" d="M380.081,250.013   c0.023,0.266-0.19,0.542-0.602,0.708c-0.657,0.26-1.583,0.174-2.068-0.204c-0.158-0.124-0.256-0.261-0.281-0.405" stroke="#000000" stroke-width="0.25" g2gstroke="#312783" stroke-miterlimit="10"/>
<path orgstroke="#000000" orgfill="none" transform="translate(-1,14) translate(-16.0, -5.0) translate(124.0, 71.0) translate(-48,29) translate(-57.0, -10.0) translate(155.0, -192.0) translate(-78,120) translate(41.98552066802978, 33.60310452270505) translate(-18.0, -18.0) translate(12,5) translate(-8.0, 15.0) translate(20.0, -39.0) translate(20,20) translate(-150,-71) matrix(0.07571145750710397 -0.9971297684866047 0.9971297684866047 0.07571145750710397 243.8176305876724 636.1486510460251)" fill="none" d="M477.915,186.539   c-0.199-0.142-0.287-0.439-0.228-0.834c0.105-0.703,0.656-1.454,1.229-1.673c0.229-0.086,0.43-0.081,0.571,0.005" stroke="#000000" stroke-width="0.25" g2gstroke="#312783" stroke-miterlimit="10"/>
<path orgstroke="#000000" orgfill="none" transform="translate(-1,14) translate(-16.0, -5.0) translate(124.0, 71.0) translate(-48,29) translate(-57.0, -10.0) translate(155.0, -192.0) translate(-78,120) translate(41.98552066802978, 33.60310452270505) translate(-18.0, -18.0) translate(12,5) translate(-8.0, 15.0) translate(20.0, -39.0) translate(20,20) translate(-150,-71) matrix(0.07571145750710397 -0.9971297684866047 0.9971297684866047 0.07571145750710397 243.8176305876724 636.1486510460251)" fill="none" d="M479.305,188.656   c-0.359-0.247-0.533-0.778-0.424-1.488c0.19-1.241,1.17-2.568,2.186-2.963c0.351-0.137,0.656-0.142,0.908-0.041" stroke="#000000" stroke-width="0.25" g2gstroke="#312783" stroke-miterlimit="10"/>
<path orgstroke="#000000" orgfill="none" transform="translate(-1,14) translate(-16.0, -5.0) translate(124.0, 71.0) translate(-48,29) translate(-57.0, -10.0) translate(155.0, -192.0) translate(-78,120) translate(41.98552066802978, 33.60310452270505) translate(-18.0, -18.0) translate(12,5) translate(-8.0, 15.0) translate(20.0, -39.0) translate(20,20) translate(-150,-71) matrix(0.07571145750710397 -0.9971297684866047 0.9971297684866047 0.07571145750710397 243.8176305876724 636.1486510460251)" fill="none" d="M480.863,185.522   c0.42-0.161,0.697,0.121,0.617,0.638c-0.078,0.515-0.486,1.064-0.904,1.231c-0.422,0.164-0.696-0.121-0.618-0.639   C480.04,186.24,480.442,185.687,480.863,185.522z" stroke="#000000" stroke-width="0.25" g2gstroke="#312783" stroke-miterlimit="10"/>
</g>
</g>
</g>
</g>
</g>
</g>
</g>
</g>
</g>
</g>
</g></svg>