<svg xmlns="http://www.w3.org/2000/svg" xmlns:xlink="http://www.w3.org/1999/xlink" xmlns:etg="http://www.eurotaxglass.com/etg/evd/" etg:dataTimestamp="1539068912893" contentScriptType="text/ecmascript" zoomAndPan="magnify" contentStyleType="text/css" id="Layer_1" enable-background="new 0 0 1841.891 1595.279" version="1.1" width="1841.891px" xml:space="preserve" preserveAspectRatio="xMidYMid meet" viewBox="0 0 1841.891 1595.279" height="1595.279px" x="0px" y="0px"><g xmlns="http://www.w3.org/2000/svg" objecttype="PS" tooltip="#UNDEFINED" id="4">
<g onmouseover="notifyOwner(AGV_OBJECT_MOUSEOVER, '4(PS)')" transform="translate(-68.32613696289064, 39.172626831054686)" onclick="clickZoom(evt); notifyOwner(AGV_OBJECT_MOUSECLICK, '4(PS)')" onmouseout="notifyOwner(AGV_OBJECT_MOUSEOUT, '4(PS)')" tooltip="#UNDEFINED" id="4-Graphic" objecttype="GRAPHIC">
<g>
	<path orgstroke="#000000" orgfill="#ffffff" fill="#ffffff" g2gfill="#ECF5E4" stroke-linejoin="round" d="M483.478,243.741   l1.124-0.631h-0.028c0.091-0.096,0.146-0.241,0.146-0.43c0-0.538-0.438-1.229-0.979-1.538c-0.271-0.159-0.521-0.189-0.697-0.106   l-0.369,0.213l-0.338-0.134c-0.101-0.146-0.198-0.289-0.309-0.428l0.102-0.289l1.124-0.633h-0.028   c0.092-0.098,0.146-0.24,0.146-0.431c0-0.538-0.437-1.227-0.975-1.539c-0.275-0.155-0.523-0.188-0.701-0.104l-1.839,1.061   l-0.388,0.123c-0.269-0.053-0.514-0.055-0.729-0.008l-0.164,0.049l-7.119,4.146l-0.059,0.046c-0.309,0.267-0.487,0.7-0.487,1.281   c0,0.029,0,0.064,0.001,0.102l-0.098,0.349l-3.311,1.885l-0.116,0.067c-0.162,0.147-0.257,0.383-0.257,0.694   c0,0.832,0.675,1.896,1.506,2.377c0.354,0.206,0.685,0.271,0.938,0.213l0.201-0.079l3.002-1.751l0.285,0.068   c0.188,0.146,0.387,0.288,0.589,0.4c0.687,0.396,1.31,0.509,1.786,0.369l0.246-0.104l0.8-0.468l6.212-3.648l0.229-0.257   c0.101-0.157,0.176-0.347,0.221-0.567L483.478,243.741z" outline-element="true" stroke="#000000" stroke-width="0.5" g2gstroke="#312783" stroke-miterlimit="10"/>
	<path orgstroke="#000000" orgfill="none" fill="none" stroke-linejoin="round" d="M472.505,242.817   c0.35,0.04,0.734,0.176,1.146,0.412c1.521,0.875,2.745,2.813,2.745,4.33c0,0.288-0.045,0.538-0.126,0.752" stroke="#000000" stroke-width="0.25" g2gstroke="#312783" stroke-miterlimit="10"/>
	<path orgstroke="#000000" orgfill="none" fill="none" stroke-linejoin="round" d="M473.37,242.332   c0.435-0.035,0.95,0.103,1.511,0.421c1.517,0.875,2.74,2.813,2.74,4.329c0,0.379-0.074,0.695-0.216,0.945" stroke="#000000" stroke-width="0.25" g2gstroke="#312783" stroke-miterlimit="10"/>
	<path orgstroke="#000000" orgfill="none" fill="none" stroke-linejoin="round" d="M478.134,239.483   c0.434-0.034,0.95,0.099,1.507,0.42c1.518,0.875,2.744,2.813,2.744,4.329c0,0.379-0.075,0.696-0.215,0.945" stroke="#000000" stroke-width="0.25" g2gstroke="#312783" stroke-miterlimit="10"/>
	<path orgstroke="#000000" orgfill="none" fill="none" stroke-linejoin="round" d="M481.813,240.421   c-0.402-0.468-0.872-0.872-1.373-1.156c-0.215-0.124-0.423-0.223-0.623-0.289" stroke="#000000" stroke-width="0.25" g2gstroke="#312783" stroke-miterlimit="10"/>
	<path orgstroke="#000000" orgfill="none" fill="none" stroke-linejoin="round" d="M483.184,243.662   c0-0.021,0-0.047,0-0.071c0-0.656-0.234-1.397-0.622-2.098" stroke="#000000" stroke-width="0.25" g2gstroke="#312783" stroke-miterlimit="10"/>
	<path orgstroke="#000000" orgfill="none" fill="none" stroke-linejoin="round" d="M467.954,246.719   c0.196,0.02,0.416,0.093,0.648,0.227c0.833,0.481,1.508,1.545,1.508,2.378c0,0.156-0.021,0.293-0.064,0.409" stroke="#000000" stroke-width="0.25" g2gstroke="#312783" stroke-miterlimit="10"/>
	<path orgstroke="#000000" orgfill="none" fill="none" stroke-linejoin="round" d="M473.156,248.026   l0.337-0.198l0.156-0.06c0.142-0.147,0.213-0.366,0.213-0.648c0-0.833-0.674-1.896-1.507-2.379   c-0.416-0.24-0.792-0.288-1.063-0.174l-0.188,0.103" stroke="#000000" stroke-width="0.25" g2gstroke="#312783" stroke-miterlimit="10"/>
</g>
</g>
</g></svg>