<svg xmlns="http://www.w3.org/2000/svg" xmlns:xlink="http://www.w3.org/1999/xlink" xmlns:etg="http://www.eurotaxglass.com/etg/evd/" etg:dataTimestamp="1539068912893" contentScriptType="text/ecmascript" zoomAndPan="magnify" contentStyleType="text/css" id="Layer_1" enable-background="new 0 0 1841.891 1595.279" version="1.1" width="1841.891px" xml:space="preserve" preserveAspectRatio="xMidYMid meet" viewBox="0 0 1841.891 1595.279" height="1595.279px" x="0px" y="0px"><g xmlns="http://www.w3.org/2000/svg" objecttype="PS" tooltip="#UNDEFINED" id="41">
<g onmouseover="notifyOwner(AGV_OBJECT_MOUSEOVER, '41(PS)')" onclick="clickZoom(evt); notifyOwner(AGV_OBJECT_MOUSECLICK, '41(PS)')" onmouseout="notifyOwner(AGV_OBJECT_MOUSEOUT, '41(PS)')" tooltip="#UNDEFINED" id="41-Graphic" objecttype="GRAPHIC">
<g>
	<path orgstroke="#000000" orgfill="#ffffff" fill="#ffffff" g2gfill="#ECF5E4" d="M558.938,440.241l-4.664-3.54l-1.125-1.264   l-0.716-1.021l-0.605-1.061l-0.521-1.127l-0.461-1.232l-0.303-1.021l-0.307-1.313l-0.234-1.563l-0.222-0.992l-0.313-0.627   l-0.47-0.825c-0.423-1.586-0.646-3.366-0.646-5.325c0-14.004,11.354-31.896,25.354-39.979c4.604-2.661,8.938-3.938,12.649-3.938   l0.972,0.145l0.838,0.104l1.354-0.152l1.462-0.146l1.41,0.052l1.979,0.157l1.521,0.313l1.396,0.47l1.271,0.56l1.063,0.604   l4.238,3.047c3.573,2.646,5.688,7.307,5.688,13.676c0,15.521-12.583,35.368-28.104,44.332c-8.68,5.02-16.438,5.563-21.6,2.354   L558.938,440.241z" outline-element="true" stroke="#000000" stroke-width="0.5" g2gstroke="#312783" stroke-miterlimit="10"/>
	<path orgstroke="#000000" orgfill="none" fill="none" d="M564.695,397.526   c4.688-6.18,10.479-11.589,16.759-15.215c8.17-4.716,15.525-5.479,20.66-2.877" stroke="#000000" stroke-width="0.25" g2gstroke="#312783" stroke-miterlimit="10"/>
	<path orgstroke="#000000" orgfill="none" fill="none" d="M556.953,410.771   c1.372-3.229,3.104-6.438,5.107-9.515" stroke="#000000" stroke-width="0.25" g2gstroke="#312783" stroke-miterlimit="10"/>
	<path orgstroke="#000000" orgfill="none" fill="none" d="M557.421,438.888   c-2.589-2.771-4.072-6.896-4.072-12.237c0-2.755,0.396-5.646,1.138-8.592" stroke="#000000" stroke-width="0.25" g2gstroke="#312783" stroke-miterlimit="10"/>
	<path orgstroke="#000000" orgfill="none" fill="none" d="M572.963,422.695   c-1.354-1.227-2.146-3.188-2.146-5.806c0-6.964,5.646-15.866,12.604-19.886c3.788-2.188,7.188-2.479,9.495-1.181" stroke="#000000" stroke-width="0.25" g2gstroke="#312783" stroke-miterlimit="10"/>
	<path orgstroke="#000000" orgfill="none" fill="none" d="M576.296,407.95   c2.313-3.874,5.646-7.393,9.342-9.521c6.971-4.021,12.604-1.646,12.604,5.314c0,6.978-5.646,15.86-12.604,19.896   c-6.965,4.021-12.604,1.636-12.604-5.328c0-1.729,0.354-3.569,0.979-5.428" stroke="#000000" stroke-width="0.25" g2gstroke="#312783" stroke-miterlimit="10"/>
	<path orgstroke="#000000" orgfill="none" fill="none" d="M585.64,414.18   c-2.071,1.188-3.76,0.479-3.76-1.596c0-2.063,1.688-4.729,3.76-5.907c2.063-1.197,3.752-0.486,3.752,1.585   c0,0.712-0.198,1.479-0.545,2.26" stroke="#000000" stroke-width="0.25" g2gstroke="#312783" stroke-miterlimit="10"/>
	<path orgstroke="#000000" orgfill="none" fill="none" d="M586.974,406.349   c0.131,0.306,0.192,0.674,0.192,1.097c0,2.074-1.688,4.729-3.756,5.916c-0.338,0.196-0.666,0.341-0.979,0.438" stroke="#000000" stroke-width="0.25" g2gstroke="#312783" stroke-miterlimit="10"/>
	<path orgstroke="#000000" orgfill="none" fill="none" d="M592.921,400.638   c0,0.563-0.477,1.308-1.038,1.638c-0.564,0.331-1.038,0.133-1.038-0.438c0-0.567,0.474-1.313,1.038-1.646   C592.448,399.86,592.921,400.057,592.921,400.638z" stroke="#000000" stroke-width="0.25" g2gstroke="#312783" stroke-miterlimit="10"/>
	<path orgstroke="#000000" orgfill="none" fill="none" d="M585.031,403.026   c0,0.572-0.466,1.313-1.03,1.646c-0.57,0.317-1.035,0.132-1.035-0.44c0-0.573,0.465-1.306,1.035-1.636   C584.571,402.263,585.031,402.464,585.031,403.026z" stroke="#000000" stroke-width="0.25" g2gstroke="#312783" stroke-miterlimit="10"/>
	<path orgstroke="#000000" orgfill="none" fill="none" d="M578.875,412.95   c0,0.573-0.476,1.313-1.037,1.646c-0.573,0.331-1.038,0.133-1.038-0.44c0-0.567,0.465-1.306,1.038-1.636   C578.405,412.183,578.875,412.388,578.875,412.95z" stroke="#000000" stroke-width="0.25" g2gstroke="#312783" stroke-miterlimit="10"/>
	<path orgstroke="#000000" orgfill="none" fill="none" d="M582.921,419.347   c0,0.563-0.47,1.303-1.038,1.636c-0.563,0.33-1.029,0.132-1.029-0.441c0-0.563,0.466-1.305,1.029-1.635   C582.463,418.569,582.921,418.766,582.921,419.347z" stroke="#000000" stroke-width="0.25" g2gstroke="#312783" stroke-miterlimit="10"/>
	<path orgstroke="#000000" orgfill="none" fill="none" d="M590.423,414.15c0,0.573-0.47,1.313-1.029,1.636   c-0.572,0.333-1.038,0.146-1.038-0.438c0-0.572,0.466-1.313,1.038-1.646C589.963,413.388,590.423,413.574,590.423,414.15z" stroke="#000000" stroke-width="0.25" g2gstroke="#312783" stroke-miterlimit="10"/>
	<path orgstroke="#000000" orgfill="none" fill="none" d="M593.959,406.685   c0,0.572-0.477,1.305-1.038,1.635c-0.572,0.333-1.038,0.146-1.038-0.438s0.466-1.313,1.038-1.646   C593.488,405.924,593.959,406.109,593.959,406.685z" stroke="#000000" stroke-width="0.25" g2gstroke="#312783" stroke-miterlimit="10"/>
	<path orgstroke="#000000" orgfill="none" fill="none" d="M580.436,425.857   c-6.763,2.521-11.833-0.521-11.833-7.688c0-8.188,6.635-18.65,14.813-23.39c8.188-4.729,14.818-1.929,14.818,6.271" stroke="#000000" stroke-width="0.25" g2gstroke="#312783" stroke-miterlimit="10"/>
	<path orgstroke="#000000" orgfill="none" fill="none" d="M554.274,436.701   c-2.813-2.752-4.438-7.018-4.438-12.604c0-15.523,12.583-35.372,28.104-44.333c8.729-5.042,16.523-5.563,21.688-2.292" stroke="#000000" stroke-width="0.25" g2gstroke="#312783" stroke-miterlimit="10"/>
	
		<line orgstroke="#000000" orgfill="none" fill="none" x1="592.921" x2="595.629" y1="395.847" y2="397.57" stroke="#000000" stroke-width="0.25" g2gstroke="#312783" stroke-miterlimit="10"/>
	
		<line orgstroke="#000000" orgfill="none" fill="none" x1="572.963" x2="575.531" y1="422.695" y2="424.4" stroke="#000000" stroke-width="0.25" g2gstroke="#312783" stroke-miterlimit="10"/>
	
		<line orgstroke="#000000" orgfill="none" fill="none" x1="553.7" x2="556.358" y1="400.847" y2="402.321" stroke="#000000" stroke-width="0.25" g2gstroke="#312783" stroke-miterlimit="10"/>
	
		<line orgstroke="#000000" orgfill="none" fill="none" x1="552.604" x2="555.129" y1="403.236" y2="404.612" stroke="#000000" stroke-width="0.25" g2gstroke="#312783" stroke-miterlimit="10"/>
	
		<line orgstroke="#000000" orgfill="none" fill="none" x1="551.474" x2="554.088" y1="405.305" y2="406.763" stroke="#000000" stroke-width="0.25" g2gstroke="#312783" stroke-miterlimit="10"/>
	
		<line orgstroke="#000000" orgfill="none" fill="none" x1="557.671" x2="560.543" y1="394.18" y2="395.847" stroke="#000000" stroke-width="0.25" g2gstroke="#312783" stroke-miterlimit="10"/>
	
		<line orgstroke="#000000" orgfill="none" fill="none" x1="556.254" x2="559.103" y1="396.389" y2="397.978" stroke="#000000" stroke-width="0.25" g2gstroke="#312783" stroke-miterlimit="10"/>
	
		<line orgstroke="#000000" orgfill="none" fill="none" x1="555.129" x2="557.974" y1="398.443" y2="400.031" stroke="#000000" stroke-width="0.25" g2gstroke="#312783" stroke-miterlimit="10"/>
	
		<line orgstroke="#000000" orgfill="none" fill="none" x1="562.879" x2="565.695" y1="388.019" y2="389.638" stroke="#000000" stroke-width="0.25" g2gstroke="#312783" stroke-miterlimit="10"/>
	
		<line orgstroke="#000000" orgfill="none" fill="none" x1="561.147" x2="563.89" y1="390.055" y2="391.638" stroke="#000000" stroke-width="0.25" g2gstroke="#312783" stroke-miterlimit="10"/>
	
		<line orgstroke="#000000" orgfill="none" fill="none" x1="559.604" x2="562.39" y1="391.776" y2="393.43" stroke="#000000" stroke-width="0.25" g2gstroke="#312783" stroke-miterlimit="10"/>
	
		<line orgstroke="#000000" orgfill="none" fill="none" x1="569.189" x2="571.963" y1="382.356" y2="383.848" stroke="#000000" stroke-width="0.25" g2gstroke="#312783" stroke-miterlimit="10"/>
	
		<line orgstroke="#000000" orgfill="none" fill="none" x1="566.946" x2="569.713" y1="384.157" y2="385.732" stroke="#000000" stroke-width="0.25" g2gstroke="#312783" stroke-miterlimit="10"/>
	
		<line orgstroke="#000000" orgfill="none" fill="none" x1="565.088" x2="567.94" y1="385.805" y2="387.391" stroke="#000000" stroke-width="0.25" g2gstroke="#312783" stroke-miterlimit="10"/>
	
		<line orgstroke="#000000" orgfill="none" fill="none" x1="576.898" x2="579.377" y1="377.597" y2="378.972" stroke="#000000" stroke-width="0.25" g2gstroke="#312783" stroke-miterlimit="10"/>
	
		<line orgstroke="#000000" orgfill="none" fill="none" x1="579.166" x2="581.438" y1="376.69" y2="377.972" stroke="#000000" stroke-width="0.25" g2gstroke="#312783" stroke-miterlimit="10"/>
	
		<line orgstroke="#000000" orgfill="none" fill="none" x1="581.946" x2="583.738" y1="376.013" y2="377.014" stroke="#000000" stroke-width="0.25" g2gstroke="#312783" stroke-miterlimit="10"/>
	
		<line orgstroke="#000000" orgfill="none" fill="none" x1="574.171" x2="576.713" y1="379.083" y2="380.494" stroke="#000000" stroke-width="0.25" g2gstroke="#312783" stroke-miterlimit="10"/>
	
		<line orgstroke="#000000" orgfill="none" fill="none" x1="571.696" x2="574.49" y1="380.494" y2="381.972" stroke="#000000" stroke-width="0.25" g2gstroke="#312783" stroke-miterlimit="10"/>
	
		<line orgstroke="#000000" orgfill="none" fill="none" x1="550.589" x2="552.779" y1="408.013" y2="409.226" stroke="#000000" stroke-width="0.25" g2gstroke="#312783" stroke-miterlimit="10"/>
	
		<line orgstroke="#000000" orgfill="none" fill="none" x1="549.49" x2="552.048" y1="410.403" y2="411.845" stroke="#000000" stroke-width="0.25" g2gstroke="#312783" stroke-miterlimit="10"/>
	
		<line orgstroke="#000000" orgfill="none" fill="none" x1="548.946" x2="551.212" y1="412.783" y2="414.055" stroke="#000000" stroke-width="0.25" g2gstroke="#312783" stroke-miterlimit="10"/>
	
		<line orgstroke="#000000" orgfill="none" fill="none" x1="548.629" x2="550.652" y1="415.722" y2="416.851" stroke="#000000" stroke-width="0.25" g2gstroke="#312783" stroke-miterlimit="10"/>
	
		<line orgstroke="#000000" orgfill="none" fill="none" x1="548.362" x2="550.156" y1="418.597" y2="419.597" stroke="#000000" stroke-width="0.25" g2gstroke="#312783" stroke-miterlimit="10"/>
	
		<line orgstroke="#000000" orgfill="none" fill="none" x1="548.362" x2="549.896" y1="421.179" y2="422.167" stroke="#000000" stroke-width="0.25" g2gstroke="#312783" stroke-miterlimit="10"/>
	<path orgstroke="#000000" orgfill="none" fill="none" d="M606.521,396.222   c0,13.563-11.001,30.925-24.575,38.758c-13.572,7.836-24.574,3.188-24.574-10.382c0-13.574,11.012-30.938,24.574-38.771   C595.52,377.992,606.521,382.645,606.521,396.222z" stroke="#000000" stroke-width="0.25" g2gstroke="#312783" stroke-miterlimit="10"/>
</g>
</g>
</g></svg>