<svg xmlns="http://www.w3.org/2000/svg" xmlns:xlink="http://www.w3.org/1999/xlink" xmlns:etg="http://www.eurotaxglass.com/etg/evd/" etg:dataTimestamp="1539068912893" contentScriptType="text/ecmascript" zoomAndPan="magnify" contentStyleType="text/css" id="Layer_1" enable-background="new 0 0 1841.891 1595.279" version="1.1" width="1841.891px" xml:space="preserve" preserveAspectRatio="xMidYMid meet" viewBox="0 0 1841.891 1595.279" height="1595.279px" x="0px" y="0px"><g xmlns="http://www.w3.org/2000/svg" objecttype="PS" tooltip="#UNDEFINED" id="43">
<g onmouseover="notifyOwner(AGV_OBJECT_MOUSEOVER, '43(PS)')" onclick="clickZoom(evt); notifyOwner(AGV_OBJECT_MOUSECLICK, '43(PS)')" onmouseout="notifyOwner(AGV_OBJECT_MOUSEOUT, '43(PS)')" tooltip="#UNDEFINED" id="43-Graphic" objecttype="GRAPHIC">
<g>
	<path orgstroke="#000000" orgfill="#ffffff" fill="#ffffff" g2gfill="#ECC35D" stroke-linejoin="round" d="M691.346,342.135   c0,0,3.271,9.627,4.381,11.688c1.104,2.063,2.802,4.438,4.646,5.979c1.854,1.549,5.826,3.979,10.104,7.08   c4.278,3.098,8.334,6.479,11.211,7.813c2.876,1.326,2.655,1.252,7.08,1.326c4.425,0.072,2.729,0.662,5.162-0.959   c2.433-1.621,5.974-4.795,5.974-4.795l3.104,2.063c0,0,1.42,0.896,2.896-0.313c1.584-1.297,3.361-2.83,4.279-3.963   c0.426-0.525,0.197-2.104-0.155-2.479c-0.512-0.543-2.826-2.258-2.826-2.258s0.001-1.395,0.035-2.768   c0.079-3.189-4.032-19.107-4.032-19.107h0.002c0.271-0.738,0.188-1.617,0.027-2.844c-0.227-1.813-1.514-0.479-1.392-1.859   c0.175-1.979-1.229-3.729-3.563-5.127c-2.766-1.646-3.942-0.803-3.942-0.803s-0.515-1.23-2.271-2.521   c-6.243-4.518-13.273-7.665-17.854-9.938c-2.084-1.043-5.847-0.998-7.432,0.227l-3.396,2.699l-3.729-1.863c0,0-1.004-0.717-2.006,0   c-1.004,0.729,1.146,1.863,1.146,1.863s-8.651,5.223-9.315,11.754c-0.323,3.168-0.077,4.896,0.4,7.199   c0.101,0.471,0.646,1.145,1.466,1.896h0.002L691.346,342.135L691.346,342.135z" outline-element="true" stroke="#000000" stroke-width="0.5" g2gstroke="#312783" stroke-miterlimit="10"/>
	<path orgstroke="#000000" orgfill="none" fill="none" stroke-linejoin="round" d="M743.198,341.448   c-0.104,0.322-0.271,0.617-0.55,0.902c-1.183,1.289-12.757,12.186-15.188,14.906c-2.438,2.725-10.492-0.979-13.766-1.984   c-4.396-1.369-14.348-7.188-14.348-7.188s-5.354-3.438-8.021-5.951" stroke="#000000" stroke-width="0.25" g2gstroke="#312783" stroke-miterlimit="10"/>
	<path orgstroke="#000000" orgfill="none" fill="none" stroke-linejoin="round" d="M703.381,321.28   c0,0-9.756,7.604-11.937,11.029c-0.548,0.861-0.73,1.666-0.688,2.754c0.058,1.168,0.771,1.959,1.515,2.496   c5.396,3.893,15.438,7.965,21.479,10.51" stroke="#000000" stroke-width="0.25" g2gstroke="#312783" stroke-miterlimit="10"/>
	<path orgstroke="#000000" orgfill="none" fill="none" stroke-linejoin="round" d="M734.335,330.815   l-17.663,16.742c0,0-0.021,1.598,0,2.354c0.016,0.813-2.146,0.076-2.146-0.885c0-0.688,0.008-2.021,0.008-2.021" stroke="#000000" stroke-width="0.25" g2gstroke="#312783" stroke-miterlimit="10"/>
	<path orgstroke="#000000" orgfill="none" fill="none" stroke-linejoin="round" d="M718.884,348.993   c0,0,4.352,1.521,6.048,0.271c1.695-1.254,12.271-10.646,15.34-14.578c0.233-0.304,0-1.529,0-1.529" stroke="#000000" stroke-width="0.25" g2gstroke="#312783" stroke-miterlimit="10"/>
	
		<line orgstroke="#000000" orgfill="none" fill="none" x1="715.222" x2="732.528" y1="347.147" y2="331.112" stroke-linejoin="round" stroke="#000000" stroke-width="0.25" g2gstroke="#312783" stroke-miterlimit="10"/>
	<path orgstroke="#000000" orgfill="none" fill="none" stroke-linejoin="round" d="M731.24,332.302   l-2.298-1.188c0,0-16.469-9.896-17.643-10.479c-1.184-0.604-2.531,0.704-1.235,1.471c1.295,0.766,17.407,10.584,17.407,10.584   l0.138,2.957" stroke="#000000" stroke-width="0.25" g2gstroke="#312783" stroke-miterlimit="10"/>
	
		<line orgstroke="#000000" orgfill="none" fill="none" x1="728.948" x2="727.435" y1="331.112" y2="332.635" stroke-linejoin="round" stroke="#000000" stroke-width="0.25" g2gstroke="#312783" stroke-miterlimit="10"/>
	<path orgstroke="#000000" orgfill="none" fill="none" stroke-linejoin="round" d="M709.69,320.952   c-0.707,0.857-1.225,2.188-0.285,2.871l18.17,10.773" stroke="#000000" stroke-width="0.25" g2gstroke="#312783" stroke-miterlimit="10"/>
	<polyline orgstroke="#000000" orgfill="none" points="   717.656,356.663 721.906,373.075 724.102,375.266  " fill="none" stroke-linejoin="round" stroke="#000000" stroke-width="0.25" g2gstroke="#312783" stroke-miterlimit="10"/>
	
		<line orgstroke="#000000" orgfill="none" fill="none" x1="722.443" x2="727.435" y1="358.12" y2="374.969" stroke-linejoin="round" stroke="#000000" stroke-width="0.25" g2gstroke="#312783" stroke-miterlimit="10"/>
	
		<line orgstroke="#000000" orgfill="none" fill="none" x1="725.906" x2="730.471" y1="360.555" y2="374.698" stroke-linejoin="round" stroke="#000000" stroke-width="0.25" g2gstroke="#312783" stroke-miterlimit="10"/>
	
		<line orgstroke="#000000" orgfill="none" fill="none" x1="727.98" x2="732.531" y1="359.844" y2="373.975" stroke-linejoin="round" stroke="#000000" stroke-width="0.25" g2gstroke="#312783" stroke-miterlimit="10"/>
	<polyline orgstroke="#000000" orgfill="none" points="   739.903,370.272 739.281,364.844 735.171,352.12  " fill="none" stroke-linejoin="round" stroke="#000000" stroke-width="0.25" g2gstroke="#312783" stroke-miterlimit="10"/>
	<path orgstroke="#000000" orgfill="none" fill="none" stroke-linejoin="round" d="M739.281,364.844   l3.86,5.662c0,0,1.177,1.313,2.43,0.477c0.657-0.449,4.771-3.807,4.455-5.402" stroke="#000000" stroke-width="0.25" g2gstroke="#312783" stroke-miterlimit="10"/>
	<path orgstroke="#000000" orgfill="none" fill="none" stroke-linejoin="round" d="M747.198,363.323   c0,0-1.84-2.729-2.354-3.707c-1.564-2.955-4.469-12.506-4.469-12.506l4.801,17.299l-3.785,3.533" stroke="#000000" stroke-width="0.25" g2gstroke="#312783" stroke-miterlimit="10"/>
	<path orgstroke="#000000" orgfill="none" fill="none" stroke-linejoin="round" d="M749.196,365.182   c-0.146-0.072-4.02-0.773-4.02-0.773" stroke="#000000" stroke-width="0.25" g2gstroke="#312783" stroke-miterlimit="10"/>
	
		<ellipse orgstroke="#000000" stroke="#000000" transform="matrix(0.8664 -0.4994 0.4994 0.8664 -84.1375 421.6469)" stroke-miterlimit="10" orgfill="none" fill="none" stroke-width="0.25" stroke-linejoin="round" cx="745.779" rx="2.093" g2gstroke="#312783" ry="1.373" cy="368.034"/>
	<path orgstroke="#000000" orgfill="none" fill="none" stroke-linejoin="round" d="M699.974,356.272   c0.392,1.41,0.88,2.764,1.446,3.83" stroke="#000000" stroke-width="0.25" g2gstroke="#312783" stroke-miterlimit="10"/>
	<path orgstroke="#000000" orgfill="none" fill="none" stroke-linejoin="round" d="M702.24,356.823   c0.396,1.896,0.958,3.787,1.697,5.188" stroke="#000000" stroke-width="0.25" g2gstroke="#312783" stroke-miterlimit="10"/>
	<path orgstroke="#000000" orgfill="none" fill="none" stroke-linejoin="round" d="M705.28,357.594   c0.404,2.354,1.065,4.891,1.945,6.549" stroke="#000000" stroke-width="0.25" g2gstroke="#312783" stroke-miterlimit="10"/>
	<path orgstroke="#000000" orgfill="none" fill="none" stroke-linejoin="round" d="M707.901,358.302   c0.411,2.688,1.167,5.771,2.169,7.664" stroke="#000000" stroke-width="0.25" g2gstroke="#312783" stroke-miterlimit="10"/>
	<path orgstroke="#000000" orgfill="none" fill="none" stroke-linejoin="round" d="M710.627,358.907   c0.354,2.313,1.063,4.941,2.056,6.813" stroke="#000000" stroke-width="0.25" g2gstroke="#312783" stroke-miterlimit="10"/>
	<path orgstroke="#000000" orgfill="none" fill="none" stroke-linejoin="round" d="M717.424,357.614   c0,5.967-0.5,6.396-4.896,10.172" stroke="#000000" stroke-width="0.25" g2gstroke="#312783" stroke-miterlimit="10"/>
	<path orgstroke="#000000" orgfill="none" fill="none" stroke-linejoin="round" d="M691.346,337.719   c0,0,1.448,4.313,11.435,9.104c9.983,4.793,18.229,7.801,19.664,8.039c1.656,0.271,2.396,0.287,4.003-0.932   c1.004-0.754,14.71-15.441,14.71-15.441l0.442-0.771" stroke="#000000" stroke-width="0.25" g2gstroke="#312783" stroke-miterlimit="10"/>
	<path orgstroke="#000000" orgfill="none" fill="none" stroke-linejoin="round" d="M690.38,339.995   c0,0,2.979,3.74,12.971,8.535c9.984,4.793,18.227,7.801,19.664,8.039c1.657,0.271,2.387,0.287,4.003-0.934   c1.004-0.752,15.248-15.898,15.248-15.898l0.535-1.479" stroke="#000000" stroke-width="0.25" g2gstroke="#312783" stroke-miterlimit="10"/>
	
		<line orgstroke="#000000" orgfill="none" fill="none" x1="724.095" x2="725.403" y1="350.094" y2="354.147" stroke-linejoin="round" stroke="#000000" stroke-width="0.25" g2gstroke="#312783" stroke-miterlimit="10"/>
	
		<line orgstroke="#000000" orgfill="none" fill="none" x1="722.443" x2="723.752" y1="350.094" y2="354.147" stroke-linejoin="round" stroke="#000000" stroke-width="0.25" g2gstroke="#312783" stroke-miterlimit="10"/>
	<path orgstroke="#000000" orgfill="none" fill="none" stroke-linejoin="round" d="M726.776,336.385   l-2.294-1.188c0,0-16.467-9.896-17.643-10.479c-1.188-0.588-2.529,0.705-1.235,1.471s17.407,10.586,17.407,10.586l0.139,2.955" stroke="#000000" stroke-width="0.25" g2gstroke="#312783" stroke-miterlimit="10"/>
	<path orgstroke="#000000" orgfill="none" fill="none" stroke-linejoin="round" d="M705.218,325.04   c-0.706,0.855-1.229,2.188-0.286,2.871l18.17,10.771" stroke="#000000" stroke-width="0.25" g2gstroke="#312783" stroke-miterlimit="10"/>
	<path orgstroke="#000000" orgfill="none" fill="none" stroke-linejoin="round" d="M722.274,340.552   l-2.294-1.188c0,0-16.466-9.896-17.643-10.479c-1.188-0.588-2.528,0.705-1.235,1.471c1.295,0.766,17.408,10.584,17.408,10.584   l0.137,2.957" stroke="#000000" stroke-width="0.25" g2gstroke="#312783" stroke-miterlimit="10"/>
	<path orgstroke="#000000" orgfill="none" fill="none" stroke-linejoin="round" d="M700.715,329.219   c-0.705,0.854-1.229,2.184-0.286,2.854L718.6,342.85" stroke="#000000" stroke-width="0.25" g2gstroke="#312783" stroke-miterlimit="10"/>
	<path orgstroke="#000000" orgfill="none" fill="none" stroke-linejoin="round" d="M718.073,344.311   l-1.813-0.721c0,0-16.467-9.896-17.646-10.484c-1.176-0.588-2.521,0.707-1.229,1.471c1.294,0.771,17.396,10.586,17.396,10.586   l-0.256,1.984" stroke="#000000" stroke-width="0.25" g2gstroke="#312783" stroke-miterlimit="10"/>
	<path orgstroke="#000000" orgfill="none" fill="none" stroke-linejoin="round" d="M696.99,333.43   c-0.707,0.854-1.226,2.186-0.286,2.871l17.825,10.846" stroke="#000000" stroke-width="0.25" g2gstroke="#312783" stroke-miterlimit="10"/>
	
		<line orgstroke="#000000" orgfill="none" fill="none" x1="724.483" x2="723.014" y1="335.198" y2="336.768" stroke-linejoin="round" stroke="#000000" stroke-width="0.25" g2gstroke="#312783" stroke-miterlimit="10"/>
	
		<line orgstroke="#000000" orgfill="none" fill="none" x1="719.98" x2="718.51" y1="339.37" y2="340.94" stroke-linejoin="round" stroke="#000000" stroke-width="0.25" g2gstroke="#312783" stroke-miterlimit="10"/>
	
		<line orgstroke="#000000" orgfill="none" fill="none" x1="716.256" x2="714.781" y1="343.594" y2="345.163" stroke-linejoin="round" stroke="#000000" stroke-width="0.25" g2gstroke="#312783" stroke-miterlimit="10"/>
	<polyline orgstroke="#000000" orgfill="none" points="   695.984,345.79 697.365,354.866 697.643,355.307 697.975,355.473 698.473,355.76 711.139,358.737 711.471,358.737 711.858,358.405    712.024,358.135 712.24,354.866  " fill="none" stroke-linejoin="round" stroke="#000000" stroke-width="0.25" g2gstroke="#312783" stroke-miterlimit="10"/>
	<polyline orgstroke="#000000" orgfill="none" points="   697.281,346.905 698.323,353.743 698.606,354.184 698.937,354.35 699.435,354.635 710.323,357.427 710.656,357.427    711.044,357.094 711.21,356.815 711.365,354.53  " fill="none" stroke-linejoin="round" stroke="#000000" stroke-width="0.25" g2gstroke="#312783" stroke-miterlimit="10"/>
	
		<line orgstroke="#000000" orgfill="none" fill="none" x1="698.552" x2="697.754" y1="354.098" y2="355.094" stroke-linejoin="round" stroke="#000000" stroke-width="0.25" g2gstroke="#312783" stroke-miterlimit="10"/>
	
		<line orgstroke="#000000" orgfill="none" fill="none" x1="711.195" x2="711.573" y1="357.411" y2="358.35" stroke-linejoin="round" stroke="#000000" stroke-width="0.25" g2gstroke="#312783" stroke-miterlimit="10"/>
</g>
</g>
</g></svg>