<svg xmlns="http://www.w3.org/2000/svg" xmlns:xlink="http://www.w3.org/1999/xlink" xmlns:etg="http://www.eurotaxglass.com/etg/evd/" etg:dataTimestamp="1539068912893" contentScriptType="text/ecmascript" zoomAndPan="magnify" contentStyleType="text/css" id="Layer_1" enable-background="new 0 0 1841.891 1595.279" version="1.1" width="1841.891px" xml:space="preserve" preserveAspectRatio="xMidYMid meet" viewBox="0 0 1841.891 1595.279" height="1595.279px" x="0px" y="0px"><g xmlns="http://www.w3.org/2000/svg" objecttype="PS" tooltip="#UNDEFINED" id="5">
<g onmouseover="notifyOwner(AGV_OBJECT_MOUSEOVER, '5(PS)')" transform="translate(-68.32613696289064, 39.172626831054686)" onclick="clickZoom(evt); notifyOwner(AGV_OBJECT_MOUSECLICK, '5(PS)')" onmouseout="notifyOwner(AGV_OBJECT_MOUSEOUT, '5(PS)')" tooltip="#UNDEFINED" id="5-Graphic" objecttype="GRAPHIC">
<g>
	<path orgstroke="#000000" orgfill="#ffffff" fill="#ffffff" g2gfill="#ECF5E4" stroke-linejoin="round" d="M454.209,220.729   l1.069,2.229l6.191,3.575l1.084,0.517l0.537,0.119l0.649-0.06l0.422-0.239l12.938-7.453l0.356-0.354v-0.418v-1.371l-0.116-0.418   l-0.3-0.183l-2.687-1.487l-0.104-0.563l5.229-3.317l0.254-0.322c0.131-0.241,0.205-0.547,0.205-0.91   c0-0.627-0.216-1.326-0.576-1.991l0.12-0.57l3.938-2.39c0,0,5.396-3.35,6.29-2.097l0.091,0.179v0.179l-0.091,0.119l-0.063,0.148   l0.063,0.238l1.188,1.223l0.209,0.06l0.297,0.091l0.21-0.091l0.182,0.03l0.269,0.27l0.18,0.182l0.119,0.09l0.358,0.061l0.296-0.061   l0.389-0.239l0.183-0.237l0.09-0.418l-0.148-0.325l-0.443-0.392l-0.063-0.297v-0.355l-0.09-0.182l-1.207-1.164l-0.271-0.09h-0.445   l-0.357-0.135l-0.739-0.604c-0.895-1.252-6.29,2.101-6.29,2.101l-5.235,2.931l-0.411,0.021c-0.229-0.195-0.47-0.369-0.718-0.516   c-0.685-0.392-1.307-0.499-1.775-0.354l-0.227,0.102l-1.404,0.822l-0.521,0.033c-0.873-0.738-2.216-1.771-3.756-2.605l-0.341-0.517   l-0.117-1.073v-0.238l-1.189-1.07l-0.6-0.119l-0.419,0.119l-1.968,1.013l-0.492-0.401l-0.179-3.132l-0.179-0.313l-1.565-1.164   l-0.4-0.09l-4.828,2.549l-0.271,0.492l-0.044,0.354l0.27,3.354l-0.206,0.186c-1.876-1.052-2.834-3.361-2.834-3.361l-0.646-2.22   l0.464-1.445l2.146-5.127l4.056-8.348l0.256-0.404l0.436,0.105l0.205,1.431l0.235,0.537l0.42,0.358l0.599,0.297l0.354,0.179   l0.599,7.155l0,0v0.354l0.062,0.239l0.354,0.118l0.536-0.118l0.301-0.239l-0.118-0.236l-0.654-7.573l0.118-0.298l0.419-0.358   l0.654-0.118l0.895-0.477l0.179-0.716l-0.179-1.55l-0.357-0.537l-0.533-0.239l-0.238-0.358l-0.12-0.894l-0.059-1.073l-0.24-0.956   l-0.416-0.537l-0.602-0.417l-0.533-0.06h-0.6l-0.836,0.354l-0.535,0.537l-2.071,2.317l-2.115,3.339l-4.058,8.347l-2.146,5.128   l-1.252,3.9l-0.162,0.597c-3.188,13.308,1.141,17.425,4.829,18.644L454.209,220.729z" outline-element="true" stroke="#000000" stroke-width="0.5" g2gstroke="#312783" stroke-miterlimit="10"/>
	
		<line orgstroke="#000000" orgfill="none" fill="none" x1="454.209" x2="454.209" y1="210.951" y2="215.991" stroke-linejoin="round" stroke="#000000" stroke-width="0.25" g2gstroke="#312783" stroke-miterlimit="10"/>
	<polyline orgstroke="#000000" orgfill="none" points="   457.199,221.067 457.338,221.348 463.531,224.923  " fill="none" stroke-linejoin="round" stroke="#000000" stroke-width="0.25" g2gstroke="#312783" stroke-miterlimit="10"/>
	
		<line orgstroke="#000000" orgfill="none" fill="none" x1="456.267" x2="456.267" y1="209.342" y2="216.527" stroke-linejoin="round" stroke="#000000" stroke-width="0.25" g2gstroke="#312783" stroke-miterlimit="10"/>
	
		<line orgstroke="#000000" orgfill="none" fill="none" x1="456.267" x2="464.115" y1="209.342" y2="204.809" stroke-linejoin="round" stroke="#000000" stroke-width="0.25" g2gstroke="#312783" stroke-miterlimit="10"/>
	
		<line orgstroke="#000000" orgfill="none" fill="none" x1="463.531" x2="477.025" y1="224.923" y2="217.133" stroke-linejoin="round" stroke="#000000" stroke-width="0.25" g2gstroke="#312783" stroke-miterlimit="10"/>
	<path orgstroke="#000000" orgfill="none" fill="none" stroke-linejoin="round" d="M457.865,216.786   c-0.015-0.137-0.021-0.271-0.021-0.406c0-1.68,1.357-2.255,3.041-1.281c1.68,0.97,3.041,3.112,3.041,4.797   c0,1.68-1.361,2.255-3.041,1.285c-0.335-0.193-0.659-0.438-0.962-0.708" stroke="#000000" stroke-width="0.25" g2gstroke="#312783" stroke-miterlimit="10"/>
	<path orgstroke="#000000" orgfill="none" fill="none" stroke-linejoin="round" d="M463.196,212.4   c0.479-0.038,1.052,0.105,1.668,0.466c1.685,0.97,3.041,3.116,3.041,4.796c0,0.419-0.085,0.771-0.233,1.046" stroke="#000000" stroke-width="0.25" g2gstroke="#312783" stroke-miterlimit="10"/>
	<path orgstroke="#000000" orgfill="none" fill="none" stroke-linejoin="round" d="M468.742,208.97   c0.531-0.583,1.501-0.619,2.613,0.021c1.68,0.971,3.041,3.117,3.041,4.797c0,0.84-0.342,1.404-0.889,1.641" stroke="#000000" stroke-width="0.25" g2gstroke="#312783" stroke-miterlimit="10"/>
	
		<line orgstroke="#000000" orgfill="none" fill="none" x1="458.447" x2="469.287" y1="214.91" y2="208.614" stroke-linejoin="round" stroke="#000000" stroke-width="0.25" g2gstroke="#312783" stroke-miterlimit="10"/>
	
		<line orgstroke="#000000" orgfill="none" fill="none" x1="463.137" x2="473.861" y1="221.472" y2="215.205" stroke-linejoin="round" stroke="#000000" stroke-width="0.25" g2gstroke="#312783" stroke-miterlimit="10"/>
	
		<line orgstroke="#000000" orgfill="none" fill="none" x1="471.142" x2="470.25" y1="207.999" y2="208.522" stroke-linejoin="round" stroke="#000000" stroke-width="0.25" g2gstroke="#312783" stroke-miterlimit="10"/>
	<path orgstroke="#000000" orgfill="none" fill="none" stroke-linejoin="round" d="M479.113,207.65   c-0.233-0.362-0.517-0.707-0.824-1.012" stroke="#000000" stroke-width="0.25" g2gstroke="#312783" stroke-miterlimit="10"/>
	<path orgstroke="#000000" orgfill="none" fill="none" stroke-linejoin="round" d="M469.177,203.627   c-2.355-1.192-5.106-1.854-7.354-0.337c-1.771,1.202-3.247,1.196-4.403,0.688" stroke="#000000" stroke-width="0.25" g2gstroke="#312783" stroke-miterlimit="10"/>
	<path orgstroke="#000000" orgfill="none" fill="none" stroke-linejoin="round" d="M474.401,207.404   c0,0-0.297-0.296-0.813-0.746" stroke="#000000" stroke-width="0.25" g2gstroke="#312783" stroke-miterlimit="10"/>
	<path orgstroke="#000000" orgfill="none" fill="none" stroke-linejoin="round" d="M473.964,209.899   c0,0-7.559-7.513-12.577-4.114c-5.021,3.399-7.613-2.862-7.613-2.862" stroke="#000000" stroke-width="0.25" g2gstroke="#312783" stroke-miterlimit="10"/>
	<path orgstroke="#000000" orgfill="none" fill="none" stroke-linejoin="round" d="M458.054,220.486   c0,0-1.674,0.263-3.663-0.258" stroke="#000000" stroke-width="0.25" g2gstroke="#312783" stroke-miterlimit="10"/>
	<path orgstroke="#000000" orgfill="none" fill="none" stroke-linejoin="round" d="M458.054,220.486   l3.608-0.456l0.321-0.173c0.146-0.146,0.228-0.369,0.228-0.657c0-0.824-0.668-1.879-1.492-2.354   c-0.412-0.239-0.785-0.287-1.061-0.176l-0.086,0.156c0,0-11.896,5.117-6.798-16.169" stroke="#000000" stroke-width="0.25" g2gstroke="#312783" stroke-miterlimit="10"/>
	
		<line orgstroke="#000000" orgfill="none" fill="none" x1="460.735" x2="462.349" y1="182.492" y2="179.946" stroke-linejoin="round" stroke="#000000" stroke-width="0.25" g2gstroke="#312783" stroke-miterlimit="10"/>
	
		<line orgstroke="#000000" orgfill="none" fill="none" x1="452.779" x2="453.398" y1="200.66" y2="198.732" stroke-linejoin="round" stroke="#000000" stroke-width="0.25" g2gstroke="#312783" stroke-miterlimit="10"/>
	
		<line orgstroke="#000000" orgfill="none" fill="none" x1="454.209" x2="453.696" y1="200.427" y2="199.085" stroke-linejoin="round" stroke="#000000" stroke-width="0.25" g2gstroke="#312783" stroke-miterlimit="10"/>
	
		<line orgstroke="#000000" orgfill="none" fill="none" x1="453.774" x2="452.908" y1="202.923" y2="201.433" stroke-linejoin="round" stroke="#000000" stroke-width="0.25" g2gstroke="#312783" stroke-miterlimit="10"/>
	<polyline orgstroke="#000000" orgfill="none" points="   454.209,210.951 454.254,208.969 454.344,208.566 454.523,208.208 454.88,207.805 456.531,206.688  " fill="none" stroke-linejoin="round" stroke="#000000" stroke-width="0.25" g2gstroke="#312783" stroke-miterlimit="10"/>
	
		<line orgstroke="#000000" orgfill="none" fill="none" x1="456.312" x2="454.836" y1="209.316" y2="208.342" stroke-linejoin="round" stroke="#000000" stroke-width="0.25" g2gstroke="#312783" stroke-miterlimit="10"/>
	<polyline orgstroke="#000000" orgfill="none" points="   463.823,198.37 459.397,200.74 459.173,201.008 459.129,201.501 459.263,204.139  " fill="none" stroke-linejoin="round" stroke="#000000" stroke-width="0.25" g2gstroke="#312783" stroke-miterlimit="10"/>
	
		<line orgstroke="#000000" orgfill="none" fill="none" x1="457.43" x2="459.173" y1="199.712" y2="201.008" stroke-linejoin="round" stroke="#000000" stroke-width="0.25" g2gstroke="#312783" stroke-miterlimit="10"/>
	<polyline orgstroke="#000000" orgfill="none" points="   474.401,207.404 475.138,208.074 475.406,208.432 475.585,208.924 475.362,209.281 475.004,209.684 474.647,209.908    474.24,209.997 473.964,209.899  " fill="none" stroke-linejoin="round" stroke="#000000" stroke-width="0.25" g2gstroke="#312783" stroke-miterlimit="10"/>
	<polyline orgstroke="#000000" orgfill="none" points="   461.365,182.152 462.379,182.629 463.274,182.749 464.048,182.57 464.7,182.212 465.24,181.676  " fill="none" stroke-linejoin="round" stroke="#000000" stroke-width="0.25" g2gstroke="#312783" stroke-miterlimit="10"/>
	<polyline orgstroke="#000000" orgfill="none" points="   461.485,184.418 462.198,184.895 463.095,185.074 463.511,185.074  " fill="none" stroke-linejoin="round" stroke="#000000" stroke-width="0.25" g2gstroke="#312783" stroke-miterlimit="10"/>
	<polyline orgstroke="#000000" orgfill="none" points="   462.975,181.377 463.391,181.497 463.928,181.377 464.406,181.079  " fill="none" stroke-linejoin="round" stroke="#000000" stroke-width="0.25" g2gstroke="#312783" stroke-miterlimit="10"/>
	<polyline orgstroke="#000000" orgfill="none" points="   489.836,202.962 490.222,202.842 490.49,202.604 490.671,202.395 490.785,202.068  " fill="none" stroke-linejoin="round" stroke="#000000" stroke-width="0.25" g2gstroke="#312783" stroke-miterlimit="10"/>
	<polyline orgstroke="#000000" orgfill="none" points="   489.836,203.736 490.402,203.529 490.759,203.35 491.029,203.111 491.295,202.872 491.412,202.604 491.505,202.217  " fill="none" stroke-linejoin="round" stroke="#000000" stroke-width="0.25" g2gstroke="#312783" stroke-miterlimit="10"/>
	<polyline orgstroke="#000000" orgfill="none" points="   491.357,205.138 491.923,204.929 492.281,204.751 492.548,204.511 492.818,204.274 492.936,204.005 493.026,203.617  " fill="none" stroke-linejoin="round" stroke="#000000" stroke-width="0.25" g2gstroke="#312783" stroke-miterlimit="10"/>
	<polyline orgstroke="#000000" orgfill="none" points="   462.349,179.946 462.46,179.834 462.594,179.834 462.684,179.924 462.615,180.17 462.505,181.019 462.505,181.176 462.594,181.288    462.975,181.377  " fill="none" stroke-linejoin="round" stroke="#000000" stroke-width="0.25" g2gstroke="#312783" stroke-miterlimit="10"/>
	<path orgstroke="#000000" orgfill="none" fill="none" stroke-linejoin="round" d="M460.556,210.061   c0,0.394-0.319,0.896-0.713,1.125c-0.396,0.227-0.714,0.092-0.714-0.306c0-0.394,0.314-0.896,0.714-1.125   C460.237,209.531,460.556,209.666,460.556,210.061z" stroke="#000000" stroke-width="0.25" g2gstroke="#312783" stroke-miterlimit="10"/>
	<path orgstroke="#000000" orgfill="none" fill="none" stroke-linejoin="round" d="M465.992,207.1   c0,0.394-0.316,0.896-0.713,1.125c-0.395,0.228-0.716,0.091-0.716-0.306c0-0.394,0.32-0.896,0.716-1.125   C465.676,206.571,465.992,206.706,465.992,207.1z" stroke="#000000" stroke-width="0.25" g2gstroke="#312783" stroke-miterlimit="10"/>
	
		<line orgstroke="#000000" orgfill="none" fill="none" x1="463.531" x2="463.479" y1="224.923" y2="227.134" stroke-linejoin="round" stroke="#000000" stroke-width="0.25" g2gstroke="#312783" stroke-miterlimit="10"/>
</g>
</g>
</g></svg>