<svg xmlns="http://www.w3.org/2000/svg" xmlns:xlink="http://www.w3.org/1999/xlink" xmlns:etg="http://www.eurotaxglass.com/etg/evd/" etg:dataTimestamp="1539068912893" contentScriptType="text/ecmascript" zoomAndPan="magnify" contentStyleType="text/css" id="Layer_1" enable-background="new 0 0 1841.891 1595.279" version="1.1" width="1841.891px" xml:space="preserve" preserveAspectRatio="xMidYMid meet" viewBox="0 0 1841.891 1595.279" height="1595.279px" x="0px" y="0px"><g xmlns="http://www.w3.org/2000/svg" objecttype="PS" tooltip="#UNDEFINED" id="72">
<g onmouseover="notifyOwner(AGV_OBJECT_MOUSEOVER, '72(PS)')" onclick="clickZoom(evt); notifyOwner(AGV_OBJECT_MOUSECLICK, '72(PS)')" onmouseout="notifyOwner(AGV_OBJECT_MOUSEOUT, '72(PS)')" tooltip="#UNDEFINED" id="72-Graphic" objecttype="GRAPHIC">
<g>
	<g id="60::Tubo_de_retorno_de_aceite_turbo">
		<path orgstroke="#000000" orgfill="#ffffff" fill="#ffffff" g2gfill="#ECF5E4" d="M353.061,413.059    c0.919-0.306,3.582-2.542,1.863-3.878c-2.169-1.688-5.719-0.813-7.297,0.769c-1.896,1.896-0.415,3.688,1.936,3.329    c0.021,0.365,0.146,0.871,0.412,1.591c0.566,1.479,13.274,18.608,14.297,19.979c1.021,1.354,0.229,2.269-0.907,3.063    c-0.146,0.104-0.521,0.396-1.093,0.796c-0.688-0.467-1.313-0.607-1.628-0.341l-2.62,2.104c-0.221,0.2-0.229,0.6-0.061,1.063    c0.027,0.081,0.063,0.163,0.101,0.25c-2.396,1.775-5.216,3.898-7.501,5.622c-0.646-0.415-1.229-0.543-1.521-0.271l-2.62,2.1    c-0.229,0.203-0.229,0.604-0.063,1.076c0.028,0.081,0.063,0.164,0.104,0.25h0.001c-0.152,0.124-0.271,0.222-0.339,0.285    c-1.248,1.135-1.938,2.837-1.063,4.766c0.869,1.938,7.271,10.313,6.127,10.437c-0.21,0.021-0.482,0.021-0.813,0.04    c0.181-0.531,0.168-1.059-0.12-1.482c-0.781-1.201-3.737-0.663-6.604,1.2c-2.854,1.854-4.556,4.35-3.771,5.551    c0.385,0.59,1.295,0.76,2.46,0.56c2.876-0.604,5.647-2.813,8.622-3.23v0.007c1.066-0.004,2.007-0.011,2.393-0.021    c4.908-0.215-4.053-10.616-4.92-12.554c-0.633-1.396-0.521-2.354,0.063-3.199v0.001c0.563,0.39,1.146,0.573,1.518,0.242    l2.621-2.104c0.289-0.271,0.212-0.854-0.146-1.532v0.004c1.979-1.5,5.018-3.614,7.496-5.446c0.563,0.39,1.271,0.646,1.637,0.313    l2.618-2.104c0.271-0.257,0.223-0.813-0.104-1.446v-0.004c1.284-0.938,2.198-1.605,2.446-1.787    c1.135-0.797,1.929-1.697,0.902-3.063c-1.021-1.356-13.729-18.494-14.31-19.979c-0.563-1.479-0.342-1.98-0.228-2.386    c0.058-0.188,0.092-0.364,0.104-0.521" outline-element="true" stroke="#000000" stroke-width="0.5" g2gstroke="#312783" stroke-miterlimit="10"/>
		<path orgstroke="#000000" orgfill="#ffffff" fill="#ffffff" g2gfill="#ECF5E4" d="M348.75,452.52    c0-0.727-0.149-1.085-0.457-1.418c-0.421-0.457-1.188-0.916-1.839-0.55" stroke="#000000" stroke-width="0.25" g2gstroke="#312783" stroke-miterlimit="10"/>
		<path orgstroke="#000000" orgfill="#ffffff" fill="#ffffff" g2gfill="#ECF5E4" d="M346.414,449.228    c0.438-0.414,1.604,0.121,2.604,1.194c0.989,1.063,1.426,2.271,0.979,2.688" stroke="#000000" stroke-width="0.25" g2gstroke="#312783" stroke-miterlimit="10"/>
		<path orgstroke="#000000" orgfill="#ffffff" fill="#ffffff" g2gfill="#ECF5E4" d="M350.564,447.403    c0.354,0.229,0.729,0.54,1.076,0.921c0.354,0.396,0.637,0.784,0.834,1.159" stroke="#000000" stroke-width="0.25" g2gstroke="#312783" stroke-miterlimit="10"/>
		<path orgstroke="#000000" orgfill="#ffffff" fill="#ffffff" g2gfill="#ECF5E4" d="M349.564,413.277    c-0.021-0.384,0.067-0.617,0.188-0.792c0.454-0.668,3.516-1.479,3.313,0.573" stroke="#000000" stroke-width="0.25" g2gstroke="#312783" stroke-miterlimit="10"/>
		<path orgstroke="#000000" orgfill="#ffffff" fill="#ffffff" g2gfill="#ECF5E4" d="M346.76,466.024    c0,0,2.184,0.075,3.605,0.043" stroke="#000000" stroke-width="0.25" g2gstroke="#312783" stroke-miterlimit="10"/>
		<path orgstroke="#000000" orgfill="#ffffff" fill="#ffffff" g2gfill="#ECF5E4" d="M359.97,444.038    c0.133-0.098,0.262-0.188,0.39-0.274" stroke="#000000" stroke-width="0.25" g2gstroke="#312783" stroke-miterlimit="10"/>
		<path orgstroke="#000000" orgfill="#ffffff" fill="#ffffff" g2gfill="#ECF5E4" d="M346.237,468.636    c0,0,2.615,0.018,4.729,0.014" stroke="#000000" stroke-width="0.25" g2gstroke="#312783" stroke-miterlimit="10"/>
		<path orgstroke="#000000" orgfill="#ffffff" fill="#ffffff" g2gfill="#ECF5E4" d="M348.75,452.52    c-0.104,0.115-0.189,0.232-0.271,0.353" stroke="#000000" stroke-width="0.25" g2gstroke="#312783" stroke-miterlimit="10"/>
		<path orgstroke="#000000" orgfill="#ffffff" fill="#ffffff" g2gfill="#ECF5E4" d="M346.237,468.636    c-1.563,0.271-1.762-2.563,0.522-2.611" stroke="#000000" stroke-width="0.25" g2gstroke="#312783" stroke-miterlimit="10"/>
		<path orgstroke="#000000" orgfill="#ffffff" fill="#ffffff" g2gfill="#ECF5E4" d="M360.36,443.76    c0-0.729-0.146-1.099-0.458-1.433c-0.42-0.442-1.181-0.896-1.839-0.55" stroke="#000000" stroke-width="0.25" g2gstroke="#312783" stroke-miterlimit="10"/>
		<path orgstroke="#000000" orgfill="#ffffff" fill="#ffffff" g2gfill="#ECF5E4" d="M358.024,440.457    c0.45-0.396,1.617,0.121,2.604,1.193c0.989,1.073,1.427,2.28,0.977,2.694" stroke="#000000" stroke-width="0.25" g2gstroke="#312783" stroke-miterlimit="10"/>
		<path orgstroke="#000000" orgfill="#ffffff" fill="#ffffff" g2gfill="#ECF5E4" d="M362.271,438.697    c0.325,0.229,0.66,0.51,0.979,0.854c0.38,0.412,0.679,0.844,0.876,1.242" stroke="#000000" stroke-width="0.25" g2gstroke="#312783" stroke-miterlimit="10"/>
	</g>
</g>
</g>
</g></svg>