<svg xmlns="http://www.w3.org/2000/svg" xmlns:xlink="http://www.w3.org/1999/xlink" xmlns:etg="http://www.eurotaxglass.com/etg/evd/" etg:dataTimestamp="1539068912893" contentScriptType="text/ecmascript" zoomAndPan="magnify" contentStyleType="text/css" id="Layer_1" enable-background="new 0 0 1841.891 1595.279" version="1.1" width="1841.891px" xml:space="preserve" preserveAspectRatio="xMidYMid meet" viewBox="0 0 1841.891 1595.279" height="1595.279px" x="0px" y="0px"><g xmlns="http://www.w3.org/2000/svg" objecttype="PS" tooltip="#UNDEFINED" id="81">
<g onmouseover="notifyOwner(AGV_OBJECT_MOUSEOVER, '81(PS)')" onclick="clickZoom(evt); notifyOwner(AGV_OBJECT_MOUSECLICK, '81(PS)')" onmouseout="notifyOwner(AGV_OBJECT_MOUSEOUT, '81(PS)')" tooltip="#UNDEFINED" id="81-Graphic" objecttype="GRAPHIC">
<g id="68::Cadena_de_transmision_de_bomba_de_aceite_1_">
	<g id="68::XMLID_4_">
		<g>
			<path orgstroke="#000000" orgfill="#ffffff" fill="#ffffff" g2gfill="#ECF5E4" d="M379.622,335.348     c0.54,1.361,0.83,3.016,0.83,4.896c0,8.566-6.063,19.028-13.53,23.349c-3.84,2.229-7.3,2.396-9.76,0.862     c0-0.013-2.12-1.229-2.12-1.229c-0.74-0.442-1.396-1.039-1.938-1.771c-0.229-0.313-0.438-0.656-0.646-1.021     c-0.2-0.396-0.382-0.809-0.54-1.231c-0.2-0.575-0.359-1.194-0.479-1.866c-0.146-0.828-0.229-1.729-0.229-2.69     c0-1.984,0.33-4.076,0.92-6.176c2.688-9.824,4.09-19.634,4.09-28.979c0-3.063-0.312-5.979-0.62-8.771     c-0.039-0.388-0.06-0.771-0.06-1.188c0-5.841,4.118-12.946,9.21-15.883c2.521-1.462,4.813-1.616,6.479-0.688l2.656,1.579     c1.4,1.051,2.24,2.979,2.24,5.616c0,0.5-0.03,1.018-0.09,1.521c-0.313,3.188-0.641,6.329-0.641,9.438     C375.402,320.469,376.912,328.611,379.622,335.348z M363.422,360.01c6.551-3.771,12.261-13.729,12.04-21.608     c-0.05-1.733-0.646-3.425-1.01-4.5c-2.229-6.396-3.57-13.425-3.813-22.063c-0.077-2.854,0.46-6.063,0.658-9.007     c0.04-0.472,0.052-0.938,0.04-1.4c-0.063-2.021-0.38-3.521-0.988-4.509v-0.012c-0.932-0.021-2.063,0.355-3.432,1.146     c-4.46,2.563-7.16,8.358-7,13.729c0.012,0.389,0.021,0.74,0.08,1.099c0.34,2.572,0.354,5.353,0.438,8.151     c0.239,8.608-1.142,17.41-3.287,26.396c-0.474,1.896-1.146,4.077-1.093,5.896c0.119,4.105,0.71,6.865,1.896,8.354l0.012,0.011     C359.362,361.89,361.172,361.307,363.422,360.01z" outline-element="true" stroke="#000000" stroke-width="0.5" g2gstroke="#312783" stroke-miterlimit="10"/>
		</g>
	</g>
	<path orgstroke="#000000" orgfill="none" fill="none" d="M353.385,355.867   c0,4.185,1.438,7.146,3.771,8.58" stroke="#000000" stroke-width="0.25" g2gstroke="#312783" stroke-miterlimit="10"/>
	<path orgstroke="#000000" orgfill="none" fill="none" d="M358.22,326.473   c-0.438,7.582-1.771,15.396-3.914,23.229c-0.595,2.101-0.921,4.188-0.921,6.17" stroke="#000000" stroke-width="0.25" g2gstroke="#312783" stroke-miterlimit="10"/>
	<path orgstroke="#000000" orgfill="none" fill="none" d="M373.88,294.504   c-1.688-1.263-4.188-1.229-6.961,0.368c-5.084,2.938-9.207,10.055-9.207,15.889c0,0.403,0.021,0.813,0.063,1.188   c0.313,2.793,0.618,5.729,0.618,8.782c0,1.896-0.062,3.813-0.176,5.753" stroke="#000000" stroke-width="0.25" g2gstroke="#312783" stroke-miterlimit="10"/>
	<path orgstroke="#000000" orgfill="none" fill="none" d="M357.954,361.695   c1.518,1.907,4,1.709,7.687-0.419c6.563-3.78,12.271-13.729,12.042-21.625c-0.049-1.737-0.637-3.413-1.013-4.489   c-2.229-6.396-3.563-13.429-3.813-22.063c-0.068-2.854,0.459-6.078,0.647-9.006c0.04-0.479,0.063-0.941,0.041-1.404   c-0.104-3.729-1.106-5.754-3.215-5.789" stroke="#000000" stroke-width="0.25" g2gstroke="#312783" stroke-miterlimit="10"/>
	<g>
		<g>
			<g>
				<g>
					
						<line orgstroke="#000000" orgfill="none" fill="none" x1="376.72" x2="377.295" y1="330.932" y2="332.885" stroke="#000000" stroke-width="0.25" g2gstroke="#312783" stroke-miterlimit="10"/>
					
						<line orgstroke="#000000" orgfill="none" fill="none" x1="377.605" x2="377.924" y1="333.848" y2="334.813" stroke="#000000" stroke-width="0.25" g2gstroke="#312783" stroke-miterlimit="10"/>
					
						<line orgstroke="#000000" orgfill="none" fill="none" x1="376.456" x2="376.204" y1="329.943" y2="328.968" stroke="#000000" stroke-width="0.25" g2gstroke="#312783" stroke-miterlimit="10"/>
				</g>
				<g>
					<path orgstroke="#000000" orgfill="none" fill="none" d="M375.346,324.983       c0.121,0.668,0.261,1.332,0.397,1.994" stroke="#000000" stroke-width="0.25" g2gstroke="#312783" stroke-miterlimit="10"/>
					
						<line orgstroke="#000000" orgfill="none" fill="none" x1="375.967" x2="376.204" y1="327.973" y2="328.968" stroke="#000000" stroke-width="0.25" g2gstroke="#312783" stroke-miterlimit="10"/>
					
						<line orgstroke="#000000" orgfill="none" fill="none" x1="375.17" x2="375.007" y1="323.981" y2="322.977" stroke="#000000" stroke-width="0.25" g2gstroke="#312783" stroke-miterlimit="10"/>
				</g>
				<g>
					
						<line orgstroke="#000000" orgfill="none" fill="none" x1="374.501" x2="374.727" y1="318.942" y2="320.969" stroke="#000000" stroke-width="0.25" g2gstroke="#312783" stroke-miterlimit="10"/>
					
						<line orgstroke="#000000" orgfill="none" fill="none" x1="374.86" x2="375.007" y1="321.973" y2="322.977" stroke="#000000" stroke-width="0.25" g2gstroke="#312783" stroke-miterlimit="10"/>
					
						<line orgstroke="#000000" orgfill="none" fill="none" x1="374.409" x2="374.33" y1="317.932" y2="316.912" stroke="#000000" stroke-width="0.25" g2gstroke="#312783" stroke-miterlimit="10"/>
				</g>
				<g>
					
						<line orgstroke="#000000" orgfill="none" fill="none" x1="374.135" x2="374.208" y1="312.848" y2="314.89" stroke="#000000" stroke-width="0.25" g2gstroke="#312783" stroke-miterlimit="10"/>
					
						<line orgstroke="#000000" orgfill="none" fill="none" x1="374.262" x2="374.33" y1="315.899" y2="316.912" stroke="#000000" stroke-width="0.25" g2gstroke="#312783" stroke-miterlimit="10"/>
					
						<line orgstroke="#000000" orgfill="none" fill="none" x1="374.115" x2="374.115" y1="311.832" y2="310.817" stroke="#000000" stroke-width="0.25" g2gstroke="#312783" stroke-miterlimit="10"/>
				</g>
				<g>
					
						<line orgstroke="#000000" orgfill="none" fill="none" x1="374.33" x2="374.187" y1="306.76" y2="308.781" stroke="#000000" stroke-width="0.25" g2gstroke="#312783" stroke-miterlimit="10"/>
					
						<line orgstroke="#000000" orgfill="none" fill="none" x1="374.139" x2="374.115" y1="309.806" y2="310.817" stroke="#000000" stroke-width="0.25" g2gstroke="#312783" stroke-miterlimit="10"/>
					
						<line orgstroke="#000000" orgfill="none" fill="none" x1="374.417" x2="374.508" y1="305.738" y2="304.728" stroke="#000000" stroke-width="0.25" g2gstroke="#312783" stroke-miterlimit="10"/>
				</g>
				<g>
					<path orgstroke="#000000" orgfill="none" fill="none" d="M374.823,300.68       c0.021,0.683-0.063,1.354-0.127,2.021" stroke="#000000" stroke-width="0.25" g2gstroke="#312783" stroke-miterlimit="10"/>
					
						<line orgstroke="#000000" orgfill="none" fill="none" x1="374.604" x2="374.508" y1="303.719" y2="304.728" stroke="#000000" stroke-width="0.25" g2gstroke="#312783" stroke-miterlimit="10"/>
					<path orgstroke="#000000" orgfill="none" fill="none" d="M374.754,299.657       c-0.044-0.336-0.104-0.67-0.19-0.997" stroke="#000000" stroke-width="0.25" g2gstroke="#312783" stroke-miterlimit="10"/>
				</g>
				<g>
					<path orgstroke="#000000" orgfill="none" fill="none" d="M372.133,295.567       c0.625,0.27,1.159,0.724,1.563,1.265" stroke="#000000" stroke-width="0.25" g2gstroke="#312783" stroke-miterlimit="10"/>
					<path orgstroke="#000000" orgfill="none" fill="none" d="M374.215,297.706       c0.146,0.313,0.252,0.639,0.349,0.954" stroke="#000000" stroke-width="0.25" g2gstroke="#312783" stroke-miterlimit="10"/>
					<path orgstroke="#000000" orgfill="none" fill="none" d="M371.162,295.282       c-0.335-0.055-0.687-0.063-1.021-0.04" stroke="#000000" stroke-width="0.25" g2gstroke="#312783" stroke-miterlimit="10"/>
				</g>
				<g>
					<path orgstroke="#000000" orgfill="none" fill="none" d="M366.416,296.735       c0.563-0.379,1.146-0.729,1.771-0.998" stroke="#000000" stroke-width="0.25" g2gstroke="#312783" stroke-miterlimit="10"/>
					<path orgstroke="#000000" orgfill="none" fill="none" d="M369.146,295.408       c0.324-0.082,0.659-0.146,1.002-0.165" stroke="#000000" stroke-width="0.25" g2gstroke="#312783" stroke-miterlimit="10"/>
					<path orgstroke="#000000" orgfill="none" fill="none" d="M365.596,297.348       c-0.266,0.211-0.521,0.436-0.771,0.646" stroke="#000000" stroke-width="0.25" g2gstroke="#312783" stroke-miterlimit="10"/>
				</g>
				<g>
					<path orgstroke="#000000" orgfill="none" fill="none" d="M362.151,301.058       c0.396-0.563,0.813-1.094,1.253-1.604" stroke="#000000" stroke-width="0.25" g2gstroke="#312783" stroke-miterlimit="10"/>
					<path orgstroke="#000000" orgfill="none" fill="none" d="M364.091,298.707       c0.235-0.234,0.479-0.479,0.729-0.708" stroke="#000000" stroke-width="0.25" g2gstroke="#312783" stroke-miterlimit="10"/>
					<path orgstroke="#000000" orgfill="none" fill="none" d="M361.588,301.903       c-0.188,0.287-0.354,0.576-0.521,0.873" stroke="#000000" stroke-width="0.25" g2gstroke="#312783" stroke-miterlimit="10"/>
				</g>
				<g>
					<path orgstroke="#000000" orgfill="none" fill="none" d="M359.441,306.498       c0.203-0.646,0.438-1.271,0.729-1.896" stroke="#000000" stroke-width="0.25" g2gstroke="#312783" stroke-miterlimit="10"/>
					<path orgstroke="#000000" orgfill="none" fill="none" d="M360.589,303.682       c0.146-0.313,0.313-0.604,0.479-0.896" stroke="#000000" stroke-width="0.25" g2gstroke="#312783" stroke-miterlimit="10"/>
					<path orgstroke="#000000" orgfill="none" fill="none" d="M359.169,307.479       c-0.08,0.329-0.146,0.659-0.206,0.993" stroke="#000000" stroke-width="0.25" g2gstroke="#312783" stroke-miterlimit="10"/>
				</g>
				<g>
					<path orgstroke="#000000" orgfill="none" fill="none" d="M358.99,312.525       c-0.063-0.674-0.171-1.351-0.188-2.021" stroke="#000000" stroke-width="0.25" g2gstroke="#312783" stroke-miterlimit="10"/>
					<path orgstroke="#000000" orgfill="none" fill="none" d="M358.836,309.483       c0.021-0.338,0.063-0.674,0.126-1.011" stroke="#000000" stroke-width="0.25" g2gstroke="#312783" stroke-miterlimit="10"/>
					
						<line orgstroke="#000000" orgfill="none" fill="none" x1="359.088" x2="359.172" y1="313.537" y2="314.557" stroke="#000000" stroke-width="0.25" g2gstroke="#312783" stroke-miterlimit="10"/>
				</g>
				<g>
					
						<line orgstroke="#000000" orgfill="none" fill="none" x1="359.388" x2="359.304" y1="318.611" y2="316.58" stroke="#000000" stroke-width="0.25" g2gstroke="#312783" stroke-miterlimit="10"/>
					
						<line orgstroke="#000000" orgfill="none" fill="none" x1="359.245" x2="359.172" y1="315.567" y2="314.557" stroke="#000000" stroke-width="0.25" g2gstroke="#312783" stroke-miterlimit="10"/>
					
						<line orgstroke="#000000" orgfill="none" fill="none" x1="359.414" x2="359.425" y1="319.635" y2="320.649" stroke="#000000" stroke-width="0.25" g2gstroke="#312783" stroke-miterlimit="10"/>
				</g>
				<g>
					<path orgstroke="#000000" orgfill="none" fill="none" d="M359.372,324.719       c0.021-0.688,0.042-1.354,0.048-2.028" stroke="#000000" stroke-width="0.25" g2gstroke="#312783" stroke-miterlimit="10"/>
					
						<line orgstroke="#000000" orgfill="none" fill="none" x1="359.428" x2="359.425" y1="321.664" y2="320.649" stroke="#000000" stroke-width="0.25" g2gstroke="#312783" stroke-miterlimit="10"/>
					
						<line orgstroke="#000000" orgfill="none" fill="none" x1="359.334" x2="359.281" y1="325.733" y2="326.746" stroke="#000000" stroke-width="0.25" g2gstroke="#312783" stroke-miterlimit="10"/>
				</g>
				<g>
					
						<line orgstroke="#000000" orgfill="none" fill="none" x1="358.981" x2="359.153" y1="330.807" y2="328.775" stroke="#000000" stroke-width="0.25" g2gstroke="#312783" stroke-miterlimit="10"/>
					
						<line orgstroke="#000000" orgfill="none" fill="none" x1="359.22" x2="359.281" y1="327.765" y2="326.746" stroke="#000000" stroke-width="0.25" g2gstroke="#312783" stroke-miterlimit="10"/>
					
						<line orgstroke="#000000" orgfill="none" fill="none" x1="358.877" x2="358.767" y1="331.817" y2="332.826" stroke="#000000" stroke-width="0.25" g2gstroke="#312783" stroke-miterlimit="10"/>
				</g>
				<g>
					<path orgstroke="#000000" orgfill="none" fill="none" d="M358.225,336.858       c0.104-0.67,0.199-1.342,0.289-2.017" stroke="#000000" stroke-width="0.25" g2gstroke="#312783" stroke-miterlimit="10"/>
					
						<line orgstroke="#000000" orgfill="none" fill="none" x1="358.648" x2="358.767" y1="333.844" y2="332.826" stroke="#000000" stroke-width="0.25" g2gstroke="#312783" stroke-miterlimit="10"/>
					
						<line orgstroke="#000000" orgfill="none" fill="none" x1="358.07" x2="357.899" y1="337.863" y2="338.865" stroke="#000000" stroke-width="0.25" g2gstroke="#312783" stroke-miterlimit="10"/>
				</g>
				<g>
					
						<line orgstroke="#000000" orgfill="none" fill="none" x1="357.138" x2="357.537" y1="342.861" y2="340.867" stroke="#000000" stroke-width="0.25" g2gstroke="#312783" stroke-miterlimit="10"/>
					
						<line orgstroke="#000000" orgfill="none" fill="none" x1="357.722" x2="357.899" y1="339.867" y2="338.865" stroke="#000000" stroke-width="0.25" g2gstroke="#312783" stroke-miterlimit="10"/>
					
						<line orgstroke="#000000" orgfill="none" fill="none" x1="356.922" x2="356.705" y1="343.858" y2="344.852" stroke="#000000" stroke-width="0.25" g2gstroke="#312783" stroke-miterlimit="10"/>
				</g>
				<g>
					<path orgstroke="#000000" orgfill="none" fill="none" d="M355.732,348.807       c0.188-0.649,0.354-1.313,0.521-1.979" stroke="#000000" stroke-width="0.25" g2gstroke="#312783" stroke-miterlimit="10"/>
					
						<line orgstroke="#000000" orgfill="none" fill="none" x1="356.471" x2="356.705" y1="345.844" y2="344.852" stroke="#000000" stroke-width="0.25" g2gstroke="#312783" stroke-miterlimit="10"/>
					
						<line orgstroke="#000000" orgfill="none" fill="none" x1="355.466" x2="355.214" y1="349.781" y2="350.768" stroke="#000000" stroke-width="0.25" g2gstroke="#312783" stroke-miterlimit="10"/>
				</g>
				<g>
					<path orgstroke="#000000" orgfill="none" fill="none" d="M354.654,354.783       c-0.021-0.679,0.06-1.354,0.146-2.021" stroke="#000000" stroke-width="0.25" g2gstroke="#312783" stroke-miterlimit="10"/>
					
						<line orgstroke="#000000" orgfill="none" fill="none" x1="354.989" x2="355.214" y1="351.765" y2="350.768" stroke="#000000" stroke-width="0.25" g2gstroke="#312783" stroke-miterlimit="10"/>
					<path orgstroke="#000000" orgfill="none" fill="none" d="M354.696,355.807       c0.021,0.343,0.062,0.681,0.097,1.019" stroke="#000000" stroke-width="0.25" g2gstroke="#312783" stroke-miterlimit="10"/>
				</g>
				<g>
					<path orgstroke="#000000" orgfill="none" fill="none" d="M355.746,360.76       c-0.271-0.622-0.479-1.271-0.623-1.938" stroke="#000000" stroke-width="0.25" g2gstroke="#312783" stroke-miterlimit="10"/>
					<path orgstroke="#000000" orgfill="none" fill="none" d="M354.922,357.82       c-0.055-0.335-0.104-0.671-0.146-1.007" stroke="#000000" stroke-width="0.25" g2gstroke="#312783" stroke-miterlimit="10"/>
					<path orgstroke="#000000" orgfill="none" fill="none" d="M356.198,361.664       c0.177,0.293,0.354,0.576,0.563,0.854" stroke="#000000" stroke-width="0.25" g2gstroke="#312783" stroke-miterlimit="10"/>
				</g>
				<g>
					<path orgstroke="#000000" orgfill="none" fill="none" d="M360.216,364.431       c-0.676-0.063-1.34-0.271-1.931-0.596" stroke="#000000" stroke-width="0.25" g2gstroke="#312783" stroke-miterlimit="10"/>
					<path orgstroke="#000000" orgfill="none" fill="none" d="M357.46,363.246       c-0.254-0.226-0.486-0.474-0.695-0.729" stroke="#000000" stroke-width="0.25" g2gstroke="#312783" stroke-miterlimit="10"/>
					<path orgstroke="#000000" orgfill="none" fill="none" d="M361.233,364.427       c0.354-0.021,0.688-0.097,1.021-0.154" stroke="#000000" stroke-width="0.25" g2gstroke="#312783" stroke-miterlimit="10"/>
				</g>
				<g>
					<path orgstroke="#000000" orgfill="none" fill="none" d="M365.94,362.617       c-0.563,0.354-1.171,0.688-1.771,0.978" stroke="#000000" stroke-width="0.25" g2gstroke="#312783" stroke-miterlimit="10"/>
					<path orgstroke="#000000" orgfill="none" fill="none" d="M363.21,363.973       c-0.315,0.104-0.646,0.211-0.979,0.271" stroke="#000000" stroke-width="0.25" g2gstroke="#312783" stroke-miterlimit="10"/>
					<path orgstroke="#000000" orgfill="none" fill="none" d="M366.797,362.072       c0.286-0.188,0.563-0.384,0.835-0.578" stroke="#000000" stroke-width="0.25" g2gstroke="#312783" stroke-miterlimit="10"/>
				</g>
				<g>
					<path orgstroke="#000000" orgfill="none" fill="none" d="M370.727,358.858       c-0.479,0.479-0.979,0.938-1.495,1.379" stroke="#000000" stroke-width="0.25" g2gstroke="#312783" stroke-miterlimit="10"/>
					<path orgstroke="#000000" orgfill="none" fill="none" d="M368.445,360.885       c-0.271,0.194-0.522,0.431-0.813,0.604" stroke="#000000" stroke-width="0.25" g2gstroke="#312783" stroke-miterlimit="10"/>
					<path orgstroke="#000000" orgfill="none" fill="none" d="M371.437,358.135       c0.229-0.233,0.462-0.486,0.688-0.753" stroke="#000000" stroke-width="0.25" g2gstroke="#312783" stroke-miterlimit="10"/>
				</g>
				<g>
					<path orgstroke="#000000" orgfill="none" fill="none" d="M374.58,354.14       c-0.375,0.563-0.771,1.119-1.185,1.657" stroke="#000000" stroke-width="0.25" g2gstroke="#312783" stroke-miterlimit="10"/>
					<path orgstroke="#000000" orgfill="none" fill="none" d="M372.776,356.598       c-0.225,0.265-0.438,0.521-0.646,0.771" stroke="#000000" stroke-width="0.25" g2gstroke="#312783" stroke-miterlimit="10"/>
					<path orgstroke="#000000" orgfill="none" fill="none" d="M375.121,353.277       c0.17-0.293,0.353-0.579,0.511-0.879" stroke="#000000" stroke-width="0.25" g2gstroke="#312783" stroke-miterlimit="10"/>
				</g>
				<g>
					<path orgstroke="#000000" orgfill="none" fill="none" d="M377.357,348.723       c-0.229,0.639-0.503,1.266-0.796,1.861" stroke="#000000" stroke-width="0.25" g2gstroke="#312783" stroke-miterlimit="10"/>
					<path orgstroke="#000000" orgfill="none" fill="none" d="M376.112,351.51       c-0.146,0.313-0.313,0.604-0.479,0.896" stroke="#000000" stroke-width="0.25" g2gstroke="#312783" stroke-miterlimit="10"/>
					
						<line orgstroke="#000000" orgfill="none" fill="none" x1="377.702" x2="378.009" y1="347.765" y2="346.802" stroke="#000000" stroke-width="0.25" g2gstroke="#312783" stroke-miterlimit="10"/>
				</g>
				<g>
					<path orgstroke="#000000" orgfill="none" fill="none" d="M378.828,342.813       c-0.073,0.676-0.189,1.345-0.324,2.008" stroke="#000000" stroke-width="0.25" g2gstroke="#312783" stroke-miterlimit="10"/>
					
						<line orgstroke="#000000" orgfill="none" fill="none" x1="378.278" x2="378.009" y1="345.813" y2="346.802" stroke="#000000" stroke-width="0.25" g2gstroke="#312783" stroke-miterlimit="10"/>
					<path orgstroke="#000000" orgfill="none" fill="none" d="M378.923,341.806       c0.032-0.346,0.036-0.688,0.05-1.021" stroke="#000000" stroke-width="0.25" g2gstroke="#312783" stroke-miterlimit="10"/>
				</g>
				<g>
					<path orgstroke="#000000" orgfill="none" fill="none" d="M378.515,336.765       c0.172,0.646,0.313,1.313,0.396,1.986" stroke="#000000" stroke-width="0.25" g2gstroke="#312783" stroke-miterlimit="10"/>
					<path orgstroke="#000000" orgfill="none" fill="none" d="M378.972,339.768       c-0.002,0.34,0.021,0.678,0,1.019" stroke="#000000" stroke-width="0.25" g2gstroke="#312783" stroke-miterlimit="10"/>
					
						<line orgstroke="#000000" orgfill="none" fill="none" x1="378.24" x2="377.924" y1="335.777" y2="334.813" stroke="#000000" stroke-width="0.25" g2gstroke="#312783" stroke-miterlimit="10"/>
				</g>
			</g>
		</g>
	</g>
	
		<line orgstroke="#000000" orgfill="none" fill="none" x1="353.608" x2="351.429" y1="358.556" y2="357.289" stroke="#000000" stroke-width="0.25" g2gstroke="#312783" stroke-miterlimit="10"/>
	
		<line orgstroke="#000000" orgfill="none" fill="none" x1="354.091" x2="351.917" y1="360.416" y2="359.164" stroke="#000000" stroke-width="0.25" g2gstroke="#312783" stroke-miterlimit="10"/>
	
		<line orgstroke="#000000" orgfill="none" fill="none" x1="354.623" x2="352.456" y1="361.65" y2="360.399" stroke="#000000" stroke-width="0.25" g2gstroke="#312783" stroke-miterlimit="10"/>
	
		<line orgstroke="#000000" orgfill="none" fill="none" x1="355.264" x2="353.106" y1="362.684" y2="361.438" stroke="#000000" stroke-width="0.25" g2gstroke="#312783" stroke-miterlimit="10"/>
	
		<line orgstroke="#000000" orgfill="none" fill="none" x1="353.385" x2="351.207" y1="355.867" y2="354.598" stroke="#000000" stroke-width="0.25" g2gstroke="#312783" stroke-miterlimit="10"/>
	
		<line orgstroke="#000000" orgfill="none" fill="none" x1="353.583" x2="351.401" y1="353.106" y2="351.848" stroke="#000000" stroke-width="0.25" g2gstroke="#312783" stroke-miterlimit="10"/>
	
		<line orgstroke="#000000" orgfill="none" fill="none" x1="354.155" x2="351.967" y1="350.26" y2="348.99" stroke="#000000" stroke-width="0.25" g2gstroke="#312783" stroke-miterlimit="10"/>
	
		<line orgstroke="#000000" orgfill="none" fill="none" x1="354.932" x2="352.752" y1="347.324" y2="346.067" stroke="#000000" stroke-width="0.25" g2gstroke="#312783" stroke-miterlimit="10"/>
	
		<line orgstroke="#000000" orgfill="none" fill="none" x1="355.583" x2="353.396" y1="344.609" y2="343.348" stroke="#000000" stroke-width="0.25" g2gstroke="#312783" stroke-miterlimit="10"/>
	
		<line orgstroke="#000000" orgfill="none" fill="none" x1="356.198" x2="354.02" y1="341.734" y2="340.479" stroke="#000000" stroke-width="0.25" g2gstroke="#312783" stroke-miterlimit="10"/>
	
		<line orgstroke="#000000" orgfill="none" fill="none" x1="356.747" x2="354.561" y1="338.89" y2="337.619" stroke="#000000" stroke-width="0.25" g2gstroke="#312783" stroke-miterlimit="10"/>
	
		<line orgstroke="#000000" orgfill="none" fill="none" x1="357.253" x2="355.07" y1="335.748" y2="334.488" stroke="#000000" stroke-width="0.25" g2gstroke="#312783" stroke-miterlimit="10"/>
	
		<line orgstroke="#000000" orgfill="none" fill="none" x1="357.672" x2="355.491" y1="332.64" y2="331.385" stroke="#000000" stroke-width="0.25" g2gstroke="#312783" stroke-miterlimit="10"/>
	
		<line orgstroke="#000000" orgfill="none" fill="none" x1="357.998" x2="355.811" y1="329.537" y2="328.275" stroke="#000000" stroke-width="0.25" g2gstroke="#312783" stroke-miterlimit="10"/>
	
		<line orgstroke="#000000" orgfill="none" fill="none" x1="358.352" x2="356.17" y1="323.397" y2="322.14" stroke="#000000" stroke-width="0.25" g2gstroke="#312783" stroke-miterlimit="10"/>
	
		<line orgstroke="#000000" orgfill="none" fill="none" x1="358.247" x2="356.065" y1="326.399" y2="325.14" stroke="#000000" stroke-width="0.25" g2gstroke="#312783" stroke-miterlimit="10"/>
	
		<line orgstroke="#000000" orgfill="none" fill="none" x1="374.295" x2="372.072" y1="326.408" y2="325.134" stroke="#000000" stroke-width="0.25" g2gstroke="#312783" stroke-miterlimit="10"/>
	
		<line orgstroke="#000000" orgfill="none" fill="none" x1="373.688" x2="371.464" y1="322.89" y2="321.608" stroke="#000000" stroke-width="0.25" g2gstroke="#312783" stroke-miterlimit="10"/>
	
		<line orgstroke="#000000" orgfill="none" fill="none" x1="373.24" x2="371.014" y1="319.205" y2="317.927" stroke="#000000" stroke-width="0.25" g2gstroke="#312783" stroke-miterlimit="10"/>
	
		<line orgstroke="#000000" orgfill="none" fill="none" x1="372.969" x2="370.753" y1="315.693" y2="314.414" stroke="#000000" stroke-width="0.25" g2gstroke="#312783" stroke-miterlimit="10"/>
	
		<line orgstroke="#000000" orgfill="none" fill="none" x1="377.674" x2="375.461" y1="340.682" y2="339.402" stroke="#000000" stroke-width="0.25" g2gstroke="#312783" stroke-miterlimit="10"/>
	
		<line orgstroke="#000000" orgfill="none" fill="none" x1="377.315" x2="375.096" y1="343.759" y2="342.473" stroke="#000000" stroke-width="0.25" g2gstroke="#312783" stroke-miterlimit="10"/>
	
		<line orgstroke="#000000" orgfill="none" fill="none" x1="376.397" x2="374.187" y1="347.135" y2="345.852" stroke="#000000" stroke-width="0.25" g2gstroke="#312783" stroke-miterlimit="10"/>
	
		<line orgstroke="#000000" orgfill="none" fill="none" x1="375.045" x2="372.831" y1="350.39" y2="349.106" stroke="#000000" stroke-width="0.25" g2gstroke="#312783" stroke-miterlimit="10"/>
	
		<line orgstroke="#000000" orgfill="none" fill="none" x1="373.231" x2="371.01" y1="353.621" y2="352.344" stroke="#000000" stroke-width="0.25" g2gstroke="#312783" stroke-miterlimit="10"/>
	
		<line orgstroke="#000000" orgfill="none" fill="none" x1="371.131" x2="368.919" y1="356.479" y2="355.199" stroke="#000000" stroke-width="0.25" g2gstroke="#312783" stroke-miterlimit="10"/>
	
		<line orgstroke="#000000" orgfill="none" fill="none" x1="368.861" x2="366.647" y1="358.871" y2="357.598" stroke="#000000" stroke-width="0.25" g2gstroke="#312783" stroke-miterlimit="10"/>
	
		<line orgstroke="#000000" orgfill="none" fill="none" x1="366.515" x2="364.303" y1="360.731" y2="359.453" stroke="#000000" stroke-width="0.25" g2gstroke="#312783" stroke-miterlimit="10"/>
	
		<line orgstroke="#000000" orgfill="none" fill="none" x1="364.24" x2="362.031" y1="362.022" y2="360.746" stroke="#000000" stroke-width="0.25" g2gstroke="#312783" stroke-miterlimit="10"/>
	
		<line orgstroke="#000000" orgfill="none" fill="none" x1="362.586" x2="360.373" y1="362.688" y2="361.408" stroke="#000000" stroke-width="0.25" g2gstroke="#312783" stroke-miterlimit="10"/>
	
		<line orgstroke="#000000" orgfill="none" fill="none" x1="361.169" x2="358.963" y1="362.983" y2="361.719" stroke="#000000" stroke-width="0.25" g2gstroke="#312783" stroke-miterlimit="10"/>
	
		<line orgstroke="#000000" orgfill="none" fill="none" x1="377.336" x2="375.116" y1="337.317" y2="336.033" stroke="#000000" stroke-width="0.25" g2gstroke="#312783" stroke-miterlimit="10"/>
	
		<line orgstroke="#000000" orgfill="none" fill="none" x1="375.996" x2="373.777" y1="333.115" y2="331.844" stroke="#000000" stroke-width="0.25" g2gstroke="#312783" stroke-miterlimit="10"/>
	
		<line orgstroke="#000000" orgfill="none" fill="none" x1="374.886" x2="372.669" y1="329.119" y2="327.844" stroke="#000000" stroke-width="0.25" g2gstroke="#312783" stroke-miterlimit="10"/>
	
		<line orgstroke="#000000" orgfill="none" fill="none" x1="372.86" x2="370.635" y1="312.348" y2="311.061" stroke="#000000" stroke-width="0.25" g2gstroke="#312783" stroke-miterlimit="10"/>
	
		<line orgstroke="#000000" orgfill="none" fill="none" x1="373.024" x2="370.801" y1="309.367" y2="308.094" stroke="#000000" stroke-width="0.25" g2gstroke="#312783" stroke-miterlimit="10"/>
	
		<line orgstroke="#000000" orgfill="none" fill="none" x1="373.33" x2="371.115" y1="306.272" y2="304.99" stroke="#000000" stroke-width="0.25" g2gstroke="#312783" stroke-miterlimit="10"/>
	
		<line orgstroke="#000000" orgfill="none" fill="none" x1="373.555" x2="371.335" y1="303.469" y2="302.184" stroke="#000000" stroke-width="0.25" g2gstroke="#312783" stroke-miterlimit="10"/>
	
		<line orgstroke="#000000" orgfill="none" fill="none" x1="373.452" x2="371.233" y1="301.098" y2="299.817" stroke="#000000" stroke-width="0.25" g2gstroke="#312783" stroke-miterlimit="10"/>
	
		<line orgstroke="#000000" orgfill="none" fill="none" x1="373.131" x2="370.907" y1="299.481" y2="298.194" stroke="#000000" stroke-width="0.25" g2gstroke="#312783" stroke-miterlimit="10"/>
	
		<line orgstroke="#000000" orgfill="none" fill="none" x1="372.698" x2="370.464" y1="298.401" y2="297.112" stroke="#000000" stroke-width="0.25" g2gstroke="#312783" stroke-miterlimit="10"/>
	
		<line orgstroke="#000000" orgfill="none" fill="none" x1="358.391" x2="356.207" y1="320.219" y2="318.949" stroke="#000000" stroke-width="0.25" g2gstroke="#312783" stroke-miterlimit="10"/>
	
		<line orgstroke="#000000" orgfill="none" fill="none" x1="358.246" x2="356.066" y1="316.852" y2="315.598" stroke="#000000" stroke-width="0.25" g2gstroke="#312783" stroke-miterlimit="10"/>
	
		<line orgstroke="#000000" orgfill="none" fill="none" x1="357.919" x2="355.738" y1="313.265" y2="312.01" stroke="#000000" stroke-width="0.25" g2gstroke="#312783" stroke-miterlimit="10"/>
	
		<line orgstroke="#000000" orgfill="none" fill="none" x1="357.748" x2="355.569" y1="309.809" y2="308.556" stroke="#000000" stroke-width="0.25" g2gstroke="#312783" stroke-miterlimit="10"/>
	
		<line orgstroke="#000000" orgfill="none" fill="none" x1="358.36" x2="356.174" y1="306.49" y2="305.233" stroke="#000000" stroke-width="0.25" g2gstroke="#312783" stroke-miterlimit="10"/>
	
		<line orgstroke="#000000" orgfill="none" fill="none" x1="359.405" x2="357.341" y1="303.348" y2="302.15" stroke="#000000" stroke-width="0.25" g2gstroke="#312783" stroke-miterlimit="10"/>
	
		<line orgstroke="#000000" orgfill="none" fill="none" x1="360.966" x2="358.781" y1="300.817" y2="299.557" stroke="#000000" stroke-width="0.25" g2gstroke="#312783" stroke-miterlimit="10"/>
	
		<line orgstroke="#000000" orgfill="none" fill="none" x1="362.895" x2="360.708" y1="298.265" y2="296.995" stroke="#000000" stroke-width="0.25" g2gstroke="#312783" stroke-miterlimit="10"/>
	
		<line orgstroke="#000000" orgfill="none" fill="none" x1="365.267" x2="363.079" y1="295.998" y2="294.733" stroke="#000000" stroke-width="0.25" g2gstroke="#312783" stroke-miterlimit="10"/>
	
		<line orgstroke="#000000" orgfill="none" fill="none" x1="367.895" x2="365.699" y1="294.364" y2="293.098" stroke="#000000" stroke-width="0.25" g2gstroke="#312783" stroke-miterlimit="10"/>
	
		<line orgstroke="#000000" orgfill="none" fill="none" x1="369.63" x2="367.431" y1="293.775" y2="292.514" stroke="#000000" stroke-width="0.25" g2gstroke="#312783" stroke-miterlimit="10"/>
	
		<line orgstroke="#000000" orgfill="none" fill="none" x1="370.886" x2="368.682" y1="293.61" y2="292.344" stroke="#000000" stroke-width="0.25" g2gstroke="#312783" stroke-miterlimit="10"/>
</g>
</g>
</g></svg>