<svg xmlns="http://www.w3.org/2000/svg" xmlns:xlink="http://www.w3.org/1999/xlink" xmlns:etg="http://www.eurotaxglass.com/etg/evd/" etg:dataTimestamp="1539068912893" contentScriptType="text/ecmascript" zoomAndPan="magnify" contentStyleType="text/css" id="Layer_1" enable-background="new 0 0 1841.891 1595.279" version="1.1" xml:space="preserve" width="1841.891px" preserveAspectRatio="xMidYMid meet" viewBox="0 0 1841.891 1595.279" height="1595.279px" x="0px" y="0px"><g xmlns="http://www.w3.org/2000/svg" objecttype="PS" tooltip="#UNDEFINED" id="16">
<g onmouseover="notifyOwner(AGV_OBJECT_MOUSEOVER, '16(PS)')" transform="translate(-18.01092089843752, -7.293701173693989E-6) translate(8.328388793945294, -42.254741333007814)" onclick="clickZoom(evt); notifyOwner(AGV_OBJECT_MOUSECLICK, '16(PS)')" onmouseout="notifyOwner(AGV_OBJECT_MOUSEOUT, '16(PS)')" tooltip="#UNDEFINED" id="16-Graphic" objecttype="GRAPHIC">
<g>
	<polygon orgstroke="#000000" orgfill="#ffffff" points="285.927,278.697 276.215,279.472    275.844,279.331 271.238,275.653 271.083,275.365 271.045,273.852 271.132,273.637 292.808,271.905 333.841,241.191    334.256,241.191 338.979,245.013 339.211,245.445 338.923,247.029 335.263,249.987 335.185,250.637 335.185,251.645    334.643,252.438 331.548,254.714 331.41,254.816 331.004,257.054 330.85,259.217 331.469,260.946 332.089,261.811 332.862,262.82    333.211,263.542 333.094,264.406 332.514,264.947 331.585,265.381 325.895,266.244 322.566,267.183 319.895,268.301    317.495,269.598 316.14,270.535 315.677,270.823 315.057,270.969 314.593,270.717 314.244,270.354 314.205,269.887    314.321,269.638 314.219,269.582 308.592,273.384 307.314,274.681 306.037,276.087 304.295,278.574 303.135,279.007    302.089,279.007 301.509,278.357 301.26,277.531 301.106,277.498 299.999,278.357 298.605,279.331 296.282,279.979    292.682,279.979 290.708,279.548 288.967,279.007 286.294,278.669  " fill="#ffffff" g2gfill="#BCBEC0" outline-element="true" stroke="#000000" stroke-width="0.5" g2gstroke="#312783" stroke-miterlimit="10"/>
	<polyline orgstroke="#000000" orgfill="none" points="338.923,245.561 297.891,276.275    276.215,278.006  " fill="none" stroke="#000000" stroke-width="0.25" g2gstroke="#312783" stroke-miterlimit="10"/>
	<polyline orgstroke="#000000" orgfill="none" points="338.923,247.029 297.891,277.742    287.073,278.605  " fill="none" stroke="#000000" stroke-width="0.25" g2gstroke="#312783" stroke-miterlimit="10"/>
	
		<line orgstroke="#000000" orgfill="none" fill="none" x1="331.293" x2="305.612" y1="254.9" y2="273.78" stroke="#000000" stroke-width="0.25" g2gstroke="#312783" stroke-miterlimit="10"/>
	
		<line orgstroke="#000000" orgfill="none" fill="none" x1="305.612" x2="303.289" y1="273.78" y2="275.8" stroke="#000000" stroke-width="0.25" g2gstroke="#312783" stroke-miterlimit="10"/>
	<polyline orgstroke="#000000" orgfill="none" points="328.594,257.054 328.474,258.278    328.554,259.425 328.635,260.57 329.032,261.598 329.59,262.587 330.108,263.456 330.586,264.089 331.104,264.603 331.541,264.958    331.98,265.077  " fill="none" stroke="#000000" stroke-width="0.25" g2gstroke="#312783" stroke-miterlimit="10"/>
	
		<line orgstroke="#000000" orgfill="none" fill="none" x1="303.289" x2="301.344" y1="275.8" y2="277.311" stroke="#000000" stroke-width="0.25" g2gstroke="#312783" stroke-miterlimit="10"/>
	<polyline orgstroke="#000000" orgfill="none" points="314.404,269.458 316.892,267.775    320.32,266.028 322.063,265.325 324.114,264.768 330.483,263.955  " fill="none" stroke="#000000" stroke-width="0.25" g2gstroke="#312783" stroke-miterlimit="10"/>
	<polyline orgstroke="#000000" orgfill="none" points="271.199,273.889 276.215,278.006    276.154,279.331  " fill="none" stroke="#000000" stroke-width="0.25" g2gstroke="#312783" stroke-miterlimit="10"/>
	
		<line orgstroke="#000000" orgfill="none" fill="none" x1="292.808" x2="297.891" y1="271.905" y2="276.275" stroke="#000000" stroke-width="0.25" g2gstroke="#312783" stroke-miterlimit="10"/>
	<polyline orgstroke="#000000" orgfill="none" points="277.114,274.924 277.524,274.982    277.864,275.263 277.864,275.557 277.582,275.839 277.162,275.874 276.669,275.839 276.317,275.593 276.215,275.275    276.354,275.028 276.635,274.924  " fill="none" stroke="#000000" stroke-width="0.25" g2gstroke="#312783" stroke-miterlimit="10"/>
	<polyline orgstroke="#000000" orgfill="none" points="282.405,274.448 282.815,274.507    283.154,274.789 283.154,275.081 282.874,275.363 282.452,275.398 281.961,275.363 281.608,275.116 281.505,274.8 281.644,274.554    281.927,274.448  " fill="none" stroke="#000000" stroke-width="0.25" g2gstroke="#312783" stroke-miterlimit="10"/>
	<polyline orgstroke="#000000" orgfill="none" points="305.308,270.723 303.308,269.273    303.018,268.679 303.076,267.922 303.599,267.272 304.295,266.731 305.051,266.569 305.804,266.785 306.501,267.219    308.069,268.463  " fill="none" stroke="#000000" stroke-width="0.25" g2gstroke="#312783" stroke-miterlimit="10"/>
	<polyline orgstroke="#000000" orgfill="none" points="304.45,266.858 304.392,267.31    304.392,267.904 304.587,268.191 305.012,268.607 305.553,268.985 306.754,269.581  " fill="none" stroke="#000000" stroke-width="0.25" g2gstroke="#312783" stroke-miterlimit="10"/>
	<polyline orgstroke="#000000" orgfill="none" points="318.76,260.593 316.76,259.143    316.469,258.549 316.526,257.792 317.051,257.143 317.747,256.602 318.501,256.439 319.257,256.656 319.953,257.089    321.521,258.333  " fill="none" stroke="#000000" stroke-width="0.25" g2gstroke="#312783" stroke-miterlimit="10"/>
	<polyline orgstroke="#000000" orgfill="none" points="317.901,256.728 317.844,257.18    317.844,257.773 318.037,258.062 318.462,258.477 319.006,258.855 320.205,259.45  " fill="none" stroke="#000000" stroke-width="0.25" g2gstroke="#312783" stroke-miterlimit="10"/>
	<polyline orgstroke="#000000" orgfill="none" points="333.605,249.104 331.604,247.655    331.314,247.06 331.372,246.304 331.894,245.654 332.592,245.113 333.345,244.95 334.101,245.168 334.799,245.601 336.365,246.845     " fill="none" stroke="#000000" stroke-width="0.25" g2gstroke="#312783" stroke-miterlimit="10"/>
	<polyline orgstroke="#000000" orgfill="none" points="332.746,245.24 332.688,245.691    332.688,246.285 332.883,246.573 333.308,246.988 333.849,247.366 335.051,247.962  " fill="none" stroke="#000000" stroke-width="0.25" g2gstroke="#312783" stroke-miterlimit="10"/>
	<polyline orgstroke="#000000" orgfill="none" points="284.79,272.546 289.315,275.114    289.895,275.762 289.895,276.519 289.329,276.959  " fill="none" stroke="#000000" stroke-width="0.25" g2gstroke="#312783" stroke-miterlimit="10"/>
	<polyline orgstroke="#000000" orgfill="none" points="291.309,276.801 293.147,275.006    293.96,274.572 294.773,274.789 296.747,276.304  " fill="none" stroke="#000000" stroke-width="0.25" g2gstroke="#312783" stroke-miterlimit="10"/>
	
		<line orgstroke="#000000" orgfill="none" fill="none" x1="295.286" x2="300.535" y1="274.035" y2="274.296" stroke="#000000" stroke-width="0.25" g2gstroke="#312783" stroke-miterlimit="10"/>
	<polyline orgstroke="#000000" orgfill="none" points="295.47,273.96 296.012,273.275    296.786,272.733 298.102,272.555 298.644,272.626 299.651,272.95 300.192,273.49 300.618,274.031  " fill="none" stroke="#000000" stroke-width="0.25" g2gstroke="#312783" stroke-miterlimit="10"/>
	<polyline orgstroke="#000000" orgfill="none" points="328.616,260.334 328.024,260.046    327.366,259.973 326.593,260.116 325.896,260.441 325.548,260.874 323.379,264.876  " fill="none" stroke="#000000" stroke-width="0.25" g2gstroke="#312783" stroke-miterlimit="10"/>
	<polyline orgstroke="#000000" orgfill="none" points="328.526,260.405 327.792,260.262    326.979,260.622 326.631,261.055 326.321,261.847 325.906,264.539  " fill="none" stroke="#000000" stroke-width="0.25" g2gstroke="#312783" stroke-miterlimit="10"/>
</g>
</g>
</g></svg>