<svg xmlns="http://www.w3.org/2000/svg" xmlns:xlink="http://www.w3.org/1999/xlink" xmlns:etg="http://www.eurotaxglass.com/etg/evd/" etg:dataTimestamp="1539068912893" contentScriptType="text/ecmascript" zoomAndPan="magnify" contentStyleType="text/css" id="Layer_1" enable-background="new 0 0 1841.891 1595.279" version="1.1" xml:space="preserve" width="1841.891px" preserveAspectRatio="xMidYMid meet" viewBox="0 0 1841.891 1595.279" height="1595.279px" x="0px" y="0px"><g xmlns="http://www.w3.org/2000/svg" objecttype="PS" tooltip="#UNDEFINED" id="22">
<g onmouseover="notifyOwner(AGV_OBJECT_MOUSEOVER, '22(PS)')" transform="translate(-18.01092089843752, -7.293701173693989E-6) translate(8.328388793945294, -42.254741333007814)" onclick="clickZoom(evt); notifyOwner(AGV_OBJECT_MOUSECLICK, '22(PS)')" onmouseout="notifyOwner(AGV_OBJECT_MOUSEOUT, '22(PS)')" tooltip="#UNDEFINED" id="22-Graphic" objecttype="GRAPHIC">
<g>
	<polygon orgstroke="#000000" orgfill="#ffffff" points="655.008,259.978 627.311,246.65    626.815,246.518 626.346,246.596 609.932,256.413 609.311,256.825 608.906,257.363 608.906,274.745 609.231,275.37    638.906,292.333 641.031,292.051 655.5,279.775 655.615,279.128 655.99,260.997 655.594,260.304  " fill="#ffffff" g2gfill="#82AA8E" outline-element="true" stroke="#000000" stroke-width="0.5" g2gstroke="#312783" stroke-miterlimit="10"/>
	<polyline orgstroke="#000000" orgfill="none" points="609.231,257.678 638.906,274.642    641.031,274.36 655.5,262.086  " fill="none" stroke="#000000" stroke-width="0.25" g2gstroke="#312783" stroke-miterlimit="10"/>
	
		<line orgstroke="#000000" orgfill="none" fill="none" x1="640.049" x2="640.049" y1="274.975" y2="291.51" stroke="#000000" stroke-width="0.25" g2gstroke="#312783" stroke-miterlimit="10"/>
	<polyline orgstroke="#000000" orgfill="none" points="655.063,278.666 641.031,290.567    638.906,290.849 609.231,273.885  " fill="none" stroke="#000000" stroke-width="0.25" g2gstroke="#312783" stroke-miterlimit="10"/>
	
	
		<ellipse orgstroke="#000000" orgfill="none" fill="none" rx="2.039" cx="640.049" ry="1.456" cy="270.103" stroke="#000000" stroke-width="0.25" g2gstroke="#312783" stroke-miterlimit="10"/>
	<path orgstroke="#000000" orgfill="none" fill="none" d="M642.385,277.908   c-0.48-0.226-0.576-0.991-0.211-1.712c0.354-0.72,1.049-1.12,1.521-0.896c0.479,0.229,0.575,0.992,0.211,1.729   C643.551,277.733,642.865,278.134,642.385,277.908z" stroke="#000000" stroke-width="0.25" g2gstroke="#312783" stroke-miterlimit="10"/>
	<path orgstroke="#000000" orgfill="none" fill="none" d="M642.416,282.336   c-0.479-0.227-0.575-0.993-0.229-1.713c0.362-0.721,1.063-1.121,1.528-0.896c0.479,0.225,0.571,0.979,0.211,1.712   C643.573,282.159,642.897,282.561,642.416,282.336z" stroke="#000000" stroke-width="0.25" g2gstroke="#312783" stroke-miterlimit="10"/>
	
		<ellipse orgstroke="#000000" orgfill="none" fill="none" rx="2.041" cx="614.86" ry="1.455" cy="256.892" stroke="#000000" stroke-width="0.25" g2gstroke="#312783" stroke-miterlimit="10"/>
	<polyline orgstroke="#000000" orgfill="none" points="645.35,270.694 645.399,274.052    644.99,275.052 644.838,275.897 644.68,287.28  " fill="none" stroke="#000000" stroke-width="0.25" g2gstroke="#312783" stroke-miterlimit="10"/>
	<polyline orgstroke="#000000" orgfill="none" points="608.906,261.439 611.547,263.132    611.865,263.286 612.344,263.053 612.585,262.515 612.74,259.688  " fill="none" stroke="#000000" stroke-width="0.25" g2gstroke="#312783" stroke-miterlimit="10"/>
</g>
</g>
</g></svg>