<svg xmlns="http://www.w3.org/2000/svg" xmlns:xlink="http://www.w3.org/1999/xlink" xmlns:etg="http://www.eurotaxglass.com/etg/evd/" etg:dataTimestamp="1539068912893" contentScriptType="text/ecmascript" zoomAndPan="magnify" contentStyleType="text/css" id="Layer_1" enable-background="new 0 0 1841.891 1595.279" version="1.1" xml:space="preserve" width="1841.891px" preserveAspectRatio="xMidYMid meet" viewBox="0 0 1841.891 1595.279" height="1595.279px" x="0px" y="0px"><g xmlns="http://www.w3.org/2000/svg" objecttype="PS" tooltip="#UNDEFINED" id="31">
<g onmouseover="notifyOwner(AGV_OBJECT_MOUSEOVER, '31(PS)')" transform="translate(-143.57946337890627, -7.293701173693989E-6) translate(-466.70543994140627, -17.177077911376955) translate(-46.0, -1.0) translate(513.0, -23.0) translate(10.0, 10.00006103515625)" onclick="clickZoom(evt); notifyOwner(AGV_OBJECT_MOUSECLICK, '31(PS)')" onmouseout="notifyOwner(AGV_OBJECT_MOUSEOUT, '31(PS)')" tooltip="#UNDEFINED" id="31-Graphic" objecttype="GRAPHIC">
<g zvalue="11">
<g>
<path orgstroke="#000000" orgfill="#ffffff" fill="#ffffff" g2gfill="#ECC35D" d="M725.3,447c0.2,0.3,0.4,0.7,0.4,0.9c0,0.2,0.1,0.5-0.2,0.9   c-0.5,0.5-4.1,3.8-4.9,4.5c-0.8,0.8-2.8,0.2-3.7-0.3c-0.3-0.2-1.3-0.6-1.3-0.6c-0.4-0.3-0.9-0.2-1.1,0.2l-0.9,1   c-0.3,0.3-0.4,0.4-0.9,0.3c-0.1,0-0.6-0.1-0.7-0.1c-0.4-0.1-0.4-0.1-0.6-0.5l-0.2-0.4c-0.2-0.4-0.1-0.6,0.2-0.9   c0.3-0.3,0.5-0.5,0.5-0.5c0.5-0.5,0.7-0.8,0.2-1.1c0,0-3.8-1.8-5.1-2.5c-0.6-0.3-1.2-0.9-1.5-1.6c-0.1-0.3-0.2-0.7-0.3-0.8   c-0.2-0.5-0.2-1.1-0.1-1.3c0.1-0.2,0.1-0.3-0.1-0.9c0,0-1.2-3.4-1.4-4.5c-0.1-0.6-0.1-1.9-0.1-2.5c0-0.6,0.5-1.1,1.1-0.7   c0.4,0.2,1,0.6,1.3,0.7c0.4,0.3,4,3.1,5.1,3.9c0.6,0.4,1.5,0.5,1.5,0.5l0.6,0.1l0.8,0.2l9.9,4.3C724.4,445.9,725,446.5,725.3,447z" stroke="#000000" outline-element="true" stroke-width="0.5" g2gstroke="#312783"/>
<path orgstroke="#000000" orgfill="none" fill="none" d="M705.4000244140625 445.1000061035156L714.7000122070312 449.3999938964844" stroke="#000000" stroke-width="0.25" g2gstroke="#312783"/>
<path orgstroke="#000000" orgfill="none" fill="none" d="M720,449.6c-1.8-0.3-4.1,0.3-5.2,1.2c-0.8,0.7-2.2,2.1-2.2,2.1" stroke="#000000" stroke-width="0.25" g2gstroke="#312783"/>
<path orgstroke="#000000" orgfill="none" fill="none" d="M716.7,448.9c0,0-5.1-2.4-8-3.6c-0.6-0.3-0.4-0.4,0.1-0.8l4.4-3.5" stroke="#000000" stroke-width="0.25" g2gstroke="#312783"/>
<path orgstroke="#000000" orgfill="none" fill="none" d="M715.8,446l0.1-2.3c0-0.6,0-1.7-0.5-1.9" stroke="#000000" stroke-width="0.25" g2gstroke="#312783"/>
<path orgstroke="#000000" orgfill="none" fill="none" d="M712.7,444.5l0-1.3c0-0.5,0.7-2.2,2.2-1.6" stroke="#000000" stroke-width="0.25" g2gstroke="#312783"/>
<path orgstroke="#000000" orgfill="none" fill="none" d="M719.1,447.5l0.1-1.7c0-0.6,0.3-2.2,1.8-1.6" stroke="#000000" stroke-width="0.25" g2gstroke="#312783"/>
<path orgstroke="#000000" orgfill="none" fill="none" d="M721.5,448.7l-9.4-4.4c-0.2-0.1-0.3-0.2-0.1-0.4l0.7-0.5" stroke="#000000" stroke-width="0.25" g2gstroke="#312783"/>
<path orgstroke="#000000" orgfill="none" fill="none" d="M714.7000122070312 445.3999938964844L712.7000122070312 447" stroke="#000000" stroke-width="0.25" g2gstroke="#312783"/>
<path orgstroke="#000000" orgfill="none" fill="none" d="M714 446L721 449.29998779296875" stroke="#000000" stroke-width="0.25" g2gstroke="#312783"/>
<path orgstroke="#000000" orgfill="none" fill="none" d="M711.4,452.4l0.6,0.2c0.3,0.1,0.6,0.3,0.7,0.6l0.3,0.6" stroke="#000000" stroke-width="0.25" g2gstroke="#312783"/>
<path orgstroke="#000000" orgfill="none" fill="none" d="M720.1,450c0,0,0-0.3-0.1-0.4c-0.2-0.3-0.9-0.6-0.9-0.6   c-0.3-0.2-0.7-0.2-1.1-0.2c-1.3,0.1-3.7,0.5-4.4,1.2c-0.3,0.3-0.8,0.7-1.2,1.1" stroke="#000000" stroke-width="0.25" g2gstroke="#312783"/>
<path orgstroke="#000000" orgfill="none" fill="none" d="M717.3,450.7c0,0,1.3,0.6,1.8,0.8c0.8,0.2,1,0.1,1.6-0.4   c0.8-0.7,3.2-2.9,4-3.6c0.4-0.4,0.1-1.2-0.1-1.4" stroke="#000000" stroke-width="0.25" g2gstroke="#312783"/>
<path orgstroke="#000000" orgfill="none" fill="none" d="M705.4,436.4c-0.2-0.1-0.3,0.3-0.2,0.9c0.1,0.6,0.2,2.1,0.6,3.2   s1.1,3.5,1.1,3.5" stroke="#000000" stroke-width="0.25" g2gstroke="#312783"/>
<path orgstroke="#000000" orgfill="none" fill="none" d="M705.2,443.6c0.1,0.5,0.4,0.4,0.8,0.5c0.4,0.1,0.7,0,1.2-0.3l4.5-3.2" stroke="#000000" stroke-width="0.25" g2gstroke="#312783"/>
<path orgstroke="#000000" orgfill="none" fill="none" d="M724.3,446c0,0-3.5,3.4-4,3.8c-0.3,0.3-0.7,0.1-1.1,0.1   c-2,0.1-4,1.9-4.6,2.5" stroke="#000000" stroke-width="0.25" g2gstroke="#312783"/>
<path orgstroke="#000000" orgfill="none" fill="none" d="M715.1,443.4c0,0.5-0.3,0.9-0.7,0.9c-0.4,0-0.7-0.4-0.7-0.9   c0-0.5,0.3-0.9,0.7-0.9C714.8,442.5,715.1,442.9,715.1,443.4z" stroke="#000000" stroke-width="0.25" g2gstroke="#312783"/>
<path orgstroke="#000000" orgfill="none" fill="none" d="M721.5,446.2c0,0.5-0.3,0.9-0.7,0.9c-0.4,0-0.7-0.4-0.7-0.9   c0-0.5,0.3-0.9,0.7-0.9C721.2,445.4,721.5,445.8,721.5,446.2z" stroke="#000000" stroke-width="0.25" g2gstroke="#312783"/>
<path orgstroke="#000000" orgfill="none" fill="none" d="M722.4,444.9c0.3,0.2,0.3,0.8,0.3,1.4s0,1.3,0,1.3" stroke="#000000" stroke-width="0.25" g2gstroke="#312783"/>
</g>
</g>
</g>
</g></svg>