<svg xmlns="http://www.w3.org/2000/svg" xmlns:xlink="http://www.w3.org/1999/xlink" xmlns:etg="http://www.eurotaxglass.com/etg/evd/" etg:dataTimestamp="1539068912893" contentScriptType="text/ecmascript" zoomAndPan="magnify" contentStyleType="text/css" id="Layer_1" enable-background="new 0 0 1841.891 1595.279" version="1.1" xml:space="preserve" width="1841.891px" preserveAspectRatio="xMidYMid meet" viewBox="0 0 1841.891 1595.279" height="1595.279px" x="0px" y="0px"><g xmlns="http://www.w3.org/2000/svg" objecttype="PS" tooltip="#UNDEFINED" id="36">
<g onmouseover="notifyOwner(AGV_OBJECT_MOUSEOVER, '36(PS)')" transform="translate(-18.01092089843752, -7.293701173693989E-6) translate(39.0, -8.0) translate(-1.0, 1.0)" onclick="clickZoom(evt); notifyOwner(AGV_OBJECT_MOUSECLICK, '36(PS)')" onmouseout="notifyOwner(AGV_OBJECT_MOUSEOUT, '36(PS)')" tooltip="#UNDEFINED" id="36-Graphic" objecttype="GRAPHIC">
<g>
	<path orgstroke="#000000" orgfill="#ffffff" fill="#ffffff" g2gfill="#ECF5E4" d="M169.999,328.746   c0.035-0.468,0.29-0.923,0.759-1.302l0.08-0.128c0.045-0.271,0.2-0.541,0.461-0.771l0.063-0.105l0.021-0.104v-0.752l0.004-0.08   c0.021-0.146,0.084-0.277,0.202-0.396c0.258-0.229,0.667-0.229,0.926,0c0.135,0.118,0.202,0.273,0.206,0.438v-0.021l0.015,0.152   l0.016,0.104l0.021,0.021l0.045,0.063c0.354-0.06,0.713-0.063,1.066-0.021l-0.021-0.002l0.052-0.014l0.058-0.034l0.021-0.063   l0.021-0.122c0.007-0.153,0.075-0.313,0.205-0.432c0.258-0.229,0.668-0.229,0.926,0c0.114,0.104,0.187,0.229,0.2,0.372l0.005,0.063   v0.645l0.063,0.144c0.354,0.263,0.563,0.573,0.604,0.896l0.074,0.107c0.445,0.36,0.709,0.812,0.759,1.248l0.008,0.125v5.146   l-0.021,0.309c-0.079,0.473-0.396,0.926-0.938,1.291c-1.354,0.92-3.594,0.92-4.938,0c-0.513-0.346-0.813-0.762-0.908-1.188   l-0.046-0.31v-5.146v-0.146L169.999,328.746L169.999,328.746z" outline-element="true" stroke="#000000" stroke-width="0.5" g2gstroke="#312783" stroke-miterlimit="10"/>
	<path orgstroke="#000000" orgfill="none" fill="none" d="M170.834,328.691   c-0.063,0.449,0.171,0.914,0.711,1.271c1.021,0.674,2.725,0.674,3.745,0c0.551-0.363,0.771-0.854,0.708-1.313" stroke="#000000" stroke-width="0.25" g2gstroke="#312783" stroke-miterlimit="10"/>
	<path orgstroke="#000000" orgfill="none" fill="none" d="M175.29,328.616   c0.409-0.271,0.644-0.604,0.704-0.938" stroke="#000000" stroke-width="0.25" g2gstroke="#312783" stroke-miterlimit="10"/>
	<path orgstroke="#000000" orgfill="none" fill="none" d="M173.269,329.119   c0.271,0.021,0.53-0.01,0.793-0.05" stroke="#000000" stroke-width="0.25" g2gstroke="#312783" stroke-miterlimit="10"/>
	<path orgstroke="#000000" orgfill="none" fill="none" d="M170.825,327.448   c-0.021,0.418,0.221,0.841,0.72,1.168c0.478,0.313,1.097,0.479,1.727,0.503" stroke="#000000" stroke-width="0.25" g2gstroke="#312783" stroke-miterlimit="10"/>
	
		<line orgstroke="#000000" orgfill="none" fill="none" x1="170.827" x2="170.824" y1="327.417" y2="328.833" stroke="#000000" stroke-width="0.25" g2gstroke="#312783" stroke-miterlimit="10"/>
	
		<line orgstroke="#000000" orgfill="none" fill="none" x1="176.008" x2="176.011" y1="327.393" y2="328.814" stroke="#000000" stroke-width="0.25" g2gstroke="#312783" stroke-miterlimit="10"/>
	<path orgstroke="#000000" orgfill="none" fill="none" d="M174.01,325.811   c0.025,0.105,0.083,0.209,0.169,0.293c0.267,0.263,0.702,0.263,0.969,0c0.068-0.066,0.122-0.146,0.149-0.232" stroke="#000000" stroke-width="0.25" g2gstroke="#312783" stroke-miterlimit="10"/>
	<path orgstroke="#000000" orgfill="none" fill="none" d="M175.331,326.436v0.674l-0.001,0.063   c-0.021,0.141-0.071,0.271-0.188,0.389c-0.267,0.262-0.702,0.262-0.969,0c-0.104-0.1-0.159-0.225-0.18-0.35l-0.021-0.074v-1.188" stroke="#000000" stroke-width="0.25" g2gstroke="#312783" stroke-miterlimit="10"/>
	<path orgstroke="#000000" orgfill="none" fill="none" d="M171.417,325.802   c0.031,0.063,0.079,0.146,0.146,0.211c0.271,0.26,0.699,0.26,0.966,0c0.063-0.063,0.112-0.146,0.146-0.211" stroke="#000000" stroke-width="0.25" g2gstroke="#312783" stroke-miterlimit="10"/>
	<path orgstroke="#000000" orgfill="none" fill="none" d="M172.712,325.969v1.047l-0.001,0.055   c-0.011,0.146-0.069,0.281-0.188,0.396c-0.267,0.258-0.688,0.258-0.966,0c-0.104-0.104-0.163-0.229-0.183-0.354l-0.005-0.063   v-0.439" stroke="#000000" stroke-width="0.25" g2gstroke="#312783" stroke-miterlimit="10"/>
	<path orgstroke="#000000" orgfill="none" fill="none" d="M176.792,329.225   c-0.107,0.422-0.409,0.832-0.9,1.168c-1.354,0.918-3.594,0.918-4.938,0c-0.447-0.305-0.734-0.668-0.866-1.049" stroke="#000000" stroke-width="0.25" g2gstroke="#312783" stroke-miterlimit="10"/>
</g>
</g>
</g></svg>