<svg xmlns="http://www.w3.org/2000/svg" xmlns:xlink="http://www.w3.org/1999/xlink" xmlns:etg="http://www.eurotaxglass.com/etg/evd/" etg:dataTimestamp="1539068912893" contentScriptType="text/ecmascript" zoomAndPan="magnify" contentStyleType="text/css" id="Layer_1" enable-background="new 0 0 1841.891 1595.279" version="1.1" xml:space="preserve" width="1841.891px" preserveAspectRatio="xMidYMid meet" viewBox="0 0 1841.891 1595.279" height="1595.279px" x="0px" y="0px"><g xmlns="http://www.w3.org/2000/svg" objecttype="PS" tooltip="#UNDEFINED" id="41">
<g onmouseover="notifyOwner(AGV_OBJECT_MOUSEOVER, '41(PS)')" transform="translate(-18.01092089843752, -7.293701173693989E-6) translate(38.0, 6.0) translate(8.328388793945294, -42.254741333007814)" onclick="clickZoom(evt); notifyOwner(AGV_OBJECT_MOUSECLICK, '41(PS)')" onmouseout="notifyOwner(AGV_OBJECT_MOUSEOUT, '41(PS)')" tooltip="#UNDEFINED" id="41-Graphic" objecttype="GRAPHIC">
<g>
	<polygon orgstroke="#000000" orgfill="#ffffff" points="190.988,271.087 185.505,271.362    184.206,271.622 182.764,272.272 181.899,273.702 181.322,276.171 179.591,282.799 178.868,283.969 177.281,285.397 175.9,286.01    175.65,286.01 173.999,284.975 173.963,284.716 173.819,283.481 173.639,283.286 172.485,282.636 172.304,282.669 171.51,283.222    171.076,283.124 165.559,279.809 165.017,279.516 164.26,279.712 163.611,279.907 150.949,286.242 150.408,286.827    150.408,287.704 149.219,298.231 149.002,299.206 148.57,299.889 139.48,305.054 139.155,305.736 139.047,306.808 138.722,313.533    138.939,314.219 139.696,314.704 145.22,318.094 145.323,318.219 145.404,318.431 145.431,318.652 145.594,318.822 147.569,319.82    147.839,319.82 148.056,319.894 148.056,319.894 148.198,320.035 148.353,320.452 148.244,321.136 147.162,322.111    146.946,322.988 147.055,327.277 147.919,327.763 149.76,328.738 150.193,329.324 150.193,330.396 149.76,330.885 147.379,331.566    146.946,332.052 146.73,332.844 146.946,335.367 147.379,336.052 151.816,338.486 152.789,338.594 158.416,335.951    159.173,335.951 160.255,335.853 164.584,333.613 165.342,332.929 166.316,332.247 171.402,312.949 171.727,312.072    172.375,311.488 173.241,311.195 174.756,310.415 175.947,309.538 178.003,304.568 178.327,303.594 179.084,302.719    182.331,299.498 182.872,298.621 183.089,297.744 183.954,292.48 183.954,291.603 183.522,290.824 182.872,290.432    182.033,289.812 181.902,289.643 182.188,288.647 182.908,286.567 183.919,283.839 185.651,276.561 186.371,276.301    187.093,276.301 190.555,276.821 190.988,277.21 191.421,277.86 191.566,279.029 192.864,279.809 195.317,280.329 197.336,279.939    198.636,279.16 199.104,268.762 199.104,267.675 198.13,266.651 196.399,266.164 193.874,266.164 191.997,266.813 191.277,267.723    191.277,270.323  " fill="#ffffff" g2gfill="#ECC35D" outline-element="true" stroke="#000000" stroke-width="0.5" g2gstroke="#312783" stroke-miterlimit="10"/>
	<polyline orgstroke="#000000" orgfill="none" points="172.879,283.751 158.456,291.61    158.268,291.927 158.161,292.976 157.153,301.034 156.574,301.685 148.783,305.974 147.775,306.76 147.486,307.402 146.783,319.37     " fill="none" stroke="#000000" stroke-width="0.25" g2gstroke="#312783" stroke-miterlimit="10"/>
	<polyline orgstroke="#000000" orgfill="none" points="171.678,283.212 157.254,291.071    157.066,291.389 156.96,292.439 155.95,300.497 155.373,301.146 147.582,305.435 146.573,306.219 146.283,306.865 145.504,318.26     " fill="none" stroke="#000000" stroke-width="0.25" g2gstroke="#312783" stroke-miterlimit="10"/>
	<polyline orgstroke="#000000" orgfill="none" points="172.879,285.376 159.178,292.843    158.997,293.142 158.899,294.14 157.94,301.802 157.391,302.413 149.989,306.486 149.029,307.228 148.755,307.845 147.992,319.771     " fill="none" stroke="#000000" stroke-width="0.25" g2gstroke="#312783" stroke-miterlimit="10"/>
	
		<line orgstroke="#000000" orgfill="none" fill="none" x1="181.508" x2="176.069" y1="289.594" y2="286.248" stroke="#000000" stroke-width="0.25" g2gstroke="#312783" stroke-miterlimit="10"/>
	<polyline orgstroke="#000000" orgfill="none" points="182.188,290.856 170.789,296.574    170.211,297.484 170.068,298.262 170.5,311.135  " fill="none" stroke="#000000" stroke-width="0.25" g2gstroke="#312783" stroke-miterlimit="10"/>
	<polyline orgstroke="#000000" orgfill="none" points="171.366,311.91 169.635,311.779    168.047,310.87 161.698,307.885  " fill="none" stroke="#000000" stroke-width="0.25" g2gstroke="#312783" stroke-miterlimit="10"/>
	<polyline orgstroke="#000000" orgfill="none" points="158.092,302.162 159.823,303.202    160.833,304.241 161.266,305.152 161.266,307.361  " fill="none" stroke="#000000" stroke-width="0.25" g2gstroke="#312783" stroke-miterlimit="10"/>
	
		<line orgstroke="#000000" orgfill="none" fill="none" x1="146.116" x2="142.654" y1="306.191" y2="304.371" stroke="#000000" stroke-width="0.25" g2gstroke="#312783" stroke-miterlimit="10"/>
	<polyline orgstroke="#000000" orgfill="none" points="142.406,303.39 142.545,305.094    142.402,305.802 142.113,306.029 141.68,306.094 139.696,305.185  " fill="none" stroke="#000000" stroke-width="0.25" g2gstroke="#312783" stroke-miterlimit="10"/>
	<polyline orgstroke="#000000" orgfill="none" points="159.975,303.358 160.112,304.761    159.534,305.931 158.668,306.581 152.753,309.57 152.176,310.094 152.176,311.519 151.888,319.576  " fill="none" stroke="#000000" stroke-width="0.25" g2gstroke="#312783" stroke-miterlimit="10"/>
	<polyline orgstroke="#000000" orgfill="none" points="148.859,320.226 151.888,321.656    153.041,321.396 154.196,320.885 160.255,317.888  " fill="none" stroke="#000000" stroke-width="0.25" g2gstroke="#312783" stroke-miterlimit="10"/>
	<polyline orgstroke="#000000" orgfill="none" points="150.193,330.396 150.301,332.574    150.012,332.969 149.002,332.969 147.379,331.566  " fill="none" stroke="#000000" stroke-width="0.25" g2gstroke="#312783" stroke-miterlimit="10"/>
	<polyline orgstroke="#000000" orgfill="none" points="147.992,322.697 154.485,325.814    155.206,325.814 155.928,325.427 160.401,318.927  " fill="none" stroke="#000000" stroke-width="0.25" g2gstroke="#312783" stroke-miterlimit="10"/>
	<polyline orgstroke="#000000" orgfill="none" points="152.321,338.031 152.321,334.392    152.898,333.742 153.906,333.222 159.102,331.273  " fill="none" stroke="#000000" stroke-width="0.25" g2gstroke="#312783" stroke-miterlimit="10"/>
	<polyline orgstroke="#000000" orgfill="none" points="156.217,326.204 158.814,327.894    159.391,328.804 159.968,330.103 160.283,335.844  " fill="none" stroke="#000000" stroke-width="0.25" g2gstroke="#312783" stroke-miterlimit="10"/>
	<polyline orgstroke="#000000" orgfill="none" points="159.198,328.499 162.77,327.644    163.314,327.742 163.841,327.982 164.079,328.804 163.936,329.861 160.255,333.052  " fill="none" stroke="#000000" stroke-width="0.25" g2gstroke="#312783" stroke-miterlimit="10"/>
	
		<line orgstroke="#000000" orgfill="none" fill="none" x1="148.755" x2="152.176" y1="307.845" y2="309.57" stroke="#000000" stroke-width="0.25" g2gstroke="#312783" stroke-miterlimit="10"/>
	
		<line orgstroke="#000000" orgfill="none" fill="none" x1="149.578" x2="153.764" y1="299.693" y2="301.642" stroke="#000000" stroke-width="0.25" g2gstroke="#312783" stroke-miterlimit="10"/>
	
		<line orgstroke="#000000" orgfill="none" fill="none" x1="151.166" x2="157.803" y1="287.087" y2="290.466" stroke="#000000" stroke-width="0.25" g2gstroke="#312783" stroke-miterlimit="10"/>
	
		<line orgstroke="#000000" orgfill="none" fill="none" x1="160.689" x2="169.346" y1="293.325" y2="296.574" stroke="#000000" stroke-width="0.25" g2gstroke="#312783" stroke-miterlimit="10"/>
	<polyline orgstroke="#000000" orgfill="none" points="191.854,268.114 192.864,269.022    194.596,269.413 197.047,269.413 198.509,268.454  " fill="none" stroke="#000000" stroke-width="0.25" g2gstroke="#312783" stroke-miterlimit="10"/>
	<polyline orgstroke="#000000" orgfill="none" points="191.566,271.883 192.286,273.052    192.575,274.611 192.286,275.781 191.277,276.821  " fill="none" stroke="#000000" stroke-width="0.25" g2gstroke="#312783" stroke-miterlimit="10"/>
	<polyline orgstroke="#000000" orgfill="none" points="155.441,326.456 158.029,328.101    158.604,328.988 159.18,330.26 159.494,335.844  " fill="none" stroke="#000000" stroke-width="0.25" g2gstroke="#312783" stroke-miterlimit="10"/>
	<polyline orgstroke="#000000" orgfill="none" points="156.523,328.64 156.685,328.302    157.28,328.26 157.605,328.447 158.147,329.275 158.308,330.01 157.984,330.445 157.605,330.493 157.227,330.347 156.847,329.91     " fill="none" stroke="#000000" stroke-width="0.25" g2gstroke="#312783" stroke-miterlimit="10"/>
	<polyline orgstroke="#000000" orgfill="none" points="158.633,331.224 156.739,330.844    155.928,330.396 155.656,330.01 155.548,329.47 155.387,326.693  " fill="none" stroke="#000000" stroke-width="0.25" g2gstroke="#312783" stroke-miterlimit="10"/>
	<polyline orgstroke="#000000" orgfill="none" points="155.494,330.594 152.031,332.199    151.869,332.54 152.195,333.806  " fill="none" stroke="#000000" stroke-width="0.25" g2gstroke="#312783" stroke-miterlimit="10"/>
	<polyline orgstroke="#000000" orgfill="none" points="150.571,329.079 152.303,329.663    153.005,329.719 153.546,329.324 154.196,326.204  " fill="none" stroke="#000000" stroke-width="0.25" g2gstroke="#312783" stroke-miterlimit="10"/>
	<polyline orgstroke="#000000" orgfill="none" points="191.854,269.413 192.864,270.323    194.596,270.713 197.047,270.713 198.509,269.754  " fill="none" stroke="#000000" stroke-width="0.25" g2gstroke="#312783" stroke-miterlimit="10"/>
	<polyline orgstroke="#000000" orgfill="none" points="191.854,271.232 192.864,272.142    194.596,272.532 197.047,272.532 198.509,271.573  " fill="none" stroke="#000000" stroke-width="0.25" g2gstroke="#312783" stroke-miterlimit="10"/>
	<polyline orgstroke="#000000" orgfill="none" points="178.529,284.274 179.842,284.098    181.358,284.488 182.223,285.073 183.078,286.107  " fill="none" stroke="#000000" stroke-width="0.25" g2gstroke="#312783" stroke-miterlimit="10"/>
	<polyline orgstroke="#000000" orgfill="none" points="178.968,283.796 180.216,283.643    181.655,283.979 182.478,284.483 183.289,285.376  " fill="none" stroke="#000000" stroke-width="0.25" g2gstroke="#312783" stroke-miterlimit="10"/>
	<polyline orgstroke="#000000" orgfill="none" points="180.57,279.321 181.753,279.19    183.118,279.478 183.9,279.913 184.669,280.68  " fill="none" stroke="#000000" stroke-width="0.25" g2gstroke="#312783" stroke-miterlimit="10"/>
	<polyline orgstroke="#000000" orgfill="none" points="190.267,271.517 190.988,272.686    191.277,274.247 190.988,275.416 189.979,276.456  " fill="none" stroke="#000000" stroke-width="0.25" g2gstroke="#312783" stroke-miterlimit="10"/>
	<polyline orgstroke="#000000" orgfill="none" points="188.968,271.517 189.69,272.686    189.978,274.247 189.69,275.416 188.68,276.456  " fill="none" stroke="#000000" stroke-width="0.25" g2gstroke="#312783" stroke-miterlimit="10"/>
	<polyline orgstroke="#000000" orgfill="none" points="185.651,276.561 185.308,276.618    184.874,276.593 184.576,276.618  " fill="none" stroke="#000000" stroke-width="0.25" g2gstroke="#312783" stroke-miterlimit="10"/>
	<polyline orgstroke="#000000" orgfill="none" points="180.57,278.86 181.753,278.728    183.118,279.016 183.9,279.451 184.669,280.218  " fill="none" stroke="#000000" stroke-width="0.25" g2gstroke="#312783" stroke-miterlimit="10"/>
	<polyline orgstroke="#000000" orgfill="none" points="180.386,279.781 181.57,279.649    182.935,279.938 183.716,280.372 184.486,281.139  " fill="none" stroke="#000000" stroke-width="0.25" g2gstroke="#312783" stroke-miterlimit="10"/>
	<polyline orgstroke="#000000" orgfill="none" points="180.804,278.397 181.987,278.265    183.352,278.553 184.133,278.988 184.903,279.755  " fill="none" stroke="#000000" stroke-width="0.25" g2gstroke="#312783" stroke-miterlimit="10"/>
	<polyline orgstroke="#000000" orgfill="none" points="163.9,317.814 163.495,317.888    163.113,317.476 163.105,317.124 163.552,316.26 164.125,315.719 164.71,315.702 164.972,315.956 165.055,316.32 164.869,316.851     " fill="none" stroke="#000000" stroke-width="0.25" g2gstroke="#312783" stroke-miterlimit="10"/>
	<polyline orgstroke="#000000" orgfill="none" points="172.699,305.39 172.295,305.469    171.911,305.052 171.905,304.701 172.351,303.827 172.925,303.29 173.511,303.28 173.771,303.532 173.854,303.896 173.669,304.427     " fill="none" stroke="#000000" stroke-width="0.25" g2gstroke="#312783" stroke-miterlimit="10"/>
	<polyline orgstroke="#000000" orgfill="none" points="173.675,298.683 173.271,298.76    172.887,298.345 172.879,297.994 173.325,297.122 173.9,296.584 174.486,296.574 174.745,296.827 174.829,297.19 174.645,297.72     " fill="none" stroke="#000000" stroke-width="0.25" g2gstroke="#312783" stroke-miterlimit="10"/>
	<polyline orgstroke="#000000" orgfill="none" points="178.788,295.967 178.385,296.042    178,295.63 177.992,295.277 178.441,294.405 179.015,293.868 179.6,293.858 179.861,294.11 179.944,294.474 179.76,295.004  " fill="none" stroke="#000000" stroke-width="0.25" g2gstroke="#312783" stroke-miterlimit="10"/>
	
		<line orgstroke="#000000" orgfill="none" fill="none" x1="172.471" x2="172.592" y1="305.933" y2="309.829" stroke="#000000" stroke-width="0.25" g2gstroke="#312783" stroke-miterlimit="10"/>
	<polyline orgstroke="#000000" orgfill="none" points="172.537,298.329 172.213,298.767    172.268,299.45 172.389,303.345  " fill="none" stroke="#000000" stroke-width="0.25" g2gstroke="#312783" stroke-miterlimit="10"/>
	
		<line orgstroke="#000000" orgfill="none" fill="none" x1="177.594" x2="175.281" y1="295.587" y2="296.842" stroke="#000000" stroke-width="0.25" g2gstroke="#312783" stroke-miterlimit="10"/>
	
		<line orgstroke="#000000" orgfill="none" fill="none" x1="183.143" x2="180.502" y1="292.578" y2="294.01" stroke="#000000" stroke-width="0.25" g2gstroke="#312783" stroke-miterlimit="10"/>
</g>
</g>
</g></svg>