<svg xmlns="http://www.w3.org/2000/svg" xmlns:xlink="http://www.w3.org/1999/xlink" xmlns:etg="http://www.eurotaxglass.com/etg/evd/" etg:dataTimestamp="1539068912893" contentScriptType="text/ecmascript" zoomAndPan="magnify" contentStyleType="text/css" id="Layer_1" enable-background="new 0 0 1841.891 1595.279" version="1.1" xml:space="preserve" width="1841.891px" preserveAspectRatio="xMidYMid meet" viewBox="0 0 1841.891 1595.279" height="1595.279px" x="0px" y="0px"><g xmlns="http://www.w3.org/2000/svg" objecttype="PS" tooltip="#UNDEFINED" id="51">
<g onmouseover="notifyOwner(AGV_OBJECT_MOUSEOVER, '51(PS)')" transform="translate(-18.01092089843752, -7.293701173693989E-6) translate(38.0, 6.0) translate(8.328388793945294, -42.254741333007814)" onclick="clickZoom(evt); notifyOwner(AGV_OBJECT_MOUSECLICK, '51(PS)')" onmouseout="notifyOwner(AGV_OBJECT_MOUSEOUT, '51(PS)')" tooltip="#UNDEFINED" id="51-Graphic" objecttype="GRAPHIC">
<g>
	<g id="39::XMLID_5_">
		<g>
			<path orgstroke="#000000" orgfill="#ffffff" fill="#ffffff" g2gfill="#ECC35D" d="M194.051,263.198l0.226-0.79l-0.268-0.773     l-0.779-0.688l-1.189-0.345l-1.043-0.161l-0.803,0.188l-0.916,0.644l-0.468,0.625v0.676l0.271,0.742l0.729,0.799l0.797,0.396     h0.878h0.732l0.781-0.344l0.675-0.427L194.051,263.198z M195.167,261.826l0.031,0.8l-0.309,1.041l-0.624,0.771l-0.851,0.723     l-1.646,0.485l-0.976-0.058l-1.335-0.387l-0.688-0.521l-0.731-0.854l-0.669-0.828l-0.752-0.485l-1.109-0.394l-0.446-0.381     l-0.313-0.829l0.053-0.88l0.146-0.652l0.613-0.653l0.621-0.555l0.799-0.562l0.052-0.039l0.106-0.111l0.089-0.17l0.021-0.244     l-0.146-0.225l-0.122-0.331v-1.768l0.6-1.021l1.539-0.729h2.07l1.415,0.561l0.804,1.146v1.229l-0.021,0.646l-0.104,0.201     l-0.438,0.85l-1.131,0.894h-2.015l-1.421-0.438l-0.16-0.193l-0.146,0.105l-0.271,0.313l-0.533,0.219l-0.714,0.66l-0.145,0.714     l0.179,0.492l0.58,0.604l0.396,0.227l0.442,0.05l0.354-0.438l0.527-0.438l0.761-0.438l0.396-0.225l1.427-0.161l1.197,0.271     l0.979,0.333l0.802,0.553l0.354,0.33L195.167,261.826z" outline-element="true" stroke="#000000" stroke-width="0.5" g2gstroke="#312783" stroke-miterlimit="10"/>
		</g>
	</g>
	
		<line orgstroke="#000000" orgfill="none" fill="none" x1="187.44" x2="187.954" y1="257.036" y2="257.668" stroke="#000000" stroke-width="0.25" g2gstroke="#312783" stroke-miterlimit="10"/>
	
		<line orgstroke="#000000" orgfill="none" fill="none" x1="186.546" x2="185.767" y1="261.059" y2="261.827" stroke="#000000" stroke-width="0.25" g2gstroke="#312783" stroke-miterlimit="10"/>
	
		<line orgstroke="#000000" orgfill="none" fill="none" x1="186.034" x2="185.211" y1="260.152" y2="259.822" stroke="#000000" stroke-width="0.25" g2gstroke="#312783" stroke-miterlimit="10"/>
	<polyline orgstroke="#000000" orgfill="none" points="193.247,254.983 192.949,255.958    191.75,257.036 189.74,257.036 188.319,256.597 187.549,255.648 187.109,254.791  " fill="none" stroke="#000000" stroke-width="0.25" g2gstroke="#312783" stroke-miterlimit="10"/>
</g>
</g>
</g></svg>