<svg xmlns="http://www.w3.org/2000/svg" xmlns:xlink="http://www.w3.org/1999/xlink" xmlns:etg="http://www.eurotaxglass.com/etg/evd/" etg:dataTimestamp="1539068912893" contentScriptType="text/ecmascript" zoomAndPan="magnify" contentStyleType="text/css" id="Layer_1" enable-background="new 0 0 1841.891 1595.279" version="1.1" xml:space="preserve" width="1841.891px" preserveAspectRatio="xMidYMid meet" viewBox="0 0 1841.891 1595.279" height="1595.279px" x="0px" y="0px"><g xmlns="http://www.w3.org/2000/svg" objecttype="PS" tooltip="#UNDEFINED" id="59">
<g onmouseover="notifyOwner(AGV_OBJECT_MOUSEOVER, '59(PS)')" transform="translate(-18.01092089843752, -7.293701173693989E-6) translate(8.328388793945294, -42.254741333007814) translate(75.0, -19.0) translate(10.0, 10.00006103515625)" onclick="clickZoom(evt); notifyOwner(AGV_OBJECT_MOUSECLICK, '59(PS)')" onmouseout="notifyOwner(AGV_OBJECT_MOUSEOUT, '59(PS)')" tooltip="#UNDEFINED" id="59-Graphic" objecttype="GRAPHIC">
<g zvalue="52">
<g>
<path orgstroke="#000000" orgfill="#ffffff" fill="#ffffff" g2gfill="#ECF5E4" d="M575.965,206.664l5.188-1.428l-0.039-0.313c0,0,2.479-0.076,3.037-0.964c0.025-0.036,2.557,0.59,0.82-0.305   c0,0,1.656-0.854,2.283-1.932c0.629-1.078,1.49-1.225,1.793-1.489l1.273,0.411c0,0,0.174,0.21,0.174,0.401s0,2.649,0,2.649v0.35   c0,0,1.221,0.603,1.357,0.671c0.137,0.069,1.156,1.836,1.309,2.193c0.152,0.356,1.707,1.274,1.998,1.453   c0.271,0.179,1.951,2.022,3.041,5.554c0.781,2.544,1.918,3.69,1.904,4.038c-0.021,0.346,0.109,0.109,0.156,0.036   c0.045-0.075,0-0.547,0-0.547s0.117-0.367,0.326-0.164c0.213,0.201,1.637,2.94,1.637,3.097c0,0.154,1.299,0.858,1.307,0.949   c0.01,0.092,0.01,1.928,0,2.003c-0.008,0.074-0.256,0.155-0.256,0.155s0,0.501-0.23,0.939c-0.229,0.438-1.26,2.379-2.051,2.836   c-0.494,0.28-0.732-0.014-0.822-0.102c-0.09-0.089-1.521-2.04-1.521-2.04s-1.318,1.728-1.479,1.746   c-0.156,0.019-0.344-0.024-0.699-0.26c-0.123-0.087-3.115,1.05-3.855,1.063c0,0-0.148,0.139-0.504,0.415   c0,0-0.148,0.147-0.582-0.091c-0.424-0.238-1.355-0.643-1.355-0.643s-0.004,1.086-0.004,1.123c0,0.035-0.201,0.67-1.742,0.914   c-0.264,0.041-0.826-0.285-0.996-0.301c-0.168-0.02-1.805,0.521-2.234,0.286c-0.418-0.233-1.533-0.661-1.533-0.661l-0.805,1.334   c0,0-0.154,0.647-1.893-0.111c-1.738-0.758-0.881-1.289-1.367-1.256l-1.023-0.318c0,0-0.24-0.085-0.678,0   c-0.428,0.086-1.119,0.277-1.119,0.277v-0.642l0.873-0.28c0,0,0.361-0.267-0.006-0.445c-0.369-0.176-0.867,0.246-0.867,0.246   l0.01-0.5l1.262-0.402c0,0,0.074-0.727-0.025-0.85c-0.109-0.125-1.311-0.568-1.311-0.568l-0.15-1.191l0.43-0.173l0.52-0.516   l-0.322-0.151l0.01-1.15l0.861-0.379l-0.313-0.416l0.746-0.152l-0.025-2.2l-3.189-3.079c0,0-0.736-0.484-0.717-1.188   s0-2.846,0-2.846s1.205-0.332,1.434-1.209l0.037-0.15L575.965,206.664z" stroke="#000000" outline-element="true" stroke-width="0.5" g2gstroke="#312783" stroke-miterlimit="10"/>
<path orgstroke="#000000" orgfill="none" fill="none" d="M575.344,214.762l2.822-1.103v-2.96l0.65-0.547c0,0,6.139-2.121,8.291-3.599   c0.096-0.065,0.182,0.06,0.17,0.146c-0.014,0.065-0.037,2.34-0.037,2.34s-0.047,0.433,0.469,0.892   c0.52,0.458,3.803,3.144,3.803,3.144v8.111c0,0,0.24,0.018,0.297,0.127c0.055,0.109,0,0.549,0.076,0.641   c0.072,0.092,2.393,1.206,2.393,1.206" stroke="#000000" stroke-width="0.25" g2gstroke="#312783" stroke-miterlimit="10"/>
<path orgstroke="#000000" orgfill="none" fill="none" d="M578.27099609375 213.67799377441406L580.7540283203125 214.76199340820312" stroke="#000000" stroke-width="0.25" g2gstroke="#312783" stroke-miterlimit="10"/>
<path orgstroke="#000000" orgfill="none" fill="none" d="M578.703,206.074l0.563,0.462l2.467-0.791c0,0,0.467-0.173,0.936,0.105c0.467,0.278,0.625,0.05,0.818-0.046   c0.191-0.096,3.781-1.991,3.781-1.991s0.758-0.499,1.221-1.397c0.197-0.376,0.799-0.749,0.938-0.882   c0.137-0.131,0.912-0.471,0.912-0.471" stroke="#000000" stroke-width="0.25" g2gstroke="#312783" stroke-miterlimit="10"/>
<path orgstroke="#000000" orgfill="none" fill="none" d="M581.994,205.195l0.539,0.274c0,0,0.357,0.069,0.719-0.137c0.365-0.205,3.236-1.569,3.438-1.739   c0.205-0.173,0.717-0.263,1.645-1.748c0.133-0.211,0.318-0.329,0.576-0.534c0.252-0.205,0.998-0.548,0.998-0.548" stroke="#000000" stroke-width="0.25" g2gstroke="#312783" stroke-miterlimit="10"/>
<path orgstroke="#000000" orgfill="none" fill="none" d="M579.234,206.671v1.919c0,0-0.326,1.296-0.641,1.433" stroke="#000000" stroke-width="0.25" g2gstroke="#312783" stroke-miterlimit="10"/>
<path orgstroke="#000000" orgfill="none" fill="none" d="M578.703,206.232v2.166c0,0-0.273,1.46-0.541,1.561" stroke="#000000" stroke-width="0.25" g2gstroke="#312783" stroke-miterlimit="10"/>
<path orgstroke="#000000" orgfill="none" fill="none" d="M576.1430053710938 210.40199279785156L578.5640258789062 210.1529998779297" stroke="#000000" stroke-width="0.25" g2gstroke="#312783" stroke-miterlimit="10"/>
<path orgstroke="#000000" orgfill="none" fill="none" d="M593.131,211.366l1.943,3.8v0.529l1.363,2.833c0,0,0.313,0.859,0.367,1.314c0,0,0.398,2.156-1.307,3.125" stroke="#000000" stroke-width="0.25" g2gstroke="#312783" stroke-miterlimit="10"/>
<path orgstroke="#000000" orgfill="none" fill="none" d="M593.055,211.366l1.854-0.31l1.938,3.8v0.53l1.369,2.832c0,0,0.213,0.467,0.314,0.88   c0,0,1.561,4.333,1.438,7.229c-0.018,0.368,0.193,0.547,0.287,0.547" stroke="#000000" stroke-width="0.25" g2gstroke="#312783" stroke-miterlimit="10"/>
<path orgstroke="#000000" orgfill="none" fill="none" d="M583.289,214.762l0.984-0.274l1.939,3.8v0.529l1.367,2.832c0,0,0.416,0.914,0.365,1.316   c-0.055,0.4,0,1.278,0,1.278s0.025,0.128,0.84,0.675c0.824,0.549,1.426,0.604,1.74,0.567l0.203-0.069c0,0,0.133-0.014,0.162,0.144   c0.021,0.157,0.074,0.97,0.498,1.077c0.42,0.107,1.16,0.156,1.26,0c0.09-0.157,0.027-0.147-0.039-0.207   c-0.066-0.059-0.813-0.439-0.791-0.723c0.025-0.283,0.232-0.453,0.5-0.291c0.27,0.163,0.158,0.486,0.574,0.623   c0.422,0.137,0.67,0.059,0.783-0.02c0.105-0.079-0.619-1.081-0.656-1.182c-0.049-0.121-0.561-0.158-0.766-0.07   c-0.225,0.088-0.658,0.254-0.658,0.254c-0.322,0.035-0.916-0.018-1.75-0.566c-0.816-0.546-0.842-0.676-0.842-0.676   s-0.055-0.876,0-1.279c0.059-0.4-0.365-1.314-0.365-1.314l-1.365-2.832v-0.53l-2.039-3.886l-0.887,0.281l-0.32,0.198l-0.467-0.74   l-1.311,0.427l-0.527,0.733c0,0-3.314,0.237-3.48,0.255c-0.174,0.019-0.246,0.256-0.246,0.256l-0.67,1.827   c0,0-2.111-2.074-2.201-2.19c-0.098-0.117-0.131-0.397-0.131-0.397v-2.583l-0.398-0.207" stroke="#000000" stroke-width="0.25" g2gstroke="#312783" stroke-miterlimit="10"/>
<path orgstroke="#000000" orgfill="none" fill="none" d="M590.496,204.389v3.105c0,0,0.045,0.311-0.283,0.495c-0.324,0.182-2.492,1.151-2.492,1.151" stroke="#000000" stroke-width="0.25" g2gstroke="#312783" stroke-miterlimit="10"/>
<path orgstroke="#000000" orgfill="none" fill="none" d="M587.885,209.767l2.469-1.15c0,0,0.49-0.3,0.771-0.083c0.283,0.22,1.609,1.389,1.609,1.389   c0.223,0.112,1.09,0.983,1.26,1.213" stroke="#000000" stroke-width="0.25" g2gstroke="#312783" stroke-miterlimit="10"/>
<path orgstroke="#000000" orgfill="none" fill="none" d="M591.014,204.882v2.685c0,0,0.111,0.301,0.328,0.453c0.219,0.15,2.77,2.055,3.139,3.117" stroke="#000000" stroke-width="0.25" g2gstroke="#312783" stroke-miterlimit="10"/>
<path orgstroke="#000000" orgfill="none" fill="none" d="M577.72900390625 223.3509979248047L579.8109741210938 224.09500122070312" stroke="#000000" stroke-width="0.25" g2gstroke="#312783" stroke-miterlimit="10"/>
<path orgstroke="#000000" orgfill="none" fill="none" d="M580.445,224.269l5.852,2.27c0,0,0.061,0.057,0.242,0c0.209-0.063,0.471-0.107,0.471-0.107" stroke="#000000" stroke-width="0.25" g2gstroke="#312783" stroke-miterlimit="10"/>
<path orgstroke="#000000" orgfill="none" fill="none" d="M579.8109741210938 222.76499938964844L579.8109741210938 228.5850067138672" stroke="#000000" stroke-width="0.25" g2gstroke="#312783" stroke-miterlimit="10"/>
<path orgstroke="#000000" orgfill="none" fill="none" d="M590.2680053710938 224.49400329589844L594.27099609375 223.26100158691406L594.6329956054688 223.15899658203125L595.0980224609375 223.06500244140625" stroke="#000000" stroke-width="0.25" g2gstroke="#312783" stroke-miterlimit="10"/>
<path orgstroke="#000000" orgfill="none" fill="none" d="M587.3909912109375 218.6060028076172L590.8629760742188 217.53700256347656L591.1799926757812 217.4459991455078L591.583984375 217.36700439453125" stroke="#000000" stroke-width="0.25" g2gstroke="#312783" stroke-miterlimit="10"/>
<path orgstroke="#000000" orgfill="none" fill="none" d="M587.3909912109375 217.9499969482422L589.4509887695312 217.3350067138672L589.6370239257812 217.281005859375L589.875 217.23599243164062" stroke="#000000" stroke-width="0.25" g2gstroke="#312783" stroke-miterlimit="10"/>
<path orgstroke="#000000" orgfill="none" fill="none" d="M589.031005859375 222.8780059814453L591.5 222.13800048828125L591.72900390625 222.07400512695312L592.02001953125 222.02000427246094" stroke="#000000" stroke-width="0.25" g2gstroke="#312783" stroke-miterlimit="10"/>
<path orgstroke="#000000" orgfill="none" fill="none" d="M588.8690185546875 222.16900634765625L591.35400390625 221.4720001220703L591.5800170898438 221.41099548339844L591.8709716796875 221.36000061035156" stroke="#000000" stroke-width="0.25" g2gstroke="#312783" stroke-miterlimit="10"/>
<path orgstroke="#000000" orgfill="none" fill="none" d="M587.926025390625 219.52699279785156L590.8930053710938 218.64300537109375L591.1580200195312 218.56700134277344L591.5059814453125 218.5030059814453" stroke="#000000" stroke-width="0.25" g2gstroke="#312783" stroke-miterlimit="10"/>
<path orgstroke="#000000" orgfill="none" fill="none" d="M595.459,222.966v2.133c0,0-0.084,0.587-0.584,0.753c-0.5,0.167-0.957,0.284-0.957,0.284" stroke="#000000" stroke-width="0.25" g2gstroke="#312783" stroke-miterlimit="10"/>
<path orgstroke="#000000" orgfill="none" fill="none" d="M597.083984375 222.68699645996094L598.489990234375 224.83900451660156" stroke="#000000" stroke-width="0.25" g2gstroke="#312783" stroke-miterlimit="10"/>
<path orgstroke="#000000" orgfill="none" fill="none" d="M589.875 217.16799926757812L591.4450073242188 217.39500427246094" stroke="#000000" stroke-width="0.25" g2gstroke="#312783" stroke-miterlimit="10"/>
<path orgstroke="#000000" orgfill="none" fill="none" d="M589.717,217.168l-1.268-0.547v-2.427l2.076,0.724c0,0,0.273,0.019,0.299,0.009   c0.027-0.009,0.029-0.498,0.029-0.498l0.471-0.078" stroke="#000000" stroke-width="0.25" g2gstroke="#312783" stroke-miterlimit="10"/>
<path orgstroke="#000000" orgfill="none" fill="none" d="M588.572,214.066c0,0,1.086-0.753,2.219,0.215" stroke="#000000" stroke-width="0.25" g2gstroke="#312783" stroke-miterlimit="10"/>
<path orgstroke="#000000" orgfill="none" fill="none" d="M578.334,221.628c0.027,0,0.957-0.176,0.957-0.176s1.242,0.303,0.393,0.479   c-0.852,0.176-1.051,0.238-1.051,0.238l0.23,0.359l1.582-0.313c0,0,0.223,0.021,0.271,0.117c0.049,0.1,1.547-0.205,1.547-0.205   s0.285-0.103,0.273,0.041c-0.012,0.146-0.166,0.428-0.166,0.428l1.072-0.057l1.012-2.761v-2.054l-1.061-1.076l-1.281,0.41   l-0.77,2.231l-1.838,1.066c0,0-0.25,0.186-0.113,0.469c0.074,0.167-0.758,0.285-0.758,0.285" stroke="#000000" stroke-width="0.25" g2gstroke="#312783" stroke-miterlimit="10"/>
<path orgstroke="#000000" orgfill="none" fill="none" d="M579.6290283203125 220.77000427246094L582.2420043945312 220.26300048828125L583.114990234375 217.7570037841797" stroke="#000000" stroke-width="0.25" g2gstroke="#312783" stroke-miterlimit="10"/>
<path orgstroke="#000000" orgfill="none" fill="none" d="M582.406005859375 220.302001953125L582.8280029296875 220.77000427246094" stroke="#000000" stroke-width="0.25" g2gstroke="#312783" stroke-miterlimit="10"/>
<path orgstroke="#000000" orgfill="none" fill="none" d="M580.947021484375 222.16900634765625L582.6190185546875 220.927001953125L583.1820068359375 220.77000427246094L583.572021484375 219.93699645996094L583.572021484375 217.83599853515625L582.8280029296875 216.94900512695312" stroke="#000000" stroke-width="0.25" g2gstroke="#312783" stroke-miterlimit="10"/>
<path orgstroke="#000000" orgfill="none" fill="none" d="M583.697021484375 217.83599853515625L584.25 217.7570037841797" stroke="#000000" stroke-width="0.25" g2gstroke="#312783" stroke-miterlimit="10"/>
<path orgstroke="#000000" orgfill="none" fill="none" d="M583.697021484375 219.79200744628906L584.35400390625 219.68899536132812" stroke="#000000" stroke-width="0.25" g2gstroke="#312783" stroke-miterlimit="10"/>
<ellipse orgstroke="#000000" orgfill="none" transform="matrix(0.901 0.4338 -0.4338 0.901 147.6668 -229.9032)" fill="none" rx="0.366" cx="577.531" cy="208.573" ry="0.628" stroke="#000000" stroke-width="0.25" g2gstroke="#312783" stroke-miterlimit="10"/>
<ellipse orgstroke="#000000" orgfill="none" transform="matrix(0.9017 0.4323 -0.4323 0.9017 145.8985 -235.0508)" fill="none" rx="0.289" cx="589.966" cy="203.392" ry="0.501" stroke="#000000" stroke-width="0.25" g2gstroke="#312783" stroke-miterlimit="10"/>
<path orgstroke="#000000" orgfill="none" fill="none" d="M579.8109741210938 222.656005859375L580.3319702148438 222.83299255371094L580.3319702148438 228.74000549316406L579.9979858398438 228.85800170898438" stroke="#000000" stroke-width="0.25" g2gstroke="#312783" stroke-miterlimit="10"/>
<path orgstroke="#000000" orgfill="none" fill="none" d="M580.4450073242188 228.85800170898438L580.8870239257812 229.48399353027344" stroke="#000000" stroke-width="0.25" g2gstroke="#312783" stroke-miterlimit="10"/>
<path orgstroke="#000000" orgfill="none" fill="none" d="M586.9530029296875 226.43099975585938L585.6480102539062 229.36500549316406" stroke="#000000" stroke-width="0.25" g2gstroke="#312783" stroke-miterlimit="10"/>
<path orgstroke="#000000" orgfill="none" fill="none" d="M586.3909912109375 226.63800048828125L585.1719970703125 229.36500549316406" stroke="#000000" stroke-width="0.25" g2gstroke="#312783" stroke-miterlimit="10"/>
<path orgstroke="#000000" orgfill="none" fill="none" d="M586.9039916992188 226.34100341796875L585.1090087890625 225.6510009765625L585.1090087890625 220.66700744628906" stroke="#000000" stroke-width="0.25" g2gstroke="#312783" stroke-miterlimit="10"/>
<path orgstroke="#000000" orgfill="none" fill="none" d="M593.055,211.366c0,0-0.174-0.013-0.184,0.261c-0.012,0.274-0.299,0.9-0.299,0.9s-0.197,0.182-0.445,0   c-0.248-0.183-0.803-0.652-0.803-0.652s-0.51-0.183-1.014-0.026" stroke="#000000" stroke-width="0.25" g2gstroke="#312783" stroke-miterlimit="10"/>
<path orgstroke="#000000" orgfill="none" fill="none" d="M589.111,201.898v2.14c0,0,0.006,0.716,1.201,0.613" stroke="#000000" stroke-width="0.25" g2gstroke="#312783" stroke-miterlimit="10"/>
<path orgstroke="#000000" orgfill="none" fill="none" d="M585.109,220.667v-2.561l-1.791-3.26c0,0-0.463-0.048-0.492-0.164c-0.035-0.118-0.211-0.49-0.211-0.49" stroke="#000000" stroke-width="0.25" g2gstroke="#312783" stroke-miterlimit="10"/>
<path orgstroke="#000000" orgfill="none" fill="none" d="M592.6820068359375 227.43600463867188L593.6929931640625 226.0500030517578" stroke="#000000" stroke-width="0.25" g2gstroke="#312783" stroke-miterlimit="10"/>
<path orgstroke="#000000" orgfill="none" fill="none" d="M599.8980102539062 218.5030059814453L599.4530029296875 219.52699279785156L602.6409912109375 224.42300415039062" stroke="#000000" stroke-width="0.25" g2gstroke="#312783" stroke-miterlimit="10"/>
<path orgstroke="#000000" orgfill="none" fill="none" d="M602.0900268554688 220.66700744628906L602.0900268554688 222.02000427246094L603.25 223.47900390625" stroke="#000000" stroke-width="0.25" g2gstroke="#312783" stroke-miterlimit="10"/>
<path orgstroke="#000000" orgfill="none" fill="none" d="M595.073974609375 215.16700744628906L596.843994140625 214.8560028076172" stroke="#000000" stroke-width="0.25" g2gstroke="#312783" stroke-miterlimit="10"/>
<path orgstroke="#000000" orgfill="none" fill="none" d="M595.073974609375 215.69500732421875L596.843994140625 215.38699340820312" stroke="#000000" stroke-width="0.25" g2gstroke="#312783" stroke-miterlimit="10"/>
</g>
</g>
</g>
</g></svg>