<svg xmlns="http://www.w3.org/2000/svg" xmlns:xlink="http://www.w3.org/1999/xlink" xmlns:etg="http://www.eurotaxglass.com/etg/evd/" etg:dataTimestamp="1539068912893" contentScriptType="text/ecmascript" zoomAndPan="magnify" contentStyleType="text/css" id="Layer_1" enable-background="new 0 0 1841.891 1595.279" version="1.1" width="1841.891px" xml:space="preserve" preserveAspectRatio="xMidYMid meet" viewBox="0 0 1841.891 1595.279" height="1595.279px" x="0px" y="0px"><g xmlns="http://www.w3.org/2000/svg" objecttype="PS" tooltip="#UNDEFINED" id="1">
<g onmouseover="notifyOwner(AGV_OBJECT_MOUSEOVER, '1(PS)')" onclick="clickZoom(evt); notifyOwner(AGV_OBJECT_MOUSECLICK, '1(PS)')" onmouseout="notifyOwner(AGV_OBJECT_MOUSEOUT, '1(PS)')" tooltip="#UNDEFINED" id="1-Graphic" objecttype="GRAPHIC">
<g>
	<polygon orgstroke="#000000" orgfill="#ffffff" points="196.778,371.128 197.395,374.033    197.664,374.648 198.04,375.099 206.668,381.608 207.315,382.287 207.83,383.141 213.02,405.383 213.03,406.115 212.794,406.854    208.224,415.563 207.649,416.603 207.082,418.132 206.753,419.161 206.55,420.627 206.671,420.883 206.735,421.101    206.861,421.291 207.051,421.386 207.245,421.39 212.358,420.88 213.061,420.952 214.619,422.671 214.718,423.36 214.763,424.115    211.47,432.887 211.147,433.371 210.362,433.885 202.069,437.031 199.342,437.135 198.682,436.823 198.07,436.332 196.606,434.267    196.517,433.748 196.769,433.036 198.679,428.893 198.659,428.242 198.612,427.863 198.47,427.532 198.137,426.821    197.795,425.701 197.167,422.938 196.908,421.964 196.53,421.109 195.832,420.231 188.702,414.784 188.23,414.229 181.522,390.122    181.625,388.528 181.86,387.789 187.993,378.519 188.205,377.854 188.29,377.068 188.083,375.944 187.757,374.545 187.697,374.282    187.518,373.344 187.518,372.017 187.708,370.497 187.992,368.698 187.897,367.369 187.518,366.046 186.854,364.905    185.716,364.338 184.009,363.955 183.061,364.053 182.587,364.241 182.302,364.62 182.244,365.304 181.378,370.367    181.118,371.025 179.052,372.071 178.358,371.982 177.619,371.825 170.039,366.318 169.656,365.879 169.373,364.983    168.543,356.153 169.17,353.495 169.645,352.941 170.279,352.48 172.662,351.621 173.186,351.677 173.804,352.105 177.289,355.05    177.923,355.203 178.3,355.26 178.658,355.211 179.432,355.077 180.604,355.05 182.587,354.948 184.483,355.14 186.854,355.518    189.13,356.275 191.121,357.134 192.922,358.363 194.25,360.068 195.578,361.776 196.336,363.955 196.81,366.138 196.999,368.13    196.81,369.456 196.786,370.691  " fill="#ffffff" g2gfill="#ECF5E4" outline-element="true" stroke="#000000" stroke-width="0.5" g2gstroke="#312783" stroke-miterlimit="10"/>
	<polyline orgstroke="#000000" orgfill="none" points="206.519,421.259 206.57,422.276    207.216,424.025  " fill="none" stroke="#000000" stroke-width="0.25" g2gstroke="#312783" stroke-miterlimit="10"/>
	<polyline orgstroke="#000000" orgfill="none" points="197.278,374.403 196.751,375.537    195.589,376.633 194.06,377.608 192.618,378.045 190.827,378.039 189.501,377.863 188.492,377.457  " fill="none" stroke="#000000" stroke-width="0.25" g2gstroke="#312783" stroke-miterlimit="10"/>
	<polyline orgstroke="#000000" orgfill="none" points="197.004,373.225 196.479,374.358    195.314,375.453 193.785,376.427 192.344,376.86 190.554,376.86 189.229,376.68 188.218,376.278  " fill="none" stroke="#000000" stroke-width="0.25" g2gstroke="#312783" stroke-miterlimit="10"/>
	<polyline orgstroke="#000000" orgfill="none" points="206.247,419.594 205.724,420.726    204.562,421.819 203.03,422.797 201.59,423.227 199.8,423.23 198.474,423.052 197.466,422.646  " fill="none" stroke="#000000" stroke-width="0.25" g2gstroke="#312783" stroke-miterlimit="10"/>
	<polyline orgstroke="#000000" orgfill="none" points="206.452,420.739 205.927,421.869    204.764,422.966 203.235,423.938 201.792,424.379 200.001,424.37 198.679,424.194 197.665,423.788  " fill="none" stroke="#000000" stroke-width="0.25" g2gstroke="#312783" stroke-miterlimit="10"/>
	<path orgstroke="#000000" orgfill="none" fill="none" d="M193.723,394.844   c-2.771,0.521-5.5,0.483-7.728-0.226c-2.645-0.844-4.077-2.479-4.259-4.447" stroke="#000000" stroke-width="0.25" g2gstroke="#312783" stroke-miterlimit="10"/>
	<path orgstroke="#000000" orgfill="none" fill="none" d="M207.332,382.84   c0.489,2.092-0.548,4.643-3.167,7.024c-2.192,1.993-5.104,3.521-8.125,4.42" stroke="#000000" stroke-width="0.25" g2gstroke="#312783" stroke-miterlimit="10"/>
	<path orgstroke="#000000" orgfill="none" fill="none" d="M207.913,384.802   c0.487,2.088-0.551,4.642-3.167,7.023c-4.743,4.315-12.876,6.445-18.168,4.757c-2.646-0.844-4.078-2.479-4.257-4.444" stroke="#000000" stroke-width="0.25" g2gstroke="#312783" stroke-miterlimit="10"/>
	<path orgstroke="#000000" orgfill="none" fill="none" d="M212.183,402.257   c0.49,2.094-0.547,4.646-3.169,7.027c-4.739,4.314-12.875,6.443-18.162,4.757c-1.165-0.37-2.091-0.896-2.784-1.529" stroke="#000000" stroke-width="0.25" g2gstroke="#312783" stroke-miterlimit="10"/>
	<path orgstroke="#000000" orgfill="none" fill="none" d="M212.76,404.219   c0.494,2.092-0.545,4.646-3.163,7.026c-4.744,4.315-12.879,6.448-18.167,4.761c-0.425-0.138-0.819-0.293-1.178-0.47" stroke="#000000" stroke-width="0.25" g2gstroke="#312783" stroke-miterlimit="10"/>
	<polyline orgstroke="#000000" orgfill="none" points="203.756,433.885 201.365,434.92    200.67,434.957 198.863,435.01 198.042,434.883 196.911,434.481  " fill="none" stroke="#000000" stroke-width="0.25" g2gstroke="#312783" stroke-miterlimit="10"/>
	<polyline orgstroke="#000000" orgfill="none" points="212.911,421.313 213.03,422.353    212.974,423.403 209.932,431.464 209.495,432.013 208.817,432.401 206.336,433.478  " fill="none" stroke="#000000" stroke-width="0.25" g2gstroke="#312783" stroke-miterlimit="10"/>
	<polyline orgstroke="#000000" orgfill="none" points="207.216,424.025 207.632,424.713    207.903,425.336 208.005,426.025 207.879,426.906 206.977,428.358 205.773,429.713 204.769,430.41 203.458,430.896    202.242,431.079 201.311,431.019 200.658,430.825 200.223,430.388 199.005,428.48  " fill="none" stroke="#000000" stroke-width="0.25" g2gstroke="#312783" stroke-miterlimit="10"/>
	<path orgstroke="#000000" orgfill="none" fill="none" d="M199.245,433.675   c-0.535,0.029-0.743-0.393-0.467-0.942c0.278-0.551,0.935-1.026,1.47-1.058c0.536-0.03,0.746,0.391,0.468,0.94   C200.438,433.171,199.779,433.643,199.245,433.675z" stroke="#000000" stroke-width="0.25" g2gstroke="#312783" stroke-miterlimit="10"/>
	<path orgstroke="#000000" orgfill="none" fill="none" d="M207.245,431.395   c-0.536,0.032-0.744-0.39-0.468-0.942c0.277-0.552,0.935-1.024,1.471-1.06c0.536-0.03,0.744,0.393,0.466,0.945   C208.439,430.893,207.779,431.363,207.245,431.395z" stroke="#000000" stroke-width="0.25" g2gstroke="#312783" stroke-miterlimit="10"/>
	<path orgstroke="#000000" orgfill="none" fill="none" d="M209.064,424.131   c-0.535,0.029-0.743-0.393-0.465-0.939c0.277-0.557,0.935-1.028,1.468-1.06c0.536-0.032,0.746,0.389,0.47,0.941   C210.258,423.622,209.599,424.099,209.064,424.131z" stroke="#000000" stroke-width="0.25" g2gstroke="#312783" stroke-miterlimit="10"/>
	<polyline orgstroke="#000000" orgfill="none" points="171.129,358.616 170.769,356.036    170.914,355.355 171.347,353.601 171.688,352.844 172.372,351.859  " fill="none" stroke="#000000" stroke-width="0.25" g2gstroke="#312783" stroke-miterlimit="10"/>
	<polyline orgstroke="#000000" orgfill="none" points="180.813,370.784 179.778,370.622    178.779,370.289 171.821,365.214 171.406,364.649 171.212,363.891 170.834,361.216  " fill="none" stroke="#000000" stroke-width="0.25" g2gstroke="#312783" stroke-miterlimit="10"/>
	<polyline orgstroke="#000000" orgfill="none" points="182.321,364.09 178.94,364.791    178.269,364.89 177.574,364.802 176.758,364.446 175.597,363.189 174.616,361.673 174.207,360.516 174.088,359.122    174.234,357.905 174.54,357.02 174.9,356.442 175.44,356.138 177.603,355.475  " fill="none" stroke="#000000" stroke-width="0.25" g2gstroke="#312783" stroke-miterlimit="10"/>
	<path orgstroke="#000000" orgfill="none" fill="none" d="M172.532,354.32   c0.107-0.521,0.57-0.608,1.029-0.192c0.459,0.409,0.742,1.174,0.63,1.692c-0.112,0.526-0.574,0.615-1.031,0.199   C172.701,355.606,172.418,354.845,172.532,354.32z" stroke="#000000" stroke-width="0.25" g2gstroke="#312783" stroke-miterlimit="10"/>
	<path orgstroke="#000000" orgfill="none" fill="none" d="M172.601,362.642   c0.109-0.523,0.573-0.614,1.031-0.198c0.459,0.414,0.741,1.174,0.63,1.695c-0.113,0.521-0.576,0.617-1.035,0.201   C172.767,363.927,172.489,363.164,172.601,362.642z" stroke="#000000" stroke-width="0.25" g2gstroke="#312783" stroke-miterlimit="10"/>
	<path orgstroke="#000000" orgfill="none" fill="none" d="M179.119,366.327   c0.11-0.521,0.573-0.612,1.03-0.195c0.461,0.414,0.743,1.176,0.63,1.693c-0.112,0.523-0.573,0.616-1.034,0.198   C179.291,367.614,179.008,366.853,179.119,366.327z" stroke="#000000" stroke-width="0.25" g2gstroke="#312783" stroke-miterlimit="10"/>
</g>
</g>
</g></svg>