<svg xmlns="http://www.w3.org/2000/svg" xmlns:xlink="http://www.w3.org/1999/xlink" xmlns:etg="http://www.eurotaxglass.com/etg/evd/" etg:dataTimestamp="1539068912893" contentScriptType="text/ecmascript" zoomAndPan="magnify" contentStyleType="text/css" id="Layer_1" enable-background="new 0 0 1841.891 1595.279" version="1.1" xml:space="preserve" width="1841.891px" preserveAspectRatio="xMidYMid meet" viewBox="0 0 1841.891 1595.279" height="1595.279px" x="0px" y="0px"><g xmlns="http://www.w3.org/2000/svg" objecttype="PS" tooltip="#UNDEFINED" id="100">
<g onmouseover="notifyOwner(AGV_OBJECT_MOUSEOVER, '100(PS)')" transform="translate(-1.0864257831144641E-5, 66.80804286193847) translate(-478.1112626953125, -9.244252822875978) translate(502.104551747829, -273.4352498674925) matrix(1.4295196940542783 0 0 1.4295196940542783 -282.3181644694963 -296.6642703701885) translate(102.84069132184453, 49.605509931713186) translate(-36.296722412109375, -104.05056762695312) translate(-48.39561944557386, 131.87806298918883) translate(72.59342916836084, 208.10116361596772) translate(8.0, -28.0) translate(22.0, -30.500015258789062) translate(4.0, -10.0) translate(60.0, -26.0) translate(-108,97) " onclick="clickZoom(evt); notifyOwner(AGV_OBJECT_MOUSECLICK, '100(PS)')" onmouseout="notifyOwner(AGV_OBJECT_MOUSEOUT, '100(PS)')" tooltip="#UNDEFINED" id="100-Graphic" objecttype="GRAPHIC">
<g zvalue="0">
<g zvalue="1">
<g zvalue="0">
<g zvalue="4">
<g>
<path orgstroke="#000000" orgfill="#ffffff" transform="translate(116.0, -40.0) translate(-130,32) translate(6.831858407079608, 5.550884955752224) translate(-7.02044677734375, -0.1459808349609375) translate(-3.0, 12.0) matrix(0.8349252870008533 0 0 0.8349252870008533 98.67091100573651 57.94067515553139) translate(-79,-26) translate(-1.658630372958214E-5, 2.7923583729716484E-6) translate(66.72042523193358, 5.893961837768529) translate(-19.37224350286988, 8.609886001275527) translate(-28.91569970083839, -46.26511952134149) translate(-23.132559760670688, -61.30128336577741) translate(-5.783139940167757, 12.144593874352154) translate(-147.0, -86.0) translate(10.0, 10.0)" fill="#ffffff" g2gfill="#ECF5E4" d="M809.203,494.787   c-4.518,4.035-8.6,6.752-11.463,8.66l-0.441,0.293c-1.395,0.93-9.02,5.492-19.156,11.479l-0.389,0.219l1.111,0.768l-0.018-0.008   c0.295,0.143,0.447,0.521,0.373,1.057c-0.121,0.854-0.777,1.771-1.471,2.051c-0.26,0.105-0.486,0.105-0.664,0.021l-0.021-0.016   l-2.689-1.842l-0.016-0.021c-10.213,6.02-21.953,12.896-31.137,18.223l-0.004-0.002l0.895,0.615l-0.018-0.01   c0.295,0.143,0.447,0.521,0.373,1.059c-0.121,0.854-0.777,1.771-1.471,2.051c-0.258,0.105-0.486,0.105-0.662,0.021l-0.021-0.016   l-2.529-1.729c-5.5,3.176-9.691,5.563-11.451,6.492l-1.521,0.807c-7.813,4.145-14.563,7.719-20.857,9.871   c-0.771,0.262-1.775,0.689-2.955,1.236l1.102,0.758l-0.016-0.008c0.295,0.143,0.445,0.521,0.373,1.057   c-0.121,0.854-0.779,1.771-1.475,2.051c-0.26,0.105-0.482,0.105-0.66,0.021l-0.021-0.015l-2.689-1.843   c-0.09-0.063-0.207-0.264-0.207-0.264c-5.646,2.875-13.025,7.022-18.104,9.877c-3.564,2.004-6.141,3.453-7.107,3.912   c-2.619,1.244-8.611,1.342-14.957,1.447c-1.818,0.025-3.596,0.059-5.191,0.116c-4.779,0.181-6.957,1.513-8.145,2.925l1.965,1.354   l-0.018-0.01c0.295,0.143,0.447,0.522,0.373,1.059c-0.121,0.854-0.777,1.771-1.471,2.053c-0.27,0.107-0.502,0.104-0.682,0.014   l-0.004-0.006l-2.125-1.455l-0.092,0.121c-0.863,1.148-1.824,1.814-3.604,1.762c-2.275-0.084-4.459,0.689-6.439,2.293   c-1.072,0.867-2.424,1.234-3.994,1.234c-3.848,0.002-9.027-2.203-14.766-4.646c-8.314-3.537-8.912-7.162-8.912-12.713   c0-5.145,0.867-7.311,6.377-10.399c-0.004-0.038-0.008-0.075-0.01-0.112c-0.061-0.763,0.193-1.287,0.623-1.463l-0.025,0.014   l3.17-1.734c0.27-0.137,0.611-0.127,1,0.063c0.953,0.457,1.803,1.814,1.895,3.037c0.053,0.684-0.146,1.18-0.498,1.396l-3.303,1.797   l-0.027,0.018c-0.26,0.104-0.58,0.084-0.939-0.088c-0.15-0.074-0.303-0.172-0.447-0.287v-0.002   c-4.607,2.573-4.813,3.889-4.813,7.768c0,4.475,0,6.938,7.088,9.953c6.279,2.672,13.4,5.697,15.697,3.838   c2.564-2.068,5.404-3.051,8.436-2.957c0.746,0.027,1.004-0.232,2.221-2.344c1.275-2.213,3.846-5.189,11.357-5.469   c1.615-0.063,3.414-0.092,5.256-0.121c5.205-0.084,11.688-0.191,13.721-1.156c0.873-0.414,3.543-1.916,6.924-3.814   c8.131-4.57,20.416-11.479,25.15-13.1c6.074-2.076,12.729-5.602,20.428-9.684l1.52-0.809c8.916-4.719,65.695-38.25,68.703-40.256   l0.441-0.295c3.559-2.367,8.428-5.608,13.84-10.939c4.205-4.146,7.135-6.707,9.801-5.344l0.006,0.009   c0.154-0.108,0.314-0.198,0.479-0.267c0.389-0.156,0.725-0.145,0.977,0.006l2.439,1.641l-0.021-0.014   c0.406,0.197,0.617,0.727,0.514,1.459c-0.166,1.18-1.074,2.445-2.029,2.83c-0.357,0.146-0.672,0.146-0.916,0.027l-0.025-0.018   l-2.564-1.713c-0.313-0.219-0.473-0.666-0.41-1.268c-0.701,0.012-2.186,0.889-6.133,4.781c-0.047,0.043-0.09,0.086-0.137,0.129   l1.777,1.225l-0.018-0.01c0.295,0.143,0.447,0.523,0.373,1.057c-0.121,0.855-0.779,1.773-1.471,2.055   c-0.26,0.104-0.486,0.104-0.664,0.02l-0.021-0.012L809.203,494.787z" stroke="#000000" outline-element="true" stroke-width="0.5" g2gstroke="#312783" stroke-miterlimit="10"/>
<path orgstroke="#000000" orgfill="none" transform="translate(116.0, -40.0) translate(-130,32) translate(6.831858407079608, 5.550884955752224) translate(-7.02044677734375, -0.1459808349609375) translate(-3.0, 12.0) matrix(0.8349252870008533 0 0 0.8349252870008533 98.67091100573651 57.94067515553139) translate(-79,-26) translate(-1.658630372958214E-5, 2.7923583729716484E-6) translate(66.72042523193358, 5.893961837768529) translate(-19.37224350286988, 8.609886001275527) translate(-28.91569970083839, -46.26511952134149) translate(-23.132559760670688, -61.30128336577741) translate(-5.783139940167757, 12.144593874352154) translate(-147.0, -86.0) translate(10.0, 10.0)" fill="none" d="M612.513,556.757   c0.264-0.146,0.535-0.297,0.82-0.449c0.996-0.572,2.486,2.057,1.404,2.65c-0.279,0.148-0.543,0.293-0.793,0.435" stroke="#000000" stroke-width="0.25" g2gstroke="#312783" stroke-miterlimit="10"/>
<path orgstroke="#000000" orgfill="none" transform="translate(116.0, -40.0) translate(-130,32) translate(6.831858407079608, 5.550884955752224) translate(-7.02044677734375, -0.1459808349609375) translate(-3.0, 12.0) matrix(0.8349252870008533 0 0 0.8349252870008533 98.67091100573651 57.94067515553139) translate(-79,-26) translate(-1.658630372958214E-5, 2.7923583729716484E-6) translate(66.72042523193358, 5.893961837768529) translate(-19.37224350286988, 8.609886001275527) translate(-28.91569970083839, -46.26511952134149) translate(-23.132559760670688, -61.30128336577741) translate(-5.783139940167757, 12.144593874352154) translate(-147.0, -86.0) translate(10.0, 10.0)" fill="none" d="M615.333,559.767   c0.428-0.174,0.68-0.697,0.621-1.461c-0.092-1.219-0.939-2.577-1.896-3.036c-0.354-0.173-0.678-0.19-0.936-0.089" stroke="#000000" stroke-width="0.25" g2gstroke="#312783" stroke-miterlimit="10"/>
<path orgstroke="#000000" orgfill="none" transform="translate(116.0, -40.0) translate(-130,32) translate(6.831858407079608, 5.550884955752224) translate(-7.02044677734375, -0.1459808349609375) translate(-3.0, 12.0) matrix(0.8349252870008533 0 0 0.8349252870008533 98.67091100573651 57.94067515553139) translate(-79,-26) translate(-1.658630372958214E-5, 2.7923583729716484E-6) translate(66.72042523193358, 5.893961837768529) translate(-19.37224350286988, 8.609886001275527) translate(-28.91569970083839, -46.26511952134149) translate(-23.132559760670688, -61.30128336577741) translate(-5.783139940167757, 12.144593874352154) translate(-147.0, -86.0) translate(10.0, 10.0)" fill="none" d="M819.722,484.673   c-0.766,0.545-1.416,1.586-1.555,2.566c-0.006,0.041-0.01,0.082-0.014,0.123" stroke="#000000" stroke-width="0.25" g2gstroke="#312783" stroke-miterlimit="10"/>
<path orgstroke="#000000" orgfill="none" transform="translate(116.0, -40.0) translate(-130,32) translate(6.831858407079608, 5.550884955752224) translate(-7.02044677734375, -0.1459808349609375) translate(-3.0, 12.0) matrix(0.8349252870008533 0 0 0.8349252870008533 98.67091100573651 57.94067515553139) translate(-79,-26) translate(-1.658630372958214E-5, 2.7923583729716484E-6) translate(66.72042523193358, 5.893961837768529) translate(-19.37224350286988, 8.609886001275527) translate(-28.91569970083839, -46.26511952134149) translate(-23.132559760670688, -61.30128336577741) translate(-5.783139940167757, 12.144593874352154) translate(-147.0, -86.0) translate(10.0, 10.0)" fill="none" d="M821.16,490.357   c-0.406-0.197-0.617-0.727-0.516-1.461c0.166-1.18,1.074-2.445,2.029-2.83c0.357-0.146,0.672-0.146,0.916-0.025" stroke="#000000" stroke-width="0.25" g2gstroke="#312783" stroke-miterlimit="10"/>
<path orgstroke="#000000" orgfill="none" transform="translate(116.0, -40.0) translate(-130,32) translate(6.831858407079608, 5.550884955752224) translate(-7.02044677734375, -0.1459808349609375) translate(-3.0, 12.0) matrix(0.8349252870008533 0 0 0.8349252870008533 98.67091100573651 57.94067515553139) translate(-79,-26) translate(-1.658630372958214E-5, 2.7923583729716484E-6) translate(66.72042523193358, 5.893961837768529) translate(-19.37224350286988, 8.609886001275527) translate(-28.91569970083839, -46.26511952134149) translate(-23.132559760670688, -61.30128336577741) translate(-5.783139940167757, 12.144593874352154) translate(-147.0, -86.0) translate(10.0, 10.0)" fill="none" d="M811.888,492.273l-0.82-0.566   c-0.184-0.109-0.428-0.117-0.707-0.004c-0.691,0.279-1.352,1.197-1.471,2.051c-0.066,0.48,0.049,0.838,0.287,1.008" stroke="#000000" stroke-width="0.25" g2gstroke="#312783" stroke-miterlimit="10"/>
<path orgstroke="#000000" orgfill="none" transform="translate(116.0, -40.0) translate(-130,32) translate(6.831858407079608, 5.550884955752224) translate(-7.02044677734375, -0.1459808349609375) translate(-3.0, 12.0) matrix(0.8349252870008533 0 0 0.8349252870008533 98.67091100573651 57.94067515553139) translate(-79,-26) translate(-1.658630372958214E-5, 2.7923583729716484E-6) translate(66.72042523193358, 5.893961837768529) translate(-19.37224350286988, 8.609886001275527) translate(-28.91569970083839, -46.26511952134149) translate(-23.132559760670688, -61.30128336577741) translate(-5.783139940167757, 12.144593874352154) translate(-147.0, -86.0) translate(10.0, 10.0)" fill="none" d="M811.888,496.615   c-0.295-0.146-0.447-0.525-0.373-1.061c0.119-0.854,0.777-1.771,1.471-2.051c0.26-0.104,0.486-0.104,0.664-0.02" stroke="#000000" stroke-width="0.25" g2gstroke="#312783" stroke-miterlimit="10"/>
<path orgstroke="#000000" orgfill="none" transform="translate(116.0, -40.0) translate(-130,32) translate(6.831858407079608, 5.550884955752224) translate(-7.02044677734375, -0.1459808349609375) translate(-3.0, 12.0) matrix(0.8349252870008533 0 0 0.8349252870008533 98.67091100573651 57.94067515553139) translate(-79,-26) translate(-1.658630372958214E-5, 2.7923583729716484E-6) translate(66.72042523193358, 5.893961837768529) translate(-19.37224350286988, 8.609886001275527) translate(-28.91569970083839, -46.26511952134149) translate(-23.132559760670688, -61.30128336577741) translate(-5.783139940167757, 12.144593874352154) translate(-147.0, -86.0) translate(10.0, 10.0)" fill="none" d="M777.753,515.438l-1.488-1.022   c-0.182-0.109-0.426-0.117-0.707-0.004c-0.689,0.275-1.35,1.197-1.469,2.051c-0.066,0.48,0.049,0.838,0.287,1.008" stroke="#000000" stroke-width="0.25" g2gstroke="#312783" stroke-miterlimit="10"/>
<path orgstroke="#000000" orgfill="none" transform="translate(116.0, -40.0) translate(-130,32) translate(6.831858407079608, 5.550884955752224) translate(-7.02044677734375, -0.1459808349609375) translate(-3.0, 12.0) matrix(0.8349252870008533 0 0 0.8349252870008533 98.67091100573651 57.94067515553139) translate(-79,-26) translate(-1.658630372958214E-5, 2.7923583729716484E-6) translate(66.72042523193358, 5.893961837768529) translate(-19.37224350286988, 8.609886001275527) translate(-28.91569970083839, -46.26511952134149) translate(-23.132559760670688, -61.30128336577741) translate(-5.783139940167757, 12.144593874352154) translate(-147.0, -86.0) translate(10.0, 10.0)" fill="none" d="M777.087,519.322   c-0.295-0.146-0.449-0.525-0.373-1.061c0.119-0.854,0.777-1.771,1.469-2.051c0.262-0.104,0.488-0.104,0.664-0.02" stroke="#000000" stroke-width="0.25" g2gstroke="#312783" stroke-miterlimit="10"/>
<path orgstroke="#000000" orgfill="none" transform="translate(116.0, -40.0) translate(-130,32) translate(6.831858407079608, 5.550884955752224) translate(-7.02044677734375, -0.1459808349609375) translate(-3.0, 12.0) matrix(0.8349252870008533 0 0 0.8349252870008533 98.67091100573651 57.94067515553139) translate(-79,-26) translate(-1.658630372958214E-5, 2.7923583729716484E-6) translate(66.72042523193358, 5.893961837768529) translate(-19.37224350286988, 8.609886001275527) translate(-28.91569970083839, -46.26511952134149) translate(-23.132559760670688, -61.30128336577741) translate(-5.783139940167757, 12.144593874352154) translate(-147.0, -86.0) translate(10.0, 10.0)" fill="none" d="M743.22,535.666l-1.705-1.174   c-0.182-0.107-0.426-0.117-0.707-0.004c-0.689,0.277-1.35,1.195-1.469,2.053c-0.066,0.479,0.049,0.838,0.287,1.006l0.16,0.111" stroke="#000000" stroke-width="0.25" g2gstroke="#312783" stroke-miterlimit="10"/>
<path orgstroke="#000000" orgfill="none" transform="translate(116.0, -40.0) translate(-130,32) translate(6.831858407079608, 5.550884955752224) translate(-7.02044677734375, -0.1459808349609375) translate(-3.0, 12.0) matrix(0.8349252870008533 0 0 0.8349252870008533 98.67091100573651 57.94067515553139) translate(-79,-26) translate(-1.658630372958214E-5, 2.7923583729716484E-6) translate(66.72042523193358, 5.893961837768529) translate(-19.37224350286988, 8.609886001275527) translate(-28.91569970083839, -46.26511952134149) translate(-23.132559760670688, -61.30128336577741) translate(-5.783139940167757, 12.144593874352154) translate(-147.0, -86.0) translate(10.0, 10.0)" fill="none" d="M742.337,539.402   c-0.295-0.146-0.449-0.525-0.373-1.063c0.119-0.852,0.777-1.77,1.469-2.051c0.262-0.104,0.488-0.104,0.664-0.021" stroke="#000000" stroke-width="0.25" g2gstroke="#312783" stroke-miterlimit="10"/>
<path orgstroke="#000000" orgfill="none" transform="translate(116.0, -40.0) translate(-130,32) translate(6.831858407079608, 5.550884955752224) translate(-7.02044677734375, -0.1459808349609375) translate(-3.0, 12.0) matrix(0.8349252870008533 0 0 0.8349252870008533 98.67091100573651 57.94067515553139) translate(-79,-26) translate(-1.658630372958214E-5, 2.7923583729716484E-6) translate(66.72042523193358, 5.893961837768529) translate(-19.37224350286988, 8.609886001275527) translate(-28.91569970083839, -46.26511952134149) translate(-23.132559760670688, -61.30128336577741) translate(-5.783139940167757, 12.144593874352154) translate(-147.0, -86.0) translate(10.0, 10.0)" fill="none" d="M702.998,556.063l-1.496-1.028   c-0.182-0.109-0.426-0.117-0.707-0.004c-0.688,0.275-1.35,1.195-1.471,2.051c-0.041,0.303-0.012,0.557,0.076,0.744" stroke="#000000" stroke-width="0.25" g2gstroke="#312783" stroke-miterlimit="10"/>
<path orgstroke="#000000" orgfill="none" transform="translate(116.0, -40.0) translate(-130,32) translate(6.831858407079608, 5.550884955752224) translate(-7.02044677734375, -0.1459808349609375) translate(-3.0, 12.0) matrix(0.8349252870008533 0 0 0.8349252870008533 98.67091100573651 57.94067515553139) translate(-79,-26) translate(-1.658630372958214E-5, 2.7923583729716484E-6) translate(66.72042523193358, 5.893961837768529) translate(-19.37224350286988, 8.609886001275527) translate(-28.91569970083839, -46.26511952134149) translate(-23.132559760670688, -61.30128336577741) translate(-5.783139940167757, 12.144593874352154) translate(-147.0, -86.0) translate(10.0, 10.0)" fill="none" d="M702.322,559.941   c-0.293-0.146-0.447-0.525-0.373-1.061c0.121-0.854,0.777-1.771,1.471-2.051c0.26-0.105,0.486-0.105,0.664-0.021" stroke="#000000" stroke-width="0.25" g2gstroke="#312783" stroke-miterlimit="10"/>
<path orgstroke="#000000" orgfill="none" transform="translate(116.0, -40.0) translate(-130,32) translate(6.831858407079608, 5.550884955752224) translate(-7.02044677734375, -0.1459808349609375) translate(-3.0, 12.0) matrix(0.8349252870008533 0 0 0.8349252870008533 98.67091100573651 57.94067515553139) translate(-79,-26) translate(-1.658630372958214E-5, 2.7923583729716484E-6) translate(66.72042523193358, 5.893961837768529) translate(-19.37224350286988, 8.609886001275527) translate(-28.91569970083839, -46.26511952134149) translate(-23.132559760670688, -61.30128336577741) translate(-5.783139940167757, 12.144593874352154) translate(-147.0, -86.0) translate(10.0, 10.0)" fill="none" d="M645.896,576.101l-0.633-0.436   c-0.182-0.107-0.426-0.117-0.707-0.004c-0.689,0.279-1.35,1.199-1.469,2.053c-0.068,0.48,0.049,0.838,0.287,1.006l0.564,0.389" stroke="#000000" stroke-width="0.25" g2gstroke="#312783" stroke-miterlimit="10"/>
<path orgstroke="#000000" orgfill="none" transform="translate(116.0, -40.0) translate(-130,32) translate(6.831858407079608, 5.550884955752224) translate(-7.02044677734375, -0.1459808349609375) translate(-3.0, 12.0) matrix(0.8349252870008533 0 0 0.8349252870008533 98.67091100573651 57.94067515553139) translate(-79,-26) translate(-1.658630372958214E-5, 2.7923583729716484E-6) translate(66.72042523193358, 5.893961837768529) translate(-19.37224350286988, 8.609886001275527) translate(-28.91569970083839, -46.26511952134149) translate(-23.132559760670688, -61.30128336577741) translate(-5.783139940167757, 12.144593874352154) translate(-147.0, -86.0) translate(10.0, 10.0)" fill="none" d="M646.07,580.568   c-0.283-0.15-0.432-0.527-0.357-1.055c0.121-0.852,0.779-1.77,1.471-2.051c0.264-0.104,0.486-0.104,0.664-0.02" stroke="#000000" stroke-width="0.25" g2gstroke="#312783" stroke-miterlimit="10"/>
<path orgstroke="#000000" orgfill="none" transform="translate(116.0, -40.0) translate(-130,32) translate(6.831858407079608, 5.550884955752224) translate(-7.02044677734375, -0.1459808349609375) translate(-3.0, 12.0) matrix(0.8349252870008533 0 0 0.8349252870008533 98.67091100573651 57.94067515553139) translate(-79,-26) translate(-1.658630372958214E-5, 2.7923583729716484E-6) translate(66.72042523193358, 5.893961837768529) translate(-19.37224350286988, 8.609886001275527) translate(-28.91569970083839, -46.26511952134149) translate(-23.132559760670688, -61.30128336577741) translate(-5.783139940167757, 12.144593874352154) translate(-147.0, -86.0) translate(10.0, 10.0)" fill="none" d="M823.458,487.761   c-0.105,0.736-0.674,1.531-1.271,1.773c-0.6,0.24-1-0.16-0.895-0.898c0.102-0.734,0.67-1.529,1.27-1.771   C823.16,486.621,823.56,487.023,823.458,487.761z" stroke="#000000" stroke-width="0.25" g2gstroke="#312783" stroke-miterlimit="10"/>
</g>
</g>
</g>
</g>
</g>
</g>
</g></svg>