<svg xmlns="http://www.w3.org/2000/svg" xmlns:xlink="http://www.w3.org/1999/xlink" xmlns:x="http://ns.adobe.com/Extensibility/1.0/" xmlns:graph="http://ns.adobe.com/Graphs/1.0/" xmlns:i="http://ns.adobe.com/AdobeIllustrator/10.0/" xmlns:etg="http://www.eurotaxglass.com/etg/evd/" etg:dataTimestamp="1539068912893" contentScriptType="text/ecmascript" zoomAndPan="magnify" contentStyleType="text/css" id="Layer_1" enable-background="new 0 0 1841.891 1595.279" version="1.1" xml:space="preserve" width="1841.891px" preserveAspectRatio="xMidYMid meet" viewBox="0 0 1841.891 1595.279" height="1595.279px" x="0px" y="0px"><g xmlns="http://www.w3.org/2000/svg" objecttype="PS" tooltip="#UNDEFINED" id="30">
<g onmouseover="notifyOwner(AGV_OBJECT_MOUSEOVER, '30(PS)')" transform="translate(15.529125793457013, 11.764660217285154)" onclick="clickZoom(evt); notifyOwner(AGV_OBJECT_MOUSECLICK, '30(PS)')" onmouseout="notifyOwner(AGV_OBJECT_MOUSEOUT, '30(PS)')" tooltip="#UNDEFINED" id="30-Graphic" objecttype="GRAPHIC">
<g>
	<g id="26::XMLID_1_">
		<g>
			<path orgstroke="#000000" orgfill="#ffffff" fill="#ffffff" g2gfill="#BCBEC0" d="M388.308,328.999     c0.521,2,3.41,2.99,6.47,2.2c0.4-0.1,2.229-0.7,2.58-0.84l0.12-0.188l0.2-0.37l1.34-2.229l0.45-0.46l0.03-0.368     c-0.96-1.472-4.23-2.382-6.59-1.771c-2.23,0.58-4.062,2.2-4.604,3.671L388.308,328.999L388.308,328.999z M393.268,295.079     l0.69-0.17l0.604-0.05l0.94,0.14l0.729,0.21l0.33,0.34l0.25,0.352l0.479,0.83l0.8,2.396l0.67,7.108l0.67,7.34l1.11,3.563l0.648,2     l1.03,2.648l0.09,0.229l0.23,1.511l0.17,1.609v1.641l-0.063,1.17l-0.312,0.939l-0.36,0.896l-0.35,0.646l-0.34,0.55l-0.61,0.761     l-0.7,0.55l-0.63,0.439l-0.76,0.396l-0.75,0.33l-0.66,0.28l-0.646,0.22l-0.438,0.11l-0.25,0.08l-0.22-0.063l-0.61-0.22h-0.2     l-0.26,0.01c-4.81,1.063-9.28-0.56-10.09-3.734c-0.021-0.096-0.05-0.194-0.07-0.313l-0.2-0.688l-0.13-0.176l-0.79-0.31     l-0.688-2.63l0.813-2.688l2.229-4.89l1.104-5.12l1.563-6.438l1.33-7.79l0.67-1.771l1.16-1.063l1.146-0.819L393.268,295.079z" outline-element="true" stroke="#000000" stroke-width="0.5" g2gstroke="#312783" stroke-miterlimit="10"/>
		</g>
	</g>
	<path orgstroke="#000000" orgfill="none" fill="none" d="M396.169,331.706   c-0.46,0.188-0.945,0.354-1.451,0.481c-3.887,1-7.568-0.26-8.227-2.809c-0.651-2.56,1.968-5.438,5.854-6.435   c3.685-0.938,7.185,0.144,8.098,2.421" stroke="#000000" stroke-width="0.25" g2gstroke="#312783" stroke-miterlimit="10"/>
	<path orgstroke="#000000" orgfill="none" fill="none" d="M388.229,328.385   c-0.009-1.833,1.938-3.729,4.688-4.438c2.896-0.745,7.188,0.791,6.849,2.878" stroke="#000000" stroke-width="0.25" g2gstroke="#312783" stroke-miterlimit="10"/>
	<path orgstroke="#000000" orgfill="none" fill="none" d="M384.463,328.058   c0.627-2.646,3.569-5.183,7.542-6.198c3.552-0.913,6.973-0.363,8.96,1.206" stroke="#000000" stroke-width="0.25" g2gstroke="#312783" stroke-miterlimit="10"/>
	<polyline orgstroke="#000000" orgfill="none" points="386.561,319.123 384.337,324.016    383.672,326.24 384.337,329.12  " fill="none" stroke="#000000" stroke-width="0.25" g2gstroke="#312783" stroke-miterlimit="10"/>
	
		<line orgstroke="#000000" orgfill="none" fill="none" x1="387.335" x2="386.904" y1="315.567" y2="317.552" stroke="#000000" stroke-width="0.25" g2gstroke="#312783" stroke-miterlimit="10"/>
	<polyline orgstroke="#000000" orgfill="none" points="390.262,301.538 389.23,307.557    387.674,314.01 387.335,315.567  " fill="none" stroke="#000000" stroke-width="0.25" g2gstroke="#312783" stroke-miterlimit="10"/>
	<polyline orgstroke="#000000" orgfill="none" points="398.885,315.281 398.349,313.567    397.681,306.222 396.931,298.161 395.819,296.048 394.377,295.769 392.649,296.561 391.232,297.995 390.564,299.777  " fill="none" stroke="#000000" stroke-width="0.25" g2gstroke="#312783" stroke-miterlimit="10"/>
	<polyline orgstroke="#000000" orgfill="none" points="399.608,326.971 400.567,325.992    401.017,324.239 401.241,322.013 400.129,319.123 399.462,317.122  " fill="none" stroke="#000000" stroke-width="0.25" g2gstroke="#312783" stroke-miterlimit="10"/>
	
	<polyline orgstroke="#000000" orgfill="none" points="395.059,333.745 396.556,331.764    397.361,330.361  " fill="none" stroke="#000000" stroke-width="0.25" g2gstroke="#312783" stroke-miterlimit="10"/>
	<polyline orgstroke="#000000" orgfill="none" points="399.454,328.636 400.092,327.575    401.642,325.992 402.094,324.239 402.189,323.261  " fill="none" stroke="#000000" stroke-width="0.25" g2gstroke="#312783" stroke-miterlimit="10"/>
	<polyline orgstroke="#000000" orgfill="none" points="395.902,334.028 397.631,331.764    398.436,330.361  " fill="none" stroke="#000000" stroke-width="0.25" g2gstroke="#312783" stroke-miterlimit="10"/>
	<path orgstroke="#000000" orgfill="none" fill="none" d="M387.292,332.374   c-1.283-0.688-2.195-1.722-2.522-2.979c-0.021-0.104-0.049-0.206-0.063-0.313l-0.198-0.688" stroke="#000000" stroke-width="0.25" g2gstroke="#312783" stroke-miterlimit="10"/>
	<path orgstroke="#000000" orgfill="none" fill="none" d="M395.316,333.112h-0.188l-0.255,0.006   c-2.021,0.44-3.979,0.419-5.643,0.004" stroke="#000000" stroke-width="0.25" g2gstroke="#312783" stroke-miterlimit="10"/>
	<polyline orgstroke="#000000" orgfill="none" points="389.643,305.152 389.897,308.892    390.564,311.344 391.677,312.677 393.011,312.894 393.9,312.677 395.235,312.01 396.126,310.677 396.571,309.115 397.494,304.2     " fill="none" stroke="#000000" stroke-width="0.25" g2gstroke="#312783" stroke-miterlimit="10"/>
	<polyline orgstroke="#000000" orgfill="none" points="388.131,312.114 389.676,314.234    391.899,315.344 394.568,315.569 396.347,314.677 398.349,313.567  " fill="none" stroke="#000000" stroke-width="0.25" g2gstroke="#312783" stroke-miterlimit="10"/>
	<polyline orgstroke="#000000" orgfill="none" points="383.892,326.184 385.059,324.239    386.282,322.635 387.785,320.905 389.286,319.737 391.287,318.737 393.011,318.51 395.125,318.51 397.015,319.011 398.461,319.678    399.684,320.469 400.797,321.405  " fill="none" stroke="#000000" stroke-width="0.25" g2gstroke="#312783" stroke-miterlimit="10"/>
	<polyline orgstroke="#000000" orgfill="none" points="389.676,314.234 390.12,315.177    390.454,316.121 390.12,317.01 389.842,317.621 389.009,318.344 387.84,319.071 387.061,319.737 386.006,320.905  " fill="none" stroke="#000000" stroke-width="0.25" g2gstroke="#312783" stroke-miterlimit="10"/>
	<polyline orgstroke="#000000" orgfill="none" points="394.568,315.569 394.345,316.344    394.511,316.735 394.845,317.069 395.347,317.344 396.402,317.51 397.514,317.903 398.627,318.458 399.573,318.905    400.129,319.123  " fill="none" stroke="#000000" stroke-width="0.25" g2gstroke="#312783" stroke-miterlimit="10"/>
</g>
</g>
</g></svg>