<svg xmlns="http://www.w3.org/2000/svg" xmlns:xlink="http://www.w3.org/1999/xlink" xmlns:x="http://ns.adobe.com/Extensibility/1.0/" xmlns:graph="http://ns.adobe.com/Graphs/1.0/" xmlns:i="http://ns.adobe.com/AdobeIllustrator/10.0/" xmlns:etg="http://www.eurotaxglass.com/etg/evd/" etg:dataTimestamp="1539068912893" contentScriptType="text/ecmascript" zoomAndPan="magnify" contentStyleType="text/css" id="Layer_1" enable-background="new 0 0 1841.891 1595.279" version="1.1" xml:space="preserve" width="1841.891px" preserveAspectRatio="xMidYMid meet" viewBox="0 0 1841.891 1595.279" height="1595.279px" x="0px" y="0px"><g xmlns="http://www.w3.org/2000/svg" objecttype="PS" tooltip="#UNDEFINED" id="34">
<g onmouseover="notifyOwner(AGV_OBJECT_MOUSEOVER, '34(PS)')" transform="translate(15.529125793457013, 11.764660217285154) translate(-17.64705882352945, -27.64705882352945) translate(38,31) " onclick="clickZoom(evt); notifyOwner(AGV_OBJECT_MOUSECLICK, '34(PS)')" onmouseout="notifyOwner(AGV_OBJECT_MOUSEOUT, '34(PS)')" tooltip="#UNDEFINED" id="34-Graphic" objecttype="GRAPHIC">
<g zvalue="33" transform="translate(65,49) ">
<g zvalue="15">
<g>
<path orgstroke="#000000" orgfill="#ffffff" transform="matrix(1.366302490234375 0 0 1.366302490234375 -206.929370655733 -158.22817993164062)" fill="#ffffff" g2gfill="#BCBEC0" d="M429.747,325.437   c-0.219-0.146-0.342-0.229-0.342-0.229l-0.229-0.059l-1.251,0.725l-0.155,0.27v1.619l-0.145,0.25l-2.23,1.031h-0.313l-1.124-0.722   l-0.346,0.073l-0.78,0.679v0.142v1.266c0,0,7.47,5.295,7.813,7.358l0.281,0.156l0.385-0.063l1.133-0.648v-0.939l0.423-0.438   l2.205-1.271h0.2l0.406,0.836l0.043,0.103l0.169,0.101h0.228l0.271-0.104l0.996-0.573l0.146-0.248l0.005-0.229v-4.348l-0.19-0.334   L429.747,325.437" stroke="#000000" outline-element="true" stroke-width="0.5" g2gstroke="#312783" stroke-miterlimit="10"/>
<path orgstroke="#000000" orgfill="none" transform="matrix(1.366302490234375 0 0 1.366302490234375 -206.929370655733 -158.22817993164062)" fill="none" d="M427.963,328.048   c0.864,0.621,7.396,5.363,7.718,7.291" stroke="#000000" stroke-width="0.25" g2gstroke="#312783" stroke-miterlimit="10"/>
<path orgstroke="#000000" orgfill="none" transform="matrix(1.366302490234375 0 0 1.366302490234375 -206.929370655733 -158.22817993164062)" fill="none" d="M428.03399658203125 326.0830078125L436.13800048828125 330.76300048828125L436.3890075683594 331.20001220703125L436.3890075683594 335.4960021972656" stroke="#000000" stroke-width="0.25" g2gstroke="#312783" stroke-miterlimit="10"/>
<path orgstroke="#000000" orgfill="none" transform="matrix(1.366302490234375 0 0 1.366302490234375 -206.929370655733 -158.22817993164062)" fill="none" d="M424.0880126953125 328.53900146484375L432.1929931640625 333.218994140625L432.4440002441406 333.6570129394531L432.4440002441406 336.8380126953125" stroke="#000000" stroke-width="0.25" g2gstroke="#312783" stroke-miterlimit="10"/>
<path orgstroke="#000000" orgfill="none" transform="matrix(1.366302490234375 0 0 1.366302490234375 -206.929370655733 -158.22817993164062)" fill="none" d="M422.9630126953125 329.072998046875L431.0679931640625 333.7510070800781L431.3110046386719 334.177001953125L431.3110046386719 337.5559997558594" stroke="#000000" stroke-width="0.25" g2gstroke="#312783" stroke-miterlimit="10"/>
<path orgstroke="#000000" orgfill="none" transform="matrix(1.366302490234375 0 0 1.366302490234375 -206.929370655733 -158.22817993164062)" fill="none" d="M436.322998046875 330.947998046875L437.6629943847656 330.1619873046875" stroke="#000000" stroke-width="0.25" g2gstroke="#312783" stroke-miterlimit="10"/>
<path orgstroke="#000000" orgfill="none" transform="matrix(1.366302490234375 0 0 1.366302490234375 -206.929370655733 -158.22817993164062)" fill="none" d="M431.239990234375 333.9200134277344L432.3030090332031 333.2980041503906" stroke="#000000" stroke-width="0.25" g2gstroke="#312783" stroke-miterlimit="10"/>
</g>
</g>
</g>
</g>
</g></svg>