<svg xmlns="http://www.w3.org/2000/svg" xmlns:xlink="http://www.w3.org/1999/xlink" xmlns:etg="http://www.eurotaxglass.com/etg/evd/" etg:dataTimestamp="1539068912893" contentScriptType="text/ecmascript" zoomAndPan="magnify" contentStyleType="text/css" id="Capa_1" enable-background="new 0 0 1841.891 1595.279" version="1.1" xml:space="preserve" width="1841.891px" preserveAspectRatio="xMidYMid meet" viewBox="0 0 1841.891 1595.279" height="1595.279px" x="0px" y="0px"><g xmlns="http://www.w3.org/2000/svg" objecttype="PS" tooltip="#UNDEFINED" id="36">
<g onmouseover="notifyOwner(AGV_OBJECT_MOUSEOVER, '36(PS)')" transform="translate(33.34486065673826, 21.74257693481445) translate(2.9991161149749814, 8.247569316181199) translate(-444.7702593608417, -91.23492499709573) translate(425.0, 51.0) translate(10.0, 10.00006103515625)" onclick="clickZoom(evt); notifyOwner(AGV_OBJECT_MOUSECLICK, '36(PS)')" onmouseout="notifyOwner(AGV_OBJECT_MOUSEOUT, '36(PS)')" tooltip="#UNDEFINED" id="36-Graphic" objecttype="GRAPHIC">
<g zvalue="0">
<g>
<path stroke-linecap="round" orgstroke="#000000" orgfill="#ffffff" fill="#ffffff" g2gfill="#ECC35D" stroke-linejoin="round" d="   M525.678,207.473c-0.283-0.76-4.188-8.334-4.813-9.771c-0.568-1.309-0.904-14.875-1.404-19.08s-2.676-7.188-4.107-9.283   c-6.959-10.188-17.449-24.744-19.51-27.09c-0.816-0.928-1.703-1.631-2.602-2.121l-0.213-0.113c0,0-0.951-0.619-1.791-1.025   c-1.66-0.803-3.33-0.904-4.65-0.373c-18.668,7.5-45.385,21.385-67.26,33.676c-7.074,3.975-14.152,8.682-21.518,12.934   c-2.117,1.221-2.719,3.262-1.975,5.777c2.215,7.494,7.197,24.676,8.826,34.449c2.125,12.75,5.662,39.248,5.75,40   c0.09,0.754,1.313,3.625,1.938,5.063s3.645,7.313,4.063,8.188c0.416,0.875,1.334,2.293,2.166,6.752   c0.834,4.457-2.752,59.131-3.854,63.125c-1.406,5.088-3.174,8.068-3.379,10.061c-0.285,2.771-0.764,5.48-1.35,7.793   c-0.563,2.213-0.631,4.473,0.549,5.219c0.367,0.23,1.49,0.887,1.49,0.887c0.51,0.277,1.299,0.18,2.461-0.492   c20.982-12.623,39.883-24.006,53.426-32.18c8.701-5.252,9.217-15.375,11.469-19.779c7.666-15,12.834-29.5,28.5-57.332   c10.07-17.895,16.691-29.098,18.371-50.557C526.4,210.426,526.385,209.373,525.678,207.473z M522.045,211.031   c-1.588,20.275-7.791,31.291-17.184,47.965l-0.867,1.541c-10.363,18.412-16.064,30.818-21.092,41.766   c-2.5,5.439-4.861,10.578-7.457,15.656c-0.697,1.367-1.195,3.01-1.773,4.914c-1.416,4.67-3.178,10.484-8.74,13.842   c-12.85,7.756-30.523,18.396-50.219,30.25c-0.355,0.203-0.365,0.178-0.279-0.203c0.482-2.166,0.877-4.521,1.123-6.896   c0.064-0.637,0.523-1.799,1.057-3.146c0.666-1.691,1.498-3.797,2.244-6.496c1.088-3.947,4.91-58.871,3.902-64.273   c-0.797-4.27-1.727-6.102-2.227-7.086l-0.145-0.291c-0.143-0.301-0.58-1.164-1.123-2.24c-1.002-1.982-2.496-4.984-2.902-5.869   c-1.338-2.912-2.053-6.686-2.246-8.129c-1.068-7.922-3.592-26.295-5.266-36.336c-1.166-6.994-4.242-19.012-8.896-34.754   c-0.555-1.877,0.123-2.453,0.803-2.846c3.453-1.992,6.865-4.098,10.166-6.135c3.9-2.406,7.582-4.68,11.326-6.783   c25.928-14.568,50.959-27.104,66.961-33.533c0.242-0.098,0.523-0.146,0.834-0.146c0.73,0,1.26,0.24,1.715,0.648   c0.174,0.156,0.334,0.334,0.494,0.518c1.846,2.1,11.924,16.02,19.32,26.846l0.229,0.332c1.359,1.98,3.053,4.445,3.453,7.811   c0.203,1.717,0.389,5.26,0.568,8.686c0.414,7.941,0.578,10.078,1.027,11.111c0.316,0.729,1.229,2.551,2.586,5.25   c0.852,1.697,2.021,4.023,2.189,4.428C522.156,208.855,522.164,209.516,522.045,211.031z" stroke="#000000" outline-element="true" stroke-width="0.5" g2gstroke="#312783" stroke-miterlimit="10"/>
<path orgstroke="#000000" orgfill="none" stroke-linecap="round" fill="none" stroke-linejoin="round" d="   M493.242,140.127c-1.762-0.965-3.572-1.113-4.982-0.547c-18.666,7.5-45.385,21.385-67.26,33.676   c-7.072,3.975-14.152,8.682-21.518,12.934c-2.115,1.223-2.719,3.262-1.975,5.779c2.217,7.492,7.199,24.674,8.828,34.449   c2.125,12.75,5.66,39.246,5.748,40c0.092,0.754,1.314,3.625,1.939,5.063s3.645,7.313,4.061,8.188s1.336,2.293,2.168,6.75   c0.832,4.459-2.752,59.133-3.854,63.125c-1.406,5.09-3.174,8.07-3.381,10.061c-0.285,2.771-0.762,5.48-1.35,7.793   c-0.533,2.105-0.756,4.529,0.367,5.141" stroke="#000000" stroke-width="0.25" g2gstroke="#312783" stroke-miterlimit="10"/>
<path orgstroke="#000000" orgfill="none" stroke-linecap="round" fill="none" stroke-linejoin="round" d="   M414.363,367.078c-0.055,0.24-0.107,0.479-0.164,0.713c-0.242,1.025-0.061,1.459,1.207,0.729   c20.09-12.088,38.137-22.955,51.197-30.84c5.564-3.357,7.326-9.17,8.742-13.842c0.576-1.902,1.074-3.547,1.773-4.912   c2.596-5.078,4.955-10.217,7.455-15.658c5.029-10.945,10.729-23.352,21.092-41.766l0.867-1.539   c9.393-16.674,15.598-27.689,17.186-47.965c0.117-1.518,0.111-2.178-0.42-3.604c-0.168-0.404-1.336-2.73-2.189-4.428   c-1.355-2.697-2.268-4.521-2.584-5.248c-0.449-1.033-0.613-3.17-1.029-11.113c-0.18-3.426-0.363-6.967-0.568-8.684   c-0.4-3.365-2.092-5.83-3.453-7.811l-0.229-0.334c-7.395-10.826-17.475-24.746-19.318-26.846c-0.857-0.977-2.027-1.912-3.445-2.098   " stroke="#000000" stroke-width="0.25" g2gstroke="#312783" stroke-miterlimit="10"/>
</g>
</g>
</g>
</g></svg>