<svg xmlns="http://www.w3.org/2000/svg" xmlns:xlink="http://www.w3.org/1999/xlink" xmlns:etg="http://www.eurotaxglass.com/etg/evd/" etg:dataTimestamp="1539068912893" contentScriptType="text/ecmascript" zoomAndPan="magnify" contentStyleType="text/css" id="Capa_1" enable-background="new 0 0 1841.891 1595.279" version="1.1" xml:space="preserve" width="1841.891px" preserveAspectRatio="xMidYMid meet" viewBox="0 0 1841.891 1595.279" height="1595.279px" x="0px" y="0px"><g xmlns="http://www.w3.org/2000/svg" objecttype="PS" tooltip="#UNDEFINED" id="40">
<g onmouseover="notifyOwner(AGV_OBJECT_MOUSEOVER, '40(PS)')" transform="translate(33.34486065673826, 21.74257693481445) translate(-20.1681027775046, 17.14288736087886) translate(-444.7702593608417, -91.23492499709573) translate(425.0, 51.0) translate(10.0, 10.00006103515625)" onclick="clickZoom(evt); notifyOwner(AGV_OBJECT_MOUSECLICK, '40(PS)')" onmouseout="notifyOwner(AGV_OBJECT_MOUSEOUT, '40(PS)')" tooltip="#UNDEFINED" id="40-Graphic" objecttype="GRAPHIC">
<g zvalue="4">
<g>
<path orgstroke="#000000" orgfill="#ffffff" fill="#ffffff" g2gfill="#ECF5E4" d="M597.924,201.178l-1.838,0.877   c-0.348,0.201-0.672,0.654-1.277,1.012c-3.168,1.566-7.102,3.719-7.57,3.988c-0.494,0.285-1.871,1.816-1.871,1.816   c-0.406,0.406-0.887,0.742-1.35,0.629s-0.543-0.17-1.023,0.166c-13.328,8.811-3.943,10.074-18.164,7.805   c-8.129-1.301-11.088-1.836-12.641-1.689c-1.275,0.119-2.893,1.574-3.07,1.676s-0.18,0.396-0.471,0.563   c-0.291,0.168-0.883,0.576-1.857,1.066c-5.621,2.756-8.992,4.215-10.176,4.725c-0.602,0.26-0.713,0.25-1.107,0.203   c-0.391-0.047-0.672-0.027-0.93,0.096l-0.771,0.367c-0.346,0.164-0.318,0.408-0.529,0.498c-0.484,0.207-0.668-0.057-0.877-0.418   c-0.113-0.199-0.236-0.488,0.289-0.746s0.508,0.213,0.764,0.064l0.891-0.459c0.396-0.182,0.684-0.846,1.123-1.039   c1.146-0.498,4.809-2.119,10.379-4.852c0.973-0.477,1.713-0.971,1.887-1.07c0.174-0.102,0.48,0.002,0.805-0.221   c0.322-0.223,1.781-1.557,3.033-1.654c1.508-0.119,4.416,0.439,12.521,1.727c14.252,2.277,4.781,1.002,18.266-7.875   c0.523-0.299,0.459-0.537,0.523-0.967c0.063-0.43,0.695-0.686,1.254-0.854c0,0,1.855-0.449,2.418-0.773   c0.533-0.307,4.662-2.58,7.822-4.129c0.422-0.244,1.006,0.064,1.518-0.23l1.494-0.703c0.313-0.182,0.838-0.445,0.734-0.834   c-0.102-0.391-0.152-0.633,0.133-0.797s0.563,0.236,0.697,0.643C599.088,200.195,598.779,200.771,597.924,201.178z" stroke="#000000" outline-element="true" stroke-width="0.5" g2gstroke="#312783" stroke-miterlimit="10"/>
<path orgstroke="#000000" orgfill="none" fill="none" d="M582.715,208.133   c0.414,0.053,1.055,0.686,0.76,1.197" stroke="#000000" stroke-width="0.25" g2gstroke="#312783" stroke-miterlimit="10"/>
<path orgstroke="#000000" orgfill="none" fill="none" d="M586.26,206.039   c0.414,0.053,1.055,0.688,0.76,1.197" stroke="#000000" stroke-width="0.25" g2gstroke="#312783" stroke-miterlimit="10"/>
<path orgstroke="#000000" orgfill="none" fill="none" d="M536.064,223.939   c0.02-0.621-0.291-1.209-0.967-1.408" stroke="#000000" stroke-width="0.25" g2gstroke="#312783" stroke-miterlimit="10"/>
<path orgstroke="#000000" orgfill="none" fill="none" d="M534.816,223.35c0,0,0.336,0.223,0.199,0.461" stroke="#000000" stroke-width="0.25" g2gstroke="#312783" stroke-miterlimit="10"/>
<path orgstroke="#000000" orgfill="none" fill="none" d="M547.646,216.508   c0.086-0.053,0.625,0.055,0.891,0.479c0.264,0.424,0.346,0.879,0.166,0.994" stroke="#000000" stroke-width="0.25" g2gstroke="#312783" stroke-miterlimit="10"/>
<path orgstroke="#000000" orgfill="none" fill="none" d="M548.537,216.234   c0.131-0.076,0.377,0.184,0.537,0.461s0.176,0.537,0.045,0.762" stroke="#000000" stroke-width="0.25" g2gstroke="#312783" stroke-miterlimit="10"/>
<path orgstroke="#000000" orgfill="none" fill="none" d="M583.209,207.014   c0.836,0.223,1.641,1.354,1.383,2.424" stroke="#000000" stroke-width="0.25" g2gstroke="#312783" stroke-miterlimit="10"/>
<path orgstroke="#000000" orgfill="none" fill="none" d="M594.711,201.58   c0.291,0.125,0.811,0.59,0.703,1.129" stroke="#000000" stroke-width="0.25" g2gstroke="#312783" stroke-miterlimit="10"/>
</g>
</g>
</g>
</g></svg>