<svg xmlns="http://www.w3.org/2000/svg" xmlns:xlink="http://www.w3.org/1999/xlink" xmlns:etg="http://www.eurotaxglass.com/etg/evd/" etg:dataTimestamp="1539068912893" contentScriptType="text/ecmascript" zoomAndPan="magnify" contentStyleType="text/css" id="Capa_1" enable-background="new 0 0 1841.891 1595.279" version="1.1" xml:space="preserve" width="1841.891px" preserveAspectRatio="xMidYMid meet" viewBox="0 0 1841.891 1595.279" height="1595.279px" x="0px" y="0px"><g xmlns="http://www.w3.org/2000/svg" objecttype="PS" tooltip="#UNDEFINED" id="41">
<g onmouseover="notifyOwner(AGV_OBJECT_MOUSEOVER, '41(PS)')" transform="translate(33.34486065673826, 21.74257693481445) translate(-0.33613504629170166, 7.058835972126616) translate(-444.7702593608417, -91.23492499709573) translate(425.0, 51.0) translate(10.0, 10.00006103515625)" onclick="clickZoom(evt); notifyOwner(AGV_OBJECT_MOUSECLICK, '41(PS)')" onmouseout="notifyOwner(AGV_OBJECT_MOUSEOUT, '41(PS)')" tooltip="#UNDEFINED" id="41-Graphic" objecttype="GRAPHIC">
<g zvalue="5">
<g>
<path orgstroke="#000000" orgfill="#ffffff" fill="#ffffff" g2gfill="#ECF5E4" d="M596.412,222.637   c-0.158-0.063-0.311-0.129-0.467-0.203c-1.615-0.76-2.004-2.32-0.721-3.188c0.117-0.082,0.359-0.16,0.748-0.395   c0.404-0.225,0.492-0.111,0.496-0.951c0.02-0.854,0.033-2.57,0.033-2.57c0.086-0.357,0.098-0.441,0.422-0.85   c0.424-0.551,1.625-1.008,1.625-1.008c0.361-0.125,0.809-0.094,1.326,0.123c0.816,0.361,1.637,1.133,2.256,2.072l0.58,1.037   c0.223,0.494,0.535,1.307,0.547,1.955l-0.008,4.582c-0.012,0.582-0.012,1.072-0.012,1.072c-0.053,0.486-0.059,0.684-0.492,1.133   c-0.424,0.443-1.512,0.953-1.512,0.953c-0.383,0.154-0.877,0.131-1.41-0.105c-1.066-0.459-2.098-1.59-2.729-2.887   C596.885,222.975,596.951,222.813,596.412,222.637z" stroke="#000000" outline-element="true" stroke-width="0.5" g2gstroke="#312783" stroke-miterlimit="10"/>
<path orgstroke="#000000" orgfill="none" fill="none" d="M598.203,217.291   c0.094,0.617,0.564,1.291,1.059,1.506c0.484,0.223,0.807-0.111,0.719-0.73c-0.098-0.615-0.549-1.293-1.064-1.504   C598.428,216.346,598.107,216.676,598.203,217.291z" stroke="#000000" stroke-width="0.25" g2gstroke="#312783" stroke-miterlimit="10"/>
<path orgstroke="#000000" orgfill="none" fill="none" d="M598.609,223.131   c0.193,0.463,0.547,0.885,0.93,1.053c0.48,0.211,0.809-0.119,0.717-0.738c-0.023-0.197-0.102-0.396-0.191-0.586" stroke="#000000" stroke-width="0.25" g2gstroke="#312783" stroke-miterlimit="10"/>
<path orgstroke="#000000" orgfill="none" fill="none" d="M596.633,222.744   c1.551,0.553,2.713,0.363,3.869-0.15l0.779-0.436" stroke="#000000" stroke-width="0.25" g2gstroke="#312783" stroke-miterlimit="10"/>
<path orgstroke="#000000" orgfill="none" fill="none" d="M601.285,222.158   c0.293-0.207,0.447-0.408,0.453-0.58c0.01-0.355-0.137-0.723-0.598-0.846c-0.23-0.068-0.471,0.107-0.539,0.129l-0.34,0.186   l-0.9,0.455c-0.717,0.285-1.58,0.424-2.34,0.164c-1.016-0.354-1.438-1.098-0.572-1.455c0.156-0.051,0.398-0.104,0.994-0.35   c0.379-0.156,0.594-0.572,0.328-1.039c-0.467-0.57-0.848-0.33-0.848-0.33l-0.699,0.215" stroke="#000000" stroke-width="0.25" g2gstroke="#312783" stroke-miterlimit="10"/>
<path orgstroke="#000000" orgfill="none" fill="none" d="M597.08,214.334   c0.563-0.264,1.131-0.252,1.672-0.027c1.543,0.672,3.029,2.787,3.326,4.725c0.049,0.355,0.07,0.68,0.037,0.967l-0.008,5.012   c-0.047,0.416-0.27,1.057-0.734,1.305" stroke="#000000" stroke-width="0.25" g2gstroke="#312783" stroke-miterlimit="10"/>
</g>
</g>
</g>
</g></svg>