<svg xmlns="http://www.w3.org/2000/svg" xmlns:xlink="http://www.w3.org/1999/xlink" xmlns:etg="http://www.eurotaxglass.com/etg/evd/" etg:dataTimestamp="1539068912893" contentScriptType="text/ecmascript" zoomAndPan="magnify" contentStyleType="text/css" id="Capa_1" enable-background="new 0 0 1841.891 1595.279" version="1.1" xml:space="preserve" width="1841.891px" preserveAspectRatio="xMidYMid meet" viewBox="0 0 1841.891 1595.279" height="1595.279px" x="0px" y="0px"><g xmlns="http://www.w3.org/2000/svg" objecttype="PS" tooltip="#UNDEFINED" id="49">
<g onmouseover="notifyOwner(AGV_OBJECT_MOUSEOVER, '49(PS)')" transform="translate(33.34486065673826, 21.74257693481445) translate(-3.3740056293468115, -5.623342715578076) translate(-444.7702593608417, -91.23492499709573) translate(425.0, 51.0) translate(10.0, 10.00006103515625)" onclick="clickZoom(evt); notifyOwner(AGV_OBJECT_MOUSECLICK, '49(PS)')" onmouseout="notifyOwner(AGV_OBJECT_MOUSEOUT, '49(PS)')" tooltip="#UNDEFINED" id="49-Graphic" objecttype="GRAPHIC">
<g zvalue="13">
<g>
<path stroke-linecap="round" orgstroke="#000000" orgfill="#ffffff" fill="#ffffff" g2gfill="#ECC35D" stroke-linejoin="round" d="   M561.098,246.838c0.027-0.256,0.254-0.441,0.566-0.621c0.313-0.182,1.154-0.668,1.508-0.813c0.354-0.146,0.668-0.1,1.027,0.107   c0.223,0.129,0.676,0.391,0.986,0.57c0.223,0.129,0.32,0.27,0.262,0.783c-2.178,19.082-8.547,29.998-18.018,46.826   c-15.666,27.834-20.834,42.334-28.5,57.334c-2.252,4.404-2.768,14.525-11.469,19.777c-12.553,7.578-49.213,29.646-49.213,29.646   c-0.287,0.174-0.604,0.125-0.895-0.043c-0.289-0.168-0.617-0.357-0.865-0.5s-0.324-0.188-0.324-0.469s-0.117-1.891-0.117-2.219   s0.074-0.439,0.234-0.537c0,0,35.867-21.592,48.189-29.029c5.563-3.357,7.324-9.17,8.74-13.842   c0.578-1.902,1.076-3.547,1.773-4.912c2.596-5.078,4.957-10.217,7.457-15.658c5.027-10.945,10.729-23.352,21.092-41.766   l0.867-1.539c8.549-15.178,14.457-25.666,16.646-42.719L561.098,246.838z" stroke="#000000" outline-element="true" stroke-width="0.5" g2gstroke="#312783" stroke-miterlimit="10"/>
<path orgstroke="#000000" orgfill="none" stroke-linecap="round" fill="none" stroke-linejoin="round" d="   M457.945,397.646c18.797-11.309,35.838-21.566,48.197-29.027c5.564-3.357,7.326-9.172,8.742-13.842   c0.576-1.904,1.074-3.547,1.773-4.914c2.596-5.078,4.955-10.217,7.455-15.656c5.029-10.947,10.729-23.354,21.092-41.766   l0.867-1.541c8.625-15.309,14.561-25.85,16.703-43.166" stroke="#000000" stroke-width="0.25" g2gstroke="#312783" stroke-miterlimit="10"/>
<path orgstroke="#000000" orgfill="none" stroke-linecap="round" fill="none" stroke-linejoin="round" d="   M458.078,400.527c0.057-0.084,0.082-0.203,0.082-0.4c0-0.328-0.111-1.783-0.111-2.064s-0.082-0.48-0.33-0.623   s-0.576-0.332-0.865-0.5c-0.211-0.121-0.436-0.18-0.652-0.137" stroke="#000000" stroke-width="0.25" g2gstroke="#312783" stroke-miterlimit="10"/>
<path orgstroke="#000000" orgfill="none" stroke-linecap="round" fill="none" stroke-linejoin="round" d="   M561.098,246.82c0,0,0.953,0.553,1.313,0.76s0.674,0.252,1.027,0.107c0.354-0.146,1.197-0.633,1.51-0.813   c0.313-0.182,0.516-0.301,0.432-0.621" stroke="#000000" stroke-width="0.25" g2gstroke="#312783" stroke-miterlimit="10"/>
</g>
</g>
</g>
</g></svg>