<svg xmlns="http://www.w3.org/2000/svg" xmlns:xlink="http://www.w3.org/1999/xlink" xmlns:etg="http://www.eurotaxglass.com/etg/evd/" etg:dataTimestamp="1539068912893" contentScriptType="text/ecmascript" zoomAndPan="magnify" contentStyleType="text/css" id="Capa_1" enable-background="new 0 0 1841.891 1595.279" version="1.1" xml:space="preserve" width="1841.891px" preserveAspectRatio="xMidYMid meet" viewBox="0 0 1841.891 1595.279" height="1595.279px" x="0px" y="0px"><g xmlns="http://www.w3.org/2000/svg" objecttype="PS" tooltip="#UNDEFINED" id="50">
<g onmouseover="notifyOwner(AGV_OBJECT_MOUSEOVER, '50(PS)')" transform="translate(33.34486065673826, 21.74257693481445) translate(-42.0, -17.0) translate(-410.0, -56.0) translate(425.0, 51.0) translate(10.0, 10.00006103515625)" onclick="clickZoom(evt); notifyOwner(AGV_OBJECT_MOUSECLICK, '50(PS)')" onmouseout="notifyOwner(AGV_OBJECT_MOUSEOUT, '50(PS)')" tooltip="#UNDEFINED" id="50-Graphic" objecttype="GRAPHIC">
<g zvalue="14">
<g>
<path stroke-linecap="round" orgstroke="#000000" orgfill="#ffffff" fill="#ffffff" g2gfill="#ECF5E4" stroke-linejoin="round" d="   M344.67,386.229l-0.227,0.299c0,0-1.193,0.936-1.25,1.133c-0.053,0.193,0,0.502,0,0.502c0,0.26,0,0.396,0,0.396   s-0.053,0.596-0.82,1.033c-0.195,0.111-1.383,0.787-1.766,1.014c-0.385,0.227-0.701,0.426-0.699,1.209   c-0.002,0.783,0.682,0.574,0.787,0.752c0.105,0.188,0.111,0.4,0.113,0.793c-0.002,0.4-0.98,0.887-0.98,0.887l-2.258,1.303   c-0.441,0.254-0.441,0.271-0.459,0.754l-0.219,6.064c-0.045,0.463-0.443,0.908-1.156,1.197c-1.268,0.512-3.053,0.336-3.986-0.393   c-0.379-0.297-0.561-0.641-0.555-0.977l0.07-1.869c-0.002-0.426-0.006-0.648-0.285-0.281c-0.029,0.041-0.061,0.078-0.09,0.117   c-0.643,0.904-1.627,1.783-2.742,2.535c-0.965,0.654-1.416,1.115-2.139,1.414c-1.23,0.482-2.324,0.518-3.199,0.186   c0,0-3.303-1.695-4.275-2.492c-0.975-0.797-1.594-2.691-1.256-4.994c0.631-4.369,4.047-9.057,7.625-10.473   c1.066-0.428,1.816-0.641,2.85-0.297c0,0,0.807,0.365,1.451,0.637c0.648,0.264,0.457-0.273,0.457-0.273   c0-0.125,0-0.486-0.002-0.898c0-0.926,0.809-1.346,0.809-1.346s2.414-1.391,3.184-1.838c0.77-0.439,1.293-0.422,2.02,0   c0.725,0.42,1.371,0.787,1.82,1.051c0.449,0.266,1.051-0.156,1.051-0.156l0.479-0.277c0.061-0.035,0.113-0.063,0.15-0.09   c1.033-0.602,1.605-0.156,1.605-0.156s0.107,0.063,0.279,0.16c0,0,0.727,0.523,1.297,0.189c0.576-0.33,2.012-0.051,2.383-0.264   c0.381-0.225,0.381-0.227,1.143-0.654c0.764-0.438,2.045,1.141,1.223,1.629c-0.822,0.473-1.242,0.887-1.242,0.887L344.67,386.229" stroke="#000000" outline-element="true" stroke-width="0.5" g2gstroke="#312783" stroke-miterlimit="10"/>
<path orgstroke="#000000" orgfill="none" stroke-linecap="round" fill="none" stroke-linejoin="round" d="   M337.129,395.803l-4.436,2.557c0,0-1.066,0.941-1.713,1.686" stroke="#000000" stroke-width="0.25" g2gstroke="#312783" stroke-miterlimit="10"/>
<path orgstroke="#000000" orgfill="none" stroke-linecap="round" fill="none" stroke-linejoin="round" d="M332.6369934082031 397.2170104980469L340.6990051269531 392.5740051269531" stroke="#000000" stroke-width="0.25" g2gstroke="#312783" stroke-miterlimit="10"/>
<path orgstroke="#000000" orgfill="none" stroke-linecap="round" fill="none" stroke-linejoin="round" d="M333.33599853515625 389.9939880371094L343.0639953613281 384.375" stroke="#000000" stroke-width="0.25" g2gstroke="#312783" stroke-miterlimit="10"/>
<path orgstroke="#000000" orgfill="none" stroke-linecap="round" fill="none" stroke-linejoin="round" d="   M321.904,403.736c-1.063-0.945-1.553-2.68-1.227-4.975c0.633-4.371,4.043-9.057,7.627-10.475c1.664-0.652,3.131-0.531,4.1,0.275" stroke="#000000" stroke-width="0.25" g2gstroke="#312783" stroke-miterlimit="10"/>
<path orgstroke="#000000" orgfill="none" stroke-linecap="round" fill="none" stroke-linejoin="round" d="   M333.287,395.289c0.156-0.541,0.281-1.104,0.359-1.652c0.264-1.809,0-3.291-0.648-4.287c0,0-0.846-1.479-2.506-2.195" stroke="#000000" stroke-width="0.25" g2gstroke="#312783" stroke-miterlimit="10"/>
<path orgstroke="#000000" orgfill="none" stroke-linecap="round" fill="none" stroke-linejoin="round" d="   M341.328,383.014c0.283,0.156,1.043,0.605,1.266,0.73c0.629,0.365,0.604,1.449,0.604,1.449c0,0.824-0.018,2.031-0.02,2.572" stroke="#000000" stroke-width="0.25" g2gstroke="#312783" stroke-miterlimit="10"/>
<path orgstroke="#000000" orgfill="none" stroke-linecap="round" fill="none" stroke-linejoin="round" d="   M338.211,383.414c-2.152,1.242-6.244,3.605-6.465,3.732c-0.309,0.178-0.525,0.246-1.383-0.029   c-0.145-0.053-1.229-0.479-1.414-0.549" stroke="#000000" stroke-width="0.25" g2gstroke="#312783" stroke-miterlimit="10"/>
<path orgstroke="#000000" orgfill="none" stroke-linecap="round" fill="none" stroke-linejoin="round" d="   M327.863,402.914c-3.725,1.379-5.689-0.682-5.205-4.105c0.514-3.617,3.338-7.502,6.295-8.654c2.963-1.172,4.951,0.822,4.432,4.424   c-0.236,1.66-0.941,3.473-1.941,4.969" stroke="#000000" stroke-width="0.25" g2gstroke="#312783" stroke-miterlimit="10"/>
<path orgstroke="#000000" orgfill="none" stroke-linecap="round" fill="none" stroke-linejoin="round" d="   M331.172,395.408c-0.287,2.172-1.934,4.506-3.672,5.217c-1.729,0.717-2.918-0.465-2.625-2.631c0.285-2.166,1.93-4.504,3.67-5.213   C330.285,392.068,331.461,393.24,331.172,395.408z" stroke="#000000" stroke-width="0.25" g2gstroke="#312783" stroke-miterlimit="10"/>
<path orgstroke="#000000" orgfill="none" stroke-linecap="round" fill="none" stroke-linejoin="round" d="   M340.611,390.604c-2.639,1.523-7.146,4.125-7.146,4.125" stroke="#000000" stroke-width="0.25" g2gstroke="#312783" stroke-miterlimit="10"/>
<path orgstroke="#000000" orgfill="none" stroke-linecap="round" fill="none" stroke-linejoin="round" d="   M328.674,398.941c-0.301,0.264-0.895,0.617-1.223,0.746c-1.373,0.568-2.297-0.367-2.072-2.066c0.227-1.695,1.521-3.537,2.887-4.105   c1.381-0.561,2.295,0.367,2.08,2.064c-0.018,0.098-0.072,0.408-0.096,0.514" stroke="#000000" stroke-width="0.25" g2gstroke="#312783" stroke-miterlimit="10"/>
<path orgstroke="#000000" orgfill="none" stroke-linecap="round" fill="none" stroke-linejoin="round" d="M329.7560119628906 385.0140075683594L332.47900390625 386.63299560546875" stroke="#000000" stroke-width="0.25" g2gstroke="#312783" stroke-miterlimit="10"/>
<path orgstroke="#000000" orgfill="none" stroke-linecap="round" fill="none" stroke-linejoin="round" d="M333.0660095214844 396.0270080566406L339.9119873046875 392.08599853515625" stroke="#000000" stroke-width="0.25" g2gstroke="#312783" stroke-miterlimit="10"/>
<path orgstroke="#000000" orgfill="none" stroke-linecap="round" fill="none" stroke-linejoin="round" d="   M345.871,384.639c0.012-0.086,0.193-0.484,0.184-0.586c-0.057-0.504-0.438-1.045-0.857-1.207c-0.072-0.025-0.506-0.006-0.578-0.008   " stroke="#000000" stroke-width="0.25" g2gstroke="#312783" stroke-miterlimit="10"/>
<path orgstroke="#000000" orgfill="none" stroke-linecap="round" fill="none" stroke-linejoin="round" d="   M330.088,395.934l-1.381-0.801c-0.123-0.053-0.281-0.053-0.473,0.018c-0.57,0.227-1.17,1.055-1.365,1.842   c-0.113,0.475-0.053,0.82,0.129,0.992l1.443,0.869" stroke="#000000" stroke-width="0.25" g2gstroke="#312783" stroke-miterlimit="10"/>
<path orgstroke="#000000" orgfill="none" stroke-linecap="round" fill="none" stroke-linejoin="round" d="   M328.611,398.904c-0.336-0.051-0.492-0.471-0.344-1.086c0.193-0.789,0.799-1.623,1.367-1.846c0.277-0.111,0.492-0.053,0.615,0.121" stroke="#000000" stroke-width="0.25" g2gstroke="#312783" stroke-miterlimit="10"/>
<path orgstroke="#000000" orgfill="none" stroke-linecap="round" fill="none" stroke-linejoin="round" d="   M330.25,396.09c0.135,0.189,0.168,0.506,0.072,0.916c-0.188,0.795-0.797,1.627-1.369,1.848c-0.127,0.051-0.244,0.064-0.344,0.051" stroke="#000000" stroke-width="0.25" g2gstroke="#312783" stroke-miterlimit="10"/>
<path orgstroke="#000000" orgfill="none" stroke-linecap="round" fill="none" stroke-linejoin="round" d="   M326.82,397.287c-0.248,0.145-1.275,0.672-1.471,0.785c-0.199,0.115-0.396,0.605-0.609,0.73c-0.217,0.125-0.758,0.438-0.758,0.438" stroke="#000000" stroke-width="0.25" g2gstroke="#312783" stroke-miterlimit="10"/>
<path orgstroke="#000000" orgfill="none" stroke-linecap="round" fill="none" stroke-linejoin="round" d="   M327.053,396.48c-0.391-0.025-0.801-0.053-0.926-0.055c-0.23-0.01-0.652,0.309-0.902,0.305c-0.246-0.006-0.871-0.021-0.871-0.021" stroke="#000000" stroke-width="0.25" g2gstroke="#312783" stroke-miterlimit="10"/>
<path orgstroke="#000000" orgfill="none" stroke-linecap="round" fill="none" stroke-linejoin="round" d="   M327.514,395.734c-0.164-0.133-0.301-0.242-0.363-0.287c-0.184-0.135-0.713-0.113-0.914-0.26c-0.199-0.146-0.705-0.516-0.705-0.516   " stroke="#000000" stroke-width="0.25" g2gstroke="#312783" stroke-miterlimit="10"/>
<path orgstroke="#000000" orgfill="none" stroke-linecap="round" fill="none" stroke-linejoin="round" d="   M327.336,398.178c-0.213,0.195-1.1,0.934-1.268,1.088c-0.168,0.156-0.254,0.678-0.436,0.848c-0.182,0.168-1.029,0.957-1.029,0.957" stroke="#000000" stroke-width="0.25" g2gstroke="#312783" stroke-miterlimit="10"/>
<path orgstroke="#000000" orgfill="none" stroke-linecap="round" fill="none" stroke-linejoin="round" d="   M327.99,398.58c-0.207,0.402-0.568,1.08-0.646,1.244c-0.098,0.207,0.02,0.723-0.086,0.947c-0.107,0.227-0.541,1.111-0.541,1.111" stroke="#000000" stroke-width="0.25" g2gstroke="#312783" stroke-miterlimit="10"/>
<path orgstroke="#000000" orgfill="none" stroke-linecap="round" fill="none" stroke-linejoin="round" d="   M328.541,398.887c0.111,0.203,0.271,0.436,0.281,0.602c0.018,0.25,0.068,1.213,0.068,1.213" stroke="#000000" stroke-width="0.25" g2gstroke="#312783" stroke-miterlimit="10"/>
<path orgstroke="#000000" orgfill="none" stroke-linecap="round" fill="none" stroke-linejoin="round" d="   M329.672,398.283c0.311,0.213,0.842,0.576,0.842,0.576" stroke="#000000" stroke-width="0.25" g2gstroke="#312783" stroke-miterlimit="10"/>
<path orgstroke="#000000" orgfill="none" stroke-linecap="round" fill="none" stroke-linejoin="round" d="   M331.568,392.543c-0.658,0.865-0.838,0.596-1.473,1.398c-0.525,0.66-0.984,1.352-0.984,1.352" stroke="#000000" stroke-width="0.25" g2gstroke="#312783" stroke-miterlimit="10"/>
<path orgstroke="#000000" orgfill="none" stroke-linecap="round" fill="none" stroke-linejoin="round" d="   M331.986,394.73c-0.938,0.551-1,0.229-1.896,0.729c-0.139,0.078-0.277,0.16-0.412,0.238" stroke="#000000" stroke-width="0.25" g2gstroke="#312783" stroke-miterlimit="10"/>
<path orgstroke="#000000" orgfill="none" stroke-linecap="round" fill="none" stroke-linejoin="round" d="   M331.447,396.877c-0.533,0.113-0.789,0.09-1.037,0.061" stroke="#000000" stroke-width="0.25" g2gstroke="#312783" stroke-miterlimit="10"/>
<path orgstroke="#000000" orgfill="none" stroke-linecap="round" fill="none" stroke-linejoin="round" d="   M329.617,391.504c-0.248,1.059-0.525,0.887-0.781,1.877c-0.209,0.816-0.35,1.631-0.35,1.631" stroke="#000000" stroke-width="0.25" g2gstroke="#312783" stroke-miterlimit="10"/>
<path orgstroke="#000000" orgfill="none" stroke-linecap="round" fill="none" stroke-linejoin="round" d="   M326.822,392.902c0.588,0.916,0.27,0.99,0.803,1.865c0.113,0.188,0.229,0.369,0.342,0.537" stroke="#000000" stroke-width="0.25" g2gstroke="#312783" stroke-miterlimit="10"/>
</g>
</g>
</g>
</g></svg>