<svg xmlns="http://www.w3.org/2000/svg" xmlns:xlink="http://www.w3.org/1999/xlink" xmlns:etg="http://www.eurotaxglass.com/etg/evd/" etg:dataTimestamp="1539068912893" contentScriptType="text/ecmascript" zoomAndPan="magnify" contentStyleType="text/css" id="Capa_1" enable-background="new 0 0 1841.891 1595.279" version="1.1" xml:space="preserve" width="1841.891px" preserveAspectRatio="xMidYMid meet" viewBox="0 0 1841.891 1595.279" height="1595.279px" x="0px" y="0px"><g xmlns="http://www.w3.org/2000/svg" objecttype="PS" tooltip="#UNDEFINED" id="51">
<g onmouseover="notifyOwner(AGV_OBJECT_MOUSEOVER, '51(PS)')" transform="translate(33.34486065673826, 21.74257693481445) translate(23.618039405427908, 27.366934549146663) translate(-444.7702593608417, -91.23492499709573) translate(425.0, 51.0) translate(10.0, 10.00006103515625)" onclick="clickZoom(evt); notifyOwner(AGV_OBJECT_MOUSECLICK, '51(PS)')" onmouseout="notifyOwner(AGV_OBJECT_MOUSEOUT, '51(PS)')" tooltip="#UNDEFINED" id="51-Graphic" objecttype="GRAPHIC">
<g zvalue="15">
<g>
<path orgstroke="#000000" orgfill="none" stroke-linecap="round" fill="none" stroke-linejoin="round" d="   M431.602,267.805c2.77-1.945,6.473-4.549,10.818-7.604c1.023-0.719,1.797-0.76,2.922-0.51s6.063,1.5,6.969,1.719   s2.211,0.17,2.855-0.283c9.357-6.576,20.514-14.41,31.438-22.094c1.244-0.875,1.77-1.779,1.957-2.623s0.813-5.75,1.031-7.313   s0.643-2.502,1.34-2.992c2.369-1.664,4.693-3.297,6.953-4.885c0,0,0.268-0.152,0.234-0.504   c-2.313-24.559-11.553-59.977-13.061-65.607" stroke="#000000" stroke-width="0.25" g2gstroke="#312783" stroke-miterlimit="10"/>
<path orgstroke="#000000" orgfill="#ffffff" enable-background="new    " fill="#ffffff" g2gfill="#0096C8" opacity="0.6" d="   M484.58,155.227c-15.205,6.926-34.598,16.953-54.529,28.152c-5.916,3.324-11.992,6.965-18.135,10.813   c-0.15,0.086-0.186,0.275-0.088,0.453c3.977,7.201,17.881,48.295,19.658,72.861c0.016,0.217,0.123,0.406,0.387,0.559l0.549,0.309   c0.195,0.113,0.457,0.084,0.633-0.041c2.74-1.924,6.348-4.461,10.557-7.42c1.023-0.719,1.797-0.76,2.922-0.51   s6.063,1.5,6.969,1.719s2.211,0.17,2.855-0.283c9.357-6.576,20.514-14.41,31.438-22.094c1.244-0.875,1.77-1.779,1.957-2.623   s0.813-5.75,1.031-7.313s0.643-2.502,1.34-2.992c2.369-1.664,4.693-3.297,6.953-4.885c0,0,0.268-0.152,0.234-0.504   c-2.277-24.195-11.283-58.936-12.988-65.34c-0.08-0.297-0.184-0.408-0.383-0.523l-0.535-0.301   C485.033,155.012,484.887,155.088,484.58,155.227z" stroke="#000000" outline-element="true" stroke-width="0.5" g2gstroke="#312783" stroke-miterlimit="10"/>
<linearGradient gradientTransform="matrix(1 0 0 -1 0 595.28)" x1="487.6216" x2="434.3177" y1="334.3823" gradientUnits="userSpaceOnUse" y2="426.7074" xmlns:xlink="http://www.w3.org/1999/xlink" xlink:type="simple" xlink:actuate="onLoad" id="19::SVGID_1_" xlink:show="other">
<stop stop-opacity="0.83" stop-color="#FFFFFF" offset="0.0439"/>
<stop stop-opacity="0.56" stop-color="#FFFFFF" offset="0.2647"/>
<stop stop-opacity="0.6" stop-color="#FFFFFF" offset="0.3561"/>
<stop stop-opacity="0.35" stop-color="#FFFFFF" offset="0.5676"/>
<stop stop-opacity="0.44" stop-color="#FFFFFF" offset="0.6933"/>
<stop stop-opacity="0.6" stop-color="#FFFFFF" offset="0.8428"/>
<stop stop-opacity="0.22" stop-color="#FFFFFF" offset="0.9853"/>
</linearGradient>
<path fill="url(#19::SVGID_1_)" d="M486.176,155.742l-0.059,0.051   c-15.262,6.959-34.721,16.99-54.852,28.301c-5.92,3.318-12,6.959-18.139,10.809c-0.15,0.09-0.18,0.27-0.09,0.451   c3.99,7.219,17.93,48.469,19.67,73.02l-0.01,0.07c0.129,0,0.27-0.041,0.379-0.111c2.74-1.93,6.35-4.459,10.561-7.42   c1.02-0.719,1.789-0.76,2.92-0.51c1.119,0.25,6.061,1.5,6.971,1.721c0.898,0.221,2.209,0.17,2.85-0.291   c9.359-6.568,20.52-14.41,31.439-22.09c1.24-0.869,1.77-1.779,1.961-2.619c0.189-0.85,0.809-5.75,1.029-7.311   c0.221-1.57,0.641-2.51,1.34-3c2.369-1.66,4.689-3.289,6.949-4.879c0,0,0.271-0.15,0.24-0.512   c-2.279-24.189-11.289-58.93-12.99-65.34C486.307,155.922,486.246,155.822,486.176,155.742z" enable-background="new    " opacity="0.8" orgfill="url(#19::SVGID_1_)"/>
<path orgstroke="#000000" orgfill="none" stroke-linecap="round" fill="none" stroke-linejoin="round" d="   M486.094,155.789c-15.258,6.963-34.719,16.99-54.852,28.301c-5.916,3.324-11.992,6.965-18.135,10.813   c-0.15,0.086-0.186,0.275-0.088,0.453c3.986,7.215,17.928,48.467,19.67,73.016" stroke="#000000" stroke-width="0.25" g2gstroke="#312783" stroke-miterlimit="10"/>
<path orgstroke="#000000" orgfill="none" fill="none" d="M462.4,253.959   c-0.086,0.611-0.559,1.27-1.053,1.469c-0.496,0.201-0.828-0.133-0.742-0.744s0.557-1.27,1.053-1.469   C462.154,253.014,462.486,253.348,462.4,253.959z" stroke="#000000" stroke-width="0.25" g2gstroke="#312783" stroke-miterlimit="10"/>
<path orgstroke="#000000" orgfill="none" fill="none" d="M461.559,253.236   c0.002,0.068-0.002,0.139-0.012,0.215c-0.082,0.57-0.496,1.18-0.953,1.424" stroke="#000000" stroke-width="0.25" g2gstroke="#312783" stroke-miterlimit="10"/>
<path orgstroke="#000000" orgfill="none" fill="none" d="M482.541,239.793   c-0.088,0.611-0.559,1.27-1.053,1.471c-0.496,0.199-0.83-0.133-0.744-0.744c0.088-0.611,0.559-1.27,1.055-1.471   C482.293,238.848,482.625,239.182,482.541,239.793z" stroke="#000000" stroke-width="0.25" g2gstroke="#312783" stroke-miterlimit="10"/>
<path orgstroke="#000000" orgfill="none" fill="none" d="M481.699,239.07   c0,0.068-0.004,0.139-0.014,0.217c-0.08,0.568-0.496,1.178-0.951,1.422" stroke="#000000" stroke-width="0.25" g2gstroke="#312783" stroke-miterlimit="10"/>
<path orgstroke="#000000" orgfill="none" stroke-linecap="round" fill="none" stroke-linejoin="round" d="   M484.58,155.227c-15.205,6.926-34.598,16.953-54.529,28.152c-5.916,3.324-11.992,6.965-18.135,10.813   c-0.15,0.086-0.186,0.275-0.088,0.453c3.977,7.201,17.881,48.295,19.658,72.861c0.016,0.217,0.123,0.406,0.387,0.559l0.549,0.309   c0.195,0.113,0.457,0.084,0.633-0.041c2.74-1.924,6.348-4.461,10.557-7.42c1.023-0.719,1.797-0.76,2.922-0.51   s6.063,1.5,6.969,1.719s2.211,0.17,2.855-0.283c9.357-6.576,20.514-14.41,31.438-22.094c1.244-0.875,1.77-1.779,1.957-2.623   s0.813-5.75,1.031-7.313s0.643-2.502,1.34-2.992c2.369-1.664,4.693-3.297,6.953-4.885c0,0,0.268-0.152,0.234-0.504   c-2.277-24.195-11.283-58.936-12.988-65.34c-0.08-0.297-0.184-0.408-0.383-0.523l-0.535-0.301   C485.033,155.012,484.887,155.088,484.58,155.227z" stroke="#000000" stroke-width="0.25" g2gstroke="#312783" stroke-miterlimit="10"/>
</g>
</g>
</g>
</g></svg>