<svg xmlns="http://www.w3.org/2000/svg" xmlns:xlink="http://www.w3.org/1999/xlink" xmlns:etg="http://www.eurotaxglass.com/etg/evd/" etg:dataTimestamp="1539068912893" contentScriptType="text/ecmascript" zoomAndPan="magnify" contentStyleType="text/css" id="Capa_1" enable-background="new 0 0 1841.891 1595.279" version="1.1" xml:space="preserve" width="1841.891px" preserveAspectRatio="xMidYMid meet" viewBox="0 0 1841.891 1595.279" height="1595.279px" x="0px" y="0px"><g xmlns="http://www.w3.org/2000/svg" objecttype="PS" tooltip="#UNDEFINED" id="56">
<g onmouseover="notifyOwner(AGV_OBJECT_MOUSEOVER, '56(PS)')" transform="translate(33.34486065673826, 21.74257693481445) translate(-5.623342715578076, -2.624226600603123) translate(-444.7702593608417, -91.23492499709573) translate(425.0, 51.0) translate(10.0, 10.00006103515625)" onclick="clickZoom(evt); notifyOwner(AGV_OBJECT_MOUSECLICK, '56(PS)')" onmouseout="notifyOwner(AGV_OBJECT_MOUSEOUT, '56(PS)')" tooltip="#UNDEFINED" id="56-Graphic" objecttype="GRAPHIC">
<g zvalue="20">
<g>
<path stroke-linecap="round" orgstroke="#000000" orgfill="#ffffff" fill="#ffffff" g2gfill="#ECC35D" stroke-linejoin="round" d="   M557.631,222.719c-13.041,9.316-94.98,67.063-100.426,70.885c-1.576,1.105-3.471,2.434-5.645,3.961   c-0.207,0.145-0.363,0.205-0.551,0.098l-0.531-0.309c-0.221-0.127-0.244-0.205-0.291-0.428c-0.066-0.305-0.127-0.574-0.209-0.799   c-0.09-0.248-0.191-0.42-0.279-0.553c-0.146-0.225-0.27-0.289-0.047-0.445c1.305-0.922,2.625-1.84,3.949-2.77l1.334-0.936   c1.551-1.09,96.168-67.594,101.639-71.422c0.186-0.131,0.318-0.182,0.561-0.041l0.479,0.275c0.303,0.176,0.299,0.316,0.299,0.547   c0.002,0.529,0.004,0.973,0.004,1.301C557.916,222.314,557.836,222.572,557.631,222.719z" stroke="#000000" outline-element="true" stroke-width="0.5" g2gstroke="#312783" stroke-miterlimit="10"/>
<path orgstroke="#000000" orgfill="none" stroke-linecap="round" fill="none" stroke-linejoin="round" d="   M450.459,295.852c0.17,0.143,0.367,0.346,0.549,0.842c0.096,0.262,0.166,0.582,0.238,0.949" stroke="#000000" stroke-width="0.25" g2gstroke="#312783" stroke-miterlimit="10"/>
<path orgstroke="#000000" orgfill="none" stroke-linecap="round" fill="none" stroke-linejoin="round" d="   M449.557,295.357l0.598,0.346c0.199,0.115,0.434,0.119,0.65-0.033c1.301-0.914,2.613-1.832,3.928-2.756l1.334-0.936   c1.561-1.096,97.182-68.311,101.721-71.477" stroke="#000000" stroke-width="0.25" g2gstroke="#312783" stroke-miterlimit="10"/>
</g>
</g>
</g>
</g></svg>