<svg xmlns="http://www.w3.org/2000/svg" xmlns:xlink="http://www.w3.org/1999/xlink" xmlns:etg="http://www.eurotaxglass.com/etg/evd/" etg:dataTimestamp="1539068912893" contentScriptType="text/ecmascript" zoomAndPan="magnify" contentStyleType="text/css" id="Layer_1" enable-background="new 0 0 1841.891 1595.279" version="1.1" xml:space="preserve" width="1841.891px" preserveAspectRatio="xMidYMid meet" viewBox="0 0 1841.891 1595.279" height="1595.279px" x="0px" y="0px"><g xmlns="http://www.w3.org/2000/svg" objecttype="PS" tooltip="#UNDEFINED" id="6">
<g onmouseover="notifyOwner(AGV_OBJECT_MOUSEOVER, '6(PS)')" transform="translate(-1.0864257831144641E-5, 66.80804286193847) translate(-478.1112626953125, -9.244252822875978) translate(556.5496236240996, -61.70441479310671) translate(36.308689697265606, -1.4010578613281268) translate(34.250095947265606, -8.631938598632814) translate(-84.39897698209705, -13.503836317135551) translate(1.6879795396419013, -1.6879795396419581)" onclick="clickZoom(evt); notifyOwner(AGV_OBJECT_MOUSECLICK, '6(PS)')" onmouseout="notifyOwner(AGV_OBJECT_MOUSEOUT, '6(PS)')" tooltip="#UNDEFINED" id="6-Graphic" objecttype="GRAPHIC">
<g>
	<polygon orgstroke="#000000" orgfill="#ffffff" stroke-linecap="round" points="577.901,348.072 578.274,349.241    578.556,350.927 578.556,352.802 578.508,354.807 578.274,356.635 577.99,358.081 577.615,359.39 577.059,360.559 575.92,361.654    572.73,363.51 571.268,364.346 564.656,368.177 564.28,368.482 562.588,370.614 556.695,373.981 553.438,374.761 552.984,374.928    541.156,381.774 540.738,382.101 539.448,383.956 524.115,392.935 521.255,393.385 520.793,393.563 510.43,399.559    509.799,399.927 508.103,402.055 502.212,405.427 498.948,406.201 498.56,406.43 497.431,407.094 491.857,410.309 490.713,410.701    490.043,410.786 488.641,410.702 487.351,410.635 485.001,409.76 483.635,408.597 482.72,407.094 482.195,405.722 481.775,404.178    481.39,401.76 481.323,401.32 481.448,401.109 484.573,399.616 484.802,399.636 485.521,400.219 485.656,402.389 485.865,403.652    486.222,404.565 486.716,405.344 487.525,405.976 487.843,406.098 488.546,406.098 489.34,405.748 571.865,357.982    572.797,356.432 573.219,354.888 573.356,353.203 573.356,351.099 573.073,348.855 573.141,348.635 573.351,348.443    576.656,347.268 576.877,347.219 577.031,347.344  " fill="#ffffff" g2gfill="#ECC35D" outline-element="true" stroke="#000000" stroke-width="0.5" g2gstroke="#312783"/>
	
		<line orgstroke="#000000" orgfill="none" stroke-linecap="round" fill="none" x1="508.948" x2="499.961" y1="395.778" y2="400.984" stroke="#000000" stroke-width="0.25" g2gstroke="#312783"/>
	
		<line orgstroke="#000000" orgfill="none" stroke-linecap="round" fill="none" x1="540.138" x2="522.323" y1="377.73" y2="388.033" stroke="#000000" stroke-width="0.25" g2gstroke="#312783"/>
	
		<line orgstroke="#000000" orgfill="none" stroke-linecap="round" fill="none" x1="563.561" x2="554.295" y1="364.177" y2="369.537" stroke="#000000" stroke-width="0.25" g2gstroke="#312783"/>
	<polyline orgstroke="#000000" stroke-linecap="round" orgfill="none" points="489.195,410.782 488.15,410.635    485.802,409.76 484.433,408.597 483.521,407.094 482.99,405.722 482.573,404.178 482.189,401.76  " fill="none" stroke="#000000" stroke-width="0.25" g2gstroke="#312783"/>
	<polyline orgstroke="#000000" stroke-linecap="round" orgfill="none" points="497.406,402.469 490.385,406.528    489.589,406.885 488.887,406.885 487.978,406.528 487.274,406.036  " fill="none" stroke="#000000" stroke-width="0.25" g2gstroke="#312783"/>
	<polyline orgstroke="#000000" stroke-linecap="round" orgfill="none" points="571.24,359.724 564.649,363.552    564.267,363.86 562.572,365.99 556.677,369.357 553.419,370.137 552.969,370.304 541.144,377.151 540.721,377.478 539.441,379.344    524.101,388.313 521.24,388.76 520.775,388.939 510.406,394.935 509.781,395.302 508.088,397.431 502.193,400.802 498.938,401.578    498.545,401.806 497.406,402.469  " fill="none" stroke="#000000" stroke-width="0.25" g2gstroke="#312783"/>
	<polyline orgstroke="#000000" stroke-linecap="round" orgfill="none" points="574.115,349.635 574.404,351.885    574.404,353.986 574.263,355.677 573.844,357.219 572.906,358.761 571.24,359.724  " fill="none" stroke="#000000" stroke-width="0.25" g2gstroke="#312783"/>
	
		<line orgstroke="#000000" orgfill="none" stroke-linecap="round" fill="none" x1="564.649" x2="564.649" y1="363.552" y2="368.177" stroke="#000000" stroke-width="0.25" g2gstroke="#312783"/>
	
		<line orgstroke="#000000" orgfill="none" stroke-linecap="round" fill="none" x1="562.572" x2="562.572" y1="365.99" y2="370.499" stroke="#000000" stroke-width="0.25" g2gstroke="#312783"/>
	
		<line orgstroke="#000000" orgfill="none" stroke-linecap="round" fill="none" x1="556.677" x2="556.677" y1="369.357" y2="373.981" stroke="#000000" stroke-width="0.25" g2gstroke="#312783"/>
	
		<line orgstroke="#000000" orgfill="none" stroke-linecap="round" fill="none" x1="553.148" x2="553.148" y1="370.239" y2="374.866" stroke="#000000" stroke-width="0.25" g2gstroke="#312783"/>
	
		<line orgstroke="#000000" orgfill="none" stroke-linecap="round" fill="none" x1="510.198" x2="510.198" y1="394.977" y2="399.601" stroke="#000000" stroke-width="0.25" g2gstroke="#312783"/>
	
		<line orgstroke="#000000" orgfill="none" stroke-linecap="round" fill="none" x1="508.13" x2="508.13" y1="397.427" y2="401.933" stroke="#000000" stroke-width="0.25" g2gstroke="#312783"/>
	
		<line orgstroke="#000000" orgfill="none" stroke-linecap="round" fill="none" x1="502.238" x2="502.238" y1="400.802" y2="405.415" stroke="#000000" stroke-width="0.25" g2gstroke="#312783"/>
	
		<line orgstroke="#000000" orgfill="none" stroke-linecap="round" fill="none" x1="498.71" x2="498.71" y1="401.677" y2="406.302" stroke="#000000" stroke-width="0.25" g2gstroke="#312783"/>
	
		<line orgstroke="#000000" orgfill="none" stroke-linecap="round" fill="none" x1="521.24" x2="521.24" y1="388.76" y2="393.348" stroke="#000000" stroke-width="0.25" g2gstroke="#312783"/>
	
		<line orgstroke="#000000" orgfill="none" stroke-linecap="round" fill="none" x1="524.101" x2="524.101" y1="388.313" y2="392.935" stroke="#000000" stroke-width="0.25" g2gstroke="#312783"/>
	
		<line orgstroke="#000000" orgfill="none" stroke-linecap="round" fill="none" x1="530.349" x2="530.349" y1="384.6" y2="389.224" stroke="#000000" stroke-width="0.25" g2gstroke="#312783"/>
	
		<line orgstroke="#000000" orgfill="none" stroke-linecap="round" fill="none" x1="531.681" x2="531.681" y1="383.868" y2="388.491" stroke="#000000" stroke-width="0.25" g2gstroke="#312783"/>
	
		<line orgstroke="#000000" orgfill="none" stroke-linecap="round" fill="none" x1="539.441" x2="539.441" y1="379.344" y2="384.01" stroke="#000000" stroke-width="0.25" g2gstroke="#312783"/>
	
		<line orgstroke="#000000" orgfill="none" stroke-linecap="round" fill="none" x1="540.721" x2="540.721" y1="377.478" y2="382.188" stroke="#000000" stroke-width="0.25" g2gstroke="#312783"/>
	<polyline orgstroke="#000000" stroke-linecap="round" orgfill="none" points="573.263,348.724 574.07,349.494    574.298,349.494 577.781,348.144  " fill="none" stroke="#000000" stroke-width="0.25" g2gstroke="#312783"/>
	
		<line orgstroke="#000000" orgfill="none" stroke-linecap="round" fill="none" x1="578.543" x2="574.686" y1="353.354" y2="362.122" stroke="#000000" stroke-width="0.25" g2gstroke="#312783"/>
	
		<line orgstroke="#000000" orgfill="none" stroke-linecap="round" fill="none" x1="577.113" x2="578.217" y1="356.601" y2="356.933" stroke="#000000" stroke-width="0.25" g2gstroke="#312783"/>
	
		<line orgstroke="#000000" orgfill="none" stroke-linecap="round" fill="none" x1="576.141" x2="577.615" y1="358.816" y2="359.39" stroke="#000000" stroke-width="0.25" g2gstroke="#312783"/>
	<polyline orgstroke="#000000" stroke-linecap="round" orgfill="none" points="481.469,401.285 482.102,401.722    482.323,401.74 485.487,400.267  " fill="none" stroke="#000000" stroke-width="0.25" g2gstroke="#312783"/>
	
		<line orgstroke="#000000" orgfill="none" stroke-linecap="round" fill="none" x1="489.589" x2="492.323" y1="406.885" y2="410.038" stroke="#000000" stroke-width="0.25" g2gstroke="#312783"/>
	
		<line orgstroke="#000000" orgfill="none" stroke-linecap="round" fill="none" x1="494.778" x2="494.778" y1="403.987" y2="408.469" stroke="#000000" stroke-width="0.25" g2gstroke="#312783"/>
	<path orgstroke="#000000" stroke-linecap="round" orgfill="none" fill="none" d="M497.94,404.934   c-0.307,0.521-0.976,0.948-1.497,0.948s-0.699-0.438-0.396-0.948c0.303-0.521,0.972-0.946,1.479-0.946   C498.058,403.987,498.237,404.411,497.94,404.934z" stroke="#000000" stroke-width="0.25" g2gstroke="#312783"/>
	<path orgstroke="#000000" stroke-linecap="round" orgfill="none" fill="none" d="M486.638,406.885   c-0.303,0.521-0.972,0.938-1.493,0.938s-0.702-0.424-0.397-0.938c0.313-0.522,0.979-0.946,1.493-0.946   C486.762,405.932,486.938,406.356,486.638,406.885z" stroke="#000000" stroke-width="0.25" g2gstroke="#312783"/>
	<path orgstroke="#000000" stroke-linecap="round" orgfill="none" fill="none" d="M568.337,364.177   c-0.313,0.521-0.979,0.938-1.496,0.938c-0.521,0-0.7-0.423-0.396-0.938c0.305-0.522,0.979-0.948,1.493-0.948   C568.451,363.229,568.636,363.652,568.337,364.177z" stroke="#000000" stroke-width="0.25" g2gstroke="#312783"/>
	<path orgstroke="#000000" stroke-linecap="round" orgfill="none" fill="none" d="M545.433,377.73   c-0.305,0.521-0.971,0.947-1.495,0.947c-0.521,0-0.7-0.423-0.396-0.947c0.305-0.521,0.974-0.946,1.479-0.946   C545.555,376.784,545.734,377.207,545.433,377.73z" stroke="#000000" stroke-width="0.25" g2gstroke="#312783"/>
	<path orgstroke="#000000" stroke-linecap="round" orgfill="none" fill="none" d="M519.563,392.935   c-0.304,0.525-0.971,0.949-1.494,0.949c-0.521,0-0.702-0.423-0.396-0.949c0.303-0.521,0.972-0.945,1.479-0.945   C519.689,391.989,519.864,392.412,519.563,392.935z" stroke="#000000" stroke-width="0.25" g2gstroke="#312783"/>
</g>
</g>
</g></svg>