<svg xmlns="http://www.w3.org/2000/svg" xmlns:xlink="http://www.w3.org/1999/xlink" xmlns:etg="http://www.eurotaxglass.com/etg/evd/" etg:dataTimestamp="1539068912893" contentScriptType="text/ecmascript" zoomAndPan="magnify" contentStyleType="text/css" id="Layer_1" enable-background="new 0 0 1841.891 1595.279" version="1.1" xml:space="preserve" width="1841.891px" preserveAspectRatio="xMidYMid meet" viewBox="0 0 1841.891 1595.279" height="1595.279px" x="0px" y="0px"><g xmlns="http://www.w3.org/2000/svg" objecttype="PS" tooltip="#UNDEFINED" id="68">
<g onmouseover="notifyOwner(AGV_OBJECT_MOUSEOVER, '68(PS)')" transform="translate(29,-36) " onclick="clickZoom(evt); notifyOwner(AGV_OBJECT_MOUSECLICK, '68(PS)')" onmouseout="notifyOwner(AGV_OBJECT_MOUSEOUT, '68(PS)')" tooltip="#UNDEFINED" id="68-Graphic" objecttype="GRAPHIC">
<g zvalue="44">
<g zvalue="43">
<g zvalue="61">
<g zvalue="35">
<g zvalue="28">
<g zvalue="38">
<g zvalue="37">
<g zvalue="24">
<g>
<path orgstroke="#000000" stroke="#000000" d="   M369.567,204.133c1.26,0.507,2.424,0.96,3.401,1.316c2.226,0.816,9.413,2.163,11.435,2.857l-0.039-0.012   c0.49,0.112,0.884,0.396,1.055,0.814c0.753,1.714-0.296,2.765-1.437,3.246c-0.646,0.273-1.312,0.298-1.835,0.118l0.003-0.004   c-2.083-0.697-3.78-2.283-4.363-2.492l-0.004,0.015c-0.459-0.167-1.088-0.391-1.986-0.701c-1.469-0.509-3.018-1.057-4.446-1.576   c-0.907-0.338-1.995-0.759-3.155-1.229l-0.001,0.003c-1.734-0.694-3.664-1.502-5.557-2.306l-0.014-0.005   c-3.416-1.448-6.694-2.881-8.439-3.631c-3.359-1.438-4.438-2.006-5.925-2.919c-0.9-0.566-3.57-2.145-5.85-3.475   c-0.806,0.317-1.308,0.769-2.39,0.326c-1.077-0.433-1.46-1.172-0.929-2.283c0.017,0.01,0.027,0.018,0.049,0.028l-0.049-0.028   c-1.507-0.903-3.524-1.297-5.271-2.094l-1.226-1.324c-0.084-0.105-0.16-0.221-0.219-0.355c-0.365-0.873,0.307-1.996,1.517-2.496   c0.395-0.174,0.795-0.25,1.175-0.25c0.408,0,0.797,0.106,1.101,0.288c1.663,1.056,3.06,3.081,4.579,3.993   c0.106,0.066,0.242,0.145,0.384,0.23l-0.001,0.002c0.646,0.386,1.661,0.98,2.78,1.641l0.002-0.001   c2.297,1.353,5.031,2.957,5.955,3.536c1.486,0.921,2.565,1.476,5.926,2.919c0.23,0.095,0.493,0.21,0.766,0.337l0.009-0.002   c1.438,0.624,3.504,1.52,5.754,2.482l0.01-0.005C364.71,202.127,367.296,203.219,369.567,204.133" stroke-linecap="round" outline-element="true" transform="translate(117,38) translate(23.0, 110.0) translate(-47,-67) translate(8.0, -28.0) translate(-183,-84) translate(-1.849365236239464E-5, -2.9296875254658516E-6) translate(-47.925143615722675, 43.70637982177732) translate(-5.0, 64.0) translate(258.0, -194.0) translate(-15.0, -117.0) rotate(-69.77490787061285 529.2481670379639 524.5683870315552) translate(-11,304) translate(-31.619819335937507, 28.460404327392553) translate(-6.106518282988873, -4.513513513513516) rotate(-306.88281718415334 577.9744815826416 196.62146949768066) translate(112,-152) translate(4.394531231355359E-6, 1.177978515443101E-5) translate(10.004769475357705, -4.841017488076318) rotate(134.59314867993626 455.9697437286377 353.46253490448) matrix(1 0 0 -1 0 706.9022541046143) translate(9.068357221609688, 8.705622932745314) translate(-115,50) matrix(-0.9987214207649231 -0.05055181682109833 -0.05055181682109833 0.9987214207649231 930.6012902980077 113.97744356468729)" stroke-miterlimit="10" orgfill="#ffffff" fill="#ffffff" stroke-width="0.5" g2gfill="#ECF5E4" stroke-linejoin="round" g2gstroke="#312783"/>
<path stroke-linecap="round" orgstroke="#000000" orgfill="none" transform="translate(117,38) translate(23.0, 110.0) translate(-47,-67) translate(8.0, -28.0) translate(-183,-84) translate(-1.849365236239464E-5, -2.9296875254658516E-6) translate(-47.925143615722675, 43.70637982177732) translate(-5.0, 64.0) translate(258.0, -194.0) translate(-15.0, -117.0) rotate(-69.77490787061285 529.2481670379639 524.5683870315552) translate(-11,304) translate(-31.619819335937507, 28.460404327392553) translate(-6.106518282988873, -4.513513513513516) rotate(-306.88281718415334 577.9744815826416 196.62146949768066) translate(112,-152) translate(4.394531231355359E-6, 1.177978515443101E-5) translate(10.004769475357705, -4.841017488076318) rotate(134.59314867993626 455.9697437286377 353.46253490448) matrix(1 0 0 -1 0 706.9022541046143) translate(9.068357221609688, 8.705622932745314) translate(-115,50) matrix(-0.9987214207649231 -0.05055181682109833 -0.05055181682109833 0.9987214207649231 930.6012902980077 113.97744356468729)" fill="none" stroke-linejoin="round" d="   M336.168,185.97c0.253,0.153,0.448,0.368,0.562,0.634c0.369,0.877-0.309,1.996-1.512,2.499c-1.02,0.43-2.095,0.273-2.62-0.321" stroke="#000000" stroke-width="0.25" g2gstroke="#312782" stroke-miterlimit="10"/>
<path stroke-linecap="round" orgstroke="#000000" orgfill="none" transform="translate(117,38) translate(23.0, 110.0) translate(-47,-67) translate(8.0, -28.0) translate(-183,-84) translate(-1.849365236239464E-5, -2.9296875254658516E-6) translate(-47.925143615722675, 43.70637982177732) translate(-5.0, 64.0) translate(258.0, -194.0) translate(-15.0, -117.0) rotate(-69.77490787061285 529.2481670379639 524.5683870315552) translate(-11,304) translate(-31.619819335937507, 28.460404327392553) translate(-6.106518282988873, -4.513513513513516) rotate(-306.88281718415334 577.9744815826416 196.62146949768066) translate(112,-152) translate(4.394531231355359E-6, 1.177978515443101E-5) translate(10.004769475357705, -4.841017488076318) rotate(134.59314867993626 455.9697437286377 353.46253490448) matrix(1 0 0 -1 0 706.9022541046143) translate(9.068357221609688, 8.705622932745314) translate(-115,50) matrix(-0.9987214207649231 -0.05055181682109833 -0.05055181682109833 0.9987214207649231 930.6012902980077 113.97744356468729)" fill="none" stroke-linejoin="round" d="   M339.144,192.228c0.585,0.355,1.856,1.1,3.273,1.934" stroke="#000000" stroke-width="0.25" g2gstroke="#312782" stroke-miterlimit="10"/>
<path stroke-linecap="round" orgstroke="#000000" orgfill="none" transform="translate(117,38) translate(23.0, 110.0) translate(-47,-67) translate(8.0, -28.0) translate(-183,-84) translate(-1.849365236239464E-5, -2.9296875254658516E-6) translate(-47.925143615722675, 43.70637982177732) translate(-5.0, 64.0) translate(258.0, -194.0) translate(-15.0, -117.0) rotate(-69.77490787061285 529.2481670379639 524.5683870315552) translate(-11,304) translate(-31.619819335937507, 28.460404327392553) translate(-6.106518282988873, -4.513513513513516) rotate(-306.88281718415334 577.9744815826416 196.62146949768066) translate(112,-152) translate(4.394531231355359E-6, 1.177978515443101E-5) translate(10.004769475357705, -4.841017488076318) rotate(134.59314867993626 455.9697437286377 353.46253490448) matrix(1 0 0 -1 0 706.9022541046143) translate(9.068357221609688, 8.705622932745314) translate(-115,50) matrix(-0.9987214207649231 -0.05055181682109833 -0.05055181682109833 0.9987214207649231 930.6012902980077 113.97744356468729)" fill="none" stroke-linejoin="round" d="   M377.781,209.995c2.085,0.759,0.561,0.311,4.366,1.611" stroke="#000000" stroke-width="0.25" g2gstroke="#312782" stroke-miterlimit="10"/>
<path stroke-linecap="round" orgstroke="#000000" orgfill="none" transform="translate(117,38) translate(23.0, 110.0) translate(-47,-67) translate(8.0, -28.0) translate(-183,-84) translate(-1.849365236239464E-5, -2.9296875254658516E-6) translate(-47.925143615722675, 43.70637982177732) translate(-5.0, 64.0) translate(258.0, -194.0) translate(-15.0, -117.0) rotate(-69.77490787061285 529.2481670379639 524.5683870315552) translate(-11,304) translate(-31.619819335937507, 28.460404327392553) translate(-6.106518282988873, -4.513513513513516) rotate(-306.88281718415334 577.9744815826416 196.62146949768066) translate(112,-152) translate(4.394531231355359E-6, 1.177978515443101E-5) translate(10.004769475357705, -4.841017488076318) rotate(134.59314867993626 455.9697437286377 353.46253490448) matrix(1 0 0 -1 0 706.9022541046143) translate(9.068357221609688, 8.705622932745314) translate(-115,50) matrix(-0.9987214207649231 -0.05055181682109833 -0.05055181682109833 0.9987214207649231 930.6012902980077 113.97744356468729)" fill="none" stroke-linejoin="round" d="M332.59600830078125 188.77999877929688L333.82501220703125 190.10800170898438" stroke="#000000" stroke-width="0.25" stroke-miterlimit="10" g2gstroke="#312782"/>
<path stroke-linecap="round" orgstroke="#000000" orgfill="none" transform="translate(117,38) translate(23.0, 110.0) translate(-47,-67) translate(8.0, -28.0) translate(-183,-84) translate(-1.849365236239464E-5, -2.9296875254658516E-6) translate(-47.925143615722675, 43.70637982177732) translate(-5.0, 64.0) translate(258.0, -194.0) translate(-15.0, -117.0) rotate(-69.77490787061285 529.2481670379639 524.5683870315552) translate(-11,304) translate(-31.619819335937507, 28.460404327392553) translate(-6.106518282988873, -4.513513513513516) rotate(-306.88281718415334 577.9744815826416 196.62146949768066) translate(112,-152) translate(4.394531231355359E-6, 1.177978515443101E-5) translate(10.004769475357705, -4.841017488076318) rotate(134.59314867993626 455.9697437286377 353.46253490448) matrix(1 0 0 -1 0 706.9022541046143) translate(9.068357221609688, 8.705622932745314) translate(-115,50) matrix(-0.9987214207649231 -0.05055181682109833 -0.05055181682109833 0.9987214207649231 930.6012902980077 113.97744356468729)" fill="none" stroke-linejoin="round" d="   M339.049,192.198c-0.077,0.705,0.339,1.211,1.156,1.541c0.663,0.273,1.115,0.201,1.547,0.036" stroke="#000000" stroke-width="0.25" g2gstroke="#312782" stroke-miterlimit="10"/>
<ellipse orgstroke="#000000" stroke="#000000" stroke-linecap="round" transform="translate(117,38) translate(23.0, 110.0) translate(-47,-67) translate(8.0, -28.0) translate(-183,-84) translate(-1.849365236239464E-5, -2.9296875254658516E-6) translate(-47.925143615722675, 43.70637982177732) translate(-5.0, 64.0) translate(258.0, -194.0) translate(-15.0, -117.0) rotate(-69.77490787061285 529.2481670379639 524.5683870315552) translate(-11,304) translate(-31.619819335937507, 28.460404327392553) translate(-6.106518282988873, -4.513513513513516) rotate(-306.88281718415334 577.9744815826416 196.62146949768066) translate(112,-152) translate(4.394531231355359E-6, 1.177978515443101E-5) translate(10.004769475357705, -4.841017488076318) rotate(134.59314867993626 455.9697437286377 353.46253490448) matrix(1 0 0 -1 0 706.9022541046143) translate(9.068357221609688, 8.705622932745314) translate(-115,50) matrix(-0.9013574228243386 -0.43311901008021414 -0.43311905792143274 0.9013574669145086 840.7489694033626 255.9293701683937)" stroke-miterlimit="10" orgfill="none" fill="none" stroke-width="0.25" stroke-linejoin="round" cx="216.42906058069116" rx="1.089" ry="0.793" cy="135.28052346941513" g2gstroke="#312782"/>
<ellipse orgstroke="#000000" stroke="#000000" stroke-linecap="round" transform="translate(117,38) translate(23.0, 110.0) translate(-47,-67) translate(8.0, -28.0) translate(-183,-84) translate(-1.849365236239464E-5, -2.9296875254658516E-6) translate(-47.925143615722675, 43.70637982177732) translate(-5.0, 64.0) translate(258.0, -194.0) translate(-15.0, -117.0) rotate(-69.77490787061285 529.2481670379639 524.5683870315552) translate(-11,304) translate(-31.619819335937507, 28.460404327392553) translate(-6.106518282988873, -4.513513513513516) rotate(-306.88281718415334 577.9744815826416 196.62146949768066) translate(112,-152) translate(4.394531231355359E-6, 1.177978515443101E-5) translate(10.004769475357705, -4.841017488076318) rotate(134.59314867993626 455.9697437286377 353.46253490448) matrix(1 0 0 -1 0 706.9022541046143) translate(9.068357221609688, 8.705622932745314) translate(-115,50) matrix(-0.9011374811550013 -0.43350839934972923 -0.43350839934972923 0.9011374811550013 844.6927083427086 277.064833950993)" stroke-miterlimit="10" orgfill="none" fill="none" stroke-width="0.25" stroke-linejoin="round" cx="265.39780118812564" rx="1.089" ry="0.793" cy="157.96731188106733" g2gstroke="#312782"/>
<path stroke-linecap="round" orgstroke="#000000" orgfill="none" transform="translate(117,38) translate(23.0, 110.0) translate(-47,-67) translate(8.0, -28.0) translate(-183,-84) translate(-1.849365236239464E-5, -2.9296875254658516E-6) translate(-47.925143615722675, 43.70637982177732) translate(-5.0, 64.0) translate(258.0, -194.0) translate(-15.0, -117.0) rotate(-69.77490787061285 529.2481670379639 524.5683870315552) translate(-11,304) translate(-31.619819335937507, 28.460404327392553) translate(-6.106518282988873, -4.513513513513516) rotate(-306.88281718415334 577.9744815826416 196.62146949768066) translate(112,-152) translate(4.394531231355359E-6, 1.177978515443101E-5) translate(10.004769475357705, -4.841017488076318) rotate(134.59314867993626 455.9697437286377 353.46253490448) matrix(1 0 0 -1 0 706.9022541046143) translate(9.068357221609688, 8.705622932745314) translate(-115,50) matrix(-0.9987214207649231 -0.05055181682109833 -0.05055181682109833 0.9987214207649231 930.6012902980077 113.97744356468729)" fill="none" stroke-linejoin="round" d="   M340.848,190.028c-0.967-0.274-2.027,1.654-1.631,2.243" stroke="#000000" stroke-width="0.25" g2gstroke="#312782" stroke-miterlimit="10"/>
<path stroke-linecap="round" orgstroke="#000000" orgfill="none" transform="translate(117,38) translate(23.0, 110.0) translate(-47,-67) translate(8.0, -28.0) translate(-183,-84) translate(-1.849365236239464E-5, -2.9296875254658516E-6) translate(-47.925143615722675, 43.70637982177732) translate(-5.0, 64.0) translate(258.0, -194.0) translate(-15.0, -117.0) rotate(-69.77490787061285 529.2481670379639 524.5683870315552) translate(-11,304) translate(-31.619819335937507, 28.460404327392553) translate(-6.106518282988873, -4.513513513513516) rotate(-306.88281718415334 577.9744815826416 196.62146949768066) translate(112,-152) translate(4.394531231355359E-6, 1.177978515443101E-5) translate(10.004769475357705, -4.841017488076318) rotate(134.59314867993626 455.9697437286377 353.46253490448) matrix(1 0 0 -1 0 706.9022541046143) translate(9.068357221609688, 8.705622932745314) translate(-115,50) matrix(-0.9987214207649231 -0.05055181682109833 -0.05055181682109833 0.9987214207649231 930.6012902980077 113.97744356468729)" fill="none" stroke-linejoin="round" d="   M338.727,188.24c0.194,0.568-1.219,2.22-2.16,2.324" stroke="#000000" stroke-width="0.25" g2gstroke="#312782" stroke-miterlimit="10"/>
<path stroke-linecap="round" orgstroke="#000000" orgfill="none" transform="translate(117,38) translate(23.0, 110.0) translate(-47,-67) translate(8.0, -28.0) translate(-183,-84) translate(-1.849365236239464E-5, -2.9296875254658516E-6) translate(-47.925143615722675, 43.70637982177732) translate(-5.0, 64.0) translate(258.0, -194.0) translate(-15.0, -117.0) rotate(-69.77490787061285 529.2481670379639 524.5683870315552) translate(-11,304) translate(-31.619819335937507, 28.460404327392553) translate(-6.106518282988873, -4.513513513513516) rotate(-306.88281718415334 577.9744815826416 196.62146949768066) translate(112,-152) translate(4.394531231355359E-6, 1.177978515443101E-5) translate(10.004769475357705, -4.841017488076318) rotate(134.59314867993626 455.9697437286377 353.46253490448) matrix(1 0 0 -1 0 706.9022541046143) translate(9.068357221609688, 8.705622932745314) translate(-115,50) matrix(-0.9987214207649231 -0.05055181682109833 -0.05055181682109833 0.9987214207649231 930.6012902980077 113.97744356468729)" fill="none" stroke-linejoin="round" d="   M334.32,189.331c1.121,0.918,2.966,1.565,4.851,2.299" stroke="#000000" stroke-width="0.25" g2gstroke="#312782" stroke-miterlimit="10"/>
<path stroke-linecap="round" orgstroke="#000000" orgfill="none" transform="translate(117,38) translate(23.0, 110.0) translate(-47,-67) translate(8.0, -28.0) translate(-183,-84) translate(-1.849365236239464E-5, -2.9296875254658516E-6) translate(-47.925143615722675, 43.70637982177732) translate(-5.0, 64.0) translate(258.0, -194.0) translate(-15.0, -117.0) rotate(-69.77490787061285 529.2481670379639 524.5683870315552) translate(-11,304) translate(-31.619819335937507, 28.460404327392553) translate(-6.106518282988873, -4.513513513513516) rotate(-306.88281718415334 577.9744815826416 196.62146949768066) translate(112,-152) translate(4.394531231355359E-6, 1.177978515443101E-5) translate(10.004769475357705, -4.841017488076318) rotate(134.59314867993626 455.9697437286377 353.46253490448) matrix(1 0 0 -1 0 706.9022541046143) translate(9.068357221609688, 8.705622932745314) translate(-115,50) matrix(-0.9987214207649231 -0.05055181682109833 -0.05055181682109833 0.9987214207649231 930.6012902980077 113.97744356468729)" fill="none" stroke-linejoin="round" d="   M385.418,209.109c0.349,0.835-0.296,1.901-1.438,2.381c-1.147,0.48-2.362,0.194-2.709-0.642c-0.35-0.835,0.297-1.901,1.438-2.381   c0.575-0.241,1.163-0.288,1.655-0.173" stroke="#000000" stroke-width="0.25" g2gstroke="#312782" stroke-miterlimit="10"/>
<path stroke-linecap="round" orgstroke="#000000" orgfill="none" transform="translate(117,38) translate(23.0, 110.0) translate(-47,-67) translate(8.0, -28.0) translate(-183,-84) translate(-1.849365236239464E-5, -2.9296875254658516E-6) translate(-47.925143615722675, 43.70637982177732) translate(-5.0, 64.0) translate(258.0, -194.0) translate(-15.0, -117.0) rotate(-69.77490787061285 529.2481670379639 524.5683870315552) translate(-11,304) translate(-31.619819335937507, 28.460404327392553) translate(-6.106518282988873, -4.513513513513516) rotate(-306.88281718415334 577.9744815826416 196.62146949768066) translate(112,-152) translate(4.394531231355359E-6, 1.177978515443101E-5) translate(10.004769475357705, -4.841017488076318) rotate(134.59314867993626 455.9697437286377 353.46253490448) matrix(1 0 0 -1 0 706.9022541046143) translate(9.068357221609688, 8.705622932745314) translate(-115,50) matrix(-0.9987214207649231 -0.05055181682109833 -0.05055181682109833 0.9987214207649231 930.6012902980077 113.97744356468729)" fill="none" stroke-linejoin="round" d="   M379.301,210.593c-0.081-0.097-0.151-0.206-0.204-0.327c-0.35-0.835,0.295-1.901,1.439-2.381c0.564-0.238,1.146-0.287,1.631-0.177" stroke="#000000" stroke-width="0.25" g2gstroke="#312782" stroke-miterlimit="10"/>
</g>
</g>
</g>
</g>
</g>
</g>
</g>
</g>
</g>
</g>
</g></svg>